<svg width="21" height="14" viewBox="0 0 21 14" fill="none" xmlns="http://www.w3.org/2000/svg">
<path d="M10.5 0C6.00879 0 2.10205 2.81948 0 6.99744C2.10205 11.1805 6.00879 13.9949 10.5 13.9949C14.9912 13.9949 18.8979 11.1754 21 6.99744C18.8979 2.81948 14.9912 0 10.5 0ZM10.5 11.3753C8.08521 11.3753 6.12671 9.41706 6.12671 7.00256C6.12671 4.58806 8.08521 2.62981 10.5 2.62981C12.9148 2.62981 14.8733 4.58806 14.8733 7.00256C14.8733 9.41706 12.9148 11.3753 10.5 11.3753Z" fill="#3C3C3C"/>
<path d="M10.4999 9.62216C11.9496 9.62216 13.1249 8.44705 13.1249 6.99748C13.1249 5.54791 11.9496 4.3728 10.4999 4.3728C9.05013 4.3728 7.87488 5.54791 7.87488 6.99748C7.87488 8.44705 9.05013 9.62216 10.4999 9.62216Z" fill="#3C3C3C"/>
</svg>
