<svg width="32" height="40" viewBox="0 0 32 40" fill="none" xmlns="http://www.w3.org/2000/svg">
<path d="M24.9911 32.3207C25.1299 32.2898 25.254 32.2126 25.343 32.1016C25.4319 31.9907 25.4804 31.8528 25.4804 31.7106V30.5987L31.1613 27.3189C31.2563 27.264 31.3352 27.1852 31.3901 27.0901C31.445 26.9951 31.4738 26.8874 31.4738 26.7776V9.34249C31.4738 9.23278 31.445 9.12501 31.3901 9.03C31.3352 8.93499 31.2563 8.85609 31.1613 8.80124L16.0621 0.0837342C15.9671 0.0288789 15.8593 0 15.7496 0C15.6399 0 15.5321 0.0288789 15.4371 0.0837342L0.337891 8.80124C0.242881 8.85609 0.163984 8.93499 0.109129 9.03C0.0542738 9.12501 0.0253934 9.23278 0.0253906 9.34249V26.7776C0.0253934 26.8874 0.0542738 26.9951 0.109129 27.0901C0.163984 27.1852 0.242881 27.264 0.337891 27.3189L6.01883 30.5987V31.7109C6.01883 31.8531 6.06731 31.991 6.15627 32.102C6.24523 32.2129 6.36934 32.2901 6.50813 32.321L8.41836 32.7459C8.52901 33.073 8.66152 33.3924 8.815 33.7018L7.76438 35.3536C7.68806 35.4736 7.65492 35.616 7.67045 35.7573C7.68597 35.8987 7.74923 36.0305 7.84977 36.131L9.88813 38.1694C9.98867 38.2699 10.1205 38.3331 10.2618 38.3487C10.4031 38.3642 10.5455 38.3311 10.6655 38.2548L12.3173 37.2041C12.6268 37.3576 12.9461 37.4902 13.2733 37.6009L13.6982 39.511C13.7291 39.6497 13.8064 39.7738 13.9173 39.8627C14.0283 39.9516 14.1662 40 14.3083 40H17.1911C17.3333 40 17.4712 39.9515 17.5821 39.8626C17.693 39.7736 17.7703 39.6495 17.8012 39.5107L18.2261 37.6005C18.5533 37.4898 18.8726 37.3573 19.182 37.2038L20.8339 38.2545C20.9539 38.3308 21.0963 38.3639 21.2376 38.3484C21.3789 38.3328 21.5107 38.2696 21.6113 38.1691L23.6497 36.1308C23.7503 36.0302 23.8135 35.8984 23.829 35.757C23.8446 35.6157 23.8114 35.4733 23.7351 35.3533L22.6844 33.7015C22.8379 33.3921 22.9704 33.0727 23.0811 32.7455L24.9911 32.3207ZM30.2238 26.4168L25.4804 29.1554V28.8281C25.4804 28.6859 25.4319 28.548 25.343 28.4371C25.254 28.3262 25.1299 28.2489 24.9911 28.218L23.0809 27.7931C22.9703 27.466 22.8377 27.1466 22.6842 26.8372L23.7349 25.1854C23.8113 25.0654 23.8444 24.923 23.8289 24.7817C23.8133 24.6403 23.7501 24.5085 23.6495 24.408L21.6111 22.3696C21.5106 22.2691 21.3788 22.2058 21.2374 22.1903C21.0961 22.1747 20.9537 22.2078 20.8338 22.2841L19.1819 23.3349C18.8725 23.1814 18.5531 23.0488 18.2259 22.9381L17.801 21.028C17.7701 20.8892 17.6929 20.7651 17.5819 20.6761C17.471 20.5872 17.3331 20.5387 17.1909 20.5387H16.3746V18.4453L30.2238 10.4494V26.4168ZM15.7496 1.34663L29.62 9.35444L15.7809 17.3446L1.90102 9.34218L15.7496 1.34663ZM6.50813 28.2178C6.3693 28.2487 6.24516 28.326 6.1562 28.437C6.06724 28.5479 6.01878 28.6859 6.01883 28.8281V29.1555L1.27539 26.4168V10.4246L15.1246 18.409V20.5385H14.3083C14.1661 20.5385 14.0282 20.587 13.9173 20.6759C13.8064 20.7649 13.7291 20.889 13.6982 21.0277L13.2733 22.9379C12.9461 23.0487 12.6268 23.1812 12.3173 23.3347L10.6655 22.2839C10.5455 22.2076 10.4031 22.1745 10.2618 22.19C10.1205 22.2055 9.98867 22.2688 9.88813 22.3693L7.84977 24.4078C7.74924 24.5083 7.686 24.6402 7.67048 24.7815C7.65495 24.9228 7.68808 25.0652 7.76438 25.1851L8.815 26.8369C8.66153 27.1464 8.529 27.4657 8.41828 27.7929L6.50813 28.2178ZM22.4561 31.6039C22.3461 31.6284 22.2447 31.6822 22.1628 31.7596C22.0808 31.837 22.0213 31.9351 21.9906 32.0435C21.8536 32.5252 21.661 32.9892 21.4167 33.4263C21.3617 33.5248 21.3344 33.6362 21.3376 33.749C21.3408 33.8617 21.3745 33.9714 21.435 34.0666L22.4116 35.6012L21.0816 36.9308L19.547 35.9547C19.4518 35.8942 19.3421 35.8605 19.2294 35.8573C19.1167 35.854 19.0052 35.8814 18.9068 35.9363C18.4697 36.1806 18.0056 36.3732 17.524 36.5102C17.4156 36.5409 17.3175 36.6005 17.2402 36.6824C17.1628 36.7644 17.1091 36.8657 17.0846 36.9757L16.6897 38.75H14.8095L14.4148 36.9757C14.3904 36.8657 14.3366 36.7643 14.2593 36.6824C14.1819 36.6004 14.0838 36.5409 13.9754 36.5102C13.4938 36.3732 13.0297 36.1806 12.5926 35.9363C12.4942 35.8814 12.3827 35.8541 12.27 35.8573C12.1573 35.8605 12.0476 35.8942 11.9525 35.9547L10.4176 36.9308L9.08805 35.6016L10.0646 34.067C10.1251 33.9718 10.1588 33.8621 10.162 33.7494C10.1652 33.6366 10.1379 33.5252 10.0829 33.4267C9.83864 32.9896 9.64606 32.5255 9.50907 32.0439C9.4783 31.9355 9.41879 31.8374 9.33683 31.76C9.25488 31.6827 9.15353 31.6289 9.04352 31.6044L7.26922 31.2098V29.3291L9.04352 28.9344C9.15353 28.9099 9.25488 28.8561 9.33683 28.7788C9.41879 28.7014 9.4783 28.6033 9.50907 28.4949C9.64609 28.0133 9.83866 27.5492 10.0829 27.1121C10.1379 27.0137 10.1652 26.9022 10.162 26.7895C10.1587 26.6769 10.1251 26.5672 10.0646 26.472L9.08805 24.9374L10.4176 23.6079L11.9523 24.5844C12.0474 24.645 12.1571 24.6787 12.2698 24.6819C12.3825 24.6851 12.494 24.6578 12.5924 24.6027C13.0296 24.3585 13.4936 24.1659 13.9752 24.029C14.0836 23.9982 14.1817 23.9387 14.2591 23.8567C14.3364 23.7748 14.3902 23.6734 14.4146 23.5634L14.8093 21.7891H16.6895L17.0841 23.5634C17.1086 23.6735 17.1624 23.7748 17.2398 23.8568C17.3172 23.9387 17.4153 23.9982 17.5238 24.029C18.0054 24.1659 18.4695 24.3584 18.9066 24.6027C19.005 24.6578 19.1164 24.6851 19.2291 24.6819C19.3418 24.6787 19.4515 24.645 19.5466 24.5844L21.0813 23.6079L22.4112 24.9375L21.435 26.4721C21.3745 26.5672 21.3408 26.677 21.3376 26.7897C21.3344 26.9024 21.3617 27.0139 21.4167 27.1123C21.661 27.5494 21.8536 28.0135 21.9906 28.4952C22.0213 28.6036 22.0809 28.7016 22.1628 28.779C22.2448 28.8563 22.3461 28.9101 22.4561 28.9345L24.2304 29.3293V31.2094L22.4561 31.6039ZM15.7496 25.3384C14.7744 25.3383 13.821 25.6275 13.0101 26.1693C12.1992 26.7111 11.5672 27.4813 11.194 28.3823C10.8207 29.2833 10.7231 30.2747 10.9133 31.2313C11.1036 32.1878 11.5732 33.0664 12.2628 33.756C12.9524 34.4456 13.8311 34.9152 14.7876 35.1055C15.7441 35.2957 16.7355 35.1981 17.6366 34.8249C18.5376 34.4516 19.3077 33.8196 19.8495 33.0087C20.3913 32.1978 20.6805 31.2445 20.6805 30.2692C20.679 28.9619 20.159 27.7086 19.2346 26.7842C18.3102 25.8598 17.0569 25.3398 15.7496 25.3384ZM15.7496 33.9502C15.0216 33.9502 14.3099 33.7343 13.7046 33.3298C13.0992 32.9254 12.6274 32.3505 12.3488 31.6779C12.0702 31.0053 11.9973 30.2652 12.1393 29.5511C12.2813 28.8371 12.6319 28.1812 13.1467 27.6664C13.6615 27.1516 14.3174 26.801 15.0314 26.659C15.7454 26.517 16.4855 26.5899 17.1582 26.8685C17.8308 27.1471 18.4056 27.6189 18.8101 28.2242C19.2146 28.8295 19.4305 29.5412 19.4305 30.2692C19.4294 31.2451 19.0412 32.1807 18.3512 32.8708C17.6611 33.5609 16.7255 33.949 15.7496 33.9502Z" fill="#333333"/>
</svg>
