<svg width="41" height="40" viewBox="0 0 41 40" fill="none" xmlns="http://www.w3.org/2000/svg">
<path d="M39.9568 16.8626C39.8438 15.237 39.6392 13.6191 39.3442 12.0165C39.309 11.8275 39.2303 11.6494 39.1145 11.496C38.9986 11.3427 38.8486 11.2185 38.6764 11.1331C38.5042 11.0477 38.3145 11.0036 38.1223 11.0042C37.9301 11.0047 37.7407 11.05 37.569 11.1364C36.324 11.749 35.3477 12.7979 34.8259 14.0835C34.3527 15.3081 34.3278 16.6605 34.7554 17.9016C34.8486 18.1702 34.842 18.4633 34.7366 18.7273L34.0381 20.4127C33.4861 20.4794 32.9699 20.7212 32.5654 21.1026L29.7086 23.8112C29.6067 23.909 29.473 23.9667 29.332 23.9737C28.4326 24.0115 27.551 24.2372 26.7441 24.6362C26.0319 24.991 25.3927 25.4764 24.8598 26.0672C23.7822 27.2537 23.1856 28.7993 23.1864 30.4021V34.0504C22.8281 34.0767 22.4929 34.2373 22.248 34.5001C22.003 34.7629 21.8663 35.1086 21.8652 35.4678V38.5718C21.8657 38.9505 22.0163 39.3135 22.284 39.5813C22.5518 39.849 22.9148 39.9996 23.2935 40.0001H32.6299C33.0085 39.9996 33.3715 39.849 33.6393 39.5813C33.907 39.3135 34.0577 38.9505 34.0581 38.5718V35.4678C34.0577 35.0891 33.907 34.7261 33.6393 34.4584C33.3715 34.1906 33.0085 34.04 32.6299 34.0396H32.4939L32.4946 34.0159C32.5031 33.7185 32.6266 33.436 32.8391 33.2278L38.6388 27.5366C39.2225 26.9612 39.5969 26.207 39.7023 25.3942C40.0672 22.5656 40.1524 19.7079 39.9568 16.8626ZM32.6299 38.5718H23.2934V35.4678L32.6298 35.4671L32.6299 38.5718ZM38.2859 25.2115C38.2218 25.7067 37.9939 26.1663 37.6384 26.517L31.8387 32.2083C31.3621 32.6747 31.0854 33.3081 31.067 33.9747L31.0652 34.0396H24.6146V30.4021C24.6139 29.154 25.0785 27.9506 25.9176 27.0268C26.3309 26.5679 26.8268 26.1908 27.3793 25.9152C28.0091 25.6046 28.697 25.4293 29.3986 25.4005C29.8819 25.3772 30.3408 25.1809 30.6915 24.8475L33.548 22.1389C33.7181 21.9781 33.932 21.8714 34.1627 21.832C34.3934 21.7927 34.6306 21.8225 34.8444 21.9178C34.9465 21.9636 35.0323 22.0392 35.0908 22.1346C35.1492 22.2301 35.1774 22.3409 35.1718 22.4527C35.1717 22.7821 35.051 23.1002 34.8325 23.3467L31.2686 27.3706C31.206 27.4407 31.1579 27.5225 31.127 27.6113C31.0961 27.7001 31.083 27.7941 31.0885 27.8879C31.094 27.9817 31.118 28.0736 31.159 28.1581C31.2001 28.2427 31.2575 28.3183 31.3279 28.3806C31.3982 28.4429 31.4802 28.4908 31.5691 28.5213C31.658 28.5519 31.752 28.5646 31.8458 28.5588C31.9397 28.5529 32.0314 28.5286 32.1158 28.4872C32.2002 28.4458 32.2756 28.3882 32.3377 28.3176L35.9019 24.2938C36.3583 23.7747 36.6069 23.1054 36.6 22.4143C36.5989 22.0451 36.4939 21.6835 36.2971 21.3711C36.1002 21.0586 35.8195 20.8078 35.4869 20.6472L36.0564 19.2734C36.2931 18.6918 36.3123 18.0443 36.1104 17.4497C35.786 16.541 35.7966 15.5462 36.1405 14.6446C36.4843 13.743 37.1388 12.9938 37.986 12.5319C38.2465 13.9977 38.4288 15.4764 38.5321 16.9616C38.7212 19.713 38.6388 22.4763 38.2859 25.2115Z" fill="#333333"/>
<path d="M17.3151 34.0504V30.6225C17.3371 28.8377 16.655 27.1162 15.4165 25.8308C14.932 25.3451 14.3715 24.9416 13.7571 24.6362C12.9528 24.2389 12.0745 24.0135 11.1782 23.9744C11.0412 23.9708 10.9101 23.9183 10.8083 23.8266L7.93612 21.1027C7.53209 20.7209 7.01588 20.4795 6.46392 20.414L5.76519 18.7281C5.65956 18.4639 5.65275 18.1705 5.74602 17.9017C6.17366 16.6605 6.14871 15.3081 5.67558 14.0836C5.15346 12.7976 4.17679 11.7485 2.93141 11.1358C2.75972 11.0496 2.57035 11.0046 2.37826 11.0042C2.18616 11.0037 1.9966 11.048 1.82455 11.1334C1.65249 11.2188 1.50264 11.3431 1.38684 11.4964C1.27104 11.6496 1.19246 11.8277 1.1573 12.0166C0.343487 16.4301 0.222668 20.9435 0.799194 25.3943C0.904614 26.2072 1.27913 26.9614 1.86304 27.5366L7.66205 33.2279C7.87466 33.4357 7.99829 33.718 8.0069 34.0152L8.00761 34.0396H7.8716C7.49295 34.0401 7.12993 34.1907 6.86218 34.4584C6.59443 34.7262 6.44382 35.0892 6.44338 35.4679V38.5719C6.44382 38.9505 6.59443 39.3135 6.86218 39.5813C7.12993 39.849 7.49295 39.9997 7.8716 40.0001H17.2081C17.5867 39.9997 17.9498 39.849 18.2175 39.5813C18.4853 39.3135 18.6359 38.9505 18.6363 38.5719V35.4679C18.6352 35.1086 18.4985 34.763 18.2535 34.5002C18.0086 34.2374 17.6734 34.0767 17.3151 34.0504ZM9.43445 33.9741C9.4159 33.3076 9.13908 32.6745 8.66245 32.2083L2.86345 26.5171C2.50773 26.1665 2.27964 25.7069 2.21558 25.2116C1.66924 20.9944 1.77036 16.7186 2.51545 12.5319C3.34677 12.9908 3.99351 13.7234 4.34572 14.6052C4.69563 15.5184 4.71168 16.5259 4.39105 17.4498C4.18915 18.0447 4.20846 18.6924 4.44544 19.2741L5.0142 20.6463C4.67655 20.811 4.39267 21.0682 4.19566 21.3881C3.99865 21.7079 3.89663 22.0772 3.90149 22.4528C3.90138 23.1309 4.14972 23.7857 4.59956 24.2931L8.16384 28.3177C8.22591 28.3883 8.30131 28.4459 8.38571 28.4873C8.4701 28.5287 8.56184 28.553 8.65566 28.5589C8.74948 28.5647 8.84353 28.552 8.93242 28.5214C9.02131 28.4908 9.10328 28.443 9.17365 28.3807C9.24401 28.3184 9.30137 28.2428 9.34245 28.1582C9.38352 28.0736 9.4075 27.9818 9.41301 27.888C9.41852 27.7941 9.40544 27.7001 9.37454 27.6114C9.34363 27.5226 9.2955 27.4408 9.23291 27.3707L5.66864 23.3461C5.44359 23.0886 5.32273 22.7564 5.32971 22.4144C5.33051 22.306 5.36352 22.2002 5.42455 22.1106C5.48558 22.0209 5.57188 21.9514 5.67249 21.9109C5.88487 21.8192 6.11952 21.7919 6.34728 21.8325C6.57505 21.873 6.78587 21.9796 6.95356 22.139L9.82639 24.8636C10.1763 25.1905 10.6318 25.3813 11.1103 25.4013C11.8094 25.431 12.4947 25.6061 13.1225 25.9152C13.5979 26.152 14.0317 26.4646 14.4067 26.8407C15.378 27.8578 15.9097 29.2164 15.8869 30.6225V34.0396H9.43636L9.43445 33.9741ZM17.2081 38.5719H7.8716V35.4679H17.2081V38.5719Z" fill="#333333"/>
<path d="M20.2521 21.0119C20.1051 21.0121 19.9594 20.9827 19.824 20.9254C18.732 20.4461 17.6989 19.8426 16.7451 19.1269C10.9272 14.9684 11.0409 6.60066 11.0897 3.0273L11.0963 2.44221C11.0977 2.21657 11.169 1.99691 11.3004 1.81346C11.4318 1.63 11.6168 1.49177 11.83 1.41777C14.5404 0.491738 17.3834 0.0128921 20.2476 0C23.1134 0.0121065 25.9582 0.490721 28.6701 1.41706C28.8838 1.49083 29.0692 1.62905 29.201 1.81265C29.3328 1.99626 29.4044 2.21621 29.4059 2.4422L29.4125 3.02729C29.4613 6.60064 29.575 14.9684 23.7572 19.1269C22.8033 19.8426 21.7702 20.4461 20.6782 20.9254C20.5434 20.9825 20.3985 21.0119 20.2521 21.0119ZM12.5218 2.69186L12.5176 3.04683C12.4722 6.39631 12.3655 14.2411 17.5756 17.965C18.4071 18.5906 19.3042 19.1238 20.2511 19.5551C21.1979 19.1236 22.095 18.5904 22.9266 17.9651C28.1367 14.2411 28.03 6.39635 27.9846 3.04686L27.9804 2.6919C25.4853 1.86653 22.8756 1.44006 20.2476 1.42821C17.6219 1.4408 15.0146 1.86725 12.5218 2.69186Z" fill="#333333"/>
<path d="M18.8886 12.4885C18.7518 12.488 18.6168 12.4579 18.4929 12.4001C18.369 12.3423 18.2592 12.2582 18.171 12.1537L16.2532 9.91169C16.1307 9.7677 16.0703 9.58104 16.0852 9.3926C16.1002 9.20416 16.1892 9.02932 16.3328 8.9064C16.4764 8.78347 16.6628 8.72249 16.8513 8.7368C17.0398 8.75112 17.2149 8.83958 17.3383 8.98279L18.8872 10.7939L23.1617 5.76231C23.2843 5.61795 23.4593 5.52822 23.6481 5.51285C23.8369 5.49749 24.024 5.55774 24.1684 5.68037C24.3127 5.80299 24.4025 5.97794 24.4178 6.16673C24.4332 6.35551 24.3729 6.54267 24.2503 6.68703L19.6079 12.1517C19.5199 12.2565 19.4102 12.3409 19.2864 12.3991C19.1625 12.4572 19.0275 12.4877 18.8906 12.4885H18.8886Z" fill="#333333"/>
</svg>
