<svg width="46" height="75" viewBox="0 0 46 75" fill="none" xmlns="http://www.w3.org/2000/svg">
<g clip-path="url(#clip0_104_4569)">
<path d="M33.4714 31.8418C33.6814 31.4242 33.8839 31.0066 34.0789 30.5966C34.8401 29.0023 35.0389 27.2219 34.8439 25.4757C34.4427 21.8314 32.4027 19.0716 30.6403 16.0043C29.7365 14.429 28.9416 12.6941 28.9678 10.834C28.9716 10.4848 29.0053 10.1393 29.0653 9.79389C29.5753 9.28141 30.1303 8.82208 30.7378 8.40451C34.5289 5.80796 39.4488 4.5932 43.8887 3.75805C44.1699 3.70491 44.8111 2.15229 44.9611 1.88656C45.2086 1.44242 45.4561 0.99827 45.6999 0.554124C45.7411 0.474405 45.9361 0.00748212 45.9961 -0.00390625C41.9312 0.759114 37.6488 1.86379 34.0152 3.91749C32.4477 4.80198 30.974 5.93703 29.9803 7.47446C29.7628 7.81231 29.5565 8.16155 29.3578 8.5108C29.2416 8.22229 27.8353 10.8606 28.0491 10.8682C27.6816 11.5249 27.3179 12.193 27.1079 12.9181C26.1104 16.3726 28.3566 19.5044 30.074 22.2755C31.8777 25.1872 33.2652 28.5961 32.6802 32.0999C32.6502 32.2897 32.6127 32.4757 32.5677 32.6617C32.2452 32.9844 31.904 33.2843 31.5177 33.5538C30.1078 34.5408 28.4466 35.0912 26.7779 35.4367C23.3842 36.1428 19.8781 35.9416 16.4956 36.7312C14.8307 37.1222 13.1695 37.722 11.7858 38.7621C10.2146 39.9465 9.37459 41.6661 8.43336 43.3592C7.61589 44.8321 6.85466 46.2139 6.67841 47.9259C6.51342 49.5355 6.76466 51.164 7.08715 52.7394C7.89338 56.6798 8.97335 60.3696 8.00588 64.4049C7.81463 65.2097 7.55589 65.9955 7.2484 66.7623C7.1134 66.9445 6.9784 67.1229 6.83216 67.3013C5.51969 68.9185 3.92224 70.2471 2.10354 71.2379C2.01354 71.2873 1.79605 71.7542 1.78105 71.7808C1.52605 72.2211 1.27856 72.6653 1.03107 73.1056C0.783572 73.5498 0.536079 73.9939 0.292336 74.4381C0.228587 74.5519 0.097341 74.9429 -0.00390625 74.9961C2.97726 73.3713 4.93471 70.957 6.62591 68.1517C6.52467 68.4857 8.24212 65.4716 8.02838 65.6614C9.54333 62.7802 10.6571 59.8534 10.5483 56.4672C10.4396 53.0355 9.09335 49.7974 8.78961 46.3923C8.68461 45.2193 8.77461 44.1488 9.0221 43.0669C9.16084 42.9378 9.30334 42.8126 9.44959 42.6949C10.1246 42.1482 10.882 41.7155 11.6733 41.37C14.9282 39.9389 18.4831 39.9807 21.9442 39.6086C25.2817 39.248 28.9978 38.4622 31.1765 35.6265C31.7165 34.9242 32.2077 34.146 32.6615 33.3412C32.969 32.8174 33.3139 32.1796 33.4639 31.8342L33.4714 31.8418Z" fill="url(#paint0_linear_104_4569)"/>
</g>
<defs>
<linearGradient id="paint0_linear_104_4569" x1="14.4183" y1="32.6213" x2="28.6027" y2="40.568" gradientUnits="userSpaceOnUse">
<stop stop-color="#A89100"/>
<stop offset="0.08" stop-color="#BCA10E"/>
<stop offset="0.2" stop-color="#D9B823"/>
<stop offset="0.32" stop-color="#EEC832"/>
<stop offset="0.44" stop-color="#FAD23B"/>
<stop offset="0.56" stop-color="#FFD63F"/>
<stop offset="0.64" stop-color="#FAD23B"/>
<stop offset="0.74" stop-color="#ECC731"/>
<stop offset="0.85" stop-color="#D6B521"/>
<stop offset="0.95" stop-color="#B79D0B"/>
<stop offset="1" stop-color="#A89100"/>
</linearGradient>
<clipPath id="clip0_104_4569">
<rect width="46" height="75" fill="white"/>
</clipPath>
</defs>
</svg>
