<svg width="88" height="75" viewBox="0 0 88 75" fill="none" xmlns="http://www.w3.org/2000/svg">
<g clip-path="url(#clip0_104_4572)">
<path d="M43.4967 25.6082C43.2132 25.2366 42.9264 24.8718 42.6431 24.517C41.5428 23.1346 40.0291 22.1766 38.3737 21.5876C34.9215 20.3531 31.5472 20.9792 28.0179 21.2212C26.2059 21.3442 24.2981 21.2996 22.6371 20.4617C22.3248 20.3055 22.029 20.1239 21.7446 19.9188C21.5071 19.2359 21.337 18.5359 21.2275 17.8069C20.5524 13.2617 21.6138 8.30645 22.8064 3.94895C22.8817 3.67282 21.7664 2.41666 21.5931 2.16548C21.3021 1.74855 21.0111 1.33161 20.7185 0.918041C20.6649 0.846059 20.3304 0.466351 20.3464 0.407422C19.2532 4.39619 18.3719 8.73006 18.6278 12.8961C18.7369 14.6925 19.1124 16.5144 20.0597 18.0809C20.2683 18.4243 20.492 18.7626 20.719 19.0942C20.4087 19.0724 22.1653 21.4916 22.2657 21.3027C22.6953 21.9206 23.1368 22.5401 23.6968 23.0463C26.3661 25.4553 30.1652 24.8066 33.4085 24.4754C36.8159 24.1282 40.4882 24.3729 43.3825 26.4326C43.54 26.5426 43.6908 26.6578 43.8384 26.7797C43.9873 27.2109 44.1076 27.6489 44.1809 28.1142C44.4511 29.8139 44.2188 31.5485 43.799 33.2C42.9483 36.5604 41.2327 39.6247 40.462 43.0115C40.0848 44.6796 39.8969 46.4358 40.2264 48.1352C40.6035 50.0663 41.782 51.5742 42.8923 53.1616C43.8587 54.5413 44.7679 55.8306 46.23 56.7385C47.605 57.5914 49.1792 58.0784 50.7368 58.478C54.6325 59.4779 58.4228 60.1221 61.6275 62.7583C62.2673 63.2825 62.8606 63.8591 63.4155 64.4712C63.5202 64.6724 63.6215 64.8718 63.7179 65.0814C64.5974 66.9693 65.0927 68.9872 65.1875 71.0561C65.1924 71.1586 65.5171 71.5586 65.5344 71.5837C65.8187 72.0057 66.1097 72.4227 66.3973 72.8379C66.6883 73.2549 66.9793 73.6718 67.2719 74.0854C67.3464 74.1925 67.6405 74.4817 67.644 74.596C67.4881 71.2044 66.1742 68.3876 64.3922 65.6391C64.6482 65.8763 62.69 63.0128 62.7671 63.2881C60.8397 60.6647 58.6956 58.3822 55.6035 56.9978C52.4705 55.5934 48.9698 55.3864 45.7753 54.169C44.6747 53.7499 43.7516 53.2004 42.8872 52.5043C42.8318 52.3231 42.7816 52.1401 42.7398 51.9571C42.5438 51.111 42.4862 50.2405 42.522 49.3779C42.66 45.8249 44.2536 42.6469 45.4342 39.3722C46.5708 36.2136 47.491 32.5284 45.895 29.3283C45.5 28.5354 45.0153 27.753 44.4904 26.9928C44.1539 26.487 43.7316 25.8977 43.4866 25.6116L43.4967 25.6082Z" fill="url(#paint0_linear_104_4572)"/>
</g>
<defs>
<linearGradient id="paint0_linear_104_4572" x1="35.8575" y1="43.0802" x2="49.2114" y2="33.8055" gradientUnits="userSpaceOnUse">
<stop stop-color="#A89100"/>
<stop offset="0.08" stop-color="#BCA10E"/>
<stop offset="0.2" stop-color="#D9B823"/>
<stop offset="0.32" stop-color="#EEC832"/>
<stop offset="0.44" stop-color="#FAD23B"/>
<stop offset="0.56" stop-color="#FFD63F"/>
<stop offset="0.64" stop-color="#FAD23B"/>
<stop offset="0.74" stop-color="#ECC731"/>
<stop offset="0.85" stop-color="#D6B521"/>
<stop offset="0.95" stop-color="#B79D0B"/>
<stop offset="1" stop-color="#A89100"/>
</linearGradient>
<clipPath id="clip0_104_4572">
<rect width="46" height="75" fill="white" transform="translate(0.21582 41.7646) rotate(-64.041)"/>
</clipPath>
</defs>
</svg>
