<svg width="32" height="48" viewBox="0 0 32 48" fill="none" xmlns="http://www.w3.org/2000/svg">
<path d="M26.1278 19.5008H18.0183L19.3686 8.09687C19.373 8.05237 19.3774 7.91943 19.3774 7.87658C19.3774 6.8416 18.5358 6 17.503 6C16.9158 6 16.3554 6.28127 15.9709 6.79656L4.37576 24.0011C4.13514 24.323 4 24.7235 4 25.1262C4 26.1611 4.8416 27.0005 5.87438 27.0005H12.499L11.1306 39.9322C11.1262 39.9724 11.124 40.085 11.124 40.1256C11.124 41.1606 11.9656 42 12.9984 42C13.5856 42 14.1459 41.7187 14.5195 41.2194L27.6242 22.4981C27.8649 22.1762 28 21.7757 28 21.373C28.0022 20.3424 27.1628 19.5008 26.1278 19.5008Z" fill="white" fill-opacity="0.12"/>
<path d="M29.5037 18.0011H18.6911L20.4915 2.79582C20.4973 2.7365 20.5032 2.55924 20.5032 2.50211C20.5032 1.12214 19.3811 0 18.004 0C17.221 0 16.4739 0.375023 15.9612 1.06208L0.501007 24.0015C0.180187 24.4307 0 24.9647 0 25.5016C0 26.8815 1.12214 28.0007 2.49918 28.0007H11.332L9.50741 45.243C9.50155 45.2965 9.49862 45.4466 9.49862 45.5008C9.49862 46.8808 10.6208 48 11.9978 48C12.7808 48 13.5279 47.625 14.026 46.9592L31.499 21.9974C31.8198 21.5682 32 21.0342 32 20.4973C32.0029 19.1232 30.8837 18.0011 29.5037 18.0011Z" fill="white" fill-opacity="0.12"/>
<path d="M22.7519 20.0005H17.3455L18.2457 12.3979C18.2487 12.3682 18.2516 12.2796 18.2516 12.2511C18.2516 11.5611 17.6905 11 17.002 11C16.6105 11 16.237 11.1875 15.9806 11.531L8.2505 23.0007C8.09009 23.2153 8 23.4823 8 23.7508C8 24.4408 8.56107 25.0004 9.24959 25.0004H13.666L12.7537 33.6215C12.7508 33.6482 12.7493 33.7233 12.7493 33.7504C12.7493 34.4404 13.3104 35 13.9989 35C14.3904 35 14.764 34.8125 15.013 34.4796L23.7495 21.9987C23.9099 21.7841 24 21.5171 24 21.2487C24.0015 20.5616 23.4419 20.0005 22.7519 20.0005Z" fill="white"/>
</svg>
