<svg width="34" height="34" viewBox="0 0 34 34" fill="none" xmlns="http://www.w3.org/2000/svg">
<rect width="34" height="34" rx="5" fill="white" fill-opacity="0.07"/>
<g clip-path="url(#clip0_848_2992)">
<path d="M17 11.4335C17.3074 11.4335 17.5566 11.1843 17.5566 10.8769C17.5566 10.5695 17.3074 10.3203 17 10.3203C16.6926 10.3203 16.4434 10.5695 16.4434 10.8769C16.4434 11.1843 16.6926 11.4335 17 11.4335Z" fill="white"/>
<path d="M20.3397 14.7734C20.6471 14.7734 20.8963 14.5242 20.8963 14.2168C20.8963 13.9094 20.6471 13.6602 20.3397 13.6602C20.0323 13.6602 19.7831 13.9094 19.7831 14.2168C19.7831 14.5242 20.0323 14.7734 20.3397 14.7734Z" fill="white"/>
<path d="M19.2264 12.5468C19.5338 12.5468 19.783 12.2976 19.783 11.9902C19.783 11.6828 19.5338 11.4336 19.2264 11.4336C18.919 11.4336 18.6698 11.6828 18.6698 11.9902C18.6698 12.2976 18.919 12.5468 19.2264 12.5468Z" fill="white"/>
<path d="M17 13.6601C17.3074 13.6601 17.5566 13.4109 17.5566 13.1035C17.5566 12.7961 17.3074 12.5469 17 12.5469C16.6926 12.5469 16.4434 12.7961 16.4434 13.1035C16.4434 13.4109 16.6926 13.6601 17 13.6601Z" fill="white"/>
<path d="M25.9428 24.792H25.5419C25.7155 23.956 26.0165 23.1063 26.4407 22.2578C26.6254 21.8885 26.3564 21.4523 25.9428 21.4523C25.1029 21.4523 24.3237 21.7146 23.6841 22.1607C24.6307 19.6473 25.7954 19.5463 26.2426 19.1383C26.7099 18.8396 26.4974 18.1127 25.9428 18.1127C23.8031 18.1127 21.976 19.6261 20.8998 21.4683C21.0125 18.2975 23.6879 17.1984 23.988 16.906C24.445 16.6013 24.2282 15.8862 23.6793 15.8862C23.4069 15.8862 23.1387 15.9044 22.8755 15.9391C23.0382 15.3829 23.1227 14.8032 23.1227 14.2164C23.1227 10.8404 20.3761 8.09375 17 8.09375C13.624 8.09375 10.8773 10.8404 10.8773 14.2164C10.8773 14.8032 10.9618 15.3829 11.1245 15.9391C10.8614 15.9044 10.5932 15.8862 10.3207 15.8862C9.77155 15.8862 9.55526 16.6014 10.012 16.906C10.3062 17.1926 12.9877 18.303 13.1003 21.4683C12.027 19.6311 10.201 18.1127 8.0572 18.1127C7.5026 18.1127 7.2902 18.8396 7.75745 19.1383C8.09936 19.4292 9.98507 20.1535 10.6675 22.4362C9.97253 21.8245 9.05784 21.4523 8.0572 21.4523C7.64428 21.4523 7.37436 21.8878 7.55938 22.2578C7.98358 23.1063 8.28452 23.956 8.45818 24.792H8.0572C7.74981 24.792 7.5006 25.0412 7.5006 25.3486C7.5006 25.656 7.74981 25.9052 8.0572 25.9052H25.9428C26.2502 25.9052 26.4994 25.656 26.4994 25.3486C26.4994 25.0412 26.2502 24.792 25.9428 24.792ZM25.0126 22.7211C24.7358 23.4134 24.5333 24.1059 24.4073 24.792H23.1794C23.3787 23.8267 24.0859 23.0415 25.0126 22.7211ZM23.4166 20.198C22.5637 21.5315 22.0553 23.338 22.0128 24.7919H20.926C21.1047 23.0732 22.0756 21.2656 23.4166 20.198ZM19.7831 21.6481V24.792H18.6698V22.0089C18.6698 20.0998 19.7433 18.4367 21.3184 17.5915C20.3394 18.6969 19.7831 20.1323 19.7831 21.6481ZM16.4434 18.9321C16.4434 17.8403 16.6195 17.3279 17 16.5593C17.3806 17.3279 17.5566 17.8403 17.5566 18.9321V24.792H16.4434C16.4434 24.2199 16.4434 19.5053 16.4434 18.9321ZM11.9906 14.2164C11.9906 11.4542 14.2378 9.20696 17 9.20696C19.7622 9.20696 22.0095 11.4542 22.0095 14.2164C22.0095 14.9246 21.8602 15.6199 21.5749 16.2589C20.3886 16.6944 19.3737 17.4874 18.6604 18.5063C18.5927 17.0387 18.1624 16.4095 17.4979 15.0807C17.4036 14.8921 17.2109 14.773 17 14.773C16.7892 14.773 16.5964 14.8921 16.5022 15.0807C15.8384 16.408 15.4073 17.0383 15.3396 18.5063C14.6264 17.4874 13.6114 16.6944 12.4252 16.2589C12.1399 15.6199 11.9906 14.9246 11.9906 14.2164ZM15.3302 22.0089V24.792H14.217V21.6481C14.217 20.1323 13.6606 18.6969 12.6816 17.5915C14.2568 18.4367 15.3302 20.0998 15.3302 22.0089ZM13.074 24.792H11.9906V23.8746C11.9906 22.7022 11.6578 21.5779 11.054 20.6171C12.1256 21.6794 12.9139 23.2513 13.074 24.792ZM8.98744 22.7211C9.91419 23.0415 10.6213 23.8267 10.8206 24.792H9.59281C9.46676 24.1059 9.2643 23.4133 8.98744 22.7211Z" fill="white"/>
</g>
<defs>
<clipPath id="clip0_848_2992">
<rect width="19" height="19" fill="white" transform="translate(7.5 7.5)"/>
</clipPath>
</defs>
</svg>
