<svg width="34" height="34" viewBox="0 0 34 34" fill="none" xmlns="http://www.w3.org/2000/svg">
<rect width="34" height="34" rx="5" fill="white" fill-opacity="0.07"/>
<g clip-path="url(#clip0_848_2987)">
<path d="M13.8711 24.5938H10.1688C9.86876 24.5938 9.68762 24.4262 9.60646 24.3264C9.46611 24.1539 9.41187 23.9295 9.45746 23.7104C10.1876 20.2032 13.2828 17.6419 16.8559 17.5588C16.9154 17.561 16.9751 17.5625 17.0351 17.5625C17.0947 17.5625 17.1539 17.561 17.2131 17.5588C18.1415 17.581 19.0649 17.7773 19.9603 18.1431C20.3198 18.2899 20.7303 18.1176 20.8771 17.7581C21.0239 17.3987 20.8515 16.9882 20.492 16.8412C20.2912 16.7593 20.0892 16.6848 19.886 16.6173C21.0567 15.7449 21.8164 14.3502 21.8164 12.7812C21.8164 10.1449 19.6714 8 17.0351 8C14.3987 8 12.2539 10.1449 12.2539 12.7812C12.2539 14.346 13.0095 15.7377 14.175 16.6104C13.1073 16.9618 12.1053 17.5085 11.2283 18.2298C9.62061 19.5523 8.50275 21.3969 8.08074 23.4238C7.94849 24.059 8.10697 24.7113 8.51538 25.2135C8.92188 25.7134 9.52448 26 10.1688 26H13.8711C14.2594 26 14.5742 25.6852 14.5742 25.2969C14.5742 24.9085 14.2594 24.5938 13.8711 24.5938ZM13.6601 12.7812C13.6601 10.9203 15.1742 9.40625 17.0351 9.40625C18.8961 9.40625 20.4101 10.9203 20.4101 12.7812C20.4101 14.5886 18.9821 16.0686 17.195 16.1524C17.1417 16.1514 17.0884 16.1503 17.0351 16.1503C16.9802 16.1503 16.9251 16.1512 16.8703 16.1521C15.0856 16.0659 13.6601 14.587 13.6601 12.7812ZM26.0351 20.6562V23.082C26.0351 23.4704 25.7204 23.7852 25.332 23.7852C24.9437 23.7852 24.6289 23.4704 24.6289 23.082V21.3768L22.223 23.7768C21.6125 24.3858 20.6358 24.4068 19.9997 23.8248L19.641 23.4966C19.5599 23.4226 19.4324 23.4267 19.3566 23.5061L17.1931 25.7814C17.0549 25.9267 16.8694 26 16.6834 26C16.5094 26 16.3352 25.9359 16.1991 25.8064C15.9177 25.5388 15.9064 25.0938 16.1741 24.8124L18.3385 22.536C18.6321 22.2287 19.0263 22.0522 19.4494 22.0379C19.8728 22.0239 20.2778 22.1732 20.5902 22.4591L20.9489 22.7873C21.0292 22.8608 21.1527 22.8582 21.2299 22.7811L23.7125 20.3047H21.957C21.5687 20.3047 21.2539 19.9899 21.2539 19.6016C21.2539 19.2132 21.5687 18.8984 21.957 18.8984H24.2773C25.2466 18.8984 26.0351 19.687 26.0351 20.6562Z" fill="white"/>
</g>
<defs>
<clipPath id="clip0_848_2987">
<rect width="18" height="18" fill="white" transform="translate(8 8)"/>
</clipPath>
</defs>
</svg>
