<svg width="34" height="34" viewBox="0 0 34 34" fill="none" xmlns="http://www.w3.org/2000/svg">
<rect width="34" height="34" rx="5" fill="white" fill-opacity="0.07"/>
<path d="M17.5179 17.1104C17.2898 16.8809 16.9188 16.8797 16.6892 17.1078C16.4595 17.3359 16.4585 17.7069 16.6866 17.9364L17.6035 18.8594C17.7181 18.9746 17.8685 19.0322 18.0191 19.0322C18.1685 19.0322 18.3179 18.9756 18.4322 18.8621C18.6617 18.634 18.6629 18.2629 18.4348 18.0334L17.5179 17.1104Z" fill="white"/>
<path d="M20.3576 18.5859C20.472 18.7011 20.6226 18.7588 20.7732 18.7588C20.9224 18.7588 21.0718 18.702 21.1861 18.5885C21.4157 18.3604 21.4168 17.9895 21.1888 17.76L20.2718 16.837C20.0438 16.6075 19.6727 16.6063 19.4432 16.8344C19.2136 17.0623 19.2125 17.4334 19.4405 17.6629L20.3576 18.5859Z" fill="white"/>
<path d="M20.0005 19.6065C19.7725 19.377 19.4014 19.3758 19.1719 19.6038C18.9423 19.8319 18.9412 20.2028 19.1692 20.4325L20.0862 21.3553C20.2007 21.4707 20.3513 21.5284 20.5019 21.5284C20.6511 21.5284 20.8005 21.4716 20.9148 21.3581C21.1444 21.13 21.1457 20.759 20.9175 20.5295L20.0005 19.6065Z" fill="white"/>
<path d="M24.4951 21.6716C24.5249 21.4005 24.54 21.1266 24.54 20.8508C24.54 16.6985 21.1579 13.3203 17.0008 13.3203C12.8435 13.3203 9.4614 16.6985 9.4614 20.8508C9.4614 21.1266 9.4765 21.4005 9.50626 21.6716C7.84305 22.2287 7 22.959 7 23.8463C7 24.8489 8.07361 25.65 10.1897 26.2273C12.0166 26.7256 14.4355 27.0001 17.0006 27.0001C19.5659 27.0001 21.9847 26.7256 23.8117 26.2273C25.9278 25.65 27 24.8489 27 23.8463C27 22.959 26.1583 22.2287 24.4951 21.6716ZM8.17249 23.8463C8.17249 23.7047 8.46881 23.2797 9.72766 22.8346C9.95746 23.6752 10.3321 24.4704 10.8348 25.184C10.7202 25.1558 10.6081 25.1266 10.4982 25.0967C8.80389 24.6346 8.17249 24.0845 8.17249 23.8463ZM12.7007 25.5405C11.3848 24.3364 10.6333 22.6367 10.6333 20.8508C10.6333 17.3447 13.4897 14.4922 17.0006 14.4922C20.5117 14.4922 23.3681 17.3447 23.3681 20.8508C23.3681 22.6367 22.6166 24.3364 21.3007 25.5405C19.9941 25.7285 18.5271 25.8281 17.0006 25.8281C15.4743 25.8282 14.0073 25.7285 12.7007 25.5405ZM23.5031 25.0967C23.3933 25.1266 23.2811 25.1558 23.1665 25.184C23.6693 24.4704 24.0438 23.6752 24.2737 22.8346C25.5326 23.2797 25.8289 23.7047 25.8289 23.8463C25.8287 24.0845 25.1975 24.6346 23.5031 25.0967Z" fill="white"/>
<path d="M14.8731 11.9623C15.1091 12.1987 15.4231 12.3288 15.7572 12.3288C16.0912 12.3288 16.4052 12.1987 16.6414 11.9623L20.6012 8.00006C20.8299 7.77118 20.8298 7.40024 20.6009 7.17151C20.372 6.94278 20.0011 6.94278 19.7722 7.17181L15.8124 11.1341C15.782 11.1644 15.7324 11.1644 15.7019 11.1341L14.2378 9.66907C14.0091 9.44019 13.6382 9.44003 13.4091 9.66891C13.1804 9.89764 13.1803 10.2686 13.409 10.4975L14.8731 11.9623Z" fill="white"/>
</svg>
