<svg width="34" height="34" viewBox="0 0 34 34" fill="none" xmlns="http://www.w3.org/2000/svg">
<rect width="34" height="34" rx="5" fill="white" fill-opacity="0.07"/>
<path d="M17 24.22L16.5275 23.7475C16.3044 23.4981 10.8247 18.0053 10.9363 13.0637C10.9447 12.2702 11.121 11.4876 11.4536 10.7671C11.7861 10.0466 12.2673 9.40464 12.8656 8.8834C13.5692 8.21934 14.4172 7.72738 15.3429 7.44614C16.2686 7.1649 17.2468 7.10203 18.2009 7.26246C19.5727 7.54341 20.8055 8.28896 21.6914 9.37331C22.5773 10.4577 23.062 11.8144 23.0638 13.2146C23.0638 17.7559 17.7022 23.4718 17.4791 23.7146L17 24.22ZM17.1247 8.46996C15.8578 8.4975 14.6454 8.9904 13.7188 9.85465C13.2612 10.2556 12.8937 10.7488 12.6403 11.3019C12.387 11.8549 12.2535 12.4554 12.2488 13.0637C12.1634 16.6862 15.6875 20.8731 17 22.2971C18.2797 20.8271 21.7644 16.509 21.7644 13.2146C21.7629 12.1179 21.3836 11.0552 20.6903 10.2053C19.9971 9.35551 19.0322 8.77047 17.9581 8.54871C17.688 8.49503 17.4132 8.46865 17.1378 8.46996H17.1247Z" fill="white"/>
<path d="M17 15.7891C16.4808 15.7891 15.9733 15.6351 15.5416 15.3467C15.11 15.0582 14.7735 14.6483 14.5748 14.1686C14.3761 13.689 14.3242 13.1612 14.4254 12.652C14.5267 12.1428 14.7767 11.675 15.1438 11.3079C15.511 10.9408 15.9787 10.6908 16.4879 10.5895C16.9971 10.4882 17.5249 10.5402 18.0045 10.7389C18.4842 10.9376 18.8942 11.274 19.1826 11.7057C19.471 12.1374 19.625 12.6449 19.625 13.1641C19.625 13.8603 19.3484 14.5279 18.8562 15.0202C18.3639 15.5125 17.6962 15.7891 17 15.7891ZM17 11.8516C16.7404 11.8516 16.4867 11.9285 16.2708 12.0728C16.055 12.217 15.8867 12.422 15.7874 12.6618C15.6881 12.9016 15.6621 13.1655 15.7127 13.4201C15.7634 13.6747 15.8884 13.9086 16.0719 14.0921C16.2555 14.2757 16.4893 14.4007 16.7439 14.4513C16.9985 14.502 17.2624 14.476 17.5023 14.3767C17.7421 14.2773 17.9471 14.1091 18.0913 13.8932C18.2355 13.6774 18.3125 13.4237 18.3125 13.1641C18.3125 12.816 18.1742 12.4821 17.9281 12.236C17.6819 11.9898 17.3481 11.8516 17 11.8516Z" fill="white"/>
<path d="M17 26.8439C12.2291 26.8439 7.15625 25.4658 7.15625 22.9064C7.15625 20.7211 10.7328 19.5202 14.0731 19.133L14.2241 20.4455C10.6213 20.8589 8.46875 22.0205 8.46875 22.9064C8.46875 23.9761 11.7894 25.5314 17 25.5314C22.2106 25.5314 25.5312 23.9761 25.5312 22.9064C25.5312 22.0139 23.3459 20.8392 19.6906 20.4258L19.835 19.1133C23.2213 19.507 26.8438 20.7014 26.8438 22.9064C26.8438 25.4658 21.7709 26.8439 17 26.8439Z" fill="white"/>
</svg>
