<svg width="34" height="34" viewBox="0 0 34 34" fill="none" xmlns="http://www.w3.org/2000/svg">
<rect width="34" height="34" rx="5" fill="white" fill-opacity="0.07"/>
<path fill-rule="evenodd" clip-rule="evenodd" d="M21.8516 8.74448C21.5908 8.32011 21.0733 8.12943 20.5995 8.28305L19.092 8.77174C18.1902 9.06409 17.5778 9.90182 17.5726 10.8494L21.6922 10.8494C21.9797 10.8494 22.227 10.6459 22.2823 10.3637C22.3701 9.91577 22.2861 9.45123 22.047 9.06238L21.8516 8.74448ZM22.8997 8.10026L23.0951 8.41817C23.4959 9.07018 23.6367 9.84911 23.4896 10.6002C23.3213 11.4596 22.568 12.0796 21.6922 12.0796L17.5687 12.0796L17.5462 19.4429H19.0638L19.0843 17.7866L19.0862 17.1773C19.091 15.6959 20.0472 14.3852 21.4565 13.9283L22.964 13.4396C23.978 13.1109 25.0854 13.519 25.6436 14.4271L25.839 14.745C26.2398 15.397 26.3806 16.176 26.2335 16.927C26.0651 17.7865 25.3119 18.4065 24.4361 18.4065L20.307 18.4065L20.2942 19.4429H22.9755C23.8976 19.4429 24.6452 20.1904 24.6452 21.1125C24.6452 21.9449 24.036 22.635 23.2391 22.7614V26.3849C23.2391 26.7246 22.9637 27 22.624 27C22.2843 27 22.0089 26.7246 22.0089 26.3849V22.7821H11.9911V26.3849C11.9911 26.7246 11.7157 27 11.376 27C11.0362 27 10.7608 26.7246 10.7608 26.3849V22.7614C9.96398 22.635 9.35483 21.9449 9.35483 21.1125C9.35483 20.1904 10.1023 19.4429 11.0245 19.4429H13.7092L13.6883 14.8916L9.56391 14.8916C8.6881 14.8916 7.93484 14.2716 7.76648 13.4121C7.61936 12.661 7.76018 11.8821 8.16097 11.2301L8.35638 10.9122C8.91462 10.004 10.0219 9.59598 11.036 9.92472L12.5435 10.4134C13.9528 10.8703 14.909 12.1809 14.9138 13.6624L14.9395 19.4429H16.3159L16.3404 11.4626L16.3423 10.8505C16.3471 9.36901 17.3033 8.05834 18.7126 7.60148L20.2201 7.11278C21.2342 6.78405 22.3415 7.19211 22.8997 8.10026ZM13.6835 13.6614C13.6783 12.7138 13.0659 11.876 12.1641 11.5837L10.6566 11.095C10.1828 10.9414 9.66533 11.132 9.40447 11.5564L9.20906 11.8743C8.97003 12.2632 8.88605 12.7277 8.97379 13.1756C9.02907 13.4578 9.27637 13.6613 9.56391 13.6613L13.6835 13.6614ZM20.3165 17.1763L24.4361 17.1763C24.7236 17.1763 24.9709 16.9727 25.0262 16.6905C25.1139 16.2426 25.0299 15.7781 24.7909 15.3892L24.5955 15.0713C24.3347 14.647 23.8172 14.4563 23.3434 14.6099L21.8359 15.0986C20.934 15.3909 20.3217 16.2287 20.3165 17.1763ZM11.0245 20.6732C10.7818 20.6732 10.5851 20.8699 10.5851 21.1125C10.5851 21.3552 10.7818 21.5519 11.0245 21.5519H22.9755C23.2182 21.5519 23.4149 21.3552 23.4149 21.1125C23.4149 20.8699 23.2182 20.6732 22.9755 20.6732H11.0245Z" fill="white"/>
</svg>
