<svg width="34" height="34" viewBox="0 0 34 34" fill="none" xmlns="http://www.w3.org/2000/svg">
<rect width="34" height="34" rx="5" fill="white" fill-opacity="0.07"/>
<g clip-path="url(#clip0_848_3068)">
<path d="M26.3357 11.6082L25.2304 10.5063L26.3521 9.28878C26.6804 8.93238 26.4262 8.35496 25.9427 8.35496H21.6124V8.05664C21.6124 7.74923 21.3632 7.5 21.0558 7.5C20.7484 7.5 20.4992 7.74923 20.4992 8.05664V14.5508H18.4905C18.1831 14.5508 17.9339 14.8 17.9339 15.1074V18.9029H13.3599C13.0525 18.9029 12.8033 19.1521 12.8033 19.4595V22.0201H8.2293C7.92189 22.0201 7.6727 22.2693 7.6727 22.5768V25.9434C7.6727 26.2508 7.92193 26.5 8.2293 26.5H23.7156C24.0231 26.5 24.2722 26.2508 24.2722 25.9434V15.1074C24.2722 14.8 24.023 14.5508 23.7156 14.5508H21.6125V12.559H25.9428C26.4376 12.559 26.6866 11.958 26.3357 11.6082ZM8.78591 23.1334H12.8033V25.3867H8.78591V23.1334ZM13.9165 20.0162H17.9339V25.3867H13.9165C13.9165 25.2676 13.9165 20.1274 13.9165 20.0162ZM23.159 25.3867H19.0471C19.0471 25.1503 19.0471 15.7653 19.0471 15.6641H23.159V25.3867ZM24.0654 10.9169L24.5959 11.4458H21.6124V9.46824H24.673L24.049 10.1455C23.8465 10.3653 23.8538 10.7059 24.0654 10.9169Z" fill="white"/>
<path d="M8.27358 19.1719C10.2323 18.3435 11.994 17.1548 13.5098 15.6389C14.7452 14.4034 15.7632 13.0049 16.5457 11.4701L16.946 12.2772C17.0826 12.5527 17.4165 12.6652 17.692 12.5286C17.9674 12.392 18.08 12.058 17.9434 11.7826L17.0288 9.93826C16.9171 9.71293 16.6654 9.58836 16.4155 9.64083L14.4357 10.0575C14.1349 10.1208 13.9423 10.416 14.0056 10.7169C14.0608 10.979 14.2921 11.159 14.5498 11.159C14.6273 11.159 14.5774 11.1654 15.5563 10.9594C14.8264 12.3922 13.8764 13.6979 12.7227 14.8517C11.3088 16.2657 9.666 17.3742 7.83999 18.1466C7.55685 18.2663 7.42441 18.5929 7.5442 18.8761C7.66395 19.1595 7.9907 19.2916 8.27358 19.1719Z" fill="white"/>
</g>
<defs>
<clipPath id="clip0_848_3068">
<rect width="19" height="19" fill="white" transform="translate(7.5 7.5)"/>
</clipPath>
</defs>
</svg>
