<svg width="34" height="34" viewBox="0 0 34 34" fill="none" xmlns="http://www.w3.org/2000/svg">
<rect width="34" height="34" rx="5" fill="white" fill-opacity="0.07"/>
<path d="M13.0186 21.1982V10.124C13.0186 9.66699 13.3174 9.39453 13.792 9.39453H15.708C16.1826 9.39453 16.4814 9.66699 16.4814 10.124V21.1982C16.4814 21.6553 16.1826 21.9277 15.708 21.9277H13.792C13.3174 21.9277 13.0186 21.6553 13.0186 21.1982ZM17.5098 21.1982V12.0225C17.5098 11.5566 17.7998 11.2842 18.2744 11.2842H20.1992C20.665 11.2842 20.9639 11.5566 20.9639 12.0225V21.1982C20.9639 21.6553 20.665 21.9277 20.1992 21.9277H18.2744C17.7998 21.9277 17.5098 21.6553 17.5098 21.1982ZM8.53613 21.1982V13.9297C8.53613 13.4814 8.82617 13.1914 9.30957 13.1914H11.2256C11.6914 13.1914 11.9902 13.4814 11.9902 13.9297V21.1982C11.9902 21.6553 11.6914 21.9277 11.2256 21.9277H9.30957C8.82617 21.9277 8.53613 21.6553 8.53613 21.1982ZM21.9922 21.1982V15.7754C21.9922 15.3184 22.2822 15.0371 22.7656 15.0371H24.6816C25.1562 15.0371 25.4551 15.3184 25.4551 15.7754V21.1982C25.4551 21.6553 25.1562 21.9277 24.6816 21.9277H22.7656C22.2822 21.9277 21.9922 21.6553 21.9922 21.1982ZM7.83301 23.9053C7.83301 23.5186 8.1582 23.2021 8.53613 23.2021H25.4551C25.8418 23.2021 26.167 23.5186 26.167 23.9053C26.167 24.3008 25.8418 24.6084 25.4551 24.6084H8.53613C8.1582 24.6084 7.83301 24.3008 7.83301 23.9053Z" fill="white"/>
</svg>
