<svg width="34" height="34" viewBox="0 0 34 34" fill="none" xmlns="http://www.w3.org/2000/svg">
<rect width="34" height="34" rx="5" fill="white" fill-opacity="0.07"/>
<path fill-rule="evenodd" clip-rule="evenodd" d="M8.25 17.6563H22.25C24.5451 17.6563 26.4063 15.7951 26.4063 13.5C26.4063 11.6879 24.9371 10.2188 23.125 10.2188C21.3129 10.2188 19.8438 11.6879 19.8438 13.5C19.8438 13.8623 20.1378 14.1563 20.5 14.1563C20.8623 14.1563 21.1563 13.8623 21.1563 13.5C21.1563 12.4124 22.0374 11.5313 23.125 11.5313C24.2126 11.5313 25.0938 12.4124 25.0938 13.5C25.0938 15.0706 23.8206 16.3438 22.25 16.3438H8.25C7.88775 16.3438 7.59375 16.6378 7.59375 17C7.59375 17.3623 7.88775 17.6563 8.25 17.6563Z" fill="white"/>
<path fill-rule="evenodd" clip-rule="evenodd" d="M8.25 15.0313H16.125C17.9371 15.0313 19.4062 13.5621 19.4062 11.75C19.4062 10.4218 18.3282 9.34375 17 9.34375C15.6718 9.34375 14.5938 10.4218 14.5938 11.75C14.5938 12.1123 14.8878 12.4063 15.25 12.4063C15.6123 12.4063 15.9062 12.1123 15.9062 11.75C15.9062 11.1463 16.3962 10.6563 17 10.6563C17.6038 10.6563 18.0938 11.1463 18.0938 11.75C18.0938 12.8376 17.2126 13.7188 16.125 13.7188H8.25C7.88775 13.7188 7.59375 14.0128 7.59375 14.375C7.59375 14.7373 7.88775 15.0313 8.25 15.0313Z" fill="white"/>
<path fill-rule="evenodd" clip-rule="evenodd" d="M8.25 20.2813H18.75C19.8376 20.2813 20.7188 21.1624 20.7188 22.25C20.7188 22.8538 20.2288 23.3438 19.625 23.3438C19.0212 23.3438 18.5312 22.8538 18.5312 22.25C18.5312 21.8878 18.2373 21.5938 17.875 21.5938C17.5127 21.5938 17.2188 21.8878 17.2188 22.25C17.2188 23.5783 18.2968 24.6563 19.625 24.6563C20.9532 24.6563 22.0312 23.5783 22.0312 22.25C22.0312 20.4379 20.5621 18.9688 18.75 18.9688H8.25C7.88775 18.9688 7.59375 19.2628 7.59375 19.625C7.59375 19.9873 7.88775 20.2813 8.25 20.2813Z" fill="white"/>
</svg>
