<svg width="34" height="34" viewBox="0 0 34 34" fill="none" xmlns="http://www.w3.org/2000/svg">
<rect width="34" height="34" rx="5" fill="white" fill-opacity="0.07"/>
<path d="M23.611 7.5C22.2809 7.5 21.1989 8.58207 21.1989 9.91211C21.1989 11.2421 22.2809 12.3242 23.611 12.3242H26.0231V25.9434C26.0231 26.2508 26.2723 26.5 26.5797 26.5C26.8871 26.5 27.1364 26.2508 27.1364 25.9434V11.0254C27.1364 9.08149 25.5549 7.5 23.611 7.5ZM22.3121 9.91211C22.3121 9.19594 22.8948 8.61328 23.611 8.61328C24.941 8.61328 26.0231 9.69535 26.0231 11.0254V11.2109H23.611C22.8948 11.2109 22.3121 10.6283 22.3121 9.91211Z" fill="white"/>
<path fill-rule="evenodd" clip-rule="evenodd" d="M19.5762 19.375H18.0918V18.9042C19.3065 18.2436 20.1328 16.9558 20.1328 15.4785V12.5098C20.1328 10.3612 18.3848 8.61328 16.2363 8.61328C15.6126 8.61328 15.0227 8.76087 14.4995 9.02252C14.2695 8.14741 13.4717 7.5 12.5254 7.5C11.4 7.5 10.4844 8.4156 10.4844 9.54102V13.252C10.4844 13.7635 10.0682 14.1797 9.55664 14.1797C9.24923 14.1797 9 14.4289 9 14.7363C9 16.271 10.2485 17.5195 11.7832 17.5195C12.137 17.5195 12.4823 17.4527 12.8055 17.3242C13.1658 17.9913 13.7149 18.542 14.3809 18.9042V19.375H12.8965C10.9526 19.375 9.37109 20.9565 9.37109 22.9004V25.9434C9.37109 26.2508 9.62032 26.5 9.92773 26.5H22.5449C22.8523 26.5 23.1016 26.2508 23.1016 25.9434V22.9004C23.1016 20.9565 21.5201 19.375 19.5762 19.375ZM18.9635 11.9531H13.5091C13.7677 10.6843 14.8922 9.72656 16.2363 9.72656C17.5804 9.72656 18.7049 10.6843 18.9635 11.9531ZM11.7832 16.4062C11.0219 16.4062 10.3779 15.8942 10.1777 15.1964C11.0004 14.933 11.5977 14.1609 11.5977 13.252V9.54102C11.5977 9.02946 12.0138 8.61328 12.5254 8.61328C13.0369 8.61328 13.4531 9.02946 13.4531 9.54102V9.78579C12.7649 10.4889 12.3398 11.4505 12.3398 12.5098V15.4785C12.3398 15.7525 12.3684 16.0199 12.4225 16.2781C12.221 16.3624 12.0049 16.4062 11.7832 16.4062ZM13.6648 13.0664H18.8078C19.0196 13.0664 19.0196 14.5421 19.0196 14.5421V15.4785C19.0196 17.0132 17.771 18.2617 16.2364 18.2617C14.7017 18.2617 13.4531 17.0132 13.4531 15.4785V14.5421C13.4531 14.5421 13.3182 13.0664 13.6648 13.0664ZM16.9785 19.3038C16.7382 19.3503 16.4901 19.375 16.2363 19.375C15.9826 19.375 15.7345 19.3503 15.4941 19.3038V19.6523C15.4941 19.7581 15.4605 19.8613 15.3981 19.9468L14.9416 20.5729C14.8175 20.7432 14.5998 20.8173 14.3974 20.7582L13.4734 20.4883H12.8965C11.5664 20.4883 10.4844 21.5704 10.4844 22.9004V25.3867H11.5977V23.6426C11.5977 23.3352 11.8469 23.0859 12.1543 23.0859C12.4617 23.0859 12.7109 23.3352 12.7109 23.6426V25.3867H15.6797H16.793H19.7617V23.6426C19.7617 23.3352 20.0109 23.0859 20.3184 23.0859C20.6258 23.0859 20.875 23.3352 20.875 23.6426V25.3867H21.9883V22.9004C21.9883 21.5704 20.9062 20.4883 19.5762 20.4883H18.9992L18.0752 20.7582C17.8729 20.8173 17.6552 20.7432 17.531 20.5729L17.0745 19.9468C17.0121 19.8613 16.9785 19.7581 16.9785 19.6522V19.3038Z" fill="white"/>
</svg>
