<svg width="34" height="34" viewBox="0 0 34 34" fill="none" xmlns="http://www.w3.org/2000/svg">
<rect width="34" height="34" rx="5" fill="white" fill-opacity="0.07"/>
<path fill-rule="evenodd" clip-rule="evenodd" d="M20.9158 8.99609C20.9158 8.58188 20.58 8.24609 20.1658 8.24609C19.7516 8.24609 19.4158 8.58188 19.4158 8.99609V18.9961C19.4158 19.4103 19.7516 19.7461 20.1658 19.7461C20.58 19.7461 20.9158 19.4103 20.9158 18.9961V14.4961H23.6658C24.6323 14.4961 25.4158 13.7126 25.4158 12.7461V10.7461C25.4158 9.7796 24.6323 8.99609 23.6658 8.99609H20.9158ZM20.9158 12.9961H23.6658C23.8039 12.9961 23.9158 12.8842 23.9158 12.7461V10.7461C23.9158 10.608 23.8039 10.4961 23.6658 10.4961H20.9158V12.9961Z" fill="white"/>
<path d="M22.4157 16.8649V15.9961H23.6657C23.8322 15.9961 23.9958 15.9836 24.1555 15.9594C24.6743 16.2036 25.168 16.4832 25.5905 16.8016C26.1784 17.2446 26.7092 17.8238 26.894 18.5628C27.1591 19.6233 27.2712 21.0848 26.5704 22.4422C25.853 23.8319 24.3742 24.942 21.8142 25.454C17.605 26.2958 14.142 25.2365 11.7951 23.896C9.93807 22.8352 8.76402 21.6085 8.03328 20.1419C7.31315 18.6966 7.0552 17.0787 6.91956 15.3034C6.6561 11.855 9.25085 9.46802 12.1673 9.46875C13.5368 9.46909 14.5612 9.78165 15.3603 10.3083C16.1494 10.8282 16.6556 11.5166 17.0513 12.1466C17.1926 12.3718 17.3141 12.5776 17.4267 12.7683C17.5972 13.0571 17.7474 13.3115 17.9157 13.547V15.5862C17.5205 15.3561 17.201 15.0558 16.9302 14.726C16.6091 14.335 16.322 13.8499 16.0655 13.4163C15.9661 13.2485 15.8713 13.0883 15.7809 12.9443C15.4267 12.3802 15.0581 11.9054 14.535 11.5608C14.022 11.2227 13.2968 10.969 12.1669 10.9688C10.0834 10.9682 8.22135 12.6519 8.4152 15.1891C8.54684 16.9121 8.78821 18.2935 9.37586 19.4729C9.95289 20.631 10.8951 21.6544 12.5391 22.5935C14.6312 23.7885 17.7278 24.7416 21.52 23.9831C23.7743 23.5323 24.7877 22.6256 25.2376 21.7541C25.7041 20.8504 25.6588 19.8064 25.4388 18.9266C25.3736 18.6657 25.1511 18.3487 24.6878 17.9996C24.2345 17.6579 23.6259 17.3429 22.9373 17.064C22.7659 16.9946 22.5915 16.9282 22.4157 16.8649Z" fill="white"/>
<path d="M20.9157 16.3982V14.8488C20.3532 14.7084 19.8365 14.6016 19.4157 14.5281V16.053C19.8503 16.136 20.3675 16.2512 20.9157 16.3982Z" fill="white"/>
</svg>
