<svg width="34" height="34" viewBox="0 0 34 34" fill="none" xmlns="http://www.w3.org/2000/svg">
<rect width="34" height="34" rx="5" fill="white" fill-opacity="0.07"/>
<path d="M6.56689 22.0898C6.56689 23.9004 7.48975 24.8057 9.32666 24.8057H18.9729C18.8586 24.3511 18.7921 23.8775 18.7792 23.3906H9.34424C8.46533 23.3906 7.98193 22.9248 7.98193 22.0107V11.4287C7.98193 10.5146 8.46533 10.04 9.34424 10.04H24.5142C25.3843 10.04 25.8765 10.5146 25.8765 11.4287V16.7421C26.3659 16.7869 26.8396 16.8859 27.2915 17.0331V11.3496C27.2915 9.53906 26.3774 8.625 24.5317 8.625H9.32666C7.48975 8.625 6.56689 9.53906 6.56689 11.3496V22.0898Z" fill="white"/>
<path d="M14.4155 19.7695C14.4155 20.1914 14.8901 20.3936 15.2944 20.1475L20.3042 17.1855C20.6733 16.9746 20.6646 16.4648 20.3042 16.2451L15.2944 13.2832C14.9253 13.0635 14.4155 13.2305 14.4155 13.6611V19.7695Z" fill="white"/>
<path d="M25.2769 28.376C22.4497 28.376 20.1206 26.0469 20.1206 23.2148C20.1206 20.3877 22.4448 18.0586 25.2769 18.0586C28.104 18.0586 30.4331 20.3877 30.4331 23.2148C30.4331 26.0469 28.1089 28.376 25.2769 28.376ZM25.2769 19.3428C24.4077 19.3428 23.6118 19.626 22.9673 20.1045L28.3921 25.5244C28.8706 24.8799 29.1489 24.084 29.1489 23.2148C29.1489 21.0713 27.4204 19.3428 25.2769 19.3428ZM25.2769 27.0918C26.1411 27.0918 26.937 26.8086 27.5815 26.335L22.1616 20.915C21.688 21.5596 21.4097 22.3555 21.4097 23.2148C21.4097 25.3633 23.1333 27.0918 25.2769 27.0918Z" fill="white"/>
</svg>
