<svg width="34" height="34" viewBox="0 0 34 34" fill="none" xmlns="http://www.w3.org/2000/svg">
<rect width="34" height="34" rx="5" fill="white" fill-opacity="0.07"/>
<path fill-rule="evenodd" clip-rule="evenodd" d="M22.3251 9.61328C23.2414 9.61328 23.9874 10.3589 23.9874 11.2756C23.9874 12.1923 23.2414 12.9384 22.3251 12.9384C22.1663 12.9384 22.0125 12.9159 21.8673 12.874C21.6824 13.068 21.4949 13.2596 21.305 13.4482C21.6147 13.5943 21.9604 13.6763 22.3251 13.6763C23.6486 13.6763 24.7257 12.5992 24.7257 11.2752C24.7257 9.95166 23.6486 8.87459 22.3251 8.87459C21.0011 8.87459 19.924 9.95166 19.924 11.2752C19.924 11.6981 20.0339 12.0951 20.2267 12.4401C20.4125 12.2559 20.5954 12.0693 20.7767 11.8802C20.7029 11.6928 20.6623 11.4885 20.6623 11.2752C20.6623 10.3589 21.4084 9.61328 22.3251 9.61328ZM21.7144 11.2551C21.579 11.2629 21.4629 11.16 21.4547 11.0242C21.4469 10.8889 21.5499 10.7728 21.6856 10.7646L22.5716 10.7121C22.7069 10.7043 22.823 10.8072 22.8312 10.943L22.8837 11.8289C22.8915 11.9643 22.7886 12.0804 22.6528 12.0886C22.5174 12.0964 22.4014 11.9934 22.3932 11.8577L22.3772 11.5886C20.3096 13.9408 18.0311 15.8407 15.5608 17.3287C13.0375 18.8488 10.3132 19.9398 7.40851 20.6453C7.27685 20.6772 7.14437 20.596 7.11238 20.4644C7.08038 20.3327 7.1616 20.2002 7.29326 20.1682C10.1475 19.4751 12.8254 18.4025 15.3069 16.9075C17.7461 15.4379 19.9946 13.561 22.0339 11.2354L21.7144 11.2551ZM24.2094 17.2906C23.9332 17.2906 23.7094 17.5144 23.7094 17.7906V25.9297C23.7094 26.2058 23.9332 26.4297 24.2094 26.4297H25.8823C26.1585 26.4297 26.3823 26.2058 26.3823 25.9297V17.7906C26.3823 17.5144 26.1585 17.2906 25.8823 17.2906H24.2094ZM18.7707 19.8692C18.4945 19.8692 18.2707 20.0931 18.2707 20.3692V25.9297C18.2707 26.2058 18.4945 26.4297 18.7707 26.4297H20.4433C20.7194 26.4297 20.9433 26.2058 20.9433 25.9297V20.3692C20.9433 20.0931 20.7194 19.8692 20.4433 19.8692H18.7707ZM13.3316 22.4475C13.0555 22.4475 12.8316 22.6713 12.8316 22.9475V25.9297C12.8316 26.2058 13.0555 26.4297 13.3316 26.4297H15.0046C15.2807 26.4297 15.5046 26.2058 15.5046 25.9297V22.9475C15.5046 22.6713 15.2807 22.4475 15.0046 22.4475H13.3316ZM9.77017 26.4297C10.0463 26.4297 10.2702 26.2058 10.2702 25.9297V24.3272C10.2702 24.0511 10.0463 23.8272 9.77017 23.8272H8.09718C7.82104 23.8272 7.59718 24.0511 7.59718 24.3272V25.9297C7.59718 26.2058 7.82104 26.4297 8.09718 26.4297H9.77017ZM22.3251 8.38281C20.7296 8.38281 19.4318 9.68055 19.4318 11.2756C19.4318 11.8322 19.5902 12.3523 19.8637 12.794C19.6833 12.9671 19.5003 13.1373 19.3153 13.3055C18.9228 12.7255 18.6931 12.0271 18.6931 11.2756C18.6931 9.27367 20.3223 7.64453 22.3247 7.64453C24.3266 7.64453 25.9558 9.27367 25.9558 11.2756C25.9558 13.278 24.3266 14.9072 22.3247 14.9072C21.6069 14.9072 20.9375 14.6976 20.3735 14.3371C20.5626 14.1644 20.7493 13.9892 20.9338 13.8112C21.3469 14.0389 21.8206 14.1685 22.3247 14.1685C23.9198 14.1685 25.2175 12.8707 25.2175 11.2752C25.2179 9.68055 23.9202 8.38281 22.3251 8.38281Z" fill="white"/>
</svg>
