<svg width="34" height="34" viewBox="0 0 34 34" fill="none" xmlns="http://www.w3.org/2000/svg">
<rect width="34" height="34" rx="5" fill="white" fill-opacity="0.07"/>
<g clip-path="url(#clip0_848_3091)">
<path d="M18.0649 12.9633C18.0614 12.9601 18.0614 12.9633 18.0649 12.9633C18.0583 12.9538 18.0519 12.9475 18.0456 12.9411C18.0393 12.9345 18.0361 12.9282 18.0295 12.9219C17.9432 12.8229 17.9049 12.7015 17.9179 12.5801C17.9305 12.4618 18.0039 12.3531 18.1126 12.2763L19.4003 11.3785C19.4003 11.3785 19.4003 11.3785 19.4035 11.3753C19.9659 10.9918 20.1641 10.2792 19.883 9.6371C19.5666 8.91501 18.8252 8.58249 18.1543 8.86699H18.1509H18.1477L14.569 10.4294C13.6073 10.8514 13.0193 11.8002 13.0704 12.8485C13.1119 13.6439 13.2813 14.4141 13.5753 15.133C13.7031 15.4462 13.9013 15.7337 14.1602 15.9862C14.1602 15.9862 14.1602 15.9862 14.1633 15.9894C14.649 16.4687 14.9525 17.0599 15.1794 17.9641C15.1794 17.9672 15.1794 17.9672 15.1826 17.9704V17.9738C15.9239 20.693 15.0836 23.556 12.9873 25.4507C12.4793 25.9109 12.4091 26.6779 12.8276 27.2337L12.8883 27.3137C13.1185 27.6172 13.4444 27.8056 13.8118 27.841C13.8532 27.8441 13.8918 27.8473 13.9332 27.8473C14.2591 27.8473 14.5819 27.7227 14.8311 27.4958C14.8342 27.4926 14.8374 27.4894 14.8406 27.4863C14.8437 27.4831 14.8471 27.4797 14.8503 27.4765C15.6906 26.6394 16.4222 25.6937 17.0295 24.6742L16.8762 27.0867C16.8345 27.8056 17.3874 28.4319 18.1095 28.4863H18.1126L18.247 28.496H18.2501C18.2821 28.4992 18.3172 28.4992 18.3491 28.4992C19.0234 28.4992 19.5922 27.9975 19.6687 27.3168L20.3942 20.7025C20.3942 20.6993 20.3942 20.6961 20.3942 20.693C20.3942 20.6898 20.3942 20.6866 20.3942 20.6832C20.5953 18.1111 19.7455 15.2929 18.0649 12.9633ZM19.314 20.613L18.5888 27.2147C18.5729 27.3456 18.4673 27.4351 18.3299 27.4256L18.1989 27.4158C18.0614 27.4063 17.9593 27.2944 17.9656 27.1603L18.3011 21.8529C18.3011 21.8497 18.3011 21.8463 18.3011 21.8432C18.3011 21.8305 18.3011 21.821 18.3011 21.808C18.3011 21.8017 18.3011 21.7954 18.3011 21.7856C18.3011 21.7761 18.3011 21.7666 18.2979 21.7537C18.2979 21.7442 18.2947 21.7378 18.2947 21.7315C18.2947 21.7217 18.2916 21.7154 18.2884 21.7059C18.2852 21.6961 18.2852 21.6866 18.2821 21.6771C18.2789 21.6708 18.2789 21.6642 18.2757 21.6547C18.2726 21.6452 18.2691 21.6354 18.266 21.6259C18.2628 21.6196 18.2596 21.6133 18.2596 21.6067C18.2565 21.5972 18.2533 21.5877 18.247 21.5779C18.2438 21.5716 18.2404 21.5652 18.2372 21.5589C18.234 21.5491 18.2277 21.5428 18.2245 21.5333C18.2214 21.527 18.215 21.5206 18.2116 21.5109C18.2084 21.5045 18.2021 21.4982 18.1958 21.4884C18.1894 21.4821 18.1829 21.4726 18.1765 21.4663C18.1733 21.4597 18.167 21.4533 18.1638 21.4502C18.1575 21.4438 18.1509 21.4343 18.1414 21.4277C18.1351 21.4214 18.1319 21.4182 18.1256 21.4119C18.119 21.4056 18.1095 21.399 18.1031 21.3926C18.0968 21.3895 18.0902 21.3831 18.0839 21.38C18.0775 21.3736 18.068 21.3702 18.0614 21.3639C18.0551 21.3575 18.0456 21.3544 18.0393 21.348C18.0327 21.3449 18.0263 21.3414 18.02 21.3351C18.0105 21.3288 18.0007 21.3256 17.9912 21.3193C17.9849 21.3161 17.9786 21.3129 17.972 21.3095C17.9625 21.3063 17.9498 21.3 17.94 21.2968C17.9369 21.2968 17.9369 21.2937 17.9337 21.2937C17.9305 21.2937 17.9242 21.2905 17.921 21.2905C17.9113 21.2873 17.8986 21.2842 17.8891 21.2807C17.8793 21.2776 17.873 21.2776 17.8635 21.2744C17.8537 21.2712 17.8474 21.2712 17.8379 21.2712C17.8284 21.2712 17.8155 21.2681 17.806 21.2681C17.8028 21.2681 17.7965 21.2681 17.793 21.2681C17.7899 21.2681 17.7867 21.2681 17.7867 21.2681C17.774 21.2681 17.7611 21.2681 17.7516 21.2681C17.7453 21.2681 17.7389 21.2681 17.7323 21.2681C17.7197 21.2681 17.7102 21.2712 17.6972 21.2712C17.6909 21.2712 17.6846 21.2712 17.6782 21.2744C17.6685 21.2776 17.6558 21.2776 17.646 21.2807C17.6397 21.2807 17.6334 21.2842 17.627 21.2842C17.6175 21.2873 17.6078 21.2905 17.5983 21.2937C17.5919 21.2968 17.5822 21.2968 17.5758 21.3C17.5663 21.3032 17.5566 21.3063 17.5471 21.3095C17.5407 21.3129 17.5344 21.3161 17.5246 21.3193C17.5151 21.3224 17.5056 21.3288 17.4993 21.3319C17.4927 21.3351 17.4864 21.3383 17.48 21.3414C17.4705 21.348 17.4608 21.3544 17.4513 21.3607C17.4449 21.3639 17.4417 21.367 17.4352 21.3702C17.4257 21.3768 17.4161 21.3831 17.4098 21.3926C17.4064 21.3958 17.4001 21.399 17.3969 21.4024C17.3874 21.4087 17.381 21.4182 17.3713 21.4277C17.3681 21.4309 17.3618 21.4375 17.3586 21.4407C17.3523 21.4502 17.3425 21.4565 17.3362 21.4663C17.333 21.4726 17.3267 21.4758 17.3235 21.4821C17.3169 21.4884 17.3106 21.4982 17.3074 21.5077C17.3043 21.514 17.2979 21.5206 17.2947 21.5301C17.2916 21.5365 17.285 21.546 17.2818 21.5526C17.2755 21.5621 17.2723 21.5716 17.2691 21.5779C17.266 21.5845 17.2628 21.5908 17.2596 21.5972C17.2562 21.6067 17.2499 21.6196 17.2467 21.6291C17.2467 21.6323 17.2435 21.6354 17.2435 21.6354C16.6012 23.5304 15.5149 25.2783 14.0992 26.6937C14.0451 26.7418 13.9778 26.7639 13.9171 26.7576C13.8949 26.7544 13.8245 26.7481 13.7574 26.6586L13.6967 26.5787C13.6168 26.4733 13.6233 26.3359 13.716 26.2527C14.8854 25.1952 15.7384 23.8371 16.1826 22.3224C16.6268 20.8112 16.6429 19.2103 16.2306 17.6925C16.0453 16.9543 15.7289 16.0052 14.9237 15.2098L14.9205 15.2066L14.9174 15.2034C14.764 15.0564 14.649 14.8933 14.5787 14.7176C14.3325 14.1105 14.1887 13.4618 14.1536 12.7878C14.1248 12.1966 14.4573 11.6566 15.0005 11.4201L18.5729 9.85749C18.7518 9.78411 18.8828 10.062 18.8828 10.0652C18.9371 10.1866 18.9435 10.3655 18.7838 10.4711L18.7806 10.4743L18.7772 10.4774L17.4895 11.3753C17.1285 11.6278 16.892 12.0177 16.8408 12.4394C16.7899 12.8548 16.9176 13.2734 17.1892 13.5993C18.7165 15.7273 19.4898 18.2773 19.314 20.613Z" fill="white"/>
<path d="M12.1277 10.7748C11.9169 10.6471 11.6421 10.7173 11.5144 10.9282L7.48827 17.632C7.4851 17.6352 7.4851 17.6383 7.48168 17.6415C7.46901 17.6608 7.4595 17.68 7.44975 17.699L7.05994 18.3509C6.91635 18.5937 6.94487 18.9007 7.13039 19.1115L7.9578 20.0413C8.12089 20.2234 8.34444 20.3224 8.58091 20.3224C8.62893 20.3224 8.68013 20.3192 8.72791 20.3097C9.00924 20.2585 9.24888 20.0733 9.36077 19.8207C9.36394 19.8175 9.36394 19.8144 9.36394 19.8112C9.36711 19.8049 9.36711 19.8017 9.37028 19.7954V19.7922C9.37028 19.7888 9.37028 19.7888 9.37345 19.7856L9.44366 19.5908C9.44366 19.5908 9.44366 19.5908 9.44366 19.5876C9.6482 19.0572 9.46292 18.4628 8.98998 18.1369L8.44683 17.7629L12.2747 11.385C12.4091 11.1773 12.3386 10.9026 12.1277 10.7748Z" fill="white"/>
<path d="M26.6188 13.3801C26.101 11.7665 25.1936 10.2806 23.9952 9.08241C22.797 7.88421 21.3145 6.97343 19.7041 6.4527C19.493 6.38566 19.2694 6.50073 19.2024 6.70843C19.1351 6.91931 19.2501 7.14286 19.4578 7.2099C22.4903 8.19089 24.8803 10.5875 25.8582 13.6197C26.836 16.6522 26.2894 19.9944 24.3979 22.5603C24.267 22.7392 24.3053 22.9886 24.481 23.1195C24.5512 23.1707 24.6344 23.1963 24.7175 23.1963C24.8389 23.1963 24.9603 23.1388 25.0403 23.0332C26.0434 21.6688 26.7209 20.0649 26.9925 18.3938C27.2672 16.729 27.1363 14.9937 26.6188 13.3801Z" fill="white"/>
<path d="M23.0015 12.6255C22.797 12.7118 22.7043 12.9482 22.7906 13.1496C23.9154 15.7857 23.647 18.7893 22.0749 21.1826C21.9535 21.3678 22.0047 21.6141 22.1899 21.7355C22.257 21.7801 22.3338 21.8025 22.4071 21.8025C22.5383 21.8025 22.666 21.7386 22.7426 21.6236C24.4618 19.0034 24.7558 15.7186 23.5256 12.8395C23.4393 12.635 23.206 12.5392 23.0015 12.6255Z" fill="white"/>
<path d="M14.2911 9.74331C15.4605 9.74331 16.4127 8.79109 16.4127 7.62166C16.4127 6.45222 15.4605 5.5 14.2911 5.5C13.1216 5.5 12.1694 6.45222 12.1694 7.62166C12.1662 8.79109 13.1185 9.74331 14.2911 9.74331ZM14.2911 6.58313C14.863 6.58313 15.3264 7.04657 15.3264 7.61849C15.3264 8.19041 14.863 8.65384 14.2911 8.65384C13.7191 8.65384 13.2557 8.19041 13.2557 7.61849C13.2525 7.04974 13.7191 6.58313 14.2911 6.58313Z" fill="white"/>
</g>
<defs>
<clipPath id="clip0_848_3091">
<rect width="23" height="23" fill="white" transform="translate(5.5 5.5)"/>
</clipPath>
</defs>
</svg>
