<svg width="34" height="34" viewBox="0 0 34 34" fill="none" xmlns="http://www.w3.org/2000/svg">
<rect width="34" height="34" rx="5" fill="white" fill-opacity="0.07"/>
<path d="M18.6562 13.4062H14.0625C13.6996 13.4062 13.4062 13.1122 13.4062 12.75C13.4062 12.3877 13.6996 12.0938 14.0625 12.0938H18.6562C19.0192 12.0938 19.3125 12.3877 19.3125 12.75C19.3125 13.1122 19.0192 13.4062 18.6562 13.4062Z" fill="white"/>
<path d="M20.625 16.6875H14.0625C13.6996 16.6875 13.4062 16.3935 13.4062 16.0312C13.4062 15.669 13.6996 15.375 14.0625 15.375H20.625C20.9879 15.375 21.2812 15.669 21.2812 16.0312C21.2812 16.3935 20.9879 16.6875 20.625 16.6875Z" fill="white"/>
<path d="M17.9081 19.3125H14.0625C13.6996 19.3125 13.4062 19.0185 13.4062 18.6562C13.4062 18.294 13.6996 18 14.0625 18H17.9081C18.271 18 18.5644 18.294 18.5644 18.6562C18.5644 19.0185 18.271 19.3125 17.9081 19.3125Z" fill="white"/>
<path d="M16.3331 21.9375H14.0625C13.6996 21.9375 13.4062 21.6435 13.4062 21.2812C13.4062 20.919 13.6996 20.625 14.0625 20.625H16.3331C16.696 20.625 16.9894 20.919 16.9894 21.2812C16.9894 21.6435 16.696 21.9375 16.3331 21.9375Z" fill="white"/>
<path d="M16.3331 25.875H13.4062C11.597 25.875 10.125 24.403 10.125 22.5938V11.4375C10.125 9.62822 11.597 8.15625 13.4062 8.15625H21.2812C23.0905 8.15625 24.5625 9.62822 24.5625 11.4375V16.8187C24.5625 17.181 24.2692 17.475 23.9062 17.475C23.5433 17.475 23.25 17.181 23.25 16.8187V11.4375C23.25 10.3521 22.3667 9.46875 21.2812 9.46875H13.4062C12.3208 9.46875 11.4375 10.3521 11.4375 11.4375V22.5938C11.4375 23.6792 12.3208 24.5625 13.4062 24.5625H16.3331C16.696 24.5625 16.9894 24.8565 16.9894 25.2188C16.9894 25.581 16.696 25.875 16.3331 25.875Z" fill="white"/>
<path d="M22.5938 27.8438C20.0613 27.8438 18 25.7831 18 23.25C18 20.7169 20.0613 18.6562 22.5938 18.6562C25.1262 18.6562 27.1875 20.7169 27.1875 23.25C27.1875 25.7831 25.1262 27.8438 22.5938 27.8438ZM22.5938 19.9688C20.7845 19.9688 19.3125 21.4407 19.3125 23.25C19.3125 25.0593 20.7845 26.5312 22.5938 26.5312C24.403 26.5312 25.875 25.0593 25.875 23.25C25.875 21.4407 24.403 19.9688 22.5938 19.9688Z" fill="white"/>
<path d="M22.156 24.9138C21.988 24.9138 21.82 24.8495 21.6921 24.7215L20.8173 23.8467C20.5607 23.5901 20.5607 23.1754 20.8173 22.9188C21.0739 22.6622 21.4886 22.6622 21.7452 22.9188L22.156 23.3296L23.4423 22.044C23.6989 21.7874 24.1136 21.7874 24.3702 22.044C24.6268 22.3006 24.6268 22.716 24.3702 22.9719L22.62 24.7222C22.492 24.8501 22.324 24.9138 22.156 24.9138Z" fill="white"/>
</svg>
