<svg width="34" height="34" viewBox="0 0 34 34" fill="none" xmlns="http://www.w3.org/2000/svg">
<rect width="34" height="34" rx="5" fill="white" fill-opacity="0.07"/>
<g clip-path="url(#clip0_848_3048)">
<path d="M24.25 16.625H16.1256C14.4025 16.625 13.0006 15.2231 13.0006 13.5V9.75C13.0006 8.02688 14.4025 6.625 16.1256 6.625H24.25C25.9731 6.625 27.375 8.02688 27.375 9.75V13.5C27.375 15.2231 25.9731 16.625 24.25 16.625ZM16.1256 7.875C15.0919 7.875 14.2506 8.71625 14.2506 9.75V13.5C14.2506 14.5338 15.0919 15.375 16.1256 15.375H24.25C25.2837 15.375 26.125 14.5338 26.125 13.5V9.75C26.125 8.71625 25.2837 7.875 24.25 7.875H16.1256Z" fill="white"/>
<path d="M21.75 25.3743H11.75C10.0244 25.3743 8.625 23.975 8.625 22.2493V12.2493C8.625 10.7956 9.62312 9.56995 10.97 9.22308C11.3644 9.1212 11.75 9.42245 11.75 9.82995V9.83183C11.75 10.1275 11.5375 10.3637 11.2519 10.4418C10.4588 10.6606 9.875 11.3881 9.875 12.25V22.2493C9.875 23.285 10.7144 24.1243 11.75 24.1243H21.75C22.7856 24.1243 23.625 23.285 23.625 22.2493V18.4993C23.625 18.1543 23.905 17.8743 24.25 17.8743C24.595 17.8743 24.875 18.1543 24.875 18.4993V22.2493C24.875 23.975 23.4756 25.3743 21.75 25.3743Z" fill="white"/>
<path d="M19.6481 14.1981C19.3969 14.1981 19.145 14.1363 18.9156 14.0125C18.4181 13.7431 18.1094 13.225 18.1094 12.6594V10.4219C18.1094 9.85438 18.42 9.33501 18.9194 9.06688C19.4181 8.79813 20.0231 8.82501 20.4963 9.13876L22.1981 10.2638C22.6312 10.55 22.8894 11.0319 22.8881 11.5513C22.8863 12.0713 22.6263 12.5513 22.1912 12.835L20.4894 13.9475C20.2344 14.1144 19.9413 14.1988 19.6475 14.1988L19.6481 14.1981ZM19.65 10.1313C19.5913 10.1313 19.5425 10.1506 19.5113 10.1675C19.4544 10.1981 19.3594 10.2719 19.3594 10.4219V12.6594C19.3594 12.8088 19.4538 12.8825 19.5106 12.9131C19.5663 12.9438 19.6794 12.9825 19.8063 12.9006L21.5081 11.7881C21.6213 11.7138 21.6381 11.6056 21.6388 11.5475C21.6388 11.4894 21.6225 11.3806 21.5088 11.3063L19.8069 10.1813C19.7513 10.1444 19.6969 10.1313 19.65 10.1313Z" fill="white"/>
<path d="M18.3819 25.1195L15.3187 20.2032C15.2044 20.0201 15.0156 19.9063 14.8 19.892C14.5869 19.877 14.3819 19.9645 14.2444 20.1313L10.6012 24.5432L9.63687 23.7476L13.28 19.3363C13.6769 18.8563 14.2581 18.6007 14.8825 18.6457C15.5044 18.687 16.05 19.0138 16.3794 19.5432L19.4425 24.4588L18.3819 25.1195Z" fill="white"/>
<path d="M22.8831 24.7431L20.1119 21.105C19.9962 20.9531 19.8281 20.8613 19.6375 20.8456C19.4412 20.8275 19.2662 20.8944 19.1281 21.025L17.61 22.4625L16.7506 21.555L18.2687 20.1175C18.6619 19.7444 19.1975 19.5581 19.7381 19.5994C20.2787 19.6431 20.7781 19.9156 21.1062 20.3475L23.8781 23.9856L22.8831 24.7431Z" fill="white"/>
</g>
<defs>
<clipPath id="clip0_848_3048">
<rect width="20" height="20" fill="white" transform="translate(8 6)"/>
</clipPath>
</defs>
</svg>
