<svg width="34" height="34" viewBox="0 0 34 34" fill="none" xmlns="http://www.w3.org/2000/svg">
<rect width="34" height="34" rx="5" fill="white" fill-opacity="0.07"/>
<path d="M6.94531 17.6328C6.59375 17.6328 6.3125 17.3516 6.3125 17C6.3125 16.6484 6.59375 16.376 6.94531 16.376H8.72949C9.03711 12.2979 12.2979 9.01953 16.3672 8.71191V6.94531C16.3672 6.59375 16.6484 6.3125 17 6.3125C17.3516 6.3125 17.624 6.59375 17.624 6.94531V8.71191C21.7021 9.01953 24.9629 12.2979 25.2705 16.376H27.0547C27.4062 16.376 27.6875 16.6484 27.6875 17C27.6875 17.3516 27.4062 17.6328 27.0547 17.6328H25.2705C24.9629 21.7109 21.7021 24.9893 17.624 25.2969V27.0547C17.624 27.4062 17.3516 27.6875 17 27.6875C16.6484 27.6875 16.3672 27.4062 16.3672 27.0547V25.2969C12.2979 24.9893 9.03711 21.7109 8.72949 17.6328H6.94531ZM17 13.5283C16.6484 13.5283 16.3672 13.2471 16.3672 12.8955V10.1445C13.0713 10.4434 10.4961 13.0361 10.2148 16.376H12.8955C13.2471 16.376 13.5283 16.6484 13.5283 17C13.5283 17.3516 13.2471 17.6328 12.8955 17.6328H10.2148C10.4961 20.9639 13.0713 23.5566 16.3672 23.8555V21.1045C16.3672 20.7529 16.6484 20.4805 17 20.4805C17.3516 20.4805 17.624 20.7529 17.624 21.1045V23.8555C20.9287 23.5566 23.5039 20.9639 23.7852 17.6328H21.1045C20.7529 17.6328 20.4717 17.3516 20.4717 17C20.4717 16.6484 20.7529 16.376 21.1045 16.376H23.7852C23.5039 13.0361 20.9287 10.4434 17.624 10.1445V12.8955C17.624 13.2471 17.3516 13.5283 17 13.5283Z" fill="white"/>
</svg>
