<svg width="34" height="34" viewBox="0 0 34 34" fill="none" xmlns="http://www.w3.org/2000/svg">
<rect width="34" height="34" rx="5" fill="white" fill-opacity="0.07"/>
<g clip-path="url(#clip0_848_3010)">
<path d="M26.6814 9.26562L27.7989 7.72872C27.8641 7.63898 27.9033 7.53296 27.912 7.42236C27.9208 7.31176 27.8987 7.20091 27.8484 7.10205C27.7981 7.00318 27.7214 6.92017 27.6268 6.86217C27.5322 6.80418 27.4234 6.77347 27.3125 6.77344H23.1016V6.6875C23.1016 6.52796 23.0382 6.37495 22.9254 6.26213C22.8126 6.14932 22.6595 6.08594 22.5 6.08594C22.3405 6.08594 22.1874 6.14932 22.0746 6.26213C21.9618 6.37495 21.8984 6.52796 21.8984 6.6875V15.0234H21.125C20.9655 15.0234 20.8124 15.0868 20.6996 15.1996C20.5868 15.3124 20.5234 15.4655 20.5234 15.625C20.5234 15.7845 20.5868 15.9376 20.6996 16.0504C20.8124 16.1632 20.9655 16.2266 21.125 16.2266H23.875C24.0345 16.2266 24.1876 16.1632 24.3004 16.0504C24.4132 15.9376 24.4766 15.7845 24.4766 15.625C24.4766 15.4655 24.4132 15.3124 24.3004 15.1996C24.1876 15.0868 24.0345 15.0234 23.875 15.0234H23.1016V11.7578H27.3125C27.4234 11.7578 27.5322 11.7271 27.6268 11.6691C27.7214 11.6111 27.7981 11.5281 27.8484 11.4292C27.8987 11.3303 27.9208 11.2195 27.912 11.1089C27.9033 10.9983 27.8641 10.8923 27.7989 10.8025L26.6814 9.26562ZM25.4511 9.61934L26.131 10.5547H23.1016V7.97656H26.131L25.4511 8.91191C25.3762 9.01464 25.3359 9.13849 25.3359 9.26562C25.3359 9.39276 25.3762 9.51661 25.4511 9.61934Z" fill="white"/>
<path d="M22.8438 18.8047H19.0625C18.4015 18.8047 17.7676 18.5421 17.3003 18.0747C16.8329 17.6074 16.5703 16.9735 16.5703 16.3125C16.5703 15.6515 16.8329 15.0176 17.3003 14.5503C17.7676 14.0829 18.4015 13.8203 19.0625 13.8203H20.0938C20.2533 13.8203 20.4063 13.7569 20.5191 13.6441C20.6319 13.5313 20.6953 13.3783 20.6953 13.2188C20.6953 13.0592 20.6319 12.9062 20.5191 12.7934C20.4063 12.6806 20.2533 12.6172 20.0938 12.6172H19.0625C18.0824 12.6172 17.1425 13.0065 16.4495 13.6995C15.7565 14.3925 15.3672 15.3324 15.3672 16.3125C15.3672 17.2926 15.7565 18.2325 16.4495 18.9255C17.1425 19.6185 18.0824 20.0078 19.0625 20.0078H22.8438C23.5047 20.0078 24.1386 20.2704 24.606 20.7378C25.0734 21.2051 25.3359 21.839 25.3359 22.5C25.3359 23.161 25.0734 23.7949 24.606 24.2622C24.1386 24.7296 23.5047 24.9922 22.8438 24.9922H15.2812C15.1217 24.9922 14.9687 25.0556 14.8559 25.1684C14.7431 25.2812 14.6797 25.4342 14.6797 25.5938C14.6797 25.7533 14.7431 25.9063 14.8559 26.0191C14.9687 26.1319 15.1217 26.1953 15.2812 26.1953H22.8438C23.8238 26.1953 24.7637 25.806 25.4567 25.113C26.1497 24.42 26.5391 23.4801 26.5391 22.5C26.5391 21.5199 26.1497 20.58 25.4567 19.887C24.7637 19.194 23.8238 18.8047 22.8438 18.8047Z" fill="white"/>
<path d="M10.3312 18.8398C9.97431 18.8398 9.62539 18.9457 9.32861 19.144C9.03183 19.3423 8.80052 19.6241 8.66392 19.9539C8.52733 20.2837 8.49159 20.6465 8.56123 20.9966C8.63086 21.3467 8.80274 21.6682 9.05513 21.9206C9.30752 22.173 9.62909 22.3449 9.97916 22.4145C10.3292 22.4842 10.6921 22.4484 11.0219 22.3118C11.3516 22.1753 11.6335 21.9439 11.8318 21.6472C12.0301 21.3504 12.1359 21.0015 12.1359 20.6445C12.1354 20.1661 11.9451 19.7074 11.6067 19.369C11.2684 19.0307 10.8097 18.8404 10.3312 18.8398ZM10.3312 21.2461C10.2123 21.2461 10.096 21.2108 9.99703 21.1447C9.8981 21.0786 9.821 20.9847 9.77547 20.8747C9.72994 20.7648 9.71802 20.6439 9.74124 20.5272C9.76445 20.4105 9.82174 20.3033 9.90587 20.2192C9.99 20.135 10.0972 20.0777 10.2139 20.0545C10.3306 20.0313 10.4515 20.0432 10.5614 20.0888C10.6714 20.1343 10.7653 20.2114 10.8314 20.3103C10.8975 20.4092 10.9328 20.5256 10.9328 20.6445C10.9325 20.804 10.8691 20.9568 10.7563 21.0696C10.6436 21.1824 10.4907 21.2458 10.3312 21.2461Z" fill="white"/>
<path d="M10.3313 16.3984C9.5683 16.3985 8.81951 16.6045 8.16388 16.9947C7.50824 17.3849 6.97005 17.9448 6.60609 18.6153C6.24213 19.2859 6.06588 20.0422 6.09594 20.8046C6.126 21.5669 6.36126 22.3071 6.77689 22.9469L9.22267 26.7109H7.58126C7.42172 26.7109 7.26871 26.7743 7.15589 26.8871C7.04308 26.9999 6.9797 27.153 6.9797 27.3125C6.9797 27.472 7.04308 27.6251 7.15589 27.7379C7.26871 27.8507 7.42172 27.9141 7.58126 27.9141H13.0813C13.2408 27.9141 13.3938 27.8507 13.5066 27.7379C13.6194 27.6251 13.6828 27.472 13.6828 27.3125C13.6828 27.153 13.6194 26.9999 13.5066 26.8871C13.3938 26.7743 13.2408 26.7109 13.0813 26.7109H11.4395L13.8856 22.9469C14.3013 22.3071 14.5365 21.5669 14.5666 20.8046C14.5966 20.0422 14.4204 19.2859 14.0564 18.6153C13.6925 17.9448 13.1543 17.3849 12.4986 16.9947C11.843 16.6045 11.0942 16.3985 10.3313 16.3984ZM12.875 22.2924L10.3313 26.2087L7.78545 22.2938C7.48765 21.8355 7.31905 21.3054 7.29746 20.7593C7.27586 20.2133 7.40207 19.6715 7.66275 19.1912C7.92344 18.7108 8.30894 18.3098 8.77858 18.0303C9.24822 17.7509 9.78459 17.6034 10.3311 17.6034C10.8776 17.6034 11.414 17.7509 11.8836 18.0303C12.3532 18.3098 12.7387 18.7108 12.9994 19.1912C13.2601 19.6715 13.3863 20.2133 13.3647 20.7593C13.3431 21.3054 13.1745 21.8355 12.8767 22.2938L12.875 22.2924Z" fill="white"/>
</g>
<defs>
<clipPath id="clip0_848_3010">
<rect width="22" height="22" fill="white" transform="translate(6 6)"/>
</clipPath>
</defs>
</svg>
