<svg width="34" height="34" viewBox="0 0 34 34" fill="none" xmlns="http://www.w3.org/2000/svg">
<rect width="34" height="34" rx="5" fill="white" fill-opacity="0.07"/>
<g clip-path="url(#clip0_848_3023)">
<path d="M25.1149 8.88508C22.6015 6.37164 18.5119 6.37164 15.9985 8.88508C13.4851 11.3985 13.4851 15.488 15.9985 18.0015C18.5119 20.5148 22.6015 20.515 25.1149 18.0015C27.6283 15.4881 27.6283 11.3985 25.1149 8.88508ZM24.2862 17.1727C22.2298 19.2291 18.8837 19.2291 16.8273 17.1727C14.7709 15.1163 14.7709 11.7703 16.8273 9.71383C18.8837 7.65746 22.2297 7.65738 24.2862 9.71383C26.3426 11.7703 26.3426 15.1163 24.2862 17.1727Z" fill="white"/>
<path d="M20.1423 10.5415C19.4569 9.85597 18.3415 9.85597 17.656 10.5415C16.9689 11.2286 16.9689 12.3406 17.656 13.0278C17.885 13.2566 18.2559 13.2566 18.4848 13.0278C18.7136 12.7989 18.7136 12.4279 18.4848 12.199C18.2558 11.97 18.2557 11.5994 18.4848 11.3703C18.7133 11.1418 19.0851 11.1418 19.3135 11.3703C19.5424 11.5991 19.9134 11.5991 20.1423 11.3703C20.3712 11.1414 20.3712 10.7703 20.1423 10.5415Z" fill="white"/>
<path d="M20.9711 14.6872C20.2841 14.0002 19.172 14 18.4848 14.6872C17.7993 15.3727 17.7993 16.488 18.4848 17.1736C18.7137 17.4024 19.0848 17.4024 19.3136 17.1736C19.5425 16.9447 19.5425 16.5737 19.3136 16.3448C19.0851 16.1163 19.0851 15.7445 19.3136 15.516C19.5426 15.287 19.9132 15.2869 20.1423 15.516C20.3712 15.7449 20.7422 15.7449 20.9711 15.516C21.2 15.2871 21.2 14.9161 20.9711 14.6872Z" fill="white"/>
<path d="M24.2862 11.3696C23.6007 10.6841 22.4853 10.6841 21.7999 11.3696C21.1144 12.0551 21.1144 13.1704 21.7999 13.8559C22.0287 14.0848 22.3998 14.0848 22.6286 13.8559C22.8575 13.627 22.8575 13.256 22.6286 13.0271C22.4001 12.7986 22.4001 12.4269 22.6286 12.1984C22.8571 11.9699 23.2289 11.9699 23.4574 12.1984C23.6862 12.4273 24.0573 12.4273 24.2862 12.1984C24.515 11.9695 24.5151 11.5985 24.2862 11.3696Z" fill="white"/>
<path d="M15.1698 18.8318C14.941 18.6029 14.57 18.6029 14.3411 18.8318L7.17168 26.0012C6.94281 26.2301 6.94281 26.6011 7.17168 26.83C7.40051 27.0588 7.7716 27.0588 8.00043 26.83L15.1698 19.6606C15.3987 19.4317 15.3987 19.0607 15.1698 18.8318Z" fill="white"/>
<path d="M13.6814 16.8006C13.4526 16.5717 13.0816 16.5717 12.8527 16.8006L8.34374 21.3095C8.11487 21.5384 8.11487 21.9094 8.34374 22.1383C8.57257 22.3672 8.94362 22.3672 9.17249 22.1383L13.6814 17.6293C13.9103 17.4005 13.9103 17.0294 13.6814 16.8006Z" fill="white"/>
<path d="M17.1976 20.3201C16.9688 20.0912 16.5977 20.0912 16.3689 20.3201L11.8599 24.829C11.631 25.0579 11.631 25.4289 11.8599 25.6578C12.0887 25.8867 12.4598 25.8867 12.6886 25.6578L17.1976 21.1488C17.4264 20.92 17.4264 20.549 17.1976 20.3201Z" fill="white"/>
</g>
<defs>
<clipPath id="clip0_848_3023">
<rect width="20" height="20" fill="white" transform="translate(7 7)"/>
</clipPath>
</defs>
</svg>
