<svg width="34" height="34" viewBox="0 0 34 34" fill="none" xmlns="http://www.w3.org/2000/svg">
<rect width="34" height="34" rx="5" fill="white" fill-opacity="0.07"/>
<path d="M26.1667 12.9008V12.7957C26.1672 12.3539 26.0356 11.922 25.789 11.5554C25.5423 11.1888 25.1917 10.9043 24.7822 10.7384C24.7588 10.2041 24.5305 9.69931 24.1445 9.329C23.7586 8.95869 23.2448 8.75132 22.71 8.75H11.29C10.7495 8.75113 10.2307 8.96249 9.84339 9.33936C9.45604 9.71623 9.23052 10.229 9.21458 10.7692C8.82334 10.944 8.49115 11.2284 8.2582 11.5881C8.02525 11.9477 7.90153 12.3672 7.90201 12.7957V12.8441C7.59817 13.0571 7.35003 13.34 7.17852 13.6691C7.007 13.9981 6.91716 14.3636 6.91656 14.7347V23.3903C6.91727 24.0049 7.16173 24.5941 7.59631 25.0286C8.03089 25.4632 8.6201 25.7077 9.23469 25.7083H24.7653C25.3798 25.7077 25.9691 25.4632 26.4036 25.0286C26.8382 24.5941 27.0827 24.0048 27.0833 23.3903V14.7348C27.0822 14.3791 26.9989 14.0285 26.8399 13.7104C26.6809 13.3922 26.4505 13.1151 26.1667 12.9008ZM11.29 9.66665H22.71C22.9734 9.66723 23.2289 9.75704 23.4347 9.92143C23.6405 10.0858 23.7846 10.3151 23.8434 10.5719H10.1566C10.2154 10.3151 10.3594 10.0858 10.5653 9.92144C10.7711 9.75705 11.0266 9.66724 11.29 9.66665ZM8.9746 12.176C9.08652 11.9681 9.25267 11.7944 9.45539 11.6734C9.65811 11.5523 9.88983 11.4885 10.1259 11.4885H23.9428C24.2315 11.487 24.5123 11.5818 24.741 11.758C24.9696 11.9342 25.1329 12.1816 25.2049 12.4611C25.0601 12.4323 24.9129 12.4174 24.7652 12.4167H9.23477C9.11112 12.4191 8.98787 12.4316 8.86623 12.4539C8.89148 12.3574 8.92785 12.2641 8.9746 12.176V12.176ZM26.1667 23.3903C26.1662 23.7618 26.0184 24.118 25.7557 24.3808C25.493 24.6435 25.1368 24.7913 24.7652 24.7917H9.23477C8.86322 24.7913 8.507 24.6435 8.24426 24.3808C7.98153 24.118 7.83374 23.7618 7.8333 23.3903V14.7348C7.83372 14.3632 7.98151 14.007 8.24425 13.7443C8.50699 13.4815 8.86321 13.3338 9.23477 13.3333H24.7653C25.1368 13.3338 25.493 13.4816 25.7558 13.7443C26.0185 14.007 26.1663 14.3632 26.1667 14.7348L26.1667 23.3903Z" fill="white"/>
<path d="M20.1687 17.8705L16.0437 15.4889C15.8346 15.3682 15.5975 15.3047 15.3561 15.3047C15.1148 15.3047 14.8777 15.3682 14.6686 15.4889C14.4596 15.6096 14.286 15.7832 14.1653 15.9922C14.0447 16.2013 13.9811 16.4384 13.9812 16.6797V21.4429C13.9802 21.6846 14.0432 21.9223 14.1636 22.1318C14.2841 22.3414 14.4578 22.5154 14.6671 22.6363C14.8765 22.7571 15.114 22.8206 15.3557 22.8201C15.5975 22.8196 15.8348 22.7553 16.0437 22.6337L20.1687 20.2521C20.3777 20.1314 20.5512 19.9578 20.6719 19.7488C20.7926 19.5398 20.8561 19.3027 20.8561 19.0613C20.8561 18.8199 20.7926 18.5828 20.6719 18.3738C20.5512 18.1648 20.3777 17.9912 20.1687 17.8705V17.8705ZM19.7103 19.4582L15.5853 21.8398C15.5156 21.88 15.4366 21.9012 15.3561 21.9012C15.2757 21.9012 15.1966 21.88 15.127 21.8398C15.0573 21.7996 14.9994 21.7417 14.9592 21.672C14.919 21.6024 14.8978 21.5233 14.8978 21.4429V16.6797C14.897 16.5991 14.9178 16.5197 14.9581 16.4499C14.9984 16.3801 15.0567 16.3223 15.127 16.2828C15.1974 16.2421 15.2772 16.2204 15.3585 16.2197C15.4383 16.2201 15.5167 16.2419 15.5853 16.2828L19.7103 18.6643C19.78 18.7046 19.8378 18.7624 19.878 18.8321C19.9183 18.9018 19.9394 18.9808 19.9394 19.0613C19.9394 19.1417 19.9183 19.2207 19.878 19.2904C19.8378 19.3601 19.78 19.418 19.7103 19.4582V19.4582Z" fill="white"/>
</svg>
