<svg width="20" height="20" viewBox="0 0 20 20" fill="none" xmlns="http://www.w3.org/2000/svg">
<path fill-rule="evenodd" clip-rule="evenodd" d="M6.83793 14.9343C7.2425 14.9343 7.64706 14.938 8.05146 14.9334C8.50072 14.9284 8.61342 14.8181 8.61687 14.3669C8.62221 13.6824 8.62788 12.9976 8.6149 12.3134C8.60759 11.9299 8.75077 11.7402 9.14145 11.7462C9.78465 11.7559 10.4281 11.7549 11.0714 11.7464C11.4411 11.7415 11.583 11.9172 11.576 12.2859C11.5631 12.9702 11.5687 13.6549 11.5739 14.3395C11.5774 14.8105 11.6972 14.9286 12.1625 14.9335C12.5478 14.9376 12.933 14.9343 13.3183 14.9343C13.3297 14.9805 13.3411 15.0267 13.3525 15.0729C13.271 15.1759 13.1977 15.2871 13.1067 15.3804C12.2474 16.2617 11.386 17.1409 10.5232 18.0187C10.14 18.4086 9.98648 18.4089 9.60713 18.0226C8.7543 17.1544 7.90237 16.2853 7.0529 15.4137C6.9531 15.3112 6.87136 15.1903 6.78125 15.078C6.80014 15.0301 6.81904 14.9822 6.83793 14.9343Z" fill="#F12730"/>
<path fill-rule="evenodd" clip-rule="evenodd" d="M13.3879 5.40723C13.0028 5.40723 12.6177 5.40298 12.2326 5.40832C11.7577 5.41491 11.6298 5.54446 11.6267 6.02605C11.6225 6.6648 11.6179 7.30363 11.6282 7.94213C11.6343 8.31661 11.466 8.46977 11.1131 8.4656C10.4924 8.45817 9.8717 8.46693 9.25095 8.46243C8.81771 8.45934 8.71467 8.34856 8.71151 7.8844C8.70722 7.25959 8.71322 6.63477 8.70924 6.00995C8.70632 5.54379 8.58407 5.41524 8.1347 5.40857C7.71825 5.40239 7.30163 5.40732 6.78125 5.40732C6.89921 5.22371 6.95101 5.10575 7.03402 5.01966C7.93689 4.08335 8.84779 3.15513 9.7492 2.21732C10.0059 1.9502 10.2325 1.913 10.5052 2.19746C11.4149 3.14629 12.3349 4.08468 13.2487 5.02942C13.32 5.10316 13.3733 5.19526 13.435 5.27885C13.4193 5.32164 13.4036 5.36444 13.3879 5.40723Z" fill="#F12730"/>
<path fill-rule="evenodd" clip-rule="evenodd" d="M5.24952 6.87305V13.6542C5.07097 13.5158 4.96099 13.4488 4.87276 13.3595C4.00402 12.4787 3.13787 11.5953 2.27326 10.7102C1.90863 10.3369 1.9092 10.1964 2.27326 9.8239C3.12865 8.94896 3.9851 8.07501 4.84422 7.20386C4.94198 7.10483 5.05997 7.0265 5.24952 6.87305Z" fill="#F12730"/>
<path fill-rule="evenodd" clip-rule="evenodd" d="M14.75 13.4965V6.87305C14.8911 6.96266 14.9984 7.00718 15.0746 7.08295C15.9884 7.99108 16.896 8.90554 17.8092 9.81442C18.0507 10.0549 18.0688 10.2905 17.8264 10.5339C16.8976 11.4663 15.9679 12.3979 15.0357 13.3267C14.9814 13.3807 14.901 13.4083 14.75 13.4965Z" fill="#F12730"/>
</svg>
