<svg width="20" height="20" viewBox="0 0 20 20" fill="none" xmlns="http://www.w3.org/2000/svg">
<path d="M0 4.21053C0 1.88512 1.88512 0 4.21053 0H15.7895C18.1149 0 20 1.88512 20 4.21053V15.7895C20 18.1149 18.1149 20 15.7895 20H4.21053C1.88512 20 0 18.1149 0 15.7895V4.21053Z" fill="#009948"/>
<path fill-rule="evenodd" clip-rule="evenodd" d="M14.737 8.42074H5.26336C4.39134 8.42074 3.68442 9.12769 3.68442 9.99969C3.68442 10.8717 4.39134 11.5786 5.26336 11.5786H14.737C15.6091 11.5786 16.316 10.8717 16.316 9.99969C16.316 9.12769 15.6091 8.42074 14.737 8.42074ZM5.26336 6.8418C3.51931 6.8418 2.10547 8.25563 2.10547 9.99969C2.10547 11.7437 3.51931 13.1576 5.26336 13.1576H14.737C16.4811 13.1576 17.8949 11.7437 17.8949 9.99969C17.8949 8.25563 16.4811 6.8418 14.737 6.8418H5.26336Z" fill="white"/>
<path fill-rule="evenodd" clip-rule="evenodd" d="M8.42172 5.26336V14.737C8.42172 15.6091 9.12866 16.316 10.0007 16.316C10.8727 16.316 11.5796 15.6091 11.5796 14.737V5.26336C11.5796 4.39134 10.8727 3.68442 10.0007 3.68442C9.12866 3.68442 8.42172 4.39134 8.42172 5.26336ZM6.84277 14.737C6.84277 16.4811 8.25661 17.8949 10.0007 17.8949C11.7447 17.8949 13.1586 16.4811 13.1586 14.737V5.26336C13.1586 3.51931 11.7447 2.10547 10.0007 2.10547C8.25661 2.10547 6.84277 3.51931 6.84277 5.26336V14.737Z" fill="white"/>
</svg>
