<svg width="20" height="20" viewBox="0 0 20 20" fill="none" xmlns="http://www.w3.org/2000/svg">
<path d="M15.5212 11.1852C15.5208 11.1851 10.2199 9.9864 10.2199 9.9864C8.6399 9.62909 7.64875 8.05944 8.0062 6.48045C8.36386 4.90146 9.93463 3.91122 11.5146 4.26842C13.0948 4.62574 14.0858 6.19537 13.7283 7.77426C13.5492 8.56478 13.066 9.20716 12.4297 9.60735C12.4297 9.60735 12.4281 9.60865 12.4275 9.60896C12.4088 9.62238 12.3967 9.64423 12.3967 9.66881C12.3967 9.70324 12.4205 9.73219 12.4526 9.73992C12.4526 9.73992 14.8108 10.2729 14.8112 10.2729C14.8673 10.2856 14.9256 10.264 14.96 10.2184C15.6097 9.35944 16 8.28751 16 7.12821C16 4.39807 13.8655 2.16692 11.1731 2.00845C11.1492 2.00712 11.0032 2.00143 10.954 2.00073C9.76189 1.98202 8.55326 2.32359 7.50223 3.05913C4.848 4.91628 4.20313 8.57178 6.0614 11.224L10.7776 17.9548C10.7978 17.9822 10.8302 18 10.8666 18C10.9033 18 10.9358 17.9819 10.9559 17.9543C10.9559 17.9543 15.5871 11.3544 15.5875 11.3538C15.5993 11.3363 15.6063 11.3151 15.6063 11.2923C15.6063 11.2401 15.57 11.1964 15.5212 11.1852Z" fill="#FABC26"/>
</svg>
