<svg width="16" height="16" viewBox="0 0 16 16" fill="none" xmlns="http://www.w3.org/2000/svg">
<g clip-path="url(#clip0_449_23477)">
<path d="M8 0C6.41775 0 4.87103 0.469192 3.55544 1.34824C2.23985 2.22729 1.21447 3.47672 0.608967 4.93853C0.00346628 6.40034 -0.15496 8.00887 0.153721 9.56072C0.462403 11.1126 1.22433 12.538 2.34315 13.6569C3.46197 14.7757 4.88743 15.5376 6.43928 15.8463C7.99113 16.155 9.59966 15.9965 11.0615 15.391C12.5233 14.7855 13.7727 13.7602 14.6518 12.4446C15.5308 11.129 16 9.58225 16 8C15.9976 5.87902 15.1539 3.8456 13.6542 2.34584C12.1544 0.846082 10.121 0.00244306 8 0ZM8 3.69231C8.12171 3.69231 8.24069 3.7284 8.34189 3.79602C8.44309 3.86364 8.52197 3.95975 8.56854 4.07219C8.61512 4.18464 8.62731 4.30837 8.60356 4.42775C8.57982 4.54712 8.52121 4.65677 8.43514 4.74283C8.34908 4.8289 8.23943 4.88751 8.12006 4.91125C8.00068 4.935 7.87695 4.92281 7.7645 4.87623C7.65206 4.82966 7.55595 4.75078 7.48833 4.64958C7.42071 4.54838 7.38462 4.4294 7.38462 4.30769C7.38462 4.14448 7.44945 3.98796 7.56486 3.87255C7.68027 3.75714 7.83679 3.69231 8 3.69231ZM9.23077 6.76923H8.61539V11.0769H9.23077V12.3077H6.76923V11.0769H7.38462V6.76923H6.76923V5.53846H9.23077V6.76923Z" fill="#F05F79"/>
</g>
<defs>
<clipPath id="clip0_449_23477">
<rect width="16" height="16" fill="white"/>
</clipPath>
</defs>
</svg>
