<svg width="52" height="24" viewBox="0 0 52 24" fill="none" xmlns="http://www.w3.org/2000/svg">
<path d="M5.66602 17.1998C5.60009 17.1998 5.53564 17.1763 5.48083 17.1324C5.42601 17.0884 5.38328 17.026 5.35806 16.9529C5.33283 16.8798 5.32623 16.7994 5.33909 16.7218C5.35195 16.6442 5.3837 16.5729 5.43031 16.517C5.47693 16.461 5.53633 16.4229 5.60099 16.4075C5.66565 16.3921 5.73267 16.4 5.79358 16.4303C5.85449 16.4605 5.90655 16.5118 5.94317 16.5776C5.9798 16.6434 5.99935 16.7207 5.99935 16.7998C5.99935 16.9059 6.03447 17.0076 6.09698 17.0826C6.15949 17.1577 6.24428 17.1998 6.33268 17.1998C6.42109 17.1998 6.50587 17.1577 6.56838 17.0826C6.6309 17.0076 6.66602 16.9059 6.66602 16.7998C6.66516 16.5525 6.60065 16.3116 6.48132 16.1099C6.36199 15.9083 6.19365 15.7558 5.99935 15.6734V15.1998C5.99935 15.0937 5.96423 14.992 5.90172 14.917C5.83921 14.8419 5.75442 14.7998 5.66602 14.7998C5.57761 14.7998 5.49283 14.8419 5.43031 14.917C5.3678 14.992 5.33268 15.0937 5.33268 15.1998V15.6734C5.11046 15.7673 4.9231 15.9526 4.8038 16.1964C4.6845 16.4402 4.64096 16.7268 4.68089 17.0055C4.72081 17.2841 4.84163 17.5368 5.02193 17.7188C5.20224 17.9008 5.43041 18.0003 5.66602 17.9998C5.73194 17.9998 5.79639 18.0233 5.85121 18.0672C5.90602 18.1112 5.94875 18.1736 5.97398 18.2467C5.9992 18.3198 6.00581 18.4002 5.99294 18.4778C5.98008 18.5554 5.94834 18.6267 5.90172 18.6826C5.8551 18.7386 5.79571 18.7767 5.73105 18.7921C5.66639 18.8076 5.59936 18.7996 5.53845 18.7694C5.47755 18.7391 5.42549 18.6878 5.38886 18.622C5.35223 18.5563 5.33268 18.4789 5.33268 18.3998C5.33268 18.2937 5.29756 18.192 5.23505 18.117C5.17254 18.0419 5.08775 17.9998 4.99935 17.9998C4.91094 17.9998 4.82616 18.0419 4.76365 18.117C4.70113 18.192 4.66602 18.2937 4.66602 18.3998C4.66687 18.6471 4.73138 18.8881 4.85071 19.0897C4.97005 19.2913 5.13838 19.4438 5.33268 19.5262V19.9998C5.33268 20.1059 5.3678 20.2076 5.43031 20.2826C5.49283 20.3577 5.57761 20.3998 5.66602 20.3998C5.75442 20.3998 5.83921 20.3577 5.90172 20.2826C5.96423 20.2076 5.99935 20.1059 5.99935 19.9998V19.5262C6.22158 19.4323 6.40893 19.247 6.52823 19.0032C6.64753 18.7594 6.69107 18.4728 6.65114 18.1941C6.61122 17.9155 6.4904 17.6628 6.3101 17.4808C6.12979 17.2988 5.90162 17.1993 5.66602 17.1998Z" fill="#373843"/>
<path d="M14 13.5998V12.7998C14 12.4815 13.8946 12.1763 13.7071 11.9513C13.5196 11.7262 13.2652 11.5998 13 11.5998H12.9387C12.9781 11.4717 12.9989 11.3364 13 11.1998V10.3998C12.9996 10.2467 12.9747 10.0952 12.9267 9.95341C13.1383 9.88502 13.3254 9.73508 13.4591 9.52664C13.5928 9.31821 13.6657 9.06284 13.6667 8.7998V7.9998C13.6667 7.68154 13.5613 7.37632 13.3738 7.15128C13.1862 6.92623 12.9319 6.7998 12.6667 6.7998H7.33333C7.06812 6.7998 6.81376 6.92623 6.62623 7.15128C6.43869 7.37632 6.33333 7.68154 6.33333 7.9998V8.7998C6.3337 8.95287 6.3586 9.10442 6.40667 9.2462C6.19501 9.31459 6.00794 9.46453 5.87424 9.67297C5.74053 9.8814 5.6676 10.1368 5.66667 10.3998V11.1998C5.66667 11.5181 5.77202 11.8233 5.95956 12.0483C6.1471 12.2734 6.40145 12.3998 6.66667 12.3998H6.728C6.68852 12.5279 6.66777 12.6632 6.66667 12.7998V13.1998H5.66667C4.69421 13.1998 3.76158 13.6634 3.07394 14.4885C2.38631 15.3137 2 16.4329 2 17.5998C2 18.7668 2.38631 19.8859 3.07394 20.7111C3.76158 21.5362 4.69421 21.9998 5.66667 21.9998H12.6667C12.9319 21.9998 13.1862 21.8734 13.3738 21.6483C13.5613 21.4233 13.6667 21.1181 13.6667 20.7998V19.9998C13.6657 19.7931 13.6197 19.5903 13.5333 19.4114C13.676 19.3038 13.7935 19.1545 13.8751 18.9777C13.9567 18.8008 13.9997 18.602 14 18.3998V17.5998C13.9997 17.3976 13.9567 17.1988 13.8751 17.0219C13.7935 16.8451 13.676 16.6958 13.5333 16.5882C13.6197 16.4094 13.6657 16.2065 13.6667 15.9998V15.1998C13.6657 14.9931 13.6197 14.7903 13.5333 14.6114C13.676 14.5038 13.7935 14.3545 13.8751 14.1777C13.9567 14.0008 13.9997 13.802 14 13.5998ZM7 7.9998C7 7.89372 7.03512 7.79198 7.09763 7.71696C7.16014 7.64195 7.24493 7.5998 7.33333 7.5998H12.6667C12.7551 7.5998 12.8399 7.64195 12.9024 7.71696C12.9649 7.79198 13 7.89372 13 7.9998V8.7998C13 8.90589 12.9649 9.00763 12.9024 9.08265C12.8399 9.15766 12.7551 9.1998 12.6667 9.1998H7.33333C7.24493 9.1998 7.16014 9.15766 7.09763 9.08265C7.03512 9.00763 7 8.90589 7 8.7998V7.9998ZM6.66667 11.5998C6.57826 11.5998 6.49348 11.5577 6.43096 11.4826C6.36845 11.4076 6.33333 11.3059 6.33333 11.1998V10.3998C6.33333 10.2937 6.36845 10.192 6.43096 10.117C6.49348 10.0419 6.57826 9.9998 6.66667 9.9998H12C12.0884 9.9998 12.1732 10.0419 12.2357 10.117C12.2982 10.192 12.3333 10.2937 12.3333 10.3998V11.1998C12.3333 11.3059 12.2982 11.4076 12.2357 11.4826C12.1732 11.5577 12.0884 11.5998 12 11.5998H6.66667ZM5.66667 21.1998C5.07332 21.1998 4.4933 20.9887 3.99996 20.5931C3.50661 20.1975 3.12209 19.6353 2.89503 18.9775C2.66797 18.3197 2.60856 17.5958 2.72431 16.8975C2.84007 16.1991 3.12579 15.5577 3.54535 15.0542C3.9649 14.5508 4.49945 14.2079 5.0814 14.069C5.66334 13.9301 6.26654 14.0014 6.81472 14.2738C7.3629 14.5463 7.83143 15.0077 8.16108 15.5998C8.49072 16.1918 8.66667 16.8878 8.66667 17.5998C8.66578 18.5543 8.34943 19.4693 7.78701 20.1442C7.2246 20.8191 6.46205 21.1987 5.66667 21.1998ZM9.82633 14.7998H12.6667C12.7551 14.7998 12.8399 14.8419 12.9024 14.917C12.9649 14.992 13 15.0937 13 15.1998V15.9998C13 16.1059 12.9649 16.2076 12.9024 16.2826C12.8399 16.3577 12.7551 16.3998 12.6667 16.3998H10.5247C10.3866 15.8143 10.1488 15.2695 9.82633 14.7998ZM10 17.5998C9.99892 18.3429 9.80637 19.0675 9.44874 19.6741C9.09111 20.2808 8.5859 20.7399 8.00233 20.9886C8.41862 20.5764 8.75382 20.0588 8.98392 19.473C9.21402 18.8871 9.33335 18.2475 9.33335 17.5998C9.33335 16.9521 9.21402 16.3125 8.98392 15.7266C8.75382 15.1408 8.41862 14.6232 8.00233 14.211C8.5859 14.4597 9.09111 14.9188 9.44874 15.5255C9.80637 16.1321 9.99892 16.8567 10 17.5998ZM13 20.7998C13 20.9059 12.9649 21.0076 12.9024 21.0826C12.8399 21.1577 12.7551 21.1998 12.6667 21.1998H9.10167C9.59081 20.7872 9.98903 20.2381 10.262 19.5998H12.6667C12.7551 19.5998 12.8399 19.6419 12.9024 19.717C12.9649 19.792 13 19.8937 13 19.9998V20.7998ZM13.3333 18.3998C13.3333 18.5059 13.2982 18.6076 13.2357 18.6826C13.1732 18.7577 13.0884 18.7998 13 18.7998H10.5247C10.618 18.4096 10.6658 18.0058 10.6667 17.5998C10.6667 17.4646 10.6597 17.3318 10.6497 17.1998H13C13.0884 17.1998 13.1732 17.2419 13.2357 17.317C13.2982 17.392 13.3333 17.4937 13.3333 17.5998V18.3998ZM13.3333 13.5998C13.3333 13.7059 13.2982 13.8076 13.2357 13.8826C13.1732 13.9577 13.0884 13.9998 13 13.9998H9.10167C8.57938 13.5584 7.96954 13.2895 7.33333 13.2202V12.7998C7.33333 12.6937 7.36845 12.592 7.43096 12.517C7.49348 12.4419 7.57826 12.3998 7.66667 12.3998H13C13.0884 12.3998 13.1732 12.4419 13.2357 12.517C13.2982 12.592 13.3333 12.6937 13.3333 12.7998V13.5998Z" fill="#373843"/>
<path d="M22 3.2C22 2.88174 21.8946 2.57652 21.7071 2.35147C21.5196 2.12643 21.2652 2 21 2H15.6667C15.4015 2 15.1471 2.12643 14.9596 2.35147C14.772 2.57652 14.6667 2.88174 14.6667 3.2V4C14.6675 4.29616 14.7602 4.58133 14.9267 4.8C14.7602 5.01867 14.6675 5.30384 14.6667 5.6V6.4C14.6676 6.60672 14.7136 6.80955 14.8 6.9884C14.6574 7.09604 14.5398 7.24526 14.4582 7.42214C14.3766 7.59903 14.3336 7.79782 14.3333 8V8.8C14.3342 9.09616 14.4269 9.38133 14.5933 9.6C14.4269 9.81867 14.3342 10.1038 14.3333 10.4V11.2C14.3336 11.4022 14.3766 11.601 14.4582 11.7779C14.5398 11.9547 14.6574 12.104 14.8 12.2116C14.7136 12.3905 14.6676 12.5933 14.6667 12.8V13.6C14.6676 13.8067 14.7136 14.0095 14.8 14.1884C14.6574 14.296 14.5398 14.4453 14.4582 14.6221C14.3766 14.799 14.3336 14.9978 14.3333 15.2V16C14.3336 16.2022 14.3766 16.401 14.4582 16.5779C14.5398 16.7547 14.6574 16.904 14.8 17.0116C14.7136 17.1905 14.6676 17.3933 14.6667 17.6V18.4C14.667 18.5531 14.6919 18.7046 14.74 18.8464C14.5283 18.9148 14.3413 19.0647 14.2076 19.2732C14.0739 19.4816 14.0009 19.737 14 20V20.8C14 21.1183 14.1054 21.4235 14.2929 21.6485C14.4804 21.8736 14.7348 22 15 22H20.3333C20.5985 22 20.8529 21.8736 21.0404 21.6485C21.228 21.4235 21.3333 21.1183 21.3333 20.8V20C21.333 19.8469 21.3081 19.6954 21.26 19.5536C21.4717 19.4852 21.6587 19.3353 21.7924 19.1268C21.9261 18.9184 21.9991 18.663 22 18.4V17.6C21.9997 17.3978 21.9567 17.199 21.8751 17.0221C21.7935 16.8453 21.676 16.696 21.5333 16.5884C21.6197 16.4095 21.6657 16.2067 21.6667 16V15.2C21.6657 14.9933 21.6197 14.7905 21.5333 14.6116C21.676 14.504 21.7935 14.3547 21.8751 14.1779C21.9567 14.001 21.9997 13.8022 22 13.6V12.8C21.9997 12.5978 21.9567 12.399 21.8751 12.2221C21.7935 12.0453 21.676 11.896 21.5333 11.7884C21.6197 11.6095 21.6657 11.4067 21.6667 11.2V10.4C21.6658 10.1038 21.5731 9.81867 21.4067 9.6C21.5731 9.38133 21.6658 9.09616 21.6667 8.8V8C21.6657 7.79328 21.6197 7.59045 21.5333 7.4116C21.676 7.30396 21.7935 7.15474 21.8751 6.97786C21.9567 6.80097 21.9997 6.60218 22 6.4V5.6C21.9991 5.30384 21.9065 5.01867 21.74 4.8C21.9065 4.58133 21.9991 4.29616 22 4V3.2ZM15.3333 3.2C15.3333 3.09391 15.3685 2.99217 15.431 2.91716C15.4935 2.84214 15.5783 2.8 15.6667 2.8H21C21.0884 2.8 21.1732 2.84214 21.2357 2.91716C21.2982 2.99217 21.3333 3.09391 21.3333 3.2V4C21.3333 4.10609 21.2982 4.20783 21.2357 4.28284C21.1732 4.35786 21.0884 4.4 21 4.4H15.6667C15.5783 4.4 15.4935 4.35786 15.431 4.28284C15.3685 4.20783 15.3333 4.10609 15.3333 4V3.2ZM21.3333 5.6V6.4C21.3333 6.50609 21.2982 6.60783 21.2357 6.68284C21.1732 6.75786 21.0884 6.8 21 6.8H15.6667C15.5783 6.8 15.4935 6.75786 15.431 6.68284C15.3685 6.60783 15.3333 6.50609 15.3333 6.4V5.6C15.3333 5.49391 15.3685 5.39217 15.431 5.31716C15.4935 5.24214 15.5783 5.2 15.6667 5.2H21C21.0884 5.2 21.1732 5.24214 21.2357 5.31716C21.2982 5.39217 21.3333 5.49391 21.3333 5.6ZM21 8V8.8C21 8.90609 20.9649 9.00783 20.9024 9.08284C20.8399 9.15786 20.7551 9.2 20.6667 9.2H15.3333C15.2449 9.2 15.1601 9.15786 15.0976 9.08284C15.0351 9.00783 15 8.90609 15 8.8V8C15 7.89391 15.0351 7.79217 15.0976 7.71716C15.1601 7.64214 15.2449 7.6 15.3333 7.6H20.6667C20.7551 7.6 20.8399 7.64214 20.9024 7.71716C20.9649 7.79217 21 7.89391 21 8ZM21 10.4V11.2C21 11.3061 20.9649 11.4078 20.9024 11.4828C20.8399 11.5579 20.7551 11.6 20.6667 11.6H15.3333C15.2449 11.6 15.1601 11.5579 15.0976 11.4828C15.0351 11.4078 15 11.3061 15 11.2V10.4C15 10.2939 15.0351 10.1922 15.0976 10.1172C15.1601 10.0421 15.2449 10 15.3333 10H20.6667C20.7551 10 20.8399 10.0421 20.9024 10.1172C20.9649 10.1922 21 10.2939 21 10.4ZM21 12.4C21.0884 12.4 21.1732 12.4421 21.2357 12.5172C21.2982 12.5922 21.3333 12.6939 21.3333 12.8V13.6C21.3333 13.7061 21.2982 13.8078 21.2357 13.8828C21.1732 13.9579 21.0884 14 21 14H15.6667C15.5783 14 15.4935 13.9579 15.431 13.8828C15.3685 13.8078 15.3333 13.7061 15.3333 13.6V12.8C15.3333 12.6939 15.3685 12.5922 15.431 12.5172C15.4935 12.4421 15.5783 12.4 15.6667 12.4H21ZM21 15.2V16C21 16.1061 20.9649 16.2078 20.9024 16.2828C20.8399 16.3579 20.7551 16.4 20.6667 16.4H15.3333C15.2449 16.4 15.1601 16.3579 15.0976 16.2828C15.0351 16.2078 15 16.1061 15 16V15.2C15 15.0939 15.0351 14.9922 15.0976 14.9172C15.1601 14.8421 15.2449 14.8 15.3333 14.8H20.6667C20.7551 14.8 20.8399 14.8421 20.9024 14.9172C20.9649 14.9922 21 15.0939 21 15.2ZM20.6667 20.8C20.6667 20.9061 20.6315 21.0078 20.569 21.0828C20.5065 21.1579 20.4217 21.2 20.3333 21.2H15C14.9116 21.2 14.8268 21.1579 14.7643 21.0828C14.7018 21.0078 14.6667 20.9061 14.6667 20.8V20C14.6667 19.8939 14.7018 19.7922 14.7643 19.7172C14.8268 19.6421 14.9116 19.6 15 19.6H20.3333C20.4217 19.6 20.5065 19.6421 20.569 19.7172C20.6315 19.7922 20.6667 19.8939 20.6667 20V20.8ZM21.3333 18.4C21.3333 18.5061 21.2982 18.6078 21.2357 18.6828C21.1732 18.7579 21.0884 18.8 21 18.8H15.6667C15.5783 18.8 15.4935 18.7579 15.431 18.6828C15.3685 18.6078 15.3333 18.5061 15.3333 18.4V17.6C15.3333 17.4939 15.3685 17.3922 15.431 17.3172C15.4935 17.2421 15.5783 17.2 15.6667 17.2H21C21.0884 17.2 21.1732 17.2421 21.2357 17.3172C21.2982 17.3922 21.3333 17.4939 21.3333 17.6V18.4Z" fill="#373843"/>
<path d="M49.6446 5.70818C49.3854 5.40185 49.0225 5.21474 48.6227 5.18134L34.5385 4.00533C34.1385 3.97193 33.7497 4.09627 33.4433 4.35537C33.1382 4.61345 32.9514 4.97451 32.9169 5.37243L32.6336 8.03086H31.5021C30.6739 8.03086 30 8.70472 30 9.533V18.3494C30 19.1777 30.6739 19.8516 31.5021 19.8516H45.6354C46.4637 19.8516 47.1376 19.1777 47.1376 18.3494V16.9193L47.6391 16.9611C47.6814 16.9647 47.7235 16.9664 47.7652 16.9664C48.5374 16.9664 49.1957 16.3723 49.261 15.5892L49.9947 6.80333C50.028 6.40345 49.9037 6.01454 49.6446 5.70818ZM31.5021 8.81211H45.6354C46.0329 8.81211 46.3563 9.1355 46.3563 9.533V10.3364H30.7812V9.533C30.7812 9.1355 31.1046 8.81211 31.5021 8.81211ZM30.7812 11.1176H46.3563V12.7383H30.7812V11.1176ZM45.6354 19.0703H31.5021C31.1046 19.0703 30.7812 18.7469 30.7812 18.3494V13.5195H46.3563V18.3494C46.3563 18.7469 46.0329 19.0703 45.6354 19.0703ZM49.2161 6.73829L48.4825 15.5241C48.4494 15.9203 48.1002 16.2158 47.7041 16.1826L47.1376 16.1353V9.533C47.1376 8.70472 46.4637 8.03086 45.6354 8.03086H33.4193L33.6942 5.45118C33.6946 5.44822 33.6948 5.44529 33.6951 5.44228C33.7281 5.04615 34.0772 4.75068 34.4735 4.78388L48.5577 5.95989C48.7496 5.97591 48.9238 6.06571 49.0481 6.21274C49.1725 6.35977 49.2321 6.54638 49.2161 6.73829Z" fill="#373843"/>
<path d="M44.7214 14.6807H40.9619C40.7462 14.6807 40.5713 14.8555 40.5713 15.0713V17.524C40.5713 17.7397 40.7462 17.9146 40.9619 17.9146H44.7214C44.9371 17.9146 45.112 17.7397 45.112 17.524V15.0713C45.112 14.8555 44.9371 14.6807 44.7214 14.6807ZM44.3307 17.1334H41.3525V15.4619H44.3307V17.1334Z" fill="#373843"/>
</svg>
