<svg width="84" height="24" viewBox="0 0 84 24" fill="none" xmlns="http://www.w3.org/2000/svg">
<path d="M11.3666 7.55169C11.6957 7.1285 11.9308 6.56425 11.8603 6C11.3666 6.02351 10.7788 6.32915 10.4261 6.72882C10.1205 7.08148 9.83838 7.66924 9.90891 8.20998C10.4732 8.28052 11.0139 7.97488 11.3666 7.55169ZM11.8603 8.35105C11.0609 8.30403 10.3791 8.79775 10.003 8.79775C9.62679 8.79775 9.03902 8.37456 8.40424 8.37456C7.58138 8.39807 6.82904 8.84477 6.40585 9.5971C5.55947 11.0783 6.17075 13.2647 7.01712 14.4638C7.4168 15.0515 7.91052 15.7098 8.5453 15.6863C9.15658 15.6628 9.39168 15.2866 10.1205 15.2866C10.8493 15.2866 11.0609 15.6863 11.7192 15.6628C12.3775 15.6393 12.8007 15.075 13.2004 14.4638C13.6706 13.782 13.8587 13.1237 13.8587 13.1002C13.8352 13.0767 12.5656 12.6064 12.5656 11.1488C12.5421 9.92625 13.553 9.33849 13.6001 9.31498C13.0593 8.4686 12.1659 8.37456 11.8603 8.35105Z" fill="black"/>
<path d="M18.483 6.68164C20.2228 6.68164 21.4218 7.88067 21.4218 9.59694C21.4218 11.3367 20.1993 12.5357 18.436 12.5357H16.5316V15.5686H15.1445V6.68164H18.483ZM16.5316 11.3837H18.1069C19.3059 11.3837 19.9877 10.7254 19.9877 9.62045C19.9877 8.49195 19.3059 7.85716 18.1069 7.85716H16.5081V11.3837H16.5316ZM21.7745 13.7583C21.7745 12.6298 22.6444 11.9245 24.1961 11.8304L25.9829 11.7364V11.2427C25.9829 10.5138 25.4891 10.0907 24.6898 10.0907C23.9139 10.0907 23.4437 10.4668 23.3262 11.0311H22.0566C22.1271 9.85555 23.1381 8.98567 24.7368 8.98567C26.312 8.98567 27.323 9.80853 27.323 11.1251V15.5921H26.0534V14.5341H26.0299C25.6537 15.263 24.8308 15.7097 23.9845 15.7097C22.6679 15.7097 21.7745 14.9103 21.7745 13.7583ZM25.9829 13.1705V12.6533L24.3841 12.7473C23.5848 12.7944 23.1381 13.147 23.1381 13.7113C23.1381 14.2755 23.6083 14.6517 24.3136 14.6517C25.254 14.6517 25.9829 14.0169 25.9829 13.1705ZM28.4985 17.9902V16.9087C28.5925 16.9322 28.8276 16.9322 28.9217 16.9322C29.5329 16.9322 29.8621 16.6736 30.0737 16.0153C30.0737 15.9918 30.1912 15.6156 30.1912 15.6156L27.8402 9.12673H29.2743L30.9201 14.4166H30.9436L32.5893 9.12673H33.9999L31.5784 15.9683C31.0141 17.5435 30.3793 18.0372 29.0392 18.0372C28.9452 18.0137 28.616 18.0137 28.4985 17.9902Z" fill="black"/>
<rect x="0.5" y="0.5" width="39" height="23" rx="1.5" stroke="#ECECEC"/>
<path d="M63.2429 12.4331V15.6953H62.209V7.64256H64.951C65.6125 7.62972 66.2482 7.88016 66.7298 8.34252C67.2115 8.77277 67.4812 9.39567 67.4683 10.0378C67.4812 10.6864 67.2115 11.3093 66.7298 11.746C66.2482 12.2019 65.6574 12.4331 64.9575 12.4331H63.2429ZM63.2429 8.63149V11.4442H64.9767C65.362 11.457 65.7345 11.3029 65.9978 11.0268C66.5436 10.5002 66.55 9.63327 66.0234 9.08743L65.9978 9.06175C65.7345 8.77919 65.362 8.62507 64.9767 8.63792L63.2429 8.63149ZM69.8507 10.0057C70.6149 10.0057 71.2186 10.2112 71.6617 10.6158C72.1047 11.0268 72.3231 11.5855 72.3231 12.2983V15.6889H71.3342V14.9247H71.2892C70.8589 15.554 70.2938 15.8687 69.581 15.8687C68.9774 15.8687 68.4637 15.6889 68.0591 15.3293C67.661 14.9954 67.4362 14.5009 67.4491 13.9807C67.4491 13.4092 67.6674 12.9597 68.0976 12.6193C68.5279 12.279 69.1058 12.112 69.8251 12.112C70.4415 12.112 70.9424 12.2276 71.3406 12.446V12.2084C71.3406 11.8552 71.1865 11.5212 70.9167 11.2965C70.6406 11.0525 70.2874 10.9176 69.9214 10.9176C69.3434 10.9176 68.8875 11.1616 68.5472 11.6497L67.6353 11.0781C68.1297 10.3653 68.8682 10.0057 69.8507 10.0057ZM68.515 14.0064C68.515 14.2761 68.6435 14.5266 68.8554 14.6807C69.0866 14.8605 69.3691 14.9568 69.6581 14.9504C70.0948 14.9504 70.5122 14.777 70.8204 14.4688C71.1608 14.1477 71.3342 13.7688 71.3342 13.3321C71.0131 13.0753 70.5636 12.9468 69.9856 12.9468C69.5682 12.9468 69.215 13.0496 68.9325 13.2487C68.6563 13.4542 68.515 13.7046 68.515 14.0064ZM77.9998 10.1855L74.545 18.1227H73.479L74.7633 15.3485L72.49 10.192H73.6138L75.2514 14.1477H75.277L76.876 10.192L77.9998 10.1855Z" fill="#5F6368"/>
<path d="M59.0624 11.7266C59.0624 11.412 59.0367 11.0973 58.9853 10.7891H54.625V12.5679H57.123C57.0203 13.1394 56.6864 13.6531 56.1983 13.9742V15.1301H57.6881C58.5615 14.3274 59.0624 13.1394 59.0624 11.7266Z" fill="#4285F4"/>
<path d="M54.6252 16.2477C55.871 16.2477 56.9242 15.8367 57.6883 15.1303L56.1985 13.9744C55.7811 14.2569 55.2481 14.4175 54.6252 14.4175C53.4179 14.4175 52.3969 13.6019 52.0309 12.5103H50.4961V13.7047C51.2795 15.2587 52.8785 16.2477 54.6252 16.2477Z" fill="#34A853"/>
<path d="M52.0308 12.5102C51.8382 11.9387 51.8382 11.3158 52.0308 10.7378V9.5498H50.4961C50.17 10.1926 50 10.9032 50 11.624C50 12.3448 50.17 13.0554 50.4961 13.6982L52.0308 12.5102Z" fill="#FBBC04"/>
<path d="M54.6252 8.83045C55.2866 8.81761 55.9224 9.06805 56.3976 9.52399L57.714 8.20755C56.8792 7.41769 55.7747 6.98744 54.6252 7.00028C52.8785 7.00028 51.2795 7.98921 50.4961 9.54967L52.0309 10.7441C52.3969 9.646 53.4179 8.83045 54.6252 8.83045Z" fill="#EA4335"/>
<rect x="44.5" y="0.5" width="39" height="23" rx="1.5" stroke="#ECECEC"/>
</svg>
