<svg width="16" height="16" viewBox="0 0 16 16" fill="none" xmlns="http://www.w3.org/2000/svg">
<g clip-path="url(#clip0_449_23483)">
<path d="M15.7855 2.87302C15.5981 2.78156 15.3705 2.85964 15.279 3.04928L14.9087 3.81229L14.6119 3.6695L15.0024 2.86631C15.0024 2.86409 15.0046 2.86187 15.0046 2.8596C15.0068 2.85516 15.009 2.84844 15.0113 2.844C15.0715 2.69454 15.1407 2.51827 15.1653 2.3197C15.2411 1.72847 15.0158 1.10377 14.5606 0.646398C14.1278 0.21134 13.4652 -0.0340777 12.836 0.00383301C12.7044 0.012766 12.5638 0.037299 12.4188 0.079698C12.189 0.14663 11.9637 0.262628 11.7517 0.425514C11.6 0.541512 11.388 0.740085 11.243 1.01897C11.243 1.02119 11.2408 1.02341 11.2408 1.02568C11.2408 1.02795 11.2386 1.03012 11.2386 1.03012L9.85532 3.88367C9.84861 3.89482 9.84194 3.90598 9.83523 3.91936C9.82852 3.93051 9.82407 3.94389 9.81963 3.95727L6.2365 11.3421C6.18294 11.4537 6.15619 11.5786 6.16063 11.7036V11.7058L6.24094 14.0863C6.24987 14.3184 6.3369 14.5348 6.48191 14.7043L6.26996 15.1327C6.17628 15.3201 6.25436 15.5476 6.44174 15.6414C6.49529 15.6681 6.55329 15.6815 6.60907 15.6815C6.74964 15.6815 6.88351 15.6034 6.95044 15.4696L7.15568 15.0524C7.18692 15.0546 7.2159 15.0568 7.24715 15.0568C7.45687 15.0568 7.66434 14.9921 7.83838 14.8627L9.76154 13.4527C9.80172 13.4237 9.83963 13.388 9.8731 13.3523C9.87981 13.3456 9.88425 13.339 9.89096 13.3322C9.93336 13.2832 9.96905 13.2274 9.99807 13.1694L14.2795 4.34993L14.5762 4.49272L12.6687 8.42163C12.5772 8.60905 12.6553 8.8366 12.8449 8.92806C12.8985 8.95482 12.9543 8.96597 13.0101 8.96597C13.1506 8.96597 13.2867 8.88789 13.3514 8.7518L15.3996 4.53286C15.4107 4.51726 15.4219 4.49939 15.4308 4.48153C15.4397 4.46366 15.4442 4.44806 15.4509 4.43019L15.9618 3.37715C16.0532 3.19204 15.9729 2.96449 15.7855 2.87302ZM7.38776 14.2537C7.31861 14.3028 7.23159 14.3139 7.1535 14.2849C7.14235 14.2782 7.13119 14.2716 7.11781 14.2648C7.1111 14.2626 7.10666 14.2604 7.09995 14.2581C7.03524 14.2135 6.9951 14.1421 6.99284 14.0641L6.93928 12.5135C7.44127 12.9039 8.01913 13.185 8.6349 13.3412L7.38776 14.2537ZM9.3823 12.6987C8.46979 12.6094 7.61754 12.1944 6.98391 11.5296L10.3484 4.59539L12.7512 5.75777L9.3823 12.6987ZM14.4111 2.22379C14.3978 2.32863 14.3554 2.44019 14.313 2.54507L13.0859 5.07289L10.6808 3.91051L11.9123 1.37154C11.9792 1.24883 12.0841 1.12612 12.2135 1.02795C12.3474 0.925325 12.4902 0.84946 12.6262 0.809283C12.7177 0.782528 12.8047 0.766884 12.8784 0.76244C13.2911 0.737907 13.7396 0.903014 14.0207 1.18412C14.3063 1.46967 14.4558 1.86904 14.4111 2.22379Z" fill="#E60023"/>
<path d="M5.0813 15.0013C4.98535 14.9991 4.87379 15.0013 4.75779 15.0013C4.15096 15.008 3.01978 15.0192 2.65837 14.6153C2.59588 14.5462 2.51557 14.4213 2.54459 14.1624C2.62939 13.4329 3.03987 12.6654 3.40133 11.9894L3.46155 11.8756C3.57982 11.6547 3.70253 11.4316 3.82297 11.213C4.16878 10.5883 4.52575 9.94126 4.80908 9.26078C5.01881 8.75879 5.13481 8.28582 5.1549 7.85965C5.18165 7.28851 5.0389 6.79096 4.731 6.38044C4.36287 5.88738 3.82519 5.52592 3.08894 5.27161C2.47762 5.05966 1.80385 4.95033 1.2104 4.85216C0.942668 4.80753 0.688318 4.76736 0.454056 4.71829C0.248815 4.67589 0.0480187 4.80976 0.00784207 5.01504C-0.0345569 5.22028 0.0993071 5.42108 0.304592 5.46125C0.554454 5.51259 0.815515 5.55494 1.08991 5.59956C2.2166 5.78476 3.49502 5.99222 4.12416 6.83336C4.49673 7.33091 4.49229 8.04929 4.10856 8.96848C3.84083 9.61104 3.49502 10.238 3.15814 10.8448C3.03765 11.0635 2.91272 11.291 2.79223 11.5163L2.73201 11.6279C2.33713 12.3641 1.89092 13.1986 1.79052 14.0709C1.74145 14.4881 1.84407 14.8406 2.09393 15.1195C2.61824 15.7018 3.65568 15.7598 4.46109 15.7598C4.56593 15.7598 4.6686 15.7598 4.7645 15.7576C4.87828 15.7576 4.98317 15.7554 5.07241 15.7576C5.07463 15.7576 5.07463 15.7576 5.07685 15.7576C5.28436 15.7576 5.45391 15.5903 5.45614 15.3828C5.45836 15.1776 5.29099 15.0036 5.0813 15.0013Z" fill="#E60023"/>
</g>
<defs>
<clipPath id="clip0_449_23483">
<rect width="16" height="16" fill="white"/>
</clipPath>
</defs>
</svg>
