<svg width="24" height="24" viewBox="0 0 24 24" fill="none" xmlns="http://www.w3.org/2000/svg">
<path d="M12.5 2C8.36375 2 5 5.36375 5 9.5C5 14.6987 11.77 21.5287 12.0575 21.8175C12.18 21.9387 12.34 22 12.5 22C12.66 22 12.82 21.9387 12.9425 21.8175C13.23 21.5287 20 14.6987 20 9.5C20 5.36375 16.6362 2 12.5 2ZM12.5 20.4713C11.0075 18.8738 6.25 13.4713 6.25 9.5C6.25 6.05375 9.05375 3.25 12.5 3.25C15.9462 3.25 18.75 6.05375 18.75 9.5C18.75 13.4675 13.9925 18.8738 12.5 20.4713Z" fill="#00A950"/>
<path d="M12.5 5.75C10.4325 5.75 8.75 7.4325 8.75 9.5C8.75 11.5675 10.4325 13.25 12.5 13.25C14.5675 13.25 16.25 11.5675 16.25 9.5C16.25 7.4325 14.5675 5.75 12.5 5.75ZM12.5 12C11.1212 12 10 10.8787 10 9.5C10 8.12125 11.1212 7 12.5 7C13.8787 7 15 8.12125 15 9.5C15 10.8787 13.8787 12 12.5 12Z" fill="#00A950"/>
</svg>
