<svg width="15" height="20" viewBox="0 0 15 20" fill="none" xmlns="http://www.w3.org/2000/svg">
<path d="M7.5 0C3.36375 0 0 3.36375 0 7.5C0 12.6987 6.77 19.5287 7.0575 19.8175C7.18 19.9387 7.34 20 7.5 20C7.66 20 7.82 19.9387 7.9425 19.8175C8.23 19.5287 15 12.6987 15 7.5C15 3.36375 11.6362 0 7.5 0ZM7.5 18.4713C6.0075 16.8738 1.25 11.4713 1.25 7.5C1.25 4.05375 4.05375 1.25 7.5 1.25C10.9462 1.25 13.75 4.05375 13.75 7.5C13.75 11.4675 8.9925 16.8738 7.5 18.4713Z" fill="#00A950"/>
<path d="M7.5 3.75C5.4325 3.75 3.75 5.4325 3.75 7.5C3.75 9.5675 5.4325 11.25 7.5 11.25C9.5675 11.25 11.25 9.5675 11.25 7.5C11.25 5.4325 9.5675 3.75 7.5 3.75ZM7.5 10C6.12125 10 5 8.87875 5 7.5C5 6.12125 6.12125 5 7.5 5C8.87875 5 10 6.12125 10 7.5C10 8.87875 8.87875 10 7.5 10Z" fill="#00A950"/>
</svg>
