<svg width="74" height="17" viewBox="0 0 74 17" fill="none" xmlns="http://www.w3.org/2000/svg">
<path d="M57.375 6.53125L53.9531 6.03906L52.4062 2.92188C52.1484 2.38281 51.3516 2.35938 51.0703 2.92188L49.5469 6.03906L46.1016 6.53125C45.4922 6.625 45.2578 7.375 45.7031 7.82031L48.1641 10.2344L47.5781 13.6328C47.4844 14.2422 48.1406 14.7109 48.6797 14.4297L51.75 12.8125L54.7969 14.4297C55.3359 14.7109 55.9922 14.2422 55.8984 13.6328L55.3125 10.2344L57.7734 7.82031C58.2188 7.375 57.9844 6.625 57.375 6.53125ZM54.0938 9.83594L54.6562 13.0703L51.75 11.5469L48.8203 13.0703L49.3828 9.83594L47.0156 7.53906L50.2734 7.07031L51.75 4.11719L53.2031 7.07031L56.4609 7.53906L54.0938 9.83594Z" fill="#DBDBDB"/>
<path d="M72.375 6.53125L68.9531 6.03906L67.4062 2.92188C67.1484 2.38281 66.3516 2.35938 66.0703 2.92188L64.5469 6.03906L61.1016 6.53125C60.4922 6.625 60.2578 7.375 60.7031 7.82031L63.1641 10.2344L62.5781 13.6328C62.4844 14.2422 63.1406 14.7109 63.6797 14.4297L66.75 12.8125L69.7969 14.4297C70.3359 14.7109 70.9922 14.2422 70.8984 13.6328L70.3125 10.2344L72.7734 7.82031C73.2188 7.375 72.9844 6.625 72.375 6.53125ZM69.0938 9.83594L69.6562 13.0703L66.75 11.5469L63.8203 13.0703L64.3828 9.83594L62.0156 7.53906L65.2734 7.07031L66.75 4.11719L68.2031 7.07031L71.4609 7.53906L69.0938 9.83594Z" fill="#DBDBDB"/>
<path d="M27.375 6.53125L23.9531 6.03906L22.4062 2.92188C22.1484 2.38281 21.3516 2.35938 21.0703 2.92188L19.5469 6.03906L16.1016 6.53125C15.4922 6.625 15.2578 7.375 15.7031 7.82031L18.1641 10.2344L17.5781 13.6328C17.4844 14.2422 18.1406 14.7109 18.6797 14.4297L21.75 12.8125L24.7969 14.4297C25.3359 14.7109 25.9922 14.2422 25.8984 13.6328L25.3125 10.2344L27.7734 7.82031C28.2188 7.375 27.9844 6.625 27.375 6.53125ZM24.0938 9.83594L24.6562 13.0703L21.75 11.5469L18.8203 13.0703L19.3828 9.83594L17.0156 7.53906L20.2734 7.07031L21.75 4.11719L23.2031 7.07031L26.4609 7.53906L24.0938 9.83594Z" fill="#DBDBDB"/>
<path d="M12.375 6.53125L8.95312 6.03906L7.40625 2.92188C7.14844 2.38281 6.35156 2.35938 6.07031 2.92188L4.54688 6.03906L1.10156 6.53125C0.492188 6.625 0.257812 7.375 0.703125 7.82031L3.16406 10.2344L2.57812 13.6328C2.48438 14.2422 3.14062 14.7109 3.67969 14.4297L6.75 12.8125L9.79688 14.4297C10.3359 14.7109 10.9922 14.2422 10.8984 13.6328L10.3125 10.2344L12.7734 7.82031C13.2188 7.375 12.9844 6.625 12.375 6.53125ZM9.09375 9.83594L9.65625 13.0703L6.75 11.5469L3.82031 13.0703L4.38281 9.83594L2.01562 7.53906L5.27344 7.07031L6.75 4.11719L8.20312 7.07031L11.4609 7.53906L9.09375 9.83594Z" fill="#DBDBDB"/>
<path d="M42.375 6.53125L38.9531 6.03906L37.4062 2.92188C37.1484 2.38281 36.3516 2.35938 36.0703 2.92188L34.5469 6.03906L31.1016 6.53125C30.4922 6.625 30.2578 7.375 30.7031 7.82031L33.1641 10.2344L32.5781 13.6328C32.4844 14.2422 33.1406 14.7109 33.6797 14.4297L36.75 12.8125L39.7969 14.4297C40.3359 14.7109 40.9922 14.2422 40.8984 13.6328L40.3125 10.2344L42.7734 7.82031C43.2188 7.375 42.9844 6.625 42.375 6.53125ZM39.0938 9.83594L39.6562 13.0703L36.75 11.5469L33.8203 13.0703L34.3828 9.83594L32.0156 7.53906L35.2734 7.07031L36.75 4.11719L38.2031 7.07031L41.4609 7.53906L39.0938 9.83594Z" fill="#DBDBDB"/>
</svg>
