<svg width="12" height="13" viewBox="0 0 12 13" fill="none" xmlns="http://www.w3.org/2000/svg">
<path fill-rule="evenodd" clip-rule="evenodd" d="M1.79018 7.27804C1.5992 7.06478 1.49523 6.78274 1.50017 6.4913C1.50511 6.19987 1.61858 5.9218 1.81668 5.7157C2.01478 5.50959 2.28203 5.39153 2.56214 5.38639C2.84225 5.38124 3.11333 5.48942 3.3183 5.68814L3.32395 5.69361L4.8532 7.28381L8.68154 3.30183C8.8865 3.10311 9.15769 2.99504 9.43782 3.00018C9.71796 3.00531 9.98512 3.12339 10.1833 3.32948C10.3813 3.53559 10.4948 3.81365 10.4998 4.10509C10.5047 4.39652 10.4008 4.67858 10.2098 4.89182L10.2044 4.89778L5.61801 9.66941C5.51789 9.77434 5.39842 9.85795 5.2672 9.91455C5.13599 9.97116 4.99529 10.0003 4.85323 10C4.71117 10.0003 4.57047 9.97116 4.43925 9.91455C4.30803 9.85795 4.18892 9.77465 4.08881 9.66988L1.79018 7.27804Z" fill="black"/>
</svg>
