<svg width="16" height="12" viewBox="0 0 16 12" fill="none" xmlns="http://www.w3.org/2000/svg">
<path d="M1.2002 5.25C0.785982 5.25 0.450195 5.58579 0.450195 6C0.450195 6.41421 0.785982 6.75 1.2002 6.75L1.2002 5.25ZM15.3305 6.53033C15.6234 6.23744 15.6234 5.76256 15.3305 5.46967L10.5576 0.6967C10.2647 0.403807 9.78979 0.403806 9.4969 0.6967C9.204 0.989593 9.204 1.46447 9.4969 1.75736L13.7395 6L9.49689 10.2426C9.204 10.5355 9.204 11.0104 9.49689 11.3033C9.78979 11.5962 10.2647 11.5962 10.5576 11.3033L15.3305 6.53033ZM1.2002 6.75L14.8002 6.75L14.8002 5.25L1.2002 5.25L1.2002 6.75Z" fill="#3292DA"/>
</svg>
