<svg width="19" height="20" viewBox="0 0 19 20" fill="none" xmlns="http://www.w3.org/2000/svg">
<path d="M16.2498 5.24927C16.2498 5.24927 15.7141 13.2523 15.4033 16.6235C15.2553 18.2336 14.4296 19.1771 13.077 19.2068C10.5032 19.2626 7.92631 19.2662 5.35341 19.2008C4.05217 19.1688 3.24024 18.2134 3.09522 16.6318C2.78249 13.2309 2.24976 5.24927 2.24976 5.24927" stroke="black" stroke-width="1.5" stroke-linecap="round" stroke-linejoin="round"/>
<path d="M17.958 4.489H1" stroke="black" stroke-width="1.5" stroke-linecap="round" stroke-linejoin="round"/>
<path d="M14.6904 4.489C13.9054 4.489 13.2294 3.934 13.0754 3.165L12.8324 1.949C12.6824 1.388 12.1744 1 11.5954 1H7.3624C6.7834 1 6.2754 1.388 6.1254 1.949L5.8824 3.165C5.7284 3.934 5.0524 4.489 4.2674 4.489" stroke="black" stroke-width="1.5" stroke-linecap="round" stroke-linejoin="round"/>
</svg>
