<svg width="32" height="32" viewBox="0 0 32 32" fill="none" xmlns="http://www.w3.org/2000/svg">
<mask id="mask0_705_4073" style="mask-type:alpha" maskUnits="userSpaceOnUse" x="0" y="0" width="32" height="32">
<rect width="32" height="32" fill="#C4C4C4"/>
</mask>
<g mask="url(#mask0_705_4073)">
<path d="M16.2206 2.96566C15.9076 1.827 15.1499 1.25767 14.5075 1.34138C13.7333 1.44184 12.9097 1.91071 12.5802 2.64754C11.6577 4.75743 13.585 10.9699 13.8815 12.0082C12.0037 17.7685 5.57946 29.1553 2.43326 29.9256C2.36738 29.1721 2.76273 26.9952 6.91373 24.2825C7.12791 24.048 7.37496 23.7634 7.49032 23.5791C3.98172 25.3207 -0.564698 28.1171 2.16974 30.2103C2.31797 30.3275 2.54862 30.428 2.81221 30.5285C4.90418 31.3155 7.83619 28.7367 10.7848 22.8926C14.0298 21.8042 16.649 20.9836 20.3552 20.4143C24.4074 23.2108 27.1253 23.78 28.9702 23.06C29.4809 22.859 30.288 22.206 30.5186 21.352C29.0196 23.2274 25.511 21.9214 22.7108 20.1296C25.2969 19.8449 27.9654 19.6775 29.1184 20.0459C30.5845 20.5147 30.5351 21.2515 30.5186 21.352C30.6339 20.9502 30.7987 20.2971 30.4857 19.778C29.2502 17.7351 23.5838 18.924 21.5247 19.1417C18.2796 17.149 16.0394 13.599 15.1335 11.037C15.9735 7.73809 16.8795 5.34357 16.2206 2.96566ZM14.8205 9.88146C14.2769 7.92226 13.5191 3.56854 14.7381 2.16193C17.1266 3.5518 15.6441 6.85057 14.8205 9.88146ZM19.2845 19.5937C16.1547 20.1798 14.0298 21.0003 10.9825 22.2227C11.8884 20.431 13.6015 15.8595 14.4252 12.8454C15.5782 15.1897 16.9783 17.4838 19.2845 19.5937Z" fill="#E42127"/>
</g>
</svg>
