<svg width="96" height="96" viewBox="0 0 96 96" fill="none" xmlns="http://www.w3.org/2000/svg">
<path d="M46.8385 23.1111L36.2098 46.1364C35.9039 46.799 36.3879 47.5555 37.1177 47.5555H60.6583C61.3882 47.5555 61.8722 48.312 61.5663 48.9746L50.9376 72" stroke="#517193" stroke-width="6" stroke-linecap="round" stroke-linejoin="round"/>
<path fill-rule="evenodd" clip-rule="evenodd" d="M48 5.33333C24.4359 5.33333 5.33333 24.4359 5.33333 48C5.33333 71.5641 24.4359 90.6667 48 90.6667C49.4728 90.6667 50.6667 91.8606 50.6667 93.3333C50.6667 94.8061 49.4728 96 48 96C21.4903 96 0 74.5097 0 48C0 21.4903 21.4903 0 48 0C74.5097 0 96 21.4903 96 48C96 49.4728 94.8061 50.6667 93.3333 50.6667C91.8606 50.6667 90.6667 49.4728 90.6667 48C90.6667 24.4359 71.5641 5.33333 48 5.33333Z" fill="url(#paint0_linear_529_2916)"/>
<defs>
<linearGradient id="paint0_linear_529_2916" x1="48.0001" y1="-125.358" x2="220.676" y2="28.8854" gradientUnits="userSpaceOnUse">
<stop stop-color="#74DEFF"/>
<stop offset="1" stop-color="#5E9EFF"/>
</linearGradient>
</defs>
</svg>
