<svg width="108" height="108" viewBox="0 0 108 108" fill="none" xmlns="http://www.w3.org/2000/svg">
<mask id="mask0_686_3754" style="mask-type:alpha" maskUnits="userSpaceOnUse" x="0" y="0" width="108" height="108">
<path d="M105 54C105 82.1665 82.1665 105 54 105C25.8335 105 3 82.1665 3 54C3 25.8335 25.8335 3 54 3C82.1665 3 105 25.8335 105 54Z" stroke="#F49441" stroke-width="6"/>
</mask>
<g mask="url(#mask0_686_3754)">
<path fill-rule="evenodd" clip-rule="evenodd" d="M-97.7979 54C-97.7979 80.5097 -119.288 102 -145.798 102C-172.308 102 -193.798 80.5097 -193.798 54C-193.798 27.4903 -172.308 6 -145.798 6C-119.288 6 -97.7979 27.4903 -97.7979 54ZM-145.798 108C-115.974 108 -91.7979 83.8234 -91.7979 54C-91.7979 24.1766 -115.974 0 -145.798 0C-175.621 0 -199.798 24.1766 -199.798 54C-199.798 83.8234 -175.621 108 -145.798 108ZM53.9995 102C80.5092 102 102 80.5097 102 54C102 27.4903 80.5092 6 53.9995 6C27.4898 6 5.99951 27.4903 5.99951 54C5.99951 80.5097 27.4898 102 53.9995 102ZM108 54C108 83.8234 83.8229 108 53.9995 108C24.1761 108 -0.000488281 83.8234 -0.000488281 54C-0.000488281 24.1766 24.1761 0 53.9995 0C83.8229 0 108 24.1766 108 54ZM252.906 102C279.415 102 300.906 80.5097 300.906 54C300.906 27.4903 279.415 6 252.906 6C226.396 6 204.906 27.4903 204.906 54C204.906 80.5097 226.396 102 252.906 102ZM306.906 54C306.906 83.8234 282.729 108 252.906 108C223.082 108 198.906 83.8234 198.906 54C198.906 24.1766 223.082 0 252.906 0C282.729 0 306.906 24.1766 306.906 54Z" fill="url(#paint0_linear_686_3754)"/>
</g>
<path d="M51.1849 81.0982C55.9381 81.0982 68.6518 75.9486 68.6518 58.916C68.6513 57.0733 73.5468 55.8226 73.7632 52.1821C73.9795 48.5417 70.7089 48.1707 66.9911 42.2663C65.8427 40.4421 68.5446 36.5905 68.5446 36.5905L76.9371 36.2333C76.9371 36.2333 79.9928 35.9417 79.5987 32.7728C79.5987 32.7728 79.2026 30 78.4104 28.8118C77.6182 27.6235 76.8464 27.6706 74.7732 27.921C72.2362 28.354 22.9501 34.7534 22.9532 47.4288" stroke="white" stroke-width="3" stroke-miterlimit="10" stroke-linecap="round" stroke-linejoin="round"/>
<path d="M59.4223 45.068C57.6592 44.7372 54.3855 44.2963 48.4486 43.9245C54.6448 41.5507 58.8563 38.8 61.4388 36.7483" stroke="white" stroke-width="3" stroke-miterlimit="10" stroke-linecap="round" stroke-linejoin="round"/>
<path d="M73.8037 41.887L89.1037 41.887" stroke="white" stroke-width="3" stroke-linecap="round" stroke-dasharray="1 8"/>
<defs>
<linearGradient id="paint0_linear_686_3754" x1="-199.798" y1="0" x2="306.905" y2="108.001" gradientUnits="userSpaceOnUse">
<stop stop-color="#74E6FF"/>
<stop offset="1" stop-color="#5D9EFF"/>
</linearGradient>
</defs>
</svg>
