<svg width="56" height="56" viewBox="0 0 56 56" fill="none" xmlns="http://www.w3.org/2000/svg">
<circle opacity="0.35" cx="28" cy="28" r="28" fill="#406184"/>
<g opacity="0.75">
<path d="M39.6164 32.9031L38.8302 33.6947C38.5828 33.9419 38.2536 34.0781 37.9018 34.0781C37.5502 34.0781 37.2207 33.9419 36.9732 33.6947L28.0054 24.7264L19.0271 33.7047C18.7801 33.9519 18.4506 34.0879 18.0989 34.0879C17.7473 34.0879 17.4176 33.9519 17.1704 33.7047L16.384 32.9179C15.872 32.4063 15.872 31.5729 16.384 31.0613L27.0737 20.3332C27.3207 20.0862 27.6499 19.9122 28.0046 19.9122H28.0087C28.3605 19.9122 28.6897 20.0864 28.9367 20.3332L39.6164 31.0323C39.8638 31.2793 39.9996 31.6184 40 31.97C40 32.3218 39.8638 32.6563 39.6164 32.9031Z" fill="white"/>
</g>
</svg>
