<svg width="24" height="24" viewBox="0 0 24 24" fill="none" xmlns="http://www.w3.org/2000/svg">
<path fill-rule="evenodd" clip-rule="evenodd" d="M17.1372 1.8537L6.57407 6.38239L1.68164 4.37254L12.1868 0.0569014C12.3716 -0.0189671 12.5787 -0.0189671 12.7634 0.0569014L17.1372 1.8537ZM8.53613 7.18849L19.1025 2.66113L23.268 4.37235L12.4745 8.80643L8.53613 7.18849ZM11.7159 10.1356L7.44128 8.37955V11.7044C7.44128 12.1234 7.10158 12.4631 6.6826 12.4631C6.26361 12.4631 5.92391 12.1234 5.92391 11.7044V7.75619L1 5.7334V19.0895C1 19.3971 1.18578 19.6743 1.47038 19.7913L11.7159 24.0002V10.1356ZM13.2334 24.0002V10.1356L23.9493 5.7334V19.0895C23.9493 19.3971 23.7635 19.6744 23.4789 19.7913L13.2334 24.0002Z" fill="url(#paint0_linear_705_4304)"/>
<defs>
<linearGradient id="paint0_linear_705_4304" x1="15.662" y1="0" x2="15.662" y2="24.0002" gradientUnits="userSpaceOnUse">
<stop stop-color="#74E6FF"/>
<stop offset="1" stop-color="#5D9EFF"/>
</linearGradient>
</defs>
</svg>
