<svg width="40" height="40" viewBox="0 0 40 40" fill="none" xmlns="http://www.w3.org/2000/svg">
<path d="M35.4551 19.0909H40.0005" stroke="#517193" stroke-width="1.5"/>
<path d="M5.45508 19.0909L0.909624 19.0909" stroke="#517193" stroke-width="1.5"/>
<path d="M20.9092 4.54547L20.9092 1.66893e-05" stroke="#517193" stroke-width="1.5"/>
<path d="M28.1035 6.50677L30.3762 2.5703" stroke="#517193" stroke-width="1.5"/>
<path d="M7.64062 11.9893L3.70415 9.71659" stroke="#517193" stroke-width="1.5"/>
<path d="M33.5869 26.9687L37.5234 29.2414" stroke="#517193" stroke-width="1.5"/>
<path d="M33.5869 11.9893L37.5234 9.71659" stroke="#517193" stroke-width="1.5"/>
<path d="M7.64062 26.9687L3.70415 29.2414" stroke="#517193" stroke-width="1.5"/>
<path d="M13.123 6.50677L10.8503 2.5703" stroke="#517193" stroke-width="1.5"/>
<path d="M12.7871 12.2242C8.54627 16.465 8.54627 23.3408 12.7871 27.5816C12.7871 27.5816 15.9204 30.0382 15.9204 33.658L25.0113 33.658C25.0113 30.0382 28.1445 27.5816 28.1445 27.5816C32.3854 23.3408 32.3854 16.465 28.1445 12.2242C23.9037 7.98335 17.0279 7.98335 12.7871 12.2242Z" stroke="#517193" stroke-width="1.5"/>
<path d="M24.659 35.8064L16.4856 35.8064" stroke="#517193" stroke-width="1.5"/>
<path d="M25.0108 33.6364C25.0108 36.1467 22.9758 38.1818 20.4654 38.1818C17.955 38.1818 15.9199 36.1467 15.9199 33.6364" stroke="#517193" stroke-width="1.5"/>
</svg>
