<svg width="108" height="108" viewBox="0 0 108 108" fill="none" xmlns="http://www.w3.org/2000/svg">
<mask id="mask0_551_3123" style="mask-type:alpha" maskUnits="userSpaceOnUse" x="0" y="0" width="108" height="108">
<rect width="108" height="108" fill="#C4C4C4"/>
</mask>
<g mask="url(#mask0_551_3123)">
<path d="M54 108C83.8234 108 108 83.8234 108 54C108 24.1766 83.8234 0 54 0C24.1766 0 0 24.1766 0 54C0 83.8234 24.1766 108 54 108Z" fill="url(#paint0_linear_551_3123)"/>
<path fill-rule="evenodd" clip-rule="evenodd" d="M27.9492 33.7892C27.9492 29.8695 31.1267 26.692 35.0464 26.692H73.4222C77.3419 26.692 80.5194 29.8695 80.5194 33.7892V72.1651C80.5194 76.0847 77.3419 79.2622 73.4222 79.2622H35.0464C31.1267 79.2622 27.9492 76.0847 27.9492 72.1651V33.7892ZM35.0464 31.4289C33.7428 31.4289 32.6861 32.4856 32.6861 33.7892V72.1651C32.6861 73.4686 33.7428 74.5254 35.0464 74.5254H73.4222C74.7258 74.5254 75.7825 73.4686 75.7825 72.1651V33.7892C75.7825 32.4856 74.7258 31.4289 73.4222 31.4289H35.0464Z" fill="white"/>
<path fill-rule="evenodd" clip-rule="evenodd" d="M63.5452 22.6545C64.8532 22.6545 65.9136 23.7149 65.9136 25.023V32.2042C65.9136 33.5122 64.8532 34.5726 63.5452 34.5726C62.2371 34.5726 61.1768 33.5122 61.1768 32.2042V25.023C61.1768 23.7149 62.2371 22.6545 63.5452 22.6545Z" fill="white"/>
<path fill-rule="evenodd" clip-rule="evenodd" d="M41.8137 22.6545C43.1218 22.6545 44.1822 23.7149 44.1822 25.023V32.2042C44.1822 33.5122 43.1218 34.5726 41.8137 34.5726C40.5057 34.5726 39.4453 33.5122 39.4453 32.2042V25.023C39.4453 23.7149 40.5057 22.6545 41.8137 22.6545Z" fill="white"/>
<path d="M45.4256 44.0317H48.8303V63.8923H44.9149V48.1741L41.1697 49.2239L40.2051 45.8759L45.4256 44.0317Z" fill="white"/>
<path d="M67.0373 63.8923H62.8098L59.7456 59.5798L56.653 63.8923H52.4256L57.6177 56.6574L52.6525 49.7062H56.88L59.7456 53.7067L62.6112 49.7062H66.8103L61.8452 56.629L67.0373 63.8923Z" fill="white"/>
</g>
<defs>
<linearGradient id="paint0_linear_551_3123" x1="-343.895" y1="107.999" x2="449.526" y2="-7.95072e-05" gradientUnits="userSpaceOnUse">
<stop stop-color="#74E6FF"/>
<stop offset="1" stop-color="#5D9EFF"/>
</linearGradient>
</defs>
</svg>
