<svg width="108" height="108" viewBox="0 0 108 108" fill="none" xmlns="http://www.w3.org/2000/svg">
<mask id="mask0_551_3104" style="mask-type:alpha" maskUnits="userSpaceOnUse" x="0" y="0" width="108" height="108">
<rect width="108" height="108" fill="#C4C4C4"/>
</mask>
<g mask="url(#mask0_551_3104)">
<path d="M54 108C83.8234 108 108 83.8234 108 54C108 24.1766 83.8234 0 54 0C24.1766 0 0 24.1766 0 54C0 83.8234 24.1766 108 54 108Z" fill="url(#paint0_linear_551_3104)"/>
<path d="M74.0878 63.6521C75.6873 64.5642 77.7474 64.01 78.4345 62.3018C79.5577 59.5094 80.1883 56.4675 80.1883 53.2679C80.1883 40.9382 71.0336 30.7977 59.1959 29.1813C57.375 28.9327 55.877 30.4464 55.877 32.2842V51.3347C55.877 52.53 56.518 53.6334 57.5562 54.2254L74.0878 63.6521Z" stroke="white" stroke-width="5" stroke-linecap="round" stroke-linejoin="round"/>
<path d="M55.7305 79.489C56.8637 79.489 57.7823 78.5704 57.7823 77.4372C57.7823 76.304 56.8637 75.3854 55.7305 75.3854C54.5973 75.3854 53.6787 76.304 53.6787 77.4372C53.6787 78.5704 54.5973 79.489 55.7305 79.489Z" fill="white"/>
<path d="M68.4131 75.9908C69.5463 75.9908 70.465 75.0722 70.465 73.939C70.465 72.8058 69.5463 71.8872 68.4131 71.8872C67.28 71.8872 66.3613 72.8058 66.3613 73.939C66.3613 75.0722 67.28 75.9908 68.4131 75.9908Z" fill="white"/>
<path d="M34.6153 67.3922C35.7485 67.3922 36.6671 66.4736 36.6671 65.3404C36.6671 64.2072 35.7485 63.2886 34.6153 63.2886C33.4821 63.2886 32.5635 64.2072 32.5635 65.3404C32.5635 66.4736 33.4821 67.3922 34.6153 67.3922Z" fill="white"/>
<path d="M31.4151 55.1771C32.5483 55.1771 33.4669 54.2585 33.4669 53.1253C33.4669 51.9921 32.5483 51.0735 31.4151 51.0735C30.2819 51.0735 29.3633 51.9921 29.3633 53.1253C29.3633 54.2585 30.2819 55.1771 31.4151 55.1771Z" fill="white"/>
<path d="M43.0381 75.9908C44.1713 75.9908 45.09 75.0722 45.09 73.939C45.09 72.8058 44.1713 71.8872 43.0381 71.8872C41.905 71.8872 40.9863 72.8058 40.9863 73.939C40.9863 75.0722 41.905 75.9908 43.0381 75.9908Z" fill="white"/>
<path d="M34.6153 43.0218C35.7485 43.0218 36.6671 42.1032 36.6671 40.97C36.6671 39.8368 35.7485 38.9182 34.6153 38.9182C33.4821 38.9182 32.5635 39.8368 32.5635 40.97C32.5635 42.1032 33.4821 43.0218 34.6153 43.0218Z" fill="white"/>
<path d="M43.0381 34.364C44.1713 34.364 45.09 33.4454 45.09 32.3122C45.09 31.179 44.1713 30.2604 43.0381 30.2604C41.905 30.2604 40.9863 31.179 40.9863 32.3122C40.9863 33.4454 41.905 34.364 43.0381 34.364Z" fill="white"/>
</g>
<defs>
<linearGradient id="paint0_linear_551_3104" x1="-2.98545e-05" y1="108" x2="793.895" y2="-0.000214038" gradientUnits="userSpaceOnUse">
<stop stop-color="#74E6FF"/>
<stop offset="1" stop-color="#5D9EFF"/>
</linearGradient>
</defs>
</svg>
