<svg width="10" height="8" viewBox="0 0 10 8" fill="none" xmlns="http://www.w3.org/2000/svg">
<path d="M3.39616 7.31056L0.146516 4.06091C0.100066 4.01448 0.0632186 3.95935 0.038079 3.89868C0.0129394 3.838 0 3.77297 0 3.70729C0 3.64162 0.0129394 3.57658 0.038079 3.51591C0.0632186 3.45523 0.100066 3.40011 0.146516 3.35368L0.853749 2.64644C0.90018 2.59999 0.955307 2.56315 1.01598 2.53801C1.07666 2.51287 1.14169 2.49993 1.20737 2.49993C1.27304 2.49993 1.33808 2.51287 1.39875 2.53801C1.45942 2.56315 1.51455 2.59999 1.56098 2.64644L3.75004 4.8355L8.43902 0.146516C8.48545 0.100066 8.54058 0.0632183 8.60125 0.0380787C8.66193 0.012939 8.72696 0 8.79263 0C8.85831 0 8.92334 0.012939 8.98402 0.0380787C9.04469 0.0632183 9.09982 0.100066 9.14625 0.146516L9.85348 0.853752C9.89993 0.900182 9.93678 0.95531 9.96192 1.01598C9.98706 1.07666 10 1.14169 10 1.20737C10 1.27304 9.98706 1.33808 9.96192 1.39875C9.93678 1.45943 9.89993 1.51455 9.85348 1.56098L4.10236 7.31211C4.05593 7.35856 4.0008 7.39541 3.94013 7.42055C3.87945 7.44569 3.81442 7.45863 3.74874 7.45863C3.68306 7.45863 3.61803 7.44569 3.55736 7.42055C3.49668 7.39541 3.44156 7.35856 3.39512 7.31211L3.39616 7.31056Z" fill="#1A1A17"/>
</svg>
