<svg width="10" height="10" viewBox="0 0 10 10" fill="none" xmlns="http://www.w3.org/2000/svg">
<path d="M5.88782 4.06123L5.88782 1.24493C5.88715 1.07989 5.82129 0.921796 5.70459 0.805092C5.58788 0.688387 5.42979 0.622523 5.26474 0.621852L4.6389 0.621855C4.47386 0.622526 4.31577 0.688386 4.19906 0.80509C4.08236 0.921794 4.0165 1.07989 4.01583 1.24493L4.01098 4.06192L1.19537 4.06123C1.03032 4.0619 0.872235 4.12776 0.755531 4.24447C0.638827 4.36117 0.572961 4.51926 0.57229 4.6843L0.572293 5.31015C0.572964 5.47519 0.638823 5.63328 0.755527 5.74999C0.872232 5.86669 1.03033 5.93256 1.19537 5.93323L4.01167 5.93323L4.01098 8.75438C4.01165 8.91942 4.07751 9.07751 4.19422 9.19422C4.31092 9.31092 4.46902 9.37678 4.63406 9.37746L5.2599 9.37745C5.42495 9.37678 5.58304 9.31092 5.69974 9.19422C5.81645 9.07751 5.88231 8.91942 5.88298 8.75438L5.88298 5.93808L8.70413 5.93877C8.86917 5.9381 9.02726 5.87224 9.14396 5.75553C9.26067 5.63883 9.32653 5.48074 9.3272 5.3157L9.3272 4.68985C9.32653 4.52481 9.26067 4.36672 9.14397 4.25001C9.02726 4.13331 8.86917 4.06744 8.70412 4.06677L5.88782 4.06123Z" fill="white"/>
</svg>
