<svg width="8" height="16" viewBox="0 0 8 16" fill="none" xmlns="http://www.w3.org/2000/svg">
<path d="M4.2379e-07 14.9228V1.07599C3.53703e-05 0.863168 0.0556616 0.655137 0.159847 0.478195C0.264032 0.301254 0.412098 0.163347 0.585325 0.0819093C0.758553 0.000471579 0.949164 -0.0208402 1.13306 0.0206682C1.31696 0.0621766 1.48588 0.164641 1.61848 0.315109L7.72239 7.23851C7.90014 7.44033 8 7.71402 8 7.99939C8 8.28477 7.90014 8.55846 7.72239 8.76027L1.61848 15.6849C1.48582 15.8354 1.3168 15.9379 1.1328 15.9794C0.948801 16.0209 0.758101 15.9994 0.58483 15.9179C0.411558 15.8363 0.263503 15.6982 0.159399 15.521C0.055296 15.3439 -0.000176899 15.1357 4.2379e-07 14.9228Z" fill="#26673E"/>
</svg>
