<svg width="48" height="48" viewBox="0 0 48 48" fill="none" xmlns="http://www.w3.org/2000/svg">
<rect x="2.00098" y="35" width="4" height="6" stroke="#373737" stroke-width="2" stroke-linejoin="round"/>
<rect x="42.001" y="35" width="4" height="6" stroke="#373737" stroke-width="2" stroke-linejoin="round"/>
<path d="M41.001 23.8027C41.001 20.365 41.001 20 41.001 20C41.001 20 41.001 20 41.001 20C41.001 17.7909 39.2101 16 37.001 16H11.001C8.79184 16 7.00098 17.7909 7.00098 20C7.00098 20 7.00098 20 7.00098 20C7.00098 20 7.00098 20.365 7.00098 23.8027M47.001 35V30C47.001 26.6863 44.3147 24 41.001 24H7.00098C3.68727 24 1.00098 26.6863 1.00098 30V35H47.001Z" stroke="#373737" stroke-width="2" stroke-linejoin="round"/>
<path d="M16.0502 20.5L17.9623 17L19.8744 20.5L17.9623 24L16.0502 20.5Z" stroke="#373737" stroke-linecap="round" stroke-linejoin="round"/>
<path d="M12.0251 20.5L13.9372 17L15.8493 20.5L13.9372 24L12.0251 20.5Z" stroke="#373737" stroke-linecap="round" stroke-linejoin="round"/>
<path d="M20.0753 20.5L21.9874 17L23.8995 20.5L21.9874 24L20.0753 20.5Z" stroke="#373737" stroke-linecap="round" stroke-linejoin="round"/>
<path d="M24.1005 20.5L26.0126 17L27.9247 20.5L26.0126 24L24.1005 20.5Z" stroke="#373737" stroke-linecap="round" stroke-linejoin="round"/>
<path d="M28.1256 20.5L30.0377 17L31.9498 20.5L30.0377 24L28.1256 20.5Z" stroke="#373737" stroke-linecap="round" stroke-linejoin="round"/>
<path d="M32.1507 20.5L34.0628 17L35.9749 20.5L34.0628 24L32.1507 20.5Z" stroke="#373737" stroke-linecap="round" stroke-linejoin="round"/>
<path d="M36.1758 20.5L38.0879 17L40 20.5L38.0879 24L36.1758 20.5Z" stroke="#373737" stroke-linecap="round" stroke-linejoin="round"/>
<path d="M8 20.5L9.9121 17L11.8242 20.5L9.9121 24L8 20.5Z" stroke="#373737" stroke-linecap="round" stroke-linejoin="round"/>
</svg>
