<svg width="48" height="48" viewBox="0 0 48 48" fill="none" xmlns="http://www.w3.org/2000/svg">
<rect x="2.00098" y="35" width="4" height="6" stroke="#373737" stroke-width="2" stroke-linejoin="round"/>
<rect x="42.001" y="35" width="4" height="6" stroke="#373737" stroke-width="2" stroke-linejoin="round"/>
<path d="M41.001 23.8027C41.001 20.365 41.001 16 41.001 16C41.001 16 41.001 16 41.001 16C41.001 13.7909 39.2101 12 37.001 12H11.001C8.79184 12 7.00098 13.7909 7.00098 16C7.00098 16 7.00098 16 7.00098 16C7.00098 16 7.00098 20.365 7.00098 23.8027M47.001 35V30C47.001 26.6863 44.3147 24 41.001 24H7.00098C3.68727 24 1.00098 26.6863 1.00098 30V35H47.001Z" stroke="#373737" stroke-width="2" stroke-linejoin="round"/>
<path d="M16.0502 24L17.9623 20.3122L19.8744 24M12.0251 24L13.9372 20.3122L15.8493 24M20.0753 24L21.9874 20.3122L23.8995 24M24.1005 24L26.0126 20.3122L27.9247 24M28.1256 24L30.0377 20.3122L31.9498 24M32.1507 24L34.0628 20.3122L35.9749 24M36.1758 24L38.0879 20.3122L40 24M8 24L9.9121 20.3122L11.8242 24M16.0502 16.6878L17.9623 13L19.8744 16.6878L17.9623 20.3756L16.0502 16.6878ZM12.0251 16.6878L13.9372 13L15.8493 16.6878L13.9372 20.3756L12.0251 16.6878ZM20.0753 16.6878L21.9874 13L23.8995 16.6878L21.9874 20.3756L20.0753 16.6878ZM24.1005 16.6878L26.0126 13L27.9247 16.6878L26.0126 20.3756L24.1005 16.6878ZM28.1256 16.6878L30.0377 13L31.9498 16.6878L30.0377 20.3756L28.1256 16.6878ZM32.1507 16.6878L34.0628 13L35.9749 16.6878L34.0628 20.3756L32.1507 16.6878ZM36.1758 16.6878L38.0879 13L40 16.6878L38.0879 20.3756L36.1758 16.6878ZM8 16.6878L9.9121 13L11.8242 16.6878L9.9121 20.3756L8 16.6878Z" stroke="#373737" stroke-linecap="round" stroke-linejoin="round"/>
</svg>
