<svg width="48" height="48" viewBox="0 0 48 48" fill="none" xmlns="http://www.w3.org/2000/svg">
<rect x="2.00098" y="35" width="4" height="6" stroke="#373737" stroke-width="2" stroke-linejoin="round"/>
<rect x="42.001" y="35" width="4" height="6" stroke="#373737" stroke-width="2" stroke-linejoin="round"/>
<path d="M41.001 23.8027C41.001 20.365 41.001 12 41.001 12C41.001 12 41.001 12 41.001 12C41.001 9.79086 39.2101 8 37.001 8H11.001C8.79184 8 7.00098 9.79086 7.00098 12C7.00098 12 7.00098 12 7.00098 12C7.00098 12 7.00098 20.365 7.00098 23.8027M47.001 35V30C47.001 26.6863 44.3147 24 41.001 24H7.00098C3.68727 24 1.00098 26.6863 1.00098 30V35H47.001Z" stroke="#373737" stroke-width="2" stroke-linejoin="round"/>
<path d="M16.0502 12.5151L17.9623 9L19.8744 12.5151L17.9623 16.0302L16.0502 12.5151Z" stroke="#373737" stroke-linecap="round" stroke-linejoin="round"/>
<path d="M12.0251 12.5151L13.9372 9L15.8493 12.5151L13.9372 16.0302L12.0251 12.5151Z" stroke="#373737" stroke-linecap="round" stroke-linejoin="round"/>
<path d="M20.0753 12.5151L21.9874 9L23.8995 12.5151L21.9874 16.0302L20.0753 12.5151Z" stroke="#373737" stroke-linecap="round" stroke-linejoin="round"/>
<path d="M24.1005 12.5151L26.0126 9L27.9247 12.5151L26.0126 16.0302L24.1005 12.5151Z" stroke="#373737" stroke-linecap="round" stroke-linejoin="round"/>
<path d="M28.1256 12.5151L30.0377 9L31.9498 12.5151L30.0377 16.0302L28.1256 12.5151Z" stroke="#373737" stroke-linecap="round" stroke-linejoin="round"/>
<path d="M32.1507 12.5151L34.0628 9L35.9749 12.5151L34.0628 16.0302L32.1507 12.5151Z" stroke="#373737" stroke-linecap="round" stroke-linejoin="round"/>
<path d="M36.1758 12.5151L38.0879 9L40 12.5151L38.0879 16.0302L36.1758 12.5151Z" stroke="#373737" stroke-linecap="round" stroke-linejoin="round"/>
<path d="M8 12.5151L9.9121 9L11.8242 12.5151L9.9121 16.0302L8 12.5151Z" stroke="#373737" stroke-linecap="round" stroke-linejoin="round"/>
<path d="M16.0502 19.4849L17.9623 15.9698L19.8744 19.4849L17.9623 23L16.0502 19.4849Z" stroke="#373737" stroke-linecap="round" stroke-linejoin="round"/>
<path d="M12.0251 19.4849L13.9372 15.9698L15.8493 19.4849L13.9372 23L12.0251 19.4849Z" stroke="#373737" stroke-linecap="round" stroke-linejoin="round"/>
<path d="M20.0753 19.4849L21.9874 15.9698L23.8995 19.4849L21.9874 23L20.0753 19.4849Z" stroke="#373737" stroke-linecap="round" stroke-linejoin="round"/>
<path d="M24.1005 19.4849L26.0126 15.9698L27.9247 19.4849L26.0126 23L24.1005 19.4849Z" stroke="#373737" stroke-linecap="round" stroke-linejoin="round"/>
<path d="M28.1256 19.4849L30.0377 15.9698L31.9498 19.4849L30.0377 23L28.1256 19.4849Z" stroke="#373737" stroke-linecap="round" stroke-linejoin="round"/>
<path d="M32.1507 19.4849L34.0628 15.9698L35.9749 19.4849L34.0628 23L32.1507 19.4849Z" stroke="#373737" stroke-linecap="round" stroke-linejoin="round"/>
<path d="M36.1758 19.4849L38.0879 15.9698L40 19.4849L38.0879 23L36.1758 19.4849Z" stroke="#373737" stroke-linecap="round" stroke-linejoin="round"/>
<path d="M8 19.4849L9.9121 15.9698L11.8242 19.4849L9.9121 23L8 19.4849Z" stroke="#373737" stroke-linecap="round" stroke-linejoin="round"/>
</svg>
