<svg width="28" height="28" viewBox="0 0 28 28" fill="none" xmlns="http://www.w3.org/2000/svg">
<g clip-path="url(#clip0_1078_52543)">
<path d="M5.49023 18.3622C6.69577 19.4198 8.1065 20.5689 9.42895 21.6144V20.4275C9.42895 18.8716 10.2103 17.495 11.4011 16.6689C10.9541 15.5093 9.82542 14.7111 8.54755 14.7111C6.86175 14.7111 5.49023 16.0826 5.49023 17.7683V18.3622Z" fill="#027DB8"/>
<path d="M26.9233 10.7645C26.9233 6.41364 23.3963 2.8866 19.0455 2.8866C17.1257 2.8866 15.367 3.57399 14.0002 4.71516C12.6335 3.57404 10.8747 2.8866 8.95498 2.8866C4.60414 2.88665 1.07715 6.41369 1.07715 10.7645C1.07715 12.6216 1.76576 14.2931 2.79471 15.6752C3.07432 16.0509 3.50431 16.5129 4.03547 17.0287C4.254 15.691 5.05493 14.5465 6.16879 13.8653C5.31627 13.1722 4.77032 12.1159 4.77032 10.9341C4.77032 8.85166 6.46456 7.15742 8.54709 7.15742C10.3936 7.15742 11.9338 8.48976 12.2594 10.2434C12.7808 9.97132 13.3726 9.81655 14.0002 9.81655C14.6279 9.81655 15.2197 9.97132 15.7411 10.2434C16.0667 8.48981 17.6069 7.15742 19.4534 7.15742C21.5358 7.15742 23.2301 8.85166 23.2301 10.9341C23.2301 12.1159 22.6841 13.1722 21.8317 13.8653C22.9455 14.5465 23.7464 15.691 23.965 17.0287C24.4961 16.513 24.9261 16.0509 25.2057 15.6752C26.2347 14.2931 26.9233 12.6216 26.9233 10.7645Z" fill="#027DB8"/>
<path d="M10.8098 10.9343C10.8098 9.68686 9.79498 8.672 8.5475 8.672C7.30002 8.672 6.28516 9.68686 6.28516 10.9343C6.28516 12.1818 7.30002 13.1966 8.5475 13.1966C9.79498 13.1966 10.8098 12.1818 10.8098 10.9343Z" fill="#027DB8"/>
<path d="M22.5105 18.3621V17.7682C22.5105 16.0824 21.139 14.7109 19.4532 14.7109C18.1753 14.7109 17.0466 15.5091 16.5996 16.6688C17.7904 17.495 18.5718 18.8715 18.5718 20.4274V21.6143C19.8942 20.5688 21.305 19.4197 22.5105 18.3621Z" fill="#027DB8"/>
<path d="M19.4538 8.67175C18.2063 8.67175 17.1914 9.68662 17.1914 10.934C17.1914 12.1815 18.2063 13.1964 19.4538 13.1964C20.7012 13.1964 21.716 12.1815 21.716 10.934C21.716 9.68667 20.7012 8.67175 19.4538 8.67175Z" fill="#027DB8"/>
<path d="M17.0579 22.7978V20.4273C17.0579 18.7415 15.6865 17.37 14.0007 17.37C12.3149 17.37 10.9434 18.7415 10.9434 20.4273V22.7977C12.686 24.1449 14.0006 25.1134 14.0006 25.1134C14.0006 25.1134 15.3152 24.1449 17.0579 22.7978Z" fill="#027DB8"/>
<path d="M14.3592 15.8273C15.5924 15.6274 16.4301 14.4656 16.2302 13.2324C16.0303 11.9993 14.8685 11.1616 13.6353 11.3615C12.4021 11.5614 11.5644 12.7232 11.7643 13.9564C11.9642 15.1896 13.126 16.0272 14.3592 15.8273Z" fill="#027DB8"/>
</g>
<defs>
<clipPath id="clip0_1078_52543">
<rect width="25.8462" height="25.8462" fill="white" transform="translate(1.07715 1.0769)"/>
</clipPath>
</defs>
</svg>
