<svg width="284" height="28" viewBox="0 0 284 28" fill="none" xmlns="http://www.w3.org/2000/svg">
        <g clip-path="url(#clip0_174_37700)">
        <path d="M27.3295 8.50586H37.8599V10.352H33.7193V20.7302H31.4425V10.352H27.3203V8.50586H27.3295ZM37.41 11.879H39.3563V13.5871H39.3931C39.4573 13.3455 39.5767 13.1126 39.7511 12.8883C39.9255 12.664 40.1367 12.4483 40.3846 12.2672C40.6325 12.0774 40.9079 11.9307 41.2108 11.81C41.5138 11.6978 41.826 11.6374 42.1381 11.6374C42.3768 11.6374 42.5512 11.646 42.643 11.6547C42.7349 11.6633 42.8267 11.6806 42.9277 11.6892V13.5698C42.7808 13.544 42.6339 13.5267 42.4778 13.5095C42.3217 13.4922 42.1748 13.4836 42.0279 13.4836C41.6791 13.4836 41.3486 13.5526 41.0364 13.682C40.7243 13.8114 40.458 14.0098 40.2285 14.26C39.999 14.5188 39.8154 14.8294 39.6777 15.209C39.5399 15.5885 39.4757 16.0199 39.4757 16.5116V20.7215H37.4008V11.879H37.41ZM52.4665 20.7302H50.4284V19.4965H50.3916C50.1346 19.9451 49.7582 20.2988 49.2532 20.5662C48.7483 20.8337 48.2342 20.9717 47.7108 20.9717C46.4714 20.9717 45.5717 20.687 45.0209 20.109C44.47 19.531 44.1946 18.6597 44.1946 17.4951V11.879H46.2695V17.3053C46.2695 18.0817 46.4255 18.6338 46.7469 18.953C47.059 19.2722 47.5089 19.4361 48.0781 19.4361C48.5188 19.4361 48.8768 19.3757 49.1706 19.2463C49.4644 19.1169 49.7031 18.953 49.8775 18.7373C50.0611 18.5303 50.1897 18.2715 50.2723 17.9782C50.3549 17.6849 50.3916 17.3657 50.3916 17.0206V11.8876H52.4665V20.7302ZM56.0011 17.8919C56.0654 18.4613 56.2949 18.8581 56.6897 19.091C57.0936 19.3153 57.571 19.4361 58.131 19.4361C58.3238 19.4361 58.5442 19.4189 58.7921 19.393C59.0399 19.3671 59.2786 19.3067 59.4898 19.2291C59.7101 19.1514 59.8846 19.0307 60.0315 18.8754C60.1692 18.7201 60.2334 18.5217 60.2243 18.2715C60.2151 18.0213 60.1141 17.8143 59.9305 17.659C59.7469 17.4951 59.5173 17.3743 59.2327 17.2708C58.9481 17.1759 58.6268 17.0896 58.2596 17.0206C57.8923 16.9516 57.5251 16.8739 57.1487 16.7963C56.7631 16.7187 56.3867 16.6151 56.0286 16.503C55.6706 16.3908 55.3493 16.2355 55.0647 16.0371C54.7801 15.8473 54.5505 15.5972 54.3853 15.2952C54.2108 14.9933 54.1282 14.6223 54.1282 14.1737C54.1282 13.6906 54.2568 13.2938 54.5046 12.966C54.7525 12.6381 55.0738 12.3793 55.4503 12.1809C55.8358 11.9825 56.2582 11.8445 56.7264 11.7582C57.1946 11.6806 57.6445 11.6374 58.0668 11.6374C58.5534 11.6374 59.0216 11.6892 59.4623 11.7841C59.9029 11.879 60.3069 12.0343 60.6649 12.2586C61.023 12.4742 61.3168 12.7589 61.5555 13.104C61.7942 13.4491 61.9411 13.8718 62.0053 14.3635H59.8387C59.7377 13.8977 59.5173 13.5785 59.1593 13.4232C58.8012 13.2593 58.3881 13.1816 57.9291 13.1816C57.7822 13.1816 57.6077 13.1903 57.4058 13.2161C57.2038 13.242 57.0202 13.2852 56.8365 13.3455C56.6621 13.4059 56.5152 13.5008 56.3867 13.6216C56.2673 13.7424 56.2031 13.8977 56.2031 14.0961C56.2031 14.3376 56.2949 14.5274 56.4693 14.6741C56.6438 14.8207 56.8733 14.9415 57.1579 15.045C57.4425 15.1399 57.7638 15.2262 58.131 15.2952C58.4983 15.3642 58.8747 15.4419 59.2603 15.5195C59.6367 15.5972 60.0039 15.7007 60.3712 15.8128C60.7384 15.925 61.0597 16.0803 61.3443 16.2787C61.6289 16.4771 61.8584 16.7187 62.0329 17.012C62.2073 17.3053 62.2991 17.6762 62.2991 18.1076C62.2991 18.6338 62.1706 19.0738 61.9135 19.4448C61.6565 19.8071 61.326 20.109 60.922 20.3333C60.518 20.5576 60.059 20.7302 59.5632 20.8337C59.0675 20.9372 58.5717 20.989 58.0851 20.989C57.4884 20.989 56.9375 20.9286 56.4326 20.7992C55.9277 20.6698 55.487 20.48 55.1197 20.2298C54.7525 19.971 54.4587 19.6518 54.2476 19.2722C54.0364 18.8926 53.9262 18.4354 53.9079 17.9092H56.0011V17.8919ZM62.85 11.879H64.4199V9.22189H66.4947V11.879H68.3676V13.3369H66.4947V18.0644C66.4947 18.2715 66.5039 18.444 66.5223 18.5993C66.5406 18.746 66.5865 18.8754 66.6508 18.9789C66.7151 19.0824 66.8161 19.1601 66.9538 19.2118C67.0915 19.2636 67.2659 19.2895 67.5046 19.2895C67.6515 19.2895 67.7984 19.2895 67.9453 19.2808C68.0922 19.2722 68.2391 19.255 68.386 19.2205V20.7302C68.1565 20.756 67.9269 20.7733 67.7158 20.7992C67.4954 20.8251 67.2751 20.8337 67.0456 20.8337C66.4947 20.8337 66.0541 20.7819 65.7236 20.687C65.393 20.5921 65.1268 20.4455 64.9432 20.2557C64.7504 20.0659 64.631 19.833 64.5576 19.5483C64.4933 19.2636 64.4474 18.9358 64.4382 18.5734V13.3542H62.8683V11.879H62.85ZM69.8365 11.879H71.8012V13.0781H71.838C72.1317 12.5605 72.5357 12.1982 73.059 11.9739C73.5823 11.7496 74.1423 11.6374 74.7574 11.6374C75.5011 11.6374 76.1438 11.7582 76.6946 12.0084C77.2454 12.2499 77.7045 12.5864 78.0717 13.0177C78.439 13.4491 78.7052 13.9494 78.8888 14.5188C79.0724 15.0882 79.1642 15.7007 79.1642 16.3477C79.1642 16.943 79.0816 17.521 78.9163 18.0731C78.7511 18.6338 78.5032 19.1256 78.1727 19.5569C77.8422 19.9882 77.4199 20.3247 76.9058 20.5835C76.3916 20.8423 75.7949 20.9717 75.0971 20.9717C74.7942 20.9717 74.4912 20.9458 74.1882 20.8941C73.8853 20.8423 73.5915 20.756 73.3161 20.6439C73.0406 20.5317 72.7744 20.3851 72.5449 20.2039C72.3062 20.0228 72.1134 19.8157 71.9481 19.5828H71.9114V23.9997H69.8365V11.879ZM77.0894 16.3132C77.0894 15.9164 77.0343 15.5281 76.9241 15.1486C76.814 14.769 76.6487 14.4412 76.4284 14.1478C76.208 13.8545 75.9326 13.6216 75.6113 13.4491C75.2808 13.2765 74.9043 13.1816 74.482 13.1816C73.6098 13.1816 72.9488 13.4663 72.5082 14.0357C72.0675 14.6051 71.8471 15.3642 71.8471 16.3132C71.8471 16.7618 71.9022 17.1759 72.0216 17.5555C72.1409 17.935 72.3062 18.2629 72.5449 18.5389C72.7744 18.815 73.0498 19.0307 73.3712 19.1859C73.6925 19.3499 74.0689 19.4275 74.4912 19.4275C74.9686 19.4275 75.3634 19.3326 75.6939 19.1514C76.0244 18.9703 76.2906 18.7287 76.5018 18.444C76.713 18.1507 76.869 17.8229 76.9608 17.4519C77.0435 17.081 77.0894 16.7014 77.0894 16.3132ZM80.7525 8.50586H82.8274V10.352H80.7525V8.50586ZM80.7525 11.879H82.8274V20.7302H80.7525V11.879ZM84.6819 8.50586H86.7567V20.7302H84.6819V8.50586ZM93.119 20.9717C92.3662 20.9717 91.696 20.8509 91.1084 20.618C90.5209 20.3851 90.0251 20.0573 89.612 19.6518C89.208 19.2377 88.8959 18.746 88.6847 18.1766C88.4736 17.6072 88.3634 16.9775 88.3634 16.2959C88.3634 15.623 88.4736 15.0019 88.6847 14.4325C88.8959 13.8632 89.208 13.3714 89.612 12.9573C90.0159 12.5432 90.5209 12.224 91.1084 11.9911C91.696 11.7582 92.3662 11.6374 93.119 11.6374C93.8718 11.6374 94.5421 11.7582 95.1296 11.9911C95.7172 12.224 96.213 12.5519 96.6261 12.9573C97.0301 13.3714 97.3422 13.8632 97.5534 14.4325C97.7645 15.0019 97.8747 15.623 97.8747 16.2959C97.8747 16.9775 97.7645 17.6072 97.5534 18.1766C97.3422 18.746 97.0301 19.2377 96.6261 19.6518C96.2221 20.0659 95.7172 20.3851 95.1296 20.618C94.5421 20.8509 93.8718 20.9717 93.119 20.9717ZM93.119 19.4275C93.5781 19.4275 93.982 19.3326 94.3217 19.1514C94.6614 18.9703 94.9368 18.7287 95.1572 18.4354C95.3775 18.1421 95.5336 17.8056 95.6438 17.4347C95.7447 17.0637 95.7998 16.6841 95.7998 16.2959C95.7998 15.9164 95.7447 15.5454 95.6438 15.1658C95.5428 14.7862 95.3775 14.4584 95.1572 14.1651C94.9368 13.8718 94.6614 13.6389 94.3217 13.4577C93.982 13.2765 93.5781 13.1816 93.119 13.1816C92.66 13.1816 92.256 13.2765 91.9163 13.4577C91.5767 13.6389 91.3012 13.8804 91.0809 14.1651C90.8606 14.4584 90.7045 14.7862 90.5943 15.1658C90.4933 15.5454 90.4382 15.9164 90.4382 16.2959C90.4382 16.6841 90.4933 17.0637 90.5943 17.4347C90.6953 17.8056 90.8606 18.1421 91.0809 18.4354C91.3012 18.7287 91.5767 18.9703 91.9163 19.1514C92.256 19.3412 92.66 19.4275 93.119 19.4275ZM98.4806 11.879H100.051V9.22189H102.125V11.879H103.998V13.3369H102.125V18.0644C102.125 18.2715 102.135 18.444 102.153 18.5993C102.171 18.746 102.217 18.8754 102.281 18.9789C102.346 19.0824 102.447 19.1601 102.584 19.2118C102.722 19.2636 102.897 19.2895 103.135 19.2895C103.282 19.2895 103.429 19.2895 103.576 19.2808C103.723 19.2722 103.87 19.255 104.017 19.2205V20.7302C103.787 20.756 103.558 20.7733 103.346 20.7992C103.126 20.8251 102.906 20.8337 102.676 20.8337C102.125 20.8337 101.685 20.7819 101.354 20.687C101.024 20.5921 100.757 20.4455 100.574 20.2557C100.381 20.0659 100.262 19.833 100.188 19.5483C100.124 19.2636 100.078 18.9358 100.069 18.5734V13.3542H98.499V11.879H98.4806Z" fill="#191919"></path>
        <path d="M24.9075 8.50611H15.3962L12.4583 0L9.5113 8.50611L0 8.49748L7.70268 13.7599L4.75565 22.2574L12.4583 17.0036L20.1518 22.2574L17.214 13.7599L24.9075 8.50611Z" fill="#00B67A"></path>
        <path d="M17.8737 15.6836L17.2127 13.7598L12.457 17.0035L17.8737 15.6836Z" fill="#005128"></path>
        </g>
        <rect x="112" y="5" width="1" height="20" fill="#B7C6D3"></rect>
        <path d="M226.648 19.1719V21H220.594V19.1719H226.648ZM221.359 9.625V21H219.016V9.625H221.359ZM225.859 14.2578V16.0391H220.594V14.2578H225.859ZM226.641 9.625V11.4609H220.594V9.625H226.641ZM229.688 12.5469L231.086 15.1172L232.523 12.5469H234.922L232.531 16.6797L235.031 21H232.625L231.102 18.2812L229.578 21H227.172L229.672 16.6797L227.281 12.5469H229.688ZM239.352 19.3984C239.628 19.3984 239.872 19.3464 240.086 19.2422C240.299 19.1328 240.466 18.9818 240.586 18.7891C240.711 18.5911 240.776 18.3594 240.781 18.0938H242.898C242.893 18.6875 242.734 19.2161 242.422 19.6797C242.109 20.138 241.69 20.5 241.164 20.7656C240.638 21.026 240.049 21.1562 239.398 21.1562C238.742 21.1562 238.169 21.0469 237.68 20.8281C237.195 20.6094 236.792 20.3073 236.469 19.9219C236.146 19.5312 235.904 19.0781 235.742 18.5625C235.581 18.0417 235.5 17.4844 235.5 16.8906V16.6641C235.5 16.0651 235.581 15.5078 235.742 14.9922C235.904 14.4714 236.146 14.0182 236.469 13.6328C236.792 13.2422 237.195 12.9375 237.68 12.7188C238.164 12.5 238.732 12.3906 239.383 12.3906C240.076 12.3906 240.682 12.5234 241.203 12.7891C241.729 13.0547 242.141 13.4349 242.438 13.9297C242.74 14.4193 242.893 15 242.898 15.6719H240.781C240.776 15.3906 240.716 15.1354 240.602 14.9062C240.492 14.6771 240.331 14.4948 240.117 14.3594C239.909 14.2188 239.651 14.1484 239.344 14.1484C239.016 14.1484 238.747 14.2188 238.539 14.3594C238.331 14.4948 238.169 14.6823 238.055 14.9219C237.94 15.1562 237.859 15.4245 237.812 15.7266C237.771 16.0234 237.75 16.3359 237.75 16.6641V16.8906C237.75 17.2188 237.771 17.5339 237.812 17.8359C237.854 18.138 237.932 18.4062 238.047 18.6406C238.167 18.875 238.331 19.0599 238.539 19.1953C238.747 19.3307 239.018 19.3984 239.352 19.3984ZM248.094 21.1562C247.438 21.1562 246.849 21.0521 246.328 20.8438C245.807 20.6302 245.365 20.3359 245 19.9609C244.641 19.5859 244.365 19.151 244.172 18.6562C243.979 18.1562 243.883 17.625 243.883 17.0625V16.75C243.883 16.1094 243.974 15.5234 244.156 14.9922C244.339 14.4609 244.599 14 244.938 13.6094C245.281 13.2188 245.698 12.9193 246.188 12.7109C246.677 12.4974 247.229 12.3906 247.844 12.3906C248.443 12.3906 248.974 12.4896 249.438 12.6875C249.901 12.8854 250.289 13.1667 250.602 13.5312C250.919 13.8958 251.159 14.3333 251.32 14.8438C251.482 15.349 251.562 15.9115 251.562 16.5312V17.4688H244.844V15.9688H249.352V15.7969C249.352 15.4844 249.294 15.2057 249.18 14.9609C249.07 14.7109 248.904 14.513 248.68 14.3672C248.456 14.2214 248.169 14.1484 247.82 14.1484C247.523 14.1484 247.268 14.2135 247.055 14.3438C246.841 14.474 246.667 14.6562 246.531 14.8906C246.401 15.125 246.302 15.401 246.234 15.7188C246.172 16.0312 246.141 16.375 246.141 16.75V17.0625C246.141 17.401 246.188 17.7135 246.281 18C246.38 18.2865 246.518 18.5339 246.695 18.7422C246.878 18.9505 247.096 19.112 247.352 19.2266C247.612 19.3411 247.906 19.3984 248.234 19.3984C248.641 19.3984 249.018 19.3203 249.367 19.1641C249.721 19.0026 250.026 18.7604 250.281 18.4375L251.375 19.625C251.198 19.8802 250.956 20.125 250.648 20.3594C250.346 20.5938 249.982 20.7865 249.555 20.9375C249.128 21.0833 248.641 21.1562 248.094 21.1562ZM255.219 9V21H252.961V9H255.219ZM259.453 9V21H257.195V9H259.453ZM265.203 21.1562C264.547 21.1562 263.958 21.0521 263.438 20.8438C262.917 20.6302 262.474 20.3359 262.109 19.9609C261.75 19.5859 261.474 19.151 261.281 18.6562C261.089 18.1562 260.992 17.625 260.992 17.0625V16.75C260.992 16.1094 261.083 15.5234 261.266 14.9922C261.448 14.4609 261.708 14 262.047 13.6094C262.391 13.2188 262.807 12.9193 263.297 12.7109C263.786 12.4974 264.339 12.3906 264.953 12.3906C265.552 12.3906 266.083 12.4896 266.547 12.6875C267.01 12.8854 267.398 13.1667 267.711 13.5312C268.029 13.8958 268.268 14.3333 268.43 14.8438C268.591 15.349 268.672 15.9115 268.672 16.5312V17.4688H261.953V15.9688H266.461V15.7969C266.461 15.4844 266.404 15.2057 266.289 14.9609C266.18 14.7109 266.013 14.513 265.789 14.3672C265.565 14.2214 265.279 14.1484 264.93 14.1484C264.633 14.1484 264.378 14.2135 264.164 14.3438C263.951 14.474 263.776 14.6562 263.641 14.8906C263.51 15.125 263.411 15.401 263.344 15.7188C263.281 16.0312 263.25 16.375 263.25 16.75V17.0625C263.25 17.401 263.297 17.7135 263.391 18C263.49 18.2865 263.628 18.5339 263.805 18.7422C263.987 18.9505 264.206 19.112 264.461 19.2266C264.721 19.3411 265.016 19.3984 265.344 19.3984C265.75 19.3984 266.128 19.3203 266.477 19.1641C266.831 19.0026 267.135 18.7604 267.391 18.4375L268.484 19.625C268.307 19.8802 268.065 20.125 267.758 20.3594C267.456 20.5938 267.091 20.7865 266.664 20.9375C266.237 21.0833 265.75 21.1562 265.203 21.1562ZM272.156 14.3516V21H269.906V12.5469H272.016L272.156 14.3516ZM271.828 16.4766H271.219C271.219 15.8516 271.299 15.2891 271.461 14.7891C271.622 14.2839 271.849 13.8542 272.141 13.5C272.432 13.1406 272.779 12.8672 273.18 12.6797C273.586 12.487 274.039 12.3906 274.539 12.3906C274.935 12.3906 275.297 12.4479 275.625 12.5625C275.953 12.6771 276.234 12.8594 276.469 13.1094C276.708 13.3594 276.891 13.6901 277.016 14.1016C277.146 14.513 277.211 15.0156 277.211 15.6094V21H274.945V15.6016C274.945 15.2266 274.893 14.9349 274.789 14.7266C274.685 14.5182 274.531 14.3724 274.328 14.2891C274.13 14.2005 273.885 14.1562 273.594 14.1562C273.292 14.1562 273.029 14.2161 272.805 14.3359C272.586 14.4557 272.404 14.6224 272.258 14.8359C272.117 15.0443 272.01 15.2891 271.938 15.5703C271.865 15.8516 271.828 16.1536 271.828 16.4766ZM283.062 12.5469V14.1406H278.141V12.5469H283.062ZM279.359 10.4609H281.609V18.4531C281.609 18.6979 281.641 18.8854 281.703 19.0156C281.771 19.1458 281.87 19.237 282 19.2891C282.13 19.3359 282.294 19.3594 282.492 19.3594C282.633 19.3594 282.758 19.3542 282.867 19.3438C282.982 19.3281 283.078 19.3125 283.156 19.2969L283.164 20.9531C282.971 21.0156 282.763 21.0651 282.539 21.1016C282.315 21.138 282.068 21.1562 281.797 21.1562C281.302 21.1562 280.87 21.0755 280.5 20.9141C280.135 20.7474 279.854 20.4818 279.656 20.1172C279.458 19.7526 279.359 19.2734 279.359 18.6797V10.4609Z" fill="#1D1D1D"></path>
        <rect x="122" y="7" width="16" height="16" fill="#00B67A"></rect>
        <path fill-rule="evenodd" clip-rule="evenodd" d="M131.418 13.586H136L132.293 16.4186L132.293 16.4187L130.002 18.1674L132.612 17.4558L132.308 16.467L133.709 21L130.002 18.1674L126.291 21L127.711 16.4186L124 13.5814L128.582 13.586L130.002 9L131.418 13.586Z" fill="white"></path>
        <rect x="140" y="7" width="16" height="16" fill="#00B67A"></rect>
        <path fill-rule="evenodd" clip-rule="evenodd" d="M149.418 13.586H154L150.293 16.4186L150.293 16.4187L148.002 18.1674L150.612 17.4558L150.308 16.467L151.709 21L148.002 18.1674L144.291 21L145.711 16.4186L142 13.5814L146.582 13.586L148.002 9L149.418 13.586Z" fill="white"></path>
        <rect x="158" y="7" width="16" height="16" fill="#00B67A"></rect>
        <path fill-rule="evenodd" clip-rule="evenodd" d="M167.418 13.586H172L168.293 16.4186L168.293 16.4187L166.002 18.1674L168.612 17.4558L168.308 16.467L169.709 21L166.002 18.1674L162.291 21L163.711 16.4186L160 13.5814L164.582 13.586L166.002 9L167.418 13.586Z" fill="white"></path>
        <rect x="176" y="7" width="16" height="16" fill="#00B67A"></rect>
        <path fill-rule="evenodd" clip-rule="evenodd" d="M185.418 13.586H190L186.293 16.4186L186.293 16.4187L184.002 18.1674L186.612 17.4558L186.308 16.467L187.709 21L184.002 18.1674L180.291 21L181.711 16.4186L178 13.5814L182.582 13.586L184.002 9L185.418 13.586Z" fill="white"></path>
        <rect x="194" y="7" width="16" height="16" fill="#00B67A"></rect>
        <path fill-rule="evenodd" clip-rule="evenodd" d="M203.418 13.586H208L204.293 16.4186L204.293 16.4187L202.002 18.1674L204.612 17.4558L204.308 16.467L205.709 21L202.002 18.1674L198.291 21L199.711 16.4186L196 13.5814L200.582 13.586L202.002 9L203.418 13.586Z" fill="white"></path>
        <defs>
        <clipPath id="clip0_174_37700">
        <rect width="104" height="24" fill="white"></rect>
        </clipPath>
        </defs>
      </svg>