<svg width="99" height="24" viewBox="0 0 99 24" fill="none" xmlns="http://www.w3.org/2000/svg">
<path d="M5.04757 23.5015C8.0562 23.5015 9.85347 21.9834 9.85347 19.6011V19.593C9.85347 17.7114 8.74502 16.7181 6.31436 16.2336L5.13466 15.9994C3.89953 15.7491 3.37698 15.3857 3.37698 14.7235V14.7154C3.37698 14.0209 3.99454 13.5445 5.03965 13.5445C5.69936 13.5445 6.37349 13.7584 6.72182 14.2835C6.91755 14.5785 7.19982 14.8527 7.55389 14.8527H8.84782C9.27006 14.8527 9.60955 14.4879 9.49769 14.0807C8.95886 12.1193 7.0459 11.2188 5.02381 11.2188C2.39521 11.2188 0.495022 12.6885 0.487104 14.9738V14.9819C0.487104 16.7989 1.53221 17.9618 3.94704 18.4382L5.12674 18.6724C6.46479 18.9389 6.97151 19.2458 6.97151 19.8999V19.908C6.97151 20.6509 6.22727 21.1758 5.09507 21.1758C4.45252 21.1758 3.6648 20.9959 3.27908 20.4669C3.06181 20.169 2.77303 19.8676 2.40427 19.8676H1.0442C0.629719 19.8676 0.29206 20.2198 0.392045 20.622C0.901898 22.6732 2.98806 23.5015 5.04757 23.5015Z" fill="white"/>
<path d="M12.8862 22.6434C12.968 22.963 13.2561 23.1866 13.5861 23.1866H15.2076C15.5359 23.1866 15.8229 22.9653 15.9064 22.6478L17.623 16.1169C17.6337 16.0763 17.6705 16.0479 17.7126 16.0479C17.7545 16.0479 17.7912 16.0761 17.8021 16.1166L19.5486 22.6506C19.633 22.9667 19.9194 23.1866 20.2466 23.1866H21.8546C22.1846 23.1866 22.4727 22.963 22.5546 22.6434L25.1693 12.4355C25.2864 11.9785 24.9412 11.5337 24.4694 11.5337H23.0035C22.6575 11.5337 22.36 11.7791 22.2942 12.1189L20.925 19.1902C20.9169 19.2318 20.8805 19.2619 20.8381 19.2619C20.7973 19.2619 20.7618 19.2341 20.7521 19.1944L19.0112 12.0844C18.932 11.7611 18.6422 11.5337 18.3094 11.5337H17.1201C16.7851 11.5337 16.4941 11.7639 16.417 12.0898L14.7357 19.1939C14.7263 19.2338 14.6907 19.2619 14.6498 19.2619C14.6076 19.2619 14.5713 19.2321 14.5631 19.1906L13.1717 12.1168C13.105 11.778 12.808 11.5337 12.4627 11.5337H10.9713C10.4996 11.5337 10.1543 11.9785 10.2714 12.4355L12.8862 22.6434Z" fill="white"/>
<path d="M26.4265 22.4641C26.4265 22.8631 26.75 23.1866 27.149 23.1866H28.6097C29.0087 23.1866 29.3322 22.8631 29.3322 22.4641V12.2562C29.3322 11.8572 29.0087 11.5337 28.6097 11.5337H27.149C26.75 11.5337 26.4265 11.8572 26.4265 12.2562V22.4641Z" fill="white"/>
<path d="M30.9499 22.4641C30.9499 22.8631 31.2734 23.1866 31.6725 23.1866H32.9827C33.3817 23.1866 33.7052 22.8631 33.7052 22.4641V16.659C33.7052 16.6069 33.7474 16.5647 33.7995 16.5647C33.8298 16.5647 33.8582 16.5793 33.876 16.6038L38.4136 22.8871C38.5494 23.0752 38.7673 23.1866 38.9993 23.1866H40.2113C40.6104 23.1866 40.9339 22.8631 40.9339 22.4641V12.2562C40.9339 11.8572 40.6104 11.5337 40.2113 11.5337H38.9011C38.5021 11.5337 38.1786 11.8572 38.1786 12.2562V17.9966C38.1786 18.0487 38.1363 18.091 38.0842 18.091C38.0539 18.091 38.0256 18.0765 38.0078 18.0521L33.4861 11.8314C33.3502 11.6444 33.1329 11.5337 32.9017 11.5337H31.6725C31.2734 11.5337 30.9499 11.8572 30.9499 12.2562V22.4641Z" fill="white"/>
<path d="M47.724 23.5015C50.9543 23.5015 52.9099 21.5392 52.9099 18.3332V17.5537C52.9099 17.1547 52.5864 16.8312 52.1874 16.8312H48.7394C48.3404 16.8312 48.0169 17.1547 48.0169 17.5537V18.1437C48.0169 18.5427 48.3404 18.8662 48.7394 18.8662H49.9132C50.019 18.8662 50.1035 18.9543 50.0992 19.06C50.02 20.2552 49.1095 21.0466 47.7873 21.0466C46.1246 21.0466 45.0479 19.6253 45.0479 17.3238V17.3077C45.0479 15.0465 46.0217 13.6737 47.6448 13.6737C48.4954 13.6737 49.3263 14.058 49.7307 14.7935C49.8943 15.0913 50.1752 15.3372 50.515 15.3372H52.0022C52.4291 15.3372 52.7686 14.9652 52.6501 14.5551C52.0286 12.4045 49.8149 11.2188 47.6448 11.2188C44.2165 11.2188 42.0947 13.5606 42.0947 17.34V17.3561C42.0947 21.1839 44.2086 23.5015 47.724 23.5015Z" fill="white"/>
<path opacity="0.4" d="M56.6704 4.90092C46.5332 -2.75287 28.8261 -0.0676525 10.7363 10.1975C10.5435 10.3069 10.6188 10.6006 10.8405 10.6006H12.7161C12.7471 10.6006 12.7789 10.5935 12.8071 10.5806C37.7697 -0.786922 44.483 2.42528 56.4952 5.25813C56.7171 5.31045 56.8524 5.03828 56.6704 4.90092Z" fill="#CCD4DA"/>
<path fill-rule="evenodd" clip-rule="evenodd" d="M61.124 7.89747C60.5057 7.67524 59.8406 7.55435 59.1477 7.55435C56.4043 7.55435 54.0949 9.44992 53.4098 12.027C51.8032 7.17886 49.0346 2.46091 40.5347 0.51269C47.9173 0.412063 54.7631 0.741185 61.124 7.89747Z" fill="white"/>
<path fill-rule="evenodd" clip-rule="evenodd" d="M59.1477 18.8165C61.9598 18.8165 64.2395 16.4913 64.2395 13.6231C64.2395 10.7548 61.9598 8.42969 59.1477 8.42969C56.3356 8.42969 54.0559 10.7548 54.0559 13.6231C54.0559 16.4913 56.3356 18.8165 59.1477 18.8165ZM61.3728 14.3835C61.3728 15.5666 60.4921 16.3444 59.1495 16.3444C57.8034 16.3444 56.9227 15.5666 56.9227 14.3835V11.601C56.9227 11.1555 57.1661 10.9035 57.5814 10.9035C57.9967 10.9035 58.2366 11.1555 58.2366 11.601V14.2411C58.2366 14.8546 58.5624 15.2197 59.1495 15.2197C59.7331 15.2197 60.0589 14.8546 60.0589 14.2411V11.601C60.0589 11.1555 60.2988 10.9035 60.7141 10.9035C61.1329 10.9035 61.3728 11.1555 61.3728 11.601V14.3835Z" fill="white"/>
<path d="M67.7344 22.4289C67.7344 22.8551 68.0799 23.2007 68.5062 23.2007H69.8499C70.2761 23.2007 70.6217 22.8551 70.6217 22.4289V19.8067H72.5728C75.1061 19.8067 76.7425 18.2181 76.7425 15.7388V15.7227C76.7425 13.2434 75.1061 11.6227 72.5728 11.6227H68.5062C68.0799 11.6227 67.7344 11.9682 67.7344 12.3945V22.4289ZM71.8805 13.8773C73.0999 13.8773 73.8237 14.5192 73.8237 15.7227V15.7388C73.8237 16.9423 73.0999 17.5922 71.8805 17.5922H70.6217V13.8773H71.8805Z" fill="white"/>
<path d="M77.7026 22.4289C77.7026 22.8551 78.0482 23.2007 78.4744 23.2007H79.8181C80.2443 23.2007 80.5899 22.8551 80.5899 22.4289V19.213H82.0611L83.8005 22.7681C83.9301 23.0328 84.1991 23.2007 84.4938 23.2007H85.9897C86.5671 23.2007 86.94 22.59 86.6764 22.0764L84.9799 18.7717C86.16 18.2501 86.9152 16.9664 86.9152 15.482V15.466C86.9152 13.0108 85.3654 11.6227 82.6197 11.6227H78.4744C78.0482 11.6227 77.7026 11.9682 77.7026 12.3945V22.4289ZM80.5899 17.0787V13.8452H82.2814C83.2963 13.8452 83.9729 14.4871 83.9729 15.4579V15.474C83.9729 16.4529 83.3199 17.0787 82.2971 17.0787H80.5899Z" fill="white"/>
<path d="M93.3353 23.4093C96.7969 23.4093 98.9447 21.1065 98.9447 17.4157V17.3996C98.9447 13.7168 96.789 11.4141 93.3353 11.4141C89.9051 11.4141 87.7338 13.7168 87.7338 17.3996V17.4157C87.7338 21.1065 89.8894 23.4093 93.3353 23.4093ZM93.3353 20.9701C91.7146 20.9701 90.6761 19.6142 90.6761 17.4157V17.3996C90.6761 15.2012 91.7225 13.8532 93.3353 13.8532C94.9638 13.8532 96.0102 15.2092 96.0102 17.3996V17.4157C96.0102 19.5901 94.9874 20.9701 93.3353 20.9701Z" fill="white"/>
</svg>
