<svg width="16" height="16" viewBox="0 0 16 16" fill="none" xmlns="http://www.w3.org/2000/svg">
<path opacity="0.2" d="M8 15.3511C3.81055 15.3511 0.36084 11.9014 0.36084 7.71191C0.36084 3.52979 3.81055 0.0727539 7.99268 0.0727539C12.1821 0.0727539 15.6392 3.52979 15.6392 7.71191C15.6392 11.9014 12.1895 15.3511 8 15.3511ZM8 13.6738C11.3032 13.6738 13.9619 11.0151 13.9619 7.71191C13.9619 4.40869 11.3032 1.75 7.99268 1.75C4.68945 1.75 2.04541 4.40869 2.04541 7.71191C2.04541 11.0151 4.69678 13.6738 8 13.6738ZM5.29004 8.46631C4.82861 8.46631 4.49902 8.18066 4.49902 7.72656C4.49902 7.27246 4.82129 6.97949 5.29004 6.97949H10.71C11.1787 6.97949 11.4937 7.27246 11.4937 7.72656C11.4937 8.18066 11.1641 8.46631 10.71 8.46631H5.29004Z" fill="white"/>
</svg>
