<svg width="32" height="32" viewBox="0 0 32 32" fill="none" xmlns="http://www.w3.org/2000/svg">
<rect width="32" height="32" fill="#EDEDED"/>
<g id="Design">
<rect width="8701" height="7743" transform="translate(-7453 -930)" fill="#DADADA"/>
<g id="Chrome &#226;&#128;&#148; Default" clip-path="url(#clip0_1_2)">
<rect width="375" height="812" transform="translate(-29 -426)" fill="#898989"/>
<g id="Rectangle 4353" filter="url(#filter0_d_1_2)">
<rect x="-29" width="300" height="62" fill="#275485"/>
</g>
<g id="Frame 1000004537">
<rect x="-8" y="-10" width="259" height="52" rx="4" fill="white"/>
<g id="quality 1">
<path id="Vector" fill-rule="evenodd" clip-rule="evenodd" d="M25.479 21.0526L29.0158 27.1784C29.1495 27.41 28.9519 27.6914 28.6887 27.6442L24.0701 26.8159L22.4782 31.2298C22.3874 31.4813 22.0449 31.5118 21.9112 31.2802L18.483 25.3424C18.7829 25.1292 19.0537 24.8717 19.2824 24.5692C19.5127 24.2647 19.8732 24.1476 20.2385 24.2586C22.4845 24.9412 25.0189 23.3 25.479 21.0526ZM11.5762 17.5075H12.7142C12.8657 17.5075 12.9895 17.3836 12.9895 17.2322V11.602C12.9895 11.4506 12.8657 11.3267 12.7142 11.3267H11.5762C11.4248 11.3267 11.3009 11.4506 11.3009 11.602V17.2322C11.3009 17.3837 11.4248 17.5075 11.5762 17.5075ZM13.9856 17.3329L14.3182 17.5076H18.6786C19.1215 17.5076 19.484 17.1452 19.484 16.7022C19.484 16.2592 19.1215 15.8968 18.6786 15.8968H19.0824C19.5253 15.8968 19.8877 15.5333 19.8877 15.0891C19.8877 14.6447 19.5253 14.2812 19.0824 14.2812H19.4862C19.9291 14.2812 20.2915 13.9177 20.2915 13.4734C20.2915 13.0291 19.9291 12.6656 19.4862 12.6656H19.89C20.3329 12.6656 20.6954 12.3021 20.6954 11.8578C20.6954 11.4135 20.3329 11.05 19.89 11.05L17.0145 11.0645C17.321 9.8708 17.818 8.29099 17.8647 7.78737C17.9725 6.62512 17.0101 5.80243 16.4608 6.71605L13.8599 11.0422C13.9429 11.2113 13.9897 11.4013 13.9895 11.6021L13.9856 17.3329ZM25.8162 18.6394C27.6187 18.0154 28.4444 15.474 27.353 13.9097C26.8939 13.2516 26.8938 12.4181 27.353 11.76C28.4444 10.1957 27.6187 7.65424 25.8163 7.03018C25.058 6.76768 24.568 6.09337 24.5527 5.29105C24.5162 3.38399 22.3544 1.81324 20.5293 2.3678C19.7615 2.60112 18.9688 2.34368 18.4848 1.70362C17.3344 0.18218 14.6621 0.182117 13.5116 1.70349C13.0276 2.34355 12.2349 2.60124 11.4672 2.36787C9.64217 1.81318 7.48017 3.38387 7.44367 5.29093C7.4283 6.09324 6.93848 6.76762 6.18017 7.03012C4.37767 7.65412 3.55186 10.1956 4.64323 11.7599C5.10242 12.418 5.10248 13.2514 4.6433 13.9096C3.5518 15.4738 4.37755 18.0154 6.17998 18.6394C6.9383 18.9019 7.4283 19.5762 7.44361 20.3785C7.48005 22.2856 9.64192 23.8563 11.4669 23.3017C12.2347 23.0684 13.0274 23.3259 13.5114 23.9659C14.6619 25.4874 17.3342 25.4874 18.4847 23.966C18.9687 23.3259 19.7613 23.0684 20.5291 23.3017C22.3541 23.8564 24.516 22.2856 24.5525 20.3786C24.568 19.5762 25.0579 18.902 25.8162 18.6394ZM15.9982 4.82105C20.424 4.82105 24.0119 8.40893 24.0119 12.8348C24.0119 17.2607 20.424 20.8486 15.9982 20.8486C11.5723 20.8486 7.98442 17.2607 7.98442 12.8348C7.98442 8.40893 11.5723 4.82105 15.9982 4.82105ZM13.5133 25.3424L10.085 31.2802C9.95136 31.5118 9.60886 31.4813 9.51811 31.2298L7.92611 26.8159L3.30761 27.6442C3.04442 27.6914 2.84673 27.41 2.98048 27.1784L6.51723 21.0526C6.97736 23.2999 9.51173 24.9411 11.7577 24.2586C12.1229 24.1476 12.4836 24.2646 12.7139 24.5691C12.9426 24.8717 13.2134 25.1292 13.5133 25.3424Z" fill="#006396"/>
</g>
</g>
</g>
</g>
<defs>
<filter id="filter0_d_1_2" x="-31" y="-4" width="308" height="70" filterUnits="userSpaceOnUse" color-interpolation-filters="sRGB">
<feFlood flood-opacity="0" result="BackgroundImageFix"/>
<feColorMatrix in="SourceAlpha" type="matrix" values="0 0 0 0 0 0 0 0 0 0 0 0 0 0 0 0 0 0 127 0" result="hardAlpha"/>
<feOffset dx="2"/>
<feGaussianBlur stdDeviation="2"/>
<feComposite in2="hardAlpha" operator="out"/>
<feColorMatrix type="matrix" values="0 0 0 0 0 0 0 0 0 0 0 0 0 0 0 0 0 0 0.25 0"/>
<feBlend mode="normal" in2="BackgroundImageFix" result="effect1_dropShadow_1_2"/>
<feBlend mode="normal" in="SourceGraphic" in2="effect1_dropShadow_1_2" result="shape"/>
</filter>
<clipPath id="clip0_1_2">
<rect width="375" height="812" fill="white" transform="translate(-29 -426)"/>
</clipPath>
</defs>
</svg>
