<svg width="27" height="26" viewBox="0 0 27 26" fill="none" xmlns="http://www.w3.org/2000/svg">
<path d="M25.38 13.2708C25.38 12.4258 25.3013 11.6133 25.155 10.8333H13.5V15.4483H20.16C19.8675 16.9325 18.99 18.1891 17.6737 19.0341V22.035H21.69C24.03 19.955 25.38 16.9 25.38 13.2708Z" fill="white"/>
<path d="M13.5001 24.9167C16.8414 24.9167 19.6426 23.855 21.6901 22.035L17.6739 19.0342C16.5714 19.7492 15.1651 20.1825 13.5001 20.1825C10.2826 20.1825 7.54889 18.0917 6.57014 15.275H2.45264V18.3517C4.48889 22.2409 8.66264 24.9167 13.5001 24.9167Z" fill="white"/>
<path d="M6.57 15.2642C6.3225 14.5492 6.17625 13.7908 6.17625 13C6.17625 12.2092 6.3225 11.4508 6.57 10.7358V7.65918H2.4525C1.60875 9.26251 1.125 11.0717 1.125 13C1.125 14.9283 1.60875 16.7375 2.4525 18.3408L5.65875 15.9358L6.57 15.2642Z" fill="white"/>
<path d="M13.5001 5.82831C15.3226 5.82831 16.9426 6.43498 18.2364 7.60498L21.7801 4.19248C19.6314 2.26415 16.8414 1.08331 13.5001 1.08331C8.66264 1.08331 4.48889 3.75915 2.45264 7.65915L6.57014 10.7358C7.54889 7.91915 10.2826 5.82831 13.5001 5.82831Z" fill="white"/>
</svg>
