<svg width="149" height="56" viewBox="0 0 149 56" fill="none" xmlns="http://www.w3.org/2000/svg">
<path d="M7.88901 40.2731C6.51156 40.2731 4.75845 40.0226 3.25578 38.9582C0.563501 37.0173 0 33.198 0 33.0102C0 32.8223 0.125223 32.6345 0.313055 32.5719C0.500889 32.5719 4.25756 31.7579 7.01245 33.6989C7.63856 34.1372 8.13945 34.6381 8.51512 35.2642C8.3899 34.325 8.26468 33.3858 8.26468 32.4467C8.26468 32.071 8.26468 31.6327 8.26468 31.2571C7.51334 31.1318 4.25756 30.3179 2.62967 27.7508C0.813948 24.9333 1.81573 21.1767 1.81573 21.0514C1.87834 20.8636 2.06617 20.7384 2.25401 20.7384C2.37923 20.801 6.19851 21.4897 8.01423 24.2446C8.3899 24.8707 8.70295 25.5594 8.82818 26.1856C9.14123 24.8707 9.57951 23.6185 10.0804 22.4289C9.45429 21.9906 6.76201 20.0497 6.19851 17.0443C5.57239 13.7885 7.88901 10.658 7.95162 10.5328C8.07684 10.3449 8.32729 10.2823 8.51512 10.4075C8.64034 10.4702 11.8961 12.5363 12.5222 15.8547C12.6475 16.606 12.6475 17.2948 12.5848 17.9835C13.3988 16.7939 14.338 15.7295 15.4023 14.6651C14.9641 13.9764 13.3362 11.1589 13.9623 8.27876C14.651 5.02298 18.032 3.08203 18.1572 2.95681C18.3451 2.83159 18.5955 2.8942 18.7207 3.08203C18.7834 3.20726 21.0374 6.40043 20.286 9.65621C19.8477 11.5345 18.5955 12.9746 17.5311 13.9138C17.4059 14.039 17.2807 14.1642 17.1555 14.2268H17.0929C11.7083 18.86 8.76556 25.4342 8.9534 32.3215C9.32907 40.7113 14.1501 48.2873 21.7887 52.2944C21.9765 52.4196 22.0391 52.6701 21.9765 52.8579C21.9139 52.9831 21.7887 53.1084 21.6009 53.1084C21.5382 53.1084 21.4756 53.1084 21.413 53.0457C18.9086 51.7309 16.6546 50.0404 14.7762 48.0368C14.2127 48.4125 12.084 49.6647 9.70473 49.6647C9.26645 49.6647 8.82818 49.6021 8.32729 49.5395C5.07151 48.8508 3.13056 45.4698 3.00534 45.3446C2.88012 45.1567 2.94272 44.9063 3.13056 44.7811C3.25578 44.6558 6.44895 42.4645 9.70473 43.2158C10.4561 43.4036 11.1448 43.6541 11.7709 44.0923C11.0196 42.8401 10.3308 41.5253 9.82996 40.1478C9.5169 40.1478 8.82818 40.2731 7.88901 40.2731Z" fill="white"/>
<path d="M60.6 36V30.68H46.72V26.84L59.92 8H65.36V26.48H69.16V30.68H65.36V36H60.6ZM51.88 26.48H60.88V13.28L51.88 26.48ZM75.2678 36.2C74.3611 36.2 73.6278 35.92 73.0678 35.36C72.5078 34.8 72.2278 34.1333 72.2278 33.36C72.2278 32.5333 72.5078 31.84 73.0678 31.28C73.6278 30.72 74.3611 30.44 75.2678 30.44C76.1478 30.44 76.8678 30.72 77.4278 31.28C77.9878 31.84 78.2678 32.5333 78.2678 33.36C78.2678 34.1333 77.9878 34.8 77.4278 35.36C76.8678 35.92 76.1478 36.2 75.2678 36.2ZM90.95 36.48C89.0567 36.48 87.4433 36.12 86.11 35.4C84.8033 34.6533 83.7767 33.68 83.03 32.48C82.2833 31.2533 81.8433 29.9467 81.71 28.56H86.15C86.39 29.8133 86.9233 30.7867 87.75 31.48C88.6033 32.1467 89.6967 32.48 91.03 32.48C92.2567 32.48 93.3233 32.12 94.23 31.4C95.1367 30.6533 95.8567 29.5467 96.39 28.08C96.95 26.5867 97.2567 24.72 97.31 22.48C97.31 22.4267 97.31 22.36 97.31 22.28C97.31 22.2 97.31 22.12 97.31 22.04C96.91 22.7867 96.35 23.4667 95.63 24.08C94.91 24.6933 94.07 25.1733 93.11 25.52C92.1767 25.8667 91.1633 26.04 90.07 26.04C88.5233 26.04 87.0567 25.68 85.67 24.96C84.31 24.2133 83.2167 23.16 82.39 21.8C81.5633 20.44 81.15 18.84 81.15 17C81.15 15.32 81.55 13.76 82.35 12.32C83.15 10.88 84.2833 9.72 85.75 8.84C87.2167 7.96 88.91 7.52 90.83 7.52C92.9367 7.52 94.6967 7.90667 96.11 8.68C97.55 9.45333 98.6967 10.4933 99.55 11.8C100.403 13.08 101.017 14.52 101.39 16.12C101.79 17.72 101.99 19.36 101.99 21.04C101.99 24.1333 101.55 26.84 100.67 29.16C99.8167 31.48 98.5633 33.28 96.91 34.56C95.2833 35.84 93.2967 36.48 90.95 36.48ZM91.19 21.96C92.2033 21.96 93.11 21.7467 93.91 21.32C94.7367 20.8667 95.39 20.2533 95.87 19.48C96.35 18.68 96.59 17.8 96.59 16.84C96.59 15.8267 96.35 14.9333 95.87 14.16C95.39 13.36 94.7367 12.7467 93.91 12.32C93.11 11.8667 92.19 11.64 91.15 11.64C90.11 11.64 89.19 11.8667 88.39 12.32C87.59 12.7733 86.95 13.3867 86.47 14.16C86.0167 14.9067 85.79 15.7867 85.79 16.8C85.79 17.84 86.0167 18.7467 86.47 19.52C86.95 20.2933 87.59 20.8933 88.39 21.32C89.2167 21.7467 90.15 21.96 91.19 21.96Z" fill="white"/>
<g clip-path="url(#clip0_2147_4417)">
<path d="M47.9686 48.6563C47.8896 48.4238 47.6741 48.2593 47.4201 48.2373L43.9561 47.9365L42.5871 44.8706C42.486 44.6454 42.256 44.5 42 44.5C41.744 44.5 41.5139 44.6454 41.4135 44.8706L40.0445 47.9365L36.5799 48.2373C36.3259 48.2597 36.1109 48.4243 36.0314 48.6563C35.9524 48.8887 36.0254 49.1436 36.2174 49.3048L38.836 51.5011L38.0639 54.7539C38.0074 54.993 38.1045 55.2403 38.3119 55.3838C38.4234 55.4613 38.5545 55.5 38.6859 55.5C38.7989 55.5 38.912 55.4713 39.013 55.4135L42 53.705L44.9865 55.4135C45.2056 55.5387 45.4811 55.5272 45.6881 55.3838C45.8955 55.2403 45.9926 54.993 45.9361 54.7539L45.164 51.5011L47.7826 49.3048C47.9746 49.1436 48.0476 48.8892 47.9686 48.6563Z" fill="#FFA818"/>
</g>
<g clip-path="url(#clip1_2147_4417)">
<path d="M63.9686 48.6563C63.8896 48.4238 63.6741 48.2593 63.4201 48.2373L59.9561 47.9365L58.5871 44.8706C58.486 44.6454 58.256 44.5 58 44.5C57.744 44.5 57.5139 44.6454 57.4135 44.8706L56.0445 47.9365L52.5799 48.2373C52.3259 48.2597 52.1109 48.4243 52.0314 48.6563C51.9524 48.8887 52.0254 49.1436 52.2174 49.3048L54.836 51.5011L54.0639 54.7539C54.0074 54.993 54.1045 55.2403 54.3119 55.3838C54.4234 55.4613 54.5545 55.5 54.6859 55.5C54.7989 55.5 54.912 55.4713 55.013 55.4135L58 53.705L60.9865 55.4135C61.2056 55.5387 61.4811 55.5272 61.6881 55.3838C61.8955 55.2403 61.9926 54.993 61.9361 54.7539L61.164 51.5011L63.7826 49.3048C63.9746 49.1436 64.0476 48.8892 63.9686 48.6563Z" fill="#FFA818"/>
</g>
<g clip-path="url(#clip2_2147_4417)">
<path d="M79.9686 48.6563C79.8896 48.4238 79.6741 48.2593 79.4201 48.2373L75.9561 47.9365L74.5871 44.8706C74.486 44.6454 74.256 44.5 74 44.5C73.744 44.5 73.5139 44.6454 73.4135 44.8706L72.0445 47.9365L68.5799 48.2373C68.3259 48.2597 68.1109 48.4243 68.0314 48.6563C67.9524 48.8887 68.0254 49.1436 68.2174 49.3048L70.836 51.5011L70.0639 54.7539C70.0074 54.993 70.1045 55.2403 70.3119 55.3838C70.4234 55.4613 70.5545 55.5 70.6859 55.5C70.7989 55.5 70.912 55.4713 71.013 55.4135L74 53.705L76.9865 55.4135C77.2056 55.5387 77.4811 55.5272 77.6881 55.3838C77.8955 55.2403 77.9926 54.993 77.9361 54.7539L77.164 51.5011L79.7826 49.3048C79.9746 49.1436 80.0476 48.8892 79.9686 48.6563Z" fill="#FFA818"/>
</g>
<path d="M95.9686 48.5341C95.8896 48.2806 95.6741 48.101 95.4201 48.0771L91.9561 47.7489L90.5871 44.4043C90.486 44.1586 90.256 44 90 44C89.744 44 89.5139 44.1586 89.4135 44.4043L88.0445 47.7489L84.5799 48.0771C84.3259 48.1015 84.1109 48.281 84.0314 48.5341C83.9524 48.7877 84.0254 49.0658 84.2174 49.2416L86.836 51.6376L86.0639 55.186C86.0074 55.4469 86.1045 55.7167 86.3119 55.8732C86.4234 55.9578 86.5545 56 86.6859 56C86.7989 56 86.912 55.9687 87.013 55.9056L90 54.0419L92.9865 55.9056C93.2056 56.0422 93.4811 56.0297 93.6881 55.8732C93.8955 55.7167 93.9926 55.4469 93.9361 55.186L93.164 51.6376L95.7826 49.2416C95.9746 49.0658 96.0476 48.7882 95.9686 48.5341Z" fill="#FFA818"/>
<g clip-path="url(#clip3_2147_4417)">
<path d="M111.969 48.6563C111.89 48.4238 111.674 48.2593 111.42 48.2373L107.956 47.9365L106.587 44.8706C106.486 44.6454 106.256 44.5 106 44.5C105.744 44.5 105.514 44.6454 105.414 44.8706L104.045 47.9365L100.58 48.2373C100.326 48.2597 100.111 48.4243 100.031 48.6563C99.9524 48.8887 100.025 49.1436 100.217 49.3048L102.836 51.5011L102.064 54.7539C102.007 54.993 102.104 55.2403 102.312 55.3838C102.423 55.4613 102.554 55.5 102.686 55.5C102.799 55.5 102.912 55.4713 103.013 55.4135L106 53.705L108.987 55.4135C109.206 55.5387 109.481 55.5272 109.688 55.3838C109.896 55.2403 109.993 54.993 109.936 54.7539L109.164 51.5011L111.783 49.3048C111.975 49.1436 112.048 48.8892 111.969 48.6563Z" fill="#FFA818"/>
</g>
<path d="M141.47 39.7313C142.784 39.7313 144.458 39.4919 145.892 38.4745C148.462 36.6192 149 32.9685 149 32.789C149 32.6095 148.88 32.4299 148.701 32.3701C148.522 32.3701 144.936 31.5921 142.306 33.4473C141.709 33.8663 141.231 34.345 140.872 34.9435C140.991 34.0458 141.111 33.1481 141.111 32.2504C141.111 31.8913 141.111 31.4724 141.111 31.1133C141.828 30.9936 144.936 30.2156 146.49 27.7618C148.223 25.0687 147.267 21.4779 147.267 21.3582C147.207 21.1786 147.028 21.0589 146.848 21.0589C146.729 21.1188 143.083 21.7771 141.35 24.4104C140.991 25.0088 140.693 25.6672 140.573 26.2656C140.274 25.0088 139.856 23.8119 139.378 22.6748C139.975 22.2559 142.545 20.4006 143.083 17.5279C143.681 14.4159 141.47 11.4235 141.41 11.3038C141.29 11.1243 141.051 11.0644 140.872 11.1841C140.752 11.244 137.645 13.2189 137.047 16.3908C136.927 17.109 136.927 17.7673 136.987 18.4256C136.21 17.2885 135.314 16.2711 134.298 15.2537C134.716 14.5954 136.27 11.9023 135.672 9.1493C135.015 6.03724 131.788 4.18197 131.668 4.06227C131.489 3.94258 131.25 4.00242 131.13 4.18197C131.07 4.30166 128.919 7.35388 129.636 10.4659C130.054 12.2614 131.25 13.6378 132.266 14.5356C132.385 14.6553 132.505 14.7749 132.624 14.8348H132.684C137.824 19.2635 140.633 25.5475 140.454 32.1307C140.095 40.1502 135.493 47.3918 128.202 51.222C128.022 51.3417 127.963 51.5811 128.022 51.7606C128.082 51.8803 128.202 52 128.381 52C128.441 52 128.501 52 128.56 51.9402C130.951 50.6834 133.102 49.0675 134.895 47.1524C135.433 47.5115 137.465 48.7084 139.736 48.7084C140.155 48.7084 140.573 48.6486 141.051 48.5887C144.159 47.9304 146.012 44.6986 146.131 44.5789C146.251 44.3994 146.191 44.16 146.012 44.0403C145.892 43.9206 142.844 41.826 139.736 42.5441C139.019 42.7237 138.362 42.9631 137.764 43.382C138.481 42.185 139.139 40.9282 139.617 39.6116C139.916 39.6116 140.573 39.7313 141.47 39.7313Z" fill="white"/>
<defs>
<clipPath id="clip0_2147_4417">
<rect width="14" height="11" fill="white" transform="translate(36 44.5)"/>
</clipPath>
<clipPath id="clip1_2147_4417">
<rect width="14" height="11" fill="white" transform="translate(52 44.5)"/>
</clipPath>
<clipPath id="clip2_2147_4417">
<rect width="14" height="11" fill="white" transform="translate(68 44.5)"/>
</clipPath>
<clipPath id="clip3_2147_4417">
<rect width="14" height="11" fill="white" transform="translate(100 44.5)"/>
</clipPath>
</defs>
</svg>
