<svg width="155" height="56" viewBox="0 0 155 56" fill="none" xmlns="http://www.w3.org/2000/svg">
<path d="M8.38901 40.2731C7.01156 40.2731 5.25845 40.0226 3.75578 38.9582C1.0635 37.0173 0.5 33.198 0.5 33.0102C0.5 32.8223 0.625223 32.6345 0.813055 32.5719C1.00089 32.5719 4.75756 31.7579 7.51245 33.6989C8.13856 34.1372 8.63945 34.6381 9.01512 35.2642C8.8899 34.325 8.76468 33.3858 8.76468 32.4467C8.76468 32.071 8.76468 31.6327 8.76468 31.2571C8.01334 31.1318 4.75756 30.3179 3.12967 27.7508C1.31395 24.9333 2.31573 21.1767 2.31573 21.0514C2.37834 20.8636 2.56617 20.7384 2.75401 20.7384C2.87923 20.801 6.69851 21.4897 8.51423 24.2446C8.8899 24.8707 9.20295 25.5594 9.32818 26.1856C9.64123 24.8707 10.0795 23.6185 10.5804 22.4289C9.95429 21.9906 7.26201 20.0497 6.69851 17.0443C6.07239 13.7885 8.38901 10.658 8.45162 10.5328C8.57684 10.3449 8.82729 10.2823 9.01512 10.4075C9.14034 10.4702 12.3961 12.5363 13.0222 15.8547C13.1475 16.606 13.1475 17.2948 13.0848 17.9835C13.8988 16.7939 14.838 15.7295 15.9023 14.6651C15.4641 13.9764 13.8362 11.1589 14.4623 8.27876C15.151 5.02298 18.532 3.08203 18.6572 2.95681C18.8451 2.83159 19.0955 2.8942 19.2207 3.08203C19.2834 3.20726 21.5374 6.40043 20.786 9.65621C20.3477 11.5345 19.0955 12.9746 18.0311 13.9138C17.9059 14.039 17.7807 14.1642 17.6555 14.2268H17.5929C12.2083 18.86 9.26556 25.4342 9.4534 32.3215C9.82907 40.7113 14.6501 48.2873 22.2887 52.2944C22.4765 52.4196 22.5391 52.6701 22.4765 52.8579C22.4139 52.9831 22.2887 53.1084 22.1009 53.1084C22.0382 53.1084 21.9756 53.1084 21.913 53.0457C19.4086 51.7309 17.1546 50.0404 15.2762 48.0368C14.7127 48.4125 12.584 49.6647 10.2047 49.6647C9.76645 49.6647 9.32818 49.6021 8.82729 49.5395C5.57151 48.8508 3.63056 45.4698 3.50534 45.3446C3.38012 45.1567 3.44272 44.9063 3.63056 44.7811C3.75578 44.6558 6.94895 42.4645 10.2047 43.2158C10.9561 43.4036 11.6448 43.6541 12.2709 44.0923C11.5196 42.8401 10.8308 41.5253 10.33 40.1478C10.0169 40.1478 9.32818 40.2731 8.38901 40.2731Z" fill="white"/>
<path d="M52.1 36V30.68H38.22V26.84L51.42 8H56.86V26.48H60.66V30.68H56.86V36H52.1ZM43.38 26.48H52.38V13.28L43.38 26.48ZM66.7678 36.2C65.8611 36.2 65.1278 35.92 64.5678 35.36C64.0078 34.8 63.7278 34.1333 63.7278 33.36C63.7278 32.5333 64.0078 31.84 64.5678 31.28C65.1278 30.72 65.8611 30.44 66.7678 30.44C67.6478 30.44 68.3678 30.72 68.9278 31.28C69.4878 31.84 69.7678 32.5333 69.7678 33.36C69.7678 34.1333 69.4878 34.8 68.9278 35.36C68.3678 35.92 67.6478 36.2 66.7678 36.2ZM82.45 36.48C80.5567 36.48 78.9433 36.12 77.61 35.4C76.3033 34.6533 75.2767 33.68 74.53 32.48C73.7833 31.2533 73.3433 29.9467 73.21 28.56H77.65C77.89 29.8133 78.4233 30.7867 79.25 31.48C80.1033 32.1467 81.1967 32.48 82.53 32.48C83.7567 32.48 84.8233 32.12 85.73 31.4C86.6367 30.6533 87.3567 29.5467 87.89 28.08C88.45 26.5867 88.7567 24.72 88.81 22.48C88.81 22.4267 88.81 22.36 88.81 22.28C88.81 22.2 88.81 22.12 88.81 22.04C88.41 22.7867 87.85 23.4667 87.13 24.08C86.41 24.6933 85.57 25.1733 84.61 25.52C83.6767 25.8667 82.6633 26.04 81.57 26.04C80.0233 26.04 78.5567 25.68 77.17 24.96C75.81 24.2133 74.7167 23.16 73.89 21.8C73.0633 20.44 72.65 18.84 72.65 17C72.65 15.32 73.05 13.76 73.85 12.32C74.65 10.88 75.7833 9.72 77.25 8.84C78.7167 7.96 80.41 7.52 82.33 7.52C84.4367 7.52 86.1967 7.90667 87.61 8.68C89.05 9.45333 90.1967 10.4933 91.05 11.8C91.9033 13.08 92.5167 14.52 92.89 16.12C93.29 17.72 93.49 19.36 93.49 21.04C93.49 24.1333 93.05 26.84 92.17 29.16C91.3167 31.48 90.0633 33.28 88.41 34.56C86.7833 35.84 84.7967 36.48 82.45 36.48ZM82.69 21.96C83.7033 21.96 84.61 21.7467 85.41 21.32C86.2367 20.8667 86.89 20.2533 87.37 19.48C87.85 18.68 88.09 17.8 88.09 16.84C88.09 15.8267 87.85 14.9333 87.37 14.16C86.89 13.36 86.2367 12.7467 85.41 12.32C84.61 11.8667 83.69 11.64 82.65 11.64C81.61 11.64 80.69 11.8667 79.89 12.32C79.09 12.7733 78.45 13.3867 77.97 14.16C77.5167 14.9067 77.29 15.7867 77.29 16.8C77.29 17.84 77.5167 18.7467 77.97 19.52C78.45 20.2933 79.09 20.8933 79.89 21.32C80.7167 21.7467 81.65 21.96 82.69 21.96ZM107.092 36.48C105.279 36.48 103.625 36.16 102.132 35.52C100.639 34.8533 99.4385 33.8533 98.5319 32.52C97.6519 31.16 97.1852 29.4533 97.1319 27.4H101.852C101.879 28.3333 102.092 29.1867 102.492 29.96C102.919 30.7067 103.519 31.3067 104.292 31.76C105.065 32.1867 105.999 32.4 107.092 32.4C108.132 32.4 109.012 32.2 109.732 31.8C110.479 31.4 111.039 30.8533 111.412 30.16C111.785 29.4667 111.972 28.6933 111.972 27.84C111.972 26.8 111.719 25.9467 111.212 25.28C110.705 24.5867 110.012 24.0667 109.132 23.72C108.252 23.3733 107.252 23.2 106.132 23.2H104.052V19.24H106.132C107.599 19.24 108.799 18.9067 109.732 18.24C110.665 17.5467 111.132 16.5467 111.132 15.24C111.132 14.1467 110.772 13.2667 110.052 12.6C109.359 11.9333 108.359 11.6 107.052 11.6C105.692 11.6 104.612 12 103.812 12.8C103.039 13.6 102.612 14.5867 102.532 15.76H97.8119C97.8919 14.08 98.3185 12.6267 99.0919 11.4C99.8919 10.1467 100.972 9.18666 102.332 8.52C103.692 7.85333 105.279 7.52 107.092 7.52C108.985 7.52 110.585 7.85333 111.892 8.52C113.199 9.18666 114.185 10.08 114.852 11.2C115.545 12.32 115.892 13.5467 115.892 14.88C115.892 15.92 115.692 16.8667 115.292 17.72C114.892 18.5733 114.345 19.2933 113.652 19.88C112.985 20.44 112.199 20.8533 111.292 21.12C112.332 21.3333 113.252 21.7467 114.052 22.36C114.879 22.9733 115.519 23.76 115.972 24.72C116.452 25.6533 116.692 26.7467 116.692 28C116.692 29.52 116.319 30.9333 115.572 32.24C114.852 33.52 113.772 34.5467 112.332 35.32C110.919 36.0933 109.172 36.48 107.092 36.48Z" fill="white"/>
<g clip-path="url(#clip0_2147_4417)">
<path d="M50.9686 48.6563C50.8896 48.4238 50.6741 48.2593 50.4201 48.2373L46.9561 47.9365L45.5871 44.8706C45.486 44.6454 45.256 44.5 45 44.5C44.744 44.5 44.5139 44.6454 44.4135 44.8706L43.0445 47.9365L39.5799 48.2373C39.3259 48.2597 39.1109 48.4243 39.0314 48.6563C38.9524 48.8887 39.0254 49.1436 39.2174 49.3048L41.836 51.5011L41.0639 54.7539C41.0074 54.993 41.1045 55.2403 41.3119 55.3838C41.4234 55.4613 41.5545 55.5 41.6859 55.5C41.7989 55.5 41.912 55.4713 42.013 55.4135L45 53.705L47.9865 55.4135C48.2056 55.5387 48.4811 55.5272 48.6881 55.3838C48.8955 55.2403 48.9926 54.993 48.9361 54.7539L48.164 51.5011L50.7826 49.3048C50.9746 49.1436 51.0476 48.8892 50.9686 48.6563Z" fill="#FFA818"/>
</g>
<g clip-path="url(#clip1_2147_4417)">
<path d="M66.9686 48.6563C66.8896 48.4238 66.6741 48.2593 66.4201 48.2373L62.9561 47.9365L61.5871 44.8706C61.486 44.6454 61.256 44.5 61 44.5C60.744 44.5 60.5139 44.6454 60.4135 44.8706L59.0445 47.9365L55.5799 48.2373C55.3259 48.2597 55.1109 48.4243 55.0314 48.6563C54.9524 48.8887 55.0254 49.1436 55.2174 49.3048L57.836 51.5011L57.0639 54.7539C57.0074 54.993 57.1045 55.2403 57.3119 55.3838C57.4234 55.4613 57.5545 55.5 57.6859 55.5C57.7989 55.5 57.912 55.4713 58.013 55.4135L61 53.705L63.9865 55.4135C64.2056 55.5387 64.4811 55.5272 64.6881 55.3838C64.8955 55.2403 64.9926 54.993 64.9361 54.7539L64.164 51.5011L66.7826 49.3048C66.9746 49.1436 67.0476 48.8892 66.9686 48.6563Z" fill="#FFA818"/>
</g>
<g clip-path="url(#clip2_2147_4417)">
<path d="M82.9686 48.6563C82.8896 48.4238 82.6741 48.2593 82.4201 48.2373L78.9561 47.9365L77.5871 44.8706C77.486 44.6454 77.256 44.5 77 44.5C76.744 44.5 76.5139 44.6454 76.4135 44.8706L75.0445 47.9365L71.5799 48.2373C71.3259 48.2597 71.1109 48.4243 71.0314 48.6563C70.9524 48.8887 71.0254 49.1436 71.2174 49.3048L73.836 51.5011L73.0639 54.7539C73.0074 54.993 73.1045 55.2403 73.3119 55.3838C73.4234 55.4613 73.5545 55.5 73.6859 55.5C73.7989 55.5 73.912 55.4713 74.013 55.4135L77 53.705L79.9865 55.4135C80.2056 55.5387 80.4811 55.5272 80.6881 55.3838C80.8955 55.2403 80.9926 54.993 80.9361 54.7539L80.164 51.5011L82.7826 49.3048C82.9746 49.1436 83.0476 48.8892 82.9686 48.6563Z" fill="#FFA818"/>
</g>
<path d="M98.9686 48.5341C98.8896 48.2806 98.6741 48.101 98.4201 48.0771L94.9561 47.7489L93.5871 44.4043C93.486 44.1586 93.256 44 93 44C92.744 44 92.5139 44.1586 92.4135 44.4043L91.0445 47.7489L87.5799 48.0771C87.3259 48.1015 87.1109 48.281 87.0314 48.5341C86.9524 48.7877 87.0254 49.0658 87.2174 49.2416L89.836 51.6376L89.0639 55.186C89.0074 55.4469 89.1045 55.7167 89.3119 55.8732C89.4234 55.9578 89.5545 56 89.6859 56C89.7989 56 89.912 55.9687 90.013 55.9056L93 54.0419L95.9865 55.9056C96.2056 56.0422 96.4811 56.0297 96.6881 55.8732C96.8955 55.7167 96.9926 55.4469 96.9361 55.186L96.164 51.6376L98.7826 49.2416C98.9746 49.0658 99.0476 48.7882 98.9686 48.5341Z" fill="#FFA818"/>
<g clip-path="url(#clip3_2147_4417)">
<path d="M114.969 48.6563C114.89 48.4238 114.674 48.2593 114.42 48.2373L110.956 47.9365L109.587 44.8706C109.486 44.6454 109.256 44.5 109 44.5C108.744 44.5 108.514 44.6454 108.414 44.8706L107.045 47.9365L103.58 48.2373C103.326 48.2597 103.111 48.4243 103.031 48.6563C102.952 48.8887 103.025 49.1436 103.217 49.3048L105.836 51.5011L105.064 54.7539C105.007 54.993 105.104 55.2403 105.312 55.3838C105.423 55.4613 105.554 55.5 105.686 55.5C105.799 55.5 105.912 55.4713 106.013 55.4135L109 53.705L111.987 55.4135C112.206 55.5387 112.481 55.5272 112.688 55.3838C112.896 55.2403 112.993 54.993 112.936 54.7539L112.164 51.5011L114.783 49.3048C114.975 49.1436 115.048 48.8892 114.969 48.6563Z" fill="#FFA818"/>
</g>
<path d="M146.97 39.7313C148.284 39.7313 149.958 39.4919 151.392 38.4745C153.962 36.6192 154.5 32.9685 154.5 32.789C154.5 32.6095 154.38 32.4299 154.201 32.3701C154.022 32.3701 150.436 31.5921 147.806 33.4473C147.209 33.8663 146.731 34.345 146.372 34.9435C146.491 34.0458 146.611 33.1481 146.611 32.2504C146.611 31.8913 146.611 31.4724 146.611 31.1133C147.328 30.9936 150.436 30.2156 151.99 27.7618C153.723 25.0687 152.767 21.4779 152.767 21.3582C152.707 21.1786 152.528 21.0589 152.348 21.0589C152.229 21.1188 148.583 21.7771 146.85 24.4104C146.491 25.0088 146.193 25.6672 146.073 26.2656C145.774 25.0088 145.356 23.8119 144.878 22.6748C145.475 22.2559 148.045 20.4006 148.583 17.5279C149.181 14.4159 146.97 11.4235 146.91 11.3038C146.79 11.1243 146.551 11.0644 146.372 11.1841C146.252 11.244 143.145 13.2189 142.547 16.3908C142.427 17.109 142.427 17.7673 142.487 18.4256C141.71 17.2885 140.814 16.2711 139.798 15.2537C140.216 14.5954 141.77 11.9023 141.172 9.1493C140.515 6.03724 137.288 4.18197 137.168 4.06227C136.989 3.94258 136.75 4.00242 136.63 4.18197C136.57 4.30166 134.419 7.35388 135.136 10.4659C135.554 12.2614 136.75 13.6378 137.766 14.5356C137.885 14.6553 138.005 14.7749 138.124 14.8348H138.184C143.324 19.2635 146.133 25.5475 145.954 32.1307C145.595 40.1502 140.993 47.3918 133.702 51.222C133.522 51.3417 133.463 51.5811 133.522 51.7606C133.582 51.8803 133.702 52 133.881 52C133.941 52 134.001 52 134.06 51.9402C136.451 50.6834 138.602 49.0675 140.395 47.1524C140.933 47.5115 142.965 48.7084 145.236 48.7084C145.655 48.7084 146.073 48.6486 146.551 48.5887C149.659 47.9304 151.512 44.6986 151.631 44.5789C151.751 44.3994 151.691 44.16 151.512 44.0403C151.392 43.9206 148.344 41.826 145.236 42.5441C144.519 42.7237 143.862 42.9631 143.264 43.382C143.981 42.185 144.639 40.9282 145.117 39.6116C145.416 39.6116 146.073 39.7313 146.97 39.7313Z" fill="white"/>
<defs>
<clipPath id="clip0_2147_4417">
<rect width="14" height="11" fill="white" transform="translate(39 44.5)"/>
</clipPath>
<clipPath id="clip1_2147_4417">
<rect width="14" height="11" fill="white" transform="translate(55 44.5)"/>
</clipPath>
<clipPath id="clip2_2147_4417">
<rect width="14" height="11" fill="white" transform="translate(71 44.5)"/>
</clipPath>
<clipPath id="clip3_2147_4417">
<rect width="14" height="11" fill="white" transform="translate(103 44.5)"/>
</clipPath>
</defs>
</svg>
