<svg width="32" height="32" viewBox="0 0 32 32" fill="none" xmlns="http://www.w3.org/2000/svg">
<path d="M28.2816 7.4578L27.7324 6.03033L26.7693 7.21812C26.7392 7.25615 23.6932 10.9646 19.6859 11.5368C18.9253 11.6456 18.2151 11.7871 17.5288 11.9454C17.7171 8.82954 16.4453 5.85699 13.7434 3.08961L12.6759 2L12.2602 3.46903C12.2505 3.49999 11.3289 6.67243 8.98786 8.10078C6.42302 9.67063 4.78948 11.4059 4.00234 13.4011C3.20719 15.287 3.18685 17.4101 3.94574 19.3109C4.47684 20.6148 5.50598 21.6531 6.80509 22.1959C6.93228 22.2444 7.06185 22.2863 7.19335 22.3215C7.12547 23.2035 7.20319 24.0906 7.42331 24.9473C6.9466 24.9889 6.49112 25.0101 6.06483 25.0101C4.89484 25.0328 3.72845 24.8732 2.6076 24.537L2 26.1997C3.3157 26.6123 4.68982 26.808 6.06836 26.779C6.75335 26.7764 7.43762 26.7337 8.11758 26.6507C8.40834 27.1609 8.7652 27.6305 9.17889 28.0473C10.6113 29.3778 12.5173 30.0786 14.4704 29.993C17.4586 29.9247 20.3443 28.8906 22.6956 27.0452L22.9547 26.8418C25.3869 24.9367 32.7781 19.149 28.2816 7.4578ZM7.49052 20.5623L7.47637 20.557C6.60245 20.1941 5.91337 19.4919 5.56689 18.6113C4.99273 17.1411 5.02004 15.504 5.64295 14.0539C6.28505 12.4256 7.67714 10.9725 9.90678 9.61049C11.4623 8.56941 12.6811 7.098 13.4144 5.37586C15.1447 7.30313 15.9709 9.87698 15.6856 12.4513C13.7151 13.052 11.9146 14.1103 10.4312 15.5397C9.02528 16.9253 8.01073 18.6581 7.49052 20.5623ZM21.8678 25.4453L21.6024 25.6549C18.0055 28.5036 12.6821 29.0475 10.4312 26.7967C10.2824 26.6474 10.1435 26.4884 10.0156 26.3209C13.6355 25.4966 18.0479 23.3651 22.5797 18.4698L21.2814 17.2679C16.8504 22.0553 12.5901 24.0116 9.18774 24.697C8.94513 23.8708 8.87376 23.0038 8.97813 22.149C9.24771 20.1084 10.2003 18.2193 11.6809 16.7894C13.5037 14.9657 16.2048 13.8204 19.9362 13.2879C22.6586 12.7611 25.1568 11.4198 27.1 9.44157C30.1035 18.996 24.1655 23.6463 21.8678 25.4453Z" fill="#0C0B0B"/>
<path d="M22.4241 15.973L23.7764 17.113C24.1537 16.6643 24.5317 16.1952 24.9102 15.7059L23.5093 14.626C23.1475 15.0956 22.7849 15.5431 22.4241 15.973Z" fill="#0C0B0B"/>
</svg>
