<svg width="32" height="32" viewBox="0 0 32 32" fill="none" xmlns="http://www.w3.org/2000/svg">
<mask id="mask0_1_648" style="mask-type:luminance" maskUnits="userSpaceOnUse" x="1" y="1" width="30" height="30">
<path d="M1.33325 1.33317H30.6666V30.6665H1.33325V1.33317Z" fill="white"/>
</mask>
<g mask="url(#mask0_1_648)">
<path d="M9.125 17.5967C9.125 16.5073 10.0081 15.6242 11.0975 15.6242C12.1868 15.6242 13.0699 16.5073 13.0699 17.5967" stroke="black" stroke-width="2" stroke-miterlimit="10"/>
<path d="M18.9219 17.5967C18.9219 16.5073 19.805 15.6242 20.8943 15.6242C21.9837 15.6242 22.8668 16.5073 22.8668 17.5967" stroke="black" stroke-width="2" stroke-miterlimit="10"/>
<path d="M12.5625 21.5473C13.2487 22.7101 14.5137 23.4907 15.9617 23.4907C17.4097 23.4907 18.6747 22.7101 19.3608 21.5473" stroke="black" stroke-width="2" stroke-miterlimit="10"/>
<path d="M29.8072 17.2558C29.8072 18.8703 28.5141 20.1828 26.9065 20.2132C25.6072 25.0182 21.2163 28.5537 15.9999 28.5537C10.7835 28.5537 6.39268 25.0182 5.0933 20.2132C3.4857 20.1828 2.19263 18.8703 2.19263 17.2558C2.19263 16.4388 2.52377 15.6992 3.05888 15.1635C3.58195 14.641 4.29924 14.3133 5.0933 14.2984C6.39268 9.49335 10.7835 5.95788 15.9999 5.95788C21.2163 5.95788 25.6072 9.49335 26.9065 14.2984C27.7006 14.3133 28.4179 14.641 28.941 15.1635C29.4761 15.6992 29.8072 16.4388 29.8072 17.2558Z" stroke="black" stroke-width="2" stroke-miterlimit="10"/>
<path d="M12.3153 9.6375C12.3153 11.668 13.9613 13.314 15.9918 13.314C18.0223 13.314 19.6683 11.668 19.6683 9.6375C19.6683 7.60703 18.0223 5.96104 15.9918 5.96104H15.4156C13.5551 5.96104 12.0469 4.45278 12.0469 2.59223" stroke="black" stroke-width="2" stroke-miterlimit="10"/>
<path d="M16.0407 5.95215H11.5196C9.65908 5.95215 8.15088 4.44389 8.15088 2.5834" stroke="black" stroke-width="2" stroke-miterlimit="10"/>
</g>
</svg>
