<svg width="33" height="32" viewBox="0 0 33 32" fill="none" xmlns="http://www.w3.org/2000/svg">
<path d="M22.8231 27.7415C26.9972 25.4889 29.8334 21.0756 29.8334 15.9998C29.8334 8.63602 23.8639 2.6665 16.5001 2.6665C9.18246 2.6665 3.24166 8.56144 3.16747 15.8615L3.16675 16.828" stroke="black" stroke-width="1.8" stroke-miterlimit="10"/>
<path d="M16.499 13.8735V7.14795" stroke="black" stroke-width="1.8" stroke-miterlimit="10"/>
<path d="M13.873 9.50827L16.499 6.88232L19.1249 9.50827" stroke="black" stroke-width="1.8" stroke-miterlimit="10"/>
<path d="M15.4509 21.7764V29.3328" stroke="black" stroke-width="1.8" stroke-miterlimit="10" stroke-linecap="square"/>
<path d="M19.8152 21.7764V29.3328" stroke="black" stroke-width="1.8" stroke-miterlimit="10" stroke-linecap="square"/>
<path d="M15.4509 25.4248H19.8152" stroke="black" stroke-width="1.8" stroke-miterlimit="10" stroke-linecap="square"/>
<path d="M3.16675 21.8008H4.77671V29.3332" stroke="black" stroke-width="1.8" stroke-miterlimit="10" stroke-linecap="square"/>
<path d="M12.8822 29.3334L8.40219 29.3215L8.40313 29.0719C8.40313 29.0719 9.20274 28.2329 11.098 25.525C11.5468 24.8838 11.7938 24.3429 11.8988 23.8897L11.9361 23.5983C11.9361 22.5339 11.0732 21.6709 10.0087 21.6709C9.07201 21.6709 8.29137 22.339 8.11743 23.2247" stroke="black" stroke-width="1.8" stroke-miterlimit="10"/>
<path d="M16.5 18.1265C17.6744 18.1265 18.6265 17.1744 18.6265 16C18.6265 14.8256 17.6744 13.8735 16.5 13.8735C15.3256 13.8735 14.3735 14.8256 14.3735 16C14.3735 17.1744 15.3256 18.1265 16.5 18.1265Z" stroke="black" stroke-width="1.8" stroke-miterlimit="10" stroke-linecap="square"/>
<path d="M3.16675 16H7.05792" stroke="black" stroke-width="1.8" stroke-miterlimit="10"/>
<path d="M29.8336 16H25.9424" stroke="black" stroke-width="1.8" stroke-miterlimit="10"/>
</svg>
