<svg width="56" height="56" viewBox="0 0 56 56" fill="none" xmlns="http://www.w3.org/2000/svg">
<g clip-path="url(#clip0_1_668)">
<path d="M43.5093 55.1755L41.6569 53.3227C41.1291 52.7948 40.4131 52.4982 39.6666 52.4982C38.92 52.4982 38.2041 52.7948 37.6761 53.3227L35.8237 55.1755C35.2958 55.7034 34.5798 55.9999 33.8332 55.9999C33.0868 55.9999 32.3708 55.7034 31.8429 55.1755L29.9905 53.3231C29.4626 52.7952 28.7467 52.4987 28.0001 52.4987C27.2535 52.4987 26.5375 52.7952 26.0096 53.3231L24.1573 55.1755C23.6294 55.7034 22.9134 55.9999 22.1669 55.9999C21.4204 55.9999 20.7044 55.7034 20.1765 55.1755L18.3241 53.3231C17.7962 52.7952 17.0803 52.4987 16.3337 52.4987C15.5872 52.4987 14.8711 52.7952 14.3433 53.3231L12.4909 55.1755C11.9631 55.7034 11.2471 55.9999 10.5005 55.9999C9.75397 55.9999 9.03801 55.7034 8.5101 55.1755L0.824553 47.49C0.296672 46.9621 0.000112793 46.2461 0.000112793 45.4995C0.000112793 44.753 0.296672 44.037 0.824553 43.5091L2.67692 41.6567C2.93831 41.3954 3.14566 41.085 3.28712 40.7435C3.42859 40.402 3.5014 40.0361 3.5014 39.6664C3.5014 39.2968 3.42859 38.9307 3.28712 38.5892C3.14566 38.2477 2.93831 37.9374 2.67692 37.676L0.824553 35.8236C0.563163 35.5622 0.355815 35.2519 0.214351 34.9104C0.0728868 34.5689 7.60499e-05 34.2028 7.60499e-05 33.8332C7.60499e-05 33.4635 0.0728868 33.0976 0.214351 32.7561C0.355815 32.4146 0.563163 32.1042 0.824553 31.8429L2.67704 29.9904C3.20491 29.4625 3.50146 28.7466 3.50146 28C3.50146 27.2535 3.20491 26.5375 2.67704 26.0096L0.824553 24.1572C0.296672 23.6292 0.000112793 22.9133 0.000112793 22.1668C0.000112793 21.4202 0.296672 20.7043 0.824553 20.1764L2.67692 18.3241C3.2048 17.7962 3.50137 17.0803 3.50137 16.3337C3.50137 15.5872 3.2048 14.8711 2.67692 14.3433L0.824441 12.4908C0.29656 11.9629 0 11.247 0 10.5004C0 9.75386 0.29656 9.03789 0.824441 8.51L8.51 0.82444C9.03789 0.296559 9.75386 0 10.5004 0C11.247 0 11.9629 0.296559 12.4908 0.82444L14.3432 2.67681C14.871 3.20469 15.5871 3.50125 16.3336 3.50125C17.0801 3.50125 17.7961 3.20469 18.324 2.67681L20.1764 0.82444C20.7043 0.296559 21.4202 0 22.1668 0C22.9133 0 23.6292 0.296559 24.1572 0.82444L26.0095 2.67681C26.5374 3.20469 27.2534 3.50125 28 3.50125C28.7465 3.50125 29.4625 3.20469 29.9904 2.67681L31.8428 0.82444C32.3707 0.296559 33.0866 0 33.8331 0C34.5797 0 35.2956 0.296559 35.8236 0.82444L37.6759 2.67681C38.2038 3.20469 38.9198 3.50125 39.6664 3.50125C40.4128 3.50125 41.1289 3.20469 41.6567 2.67681L43.5092 0.82444C44.037 0.296559 44.7529 0 45.4995 0C46.2461 0 46.962 0.296559 47.49 0.82444L55.1754 8.50955C55.4368 8.77092 55.6442 9.08121 55.7856 9.42272C55.927 9.76423 55.9999 10.1303 55.9999 10.4999C55.9999 10.8695 55.927 11.2356 55.7856 11.5771C55.6442 11.9186 55.4368 12.2289 55.1754 12.4903L53.323 14.3428C53.0616 14.6041 52.8543 14.9144 52.7128 15.2559C52.5713 15.5974 52.4985 15.9634 52.4985 16.3331C52.4985 16.7027 52.5713 17.0688 52.7128 17.4103C52.8543 17.7518 53.0616 18.0621 53.323 18.3234L55.1754 20.1755C55.7033 20.7034 55.9998 21.4193 55.9998 22.1659C55.9998 22.9124 55.7033 23.6284 55.1754 24.1563L53.323 26.0087C52.7951 26.5365 52.4985 27.2525 52.4985 27.9991C52.4985 28.7456 52.7951 29.4616 53.323 29.9895L55.1755 31.842C55.7034 32.3699 55.9999 33.0858 55.9999 33.8323C55.9999 34.5789 55.7034 35.2949 55.1755 35.8228L53.3231 37.675C52.7952 38.2029 52.4987 38.9189 52.4987 39.6655C52.4987 40.412 52.7952 41.128 53.3231 41.6558L55.1756 43.5084C55.7035 44.0362 56 44.7523 56 45.4987C56 46.2453 55.7035 46.9612 55.1756 47.4892L51.3327 51.3319L47.4901 55.1755C46.9622 55.7034 46.2462 55.9999 45.4996 55.9999C44.7531 55.9999 44.0371 55.7034 43.5093 55.1755Z" fill="#1F4FD1"/>
<path d="M11.3415 10.5872C13.0234 10.5872 13.2926 10.3687 15.0751 10.3687C18.9099 10.3687 21.0963 12.9587 21.0963 16.2551V22.1416H17.2448V16.0533C17.2448 14.6238 16.1853 13.8165 15.0751 13.8165C13.9651 13.8165 12.9058 14.6238 12.9058 16.0533V22.1416H9.05371V10.3687C9.80655 10.5215 10.5734 10.5948 11.3415 10.5872Z" fill="white"/>
<path d="M35.3687 10.3516H47.394V13.9339H45.3926C44.1985 13.9339 43.307 14.8421 43.307 16.0362V22.1414H39.4556V16.0362C39.4556 14.8253 38.5811 13.9339 37.3701 13.9339H35.3687V10.3516Z" fill="white"/>
<path d="M35.3687 23.5278H47.394V27.1102H45.3926C44.1985 27.1102 43.307 28.0184 43.307 29.2125V35.3174H39.4556V29.2123C39.4556 28.0013 38.5811 27.11 37.3701 27.11H35.3687V23.5278Z" fill="white"/>
<path d="M21.9207 40.5176C21.9109 41.559 22.1859 42.5832 22.7159 43.4797C23.2586 44.3824 24.0256 45.1292 24.9424 45.6478C25.8592 46.1663 26.8945 46.4388 27.9478 46.4388C29.001 46.4388 30.0364 46.1663 30.9532 45.6478C31.87 45.1292 32.637 44.3824 33.1797 43.4797C33.7096 42.5832 33.9846 41.559 33.9749 40.5176H21.9207Z" fill="white"/>
<path d="M29.9959 16.255C29.9959 15.1451 29.1381 14.1359 27.9609 14.1359C26.8003 14.1359 25.909 15.0947 25.909 16.255C25.909 17.3315 26.733 18.3406 27.9609 18.3406C28.2317 18.3382 28.4994 18.2823 28.7485 18.176C28.9977 18.0697 29.2233 17.9153 29.4125 17.7214C29.6016 17.5275 29.7505 17.2982 29.8507 17.0465C29.9508 16.7949 30.0002 16.5259 29.9959 16.255ZM27.9608 10.3518C29.7435 10.3518 29.9958 10.5704 31.6945 10.5704C32.4625 10.5779 33.2292 10.5046 33.9819 10.3518V22.1411C33.2292 21.9882 32.4625 21.9149 31.6945 21.9222C29.9959 21.9222 29.7435 22.1409 27.9609 22.1409C24.513 22.1409 21.9397 19.4836 21.9397 16.2544C21.9397 12.8571 24.681 10.3518 27.9608 10.3518Z" fill="white"/>
<path d="M29.996 29.4314C29.996 28.3213 29.1383 27.3123 27.961 27.3123C26.8004 27.3123 25.9091 28.2708 25.9091 29.4314C25.9091 30.5078 26.7331 31.5169 27.961 31.5169C28.2318 31.5145 28.4995 31.4585 28.7486 31.3523C28.9978 31.246 29.2234 31.0916 29.4126 30.8977C29.6017 30.7039 29.7506 30.4745 29.8508 30.2229C29.9509 29.9712 30.0003 29.7022 29.996 29.4314ZM27.9609 23.5281C29.7436 23.5281 29.9959 23.7467 31.6946 23.7467C32.4626 23.7542 33.2293 23.681 33.982 23.5281V35.3177C33.2293 35.1648 32.4626 35.0915 31.6945 35.099C29.9959 35.099 29.7435 35.3177 27.9609 35.3177C24.513 35.3177 21.9397 32.6604 21.9397 29.4312C21.9397 26.0339 24.6811 23.5281 27.9609 23.5281Z" fill="white"/>
<path d="M15.4582 23.5212C13.7007 23.5283 13.2493 23.7221 11.5601 23.7221C10.7207 23.7232 9.88259 23.6558 9.0542 23.5205V30.7738V36.055H12.9057V34.0588C13.7333 34.182 14.4532 34.3699 15.5557 34.3699C18.7284 34.3699 21.0963 31.9247 21.0963 28.9532C21.0963 25.8317 18.6055 23.5284 15.4582 23.5212ZM14.9461 31.1682C14.6752 31.1659 14.4076 31.11 14.1584 31.0037C13.9093 30.8975 13.6836 30.7429 13.4945 30.5491C13.3054 30.3553 13.1564 30.1259 13.0562 29.8742C12.9561 29.6225 12.9068 29.3536 12.911 29.0828C12.911 27.9728 13.7689 26.9636 14.9461 26.9636C16.1066 26.9636 16.998 27.9222 16.998 29.0828C16.998 30.1593 16.1739 31.1682 14.9461 31.1682Z" fill="white"/>
</g>
<defs>
<clipPath id="clip0_1_668">
<rect width="56" height="56" fill="white"/>
</clipPath>
</defs>
</svg>
