<svg width="16" height="18" viewBox="0 0 16 18" fill="none" xmlns="http://www.w3.org/2000/svg">
<g clip-path="url(#clip0_36_322)">
<path d="M8.61823 9.79527V0.944996C8.61823 0.788497 8.56031 0.638409 8.45719 0.52775C8.35407 0.417088 8.21423 0.354919 8.06842 0.354919H2.84546C2.69964 0.354919 2.55979 0.417088 2.45667 0.52775C2.35356 0.638409 2.29563 0.788497 2.29563 0.944996V9.79527H0.774922C0.670852 9.79527 0.568922 9.82697 0.480972 9.88669C0.393026 9.94641 0.322674 10.0317 0.278095 10.1326C0.233517 10.2335 0.216542 10.3459 0.229144 10.4568C0.241746 10.5677 0.283407 10.6724 0.349284 10.7589L5.0313 16.9068C5.08287 16.9745 5.1478 17.029 5.2214 17.0665C5.29503 17.104 5.37546 17.1234 5.45692 17.1234C5.53839 17.1234 5.61884 17.104 5.69244 17.0665C5.76607 17.029 5.831 16.9745 5.88258 16.9068L10.5646 10.7589C10.6305 10.6724 10.6721 10.5677 10.6847 10.4568C10.6973 10.3459 10.6803 10.2335 10.6358 10.1326C10.5912 10.0317 10.5208 9.94641 10.4329 9.88669C10.345 9.82697 10.243 9.79527 10.139 9.79527H8.61823Z" fill="#09457E"/>
<path d="M10.9794 13.9436C13.6574 13.9436 15.8284 11.6137 15.8284 8.73958C15.8284 5.86549 13.6574 3.53558 10.9794 3.53558C8.30136 3.53558 6.13037 5.86549 6.13037 8.73958C6.13037 11.6137 8.30136 13.9436 10.9794 13.9436Z" fill="#F89201"/>
<path d="M9.36239 7.87162C9.80871 7.87162 10.1705 7.48331 10.1705 7.00429C10.1705 6.52528 9.80871 6.13696 9.36239 6.13696C8.91604 6.13696 8.5542 6.52528 8.5542 7.00429C8.5542 7.48331 8.91604 7.87162 9.36239 7.87162Z" fill="white"/>
<path d="M12.5958 11.3413C13.0421 11.3413 13.4039 10.953 13.4039 10.474C13.4039 9.995 13.0421 9.60669 12.5958 9.60669C12.1494 9.60669 11.7876 9.995 11.7876 10.474C11.7876 10.953 12.1494 11.3413 12.5958 11.3413Z" fill="white"/>
<path d="M8.95905 10.9082C8.90611 10.8513 8.86417 10.7838 8.83561 10.7095C8.80707 10.6352 8.79249 10.5556 8.79273 10.4752C8.79294 10.3949 8.80798 10.3154 8.83694 10.2412C8.8659 10.1672 8.90822 10.0999 8.96147 10.0434L12.2149 6.59634C12.3165 6.49102 12.4526 6.43273 12.5939 6.43404C12.7352 6.43536 12.8703 6.49618 12.9702 6.60339C13.0701 6.71059 13.1267 6.85562 13.128 7.00724C13.1292 7.15885 13.0749 7.30491 12.9768 7.41396L9.76481 10.9056C9.71217 10.9627 9.6495 11.0081 9.58046 11.0392C9.51139 11.0703 9.43731 11.0864 9.36243 11.0867C9.28755 11.0869 9.21337 11.0713 9.14414 11.0406C9.07491 11.01 9.01201 10.965 8.95905 10.9082Z" fill="white"/>
</g>
<defs>
<clipPath id="clip0_36_322">
<rect width="16" height="17" fill="white" transform="translate(0 0.22998)"/>
</clipPath>
</defs>
</svg>
