<svg width="20" height="18" viewBox="0 0 20 18" fill="none" xmlns="http://www.w3.org/2000/svg">
<g clip-path="url(#clip0_36_342)">
<path d="M19.259 9.35074L16.9911 4.69037C16.796 4.29047 16.4124 4.04327 15.9951 4.04327H11.2911L10.6182 10.5867L19.3667 9.85967C19.3667 9.66337 19.333 9.53251 19.259 9.35074Z" fill="#09457E"/>
<path d="M19.1578 9.13234H14.7229C14.3124 9.13234 13.9827 8.77611 13.9827 8.33261V5.57708C13.9827 5.13358 14.3124 4.77734 14.7229 4.77734H17.0245L19.1578 9.13234Z" fill="#FFFFFE"/>
<path d="M19.3666 9.85954V13.662C19.3666 14.3745 18.8283 14.9562 18.1688 14.9562H1.73501C1.06878 14.9562 0.523682 14.3672 0.523682 13.6475V9.85954L5.57091 7.67841L11.2911 9.85954H19.3666Z" fill="#09457E"/>
<path d="M12.6369 14.5854C12.6369 15.9908 13.6915 17.13 14.9923 17.13C16.2931 17.13 17.3477 15.9908 17.3477 14.5854C17.3477 13.18 16.2931 12.0407 14.9923 12.0407C13.6915 12.0407 12.6369 13.18 12.6369 14.5854ZM2.54248 14.5854C2.54248 15.9908 3.59702 17.13 4.89784 17.13C6.1987 17.13 7.25323 15.9908 7.25323 14.5854C7.25323 13.18 6.1987 12.0407 4.89784 12.0407C3.59702 12.0407 2.54248 13.18 2.54248 14.5854Z" fill="#09457E"/>
<path d="M13.9829 14.5857C13.9829 15.188 14.4348 15.6763 14.9923 15.6763C15.5498 15.6763 16.0018 15.188 16.0018 14.5857C16.0018 13.9834 15.5498 13.4951 14.9923 13.4951C14.4348 13.4951 13.9829 13.9834 13.9829 14.5857ZM3.88843 14.5857C3.88843 15.188 4.3404 15.6763 4.89788 15.6763C5.45535 15.6763 5.90732 15.188 5.90732 14.5857C5.90732 13.9834 5.45535 13.4951 4.89788 13.4951C4.3404 13.4951 3.88843 13.9834 3.88843 14.5857Z" fill="white"/>
<path d="M0.52417 11.3135H0.860652C1.43267 11.3135 1.89701 11.8297 1.8701 12.4549C1.84318 13.0438 1.37211 13.4946 0.827005 13.4946H0.52417V11.3135Z" fill="#F89201"/>
<path d="M9.2722 0.407898H2.54257C1.42545 0.407898 0.523682 1.38214 0.523682 2.58904V9.8595H11.2911V2.58904C11.2911 1.38214 10.3893 0.407898 9.2722 0.407898ZM19.3666 13.4948H18.7543C18.3505 13.4948 18.0207 13.1385 18.0207 12.7023V11.379C18.0207 10.9428 18.3505 10.5866 18.7543 10.5866H19.3666V13.4948Z" fill="#F89201"/>
</g>
<defs>
<clipPath id="clip0_36_342">
<rect width="19" height="17" fill="white" transform="translate(0.5 0.22998)"/>
</clipPath>
</defs>
</svg>
