<svg width="20" height="17" viewBox="0 0 20 17" fill="none" xmlns="http://www.w3.org/2000/svg">
<path d="M1.76666 14.6792C1.76666 14.8444 1.64 15.0097 1.45 15.0097H0.816666C0.658333 15.0097 0.5 14.8444 0.5 14.6792V0.797378C0.5 0.599066 0.658333 0.466858 0.816666 0.466858H1.45C1.64 0.466858 1.76666 0.599066 1.76666 0.797378V14.6792Z" fill="#09457E"/>
<path d="M1.44995 14.7787H2.71661V16.9932H1.44995V14.7787ZM17.2833 14.7787H18.5499V16.9932H17.2833V14.7787Z" fill="#09457E"/>
<path d="M19.5 12.6965C19.5 12.5312 19.3733 12.366 19.1833 12.366H0.816666C0.658333 12.366 0.5 12.5312 0.5 12.6965V15.3406C0.5 15.5059 0.658333 15.6712 0.816666 15.6712H19.1833C19.3733 15.6712 19.5 15.5059 19.5 15.3406V12.6965Z" fill="#09457E"/>
<path d="M1.76709 9.72131H8.10041V12.3655H1.76709V9.72131Z" fill="#B0BDC6"/>
<path d="M7.308 9.68823C7.308 9.68823 5.313 10.7128 2.77967 9.95265C1.988 9.72129 1.10134 10.2501 1.25967 9.85351C1.798 8.66365 1.95634 6.21779 1.228 5.25929C0.721335 4.5652 2.368 5.06098 2.653 6.15171C3.508 9.39079 7.308 8.13482 7.308 9.68823Z" fill="#DAE3EA"/>
<path d="M18.8665 9.06047C18.7081 8.89518 10.0948 4.53235 5.91479 8.69688V12.3656H19.1831C19.1831 12.3656 19.4048 9.68844 18.8665 9.06047Z" fill="#F89201"/>
<path d="M7.14979 12.3656H5.91479V8.69688C7.49815 7.04426 7.14979 7.87057 7.14979 8.69688V12.3656Z" fill="#FFBA55"/>
</svg>
