<svg width="18" height="18" viewBox="0 0 18 18" fill="none" xmlns="http://www.w3.org/2000/svg">
<path d="M17.0272 9.62471C16.8382 9.79714 16.7094 10.0266 16.66 10.2789C16.6105 10.5312 16.6429 10.7928 16.7525 11.025C16.8236 11.1742 16.8628 11.3367 16.8676 11.5021C16.8724 11.6676 16.8427 11.8322 16.7805 11.9854C16.7183 12.1385 16.6248 12.2767 16.5063 12.391C16.3878 12.5053 16.2468 12.5932 16.0925 12.6489C15.8412 12.7381 15.6272 12.9103 15.4848 13.1376C15.3426 13.3649 15.2804 13.6341 15.3084 13.9015C15.3085 14.0709 15.2728 14.2383 15.2039 14.3927C15.135 14.5471 15.0343 14.6849 14.9087 14.797C14.783 14.9091 14.6352 14.9929 14.475 15.043C14.3148 15.093 14.1459 15.108 13.9795 15.0871C13.7373 15.0891 13.5018 15.1674 13.3057 15.3109C13.1096 15.4544 12.9627 15.6561 12.8853 15.8879C12.8312 16.0457 12.7446 16.1901 12.6311 16.3116C12.5177 16.4331 12.3801 16.529 12.2273 16.5928C12.0745 16.6566 11.91 16.687 11.7447 16.682C11.5794 16.6769 11.4171 16.6365 11.2684 16.5634C11.0407 16.4549 10.7849 16.422 10.5375 16.4695C9.81545 16.5902 9.84202 17.23 9.00478 17.23C8.16754 17.23 8.19414 16.5902 7.47205 16.4605C7.22477 16.4115 6.96838 16.4444 6.74115 16.5544C6.59301 16.6277 6.43123 16.6685 6.26642 16.6742C6.10158 16.6798 5.93743 16.6502 5.78471 16.5872C5.63202 16.5243 5.49425 16.4294 5.3804 16.3089C5.26658 16.1884 5.17928 16.0449 5.12427 15.8879C5.04493 15.6563 4.89601 15.4556 4.69825 15.3136C4.50052 15.1717 4.26385 15.0956 4.02124 15.096C3.84914 15.118 3.67436 15.1014 3.5093 15.0475C3.34425 14.9936 3.19295 14.9037 3.06614 14.7842C2.93932 14.6647 2.84009 14.5184 2.77549 14.3558C2.71088 14.1933 2.68248 14.0183 2.69229 13.8434C2.70992 13.5861 2.64369 13.3301 2.50371 13.1144C2.36373 12.8987 2.15769 12.7353 1.91707 12.6489C1.76038 12.5949 1.61689 12.5077 1.49617 12.3933C1.37545 12.2789 1.28027 12.1398 1.21697 11.9852C1.15368 11.8307 1.12372 11.6644 1.1291 11.4972C1.13448 11.3301 1.17507 11.1661 1.24817 11.016C1.3574 10.786 1.39053 10.5266 1.34267 10.2761C1.29482 10.0256 1.16851 9.79721 0.982376 9.62471C0.855611 9.51344 0.753967 9.37598 0.684313 9.22161C0.614658 9.06727 0.578613 8.8996 0.578613 8.73C0.578613 8.56036 0.614658 8.39269 0.684313 8.23835C0.753967 8.08401 0.855611 7.94652 0.982376 7.83526C1.17133 7.66282 1.30012 7.43341 1.3496 7.18111C1.39909 6.92883 1.36662 6.66716 1.25702 6.43498C1.18599 6.28584 1.14679 6.12324 1.14198 5.95781C1.13716 5.79235 1.16683 5.62773 1.22907 5.47461C1.2913 5.32151 1.38471 5.18331 1.50323 5.06899C1.62176 4.95468 1.76275 4.86677 1.91707 4.81105C2.16831 4.72187 2.38241 4.54971 2.52471 4.32236C2.66701 4.09504 2.72917 3.82585 2.70115 3.55841C2.70112 3.38906 2.73674 3.22166 2.80566 3.06728C2.87457 2.9129 2.97521 2.77509 3.10088 2.66298C3.22655 2.55087 3.37439 2.46702 3.5346 2.41701C3.6948 2.367 3.86369 2.35196 4.03008 2.37289C4.27226 2.37082 4.50778 2.29258 4.70389 2.14906C4.89997 2.00554 5.04693 1.80387 5.12427 1.5721C5.20423 1.33974 5.3538 1.13825 5.55222 0.995567C5.75066 0.852885 5.98814 0.776076 6.23172 0.775786C6.67468 0.775786 6.78545 1.01289 7.25501 1.01289C8.15427 1.02184 8.11882 0.229998 9.00478 0.229998C9.17198 0.229087 9.33744 0.26412 9.4902 0.332769C9.64295 0.401417 9.7795 0.502109 9.89073 0.628155C10.0611 0.81959 10.2883 0.950099 10.5382 1.00011C10.7882 1.05012 11.0476 1.01693 11.2773 0.905523C11.425 0.833784 11.586 0.794198 11.7498 0.789336C11.9136 0.78447 12.0766 0.814435 12.2282 0.877286C12.3798 0.940135 12.5167 1.03447 12.6299 1.15417C12.7431 1.27387 12.8301 1.41625 12.8853 1.5721C12.9736 1.82584 13.1441 2.04205 13.3692 2.18576C13.5943 2.32946 13.8608 2.39225 14.1256 2.36394C14.2933 2.36391 14.4591 2.39989 14.612 2.46949C14.7648 2.53909 14.9013 2.64071 15.0123 2.76763C15.1233 2.89455 15.2063 3.04385 15.2559 3.20564C15.3054 3.36744 15.3203 3.53801 15.2995 3.70606C15.3016 3.9506 15.3791 4.18845 15.5212 4.3865C15.6633 4.58454 15.863 4.73293 16.0925 4.81105C16.3226 4.89182 16.5221 5.04286 16.6634 5.24324C16.8047 5.44364 16.8807 5.68346 16.881 5.92947C16.881 6.37682 16.6462 6.48868 16.6462 6.96288C16.6374 7.87105 17.4214 7.83526 17.4214 8.73C17.4223 8.89882 17.3876 9.06593 17.3197 9.22021C17.2517 9.37449 17.152 9.51235 17.0272 9.62471Z" fill="#09457E"/>
<path d="M17.027 9.62471C16.8381 9.79714 16.7093 10.0266 16.6598 10.2789C16.6103 10.5312 16.6428 10.7928 16.7524 11.025C16.8234 11.1742 16.8626 11.3367 16.8674 11.5021C16.8723 11.6676 16.8426 11.8322 16.7803 11.9854C16.7181 12.1384 16.6247 12.2767 16.5062 12.391C16.3876 12.5053 16.2467 12.5932 16.0924 12.6489C15.8659 12.728 15.6691 12.8757 15.5288 13.0718C15.3885 13.268 15.3115 13.503 15.3083 13.745C13.837 15.1275 11.9003 15.8936 9.8906 15.8879C2.92249 15.8879 -0.647946 7.46842 4.0388 2.37289C4.27945 2.36897 4.51301 2.28989 4.70734 2.14649C4.90168 2.0031 5.04726 1.80245 5.12411 1.5721C5.2035 1.33937 5.35292 1.13751 5.5515 0.994735C5.75004 0.851963 5.98782 0.775412 6.23156 0.775786C6.67455 0.775786 6.78529 1.01289 7.25485 1.01289C8.15411 1.02184 8.11866 0.229998 9.00465 0.229998C9.17182 0.229087 9.33728 0.26412 9.49007 0.332769C9.64282 0.401417 9.77934 0.502109 9.8906 0.628155C10.0609 0.81959 10.2881 0.950099 10.5381 1.00011C10.7881 1.05012 11.0474 1.01693 11.2771 0.905523C11.4248 0.833784 11.5858 0.794198 11.7496 0.789336C11.9134 0.78447 12.0765 0.814435 12.2281 0.877286C12.3797 0.940135 12.5165 1.03447 12.6297 1.15417C12.7429 1.27387 12.83 1.41625 12.8852 1.5721C12.9734 1.82584 13.1439 2.04205 13.369 2.18576C13.5941 2.32946 13.8607 2.39225 14.1255 2.36394C14.2932 2.36391 14.459 2.39989 14.6118 2.46949C14.7647 2.53909 14.9011 2.64071 15.0122 2.76763C15.1232 2.89455 15.2062 3.04385 15.2557 3.20564C15.3052 3.36744 15.3201 3.53801 15.2994 3.70606C15.3015 3.9506 15.3789 4.18845 15.521 4.3865C15.6632 4.58454 15.8629 4.73293 16.0924 4.81105C16.3224 4.89182 16.522 5.04286 16.6632 5.24324C16.8045 5.44364 16.8806 5.68346 16.8809 5.92947C16.8809 6.37682 16.6461 6.48868 16.6461 6.96288C16.6372 7.87105 17.4213 7.83526 17.4213 8.73C17.4222 8.89882 17.3875 9.06593 17.3195 9.22021C17.2516 9.37446 17.1518 9.51235 17.027 9.62471Z" fill="#09457E"/>
<path d="M14.7631 8.72976C14.7631 9.49349 14.6141 10.2497 14.3247 10.9554C14.0353 11.661 13.6111 12.3021 13.0764 12.8421C12.5416 13.3822 11.9068 13.8106 11.2081 14.1028C10.5094 14.3951 9.76055 14.5455 9.00432 14.5455C3.58664 14.5455 1.16795 7.61134 5.40287 4.19794C6.24924 3.51289 7.26998 3.08315 8.34756 2.95823C9.42514 2.83331 10.5158 3.01827 11.4938 3.4918C12.4719 3.96535 13.2977 4.70821 13.876 5.63491C14.4544 6.56158 14.7619 7.63436 14.7631 8.72976Z" fill="#FFFFFE"/>
<path d="M14.7643 8.72976C14.7668 10.0536 14.3178 11.338 13.4929 12.3668C12.3857 13.2507 10.9956 13.693 9.58663 13.61C8.17772 13.527 6.84802 12.9243 5.85005 11.9165C4.85209 10.9086 4.25534 9.56575 4.17311 8.14286C4.09091 6.72 4.52895 5.31614 5.40407 4.19794C6.25044 3.51289 7.27117 3.08315 8.34875 2.95823C9.42637 2.83331 10.517 3.01827 11.495 3.4918C12.4731 3.96535 13.2989 4.70821 13.8772 5.63491C14.4556 6.56158 14.7631 7.63436 14.7643 8.72976Z" fill="#FFFFFE"/>
<path d="M11.1936 11.9595L9.00528 10.7963L6.81695 11.9595L7.23334 9.49451L5.46143 7.74976L7.9111 7.39186L9.00528 5.15057L10.0994 7.38741L12.5491 7.7453L10.7772 9.49002C10.981 10.6934 10.888 10.1521 11.1936 11.9595Z" fill="#F89201"/>
<path d="M10.777 9.49451L10.9409 10.4608C10.4992 10.5501 10.0436 10.5411 9.60567 10.4345C9.16779 10.3279 8.75815 10.1262 8.40527 9.84347C8.05239 9.56073 7.7647 9.20377 7.5623 8.79738C7.35987 8.39101 7.24754 7.94497 7.23315 7.49029L7.91091 7.38741L9.00507 5.15057L10.0993 7.38741L12.5489 7.7453L10.777 9.49451Z" fill="#F89201"/>
</svg>
