<svg width="20" height="21" viewBox="0 0 20 21" fill="none" xmlns="http://www.w3.org/2000/svg">
<g clip-path="url(#clip0_18_3785)">
<path d="M14.375 11.355C17.1364 11.355 19.375 9.1164 19.375 6.35498C19.375 3.59356 17.1364 1.35498 14.375 1.35498C11.6136 1.35498 9.375 3.59356 9.375 6.35498C9.375 9.1164 11.6136 11.355 14.375 11.355Z" fill="#01B67A"/>
<path d="M14.375 20.105C15.0654 20.105 15.625 19.5453 15.625 18.855C15.625 18.1646 15.0654 17.605 14.375 17.605C13.6846 17.605 13.125 18.1646 13.125 18.855C13.125 19.5453 13.6846 20.105 14.375 20.105Z" fill="#E0FEE5"/>
<path d="M8.125 20.105C8.81536 20.105 9.375 19.5453 9.375 18.855C9.375 18.1646 8.81536 17.605 8.125 17.605C7.43464 17.605 6.875 18.1646 6.875 18.855C6.875 19.5453 7.43464 20.105 8.125 20.105Z" fill="#E0FEE5"/>
<path d="M13.1251 8.85496C12.9651 8.85496 12.8051 8.79371 12.6826 8.67246L11.4326 7.42246C11.1888 7.17871 11.1888 6.78246 11.4326 6.53871C11.6763 6.29496 12.0726 6.29496 12.3163 6.53871L13.1251 7.34621L15.8076 4.66371C16.0513 4.41996 16.4476 4.41996 16.6913 4.66371C16.9351 4.90746 16.9351 5.30371 16.6913 5.54746L13.5663 8.67246C13.4451 8.79371 13.2851 8.85496 13.1251 8.85496Z" fill="white"/>
<path d="M14.375 11.98C11.2738 11.98 8.75 9.45623 8.75 6.35498C8.75 3.25373 11.2738 0.72998 14.375 0.72998C17.4762 0.72998 20 3.25373 20 6.35498C20 9.45623 17.4762 11.98 14.375 11.98ZM14.375 1.97998C11.9625 1.97998 10 3.94248 10 6.35498C10 8.76748 11.9625 10.73 14.375 10.73C16.7875 10.73 18.75 8.76748 18.75 6.35498C18.75 3.94248 16.7875 1.97998 14.375 1.97998Z" fill="#01B67A"/>
<path d="M8.125 20.73C7.09125 20.73 6.25 19.8887 6.25 18.855C6.25 17.8212 7.09125 16.98 8.125 16.98C9.15875 16.98 10 17.8212 10 18.855C10 19.8887 9.15875 20.73 8.125 20.73ZM8.125 18.23C7.78 18.23 7.5 18.51 7.5 18.855C7.5 19.2 7.78 19.48 8.125 19.48C8.47 19.48 8.75 19.2 8.75 18.855C8.75 18.51 8.47 18.23 8.125 18.23Z" fill="#01B67A"/>
<path d="M14.375 20.73C13.3412 20.73 12.5 19.8887 12.5 18.855C12.5 17.8212 13.3412 16.98 14.375 16.98C15.4088 16.98 16.25 17.8212 16.25 18.855C16.25 19.8887 15.4088 20.73 14.375 20.73ZM14.375 18.23C14.03 18.23 13.75 18.51 13.75 18.855C13.75 19.2 14.03 19.48 14.375 19.48C14.72 19.48 15 19.2 15 18.855C15 18.51 14.72 18.23 14.375 18.23Z" fill="#01B67A"/>
<path d="M17.58 12.6037C17.245 12.5112 16.9025 12.705 16.81 13.0375L16.5387 14.0125C16.4562 14.2875 16.2087 14.48 15.9375 14.48H6.625C6.33875 14.48 6.085 14.275 6.0225 13.9937L4.4575 6.97998H6.875C7.22 6.97998 7.5 6.69998 7.5 6.35498C7.5 6.00998 7.22 5.72998 6.875 5.72998H4.17875L3.94875 4.69623C3.76375 3.84748 2.99625 3.22998 2.125 3.22998H0.625C0.28 3.22998 0 3.50998 0 3.85498C0 4.19998 0.28 4.47998 0.625 4.47998H2.125C2.4125 4.47998 2.66625 4.68373 2.7275 4.96623L4.8025 14.2662C4.99125 15.1137 5.7575 15.73 6.625 15.73H15.9375C16.755 15.73 17.495 15.1725 17.7388 14.36L18.0138 13.3725C18.1075 13.04 17.9137 12.695 17.58 12.6037Z" fill="#01B67A"/>
</g>
<defs>
<clipPath id="clip0_18_3785">
<rect width="20" height="20" fill="white" transform="translate(0 0.72998)"/>
</clipPath>
</defs>
</svg>
