<svg width="20" height="16" viewBox="0 0 20 16" fill="none" xmlns="http://www.w3.org/2000/svg">
<g clip-path="url(#clip0_36_501)">
<path fill-rule="evenodd" clip-rule="evenodd" d="M0.5 0.83606V14.8986H19.5V0.83606H0.5Z" fill="#2E42A5"/>
<mask id="mask0_36_501" style="mask-type:luminance" maskUnits="userSpaceOnUse" x="0" y="0" width="20" height="15">
<path fill-rule="evenodd" clip-rule="evenodd" d="M0.5 0.83606V14.8986H19.5V0.83606H0.5Z" fill="white"/>
</mask>
<g mask="url(#mask0_36_501)">
<path d="M-1.61523 13.8938L2.56595 15.6393L19.5947 2.73343L21.8005 0.140075L17.3295 -0.442932L10.3839 5.1182L4.7931 8.86586L-1.61523 13.8938Z" fill="white"/>
<path d="M-1.0437 15.1168L1.08727 16.1293L21.0082 -0.100525H18.0175L-1.0437 15.1168Z" fill="#F50100"/>
<path d="M21.6159 13.8938L17.4348 15.6393L0.405978 2.73343L-1.7998 0.140075L2.67113 -0.442932L9.61682 5.1182L15.2076 8.86586L21.6159 13.8938Z" fill="white"/>
<path d="M21.4735 14.7712L19.3432 15.7837L10.8609 8.83444L8.34576 8.05866L-2.01221 0.148499H0.979105L11.3306 7.87116L14.0802 8.80163L21.4735 14.7712Z" fill="#F50100"/>
<path fill-rule="evenodd" clip-rule="evenodd" d="M12.2434 -0.335815H7.75703V5.52356H-0.670654V10.2111H7.75703V16.0704H12.2434V10.2111H20.7044V5.52356H12.2434V-0.335815Z" fill="#F50100"/>
<mask id="mask1_36_501" style="mask-type:luminance" maskUnits="userSpaceOnUse" x="-1" y="-1" width="22" height="18">
<path fill-rule="evenodd" clip-rule="evenodd" d="M12.2434 -0.335815H7.75703V5.52356H-0.670654V10.2111H7.75703V16.0704H12.2434V10.2111H20.7044V5.52356H12.2434V-0.335815Z" fill="white"/>
</mask>
<g mask="url(#mask1_36_501)">
<path d="M7.75703 -0.335812V-1.50769H6.56953V-0.335812H7.75703ZM12.2434 -0.335812H13.4309V-1.50769H12.2434V-0.335812ZM7.75703 5.52356V6.69543H8.94453V5.52356H7.75703ZM-0.670654 5.52356V4.35168H-1.85815V5.52356H-0.670654ZM-0.670654 10.2111H-1.85815V11.383H-0.670654V10.2111ZM7.75703 10.2111H8.94453V9.03918H7.75703V10.2111ZM7.75703 16.0705H6.56953V17.2423H7.75703V16.0705ZM12.2434 16.0705V17.2423H13.4309V16.0705H12.2434ZM12.2434 10.2111V9.03918H11.0559V10.2111H12.2434ZM20.7044 10.2111V11.383H21.8919V10.2111H20.7044ZM20.7044 5.52356H21.8919V4.35168H20.7044V5.52356ZM12.2434 5.52356H11.0559V6.69543H12.2434V5.52356ZM7.75703 0.836063H12.2434V-1.50769H7.75703V0.836063ZM8.94453 5.52356V-0.335812H6.56953V5.52356H8.94453ZM-0.670654 6.69543H7.75703V4.35168H-0.670654V6.69543ZM0.516844 10.2111V5.52356H-1.85815V10.2111H0.516844ZM7.75703 9.03918H-0.670654V11.383H7.75703V9.03918ZM8.94453 16.0705V10.2111H6.56953V16.0705H8.94453ZM12.2434 14.8986H7.75703V17.2423H12.2434V14.8986ZM11.0559 10.2111V16.0705H13.4309V10.2111H11.0559ZM20.7044 9.03918H12.2434V11.383H20.7044V9.03918ZM19.5169 5.52356V10.2111H21.8919V5.52356H19.5169ZM12.2434 6.69543H20.7044V4.35168H12.2434V6.69543ZM11.0559 -0.335812V5.52356H13.4309V-0.335812H11.0559Z" fill="white"/>
</g>
</g>
</g>
<defs>
<clipPath id="clip0_36_501">
<rect x="0.5" y="0.22998" width="19" height="15" rx="3" fill="white"/>
</clipPath>
</defs>
</svg>
