<svg width="166" height="31" viewBox="0 0 166 31" fill="none" xmlns="http://www.w3.org/2000/svg">
<g clip-path="url(#clip0_1593_6605)">
<path d="M13.6622 15.1699C13.6622 12.3837 11.5666 10.4255 8.99245 10.4255C6.41829 10.4255 4.32268 12.4167 4.32268 15.1699C4.32268 17.8901 6.41829 19.9144 8.99245 19.9144C11.5692 19.9118 13.6622 17.9561 13.6622 15.1699ZM13.699 23.4626V21.3062C12.429 22.7997 10.5385 23.7267 8.27463 23.7267C3.57068 23.7267 0 20.0769 0 15.1699C0 10.2934 3.70741 6.58008 8.3798 6.58008C10.578 6.58008 12.4317 7.50967 13.7016 8.96755V6.87724H17.9244V23.4626H13.699Z" fill="black"/>
<path d="M38.4366 19.7806C36.9589 19.7806 36.5487 19.2497 36.5487 17.8579V10.4948H39.2622V6.8781H36.5487V2.83211H32.2208V6.8781H26.6465V5.86978C26.6465 4.4754 27.1961 3.94456 28.708 3.94456H29.6572V0.726562H27.5747C24.004 0.726562 22.3212 1.85426 22.3212 5.30339V6.87556H19.918V10.4923H22.3212V23.4608H26.6492V10.4923H32.2234V18.6198C32.2234 22.0029 33.5618 23.4634 37.0641 23.4634H39.2964V19.7806H38.4366Z" fill="black"/>
<path d="M53.9571 13.6771C53.6494 11.5207 51.8273 10.2279 49.7001 10.2279C47.5703 10.2279 45.8192 11.4877 45.3748 13.6771H53.9571ZM45.338 16.2652C45.6483 18.7187 47.4678 20.1131 49.7685 20.1131C51.588 20.1131 52.9974 19.2825 53.8203 17.9567H58.2508C57.2201 21.4719 53.9571 23.7273 49.666 23.7273C44.4808 23.7273 40.8418 20.2121 40.8418 15.2035C40.8418 10.1949 44.6886 6.57812 49.7711 6.57812C54.8879 6.57812 58.5953 10.228 58.5953 15.2035C58.5953 15.5693 58.5611 15.9325 58.4927 16.2652H45.338Z" fill="black"/>
<path d="M86.1128 15.1699C86.1128 12.4827 84.0172 10.4255 81.443 10.4255C78.8689 10.4255 76.7732 12.4167 76.7732 15.1699C76.7732 17.8901 78.8689 19.9144 81.443 19.9144C84.0172 19.9118 86.1128 17.8571 86.1128 15.1699ZM72.5137 6.87724H76.7364V9.03358C78.0064 7.50712 79.8943 6.58008 82.1608 6.58008C86.7964 6.58008 90.4355 10.2629 90.4355 15.1369C90.4355 20.0134 86.728 23.7292 82.0583 23.7292C79.8943 23.7292 78.109 22.8987 76.8732 21.5069V30.2872H72.5137V6.87724Z" fill="black"/>
<path d="M105.656 15.1699C105.656 12.3837 103.563 10.4255 100.986 10.4255C98.4123 10.4255 96.3167 12.4167 96.3167 15.1699C96.3167 17.8901 98.4123 19.9144 100.986 19.9144C103.563 19.9118 105.656 17.9561 105.656 15.1699ZM105.693 23.4626V21.3062C104.423 22.7997 102.532 23.7267 100.268 23.7267C95.5647 23.7267 91.9941 20.0769 91.9941 15.1699C91.9941 10.2934 95.7015 6.58008 100.371 6.58008C102.569 6.58008 104.423 7.50967 105.693 8.96755V6.87724H109.916V23.4626H105.693Z" fill="black"/>
<path d="M64.9004 8.50275C64.9004 8.50275 65.9759 6.58008 68.6078 6.58008C69.7332 6.58008 70.4616 6.95343 70.4616 6.95343V11.1849C70.4616 11.1849 68.8734 10.2375 67.4141 10.428C65.9548 10.6185 65.0319 11.9138 65.0372 13.646V23.4651H60.6777V6.87978H64.9004V8.50275Z" fill="black"/>
<path d="M129.638 6.87695L118.976 30.2335H114.48L118.666 21.2043L111.588 6.87695H116.684L120.825 16.4497L125.074 6.87695H129.638Z" fill="black"/>
<path d="M163.673 6.50128L153.103 0.608807C150 -1.12083 146.122 1.04059 146.122 4.50241V5.1069C146.122 5.65297 146.424 6.1584 146.913 6.43016L148.909 7.54262C149.495 7.87027 150.226 7.46135 150.226 6.80861V5.30501C150.226 4.55321 151.068 4.08334 151.741 4.45924L160.896 9.56435C161.57 9.94025 161.57 10.88 160.896 11.2534L151.741 16.3585C151.068 16.7344 150.226 16.2645 150.226 15.5127V14.7126C150.226 11.2508 146.348 9.08686 143.243 10.819L132.673 16.7115C129.57 18.4412 129.57 22.7691 132.673 24.4987L143.243 30.3912C146.345 32.1208 150.226 29.9594 150.226 26.4976V25.8931C150.226 25.347 149.924 24.8441 149.435 24.5698L147.439 23.4548C146.853 23.1272 146.122 23.5361 146.122 24.1889V25.6925C146.122 26.4443 145.281 26.9141 144.607 26.5382L135.452 21.4331C134.779 21.0572 134.779 20.1175 135.452 19.7416L144.607 14.6364C145.281 14.2605 146.122 14.7304 146.122 15.4822V16.2823C146.122 19.7441 150 21.9081 153.103 20.1759L163.673 14.2834C166.776 12.5588 166.776 8.23092 163.673 6.50128Z" fill="black"/>
</g>
<defs>
<clipPath id="clip0_1593_6605">
<rect width="166" height="31" fill="white"/>
</clipPath>
</defs>
</svg>
