<svg width="108" height="32" viewBox="0 0 108 32" fill="none" xmlns="http://www.w3.org/2000/svg">
<rect width="108" height="32" rx="6" fill="#C2FAE5"/>
<g clip-path="url(#clip0_1593_6396)">
<path d="M15.2674 15.8722C15.2674 14.7937 14.4594 14.0357 13.467 14.0357C12.4745 14.0357 11.6666 14.8064 11.6666 15.8722C11.6666 16.9252 12.4745 17.7088 13.467 17.7088C14.4604 17.7078 15.2674 16.9507 15.2674 15.8722ZM15.2815 19.0823V18.2475C14.7919 18.8257 14.063 19.1845 13.1902 19.1845C11.3766 19.1845 10 17.7717 10 15.8722C10 13.9845 11.4294 12.5471 13.2308 12.5471C14.0783 12.5471 14.7929 12.907 15.2825 13.4713V12.6621H16.9106V19.0823H15.2815Z" fill="black"/>
<path d="M24.8184 17.6568C24.2487 17.6568 24.0905 17.4513 24.0905 16.9125V14.0623H25.1367V12.6622H24.0905V11.0961H22.422V12.6622H20.2728V12.2719C20.2728 11.7322 20.4847 11.5267 21.0676 11.5267H21.4336V10.281H20.6307C19.254 10.281 18.6052 10.7175 18.6052 12.0527V12.6613H17.6787V14.0613H18.6052V19.0814H20.2739V14.0613H22.423V17.2074C22.423 18.517 22.939 19.0824 24.2893 19.0824H25.1499V17.6568H24.8184Z" fill="black"/>
<path d="M30.8026 15.2941C30.684 14.4594 29.9815 13.9589 29.1613 13.9589C28.3402 13.9589 27.6651 14.4466 27.4938 15.2941H30.8026ZM27.4796 16.296C27.5992 17.2457 28.3007 17.7855 29.1877 17.7855C29.8892 17.7855 30.4326 17.4639 30.7499 16.9507H32.458C32.0606 18.3115 30.8026 19.1845 29.1482 19.1845C27.1491 19.1845 25.7461 17.8238 25.7461 15.885C25.7461 13.9462 27.2292 12.5461 29.1887 12.5461C31.1615 12.5461 32.5908 13.959 32.5908 15.885C32.5908 16.0266 32.5776 16.1672 32.5513 16.296H27.4796Z" fill="black"/>
<path d="M43.2001 15.8722C43.2001 14.832 42.3921 14.0357 41.3997 14.0357C40.4072 14.0357 39.5992 14.8064 39.5992 15.8722C39.5992 16.9252 40.4072 17.7088 41.3997 17.7088C42.3921 17.7078 43.2001 16.9124 43.2001 15.8722ZM37.957 12.6621H39.5851V13.4969C40.0747 12.906 40.8026 12.5471 41.6764 12.5471C43.4636 12.5471 44.8666 13.9727 44.8666 15.8594C44.8666 17.7471 43.4372 19.1855 41.6369 19.1855C40.8026 19.1855 40.1143 18.864 39.6378 18.3252V21.7241H37.957V12.6621Z" fill="black"/>
<path d="M50.7351 15.8722C50.7351 14.7937 49.9282 14.0357 48.9346 14.0357C47.9423 14.0357 47.1343 14.8064 47.1343 15.8722C47.1343 16.9252 47.9423 17.7088 48.9346 17.7088C49.9282 17.7078 50.7351 16.9507 50.7351 15.8722ZM50.7494 19.0823V18.2475C50.2598 18.8257 49.5307 19.1845 48.6578 19.1845C46.8444 19.1845 45.4678 17.7717 45.4678 15.8722C45.4678 13.9845 46.8971 12.5471 48.6975 12.5471C49.545 12.5471 50.2598 12.907 50.7494 13.4713V12.6621H52.3775V19.0823H50.7494Z" fill="black"/>
<path d="M35.0216 13.2914C35.0216 13.2914 35.4362 12.5471 36.4509 12.5471C36.8848 12.5471 37.1657 12.6916 37.1657 12.6916V14.3296C37.1657 14.3296 36.5533 13.9629 35.9907 14.0366C35.4281 14.1104 35.0723 14.6118 35.0743 15.2823V19.0832H33.3936V12.6631H35.0216V13.2914Z" fill="black"/>
<path d="M59.9805 12.6621L55.8699 21.7033H54.1365L55.7504 18.2082L53.0215 12.6621H54.9862L56.5827 16.3677L58.2209 12.6621H59.9805Z" fill="black"/>
<path d="M73.103 12.5166L69.0278 10.2357C67.8314 9.56613 66.3363 10.4028 66.3363 11.7429V11.9769C66.3363 12.1882 66.4527 12.3839 66.6413 12.4891L67.4108 12.9197C67.6367 13.0466 67.9186 12.8883 67.9186 12.6356V12.0536C67.9186 11.7625 68.2432 11.5806 68.5027 11.7262L72.0323 13.7023C72.2922 13.8478 72.2922 14.2116 72.0323 14.3562L68.5027 16.3323C68.2432 16.4778 67.9186 16.2959 67.9186 16.0049V15.6952C67.9186 14.3551 66.4234 13.5175 65.2263 14.188L61.1512 16.469C59.9548 17.1385 59.9548 18.8138 61.1512 19.4834L65.2263 21.7643C66.4223 22.4339 67.9186 21.5972 67.9186 20.2571V20.0231C67.9186 19.8117 67.8021 19.6171 67.6136 19.5109L66.8441 19.0793C66.6181 18.9525 66.3363 19.1107 66.3363 19.3634V19.9455C66.3363 20.2365 66.0121 20.4184 65.7522 20.2729L62.2226 18.2967C61.9631 18.1512 61.9631 17.7874 62.2226 17.6419L65.7522 15.6657C66.0121 15.5202 66.3363 15.7021 66.3363 15.9931V16.3028C66.3363 17.6429 67.8314 18.4806 69.0278 17.81L73.103 15.5291C74.2993 14.8615 74.2993 13.1862 73.103 12.5166Z" fill="black"/>
</g>
<g clip-path="url(#clip1_1593_6396)">
<path d="M90 8C85.584 8 82 11.584 82 16C82 20.416 85.584 24 90 24C94.416 24 98 20.416 98 16C98 11.584 94.416 8 90 8ZM90.8 21.6H89.2V20H90.8V21.6ZM92.456 15.4L91.736 16.136C91.16 16.72 90.8 17.2 90.8 18.4H89.2V18C89.2 17.12 89.56 16.32 90.136 15.736L91.128 14.728C91.424 14.44 91.6 14.04 91.6 13.6C91.6 12.72 90.88 12 90 12C89.12 12 88.4 12.72 88.4 13.6H86.8C86.8 11.832 88.232 10.4 90 10.4C91.768 10.4 93.2 11.832 93.2 13.6C93.2 14.304 92.912 14.944 92.456 15.4Z" fill="#0B0F41"/>
</g>
<defs>
<clipPath id="clip0_1593_6396">
<rect width="64" height="12" fill="white" transform="translate(10 10)"/>
</clipPath>
<clipPath id="clip1_1593_6396">
<rect width="20" height="20" fill="white" transform="translate(80 6)"/>
</clipPath>
</defs>
</svg>
