<svg width="30" height="30" viewBox="0 0 30 30" fill="none" xmlns="http://www.w3.org/2000/svg">
<g clip-path="url(#clip0_1593_6543)">
<path d="M27.7174 9.61881H26.1622C26.1503 9.60557 26.1392 9.59191 26.1265 9.57926L17.6483 1.10098C17.2663 0.718945 16.6468 0.718945 16.2648 1.10098C15.8828 1.48301 15.8828 2.1024 16.2648 2.48443L23.3991 9.61875H6.60082L13.7352 2.48443C14.1172 2.1024 14.1172 1.48301 13.7352 1.10098C13.3532 0.718945 12.7338 0.718945 12.3517 1.10098L3.87346 9.57926C3.86074 9.59197 3.84961 9.60562 3.83771 9.61881H2.28264C1.02398 9.61881 0 10.6428 0 11.9014V13.2057C0 14.4046 0.929004 15.3905 2.10492 15.4815L3.97992 26.7317C4.21682 28.1527 5.43422 29.184 6.8748 29.184H23.4117C24.8628 29.184 26.1118 28.1007 26.317 26.6643L27.9148 15.4799C29.0814 15.3795 29.9999 14.3978 29.9999 13.2057V11.9014C30 10.6428 28.976 9.61881 27.7174 9.61881ZM28.0435 13.2057C28.0435 13.3856 27.8972 13.5318 27.7174 13.5318C27.4171 13.5318 18.3634 13.5318 17.9348 13.5318C17.3946 13.5318 16.9566 13.9698 16.9566 14.5101C16.9566 15.0503 17.3946 15.4884 17.9348 15.4884H25.9373L24.3803 26.3876C24.3118 26.8665 23.8955 27.2275 23.4118 27.2275H6.8748C6.39463 27.2275 5.98881 26.8837 5.90982 26.4101L4.08961 15.4884H12.0652C12.6054 15.4884 13.0435 15.0504 13.0435 14.5101C13.0435 13.9699 12.6055 13.5318 12.0652 13.5318C11.636 13.5318 2.5817 13.5318 2.28264 13.5318C2.10281 13.5318 1.95656 13.3855 1.95656 13.2057V11.9014C1.95656 11.7216 2.10287 11.5753 2.28264 11.5753H27.7174C27.8972 11.5753 28.0435 11.7216 28.0435 11.9014V13.2057Z" fill="#0B0F41"/>
<path d="M9.13062 17.4453C8.59039 17.4453 8.15234 17.8833 8.15234 18.4236V24.2932C8.15234 24.8334 8.59033 25.2714 9.13062 25.2714C9.67092 25.2714 10.1089 24.8335 10.1089 24.2932V18.4235C10.1089 17.8833 9.67092 17.4453 9.13062 17.4453Z" fill="#0B0F41"/>
<path d="M14.9998 17.4453C14.4595 17.4453 14.0215 17.8833 14.0215 18.4236V24.2932C14.0215 24.8334 14.4595 25.2714 14.9998 25.2714C15.54 25.2714 15.978 24.8335 15.978 24.2932V18.4235C15.978 17.8833 15.54 17.4453 14.9998 17.4453Z" fill="#0B0F41"/>
<path d="M20.8689 17.4453C20.3287 17.4453 19.8906 17.8833 19.8906 18.4236V24.2932C19.8906 24.8334 20.3286 25.2714 20.8689 25.2714C21.4091 25.2714 21.8472 24.8335 21.8472 24.2932V18.4235C21.8472 17.8833 21.4091 17.4453 20.8689 17.4453Z" fill="#0B0F41"/>
</g>
<defs>
<clipPath id="clip0_1593_6543">
<rect width="30" height="30" fill="white"/>
</clipPath>
</defs>
</svg>
