<svg width="14" height="19" viewBox="0 0 14 19" fill="none" xmlns="http://www.w3.org/2000/svg">
<path d="M11.9997 6.66732H11.1663V5.00065C11.1663 2.70065 9.29967 0.833984 6.99967 0.833984C4.69967 0.833984 2.83301 2.70065 2.83301 5.00065V6.66732H1.99967C1.08301 6.66732 0.333008 7.41732 0.333008 8.33398V16.6673C0.333008 17.584 1.08301 18.334 1.99967 18.334H11.9997C12.9163 18.334 13.6663 17.584 13.6663 16.6673V8.33398C13.6663 7.41732 12.9163 6.66732 11.9997 6.66732ZM6.99967 14.1673C6.08301 14.1673 5.33301 13.4173 5.33301 12.5007C5.33301 11.584 6.08301 10.834 6.99967 10.834C7.91634 10.834 8.66634 11.584 8.66634 12.5007C8.66634 13.4173 7.91634 14.1673 6.99967 14.1673ZM9.58301 6.66732H4.41634V5.00065C4.41634 3.57565 5.57467 2.41732 6.99967 2.41732C8.42467 2.41732 9.58301 3.57565 9.58301 5.00065V6.66732Z" fill="#505985"/>
</svg>
