<svg width="53" height="44" viewBox="0 0 53 44" fill="none" xmlns="http://www.w3.org/2000/svg">
<g clip-path="url(#clip0_1593_6411)">
<path d="M43.1195 12.0644C42.742 12.0644 42.4382 11.7607 42.4382 11.3832V6.35864C42.4382 5.79373 41.9812 5.3367 41.4163 5.3367H2.58276C2.01786 5.3367 1.56082 5.79373 1.56082 6.35864V11.3832C1.56082 11.7607 1.25708 12.0644 0.879533 12.0644C0.501984 12.0644 0.198242 11.7607 0.198242 11.3832V6.35864C0.198242 5.04431 1.26844 3.97412 2.58276 3.97412H41.4163C42.7306 3.97412 43.8008 5.04431 43.8008 6.35864V11.3832C43.8008 11.7607 43.4971 12.0644 43.1195 12.0644Z" fill="#737373"/>
<path d="M6.18788 9.01273C5.64001 9.01273 5.19434 8.56705 5.19434 8.01918C5.19434 7.47131 5.64001 7.02563 6.18788 7.02563C6.73576 7.02563 7.18143 7.47131 7.18143 8.01918C7.18143 8.56705 6.73576 9.01273 6.18788 9.01273Z" fill="#737373"/>
<path d="M10.1049 9.01273C9.55701 9.01273 9.11133 8.56705 9.11133 8.01918C9.11133 7.47131 9.55701 7.02563 10.1049 7.02563C10.6527 7.02563 11.0984 7.47131 11.0984 8.01918C11.0984 8.56705 10.6527 9.01273 10.1049 9.01273Z" fill="#737373"/>
<path d="M14.0228 9.01273C13.475 9.01273 13.0293 8.56705 13.0293 8.01918C13.0293 7.47131 13.475 7.02563 14.0228 7.02563C14.5707 7.02563 15.0164 7.47131 15.0164 8.01918C15.0164 8.56705 14.5707 9.01273 14.0228 9.01273Z" fill="#737373"/>
<path fill-rule="evenodd" clip-rule="evenodd" d="M48.2574 18.6967L53.0303 23.4697C53.3232 23.7626 53.3232 24.2375 53.0303 24.5304L48.2574 29.3033C47.9645 29.5962 47.4896 29.5962 47.1967 29.3033C46.9038 29.0104 46.9038 28.5356 47.1967 28.2427L50.6893 24.75H37V23.25H50.6893L47.1967 19.7574C46.9038 19.4645 46.9038 18.9896 47.1967 18.6967C47.4896 18.4038 47.9645 18.4038 48.2574 18.6967Z" fill="#737373"/>
<path fill-rule="evenodd" clip-rule="evenodd" d="M2.58276 40.0258H41.4163C42.7306 40.0258 43.8008 38.9556 43.8008 37.6413V28H42.4382V37.6413C42.4382 38.2062 41.9812 38.6632 41.4163 38.6632H2.58276C2.01786 38.6632 1.56082 38.2062 1.56082 37.6413V12.0645H42.4382V20H43.8008V11.3832C43.8008 11.0056 43.4971 10.7019 43.1195 10.7019H0.879533C0.501984 10.7019 0.198242 11.0056 0.198242 11.3832V37.6413C0.198242 38.9556 1.26844 40.0258 2.58276 40.0258Z" fill="#737373"/>
</g>
<defs>
<clipPath id="clip0_1593_6411">
<rect width="53" height="44" fill="white"/>
</clipPath>
</defs>
</svg>
