<svg width="22" height="26" viewBox="0 0 22 26" fill="none" xmlns="http://www.w3.org/2000/svg">
<path d="M21.9375 6.75V19.25C21.9375 22.5238 19.2738 25.1875 16 25.1875H11C10.4825 25.1875 10.0625 24.7675 10.0625 24.25C10.0625 23.7325 10.4825 23.3125 11 23.3125H16C18.24 23.3125 20.0625 21.49 20.0625 19.25V6.75C20.0625 4.51 18.24 2.6875 16 2.6875H11C10.4825 2.6875 10.0625 2.2675 10.0625 1.75C10.0625 1.2325 10.4825 0.8125 11 0.8125H16C19.2738 0.8125 21.9375 3.47625 21.9375 6.75ZM14.1625 12.3375L9.1625 7.33746C8.79625 6.97121 8.20249 6.97121 7.83624 7.33746C7.46999 7.70371 7.46999 8.29751 7.83624 8.66376L11.2362 12.0638H1C0.4825 12.0638 0.0625 12.4838 0.0625 13.0013C0.0625 13.5188 0.4825 13.9388 1 13.9388H11.2362L7.83624 17.3386C7.46999 17.7049 7.46999 18.2987 7.83624 18.665C8.01874 18.8475 8.25874 18.94 8.49874 18.94C8.73875 18.94 8.97875 18.8487 9.16125 18.665L14.1613 13.665C14.5288 13.2962 14.5287 12.7038 14.1625 12.3375Z" fill="#0B0F41"/>
</svg>
