<svg width="14" height="18" viewBox="0 0 14 18" fill="none" xmlns="http://www.w3.org/2000/svg">
<path d="M11.9997 6.16732H11.1663V4.50065C11.1663 2.20065 9.29967 0.333984 6.99967 0.333984C4.69967 0.333984 2.83301 2.20065 2.83301 4.50065V6.16732H1.99967C1.08301 6.16732 0.333008 6.91732 0.333008 7.83398V16.1673C0.333008 17.084 1.08301 17.834 1.99967 17.834H11.9997C12.9163 17.834 13.6663 17.084 13.6663 16.1673V7.83398C13.6663 6.91732 12.9163 6.16732 11.9997 6.16732ZM6.99967 13.6673C6.08301 13.6673 5.33301 12.9173 5.33301 12.0007C5.33301 11.084 6.08301 10.334 6.99967 10.334C7.91634 10.334 8.66634 11.084 8.66634 12.0007C8.66634 12.9173 7.91634 13.6673 6.99967 13.6673ZM9.58301 6.16732H4.41634V4.50065C4.41634 3.07565 5.57467 1.91732 6.99967 1.91732C8.42467 1.91732 9.58301 3.07565 9.58301 4.50065V6.16732Z" fill="#CED4D9"/>
</svg>
