<svg width="30" height="30" viewBox="0 0 30 30" fill="none" xmlns="http://www.w3.org/2000/svg">
<g clip-path="url(#clip0_1593_6562)">
<path d="M13.9311 0C13.6476 0 13.3758 0.1126 13.1753 0.31303C12.9749 0.513459 12.8623 0.7853 12.8623 1.06875V13.9312C12.8623 14.7841 13.2011 15.602 13.8041 16.205C14.4072 16.8081 15.2251 17.1469 16.0779 17.1469H28.9311C29.0722 17.1469 29.2119 17.1189 29.3422 17.0646C29.4725 17.0103 29.5907 16.9308 29.6901 16.8305C29.7895 16.7303 29.868 16.6114 29.9212 16.4806C29.9743 16.3499 30.001 16.2099 29.9998 16.0687C29.9948 11.8086 28.3003 7.72431 25.2879 4.71191C22.2755 1.69951 18.1912 0.00496235 13.9311 0V0ZM16.0779 15C15.9368 15.0012 15.7968 14.9745 15.6661 14.9214C15.5353 14.8682 15.4164 14.7897 15.3161 14.6903C15.2159 14.5909 15.1363 14.4727 15.082 14.3424C15.0278 14.2121 14.9998 14.0724 14.9998 13.9312V2.18437C18.3122 2.44437 21.423 3.87807 23.7723 6.22746C26.1217 8.57685 27.5554 11.6876 27.8154 15H16.0779Z" fill="#0B0F41"/>
<path d="M26.4001 19.3499C26.2672 19.3025 26.1262 19.2819 25.9853 19.2892C25.8443 19.2966 25.7063 19.3318 25.579 19.3928C25.4518 19.4538 25.3378 19.5394 25.2439 19.6447C25.1499 19.75 25.0776 19.8728 25.0314 20.0062C24.1949 22.4179 22.592 24.4896 20.4675 25.9048C18.343 27.32 15.8136 28.001 13.2658 27.8437C10.3537 27.663 7.61018 26.416 5.55921 24.3408C3.50824 22.2656 2.29351 19.5077 2.147 16.5937C2.02628 14.0689 2.72514 11.5727 4.13931 9.47764C5.55348 7.38258 7.60714 5.80092 9.99388 4.96866C10.1268 4.92187 10.2493 4.84936 10.3542 4.75525C10.4592 4.66115 10.5445 4.5473 10.6055 4.4202C10.6664 4.2931 10.7017 4.15524 10.7094 4.01449C10.717 3.87375 10.6969 3.73287 10.6501 3.59991C10.6033 3.46694 10.5308 3.3445 10.4367 3.23956C10.3426 3.13462 10.2288 3.04924 10.1017 2.98831C9.97457 2.92737 9.83671 2.89206 9.69596 2.8844C9.55522 2.87674 9.41434 2.89687 9.28138 2.94366C6.46455 3.924 4.03953 5.78764 2.36722 8.25725C0.694915 10.7269 -0.1353 13.6704 0.000127685 16.6499C0.16764 20.0983 1.59783 23.3645 4.01823 25.8264C6.43863 28.2883 9.68011 29.7738 13.1251 29.9999H13.9126C16.7954 30.0164 19.611 29.1303 21.9648 27.4659C24.3185 25.8014 26.0924 23.4421 27.0376 20.7187C27.1343 20.4526 27.1215 20.159 27.002 19.9024C26.8824 19.6458 26.666 19.4471 26.4001 19.3499Z" fill="#0B0F41"/>
</g>
<defs>
<clipPath id="clip0_1593_6562">
<rect width="30" height="30" fill="white"/>
</clipPath>
</defs>
</svg>
