<svg width="30" height="30" viewBox="0 0 30 30" fill="none" xmlns="http://www.w3.org/2000/svg">
<g clip-path="url(#clip0_1593_6567)">
<path d="M1.11298 5.30847C0.782164 5.30847 0.513672 5.03996 0.513672 4.70912V3.51042C0.513672 1.85861 1.85853 0.513672 3.51023 0.513672H4.70886C5.03968 0.513672 5.30817 0.782181 5.30817 1.11302C5.30817 1.44386 5.03968 1.71237 4.70886 1.71237H3.51023C2.51897 1.71237 1.7123 2.5191 1.7123 3.51042V4.70912C1.7123 5.03996 1.44381 5.30847 1.11298 5.30847Z" fill="#0B0F41"/>
<path fill-rule="evenodd" clip-rule="evenodd" d="M1.11277 5.82226C0.498598 5.82226 0 5.32396 0 4.70918V3.51048C0 1.57472 1.57496 0 3.51003 0H4.70865C5.32283 0 5.82142 0.498292 5.82142 1.11308C5.82142 1.72786 5.32283 2.22616 4.70865 2.22616H3.51003C2.80212 2.22616 2.22555 2.8031 2.22555 3.51048V4.70918C2.22555 5.32396 1.72695 5.82226 1.11277 5.82226ZM0.513462 4.70918C0.513462 5.04002 0.781954 5.30853 1.11277 5.30853C1.4436 5.30853 1.71209 5.04002 1.71209 4.70918V3.51048C1.71209 2.51915 2.51876 1.71243 3.51003 1.71243H4.70865C5.03947 1.71243 5.30796 1.44392 5.30796 1.11308C5.30796 0.782237 5.03947 0.513728 4.70865 0.513728H3.51003C1.85832 0.513728 0.513462 1.85867 0.513462 3.51048V4.70918Z" fill="#0B0F41"/>
<path d="M23.8866 5.30847C23.5558 5.30847 23.2873 5.03996 23.2873 4.70912V3.51042C23.2873 2.5191 22.4806 1.71237 21.4893 1.71237H20.2907C19.9599 1.71237 19.6914 1.44386 19.6914 1.11302C19.6914 0.782181 19.9599 0.513672 20.2907 0.513672H21.4893C23.141 0.513672 24.4859 1.85861 24.4859 3.51042V4.70912C24.4859 5.03996 24.2174 5.30847 23.8866 5.30847Z" fill="#0B0F41"/>
<path fill-rule="evenodd" clip-rule="evenodd" d="M23.8864 5.82226C23.2722 5.82226 22.7736 5.32396 22.7736 4.70918V3.51048C22.7736 2.8031 22.197 2.22616 21.4891 2.22616H20.2905C19.6763 2.22616 19.1777 1.72786 19.1777 1.11308C19.1777 0.498292 19.6763 0 20.2905 0H21.4891C23.4242 0 24.9992 1.57472 24.9992 3.51048V4.70918C24.9992 5.32396 24.5006 5.82226 23.8864 5.82226ZM23.2871 4.70918C23.2871 5.04002 23.5556 5.30853 23.8864 5.30853C24.2172 5.30853 24.4857 5.04002 24.4857 4.70918V3.51048C24.4857 1.85867 23.1408 0.513728 21.4891 0.513728H20.2905C19.9597 0.513728 19.6912 0.782237 19.6912 1.11308C19.6912 1.44392 19.9597 1.71243 20.2905 1.71243H21.4891C22.4804 1.71243 23.2871 2.51915 23.2871 3.51048V4.70918Z" fill="#0B0F41"/>
<path d="M15.4928 1.71237H9.4997C9.16888 1.71237 8.90039 1.44386 8.90039 1.11302C8.90039 0.782181 9.16888 0.513672 9.4997 0.513672H15.4928C15.8236 0.513672 16.0921 0.782181 16.0921 1.11302C16.0921 1.44386 15.8236 1.71237 15.4928 1.71237Z" fill="#0B0F41"/>
<path fill-rule="evenodd" clip-rule="evenodd" d="M15.4926 2.22616H9.49949C8.88532 2.22616 8.38672 1.72786 8.38672 1.11308C8.38672 0.498292 8.88532 0 9.49949 0H15.4926C16.1068 0 16.6054 0.498292 16.6054 1.11308C16.6054 1.72786 16.1068 2.22616 15.4926 2.22616ZM9.49949 1.71243H15.4926C15.8234 1.71243 16.0919 1.44392 16.0919 1.11308C16.0919 0.782237 15.8234 0.513728 15.4926 0.513728H9.49949C9.16867 0.513728 8.90018 0.782237 8.90018 1.11308C8.90018 1.44392 9.16867 1.71243 9.49949 1.71243Z" fill="#0B0F41"/>
<path d="M13.0956 24.4858H9.4997C9.16888 24.4858 8.90039 24.2173 8.90039 23.8865C8.90039 23.5556 9.16888 23.2871 9.4997 23.2871H13.0956C13.4264 23.2871 13.6949 23.5556 13.6949 23.8865C13.6949 24.2173 13.4264 24.4858 13.0956 24.4858Z" fill="#0B0F41"/>
<path fill-rule="evenodd" clip-rule="evenodd" d="M13.0954 24.9996H9.49949C8.88532 24.9996 8.38672 24.5013 8.38672 23.8865C8.38672 23.2717 8.88532 22.7734 9.49949 22.7734H13.0954C13.7095 22.7734 14.2081 23.2717 14.2081 23.8865C14.2081 24.5013 13.7095 24.9996 13.0954 24.9996ZM9.49949 24.4859H13.0954C13.4262 24.4859 13.6947 24.2174 13.6947 23.8865C13.6947 23.5557 13.4262 23.2872 13.0954 23.2872H9.49949C9.16867 23.2872 8.90018 23.5557 8.90018 23.8865C8.90018 24.2174 9.16867 24.4859 9.49949 24.4859Z" fill="#0B0F41"/>
<path d="M4.70886 24.4862H3.51023C1.85853 24.4862 0.513672 23.1413 0.513672 21.4895V20.2908C0.513672 19.9599 0.782164 19.6914 1.11298 19.6914C1.44381 19.6914 1.7123 19.9599 1.7123 20.2908V21.4895C1.7123 22.4808 2.51897 23.2875 3.51023 23.2875H4.70886C5.03968 23.2875 5.30817 23.556 5.30817 23.8869C5.30817 24.2177 5.03968 24.4862 4.70886 24.4862Z" fill="#0B0F41"/>
<path fill-rule="evenodd" clip-rule="evenodd" d="M4.70865 25H3.51003C1.57496 25 0 23.4253 0 21.4895V20.2908C0 19.676 0.498598 19.1777 1.11277 19.1777C1.72695 19.1777 2.22555 19.676 2.22555 20.2908V21.4895C2.22555 22.1969 2.80212 22.7738 3.51003 22.7738H4.70865C5.32283 22.7738 5.82142 23.2721 5.82142 23.8869C5.82142 24.5017 5.32283 25 4.70865 25ZM3.51003 24.4863H4.70865C5.03947 24.4863 5.30796 24.2178 5.30796 23.8869C5.30796 23.5561 5.03947 23.2876 4.70865 23.2876H3.51003C2.51876 23.2876 1.71209 22.4808 1.71209 21.4895V20.2908C1.71209 19.96 1.4436 19.6915 1.11277 19.6915C0.781954 19.6915 0.513462 19.96 0.513462 20.2908V21.4895C0.513462 23.1413 1.85832 24.4863 3.51003 24.4863Z" fill="#0B0F41"/>
<path d="M1.11298 16.0945C0.782164 16.0945 0.513672 15.826 0.513672 15.4952V9.50169C0.513672 9.17085 0.782164 8.90234 1.11298 8.90234C1.44381 8.90234 1.7123 9.17085 1.7123 9.50169V15.4952C1.7123 15.826 1.44381 16.0945 1.11298 16.0945Z" fill="#0B0F41"/>
<path fill-rule="evenodd" clip-rule="evenodd" d="M1.11278 16.6083C0.498598 16.6083 0 16.11 0 15.4952V9.50175C0 8.88696 0.498598 8.38867 1.11278 8.38867C1.72695 8.38867 2.22555 8.88696 2.22555 9.50175V15.4952C2.22555 16.11 1.72695 16.6083 1.11278 16.6083ZM0.513462 15.4952C0.513462 15.8261 0.781955 16.0946 1.11278 16.0946C1.4436 16.0946 1.71209 15.8261 1.71209 15.4952V9.50175C1.71209 9.17091 1.4436 8.9024 1.11278 8.9024C0.781955 8.9024 0.513462 9.17091 0.513462 9.50175V15.4952Z" fill="#0B0F41"/>
<path d="M23.8864 13.6971C23.5556 13.6971 23.2871 13.4286 23.2871 13.0978V9.50169C23.2871 9.17085 23.5556 8.90234 23.8864 8.90234C24.2172 8.90234 24.4857 9.17085 24.4857 9.50169V13.0978C24.4857 13.4286 24.2172 13.6971 23.8864 13.6971Z" fill="#0B0F41"/>
<path fill-rule="evenodd" clip-rule="evenodd" d="M23.8862 14.2109C23.272 14.2109 22.7734 13.7126 22.7734 13.0978V9.50175C22.7734 8.88696 23.272 8.38867 23.8862 8.38867C24.5004 8.38867 24.999 8.88696 24.999 9.50175V13.0978C24.999 13.7126 24.5004 14.2109 23.8862 14.2109ZM23.2869 13.0978C23.2869 13.4287 23.5554 13.6972 23.8862 13.6972C24.217 13.6972 24.4855 13.4287 24.4855 13.0978V9.50175C24.4855 9.17091 24.217 8.9024 23.8862 8.9024C23.5554 8.9024 23.2869 9.17091 23.2869 9.50175V13.0978Z" fill="#0B0F41"/>
<path d="M17.2716 29.4866C16.8359 29.4866 16.4824 29.1368 16.4824 28.7054V12.2949C16.4824 11.8635 16.8359 11.5137 17.2716 11.5137C17.4822 11.5137 17.6807 11.5951 17.8296 11.7425L29.247 23.0451C29.3959 23.1913 29.4806 23.3926 29.4806 23.5999C29.4806 24.0312 29.1272 24.3811 28.6914 24.3811H22.5803L17.8392 29.2482C17.6855 29.404 17.4858 29.4866 17.2716 29.4866ZM17.6928 13.3014V27.6738L21.8879 23.3674C22.0017 23.25 22.1591 23.1841 22.3237 23.1841H27.6747L17.6928 13.3014ZM28.3973 23.8982H28.4094H28.3973Z" fill="#0B0F41"/>
<path fill-rule="evenodd" clip-rule="evenodd" d="M17.8402 29.248C17.6864 29.4038 17.4867 29.4865 17.2725 29.4865C16.8368 29.4865 16.4833 29.1366 16.4833 28.7053V12.2947C16.4833 11.8634 16.8368 11.5135 17.2725 11.5135C17.4831 11.5135 17.6816 11.595 17.8305 11.7424L29.2479 23.045C29.3968 23.1912 29.4815 23.3924 29.4815 23.5997C29.4815 24.0311 29.1281 24.381 28.6923 24.381H22.5812L17.8402 29.248ZM22.8014 24.8945L18.211 29.607C17.9604 29.8609 17.6273 30 17.2725 30C16.5506 30 15.9648 29.4204 15.9648 28.7053V12.2947C15.9648 11.5796 16.5506 11 17.2725 11C17.6207 11 17.951 11.1356 18.197 11.3792L29.6129 22.6803C29.6132 22.6806 29.6135 22.6809 29.6138 22.6812C29.8602 22.9236 30 23.2557 30 23.5997C30 24.3149 29.4142 24.8945 28.6923 24.8945H22.8014ZM17.6937 27.6736L21.8889 23.3673C22.0026 23.2499 22.16 23.184 22.3246 23.184H27.6756L17.6937 13.3012V27.6736ZM18.2122 14.5407V26.4018L21.5147 23.0117C21.5145 23.012 21.515 23.0115 21.5147 23.0117C21.7271 22.7929 22.0204 22.6704 22.3246 22.6704H26.4236L18.2122 14.5407Z" fill="#0B0F41"/>
</g>
<defs>
<clipPath id="clip0_1593_6567">
<rect width="30" height="30" fill="white"/>
</clipPath>
</defs>
</svg>
