<svg width="18" height="18" viewBox="0 0 18 18" fill="none" xmlns="http://www.w3.org/2000/svg">
<path d="M9.00033 0.666016C4.40033 0.666016 0.666992 4.39935 0.666992 8.99935C0.666992 13.5993 4.40033 17.3327 9.00033 17.3327C13.6003 17.3327 17.3337 13.5993 17.3337 8.99935C17.3337 4.39935 13.6003 0.666016 9.00033 0.666016ZM9.83366 14.8327H8.16699V13.166H9.83366V14.8327ZM11.5587 8.37435L10.8087 9.14102C10.2087 9.74935 9.83366 10.2493 9.83366 11.4993H8.16699V11.0827C8.16699 10.166 8.54199 9.33268 9.14199 8.72435L10.1753 7.67435C10.4837 7.37435 10.667 6.95768 10.667 6.49935C10.667 5.58268 9.91699 4.83268 9.00033 4.83268C8.08366 4.83268 7.33366 5.58268 7.33366 6.49935H5.66699C5.66699 4.65768 7.15866 3.16602 9.00033 3.16602C10.842 3.16602 12.3337 4.65768 12.3337 6.49935C12.3337 7.23268 12.0337 7.89935 11.5587 8.37435Z" fill="#505985"/>
</svg>
