<svg width="136" height="33" viewBox="0 0 136 33" fill="none" xmlns="http://www.w3.org/2000/svg">
<path fill-rule="evenodd" clip-rule="evenodd" d="M6.83895 32.2426H0V0.535156H6.83895V32.2426ZM23.9108 0.535156H17.2202C17.2202 6.37014 14.6989 11.7257 10.3031 15.2295L7.65234 17.3418L17.923 32.2439H26.3675L16.9171 18.5317C21.3967 13.7852 23.9108 7.39958 23.9108 0.535156ZM34.8199 32.2364H28.3613V0.543687H34.8199V32.2364ZM54.3303 10.3083V11.7108C52.5876 10.4458 50.4841 9.70237 48.2155 9.70237C42.2112 9.70237 37.3438 14.8815 37.3438 21.2704C37.3438 27.6592 42.2112 32.8384 48.2155 32.8384C50.4841 32.8384 52.5876 32.095 54.3303 30.8303V32.2315H60.4992V10.3083H54.3303ZM54.3121 21.2667C54.3121 24.3819 51.8094 26.9074 48.7223 26.9074C45.6355 26.9074 43.1328 24.3819 43.1328 21.2667C43.1328 18.1515 45.6355 15.6267 48.7223 15.6267C51.8094 15.6267 54.3121 18.1515 54.3121 21.2667ZM119.413 11.7108V10.3083H125.581V32.2315H119.413V30.8303C117.67 32.095 115.566 32.8384 113.297 32.8384C107.293 32.8384 102.426 27.6592 102.426 21.2704C102.426 14.8815 107.293 9.70237 113.297 9.70237C115.566 9.70237 117.67 10.4458 119.413 11.7108ZM113.804 26.9074C116.891 26.9074 119.394 24.3819 119.394 21.2667C119.394 18.1515 116.891 15.6267 113.804 15.6267C110.717 15.6267 108.215 18.1515 108.215 21.2667C108.215 24.3819 110.717 26.9074 113.804 26.9074ZM128.256 28.5764C128.256 26.3013 129.989 24.4572 132.127 24.4572C134.265 24.4572 135.998 26.3013 135.998 28.5764C135.998 30.8509 134.265 32.6952 132.127 32.6952C129.989 32.6952 128.256 30.8509 128.256 28.5764ZM91.4683 9.7255C89.0041 9.7255 86.6721 10.5395 85.1129 12.7854V10.3164H78.9707V32.2383H85.1883V20.7176C85.1883 17.3838 87.2893 15.7513 89.819 15.7513C92.5301 15.7513 94.0887 17.4746 94.0887 20.6722V32.2383H100.25V18.2969C100.25 13.1951 96.4378 9.7255 91.4683 9.7255ZM70.0443 10.3144V13.1697C71.2809 11.4569 73.585 10.3156 76.09 10.3156V16.6949C76.0793 16.6948 76.0688 16.6942 76.0583 16.6936L76.0556 16.6935C76.0465 16.693 76.0373 16.6924 76.028 16.6922C76.0243 16.6921 76.0205 16.692 76.0167 16.692C73.576 16.692 70.0584 18.5483 70.0584 22.0016V32.2372H63.7285V10.3144H70.0443Z" fill="#17120F"/>
</svg>
