<svg width="84" height="32" viewBox="0 0 84 32" fill="none" xmlns="http://www.w3.org/2000/svg">
<rect width="84" height="32" rx="6" fill="#FEB4C7"/>
<g clip-path="url(#clip0_1593_6372)">
<path d="M66 8C61.584 8 58 11.584 58 16C58 20.416 61.584 24 66 24C70.416 24 74 20.416 74 16C74 11.584 70.416 8 66 8ZM66.8 21.6H65.2V20H66.8V21.6ZM68.456 15.4L67.736 16.136C67.16 16.72 66.8 17.2 66.8 18.4H65.2V18C65.2 17.12 65.56 16.32 66.136 15.736L67.128 14.728C67.424 14.44 67.6 14.04 67.6 13.6C67.6 12.72 66.88 12 66 12C65.12 12 64.4 12.72 64.4 13.6H62.8C62.8 11.832 64.232 10.4 66 10.4C67.768 10.4 69.2 11.832 69.2 13.6C69.2 14.304 68.912 14.944 68.456 15.4Z" fill="#0B0F41"/>
</g>
<path fill-rule="evenodd" clip-rule="evenodd" d="M12.0115 20.815H10V11H12.0115V20.815ZM17.0328 11H15.0649C15.0649 12.8062 14.3234 14.464 13.0305 15.5486L12.2508 16.2025L15.2716 20.8154H17.7553L14.9758 16.5708C16.2933 15.1015 17.0328 13.1249 17.0328 11ZM20.2411 20.8124H18.3415V11.002H20.2411V20.8124ZM25.9807 14.0274V14.4615C25.4681 14.07 24.8494 13.8398 24.1822 13.8398C22.4162 13.8398 20.9846 15.443 20.9846 17.4207C20.9846 19.3984 22.4162 21.0016 24.1822 21.0016C24.8494 21.0016 25.4681 20.7715 25.9807 20.38V20.8137H27.7951V14.0274H25.9807ZM25.9745 17.4197C25.9745 18.384 25.2384 19.1658 24.3304 19.1658C23.4225 19.1658 22.6865 18.384 22.6865 17.4197C22.6865 16.4554 23.4225 15.6738 24.3304 15.6738C25.2384 15.6738 25.9745 16.4554 25.9745 17.4197ZM45.1224 14.4615V14.0274H46.9367V20.8137H45.1224V20.38C44.6098 20.7715 43.9912 21.0016 43.3238 21.0016C41.5578 21.0016 40.1262 19.3984 40.1262 17.4207C40.1262 15.443 41.5578 13.8398 43.3238 13.8398C43.9912 13.8398 44.6098 14.07 45.1224 14.4615ZM43.4719 19.1658C44.3799 19.1658 45.1159 18.384 45.1159 17.4197C45.1159 16.4554 44.3799 15.6738 43.4719 15.6738C42.5639 15.6738 41.8279 16.4554 41.8279 17.4197C41.8279 18.384 42.5639 19.1658 43.4719 19.1658ZM47.7229 19.6794C47.7229 18.9751 48.2326 18.4043 48.8614 18.4043C49.4902 18.4043 50 18.9751 50 19.6794C50 20.3834 49.4902 20.9544 48.8614 20.9544C48.2326 20.9544 47.7229 20.3834 47.7229 19.6794ZM36.9021 13.8457C36.1773 13.8457 35.4914 14.0977 35.0328 14.7929V14.0286H33.2263V20.8145H35.055V17.2483C35.055 16.2163 35.673 15.711 36.417 15.711C37.2144 15.711 37.6728 16.2444 37.6728 17.2342V20.8145H39.485V16.499C39.485 14.9197 38.3637 13.8457 36.9021 13.8457ZM30.6024 14.0273V14.9112C30.9661 14.381 31.6438 14.0277 32.3806 14.0277V16.0024L32.3716 16.0021L32.3705 16.002L32.3637 16.0016L32.359 16.0015C31.6411 16.0015 30.6065 16.5761 30.6065 17.6451V20.8135H28.7448V14.0273H30.6024Z" fill="#17120F"/>
<defs>
<clipPath id="clip0_1593_6372">
<rect width="20" height="20" fill="white" transform="translate(56 6)"/>
</clipPath>
</defs>
</svg>
