<svg width="272" height="34" viewBox="0 0 272 34" fill="none" xmlns="http://www.w3.org/2000/svg">
<rect width="48" height="34" rx="6" fill="white"/>
<path fill-rule="evenodd" clip-rule="evenodd" d="M14.5717 23.0326H11.6639L9.48332 14.4393C9.37983 14.044 9.16007 13.6945 8.83682 13.5298C8.0301 13.1159 7.14115 12.7865 6.17139 12.6204V12.2895H10.8557C11.5022 12.2895 11.9871 12.7865 12.0679 13.3637L13.1993 19.5623L16.1058 12.2895H18.9328L14.5717 23.0326ZM20.5491 23.0326H17.8029L20.0642 12.2895H22.8105L20.5491 23.0326ZM26.3634 15.2657C26.4442 14.6871 26.9291 14.3562 27.4948 14.3562C28.3838 14.2731 29.3521 14.4393 30.1602 14.8518L30.6451 12.5387C29.837 12.2079 28.948 12.0417 28.1413 12.0417C25.4759 12.0417 23.5364 13.5298 23.5364 15.5951C23.5364 17.1662 24.9102 17.9912 25.88 18.4882C26.9291 18.9837 27.3332 19.3146 27.2524 19.8101C27.2524 20.5534 26.4442 20.8843 25.6375 20.8843C24.6678 20.8843 23.698 20.6365 22.8105 20.2226L22.3256 22.5371C23.2953 22.9495 24.3445 23.1157 25.3143 23.1157C28.303 23.1973 30.1602 21.7107 30.1602 19.4793C30.1602 16.6693 26.3634 16.5045 26.3634 15.2657ZM39.7714 23.0326L37.5908 12.2895H35.2487C34.7638 12.2895 34.2789 12.6204 34.1173 13.1159L30.0794 23.0326H32.9065L33.4708 21.4629H36.9443L37.2676 23.0326H39.7714ZM35.6527 15.1826L36.4594 19.2315H34.1981L35.6527 15.1826Z" fill="#172B85"/>
<rect x="52" width="48" height="34" rx="6" fill="white"/>
<path fill-rule="evenodd" clip-rule="evenodd" d="M76.2709 24.623C74.6367 26.0797 72.5169 26.9591 70.2006 26.9591C65.0321 26.9591 60.8423 22.5808 60.8423 17.1799C60.8423 11.7789 65.0321 7.40063 70.2006 7.40063C72.5169 7.40063 74.6367 8.28003 76.2709 9.73676C77.905 8.28003 80.0248 7.40063 82.3411 7.40063C87.5096 7.40063 91.6994 11.7789 91.6994 17.1799C91.6994 22.5808 87.5096 26.9591 82.3411 26.9591C80.0248 26.9591 77.905 26.0797 76.2709 24.623Z" fill="#ED0006"/>
<path fill-rule="evenodd" clip-rule="evenodd" d="M76.271 24.623C78.2832 22.8293 79.5591 20.1603 79.5591 17.1799C79.5591 14.1995 78.2832 11.5305 76.271 9.73676C77.9052 8.28003 80.0249 7.40063 82.3413 7.40063C87.5097 7.40063 91.6996 11.7789 91.6996 17.1799C91.6996 22.5808 87.5097 26.9591 82.3413 26.9591C80.0249 26.9591 77.9052 26.0797 76.271 24.623Z" fill="#F9A000"/>
<path fill-rule="evenodd" clip-rule="evenodd" d="M76.2709 9.73682C78.2831 11.5305 79.5589 14.1995 79.5589 17.1799C79.5589 20.1603 78.2831 22.8293 76.2709 24.623C74.2588 22.8293 72.9829 20.1603 72.9829 17.1799C72.9829 14.1995 74.2588 11.5305 76.2709 9.73682Z" fill="#FF5E00"/>
<rect x="104" width="48" height="34" rx="6" fill="#1F72CD"/>
<path fill-rule="evenodd" clip-rule="evenodd" d="M112.605 12.0417L108.114 22.308H113.491L114.157 20.6711H115.681L116.347 22.308H122.265V21.0587L122.792 22.308H125.853L126.381 21.0323V22.308H138.688L140.185 20.7136L141.586 22.308L147.907 22.3212L143.402 17.2035L147.907 12.0417H141.684L140.227 13.6066L138.87 12.0417H125.481L124.331 14.6915L123.155 12.0417H117.79V13.2485L117.193 12.0417H112.605ZM113.646 13.4996H116.266L119.245 20.4611V13.4996H122.116L124.417 18.491L126.537 13.4996H129.394V20.8663H127.656L127.641 15.0938L125.107 20.8663H123.553L121.004 15.0938V20.8663H117.429L116.751 19.2147H113.088L112.412 20.8648H110.496L113.646 13.4996ZM138.051 13.4996H130.984V20.8619H137.942L140.185 18.4219L142.346 20.8619H144.606L141.322 17.2021L144.606 13.4996H142.444L140.213 15.9116L138.051 13.4996ZM114.92 14.746L113.714 17.688H116.126L114.92 14.746ZM132.729 16.3696V15.0248V15.0235H137.139L139.063 17.1742L137.054 19.3366H132.729V17.8685H136.585V16.3696H132.729Z" fill="white"/>
<rect x="156" width="48" height="34" rx="6" fill="white"/>
<path d="M186.607 17.4069C187.312 17.4227 188.02 17.3748 188.722 17.4318C189.433 17.5687 189.604 18.6799 188.973 19.0439C188.542 19.2836 188.03 19.1332 187.563 19.1754H186.607V17.4069ZM189.129 15.4051C189.286 15.9758 188.753 16.4882 188.221 16.4096H186.607C186.619 15.8714 186.585 15.2873 186.624 14.7775C187.27 14.7963 187.923 14.7391 188.566 14.8074C188.842 14.879 189.073 15.1136 189.129 15.4051ZM193.013 6.94218C193.043 8.03202 193.018 9.17947 193.026 10.2914C193.024 14.8122 193.03 19.3329 193.023 23.8539C192.994 25.5482 191.541 27.0204 189.912 27.0542C188.282 27.061 186.651 27.0553 185.02 27.0571V20.2226C186.797 20.2132 188.575 20.2419 190.35 20.2083C191.174 20.1549 192.077 19.5934 192.115 18.6568C192.212 17.7163 191.354 17.0657 190.539 16.9629C190.225 16.9545 190.234 16.8686 190.539 16.8311C191.316 16.6576 191.926 15.8265 191.698 14.9941C191.503 14.1187 190.566 13.7798 189.787 13.7815C188.198 13.7704 186.609 13.78 185.021 13.7767C185.031 12.5008 184.999 11.2235 185.038 9.94854C185.164 8.28485 186.654 6.91285 188.26 6.94261C189.844 6.94236 191.429 6.94237 193.013 6.9423V6.94218Z" fill="url(#paint0_linear_1593_6179)"/>
<path d="M167.068 10.1212C167.109 8.42957 168.569 6.96945 170.195 6.94473C171.82 6.93956 173.444 6.94398 175.069 6.94249C175.064 12.6022 175.077 18.2625 175.062 23.9219C174.999 25.593 173.555 27.0252 171.946 27.0548C170.319 27.0609 168.691 27.0557 167.064 27.0574V19.9925C168.645 20.3783 170.302 20.5425 171.915 20.2866C172.879 20.1264 173.934 19.6373 174.26 18.6042C174.501 17.7205 174.365 16.7904 174.401 15.8834V13.777H171.61C171.598 15.1702 171.636 16.5657 171.59 17.9571C171.515 18.8124 170.695 19.3558 169.914 19.3268C168.945 19.3374 167.026 18.6018 167.026 18.6018C167.022 15.9917 167.054 12.7229 167.068 10.1214V10.1212Z" fill="url(#paint1_linear_1593_6179)"/>
<path d="M176.11 14.6265C175.963 14.6587 176.08 14.1096 176.042 13.9013C176.052 12.5842 176.022 11.2657 176.059 9.94951C176.185 8.27879 177.687 6.90336 179.299 6.94246H184.048C184.043 12.6022 184.056 18.2625 184.041 23.9219C183.978 25.5929 182.534 27.0252 180.925 27.0548C179.298 27.0611 177.67 27.0558 176.042 27.0574V19.3168C177.154 20.259 178.665 20.4056 180.05 20.4082C181.094 20.4078 182.131 20.2415 183.145 19.9928V18.5747C182.003 19.163 180.66 19.5366 179.393 19.1987C178.51 18.9715 177.868 18.0894 177.882 17.1476C177.78 16.1681 178.336 15.134 179.268 14.8428C180.425 14.4686 181.686 14.7548 182.77 15.2412C183.002 15.3669 183.238 15.5227 183.145 15.1216V14.0069C181.332 13.5612 179.401 13.3971 177.579 13.8821C177.052 14.0358 176.538 14.2688 176.11 14.6266V14.6265Z" fill="url(#paint2_linear_1593_6179)"/>
<path d="M210.796 21.168C210.388 21.168 210.016 21.096 209.68 20.952C209.344 20.808 209.08 20.6 208.888 20.328C208.696 20.056 208.6 19.724 208.6 19.332C208.6 18.932 208.696 18.604 208.888 18.348C209.08 18.084 209.344 17.888 209.68 17.76C210.016 17.624 210.392 17.556 210.808 17.556H212.788V17.124C212.788 16.708 212.664 16.38 212.416 16.14C212.176 15.9 211.816 15.78 211.336 15.78C210.864 15.78 210.496 15.896 210.232 16.128C209.968 16.352 209.788 16.656 209.692 17.04L208.804 16.752C208.9 16.424 209.052 16.128 209.26 15.864C209.468 15.592 209.744 15.376 210.088 15.216C210.44 15.048 210.86 14.964 211.348 14.964C212.1 14.964 212.684 15.16 213.1 15.552C213.516 15.936 213.724 16.48 213.724 17.184V19.836C213.724 20.076 213.836 20.196 214.06 20.196H214.6V21H213.772C213.508 21 213.296 20.928 213.136 20.784C212.976 20.632 212.896 20.432 212.896 20.184V20.124H212.752C212.664 20.276 212.544 20.436 212.392 20.604C212.248 20.764 212.048 20.896 211.792 21C211.536 21.112 211.204 21.168 210.796 21.168ZM210.904 20.352C211.464 20.352 211.916 20.188 212.26 19.86C212.612 19.524 212.788 19.056 212.788 18.456V18.324H210.844C210.468 18.324 210.156 18.408 209.908 18.576C209.668 18.736 209.548 18.98 209.548 19.308C209.548 19.636 209.672 19.892 209.92 20.076C210.176 20.26 210.504 20.352 210.904 20.352ZM215.898 21V15.132H216.822V16.128H216.99C217.118 15.848 217.334 15.596 217.638 15.372C217.95 15.14 218.406 15.024 219.006 15.024C219.446 15.024 219.838 15.116 220.182 15.3C220.534 15.484 220.814 15.756 221.022 16.116C221.23 16.476 221.334 16.92 221.334 17.448V21H220.386V17.52C220.386 16.936 220.238 16.512 219.942 16.248C219.654 15.984 219.262 15.852 218.766 15.852C218.198 15.852 217.734 16.036 217.374 16.404C217.022 16.772 216.846 17.32 216.846 18.048V21H215.898ZM225.742 21.168C225.238 21.168 224.774 21.048 224.35 20.808C223.926 20.568 223.59 20.22 223.342 19.764C223.094 19.308 222.97 18.768 222.97 18.144V17.988C222.97 17.364 223.094 16.828 223.342 16.38C223.59 15.924 223.922 15.576 224.338 15.336C224.762 15.088 225.23 14.964 225.742 14.964C226.15 14.964 226.494 15.02 226.774 15.132C227.062 15.236 227.294 15.372 227.47 15.54C227.646 15.7 227.782 15.872 227.878 16.056H228.046V12.6H228.994V21H228.07V20.028H227.902C227.742 20.324 227.494 20.588 227.158 20.82C226.822 21.052 226.35 21.168 225.742 21.168ZM225.994 20.328C226.602 20.328 227.094 20.136 227.47 19.752C227.854 19.36 228.046 18.816 228.046 18.12V18.012C228.046 17.316 227.854 16.776 227.47 16.392C227.094 16 226.602 15.804 225.994 15.804C225.394 15.804 224.898 16 224.506 16.392C224.122 16.776 223.93 17.316 223.93 18.012V18.12C223.93 18.816 224.122 19.36 224.506 19.752C224.898 20.136 225.394 20.328 225.994 20.328ZM234.062 21V15.132H234.986V15.864H235.154C235.266 15.656 235.45 15.464 235.706 15.288C235.962 15.112 236.322 15.024 236.786 15.024C237.242 15.024 237.61 15.124 237.89 15.324C238.178 15.524 238.386 15.768 238.514 16.056H238.682C238.818 15.768 239.022 15.524 239.294 15.324C239.574 15.124 239.962 15.024 240.458 15.024C240.85 15.024 241.194 15.104 241.49 15.264C241.786 15.424 242.018 15.656 242.186 15.96C242.362 16.256 242.45 16.612 242.45 17.028V21H241.502V17.112C241.502 16.72 241.386 16.412 241.154 16.188C240.93 15.956 240.614 15.84 240.206 15.84C239.774 15.84 239.418 15.98 239.138 16.26C238.866 16.54 238.73 16.944 238.73 17.472V21H237.782V17.112C237.782 16.72 237.666 16.412 237.434 16.188C237.21 15.956 236.894 15.84 236.486 15.84C236.054 15.84 235.698 15.98 235.418 16.26C235.146 16.54 235.01 16.944 235.01 17.472V21H234.062ZM247.099 21.168C246.507 21.168 245.983 21.044 245.527 20.796C245.079 20.548 244.727 20.2 244.471 19.752C244.223 19.296 244.099 18.76 244.099 18.144V17.988C244.099 17.38 244.223 16.848 244.471 16.392C244.727 15.936 245.079 15.584 245.527 15.336C245.983 15.088 246.507 14.964 247.099 14.964C247.691 14.964 248.211 15.088 248.659 15.336C249.115 15.584 249.467 15.936 249.715 16.392C249.971 16.848 250.099 17.38 250.099 17.988V18.144C250.099 18.76 249.971 19.296 249.715 19.752C249.467 20.2 249.115 20.548 248.659 20.796C248.211 21.044 247.691 21.168 247.099 21.168ZM247.099 20.316C247.723 20.316 248.219 20.12 248.587 19.728C248.963 19.328 249.151 18.792 249.151 18.12V18.012C249.151 17.34 248.963 16.808 248.587 16.416C248.219 16.016 247.723 15.816 247.099 15.816C246.483 15.816 245.987 16.016 245.611 16.416C245.235 16.808 245.047 17.34 245.047 18.012V18.12C245.047 18.792 245.235 19.328 245.611 19.728C245.987 20.12 246.483 20.316 247.099 20.316ZM251.805 21V15.132H252.729V15.852H252.897C253.001 15.596 253.161 15.408 253.377 15.288C253.593 15.168 253.877 15.108 254.229 15.108H254.925V15.972H254.169C253.745 15.972 253.401 16.092 253.137 16.332C252.881 16.564 252.753 16.928 252.753 17.424V21H251.805ZM258.805 21.168C258.213 21.168 257.693 21.044 257.245 20.796C256.797 20.54 256.449 20.184 256.201 19.728C255.953 19.272 255.829 18.744 255.829 18.144V18C255.829 17.392 255.953 16.86 256.201 16.404C256.449 15.948 256.793 15.596 257.233 15.348C257.673 15.092 258.177 14.964 258.745 14.964C259.297 14.964 259.785 15.084 260.209 15.324C260.633 15.556 260.965 15.892 261.205 16.332C261.445 16.772 261.565 17.288 261.565 17.88V18.312H256.777C256.801 18.944 257.005 19.44 257.389 19.8C257.773 20.152 258.253 20.328 258.829 20.328C259.333 20.328 259.721 20.212 259.993 19.98C260.265 19.748 260.473 19.472 260.617 19.152L261.433 19.548C261.313 19.796 261.145 20.044 260.929 20.292C260.721 20.54 260.445 20.748 260.101 20.916C259.765 21.084 259.333 21.168 258.805 21.168ZM256.789 17.532H260.605C260.573 16.988 260.385 16.564 260.041 16.26C259.705 15.956 259.273 15.804 258.745 15.804C258.209 15.804 257.769 15.956 257.425 16.26C257.081 16.564 256.869 16.988 256.789 17.532ZM263.653 21.168C263.421 21.168 263.225 21.092 263.065 20.94C262.913 20.788 262.837 20.592 262.837 20.352C262.837 20.112 262.913 19.916 263.065 19.764C263.225 19.612 263.421 19.536 263.653 19.536C263.893 19.536 264.089 19.612 264.241 19.764C264.393 19.916 264.469 20.112 264.469 20.352C264.469 20.592 264.393 20.788 264.241 20.94C264.089 21.092 263.893 21.168 263.653 21.168ZM266.688 21.168C266.456 21.168 266.26 21.092 266.1 20.94C265.948 20.788 265.872 20.592 265.872 20.352C265.872 20.112 265.948 19.916 266.1 19.764C266.26 19.612 266.456 19.536 266.688 19.536C266.928 19.536 267.124 19.612 267.276 19.764C267.428 19.916 267.504 20.112 267.504 20.352C267.504 20.592 267.428 20.788 267.276 20.94C267.124 21.092 266.928 21.168 266.688 21.168ZM269.723 21.168C269.491 21.168 269.295 21.092 269.135 20.94C268.983 20.788 268.907 20.592 268.907 20.352C268.907 20.112 268.983 19.916 269.135 19.764C269.295 19.612 269.491 19.536 269.723 19.536C269.963 19.536 270.159 19.612 270.311 19.764C270.463 19.916 270.539 20.112 270.539 20.352C270.539 20.592 270.463 20.788 270.311 20.94C270.159 21.092 269.963 21.168 269.723 21.168Z" fill="#505985"/>
<defs>
<linearGradient id="paint0_linear_1593_6179" x1="184.966" y1="16.5696" x2="192.976" y2="16.5696" gradientUnits="userSpaceOnUse">
<stop stop-color="#58B03A"/>
<stop offset="1" stop-color="#55B330"/>
</linearGradient>
<linearGradient id="paint1_linear_1593_6179" x1="166.894" y1="17.1926" x2="174.937" y2="17.1926" gradientUnits="userSpaceOnUse">
<stop stop-color="#0F6EB6"/>
<stop offset="1" stop-color="#006DBA"/>
</linearGradient>
<linearGradient id="paint2_linear_1593_6179" x1="176.031" y1="16.7647" x2="184.046" y2="16.7647" gradientUnits="userSpaceOnUse">
<stop stop-color="#DE0D3D"/>
<stop offset="1" stop-color="#E30138"/>
</linearGradient>
</defs>
</svg>
