<svg width="80" height="32" viewBox="0 0 80 32" fill="none" xmlns="http://www.w3.org/2000/svg">
<rect width="80" height="32" rx="6" fill="#F6C657"/>
<g clip-path="url(#clip0_2262_7034)">
<path d="M67.213 11.9717L65.8135 20.717C65.8083 20.7491 65.8102 20.782 65.819 20.8133C65.8279 20.8446 65.8436 20.8736 65.8649 20.8983C65.8862 20.9229 65.9127 20.9427 65.9426 20.9561C65.9724 20.9694 66.0048 20.9762 66.0375 20.9758H67.6937C67.7522 20.9763 67.8089 20.956 67.8535 20.9185C67.8982 20.881 67.9279 20.8289 67.9372 20.7715L69.3368 12.0262C69.342 11.9941 69.3401 11.9612 69.3312 11.9299C69.3224 11.8986 69.3067 11.8696 69.2854 11.8449C69.264 11.8203 69.2375 11.8006 69.2077 11.7872C69.1779 11.7738 69.1455 11.767 69.1128 11.7674H67.4565C67.3979 11.7662 67.3409 11.7863 67.2961 11.8239C67.2513 11.8615 67.2218 11.9141 67.213 11.9717ZM65.4444 14.5238H63.8729C63.8146 14.5232 63.7579 14.5435 63.7133 14.5809C63.6687 14.6184 63.6391 14.6705 63.6298 14.7278L63.5778 15.0498C63.5778 15.0498 62.3572 13.7335 60.1962 14.623C58.9564 15.1323 58.3613 16.1846 58.108 16.9555C58.108 16.9555 57.3043 19.2984 59.1221 20.588C59.1221 20.588 60.8077 21.8283 62.7057 20.5116L62.6729 20.717C62.6653 20.7653 62.6738 20.8147 62.6971 20.8576C62.7205 20.9006 62.7573 20.9348 62.802 20.955C62.8316 20.9689 62.8641 20.9758 62.8969 20.9758H64.4694C64.5281 20.977 64.5851 20.9569 64.6299 20.9193C64.6747 20.8817 64.7042 20.8291 64.7129 20.7715L65.6694 14.7826C65.6748 14.7505 65.6729 14.7177 65.6639 14.6864C65.6549 14.6552 65.6391 14.6263 65.6175 14.6019C65.5962 14.577 65.5696 14.5571 65.5397 14.5435C65.5098 14.53 65.4773 14.5231 65.4444 14.5235V14.5238ZM63.132 17.8336C63.0707 18.252 62.858 18.6338 62.5337 18.9074C62.2081 19.1819 61.7937 19.3301 61.3669 19.3247C61.1995 19.3267 61.0328 19.3026 60.8729 19.2533C60.1944 19.0382 59.8072 18.395 59.9185 17.6976C59.9803 17.2794 60.1932 16.8979 60.5175 16.6245C60.8428 16.3498 61.2569 16.2011 61.6836 16.2058C61.8511 16.204 62.0177 16.2284 62.1776 16.2779C62.8603 16.4916 63.2457 17.1359 63.1337 17.834H63.132V17.8336ZM54.7404 17.9991C55.5926 17.9991 56.4169 17.698 57.0643 17.1505C57.7104 16.6049 58.1382 15.8468 58.2699 15.014C58.5451 13.2818 57.1746 11.7698 55.2315 11.7698H52.1014C52.043 11.7693 51.9863 11.7896 51.9417 11.8271C51.8971 11.8646 51.8675 11.9168 51.8583 11.9742L50.4584 20.7194C50.4508 20.7677 50.4593 20.8171 50.4826 20.8601C50.5059 20.903 50.5428 20.9373 50.5875 20.9574C50.6175 20.9713 50.6496 20.9783 50.6823 20.9783H52.3397C52.3981 20.9788 52.4548 20.9585 52.4994 20.921C52.544 20.8835 52.5736 20.8313 52.5828 20.7739L52.9937 18.2059C53.0024 18.1481 53.0319 18.0955 53.0767 18.0579C53.1215 18.0202 53.1786 18 53.2372 18.0012L54.7404 17.9991ZM56.1266 14.9353C56.0244 15.5757 55.5228 16.0472 54.5632 16.0472H53.3363L53.7089 13.7182H54.9137C55.9058 13.72 56.2289 14.2976 56.1266 14.937V14.9353Z" fill="#0070E0"/>
<path d="M48.5696 14.6719L46.674 17.8308L45.7119 14.6952C45.6969 14.6451 45.6659 14.6013 45.6236 14.5703C45.5813 14.5394 45.53 14.5229 45.4775 14.5234H43.7668C43.7225 14.5228 43.6796 14.5382 43.6458 14.5666C43.612 14.595 43.5897 14.6347 43.583 14.6782C43.5788 14.707 43.5818 14.7364 43.5917 14.7639L45.3156 20.0457L43.7563 22.5346C43.7431 22.5551 43.7342 22.5781 43.7302 22.6021C43.7262 22.6261 43.7272 22.6507 43.733 22.6743C43.7389 22.698 43.7496 22.7202 43.7644 22.7396C43.7792 22.759 43.7978 22.7752 43.8191 22.7872C43.8477 22.8035 43.8801 22.8119 43.913 22.8115H45.7555C45.8081 22.8116 45.8598 22.7983 45.9057 22.7728C45.9516 22.7473 45.9901 22.7104 46.0175 22.6657L50.8328 14.8017C50.8503 14.7743 50.8599 14.7427 50.8606 14.7103C50.8612 14.6779 50.853 14.6459 50.8367 14.6178C50.8204 14.5896 50.7969 14.5663 50.7685 14.5503C50.74 14.5342 50.7078 14.526 50.6752 14.5266H48.8333C48.7805 14.5261 48.7284 14.5392 48.6822 14.5647C48.636 14.5902 48.5972 14.6271 48.5696 14.6719ZM42.797 14.5234H41.2241C41.1656 14.5229 41.1088 14.5432 41.0642 14.5808C41.0195 14.6184 40.9898 14.6707 40.9806 14.7281L40.9297 15.0497C40.9297 15.0497 39.7081 13.7335 37.547 14.623C36.3076 15.1323 35.7122 16.1846 35.4599 16.9555C35.4599 16.9555 34.6555 19.2984 36.473 20.5879C36.473 20.5879 38.1589 21.8282 40.0569 20.5116L40.0241 20.717C40.0164 20.7653 40.0249 20.8147 40.0482 20.8577C40.0715 20.9007 40.1084 20.9349 40.1532 20.955C40.1828 20.9689 40.2153 20.9758 40.2481 20.9758H41.8206C41.879 20.9762 41.9356 20.9558 41.9802 20.9184C42.0248 20.8809 42.0545 20.8288 42.0638 20.7715L43.0206 14.7826C43.0284 14.7343 43.02 14.6848 42.9967 14.6417C42.9734 14.5986 42.9364 14.5644 42.8916 14.5443C42.8618 14.5306 42.8294 14.5235 42.7967 14.5234H42.797ZM40.4842 17.8339C40.4223 18.2519 40.2095 18.6331 39.8856 18.9063C39.5602 19.1808 39.1462 19.3294 38.7195 19.3247C38.5523 19.3266 38.3859 19.3025 38.2262 19.2533C37.5481 19.0382 37.1612 18.3949 37.2725 17.6972C37.3345 17.2781 37.5482 16.8959 37.8735 16.6224C38.2001 16.3478 38.6155 16.1998 39.0432 16.2057C39.2106 16.204 39.3777 16.2283 39.5375 16.2779C40.2132 16.4916 40.598 17.1355 40.4863 17.8339H40.4846H40.4842ZM32.093 17.9991C32.9437 17.9986 33.7667 17.6975 34.4148 17.1494C35.0603 16.6038 35.4876 15.846 35.619 15.0137C35.8946 13.2817 34.5237 11.7698 32.5813 11.7698H29.4509C29.3925 11.7692 29.3358 11.7895 29.2911 11.8269C29.2464 11.8643 29.2167 11.9164 29.2074 11.9738L27.812 20.7166C27.8042 20.765 27.8127 20.8145 27.836 20.8576C27.8593 20.9006 27.8963 20.9349 27.9411 20.955C27.9708 20.9685 28.0032 20.9758 28.036 20.9758H29.6923C29.7508 20.9764 29.8075 20.956 29.8522 20.9184C29.8969 20.8809 29.9266 20.8286 29.9358 20.7711L30.346 18.2031C30.3547 18.1454 30.3842 18.0929 30.429 18.0553C30.4738 18.0177 30.5309 17.9976 30.5895 17.9987H32.093V17.9991ZM33.4792 14.9349C33.377 15.5754 32.8758 16.0468 31.9161 16.0468H30.6892L31.0611 13.7178H32.266C33.2584 13.7196 33.5811 14.2976 33.4792 14.9366V14.9349Z" fill="#003087"/>
<path d="M21.3856 12.2184C21.4229 10.2873 19.8214 8.80591 17.6192 8.80591H13.0641C12.9579 8.80586 12.8553 8.84351 12.7746 8.91208C12.6938 8.98065 12.6404 9.07563 12.6239 9.17991L10.7987 20.5224C10.7906 20.5738 10.7937 20.6263 10.8079 20.6764C10.8221 20.7265 10.8471 20.7729 10.8811 20.8125C10.9151 20.852 10.9573 20.8838 11.0048 20.9056C11.0523 20.9274 11.104 20.9387 11.1563 20.9387H13.8549L13.4332 23.565C13.425 23.6164 13.4281 23.669 13.4423 23.7191C13.4566 23.7691 13.4815 23.8156 13.5155 23.8551C13.5495 23.8947 13.5917 23.9265 13.6392 23.9483C13.6867 23.9701 13.7384 23.9813 13.7907 23.9814H15.9891C16.0951 23.9814 16.1897 23.9435 16.2706 23.8752C16.3508 23.8065 16.3641 23.7118 16.3808 23.6074L17.0262 19.8313C17.0426 19.7272 17.096 19.5919 17.1765 19.5232C17.2571 19.4545 17.3276 19.417 17.434 19.417H18.7791C20.936 19.417 22.7656 17.8922 23.1001 15.7717C23.337 14.2667 22.6882 12.897 21.3856 12.2181V12.2184Z" fill="#001C64"/>
<path d="M14.4391 16.7556L13.7669 20.9945L13.3448 23.6535C13.3367 23.7049 13.3399 23.7574 13.3542 23.8075C13.3684 23.8575 13.3934 23.9039 13.4274 23.9435C13.4614 23.983 13.5037 24.0147 13.5512 24.0365C13.5987 24.0582 13.6504 24.0695 13.7027 24.0694H16.0295C16.1355 24.0694 16.2381 24.0317 16.3187 23.9631C16.3992 23.8946 16.4526 23.7996 16.469 23.6954L17.0823 19.8309C17.0988 19.7267 17.1522 19.6317 17.2328 19.5632C17.3135 19.4946 17.4161 19.4569 17.5222 19.4569H18.8917C21.0486 19.4569 22.8782 17.8922 23.2131 15.7717C23.4503 14.2667 22.6884 12.897 21.3859 12.218C21.3824 12.3783 21.3684 12.5382 21.3437 12.6968C21.0091 14.8166 19.1788 16.3816 17.0226 16.3816H14.879C14.7729 16.3817 14.6703 16.4195 14.5897 16.4881C14.509 16.5567 14.4557 16.6517 14.4391 16.756" fill="#0070E0"/>
<path d="M13.7666 20.9959H11.0596C11.0073 20.9959 10.9556 20.9846 10.9081 20.9628C10.8606 20.941 10.8184 20.9092 10.7844 20.8696C10.7505 20.8301 10.7256 20.7836 10.7114 20.7336C10.6972 20.6835 10.6942 20.6309 10.7024 20.5796L12.5275 9.06882C12.544 8.9646 12.5974 8.86967 12.678 8.80111C12.7587 8.73255 12.8613 8.69486 12.9674 8.69482H17.6195C19.8217 8.69482 21.4232 10.2887 21.3859 12.2194C20.8378 11.9335 20.1939 11.7701 19.4885 11.7701H15.6102C15.504 11.77 15.4013 11.8077 15.3206 11.8763C15.2399 11.9448 15.1865 12.0398 15.1699 12.1441L14.4395 16.757L13.7662 20.9959H13.7666Z" fill="#003087"/>
</g>
<defs>
<clipPath id="clip0_2262_7034">
<rect width="60" height="17" fill="white" transform="translate(10 8)"/>
</clipPath>
</defs>
</svg>
