<svg width="25" height="24" viewBox="0 0 25 24" fill="none" xmlns="http://www.w3.org/2000/svg">
<path d="M19.5 6.5H17.5C17.5 3.74 15.26 1.5 12.5 1.5C9.74 1.5 7.5 3.74 7.5 6.5H5.5C4.4 6.5 3.5 7.4 3.5 8.5V20.5C3.5 21.6 4.4 22.5 5.5 22.5H19.5C20.6 22.5 21.5 21.6 21.5 20.5V8.5C21.5 7.4 20.6 6.5 19.5 6.5ZM12.5 3.5C14.16 3.5 15.5 4.84 15.5 6.5H9.5C9.5 4.84 10.84 3.5 12.5 3.5ZM19.5 20.5H5.5V8.5H19.5V20.5ZM12.5 12.5C10.84 12.5 9.5 11.16 9.5 9.5H7.5C7.5 12.26 9.74 14.5 12.5 14.5C15.26 14.5 17.5 12.26 17.5 9.5H15.5C15.5 11.16 14.16 12.5 12.5 12.5Z" fill="white"/>
</svg>
