<svg width="24" height="25" viewBox="0 0 24 25" fill="none" xmlns="http://www.w3.org/2000/svg">
<path d="M17.8447 23.5C17.8029 23.5001 17.7613 23.4925 17.7222 23.4775C16.4701 23.0148 15.3565 22.2406 14.4868 21.228C12.863 19.2857 12.664 16.8157 12.6895 15.5165C12.7068 14.6981 12.826 13.8851 13.0443 13.0962C13.0643 13.0236 13.1075 12.9596 13.1674 12.914C13.2272 12.8684 13.3004 12.8437 13.3757 12.8438C13.3827 12.8434 13.3941 12.8438 13.4038 12.8438C13.8482 12.8443 14.2857 12.7345 14.6771 12.5242C15.1726 12.2509 15.5707 11.83 15.8158 11.32C15.8438 11.2616 15.8878 11.2124 15.9426 11.1779C15.9974 11.1433 16.0609 11.125 16.1257 11.125H19.5632C19.6279 11.125 19.6914 11.1433 19.7462 11.1778C19.8011 11.2123 19.845 11.2616 19.873 11.32C20.0903 11.781 20.4355 12.1697 20.8676 12.4399C21.2996 12.71 21.8003 12.8502 22.3098 12.8438C22.3862 12.8405 22.4613 12.864 22.5224 12.91C22.5834 12.9561 22.6266 13.0219 22.6445 13.0962C22.8627 13.885 22.9821 14.6979 23 15.5162C23.0611 17.5682 22.4279 19.5808 21.2027 21.228C20.8672 21.6296 20.4882 21.9928 20.0727 22.311C19.4315 22.8005 18.722 23.1935 17.9669 23.4775C17.9279 23.4925 17.8865 23.5001 17.8447 23.5ZM13.6435 13.5229C13.4804 14.1799 13.391 14.8531 13.377 15.53C13.3532 16.7334 13.5341 19.0165 15.0142 20.7869C15.7787 21.6766 16.7511 22.3638 17.8451 22.7873C18.4921 22.5319 19.1006 22.1883 19.6535 21.7661C20.0291 21.4786 20.3717 21.1503 20.675 20.7873C21.7979 19.2697 22.375 17.4171 22.3125 15.5303C22.2981 14.8533 22.2085 14.18 22.0453 13.5228C21.5688 13.4898 21.1049 13.3554 20.6847 13.1284C20.127 12.823 19.6663 12.367 19.355 11.8125H16.3335C16.0225 12.3668 15.5621 12.8228 15.0048 13.1284C14.5843 13.3553 14.1202 13.4898 13.6435 13.5229Z" fill="#1C1D1D"/>
<path d="M12 11.125C11.9543 11.1251 11.9091 11.116 11.8671 11.0982L4.64799 8.06986C4.07597 7.82917 3.50328 7.58915 2.92991 7.3498C2.35655 7.11011 1.78341 6.86998 1.21048 6.6294C1.14807 6.60316 1.09481 6.55908 1.05736 6.50268C1.01992 6.44629 0.999963 6.38009 1 6.31239C1.00004 6.2447 1.02006 6.17852 1.05757 6.12216C1.09507 6.06581 1.14839 6.02178 1.21082 5.99561L11.8637 1.52686C11.9057 1.50919 11.9509 1.50006 11.9964 1.5C12.042 1.49994 12.0872 1.50895 12.1292 1.52652L15.4086 2.90152C16.4056 3.31744 17.4028 3.73583 18.4 4.15667L22.7888 5.99527C22.8306 6.01259 22.8686 6.03799 22.9005 6.07001C22.9325 6.10203 22.9578 6.14004 22.9751 6.18186C22.9923 6.22369 23.0011 6.2685 23.001 6.31374C23.0009 6.35898 22.9919 6.40375 22.9744 6.44549C22.957 6.48723 22.9314 6.52511 22.8993 6.55697C22.8672 6.58883 22.8291 6.61404 22.7873 6.63116C22.7454 6.64827 22.7005 6.65696 22.6553 6.65671C22.6101 6.65647 22.5653 6.64729 22.5236 6.62973L18.1341 4.79081C17.1368 4.37085 16.14 3.95258 15.1438 3.53599L11.9967 2.21638L2.23234 6.31251C2.55326 6.44712 2.87419 6.58151 3.19511 6.71567C3.76848 6.95536 4.34163 7.19549 4.91455 7.43607L12.133 10.4644C12.2061 10.4951 12.2664 10.5502 12.3036 10.6203C12.3408 10.6904 12.3525 10.7713 12.3369 10.8491C12.3212 10.9269 12.2791 10.9969 12.2177 11.0472C12.1563 11.0975 12.0794 11.125 12 11.125Z" fill="#1C1D1D"/>
<path d="M12 23.1563C11.9548 23.1563 11.9101 23.1474 11.8684 23.1302C11.8267 23.1129 11.7888 23.0876 11.7568 23.0557C11.7249 23.0237 11.6996 22.9858 11.6823 22.9441C11.6651 22.9024 11.6562 22.8577 11.6563 22.8125V10.7813C11.6562 10.7135 11.6762 10.6473 11.7138 10.5909C11.7513 10.5346 11.8046 10.4905 11.8671 10.4644L22.5233 5.99561C22.5756 5.97364 22.6324 5.96494 22.6888 5.97028C22.7452 5.97562 22.7995 5.99483 22.8467 6.0262C22.8938 6.05757 22.9325 6.10013 22.9593 6.15008C22.9861 6.20004 23 6.25583 23 6.3125L22.9956 15.9375C22.9956 16.0287 22.9594 16.1161 22.8949 16.1806C22.8305 16.245 22.7431 16.2812 22.6519 16.2813C22.5607 16.2812 22.4733 16.245 22.4088 16.1806C22.3444 16.1161 22.3081 16.0287 22.3081 15.9375L22.3122 6.82947L12.3438 11.0098V22.264L14.896 21.0283C14.9781 20.9886 15.0726 20.9831 15.1587 21.0131C15.2449 21.043 15.3155 21.106 15.3553 21.1881C15.395 21.2702 15.4004 21.3647 15.3705 21.4508C15.3405 21.5369 15.2776 21.6076 15.1955 21.6473L12.1497 23.122C12.103 23.1445 12.0518 23.1562 12 23.1563Z" fill="#1C1D1D"/>
<path d="M11.9997 23.1562C11.951 23.1563 11.9029 23.1459 11.8587 23.1257L1.20242 18.3132C1.14211 18.286 1.09093 18.242 1.05502 18.1865C1.01912 18.1309 1.00001 18.0662 1 18V6.3125C1 6.22133 1.03622 6.1339 1.10068 6.06943C1.16515 6.00497 1.25258 5.96875 1.34375 5.96875C1.43492 5.96875 1.52235 6.00497 1.58682 6.06943C1.65128 6.1339 1.6875 6.22133 1.6875 6.3125V17.7781L12.1413 22.4993C12.213 22.5316 12.2714 22.5876 12.3068 22.6578C12.3422 22.728 12.3524 22.8082 12.3359 22.885C12.3193 22.9618 12.2769 23.0307 12.2157 23.08C12.1545 23.1294 12.0783 23.1563 11.9997 23.1562Z" fill="#1C1D1D"/>
<path d="M8.21877 12.8437C8.17507 12.8438 8.13177 12.8355 8.0912 12.8192L4.6537 11.4442C4.58989 11.4187 4.53519 11.3747 4.49665 11.3178C4.45812 11.2609 4.43751 11.1937 4.4375 11.125V7.75396C4.43749 7.68685 4.45713 7.6212 4.49399 7.56512C4.53086 7.50904 4.58334 7.46499 4.64496 7.4384L15.1394 2.90318C15.2231 2.86703 15.3177 2.86561 15.4025 2.89922C15.4872 2.93284 15.5551 2.99874 15.5913 3.08243C15.6274 3.16612 15.6288 3.26074 15.5952 3.34548C15.5616 3.43022 15.4957 3.49813 15.412 3.53428L5.125 7.97988V10.8924L7.875 11.9921V9.19543C7.87498 9.13017 7.89353 9.06626 7.92848 9.01115C7.96344 8.95605 8.01335 8.91203 8.07239 8.88424L18.1194 4.16103C18.1603 4.1417 18.2045 4.13062 18.2497 4.12842C18.2949 4.12623 18.34 4.13297 18.3826 4.14825C18.4252 4.16353 18.4643 4.18705 18.4977 4.21748C18.5312 4.2479 18.5583 4.28462 18.5776 4.32555C18.5968 4.36647 18.6078 4.41078 18.6099 4.45596C18.612 4.50113 18.6052 4.54627 18.5898 4.5888C18.5744 4.63133 18.5508 4.67041 18.5203 4.7038C18.4898 4.7372 18.4531 4.76425 18.4121 4.78341L8.56252 9.41362V12.5C8.56252 12.5912 8.5263 12.6786 8.46184 12.7431C8.39737 12.8075 8.30994 12.8437 8.21877 12.8437Z" fill="#1C1D1D"/>
<path d="M17.5039 18.6875C17.4588 18.6875 17.4141 18.6787 17.3725 18.6615C17.3308 18.6443 17.293 18.619 17.2611 18.5871L15.8811 17.2121C15.8171 17.1476 15.7812 17.0604 15.7813 16.9695C15.7813 16.8786 15.8174 16.7915 15.8816 16.7271C15.9458 16.6628 16.0328 16.6265 16.1237 16.6261C16.2146 16.6258 16.3019 16.6615 16.3665 16.7253L17.5032 17.8576L19.6617 15.6948C19.6935 15.6626 19.7314 15.6371 19.7731 15.6197C19.8148 15.6022 19.8596 15.5932 19.9048 15.593C19.95 15.5929 19.9948 15.6017 20.0366 15.6189C20.0785 15.6361 20.1165 15.6614 20.1485 15.6934C20.1805 15.7253 20.2059 15.7632 20.2233 15.805C20.2406 15.8468 20.2495 15.8916 20.2495 15.9368C20.2495 15.982 20.2406 16.0268 20.2232 16.0686C20.2059 16.1103 20.1805 16.1483 20.1484 16.1802L17.7472 18.5864C17.7153 18.6185 17.6774 18.644 17.6356 18.6613C17.5939 18.6786 17.5491 18.6875 17.5039 18.6875Z" fill="#1C1D1D"/>
</svg>
