<svg width="22" height="21" viewBox="0 0 22 21" fill="none" xmlns="http://www.w3.org/2000/svg">
<path d="M8.11989 8.3784C8.53344 8.3784 8.86869 8.04315 8.86869 7.6296C8.86869 7.21605 8.53344 6.8808 8.11989 6.8808C7.70634 6.8808 7.37109 7.21605 7.37109 7.6296C7.37109 8.04315 7.70634 8.3784 8.11989 8.3784Z" fill="#C1856F"/>
<path d="M13.87 12.6312C13.6714 12.6312 13.4809 12.7101 13.3405 12.8505C13.2 12.9909 13.1212 13.1814 13.1212 13.38C13.1193 13.5308 13.1624 13.6787 13.245 13.8049C13.3276 13.9311 13.4459 14.0297 13.5849 14.0883C13.7238 14.1469 13.8771 14.1627 14.0251 14.1338C14.1731 14.1048 14.3091 14.0324 14.4158 13.9258C14.5224 13.8191 14.5948 13.6831 14.6238 13.5351C14.6527 13.3871 14.6369 13.2338 14.5783 13.0949C14.5197 12.9559 14.421 12.8376 14.2949 12.755C14.1687 12.6724 14.0208 12.6293 13.87 12.6312Z" fill="#C1856F"/>
<path d="M19.8319 8.28238C19.4926 7.96599 19.2073 7.59633 18.9871 7.18798C18.8456 6.72483 18.7808 6.24166 18.7951 5.75758C18.8768 4.90935 18.6332 4.06175 18.1135 3.38638C17.4382 2.86671 16.5906 2.62307 15.7423 2.70478C15.2743 2.71398 14.8077 2.64918 14.3599 2.51278C13.9516 2.29262 13.5819 2.00726 13.2655 1.66798C12.6965 0.979028 11.8863 0.53276 10.9999 0.419983C10.1292 0.539732 9.33653 0.985832 8.78232 1.66798C8.46403 2.00518 8.09473 2.29025 7.68792 2.51278C7.22462 2.65361 6.74156 2.71845 6.25752 2.70478C5.40617 2.62155 4.55504 2.86522 3.87672 3.38638C3.35959 4.06269 3.11931 4.91051 3.20472 5.75758C3.21157 6.24192 3.14357 6.72441 3.00312 7.18798C2.78631 7.59849 2.50055 7.96868 2.15832 8.28238C1.48198 8.84008 1.03995 9.63161 0.919922 10.5C1.03288 11.3685 1.47223 12.1614 2.14872 12.7176C2.49651 13.0469 2.78547 13.4333 3.00312 13.86C3.14395 14.3233 3.20879 14.8063 3.19512 15.2904C3.11669 16.1413 3.35987 16.9907 3.87672 17.6712C4.55642 18.1889 5.40742 18.4291 6.25752 18.3432C6.74176 18.3378 7.22402 18.4058 7.68792 18.5448C8.09684 18.7641 8.46663 19.0495 8.78232 19.3896C9.34501 20.0518 10.1371 20.4769 10.9999 20.58C11.8669 20.4624 12.6582 20.024 13.2175 19.3512C13.5448 19.001 13.9316 18.7118 14.3599 18.4968C14.8231 18.3553 15.3062 18.2904 15.7903 18.3048C16.6381 18.3817 17.484 18.1386 18.1615 17.6232C18.6827 16.9449 18.9264 16.0937 18.8431 15.2424C18.8295 14.7583 18.8943 14.2753 19.0351 13.812C19.2577 13.4052 19.5427 13.0359 19.8799 12.7176C20.5442 12.1553 20.9726 11.3636 21.0799 10.5C20.9556 9.63082 20.5104 8.83969 19.8319 8.28238ZM6.39192 7.62958C6.39003 7.28972 6.48896 6.95693 6.6762 6.6733C6.86344 6.38966 7.13058 6.16792 7.44385 6.03611C7.75711 5.9043 8.10242 5.86834 8.43612 5.93278C8.76982 5.99723 9.07692 6.15917 9.31858 6.39815C9.56024 6.63712 9.72561 6.94239 9.79378 7.27535C9.86194 7.60831 9.82985 7.954 9.70154 8.26872C9.57324 8.58344 9.3545 8.85304 9.07297 9.04344C8.79144 9.23384 8.45978 9.33648 8.11992 9.33838C7.66583 9.33839 7.2302 9.15866 6.90821 8.83847C6.58622 8.51828 6.40406 8.08367 6.40152 7.62958H6.39192ZM8.03352 14.1288C7.99043 14.1747 7.93838 14.2113 7.88059 14.2363C7.8228 14.2613 7.76049 14.2742 7.69752 14.2742C7.63455 14.2742 7.57224 14.2613 7.51446 14.2363C7.45667 14.2113 7.40462 14.1747 7.36152 14.1288C7.3156 14.0857 7.27901 14.0336 7.25399 13.9758C7.22897 13.9181 7.21606 13.8558 7.21606 13.7928C7.21606 13.7298 7.22897 13.6675 7.25399 13.6097C7.27901 13.5519 7.3156 13.4999 7.36152 13.4568L13.9375 6.87118C13.9823 6.82643 14.0354 6.79093 14.0939 6.76671C14.1524 6.74248 14.215 6.73002 14.2783 6.73002C14.3416 6.73002 14.4043 6.74248 14.4628 6.76671C14.5212 6.79093 14.5744 6.82643 14.6191 6.87118C14.6639 6.91594 14.6994 6.96907 14.7236 7.02754C14.7478 7.08602 14.7603 7.14869 14.7603 7.21198C14.7603 7.27527 14.7478 7.33795 14.7236 7.39642C14.6994 7.4549 14.6639 7.50803 14.6191 7.55278L8.03352 14.1288ZM13.8607 15.0888C13.5209 15.0888 13.1886 14.988 12.906 14.7992C12.6234 14.6104 12.4032 14.342 12.2731 14.028C12.1431 13.714 12.109 13.3685 12.1753 13.0351C12.2416 12.7018 12.4053 12.3956 12.6456 12.1553C12.886 11.915 13.1921 11.7513 13.5255 11.685C13.8588 11.6187 14.2043 11.6527 14.5183 11.7828C14.8323 11.9129 15.1007 12.1331 15.2895 12.4157C15.4783 12.6983 15.5791 13.0305 15.5791 13.3704C15.5804 13.596 15.5372 13.8197 15.452 14.0287C15.3668 14.2377 15.2413 14.4278 15.0826 14.5883C14.9239 14.7488 14.7352 14.8764 14.5272 14.9639C14.3192 15.0514 14.096 15.0971 13.8703 15.0984L13.8607 15.0888Z" fill="#C1856F"/>
</svg>
