<svg width="24" height="25" viewBox="0 0 24 25" fill="none" xmlns="http://www.w3.org/2000/svg">
<path d="M12 2C9.9233 2 7.89323 2.61581 6.16652 3.76957C4.4398 4.92332 3.09399 6.5632 2.29927 8.48182C1.50455 10.4004 1.29661 12.5116 1.70176 14.5484C2.1069 16.5852 3.10693 18.4562 4.57538 19.9246C6.04383 21.3931 7.91476 22.3931 9.95156 22.7982C11.9884 23.2034 14.0996 22.9955 16.0182 22.2007C17.9368 21.406 19.5767 20.0602 20.7304 18.3335C21.8842 16.6068 22.5 14.5767 22.5 12.5C22.5 9.71523 21.3938 7.04451 19.4246 5.07538C17.4555 3.10625 14.7848 2 12 2ZM17.4075 9.6575L10.6575 16.4075C10.5874 16.477 10.5043 16.532 10.4129 16.5693C10.3216 16.6067 10.2237 16.6256 10.125 16.625H10.08C9.97504 16.618 9.87272 16.589 9.77969 16.5399C9.68666 16.4908 9.60499 16.4227 9.54 16.34L6.54 12.59C6.46872 12.5145 6.41389 12.425 6.379 12.3272C6.34411 12.2293 6.32991 12.1253 6.33731 12.0217C6.34471 11.9181 6.37355 11.8172 6.42199 11.7254C6.47043 11.6335 6.53742 11.5527 6.61872 11.4881C6.70002 11.4234 6.79386 11.3764 6.89429 11.3499C6.99471 11.3235 7.09954 11.3182 7.20213 11.3343C7.30472 11.3505 7.40284 11.3878 7.49026 11.4438C7.57768 11.4999 7.65251 11.5735 7.71 11.66L10.185 14.75L16.3425 8.5925C16.4837 8.45127 16.6753 8.37193 16.875 8.37193C17.0747 8.37193 17.2663 8.45127 17.4075 8.5925C17.5487 8.73373 17.6281 8.92527 17.6281 9.125C17.6281 9.32473 17.5487 9.51627 17.4075 9.6575Z" fill="#C1856F"/>
</svg>
