<svg width="44" height="11" viewBox="0 0 44 11" fill="none" xmlns="http://www.w3.org/2000/svg">
<g clip-path="url(#clip0_313_5035)">
<path fill-rule="evenodd" clip-rule="evenodd" d="M5.45425 0V1.633H0.929583V4.473H5.26175V6.105H0.929583V9.177H5.55417V10.809H-1V0H5.45425ZM17.0977 1.664H17.2408V3.582H19.5278V5.022H17.2417V8.356C17.2417 8.681 17.3324 8.944 17.513 9.146C17.6945 9.346 17.942 9.447 18.2564 9.447C18.6662 9.447 19.1383 9.287 19.6718 8.967V10.492C19.0383 10.796 18.4434 10.948 17.8843 10.948C17.1326 10.948 16.545 10.727 16.1233 10.283C15.7017 9.839 15.4908 9.238 15.4908 8.48V5.022H14.4458V4.712L17.0977 1.664ZM23.6593 3.444C24.641 3.444 25.4174 3.784 25.9894 4.464C26.5614 5.145 26.8474 6.087 26.8474 7.289V7.575H22.1229C22.1944 8.22 22.4163 8.716 22.7912 9.065C23.1652 9.413 23.6785 9.587 24.3312 9.587C24.751 9.587 25.1543 9.508 25.543 9.351C25.9712 9.17015 26.3761 8.92947 26.7475 8.635V10.051C25.9656 10.649 25.0178 10.948 23.9022 10.948C22.8498 10.948 21.9891 10.605 21.3218 9.919C20.6553 9.233 20.3217 8.32 20.3217 7.18C20.3217 6.082 20.6297 5.184 21.2475 4.488C21.8644 3.791 22.6683 3.444 23.6593 3.444ZM25.1965 6.422C25.1488 5.896 25.0013 5.485 24.7528 5.188C24.5053 4.891 24.1643 4.743 23.7308 4.743C23.288 4.743 22.9314 4.885 22.6619 5.169C22.3933 5.452 22.2219 5.87 22.1513 6.422H25.1965ZM32.0935 3.443C32.8085 3.443 33.3787 3.697 33.8058 4.205C34.2321 4.713 34.4457 5.383 34.4457 6.213V10.809H32.6948V6.407C32.6948 5.937 32.5903 5.566 32.3832 5.292C32.176 5.019 31.8937 4.882 31.5362 4.882C31.2632 4.88278 30.9967 4.97339 30.7717 5.142C30.5333 5.314 30.2712 5.602 29.9852 6.004V10.809H28.227V3.582H29.9852V4.596C30.3087 4.183 30.6415 3.888 30.9825 3.71C31.3296 3.53051 31.7094 3.43922 32.0935 3.443ZM40.657 3.745V0H42.4078V10.81H39.3196C38.2526 10.81 37.3983 10.476 36.7575 9.811C36.1158 9.146 35.7959 8.238 35.7959 7.087C35.7959 6.407 35.9453 5.787 36.2433 5.23C36.5354 4.67897 36.9602 4.22561 37.4716 3.919C37.988 3.60315 38.5708 3.43912 39.1628 3.443C39.6303 3.443 40.1281 3.543 40.657 3.745ZM8.46917 3.593L13.9829 10.789L11.8168 10.802C11.8168 10.802 10.2933 8.784 10.2108 8.663C9.83317 9.224 8.6855 10.803 8.6855 10.803H6.18942L8.96508 7.059L6.31683 3.606L8.46917 3.593ZM39.5277 4.867C39.9182 4.867 40.2949 4.967 40.657 5.169V9.354H39.7348C38.3094 9.354 37.5972 8.578 37.5972 7.026C37.5972 6.381 37.7723 5.86 38.1224 5.463C38.4726 5.065 38.941 4.867 39.5277 4.867Z" fill="#090637"/>
<path fill-rule="evenodd" clip-rule="evenodd" d="M11.5586 5.17303L12.6751 3.60303L14.7669 3.60603L12.6036 6.48803L11.5586 5.17303Z" fill="#27AEE4"/>
</g>
<defs>
<clipPath id="clip0_313_5035">
<rect width="44" height="11" fill="white"/>
</clipPath>
</defs>
</svg>
