<svg width="22" height="22" viewBox="0 0 22 22" fill="none" xmlns="http://www.w3.org/2000/svg">
<g clip-path="url(#clip0_420_3986)">
<path fill-rule="evenodd" clip-rule="evenodd" d="M20.4238 3.57381C20.4238 2.47158 19.5302 1.57804 18.428 1.57804H14.7148V0L18.428 1.62302e-07C20.4018 2.48578e-07 22.0018 1.60005 22.0018 3.57381V7.28686H20.4238V3.57381Z" fill="#CC9286"/>
<path fill-rule="evenodd" clip-rule="evenodd" d="M1.57806 3.57381C1.57806 2.47158 2.4716 1.57804 3.57384 1.57804L7.28691 1.57805V1.62304e-07L3.57384 0C1.60006 -8.62765e-08 2.48578e-07 1.60005 1.62302e-07 3.57381L0 7.28686H1.57806V3.57381Z" fill="#CC9286"/>
<path fill-rule="evenodd" clip-rule="evenodd" d="M18.428 20.422C19.5302 20.422 20.4238 19.5284 20.4238 18.4262V14.7131H22.0018V18.4262C22.0018 20.4 20.4018 22 18.428 22H14.7148V20.422H18.428Z" fill="#CC9286"/>
<path fill-rule="evenodd" clip-rule="evenodd" d="M1.57806 18.4262C1.57806 19.5284 2.4716 20.422 3.57384 20.422H7.28691V22H3.57384C1.60006 22 -2.58829e-07 20.4 0 18.4262L4.86909e-07 14.7131H1.57806V18.4262Z" fill="#CC9286"/>
<g clip-path="url(#clip1_420_3986)">
<path d="M6.42969 12.9181V7.80573C6.42969 7.78528 6.42969 7.76669 6.42969 7.74624C6.44224 7.60337 6.51071 7.47124 6.62022 7.37862C6.72972 7.28601 6.87139 7.24039 7.01436 7.25173C7.08812 7.24833 7.16177 7.2605 7.23052 7.28744C7.29927 7.31438 7.36158 7.35549 7.41339 7.40809C7.46521 7.4607 7.50538 7.52362 7.53128 7.59277C7.55717 7.66192 7.56822 7.73575 7.56371 7.80945V11.2598C7.76077 11.1398 7.9679 11.0372 8.18277 10.9531V6.10284C8.19106 5.95808 8.25442 5.82197 8.35984 5.72241C8.46525 5.62285 8.60477 5.56738 8.74978 5.56738C8.89479 5.56738 9.03431 5.62285 9.13972 5.72241C9.24512 5.82197 9.30852 5.95808 9.31679 6.10284V10.6454C9.52138 10.6116 9.72783 10.5899 9.93492 10.5804V5.68549C9.9432 5.54072 10.0066 5.4046 10.112 5.30505C10.2174 5.20549 10.3569 5.15002 10.5019 5.15002C10.6469 5.15002 10.7865 5.20549 10.8919 5.30505C10.9973 5.4046 11.0607 5.54072 11.0689 5.68549V10.612C11.2778 10.638 11.4847 10.6783 11.688 10.7328V6.39285C11.6963 6.24809 11.7597 6.11197 11.8651 6.01242C11.9705 5.91286 12.11 5.85739 12.255 5.85739C12.4 5.85739 12.5395 5.91286 12.645 6.01242C12.7504 6.11197 12.8138 6.24809 12.822 6.39285V11.6911C12.822 12.2712 12.8759 12.577 13.06 12.577C13.3677 12.577 13.7534 11.3528 14.0704 10.7096C14.3492 10.1165 14.5407 9.90181 15.0287 9.90181C15.2444 9.90181 15.5678 10.111 15.5678 10.347C15.4626 10.9005 15.2968 11.4407 15.0733 11.9579C14.7953 13.2831 14.2038 14.5224 13.3481 15.5719C12.9331 15.9979 12.4328 16.3315 11.8801 16.5512C11.3274 16.7707 10.7346 16.8713 10.1403 16.8463C7.98013 16.8463 6.42969 15.6267 6.42969 12.9181Z" fill="#CC9286"/>
</g>
</g>
<defs>
<clipPath id="clip0_420_3986">
<rect width="22" height="22" fill="white"/>
</clipPath>
<clipPath id="clip1_420_3986">
<rect width="11.7" height="11.7" fill="white" transform="translate(5.14844 5.15002)"/>
</clipPath>
</defs>
</svg>
