<svg width="16" height="16" viewBox="0 0 16 16" fill="none" xmlns="http://www.w3.org/2000/svg">
<path d="M2.02083 2.52234C1.61285 2.52234 1.25817 2.66995 1.02539 2.92273C0.792617 3.17551 0.6875 3.51254 0.6875 3.85567V11.1128C0.6875 11.8457 1.28762 12.4467 2.02083 12.4462H3.02083V13.9761C3.02083 14.1987 3.16257 14.3928 3.3418 14.4742C3.52102 14.5555 3.76024 14.5341 3.92773 14.3876L6.14583 12.4462H12.0208C12.7537 12.4462 13.3542 11.8457 13.3542 11.1128V6.95203C13.3542 6.86362 13.319 6.77884 13.2565 6.71632C13.194 6.65381 13.1092 6.61869 13.0208 6.61869C12.9324 6.61869 12.8476 6.65381 12.7851 6.71632C12.7226 6.77884 12.6875 6.86362 12.6875 6.95203V11.1128C12.6875 11.4879 12.3959 11.7795 12.0208 11.7795H6.02083C5.9401 11.7796 5.86214 11.809 5.80143 11.8622L3.6875 13.7118V12.1128C3.68749 12.0244 3.65237 11.9397 3.58986 11.8771C3.52735 11.8146 3.44257 11.7795 3.35417 11.7795H2.02083C1.64604 11.7798 1.35417 11.4879 1.35417 11.1128V3.85567C1.35417 3.64671 1.41572 3.48375 1.51628 3.37455C1.61683 3.26535 1.76215 3.18901 2.02083 3.18901H10.6875C10.7313 3.18901 10.7746 3.18038 10.8151 3.16363C10.8555 3.14688 10.8923 3.12233 10.9232 3.09137C10.9542 3.06042 10.9787 3.02368 10.9955 2.98323C11.0122 2.94279 11.0208 2.89945 11.0208 2.85567C11.0208 2.76727 10.9857 2.68248 10.9232 2.61997C10.8607 2.55746 10.7759 2.52234 10.6875 2.52234H2.02083Z" fill="#1C1D1D"/>
<path d="M8.7392 6.16704C8.6883 6.21814 8.65535 6.28437 8.64528 6.35579L8.40958 8.0057C8.40229 8.05691 8.40701 8.10912 8.42338 8.15819C8.43975 8.20726 8.46731 8.25185 8.50389 8.28842C8.54047 8.325 8.58506 8.35256 8.63413 8.36893C8.6832 8.3853 8.7354 8.39003 8.78661 8.38274L10.4365 8.14703C10.5078 8.13675 10.5739 8.10364 10.6248 8.05266L14.9245 3.75294C15.4428 3.2347 15.4428 2.38556 14.9245 1.86732C14.4063 1.34908 13.5572 1.34908 13.0389 1.86732L8.7392 6.16704ZM9.28932 6.55973L12.5795 3.26956L13.5223 4.21237L10.2321 7.50253L9.13188 7.65998L9.28932 6.55973ZM13.0509 2.79816L13.5103 2.33872C13.7756 2.07348 14.1879 2.07349 14.4531 2.33872C14.7184 2.60396 14.7184 3.01629 14.4531 3.28153L13.9937 3.74096L13.0509 2.79816Z" fill="#1C1D1D"/>
</svg>
