<svg width="24" height="25" viewBox="0 0 24 25" fill="none" xmlns="http://www.w3.org/2000/svg">
<path d="M20.1681 5.18667L12.1556 2.48922C12.0547 2.45525 11.9454 2.45525 11.8445 2.48922L3.83201 5.18667C3.6336 5.25347 3.5 5.43944 3.5 5.64878V12.3461C3.5 17.3065 7.03594 21.5885 11.9077 22.5275C11.9382 22.5334 11.9691 22.5363 12 22.5363C12.0309 22.5363 12.0618 22.5334 12.0923 22.5275C16.964 21.5885 20.5 17.3065 20.5 12.3461V5.64878C20.5 5.4394 20.3664 5.25343 20.1681 5.18667ZM19.5249 12.3461C19.5249 16.8087 16.3661 20.6651 12 21.5517C7.63393 20.6651 4.47523 16.8087 4.47523 12.3461V5.99912L12 3.46583L19.5249 5.99912V12.3461ZM11.0949 14.2701L16.2258 9.35761C16.4203 9.17139 16.7289 9.1781 16.9152 9.37261C17.1014 9.56712 17.0947 9.87576 16.9002 10.062L11.4391 15.2908C11.3449 15.3809 11.2234 15.4262 11.1018 15.4262C10.9837 15.4262 10.8654 15.3834 10.772 15.2977L7.72633 12.5006C7.528 12.3185 7.51488 12.01 7.69699 11.8117C7.87915 11.6133 8.18763 11.6003 8.38596 11.7823L11.0949 14.2701Z" fill="#1C1D1D"/>
</svg>
