<svg width="24" height="25" viewBox="0 0 24 25" fill="none" xmlns="http://www.w3.org/2000/svg">
<path fill-rule="evenodd" clip-rule="evenodd" d="M12 4.625C7.65076 4.625 4.125 8.15076 4.125 12.5C4.125 16.8492 7.65076 20.375 12 20.375C16.3492 20.375 19.875 16.8492 19.875 12.5C19.875 8.15076 16.3492 4.625 12 4.625ZM3.375 12.5C3.375 7.73654 7.23654 3.875 12 3.875C16.7635 3.875 20.625 7.73654 20.625 12.5C20.625 17.2635 16.7635 21.125 12 21.125C7.23654 21.125 3.375 17.2635 3.375 12.5Z" fill="#1C1D1D"/>
<path fill-rule="evenodd" clip-rule="evenodd" d="M12 3.79932L12.208 3.93799C13.4188 4.74516 14.302 6.06349 14.8819 7.59158C14.9328 7.72595 14.9816 7.86215 15.028 8.00001H19.125V8.75001H15.2545C15.5428 9.82367 15.7045 10.9731 15.7417 12.125H20.25V12.875H15.7483C15.7313 14.0308 15.5887 15.1807 15.318 16.25H19.125V17H15.1026C15.034 17.2121 14.96 17.4201 14.8804 17.6231C14.2991 19.1066 13.4111 20.361 12.189 21.0739L12 21.1841L11.811 21.0739C10.5889 20.361 9.70086 19.1066 9.1196 17.6231C9.04002 17.4201 8.96596 17.2121 8.8974 17H4.875V16.25H8.68196C8.4113 15.1807 8.26869 14.0308 8.25172 12.875H3.75V12.125H8.25831C8.29547 10.9731 8.45724 9.82367 8.74553 8.75001H4.875V8.00001H8.97197C9.01843 7.86215 9.06715 7.72595 9.11814 7.59158C9.69797 6.06349 10.5812 4.74516 11.792 3.93799L12 3.79932ZM9.52382 8.75001C9.22052 9.80914 9.04807 10.9619 9.00872 12.125H14.9913C14.9519 10.9619 14.7795 9.80914 14.4762 8.75001H9.52382ZM14.2335 8.00001H9.76651C9.78384 7.9523 9.80145 7.90485 9.81936 7.85766C10.3276 6.51826 11.061 5.41412 12 4.70932C12.939 5.41412 13.6724 6.51826 14.1806 7.85766C14.1985 7.90485 14.2162 7.9523 14.2335 8.00001ZM14.9982 12.875H9.0018C9.01981 14.0442 9.17256 15.1973 9.4572 16.25H14.5428C14.8274 15.1973 14.9802 14.0442 14.9982 12.875ZM14.3114 17H9.68856C9.72983 17.1183 9.77295 17.2348 9.8179 17.3495C10.3279 18.651 11.0627 19.69 12 20.3087C12.9373 19.69 13.6721 18.651 14.1821 17.3495C14.227 17.2348 14.2702 17.1183 14.3114 17Z" fill="#1C1D1D"/>
</svg>
