<svg width="20" height="20" viewBox="0 0 20 20" fill="none" xmlns="http://www.w3.org/2000/svg">
<path d="M12.8577 2.85718C8.91913 2.85718 5.71484 6.06146 5.71484 10C5.71484 13.9386 8.91913 17.1429 12.8577 17.1429C16.7963 17.1429 20.0006 13.9386 20.0006 10C20.0006 6.06146 16.7963 2.85718 12.8577 2.85718ZM13.2148 16.4104V15.7143C13.2148 15.5168 13.0552 15.3572 12.8577 15.3572C12.6602 15.3572 12.5006 15.5168 12.5006 15.7143V16.4104C9.24127 16.23 6.6277 13.6165 6.44734 10.3572H7.50056C7.6977 10.3572 7.8577 10.1972 7.8577 10C7.8577 9.80289 7.6977 9.64289 7.50056 9.64289H6.44734C6.6277 6.38361 9.24127 3.77003 12.5006 3.58968V4.28575C12.5006 4.48289 12.6602 4.64289 12.8577 4.64289C13.0552 4.64289 13.2148 4.48289 13.2148 4.28575V3.58968C16.4741 3.77003 19.0877 6.38361 19.2681 9.64289H18.572C18.3745 9.64289 18.2148 9.80289 18.2148 10C18.2148 10.1972 18.3745 10.3572 18.572 10.3572H19.2681C19.0877 13.6165 16.4741 16.23 13.2148 16.4104Z" fill="#1C1D1D"/>
<path d="M1.78683 4.46429H6.92469C7.12183 4.46429 7.28183 4.30429 7.28183 4.10714C7.28183 3.91 7.12183 3.75 6.92469 3.75H1.78683C1.58969 3.75 1.42969 3.91 1.42969 4.10714C1.42969 4.30429 1.58969 4.46429 1.78683 4.46429Z" fill="#1C1D1D"/>
<path d="M0.446429 3.75H0.357143C0.16 3.75 0 3.91 0 4.10714C0 4.30429 0.16 4.46429 0.357143 4.46429H0.446429C0.643571 4.46429 0.803571 4.30429 0.803571 4.10714C0.803571 3.91 0.643571 3.75 0.446429 3.75Z" fill="#1C1D1D"/>
<path d="M5.89263 6.07182C5.89263 5.87468 5.73299 5.71468 5.53585 5.71432L1.52156 5.70825C1.32442 5.70825 1.16442 5.8679 1.16406 6.06504C1.16406 6.26218 1.32371 6.42218 1.52085 6.42254L5.53513 6.42861C5.73228 6.42861 5.89228 6.26897 5.89263 6.07182Z" fill="#1C1D1D"/>
<path d="M4.73638 7.67871H2.67746C2.48031 7.67871 2.32031 7.83871 2.32031 8.03585C2.32031 8.233 2.48031 8.393 2.67746 8.393H4.73638C4.93353 8.393 5.09353 8.233 5.09353 8.03585C5.09353 7.83871 4.93353 7.67871 4.73638 7.67871Z" fill="#1C1D1D"/>
<path d="M4.54045 9.64282H3.84152C3.64437 9.64282 3.48438 9.80282 3.48438 9.99997C3.48438 10.1971 3.64437 10.3571 3.84152 10.3571H4.54045C4.73759 10.3571 4.89759 10.1971 4.89759 9.99997C4.89759 9.80282 4.73759 9.64282 4.54045 9.64282Z" fill="#1C1D1D"/>
<path d="M14.7148 6.92864L12.6791 9.64292H11.072C10.8745 9.64292 10.7148 9.80292 10.7148 10.0001C10.7148 10.1972 10.8745 10.3572 11.072 10.3572H12.8577C12.9698 10.3572 13.0759 10.3044 13.1434 10.2144L15.2863 7.35721C15.4048 7.19935 15.3727 6.97542 15.2148 6.85721C15.0566 6.73864 14.8327 6.77078 14.7148 6.92864Z" fill="#1C1D1D"/>
</svg>
