<svg width="16" height="16" viewBox="0 0 16 16" fill="none" xmlns="http://www.w3.org/2000/svg">
<path d="M14.1254 7.99972H1.87503C1.3926 7.99972 1 7.60712 1 7.12469V4.79129C1 4.30886 1.3926 3.91626 1.87503 3.91626H14.1254C14.6078 3.91626 15.0004 4.30886 15.0004 4.79129V7.12469C15.0004 7.60712 14.6078 7.99972 14.1254 7.99972ZM1.87503 4.49961C1.71461 4.49961 1.58335 4.63028 1.58335 4.79129V7.12469C1.58335 7.2857 1.71461 7.41637 1.87503 7.41637H14.1254C14.2858 7.41637 14.4171 7.2857 14.4171 7.12469V4.79129C14.4171 4.63028 14.2858 4.49961 14.1254 4.49961H1.87503Z" fill="#1C1D1D"/>
<path d="M12.3727 15.0001H3.62244C2.818 15.0001 2.16406 14.3456 2.16406 13.5417V7.70818C2.16406 7.54717 2.29473 7.4165 2.45574 7.4165C2.61674 7.4165 2.74741 7.54717 2.74741 7.70818V13.5417C2.74741 14.0241 3.14001 14.4167 3.62244 14.4167H12.3727C12.8551 14.4167 13.2477 14.0241 13.2477 13.5417V7.70818C13.2477 7.54717 13.3784 7.4165 13.5394 7.4165C13.7004 7.4165 13.8311 7.54717 13.8311 7.70818V13.5417C13.8311 14.3456 13.1772 15.0001 12.3727 15.0001Z" fill="#1C1D1D"/>
<path d="M8.00261 15.0001C7.84161 15.0001 7.71094 14.8694 7.71094 14.7084V7.70818C7.71094 7.54717 7.84161 7.4165 8.00261 7.4165C8.16362 7.4165 8.29429 7.54717 8.29429 7.70818V14.7084C8.29429 14.8694 8.16362 15.0001 8.00261 15.0001Z" fill="#1C1D1D"/>
<path d="M7.9975 4.49967C7.97649 4.49967 7.95549 4.49734 7.93449 4.49267C7.56698 4.411 5.70784 3.9799 5.21666 3.48872C4.94073 3.21396 4.78906 2.84762 4.78906 2.45794C4.78906 2.06826 4.94073 1.70192 5.21608 1.42658C5.78484 0.857808 6.71004 0.857808 7.27822 1.42658C7.76941 1.91717 8.2005 3.7769 8.28217 4.14499C8.30375 4.24241 8.274 4.34392 8.20342 4.41392C8.14858 4.46934 8.07391 4.49967 7.9975 4.49967ZM6.24744 1.5835C6.02343 1.5835 5.79884 1.66867 5.62851 1.83901C5.46342 2.00468 5.37241 2.22402 5.37241 2.45794C5.37241 2.69186 5.46342 2.9112 5.62851 3.07688C5.85543 3.3038 6.80396 3.61006 7.60315 3.81423C7.39839 3.01504 7.09272 2.06651 6.86579 1.83959C6.69604 1.66867 6.47145 1.5835 6.24744 1.5835Z" fill="#1C1D1D"/>
<path d="M7.9992 4.49958C7.92278 4.49958 7.84811 4.46924 7.79269 4.41441C7.72211 4.34382 7.69235 4.24232 7.71394 4.14548C7.79561 3.77739 8.2267 1.91825 8.71789 1.42706C9.28665 0.857713 10.2118 0.85888 10.78 1.42706C11.056 1.70182 11.2076 2.06817 11.2076 2.45785C11.2076 2.84752 11.056 3.21387 10.7806 3.48921C10.2894 3.98039 8.43029 4.41149 8.06278 4.49316C8.0412 4.49724 8.0202 4.49958 7.9992 4.49958ZM9.74925 1.5834C9.52524 1.5834 9.30065 1.66857 9.13032 1.83891C8.90339 2.06583 8.59772 3.01436 8.39296 3.81355C9.19215 3.60938 10.1407 3.30312 10.3676 3.0762C10.5333 2.91111 10.6243 2.69177 10.6243 2.45785C10.6243 2.22392 10.5333 2.00458 10.3682 1.83891C10.1978 1.66857 9.97326 1.5834 9.74925 1.5834Z" fill="#1C1D1D"/>
</svg>
