<svg width="16" height="16" viewBox="0 0 16 16" fill="none" xmlns="http://www.w3.org/2000/svg">
<g clip-path="url(#clip0_313_4982)">
<path d="M4.33073 12.6667H2.9974C2.8134 12.6667 2.66406 12.5173 2.66406 12.3333C2.66406 12.1493 2.8134 12 2.9974 12H4.33073C4.51473 12 4.66406 12.1493 4.66406 12.3333C4.66406 12.5173 4.51473 12.6667 4.33073 12.6667Z" fill="#1C1D1D"/>
<path d="M15.167 12.6665H14.3337C14.1497 12.6665 14.0004 12.5172 14.0004 12.3332C14.0004 12.1492 14.1497 11.9998 14.3337 11.9998H14.8904L15.3397 9.60517C15.3337 8.37984 14.287 7.33317 13.0004 7.33317H10.8117L9.75103 11.9998H11.667C11.851 11.9998 12.0004 12.1492 12.0004 12.3332C12.0004 12.5172 11.851 12.6665 11.667 12.6665H9.3337C9.23237 12.6665 9.13637 12.6205 9.07303 12.5412C9.0097 12.4625 8.9857 12.3585 9.00837 12.2598L10.2204 6.9265C10.255 6.77384 10.3897 6.6665 10.5457 6.6665H13.0004C14.6544 6.6665 16.0004 8.0125 16.0004 9.6665L15.4944 12.3945C15.465 12.5525 15.3277 12.6665 15.167 12.6665Z" fill="#1C1D1D"/>
<path d="M13.0026 13.9998C12.0839 13.9998 11.3359 13.2525 11.3359 12.3332C11.3359 11.4138 12.0839 10.6665 13.0026 10.6665C13.9213 10.6665 14.6693 11.4138 14.6693 12.3332C14.6693 13.2525 13.9213 13.9998 13.0026 13.9998ZM13.0026 11.3332C12.4513 11.3332 12.0026 11.7818 12.0026 12.3332C12.0026 12.8845 12.4513 13.3332 13.0026 13.3332C13.5539 13.3332 14.0026 12.8845 14.0026 12.3332C14.0026 11.7818 13.5539 11.3332 13.0026 11.3332Z" fill="#1C1D1D"/>
<path d="M5.66667 14.0001C4.748 14.0001 4 13.2527 4 12.3334C4 11.4141 4.748 10.6667 5.66667 10.6667C6.58533 10.6667 7.33333 11.4141 7.33333 12.3334C7.33333 13.2527 6.58533 14.0001 5.66667 14.0001ZM5.66667 11.3334C5.11533 11.3334 4.66667 11.7821 4.66667 12.3334C4.66667 12.8847 5.11533 13.3334 5.66667 13.3334C6.218 13.3334 6.66667 12.8847 6.66667 12.3334C6.66667 11.7821 6.218 11.3334 5.66667 11.3334Z" fill="#1C1D1D"/>
<path d="M4.33594 6.66667H1.66927C1.48527 6.66667 1.33594 6.51733 1.33594 6.33333C1.33594 6.14933 1.48527 6 1.66927 6H4.33594C4.51994 6 4.66927 6.14933 4.66927 6.33333C4.66927 6.51733 4.51994 6.66667 4.33594 6.66667Z" fill="#1C1D1D"/>
<path d="M4.33073 8.66667H0.997396C0.813396 8.66667 0.664062 8.51733 0.664062 8.33333C0.664062 8.14933 0.813396 8 0.997396 8H4.33073C4.51473 8 4.66406 8.14933 4.66406 8.33333C4.66406 8.51733 4.51473 8.66667 4.33073 8.66667Z" fill="#1C1D1D"/>
<path d="M4.33333 10.6667H0.333333C0.149333 10.6667 0 10.5173 0 10.3333C0 10.1493 0.149333 10 0.333333 10H4.33333C4.51733 10 4.66667 10.1493 4.66667 10.3333C4.66667 10.5173 4.51733 10.6667 4.33333 10.6667Z" fill="#1C1D1D"/>
<path d="M9.33073 12.6665H6.9974C6.8134 12.6665 6.66406 12.5172 6.66406 12.3332C6.66406 12.1492 6.8134 11.9998 6.9974 11.9998H9.06473L10.5794 5.33317H2.9974C2.8134 5.33317 2.66406 5.18384 2.66406 4.99984C2.66406 4.81584 2.8134 4.6665 2.9974 4.6665H10.9974C11.0987 4.6665 11.1947 4.7125 11.2581 4.79184C11.3214 4.8705 11.3454 4.9745 11.3227 5.07317L9.65606 12.4065C9.6214 12.5592 9.48606 12.6665 9.33073 12.6665Z" fill="#1C1D1D"/>
</g>
<defs>
<clipPath id="clip0_313_4982">
<rect width="16" height="16" fill="white"/>
</clipPath>
</defs>
</svg>
