<svg width="16" height="16" viewBox="0 0 16 16" fill="none" xmlns="http://www.w3.org/2000/svg">
<path d="M13.6384 6.67862H10.421C11.6853 4.93406 11.3072 3.21252 11.376 2.54712C11.376 1.04067 9.34416 0.612779 8.76959 2.01436C8.37498 2.74445 8.10179 4.74561 6.00533 5.76063L4.93732 6.27804V6.20765C4.93732 5.8934 4.68152 5.6376 4.36726 5.6376H2.58529C1.79952 5.6376 1.16016 6.27696 1.16016 7.06273V13.1772C1.16016 13.9629 1.79952 14.6023 2.58529 14.6023H4.36726C4.68152 14.6023 4.93732 14.3465 4.93732 14.0323V14.0189C6.65132 14.415 7.58748 14.8392 9.19519 14.8392H12.2075C12.871 14.8392 13.4107 14.2858 13.4107 13.6055C13.4107 13.3215 13.3128 13.0627 13.1549 12.8539C13.6017 12.6735 13.9198 12.2291 13.9198 11.7078C13.9198 11.4237 13.8219 11.1649 13.6638 10.9561C14.1105 10.7757 14.4287 10.3313 14.4287 9.81001C14.4287 9.51079 14.32 9.23982 14.1466 9.02591C14.5963 8.80973 14.8414 8.37023 14.8414 7.91196C14.8414 7.23197 14.3017 6.67862 13.6384 6.67862ZM2.58529 14.0323C2.11377 14.0323 1.73021 13.6487 1.73021 13.1772V7.06274C1.73021 6.59122 2.11377 6.20766 2.58529 6.20766H4.36726C4.36726 16.7467 4.36702 5.96778 4.36782 14.0323H2.58529ZM13.6384 8.57527C13.6092 8.57529 11.9199 8.57612 11.9491 8.57611C11.7916 8.57611 11.6641 8.70359 11.6641 8.86113C11.6641 9.01868 11.7916 9.14616 11.9491 9.14616H13.2251C13.5744 9.14616 13.8586 9.44399 13.8586 9.81002C13.8586 10.176 13.5744 10.4739 13.2251 10.4739C13.1627 10.4739 11.3159 10.4739 11.44 10.4739C11.2825 10.4739 11.155 10.6014 11.155 10.7589C11.155 10.9164 11.2825 11.0439 11.44 11.0439C11.5058 11.0439 12.7529 11.0439 12.7163 11.0439C13.0656 11.0439 13.3498 11.3418 13.3498 11.7078C13.3498 12.0738 13.0656 12.3716 12.7163 12.3716C12.5252 12.3716 10.8622 12.3716 10.9312 12.3716C10.7737 12.3716 10.6462 12.4991 10.6462 12.6567C10.6462 12.8142 10.7737 12.9417 10.9312 12.9417C11.0212 12.9417 12.2497 12.9417 12.2074 12.9417C12.5565 12.9417 12.8407 13.2395 12.8407 13.6055C12.8407 13.9716 12.5565 14.2691 12.2074 14.2691H9.19519C7.67543 14.2691 6.82378 13.8702 4.93732 13.4302V6.91159L6.25362 6.2739C8.6015 5.13701 8.91159 2.93418 9.29734 2.22953C9.63609 1.40339 10.806 1.66446 10.806 2.54712C10.7401 3.20702 11.1145 4.77217 9.94505 6.36548L9.63024 6.79524C9.49345 6.9811 9.63547 7.24867 9.86015 7.24867H13.6384C13.9875 7.24867 14.2714 7.54622 14.2714 7.91197C14.2714 8.2867 13.9781 8.57527 13.6384 8.57527Z" fill="#1C1D1D"/>
</svg>
