<svg width="10" height="12" viewBox="0 0 10 12" fill="none" xmlns="http://www.w3.org/2000/svg">
<g clip-path="url(#clip0)">
<path d="M4.89609 2.74219C3.69375 2.74219 2.71875 3.71719 2.71875 4.91953C2.71875 6.12187 3.69375 7.09687 4.89609 7.09687C6.09844 7.09687 7.07344 6.12187 7.07344 4.91953C7.07344 3.71719 6.09844 2.74219 4.89609 2.74219ZM4.89609 6.00937C4.29375 6.00937 3.80625 5.52187 3.80625 4.91953C3.80625 4.31719 4.29375 3.82969 4.89609 3.82969C5.49844 3.82969 5.98594 4.31719 5.98594 4.91953C5.98594 5.52187 5.49844 6.00937 4.89609 6.00937Z" fill="#333333"/>
<path d="M9.79213 4.91042C9.79916 2.20573 7.6148 0.0072923 4.91012 0.00026105C2.20544 -0.0067702 0.00700785 2.17995 -2.33737e-05 4.88464C-0.0234608 7.96901 1.82106 10.7628 4.66871 11.951C4.73902 11.9839 4.81637 12.0003 4.89605 12.0003C4.97574 12.0003 5.05309 11.9839 5.1234 11.951C7.96167 10.7651 9.8062 7.98542 9.79213 4.91042ZM4.89605 10.8565C2.54997 9.82292 1.04997 7.48385 1.08747 4.91979C1.08747 2.81745 2.79137 1.1112 4.89605 1.1112C7.00074 1.1112 8.70464 2.8151 8.70464 4.91979V4.95495C8.73042 7.50729 7.23277 9.82995 4.89605 10.8565Z" fill="#333333"/>
</g>
<defs>
<clipPath id="clip0">
<rect width="9.79219" height="12" fill="white"/>
</clipPath>
</defs>
</svg>
