<svg width="12" height="12" viewBox="0 0 12 12" fill="none" xmlns="http://www.w3.org/2000/svg">
<g clip-path="url(#clip0)">
<path d="M6.00127 0C2.6874 0 0 2.6874 0 6.00127C0 9.31514 2.6874 12.0025 6.00127 12.0025C9.31514 12.0025 12.0025 9.31514 12.0025 6.00127C11.9974 2.6874 9.31258 0.00511399 6.00127 0ZM6.00127 10.9107C3.29085 10.9107 1.09184 8.71168 1.09184 6.00127C1.09184 3.29085 3.29085 1.09184 6.00127 1.09184C8.71168 1.09184 10.9107 3.29085 10.9107 6.00127C10.9056 8.71168 8.71168 10.9056 6.00127 10.9107Z" fill="#4D4D4D"/>
<path d="M6.00131 2.72803C5.69958 2.72803 5.45667 2.9735 5.45667 3.27267V7.09026C5.45667 7.39198 5.70214 7.6349 6.00131 7.6349C6.30048 7.6349 6.54595 7.38943 6.54595 7.09026V3.27267C6.54595 2.97094 6.30048 2.72803 6.00131 2.72803Z" fill="#4D4D4D"/>
<path d="M6.00131 9.27173C6.3021 9.27173 6.54595 9.02789 6.54595 8.72709C6.54595 8.42629 6.3021 8.18245 6.00131 8.18245C5.70051 8.18245 5.45667 8.42629 5.45667 8.72709C5.45667 9.02789 5.70051 9.27173 6.00131 9.27173Z" fill="#4D4D4D"/>
</g>
<defs>
<clipPath id="clip0">
<rect width="12" height="12" fill="white"/>
</clipPath>
</defs>
</svg>
