<svg width="924" height="724" viewBox="0 0 924 724" fill="none" xmlns="http://www.w3.org/2000/svg">
<g filter="url(#filter0_d_2144_2013)">
<path d="M489 431C489 428.791 490.791 427 493 427H703C705.209 427 707 428.791 707 431V491C707 493.209 705.209 495 703 495H493C490.791 495 489 493.209 489 491V431Z" fill="white" shape-rendering="crispEdges"/>
<g clip-path="url(#clip0_2144_2013)">
<path d="M511.375 452.242C511.546 452.24 511.713 452.188 511.855 452.092C511.997 451.997 512.108 451.861 512.174 451.703C512.24 451.545 512.258 451.371 512.226 451.203C512.194 451.034 512.113 450.879 511.993 450.756L509.368 448.131C509.203 447.972 508.982 447.884 508.753 447.886C508.523 447.888 508.304 447.98 508.142 448.142C507.979 448.304 507.887 448.524 507.885 448.753C507.883 448.983 507.972 449.204 508.131 449.369L510.756 451.994C510.921 452.155 511.144 452.244 511.375 452.242Z" fill="#9671FF"/>
<path d="M508.812 456.625H510.5C510.732 456.625 510.955 456.533 511.119 456.369C511.283 456.205 511.375 455.982 511.375 455.75C511.375 455.518 511.283 455.295 511.119 455.131C510.955 454.967 510.732 454.875 510.5 454.875H508.812C508.58 454.875 508.358 454.967 508.194 455.131C508.03 455.295 507.937 455.518 507.937 455.75C507.937 455.982 508.03 456.205 508.194 456.369C508.358 456.533 508.58 456.625 508.812 456.625Z" fill="#9671FF"/>
<path d="M515.75 451.375C515.982 451.375 516.205 451.283 516.369 451.119C516.533 450.955 516.625 450.732 516.625 450.5V448.812C516.625 448.58 516.533 448.358 516.369 448.194C516.205 448.03 515.982 447.938 515.75 447.938C515.518 447.938 515.295 448.03 515.131 448.194C514.967 448.358 514.875 448.58 514.875 448.812V450.5C514.875 450.732 514.967 450.955 515.131 451.119C515.295 451.283 515.518 451.375 515.75 451.375Z" fill="#9671FF"/>
<path d="M508.75 463.619C508.865 463.62 508.978 463.598 509.084 463.555C509.19 463.512 509.287 463.449 509.369 463.369L511.994 460.744C512.153 460.579 512.241 460.358 512.239 460.128C512.237 459.899 512.145 459.679 511.983 459.517C511.821 459.355 511.601 459.263 511.372 459.261C511.142 459.259 510.921 459.347 510.756 459.506L508.131 462.131C508.013 462.255 507.933 462.41 507.901 462.578C507.87 462.746 507.888 462.92 507.954 463.078C508.019 463.236 508.13 463.371 508.271 463.467C508.413 463.563 508.579 463.616 508.75 463.619Z" fill="#9671FF"/>
<path d="M520.125 452.245C520.24 452.246 520.353 452.224 520.459 452.181C520.566 452.138 520.662 452.074 520.744 451.994L523.369 449.369C523.528 449.204 523.616 448.983 523.614 448.753C523.612 448.524 523.52 448.304 523.358 448.142C523.196 447.98 522.976 447.888 522.747 447.886C522.517 447.884 522.296 447.972 522.131 448.131L519.506 450.756C519.388 450.88 519.308 451.035 519.276 451.203C519.244 451.371 519.262 451.545 519.328 451.703C519.394 451.861 519.504 451.997 519.646 452.093C519.787 452.189 519.954 452.242 520.125 452.245Z" fill="#9671FF"/>
<path d="M514.555 454.555C514.811 454.295 515.137 454.116 515.494 454.04C515.85 453.964 516.221 453.994 516.561 454.126L532.911 460.354C533.279 460.495 533.594 460.747 533.812 461.075C534.03 461.404 534.139 461.792 534.125 462.186C534.11 462.58 533.973 462.959 533.732 463.271C533.491 463.583 533.158 463.811 532.781 463.924L526.038 465.947C526.017 465.954 525.997 465.965 525.981 465.981C525.965 465.997 525.953 466.017 525.947 466.038L523.924 472.781C523.814 473.16 523.586 473.495 523.274 473.736C522.962 473.977 522.581 474.113 522.186 474.124C521.793 474.137 521.405 474.028 521.076 473.81C520.748 473.593 520.495 473.278 520.354 472.911L514.126 456.56C513.993 456.221 513.963 455.85 514.04 455.493C514.116 455.137 514.295 454.811 514.555 454.555Z" fill="#9671FF"/>
</g>
<path d="M563.241 448.909C563.241 450.019 563.031 450.964 562.61 451.743C562.192 452.522 561.622 453.117 560.9 453.528C560.181 453.935 559.372 454.139 558.474 454.139C557.569 454.139 556.757 453.934 556.038 453.523C555.318 453.112 554.75 452.517 554.332 451.738C553.915 450.959 553.706 450.016 553.706 448.909C553.706 447.799 553.915 446.854 554.332 446.075C554.75 445.296 555.318 444.703 556.038 444.295C556.757 443.884 557.569 443.679 558.474 443.679C559.372 443.679 560.181 443.884 560.9 444.295C561.622 444.703 562.192 445.296 562.61 446.075C563.031 446.854 563.241 447.799 563.241 448.909ZM561.059 448.909C561.059 448.19 560.951 447.583 560.736 447.089C560.524 446.596 560.224 446.221 559.836 445.966C559.448 445.711 558.994 445.583 558.474 445.583C557.953 445.583 557.499 445.711 557.112 445.966C556.724 446.221 556.422 446.596 556.207 447.089C555.995 447.583 555.888 448.19 555.888 448.909C555.888 449.628 555.995 450.235 556.207 450.729C556.422 451.223 556.724 451.597 557.112 451.852C557.499 452.107 557.953 452.235 558.474 452.235C558.994 452.235 559.448 452.107 559.836 451.852C560.224 451.597 560.524 451.223 560.736 450.729C560.951 450.235 561.059 449.628 561.059 448.909ZM566.914 449.585V454H564.796V446.364H566.815V447.711H566.904C567.073 447.267 567.357 446.915 567.754 446.657C568.152 446.395 568.634 446.264 569.201 446.264C569.731 446.264 570.194 446.38 570.588 446.612C570.983 446.844 571.289 447.176 571.508 447.607C571.727 448.034 571.836 448.545 571.836 449.138V454H569.718V449.516C569.722 449.048 569.602 448.684 569.36 448.422C569.118 448.157 568.785 448.024 568.361 448.024C568.076 448.024 567.824 448.085 567.605 448.208C567.39 448.331 567.221 448.51 567.098 448.745C566.979 448.977 566.918 449.257 566.914 449.585ZM576.985 454.149C576.2 454.149 575.524 453.99 574.957 453.672C574.394 453.35 573.959 452.896 573.654 452.31C573.35 451.72 573.197 451.022 573.197 450.217C573.197 449.431 573.35 448.742 573.654 448.148C573.959 447.555 574.389 447.093 574.942 446.761C575.499 446.43 576.152 446.264 576.901 446.264C577.405 446.264 577.874 446.345 578.308 446.508C578.745 446.667 579.127 446.907 579.451 447.229C579.779 447.55 580.035 447.955 580.217 448.442C580.399 448.926 580.49 449.492 580.49 450.142V450.724H574.042V449.411H578.497C578.497 449.106 578.431 448.836 578.298 448.601C578.165 448.366 577.981 448.182 577.746 448.049C577.514 447.913 577.244 447.845 576.936 447.845C576.614 447.845 576.329 447.92 576.081 448.069C575.835 448.215 575.643 448.412 575.504 448.661C575.365 448.906 575.293 449.179 575.29 449.481V450.729C575.29 451.107 575.36 451.433 575.499 451.708C575.641 451.983 575.842 452.195 576.1 452.344C576.359 452.494 576.666 452.568 577.02 452.568C577.256 452.568 577.471 452.535 577.667 452.469C577.862 452.402 578.029 452.303 578.169 452.17C578.308 452.038 578.414 451.875 578.487 451.683L580.446 451.812C580.346 452.283 580.142 452.694 579.834 453.045C579.529 453.393 579.135 453.665 578.651 453.861C578.17 454.053 577.615 454.149 576.985 454.149ZM588.563 454.149C587.781 454.149 587.108 453.983 586.545 453.652C585.984 453.317 585.554 452.853 585.252 452.26C584.954 451.667 584.805 450.984 584.805 450.212C584.805 449.429 584.955 448.743 585.257 448.153C585.562 447.56 585.994 447.098 586.555 446.766C587.115 446.432 587.781 446.264 588.553 446.264C589.219 446.264 589.803 446.385 590.303 446.627C590.804 446.869 591.2 447.209 591.491 447.646C591.783 448.084 591.944 448.598 591.974 449.188H589.975C589.919 448.806 589.769 448.5 589.528 448.268C589.289 448.032 588.976 447.915 588.588 447.915C588.26 447.915 587.973 448.004 587.728 448.183C587.486 448.359 587.297 448.616 587.161 448.954C587.025 449.292 586.957 449.701 586.957 450.182C586.957 450.669 587.023 451.083 587.156 451.425C587.292 451.766 587.483 452.026 587.728 452.205C587.973 452.384 588.26 452.474 588.588 452.474C588.83 452.474 589.047 452.424 589.239 452.325C589.435 452.225 589.595 452.081 589.721 451.892C589.851 451.7 589.935 451.469 589.975 451.201H591.974C591.94 451.784 591.781 452.298 591.496 452.742C591.215 453.183 590.825 453.528 590.328 453.776C589.831 454.025 589.242 454.149 588.563 454.149ZM595.447 443.818V454H593.33V443.818H595.447ZM597.144 454V446.364H599.262V454H597.144ZM598.208 445.379C597.893 445.379 597.623 445.275 597.398 445.066C597.175 444.854 597.064 444.6 597.064 444.305C597.064 444.014 597.175 443.763 597.398 443.555C597.623 443.343 597.893 443.237 598.208 443.237C598.523 443.237 598.791 443.343 599.013 443.555C599.239 443.763 599.351 444.014 599.351 444.305C599.351 444.6 599.239 444.854 599.013 445.066C598.791 445.275 598.523 445.379 598.208 445.379ZM604.409 454.149C603.627 454.149 602.954 453.983 602.39 453.652C601.83 453.317 601.399 452.853 601.098 452.26C600.799 451.667 600.65 450.984 600.65 450.212C600.65 449.429 600.801 448.743 601.103 448.153C601.408 447.56 601.84 447.098 602.4 446.766C602.96 446.432 603.627 446.264 604.399 446.264C605.065 446.264 605.648 446.385 606.149 446.627C606.649 446.869 607.045 447.209 607.337 447.646C607.629 448.084 607.789 448.598 607.819 449.188H605.821C605.764 448.806 605.615 448.5 605.373 448.268C605.135 448.032 604.821 447.915 604.434 447.915C604.105 447.915 603.819 448.004 603.574 448.183C603.332 448.359 603.143 448.616 603.007 448.954C602.871 449.292 602.803 449.701 602.803 450.182C602.803 450.669 602.869 451.083 603.002 451.425C603.138 451.766 603.328 452.026 603.574 452.205C603.819 452.384 604.105 452.474 604.434 452.474C604.676 452.474 604.893 452.424 605.085 452.325C605.28 452.225 605.441 452.081 605.567 451.892C605.696 451.7 605.781 451.469 605.821 451.201H607.819C607.786 451.784 607.627 452.298 607.342 452.742C607.06 453.183 606.671 453.528 606.174 453.776C605.676 454.025 605.088 454.149 604.409 454.149ZM611.094 451.803L611.099 449.262H611.407L613.854 446.364H616.285L612.998 450.202H612.496L611.094 451.803ZM609.175 454V443.818H611.293V454H609.175ZM613.948 454L611.701 450.674L613.113 449.178L616.429 454H613.948ZM624.626 446.364V447.955H620.027V446.364H624.626ZM621.071 444.534H623.189V451.653C623.189 451.849 623.219 452.001 623.278 452.111C623.338 452.217 623.421 452.291 623.527 452.335C623.636 452.378 623.762 452.399 623.905 452.399C624.004 452.399 624.104 452.391 624.203 452.374C624.303 452.354 624.379 452.339 624.432 452.33L624.765 453.906C624.659 453.939 624.51 453.977 624.317 454.02C624.125 454.066 623.892 454.094 623.616 454.104C623.106 454.124 622.659 454.056 622.274 453.901C621.893 453.745 621.596 453.503 621.384 453.175C621.172 452.847 621.068 452.432 621.071 451.932V444.534ZM629.374 454.149C628.601 454.149 627.933 453.985 627.37 453.657C626.81 453.326 626.377 452.865 626.072 452.275C625.768 451.682 625.615 450.994 625.615 450.212C625.615 449.423 625.768 448.733 626.072 448.143C626.377 447.55 626.81 447.089 627.37 446.761C627.933 446.43 628.601 446.264 629.374 446.264C630.146 446.264 630.812 446.43 631.372 446.761C631.936 447.089 632.37 447.55 632.675 448.143C632.98 448.733 633.132 449.423 633.132 450.212C633.132 450.994 632.98 451.682 632.675 452.275C632.37 452.865 631.936 453.326 631.372 453.657C630.812 453.985 630.146 454.149 629.374 454.149ZM629.384 452.509C629.735 452.509 630.028 452.409 630.263 452.21C630.499 452.008 630.676 451.733 630.795 451.385C630.918 451.037 630.979 450.641 630.979 450.197C630.979 449.753 630.918 449.357 630.795 449.009C630.676 448.661 630.499 448.385 630.263 448.183C630.028 447.981 629.735 447.88 629.384 447.88C629.029 447.88 628.731 447.981 628.489 448.183C628.25 448.385 628.069 448.661 627.947 449.009C627.827 449.357 627.768 449.753 627.768 450.197C627.768 450.641 627.827 451.037 627.947 451.385C628.069 451.733 628.25 452.008 628.489 452.21C628.731 452.409 629.029 452.509 629.384 452.509ZM639.927 454.144C639.44 454.144 639.006 454.06 638.624 453.891C638.243 453.718 637.942 453.465 637.72 453.13C637.501 452.792 637.392 452.371 637.392 451.867C637.392 451.443 637.469 451.087 637.625 450.798C637.781 450.51 637.993 450.278 638.262 450.102C638.53 449.927 638.835 449.794 639.176 449.705C639.521 449.615 639.882 449.552 640.26 449.516C640.704 449.469 641.062 449.426 641.334 449.386C641.606 449.343 641.803 449.28 641.926 449.197C642.048 449.115 642.11 448.992 642.11 448.83V448.8C642.11 448.485 642.01 448.241 641.811 448.069C641.616 447.897 641.337 447.81 640.976 447.81C640.595 447.81 640.292 447.895 640.066 448.064C639.841 448.23 639.692 448.438 639.619 448.69L637.66 448.531C637.759 448.067 637.955 447.666 638.247 447.328C638.538 446.987 638.914 446.725 639.375 446.543C639.839 446.357 640.376 446.264 640.986 446.264C641.41 446.264 641.816 446.314 642.204 446.413C642.595 446.513 642.941 446.667 643.243 446.876C643.548 447.085 643.788 447.353 643.964 447.681C644.14 448.006 644.227 448.395 644.227 448.849V454H642.219V452.941H642.159C642.037 453.18 641.873 453.39 641.667 453.572C641.462 453.751 641.215 453.892 640.926 453.995C640.638 454.094 640.305 454.144 639.927 454.144ZM640.534 452.683C640.845 452.683 641.12 452.621 641.359 452.499C641.597 452.373 641.785 452.204 641.921 451.991C642.057 451.779 642.124 451.539 642.124 451.271V450.46C642.058 450.503 641.967 450.543 641.851 450.58C641.738 450.613 641.611 450.644 641.468 450.674C641.326 450.701 641.183 450.725 641.041 450.749C640.898 450.768 640.769 450.787 640.653 450.803C640.404 450.84 640.187 450.898 640.002 450.977C639.816 451.057 639.672 451.165 639.569 451.3C639.466 451.433 639.415 451.599 639.415 451.798C639.415 452.086 639.519 452.306 639.728 452.459C639.94 452.608 640.209 452.683 640.534 452.683ZM648.684 454.124C648.104 454.124 647.579 453.975 647.108 453.677C646.641 453.375 646.27 452.933 645.995 452.349C645.723 451.763 645.587 451.044 645.587 450.192C645.587 449.317 645.728 448.589 646.01 448.009C646.291 447.426 646.666 446.99 647.133 446.702C647.604 446.41 648.119 446.264 648.68 446.264C649.107 446.264 649.463 446.337 649.748 446.483C650.037 446.625 650.269 446.804 650.444 447.02C650.623 447.232 650.759 447.441 650.852 447.646H650.917V443.818H653.03V454H650.942V452.777H650.852C650.753 452.989 650.612 453.2 650.43 453.408C650.251 453.614 650.017 453.785 649.729 453.92C649.443 454.056 649.095 454.124 648.684 454.124ZM649.356 452.439C649.697 452.439 649.985 452.346 650.221 452.161C650.459 451.972 650.642 451.708 650.768 451.37C650.897 451.032 650.961 450.636 650.961 450.182C650.961 449.728 650.898 449.333 650.773 448.999C650.647 448.664 650.464 448.405 650.226 448.223C649.987 448.041 649.697 447.95 649.356 447.95C649.008 447.95 648.714 448.044 648.476 448.233C648.237 448.422 648.056 448.684 647.934 449.018C647.811 449.353 647.75 449.741 647.75 450.182C647.75 450.626 647.811 451.019 647.934 451.36C648.06 451.698 648.24 451.963 648.476 452.156C648.714 452.344 649.008 452.439 649.356 452.439ZM657.585 454.124C657.005 454.124 656.48 453.975 656.009 453.677C655.542 453.375 655.17 452.933 654.895 452.349C654.623 451.763 654.488 451.044 654.488 450.192C654.488 449.317 654.628 448.589 654.91 448.009C655.192 447.426 655.566 446.99 656.034 446.702C656.504 446.41 657.02 446.264 657.58 446.264C658.007 446.264 658.364 446.337 658.649 446.483C658.937 446.625 659.169 446.804 659.345 447.02C659.524 447.232 659.66 447.441 659.752 447.646H659.817V443.818H661.93V454H659.842V452.777H659.752C659.653 452.989 659.512 453.2 659.33 453.408C659.151 453.614 658.917 453.785 658.629 453.92C658.344 454.056 657.996 454.124 657.585 454.124ZM658.256 452.439C658.597 452.439 658.886 452.346 659.121 452.161C659.36 451.972 659.542 451.708 659.668 451.37C659.797 451.032 659.862 450.636 659.862 450.182C659.862 449.728 659.799 449.333 659.673 448.999C659.547 448.664 659.365 448.405 659.126 448.223C658.887 448.041 658.597 447.95 658.256 447.95C657.908 447.95 657.615 448.044 657.376 448.233C657.137 448.422 656.957 448.684 656.834 449.018C656.712 449.353 656.65 449.741 656.65 450.182C656.65 450.626 656.712 451.019 656.834 451.36C656.96 451.698 657.141 451.963 657.376 452.156C657.615 452.344 657.908 452.439 658.256 452.439ZM556.023 478.144C555.536 478.144 555.101 478.06 554.72 477.891C554.339 477.718 554.037 477.465 553.815 477.13C553.597 476.792 553.487 476.371 553.487 475.867C553.487 475.443 553.565 475.087 553.721 474.798C553.877 474.51 554.089 474.278 554.357 474.102C554.626 473.927 554.931 473.794 555.272 473.705C555.617 473.615 555.978 473.552 556.356 473.516C556.8 473.469 557.158 473.426 557.43 473.386C557.701 473.343 557.899 473.28 558.021 473.197C558.144 473.115 558.205 472.992 558.205 472.83V472.8C558.205 472.485 558.106 472.241 557.907 472.069C557.711 471.897 557.433 471.81 557.072 471.81C556.691 471.81 556.387 471.895 556.162 472.064C555.937 472.23 555.787 472.438 555.714 472.69L553.756 472.531C553.855 472.067 554.051 471.666 554.342 471.328C554.634 470.987 555.01 470.725 555.471 470.543C555.935 470.357 556.472 470.264 557.082 470.264C557.506 470.264 557.912 470.314 558.3 470.413C558.691 470.513 559.037 470.667 559.339 470.876C559.644 471.085 559.884 471.353 560.06 471.681C560.235 472.006 560.323 472.395 560.323 472.849V478H558.315V476.941H558.255C558.132 477.18 557.968 477.39 557.763 477.572C557.557 477.751 557.31 477.892 557.022 477.995C556.734 478.094 556.401 478.144 556.023 478.144ZM556.629 476.683C556.941 476.683 557.216 476.621 557.455 476.499C557.693 476.373 557.88 476.204 558.016 475.991C558.152 475.779 558.22 475.539 558.22 475.271V474.46C558.154 474.503 558.063 474.543 557.947 474.58C557.834 474.613 557.706 474.644 557.564 474.674C557.421 474.701 557.279 474.725 557.136 474.749C556.994 474.768 556.865 474.787 556.749 474.803C556.5 474.84 556.283 474.898 556.097 474.977C555.912 475.057 555.768 475.165 555.665 475.3C555.562 475.433 555.511 475.599 555.511 475.798C555.511 476.086 555.615 476.306 555.824 476.459C556.036 476.608 556.304 476.683 556.629 476.683ZM564.084 473.585V478H561.966V470.364H563.985V471.711H564.074C564.243 471.267 564.527 470.915 564.924 470.657C565.322 470.395 565.804 470.264 566.371 470.264C566.901 470.264 567.364 470.38 567.758 470.612C568.153 470.844 568.459 471.176 568.678 471.607C568.897 472.034 569.006 472.545 569.006 473.138V478H566.888V473.516C566.891 473.048 566.772 472.684 566.53 472.422C566.288 472.157 565.955 472.024 565.531 472.024C565.246 472.024 564.994 472.085 564.775 472.208C564.56 472.331 564.391 472.51 564.268 472.745C564.149 472.977 564.087 473.257 564.084 473.585ZM570.675 478V470.364H572.793V478H570.675ZM571.739 469.379C571.424 469.379 571.154 469.275 570.929 469.066C570.707 468.854 570.596 468.6 570.596 468.305C570.596 468.014 570.707 467.763 570.929 467.555C571.154 467.343 571.424 467.237 571.739 467.237C572.054 467.237 572.323 467.343 572.545 467.555C572.77 467.763 572.883 468.014 572.883 468.305C572.883 468.6 572.77 468.854 572.545 469.066C572.323 469.275 572.054 469.379 571.739 469.379ZM574.49 478V470.364H576.508V471.711H576.598C576.757 471.263 577.022 470.911 577.393 470.652C577.764 470.393 578.208 470.264 578.725 470.264C579.249 470.264 579.695 470.395 580.063 470.657C580.431 470.915 580.676 471.267 580.799 471.711H580.878C581.034 471.273 581.316 470.924 581.723 470.662C582.134 470.397 582.62 470.264 583.18 470.264C583.893 470.264 584.471 470.491 584.915 470.945C585.363 471.396 585.586 472.036 585.586 472.864V478H583.473V473.282C583.473 472.858 583.361 472.54 583.135 472.327C582.91 472.115 582.628 472.009 582.29 472.009C581.906 472.009 581.606 472.132 581.39 472.377C581.175 472.619 581.067 472.939 581.067 473.337V478H579.014V473.237C579.014 472.863 578.906 472.564 578.691 472.342C578.479 472.12 578.199 472.009 577.85 472.009C577.615 472.009 577.403 472.069 577.214 472.188C577.029 472.304 576.881 472.468 576.772 472.68C576.662 472.889 576.608 473.134 576.608 473.416V478H574.49ZM589.437 478.144C588.95 478.144 588.515 478.06 588.134 477.891C587.753 477.718 587.451 477.465 587.229 477.13C587.011 476.792 586.901 476.371 586.901 475.867C586.901 475.443 586.979 475.087 587.135 474.798C587.291 474.51 587.503 474.278 587.771 474.102C588.04 473.927 588.345 473.794 588.686 473.705C589.031 473.615 589.392 473.552 589.77 473.516C590.214 473.469 590.572 473.426 590.844 473.386C591.116 473.343 591.313 473.28 591.435 473.197C591.558 473.115 591.619 472.992 591.619 472.83V472.8C591.619 472.485 591.52 472.241 591.321 472.069C591.125 471.897 590.847 471.81 590.486 471.81C590.105 471.81 589.801 471.895 589.576 472.064C589.351 472.23 589.201 472.438 589.129 472.69L587.17 472.531C587.269 472.067 587.465 471.666 587.756 471.328C588.048 470.987 588.424 470.725 588.885 470.543C589.349 470.357 589.886 470.264 590.496 470.264C590.92 470.264 591.326 470.314 591.714 470.413C592.105 470.513 592.451 470.667 592.753 470.876C593.058 471.085 593.298 471.353 593.474 471.681C593.649 472.006 593.737 472.395 593.737 472.849V478H591.729V476.941H591.669C591.546 477.18 591.382 477.39 591.177 477.572C590.971 477.751 590.724 477.892 590.436 477.995C590.148 478.094 589.815 478.144 589.437 478.144ZM590.043 476.683C590.355 476.683 590.63 476.621 590.869 476.499C591.107 476.373 591.295 476.204 591.43 475.991C591.566 475.779 591.634 475.539 591.634 475.271V474.46C591.568 474.503 591.477 474.543 591.361 474.58C591.248 474.613 591.121 474.644 590.978 474.674C590.835 474.701 590.693 474.725 590.55 474.749C590.408 474.768 590.279 474.787 590.163 474.803C589.914 474.84 589.697 474.898 589.511 474.977C589.326 475.057 589.182 475.165 589.079 475.3C588.976 475.433 588.925 475.599 588.925 475.798C588.925 476.086 589.029 476.306 589.238 476.459C589.45 476.608 589.719 476.683 590.043 476.683ZM599.442 470.364V471.955H594.843V470.364H599.442ZM595.887 468.534H598.005V475.653C598.005 475.849 598.035 476.001 598.095 476.111C598.154 476.217 598.237 476.291 598.343 476.335C598.453 476.378 598.579 476.399 598.721 476.399C598.821 476.399 598.92 476.391 599.02 476.374C599.119 476.354 599.195 476.339 599.248 476.33L599.581 477.906C599.475 477.939 599.326 477.977 599.134 478.02C598.942 478.066 598.708 478.094 598.433 478.104C597.922 478.124 597.475 478.056 597.091 477.901C596.709 477.745 596.413 477.503 596.201 477.175C595.989 476.847 595.884 476.432 595.887 475.932V468.534ZM604.22 478.149C603.434 478.149 602.758 477.99 602.191 477.672C601.628 477.35 601.194 476.896 600.889 476.31C600.584 475.72 600.431 475.022 600.431 474.217C600.431 473.431 600.584 472.742 600.889 472.148C601.194 471.555 601.623 471.093 602.176 470.761C602.733 470.43 603.386 470.264 604.135 470.264C604.639 470.264 605.108 470.345 605.542 470.508C605.98 470.667 606.361 470.907 606.686 471.229C607.014 471.55 607.269 471.955 607.451 472.442C607.634 472.926 607.725 473.492 607.725 474.142V474.724H601.277V473.411H605.731C605.731 473.106 605.665 472.836 605.532 472.601C605.4 472.366 605.216 472.182 604.98 472.049C604.748 471.913 604.478 471.845 604.17 471.845C603.849 471.845 603.564 471.92 603.315 472.069C603.07 472.215 602.877 472.412 602.738 472.661C602.599 472.906 602.528 473.179 602.525 473.481V474.729C602.525 475.107 602.594 475.433 602.733 475.708C602.876 475.983 603.076 476.195 603.335 476.344C603.593 476.494 603.9 476.568 604.255 476.568C604.49 476.568 604.705 476.535 604.901 476.469C605.096 476.402 605.264 476.303 605.403 476.17C605.542 476.038 605.648 475.875 605.721 475.683L607.68 475.812C607.581 476.283 607.377 476.694 607.069 477.045C606.764 477.393 606.369 477.665 605.885 477.861C605.405 478.053 604.85 478.149 604.22 478.149ZM611.921 478.124C611.341 478.124 610.815 477.975 610.345 477.677C609.877 477.375 609.506 476.933 609.231 476.349C608.959 475.763 608.824 475.044 608.824 474.192C608.824 473.317 608.964 472.589 609.246 472.009C609.528 471.426 609.902 470.99 610.37 470.702C610.84 470.41 611.356 470.264 611.916 470.264C612.343 470.264 612.7 470.337 612.985 470.483C613.273 470.625 613.505 470.804 613.681 471.02C613.86 471.232 613.996 471.441 614.088 471.646H614.153V467.818H616.266V478H614.178V476.777H614.088C613.989 476.989 613.848 477.2 613.666 477.408C613.487 477.614 613.253 477.785 612.965 477.92C612.68 478.056 612.332 478.124 611.921 478.124ZM612.592 476.439C612.933 476.439 613.222 476.346 613.457 476.161C613.696 475.972 613.878 475.708 614.004 475.37C614.133 475.032 614.198 474.636 614.198 474.182C614.198 473.728 614.135 473.333 614.009 472.999C613.883 472.664 613.701 472.405 613.462 472.223C613.223 472.041 612.933 471.95 612.592 471.95C612.244 471.95 611.951 472.044 611.712 472.233C611.473 472.422 611.293 472.684 611.17 473.018C611.047 473.353 610.986 473.741 610.986 474.182C610.986 474.626 611.047 475.019 611.17 475.36C611.296 475.698 611.477 475.963 611.712 476.156C611.951 476.344 612.244 476.439 612.592 476.439ZM624.698 478.149C623.916 478.149 623.243 477.983 622.679 477.652C622.119 477.317 621.688 476.853 621.387 476.26C621.088 475.667 620.939 474.984 620.939 474.212C620.939 473.429 621.09 472.743 621.392 472.153C621.697 471.56 622.129 471.098 622.689 470.766C623.249 470.432 623.916 470.264 624.688 470.264C625.354 470.264 625.937 470.385 626.438 470.627C626.938 470.869 627.334 471.209 627.626 471.646C627.918 472.084 628.078 472.598 628.108 473.188H626.11C626.053 472.806 625.904 472.5 625.662 472.268C625.424 472.032 625.11 471.915 624.723 471.915C624.395 471.915 624.108 472.004 623.863 472.183C623.621 472.359 623.432 472.616 623.296 472.954C623.16 473.292 623.092 473.701 623.092 474.182C623.092 474.669 623.158 475.083 623.291 475.425C623.427 475.766 623.617 476.026 623.863 476.205C624.108 476.384 624.395 476.474 624.723 476.474C624.965 476.474 625.182 476.424 625.374 476.325C625.569 476.225 625.73 476.081 625.856 475.892C625.985 475.7 626.07 475.469 626.11 475.201H628.108C628.075 475.784 627.916 476.298 627.631 476.742C627.349 477.183 626.96 477.528 626.463 477.776C625.966 478.025 625.377 478.149 624.698 478.149ZM631.642 478.144C631.155 478.144 630.72 478.06 630.339 477.891C629.958 477.718 629.657 477.465 629.434 477.13C629.216 476.792 629.106 476.371 629.106 475.867C629.106 475.443 629.184 475.087 629.34 474.798C629.496 474.51 629.708 474.278 629.976 474.102C630.245 473.927 630.55 473.794 630.891 473.705C631.236 473.615 631.597 473.552 631.975 473.516C632.419 473.469 632.777 473.426 633.049 473.386C633.321 473.343 633.518 473.28 633.64 473.197C633.763 473.115 633.824 472.992 633.824 472.83V472.8C633.824 472.485 633.725 472.241 633.526 472.069C633.331 471.897 633.052 471.81 632.691 471.81C632.31 471.81 632.006 471.895 631.781 472.064C631.556 472.23 631.407 472.438 631.334 472.69L629.375 472.531C629.474 472.067 629.67 471.666 629.961 471.328C630.253 470.987 630.629 470.725 631.09 470.543C631.554 470.357 632.091 470.264 632.701 470.264C633.125 470.264 633.531 470.314 633.919 470.413C634.31 470.513 634.656 470.667 634.958 470.876C635.263 471.085 635.503 471.353 635.679 471.681C635.854 472.006 635.942 472.395 635.942 472.849V478H633.934V476.941H633.874C633.751 477.18 633.587 477.39 633.382 477.572C633.176 477.751 632.93 477.892 632.641 477.995C632.353 478.094 632.02 478.144 631.642 478.144ZM632.248 476.683C632.56 476.683 632.835 476.621 633.074 476.499C633.312 476.373 633.5 476.204 633.635 475.991C633.771 475.779 633.839 475.539 633.839 475.271V474.46C633.773 474.503 633.682 474.543 633.566 474.58C633.453 474.613 633.326 474.644 633.183 474.674C633.041 474.701 632.898 474.725 632.756 474.749C632.613 474.768 632.484 474.787 632.368 474.803C632.119 474.84 631.902 474.898 631.716 474.977C631.531 475.057 631.387 475.165 631.284 475.3C631.181 475.433 631.13 475.599 631.13 475.798C631.13 476.086 631.234 476.306 631.443 476.459C631.655 476.608 631.924 476.683 632.248 476.683ZM637.585 480.864V470.364H639.673V471.646H639.768C639.861 471.441 639.995 471.232 640.171 471.02C640.35 470.804 640.582 470.625 640.867 470.483C641.155 470.337 641.513 470.264 641.941 470.264C642.497 470.264 643.011 470.41 643.482 470.702C643.952 470.99 644.329 471.426 644.61 472.009C644.892 472.589 645.033 473.317 645.033 474.192C645.033 475.044 644.895 475.763 644.62 476.349C644.348 476.933 643.977 477.375 643.507 477.677C643.039 477.975 642.516 478.124 641.936 478.124C641.525 478.124 641.175 478.056 640.887 477.92C640.602 477.785 640.368 477.614 640.186 477.408C640.003 477.2 639.864 476.989 639.768 476.777H639.703V480.864H637.585ZM639.659 474.182C639.659 474.636 639.722 475.032 639.847 475.37C639.973 475.708 640.156 475.972 640.394 476.161C640.633 476.346 640.923 476.439 641.264 476.439C641.609 476.439 641.901 476.344 642.139 476.156C642.378 475.963 642.559 475.698 642.681 475.36C642.807 475.019 642.87 474.626 642.87 474.182C642.87 473.741 642.809 473.353 642.686 473.018C642.564 472.684 642.383 472.422 642.144 472.233C641.906 472.044 641.612 471.95 641.264 471.95C640.92 471.95 640.628 472.041 640.389 472.223C640.154 472.405 639.973 472.664 639.847 472.999C639.722 473.333 639.659 473.728 639.659 474.182ZM650.507 470.364V471.955H645.908V470.364H650.507ZM646.952 468.534H649.07V475.653C649.07 475.849 649.1 476.001 649.159 476.111C649.219 476.217 649.302 476.291 649.408 476.335C649.517 476.378 649.643 476.399 649.786 476.399C649.885 476.399 649.985 476.391 650.084 476.374C650.183 476.354 650.26 476.339 650.313 476.33L650.646 477.906C650.54 477.939 650.391 477.977 650.198 478.02C650.006 478.066 649.772 478.094 649.497 478.104C648.987 478.124 648.539 478.056 648.155 477.901C647.774 477.745 647.477 477.503 647.265 477.175C647.053 476.847 646.949 476.432 646.952 475.932V468.534ZM651.886 478V470.364H654.004V478H651.886ZM652.95 469.379C652.635 469.379 652.365 469.275 652.14 469.066C651.918 468.854 651.807 468.6 651.807 468.305C651.807 468.014 651.918 467.763 652.14 467.555C652.365 467.343 652.635 467.237 652.95 467.237C653.265 467.237 653.533 467.343 653.756 467.555C653.981 467.763 654.094 468.014 654.094 468.305C654.094 468.6 653.981 468.854 653.756 469.066C653.533 469.275 653.265 469.379 652.95 469.379ZM659.151 478.149C658.379 478.149 657.711 477.985 657.147 477.657C656.587 477.326 656.155 476.865 655.85 476.275C655.545 475.682 655.392 474.994 655.392 474.212C655.392 473.423 655.545 472.733 655.85 472.143C656.155 471.55 656.587 471.089 657.147 470.761C657.711 470.43 658.379 470.264 659.151 470.264C659.923 470.264 660.589 470.43 661.15 470.761C661.713 471.089 662.147 471.55 662.452 472.143C662.757 472.733 662.909 473.423 662.909 474.212C662.909 474.994 662.757 475.682 662.452 476.275C662.147 476.865 661.713 477.326 661.15 477.657C660.589 477.985 659.923 478.149 659.151 478.149ZM659.161 476.509C659.512 476.509 659.806 476.409 660.041 476.21C660.276 476.008 660.453 475.733 660.573 475.385C660.695 475.037 660.757 474.641 660.757 474.197C660.757 473.753 660.695 473.357 660.573 473.009C660.453 472.661 660.276 472.385 660.041 472.183C659.806 471.981 659.512 471.88 659.161 471.88C658.806 471.88 658.508 471.981 658.266 472.183C658.027 472.385 657.847 472.661 657.724 473.009C657.605 473.357 657.545 473.753 657.545 474.197C657.545 474.641 657.605 475.037 657.724 475.385C657.847 475.733 658.027 476.008 658.266 476.21C658.508 476.409 658.806 476.509 659.161 476.509ZM666.404 473.585V478H664.287V470.364H666.305V471.711H666.395C666.564 471.267 666.847 470.915 667.245 470.657C667.642 470.395 668.125 470.264 668.691 470.264C669.222 470.264 669.684 470.38 670.078 470.612C670.473 470.844 670.779 471.176 670.998 471.607C671.217 472.034 671.326 472.545 671.326 473.138V478H669.208V473.516C669.212 473.048 669.092 472.684 668.85 472.422C668.609 472.157 668.275 472.024 667.851 472.024C667.566 472.024 667.314 472.085 667.096 472.208C666.88 472.331 666.711 472.51 666.588 472.745C666.469 472.977 666.408 473.257 666.404 473.585ZM679.349 472.541L677.41 472.661C677.377 472.495 677.306 472.346 677.197 472.213C677.087 472.077 676.943 471.969 676.764 471.89C676.588 471.807 676.378 471.766 676.133 471.766C675.805 471.766 675.528 471.835 675.302 471.974C675.077 472.11 674.964 472.293 674.964 472.521C674.964 472.704 675.037 472.858 675.183 472.984C675.329 473.11 675.579 473.211 675.934 473.287L677.316 473.565C678.058 473.718 678.612 473.963 678.976 474.301C679.341 474.639 679.523 475.083 679.523 475.634C679.523 476.134 679.376 476.573 679.081 476.951C678.789 477.329 678.388 477.624 677.878 477.836C677.371 478.045 676.786 478.149 676.123 478.149C675.112 478.149 674.306 477.939 673.706 477.518C673.11 477.094 672.76 476.517 672.657 475.788L674.741 475.678C674.804 475.987 674.956 476.222 675.198 476.384C675.44 476.543 675.75 476.623 676.128 476.623C676.499 476.623 676.797 476.552 677.023 476.409C677.251 476.263 677.367 476.076 677.371 475.847C677.367 475.655 677.286 475.498 677.127 475.375C676.968 475.249 676.723 475.153 676.391 475.087L675.069 474.823C674.323 474.674 673.768 474.415 673.403 474.048C673.042 473.68 672.861 473.211 672.861 472.641C672.861 472.15 672.994 471.728 673.259 471.373C673.528 471.018 673.904 470.745 674.388 470.553C674.875 470.36 675.445 470.264 676.098 470.264C677.062 470.264 677.821 470.468 678.375 470.876C678.932 471.283 679.256 471.839 679.349 472.541Z" fill="black"/>
<rect x="598" y="418.639" width="13.2379" height="13.2379" transform="rotate(45 598 418.639)" fill="white"/>
</g>
<g filter="url(#filter1_d_2144_2013)">
<rect x="396" y="36" width="215" height="68" rx="4" fill="white" shape-rendering="crispEdges"/>
<path d="M425.442 61.9044L426.201 64.0125C427.045 66.3521 428.887 68.1945 431.227 69.0377L433.335 69.7968C433.525 69.8658 433.525 70.1352 433.335 70.2033L431.227 70.9623C428.887 71.8055 427.045 73.6479 426.201 75.9876L425.442 78.0956C425.373 78.2856 425.104 78.2856 425.036 78.0956L424.277 75.9876C423.434 73.6479 421.591 71.8055 419.252 70.9623L417.143 70.2033C416.953 70.1343 416.953 69.8648 417.143 69.7968L419.252 69.0377C421.591 68.1945 423.434 66.3521 424.277 64.0125L425.036 61.9044C425.104 61.7135 425.373 61.7135 425.442 61.9044Z" fill="#9671FF"/>
<path d="M434.931 56.8386L435.316 57.9059C435.743 59.0904 436.676 60.0234 437.861 60.4507L438.928 60.8354C439.025 60.8704 439.025 61.0065 438.928 61.0415L437.861 61.4262C436.676 61.8535 435.743 62.7865 435.316 63.971L434.931 65.0382C434.896 65.1346 434.76 65.1346 434.725 65.0382L434.341 63.971C433.913 62.7865 432.98 61.8535 431.796 61.4262L430.729 61.0415C430.632 61.0065 430.632 60.8704 430.729 60.8354L431.796 60.4507C432.98 60.0234 433.913 59.0904 434.341 57.9059L434.725 56.8386C434.76 56.7413 434.897 56.7413 434.931 56.8386Z" fill="#9671FF"/>
<path d="M434.931 74.9627L435.316 76.0299C435.743 77.2144 436.676 78.1474 437.861 78.5747L438.928 78.9594C439.025 78.9944 439.025 79.1305 438.928 79.1655L437.861 79.5503C436.676 79.9775 435.743 80.9105 435.316 82.095L434.931 83.1623C434.896 83.2587 434.76 83.2587 434.725 83.1623L434.341 82.095C433.913 80.9105 432.98 79.9775 431.796 79.5503L430.729 79.1655C430.632 79.1305 430.632 78.9944 430.729 78.9594L431.796 78.5747C432.98 78.1474 433.913 77.2144 434.341 76.0299L434.725 74.9627C434.76 74.8663 434.897 74.8663 434.931 74.9627Z" fill="#9671FF"/>
<path d="M462.64 63H460.333L463.848 52.8182H466.622L470.132 63H467.825L465.275 55.1449H465.195L462.64 63ZM462.496 58.9979H467.945V60.6783H462.496V58.9979ZM473.51 52.8182V63H471.358V52.8182H473.51ZM484.836 57.5412L482.897 57.6605C482.864 57.4948 482.792 57.3456 482.683 57.2131C482.574 57.0772 482.429 56.9695 482.25 56.8899C482.075 56.8071 481.864 56.7656 481.619 56.7656C481.291 56.7656 481.014 56.8352 480.789 56.9744C480.563 57.1103 480.451 57.2926 480.451 57.5213C480.451 57.7036 480.524 57.8577 480.669 57.9837C480.815 58.1096 481.065 58.2107 481.42 58.2869L482.802 58.5653C483.545 58.7178 484.098 58.9631 484.463 59.3011C484.827 59.6392 485.01 60.0833 485.01 60.6335C485.01 61.134 484.862 61.5732 484.567 61.951C484.275 62.3288 483.874 62.6238 483.364 62.8359C482.857 63.0447 482.272 63.1491 481.609 63.1491C480.598 63.1491 479.793 62.9387 479.193 62.5178C478.596 62.0935 478.247 61.5168 478.144 60.7876L480.227 60.6783C480.29 60.9865 480.442 61.2218 480.684 61.3842C480.926 61.5433 481.236 61.6229 481.614 61.6229C481.985 61.6229 482.283 61.5516 482.509 61.4091C482.738 61.2633 482.854 61.076 482.857 60.8473C482.854 60.6551 482.772 60.4976 482.613 60.375C482.454 60.2491 482.209 60.1529 481.877 60.0866L480.555 59.8232C479.809 59.674 479.254 59.4155 478.89 59.0476C478.528 58.6797 478.348 58.2107 478.348 57.6406C478.348 57.1501 478.48 56.7275 478.745 56.3729C479.014 56.0182 479.39 55.7448 479.874 55.5526C480.361 55.3603 480.931 55.2642 481.584 55.2642C482.549 55.2642 483.308 55.468 483.861 55.8757C484.418 56.2834 484.743 56.8385 484.836 57.5412ZM489.823 63.1491C489.038 63.1491 488.362 62.9901 487.795 62.6719C487.231 62.3504 486.797 61.8963 486.492 61.3097C486.187 60.7197 486.035 60.022 486.035 59.2166C486.035 58.4311 486.187 57.7417 486.492 57.1484C486.797 56.5552 487.227 56.0928 487.78 55.7614C488.337 55.4299 488.99 55.2642 489.739 55.2642C490.243 55.2642 490.712 55.3454 491.146 55.5078C491.583 55.6669 491.964 55.9072 492.289 56.2287C492.617 56.5502 492.873 56.9545 493.055 57.4418C493.237 57.9257 493.328 58.4924 493.328 59.142V59.7237H486.88V58.4112H491.335C491.335 58.1063 491.268 57.8362 491.136 57.6009C491.003 57.3655 490.819 57.1816 490.584 57.049C490.352 56.9131 490.082 56.8452 489.774 56.8452C489.452 56.8452 489.167 56.9197 488.919 57.0689C488.673 57.2147 488.481 57.4119 488.342 57.6605C488.203 57.9058 488.131 58.1792 488.128 58.4808V59.7287C488.128 60.1065 488.198 60.433 488.337 60.7081C488.479 60.9832 488.68 61.1953 488.938 61.3445C489.197 61.4936 489.503 61.5682 489.858 61.5682C490.093 61.5682 490.309 61.535 490.504 61.4688C490.7 61.4025 490.867 61.303 491.007 61.1705C491.146 61.0379 491.252 60.8755 491.325 60.6832L493.284 60.8125C493.184 61.2831 492.98 61.6941 492.672 62.0455C492.367 62.3935 491.973 62.6652 491.489 62.8608C491.008 63.053 490.453 63.1491 489.823 63.1491ZM496.828 52.8182V63H494.71V52.8182H496.828ZM502.005 63.1491C501.219 63.1491 500.543 62.9901 499.977 62.6719C499.413 62.3504 498.979 61.8963 498.674 61.3097C498.369 60.7197 498.217 60.022 498.217 59.2166C498.217 58.4311 498.369 57.7417 498.674 57.1484C498.979 56.5552 499.408 56.0928 499.962 55.7614C500.518 55.4299 501.171 55.2642 501.92 55.2642C502.424 55.2642 502.893 55.3454 503.327 55.5078C503.765 55.6669 504.146 55.9072 504.471 56.2287C504.799 56.5502 505.054 56.9545 505.237 57.4418C505.419 57.9257 505.51 58.4924 505.51 59.142V59.7237H499.062V58.4112H503.516C503.516 58.1063 503.45 57.8362 503.317 57.6009C503.185 57.3655 503.001 57.1816 502.766 57.049C502.534 56.9131 502.263 56.8452 501.955 56.8452C501.634 56.8452 501.349 56.9197 501.1 57.0689C500.855 57.2147 500.663 57.4119 500.523 57.6605C500.384 57.9058 500.313 58.1792 500.31 58.4808V59.7287C500.31 60.1065 500.379 60.433 500.518 60.7081C500.661 60.9832 500.862 61.1953 501.12 61.3445C501.379 61.4936 501.685 61.5682 502.04 61.5682C502.275 61.5682 502.491 61.535 502.686 61.4688C502.882 61.4025 503.049 61.303 503.188 61.1705C503.327 61.0379 503.433 60.8755 503.506 60.6832L505.465 60.8125C505.366 61.2831 505.162 61.6941 504.854 62.0455C504.549 62.3935 504.154 62.6652 503.67 62.8608C503.19 63.053 502.635 63.1491 502.005 63.1491ZM510.342 63.1491C509.56 63.1491 508.887 62.9834 508.324 62.652C507.764 62.3172 507.333 61.8532 507.031 61.2599C506.733 60.6667 506.584 59.9839 506.584 59.2116C506.584 58.4295 506.735 57.7434 507.036 57.1534C507.341 56.5601 507.774 56.0978 508.334 55.7663C508.894 55.4316 509.56 55.2642 510.332 55.2642C510.999 55.2642 511.582 55.3852 512.082 55.6271C512.583 55.8691 512.979 56.2088 513.271 56.6463C513.562 57.0838 513.723 57.5975 513.753 58.1875H511.754C511.698 57.8063 511.549 57.4998 511.307 57.2678C511.068 57.0324 510.755 56.9148 510.367 56.9148C510.039 56.9148 509.752 57.0043 509.507 57.1832C509.265 57.3589 509.076 57.6158 508.94 57.9538C508.804 58.2919 508.737 58.7012 508.737 59.1818C508.737 59.669 508.803 60.0833 508.935 60.4247C509.071 60.7661 509.262 61.0263 509.507 61.2053C509.752 61.3842 510.039 61.4737 510.367 61.4737C510.609 61.4737 510.826 61.424 511.018 61.3246C511.214 61.2251 511.375 61.081 511.501 60.892C511.63 60.6998 511.714 60.4695 511.754 60.201H513.753C513.72 60.7843 513.561 61.2981 513.276 61.7422C512.994 62.183 512.604 62.5277 512.107 62.7763C511.61 63.0249 511.022 63.1491 510.342 63.1491ZM519.171 55.3636V56.9545H514.572V55.3636H519.171ZM515.616 53.5341H517.734V60.6534C517.734 60.849 517.764 61.0014 517.823 61.1108C517.883 61.2169 517.966 61.2914 518.072 61.3345C518.181 61.3776 518.307 61.3991 518.45 61.3991C518.549 61.3991 518.649 61.3909 518.748 61.3743C518.847 61.3544 518.924 61.3395 518.977 61.3295L519.31 62.9055C519.204 62.9387 519.055 62.9768 518.862 63.0199C518.67 63.0663 518.436 63.0945 518.161 63.1044C517.651 63.1243 517.204 63.0563 516.819 62.9006C516.438 62.7448 516.141 62.5028 515.929 62.1747C515.717 61.8466 515.613 61.4323 515.616 60.9318V53.5341ZM526.808 57.5412L524.869 57.6605C524.836 57.4948 524.765 57.3456 524.656 57.2131C524.546 57.0772 524.402 56.9695 524.223 56.8899C524.047 56.8071 523.837 56.7656 523.592 56.7656C523.263 56.7656 522.987 56.8352 522.761 56.9744C522.536 57.1103 522.423 57.2926 522.423 57.5213C522.423 57.7036 522.496 57.8577 522.642 57.9837C522.788 58.1096 523.038 58.2107 523.393 58.2869L524.775 58.5653C525.517 58.7178 526.071 58.9631 526.435 59.3011C526.8 59.6392 526.982 60.0833 526.982 60.6335C526.982 61.134 526.835 61.5732 526.54 61.951C526.248 62.3288 525.847 62.6238 525.337 62.8359C524.83 63.0447 524.245 63.1491 523.582 63.1491C522.571 63.1491 521.765 62.9387 521.165 62.5178C520.569 62.0935 520.219 61.5168 520.116 60.7876L522.2 60.6783C522.263 60.9865 522.415 61.2218 522.657 61.3842C522.899 61.5433 523.209 61.6229 523.587 61.6229C523.958 61.6229 524.256 61.5516 524.482 61.4091C524.71 61.2633 524.826 61.076 524.83 60.8473C524.826 60.6551 524.745 60.4976 524.586 60.375C524.427 60.2491 524.182 60.1529 523.85 60.0866L522.528 59.8232C521.782 59.674 521.227 59.4155 520.862 59.0476C520.501 58.6797 520.32 58.2107 520.32 57.6406C520.32 57.1501 520.453 56.7275 520.718 56.3729C520.987 56.0182 521.363 55.7448 521.847 55.5526C522.334 55.3603 522.904 55.2642 523.557 55.2642C524.521 55.2642 525.28 55.468 525.834 55.8757C526.391 56.2834 526.715 56.8385 526.808 57.5412ZM535.618 55.3636V56.9545H531.019V55.3636H535.618ZM532.063 53.5341H534.181V60.6534C534.181 60.849 534.211 61.0014 534.271 61.1108C534.33 61.2169 534.413 61.2914 534.519 61.3345C534.629 61.3776 534.754 61.3991 534.897 61.3991C534.996 61.3991 535.096 61.3909 535.195 61.3743C535.295 61.3544 535.371 61.3395 535.424 61.3295L535.757 62.9055C535.651 62.9387 535.502 62.9768 535.31 63.0199C535.117 63.0663 534.884 63.0945 534.609 63.1044C534.098 63.1243 533.651 63.0563 533.266 62.9006C532.885 62.7448 532.589 62.5028 532.376 62.1747C532.164 61.8466 532.06 61.4323 532.063 60.9318V53.5341ZM540.366 63.1491C539.594 63.1491 538.926 62.9851 538.362 62.657C537.802 62.3255 537.37 61.8648 537.065 61.2749C536.76 60.6816 536.607 59.9938 536.607 59.2116C536.607 58.4228 536.76 57.7334 537.065 57.1435C537.37 56.5502 537.802 56.0895 538.362 55.7614C538.926 55.4299 539.594 55.2642 540.366 55.2642C541.138 55.2642 541.804 55.4299 542.364 55.7614C542.928 56.0895 543.362 56.5502 543.667 57.1435C543.972 57.7334 544.124 58.4228 544.124 59.2116C544.124 59.9938 543.972 60.6816 543.667 61.2749C543.362 61.8648 542.928 62.3255 542.364 62.657C541.804 62.9851 541.138 63.1491 540.366 63.1491ZM540.376 61.5085C540.727 61.5085 541.02 61.4091 541.256 61.2102C541.491 61.008 541.668 60.733 541.788 60.3849C541.91 60.0369 541.972 59.6409 541.972 59.1967C541.972 58.7526 541.91 58.3565 541.788 58.0085C541.668 57.6605 541.491 57.3854 541.256 57.1832C541.02 56.9811 540.727 56.88 540.376 56.88C540.021 56.88 539.723 56.9811 539.481 57.1832C539.242 57.3854 539.062 57.6605 538.939 58.0085C538.82 58.3565 538.76 58.7526 538.76 59.1967C538.76 59.6409 538.82 60.0369 538.939 60.3849C539.062 60.733 539.242 61.008 539.481 61.2102C539.723 61.4091 540.021 61.5085 540.376 61.5085ZM545.501 65.8636V55.3636H547.589V56.6463H547.684C547.777 56.4408 547.911 56.232 548.087 56.0199C548.266 55.8045 548.498 55.6255 548.783 55.483C549.071 55.3371 549.429 55.2642 549.857 55.2642C550.413 55.2642 550.927 55.41 551.398 55.7017C551.868 55.9901 552.245 56.4259 552.526 57.0092C552.808 57.5893 552.949 58.3168 552.949 59.1918C552.949 60.0436 552.811 60.7628 552.536 61.3494C552.264 61.9328 551.893 62.3752 551.423 62.6768C550.955 62.9751 550.432 63.1243 549.852 63.1243C549.441 63.1243 549.091 63.0563 548.803 62.9205C548.518 62.7846 548.284 62.6139 548.102 62.4084C547.919 62.1996 547.78 61.9891 547.684 61.777H547.619V65.8636H545.501ZM547.575 59.1818C547.575 59.6359 547.638 60.032 547.763 60.37C547.889 60.7081 548.072 60.9716 548.31 61.1605C548.549 61.3461 548.839 61.4389 549.18 61.4389C549.525 61.4389 549.817 61.3445 550.055 61.1555C550.294 60.9633 550.475 60.6982 550.597 60.3601C550.723 60.0187 550.786 59.6259 550.786 59.1818C550.786 58.741 550.725 58.3532 550.602 58.0185C550.48 57.6837 550.299 57.4219 550.06 57.233C549.822 57.044 549.528 56.9496 549.18 56.9496C548.836 56.9496 548.544 57.0407 548.305 57.223C548.07 57.4053 547.889 57.6638 547.763 57.9986C547.638 58.3333 547.575 58.7277 547.575 59.1818ZM460.845 87V79.3636H462.864V80.7109H462.953C463.112 80.2635 463.377 79.9105 463.749 79.652C464.12 79.3935 464.564 79.2642 465.081 79.2642C465.605 79.2642 466.05 79.3951 466.418 79.657C466.786 79.9155 467.031 80.2668 467.154 80.7109H467.234C467.389 80.2734 467.671 79.9238 468.079 79.6619C468.49 79.3968 468.975 79.2642 469.536 79.2642C470.248 79.2642 470.826 79.4912 471.271 79.9453C471.718 80.3961 471.942 81.0357 471.942 81.8643V87H469.829V82.282C469.829 81.8577 469.716 81.5395 469.491 81.3274C469.265 81.1153 468.984 81.0092 468.646 81.0092C468.261 81.0092 467.961 81.1319 467.746 81.3771C467.53 81.6191 467.423 81.9389 467.423 82.3366V87H465.369V82.2372C465.369 81.8627 465.262 81.5644 465.046 81.3423C464.834 81.1203 464.554 81.0092 464.206 81.0092C463.971 81.0092 463.759 81.0689 463.57 81.1882C463.384 81.3042 463.237 81.4683 463.127 81.6804C463.018 81.8892 462.963 82.1345 462.963 82.4162V87H460.845ZM477.065 87.1491C476.293 87.1491 475.625 86.9851 475.061 86.657C474.501 86.3255 474.069 85.8648 473.764 85.2749C473.459 84.6816 473.306 83.9938 473.306 83.2116C473.306 82.4228 473.459 81.7334 473.764 81.1435C474.069 80.5502 474.501 80.0895 475.061 79.7614C475.625 79.4299 476.293 79.2642 477.065 79.2642C477.837 79.2642 478.503 79.4299 479.064 79.7614C479.627 80.0895 480.061 80.5502 480.366 81.1435C480.671 81.7334 480.824 82.4228 480.824 83.2116C480.824 83.9938 480.671 84.6816 480.366 85.2749C480.061 85.8648 479.627 86.3255 479.064 86.657C478.503 86.9851 477.837 87.1491 477.065 87.1491ZM477.075 85.5085C477.426 85.5085 477.72 85.4091 477.955 85.2102C478.19 85.008 478.368 84.733 478.487 84.3849C478.609 84.0369 478.671 83.6409 478.671 83.1967C478.671 82.7526 478.609 82.3565 478.487 82.0085C478.368 81.6605 478.19 81.3854 477.955 81.1832C477.72 80.9811 477.426 80.88 477.075 80.88C476.72 80.88 476.422 80.9811 476.18 81.1832C475.941 81.3854 475.761 81.6605 475.638 82.0085C475.519 82.3565 475.459 82.7526 475.459 83.1967C475.459 83.6409 475.519 84.0369 475.638 84.3849C475.761 84.733 475.941 85.008 476.18 85.2102C476.422 85.4091 476.72 85.5085 477.075 85.5085ZM482.201 87V79.3636H484.219V80.7109H484.309C484.468 80.2635 484.733 79.9105 485.104 79.652C485.475 79.3935 485.919 79.2642 486.436 79.2642C486.96 79.2642 487.406 79.3951 487.774 79.657C488.142 79.9155 488.387 80.2668 488.51 80.7109H488.589C488.745 80.2734 489.027 79.9238 489.434 79.6619C489.845 79.3968 490.331 79.2642 490.891 79.2642C491.604 79.2642 492.182 79.4912 492.626 79.9453C493.074 80.3961 493.297 81.0357 493.297 81.8643V87H491.184V82.282C491.184 81.8577 491.072 81.5395 490.846 81.3274C490.621 81.1153 490.339 81.0092 490.001 81.0092C489.617 81.0092 489.317 81.1319 489.101 81.3771C488.886 81.6191 488.778 81.9389 488.778 82.3366V87H486.725V82.2372C486.725 81.8627 486.617 81.5644 486.402 81.3423C486.19 81.1203 485.909 81.0092 485.561 81.0092C485.326 81.0092 485.114 81.0689 484.925 81.1882C484.739 81.3042 484.592 81.4683 484.483 81.6804C484.373 81.8892 484.319 82.1345 484.319 82.4162V87H482.201ZM498.45 87.1491C497.665 87.1491 496.989 86.9901 496.422 86.6719C495.858 86.3504 495.424 85.8963 495.119 85.3097C494.814 84.7197 494.662 84.022 494.662 83.2166C494.662 82.4311 494.814 81.7417 495.119 81.1484C495.424 80.5552 495.853 80.0928 496.407 79.7614C496.964 79.4299 497.617 79.2642 498.366 79.2642C498.87 79.2642 499.339 79.3454 499.773 79.5078C500.21 79.6669 500.591 79.9072 500.916 80.2287C501.244 80.5502 501.5 80.9545 501.682 81.4418C501.864 81.9257 501.955 82.4924 501.955 83.142V83.7237H495.507V82.4112H499.962C499.962 82.1063 499.895 81.8362 499.763 81.6009C499.63 81.3655 499.446 81.1816 499.211 81.049C498.979 80.9131 498.709 80.8452 498.401 80.8452C498.079 80.8452 497.794 80.9197 497.545 81.0689C497.3 81.2147 497.108 81.4119 496.969 81.6605C496.83 81.9058 496.758 82.1792 496.755 82.4808V83.7287C496.755 84.1065 496.825 84.433 496.964 84.7081C497.106 84.9832 497.307 85.1953 497.565 85.3445C497.824 85.4936 498.13 85.5682 498.485 85.5682C498.72 85.5682 498.936 85.535 499.131 85.4688C499.327 85.4025 499.494 85.303 499.634 85.1705C499.773 85.0379 499.879 84.8755 499.952 84.6832L501.911 84.8125C501.811 85.2831 501.607 85.6941 501.299 86.0455C500.994 86.3935 500.6 86.6652 500.116 86.8608C499.635 87.053 499.08 87.1491 498.45 87.1491ZM505.455 82.5852V87H503.337V79.3636H505.356V80.7109H505.445C505.614 80.2668 505.898 79.9155 506.295 79.657C506.693 79.3951 507.175 79.2642 507.742 79.2642C508.272 79.2642 508.735 79.3802 509.129 79.6122C509.524 79.8442 509.83 80.1757 510.049 80.6065C510.268 81.0341 510.377 81.5445 510.377 82.1378V87H508.259V82.5156C508.263 82.0483 508.143 81.6837 507.901 81.4219C507.659 81.1567 507.326 81.0241 506.902 81.0241C506.617 81.0241 506.365 81.0855 506.146 81.2081C505.931 81.3307 505.762 81.5097 505.639 81.745C505.52 81.977 505.459 82.2571 505.455 82.5852ZM516.108 79.3636V80.9545H511.509V79.3636H516.108ZM512.553 77.5341H514.671V84.6534C514.671 84.849 514.701 85.0014 514.761 85.1108C514.82 85.2169 514.903 85.2914 515.009 85.3345C515.119 85.3776 515.245 85.3991 515.387 85.3991C515.487 85.3991 515.586 85.3909 515.686 85.3743C515.785 85.3544 515.861 85.3395 515.914 85.3295L516.247 86.9055C516.141 86.9387 515.992 86.9768 515.8 87.0199C515.608 87.0663 515.374 87.0945 515.099 87.1044C514.588 87.1243 514.141 87.0563 513.757 86.9006C513.375 86.7448 513.079 86.5028 512.867 86.1747C512.655 85.8466 512.55 85.4323 512.553 84.9318V77.5341ZM523.746 81.5412L521.807 81.6605C521.774 81.4948 521.702 81.3456 521.593 81.2131C521.484 81.0772 521.339 80.9695 521.161 80.8899C520.985 80.8071 520.774 80.7656 520.529 80.7656C520.201 80.7656 519.924 80.8352 519.699 80.9744C519.473 81.1103 519.361 81.2926 519.361 81.5213C519.361 81.7036 519.434 81.8577 519.58 81.9837C519.725 82.1096 519.976 82.2107 520.33 82.2869L521.712 82.5653C522.455 82.7178 523.008 82.9631 523.373 83.3011C523.737 83.6392 523.92 84.0833 523.92 84.6335C523.92 85.134 523.772 85.5732 523.477 85.951C523.186 86.3288 522.785 86.6238 522.274 86.8359C521.767 87.0447 521.182 87.1491 520.519 87.1491C519.508 87.1491 518.703 86.9387 518.103 86.5178C517.506 86.0935 517.157 85.5168 517.054 84.7876L519.137 84.6783C519.2 84.9865 519.353 85.2218 519.594 85.3842C519.836 85.5433 520.146 85.6229 520.524 85.6229C520.895 85.6229 521.194 85.5516 521.419 85.4091C521.648 85.2633 521.764 85.076 521.767 84.8473C521.764 84.6551 521.683 84.4976 521.523 84.375C521.364 84.2491 521.119 84.1529 520.788 84.0866L519.465 83.8232C518.719 83.674 518.164 83.4155 517.8 83.0476C517.438 82.6797 517.258 82.2107 517.258 81.6406C517.258 81.1501 517.39 80.7275 517.656 80.3729C517.924 80.0182 518.3 79.7448 518.784 79.5526C519.271 79.3603 519.841 79.2642 520.494 79.2642C521.459 79.2642 522.218 79.468 522.771 79.8757C523.328 80.2834 523.653 80.8385 523.746 81.5412ZM532.6 79.3636V80.9545H527.887V79.3636H532.6ZM528.966 87V78.8118C528.966 78.2583 529.074 77.7992 529.289 77.4347C529.508 77.0701 529.806 76.7966 530.184 76.6143C530.562 76.4321 530.991 76.3409 531.472 76.3409C531.796 76.3409 532.093 76.3658 532.362 76.4155C532.633 76.4652 532.835 76.5099 532.968 76.5497L532.59 78.1406C532.507 78.1141 532.405 78.0893 532.282 78.0661C532.163 78.0429 532.04 78.0312 531.914 78.0312C531.603 78.0312 531.385 78.1042 531.263 78.25C531.14 78.3925 531.079 78.593 531.079 78.8516V87H528.966ZM537.071 87.1491C536.299 87.1491 535.631 86.9851 535.067 86.657C534.507 86.3255 534.075 85.8648 533.77 85.2749C533.465 84.6816 533.312 83.9938 533.312 83.2116C533.312 82.4228 533.465 81.7334 533.77 81.1435C534.075 80.5502 534.507 80.0895 535.067 79.7614C535.631 79.4299 536.299 79.2642 537.071 79.2642C537.843 79.2642 538.509 79.4299 539.069 79.7614C539.633 80.0895 540.067 80.5502 540.372 81.1435C540.677 81.7334 540.829 82.4228 540.829 83.2116C540.829 83.9938 540.677 84.6816 540.372 85.2749C540.067 85.8648 539.633 86.3255 539.069 86.657C538.509 86.9851 537.843 87.1491 537.071 87.1491ZM537.081 85.5085C537.432 85.5085 537.725 85.4091 537.961 85.2102C538.196 85.008 538.373 84.733 538.493 84.3849C538.615 84.0369 538.677 83.6409 538.677 83.1967C538.677 82.7526 538.615 82.3565 538.493 82.0085C538.373 81.6605 538.196 81.3854 537.961 81.1832C537.725 80.9811 537.432 80.88 537.081 80.88C536.726 80.88 536.428 80.9811 536.186 81.1832C535.947 81.3854 535.767 81.6605 535.644 82.0085C535.525 82.3565 535.465 82.7526 535.465 83.1967C535.465 83.6409 535.525 84.0369 535.644 84.3849C535.767 84.733 535.947 85.008 536.186 85.2102C536.428 85.4091 536.726 85.5085 537.081 85.5085ZM542.206 87V79.3636H544.26V80.696H544.339C544.479 80.2221 544.712 79.8641 545.04 79.6222C545.368 79.3769 545.746 79.2543 546.174 79.2543C546.28 79.2543 546.394 79.2609 546.517 79.2741C546.64 79.2874 546.747 79.3056 546.84 79.3288V81.2081C546.741 81.1783 546.603 81.1518 546.427 81.1286C546.252 81.1054 546.091 81.0938 545.945 81.0938C545.634 81.0938 545.355 81.1617 545.11 81.2976C544.868 81.4302 544.676 81.6158 544.533 81.8544C544.394 82.093 544.324 82.3681 544.324 82.6797V87H542.206ZM554.626 87.1491C553.843 87.1491 553.171 86.9834 552.607 86.652C552.047 86.3172 551.616 85.8532 551.314 85.2599C551.016 84.6667 550.867 83.9839 550.867 83.2116C550.867 82.4295 551.018 81.7434 551.319 81.1534C551.624 80.5601 552.057 80.0978 552.617 79.7663C553.177 79.4316 553.843 79.2642 554.616 79.2642C555.282 79.2642 555.865 79.3852 556.366 79.6271C556.866 79.8691 557.262 80.2088 557.554 80.6463C557.845 81.0838 558.006 81.5975 558.036 82.1875H556.037C555.981 81.8063 555.832 81.4998 555.59 81.2678C555.351 81.0324 555.038 80.9148 554.65 80.9148C554.322 80.9148 554.036 81.0043 553.79 81.1832C553.548 81.3589 553.359 81.6158 553.224 81.9538C553.088 82.2919 553.02 82.7012 553.02 83.1818C553.02 83.669 553.086 84.0833 553.219 84.4247C553.354 84.7661 553.545 85.0263 553.79 85.2053C554.036 85.3842 554.322 85.4737 554.65 85.4737C554.892 85.4737 555.109 85.424 555.302 85.3246C555.497 85.2251 555.658 85.081 555.784 84.892C555.913 84.6998 555.998 84.4695 556.037 84.201H558.036C558.003 84.7843 557.844 85.2981 557.559 85.7422C557.277 86.183 556.888 86.5277 556.39 86.7763C555.893 87.0249 555.305 87.1491 554.626 87.1491ZM561.51 76.8182V87H559.392V76.8182H561.51ZM563.206 87V79.3636H565.324V87H563.206ZM564.27 78.3793C563.956 78.3793 563.685 78.2749 563.46 78.0661C563.238 77.8539 563.127 77.6004 563.127 77.3054C563.127 77.0137 563.238 76.7635 563.46 76.5547C563.685 76.3426 563.956 76.2365 564.27 76.2365C564.585 76.2365 564.854 76.3426 565.076 76.5547C565.301 76.7635 565.414 77.0137 565.414 77.3054C565.414 77.6004 565.301 77.8539 565.076 78.0661C564.854 78.2749 564.585 78.3793 564.27 78.3793ZM567.021 89.8636V79.3636H569.109V80.6463H569.203C569.296 80.4408 569.431 80.232 569.606 80.0199C569.785 79.8045 570.017 79.6255 570.302 79.483C570.591 79.3371 570.949 79.2642 571.376 79.2642C571.933 79.2642 572.447 79.41 572.917 79.7017C573.388 79.9901 573.764 80.4259 574.046 81.0092C574.328 81.5893 574.468 82.3168 574.468 83.1918C574.468 84.0436 574.331 84.7628 574.056 85.3494C573.784 85.9328 573.413 86.3752 572.942 86.6768C572.475 86.9751 571.951 87.1243 571.371 87.1243C570.96 87.1243 570.61 87.0563 570.322 86.9205C570.037 86.7846 569.803 86.6139 569.621 86.4084C569.439 86.1996 569.3 85.9891 569.203 85.777H569.139V89.8636H567.021ZM569.094 83.1818C569.094 83.6359 569.157 84.032 569.283 84.37C569.409 84.7081 569.591 84.9716 569.83 85.1605C570.069 85.3461 570.359 85.4389 570.7 85.4389C571.045 85.4389 571.336 85.3445 571.575 85.1555C571.814 84.9633 571.994 84.6982 572.117 84.3601C572.243 84.0187 572.306 83.6259 572.306 83.1818C572.306 82.741 572.244 82.3532 572.122 82.0185C571.999 81.6837 571.819 81.4219 571.58 81.233C571.341 81.044 571.048 80.9496 570.7 80.9496C570.355 80.9496 570.064 81.0407 569.825 81.223C569.59 81.4053 569.409 81.6638 569.283 81.9986C569.157 82.3333 569.094 82.7277 569.094 83.1818ZM582.234 81.5412L580.295 81.6605C580.262 81.4948 580.191 81.3456 580.081 81.2131C579.972 81.0772 579.828 80.9695 579.649 80.8899C579.473 80.8071 579.263 80.7656 579.017 80.7656C578.689 80.7656 578.413 80.8352 578.187 80.9744C577.962 81.1103 577.849 81.2926 577.849 81.5213C577.849 81.7036 577.922 81.8577 578.068 81.9837C578.214 82.1096 578.464 82.2107 578.819 82.2869L580.201 82.5653C580.943 82.7178 581.497 82.9631 581.861 83.3011C582.226 83.6392 582.408 84.0833 582.408 84.6335C582.408 85.134 582.261 85.5732 581.966 85.951C581.674 86.3288 581.273 86.6238 580.762 86.8359C580.255 87.0447 579.67 87.1491 579.007 87.1491C577.997 87.1491 577.191 86.9387 576.591 86.5178C575.995 86.0935 575.645 85.5168 575.542 84.7876L577.625 84.6783C577.688 84.9865 577.841 85.2218 578.083 85.3842C578.325 85.5433 578.635 85.6229 579.012 85.6229C579.384 85.6229 579.682 85.5516 579.907 85.4091C580.136 85.2633 580.252 85.076 580.255 84.8473C580.252 84.6551 580.171 84.4976 580.012 84.375C579.853 84.2491 579.607 84.1529 579.276 84.0866L577.953 83.8232C577.208 83.674 576.653 83.4155 576.288 83.0476C575.927 82.6797 575.746 82.2107 575.746 81.6406C575.746 81.1501 575.879 80.7275 576.144 80.3729C576.412 80.0182 576.788 79.7448 577.272 79.5526C577.76 79.3603 578.33 79.2642 578.983 79.2642C579.947 79.2642 580.706 79.468 581.26 79.8757C581.816 80.2834 582.141 80.8385 582.234 81.5412Z" fill="black"/>
<rect x="434.36" y="93.6387" width="13.2379" height="13.2379" transform="rotate(45 434.36 93.6387)" fill="white"/>
</g>
<g filter="url(#filter2_d_2144_2013)">
<rect x="128" y="524" width="238" height="68" rx="4" fill="white" shape-rendering="crispEdges"/>
<g clip-path="url(#clip1_2144_2013)">
<path d="M176.47 546.218C176.259 546 175.835 546 175.517 546C165.349 548.836 154.545 548.836 144.377 546C144.059 546 143.636 546 143.424 546.218C143.106 546.436 143 546.764 143 547.091V568.909C143 569.236 143.106 569.564 143.424 569.782C143.636 570 144.059 570 144.377 570C154.545 567.164 165.349 567.164 175.623 570H175.941C176.153 570 176.364 569.891 176.576 569.782C176.788 569.564 177 569.236 177 568.909V547.091C176.894 546.764 176.788 546.436 176.47 546.218ZM157.829 562.364C157.829 563.018 157.405 563.455 156.769 563.455C156.134 563.455 155.71 563.018 155.71 562.364V560.182H151.474C151.05 560.182 150.626 559.964 150.52 559.527C150.308 559.091 150.414 558.655 150.732 558.327L156.028 552.873C156.134 552.764 156.24 552.655 156.346 552.655C156.558 552.545 156.875 552.545 157.193 552.655C157.405 552.764 157.617 552.982 157.723 553.2C157.829 553.309 157.829 553.527 157.829 553.636V562.364ZM167.15 561.709C167.467 562.145 167.361 562.909 166.938 563.236C166.726 563.345 166.514 563.455 166.302 563.455C165.984 563.455 165.667 563.345 165.455 563.018L162.277 558.655C162.171 558.436 162.065 558.218 162.065 558V562.364C162.065 563.018 161.642 563.455 161.006 563.455C160.371 563.455 159.947 563.018 159.947 562.364V553.636C159.947 552.982 160.371 552.545 161.006 552.545C161.642 552.545 162.065 552.982 162.065 553.636V558C162.065 557.782 162.171 557.564 162.277 557.345L165.455 552.982C165.773 552.545 166.514 552.436 166.938 552.764C167.361 553.091 167.467 553.855 167.15 554.291L164.502 558L167.15 561.709Z" fill="#9671FF"/>
<path d="M156 558V556L154 558H156Z" fill="#9671FF"/>
</g>
<path d="M192.671 549.21V547.515L196.922 540.818H198.384V543.165H197.518L194.839 547.406V547.485H200.879V549.21H192.671ZM197.558 551V548.693L197.598 547.942V540.818H199.616V551H197.558ZM202.373 551V540.818H204.526V545.308H204.66L208.324 540.818H210.904L207.126 545.377L210.949 551H208.374L205.585 546.814L204.526 548.107V551H202.373ZM216.128 545.979V547.659H211.485V545.979H216.128ZM222.979 553.864V549.777H222.915C222.815 549.989 222.674 550.2 222.492 550.408C222.313 550.614 222.079 550.785 221.791 550.92C221.506 551.056 221.158 551.124 220.747 551.124C220.167 551.124 219.642 550.975 219.171 550.677C218.704 550.375 218.332 549.933 218.057 549.349C217.786 548.763 217.65 548.044 217.65 547.192C217.65 546.317 217.791 545.589 218.072 545.009C218.354 544.426 218.729 543.99 219.196 543.702C219.666 543.41 220.182 543.264 220.742 543.264C221.17 543.264 221.526 543.337 221.811 543.483C222.099 543.625 222.331 543.804 222.507 544.02C222.686 544.232 222.822 544.441 222.915 544.646H223.004V543.364H225.092V553.864H222.979ZM221.418 549.439C221.76 549.439 222.048 549.346 222.283 549.161C222.522 548.972 222.704 548.708 222.83 548.37C222.959 548.032 223.024 547.636 223.024 547.182C223.024 546.728 222.961 546.333 222.835 545.999C222.709 545.664 222.527 545.405 222.288 545.223C222.05 545.041 221.76 544.95 221.418 544.95C221.07 544.95 220.777 545.044 220.538 545.233C220.3 545.422 220.119 545.684 219.996 546.018C219.874 546.353 219.812 546.741 219.812 547.182C219.812 547.626 219.874 548.019 219.996 548.36C220.122 548.698 220.303 548.963 220.538 549.156C220.777 549.344 221.07 549.439 221.418 549.439ZM231.689 547.749V543.364H233.807V551H231.774V549.613H231.694C231.522 550.06 231.235 550.42 230.834 550.692C230.437 550.964 229.951 551.099 229.378 551.099C228.867 551.099 228.418 550.983 228.03 550.751C227.643 550.519 227.339 550.19 227.121 549.762C226.905 549.335 226.796 548.822 226.792 548.226V543.364H228.91V547.848C228.914 548.299 229.035 548.655 229.273 548.917C229.512 549.179 229.832 549.31 230.233 549.31C230.488 549.31 230.727 549.252 230.949 549.136C231.171 549.016 231.35 548.841 231.486 548.609C231.625 548.377 231.693 548.09 231.689 547.749ZM237.679 551.144C237.192 551.144 236.758 551.06 236.376 550.891C235.995 550.718 235.694 550.465 235.472 550.13C235.253 549.792 235.143 549.371 235.143 548.867C235.143 548.443 235.221 548.087 235.377 547.798C235.533 547.51 235.745 547.278 236.013 547.102C236.282 546.927 236.587 546.794 236.928 546.705C237.273 546.615 237.634 546.552 238.012 546.516C238.456 546.469 238.814 546.426 239.086 546.386C239.358 546.343 239.555 546.28 239.678 546.197C239.8 546.115 239.862 545.992 239.862 545.83V545.8C239.862 545.485 239.762 545.241 239.563 545.069C239.368 544.897 239.089 544.81 238.728 544.81C238.347 544.81 238.044 544.895 237.818 545.064C237.593 545.23 237.444 545.438 237.371 545.69L235.412 545.531C235.511 545.067 235.707 544.666 235.999 544.328C236.29 543.987 236.666 543.725 237.127 543.543C237.591 543.357 238.128 543.264 238.738 543.264C239.162 543.264 239.568 543.314 239.956 543.413C240.347 543.513 240.693 543.667 240.995 543.876C241.3 544.085 241.54 544.353 241.716 544.681C241.892 545.006 241.979 545.395 241.979 545.849V551H239.971V549.941H239.911C239.789 550.18 239.625 550.39 239.419 550.572C239.214 550.751 238.967 550.892 238.678 550.995C238.39 551.094 238.057 551.144 237.679 551.144ZM238.286 549.683C238.597 549.683 238.872 549.621 239.111 549.499C239.349 549.373 239.537 549.204 239.673 548.991C239.808 548.779 239.876 548.539 239.876 548.271V547.46C239.81 547.503 239.719 547.543 239.603 547.58C239.49 547.613 239.363 547.644 239.22 547.674C239.078 547.701 238.935 547.725 238.793 547.749C238.65 547.768 238.521 547.787 238.405 547.803C238.156 547.84 237.939 547.898 237.754 547.977C237.568 548.057 237.424 548.165 237.321 548.3C237.218 548.433 237.167 548.599 237.167 548.798C237.167 549.086 237.271 549.306 237.48 549.459C237.692 549.608 237.961 549.683 238.286 549.683ZM245.74 540.818V551H243.623V540.818H245.74ZM247.437 551V543.364H249.555V551H247.437ZM248.501 542.379C248.186 542.379 247.916 542.275 247.691 542.066C247.468 541.854 247.357 541.6 247.357 541.305C247.357 541.014 247.468 540.763 247.691 540.555C247.916 540.343 248.186 540.237 248.501 540.237C248.816 540.237 249.084 540.343 249.306 540.555C249.532 540.763 249.644 541.014 249.644 541.305C249.644 541.6 249.532 541.854 249.306 542.066C249.084 542.275 248.816 542.379 248.501 542.379ZM255.313 543.364V544.955H250.714V543.364H255.313ZM251.759 541.534H253.876V548.653C253.876 548.849 253.906 549.001 253.966 549.111C254.026 549.217 254.108 549.291 254.214 549.335C254.324 549.378 254.45 549.399 254.592 549.399C254.692 549.399 254.791 549.391 254.891 549.374C254.99 549.354 255.066 549.339 255.119 549.33L255.452 550.906C255.346 550.939 255.197 550.977 255.005 551.02C254.813 551.066 254.579 551.094 254.304 551.104C253.794 551.124 253.346 551.056 252.962 550.901C252.58 550.745 252.284 550.503 252.072 550.175C251.86 549.847 251.755 549.432 251.759 548.932V541.534ZM258 553.864C257.732 553.864 257.48 553.842 257.245 553.799C257.013 553.759 256.82 553.708 256.668 553.645L257.145 552.064C257.394 552.14 257.618 552.182 257.816 552.188C258.019 552.195 258.193 552.148 258.338 552.049C258.488 551.95 258.609 551.781 258.701 551.542L258.826 551.219L256.086 543.364H258.314L259.895 548.972H259.974L261.57 543.364H263.812L260.844 551.825C260.702 552.236 260.508 552.594 260.262 552.899C260.02 553.207 259.714 553.444 259.343 553.61C258.971 553.779 258.524 553.864 258 553.864ZM266.719 549.608L266.665 550.155C266.622 550.592 266.539 551.028 266.416 551.462C266.297 551.9 266.171 552.296 266.038 552.651C265.909 553.005 265.805 553.284 265.725 553.486H264.353C264.403 553.29 264.47 553.017 264.557 552.665C264.643 552.317 264.724 551.926 264.8 551.492C264.876 551.058 264.925 550.616 264.944 550.165L264.969 549.608H266.719ZM274.868 551.149C274.095 551.149 273.428 550.985 272.864 550.657C272.304 550.326 271.872 549.865 271.567 549.275C271.262 548.682 271.109 547.994 271.109 547.212C271.109 546.423 271.262 545.733 271.567 545.143C271.872 544.55 272.304 544.089 272.864 543.761C273.428 543.43 274.095 543.264 274.868 543.264C275.64 543.264 276.306 543.43 276.866 543.761C277.43 544.089 277.864 544.55 278.169 545.143C278.474 545.733 278.626 546.423 278.626 547.212C278.626 547.994 278.474 548.682 278.169 549.275C277.864 549.865 277.43 550.326 276.866 550.657C276.306 550.985 275.64 551.149 274.868 551.149ZM274.878 549.509C275.229 549.509 275.522 549.409 275.758 549.21C275.993 549.008 276.17 548.733 276.29 548.385C276.412 548.037 276.474 547.641 276.474 547.197C276.474 546.753 276.412 546.357 276.29 546.009C276.17 545.661 275.993 545.385 275.758 545.183C275.522 544.981 275.229 544.88 274.878 544.88C274.523 544.88 274.225 544.981 273.983 545.183C273.744 545.385 273.564 545.661 273.441 546.009C273.322 546.357 273.262 546.753 273.262 547.197C273.262 547.641 273.322 548.037 273.441 548.385C273.564 548.733 273.744 549.008 273.983 549.21C274.225 549.409 274.523 549.509 274.878 549.509ZM280.003 553.864V543.364H282.091V544.646H282.186C282.279 544.441 282.413 544.232 282.589 544.02C282.768 543.804 283 543.625 283.285 543.483C283.573 543.337 283.931 543.264 284.358 543.264C284.915 543.264 285.429 543.41 285.9 543.702C286.37 543.99 286.747 544.426 287.028 545.009C287.31 545.589 287.451 546.317 287.451 547.192C287.451 548.044 287.313 548.763 287.038 549.349C286.766 549.933 286.395 550.375 285.925 550.677C285.457 550.975 284.934 551.124 284.354 551.124C283.943 551.124 283.593 551.056 283.305 550.92C283.019 550.785 282.786 550.614 282.604 550.408C282.421 550.2 282.282 549.989 282.186 549.777H282.121V553.864H280.003ZM282.077 547.182C282.077 547.636 282.14 548.032 282.265 548.37C282.391 548.708 282.574 548.972 282.812 549.161C283.051 549.346 283.341 549.439 283.682 549.439C284.027 549.439 284.319 549.344 284.557 549.156C284.796 548.963 284.977 548.698 285.099 548.36C285.225 548.019 285.288 547.626 285.288 547.182C285.288 546.741 285.227 546.353 285.104 546.018C284.982 545.684 284.801 545.422 284.562 545.233C284.324 545.044 284.03 544.95 283.682 544.95C283.338 544.95 283.046 545.041 282.807 545.223C282.572 545.405 282.391 545.664 282.265 545.999C282.14 546.333 282.077 546.728 282.077 547.182ZM292.925 543.364V544.955H288.326V543.364H292.925ZM289.37 541.534H291.488V548.653C291.488 548.849 291.518 549.001 291.577 549.111C291.637 549.217 291.72 549.291 291.826 549.335C291.935 549.378 292.061 549.399 292.204 549.399C292.303 549.399 292.403 549.391 292.502 549.374C292.601 549.354 292.678 549.339 292.731 549.33L293.064 550.906C292.958 550.939 292.809 550.977 292.616 551.02C292.424 551.066 292.19 551.094 291.915 551.104C291.405 551.124 290.957 551.056 290.573 550.901C290.192 550.745 289.895 550.503 289.683 550.175C289.471 549.847 289.367 549.432 289.37 548.932V541.534ZM294.304 551V543.364H296.422V551H294.304ZM295.368 542.379C295.053 542.379 294.783 542.275 294.558 542.066C294.336 541.854 294.225 541.6 294.225 541.305C294.225 541.014 294.336 540.763 294.558 540.555C294.783 540.343 295.053 540.237 295.368 540.237C295.683 540.237 295.951 540.343 296.173 540.555C296.399 540.763 296.512 541.014 296.512 541.305C296.512 541.6 296.399 541.854 296.173 542.066C295.951 542.275 295.683 542.379 295.368 542.379ZM298.119 551V543.364H300.137V544.711H300.227C300.386 544.263 300.651 543.911 301.022 543.652C301.393 543.393 301.837 543.264 302.354 543.264C302.878 543.264 303.324 543.395 303.692 543.657C304.06 543.915 304.305 544.267 304.428 544.711H304.507C304.663 544.273 304.945 543.924 305.352 543.662C305.763 543.397 306.249 543.264 306.809 543.264C307.522 543.264 308.1 543.491 308.544 543.945C308.991 544.396 309.215 545.036 309.215 545.864V551H307.102V546.282C307.102 545.858 306.99 545.54 306.764 545.327C306.539 545.115 306.257 545.009 305.919 545.009C305.535 545.009 305.235 545.132 305.019 545.377C304.804 545.619 304.696 545.939 304.696 546.337V551H302.643V546.237C302.643 545.863 302.535 545.564 302.32 545.342C302.107 545.12 301.827 545.009 301.479 545.009C301.244 545.009 301.032 545.069 300.843 545.188C300.657 545.304 300.51 545.468 300.401 545.68C300.291 545.889 300.237 546.134 300.237 546.416V551H298.119ZM310.888 551V543.364H313.006V551H310.888ZM311.952 542.379C311.637 542.379 311.367 542.275 311.142 542.066C310.92 541.854 310.809 541.6 310.809 541.305C310.809 541.014 310.92 540.763 311.142 540.555C311.367 540.343 311.637 540.237 311.952 540.237C312.267 540.237 312.535 540.343 312.757 540.555C312.983 540.763 313.096 541.014 313.096 541.305C313.096 541.6 312.983 541.854 312.757 542.066C312.535 542.275 312.267 542.379 311.952 542.379ZM314.663 551V549.737L318.401 545.109V545.054H314.792V543.364H320.952V544.741L317.442 549.255V549.31H321.081V551H314.663ZM325.962 551.149C325.176 551.149 324.5 550.99 323.934 550.672C323.37 550.35 322.936 549.896 322.631 549.31C322.326 548.72 322.174 548.022 322.174 547.217C322.174 546.431 322.326 545.742 322.631 545.148C322.936 544.555 323.365 544.093 323.919 543.761C324.475 543.43 325.128 543.264 325.877 543.264C326.381 543.264 326.85 543.345 327.284 543.508C327.722 543.667 328.103 543.907 328.428 544.229C328.756 544.55 329.011 544.955 329.194 545.442C329.376 545.926 329.467 546.492 329.467 547.142V547.724H323.019V546.411H327.473C327.473 546.106 327.407 545.836 327.275 545.601C327.142 545.366 326.958 545.182 326.723 545.049C326.491 544.913 326.221 544.845 325.912 544.845C325.591 544.845 325.306 544.92 325.057 545.069C324.812 545.215 324.62 545.412 324.48 545.661C324.341 545.906 324.27 546.179 324.267 546.481V547.729C324.267 548.107 324.336 548.433 324.475 548.708C324.618 548.983 324.819 549.195 325.077 549.344C325.336 549.494 325.642 549.568 325.997 549.568C326.232 549.568 326.448 549.535 326.643 549.469C326.839 549.402 327.006 549.303 327.145 549.17C327.284 549.038 327.391 548.875 327.463 548.683L329.422 548.812C329.323 549.283 329.119 549.694 328.811 550.045C328.506 550.393 328.111 550.665 327.627 550.861C327.147 551.053 326.592 551.149 325.962 551.149ZM333.663 551.124C333.083 551.124 332.558 550.975 332.087 550.677C331.62 550.375 331.248 549.933 330.973 549.349C330.702 548.763 330.566 548.044 330.566 547.192C330.566 546.317 330.707 545.589 330.988 545.009C331.27 544.426 331.645 543.99 332.112 543.702C332.583 543.41 333.098 543.264 333.658 543.264C334.086 543.264 334.442 543.337 334.727 543.483C335.015 543.625 335.247 543.804 335.423 544.02C335.602 544.232 335.738 544.441 335.831 544.646H335.895V540.818H338.008V551H335.92V549.777H335.831C335.731 549.989 335.59 550.2 335.408 550.408C335.229 550.614 334.995 550.785 334.707 550.92C334.422 551.056 334.074 551.124 333.663 551.124ZM334.334 549.439C334.676 549.439 334.964 549.346 335.199 549.161C335.438 548.972 335.62 548.708 335.746 548.37C335.875 548.032 335.94 547.636 335.94 547.182C335.94 546.728 335.877 546.333 335.751 545.999C335.625 545.664 335.443 545.405 335.204 545.223C334.966 545.041 334.676 544.95 334.334 544.95C333.986 544.95 333.693 545.044 333.454 545.233C333.216 545.422 333.035 545.684 332.912 546.018C332.79 546.353 332.728 546.741 332.728 547.182C332.728 547.626 332.79 548.019 332.912 548.36C333.038 548.698 333.219 548.963 333.454 549.156C333.693 549.344 333.986 549.439 334.334 549.439ZM196.952 567.364V568.955H192.239V567.364H196.952ZM193.317 575V566.812C193.317 566.258 193.425 565.799 193.641 565.435C193.859 565.07 194.158 564.797 194.536 564.614C194.913 564.432 195.343 564.341 195.823 564.341C196.148 564.341 196.445 564.366 196.713 564.415C196.985 564.465 197.187 564.51 197.32 564.55L196.942 566.141C196.859 566.114 196.756 566.089 196.634 566.066C196.514 566.043 196.392 566.031 196.266 566.031C195.954 566.031 195.737 566.104 195.614 566.25C195.492 566.393 195.43 566.593 195.43 566.852V575H193.317ZM201.422 575.149C200.65 575.149 199.982 574.985 199.419 574.657C198.859 574.326 198.426 573.865 198.121 573.275C197.816 572.682 197.664 571.994 197.664 571.212C197.664 570.423 197.816 569.733 198.121 569.143C198.426 568.55 198.859 568.089 199.419 567.761C199.982 567.43 200.65 567.264 201.422 567.264C202.195 567.264 202.861 567.43 203.421 567.761C203.984 568.089 204.419 568.55 204.724 569.143C205.028 569.733 205.181 570.423 205.181 571.212C205.181 571.994 205.028 572.682 204.724 573.275C204.419 573.865 203.984 574.326 203.421 574.657C202.861 574.985 202.195 575.149 201.422 575.149ZM201.432 573.509C201.784 573.509 202.077 573.409 202.312 573.21C202.548 573.008 202.725 572.733 202.844 572.385C202.967 572.037 203.028 571.641 203.028 571.197C203.028 570.753 202.967 570.357 202.844 570.009C202.725 569.661 202.548 569.385 202.312 569.183C202.077 568.981 201.784 568.88 201.432 568.88C201.078 568.88 200.779 568.981 200.537 569.183C200.299 569.385 200.118 569.661 199.996 570.009C199.876 570.357 199.817 570.753 199.817 571.197C199.817 571.641 199.876 572.037 199.996 572.385C200.118 572.733 200.299 573.008 200.537 573.21C200.779 573.409 201.078 573.509 201.432 573.509ZM206.558 575V567.364H208.611V568.696H208.691C208.83 568.222 209.064 567.864 209.392 567.622C209.72 567.377 210.098 567.254 210.525 567.254C210.631 567.254 210.746 567.261 210.868 567.274C210.991 567.287 211.099 567.306 211.192 567.329V569.208C211.092 569.178 210.955 569.152 210.779 569.129C210.603 569.105 210.443 569.094 210.297 569.094C209.985 569.094 209.707 569.162 209.461 569.298C209.22 569.43 209.027 569.616 208.885 569.854C208.746 570.093 208.676 570.368 208.676 570.68V575H206.558ZM221.881 569.541L219.942 569.661C219.908 569.495 219.837 569.346 219.728 569.213C219.618 569.077 219.474 568.969 219.295 568.89C219.12 568.807 218.909 568.766 218.664 568.766C218.336 568.766 218.059 568.835 217.834 568.974C217.608 569.11 217.496 569.293 217.496 569.521C217.496 569.704 217.568 569.858 217.714 569.984C217.86 570.11 218.11 570.211 218.465 570.287L219.847 570.565C220.59 570.718 221.143 570.963 221.508 571.301C221.872 571.639 222.055 572.083 222.055 572.634C222.055 573.134 221.907 573.573 221.612 573.951C221.32 574.329 220.919 574.624 220.409 574.836C219.902 575.045 219.317 575.149 218.654 575.149C217.643 575.149 216.838 574.939 216.238 574.518C215.641 574.094 215.291 573.517 215.189 572.788L217.272 572.678C217.335 572.987 217.487 573.222 217.729 573.384C217.971 573.543 218.281 573.623 218.659 573.623C219.03 573.623 219.328 573.552 219.554 573.409C219.782 573.263 219.898 573.076 219.902 572.847C219.898 572.655 219.817 572.498 219.658 572.375C219.499 572.249 219.254 572.153 218.922 572.087L217.6 571.823C216.854 571.674 216.299 571.415 215.934 571.048C215.573 570.68 215.393 570.211 215.393 569.641C215.393 569.15 215.525 568.728 215.79 568.373C216.059 568.018 216.435 567.745 216.919 567.553C217.406 567.36 217.976 567.264 218.629 567.264C219.594 567.264 220.353 567.468 220.906 567.876C221.463 568.283 221.788 568.839 221.881 569.541ZM226.838 575.149C226.066 575.149 225.398 574.985 224.835 574.657C224.275 574.326 223.842 573.865 223.537 573.275C223.232 572.682 223.08 571.994 223.08 571.212C223.08 570.423 223.232 569.733 223.537 569.143C223.842 568.55 224.275 568.089 224.835 567.761C225.398 567.43 226.066 567.264 226.838 567.264C227.611 567.264 228.277 567.43 228.837 567.761C229.4 568.089 229.835 568.55 230.14 569.143C230.444 569.733 230.597 570.423 230.597 571.212C230.597 571.994 230.444 572.682 230.14 573.275C229.835 573.865 229.4 574.326 228.837 574.657C228.277 574.985 227.611 575.149 226.838 575.149ZM226.848 573.509C227.2 573.509 227.493 573.409 227.728 573.21C227.964 573.008 228.141 572.733 228.26 572.385C228.383 572.037 228.444 571.641 228.444 571.197C228.444 570.753 228.383 570.357 228.26 570.009C228.141 569.661 227.964 569.385 227.728 569.183C227.493 568.981 227.2 568.88 226.848 568.88C226.494 568.88 226.195 568.981 225.953 569.183C225.715 569.385 225.534 569.661 225.412 570.009C225.292 570.357 225.233 570.753 225.233 571.197C225.233 571.641 225.292 572.037 225.412 572.385C225.534 572.733 225.715 573.008 225.953 573.21C226.195 573.409 226.494 573.509 226.848 573.509ZM235.424 575.149C234.642 575.149 233.969 574.983 233.406 574.652C232.846 574.317 232.415 573.853 232.113 573.26C231.815 572.667 231.666 571.984 231.666 571.212C231.666 570.429 231.817 569.743 232.118 569.153C232.423 568.56 232.856 568.098 233.416 567.766C233.976 567.432 234.642 567.264 235.414 567.264C236.081 567.264 236.664 567.385 237.164 567.627C237.665 567.869 238.061 568.209 238.353 568.646C238.644 569.084 238.805 569.598 238.835 570.188H236.836C236.78 569.806 236.631 569.5 236.389 569.268C236.15 569.032 235.837 568.915 235.449 568.915C235.121 568.915 234.834 569.004 234.589 569.183C234.347 569.359 234.158 569.616 234.022 569.954C233.886 570.292 233.819 570.701 233.819 571.182C233.819 571.669 233.885 572.083 234.017 572.425C234.153 572.766 234.344 573.026 234.589 573.205C234.834 573.384 235.121 573.474 235.449 573.474C235.691 573.474 235.908 573.424 236.1 573.325C236.296 573.225 236.457 573.081 236.583 572.892C236.712 572.7 236.797 572.469 236.836 572.201H238.835C238.802 572.784 238.643 573.298 238.358 573.742C238.076 574.183 237.686 574.528 237.189 574.776C236.692 575.025 236.104 575.149 235.424 575.149ZM240.191 575V567.364H242.309V575H240.191ZM241.255 566.379C240.94 566.379 240.67 566.275 240.444 566.066C240.222 565.854 240.111 565.6 240.111 565.305C240.111 565.014 240.222 564.763 240.444 564.555C240.67 564.343 240.94 564.237 241.255 564.237C241.57 564.237 241.838 564.343 242.06 564.555C242.286 564.763 242.398 565.014 242.398 565.305C242.398 565.6 242.286 565.854 242.06 566.066C241.838 566.275 241.57 566.379 241.255 566.379ZM246.183 575.144C245.696 575.144 245.261 575.06 244.88 574.891C244.499 574.718 244.198 574.465 243.975 574.13C243.757 573.792 243.647 573.371 243.647 572.867C243.647 572.443 243.725 572.087 243.881 571.798C244.037 571.51 244.249 571.278 244.517 571.102C244.786 570.927 245.091 570.794 245.432 570.705C245.777 570.615 246.138 570.552 246.516 570.516C246.96 570.469 247.318 570.426 247.59 570.386C247.862 570.343 248.059 570.28 248.181 570.197C248.304 570.115 248.365 569.992 248.365 569.83V569.8C248.365 569.485 248.266 569.241 248.067 569.069C247.872 568.897 247.593 568.81 247.232 568.81C246.851 568.81 246.547 568.895 246.322 569.064C246.097 569.23 245.948 569.438 245.875 569.69L243.916 569.531C244.015 569.067 244.211 568.666 244.502 568.328C244.794 567.987 245.17 567.725 245.631 567.543C246.095 567.357 246.632 567.264 247.242 567.264C247.666 567.264 248.072 567.314 248.46 567.413C248.851 567.513 249.197 567.667 249.499 567.876C249.804 568.085 250.044 568.353 250.22 568.681C250.395 569.006 250.483 569.395 250.483 569.849V575H248.475V573.941H248.415C248.292 574.18 248.128 574.39 247.923 574.572C247.717 574.751 247.471 574.892 247.182 574.995C246.894 575.094 246.561 575.144 246.183 575.144ZM246.789 573.683C247.101 573.683 247.376 573.621 247.615 573.499C247.853 573.373 248.041 573.204 248.176 572.991C248.312 572.779 248.38 572.539 248.38 572.271V571.46C248.314 571.503 248.223 571.543 248.107 571.58C247.994 571.613 247.867 571.644 247.724 571.674C247.582 571.701 247.439 571.725 247.297 571.749C247.154 571.768 247.025 571.787 246.909 571.803C246.66 571.84 246.443 571.898 246.257 571.977C246.072 572.057 245.928 572.165 245.825 572.3C245.722 572.433 245.671 572.599 245.671 572.798C245.671 573.086 245.775 573.306 245.984 573.459C246.196 573.608 246.465 573.683 246.789 573.683ZM254.244 564.818V575H252.126V564.818H254.244ZM259.181 575V567.364H261.2V568.711H261.289C261.448 568.263 261.713 567.911 262.085 567.652C262.456 567.393 262.9 567.264 263.417 567.264C263.941 567.264 264.386 567.395 264.754 567.657C265.122 567.915 265.367 568.267 265.49 568.711H265.57C265.725 568.273 266.007 567.924 266.415 567.662C266.826 567.397 267.311 567.264 267.871 567.264C268.584 567.264 269.162 567.491 269.607 567.945C270.054 568.396 270.278 569.036 270.278 569.864V575H268.165V570.282C268.165 569.858 268.052 569.54 267.827 569.327C267.601 569.115 267.32 569.009 266.982 569.009C266.597 569.009 266.297 569.132 266.082 569.377C265.866 569.619 265.759 569.939 265.759 570.337V575H263.705V570.237C263.705 569.863 263.598 569.564 263.382 569.342C263.17 569.12 262.89 569.009 262.542 569.009C262.307 569.009 262.094 569.069 261.906 569.188C261.72 569.304 261.572 569.468 261.463 569.68C261.354 569.889 261.299 570.134 261.299 570.416V575H259.181ZM275.431 575.149C274.645 575.149 273.969 574.99 273.402 574.672C272.839 574.35 272.405 573.896 272.1 573.31C271.795 572.72 271.642 572.022 271.642 571.217C271.642 570.431 271.795 569.742 272.1 569.148C272.405 568.555 272.834 568.093 273.387 567.761C273.944 567.43 274.597 567.264 275.346 567.264C275.85 567.264 276.319 567.345 276.753 567.508C277.191 567.667 277.572 567.907 277.897 568.229C278.225 568.55 278.48 568.955 278.662 569.442C278.845 569.926 278.936 570.492 278.936 571.142V571.724H272.488V570.411H276.942C276.942 570.106 276.876 569.836 276.743 569.601C276.611 569.366 276.427 569.182 276.191 569.049C275.959 568.913 275.689 568.845 275.381 568.845C275.06 568.845 274.775 568.92 274.526 569.069C274.281 569.215 274.088 569.412 273.949 569.661C273.81 569.906 273.739 570.179 273.735 570.481V571.729C273.735 572.107 273.805 572.433 273.944 572.708C274.087 572.983 274.287 573.195 274.546 573.344C274.804 573.494 275.111 573.568 275.466 573.568C275.701 573.568 275.916 573.535 276.112 573.469C276.307 573.402 276.475 573.303 276.614 573.17C276.753 573.038 276.859 572.875 276.932 572.683L278.891 572.812C278.792 573.283 278.588 573.694 278.279 574.045C277.975 574.393 277.58 574.665 277.096 574.861C276.616 575.053 276.06 575.149 275.431 575.149ZM283.132 575.124C282.552 575.124 282.026 574.975 281.556 574.677C281.088 574.375 280.717 573.933 280.442 573.349C280.17 572.763 280.034 572.044 280.034 571.192C280.034 570.317 280.175 569.589 280.457 569.009C280.739 568.426 281.113 567.99 281.581 567.702C282.051 567.41 282.567 567.264 283.127 567.264C283.554 567.264 283.911 567.337 284.196 567.483C284.484 567.625 284.716 567.804 284.892 568.02C285.071 568.232 285.207 568.441 285.299 568.646H285.364V564.818H287.477V575H285.389V573.777H285.299C285.2 573.989 285.059 574.2 284.877 574.408C284.698 574.614 284.464 574.785 284.176 574.92C283.891 575.056 283.543 575.124 283.132 575.124ZM283.803 573.439C284.144 573.439 284.433 573.346 284.668 573.161C284.907 572.972 285.089 572.708 285.215 572.37C285.344 572.032 285.409 571.636 285.409 571.182C285.409 570.728 285.346 570.333 285.22 569.999C285.094 569.664 284.912 569.405 284.673 569.223C284.434 569.041 284.144 568.95 283.803 568.95C283.455 568.95 283.162 569.044 282.923 569.233C282.684 569.422 282.504 569.684 282.381 570.018C282.258 570.353 282.197 570.741 282.197 571.182C282.197 571.626 282.258 572.019 282.381 572.36C282.507 572.698 282.688 572.963 282.923 573.156C283.162 573.344 283.455 573.439 283.803 573.439ZM289.218 575V567.364H291.336V575H289.218ZM290.282 566.379C289.967 566.379 289.697 566.275 289.472 566.066C289.25 565.854 289.139 565.6 289.139 565.305C289.139 565.014 289.25 564.763 289.472 564.555C289.697 564.343 289.967 564.237 290.282 564.237C290.597 564.237 290.865 564.343 291.088 564.555C291.313 564.763 291.426 565.014 291.426 565.305C291.426 565.6 291.313 565.854 291.088 566.066C290.865 566.275 290.597 566.379 290.282 566.379ZM295.21 575.144C294.723 575.144 294.289 575.06 293.908 574.891C293.527 574.718 293.225 574.465 293.003 574.13C292.784 573.792 292.675 573.371 292.675 572.867C292.675 572.443 292.753 572.087 292.908 571.798C293.064 571.51 293.276 571.278 293.545 571.102C293.813 570.927 294.118 570.794 294.46 570.705C294.804 570.615 295.165 570.552 295.543 570.516C295.987 570.469 296.345 570.426 296.617 570.386C296.889 570.343 297.086 570.28 297.209 570.197C297.331 570.115 297.393 569.992 297.393 569.83V569.8C297.393 569.485 297.293 569.241 297.094 569.069C296.899 568.897 296.621 568.81 296.259 568.81C295.878 568.81 295.575 568.895 295.349 569.064C295.124 569.23 294.975 569.438 294.902 569.69L292.943 569.531C293.043 569.067 293.238 568.666 293.53 568.328C293.821 567.987 294.198 567.725 294.658 567.543C295.122 567.357 295.659 567.264 296.269 567.264C296.693 567.264 297.099 567.314 297.487 567.413C297.878 567.513 298.225 567.667 298.526 567.876C298.831 568.085 299.071 568.353 299.247 568.681C299.423 569.006 299.511 569.395 299.511 569.849V575H297.502V573.941H297.442C297.32 574.18 297.156 574.39 296.95 574.572C296.745 574.751 296.498 574.892 296.21 574.995C295.921 575.094 295.588 575.144 295.21 575.144ZM295.817 573.683C296.128 573.683 296.403 573.621 296.642 573.499C296.881 573.373 297.068 573.204 297.204 572.991C297.34 572.779 297.408 572.539 297.408 572.271V571.46C297.341 571.503 297.25 571.543 297.134 571.58C297.022 571.613 296.894 571.644 296.751 571.674C296.609 571.701 296.466 571.725 296.324 571.749C296.181 571.768 296.052 571.787 295.936 571.803C295.688 571.84 295.47 571.898 295.285 571.977C295.099 572.057 294.955 572.165 294.852 572.3C294.75 572.433 294.698 572.599 294.698 572.798C294.698 573.086 294.803 573.306 295.011 573.459C295.223 573.608 295.492 573.683 295.817 573.683Z" fill="black"/>
<rect x="332.36" y="515" width="13.2379" height="13.2379" transform="rotate(45 332.36 515)" fill="white"/>
</g>
<defs>
<filter id="filter0_d_2144_2013" x="471" y="414.639" width="254" height="112.361" filterUnits="userSpaceOnUse" color-interpolation-filters="sRGB">
<feFlood flood-opacity="0" result="BackgroundImageFix"/>
<feColorMatrix in="SourceAlpha" type="matrix" values="0 0 0 0 0 0 0 0 0 0 0 0 0 0 0 0 0 0 127 0" result="hardAlpha"/>
<feOffset dy="14"/>
<feGaussianBlur stdDeviation="9"/>
<feComposite in2="hardAlpha" operator="out"/>
<feColorMatrix type="matrix" values="0 0 0 0 0 0 0 0 0 0 0 0 0 0 0 0 0 0 0.14 0"/>
<feBlend mode="normal" in2="BackgroundImageFix" result="effect1_dropShadow_2144_2013"/>
<feBlend mode="normal" in="SourceGraphic" in2="effect1_dropShadow_2144_2013" result="shape"/>
</filter>
<filter id="filter1_d_2144_2013" x="378" y="32" width="251" height="112.36" filterUnits="userSpaceOnUse" color-interpolation-filters="sRGB">
<feFlood flood-opacity="0" result="BackgroundImageFix"/>
<feColorMatrix in="SourceAlpha" type="matrix" values="0 0 0 0 0 0 0 0 0 0 0 0 0 0 0 0 0 0 127 0" result="hardAlpha"/>
<feOffset dy="14"/>
<feGaussianBlur stdDeviation="9"/>
<feComposite in2="hardAlpha" operator="out"/>
<feColorMatrix type="matrix" values="0 0 0 0 0 0 0 0 0 0 0 0 0 0 0 0 0 0 0.14 0"/>
<feBlend mode="normal" in2="BackgroundImageFix" result="effect1_dropShadow_2144_2013"/>
<feBlend mode="normal" in="SourceGraphic" in2="effect1_dropShadow_2144_2013" result="shape"/>
</filter>
<filter id="filter2_d_2144_2013" x="110" y="511" width="274" height="113" filterUnits="userSpaceOnUse" color-interpolation-filters="sRGB">
<feFlood flood-opacity="0" result="BackgroundImageFix"/>
<feColorMatrix in="SourceAlpha" type="matrix" values="0 0 0 0 0 0 0 0 0 0 0 0 0 0 0 0 0 0 127 0" result="hardAlpha"/>
<feOffset dy="14"/>
<feGaussianBlur stdDeviation="9"/>
<feComposite in2="hardAlpha" operator="out"/>
<feColorMatrix type="matrix" values="0 0 0 0 0 0 0 0 0 0 0 0 0 0 0 0 0 0 0.14 0"/>
<feBlend mode="normal" in2="BackgroundImageFix" result="effect1_dropShadow_2144_2013"/>
<feBlend mode="normal" in="SourceGraphic" in2="effect1_dropShadow_2144_2013" result="shape"/>
</filter>
<clipPath id="clip0_2144_2013">
<rect width="28" height="28" fill="white" transform="matrix(-1 0 0 1 535 447)"/>
</clipPath>
<clipPath id="clip1_2144_2013">
<rect width="28" height="28" fill="white" transform="translate(146 544)"/>
</clipPath>
</defs>
</svg>
