<svg xmlns="http://www.w3.org/2000/svg" width="135" height="24" viewBox="0 0 135 24" fill="none">
  <g clip-path="url(#clip0_2123_48518)">
    <path d="M20.0112 0.25H2.71154C1.21115 0.25 0 1.46115 0 2.96154V20.2612C0 21.7615 1.21115 22.9727 2.71154 22.9727H20.0112C21.5115 22.9727 22.7227 21.7615 22.7227 20.2612V2.96154C22.7227 1.46115 21.5115 0.25 20.0112 0.25ZM17.1731 11.8102C16.9923 12.3344 16.685 13.1117 16.2331 13.8438C15.754 14.6302 15.2208 15.1725 14.6604 15.4437C14.3712 15.5883 14.0729 15.6606 13.7746 15.6606C13.6571 15.6606 13.5396 15.6515 13.4312 15.6244C13.0154 15.5431 12.6177 15.3352 12.2562 14.9827C11.6235 14.3681 11.0812 13.3287 10.584 11.7921C10.0869 10.2465 9.635 9.59577 9.34577 9.31558C9.20115 9.18 9.11077 9.14385 9.06558 9.13481C9.03846 9.13481 8.99327 9.13481 8.90289 9.17096C8.64981 9.28846 8.33346 9.63192 8.02615 10.12C7.72789 10.59 7.43865 11.1865 7.21269 11.8192C7.05 12.2712 6.55288 12.5062 6.09192 12.3435C5.86596 12.2621 5.68519 12.1085 5.58577 11.8915C5.48635 11.6837 5.47731 11.4487 5.54962 11.2317C5.73942 10.7075 6.06481 9.93019 6.52577 9.19808C7.02288 8.41173 7.56519 7.87846 8.13462 7.60731C8.54135 7.4175 8.95712 7.35423 9.37288 7.42654C9.79769 7.49885 10.1954 7.71577 10.5569 8.05923C11.1987 8.67385 11.75 9.72231 12.2471 11.2588C12.7442 12.8044 13.1871 13.4642 13.4763 13.7354C13.621 13.88 13.7113 13.9071 13.7385 13.9071C13.7565 13.9071 13.7927 13.9162 13.874 13.871C14.1181 13.7535 14.4254 13.41 14.7146 12.931C15.0038 12.461 15.275 11.8554 15.4919 11.2317C15.6456 10.7798 16.1427 10.5358 16.6037 10.6894C16.8296 10.7617 17.0104 10.9244 17.1188 11.1323C17.2183 11.3402 17.2363 11.5752 17.164 11.7921L17.1731 11.8102Z" fill="white"/>
    <path d="M41.2334 11.9094C41.5949 11.3309 41.7757 10.6259 41.7757 9.8034C41.7757 8.9809 41.5949 8.28493 41.2424 7.68839C40.8899 7.09186 40.3837 6.6309 39.733 6.31455C39.0822 5.98916 38.3139 5.83551 37.4191 5.83551H32.4932V17.7482H35.3764V13.6719H36.8497L39.028 17.7482H42.1734L39.7059 13.2109C40.3657 12.9126 40.8718 12.4698 41.2243 11.9003L41.2334 11.9094ZM35.3855 8.1584H36.8045C37.2384 8.1584 37.5999 8.22166 37.8891 8.3482C38.1874 8.4657 38.4043 8.64647 38.558 8.89051C38.7116 9.13455 38.7839 9.43283 38.7839 9.8034C38.7839 10.174 38.7116 10.4723 38.558 10.7073C38.4043 10.9423 38.1874 11.114 37.8891 11.2315C37.5999 11.3399 37.2384 11.4032 36.8045 11.4032H35.3855V8.1584Z" fill="white"/>
    <path d="M48.3823 5.83551H45.499V17.7482H48.3823V5.83551Z" fill="white"/>
    <path d="M57.7923 14.5576H57.6929L55.0265 5.83551H51.7998L55.8219 17.7482H59.6542L63.6763 5.83551H60.4496L57.7923 14.5576Z" fill="white"/>
    <path d="M67.0928 17.7482H75.4082V15.4073H69.976V12.9578H74.9833V10.6169H69.976V8.17647H75.4082V5.83551H67.0928V17.7482Z" fill="white"/>
    <path d="M88.0713 11.9094C88.4328 11.3309 88.6136 10.6259 88.6136 9.8034C88.6136 8.9809 88.4328 8.28493 88.0803 7.68839C87.7278 7.09186 87.2216 6.6309 86.5709 6.31455C85.9201 5.98916 85.1518 5.83551 84.257 5.83551H79.3311V17.7482H82.2143V13.6719H83.6876L85.8659 17.7482H89.0113L86.5438 13.2109C87.2036 12.9126 87.7097 12.4698 88.0622 11.9003L88.0713 11.9094ZM82.2234 8.1584H83.6424C84.0763 8.1584 84.4378 8.22166 84.727 8.3482C85.0253 8.4657 85.2422 8.64647 85.3959 8.89051C85.5495 9.13455 85.6218 9.43283 85.6218 9.8034C85.6218 10.174 85.5495 10.4723 85.3959 10.7073C85.2422 10.9423 85.0253 11.114 84.727 11.2315C84.4378 11.3399 84.0763 11.4032 83.6424 11.4032H82.2234V8.1584Z" fill="white"/>
    <path d="M100.743 11.9821C100.435 11.6838 100.056 11.4308 99.6038 11.2229C99.1519 11.0059 98.6367 10.8433 98.0492 10.7077L97.0278 10.4727C96.7567 10.4184 96.5126 10.3461 96.2957 10.2648C96.0788 10.1834 95.889 10.1021 95.7353 9.99364C95.5817 9.88518 95.4642 9.76768 95.3828 9.6321C95.3015 9.49653 95.2744 9.34287 95.2744 9.16213C95.2744 8.94521 95.3467 8.7554 95.4642 8.58367C95.5907 8.41194 95.7715 8.27636 96.0246 8.18598C96.2776 8.08655 96.585 8.04136 96.9555 8.04136C97.5159 8.04136 97.9498 8.15887 98.2571 8.40291C98.5644 8.63791 98.7361 8.97232 98.7723 9.3971H101.529C101.529 8.65598 101.33 8.00521 100.951 7.44482C100.571 6.88444 100.047 6.45059 99.3598 6.13425C98.6819 5.8179 97.8775 5.66425 96.9555 5.66425C96.0336 5.66425 95.2473 5.8179 94.5423 6.12521C93.8373 6.43251 93.2859 6.86636 92.8792 7.42675C92.4815 7.97809 92.2826 8.62886 92.2826 9.36095C92.2826 10.2648 92.5719 10.9788 93.1684 11.5121C93.765 12.0363 94.5694 12.425 95.6088 12.66L96.8561 12.9492C97.29 13.0486 97.6515 13.1571 97.9226 13.2836C98.2028 13.4011 98.4107 13.5367 98.5553 13.6994C98.6909 13.8621 98.7632 14.0519 98.7632 14.2779C98.7632 14.5219 98.6819 14.7298 98.5373 14.9196C98.3926 15.1094 98.1757 15.254 97.9046 15.3534C97.6334 15.4619 97.308 15.5071 96.9194 15.5071C96.4946 15.5071 96.124 15.4438 95.7986 15.3083C95.4823 15.1727 95.2292 14.9829 95.0484 14.7298C94.8677 14.4767 94.7592 14.1513 94.7411 13.7717H91.9844C91.9934 14.7027 92.2103 15.4709 92.6171 16.0856C93.0328 16.6911 93.6023 17.1521 94.3434 17.4504C95.0846 17.7486 95.9523 17.9023 96.9465 17.9023C97.9407 17.9023 98.7903 17.7577 99.4863 17.4684C100.191 17.1792 100.734 16.7725 101.113 16.2302C101.493 15.6879 101.683 15.0461 101.683 14.2959C101.683 13.8169 101.601 13.3921 101.439 13.0034C101.276 12.6238 101.05 12.2804 100.734 11.9821H100.743Z" fill="white"/>
    <path d="M108.164 5.83551H105.28V17.7482H108.164V5.83551Z" fill="white"/>
    <path d="M119.643 6.54955C118.766 6.07051 117.717 5.83551 116.506 5.83551H112.104V17.7482H116.506C117.717 17.7482 118.757 17.5132 119.643 17.0342C120.519 16.5551 121.197 15.8682 121.676 14.9824C122.155 14.0876 122.39 13.0211 122.39 11.7828C122.39 10.5446 122.155 9.48706 121.676 8.59224C121.197 7.69743 120.519 7.01955 119.643 6.54051V6.54955ZM119.145 13.8436C118.91 14.3588 118.558 14.7294 118.097 14.9553C117.636 15.1813 117.067 15.2898 116.407 15.2898H114.997V8.28493H116.371C117.058 8.28493 117.627 8.40243 118.097 8.62839C118.567 8.85436 118.919 9.22493 119.164 9.7311C119.408 10.2373 119.525 10.9242 119.525 11.7828C119.525 12.6415 119.408 13.3284 119.164 13.8436H119.145Z" fill="white"/>
    <path d="M126.213 17.7482H134.519V15.4073H129.096V12.9578H134.094V10.6169H129.096V8.17647H134.519V5.83551H126.213V17.7482Z" fill="white"/>
  </g>
  <defs>
    <clipPath id="clip0_2123_48518">
      <rect width="134.673" height="23.5" fill="white" transform="translate(0 0.25)"/>
    </clipPath>
  </defs>
</svg>