<svg width="20" height="20" viewBox="0 0 20 20" fill="none" xmlns="http://www.w3.org/2000/svg">
<rect width="20" height="20" fill="#1E1E1E"/>
<g id="Hypothesis #2">
<path d="M-7360 -3880C-7360 -3902.09 -7342.09 -3920 -7320 -3920H5911C5933.09 -3920 5951 -3902.09 5951 -3880V3068C5951 3090.09 5933.09 3108 5911 3108H-7320C-7342.09 3108 -7360 3090.09 -7360 3068V-3880Z" fill="#EBEBEB"/>
<g id="Desktop - 27" clip-path="url(#clip0_0_1)">
<rect width="1440" height="796" transform="translate(-429 -268)" fill="#1D1D1D"/>
<g id="Frame 36205">
<rect width="725" height="290" transform="translate(-314 -172)" fill="#1D1D1D"/>
<g id="Frame 36201">
<g id="Frame 36199">
<g id="Link">
<g id="reload (1) 1" clip-path="url(#clip1_0_1)">
<g id="g1941">
<g id="g1943">
<g id="Clip path group">
<mask id="mask0_0_1" style="mask-type:luminance" maskUnits="userSpaceOnUse" x="0" y="0" width="20" height="20">
<g id="clipPath1949">
<path id="path1947" d="M0 1.90735e-06H20V20H0V1.90735e-06Z" fill="white"/>
</g>
</mask>
<g mask="url(#mask0_0_1)">
<g id="g1945">
<g id="g1951">
<path id="path1953" d="M20 2.1875H14.5312V7.65625" stroke="white" stroke-width="1.4" stroke-miterlimit="10"/>
</g>
<g id="g1955">
<path id="path1957" d="M14.5313 2.1875C17.3307 3.80914 19.2188 6.53195 19.2188 10C19.2188 15.1777 15.1777 19.2188 10 19.2188C6.06833 19.2188 2.79203 16.8886 1.44287 13.5" stroke="white" stroke-width="1.4" stroke-miterlimit="10"/>
</g>
<g id="g1959">
<path id="path1961" d="M0.78125 10C0.78125 5.87773 3.34275 2.47595 7 1.26038" stroke="white" stroke-width="1.4" stroke-miterlimit="10" stroke-dasharray="106.67 53.33"/>
</g>
</g>
</g>
</g>
</g>
</g>
</g>
</g>
</g>
</g>
</g>
</g>
</g>
<defs>
<clipPath id="clip0_0_1">
<rect width="1440" height="796" fill="white" transform="translate(-429 -268)"/>
</clipPath>
<clipPath id="clip1_0_1">
<rect width="20" height="20" fill="white"/>
</clipPath>
</defs>
</svg>
