<svg width="18" height="18" viewBox="0 0 18 18" fill="none" xmlns="http://www.w3.org/2000/svg">
<g clip-path="url(#clip0_2266_3893)">
<path d="M9 0C7.21997 0 5.47991 0.527841 3.99987 1.51677C2.51983 2.50571 1.36628 3.91131 0.685088 5.55585C0.00389957 7.20038 -0.17433 9.00998 0.172937 10.7558C0.520204 12.5016 1.37737 14.1053 2.63604 15.364C3.89472 16.6226 5.49836 17.4798 7.24419 17.8271C8.99002 18.1743 10.7996 17.9961 12.4442 17.3149C14.0887 16.6337 15.4943 15.4802 16.4832 14.0001C17.4722 12.5201 18 10.78 18 9C18 6.61305 17.0518 4.32387 15.364 2.63604C13.6761 0.948212 11.387 0 9 0ZM14.115 6.82875L8.4675 13.2338C8.37637 13.3364 8.26585 13.4201 8.14229 13.4799C8.01873 13.5398 7.88457 13.5746 7.7475 13.5825H7.68C7.4242 13.5841 7.17694 13.4905 6.98625 13.32L3.96375 10.6388C3.75589 10.4543 3.62983 10.1948 3.6133 9.91731C3.59678 9.63988 3.69114 9.36724 3.87563 9.15938C4.06012 8.95151 4.31963 8.82545 4.59706 8.80892C4.8745 8.7924 5.14714 8.88676 5.355 9.07125L7.605 11.055L12.5588 5.43C12.7427 5.22164 13.002 5.0949 13.2794 5.07767C13.5569 5.06044 13.8298 5.15413 14.0381 5.33813C14.2465 5.52212 14.3732 5.78135 14.3905 6.05879C14.4077 6.33622 14.314 6.60914 14.13 6.8175L14.115 6.82875Z" fill="#B26E22"/>
</g>
<defs>
<clipPath id="clip0_2266_3893">
<rect width="18" height="18" fill="white"/>
</clipPath>
</defs>
</svg>
