<svg width="32" height="77" viewBox="0 0 32 77" fill="none" xmlns="http://www.w3.org/2000/svg">
<path d="M23.9012 35.8622C24.5916 36.3626 25.2083 36.9895 25.7277 37.7187C26.1476 38.3824 26.495 39.1043 26.762 39.8681C26.8533 39.0226 27.0024 38.187 27.2087 37.3694C27.4215 36.3116 27.7688 35.2971 28.2407 34.3603C28.7663 33.289 29.4717 32.3517 30.314 31.6038C30.776 31.2067 31.2925 30.9034 31.8411 30.7064C31.8774 30.9482 31.9376 31.3513 31.9855 31.8724C32.0144 32.4997 31.9995 33.1286 31.9418 33.7531C31.8089 35.1744 31.5548 36.8186 30.6589 38.2561C29.3438 40.4591 27.7589 40.9562 26.9738 41.1362C26.9627 41.5863 26.9921 42.0365 27.0618 42.4796C26.1401 42.399 24.3135 41.91 22.3995 40.3113C21.8448 39.847 21.3344 39.3146 20.877 38.7235C20.4598 38.2609 20.0784 37.7566 19.7368 37.2163C19.4832 36.8119 19.2568 36.3853 19.0596 35.9401C18.8615 35.5881 18.7303 35.3087 18.6543 35.1341C19.2915 34.9228 19.9497 34.8108 20.6121 34.801C21.141 34.7945 21.6687 34.8586 22.1853 34.9917C22.7922 35.1774 23.3709 35.471 23.9012 35.8622Z" fill="url(#paint0_linear_2828_18456)"/>
<path d="M23.9012 35.8622C24.5916 36.3626 25.2083 36.9895 25.7277 37.7187C26.1476 38.3824 26.495 39.1043 26.762 39.8681C26.8533 39.0226 27.0024 38.187 27.2087 37.3694C27.4215 36.3116 27.7688 35.2971 28.2407 34.3603C28.7663 33.289 29.4717 32.3517 30.314 31.6038C30.776 31.2067 31.2925 30.9034 31.8411 30.7064C31.8774 30.9482 31.9376 31.3513 31.9855 31.8724C32.0144 32.4997 31.9995 33.1286 31.9418 33.7531C31.8089 35.1744 31.5548 36.8186 30.6589 38.2561C29.3438 40.4591 27.7589 40.9562 26.9738 41.1362C26.9627 41.5863 26.9921 42.0365 27.0618 42.4796C26.1401 42.399 24.3135 41.91 22.3995 40.3113C21.8448 39.847 21.3344 39.3146 20.877 38.7235C20.4598 38.2609 20.0784 37.7566 19.7368 37.2163C19.4832 36.8119 19.2568 36.3853 19.0596 35.9401C18.8615 35.5881 18.7303 35.3087 18.6543 35.1341C19.2915 34.9228 19.9497 34.8108 20.6121 34.801C21.141 34.7945 21.6687 34.8586 22.1853 34.9917C22.7922 35.1774 23.3709 35.471 23.9012 35.8622Z" fill="white" fill-opacity="0.2"/>
<path d="M21.4021 27.3506C22.1528 27.6055 22.8511 28.0361 23.4544 28.6161C24.0013 29.1123 24.4975 29.6802 24.9331 30.3087C24.8158 29.5021 24.7642 28.6844 24.7788 27.8665C24.8158 26.8154 24.9471 25.7718 25.1704 24.7526C25.8085 21.9423 27.3399 20.6393 27.8217 20.333C28.1385 21.2445 28.3777 22.1903 28.5353 23.1567C28.7605 24.6904 28.6558 26.2651 28.2317 27.7402C27.9438 28.749 27.438 29.6547 26.7643 30.3705C26.343 30.8251 25.8635 31.2003 25.3432 31.4828C25.4043 31.9176 25.5297 32.3367 25.714 32.7214C24.0893 32.9987 22.4305 32.74 20.9254 31.9745C19.7688 31.4782 18.7 30.7389 17.7721 29.7928C17.2236 29.3156 16.7304 28.7576 16.3049 28.1325C17.0646 27.6056 17.9083 27.2645 18.7846 27.1302C19.6609 26.9958 20.5515 27.0708 21.4021 27.3506Z" fill="url(#paint1_linear_2828_18456)"/>
<path d="M21.4021 27.3506C22.1528 27.6055 22.8511 28.0361 23.4544 28.6161C24.0013 29.1123 24.4975 29.6802 24.9331 30.3087C24.8158 29.5021 24.7642 28.6844 24.7788 27.8665C24.8158 26.8154 24.9471 25.7718 25.1704 24.7526C25.8085 21.9423 27.3399 20.6393 27.8217 20.333C28.1385 21.2445 28.3777 22.1903 28.5353 23.1567C28.7605 24.6904 28.6558 26.2651 28.2317 27.7402C27.9438 28.749 27.438 29.6547 26.7643 30.3705C26.343 30.8251 25.8635 31.2003 25.3432 31.4828C25.4043 31.9176 25.5297 32.3367 25.714 32.7214C24.0893 32.9987 22.4305 32.74 20.9254 31.9745C19.7688 31.4782 18.7 30.7389 17.7721 29.7928C17.2236 29.3156 16.7304 28.7576 16.3049 28.1325C17.0646 27.6056 17.9083 27.2645 18.7846 27.1302C19.6609 26.9958 20.5515 27.0708 21.4021 27.3506Z" fill="white" fill-opacity="0.2"/>
<path d="M17.1688 19.8013C17.9302 19.8643 18.6782 20.0684 19.3846 20.4058C19.995 20.7134 20.5632 21.1244 21.0706 21.6256C20.8338 20.8767 20.6346 20.1124 20.4741 19.3365C20.2539 18.3524 20.1615 17.3354 20.2 16.3193C20.2289 15.1646 20.4601 14.029 20.8795 12.9825C21.1115 12.4174 21.4229 11.9016 21.8008 11.4564C22.3144 12.1093 23.9429 15.0593 23.6688 18.2725C23.4154 20.7739 22.3006 22.034 21.7248 22.5713C21.8971 22.9529 22.1058 23.3107 22.3467 23.6379C20.8608 24.3477 19.2388 24.5788 17.6502 24.3069C17.0086 24.1913 16.3767 24.0115 15.7615 23.7695C15.2367 23.596 14.7263 23.3676 14.2367 23.0872C13.8013 22.8426 13.4674 22.5686 13.1725 22.3671C12.8777 22.1656 12.6543 21.9991 12.5276 21.8969C12.9778 21.3951 13.4837 20.9658 14.0317 20.6207C14.9883 20.0019 16.0773 19.7174 17.1688 19.8013Z" fill="url(#paint2_linear_2828_18456)"/>
<path d="M17.1688 19.8013C17.9302 19.8643 18.6782 20.0684 19.3846 20.4058C19.995 20.7134 20.5632 21.1244 21.0706 21.6256C20.8338 20.8767 20.6346 20.1124 20.4741 19.3365C20.2539 18.3524 20.1615 17.3354 20.2 16.3193C20.2289 15.1646 20.4601 14.029 20.8795 12.9825C21.1115 12.4174 21.4229 11.9016 21.8008 11.4564C22.3144 12.1093 23.9429 15.0593 23.6688 18.2725C23.4154 20.7739 22.3006 22.034 21.7248 22.5713C21.8971 22.9529 22.1058 23.3107 22.3467 23.6379C20.8608 24.3477 19.2388 24.5788 17.6502 24.3069C17.0086 24.1913 16.3767 24.0115 15.7615 23.7695C15.2367 23.596 14.7263 23.3676 14.2367 23.0872C13.8013 22.8426 13.4674 22.5686 13.1725 22.3671C12.8777 22.1656 12.6543 21.9991 12.5276 21.8969C12.9778 21.3951 13.4837 20.9658 14.0317 20.6207C14.9883 20.0019 16.0773 19.7174 17.1688 19.8013Z" fill="white" fill-opacity="0.2"/>
<path d="M11.498 13.6487C11.8767 13.5551 12.2624 13.5047 12.6496 13.4983C13.002 13.5094 13.3532 13.5525 13.6999 13.6272C14.3378 13.765 14.9611 13.983 15.5587 14.2774C15.149 13.6724 14.7939 13.0197 14.4992 12.3295C14.3255 11.9006 14.1718 11.4611 14.0385 11.0131C13.8738 10.544 13.7437 10.0596 13.6493 9.56491C13.1333 6.88897 13.9164 5.0298 14.1997 4.53809C14.7594 5.10504 16.9499 7.28663 17.2954 10.4488C17.4137 11.2445 17.3916 12.06 17.2305 12.8453C17.0693 13.6307 16.7724 14.3694 16.358 15.0163C16.5715 15.3465 16.8325 15.6311 17.1296 15.8572C15.8899 16.9298 14.4198 17.5808 12.8823 17.7379C11.4726 17.9689 10.3485 17.7379 9.42725 17.5337C8.78638 17.4085 8.16234 17.1863 7.5708 16.8727C8.00402 16.0532 8.57558 15.3447 9.25061 14.7906C9.92572 14.2363 10.6903 13.8479 11.498 13.6487Z" fill="url(#paint3_linear_2828_18456)"/>
<path d="M11.498 13.6487C11.8767 13.5551 12.2624 13.5047 12.6496 13.4983C13.002 13.5094 13.3532 13.5525 13.6999 13.6272C14.3378 13.765 14.9611 13.983 15.5587 14.2774C15.149 13.6724 14.7939 13.0197 14.4992 12.3295C14.3255 11.9006 14.1718 11.4611 14.0385 11.0131C13.8738 10.544 13.7437 10.0596 13.6493 9.56491C13.1333 6.88897 13.9164 5.0298 14.1997 4.53809C14.7594 5.10504 16.9499 7.28663 17.2954 10.4488C17.4137 11.2445 17.3916 12.06 17.2305 12.8453C17.0693 13.6307 16.7724 14.3694 16.358 15.0163C16.5715 15.3465 16.8325 15.6311 17.1296 15.8572C15.8899 16.9298 14.4198 17.5808 12.8823 17.7379C11.4726 17.9689 10.3485 17.7379 9.42725 17.5337C8.78638 17.4085 8.16234 17.1863 7.5708 16.8727C8.00402 16.0532 8.57558 15.3447 9.25061 14.7906C9.92572 14.2363 10.6903 13.8479 11.498 13.6487Z" fill="white" fill-opacity="0.2"/>
<path d="M4.70535 9.2772C5.35744 8.94274 6.05095 8.73145 6.75989 8.65117C7.08792 8.60745 7.41826 8.59392 7.74801 8.61091C8.05443 8.64581 8.3492 8.69952 8.62558 8.76404C8.4275 8.56521 8.21101 8.32876 7.98298 8.05477C7.75494 7.7807 7.49927 7.51744 7.25515 7.20575C6.70346 6.49928 6.24541 5.70058 5.89618 4.83605C5.41479 3.59481 5.20515 2.60879 5.20515 1.74098C5.18881 1.15172 5.25655 0.563371 5.40554 0C6.07818 0.268675 8.49433 1.89681 9.50316 4.63458C10.03 6.10121 10.0399 7.751 9.5308 9.22613C9.80808 9.46769 10.1201 9.64969 10.4522 9.76346C9.51058 11.1368 8.25779 12.1747 6.83596 12.7592C5.61518 13.232 4.42897 13.5275 3.53754 13.5222C2.64619 13.5168 1.946 13.4604 1.65576 13.412C1.8404 12.7667 2.09839 12.1531 2.42278 11.5877C2.97959 10.5798 3.77143 9.77823 4.70535 9.2772Z" fill="url(#paint4_linear_2828_18456)"/>
<path d="M4.70535 9.2772C5.35744 8.94274 6.05095 8.73145 6.75989 8.65117C7.08792 8.60745 7.41826 8.59392 7.74801 8.61091C8.05443 8.64581 8.3492 8.69952 8.62558 8.76404C8.4275 8.56521 8.21101 8.32876 7.98298 8.05477C7.75494 7.7807 7.49927 7.51744 7.25515 7.20575C6.70346 6.49928 6.24541 5.70058 5.89618 4.83605C5.41479 3.59481 5.20515 2.60879 5.20515 1.74098C5.18881 1.15172 5.25655 0.563371 5.40554 0C6.07818 0.268675 8.49433 1.89681 9.50316 4.63458C10.03 6.10121 10.0399 7.751 9.5308 9.22613C9.80808 9.46769 10.1201 9.64969 10.4522 9.76346C9.51058 11.1368 8.25779 12.1747 6.83596 12.7592C5.61518 13.232 4.42897 13.5275 3.53754 13.5222C2.64619 13.5168 1.946 13.4604 1.65576 13.412C1.8404 12.7667 2.09839 12.1531 2.42278 11.5877C2.97959 10.5798 3.77143 9.77823 4.70535 9.2772Z" fill="white" fill-opacity="0.2"/>
<path d="M15.7407 73.5172C14.8527 74.4369 13.9279 75.2981 12.9707 76.099V74.8871C13.5529 74.3806 14.1212 73.851 14.6743 73.2989C20.9809 67.0245 25.0565 58.2339 26.1058 48.643C26.651 43.8884 26.4165 39.0561 25.4148 34.4036C23.9067 27.4047 20.7601 21.0327 16.3267 15.9993C11.8931 10.966 6.34727 7.4694 0.308555 5.9003C0.204768 5.86664 0.115997 5.78793 0.0604732 5.68035C0.00486702 5.57268 -0.0132829 5.44439 0.00973511 5.32163C0.0326706 5.19895 0.0950402 5.09112 0.18406 5.02033C0.272996 4.94963 0.38182 4.92125 0.488165 4.94113C6.67893 6.55016 12.3644 10.1348 16.9096 15.2948C21.4549 20.4547 24.681 26.9868 26.2279 34.1617C27.2584 38.9331 27.5001 43.8896 26.9419 48.7666C25.8979 58.3257 21.9183 67.1191 15.7407 73.5172Z" fill="url(#paint5_linear_2828_18456)"/>
<path d="M15.7407 73.5172C14.8527 74.4369 13.9279 75.2981 12.9707 76.099V74.8871C13.5529 74.3806 14.1212 73.851 14.6743 73.2989C20.9809 67.0245 25.0565 58.2339 26.1058 48.643C26.651 43.8884 26.4165 39.0561 25.4148 34.4036C23.9067 27.4047 20.7601 21.0327 16.3267 15.9993C11.8931 10.966 6.34727 7.4694 0.308555 5.9003C0.204768 5.86664 0.115997 5.78793 0.0604732 5.68035C0.00486702 5.57268 -0.0132829 5.44439 0.00973511 5.32163C0.0326706 5.19895 0.0950402 5.09112 0.18406 5.02033C0.272996 4.94963 0.38182 4.92125 0.488165 4.94113C6.67893 6.55016 12.3644 10.1348 16.9096 15.2948C21.4549 20.4547 24.681 26.9868 26.2279 34.1617C27.2584 38.9331 27.5001 43.8896 26.9419 48.7666C25.8979 58.3257 21.9183 67.1191 15.7407 73.5172Z" fill="white" fill-opacity="0.2"/>
<defs>
<linearGradient id="paint0_linear_2828_18456" x1="25.3271" y1="30.7064" x2="25.3271" y2="42.4796" gradientUnits="userSpaceOnUse">
<stop stop-color="#EFBD59"/>
<stop offset="1" stop-color="#D2920F"/>
</linearGradient>
<linearGradient id="paint1_linear_2828_18456" x1="22.478" y1="20.333" x2="22.478" y2="32.8295" gradientUnits="userSpaceOnUse">
<stop stop-color="#EFBD59"/>
<stop offset="1" stop-color="#D2920F"/>
</linearGradient>
<linearGradient id="paint2_linear_2828_18456" x1="18.1136" y1="11.4564" x2="18.1136" y2="24.4176" gradientUnits="userSpaceOnUse">
<stop stop-color="#EFBD59"/>
<stop offset="1" stop-color="#D2920F"/>
</linearGradient>
<linearGradient id="paint3_linear_2828_18456" x1="12.4706" y1="4.53809" x2="12.4706" y2="17.8342" gradientUnits="userSpaceOnUse">
<stop stop-color="#EFBD59"/>
<stop offset="1" stop-color="#D2920F"/>
</linearGradient>
<linearGradient id="paint4_linear_2828_18456" x1="6.05397" y1="0" x2="6.05397" y2="13.5222" gradientUnits="userSpaceOnUse">
<stop stop-color="#EFBD59"/>
<stop offset="1" stop-color="#D2920F"/>
</linearGradient>
<linearGradient id="paint5_linear_2828_18456" x1="13.6173" y1="4.93494" x2="13.6173" y2="76.0989" gradientUnits="userSpaceOnUse">
<stop stop-color="#EFBD59"/>
<stop offset="1" stop-color="#D2920F"/>
</linearGradient>
</defs>
</svg>
