<svg width="32" height="77" viewBox="0 0 32 77" fill="none" xmlns="http://www.w3.org/2000/svg">
<path d="M8.09876 35.8622C7.40839 36.3626 6.79169 36.9895 6.27226 37.7187C5.85241 38.3824 5.50499 39.1043 5.23802 39.8681C5.14669 39.0226 4.9976 38.187 4.79135 37.3694C4.57849 36.3116 4.23116 35.2971 3.75925 34.3603C3.23372 33.289 2.52833 32.3517 1.68598 31.6038C1.22397 31.2067 0.707516 30.9034 0.158879 30.7064C0.122579 30.9482 0.062356 31.3513 0.0145054 31.8724C-0.0143709 32.4997 0.00047493 33.1286 0.0582256 33.7531C0.191053 35.1744 0.445159 36.8186 1.34113 38.2561C2.6562 40.4591 4.24107 40.9562 5.02615 41.1362C5.03729 41.5863 5.00791 42.0365 4.9382 42.4796C5.85991 42.399 7.6865 41.91 9.60054 40.3113C10.1552 39.847 10.6656 39.3146 11.123 38.7235C11.5402 38.2609 11.9216 37.7566 12.2632 37.2163C12.5168 36.8119 12.7432 36.3853 12.9404 35.9401C13.1385 35.5881 13.2697 35.3087 13.3457 35.1341C12.7085 34.9228 12.0503 34.8108 11.3879 34.801C10.859 34.7945 10.3313 34.8586 9.81471 34.9917C9.20783 35.1774 8.62908 35.471 8.09876 35.8622Z" fill="url(#paint0_linear_2828_18448)"/>
<path d="M8.09876 35.8622C7.40839 36.3626 6.79169 36.9895 6.27226 37.7187C5.85241 38.3824 5.50499 39.1043 5.23802 39.8681C5.14669 39.0226 4.9976 38.187 4.79135 37.3694C4.57849 36.3116 4.23116 35.2971 3.75925 34.3603C3.23372 33.289 2.52833 32.3517 1.68598 31.6038C1.22397 31.2067 0.707516 30.9034 0.158879 30.7064C0.122579 30.9482 0.062356 31.3513 0.0145054 31.8724C-0.0143709 32.4997 0.00047493 33.1286 0.0582256 33.7531C0.191053 35.1744 0.445159 36.8186 1.34113 38.2561C2.6562 40.4591 4.24107 40.9562 5.02615 41.1362C5.03729 41.5863 5.00791 42.0365 4.9382 42.4796C5.85991 42.399 7.6865 41.91 9.60054 40.3113C10.1552 39.847 10.6656 39.3146 11.123 38.7235C11.5402 38.2609 11.9216 37.7566 12.2632 37.2163C12.5168 36.8119 12.7432 36.3853 12.9404 35.9401C13.1385 35.5881 13.2697 35.3087 13.3457 35.1341C12.7085 34.9228 12.0503 34.8108 11.3879 34.801C10.859 34.7945 10.3313 34.8586 9.81471 34.9917C9.20783 35.1774 8.62908 35.471 8.09876 35.8622Z" fill="white" fill-opacity="0.2"/>
<path d="M10.5979 27.3506C9.84719 27.6055 9.1489 28.0361 8.54556 28.6161C7.99866 29.1123 7.50249 29.6802 7.06688 30.3087C7.1842 29.5021 7.23585 28.6844 7.22116 27.8665C7.1842 26.8154 7.05294 25.7718 6.82961 24.7526C6.19154 21.9423 4.66014 20.6393 4.17833 20.333C3.86153 21.2445 3.62227 22.1903 3.46469 23.1567C3.23947 24.6904 3.34424 26.2651 3.7683 27.7402C4.05623 28.749 4.56197 29.6547 5.23567 30.3705C5.65701 30.8251 6.13651 31.2003 6.65685 31.4828C6.59571 31.9176 6.47031 32.3367 6.28601 32.7214C7.91071 32.9987 9.56949 32.74 11.0746 31.9745C12.2312 31.4782 13.3 30.7389 14.2279 29.7928C14.7764 29.3156 15.2696 28.7576 15.6951 28.1325C14.9354 27.6056 14.0917 27.2645 13.2154 27.1302C12.3391 26.9958 11.4485 27.0708 10.5979 27.3506Z" fill="url(#paint1_linear_2828_18448)"/>
<path d="M10.5979 27.3506C9.84719 27.6055 9.1489 28.0361 8.54556 28.6161C7.99866 29.1123 7.50249 29.6802 7.06688 30.3087C7.1842 29.5021 7.23585 28.6844 7.22116 27.8665C7.1842 26.8154 7.05294 25.7718 6.82961 24.7526C6.19154 21.9423 4.66014 20.6393 4.17833 20.333C3.86153 21.2445 3.62227 22.1903 3.46469 23.1567C3.23947 24.6904 3.34424 26.2651 3.7683 27.7402C4.05623 28.749 4.56197 29.6547 5.23567 30.3705C5.65701 30.8251 6.13651 31.2003 6.65685 31.4828C6.59571 31.9176 6.47031 32.3367 6.28601 32.7214C7.91071 32.9987 9.56949 32.74 11.0746 31.9745C12.2312 31.4782 13.3 30.7389 14.2279 29.7928C14.7764 29.3156 15.2696 28.7576 15.6951 28.1325C14.9354 27.6056 14.0917 27.2645 13.2154 27.1302C12.3391 26.9958 11.4485 27.0708 10.5979 27.3506Z" fill="white" fill-opacity="0.2"/>
<path d="M14.8312 19.8013C14.0698 19.8643 13.3218 20.0684 12.6154 20.4058C12.005 20.7134 11.4368 21.1244 10.9294 21.6256C11.1662 20.8767 11.3654 20.1124 11.5259 19.3365C11.7461 18.3524 11.8385 17.3354 11.8 16.3193C11.7711 15.1646 11.5399 14.029 11.1205 12.9825C10.8885 12.4174 10.5771 11.9016 10.1992 11.4564C9.68556 12.1093 8.05715 15.0593 8.33122 18.2725C8.58458 20.7739 9.69943 22.034 10.2752 22.5713C10.1029 22.9529 9.89421 23.3107 9.65331 23.6379C11.1392 24.3477 12.7612 24.5788 14.3498 24.3069C14.9914 24.1913 15.6233 24.0115 16.2385 23.7695C16.7633 23.596 17.2737 23.3676 17.7633 23.0872C18.1987 22.8426 18.5326 22.5686 18.8275 22.3671C19.1223 22.1656 19.3457 21.9991 19.4724 21.8969C19.0222 21.3951 18.5163 20.9658 17.9683 20.6207C17.0117 20.0019 15.9227 19.7174 14.8312 19.8013Z" fill="url(#paint2_linear_2828_18448)"/>
<path d="M14.8312 19.8013C14.0698 19.8643 13.3218 20.0684 12.6154 20.4058C12.005 20.7134 11.4368 21.1244 10.9294 21.6256C11.1662 20.8767 11.3654 20.1124 11.5259 19.3365C11.7461 18.3524 11.8385 17.3354 11.8 16.3193C11.7711 15.1646 11.5399 14.029 11.1205 12.9825C10.8885 12.4174 10.5771 11.9016 10.1992 11.4564C9.68556 12.1093 8.05715 15.0593 8.33122 18.2725C8.58458 20.7739 9.69943 22.034 10.2752 22.5713C10.1029 22.9529 9.89421 23.3107 9.65331 23.6379C11.1392 24.3477 12.7612 24.5788 14.3498 24.3069C14.9914 24.1913 15.6233 24.0115 16.2385 23.7695C16.7633 23.596 17.2737 23.3676 17.7633 23.0872C18.1987 22.8426 18.5326 22.5686 18.8275 22.3671C19.1223 22.1656 19.3457 21.9991 19.4724 21.8969C19.0222 21.3951 18.5163 20.9658 17.9683 20.6207C17.0117 20.0019 15.9227 19.7174 14.8312 19.8013Z" fill="white" fill-opacity="0.2"/>
<path d="M20.502 13.6487C20.1233 13.5551 19.7376 13.5047 19.3504 13.4983C18.998 13.5094 18.6468 13.5525 18.3001 13.6272C17.6622 13.765 17.0389 13.983 16.4413 14.2774C16.851 13.6724 17.2061 13.0197 17.5008 12.3295C17.6745 11.9006 17.8282 11.4611 17.9615 11.0131C18.1262 10.544 18.2563 10.0596 18.3507 9.56491C18.8667 6.88897 18.0836 5.0298 17.8003 4.53809C17.2406 5.10504 15.0501 7.28663 14.7046 10.4488C14.5863 11.2445 14.6084 12.06 14.7695 12.8453C14.9307 13.6307 15.2276 14.3694 15.642 15.0163C15.4285 15.3465 15.1675 15.6311 14.8704 15.8572C16.1101 16.9298 17.5802 17.5808 19.1177 17.7379C20.5274 17.9689 21.6515 17.7379 22.5727 17.5337C23.2136 17.4085 23.8377 17.1863 24.4292 16.8727C23.996 16.0532 23.4244 15.3447 22.7494 14.7906C22.0743 14.2363 21.3097 13.8479 20.502 13.6487Z" fill="url(#paint3_linear_2828_18448)"/>
<path d="M20.502 13.6487C20.1233 13.5551 19.7376 13.5047 19.3504 13.4983C18.998 13.5094 18.6468 13.5525 18.3001 13.6272C17.6622 13.765 17.0389 13.983 16.4413 14.2774C16.851 13.6724 17.2061 13.0197 17.5008 12.3295C17.6745 11.9006 17.8282 11.4611 17.9615 11.0131C18.1262 10.544 18.2563 10.0596 18.3507 9.56491C18.8667 6.88897 18.0836 5.0298 17.8003 4.53809C17.2406 5.10504 15.0501 7.28663 14.7046 10.4488C14.5863 11.2445 14.6084 12.06 14.7695 12.8453C14.9307 13.6307 15.2276 14.3694 15.642 15.0163C15.4285 15.3465 15.1675 15.6311 14.8704 15.8572C16.1101 16.9298 17.5802 17.5808 19.1177 17.7379C20.5274 17.9689 21.6515 17.7379 22.5727 17.5337C23.2136 17.4085 23.8377 17.1863 24.4292 16.8727C23.996 16.0532 23.4244 15.3447 22.7494 14.7906C22.0743 14.2363 21.3097 13.8479 20.502 13.6487Z" fill="white" fill-opacity="0.2"/>
<path d="M27.2946 9.2772C26.6426 8.94274 25.949 8.73145 25.2401 8.65117C24.9121 8.60745 24.5817 8.59392 24.252 8.61091C23.9456 8.64581 23.6508 8.69952 23.3744 8.76404C23.5725 8.56521 23.789 8.32876 24.017 8.05477C24.2451 7.7807 24.5007 7.51744 24.7448 7.20575C25.2965 6.49928 25.7546 5.70058 26.1038 4.83605C26.5852 3.59481 26.7949 2.60879 26.7949 1.74098C26.8112 1.15172 26.7435 0.563371 26.5945 0C25.9218 0.268675 23.5057 1.89681 22.4968 4.63458C21.97 6.10121 21.9601 7.751 22.4692 9.22613C22.1919 9.46769 21.8799 9.64969 21.5478 9.76346C22.4894 11.1368 23.7422 12.1747 25.164 12.7592C26.3848 13.232 27.571 13.5275 28.4625 13.5222C29.3538 13.5168 30.054 13.4604 30.3442 13.412C30.1596 12.7667 29.9016 12.1531 29.5772 11.5877C29.0204 10.5798 28.2286 9.77823 27.2946 9.2772Z" fill="url(#paint4_linear_2828_18448)"/>
<path d="M27.2946 9.2772C26.6426 8.94274 25.949 8.73145 25.2401 8.65117C24.9121 8.60745 24.5817 8.59392 24.252 8.61091C23.9456 8.64581 23.6508 8.69952 23.3744 8.76404C23.5725 8.56521 23.789 8.32876 24.017 8.05477C24.2451 7.7807 24.5007 7.51744 24.7448 7.20575C25.2965 6.49928 25.7546 5.70058 26.1038 4.83605C26.5852 3.59481 26.7949 2.60879 26.7949 1.74098C26.8112 1.15172 26.7435 0.563371 26.5945 0C25.9218 0.268675 23.5057 1.89681 22.4968 4.63458C21.97 6.10121 21.9601 7.751 22.4692 9.22613C22.1919 9.46769 21.8799 9.64969 21.5478 9.76346C22.4894 11.1368 23.7422 12.1747 25.164 12.7592C26.3848 13.232 27.571 13.5275 28.4625 13.5222C29.3538 13.5168 30.054 13.4604 30.3442 13.412C30.1596 12.7667 29.9016 12.1531 29.5772 11.5877C29.0204 10.5798 28.2286 9.77823 27.2946 9.2772Z" fill="white" fill-opacity="0.2"/>
<path d="M16.2593 73.5172C17.1473 74.4369 18.0721 75.2981 19.0293 76.099V74.8871C18.4471 74.3806 17.8788 73.851 17.3257 73.2989C11.0191 67.0245 6.9435 58.2339 5.89424 48.643C5.34899 43.8884 5.58354 39.0561 6.58519 34.4036C8.09332 27.4047 11.2399 21.0327 15.6733 15.9993C20.1069 10.966 25.6527 7.4694 31.6914 5.9003C31.7952 5.86664 31.884 5.78793 31.9395 5.68035C31.9951 5.57268 32.0133 5.44439 31.9903 5.32163C31.9673 5.19895 31.905 5.09112 31.8159 5.02033C31.727 4.94963 31.6182 4.92125 31.5118 4.94113C25.3211 6.55016 19.6356 10.1348 15.0904 15.2948C10.5451 20.4547 7.31896 26.9868 5.77213 34.1617C4.74161 38.9331 4.49988 43.8896 5.05809 48.7666C6.10215 58.3257 10.0817 67.1191 16.2593 73.5172Z" fill="url(#paint5_linear_2828_18448)"/>
<path d="M16.2593 73.5172C17.1473 74.4369 18.0721 75.2981 19.0293 76.099V74.8871C18.4471 74.3806 17.8788 73.851 17.3257 73.2989C11.0191 67.0245 6.9435 58.2339 5.89424 48.643C5.34899 43.8884 5.58354 39.0561 6.58519 34.4036C8.09332 27.4047 11.2399 21.0327 15.6733 15.9993C20.1069 10.966 25.6527 7.4694 31.6914 5.9003C31.7952 5.86664 31.884 5.78793 31.9395 5.68035C31.9951 5.57268 32.0133 5.44439 31.9903 5.32163C31.9673 5.19895 31.905 5.09112 31.8159 5.02033C31.727 4.94963 31.6182 4.92125 31.5118 4.94113C25.3211 6.55016 19.6356 10.1348 15.0904 15.2948C10.5451 20.4547 7.31896 26.9868 5.77213 34.1617C4.74161 38.9331 4.49988 43.8896 5.05809 48.7666C6.10215 58.3257 10.0817 67.1191 16.2593 73.5172Z" fill="white" fill-opacity="0.2"/>
<defs>
<linearGradient id="paint0_linear_2828_18448" x1="6.67293" y1="30.7064" x2="6.67293" y2="42.4796" gradientUnits="userSpaceOnUse">
<stop stop-color="#EFBD59"/>
<stop offset="1" stop-color="#D2920F"/>
</linearGradient>
<linearGradient id="paint1_linear_2828_18448" x1="9.52202" y1="20.333" x2="9.52202" y2="32.8295" gradientUnits="userSpaceOnUse">
<stop stop-color="#EFBD59"/>
<stop offset="1" stop-color="#D2920F"/>
</linearGradient>
<linearGradient id="paint2_linear_2828_18448" x1="13.8864" y1="11.4564" x2="13.8864" y2="24.4176" gradientUnits="userSpaceOnUse">
<stop stop-color="#EFBD59"/>
<stop offset="1" stop-color="#D2920F"/>
</linearGradient>
<linearGradient id="paint3_linear_2828_18448" x1="19.5294" y1="4.53809" x2="19.5294" y2="17.8342" gradientUnits="userSpaceOnUse">
<stop stop-color="#EFBD59"/>
<stop offset="1" stop-color="#D2920F"/>
</linearGradient>
<linearGradient id="paint4_linear_2828_18448" x1="25.946" y1="0" x2="25.946" y2="13.5222" gradientUnits="userSpaceOnUse">
<stop stop-color="#EFBD59"/>
<stop offset="1" stop-color="#D2920F"/>
</linearGradient>
<linearGradient id="paint5_linear_2828_18448" x1="18.3827" y1="4.93494" x2="18.3827" y2="76.0989" gradientUnits="userSpaceOnUse">
<stop stop-color="#EFBD59"/>
<stop offset="1" stop-color="#D2920F"/>
</linearGradient>
</defs>
</svg>
