<svg width="30" height="30" viewBox="0 0 30 30" fill="none" xmlns="http://www.w3.org/2000/svg">
<rect width="30" height="30" rx="15" fill="#1F4FC9"/>
<g clip-path="url(#clip0_123_2270)">
<path d="M14.8717 14.6707C16.0629 14.6707 17.0944 14.2434 17.9372 13.4005C18.78 12.5577 19.2072 11.5265 19.2072 10.3352C19.2072 9.14427 18.78 8.11294 17.9371 7.26988C17.0941 6.42723 16.0628 6 14.8717 6C13.6804 6 12.6492 6.42723 11.8064 7.27001C10.9636 8.1128 10.5363 9.14414 10.5363 10.3352C10.5363 11.5265 10.9636 12.5579 11.8065 13.4006C12.6495 14.2433 13.6808 14.6707 14.8717 14.6707Z" fill="white"/>
<path d="M22.4577 19.8411C22.4333 19.4904 22.3842 19.1078 22.3118 18.7037C22.2388 18.2967 22.1447 17.9119 22.0321 17.5602C21.9158 17.1967 21.7576 16.8377 21.562 16.4937C21.359 16.1367 21.1206 15.8257 20.8531 15.5699C20.5734 15.3022 20.2309 15.087 19.8348 14.9301C19.4401 14.7739 19.0027 14.6948 18.5349 14.6948C18.3511 14.6948 18.1734 14.7702 17.8302 14.9937C17.619 15.1314 17.3719 15.2907 17.0962 15.4669C16.8604 15.6171 16.541 15.7579 16.1464 15.8853C15.7615 16.0099 15.3707 16.0731 14.9849 16.0731C14.5991 16.0731 14.2084 16.0099 13.8231 15.8853C13.429 15.758 13.1095 15.6173 12.874 15.467C12.6009 15.2925 12.3537 15.1332 12.1393 14.9935C11.7965 14.7701 11.6187 14.6947 11.4349 14.6947C10.9669 14.6947 10.5297 14.7739 10.1351 14.9302C9.73933 15.0869 9.3967 15.3021 9.11668 15.57C8.8493 15.826 8.61076 16.1368 8.40807 16.4937C8.21265 16.8377 8.05444 17.1966 7.93799 17.5603C7.82552 17.912 7.73145 18.2967 7.65839 18.7037C7.58601 19.1072 7.53685 19.4899 7.51254 19.8415C7.48865 20.1859 7.47656 20.5434 7.47656 20.9044C7.47656 21.844 7.77525 22.6047 8.36426 23.1657C8.94598 23.7192 9.71571 24.0001 10.6517 24.0001H19.3189C20.2549 24.0001 21.0244 23.7194 21.6062 23.1657C22.1954 22.6051 22.494 21.8443 22.494 20.9043C22.4939 20.5416 22.4817 20.1839 22.4577 19.8411Z" fill="white"/>
</g>
<defs>
<clipPath id="clip0_123_2270">
<rect width="18" height="18" fill="white" transform="translate(6 6)"/>
</clipPath>
</defs>
</svg>
