<svg width="161" height="28" viewBox="0 0 161 28" fill="none" xmlns="http://www.w3.org/2000/svg">
<path d="M6.55031 19.7891C3.19875 19.7891 1.14406 17.5312 1.14406 13.8594V13.8438C1.14406 10.2266 3.21437 7.9375 6.49562 7.9375C9.15969 7.9375 11.105 9.46875 11.4409 11.7188L11.4566 11.7969H9.11281L9.09719 11.7188C8.77687 10.6016 7.81594 9.9375 6.49562 9.9375C4.67531 9.9375 3.55031 11.4219 3.55031 13.8203V13.8359C3.55031 16.2812 4.73 17.7891 6.58937 17.7891C8.13625 17.7891 9.19875 16.8438 9.24562 15.4219L9.25344 15.2109H6.81594V13.4922H11.5503V14.9219C11.5503 17.9141 9.62844 19.7891 6.55031 19.7891ZM17.0506 19.6797C14.4334 19.6797 12.8475 17.9688 12.8475 15.2109V15.2031C12.8475 12.4688 14.4491 10.7109 16.9569 10.7109C19.4647 10.7109 21.0272 12.4297 21.0272 15.0312V15.7422H15.1053C15.1287 17.1562 15.8866 17.9766 17.0975 17.9766C18.0975 17.9766 18.6522 17.4453 18.8084 17.1172L18.8319 17.0703H20.9569L20.9412 17.1484C20.6756 18.2266 19.5662 19.6797 17.0506 19.6797ZM16.9959 12.4219C16.0037 12.4219 15.2694 13.0938 15.1287 14.3125H18.8397C18.6991 13.0625 17.9881 12.4219 16.9959 12.4219ZM26.1447 19.5312C24.0509 19.5312 23.2072 18.8516 23.2072 17.1797V12.6172H21.8791V10.8984H23.2072V8.84375H25.5119V10.8984H27.2853V12.6172H25.5119V16.6562C25.5119 17.4297 25.84 17.7734 26.6134 17.7734C26.9103 17.7734 27.0666 17.7578 27.2853 17.7344V19.4297C27.0041 19.4844 26.5822 19.5312 26.1447 19.5312Z" fill="white"/>
<path d="M37.2271 19.999C39.8954 19.999 41.4894 18.6789 41.4894 16.6075V16.6005C41.4894 14.9644 40.5063 14.1007 38.3506 13.6794L37.3044 13.4758C36.209 13.2581 35.7455 12.9421 35.7455 12.3663V12.3593C35.7455 11.7554 36.2932 11.3411 37.2201 11.3411C37.778 11.3411 38.3474 11.5102 38.667 11.9217C38.8837 12.2006 39.1642 12.4787 39.5174 12.4787H40.5075C40.9302 12.4787 41.2714 12.1122 41.1446 11.709C40.63 10.0718 38.9645 9.31885 37.2061 9.31885C34.8748 9.31885 33.1896 10.5968 33.1826 12.584V12.591C33.1826 14.1709 34.1094 15.1821 36.2511 15.5963L37.2974 15.8C38.484 16.0317 38.9334 16.2985 38.9334 16.8673V16.8743C38.9334 17.5203 38.2734 17.9767 37.2693 17.9767C36.7265 17.9767 36.0669 17.8348 35.7098 17.4238C35.4683 17.1459 35.1791 16.8392 34.8109 16.8392H33.7638C33.349 16.8392 33.0095 17.1931 33.1244 17.5916C33.6179 19.3047 35.4339 19.999 37.2271 19.999Z" fill="white"/>
<path d="M44.1614 19.1853C44.2445 19.5033 44.5317 19.7252 44.8604 19.7252H46.1776C46.5046 19.7252 46.7908 19.5056 46.8755 19.1897L48.3797 13.5791C48.3894 13.543 48.4221 13.5179 48.4595 13.5179C48.4967 13.5179 48.5293 13.5428 48.5391 13.5787L50.0696 19.1927C50.1553 19.5071 50.4409 19.7252 50.7667 19.7252H52.0723C52.401 19.7252 52.6883 19.5033 52.7714 19.1853L55.041 10.4979C55.1607 10.04 54.8152 9.5927 54.342 9.5927H53.2171C52.872 9.5927 52.5751 9.8367 52.5082 10.1752L51.3087 16.249C51.3014 16.2859 51.269 16.3126 51.2313 16.3126C51.1952 16.3126 51.1636 16.2879 51.1548 16.2528L49.6283 10.1402C49.5479 9.81843 49.2589 9.5927 48.9273 9.5927H47.996C47.6623 9.5927 47.372 9.82127 47.2936 10.1457L45.8196 16.2524C45.8111 16.2877 45.7795 16.3126 45.7431 16.3126C45.7057 16.3126 45.6734 16.2861 45.666 16.2494L44.4469 10.1731C44.3792 9.83557 44.0828 9.5927 43.7385 9.5927H42.5907C42.1175 9.5927 41.7721 10.04 41.8917 10.4979L44.1614 19.1853Z" fill="white"/>
<path d="M56.1876 19.0026C56.1876 19.4017 56.5111 19.7252 56.9102 19.7252H58.0421C58.4412 19.7252 58.7647 19.4017 58.7647 19.0026V10.3152C58.7647 9.91618 58.4412 9.5927 58.0421 9.5927H56.9102C56.5111 9.5927 56.1876 9.91618 56.1876 10.3152V19.0026Z" fill="white"/>
<path d="M60.1994 19.0026C60.1994 19.4017 60.5229 19.7252 60.9219 19.7252H61.9204C62.3195 19.7252 62.643 19.4017 62.643 19.0026V14.0512C62.643 14.0049 62.6806 13.9673 62.7269 13.9673C62.7536 13.9673 62.7787 13.98 62.7945 14.0015L66.794 19.4312C66.9302 19.616 67.1461 19.7252 67.3757 19.7252H68.3314C68.7304 19.7252 69.0539 19.4017 69.0539 19.0026V10.3152C69.0539 9.91618 68.7304 9.5927 68.3314 9.5927H67.3328C66.9338 9.5927 66.6103 9.91618 66.6103 10.3152V15.2103C66.6103 15.2568 66.5727 15.2944 66.5262 15.2944C66.4996 15.2944 66.4746 15.2818 66.4587 15.2604L62.4734 9.88492C62.3371 9.7011 62.1218 9.5927 61.893 9.5927H60.9219C60.5229 9.5927 60.1994 9.91618 60.1994 10.3152V19.0026Z" fill="white"/>
<path d="M75.0759 19.999C77.9408 19.999 79.6752 18.2927 79.6752 15.5051V14.9215C79.6752 14.5225 79.3517 14.199 78.9527 14.199H76.0582C75.6592 14.199 75.3357 14.5225 75.3357 14.9215V15.246C75.3357 15.645 75.6592 15.9685 76.0582 15.9685H77.0208C77.1128 15.9685 77.1863 16.0451 77.1824 16.137C77.1122 17.1763 76.3047 17.8644 75.1321 17.8644C73.6575 17.8644 72.7025 16.6286 72.7025 14.6273V14.6133C72.7025 12.6472 73.5662 11.4535 75.0057 11.4535C75.7352 11.4535 76.4484 11.766 76.8189 12.365C76.9971 12.653 77.2759 12.9 77.6145 12.9H78.7785C79.206 12.9 79.5465 12.526 79.4137 12.1197C78.8229 10.3131 76.8956 9.31885 75.0057 9.31885C71.9652 9.31885 70.0834 11.3552 70.0834 14.6414V14.6554C70.0834 17.9838 71.9582 19.999 75.0759 19.999Z" fill="white"/>
<path opacity="0.4" d="M82.9141 3.75609C73.926 -2.79873 58.3207 -0.471157 42.3674 8.3793C42.1727 8.48733 42.2474 8.78274 42.4701 8.78274H44.0236C44.0541 8.78274 44.0853 8.77582 44.1131 8.7634C66.1719 -1.08449 72.1608 1.65508 82.7445 4.11175C82.9672 4.16344 83.0988 3.89078 82.9141 3.75609Z" fill="#CCD4DA"/>
<path fill-rule="evenodd" clip-rule="evenodd" d="M86.9613 6.43648C86.4126 6.24299 85.8223 6.13773 85.2074 6.13773C82.7745 6.13773 80.7264 7.78575 80.1187 10.0264C78.6939 5.81063 76.2386 1.70804 68.7 0.0139641C75.2478 -0.0735393 81.3196 0.212685 86.9613 6.43648Z" fill="white"/>
<path fill-rule="evenodd" clip-rule="evenodd" d="M85.2074 15.9256C87.7014 15.9256 89.7232 13.9038 89.7232 11.4098C89.7232 8.91583 87.7014 6.89404 85.2074 6.89404C82.7134 6.89404 80.6917 8.91583 80.6917 11.4098C80.6917 13.9038 82.7134 15.9256 85.2074 15.9256ZM87.1808 12.0701C87.1808 13.0988 86.3997 13.7751 85.209 13.7751C84.0151 13.7751 83.2341 13.0988 83.2341 12.0701V9.65062C83.2341 9.26325 83.45 9.04416 83.8183 9.04416C84.1866 9.04416 84.3993 9.26325 84.3993 9.65062V11.9463C84.3993 12.4797 84.6883 12.7972 85.209 12.7972C85.7266 12.7972 86.0155 12.4797 86.0155 11.9463V9.65062C86.0155 9.26325 86.2282 9.04416 86.5966 9.04416C86.968 9.04416 87.1808 9.26325 87.1808 9.65062V12.0701Z" fill="white"/>
<path d="M92.8223 18.9691C92.8223 19.3954 93.1678 19.7409 93.5941 19.7409H94.6111C95.0374 19.7409 95.383 19.3954 95.383 18.9691V16.7898H97.1133C99.3601 16.7898 100.811 15.4084 100.811 13.2526V13.2387C100.811 11.0829 99.3601 9.67358 97.1133 9.67358H93.5941C93.1678 9.67358 92.8223 10.0191 92.8223 10.4454V18.9691ZM96.4993 11.634C97.5808 11.634 98.2227 12.1922 98.2227 13.2387V13.2526C98.2227 14.2991 97.5808 14.8642 96.4993 14.8642H95.383V11.634H96.4993Z" fill="white"/>
<path d="M101.663 18.9691C101.663 19.3954 102.008 19.7409 102.435 19.7409H103.452C103.878 19.7409 104.224 19.3954 104.224 18.9691V16.2735H105.528L107.046 19.3138C107.176 19.5755 107.444 19.7409 107.736 19.7409H108.858C109.438 19.7409 109.811 19.125 109.542 18.6111L108.117 15.8898C109.164 15.4363 109.833 14.3201 109.833 13.0294V13.0154C109.833 10.8805 108.459 9.67358 106.024 9.67358H102.435C102.008 9.67358 101.663 10.0191 101.663 10.4454V18.9691ZM104.224 14.4177V11.6061H105.724C106.624 11.6061 107.224 12.1643 107.224 13.0084V13.0224C107.224 13.8735 106.645 14.4177 105.738 14.4177H104.224Z" fill="white"/>
<path d="M115.527 19.9223C118.597 19.9223 120.502 17.92 120.502 14.7107V14.6968C120.502 11.4945 118.59 9.49219 115.527 9.49219C112.485 9.49219 110.559 11.4945 110.559 14.6968V14.7107C110.559 17.92 112.471 19.9223 115.527 19.9223ZM115.527 17.8014C114.09 17.8014 113.169 16.6224 113.169 14.7107V14.6968C113.169 12.7852 114.097 11.6131 115.527 11.6131C116.971 11.6131 117.899 12.7922 117.899 14.6968V14.7107C117.899 16.6014 116.992 17.8014 115.527 17.8014Z" fill="white"/>
<path d="M129.894 19.5H127.636V8.22656H129.605L134.792 15.25H134.933V8.22656H137.191V19.5H135.238L130.035 12.4453H129.894V19.5ZM146.316 18.4922C145.566 19.2891 144.53 19.6875 143.207 19.6875C141.884 19.6875 140.845 19.2891 140.09 18.4922C139.34 17.6953 138.965 16.5938 138.965 15.1875C138.965 13.7917 139.342 12.6953 140.097 11.8984C140.858 11.0964 141.894 10.6953 143.207 10.6953C144.519 10.6953 145.553 11.0964 146.308 11.8984C147.069 12.6953 147.449 13.7917 147.449 15.1875C147.449 16.5938 147.071 17.6953 146.316 18.4922ZM143.207 17.8281C143.811 17.8281 144.28 17.599 144.613 17.1406C144.946 16.6771 145.113 16.026 145.113 15.1875C145.113 14.3594 144.944 13.7135 144.605 13.25C144.272 12.7865 143.806 12.5547 143.207 12.5547C142.603 12.5547 142.134 12.7865 141.801 13.25C141.467 13.7135 141.301 14.3594 141.301 15.1875C141.301 16.026 141.465 16.6771 141.793 17.1406C142.126 17.599 142.597 17.8281 143.207 17.8281ZM160.567 10.8828L158.278 19.5H155.856L154.317 13.5547H154.176L152.653 19.5H150.262L147.965 10.8828H150.27L151.551 17.0625H151.692L153.199 10.8828H155.371L156.887 17.0625H157.028L158.309 10.8828H160.567Z" fill="white"/>
</svg>
