<svg width="40" height="40" viewBox="0 0 40 40" fill="none" xmlns="http://www.w3.org/2000/svg">
<path d="M20.4348 39.1304C31.2404 39.1304 40 30.3708 40 19.5652C40 8.75965 31.2404 0 20.4348 0C9.62921 0 0.869568 8.75965 0.869568 19.5652C0.869568 30.3708 9.62921 39.1304 20.4348 39.1304Z" fill="#1087DD"/>
<path fill-rule="evenodd" clip-rule="evenodd" d="M29.1304 12.173C29.1304 11.7263 28.7885 11.354 28.3487 11.3044H28.3H12.5941C12.13 11.3044 11.7391 11.7015 11.7391 12.173V12.1978V13.0435V15.0519V16.2183V20V21.0083C11.7391 21.0083 11.7391 22.8698 12.5941 24.6317C13.0094 25.3763 13.4735 25.972 13.9863 26.4933C14.1085 26.6172 14.6459 27.0887 14.7924 27.188L15.0122 27.337C15.5007 27.6843 16.0137 27.9574 16.5265 28.1561C16.8931 28.305 17.2594 28.4289 17.6502 28.5283C17.7967 28.5778 17.9433 28.6028 18.0898 28.6276C18.383 28.702 18.6761 28.7515 18.9691 28.7765C19.0394 28.7883 19.1096 28.7946 19.1772 28.8004H19.1774C19.2507 28.807 19.3209 28.8133 19.3846 28.8261C21.552 29.0241 23.2824 28.5804 23.2926 28.5778C23.2926 28.5778 22.5109 30.8115 19.5554 32.1517C24.7337 32.4991 28.5198 28.702 29.1059 24.9543V20H29.1304V15.0519V13.0435V12.1978V12.173Z" fill="white"/>
</svg>
