<svg width="108" height="108" viewBox="0 0 108 108" fill="none" xmlns="http://www.w3.org/2000/svg">
<mask id="mask0_552_3189" style="mask-type:alpha" maskUnits="userSpaceOnUse" x="0" y="0" width="108" height="108">
<path d="M54 108C83.8234 108 108 83.8234 108 54C108 24.1766 83.8234 0 54 0C24.1766 0 0 24.1766 0 54C0 83.8234 24.1766 108 54 108Z" fill="#F2A033"/>
</mask>
<g mask="url(#mask0_552_3189)">
<path fill-rule="evenodd" clip-rule="evenodd" d="M102 54C102 80.5097 80.5097 102 54 102C27.4903 102 6 80.5097 6 54C6 27.4903 27.4903 6 54 6C80.5097 6 102 27.4903 102 54ZM54 108C83.8234 108 108 83.8234 108 54C108 24.1766 83.8234 0 54 0C24.1766 0 0 24.1766 0 54C0 83.8234 24.1766 108 54 108ZM253.797 102C280.307 102 301.797 80.5097 301.797 54C301.797 27.4903 280.307 6 253.797 6C227.287 6 205.797 27.4903 205.797 54C205.797 80.5097 227.287 102 253.797 102ZM307.797 54C307.797 83.8234 283.62 108 253.797 108C223.973 108 199.797 83.8234 199.797 54C199.797 24.1766 223.973 0 253.797 0C283.62 0 307.797 24.1766 307.797 54ZM452.703 102C479.213 102 500.703 80.5097 500.703 54C500.703 27.4903 479.213 6 452.703 6C426.193 6 404.703 27.4903 404.703 54C404.703 80.5097 426.193 102 452.703 102ZM506.703 54C506.703 83.8234 482.526 108 452.703 108C422.88 108 398.703 83.8234 398.703 54C398.703 24.1766 422.88 0 452.703 0C482.526 0 506.703 24.1766 506.703 54Z" fill="url(#paint0_linear_552_3189)"/>
</g>
<path d="M39.1042 84.4792C51.8949 86.3269 64.309 73.6673 66.8319 56.2031L67.411 52.1947C69.2587 39.404 60.3878 27.5372 47.5971 25.6894C34.8064 23.8417 22.9396 32.7126 21.0918 45.5033L20.5127 49.5117C17.9898 66.9759 26.3135 82.6314 39.1042 84.4792Z" stroke="white" stroke-width="4" stroke-miterlimit="10" stroke-linecap="round" stroke-linejoin="round"/>
<path d="M51.6875 43.1416C53.2421 43.7382 57.2293 46.362 58.2291 47.4749" stroke="white" stroke-width="4" stroke-miterlimit="10" stroke-linecap="round" stroke-linejoin="round"/>
<path d="M39.3359 41.3574C37.676 41.4896 33.1093 42.8777 31.8354 43.6622" stroke="white" stroke-width="4" stroke-miterlimit="10" stroke-linecap="round" stroke-linejoin="round"/>
<path d="M51.2913 68.864C49.7236 70.7874 46.2325 71.143 42.8632 70.6562" stroke="white" stroke-width="4" stroke-miterlimit="10" stroke-linecap="round" stroke-linejoin="round"/>
<path fill-rule="evenodd" clip-rule="evenodd" d="M43.6013 52.7138L19.6674 49.2562C18.0276 49.0193 16.5062 50.1566 16.2693 51.7964L15.7275 55.5467C15.4906 57.1866 16.6279 58.708 18.2678 58.9449L37.3544 61.7022C38.332 60.8543 39.8709 59.593 42.5516 59.9802C45.2323 60.3675 46.3512 62.0128 47.049 63.1027L66.1356 65.86C67.7754 66.0969 69.2968 64.9596 69.5337 63.3197L70.0755 59.5694C70.3124 57.9296 69.1751 56.4082 67.5352 56.1713L43.6013 52.7138Z" fill="#517193"/>
<path d="M16.2693 51.7964L14.2899 51.5105L16.2693 51.7964ZM15.7275 55.5467L17.707 55.8327L15.7275 55.5467ZM37.3544 61.7022L37.0684 63.6816L37.9737 63.8124L38.6647 63.2131L37.3544 61.7022ZM47.049 63.1027L45.3646 64.181L45.8578 64.9513L46.763 65.0821L47.049 63.1027ZM19.3815 51.2357L43.3154 54.6932L43.8873 50.7343L19.9534 47.2768L19.3815 51.2357ZM18.2488 52.0824C18.3277 51.5358 18.8349 51.1567 19.3815 51.2357L19.9534 47.2768C17.2203 46.8819 14.6847 48.7774 14.2899 51.5105L18.2488 52.0824ZM17.707 55.8327L18.2488 52.0824L14.2899 51.5105L13.7481 55.2608L17.707 55.8327ZM18.5537 56.9654C18.0071 56.8864 17.628 56.3793 17.707 55.8327L13.7481 55.2608C13.3533 57.9938 15.2488 60.5295 17.9818 60.9243L18.5537 56.9654ZM37.6403 59.7227L18.5537 56.9654L17.9818 60.9243L37.0684 63.6816L37.6403 59.7227ZM42.8375 58.0008C39.2563 57.4834 37.1284 59.2508 36.044 60.1912L38.6647 63.2131C39.5357 62.4578 40.4855 61.7025 42.2656 61.9597L42.8375 58.0008ZM42.2656 61.9597C44.0458 62.2169 44.743 63.2101 45.3646 64.181L48.7334 62.0243C47.9595 60.8155 46.4187 58.5181 42.8375 58.0008L42.2656 61.9597ZM46.763 65.0821L65.8496 67.8394L66.4215 63.8805L47.3349 61.1232L46.763 65.0821ZM65.8496 67.8394C68.5827 68.2342 71.1183 66.3387 71.5131 63.6057L67.5542 63.0338C67.4753 63.5804 66.9681 63.9595 66.4215 63.8805L65.8496 67.8394ZM71.5131 63.6057L72.0549 59.8554L68.096 59.2835L67.5542 63.0338L71.5131 63.6057ZM72.0549 59.8554C72.4497 57.1223 70.5542 54.5867 67.8212 54.1919L67.2493 58.1508C67.7959 58.2297 68.175 58.7369 68.096 59.2835L72.0549 59.8554ZM67.8212 54.1919L43.8873 50.7343L43.3154 54.6932L67.2493 58.1508L67.8212 54.1919Z" fill="white"/>
<mask id="mask1_552_3189" style="mask-type:alpha" maskUnits="userSpaceOnUse" x="8" y="8" width="92" height="92">
<circle cx="53.9938" cy="53.9996" r="45.85" fill="#3E5E80" stroke="white" stroke-width="0.1"/>
</mask>
<g mask="url(#mask1_552_3189)">
<path d="M73.7969 54.8329L79.5728 53.0996H84.7022L89.9969 57.4996L87.6695 64.0427L97.1969 67.0496L76.4969 60.7496" stroke="white" stroke-width="4" stroke-miterlimit="10" stroke-linecap="round" stroke-linejoin="round"/>
<path d="M80.0938 39.5996L89.2017 54.0943M89.9937 39.5996V54.8996" stroke="white" stroke-width="4" stroke-miterlimit="10" stroke-linecap="round" stroke-linejoin="round"/>
<path d="M96.2953 46.7998L92.6953 55.7998" stroke="white" stroke-width="4" stroke-miterlimit="10" stroke-linecap="round" stroke-linejoin="round"/>
<path d="M85 63.8075L97.8 67.6495L101 62.635L94.6 55.6495C89.602 57.7109 87.7175 59.7737 85 63.8075Z" fill="white" stroke="white" stroke-width="3"/>
</g>
<defs>
<linearGradient id="paint0_linear_552_3189" x1="0" y1="0" x2="506.703" y2="108.001" gradientUnits="userSpaceOnUse">
<stop stop-color="#74E6FF"/>
<stop offset="1" stop-color="#5D9EFF"/>
</linearGradient>
</defs>
</svg>
