<svg width="96" height="96" viewBox="0 0 96 96" fill="none" xmlns="http://www.w3.org/2000/svg">
<path fill-rule="evenodd" clip-rule="evenodd" d="M48 90.6667C71.5641 90.6667 90.6667 71.5641 90.6667 48C90.6667 24.4359 71.5641 5.33333 48 5.33333C24.4359 5.33333 5.33333 24.4359 5.33333 48C5.33333 71.5641 24.4359 90.6667 48 90.6667ZM48 96C74.5097 96 96 74.5097 96 48C96 21.4903 74.5097 0 48 0C21.4903 0 0 21.4903 0 48C0 74.5097 21.4903 96 48 96Z" fill="url(#paint0_linear_529_2863)"/>
<path d="M47.9912 19.5542V48.2824" stroke="#517193" stroke-width="5" stroke-linecap="round" stroke-linejoin="round"/>
<path d="M47.9925 30.7298L39.5039 25.8271" stroke="#517193" stroke-width="5" stroke-linecap="round" stroke-linejoin="round"/>
<path d="M47.9912 30.7298L56.4798 25.8271" stroke="#517193" stroke-width="5" stroke-linecap="round" stroke-linejoin="round"/>
<path d="M47.9912 77.0049V48.2812" stroke="#517193" stroke-width="5" stroke-linecap="round" stroke-linejoin="round"/>
<path d="M47.9925 65.8293L39.5039 70.732" stroke="#517193" stroke-width="5" stroke-linecap="round" stroke-linejoin="round"/>
<path d="M47.9912 65.8293L56.4798 70.732" stroke="#517193" stroke-width="5" stroke-linecap="round" stroke-linejoin="round"/>
<path d="M23.1094 33.9172L47.9864 48.2836" stroke="#517193" stroke-width="5" stroke-linecap="round" stroke-linejoin="round"/>
<path d="M32.7903 39.5071L24.3018 44.4052" stroke="#517193" stroke-width="5" stroke-linecap="round" stroke-linejoin="round"/>
<path d="M32.7861 39.5078V29.707" stroke="#517193" stroke-width="5" stroke-linecap="round" stroke-linejoin="round"/>
<path d="M72.8634 62.647L47.9863 48.2852" stroke="#517193" stroke-width="5" stroke-linecap="round" stroke-linejoin="round"/>
<path d="M63.1914 57.0564V66.8616" stroke="#517193" stroke-width="5" stroke-linecap="round" stroke-linejoin="round"/>
<path d="M63.1914 57.0561L71.68 52.158" stroke="#517193" stroke-width="5" stroke-linecap="round" stroke-linejoin="round"/>
<path d="M23.1094 62.646L47.9864 48.2842" stroke="#517193" stroke-width="5" stroke-linecap="round" stroke-linejoin="round"/>
<path d="M32.7861 57.0542V66.8594" stroke="#517193" stroke-width="5" stroke-linecap="round" stroke-linejoin="round"/>
<path d="M32.7903 57.0558L24.3018 52.1577" stroke="#517193" stroke-width="5" stroke-linecap="round" stroke-linejoin="round"/>
<path d="M72.8634 33.917L47.9863 48.2833" stroke="#517193" stroke-width="5" stroke-linecap="round" stroke-linejoin="round"/>
<path d="M63.1914 39.5068L71.68 44.405" stroke="#517193" stroke-width="5" stroke-linecap="round" stroke-linejoin="round"/>
<path d="M63.1914 39.5078V29.707" stroke="#517193" stroke-width="5" stroke-linecap="round" stroke-linejoin="round"/>
<defs>
<linearGradient id="paint0_linear_529_2863" x1="0" y1="0" x2="326.129" y2="205.564" gradientUnits="userSpaceOnUse">
<stop stop-color="#74DEFF"/>
<stop offset="1" stop-color="#5E9EFF"/>
</linearGradient>
</defs>
</svg>
