<svg width="108" height="108" viewBox="0 0 108 108" fill="none" xmlns="http://www.w3.org/2000/svg">
<mask id="mask0_686_3770" style="mask-type:alpha" maskUnits="userSpaceOnUse" x="0" y="0" width="108" height="108">
<path d="M54 108C83.8234 108 108 83.8234 108 54C108 24.1766 83.8234 0 54 0C24.1766 0 0 24.1766 0 54C0 83.8234 24.1766 108 54 108Z" fill="#F6884E"/>
</mask>
<g mask="url(#mask0_686_3770)">
<path fill-rule="evenodd" clip-rule="evenodd" d="M-296.704 54C-296.704 80.5097 -318.194 102 -344.704 102C-371.214 102 -392.704 80.5097 -392.704 54C-392.704 27.4903 -371.214 6 -344.704 6C-318.194 6 -296.704 27.4903 -296.704 54ZM-344.704 108C-314.881 108 -290.704 83.8234 -290.704 54C-290.704 24.1766 -314.881 0 -344.704 0C-374.527 0 -398.704 24.1766 -398.704 54C-398.704 83.8234 -374.527 108 -344.704 108ZM-144.907 102C-118.397 102 -96.9067 80.5097 -96.9067 54C-96.9067 27.4903 -118.397 6 -144.907 6C-171.416 6 -192.907 27.4903 -192.907 54C-192.907 80.5097 -171.416 102 -144.907 102ZM-90.9067 54C-90.9067 83.8234 -115.083 108 -144.907 108C-174.73 108 -198.907 83.8234 -198.907 54C-198.907 24.1766 -174.73 0 -144.907 0C-115.083 0 -90.9067 24.1766 -90.9067 54ZM53.9994 102C80.5091 102 101.999 80.5097 101.999 54C101.999 27.4903 80.5091 6 53.9994 6C27.4897 6 5.99942 27.4903 5.99942 54C5.99942 80.5097 27.4897 102 53.9994 102ZM107.999 54C107.999 83.8234 83.8228 108 53.9994 108C24.1761 108 -0.000579834 83.8234 -0.000579834 54C-0.000579834 24.1766 24.1761 0 53.9994 0C83.8228 0 107.999 24.1766 107.999 54Z" fill="url(#paint0_linear_686_3770)"/>
</g>
<path fill-rule="evenodd" clip-rule="evenodd" d="M83.2754 71.2729C84.2037 71.8715 84.471 73.1093 83.8724 74.0376C82.3872 76.341 80.2627 78.5006 78.5791 80.0418C77.7253 80.8234 76.9596 81.4687 76.4055 81.9201C76.1281 82.1461 75.9028 82.3242 75.7448 82.4474C75.6658 82.509 75.6036 82.5569 75.56 82.5903L75.5089 82.6292L75.4942 82.6403L75.4882 82.6449C75.4879 82.645 75.4871 82.6457 74.2858 81.0466L75.4871 82.6457L74.3012 83.5366L68.8968 79.5799C68.0056 78.9273 67.812 77.6759 68.4645 76.7847C69.117 75.8934 70.3685 75.6999 71.2597 76.3524L74.2319 78.5284C74.693 78.1446 75.2609 77.6565 75.8782 77.0913C77.4742 75.6303 79.3026 73.7435 80.5107 71.8699C81.1093 70.9416 82.3471 70.6743 83.2754 71.2729Z" fill="white"/>
<path fill-rule="evenodd" clip-rule="evenodd" d="M35.1619 29.5667C34.7304 28.5499 33.5564 28.0754 32.5396 28.5068C24.6553 31.8522 21.0705 40.7364 19.9096 48.35C19.3175 52.2335 19.313 56.0189 19.7722 58.9977C20.0007 60.4797 20.3566 61.846 20.8653 62.9484C21.3359 63.9683 22.1261 65.1709 23.4587 65.6469C24.4989 66.0184 25.6434 65.4763 26.0149 64.4361C26.3759 63.4251 25.8741 62.3158 24.8907 61.9131C24.8573 61.8789 24.7055 61.7236 24.4973 61.2724C24.1993 60.6267 23.9211 59.6567 23.7255 58.3882C23.3367 55.866 23.3241 52.4934 23.8639 48.9529C24.9669 41.7187 28.2054 34.691 34.102 32.189C35.1188 31.7576 35.5933 30.5835 35.1619 29.5667Z" fill="white"/>
<path fill-rule="evenodd" clip-rule="evenodd" d="M73.5813 29.5667C74.0127 28.5499 75.1868 28.0754 76.2036 28.5068C84.0879 31.8522 87.6727 40.7364 88.8335 48.35C89.4256 52.2335 89.4302 56.0189 88.9709 58.9977C88.7424 60.4797 88.3866 61.846 87.8779 62.9484C87.4072 63.9683 86.6171 65.1709 85.2845 65.6469C84.2442 66.0184 83.0998 65.4763 82.7283 64.4361C82.3672 63.4251 82.8691 62.3158 83.8525 61.9131C83.8859 61.8789 84.0377 61.7236 84.2459 61.2724C84.5439 60.6267 84.8221 59.6567 85.0176 58.3882C85.4065 55.866 85.419 52.4934 84.8792 48.9529C83.7762 41.7187 80.5377 34.691 74.6412 32.189C73.6244 31.7576 73.1498 30.5835 73.5813 29.5667Z" fill="white"/>
<path fill-rule="evenodd" clip-rule="evenodd" d="M51.4418 52.0253C50.4321 51.8963 49.4178 51.729 48.3986 51.5448C47.4773 51.3783 46.5729 51.2024 45.6584 51.0245C44.2181 50.7444 42.7526 50.4594 41.1565 50.1984C36.0821 49.369 30.2782 48.8992 23.1002 50.2737C22.0153 50.4814 20.9674 49.7704 20.7597 48.6855C20.552 47.6007 21.263 46.5528 22.3479 46.3451C30.1336 44.8542 36.4387 45.3742 41.8018 46.2508C43.4317 46.5173 45.035 46.8285 46.535 47.1196C47.4361 47.2945 48.3 47.4622 49.11 47.6086C51.3439 48.0123 53.3331 48.289 55.2197 48.289C56.3243 48.289 57.2197 49.1844 57.2197 50.289C57.2197 50.9384 56.9102 51.5155 56.4306 51.8809C56.9102 52.2462 57.2197 52.8233 57.2197 53.4727C57.2197 54.5773 56.3243 55.4727 55.2197 55.4727H55.2197C54.1765 55.4727 53.5579 55.4965 53.1085 55.6645C52.9329 55.7301 52.8304 55.8044 52.7539 55.889C52.6753 55.9759 52.5491 56.1569 52.446 56.5399C51.8774 58.6508 51.0685 60.9969 49.9882 62.9301C48.9729 64.747 47.4126 66.7525 45.1054 67.214C42.4407 67.7469 38.2531 67.7539 34.2877 67.4585C30.3224 67.1631 26.2168 66.5382 23.7254 65.6485C22.6852 65.277 22.1431 64.1325 22.5146 63.0923C22.8861 62.0521 24.0305 61.51 25.0707 61.8815C27.0367 62.5836 30.7008 63.1802 34.5848 63.4695C38.4687 63.7589 42.21 63.7138 44.321 63.2916C44.7854 63.1987 45.5779 62.6224 46.4965 60.9788C47.35 59.4514 48.0561 57.4581 48.5836 55.4996C49.0611 53.7267 50.1049 52.6085 51.4418 52.0253Z" fill="white"/>
<path fill-rule="evenodd" clip-rule="evenodd" d="M57.8345 52.0253C58.8443 51.8963 59.8585 51.729 60.8777 51.5448C61.799 51.3783 62.7034 51.2024 63.618 51.0245C65.0583 50.7444 66.5238 50.4594 68.1199 50.1984C73.1943 49.369 78.9982 48.8992 86.1762 50.2737C87.2611 50.4814 88.3089 49.7704 88.5167 48.6855C88.7244 47.6007 88.0134 46.5528 86.9285 46.3451C79.1427 44.8542 72.8377 45.3742 67.4746 46.2508C65.8446 46.5173 64.2414 46.8285 62.7414 47.1196C61.8403 47.2945 60.9764 47.4622 60.1663 47.6086C57.9325 48.0123 55.9433 48.289 54.0566 48.289C52.9521 48.289 52.0566 49.1844 52.0566 50.289C52.0566 50.9384 52.3662 51.5155 52.8457 51.8809C52.3662 52.2462 52.0566 52.8233 52.0566 53.4727C52.0566 54.5773 52.9521 55.4727 54.0566 55.4727H54.0566C55.0999 55.4727 55.7184 55.4965 56.1679 55.6645C56.3435 55.7301 56.4459 55.8044 56.5225 55.889C56.6011 55.9759 56.7273 56.1569 56.8304 56.5399C57.399 58.6508 58.2078 60.9969 59.2881 62.9301C60.3035 64.747 61.8637 66.7525 64.1709 67.214C66.8356 67.7469 71.0232 67.7539 74.9887 67.4585C78.954 67.1631 83.0596 66.5382 85.551 65.6485C86.5912 65.277 87.1333 64.1325 86.7618 63.0923C86.3903 62.0521 85.2458 61.51 84.2056 61.8815C82.2397 62.5836 78.5756 63.1802 74.6916 63.4695C70.8077 63.7589 67.0664 63.7138 64.9554 63.2916C64.4909 63.1987 63.6984 62.6224 62.7799 60.9788C61.9264 59.4514 61.2203 57.4581 60.6928 55.4996C60.2153 53.7267 59.1715 52.6085 57.8345 52.0253Z" fill="white"/>
<defs>
<linearGradient id="paint0_linear_686_3770" x1="-398.704" y1="0" x2="107.999" y2="108.001" gradientUnits="userSpaceOnUse">
<stop stop-color="#74E6FF"/>
<stop offset="1" stop-color="#5D9EFF"/>
</linearGradient>
</defs>
</svg>
