<svg width="96" height="96" viewBox="0 0 96 96" fill="none" xmlns="http://www.w3.org/2000/svg">
<path fill-rule="evenodd" clip-rule="evenodd" d="M48 5.33333C24.4359 5.33333 5.33333 24.4359 5.33333 48C5.33333 71.5641 24.4359 90.6667 48 90.6667C49.4728 90.6667 50.6667 91.8606 50.6667 93.3333C50.6667 94.8061 49.4728 96 48 96C21.4903 96 0 74.5097 0 48C0 21.4903 21.4903 0 48 0C74.5097 0 96 21.4903 96 48C96 49.4728 94.8061 50.6667 93.3333 50.6667C91.8606 50.6667 90.6667 49.4728 90.6667 48C90.6667 24.4359 71.5641 5.33333 48 5.33333Z" fill="#5EA3FF"/>
<path d="M73.3839 55.9755L76.2323 56.9174C76.5794 55.8676 76.3209 54.712 75.5597 53.9101C74.7984 53.1082 73.6578 52.79 72.5914 53.0821L73.3839 55.9755ZM39.0236 23.9343L41.9656 24.5216C42.1791 23.452 41.7953 22.3508 40.9632 21.6457C40.1312 20.9405 38.982 20.7425 37.9619 21.1285L39.0236 23.9343ZM72.5914 53.0821C70.5203 53.6495 68.337 53.9533 66.078 53.9533V59.9533C68.8775 59.9533 71.5937 59.5764 74.1765 58.869L72.5914 53.0821ZM66.078 53.9533C52.4981 53.9533 41.4894 42.9446 41.4894 29.3647H35.4894C35.4894 46.2583 49.1844 59.9533 66.078 59.9533V53.9533ZM41.4894 29.3647C41.4894 27.7041 41.6535 26.085 41.9656 24.5216L36.0817 23.3471C35.6928 25.2951 35.4894 27.3076 35.4894 29.3647H41.4894ZM25.2188 47.9998C25.2188 38.3392 31.3595 30.0422 40.0854 26.7402L37.9619 21.1285C27.0285 25.2658 19.2188 35.7131 19.2188 47.9998H25.2188ZM48.441 70.7776C35.5671 70.7776 25.2188 60.5315 25.2188 47.9998H19.2188C19.2188 63.9415 32.3505 76.7776 48.441 76.7776V70.7776ZM70.5356 55.0337C67.5219 64.148 58.7871 70.7776 48.441 70.7776V76.7776C61.3957 76.7776 72.4127 68.469 76.2323 56.9174L70.5356 55.0337Z" fill="#517193"/>
<path d="M64.5071 35.5556H57.649C56.8194 35.5556 56.3505 34.6035 56.8564 33.9458L63.2688 25.6097C63.7747 24.9521 63.3059 24 62.4762 24H55.6182" stroke="#517193" stroke-width="6" stroke-linecap="round" stroke-linejoin="round"/>
</svg>
