<svg width="119" height="132" viewBox="0 0 119 132" fill="none" xmlns="http://www.w3.org/2000/svg">
<path fill-rule="evenodd" clip-rule="evenodd" d="M61.1924 34.3771C57.4953 33.0932 53.0727 33.5593 45.586 37.9577C43.167 39.3788 40.7723 42.3876 38.3593 46.4125C36.1889 50.0328 34.124 54.2609 32.0704 58.4659C31.8667 58.8829 31.6631 59.2997 31.4596 59.7157C29.2279 64.2764 26.9861 68.7632 24.6808 72.1083C24.1403 72.8927 23.5851 73.6312 23.0133 74.3036C27.4671 72.6645 31.2275 68.7098 34.3955 64.0076C36.6362 60.6817 38.4792 57.1273 39.9701 54.0827C40.3295 53.3489 40.6995 52.5796 41.0463 51.8588C41.3753 51.1747 41.6834 50.5343 41.9414 50.0092C42.5002 48.8721 43.0211 47.8633 43.4837 47.1847C43.7897 46.7357 44.3074 46.4763 44.852 46.4991C45.3966 46.5218 45.8906 46.8234 46.1578 47.2963C55.3834 63.6233 52.2541 82.2082 45.1399 96.5465C41.5747 103.732 36.9694 109.941 32.2901 114.376C27.996 118.446 23.4018 121.244 19.3501 121.602L14.8903 128.261C15.6771 127.988 16.5064 127.61 17.4904 127.121C18.0162 126.859 18.5839 126.567 19.2074 126.245C21.3887 125.121 24.2527 123.645 28.3933 121.912C43.2836 115.678 56.4843 103.614 64.4204 89.8363C64.8528 89.0856 65.8146 88.826 66.5686 89.2564C67.3227 89.6869 67.5835 90.6443 67.1511 91.395C58.892 105.733 45.1769 118.285 29.6136 124.8C25.6014 126.48 22.8785 127.883 20.7025 129.004C20.0595 129.335 19.4643 129.642 18.8976 129.924C16.391 131.171 14.4042 131.951 11.5768 131.951C10.9964 131.951 10.463 131.633 10.1892 131.124C9.91527 130.614 9.9453 129.996 10.2673 129.515L17.1722 119.205C17.4641 118.769 17.9555 118.507 18.4817 118.507C21.4751 118.507 25.6581 116.335 30.1196 112.107C34.5058 107.95 38.8996 102.048 42.3176 95.1589C48.7824 82.1292 51.6171 65.8873 44.7546 51.4155C44.4687 51.9976 44.1895 52.5789 43.8885 53.2054C43.563 53.8832 43.2119 54.6139 42.7996 55.4559C41.2902 58.5382 39.3724 62.2462 37.0098 65.753C32.3646 72.6478 25.5776 79.3741 16.2928 78.0928C15.4734 77.9798 14.8818 77.2546 14.9387 76.4331C14.9956 75.6116 15.6817 74.9741 16.5089 74.9741C17.2166 74.9741 18.0373 74.6677 19.0108 73.8786C19.9879 73.0866 21.012 71.893 22.0851 70.3357C24.2347 67.2164 26.3769 62.9475 28.6297 58.3434C28.8346 57.9247 29.0403 57.5034 29.2469 57.0803C31.2874 52.9013 33.4124 48.5495 35.6563 44.8067C38.1 40.7305 40.8336 37.1112 43.9861 35.2591C51.8206 30.6563 57.2621 29.6935 62.2292 31.4184C64.6369 32.2545 66.8134 33.6842 68.9968 35.39C70.3239 36.4268 71.7255 37.6258 73.2057 38.892C74.1217 39.6757 75.0678 40.4851 76.045 41.2977C80.8421 45.2868 86.7892 45.7974 92.1718 45.647C93.3747 45.6135 94.5291 45.5481 95.6343 45.4855C95.7595 45.4784 95.8841 45.4713 96.008 45.4644C97.2113 45.3967 98.3707 45.3361 99.409 45.3397C100.436 45.3433 101.443 45.4085 102.322 45.6328C103.204 45.8578 104.124 46.2861 104.75 47.1429C105.018 47.5098 105.114 47.9744 105.011 48.4164C104.909 48.8585 104.619 49.2347 104.217 49.4477C103.74 49.6999 103.24 49.9746 102.716 50.2622C99.1659 52.2113 94.5282 54.7574 88.9203 54.9492C84.1278 55.1131 78.7962 53.5828 72.8154 49.03C74.5753 53.6016 75.3888 58.405 75.3841 63.2862C75.3833 64.1515 74.678 64.8523 73.8087 64.8515C72.9395 64.8506 72.2355 64.1485 72.2364 63.2832C72.2434 55.8806 70.2265 48.7467 65.6988 42.4278C65.2163 41.7543 65.3428 40.8234 65.9879 40.3018C66.633 39.7802 67.5742 39.8478 68.1375 40.4561C76.6564 49.6566 83.4378 52.0013 88.8122 51.8175C92.8604 51.679 96.2925 50.1298 99.421 48.4734C99.4133 48.4733 99.4056 48.4733 99.3979 48.4733C98.4684 48.47 97.4007 48.5246 96.1855 48.5929C96.0622 48.5999 95.9375 48.6069 95.8115 48.6141C94.711 48.6764 93.511 48.7444 92.2601 48.7794C86.71 48.9344 79.7516 48.463 74.0269 43.7025C72.9648 42.8193 71.9877 41.9828 71.0646 41.1926C69.637 39.9705 68.3384 38.8589 67.0535 37.8551C64.9725 36.2294 63.1168 35.0453 61.1924 34.3771Z" fill="#517193"/>
<path fill-rule="evenodd" clip-rule="evenodd" d="M41.6772 12.7793C37.8604 16.1815 37.5367 22.0197 40.9544 25.8193C44.372 29.6188 50.2367 29.941 54.0536 26.5389C57.8704 23.1367 58.1941 17.2985 54.7764 13.4989C51.3588 9.69933 45.4941 9.37715 41.6772 12.7793ZM38.6093 27.9096C34.0319 22.8207 34.4654 15.0015 39.5774 10.4448C44.6894 5.88823 52.5442 6.31973 57.1215 11.4086C61.6988 16.4975 61.2654 24.3167 56.1534 28.8733C51.0413 33.4299 43.1866 32.9984 38.6093 27.9096Z" fill="#517193"/>
<path fill-rule="evenodd" clip-rule="evenodd" d="M100.74 81.0153C100.106 88.0501 98.0037 96.6638 94.1756 106.826C93.0348 109.854 93.1431 111.568 93.582 112.91C93.819 113.634 94.1747 114.319 94.6306 115.131C94.7049 115.263 94.7823 115.4 94.862 115.54C95.2544 116.232 95.7015 117.02 96.1055 117.897C96.3067 118.334 96.2953 118.839 96.0745 119.266C95.8537 119.694 95.4479 119.997 94.9738 120.088C93.2092 120.428 91.601 119.924 90.275 119.131C88.9624 118.345 87.8398 117.227 86.9472 116.152C86.0465 115.067 85.3271 113.961 84.8354 113.134C84.5883 112.718 84.3954 112.367 84.2628 112.117C84.1965 111.992 84.1451 111.891 84.1094 111.821C84.098 111.798 84.0883 111.779 84.0801 111.762C84.0754 111.753 84.0712 111.744 84.0676 111.737L84.0557 111.713L84.052 111.705L84.0502 111.701C84.05 111.701 84.0498 111.701 85.4683 111.022L84.0498 111.701C83.8838 111.357 83.8494 110.965 83.9531 110.598C83.9531 110.598 83.9531 110.598 83.9531 110.598L83.9532 110.597L83.9544 110.593L83.9602 110.572C83.9656 110.552 83.9741 110.522 83.9853 110.48C84.0077 110.397 84.0412 110.27 84.0837 110.102C84.1688 109.767 84.2901 109.27 84.4312 108.632C84.7136 107.355 85.0749 105.52 85.3863 103.3C86.0105 98.851 86.4261 92.9126 85.6296 86.8672C85.2441 83.9418 84.3489 81.9916 83.2752 80.8573C82.254 79.7786 80.9874 79.3395 79.4715 79.5532C77.8833 79.7771 75.9232 80.7411 73.7579 82.7197C71.6059 84.6862 69.3357 87.58 67.1342 91.485C66.7088 92.2396 65.7494 92.508 64.9914 92.0845C64.2334 91.661 63.9637 90.706 64.3892 89.9514C66.7087 85.8371 69.1723 82.6563 71.6292 80.4112C74.0729 78.1783 76.5968 76.7937 79.0301 76.4506C81.5358 76.0973 83.8282 76.8726 85.566 78.7082C87.2512 80.4884 88.3149 83.1525 88.7506 86.4597C89.5965 92.8796 89.1511 99.1202 88.5038 103.734C88.1794 106.046 87.8024 107.963 87.5053 109.306C87.3614 109.956 87.2361 110.473 87.1443 110.836C87.2487 111.027 87.383 111.266 87.5448 111.538C87.983 112.276 88.6096 113.236 89.3735 114.156C90.086 115.014 90.874 115.784 91.6921 116.317C91.2851 115.577 90.8815 114.775 90.5889 113.88C89.877 111.703 89.9031 109.243 91.2283 105.725C94.9914 95.7359 97.0038 87.4066 97.6047 80.7354C98.2078 74.0399 97.3769 69.1568 95.6185 65.9339C93.9072 62.7977 91.272 61.134 87.8484 60.8552C84.328 60.5686 79.8526 61.745 74.6558 64.65C73.8979 65.0737 72.9384 64.8055 72.5128 64.051C72.0872 63.2965 72.3566 62.3414 73.1146 61.9177C78.6039 58.8493 83.7214 57.3751 88.105 57.7321C92.5855 58.0969 96.1654 60.3711 98.3845 64.4383C100.557 68.4189 101.371 74.0048 100.74 81.0153Z" fill="#517193"/>
<path fill-rule="evenodd" clip-rule="evenodd" d="M54.6643 5.36359C55.2103 4.7263 56.1632 4.62918 56.8276 5.14312L59.4665 7.18448C60.1528 7.71543 60.2769 8.69975 59.7435 9.38301C59.2101 10.0663 58.2214 10.1897 57.535 9.65879L56.0943 8.54431C54.2585 10.7647 52.0358 13.6622 50.4144 16.2386C49.4433 17.7819 48.7548 19.1062 48.4571 20.0565C48.3688 20.3382 48.3316 20.5362 48.3175 20.664C48.8709 21.1031 49.0742 21.8762 48.7647 22.5446C48.4009 23.3304 47.466 23.6739 46.6765 23.3117C45.761 22.8917 45.3092 22.0876 45.1947 21.269C45.0931 20.5419 45.2445 19.786 45.4521 19.1235C45.8748 17.7744 46.7423 16.1713 47.7468 14.5751C49.7794 11.3451 52.6484 7.71667 54.6643 5.36359Z" fill="#517193"/>
<path fill-rule="evenodd" clip-rule="evenodd" d="M112.308 41.6631C112.024 40.8438 112.455 39.9405 113.271 39.6455L116.646 38.425C117.462 38.1299 118.354 38.5549 118.638 39.3741C118.922 40.1934 118.491 41.0967 117.676 41.3918L114.3 42.6123C113.484 42.9073 112.593 42.4824 112.308 41.6631Z" fill="#517193"/>
<path fill-rule="evenodd" clip-rule="evenodd" d="M100.351 13.4628C101.028 14.0132 101.132 14.9981 100.584 15.6627L98.3297 18.3939C97.7812 19.0584 96.7877 19.151 96.1106 18.6006C95.4336 18.0502 95.3294 17.0653 95.8779 16.4007L98.1321 13.6695C98.6806 13.005 99.6742 12.9124 100.351 13.4628Z" fill="#517193"/>
<path fill-rule="evenodd" clip-rule="evenodd" d="M71.5944 0.116146C72.4548 0.271664 73.0348 1.08438 72.89 1.93139L72.2917 5.43112C72.1469 6.27813 71.3321 6.8387 70.4717 6.68318C69.6114 6.52766 69.0313 5.71495 69.1761 4.86794L69.7745 1.36821C69.9193 0.521195 70.7341 -0.0393717 71.5944 0.116146Z" fill="#517193"/>
<path fill-rule="evenodd" clip-rule="evenodd" d="M13.9338 20.9489C14.4992 20.3015 15.4962 20.2369 16.1607 20.8047L18.9063 23.1509C19.5708 23.7187 19.6511 24.7038 19.0857 25.3513C18.5203 25.9987 17.5233 26.0632 16.8588 25.4954L14.1132 23.1493C13.4487 22.5815 13.3684 21.5963 13.9338 20.9489Z" fill="#517193"/>
<path fill-rule="evenodd" clip-rule="evenodd" d="M0.507536 49.564C0.675775 48.7193 1.50527 48.177 2.36027 48.3529L5.87411 49.0755C6.72911 49.2513 7.28584 50.0786 7.1176 50.9234C6.94936 51.7681 6.11986 52.3104 5.26487 52.1345L1.75102 51.4119C0.896024 51.2361 0.339297 50.4088 0.507536 49.564Z" fill="#517193"/>
<path fill-rule="evenodd" clip-rule="evenodd" d="M3.29306 81.16C3.00689 80.3414 3.43639 79.4385 4.25239 79.1434L7.59533 77.9345C8.41132 77.6394 9.3048 78.0638 9.59097 78.8825C9.87715 79.7011 9.44764 80.604 8.63165 80.8991L5.28871 82.108C4.47271 82.4031 3.57923 81.9787 3.29306 81.16Z" fill="#517193"/>
</svg>
