<svg width="166" height="175" viewBox="0 0 166 175" fill="none" xmlns="http://www.w3.org/2000/svg">
<path fill-rule="evenodd" clip-rule="evenodd" d="M41.7636 9.24658C43.237 9.24658 44.4315 10.4475 44.4315 11.9288C44.4315 13.2494 44.9358 13.818 46.2169 15.0678C46.2424 15.0927 46.2683 15.1179 46.2944 15.1434C47.6118 16.4271 49.6223 18.3861 49.6223 22.0566C49.6223 25.7271 47.6118 27.6862 46.2944 28.9699C46.2683 28.9953 46.2424 29.0205 46.2169 29.0455C44.9358 30.2952 44.4315 30.8638 44.4315 32.1844C44.4315 33.6658 43.237 34.8667 41.7636 34.8667C40.2902 34.8667 39.0957 33.6658 39.0957 32.1844C39.0957 28.5139 41.1062 26.5549 42.4236 25.2712C42.4497 25.2457 42.4756 25.2205 42.5011 25.1956C43.7822 23.9458 44.2865 23.3772 44.2865 22.0566C44.2865 20.736 43.7822 20.1674 42.5011 18.9177C42.4756 18.8927 42.4497 18.8675 42.4236 18.8421C41.1062 17.5584 39.0957 15.5993 39.0957 11.9288C39.0957 10.4475 40.2902 9.24658 41.7636 9.24658Z" fill="#517193"/>
<path fill-rule="evenodd" clip-rule="evenodd" d="M106.068 9.24658C107.542 9.24658 108.736 10.4475 108.736 11.9288C108.736 13.2494 109.241 13.818 110.522 15.0678C110.547 15.0927 110.573 15.1179 110.599 15.1434C111.916 16.4271 113.927 18.3861 113.927 22.0566C113.927 25.7271 111.916 27.6862 110.599 28.9699C110.573 28.9953 110.547 29.0205 110.522 29.0455C109.241 30.2952 108.736 30.8638 108.736 32.1844C108.736 33.6658 107.542 34.8667 106.068 34.8667C104.595 34.8667 103.4 33.6658 103.4 32.1844C103.4 28.5139 105.411 26.5549 106.728 25.2712C106.754 25.2457 106.78 25.2205 106.806 25.1956C108.087 23.9458 108.591 23.3772 108.591 22.0566C108.591 20.736 108.087 20.1674 106.806 18.9177C106.78 18.8927 106.754 18.8675 106.728 18.8421C105.411 17.5584 103.4 15.5993 103.4 11.9288C103.4 10.4475 104.595 9.24658 106.068 9.24658Z" fill="#517193"/>
<path fill-rule="evenodd" clip-rule="evenodd" d="M73.9496 -0.239258C75.4231 -0.239258 76.6175 0.961619 76.6175 2.44298C76.6175 3.76357 77.1219 4.3322 78.4029 5.58192C78.4285 5.60686 78.4543 5.63207 78.4805 5.65754C79.7978 6.94122 81.8083 8.9003 81.8083 12.5708C81.8083 16.2413 79.7978 18.2004 78.4805 19.484C78.4543 19.5095 78.4285 19.5347 78.4029 19.5597C77.1219 20.8094 76.6175 21.378 76.6175 22.6986C76.6175 24.18 75.4231 25.3808 73.9496 25.3808C72.4762 25.3808 71.2817 24.18 71.2817 22.6986C71.2817 19.0281 73.2922 17.069 74.6096 15.7853C74.6357 15.7599 74.6616 15.7347 74.6872 15.7097C75.9682 14.46 76.4725 13.8914 76.4725 12.5708C76.4725 11.2502 75.9682 10.6816 74.6872 9.43184C74.6616 9.4069 74.6357 9.3817 74.6096 9.35623C73.2922 8.07255 71.2817 6.11346 71.2817 2.44298C71.2817 0.961619 72.4762 -0.239258 73.9496 -0.239258Z" fill="#517193"/>
<path fill-rule="evenodd" clip-rule="evenodd" d="M145.703 95.7555C145.703 94.2741 146.897 93.0732 148.371 93.0732C154.398 93.0732 158.851 95.6393 161.741 99.2554C164.565 102.79 165.832 107.235 165.832 111.09C165.832 122.679 154.638 131.175 142.012 131.175H132.279C130.806 131.175 129.611 129.974 129.611 128.493C129.611 127.011 130.806 125.81 132.279 125.81H142.012C152.745 125.81 160.497 118.758 160.497 111.09C160.497 108.312 159.558 105.09 157.581 102.615C155.669 100.222 152.725 98.4377 148.371 98.4377C146.897 98.4377 145.703 97.2368 145.703 95.7555Z" fill="#517193"/>
<path fill-rule="evenodd" clip-rule="evenodd" d="M138.2 115.04C139.594 115.519 140.339 117.043 139.864 118.445C136.679 127.83 128.392 140.167 116.979 150.368C113.571 159.758 106.572 165.782 98.5503 169.431C90.3802 173.148 81.0381 174.466 72.9076 174.466C71.4342 174.466 70.2397 173.266 70.2397 171.784C70.2397 170.303 71.4342 169.102 72.9076 169.102C80.5443 169.102 89.078 167.853 96.3506 164.544C103.578 161.256 109.445 156.001 112.168 147.954C112.319 147.509 112.584 147.111 112.936 146.801C124.09 136.978 131.948 125.157 134.814 116.713C135.289 115.311 136.805 114.562 138.2 115.04Z" fill="#517193"/>
<path fill-rule="evenodd" clip-rule="evenodd" d="M7.62113 115.04C9.01564 114.562 10.5318 115.311 11.0076 116.713C13.873 125.157 21.7309 136.978 32.8853 146.801C33.2375 147.111 33.5024 147.509 33.6532 147.954C36.3764 156.001 42.2434 161.256 49.4705 164.544C56.7431 167.853 65.2768 169.102 72.9135 169.102C74.3869 169.102 75.5814 170.303 75.5814 171.784C75.5814 173.266 74.3869 174.466 72.9135 174.466C64.783 174.466 55.4409 173.148 47.2708 169.431C39.2489 165.782 32.2501 159.758 28.8422 150.368C17.4291 140.167 9.14246 127.83 5.9576 118.445C5.48183 117.043 6.22662 115.519 7.62113 115.04Z" fill="#517193"/>
<path fill-rule="evenodd" clip-rule="evenodd" d="M25.2699 52.5662C13.1631 60.1103 6.21664 70.1827 6.21664 80.8486C6.21664 91.5144 13.1631 101.587 25.2699 109.131C37.3362 116.65 54.173 121.388 72.9109 121.388C91.6488 121.388 108.486 116.65 120.552 109.131C132.659 101.587 139.605 91.5144 139.605 80.8486C139.605 70.1827 132.659 60.1103 120.552 52.5662C108.486 45.0474 91.6488 40.3093 72.9109 40.3093C54.173 40.3093 37.3362 45.0474 25.2699 52.5662ZM22.459 48.0065C35.4969 39.8822 53.3412 34.9448 72.9109 34.9448C92.4807 34.9448 110.325 39.8822 123.363 48.0065C136.36 56.1055 144.941 67.6438 144.941 80.8486C144.941 94.0533 136.36 105.592 123.363 113.691C110.325 121.815 92.4807 126.752 72.9109 126.752C53.3412 126.752 35.4969 121.815 22.459 113.691C9.46163 105.592 0.880859 94.0533 0.880859 80.8486C0.880859 67.6438 9.46163 56.1055 22.459 48.0065Z" fill="#517193"/>
<path fill-rule="evenodd" clip-rule="evenodd" d="M36.4497 72.6837C27.0867 77.3839 22.3128 83.3779 22.3128 89.1934C22.3128 90.6747 21.1184 91.8756 19.6449 91.8756C18.1715 91.8756 16.9771 90.6747 16.9771 89.1934C16.9771 80.2451 24.142 72.8661 34.0661 67.8842C44.152 62.8211 57.8946 59.7651 72.9156 59.7651C87.9366 59.7651 101.679 62.8211 111.765 67.8842C121.689 72.8661 128.854 80.2451 128.854 89.1934C128.854 90.6747 127.66 91.8756 126.186 91.8756C124.713 91.8756 123.518 90.6747 123.518 89.1934C123.518 83.3779 118.744 77.3839 109.381 72.6837C100.18 68.0647 87.2876 65.1296 72.9156 65.1296C58.5436 65.1296 45.6509 68.0647 36.4497 72.6837Z" fill="#517193"/>
</svg>
