<svg width="345" height="449" viewBox="0 0 345 449" fill="none" xmlns="http://www.w3.org/2000/svg">
<path d="M117.065 381.82C105.536 390.922 82.4792 448.568 47.2851 434.611C77.6248 400.024 84.9069 356.335 119.492 353.908C107.361 313.968 93.6704 273.337 69.0888 239.223C9.62297 156.699 54.893 51.7239 171.398 51.7239C287.902 51.7239 314.236 154.272 279.645 219.199C260.895 254.393 236.564 262.282 217.756 353.908C252.341 356.335 274.178 425.712 268.717 444.32C237.173 431.577 226.858 382.427 215.328 373.325" stroke="#517193" stroke-width="8" stroke-miterlimit="10" stroke-linecap="round" stroke-linejoin="round"/>
<path d="M340.231 179.228L336.602 178.91" stroke="#517193" stroke-width="8.5039" stroke-miterlimit="10" stroke-linecap="round" stroke-linejoin="round"/>
<path d="M4.99947 179.228L8.62891 178.91" stroke="#517193" stroke-width="8.5039" stroke-miterlimit="10" stroke-linecap="round" stroke-linejoin="round"/>
<path d="M297.25 51.1198L294.543 53.5559" stroke="#517193" stroke-width="8.5039" stroke-miterlimit="10" stroke-linecap="round" stroke-linejoin="round"/>
<path d="M289.93 294.319L287.402 291.697" stroke="#517193" stroke-width="8.5039" stroke-miterlimit="10" stroke-linecap="round" stroke-linejoin="round"/>
<path d="M55.9229 289.587L59.0781 287.767" stroke="#517193" stroke-width="8.5039" stroke-miterlimit="10" stroke-linecap="round" stroke-linejoin="round"/>
<path d="M46.0347 51.9646L48.7422 54.4006" stroke="#517193" stroke-width="8.5039" stroke-miterlimit="10" stroke-linecap="round" stroke-linejoin="round"/>
<path d="M173.828 5.0001L173.828 8.64087" stroke="#517193" stroke-width="8.5039" stroke-miterlimit="10" stroke-linecap="round" stroke-linejoin="round"/>
<path d="M215.934 373.931C211.686 363.615 111.587 360.757 124.914 373.932C131.318 380.262 209.614 388.47 205.618 400.631C201.982 411.697 124.922 386.403 129.162 400.631C132.506 411.853 201.705 419.578 200.157 427.33C198.768 434.286 136.444 434.611 131.589 427.33" stroke="#517193" stroke-width="8" stroke-miterlimit="10" stroke-linecap="round" stroke-linejoin="round"/>
<path d="M203.831 247.111C192.302 264.102 154.679 263.495 161.354 346.626" stroke="#517193" stroke-width="8" stroke-miterlimit="10" stroke-linecap="round" stroke-linejoin="round"/>
<path d="M126.123 247C149.5 271 198.938 255.924 203.793 247" stroke="#517193" stroke-width="8" stroke-miterlimit="10" stroke-linecap="round" stroke-linejoin="round"/>
<ellipse rx="7.28153" ry="8.49512" transform="matrix(-0.965926 -0.258819 -0.258819 0.965926 200.936 197.96)" fill="#517193"/>
<ellipse cx="139.521" cy="197.128" rx="7.28153" ry="8.49512" transform="rotate(-15 139.521 197.128)" fill="#517193"/>
</svg>
