<svg width="24" height="21" viewBox="0 0 24 21" fill="none" xmlns="http://www.w3.org/2000/svg">
<path d="M12 2.69947C14.9527 2.69947 17.6805 4.42389 18.949 7.09201L19.1122 7.43615L21.5494 6.27863L21.3855 5.93376C19.673 2.32925 15.9888 0 12 0C7.57618 0 3.69088 2.74713 2.22198 6.87155L0 6.36203L2.08863 13.162L6.93409 7.95461L4.88194 7.48307C6.0462 4.6049 8.85515 2.69947 12 2.69947Z" fill="url(#paint0_linear_705_4297)"/>
<path d="M17.0665 12.8188L19.1186 13.2903C17.9544 16.1685 15.1454 18.0739 12.0006 18.0739C9.04786 18.0739 6.32008 16.3495 5.05157 13.6814L4.88843 13.3372L2.45117 14.4948L2.61504 14.8397C4.32754 18.4441 8.01173 20.7734 12.0006 20.7734C16.4244 20.7734 20.3097 18.0262 21.7786 13.9019L24.0006 14.4113L21.912 7.61133L17.0665 12.8188Z" fill="url(#paint1_linear_705_4297)"/>
<defs>
<linearGradient id="paint0_linear_705_4297" x1="13.7676" y1="0" x2="13.7676" y2="13.162" gradientUnits="userSpaceOnUse">
<stop stop-color="#74E6FF"/>
<stop offset="1" stop-color="#5D9EFF"/>
</linearGradient>
<linearGradient id="paint1_linear_705_4297" x1="16.2188" y1="7.61133" x2="16.2188" y2="20.7734" gradientUnits="userSpaceOnUse">
<stop stop-color="#74E6FF"/>
<stop offset="1" stop-color="#5D9EFF"/>
</linearGradient>
</defs>
</svg>
