<svg width="108" height="108" viewBox="0 0 108 108" fill="none" xmlns="http://www.w3.org/2000/svg">
<mask id="mask0_551_3137" style="mask-type:alpha" maskUnits="userSpaceOnUse" x="0" y="0" width="108" height="108">
<rect width="108" height="108" fill="#C4C4C4"/>
</mask>
<g mask="url(#mask0_551_3137)">
<path d="M54 108C83.8234 108 108 83.8234 108 54C108 24.1766 83.8234 0 54 0C24.1766 0 0 24.1766 0 54C0 83.8234 24.1766 108 54 108Z" fill="url(#paint0_linear_551_3137)"/>
<path fill-rule="evenodd" clip-rule="evenodd" d="M27.9492 34.7324C27.9492 30.8128 31.1267 27.6353 35.0464 27.6353H73.4222C77.3419 27.6353 80.5194 30.8128 80.5194 34.7324V73.1083C80.5194 77.0279 77.3419 80.2054 73.4222 80.2054H35.0464C31.1267 80.2054 27.9492 77.0279 27.9492 73.1083V34.7324ZM35.0464 32.3721C33.7428 32.3721 32.6861 33.4288 32.6861 34.7324V73.1083C32.6861 74.4118 33.7428 75.4686 35.0464 75.4686H73.4222C74.7258 75.4686 75.7825 74.4118 75.7825 73.1083V34.7324C75.7825 33.4288 74.7258 32.3721 73.4222 32.3721H35.0464Z" fill="white"/>
<path fill-rule="evenodd" clip-rule="evenodd" d="M65.1008 23.5978C66.4089 23.5978 67.4693 24.6582 67.4693 25.9662V33.1474C67.4693 34.4555 66.4089 35.5159 65.1008 35.5159C63.7928 35.5159 62.7324 34.4555 62.7324 33.1474V25.9662C62.7324 24.6582 63.7928 23.5978 65.1008 23.5978Z" fill="white"/>
<path fill-rule="evenodd" clip-rule="evenodd" d="M43.3694 23.5978C44.6774 23.5978 45.7378 24.6582 45.7378 25.9662V33.1474C45.7378 34.4555 44.6774 35.5159 43.3694 35.5159C42.0614 35.5159 41.001 34.4555 41.001 33.1474V25.9662C41.001 24.6582 42.0614 23.5978 43.3694 23.5978Z" fill="white"/>
<path d="M43.4375 44.7504C44.5836 44.7504 45.5127 43.8213 45.5127 42.6752C45.5127 41.5291 44.5836 40.6 43.4375 40.6C42.2914 40.6 41.3623 41.5291 41.3623 42.6752C41.3623 43.8213 42.2914 44.7504 43.4375 44.7504Z" fill="white"/>
<path d="M54.3115 44.7504C55.4576 44.7504 56.3867 43.8213 56.3867 42.6752C56.3867 41.5291 55.4576 40.6 54.3115 40.6C53.1654 40.6 52.2363 41.5291 52.2363 42.6752C52.2363 43.8213 53.1654 44.7504 54.3115 44.7504Z" fill="white"/>
<path d="M65.1719 44.7497C66.318 44.7497 67.2471 43.8207 67.2471 42.6746C67.2471 41.5285 66.318 40.5994 65.1719 40.5994C64.0258 40.5994 63.0967 41.5285 63.0967 42.6746C63.0967 43.8207 64.0258 44.7497 65.1719 44.7497Z" fill="white"/>
<path d="M43.4375 56.052C44.5836 56.052 45.5127 55.1229 45.5127 53.9768C45.5127 52.8307 44.5836 51.9016 43.4375 51.9016C42.2914 51.9016 41.3623 52.8307 41.3623 53.9768C41.3623 55.1229 42.2914 56.052 43.4375 56.052Z" fill="white"/>
<path d="M54.3115 56.052C55.4576 56.052 56.3867 55.1229 56.3867 53.9768C56.3867 52.8307 55.4576 51.9016 54.3115 51.9016C53.1654 51.9016 52.2363 52.8307 52.2363 53.9768C52.2363 55.1229 53.1654 56.052 54.3115 56.052Z" fill="white"/>
<path d="M65.1719 56.052C66.318 56.052 67.2471 55.1229 67.2471 53.9768C67.2471 52.8307 66.318 51.9016 65.1719 51.9016C64.0258 51.9016 63.0967 52.8307 63.0967 53.9768C63.0967 55.1229 64.0258 56.052 65.1719 56.052Z" fill="white"/>
<path d="M43.4375 67.376C44.5836 67.376 45.5127 66.4469 45.5127 65.3008C45.5127 64.1547 44.5836 63.2256 43.4375 63.2256C42.2914 63.2256 41.3623 64.1547 41.3623 65.3008C41.3623 66.4469 42.2914 67.376 43.4375 67.376Z" fill="white"/>
<path d="M54.3115 67.376C55.4576 67.376 56.3867 66.4469 56.3867 65.3008C56.3867 64.1547 55.4576 63.2256 54.3115 63.2256C53.1654 63.2256 52.2363 64.1547 52.2363 65.3008C52.2363 66.4469 53.1654 67.376 54.3115 67.376Z" fill="white"/>
<path d="M65.1719 67.376C66.318 67.376 67.2471 66.4469 67.2471 65.3008C67.2471 64.1547 66.318 63.2256 65.1719 63.2256C64.0258 63.2256 63.0967 64.1547 63.0967 65.3008C63.0967 66.4469 64.0258 67.376 65.1719 67.376Z" fill="white"/>
</g>
<defs>
<linearGradient id="paint0_linear_551_3137" x1="-685.895" y1="108.001" x2="108" y2="0.00140531" gradientUnits="userSpaceOnUse">
<stop stop-color="#74E6FF"/>
<stop offset="1" stop-color="#5D9EFF"/>
</linearGradient>
</defs>
</svg>
