<svg width="129" height="20" viewBox="0 0 129 20" fill="none" xmlns="http://www.w3.org/2000/svg">
<mask id="mask0_445_9202" style="mask-type:alpha" maskUnits="userSpaceOnUse" x="105" y="0" width="24" height="20">
<rect x="105.307" width="23.0357" height="20" fill="url(#paint0_linear_445_9202)"/>
</mask>
<g mask="url(#mask0_445_9202)">
<path d="M116.323 1.86711C116.473 1.46783 117.037 1.46783 117.187 1.86711L119.104 6.99017C119.245 7.36559 119.603 7.61438 120.004 7.61438H125.97C126.432 7.61438 126.607 8.21879 126.216 8.46539L121.57 11.3957C121.185 11.6387 121.023 12.1188 121.183 12.5454L122.997 17.3912C123.151 17.8048 122.692 18.1783 122.319 17.9427L117.268 14.7566C116.954 14.559 116.556 14.559 116.242 14.7566L111.191 17.9427C110.818 18.1783 110.359 17.8048 110.514 17.3912L112.327 12.5454C112.487 12.1188 112.325 11.6387 111.94 11.3957L107.294 8.46539C106.903 8.21879 107.078 7.61438 107.54 7.61438H113.506C113.907 7.61438 114.265 7.36558 114.406 6.99017L116.323 1.86711Z" stroke="url(#paint1_linear_445_9202)" stroke-width="0.5"/>
<mask id="mask1_445_9202" style="mask-type:alpha" maskUnits="userSpaceOnUse" x="106" y="1" width="21" height="18">
<path d="M116.089 1.77949C116.32 1.16371 117.191 1.16371 117.421 1.77949L119.338 6.90254C119.442 7.1803 119.708 7.36438 120.004 7.36438H125.97C126.683 7.36438 126.952 8.29652 126.349 8.67684L121.704 11.6071C121.419 11.7869 121.299 12.1421 121.417 12.4577L123.231 17.3036C123.469 17.9414 122.761 18.5175 122.185 18.1542L117.134 14.9681C116.903 14.8218 116.607 14.8218 116.376 14.9681L111.325 18.1542C110.749 18.5175 110.041 17.9414 110.279 17.3036L112.093 12.4577C112.211 12.1421 112.091 11.7869 111.806 11.6071L107.161 8.67684C106.558 8.29652 106.827 7.36438 107.54 7.36438H113.506C113.802 7.36438 114.068 7.1803 114.172 6.90254L116.089 1.77949Z" fill="white"/>
</mask>
<g mask="url(#mask1_445_9202)">
<rect x="105.073" y="0.0371094" width="11.7702" height="19.9004" fill="url(#paint2_linear_445_9202)"/>
</g>
</g>
<mask id="mask2_445_9202" style="mask-type:alpha" maskUnits="userSpaceOnUse" x="78" y="0" width="25" height="20">
<rect x="78.9785" width="23.0357" height="20" fill="url(#paint3_linear_445_9202)"/>
</mask>
<g mask="url(#mask2_445_9202)">
<path opacity="0.3" d="M89.7512 1.77949C89.9816 1.16371 90.8526 1.16371 91.0831 1.77949L93.0003 6.90254C93.1043 7.1803 93.3697 7.36438 93.6663 7.36438H99.6319C100.345 7.36438 100.614 8.29652 100.011 8.67684L95.3659 11.6071C95.0808 11.7869 94.9612 12.1421 95.0793 12.4577L96.8928 17.3036C97.1315 17.9414 96.4235 18.5175 95.8475 18.1542L90.7965 14.9681C90.5647 14.8218 90.2695 14.8218 90.0378 14.9681L84.9868 18.1542C84.4108 18.5175 83.7028 17.9414 83.9415 17.3036L85.755 12.4577C85.8731 12.1421 85.7534 11.7869 85.4684 11.6071L80.823 8.67684C80.2201 8.29652 80.4896 7.36438 81.2024 7.36438H87.168C87.4646 7.36438 87.73 7.1803 87.8339 6.90254L89.7512 1.77949Z" fill="#517193"/>
<mask id="mask3_445_9202" style="mask-type:alpha" maskUnits="userSpaceOnUse" x="80" y="1" width="21" height="18">
<path d="M89.7512 1.77949C89.9816 1.16371 90.8526 1.16371 91.0831 1.77949L93.0003 6.90254C93.1043 7.1803 93.3697 7.36438 93.6663 7.36438H99.6319C100.345 7.36438 100.614 8.29652 100.011 8.67684L95.3659 11.6071C95.0808 11.7869 94.9612 12.1421 95.0793 12.4577L96.8928 17.3036C97.1315 17.9414 96.4235 18.5175 95.8475 18.1542L90.7965 14.9681C90.5647 14.8218 90.2695 14.8218 90.0378 14.9681L84.9868 18.1542C84.4108 18.5175 83.7028 17.9414 83.9415 17.3036L85.755 12.4577C85.8731 12.1421 85.7534 11.7869 85.4684 11.6071L80.823 8.67684C80.2201 8.29652 80.4896 7.36438 81.2024 7.36438H87.168C87.4646 7.36438 87.73 7.1803 87.8339 6.90254L89.7512 1.77949Z" fill="white"/>
</mask>
<g mask="url(#mask3_445_9202)">
<rect x="78.9692" width="23.0357" height="20" fill="url(#paint4_linear_445_9202)"/>
</g>
</g>
<mask id="mask4_445_9202" style="mask-type:alpha" maskUnits="userSpaceOnUse" x="52" y="0" width="24" height="20">
<rect x="52.6582" width="23.0357" height="20" fill="url(#paint5_linear_445_9202)"/>
</mask>
<g mask="url(#mask4_445_9202)">
<path opacity="0.3" d="M63.4401 1.77949C63.6706 1.16371 64.5416 1.16371 64.772 1.77949L66.6893 6.90254C66.7932 7.1803 67.0587 7.36438 67.3552 7.36438H73.3208C74.0337 7.36438 74.3031 8.29652 73.7002 8.67684L69.0548 11.6071C68.7698 11.7869 68.6501 12.1421 68.7682 12.4577L70.5817 17.3036C70.8204 17.9414 70.1124 18.5175 69.5364 18.1542L64.4855 14.9681C64.2537 14.8218 63.9585 14.8218 63.7267 14.9681L58.6758 18.1542C58.0998 18.5175 57.3918 17.9414 57.6304 17.3036L59.4439 12.4577C59.5621 12.1421 59.4424 11.7869 59.1574 11.6071L54.512 8.67684C53.9091 8.29652 54.1785 7.36438 54.8914 7.36438H60.857C61.1535 7.36438 61.419 7.1803 61.5229 6.90254L63.4401 1.77949Z" fill="#517193"/>
<mask id="mask5_445_9202" style="mask-type:alpha" maskUnits="userSpaceOnUse" x="54" y="1" width="21" height="18">
<path d="M63.4401 1.77949C63.6706 1.16371 64.5416 1.16371 64.772 1.77949L66.6893 6.90254C66.7932 7.1803 67.0587 7.36438 67.3552 7.36438H73.3208C74.0337 7.36438 74.3031 8.29652 73.7002 8.67684L69.0548 11.6071C68.7698 11.7869 68.6501 12.1421 68.7682 12.4577L70.5817 17.3036C70.8204 17.9414 70.1124 18.5175 69.5364 18.1542L64.4855 14.9681C64.2537 14.8218 63.9585 14.8218 63.7267 14.9681L58.6758 18.1542C58.0998 18.5175 57.3918 17.9414 57.6304 17.3036L59.4439 12.4577C59.5621 12.1421 59.4424 11.7869 59.1574 11.6071L54.512 8.67684C53.9091 8.29652 54.1785 7.36438 54.8914 7.36438H60.857C61.1535 7.36438 61.419 7.1803 61.5229 6.90254L63.4401 1.77949Z" fill="white"/>
</mask>
<g mask="url(#mask5_445_9202)">
<rect x="52.6675" width="23.0357" height="20" fill="url(#paint6_linear_445_9202)"/>
</g>
</g>
<mask id="mask6_445_9202" style="mask-type:alpha" maskUnits="userSpaceOnUse" x="26" y="0" width="24" height="20">
<rect x="26.3291" width="23.0357" height="20" fill="url(#paint7_linear_445_9202)"/>
</mask>
<g mask="url(#mask6_445_9202)">
<path opacity="0.3" d="M37.1018 1.77949C37.3322 1.16371 38.2032 1.16371 38.4337 1.77949L40.3509 6.90254C40.4549 7.1803 40.7203 7.36438 41.0169 7.36438H46.9824C47.6953 7.36438 47.9647 8.29652 47.3618 8.67684L42.7165 11.6071C42.4314 11.7869 42.3118 12.1421 42.4299 12.4577L44.2434 17.3036C44.4821 17.9414 43.774 18.5175 43.198 18.1542L38.1471 14.9681C37.9153 14.8218 37.6201 14.8218 37.3884 14.9681L32.3374 18.1542C31.7614 18.5175 31.0534 17.9414 31.2921 17.3036L33.1056 12.4577C33.2237 12.1421 33.104 11.7869 32.819 11.6071L28.1736 8.67684C27.5707 8.29652 27.8402 7.36438 28.553 7.36438H34.5186C34.8151 7.36438 35.0806 7.1803 35.1845 6.90254L37.1018 1.77949Z" fill="#517193"/>
<mask id="mask7_445_9202" style="mask-type:alpha" maskUnits="userSpaceOnUse" x="27" y="1" width="21" height="18">
<path d="M37.1018 1.77949C37.3322 1.16371 38.2032 1.16371 38.4337 1.77949L40.3509 6.90254C40.4549 7.1803 40.7203 7.36438 41.0169 7.36438H46.9824C47.6953 7.36438 47.9647 8.29652 47.3618 8.67684L42.7165 11.6071C42.4314 11.7869 42.3118 12.1421 42.4299 12.4577L44.2434 17.3036C44.4821 17.9414 43.774 18.5175 43.198 18.1542L38.1471 14.9681C37.9153 14.8218 37.6201 14.8218 37.3884 14.9681L32.3374 18.1542C31.7614 18.5175 31.0534 17.9414 31.2921 17.3036L33.1056 12.4577C33.2237 12.1421 33.104 11.7869 32.819 11.6071L28.1736 8.67684C27.5707 8.29652 27.8402 7.36438 28.553 7.36438H34.5186C34.8151 7.36438 35.0806 7.1803 35.1845 6.90254L37.1018 1.77949Z" fill="white"/>
</mask>
<g mask="url(#mask7_445_9202)">
<rect x="26.3198" width="23.0357" height="20" fill="url(#paint8_linear_445_9202)"/>
</g>
</g>
<mask id="mask8_445_9202" style="mask-type:alpha" maskUnits="userSpaceOnUse" x="0" y="0" width="24" height="20">
<rect width="23.0357" height="20" fill="url(#paint9_linear_445_9202)"/>
</mask>
<g mask="url(#mask8_445_9202)">
<path opacity="0.3" d="M10.7727 1.77949C11.0031 1.16371 11.8741 1.16371 12.1046 1.77949L14.0218 6.90254C14.1258 7.1803 14.3912 7.36438 14.6878 7.36438H20.6533C21.3662 7.36438 21.6356 8.29652 21.0327 8.67684L16.3874 11.6071C16.1023 11.7869 15.9826 12.1421 16.1008 12.4577L17.9143 17.3036C18.153 17.9414 17.4449 18.5175 16.8689 18.1542L11.818 14.9681C11.5862 14.8218 11.291 14.8218 11.0593 14.9681L6.00828 18.1542C5.43228 18.5175 4.72427 17.9414 4.96297 17.3036L6.77646 12.4577C6.89458 12.1421 6.77491 11.7869 6.48987 11.6071L1.84453 8.67684C1.24162 8.29652 1.51105 7.36438 2.2239 7.36438H8.18947C8.48605 7.36438 8.75147 7.1803 8.85542 6.90254L10.7727 1.77949Z" fill="#517193"/>
<mask id="mask9_445_9202" style="mask-type:alpha" maskUnits="userSpaceOnUse" x="1" y="1" width="21" height="18">
<path d="M10.7727 1.77949C11.0031 1.16371 11.8741 1.16371 12.1046 1.77949L14.0218 6.90254C14.1258 7.1803 14.3912 7.36438 14.6878 7.36438H20.6533C21.3662 7.36438 21.6356 8.29652 21.0327 8.67684L16.3874 11.6071C16.1023 11.7869 15.9826 12.1421 16.1008 12.4577L17.9143 17.3036C18.153 17.9414 17.4449 18.5175 16.8689 18.1542L11.818 14.9681C11.5862 14.8218 11.291 14.8218 11.0593 14.9681L6.00828 18.1542C5.43228 18.5175 4.72427 17.9414 4.96297 17.3036L6.77646 12.4577C6.89458 12.1421 6.77491 11.7869 6.48987 11.6071L1.84453 8.67684C1.24162 8.29652 1.51105 7.36438 2.2239 7.36438H8.18947C8.48605 7.36438 8.75147 7.1803 8.85542 6.90254L10.7727 1.77949Z" fill="white"/>
</mask>
<g mask="url(#mask9_445_9202)">
<rect x="-0.00878906" width="23.0357" height="20" fill="url(#paint10_linear_445_9202)"/>
</g>
</g>
<defs>
<linearGradient id="paint0_linear_445_9202" x1="116.825" y1="0" x2="116.825" y2="20" gradientUnits="userSpaceOnUse">
<stop stop-color="#FFB304"/>
<stop offset="1" stop-color="#FF9900"/>
</linearGradient>
<linearGradient id="paint1_linear_445_9202" x1="116.755" y1="1.66667" x2="116.755" y2="18.3333" gradientUnits="userSpaceOnUse">
<stop stop-color="#FFD108"/>
<stop offset="1" stop-color="#FFA902"/>
</linearGradient>
<linearGradient id="paint2_linear_445_9202" x1="110.958" y1="0.0371094" x2="110.958" y2="19.9375" gradientUnits="userSpaceOnUse">
<stop stop-color="#FFD80A"/>
<stop offset="1" stop-color="#FF9900"/>
</linearGradient>
<linearGradient id="paint3_linear_445_9202" x1="90.4964" y1="0" x2="90.4964" y2="20" gradientUnits="userSpaceOnUse">
<stop stop-color="#FFD80A"/>
<stop offset="0.260417" stop-color="#FFB304"/>
<stop offset="1" stop-color="#FF9900"/>
</linearGradient>
<linearGradient id="paint4_linear_445_9202" x1="90.4871" y1="0" x2="90.4871" y2="20" gradientUnits="userSpaceOnUse">
<stop stop-color="#FFBF06"/>
<stop offset="1" stop-color="#FF9900"/>
</linearGradient>
<linearGradient id="paint5_linear_445_9202" x1="64.1761" y1="0" x2="64.1761" y2="20" gradientUnits="userSpaceOnUse">
<stop stop-color="#FFD80A"/>
<stop offset="0.260417" stop-color="#FFB304"/>
<stop offset="1" stop-color="#FF9900"/>
</linearGradient>
<linearGradient id="paint6_linear_445_9202" x1="64.1853" y1="0" x2="64.1853" y2="20" gradientUnits="userSpaceOnUse">
<stop stop-color="#FFBF06"/>
<stop offset="1" stop-color="#FF9900"/>
</linearGradient>
<linearGradient id="paint7_linear_445_9202" x1="37.847" y1="0" x2="37.847" y2="20" gradientUnits="userSpaceOnUse">
<stop stop-color="#FFD80A"/>
<stop offset="0.260417" stop-color="#FFB304"/>
<stop offset="1" stop-color="#FF9900"/>
</linearGradient>
<linearGradient id="paint8_linear_445_9202" x1="37.8377" y1="0" x2="37.8377" y2="20" gradientUnits="userSpaceOnUse">
<stop stop-color="#FFBF06"/>
<stop offset="1" stop-color="#FF9900"/>
</linearGradient>
<linearGradient id="paint9_linear_445_9202" x1="11.5179" y1="0" x2="11.5179" y2="20" gradientUnits="userSpaceOnUse">
<stop stop-color="#FFD80A"/>
<stop offset="0.260417" stop-color="#FFB304"/>
<stop offset="1" stop-color="#FF9900"/>
</linearGradient>
<linearGradient id="paint10_linear_445_9202" x1="11.5091" y1="0" x2="11.5091" y2="20" gradientUnits="userSpaceOnUse">
<stop stop-color="#FFBF06"/>
<stop offset="1" stop-color="#FF9900"/>
</linearGradient>
</defs>
</svg>
