<svg width="47" height="47" viewBox="0 0 47 47" fill="none" xmlns="http://www.w3.org/2000/svg">
<path d="M6.10596 32.0073C6.52263 32.4366 6.80636 32.9961 6.90469 33.5824C6.90473 33.5827 6.90478 33.5829 6.90482 33.5832L5.42541 33.8309L12.5701 36.7289C13.1806 36.4018 13.9105 36.697 14.1998 37.3889C14.4885 38.0808 14.2273 38.908 13.6175 39.2359C12.9889 39.573 12.3724 39.9252 11.7574 40.2765C10.5191 40.9839 9.28654 41.6881 7.97094 42.2594M6.10596 32.0073C5.8663 32.563 5.63055 33.1288 5.39894 33.7049C5.22631 33.0248 4.6201 32.5929 3.99459 32.7274C3.33126 32.8709 2.8958 33.5972 3.02166 34.349C3.13165 35.0034 3.20164 35.7642 3.27509 36.5626C3.34849 37.3605 3.42534 38.1958 3.549 38.9998C3.74286 40.2615 4.05174 41.4503 4.56026 42.3889C4.70855 42.6628 5.04564 43.1055 5.73212 43.0669C6.12563 43.0448 7.77274 42.3455 7.97094 42.2594M6.10596 32.0073C5.51474 31.3981 4.65587 31.0509 3.67923 31.2609L3.6775 31.2613C2.08542 31.6057 1.31026 33.211 1.54225 34.5967L1.54241 34.5976C1.64118 35.1853 1.70646 35.8855 1.78133 36.6993L1.78331 36.7209C1.85546 37.5052 1.93579 38.3784 2.0664 39.2276L42.2238 3.00171C42.144 1.50384 42.1429 1.50389 42.1418 1.50396L42.1407 1.50402C42.1405 1.50403 42.1403 1.50404 42.14 1.50405L42.1391 1.50411L42.1319 1.50452L42.1107 1.50581C42.0937 1.50689 42.0706 1.50845 42.0418 1.51058C41.9841 1.51485 41.9032 1.52145 41.8001 1.53131C41.5941 1.55104 41.2996 1.58382 40.926 1.63713C40.1789 1.74372 39.1143 1.93251 37.8071 2.26343C35.1932 2.92511 31.6026 4.15674 27.6405 6.44023C20.4277 10.5972 12.0615 18.1966 6.10596 32.0073ZM7.97094 42.2594L8.56843 43.6353M7.97094 42.2594L8.56849 43.6352C8.56847 43.6353 8.56845 43.6353 8.56843 43.6353M8.56843 43.6353C8.45621 43.684 7.97595 43.8884 7.46707 44.0857C7.21364 44.184 6.93727 44.2867 6.68879 44.3684C6.50726 44.4281 6.1442 44.5461 5.81637 44.5646L5.81618 44.5646C4.27562 44.651 3.50564 43.5913 3.24137 43.1034M8.56843 43.6353L3.24137 43.1034M3.24137 43.1034C3.24133 43.1034 3.2413 43.1033 3.24127 43.1033L4.5602 42.389L3.24137 43.1034Z" fill="url(#paint0_linear_72_1752)" stroke="#02428E" stroke-width="3"/>
<defs>
<linearGradient id="paint0_linear_72_1752" x1="23.2543" y1="3" x2="23.2543" y2="43.0693" gradientUnits="userSpaceOnUse">
<stop offset="0.085" stop-color="#F7E6B2"/>
<stop offset="0.31" stop-color="#ECCB60"/>
<stop offset="0.525" stop-color="#F7E6B2"/>
<stop offset="0.73" stop-color="#ECCB5F"/>
<stop offset="1" stop-color="#F7E6B2"/>
</linearGradient>
</defs>
</svg>
