<svg width="41" height="40" viewBox="0 0 41 40" fill="none" xmlns="http://www.w3.org/2000/svg">
<g clip-path="url(#clip0_216_9877)">
<path d="M4.28113 33.5205H1.66113V1.03418H29.2382V9.19808H31.1338C35.8924 9.19808 39.7499 13.0556 39.7499 17.8142V33.521H36.8636M27.9606 33.5205H13.1831" stroke="#333333" stroke-width="1.46341"/>
<path d="M7.44504 37.8082C5.5104 38.1292 3.57333 38.5448 1.66113 39.0731M30.2011 37.4321C25.0733 36.8409 18.3485 36.4717 11.3499 37.2121M39.6621 39.0834C39.6621 39.0834 37.2426 38.4873 33.3328 37.9151M29.2065 20.5482H36.5567V18.4653C36.5567 15.1385 33.8592 12.4409 30.5319 12.4409H29.206L29.2065 20.5482ZM36.8041 34.2614C36.9 33.6836 36.881 33.0924 36.7481 32.522C36.6151 31.9515 36.3709 31.4128 36.0294 30.9369C35.6878 30.461 35.2557 30.0572 34.7578 29.7486C34.2599 29.4401 33.706 29.2328 33.1279 29.1387C32.5497 29.0446 31.9587 29.0656 31.3886 29.2004C30.8186 29.3352 30.2807 29.5812 29.8059 29.9243C29.3312 30.2674 28.9288 30.7008 28.6218 31.1997C28.3149 31.6986 28.1094 32.2532 28.0172 32.8317C27.8345 33.9938 28.1193 35.181 28.8094 36.1338C29.4994 37.0866 30.5386 37.7275 31.6998 37.9164C32.861 38.1053 34.0497 37.8268 35.0062 37.1418C35.9626 36.4568 36.609 35.4216 36.8041 34.2614ZM13.125 34.2609C13.2259 33.681 13.2108 33.0868 13.0805 32.5128C12.9502 31.9388 12.7073 31.3963 12.3659 30.9168C12.0246 30.4372 11.5915 30.0302 11.0918 29.7191C10.592 29.4081 10.0356 29.1992 9.45458 29.1047C8.8736 29.0102 8.27963 29.0318 7.70706 29.1683C7.13449 29.3049 6.59469 29.5537 6.11891 29.9002C5.64312 30.2468 5.2408 30.6843 4.93522 31.1874C4.62965 31.6905 4.42689 32.2492 4.33869 32.8312C4.14924 33.9962 4.43028 35.1888 5.12003 36.1467C5.80977 37.1046 6.85173 37.7492 8.01674 37.939C9.18188 38.1286 10.3746 37.8476 11.3326 37.1578C12.2906 36.4681 12.9353 35.426 13.125 34.2609Z" stroke="#333333" stroke-width="1.46341"/>
</g>
<defs>
<clipPath id="clip0_216_9877">
<rect width="40" height="40" fill="white" transform="translate(0.75)"/>
</clipPath>
</defs>
</svg>
