<svg width="40" height="40" viewBox="0 0 40 40" fill="none" xmlns="http://www.w3.org/2000/svg">
<g clip-path="url(#clip0_325_4696)">
<path d="M19.9937 39.948C31.0362 39.948 39.9874 31.0109 39.9874 19.9857C39.9874 8.96054 31.0362 0.0234375 19.9937 0.0234375C8.95118 0.0234375 0 8.96054 0 19.9857C0 31.0109 8.95118 39.948 19.9937 39.948Z" fill="#1A99FF"/>
<path d="M7.70908 26.5257C7.63979 26.532 7.57679 26.5132 7.5264 26.4691C7.5012 26.444 7.48861 26.4125 7.47601 26.3811C7.46341 26.3496 7.46341 26.3119 7.46341 26.2805V19.7899C7.45711 19.7585 7.46341 19.7207 7.47601 19.6893C7.48861 19.6578 7.5012 19.6264 7.5264 19.6012C7.57679 19.5635 7.64609 19.5446 7.70908 19.5509H8.40829C8.47128 19.5446 8.53428 19.5635 8.58467 19.6012C8.63506 19.639 8.66656 19.6956 8.67916 19.7647L8.74215 20.0163C8.94372 19.8213 9.18309 19.6704 9.44766 19.5698C9.71853 19.4629 10.002 19.4062 10.2918 19.4062C10.9217 19.4062 11.4193 19.639 11.7847 20.0981C12.15 20.5572 12.3327 21.1798 12.3327 21.966C12.3327 22.5069 12.2445 22.9723 12.0618 23.3748C11.9044 23.7459 11.6524 24.0666 11.3248 24.3056C11.0099 24.5257 10.6382 24.639 10.254 24.6327C9.99569 24.6327 9.73742 24.5886 9.49176 24.5069C9.26498 24.4314 9.05711 24.3119 8.87443 24.1547V26.2868C8.88073 26.3182 8.88073 26.3559 8.87443 26.3874C8.86813 26.4188 8.84924 26.4503 8.82404 26.4754C8.79884 26.5006 8.76735 26.5195 8.73585 26.5257C8.70435 26.532 8.66656 26.5383 8.63506 26.5257H7.70908ZM9.84451 23.5572C10.2099 23.5572 10.4744 23.4314 10.6508 23.1861C10.8209 22.9408 10.9091 22.5509 10.9091 22.0163C10.9091 21.4754 10.8272 21.0855 10.6571 20.8402C10.487 20.5949 10.2162 20.4691 9.85081 20.4754C9.51695 20.4754 9.18309 20.5635 8.89333 20.7396V23.2993C9.17679 23.4691 9.50435 23.5572 9.84451 23.5572Z" fill="white"/>
<path d="M13.5506 24.517C13.5191 24.5233 13.4813 24.517 13.4498 24.5107C13.4183 24.4981 13.3868 24.4856 13.3616 24.4604C13.3364 24.4352 13.3175 24.4101 13.3112 24.3723C13.2986 24.3409 13.2986 24.3032 13.3049 24.2717V19.7874C13.2986 19.756 13.3049 19.7183 13.3175 19.6868C13.3301 19.6554 13.3427 19.6239 13.3679 19.5988C13.4183 19.561 13.4876 19.5422 13.5506 19.5422H14.2498C14.3128 19.5359 14.3758 19.5547 14.4262 19.5925C14.4766 19.6302 14.5081 19.6868 14.5207 19.756L14.6467 20.278C14.9112 19.995 15.1569 19.7874 15.3837 19.6679C15.6104 19.5484 15.8624 19.4856 16.1207 19.4856H16.2593C16.3285 19.4793 16.3978 19.4981 16.4545 19.5422C16.4797 19.5673 16.4923 19.5988 16.5049 19.6302C16.5175 19.6617 16.5175 19.6994 16.5112 19.7308V20.5484C16.5175 20.6113 16.4986 20.6805 16.4608 20.7308C16.4356 20.756 16.4041 20.7686 16.3726 20.7812C16.3411 20.7937 16.3033 20.7937 16.2718 20.7937C16.2278 20.7937 16.1648 20.7937 16.0955 20.7812C16.0262 20.7686 15.9317 20.7749 15.8246 20.7749C15.6419 20.7812 15.4592 20.8 15.2766 20.8378C15.0876 20.8692 14.9049 20.9258 14.7285 21.0013V24.2717C14.7348 24.3409 14.7159 24.4038 14.6718 24.4541C14.6467 24.4793 14.6152 24.4918 14.5837 24.5044C14.5522 24.517 14.5144 24.517 14.4829 24.517H13.5506Z" fill="white"/>
<path d="M17.9087 18.7829C17.6946 18.7955 17.4804 18.72 17.3166 18.5816C17.1717 18.4307 17.0898 18.2357 17.0898 18.0282C17.0898 17.8206 17.1717 17.6193 17.3166 17.4747C17.4867 17.3426 17.6946 17.2734 17.9087 17.2734C18.1229 17.2734 18.3308 17.3426 18.5009 17.4747C18.6458 17.6256 18.7276 17.8206 18.7276 18.0282C18.7276 18.2357 18.6458 18.437 18.5009 18.5816C18.3371 18.72 18.1229 18.7892 17.9087 18.7829ZM17.4363 24.5187C17.4048 24.525 17.367 24.525 17.3355 24.5124C17.304 24.4999 17.2725 24.4873 17.2473 24.4621C17.2221 24.437 17.2032 24.4118 17.1969 24.3741C17.1843 24.3426 17.1843 24.3049 17.1906 24.2734V19.7892C17.1843 19.7577 17.1906 19.72 17.2032 19.6885C17.2158 19.6571 17.2284 19.6256 17.2536 19.6005C17.304 19.5627 17.3733 19.5439 17.4363 19.5439H18.3686C18.4001 19.5376 18.4379 19.5376 18.4694 19.5439C18.5009 19.5502 18.5324 19.569 18.5576 19.5942C18.5828 19.6193 18.6017 19.6508 18.608 19.6822C18.6143 19.7137 18.6206 19.7514 18.608 19.7829V24.2797C18.6143 24.3489 18.5954 24.4118 18.5513 24.4621C18.5261 24.4873 18.4946 24.4999 18.4631 24.5124C18.4316 24.525 18.3938 24.525 18.3623 24.525H17.4363V24.5187Z" fill="white"/>
<path d="M20.0701 24.5185C20.0386 24.5247 20.0008 24.5248 19.9693 24.5122C19.9378 24.4996 19.9063 24.487 19.8811 24.4619C19.8559 24.4367 19.837 24.4115 19.8307 24.3738C19.8181 24.3424 19.8182 24.3046 19.8245 24.2732V19.7889C19.8182 19.7575 19.8244 19.7197 19.837 19.6883C19.8496 19.6568 19.8622 19.6254 19.8874 19.6002C19.9378 19.5625 20.0071 19.5436 20.0701 19.5436H20.7693C20.8323 19.5373 20.8953 19.5562 20.9457 19.5939C20.9961 19.6317 21.0276 19.6883 21.0402 19.7575L21.1158 20.0216C21.4056 19.8203 21.7142 19.6631 22.0481 19.5373C22.3252 19.443 22.6087 19.3927 22.8985 19.399C23.4843 19.399 23.8937 19.6065 24.1331 20.0216C24.4229 19.8203 24.7378 19.6631 25.0717 19.5436C25.3615 19.4493 25.6701 19.399 25.9788 19.399C26.4323 19.399 26.7851 19.5247 27.0371 19.7763C27.289 20.0279 27.415 20.3801 27.415 20.8392V24.2795C27.4213 24.3424 27.4024 24.4115 27.3583 24.4619C27.3331 24.487 27.3016 24.4996 27.2701 24.5122C27.2386 24.5248 27.2008 24.5248 27.1693 24.5248H26.2307C26.1993 24.531 26.1615 24.531 26.13 24.5185C26.0985 24.5059 26.067 24.4933 26.0418 24.4681C26.0166 24.443 25.9977 24.4178 25.9914 24.3801C25.9788 24.3487 25.9788 24.3109 25.9851 24.2795V21.16C25.9851 20.7197 25.7898 20.4996 25.393 20.4996C25.0276 20.5059 24.6622 20.5876 24.3284 20.7512V24.2795C24.3347 24.3486 24.3158 24.4115 24.2717 24.4619C24.2465 24.487 24.215 24.4996 24.1835 24.5122C24.152 24.5248 24.1142 24.5248 24.0827 24.5248H23.1504C23.1189 24.531 23.0811 24.531 23.0496 24.5185C23.0182 24.5059 22.9867 24.4933 22.9615 24.4681C22.9363 24.443 22.9174 24.4178 22.9111 24.3801C22.8985 24.3487 22.8985 24.3109 22.9048 24.2795V21.16C22.9048 20.7197 22.7095 20.4996 22.3126 20.4996C21.941 20.4996 21.5756 20.5939 21.2418 20.7637V24.2858C21.2481 24.3487 21.2292 24.4178 21.1851 24.4681C21.1599 24.4933 21.1284 24.5059 21.0969 24.5185C21.0654 24.531 21.0276 24.531 20.9961 24.531L20.0701 24.5185Z" fill="white"/>
<path d="M30.7922 24.6627C29.9859 24.6627 29.3686 24.4426 28.934 24.0023C28.4993 23.5621 28.2852 22.9269 28.2852 22.103C28.2852 21.2602 28.5056 20.5998 28.9466 20.1155C29.3875 19.6375 30.0048 19.3923 30.7859 19.3986C31.3907 19.3986 31.8631 19.5432 32.2033 19.8388C32.5434 20.1281 32.7135 20.5181 32.7135 21.0086C32.7135 21.4929 32.5308 21.864 32.1655 22.1092C31.8001 22.3608 31.2584 22.4866 30.5403 22.4866C30.2127 22.4929 29.8915 22.4552 29.5765 22.3797C29.6143 22.8136 29.7466 23.1281 29.967 23.3105C30.1875 23.4929 30.5277 23.5935 30.9875 23.5935C31.1639 23.5935 31.3403 23.5809 31.5167 23.5621C31.756 23.5243 31.9954 23.474 32.2348 23.4111C32.2537 23.4048 32.2726 23.3986 32.2915 23.3986C32.3104 23.3986 32.323 23.3923 32.3419 23.3923C32.4489 23.3923 32.5056 23.4677 32.5056 23.6187V24.0652C32.5119 24.1407 32.4993 24.2162 32.4615 24.2853C32.4174 24.3357 32.3607 24.3797 32.2915 24.3986C31.819 24.5747 31.3088 24.669 30.7922 24.6627ZM30.471 21.6124C30.8048 21.6124 31.0442 21.5621 31.1891 21.4614C31.3403 21.3608 31.4096 21.2099 31.4159 20.996C31.4159 20.5872 31.1702 20.386 30.6852 20.386C30.0615 20.386 29.7025 20.7696 29.6017 21.5306C29.8915 21.5872 30.1812 21.6124 30.471 21.6124Z" fill="white"/>
<path d="M7.51686 14.489C7.49796 14.489 7.47276 14.489 7.45386 14.4827C7.43497 14.4764 7.41607 14.4638 7.39717 14.4512C7.38457 14.4387 7.37197 14.4198 7.36567 14.3946C7.35937 14.3758 7.35938 14.3506 7.35938 14.3317V10.2437C7.35938 10.2248 7.35937 10.1997 7.36567 10.1808C7.37197 10.1619 7.38457 10.1431 7.39717 10.1242C7.40977 10.1116 7.42867 10.099 7.45386 10.0928C7.47276 10.0865 7.49796 10.0865 7.51686 10.0865H8.94048C9.19874 10.0802 9.45071 10.1305 9.68378 10.2311C9.88536 10.3192 10.0554 10.4638 10.1814 10.6399C10.3011 10.8223 10.3641 11.0361 10.3578 11.2563C10.3578 11.6965 10.1625 12.0047 9.76567 12.1745C10.0113 12.2374 10.2255 12.3758 10.3893 12.5645C10.5342 12.7594 10.6098 13.0047 10.5972 13.25C10.6035 13.4261 10.5657 13.5959 10.4964 13.7531C10.4208 13.9104 10.3137 14.0487 10.1751 14.1556C9.89166 14.3821 9.50741 14.4953 9.02867 14.4953H7.51686V14.489ZM8.26016 11.9229H8.81449C9.22394 11.9229 9.43182 11.7343 9.43182 11.3506C9.43182 10.9607 9.24284 10.7657 8.86489 10.7657H8.26016V11.9229ZM8.26016 13.8097H9.00977C9.44441 13.8097 9.65859 13.6085 9.65859 13.1997C9.65859 12.7783 9.42552 12.5707 8.96567 12.5707H8.26016V13.8097Z" fill="white"/>
<path d="M12.2064 14.5881C11.9166 14.5881 11.6898 14.5 11.5323 14.3302C11.3686 14.1604 11.293 13.9214 11.293 13.6195V11.3994C11.293 11.3806 11.293 11.3554 11.2993 11.3365C11.3056 11.3177 11.3182 11.2988 11.3308 11.2799C11.3434 11.2611 11.3623 11.2548 11.3875 11.2485C11.4064 11.2422 11.4316 11.2422 11.4504 11.2422H12.0615C12.0804 11.2422 12.1056 11.2422 12.1245 11.2485C12.1434 11.2548 12.1623 11.2673 12.1812 11.2799C12.1938 11.2925 12.2064 11.3114 12.2127 11.3365C12.219 11.3554 12.219 11.3806 12.219 11.3994V13.3617C12.219 13.7076 12.3701 13.8774 12.6662 13.8774C12.8993 13.8711 13.126 13.8019 13.315 13.6761V11.4057C13.315 11.3868 13.315 11.3617 13.3213 11.3428C13.3276 11.3239 13.3402 11.3051 13.3528 11.2862C13.3654 11.2736 13.3843 11.2611 13.4095 11.2548C13.4284 11.2485 13.4536 11.2485 13.4725 11.2485H14.0835C14.1024 11.2422 14.1276 11.2485 14.1465 11.2548C14.1654 11.2611 14.1843 11.2736 14.2032 11.2862C14.2158 11.2988 14.2284 11.3177 14.2347 11.3428C14.241 11.3617 14.241 11.3868 14.241 11.4057V14.3365C14.241 14.3554 14.241 14.3806 14.2347 14.3994C14.2284 14.4183 14.2158 14.4372 14.2032 14.456C14.1906 14.4686 14.1717 14.4812 14.1465 14.4875C14.1276 14.4938 14.1024 14.4938 14.0835 14.4938H13.6237C13.5796 14.4938 13.5418 14.4812 13.5103 14.456C13.4788 14.4309 13.4536 14.3931 13.4473 14.3491L13.3906 14.1478C13.2142 14.2925 13.019 14.3994 12.8048 14.4812C12.6158 14.5567 12.4079 14.5881 12.2064 14.5881Z" fill="white"/>
<path d="M15.5782 15.882C15.4144 15.882 15.257 15.8569 15.0995 15.8191C15.0554 15.8066 15.0176 15.7877 14.9861 15.75C14.9609 15.7059 14.9546 15.6556 14.9609 15.6053V15.3097C14.9609 15.2154 14.9987 15.165 15.0806 15.165C15.1184 15.165 15.1562 15.165 15.194 15.1713C15.2381 15.1776 15.2822 15.1776 15.3263 15.1776C15.4774 15.1839 15.6223 15.1399 15.742 15.0518C15.8428 14.9701 15.9247 14.8254 15.9877 14.6242L16.0066 14.555L14.8097 11.511C14.7845 11.4606 14.7719 11.404 14.7656 11.3537C14.7656 11.2908 14.8034 11.2594 14.8853 11.2594H15.5278C15.5782 11.2531 15.6286 11.2657 15.6727 11.2971C15.7105 11.3286 15.742 11.3789 15.7483 11.4292L16.4286 13.6933L17.0711 11.4292C17.0837 11.3789 17.1089 11.3349 17.153 11.3034C17.1971 11.272 17.2475 11.2594 17.2979 11.2657H17.9215C18.0034 11.2657 18.0412 11.2971 18.0412 11.36C18.0349 11.4166 18.0223 11.4669 17.9971 11.5172L16.7058 14.9512C16.5798 15.2845 16.4349 15.5298 16.2585 15.6745C16.0633 15.8128 15.8239 15.8883 15.5782 15.882Z" fill="white"/>
<path d="M21.5689 14.4875H21.0271C20.9767 14.4938 20.9263 14.4812 20.8822 14.4498C20.8444 14.412 20.8192 14.368 20.8066 14.324L19.887 11.4938C19.8681 11.4435 19.8555 11.3932 19.8555 11.3429C19.8555 11.2737 19.8996 11.2422 19.9815 11.2422H20.624C20.6744 11.2359 20.7248 11.2548 20.7626 11.28C20.8004 11.3114 20.8255 11.3554 20.8318 11.4058L21.3421 13.5819L21.8901 11.3995C21.9027 11.3492 21.9279 11.3051 21.972 11.2737C22.0161 11.2422 22.0665 11.2297 22.1169 11.2359H22.583C22.6334 11.2297 22.6838 11.2422 22.7279 11.2737C22.772 11.3051 22.7972 11.3492 22.8098 11.3995L23.3704 13.5881L23.8492 11.3995C23.8555 11.3492 23.8807 11.3051 23.9185 11.2737C23.9563 11.2422 24.0066 11.2297 24.057 11.2359H24.6744C24.7626 11.2359 24.8004 11.2674 24.8004 11.3366C24.8004 11.3869 24.7878 11.4372 24.7689 11.4875L23.8429 14.3177C23.8366 14.368 23.8051 14.4183 23.7673 14.4435C23.7232 14.4749 23.6728 14.4875 23.6224 14.4812H23.0807C23.0303 14.4875 22.9799 14.4687 22.9421 14.4372C22.9043 14.4058 22.8728 14.3617 22.8665 14.3114L22.3437 12.1919L21.8145 14.3114C21.8019 14.3617 21.7767 14.4058 21.7326 14.4372C21.6759 14.4812 21.6255 14.4938 21.5689 14.4875Z" fill="white"/>
<path d="M25.8011 10.7422C25.6625 10.7485 25.5176 10.7045 25.4105 10.6101C25.316 10.5158 25.2656 10.3837 25.2656 10.2453C25.2656 10.1133 25.316 9.98118 25.4105 9.88055C25.5239 9.7925 25.6562 9.74848 25.8011 9.74219C25.9396 9.74219 26.0782 9.78621 26.1916 9.87426C26.2861 9.97489 26.3365 10.1007 26.3365 10.239C26.3365 10.3711 26.2861 10.5032 26.1916 10.6038C26.0782 10.6982 25.9396 10.7485 25.8011 10.7422ZM25.4924 14.4906C25.4735 14.4906 25.4483 14.4906 25.4294 14.4843C25.4105 14.478 25.3916 14.4655 25.3727 14.4529C25.3601 14.4403 25.3475 14.4214 25.3412 14.3963C25.3349 14.3774 25.3349 14.3523 25.3349 14.3334V11.4026C25.3349 11.3837 25.3349 11.3585 25.3412 11.3397C25.3475 11.3208 25.3601 11.3019 25.3727 11.2831C25.3853 11.2642 25.4042 11.2579 25.4294 11.2516C25.4483 11.2453 25.4735 11.2453 25.4924 11.2453H26.1034C26.1223 11.2453 26.1475 11.2453 26.1664 11.2516C26.1853 11.2579 26.2042 11.2705 26.2231 11.2831C26.2357 11.2956 26.2483 11.3145 26.2546 11.3397C26.2609 11.3585 26.2609 11.3837 26.2609 11.4026V14.3334C26.2609 14.3523 26.2609 14.3774 26.2546 14.3963C26.2483 14.4151 26.2357 14.434 26.2231 14.4529C26.2105 14.4655 26.1916 14.478 26.1664 14.4843C26.1475 14.4906 26.1223 14.4906 26.1034 14.4906H25.4924Z" fill="white"/>
<path d="M28.3543 14.5433C27.9952 14.5433 27.7244 14.4615 27.5543 14.2917C27.3842 14.1219 27.296 13.8578 27.296 13.5056V11.9332H26.9622C26.9433 11.9332 26.9181 11.9332 26.8992 11.9269C26.8803 11.9206 26.8614 11.9081 26.8425 11.8955C26.8299 11.8829 26.8173 11.864 26.811 11.8389C26.8047 11.82 26.8047 11.7949 26.8047 11.776V11.5118C26.8047 11.4678 26.8173 11.4238 26.8425 11.3923C26.874 11.3609 26.9118 11.3357 26.9559 11.3357L27.3212 11.2603L27.4346 10.537C27.4346 10.4867 27.4535 10.4427 27.4913 10.4049C27.5291 10.3798 27.5669 10.3672 27.611 10.3672H28.0645C28.0834 10.3672 28.1086 10.3672 28.1275 10.3735C28.1464 10.3798 28.1653 10.3923 28.1842 10.4049C28.2031 10.4175 28.2094 10.4364 28.2157 10.4615C28.222 10.4804 28.222 10.5056 28.222 10.5244V11.2414H28.9401C28.959 11.2414 28.9842 11.2414 29.0031 11.2477C29.022 11.254 29.0409 11.2666 29.0598 11.2791C29.0787 11.2917 29.085 11.3106 29.0913 11.3357C29.0976 11.3546 29.0976 11.3798 29.0976 11.3986V11.7697C29.0976 11.7886 29.0976 11.8137 29.0913 11.8326C29.085 11.8515 29.0724 11.8703 29.0598 11.8892C29.0472 11.9018 29.0283 11.9144 29.0031 11.9206C28.9842 11.9269 28.959 11.9269 28.9401 11.9269H28.222V13.4615C28.222 13.5999 28.2535 13.6942 28.3228 13.7445C28.3921 13.8011 28.5055 13.8263 28.6693 13.8263C28.7322 13.8263 28.8015 13.82 28.8645 13.8074C28.9149 13.8011 28.959 13.7949 29.0094 13.7949C29.0787 13.7949 29.1165 13.8389 29.1165 13.9332V14.2414C29.1228 14.2917 29.1102 14.342 29.0913 14.3861C29.0661 14.4238 29.022 14.4489 28.9779 14.4552C28.8834 14.4804 28.7889 14.5056 28.6882 14.5181C28.5811 14.537 28.4677 14.5433 28.3543 14.5433Z" fill="white"/>
<path d="M30.4638 14.4935H29.8528C29.8339 14.4935 29.8087 14.4935 29.7898 14.4872C29.7709 14.4809 29.752 14.4683 29.7331 14.4557C29.7205 14.4432 29.7079 14.4243 29.7016 14.3991C29.6953 14.3803 29.6953 14.3551 29.6953 14.3362V9.9463C29.6953 9.92743 29.6953 9.90227 29.7016 9.8834C29.7079 9.86453 29.7205 9.84567 29.7331 9.8268C29.7457 9.81422 29.7646 9.80164 29.7898 9.79535C29.8087 9.78906 29.8339 9.78906 29.8528 9.78906H30.4638C30.4827 9.78906 30.5079 9.78906 30.5268 9.79535C30.5457 9.80164 30.5646 9.81422 30.5835 9.8268C30.5961 9.83938 30.6087 9.85824 30.615 9.8834C30.6213 9.90227 30.6213 9.92743 30.6213 9.9463V11.5375C30.9552 11.2922 31.352 11.1538 31.7678 11.1476C32.0701 11.1476 32.3032 11.2293 32.467 11.3928C32.6307 11.5564 32.7126 11.7891 32.7126 12.0909V14.3362C32.7126 14.3551 32.7126 14.3803 32.7063 14.3991C32.7 14.418 32.6874 14.4369 32.6748 14.4557C32.6622 14.4683 32.6433 14.4809 32.6181 14.4872C32.5992 14.4935 32.5741 14.4935 32.5552 14.4935H31.9441C31.9252 14.4935 31.9 14.4935 31.8811 14.4872C31.8622 14.4809 31.8433 14.4683 31.8244 14.4557C31.8118 14.4432 31.7993 14.4243 31.793 14.3991C31.7867 14.3803 31.7867 14.3551 31.7867 14.3362V12.3677C31.7867 12.0343 31.6292 11.8645 31.3205 11.8645C31.0748 11.8708 30.8292 11.9463 30.6276 12.0784V14.3362C30.6276 14.3551 30.6276 14.3803 30.6213 14.3991C30.615 14.418 30.6024 14.4369 30.5898 14.4557C30.5772 14.4683 30.5583 14.4809 30.5331 14.4872C30.5079 14.4935 30.4827 14.4998 30.4638 14.4935Z" fill="white"/>
<mask id="mask0_325_4696" style="mask-type:luminance" maskUnits="userSpaceOnUse" x="7" y="17" width="26" height="17">
<path d="M32.9449 17.2344H7.49609V33.1463H32.9449V17.2344Z" fill="white"/>
</mask>
<g mask="url(#mask0_325_4696)">
<path fill-rule="evenodd" clip-rule="evenodd" d="M30.5023 29.9962C27.7181 32.0528 23.674 33.1409 20.1968 33.1409C15.3212 33.1409 10.9307 31.3421 7.61101 28.3421C7.35274 28.1094 7.58581 27.7887 7.89447 27.9648C11.4787 30.0465 15.9071 31.3044 20.4866 31.3044C23.5732 31.3044 26.9685 30.6629 30.0929 29.3421C30.5653 29.1472 30.9622 29.6566 30.5023 29.9962Z" fill="white"/>
<path fill-rule="evenodd" clip-rule="evenodd" d="M31.6608 28.6788C31.308 28.226 29.3048 28.465 28.4104 28.5719C28.1395 28.6033 28.0954 28.3706 28.3411 28.1945C29.9348 27.075 32.5489 27.3958 32.8513 27.7731C33.16 28.1505 32.7694 30.7669 31.2765 32.0184C31.0434 32.2134 30.8293 32.1065 30.93 31.8549C31.2639 31.0121 32.0135 29.1316 31.6608 28.6788Z" fill="white"/>
</g>
</g>
<defs>
<clipPath id="clip0_325_4696">
<rect width="40" height="40" fill="white"/>
</clipPath>
</defs>
</svg>
