<svg width="358" height="247" viewBox="0 0 358 247" fill="none" xmlns="http://www.w3.org/2000/svg">
<path d="M32.3458 9.57422H5.39069H0V222.824H357.781V32.4259L354.01 32.3363C330.649 32.3363 358.802 96.5547 314.476 95.2315C274.343 94.0335 288.12 30.5393 253.977 21.5543C219.833 12.5692 200.066 46.7124 194.076 53.9004C188.086 61.0884 174.908 79.0585 152.146 77.8605C129.384 76.6625 111.414 51.5044 90.449 30.5393C69.4839 9.57422 57.5039 9.57422 32.3458 9.57422Z" fill="#FCE7DE"/>
<path d="M227.406 112.398V116.172H229.734C230.375 116.172 230.87 116.008 231.219 115.68C231.573 115.352 231.75 114.888 231.75 114.289C231.75 113.701 231.565 113.24 231.195 112.906C230.831 112.568 230.328 112.398 229.688 112.398H227.406ZM227.406 117.773V122H225.391V110.727H229.969C231.151 110.727 232.089 111.044 232.781 111.68C233.474 112.31 233.82 113.167 233.82 114.25C233.82 115 233.633 115.664 233.258 116.242C232.883 116.815 232.362 117.221 231.695 117.461L234.156 122H231.852L229.641 117.773H227.406ZM239.383 114.82C238.805 114.82 238.328 115.01 237.953 115.391C237.578 115.771 237.37 116.273 237.328 116.898H241.352C241.331 116.263 241.143 115.758 240.789 115.383C240.435 115.008 239.966 114.82 239.383 114.82ZM241.367 119.648H243.203C243.021 120.43 242.591 121.047 241.914 121.5C241.242 121.948 240.406 122.172 239.406 122.172C238.151 122.172 237.164 121.781 236.445 121C235.732 120.214 235.375 119.133 235.375 117.758C235.375 116.383 235.734 115.294 236.453 114.492C237.172 113.685 238.151 113.281 239.391 113.281C240.609 113.281 241.562 113.664 242.25 114.43C242.943 115.19 243.289 116.245 243.289 117.594V118.219H237.32V118.32C237.346 119.034 237.549 119.599 237.93 120.016C238.315 120.427 238.826 120.633 239.461 120.633C240.44 120.633 241.076 120.305 241.367 119.648ZM245.039 115.898C245.039 115.128 245.357 114.5 245.992 114.016C246.628 113.526 247.451 113.281 248.461 113.281C249.477 113.281 250.286 113.497 250.891 113.93C251.5 114.357 251.839 114.958 251.906 115.734H250.086C250.013 115.427 249.836 115.188 249.555 115.016C249.279 114.839 248.917 114.75 248.469 114.75C248.021 114.75 247.651 114.846 247.359 115.039C247.068 115.232 246.922 115.482 246.922 115.789C246.922 116.029 247.023 116.227 247.227 116.383C247.435 116.539 247.755 116.667 248.188 116.766L249.695 117.109C250.518 117.297 251.122 117.576 251.508 117.945C251.893 118.315 252.086 118.812 252.086 119.438C252.086 120.255 251.747 120.917 251.07 121.422C250.393 121.922 249.518 122.172 248.445 122.172C247.378 122.172 246.523 121.953 245.883 121.516C245.247 121.078 244.893 120.471 244.82 119.695H246.734C246.828 120.018 247.023 120.268 247.32 120.445C247.622 120.617 248.013 120.703 248.492 120.703C248.982 120.703 249.38 120.607 249.688 120.414C249.995 120.216 250.148 119.958 250.148 119.641C250.148 119.167 249.755 118.844 248.969 118.672L247.453 118.32C246.63 118.133 246.021 117.844 245.625 117.453C245.234 117.057 245.039 116.539 245.039 115.898ZM254.602 111.359H256.531V113.508H258.359V115.055H256.531V119.25C256.531 119.672 256.625 119.982 256.812 120.18C257 120.372 257.297 120.469 257.703 120.469C257.88 120.469 258.099 120.456 258.359 120.43V121.945C258.036 122.008 257.698 122.039 257.344 122.039C256.365 122.039 255.661 121.859 255.234 121.5C254.812 121.141 254.602 120.547 254.602 119.719V115.055H253.25V113.508H254.602V111.359ZM260.297 122V113.453H262.164V114.781H262.297C262.417 114.354 262.685 114.003 263.102 113.727C263.523 113.451 264.008 113.312 264.555 113.312C264.904 113.312 265.172 113.341 265.359 113.398V115.195C265.161 115.122 264.831 115.086 264.367 115.086C263.737 115.086 263.224 115.268 262.828 115.633C262.432 115.992 262.234 116.469 262.234 117.062V122H260.297ZM266.977 122V113.453H268.906V122H266.977ZM267.938 112.062C267.589 112.062 267.302 111.964 267.078 111.766C266.854 111.562 266.742 111.305 266.742 110.992C266.742 110.68 266.854 110.424 267.078 110.227C267.302 110.023 267.589 109.922 267.938 109.922C268.292 109.922 268.578 110.023 268.797 110.227C269.021 110.424 269.133 110.68 269.133 110.992C269.133 111.305 269.021 111.562 268.797 111.766C268.578 111.964 268.292 112.062 267.938 112.062ZM278.695 116.328H276.852C276.758 115.896 276.549 115.552 276.227 115.297C275.904 115.036 275.484 114.906 274.969 114.906C274.302 114.906 273.781 115.151 273.406 115.641C273.036 116.13 272.852 116.818 272.852 117.703C272.852 118.599 273.039 119.297 273.414 119.797C273.789 120.297 274.307 120.547 274.969 120.547C275.474 120.547 275.888 120.43 276.211 120.195C276.539 119.961 276.753 119.622 276.852 119.18H278.695C278.586 120.091 278.203 120.818 277.547 121.359C276.896 121.901 276.039 122.172 274.977 122.172C273.69 122.172 272.688 121.779 271.969 120.992C271.25 120.206 270.891 119.109 270.891 117.703C270.891 116.312 271.25 115.229 271.969 114.453C272.688 113.672 273.688 113.281 274.969 113.281C276.042 113.281 276.904 113.56 277.555 114.117C278.211 114.669 278.591 115.406 278.695 116.328ZM281.273 111.359H283.203V113.508H285.031V115.055H283.203V119.25C283.203 119.672 283.297 119.982 283.484 120.18C283.672 120.372 283.969 120.469 284.375 120.469C284.552 120.469 284.771 120.456 285.031 120.43V121.945C284.708 122.008 284.37 122.039 284.016 122.039C283.036 122.039 282.333 121.859 281.906 121.5C281.484 121.141 281.273 120.547 281.273 119.719V115.055H279.922V113.508H281.273V111.359ZM286.992 122V113.453H288.922V122H286.992ZM287.953 112.062C287.604 112.062 287.318 111.964 287.094 111.766C286.87 111.562 286.758 111.305 286.758 110.992C286.758 110.68 286.87 110.424 287.094 110.227C287.318 110.023 287.604 109.922 287.953 109.922C288.307 109.922 288.594 110.023 288.812 110.227C289.036 110.424 289.148 110.68 289.148 110.992C289.148 111.305 289.036 111.562 288.812 111.766C288.594 111.964 288.307 112.062 287.953 112.062ZM298.781 113.453L295.758 122H293.625L290.586 113.453H292.664L294.641 120.062H294.773L296.734 113.453H298.781ZM303.664 114.82C303.086 114.82 302.609 115.01 302.234 115.391C301.859 115.771 301.651 116.273 301.609 116.898H305.633C305.612 116.263 305.424 115.758 305.07 115.383C304.716 115.008 304.247 114.82 303.664 114.82ZM305.648 119.648H307.484C307.302 120.43 306.872 121.047 306.195 121.5C305.523 121.948 304.688 122.172 303.688 122.172C302.432 122.172 301.445 121.781 300.727 121C300.013 120.214 299.656 119.133 299.656 117.758C299.656 116.383 300.016 115.294 300.734 114.492C301.453 113.685 302.432 113.281 303.672 113.281C304.891 113.281 305.844 113.664 306.531 114.43C307.224 115.19 307.57 116.245 307.57 117.594V118.219H301.602V118.32C301.628 119.034 301.831 119.599 302.211 120.016C302.596 120.427 303.107 120.633 303.742 120.633C304.721 120.633 305.357 120.305 305.648 119.648ZM313.984 110.727H318.211C319.888 110.727 321.19 111.216 322.117 112.195C323.049 113.169 323.516 114.542 323.516 116.312C323.516 118.12 323.052 119.521 322.125 120.516C321.203 121.505 319.898 122 318.211 122H313.984V110.727ZM316 112.469V120.258H317.945C319.07 120.258 319.938 119.919 320.547 119.242C321.156 118.565 321.461 117.599 321.461 116.344C321.461 115.115 321.151 114.161 320.531 113.484C319.917 112.807 319.055 112.469 317.945 112.469H316ZM325.633 122V113.453H327.562V122H325.633ZM326.594 112.062C326.245 112.062 325.958 111.964 325.734 111.766C325.51 111.562 325.398 111.305 325.398 110.992C325.398 110.68 325.51 110.424 325.734 110.227C325.958 110.023 326.245 109.922 326.594 109.922C326.948 109.922 327.234 110.023 327.453 110.227C327.677 110.424 327.789 110.68 327.789 110.992C327.789 111.305 327.677 111.562 327.453 111.766C327.234 111.964 326.948 112.062 326.594 112.062ZM333.555 114.82C332.977 114.82 332.5 115.01 332.125 115.391C331.75 115.771 331.542 116.273 331.5 116.898H335.523C335.503 116.263 335.315 115.758 334.961 115.383C334.607 115.008 334.138 114.82 333.555 114.82ZM335.539 119.648H337.375C337.193 120.43 336.763 121.047 336.086 121.5C335.414 121.948 334.578 122.172 333.578 122.172C332.323 122.172 331.336 121.781 330.617 121C329.904 120.214 329.547 119.133 329.547 117.758C329.547 116.383 329.906 115.294 330.625 114.492C331.344 113.685 332.323 113.281 333.562 113.281C334.781 113.281 335.734 113.664 336.422 114.43C337.115 115.19 337.461 116.245 337.461 117.594V118.219H331.492V118.32C331.518 119.034 331.721 119.599 332.102 120.016C332.487 120.427 332.997 120.633 333.633 120.633C334.612 120.633 335.247 120.305 335.539 119.648ZM340.023 111.359H341.953V113.508H343.781V115.055H341.953V119.25C341.953 119.672 342.047 119.982 342.234 120.18C342.422 120.372 342.719 120.469 343.125 120.469C343.302 120.469 343.521 120.456 343.781 120.43V121.945C343.458 122.008 343.12 122.039 342.766 122.039C341.786 122.039 341.083 121.859 340.656 121.5C340.234 121.141 340.023 120.547 340.023 119.719V115.055H338.672V113.508H340.023V111.359Z" fill="#ED563B"/>
<circle cx="353.075" cy="32.3311" r="4.79202" fill="#ED563B"/>
<path d="M5.39014 9.57422C5.98914 9.57422 12.2188 9.57422 32.3452 9.57422C57.5033 9.57422 69.4834 9.57422 90.4484 30.5393C111.414 51.5044 129.384 76.6625 152.146 77.8605C174.908 79.0585 188.086 61.0884 194.076 53.9004C200.066 46.7124 219.833 12.5692 253.976 21.5543C288.119 30.5393 274.342 94.0335 314.475 95.2315C358.801 96.5547 330.648 32.3363 354.009 32.3363" stroke="#ED563B" stroke-width="3"/>
<path d="M158.137 100.637C83.2613 25.7577 35.3411 9.5883 5.99002 9.59766L0 9.59766V222.833H357.781V174.926H349.218C295.308 174.926 218.242 160.745 158.137 100.637Z" fill="#B7ECDC"/>
<path d="M49.2147 188.356C50.7266 188.356 52.0807 188.75 53.2771 189.528C54.4734 190.311 55.4244 191.385 56.1256 192.755C56.8267 194.124 57.1773 195.711 57.1773 197.517C57.1773 199.327 56.8267 200.919 56.1256 202.297C55.4244 203.675 54.4866 204.757 53.3077 205.54C52.1333 206.323 50.8098 206.713 49.3418 206.713C48.4785 206.713 47.6678 206.567 46.914 206.281C46.1602 205.994 45.4941 205.63 44.9244 205.189C44.3503 204.749 43.9077 204.304 43.5966 203.85C43.2855 203.397 43.1277 203.02 43.1277 202.708L44.1312 202.275V204.689C44.1312 205.262 43.9472 205.741 43.5791 206.127C43.2109 206.512 42.7464 206.704 42.1855 206.704C41.6246 206.704 41.16 206.516 40.7919 206.144C40.4238 205.767 40.2397 205.284 40.2397 204.689V183.91C40.2397 183.337 40.4238 182.857 40.7919 182.472C41.16 182.087 41.6246 181.895 42.1855 181.895C42.7464 181.895 43.2109 182.087 43.5791 182.472C43.9472 182.857 44.1312 183.337 44.1312 183.91V192.314L43.5791 192.014C43.5791 191.728 43.7281 191.381 44.0304 190.97C44.3328 190.564 44.7448 190.153 45.2619 189.747C45.779 189.34 46.3793 189.002 47.0586 188.737C47.7378 188.488 48.4566 188.356 49.2147 188.356ZM48.7282 191.997C47.7773 191.997 46.949 192.241 46.2347 192.725C45.5204 193.208 44.9682 193.867 44.5695 194.693C44.1707 195.519 43.9691 196.465 43.9691 197.521C43.9691 198.557 44.1663 199.503 44.5695 200.35C44.9682 201.201 45.5248 201.865 46.2347 202.352C46.949 202.836 47.7773 203.08 48.7282 203.08C49.6792 203.08 50.5031 202.836 51.2043 202.352C51.9054 201.869 52.4576 201.201 52.8564 200.35C53.2552 199.503 53.4568 198.557 53.4568 197.521C53.4568 196.465 53.2552 195.519 52.8564 194.693C52.4576 193.867 51.9054 193.208 51.2043 192.725C50.5031 192.237 49.6748 191.997 48.7282 191.997Z" fill="#010101"/>
<path d="M64.0564 204.595C64.0564 205.177 63.8687 205.664 63.4933 206.055C63.1179 206.446 62.6509 206.642 62.0921 206.642C61.5552 206.642 61.1013 206.446 60.739 206.055C60.3723 205.664 60.189 205.177 60.189 204.595V183.828C60.189 183.246 60.3767 182.759 60.7521 182.368C61.1275 181.977 61.5945 181.781 62.1532 181.781C62.7119 181.781 63.1703 181.977 63.5239 182.368C63.8774 182.759 64.0564 183.246 64.0564 183.828V204.595Z" fill="#010101"/>
<path d="M75.5267 206.408C73.6905 206.408 72.0998 206.019 70.75 205.236C69.4003 204.453 68.3661 203.387 67.643 202.044C66.9199 200.7 66.5605 199.177 66.5605 197.478C66.5605 195.492 66.955 193.802 67.7438 192.399C68.5326 190.999 69.5624 189.921 70.8377 189.172C72.1129 188.423 73.4583 188.047 74.8825 188.047C75.9825 188.047 77.0255 188.278 78.0071 188.74C78.9887 189.202 79.8564 189.835 80.6146 190.644C81.3683 191.449 81.9687 192.382 82.4113 193.438C82.8539 194.495 83.073 195.621 83.073 196.815C83.0511 197.345 82.8452 197.773 82.4595 198.107C82.0695 198.436 81.6181 198.603 81.101 198.603H68.7342L67.7613 195.296H79.6417L78.9274 195.959V195.064C78.8836 194.427 78.6644 193.853 78.2657 193.344C77.8669 192.835 77.3717 192.433 76.7757 192.138C76.1797 191.838 75.5486 191.693 74.8825 191.693C74.2339 191.693 73.6292 191.782 73.0683 191.958C72.5073 192.133 72.0209 192.433 71.6133 192.852C71.2014 193.272 70.8815 193.832 70.6405 194.538C70.4038 195.244 70.2855 196.138 70.2855 197.217C70.2855 198.406 70.5265 199.416 71.013 200.242C71.4994 201.068 72.1261 201.697 72.8886 202.129C73.6555 202.561 74.4706 202.775 75.3339 202.775C76.1315 202.775 76.7669 202.711 77.2446 202.578C77.7179 202.446 78.1035 202.287 78.3927 202.099C78.682 201.911 78.9493 201.753 79.1859 201.62C79.576 201.423 79.9397 201.32 80.2859 201.32C80.7592 201.32 81.1536 201.487 81.4691 201.817C81.7803 202.146 81.938 202.536 81.938 202.976C81.938 203.571 81.6356 204.115 81.0309 204.598C80.47 205.082 79.6811 205.51 78.6688 205.873C77.6521 206.228 76.6092 206.408 75.5267 206.408Z" fill="#010101"/>
<path d="M28.4685 192.287C31.4397 192.287 33.8544 194.644 33.8544 197.545V202.804H28.3064C25.4272 202.804 23.0827 200.515 23.0827 197.704V197.545C23.0827 194.644 25.4973 192.287 28.4685 192.287ZM28.4685 188.594C23.407 188.594 19.3008 192.599 19.3008 197.545V197.704C19.3008 202.56 23.3325 206.497 28.3064 206.497H36.1814C36.9833 206.497 37.6319 205.864 37.6319 205.081V197.55C37.6319 192.603 33.5301 188.594 28.4685 188.594Z" fill="#010101"/>
<path d="M14.9839 187.028C14.9839 189.065 16.6754 190.712 18.757 190.712C20.843 190.712 22.5302 189.061 22.5302 187.028V186.964C22.5302 184.965 20.8693 183.344 18.8227 183.344H14.9795L14.9839 187.028Z" fill="#010101"/>
<path d="M25.4212 183.344C24.4177 183.344 23.6069 184.135 23.6069 185.115V185.783C23.6069 186.763 24.4177 187.554 25.4212 187.554H26.1443C27.1259 187.554 27.9191 186.776 27.9191 185.821V183.344H25.4212Z" fill="#010101"/>
<path d="M5.99316 9.59766C35.3443 9.5883 83.8634 26.3567 158.739 101.236C218.844 161.344 295.311 174.926 349.221 174.926" stroke="#36B992" stroke-width="3"/>
<circle cx="348.416" cy="174.912" r="9.58403" fill="#7DE0C3"/>
<circle cx="348.418" cy="174.913" r="4.79202" fill="#36B992"/>
<circle cx="9.64946" cy="9.58403" r="9.58403" fill="#7DE0C3"/>
<circle cx="9.65188" cy="9.58499" r="4.79202" fill="#36B992"/>
<path d="M9.41016 242.833H8.42578V236.376H8.35547L5.68945 242.774H4.79883L2.13281 236.376H2.0625V242.833H1.07812V234.378H2.30273L5.19727 241.374H5.29102L8.18555 234.378H9.41016V242.833ZM16.1602 242.071C15.6406 242.653 14.9316 242.944 14.0332 242.944C13.1348 242.944 12.4238 242.653 11.9004 242.071C11.3809 241.485 11.1211 240.687 11.1211 239.675C11.1211 238.659 11.3809 237.86 11.9004 237.278C12.4199 236.696 13.1309 236.405 14.0332 236.405C14.9355 236.405 15.6465 236.696 16.166 237.278C16.6855 237.86 16.9453 238.659 16.9453 239.675C16.9453 240.687 16.6836 241.485 16.1602 242.071ZM12.6504 241.421C12.9746 241.831 13.4355 242.036 14.0332 242.036C14.6309 242.036 15.0918 241.831 15.416 241.421C15.7402 241.007 15.9023 240.425 15.9023 239.675C15.9023 238.925 15.7402 238.345 15.416 237.935C15.0918 237.521 14.6309 237.313 14.0332 237.313C13.4355 237.313 12.9746 237.521 12.6504 237.935C12.3262 238.345 12.1641 238.925 12.1641 239.675C12.1641 240.425 12.3262 241.007 12.6504 241.421ZM18.5273 242.833V236.517H19.4883V237.513H19.582C19.918 236.774 20.5508 236.405 21.4805 236.405C22.1875 236.405 22.7324 236.608 23.1152 237.015C23.498 237.417 23.6895 237.993 23.6895 238.743V242.833H22.6816V238.989C22.6816 238.423 22.5586 238.003 22.3125 237.729C22.0703 237.452 21.6973 237.313 21.1934 237.313C20.6855 237.313 20.2812 237.474 19.9805 237.794C19.6836 238.11 19.5352 238.544 19.5352 239.095V242.833H18.5273ZM25.957 234.882H26.9648V236.517H28.3711V237.36H26.9648V240.935C26.9648 241.306 27.0391 241.575 27.1875 241.743C27.3359 241.911 27.5742 241.995 27.9023 241.995C28.0469 241.995 28.2031 241.987 28.3711 241.972V242.821C28.1484 242.86 27.9512 242.88 27.7793 242.88C27.127 242.88 26.6602 242.749 26.3789 242.487C26.0977 242.226 25.957 241.794 25.957 241.192V237.36H24.9375V236.517H25.957V234.882ZM29.9531 242.833V234.009H30.9609V237.513H31.0547C31.2148 237.157 31.459 236.884 31.7871 236.692C32.1191 236.501 32.5234 236.405 33 236.405C33.6719 236.405 34.2031 236.612 34.5938 237.026C34.9844 237.437 35.1797 238.009 35.1797 238.743V242.833H34.1719V238.989C34.1719 237.872 33.6855 237.313 32.7129 237.313C32.1582 237.313 31.7266 237.476 31.418 237.8C31.1133 238.12 30.9609 238.552 30.9609 239.095V242.833H29.9531ZM42.4219 242.833V235.55H42.3281L40.1777 237.108V235.995L42.4277 234.378H43.4766V242.833H42.4219Z" fill="#6B6B6B"/>
<path d="M320.301 242.833H319.316V236.376H319.246L316.58 242.774H315.689L313.023 236.376H312.953V242.833H311.969V234.378H313.193L316.088 241.374H316.182L319.076 234.378H320.301V242.833ZM327.051 242.071C326.531 242.653 325.822 242.944 324.924 242.944C324.025 242.944 323.314 242.653 322.791 242.071C322.271 241.485 322.012 240.687 322.012 239.675C322.012 238.659 322.271 237.86 322.791 237.278C323.311 236.696 324.021 236.405 324.924 236.405C325.826 236.405 326.537 236.696 327.057 237.278C327.576 237.86 327.836 238.659 327.836 239.675C327.836 240.687 327.574 241.485 327.051 242.071ZM323.541 241.421C323.865 241.831 324.326 242.036 324.924 242.036C325.521 242.036 325.982 241.831 326.307 241.421C326.631 241.007 326.793 240.425 326.793 239.675C326.793 238.925 326.631 238.345 326.307 237.935C325.982 237.521 325.521 237.313 324.924 237.313C324.326 237.313 323.865 237.521 323.541 237.935C323.217 238.345 323.055 238.925 323.055 239.675C323.055 240.425 323.217 241.007 323.541 241.421ZM329.418 242.833V236.517H330.379V237.513H330.473C330.809 236.774 331.441 236.405 332.371 236.405C333.078 236.405 333.623 236.608 334.006 237.015C334.389 237.417 334.58 237.993 334.58 238.743V242.833H333.572V238.989C333.572 238.423 333.449 238.003 333.203 237.729C332.961 237.452 332.588 237.313 332.084 237.313C331.576 237.313 331.172 237.474 330.871 237.794C330.574 238.11 330.426 238.544 330.426 239.095V242.833H329.418ZM336.848 234.882H337.855V236.517H339.262V237.36H337.855V240.935C337.855 241.306 337.93 241.575 338.078 241.743C338.227 241.911 338.465 241.995 338.793 241.995C338.937 241.995 339.094 241.987 339.262 241.972V242.821C339.039 242.86 338.842 242.88 338.67 242.88C338.018 242.88 337.551 242.749 337.27 242.487C336.988 242.226 336.848 241.794 336.848 241.192V237.36H335.828V236.517H336.848V234.882ZM340.844 242.833V234.009H341.852V237.513H341.945C342.105 237.157 342.35 236.884 342.678 236.692C343.01 236.501 343.414 236.405 343.891 236.405C344.562 236.405 345.094 236.612 345.484 237.026C345.875 237.437 346.07 238.009 346.07 238.743V242.833H345.062V238.989C345.062 237.872 344.576 237.313 343.603 237.313C343.049 237.313 342.617 237.476 342.309 237.8C342.004 238.12 341.852 238.552 341.852 239.095V242.833H340.844ZM354.279 243.026C353.643 243.026 353.088 242.862 352.615 242.534C352.143 242.202 351.773 241.726 351.508 241.104C351.234 240.464 351.098 239.679 351.098 238.749C351.098 237.296 351.381 236.171 351.947 235.374C352.514 234.577 353.314 234.179 354.35 234.179C355.068 234.179 355.676 234.378 356.172 234.776C356.672 235.171 356.988 235.708 357.121 236.388H356.037C355.924 235.993 355.715 235.683 355.41 235.456C355.109 235.229 354.752 235.116 354.338 235.116C353.65 235.116 353.115 235.413 352.732 236.007C352.353 236.601 352.15 237.46 352.123 238.585H352.217C352.424 238.175 352.725 237.856 353.119 237.63C353.514 237.399 353.963 237.284 354.467 237.284C355.271 237.284 355.936 237.552 356.459 238.087C356.982 238.618 357.244 239.294 357.244 240.114C357.244 240.966 356.967 241.665 356.412 242.212C355.857 242.755 355.146 243.026 354.279 243.026ZM352.902 241.532C353.27 241.911 353.725 242.101 354.268 242.101C354.811 242.101 355.264 241.915 355.627 241.544C355.994 241.169 356.178 240.704 356.178 240.149C356.178 239.571 356 239.103 355.645 238.743C355.293 238.38 354.838 238.198 354.279 238.198C353.721 238.198 353.26 238.378 352.896 238.737C352.537 239.097 352.357 239.556 352.357 240.114C352.357 240.681 352.539 241.153 352.902 241.532Z" fill="#6B6B6B"/>
</svg>
