<svg width="40" height="40" viewBox="0 0 40 40" fill="none" xmlns="http://www.w3.org/2000/svg">
<rect width="40" height="40" rx="20" fill="#1375D6"/>
<g clip-path="url(#clip0_556_3891)">
<path d="M29.4972 18.192C29.12 17.9123 28.7985 17.5644 28.5496 17.1663C28.4334 16.6869 28.4095 16.1898 28.4793 15.7015C28.5358 14.7867 28.5994 13.7498 27.9248 13.0765C27.2502 12.4032 26.2146 12.4662 25.2998 12.522C24.8115 12.5914 24.3144 12.5673 23.8351 12.4511C23.4364 12.202 23.0881 11.8804 22.808 11.5028C22.1918 10.7987 21.4936 10 20.5 10C19.5064 10 18.8082 10.7987 18.192 11.5028C17.9121 11.8799 17.5642 12.2013 17.1662 12.4504C16.6869 12.5666 16.1898 12.5905 15.7015 12.5207C14.7873 12.4642 13.7505 12.4012 13.0765 13.0758C12.4025 13.7505 12.4649 14.7867 12.5213 15.7008C12.5911 16.1891 12.5673 16.6862 12.4511 17.1656C12.202 17.564 11.8803 17.9122 11.5028 18.192C10.798 18.8082 10 19.5064 10 20.5C10 21.4936 10.798 22.1918 11.5028 22.808C11.88 23.0877 12.2015 23.4356 12.4504 23.8337C12.5667 24.3133 12.5905 24.8107 12.5207 25.2992C12.4642 26.2133 12.4006 27.2502 13.0752 27.9242C13.7498 28.5981 14.7854 28.5351 15.7002 28.4787C16.1885 28.4093 16.6856 28.4333 17.1649 28.5496C17.5633 28.7985 17.9114 29.1199 18.1913 29.4972C18.8075 30.2013 19.5038 31 20.4993 31C21.4949 31 22.1912 30.2013 22.8074 29.4972C23.0872 29.1201 23.4351 28.7987 23.8331 28.5496C24.3125 28.4334 24.8096 28.4095 25.2978 28.4793C26.212 28.5358 27.2495 28.5994 27.9228 27.9242C28.5962 27.2489 28.5345 26.2133 28.478 25.2992C28.4082 24.8107 28.432 24.3133 28.5482 23.8337C28.7972 23.4356 29.1187 23.0877 29.4959 22.808C30.2007 22.1918 30.9987 21.4955 30.9987 20.5C30.9987 19.5045 30.202 18.8082 29.4972 18.192ZM28.6336 21.8204C28.0939 22.2202 27.6508 22.736 27.3368 23.3298C27.1298 23.9916 27.0726 24.6912 27.1695 25.3779C27.2082 26.0158 27.2528 26.739 26.9962 26.9949C26.7396 27.2508 26.0171 27.2056 25.3792 27.1682C24.6925 27.0716 23.993 27.1287 23.3311 27.3355C22.7374 27.6497 22.2217 28.0927 21.8217 28.6322C21.3669 29.152 20.8977 29.6875 20.5 29.6875C20.1023 29.6875 19.6331 29.152 19.1796 28.6336C18.7796 28.0941 18.2639 27.651 17.6702 27.3368C17.2745 27.1891 16.8535 27.1206 16.4312 27.1353C16.1622 27.1353 15.8892 27.1524 15.6188 27.1688C14.9803 27.2088 14.2584 27.2528 14.0018 26.9962C13.7452 26.7396 13.7905 26.0171 13.8292 25.3799C13.9261 24.693 13.8689 23.9931 13.6619 23.3311C13.3479 22.7373 12.9048 22.2215 12.3651 21.8217C11.848 21.3663 11.3125 20.8977 11.3125 20.5C11.3125 20.1023 11.848 19.6337 12.3664 19.1796C12.9061 18.7798 13.3492 18.264 13.6632 17.6702C13.8702 17.0084 13.9274 16.3088 13.8305 15.6221C13.7918 14.9829 13.7472 14.2597 14.0031 14.0031C14.2591 13.7465 14.9822 13.7918 15.6201 13.8299C16.3068 13.9272 17.0065 13.87 17.6683 13.6625C18.2619 13.3484 18.7776 12.9053 19.1777 12.3658C19.6331 11.848 20.1023 11.3125 20.5 11.3125C20.8977 11.3125 21.3669 11.848 21.8204 12.3664C22.2204 12.9059 22.7361 13.349 23.3297 13.6632C23.9918 13.8705 24.6916 13.9279 25.3786 13.8312C26.0177 13.7918 26.739 13.7472 26.9956 14.0038C27.2522 14.2604 27.2069 14.9829 27.1682 15.6201C27.0713 16.307 27.1285 17.0069 27.3355 17.6689C27.6495 18.2627 28.0926 18.7785 28.6322 19.1783C29.152 19.6337 29.6875 20.1023 29.6875 20.5C29.6875 20.8977 29.152 21.3662 28.6336 21.8204Z" fill="white"/>
<path d="M19.8438 17.875C19.8438 17.4856 19.7283 17.105 19.512 16.7812C19.2956 16.4575 18.9882 16.2051 18.6284 16.0561C18.2687 15.9071 17.8728 15.8681 17.4909 15.9441C17.109 16.02 16.7582 16.2075 16.4829 16.4829C16.2075 16.7582 16.02 17.109 15.9441 17.4909C15.8681 17.8728 15.9071 18.2687 16.0561 18.6284C16.2051 18.9882 16.4575 19.2956 16.7812 19.512C17.105 19.7283 17.4856 19.8438 17.875 19.8438C18.3971 19.8438 18.8979 19.6363 19.2671 19.2671C19.6363 18.8979 19.8438 18.3971 19.8438 17.875ZM17.2188 17.875C17.2188 17.7452 17.2572 17.6183 17.3293 17.5104C17.4015 17.4025 17.504 17.3184 17.6239 17.2687C17.7438 17.219 17.8757 17.206 18.003 17.2314C18.1303 17.2567 18.2473 17.3192 18.339 17.411C18.4308 17.5027 18.4933 17.6197 18.5186 17.747C18.544 17.8743 18.531 18.0062 18.4813 18.1261C18.4316 18.2461 18.3475 18.3485 18.2396 18.4207C18.1317 18.4928 18.0048 18.5313 17.875 18.5313C17.701 18.5313 17.534 18.4621 17.411 18.339C17.2879 18.216 17.2188 18.049 17.2188 17.875Z" fill="white"/>
<path d="M23.125 21.1562C22.7356 21.1562 22.355 21.2717 22.0312 21.488C21.7075 21.7044 21.4551 22.0118 21.3061 22.3716C21.1571 22.7313 21.1181 23.1272 21.1941 23.5091C21.27 23.891 21.4575 24.2418 21.7329 24.5171C22.0082 24.7925 22.359 24.98 22.7409 25.0559C23.1228 25.1319 23.5187 25.0929 23.8784 24.9439C24.2382 24.7949 24.5456 24.5425 24.762 24.2188C24.9783 23.895 25.0938 23.5144 25.0938 23.125C25.0938 22.6029 24.8863 22.1021 24.5171 21.7329C24.1479 21.3637 23.6471 21.1563 23.125 21.1562ZM23.125 23.7812C22.9952 23.7812 22.8683 23.7428 22.7604 23.6707C22.6525 23.5985 22.5684 23.496 22.5187 23.3761C22.469 23.2562 22.456 23.1243 22.4814 22.997C22.5067 22.8697 22.5692 22.7527 22.661 22.661C22.7527 22.5692 22.8697 22.5067 22.997 22.4814C23.1243 22.456 23.2562 22.469 23.3761 22.5187C23.4961 22.5684 23.5985 22.6525 23.6707 22.7604C23.7428 22.8683 23.7813 22.9952 23.7813 23.125C23.7813 23.299 23.7121 23.466 23.589 23.589C23.466 23.7121 23.299 23.7812 23.125 23.7812Z" fill="white"/>
<path d="M24.2307 16.7696C24.1738 16.7054 24.1041 16.6536 24.0261 16.6177C23.9481 16.5818 23.8634 16.5625 23.7776 16.5611C23.6917 16.5597 23.6065 16.5762 23.5274 16.6095C23.4482 16.6428 23.3769 16.6922 23.3178 16.7546L16.7553 23.317C16.168 23.9044 17.0835 24.8468 17.6833 24.245L24.2458 17.6825C24.3075 17.6231 24.3564 17.5516 24.3893 17.4726C24.4222 17.3935 24.4384 17.3084 24.437 17.2228C24.4356 17.1371 24.4166 17.0527 24.3811 16.9747C24.3456 16.8968 24.2944 16.8269 24.2307 16.7696Z" fill="white"/>
</g>
<defs>
<clipPath id="clip0_556_3891">
<rect width="21" height="21" fill="white" transform="translate(10 10)"/>
</clipPath>
</defs>
</svg>
