<svg width="40" height="40" viewBox="0 0 40 40" fill="none" xmlns="http://www.w3.org/2000/svg">
<rect width="40" height="40" rx="20" fill="#EB731A"/>
<path d="M12.381 16.1244V18.1701C12.381 18.691 12.7934 19.1133 13.3023 19.1133H19.4398L19.4397 15.181H13.3022C12.7933 15.181 12.3809 15.6033 12.3809 16.1242L12.381 16.1244Z" fill="white"/>
<path d="M26.6971 15.1813H20.5596V19.1135H26.6971C27.2059 19.1135 27.6184 18.6913 27.6184 18.1703V16.1246C27.6182 15.6037 27.2058 15.1814 26.6969 15.1814L26.6971 15.1813Z" fill="white"/>
<path d="M13.2373 27.9606C13.2373 28.2981 13.5045 28.5717 13.8342 28.5717H19.4398L19.4396 19.8099H13.2373L13.2373 27.9606Z" fill="white"/>
<path d="M20.5596 28.5714H26.1652C26.4948 28.5714 26.762 28.2978 26.762 27.9603L26.7619 19.8094H20.5596L20.5596 28.5714Z" fill="white"/>
<path d="M16.073 14.5172C16.2661 14.6275 16.6588 14.7739 17.8353 14.7739C18.4837 14.7739 19.0575 14.7286 19.0815 14.7266C19.2114 14.7164 19.3277 14.64 19.3911 14.5233C19.4546 14.4068 19.4568 14.2654 19.3971 14.1468C19.2194 13.7937 18.2992 12.0132 17.6409 11.6376C17.4015 11.5009 17.1308 11.4287 16.858 11.4287C16.2739 11.4287 15.7346 11.7529 15.4505 12.2748C15.0183 13.0689 15.2975 14.0748 16.073 14.5173L16.073 14.5172ZM16.1305 12.6627C16.2773 12.393 16.5561 12.2256 16.8579 12.2256C16.9984 12.2256 17.138 12.2629 17.2617 12.3336C17.5032 12.4715 17.9929 13.2068 18.4151 13.9652C18.2404 13.9718 18.0409 13.9766 17.8351 13.9766C16.8048 13.9766 16.516 13.8574 16.4517 13.8208C16.0516 13.5925 15.9071 13.0729 16.1305 12.6627Z" fill="white"/>
<path d="M20.9194 14.7268C20.9435 14.7286 21.5172 14.7741 22.1656 14.7741C23.342 14.7741 23.7347 14.6277 23.9279 14.5174C24.7033 14.075 24.9826 13.0691 24.5504 12.2749C24.2663 11.7529 23.727 11.4287 23.143 11.4287C22.8702 11.4287 22.5994 11.5009 22.36 11.6374C21.7018 12.013 20.7814 13.7936 20.6038 14.1467C20.5441 14.2653 20.5463 14.4067 20.6098 14.5232C20.6732 14.64 20.7895 14.7163 20.9194 14.7267L20.9194 14.7268ZM22.7391 12.3337C22.8628 12.263 23.0025 12.2257 23.1428 12.2257C23.4448 12.2257 23.7235 12.3931 23.8703 12.6628C24.0935 13.0729 23.9493 13.5923 23.5488 13.8211C23.4848 13.8576 23.1957 13.9769 22.1654 13.9769C21.9596 13.9769 21.7604 13.972 21.5854 13.9655C22.0079 13.2069 22.4975 12.4716 22.7391 12.3337Z" fill="white"/>
</svg>
