<svg width="16" height="17" viewBox="0 0 16 17" fill="none" xmlns="http://www.w3.org/2000/svg">
<g clip-path="url(#clip0_1402_1075)">
<path d="M14.3877 0.164062H5.30462C4.8775 0.165683 4.46835 0.336072 4.16633 0.638087C3.86432 0.940103 3.69393 1.34926 3.69231 1.77637V3.85637H1.61231C1.1852 3.85799 0.77604 4.02838 0.474025 4.3304C0.172009 4.63241 0.00162093 5.04157 0 5.46868V14.5518C0.00162093 14.9789 0.172009 15.388 0.474025 15.69C0.77604 15.9921 1.1852 16.1624 1.61231 16.1641H10.6954C11.1225 16.1624 11.5317 15.9921 11.8337 15.69C12.1357 15.388 12.3061 14.9789 12.3077 14.5518V12.4718H14.3877C14.8148 12.4701 15.224 12.2997 15.526 11.9977C15.828 11.6957 15.9984 11.2866 16 10.8594V1.77637C15.9984 1.34926 15.828 0.940103 15.526 0.638087C15.224 0.336072 14.8148 0.165683 14.3877 0.164062ZM11.0769 14.5518C11.0769 14.6529 11.0367 14.75 10.9652 14.8215C10.8936 14.8931 10.7966 14.9333 10.6954 14.9333H1.61231C1.51112 14.9333 1.41407 14.8931 1.34252 14.8215C1.27097 14.75 1.23077 14.6529 1.23077 14.5518V5.46868C1.23077 5.36749 1.27097 5.27044 1.34252 5.19889C1.41407 5.12734 1.51112 5.08714 1.61231 5.08714H10.6954C10.7966 5.08714 10.8936 5.12734 10.9652 5.19889C11.0367 5.27044 11.0769 5.36749 11.0769 5.46868V14.5518ZM14.7692 10.8594C14.7692 10.9606 14.729 11.0577 14.6575 11.1292C14.5859 11.2008 14.4889 11.241 14.3877 11.241H12.3077V5.46868C12.3061 5.04157 12.1357 4.63241 11.8337 4.3304C11.5317 4.02838 11.1225 3.85799 10.6954 3.85637H4.92308V1.77637C4.92308 1.67518 4.96327 1.57813 5.03483 1.50658C5.10638 1.43503 5.20343 1.39483 5.30462 1.39483H14.3877C14.4889 1.39483 14.5859 1.43503 14.6575 1.50658C14.729 1.57813 14.7692 1.67518 14.7692 1.77637V10.8594Z" fill="white"/>
</g>
<defs>
<clipPath id="clip0_1402_1075">
<rect width="16" height="16" fill="white" transform="translate(0 0.164062)"/>
</clipPath>
</defs>
</svg>
