<svg width="16" height="16" viewBox="0 0 16 16" fill="none" xmlns="http://www.w3.org/2000/svg">
<g id="Close">
<path id="Vector" d="M14.0375 1.30615C13.6432 0.91176 13.0061 0.91176 12.6117 1.30615L7.66667 6.24105L2.72165 1.29603C2.32727 0.901647 1.69018 0.901647 1.29579 1.29603C0.901403 1.69042 0.901403 2.32751 1.29579 2.7219L6.2408 7.66691L1.29579 12.6119C0.901403 13.0063 0.901403 13.6434 1.29579 14.0378C1.69018 14.4322 2.32727 14.4322 2.72165 14.0378L7.66667 9.09277L12.6117 14.0378C13.0061 14.4322 13.6432 14.4322 14.0375 14.0378C14.4319 13.6434 14.4319 13.0063 14.0375 12.6119L9.09253 7.66691L14.0375 2.7219C14.4218 2.33762 14.4218 1.69042 14.0375 1.30615Z" fill="white"/>
</g>
</svg>
