<svg width="77" height="32" viewBox="0 0 77 32" fill="none" xmlns="http://www.w3.org/2000/svg">
<path d="M0 4C0 1.79086 1.79086 0 4 0H73C75.2091 0 77 1.79086 77 4V28C77 30.2091 75.2091 32 73 32H4C1.79086 32 0 30.2091 0 28V4Z" fill="white"/>
<path d="M24.3299 7H25.4299V13H27.2399V14H24.3299V7ZM27.7674 7H28.8674V14H27.7674V7ZM31.2413 14.1C30.7146 14.1 30.3113 13.95 30.0313 13.65C29.7579 13.35 29.6213 12.9267 29.6213 12.38V8.62C29.6213 8.07333 29.7579 7.65 30.0313 7.35C30.3113 7.05 30.7146 6.9 31.2413 6.9C31.7679 6.9 32.1679 7.05 32.4413 7.35C32.7213 7.65 32.8613 8.07333 32.8613 8.62V9.36H31.8213V8.55C31.8213 8.11667 31.6379 7.9 31.2713 7.9C30.9046 7.9 30.7213 8.11667 30.7213 8.55V12.46C30.7213 12.8867 30.9046 13.1 31.2713 13.1C31.6379 13.1 31.8213 12.8867 31.8213 12.46V11.39H32.8613V12.38C32.8613 12.9267 32.7213 13.35 32.4413 13.65C32.1679 13.95 31.7679 14.1 31.2413 14.1ZM33.5194 7H36.5194V8H34.6194V9.85H36.1294V10.85H34.6194V13H36.5194V14H33.5194V7ZM37.1522 7H38.5322L39.6022 11.19H39.6222V7H40.6022V14H39.4722L38.1522 8.89H38.1322V14H37.1522V7ZM42.9698 14.1C42.4431 14.1 42.0398 13.95 41.7598 13.65C41.4864 13.35 41.3498 12.9267 41.3498 12.38V8.62C41.3498 8.07333 41.4864 7.65 41.7598 7.35C42.0398 7.05 42.4431 6.9 42.9698 6.9C43.4964 6.9 43.8964 7.05 44.1698 7.35C44.4498 7.65 44.5898 8.07333 44.5898 8.62V9.36H43.5498V8.55C43.5498 8.11667 43.3664 7.9 42.9998 7.9C42.6331 7.9 42.4498 8.11667 42.4498 8.55V12.46C42.4498 12.8867 42.6331 13.1 42.9998 13.1C43.3664 13.1 43.5498 12.8867 43.5498 12.46V11.39H44.5898V12.38C44.5898 12.9267 44.4498 13.35 44.1698 13.65C43.8964 13.95 43.4964 14.1 42.9698 14.1ZM45.5079 14.04C45.3079 14.04 45.1379 14.0267 44.9979 14V13C45.1046 13.0267 45.2246 13.04 45.3579 13.04C45.5779 13.04 45.7412 12.9867 45.8479 12.88C45.9546 12.7667 46.0079 12.5967 46.0079 12.37V7H47.1079V12.34C47.1079 12.9133 46.9746 13.34 46.7079 13.62C46.4479 13.9 46.0479 14.04 45.5079 14.04ZM48.7248 7H50.2148L51.3548 14H50.2548L50.0548 12.61V12.63H48.8048L48.6048 14H47.5848L48.7248 7ZM49.9248 11.68L49.4348 8.22H49.4148L48.9348 11.68H49.9248ZM17.9474 24.1C17.4141 24.1 17.0108 23.95 16.7374 23.65C16.4641 23.3433 16.3274 22.9067 16.3274 22.34V21.94H17.3674V22.42C17.3674 22.8733 17.5574 23.1 17.9374 23.1C18.1241 23.1 18.2641 23.0467 18.3574 22.94C18.4574 22.8267 18.5074 22.6467 18.5074 22.4C18.5074 22.1067 18.4408 21.85 18.3074 21.63C18.1741 21.4033 17.9274 21.1333 17.5674 20.82C17.1141 20.42 16.7974 20.06 16.6174 19.74C16.4374 19.4133 16.3474 19.0467 16.3474 18.64C16.3474 18.0867 16.4874 17.66 16.7674 17.36C17.0474 17.0533 17.4541 16.9 17.9874 16.9C18.5141 16.9 18.9108 17.0533 19.1774 17.36C19.4508 17.66 19.5874 18.0933 19.5874 18.66V18.95H18.5474V18.59C18.5474 18.35 18.5008 18.1767 18.4074 18.07C18.3141 17.9567 18.1774 17.9 17.9974 17.9C17.6308 17.9 17.4474 18.1233 17.4474 18.57C17.4474 18.8233 17.5141 19.06 17.6474 19.28C17.7874 19.5 18.0374 19.7667 18.3974 20.08C18.8574 20.48 19.1741 20.8433 19.3474 21.17C19.5208 21.4967 19.6074 21.88 19.6074 22.32C19.6074 22.8933 19.4641 23.3333 19.1774 23.64C18.8974 23.9467 18.4874 24.1 17.9474 24.1ZM21.0981 18H19.9481V17H23.3481V18H22.1981V24H21.0981V18ZM24.2717 17H25.7617L26.9017 24H25.8017L25.6017 22.61V22.63H24.3517L24.1517 24H23.1317L24.2717 17ZM25.4717 21.68L24.9817 18.22H24.9617L24.4817 21.68H25.4717ZM27.4354 17H28.8154L29.8854 21.19H29.9054V17H30.8854V24H29.7554L28.4354 18.89H28.4154V24H27.4354V17ZM31.703 17H33.383C33.9296 17 34.3396 17.1467 34.613 17.44C34.8863 17.7333 35.023 18.1633 35.023 18.73V22.27C35.023 22.8367 34.8863 23.2667 34.613 23.56C34.3396 23.8533 33.9296 24 33.383 24H31.703V17ZM33.363 23C33.543 23 33.6796 22.9467 33.773 22.84C33.873 22.7333 33.923 22.56 33.923 22.32V18.68C33.923 18.44 33.873 18.2667 33.773 18.16C33.6796 18.0533 33.543 18 33.363 18H32.803V23H33.363ZM36.5959 17H38.0859L39.2259 24H38.1259L37.9259 22.61V22.63H36.6759L36.4759 24H35.4559L36.5959 17ZM37.7959 21.68L37.3059 18.22H37.2859L36.8059 21.68H37.7959ZM39.7596 17H41.3896C41.9563 17 42.3696 17.1333 42.6296 17.4C42.8896 17.66 43.0196 18.0633 43.0196 18.61V19.04C43.0196 19.7667 42.7796 20.2267 42.2996 20.42V20.44C42.5663 20.52 42.7529 20.6833 42.8596 20.93C42.9729 21.1767 43.0296 21.5067 43.0296 21.92V23.15C43.0296 23.35 43.0363 23.5133 43.0496 23.64C43.0629 23.76 43.0963 23.88 43.1496 24H42.0296C41.9896 23.8867 41.9629 23.78 41.9496 23.68C41.9363 23.58 41.9296 23.4 41.9296 23.14V21.86C41.9296 21.54 41.8763 21.3167 41.7696 21.19C41.6696 21.0633 41.4929 21 41.2396 21H40.8596V24H39.7596V17ZM41.2596 20C41.4796 20 41.6429 19.9433 41.7496 19.83C41.8629 19.7167 41.9196 19.5267 41.9196 19.26V18.72C41.9196 18.4667 41.8729 18.2833 41.7796 18.17C41.6929 18.0567 41.5529 18 41.3596 18H40.8596V20H41.2596ZM43.7928 17H45.4728C46.0195 17 46.4295 17.1467 46.7028 17.44C46.9761 17.7333 47.1128 18.1633 47.1128 18.73V22.27C47.1128 22.8367 46.9761 23.2667 46.7028 23.56C46.4295 23.8533 46.0195 24 45.4728 24H43.7928V17ZM45.4528 23C45.6328 23 45.7695 22.9467 45.8628 22.84C45.9628 22.7333 46.0128 22.56 46.0128 22.32V18.68C46.0128 18.44 45.9628 18.2667 45.8628 18.16C45.7695 18.0533 45.6328 18 45.4528 18H44.8928V23H45.4528ZM49.4453 24.1C48.9053 24.1 48.492 23.9467 48.2053 23.64C47.9186 23.3333 47.7753 22.9 47.7753 22.34V18.66C47.7753 18.1 47.9186 17.6667 48.2053 17.36C48.492 17.0533 48.9053 16.9 49.4453 16.9C49.9853 16.9 50.3986 17.0533 50.6853 17.36C50.972 17.6667 51.1153 18.1 51.1153 18.66V22.34C51.1153 22.9 50.972 23.3333 50.6853 23.64C50.3986 23.9467 49.9853 24.1 49.4453 24.1ZM49.4453 23.1C49.8253 23.1 50.0153 22.87 50.0153 22.41V18.59C50.0153 18.13 49.8253 17.9 49.4453 17.9C49.0653 17.9 48.8753 18.13 48.8753 18.59V22.41C48.8753 22.87 49.0653 23.1 49.4453 23.1ZM51.5992 17H52.6592L53.1492 22.38H53.1692L53.6892 17H54.8892L55.4092 22.38H55.4292L55.9192 17H56.8692L56.1592 24H54.7892L54.2892 19.28H54.2692L53.7692 24H52.3092L51.5992 17ZM58.1389 17H59.6289L60.7689 24H59.6689L59.4689 22.61V22.63H58.2189L58.0189 24H56.9989L58.1389 17ZM59.3389 21.68L58.8489 18.22H58.8289L58.3489 21.68H59.3389Z" fill="#4792DE"/>
<path d="M4 1H73V-1H4V1ZM76 4V28H78V4H76ZM73 31H4V33H73V31ZM1 28V4H-1V28H1ZM4 31C2.34315 31 1 29.6569 1 28H-1C-1 30.7614 1.23858 33 4 33V31ZM76 28C76 29.6569 74.6569 31 73 31V33C75.7614 33 78 30.7614 78 28H76ZM73 1C74.6569 1 76 2.34315 76 4H78C78 1.23858 75.7614 -1 73 -1V1ZM4 -1C1.23858 -1 -1 1.23858 -1 4H1C1 2.34315 2.34315 1 4 1V-1Z" fill="#4792DE"/>
</svg>
