<svg width="77" height="32" viewBox="0 0 77 32" fill="none" xmlns="http://www.w3.org/2000/svg">
<path d="M0 4C0 1.79086 1.79086 0 4 0H73C75.2091 0 77 1.79086 77 4V28C77 30.2091 75.2091 32 73 32H4C1.79086 32 0 30.2091 0 28V4Z" fill="#5499F5"/>
<path d="M20.243 7H23.243V8H21.343V9.85H22.853V10.85H21.343V13H23.243V14H20.243V7ZM23.8758 7H25.5058C26.0725 7 26.4858 7.13333 26.7458 7.4C27.0058 7.66 27.1358 8.06333 27.1358 8.61V9.04C27.1358 9.76667 26.8958 10.2267 26.4158 10.42V10.44C26.6825 10.52 26.8692 10.6833 26.9758 10.93C27.0892 11.1767 27.1458 11.5067 27.1458 11.92V13.15C27.1458 13.35 27.1525 13.5133 27.1658 13.64C27.1792 13.76 27.2125 13.88 27.2658 14H26.1458C26.1058 13.8867 26.0792 13.78 26.0658 13.68C26.0525 13.58 26.0458 13.4 26.0458 13.14V11.86C26.0458 11.54 25.9925 11.3167 25.8858 11.19C25.7858 11.0633 25.6092 11 25.3558 11H24.9758V14H23.8758V7ZM25.3758 10C25.5958 10 25.7592 9.94333 25.8658 9.83C25.9792 9.71667 26.0358 9.52667 26.0358 9.26V8.72C26.0358 8.46667 25.9892 8.28333 25.8958 8.17C25.8092 8.05667 25.6692 8 25.4758 8H24.9758V10H25.3758ZM27.6295 7H28.6895L29.1795 12.38H29.1995L29.7195 7H30.9195L31.4395 12.38H31.4595L31.9495 7H32.8995L32.1895 14H30.8195L30.3195 9.28H30.2995L29.7995 14H28.3395L27.6295 7ZM33.4559 7H36.4559V8H34.5559V9.85H36.0659V10.85H34.5559V13H36.4559V14H33.4559V7ZM37.0887 7H38.1887V14H37.0887V7ZM39.8725 8H38.7225V7H42.1225V8H40.9725V14H39.8725V8ZM42.6551 7H45.6551V8H43.7551V9.85H45.2651V10.85H43.7551V13H45.6551V14H42.6551V7ZM46.2879 7H47.9179C48.4846 7 48.8979 7.13333 49.1579 7.4C49.4179 7.66 49.5479 8.06333 49.5479 8.61V9.04C49.5479 9.76667 49.3079 10.2267 48.8279 10.42V10.44C49.0946 10.52 49.2813 10.6833 49.3879 10.93C49.5013 11.1767 49.5579 11.5067 49.5579 11.92V13.15C49.5579 13.35 49.5646 13.5133 49.5779 13.64C49.5913 13.76 49.6246 13.88 49.6779 14H48.5579C48.5179 13.8867 48.4913 13.78 48.4779 13.68C48.4646 13.58 48.4579 13.4 48.4579 13.14V11.86C48.4579 11.54 48.4046 11.3167 48.2979 11.19C48.1979 11.0633 48.0213 11 47.7679 11H47.3879V14H46.2879V7ZM47.7879 10C48.0079 10 48.1713 9.94333 48.2779 9.83C48.3913 9.71667 48.4479 9.52667 48.4479 9.26V8.72C48.4479 8.46667 48.4013 8.28333 48.3079 8.17C48.2213 8.05667 48.0813 8 47.8879 8H47.3879V10H47.7879ZM51.1616 8H50.0116V7H53.4116V8H52.2616V14H51.1616V8ZM53.9442 7H56.9442V8H55.0442V9.85H56.5542V10.85H55.0442V13H56.9442V14H53.9442V7ZM28.6561 17H29.7561V23H31.5661V24H28.6561V17ZM32.0936 17H33.1936V24H32.0936V17ZM33.7974 23.02L35.8374 18H33.8974V17H37.0174V17.98L34.9774 23H37.0174V24H33.7974V23.02ZM37.6405 17H40.6405V18H38.7405V19.85H40.2505V20.85H38.7405V23H40.6405V24H37.6405V17ZM41.2733 17H42.6533L43.7233 21.19H43.7433V17H44.7233V24H43.5933L42.2733 18.89H42.2533V24H41.2733V17ZM45.3209 23.02L47.3609 18H45.4209V17H48.5409V17.98L46.5009 23H48.5409V24H45.3209V23.02Z" fill="white"/>
</svg>
