<svg width="77" height="32" viewBox="0 0 77 32" fill="none" xmlns="http://www.w3.org/2000/svg">
<path d="M0 4C0 1.79086 1.79086 0 4 0H73C75.2091 0 77 1.79086 77 4V28C77 30.2091 75.2091 32 73 32H4C1.79086 32 0 30.2091 0 28V4Z" fill="#5499F5"/>
<path d="M23.4022 7H26.4022V8H24.5022V9.85H26.0122V10.85H24.5022V13H26.4022V14H23.4022V7ZM28.0245 10.42L26.8145 7H27.9745L28.7145 9.26H28.7345L29.4945 7H30.5345L29.3245 10.42L30.5945 14H29.4345L28.6345 11.56H28.6145L27.7945 14H26.7545L28.0245 10.42ZM31.977 8H30.827V7H34.227V8H33.077V14H31.977V8ZM34.7596 7H37.7596V8H35.8596V9.85H37.3696V10.85H35.8596V13H37.7596V14H34.7596V7ZM38.3924 7H39.7724L40.8424 11.19H40.8624V7H41.8424V14H40.7124L39.3924 8.89H39.3724V14H38.3924V7ZM42.66 7H44.34C44.8867 7 45.2967 7.14667 45.57 7.44C45.8433 7.73333 45.98 8.16333 45.98 8.73V12.27C45.98 12.8367 45.8433 13.2667 45.57 13.56C45.2967 13.8533 44.8867 14 44.34 14H42.66V7ZM44.32 13C44.5 13 44.6367 12.9467 44.73 12.84C44.83 12.7333 44.88 12.56 44.88 12.32V8.68C44.88 8.44 44.83 8.26667 44.73 8.16C44.6367 8.05333 44.5 8 44.32 8H43.76V13H44.32ZM46.7225 7H49.7225V8H47.8225V9.85H49.3325V10.85H47.8225V13H49.7225V14H46.7225V7ZM50.3553 7H52.0353C52.582 7 52.992 7.14667 53.2653 7.44C53.5386 7.73333 53.6753 8.16333 53.6753 8.73V12.27C53.6753 12.8367 53.5386 13.2667 53.2653 13.56C52.992 13.8533 52.582 14 52.0353 14H50.3553V7ZM52.0153 13C52.1953 13 52.332 12.9467 52.4253 12.84C52.5253 12.7333 52.5753 12.56 52.5753 12.32V8.68C52.5753 8.44 52.5253 8.26667 52.4253 8.16C52.332 8.05333 52.1953 8 52.0153 8H51.4553V13H52.0153ZM26.6883 17H27.7883V23H29.5983V24H26.6883V17ZM30.1258 17H31.2258V24H30.1258V17ZM33.5996 24.1C33.073 24.1 32.6696 23.95 32.3896 23.65C32.1163 23.35 31.9796 22.9267 31.9796 22.38V18.62C31.9796 18.0733 32.1163 17.65 32.3896 17.35C32.6696 17.05 33.073 16.9 33.5996 16.9C34.1263 16.9 34.5263 17.05 34.7996 17.35C35.0796 17.65 35.2196 18.0733 35.2196 18.62V19.36H34.1796V18.55C34.1796 18.1167 33.9963 17.9 33.6296 17.9C33.263 17.9 33.0796 18.1167 33.0796 18.55V22.46C33.0796 22.8867 33.263 23.1 33.6296 23.1C33.9963 23.1 34.1796 22.8867 34.1796 22.46V21.39H35.2196V22.38C35.2196 22.9267 35.0796 23.35 34.7996 23.65C34.5263 23.95 34.1263 24.1 33.5996 24.1ZM35.8778 17H38.8778V18H36.9778V19.85H38.4878V20.85H36.9778V23H38.8778V24H35.8778V17ZM39.5106 17H40.8906L41.9606 21.19H41.9806V17H42.9606V24H41.8306L40.5106 18.89H40.4906V24H39.5106V17ZM45.2082 24.1C44.6748 24.1 44.2715 23.95 43.9982 23.65C43.7248 23.3433 43.5882 22.9067 43.5882 22.34V21.94H44.6282V22.42C44.6282 22.8733 44.8182 23.1 45.1982 23.1C45.3848 23.1 45.5248 23.0467 45.6182 22.94C45.7182 22.8267 45.7682 22.6467 45.7682 22.4C45.7682 22.1067 45.7015 21.85 45.5682 21.63C45.4348 21.4033 45.1882 21.1333 44.8282 20.82C44.3748 20.42 44.0582 20.06 43.8782 19.74C43.6982 19.4133 43.6082 19.0467 43.6082 18.64C43.6082 18.0867 43.7482 17.66 44.0282 17.36C44.3082 17.0533 44.7148 16.9 45.2482 16.9C45.7748 16.9 46.1715 17.0533 46.4382 17.36C46.7115 17.66 46.8482 18.0933 46.8482 18.66V18.95H45.8082V18.59C45.8082 18.35 45.7615 18.1767 45.6682 18.07C45.5748 17.9567 45.4382 17.9 45.2582 17.9C44.8915 17.9 44.7082 18.1233 44.7082 18.57C44.7082 18.8233 44.7748 19.06 44.9082 19.28C45.0482 19.5 45.2982 19.7667 45.6582 20.08C46.1182 20.48 46.4348 20.8433 46.6082 21.17C46.7815 21.4967 46.8682 21.88 46.8682 22.32C46.8682 22.8933 46.7248 23.3333 46.4382 23.64C46.1582 23.9467 45.7482 24.1 45.2082 24.1ZM47.4989 17H50.4989V18H48.5989V19.85H50.1089V20.85H48.5989V23H50.4989V24H47.4989V17Z" fill="white"/>
</svg>
