<svg width="77" height="32" viewBox="0 0 77 32" fill="none" xmlns="http://www.w3.org/2000/svg">
<path d="M0 4C0 1.79086 1.79086 0 4 0H73C75.2091 0 77 1.79086 77 4V28C77 30.2091 75.2091 32 73 32H4C1.79086 32 0 30.2091 0 28V4Z" fill="#5499F5"/>
<path d="M26.4442 7H27.5442V13H29.3542V14H26.4442V7ZM29.8817 7H30.9817V14H29.8817V7ZM33.3555 14.1C32.8288 14.1 32.4255 13.95 32.1455 13.65C31.8722 13.35 31.7355 12.9267 31.7355 12.38V8.62C31.7355 8.07333 31.8722 7.65 32.1455 7.35C32.4255 7.05 32.8288 6.9 33.3555 6.9C33.8822 6.9 34.2822 7.05 34.5555 7.35C34.8355 7.65 34.9755 8.07333 34.9755 8.62V9.36H33.9355V8.55C33.9355 8.11667 33.7522 7.9 33.3855 7.9C33.0188 7.9 32.8355 8.11667 32.8355 8.55V12.46C32.8355 12.8867 33.0188 13.1 33.3855 13.1C33.7522 13.1 33.9355 12.8867 33.9355 12.46V11.39H34.9755V12.38C34.9755 12.9267 34.8355 13.35 34.5555 13.65C34.2822 13.95 33.8822 14.1 33.3555 14.1ZM35.6336 7H38.6336V8H36.7336V9.85H38.2436V10.85H36.7336V13H38.6336V14H35.6336V7ZM39.2664 7H40.6464L41.7164 11.19H41.7364V7H42.7164V14H41.5864L40.2664 8.89H40.2464V14H39.2664V7ZM45.664 9.36V8.55C45.664 8.11667 45.4807 7.9 45.114 7.9C44.7474 7.9 44.564 8.11667 44.564 8.55V12.46C44.564 12.8867 44.7474 13.1 45.114 13.1C45.4807 13.1 45.664 12.8867 45.664 12.46V11.39H46.704V12.38C46.704 12.88 46.5874 13.28 46.354 13.58C46.1207 13.8733 45.784 14.0433 45.344 14.09V14.39C45.5707 14.39 45.7407 14.4267 45.854 14.5C45.974 14.5733 46.034 14.6933 46.034 14.86C46.034 15.1067 45.9507 15.27 45.784 15.35C45.6174 15.43 45.3607 15.47 45.014 15.47C44.7074 15.47 44.4707 15.4267 44.304 15.34C44.1374 15.2533 44.054 15.1033 44.054 14.89V14.79H44.794V14.87C44.794 14.9367 44.814 14.9867 44.854 15.02C44.9007 15.0533 44.954 15.07 45.014 15.07C45.1074 15.07 45.174 15.05 45.214 15.01C45.254 14.9767 45.274 14.9167 45.274 14.83C45.274 14.7367 45.244 14.67 45.184 14.63C45.124 14.59 45.0307 14.57 44.904 14.57H44.854V14.09C44.4007 14.0433 44.054 13.8733 43.814 13.58C43.5807 13.2867 43.464 12.8867 43.464 12.38V8.62C43.464 8.07333 43.6007 7.65 43.874 7.35C44.154 7.05 44.5574 6.9 45.084 6.9C45.6107 6.9 46.0107 7.05 46.284 7.35C46.564 7.65 46.704 8.07333 46.704 8.62V9.36H45.664ZM48.2121 7H49.7021L50.8421 14H49.7421L49.5421 12.61V12.63H48.2921L48.0921 14H47.0721L48.2121 7ZM49.4121 11.68L48.9221 8.22H48.9021L48.4221 11.68H49.4121ZM24.0032 17H25.4932L26.6332 24H25.5332L25.3332 22.61V22.63H24.0832L23.8832 24H22.8632L24.0032 17ZM25.2032 21.68L24.7132 18.22H24.6932L24.2132 21.68H25.2032ZM27.1668 17H28.2668V23H30.0768V24H27.1668V17ZM31.4934 17H32.9834L34.1234 24H33.0234L32.8234 22.61V22.63H31.5734L31.3734 24H30.3534L31.4934 17ZM32.6934 21.68L32.2034 18.22H32.1834L31.7034 21.68H32.6934ZM34.6571 17H36.2871C36.8537 17 37.2671 17.1333 37.5271 17.4C37.7871 17.66 37.9171 18.0633 37.9171 18.61V19.04C37.9171 19.7667 37.6771 20.2267 37.1971 20.42V20.44C37.4637 20.52 37.6504 20.6833 37.7571 20.93C37.8704 21.1767 37.9271 21.5067 37.9271 21.92V23.15C37.9271 23.35 37.9337 23.5133 37.9471 23.64C37.9604 23.76 37.9937 23.88 38.0471 24H36.9271C36.8871 23.8867 36.8604 23.78 36.8471 23.68C36.8337 23.58 36.8271 23.4 36.8271 23.14V21.86C36.8271 21.54 36.7737 21.3167 36.6671 21.19C36.5671 21.0633 36.3904 21 36.1371 21H35.7571V24H34.6571V17ZM36.1571 20C36.3771 20 36.5404 19.9433 36.6471 19.83C36.7604 19.7167 36.8171 19.5267 36.8171 19.26V18.72C36.8171 18.4667 36.7704 18.2833 36.6771 18.17C36.5904 18.0567 36.4504 18 36.2571 18H35.7571V20H36.1571ZM40.2503 24.1C39.7169 24.1 39.3103 23.95 39.0303 23.65C38.7503 23.3433 38.6103 22.9067 38.6103 22.34V18.66C38.6103 18.0933 38.7503 17.66 39.0303 17.36C39.3103 17.0533 39.7169 16.9 40.2503 16.9C40.7836 16.9 41.1903 17.0533 41.4703 17.36C41.7503 17.66 41.8903 18.0933 41.8903 18.66V19.26H40.8503V18.59C40.8503 18.13 40.6603 17.9 40.2803 17.9C39.9003 17.9 39.7103 18.13 39.7103 18.59V22.42C39.7103 22.8733 39.9003 23.1 40.2803 23.1C40.6603 23.1 40.8503 22.8733 40.8503 22.42V21.05H40.3003V20.05H41.8903V22.34C41.8903 22.9067 41.7503 23.3433 41.4703 23.65C41.1903 23.95 40.7836 24.1 40.2503 24.1ZM43.4465 17H44.9365L46.0765 24H44.9765L44.7765 22.61V22.63H43.5265L43.3265 24H42.3065L43.4465 17ZM44.6465 21.68L44.1565 18.22H44.1365L43.6565 21.68H44.6465ZM46.6102 17H48.2902C48.8369 17 49.2469 17.1467 49.5202 17.44C49.7935 17.7333 49.9302 18.1633 49.9302 18.73V22.27C49.9302 22.8367 49.7935 23.2667 49.5202 23.56C49.2469 23.8533 48.8369 24 48.2902 24H46.6102V17ZM48.2702 23C48.4502 23 48.5869 22.9467 48.6802 22.84C48.7802 22.7333 48.8302 22.56 48.8302 22.32V18.68C48.8302 18.44 48.7802 18.2667 48.6802 18.16C48.5869 18.0533 48.4502 18 48.2702 18H47.7102V23H48.2702ZM51.5032 17H52.9932L54.1332 24H53.0332L52.8332 22.61V22.63H51.5832L51.3832 24H50.3632L51.5032 17ZM52.7032 21.68L52.2132 18.22H52.1932L51.7132 21.68H52.7032Z" fill="white"/>
</svg>
