<svg width="85" height="32" viewBox="0 0 85 32" fill="none" xmlns="http://www.w3.org/2000/svg">
<path d="M0 4C0 1.79086 1.79086 0 4 0H81C83.2091 0 85 1.79086 85 4V28C85 30.2091 83.2091 32 81 32H4C1.79086 32 0 30.2091 0 28V4Z" fill="#5499F5"/>
<path d="M7.60121 6.86C8.53454 6.86 9.21454 7.04333 9.64121 7.41C10.0679 7.77667 10.2812 8.29333 10.2812 8.96C10.2812 9.35333 10.1912 9.72333 10.0112 10.07C9.83788 10.41 9.54121 10.6867 9.12121 10.9C8.70788 11.1133 8.14454 11.22 7.43121 11.22H6.61121V14H5.71121V6.86H7.60121ZM7.52121 7.63H6.61121V10.45H7.33121C8.01121 10.45 8.51788 10.34 8.85121 10.12C9.18454 9.9 9.35121 9.52667 9.35121 9C9.35121 8.54 9.20454 8.19667 8.91121 7.97C8.61788 7.74333 8.15454 7.63 7.52121 7.63ZM15.7479 14L14.8879 11.79H12.0579L11.2079 14H10.2979L13.0879 6.83H13.8979L16.6779 14H15.7479ZM13.8179 8.83C13.7979 8.77667 13.7645 8.68 13.7179 8.54C13.6712 8.4 13.6245 8.25667 13.5779 8.11C13.5379 7.95667 13.5045 7.84 13.4779 7.76C13.4312 7.96667 13.3779 8.17 13.3179 8.37C13.2579 8.56333 13.2079 8.71667 13.1679 8.83L12.3579 10.99H14.6179L13.8179 8.83ZM20.7146 7.55C19.9479 7.55 19.3446 7.80667 18.9046 8.32C18.4646 8.83333 18.2446 9.53667 18.2446 10.43C18.2446 11.3167 18.4479 12.02 18.8546 12.54C19.2679 13.0533 19.8846 13.31 20.7046 13.31C21.0179 13.31 21.3146 13.2833 21.5946 13.23C21.8746 13.1767 22.1479 13.11 22.4146 13.03V13.81C22.1479 13.91 21.8712 13.9833 21.5846 14.03C21.3046 14.0767 20.9679 14.1 20.5746 14.1C19.8479 14.1 19.2412 13.95 18.7546 13.65C18.2679 13.35 17.9012 12.9233 17.6546 12.37C17.4146 11.8167 17.2946 11.1667 17.2946 10.42C17.2946 9.7 17.4246 9.06667 17.6846 8.52C17.9512 7.96667 18.3412 7.53667 18.8546 7.23C19.3679 6.91667 19.9912 6.76 20.7246 6.76C21.4779 6.76 22.1346 6.9 22.6946 7.18L22.3346 7.94C22.1146 7.84 21.8679 7.75 21.5946 7.67C21.3279 7.59 21.0346 7.55 20.7146 7.55ZM32.3929 14H23.9729V6.86H24.8729V13.2H27.7229V6.86H28.6229V13.2H31.4829V6.86H32.3929V14ZM34.354 6.86H35.194V10.78C35.194 11 35.1907 11.2467 35.184 11.52C35.1774 11.7933 35.1674 12.0433 35.154 12.27C35.1474 12.4967 35.1374 12.6633 35.124 12.77H35.164L39.094 6.86H40.094V14H39.254V10.12C39.254 9.87333 39.2574 9.61 39.264 9.33C39.2774 9.05 39.2907 8.79333 39.304 8.56C39.3174 8.32667 39.3274 8.16 39.334 8.06H39.294L35.354 14H34.354V6.86ZM43.9098 6.86C44.8431 6.86 45.5231 7.04333 45.9498 7.41C46.3765 7.77667 46.5898 8.29333 46.5898 8.96C46.5898 9.35333 46.4998 9.72333 46.3198 10.07C46.1465 10.41 45.8498 10.6867 45.4298 10.9C45.0165 11.1133 44.4531 11.22 43.7398 11.22H42.9198V14H42.0198V6.86H43.9098ZM43.8298 7.63H42.9198V10.45H43.6398C44.3198 10.45 44.8265 10.34 45.1598 10.12C45.4931 9.9 45.6598 9.52667 45.6598 9C45.6598 8.54 45.5131 8.19667 45.2198 7.97C44.9265 7.74333 44.4631 7.63 43.8298 7.63ZM52.0645 14H48.0745V6.86H52.0645V7.65H48.9745V9.88H51.8845V10.66H48.9745V13.21H52.0645V14ZM59.0911 14H58.1911V10.67H54.5311V14H53.6311V6.86H54.5311V9.88H58.1911V6.86H59.0911V14ZM66.5032 14H65.6032V10.67H61.9432V14H61.0432V6.86H61.9432V9.88H65.6032V6.86H66.5032V14ZM72.9354 14L72.0754 11.79H69.2454L68.3954 14H67.4854L70.2754 6.83H71.0854L73.8654 14H72.9354ZM71.0054 8.83C70.9854 8.77667 70.952 8.68 70.9054 8.54C70.8587 8.4 70.812 8.25667 70.7654 8.11C70.7254 7.95667 70.692 7.84 70.6654 7.76C70.6187 7.96667 70.5654 8.17 70.5054 8.37C70.4454 8.56333 70.3954 8.71667 70.3554 8.83L69.5454 10.99H71.8054L71.0054 8.83ZM76.9921 11.04L75.1421 14H74.0921L76.0921 10.88C75.8387 10.7933 75.5987 10.6733 75.3721 10.52C75.1521 10.3667 74.9721 10.1567 74.8321 9.89C74.6921 9.62333 74.6221 9.28 74.6221 8.86C74.6221 8.21333 74.8454 7.72 75.2921 7.38C75.7387 7.03333 76.4054 6.86 77.2921 6.86H79.2921V14H78.3921V11.04H76.9921ZM77.3121 7.63C76.7454 7.63 76.3087 7.73 76.0021 7.93C75.7021 8.12333 75.5521 8.44667 75.5521 8.9C75.5521 9.34 75.6987 9.68 75.9921 9.92C76.2854 10.16 76.7387 10.28 77.3521 10.28H78.3921V7.63H77.3121ZM21.0709 24H20.1709V17.65H17.9109C17.8509 18.1433 17.7843 18.6633 17.7109 19.21C17.6376 19.75 17.5643 20.2667 17.4909 20.76C17.4176 21.2533 17.3443 21.6733 17.2709 22.02C17.1843 22.4667 17.0776 22.8467 16.9509 23.16C16.8243 23.4733 16.6543 23.71 16.4409 23.87C16.2343 24.03 15.9609 24.11 15.6209 24.11C15.5076 24.11 15.3909 24.0967 15.2709 24.07C15.1576 24.05 15.0576 24.0233 14.9709 23.99V23.24C15.0443 23.2733 15.1276 23.3033 15.2209 23.33C15.3143 23.35 15.4143 23.36 15.5209 23.36C15.7209 23.36 15.8776 23.28 15.9909 23.12C16.1109 22.9533 16.2043 22.75 16.2709 22.51C16.3376 22.2633 16.3943 22.02 16.4409 21.78C16.4943 21.5267 16.5576 21.1567 16.6309 20.67C16.7109 20.1767 16.7943 19.6033 16.8809 18.95C16.9743 18.2967 17.0676 17.6 17.1609 16.86H21.0709V24ZM23.021 16.86H23.861V20.78C23.861 21 23.8577 21.2467 23.851 21.52C23.8443 21.7933 23.8343 22.0433 23.821 22.27C23.8143 22.4967 23.8043 22.6633 23.791 22.77H23.831L27.761 16.86H28.761V24H27.921V20.12C27.921 19.8733 27.9243 19.61 27.931 19.33C27.9443 19.05 27.9577 18.7933 27.971 18.56C27.9843 18.3267 27.9943 18.16 28.001 18.06H27.961L24.021 24H23.021V16.86ZM36.9168 23.21V25.88H36.0568V24H30.6868V16.86H31.5868V23.2H35.1568V16.86H36.0468V23.21H36.9168ZM42.0889 24H38.0989V16.86H42.0889V17.65H38.9989V19.88H41.9089V20.66H38.9989V23.21H42.0889V24ZM49.1155 24H48.2155V20.67H44.5555V24H43.6555V16.86H44.5555V19.88H48.2155V16.86H49.1155V24ZM55.2877 18.53C55.2877 19.0167 55.1343 19.4033 54.8277 19.69C54.521 19.97 54.111 20.15 53.5977 20.23V20.27C54.1977 20.35 54.6543 20.5367 54.9677 20.83C55.281 21.1233 55.4377 21.5067 55.4377 21.98C55.4377 22.6067 55.1977 23.1167 54.7177 23.51C54.2377 23.9033 53.5177 24.1 52.5577 24.1C52.171 24.1 51.801 24.07 51.4477 24.01C51.101 23.9567 50.7777 23.8567 50.4777 23.71V22.89C50.791 23.0367 51.131 23.1533 51.4977 23.24C51.871 23.32 52.221 23.36 52.5477 23.36C53.1877 23.36 53.671 23.24 53.9977 23C54.331 22.76 54.4977 22.42 54.4977 21.98C54.4977 21.5267 54.3043 21.1967 53.9177 20.99C53.531 20.7833 52.991 20.68 52.2977 20.68H51.2777V19.93H52.2477C52.9543 19.93 53.481 19.8133 53.8277 19.58C54.181 19.34 54.3577 19.02 54.3577 18.62C54.3577 18.26 54.2243 17.9833 53.9577 17.79C53.691 17.5967 53.3443 17.5 52.9177 17.5C52.471 17.5 52.0977 17.5567 51.7977 17.67C51.5043 17.7833 51.2177 17.93 50.9377 18.11L50.5077 17.5C50.7877 17.2933 51.131 17.12 51.5377 16.98C51.951 16.8333 52.4143 16.76 52.9277 16.76C53.701 16.76 54.2877 16.9267 54.6877 17.26C55.0877 17.5933 55.2877 18.0167 55.2877 18.53ZM56.9566 16.86H57.7966V20.78C57.7966 21 57.7932 21.2467 57.7866 21.52C57.7799 21.7933 57.7699 22.0433 57.7566 22.27C57.7499 22.4967 57.7399 22.6633 57.7266 22.77H57.7666L61.6966 16.86H62.6966V24H61.8566V20.12C61.8566 19.8733 61.8599 19.61 61.8666 19.33C61.8799 19.05 61.8932 18.7933 61.9066 18.56C61.9199 18.3267 61.9299 18.16 61.9366 18.06H61.8966L57.9566 24H56.9566V16.86ZM66.7723 21.04L64.9223 24H63.8723L65.8723 20.88C65.619 20.7933 65.379 20.6733 65.1523 20.52C64.9323 20.3667 64.7523 20.1567 64.6123 19.89C64.4723 19.6233 64.4023 19.28 64.4023 18.86C64.4023 18.2133 64.6257 17.72 65.0723 17.38C65.519 17.0333 66.1857 16.86 67.0723 16.86H69.0723V24H68.1723V21.04H66.7723ZM67.0923 17.63C66.5257 17.63 66.089 17.73 65.7823 17.93C65.4823 18.1233 65.3323 18.4467 65.3323 18.9C65.3323 19.34 65.479 19.68 65.7723 19.92C66.0657 20.16 66.519 20.28 67.1323 20.28H68.1723V17.63H67.0923Z" fill="white"/>
</svg>
