<svg width="77" height="32" viewBox="0 0 77 32" fill="none" xmlns="http://www.w3.org/2000/svg">
<path d="M0 4C0 1.79086 1.79086 0 4 0H73C75.2091 0 77 1.79086 77 4V28C77 30.2091 75.2091 32 73 32H4C1.79086 32 0 30.2091 0 28V4Z" fill="#5499F5"/>
<path d="M25.1307 7H26.2307V13H28.0407V14H25.1307V7ZM28.5682 7H29.6682V14H28.5682V7ZM32.042 14.1C31.5154 14.1 31.112 13.95 30.832 13.65C30.5587 13.35 30.422 12.9267 30.422 12.38V8.62C30.422 8.07333 30.5587 7.65 30.832 7.35C31.112 7.05 31.5154 6.9 32.042 6.9C32.5687 6.9 32.9687 7.05 33.242 7.35C33.522 7.65 33.662 8.07333 33.662 8.62V9.36H32.622V8.55C32.622 8.11667 32.4387 7.9 32.072 7.9C31.7054 7.9 31.522 8.11667 31.522 8.55V12.46C31.522 12.8867 31.7054 13.1 32.072 13.1C32.4387 13.1 32.622 12.8867 32.622 12.46V11.39H33.662V12.38C33.662 12.9267 33.522 13.35 33.242 13.65C32.9687 13.95 32.5687 14.1 32.042 14.1ZM34.3202 7H37.3202V8H35.4202V9.85H36.9302V10.85H35.4202V13H37.3202V14H34.3202V7ZM37.953 7H39.333L40.403 11.19H40.423V7H41.403V14H40.273L38.953 8.89H38.933V14H37.953V7ZM43.7705 14.1C43.2439 14.1 42.8405 13.95 42.5605 13.65C42.2872 13.35 42.1505 12.9267 42.1505 12.38V8.62C42.1505 8.07333 42.2872 7.65 42.5605 7.35C42.8405 7.05 43.2439 6.9 43.7705 6.9C44.2972 6.9 44.6972 7.05 44.9705 7.35C45.2505 7.65 45.3905 8.07333 45.3905 8.62V9.36H44.3505V8.55C44.3505 8.11667 44.1672 7.9 43.8005 7.9C43.4339 7.9 43.2505 8.11667 43.2505 8.55V12.46C43.2505 12.8867 43.4339 13.1 43.8005 13.1C44.1672 13.1 44.3505 12.8867 44.3505 12.46V11.39H45.3905V12.38C45.3905 12.9267 45.2505 13.35 44.9705 13.65C44.6972 13.95 44.2972 14.1 43.7705 14.1ZM46.3087 14.04C46.1087 14.04 45.9387 14.0267 45.7987 14V13C45.9053 13.0267 46.0253 13.04 46.1587 13.04C46.3787 13.04 46.542 12.9867 46.6487 12.88C46.7553 12.7667 46.8087 12.5967 46.8087 12.37V7H47.9087V12.34C47.9087 12.9133 47.7753 13.34 47.5087 13.62C47.2487 13.9 46.8487 14.04 46.3087 14.04ZM49.5256 7H51.0156L52.1556 14H51.0556L50.8556 12.61V12.63H49.6056L49.4056 14H48.3856L49.5256 7ZM50.7256 11.68L50.2356 8.22H50.2156L49.7356 11.68H50.7256ZM17.6209 17H19.2509C19.8176 17 20.2309 17.1333 20.4909 17.4C20.7509 17.66 20.8809 18.0633 20.8809 18.61V19.04C20.8809 19.7667 20.6409 20.2267 20.1609 20.42V20.44C20.4276 20.52 20.6143 20.6833 20.7209 20.93C20.8343 21.1767 20.8909 21.5067 20.8909 21.92V23.15C20.8909 23.35 20.8976 23.5133 20.9109 23.64C20.9243 23.76 20.9576 23.88 21.0109 24H19.8909C19.8509 23.8867 19.8243 23.78 19.8109 23.68C19.7976 23.58 19.7909 23.4 19.7909 23.14V21.86C19.7909 21.54 19.7376 21.3167 19.6309 21.19C19.5309 21.0633 19.3543 21 19.1009 21H18.7209V24H17.6209V17ZM19.1209 20C19.3409 20 19.5043 19.9433 19.6109 19.83C19.7243 19.7167 19.7809 19.5267 19.7809 19.26V18.72C19.7809 18.4667 19.7343 18.2833 19.6409 18.17C19.5543 18.0567 19.4143 18 19.2209 18H18.7209V20H19.1209ZM23.2441 24.1C22.7041 24.1 22.2908 23.9467 22.0041 23.64C21.7175 23.3333 21.5741 22.9 21.5741 22.34V18.66C21.5741 18.1 21.7175 17.6667 22.0041 17.36C22.2908 17.0533 22.7041 16.9 23.2441 16.9C23.7841 16.9 24.1975 17.0533 24.4841 17.36C24.7708 17.6667 24.9141 18.1 24.9141 18.66V22.34C24.9141 22.9 24.7708 23.3333 24.4841 23.64C24.1975 23.9467 23.7841 24.1 23.2441 24.1ZM23.2441 23.1C23.6241 23.1 23.8141 22.87 23.8141 22.41V18.59C23.8141 18.13 23.6241 17.9 23.2441 17.9C22.8641 17.9 22.6741 18.13 22.6741 18.59V22.41C22.6741 22.87 22.8641 23.1 23.2441 23.1ZM25.438 23.02L27.478 18H25.538V17H28.658V17.98L26.618 23H28.658V24H25.438V23.02ZM30.7111 24.1C30.1778 24.1 29.7744 23.95 29.5011 23.65C29.2278 23.3433 29.0911 22.9067 29.0911 22.34V21.94H30.1311V22.42C30.1311 22.8733 30.3211 23.1 30.7011 23.1C30.8878 23.1 31.0278 23.0467 31.1211 22.94C31.2211 22.8267 31.2711 22.6467 31.2711 22.4C31.2711 22.1067 31.2044 21.85 31.0711 21.63C30.9378 21.4033 30.6911 21.1333 30.3311 20.82C29.8778 20.42 29.5611 20.06 29.3811 19.74C29.2011 19.4133 29.1111 19.0467 29.1111 18.64C29.1111 18.0867 29.2511 17.66 29.5311 17.36C29.8111 17.0533 30.2178 16.9 30.7511 16.9C31.2778 16.9 31.6744 17.0533 31.9411 17.36C32.2144 17.66 32.3511 18.0933 32.3511 18.66V18.95H31.3111V18.59C31.3111 18.35 31.2644 18.1767 31.1711 18.07C31.0778 17.9567 30.9411 17.9 30.7611 17.9C30.3944 17.9 30.2111 18.1233 30.2111 18.57C30.2111 18.8233 30.2778 19.06 30.4111 19.28C30.5511 19.5 30.8011 19.7667 31.1611 20.08C31.6211 20.48 31.9378 20.8433 32.1111 21.17C32.2844 21.4967 32.3711 21.88 32.3711 22.32C32.3711 22.8933 32.2278 23.3333 31.9411 23.64C31.6611 23.9467 31.2511 24.1 30.7111 24.1ZM32.7818 23.02L34.8218 18H32.8818V17H36.0018V17.98L33.9618 23H36.0018V24H32.7818V23.02ZM36.6248 17H39.6248V18H37.7248V19.85H39.2348V20.85H37.7248V23H39.6248V24H36.6248V17ZM40.2577 17H41.8877C42.4543 17 42.8677 17.1333 43.1277 17.4C43.3877 17.66 43.5177 18.0633 43.5177 18.61V19.04C43.5177 19.7667 43.2777 20.2267 42.7977 20.42V20.44C43.0643 20.52 43.251 20.6833 43.3577 20.93C43.471 21.1767 43.5277 21.5067 43.5277 21.92V23.15C43.5277 23.35 43.5343 23.5133 43.5477 23.64C43.561 23.76 43.5943 23.88 43.6477 24H42.5277C42.4877 23.8867 42.461 23.78 42.4477 23.68C42.4343 23.58 42.4277 23.4 42.4277 23.14V21.86C42.4277 21.54 42.3743 21.3167 42.2677 21.19C42.1677 21.0633 41.991 21 41.7377 21H41.3577V24H40.2577V17ZM41.7577 20C41.9777 20 42.141 19.9433 42.2477 19.83C42.361 19.7167 42.4177 19.5267 42.4177 19.26V18.72C42.4177 18.4667 42.371 18.2833 42.2777 18.17C42.191 18.0567 42.051 18 41.8577 18H41.3577V20H41.7577ZM44.0709 23.02L46.1109 18H44.1709V17H47.2909V17.98L45.2509 23H47.2909V24H44.0709V23.02ZM49.5039 24.1C48.9639 24.1 48.5506 23.9467 48.2639 23.64C47.9772 23.3333 47.8339 22.9 47.8339 22.34V18.66C47.8339 18.1 47.9772 17.6667 48.2639 17.36C48.5506 17.0533 48.9639 16.9 49.5039 16.9C50.0439 16.9 50.4572 17.0533 50.7439 17.36C51.0306 17.6667 51.1739 18.1 51.1739 18.66V22.34C51.1739 22.9 51.0306 23.3333 50.7439 23.64C50.4572 23.9467 50.0439 24.1 49.5039 24.1ZM49.5039 23.1C49.8839 23.1 50.0739 22.87 50.0739 22.41V18.59C50.0739 18.13 49.8839 17.9 49.5039 17.9C49.1239 17.9 48.9339 18.13 48.9339 18.59V22.41C48.9339 22.87 49.1239 23.1 49.5039 23.1ZM51.9178 17H53.2978L54.3678 21.19H54.3878V17H55.3678V24H54.2378L52.9178 18.89H52.8978V24H51.9178V17ZM57.0354 17H58.5254L59.6654 24H58.5654L58.3654 22.61V22.63H57.1154L56.9154 24H55.8954L57.0354 17ZM58.2354 21.68L57.7454 18.22H57.7254L57.2454 21.68H58.2354Z" fill="white"/>
</svg>
