<svg width="85" height="32" viewBox="0 0 85 32" fill="none" xmlns="http://www.w3.org/2000/svg">
<path d="M0 4C0 1.79086 1.79086 0 4 0H81C83.2091 0 85 1.79086 85 4V28C85 30.2091 83.2091 32 81 32H4C1.79086 32 0 30.2091 0 28V4Z" fill="white"/>
<path d="M11.4958 7.55C10.7292 7.55 10.1258 7.80667 9.68582 8.32C9.24582 8.83333 9.02582 9.53667 9.02582 10.43C9.02582 11.3167 9.22915 12.02 9.63582 12.54C10.0492 13.0533 10.6658 13.31 11.4858 13.31C11.7992 13.31 12.0958 13.2833 12.3758 13.23C12.6558 13.1767 12.9292 13.11 13.1958 13.03V13.81C12.9292 13.91 12.6525 13.9833 12.3658 14.03C12.0858 14.0767 11.7492 14.1 11.3558 14.1C10.6292 14.1 10.0225 13.95 9.53582 13.65C9.04915 13.35 8.68249 12.9233 8.43582 12.37C8.19582 11.8167 8.07582 11.1667 8.07582 10.42C8.07582 9.7 8.20582 9.06667 8.46582 8.52C8.73249 7.96667 9.12249 7.53667 9.63582 7.23C10.1492 6.91667 10.7725 6.76 11.5058 6.76C12.2592 6.76 12.9158 6.9 13.4758 7.18L13.1158 7.94C12.8958 7.84 12.6492 7.75 12.3758 7.67C12.1092 7.59 11.8158 7.55 11.4958 7.55ZM17.0142 14H16.1142V7.65H13.8842V6.86H19.2342V7.65H17.0142V14ZM24.0877 14L23.2277 11.79H20.3977L19.5477 14H18.6377L21.4277 6.83H22.2377L25.0177 14H24.0877ZM22.1577 8.83C22.1377 8.77667 22.1044 8.68 22.0577 8.54C22.011 8.4 21.9644 8.25667 21.9177 8.11C21.8777 7.95667 21.8444 7.84 21.8177 7.76C21.771 7.96667 21.7177 8.17 21.6577 8.37C21.5977 8.56333 21.5477 8.71667 21.5077 8.83L20.6977 10.99H22.9577L22.1577 8.83ZM31.4544 14H30.5544V10.67H26.8944V14H25.9944V6.86H26.8944V9.88H30.5544V6.86H31.4544V14ZM38.2165 6.86V13.2H39.1265V15.88H38.2665V14H33.3565V15.88H32.4965V13.2H33.0465C33.2865 12.7867 33.5132 12.3233 33.7265 11.81C33.9465 11.2967 34.1399 10.76 34.3065 10.2C34.4732 9.63333 34.6099 9.06667 34.7165 8.5C34.8232 7.93333 34.8899 7.38667 34.9165 6.86H38.2165ZM35.7065 7.67C35.6799 8.05667 35.6132 8.49333 35.5065 8.98C35.4065 9.46667 35.2765 9.96667 35.1165 10.48C34.9632 10.9867 34.7899 11.4767 34.5965 11.95C34.4099 12.4233 34.2099 12.84 33.9965 13.2H37.3265V7.67H35.7065ZM44.8006 14L43.9406 11.79H41.1106L40.2606 14H39.3506L42.1406 6.83H42.9506L45.7306 14H44.8006ZM42.8706 8.83C42.8506 8.77667 42.8173 8.68 42.7706 8.54C42.7239 8.4 42.6773 8.25667 42.6306 8.11C42.5906 7.95667 42.5573 7.84 42.5306 7.76C42.4839 7.96667 42.4306 8.17 42.3706 8.37C42.3106 8.56333 42.2606 8.71667 42.2206 8.83L41.4106 10.99H43.6706L42.8706 8.83ZM48.5973 6.86C49.5306 6.86 50.2106 7.04333 50.6373 7.41C51.064 7.77667 51.2773 8.29333 51.2773 8.96C51.2773 9.35333 51.1873 9.72333 51.0073 10.07C50.834 10.41 50.5373 10.6867 50.1173 10.9C49.704 11.1133 49.1406 11.22 48.4273 11.22H47.6073V14H46.7073V6.86H48.5973ZM48.5173 7.63H47.6073V10.45H48.3273C49.0073 10.45 49.514 10.34 49.8473 10.12C50.1806 9.9 50.3473 9.52667 50.3473 9C50.3473 8.54 50.2006 8.19667 49.9073 7.97C49.614 7.74333 49.1506 7.63 48.5173 7.63ZM55.022 14H54.122V7.65H51.892V6.86H57.242V7.65H55.022V14ZM63.7786 14H62.8786V10.67H59.2186V14H58.3186V6.86H59.2186V9.88H62.8786V6.86H63.7786V14ZM70.2107 14L69.3507 11.79H66.5207L65.6707 14H64.7607L67.5507 6.83H68.3607L71.1407 14H70.2107ZM68.2807 8.83C68.2607 8.77667 68.2274 8.68 68.1807 8.54C68.1341 8.4 68.0874 8.25667 68.0407 8.11C68.0007 7.95667 67.9674 7.84 67.9407 7.76C67.8941 7.96667 67.8407 8.17 67.7807 8.37C67.7207 8.56333 67.6707 8.71667 67.6307 8.83L66.8207 10.99H69.0807L68.2807 8.83ZM74.2675 11.04L72.4175 14H71.3675L73.3675 10.88C73.1141 10.7933 72.8741 10.6733 72.6475 10.52C72.4275 10.3667 72.2475 10.1567 72.1075 9.89C71.9675 9.62333 71.8975 9.28 71.8975 8.86C71.8975 8.21333 72.1208 7.72 72.5675 7.38C73.0141 7.03333 73.6808 6.86 74.5675 6.86H76.5675V14H75.6675V11.04H74.2675ZM74.5875 7.63C74.0208 7.63 73.5841 7.73 73.2775 7.93C72.9775 8.12333 72.8275 8.44667 72.8275 8.9C72.8275 9.34 72.9741 9.68 73.2675 9.92C73.5608 10.16 74.0141 10.28 74.6275 10.28H75.6675V7.63H74.5875ZM21.0709 24H20.1709V17.65H17.9109C17.8509 18.1433 17.7843 18.6633 17.7109 19.21C17.6376 19.75 17.5643 20.2667 17.4909 20.76C17.4176 21.2533 17.3443 21.6733 17.2709 22.02C17.1843 22.4667 17.0776 22.8467 16.9509 23.16C16.8243 23.4733 16.6543 23.71 16.4409 23.87C16.2343 24.03 15.9609 24.11 15.6209 24.11C15.5076 24.11 15.3909 24.0967 15.2709 24.07C15.1576 24.05 15.0576 24.0233 14.9709 23.99V23.24C15.0443 23.2733 15.1276 23.3033 15.2209 23.33C15.3143 23.35 15.4143 23.36 15.5209 23.36C15.7209 23.36 15.8776 23.28 15.9909 23.12C16.1109 22.9533 16.2043 22.75 16.2709 22.51C16.3376 22.2633 16.3943 22.02 16.4409 21.78C16.4943 21.5267 16.5576 21.1567 16.6309 20.67C16.7109 20.1767 16.7943 19.6033 16.8809 18.95C16.9743 18.2967 17.0676 17.6 17.1609 16.86H21.0709V24ZM23.021 16.86H23.861V20.78C23.861 21 23.8577 21.2467 23.851 21.52C23.8443 21.7933 23.8343 22.0433 23.821 22.27C23.8143 22.4967 23.8043 22.6633 23.791 22.77H23.831L27.761 16.86H28.761V24H27.921V20.12C27.921 19.8733 27.9243 19.61 27.931 19.33C27.9443 19.05 27.9577 18.7933 27.971 18.56C27.9843 18.3267 27.9943 18.16 28.001 18.06H27.961L24.021 24H23.021V16.86ZM36.9168 23.21V25.88H36.0568V24H30.6868V16.86H31.5868V23.2H35.1568V16.86H36.0468V23.21H36.9168ZM42.0889 24H38.0989V16.86H42.0889V17.65H38.9989V19.88H41.9089V20.66H38.9989V23.21H42.0889V24ZM49.1155 24H48.2155V20.67H44.5555V24H43.6555V16.86H44.5555V19.88H48.2155V16.86H49.1155V24ZM55.2877 18.53C55.2877 19.0167 55.1343 19.4033 54.8277 19.69C54.521 19.97 54.111 20.15 53.5977 20.23V20.27C54.1977 20.35 54.6543 20.5367 54.9677 20.83C55.281 21.1233 55.4377 21.5067 55.4377 21.98C55.4377 22.6067 55.1977 23.1167 54.7177 23.51C54.2377 23.9033 53.5177 24.1 52.5577 24.1C52.171 24.1 51.801 24.07 51.4477 24.01C51.101 23.9567 50.7777 23.8567 50.4777 23.71V22.89C50.791 23.0367 51.131 23.1533 51.4977 23.24C51.871 23.32 52.221 23.36 52.5477 23.36C53.1877 23.36 53.671 23.24 53.9977 23C54.331 22.76 54.4977 22.42 54.4977 21.98C54.4977 21.5267 54.3043 21.1967 53.9177 20.99C53.531 20.7833 52.991 20.68 52.2977 20.68H51.2777V19.93H52.2477C52.9543 19.93 53.481 19.8133 53.8277 19.58C54.181 19.34 54.3577 19.02 54.3577 18.62C54.3577 18.26 54.2243 17.9833 53.9577 17.79C53.691 17.5967 53.3443 17.5 52.9177 17.5C52.471 17.5 52.0977 17.5567 51.7977 17.67C51.5043 17.7833 51.2177 17.93 50.9377 18.11L50.5077 17.5C50.7877 17.2933 51.131 17.12 51.5377 16.98C51.951 16.8333 52.4143 16.76 52.9277 16.76C53.701 16.76 54.2877 16.9267 54.6877 17.26C55.0877 17.5933 55.2877 18.0167 55.2877 18.53ZM56.9566 16.86H57.7966V20.78C57.7966 21 57.7932 21.2467 57.7866 21.52C57.7799 21.7933 57.7699 22.0433 57.7566 22.27C57.7499 22.4967 57.7399 22.6633 57.7266 22.77H57.7666L61.6966 16.86H62.6966V24H61.8566V20.12C61.8566 19.8733 61.8599 19.61 61.8666 19.33C61.8799 19.05 61.8932 18.7933 61.9066 18.56C61.9199 18.3267 61.9299 18.16 61.9366 18.06H61.8966L57.9566 24H56.9566V16.86ZM66.7723 21.04L64.9223 24H63.8723L65.8723 20.88C65.619 20.7933 65.379 20.6733 65.1523 20.52C64.9323 20.3667 64.7523 20.1567 64.6123 19.89C64.4723 19.6233 64.4023 19.28 64.4023 18.86C64.4023 18.2133 64.6257 17.72 65.0723 17.38C65.519 17.0333 66.1857 16.86 67.0723 16.86H69.0723V24H68.1723V21.04H66.7723ZM67.0923 17.63C66.5257 17.63 66.089 17.73 65.7823 17.93C65.4823 18.1233 65.3323 18.4467 65.3323 18.9C65.3323 19.34 65.479 19.68 65.7723 19.92C66.0657 20.16 66.519 20.28 67.1323 20.28H68.1723V17.63H67.0923Z" fill="#4792DE"/>
<path d="M4 1H81V-1H4V1ZM84 4V28H86V4H84ZM81 31H4V33H81V31ZM1 28V4H-1V28H1ZM4 31C2.34315 31 1 29.6569 1 28H-1C-1 30.7614 1.23858 33 4 33V31ZM84 28C84 29.6569 82.6569 31 81 31V33C83.7614 33 86 30.7614 86 28H84ZM81 1C82.6569 1 84 2.34315 84 4H86C86 1.23858 83.7614 -1 81 -1V1ZM4 -1C1.23858 -1 -1 1.23858 -1 4H1C1 2.34315 2.34315 1 4 1V-1Z" fill="#4792DE"/>
</svg>
