<svg width="77" height="32" viewBox="0 0 77 32" fill="none" xmlns="http://www.w3.org/2000/svg">
<path d="M0 4C0 1.79086 1.79086 0 4 0H73C75.2091 0 77 1.79086 77 4V28C77 30.2091 75.2091 32 73 32H4C1.79086 32 0 30.2091 0 28V4Z" fill="white"/>
<path d="M29.8029 14.1C29.2696 14.1 28.8662 13.95 28.5929 13.65C28.3196 13.3433 28.1829 12.9067 28.1829 12.34V11.94H29.2229V12.42C29.2229 12.8733 29.4129 13.1 29.7929 13.1C29.9796 13.1 30.1196 13.0467 30.2129 12.94C30.3129 12.8267 30.3629 12.6467 30.3629 12.4C30.3629 12.1067 30.2962 11.85 30.1629 11.63C30.0296 11.4033 29.7829 11.1333 29.4229 10.82C28.9696 10.42 28.6529 10.06 28.4729 9.74C28.2929 9.41333 28.2029 9.04667 28.2029 8.64C28.2029 8.08667 28.3429 7.66 28.6229 7.36C28.9029 7.05333 29.3096 6.9 29.8429 6.9C30.3696 6.9 30.7662 7.05333 31.0329 7.36C31.3062 7.66 31.4429 8.09333 31.4429 8.66V8.95H30.4029V8.59C30.4029 8.35 30.3562 8.17667 30.2629 8.07C30.1696 7.95667 30.0329 7.9 29.8529 7.9C29.4862 7.9 29.3029 8.12333 29.3029 8.57C29.3029 8.82333 29.3696 9.06 29.5029 9.28C29.6429 9.5 29.8929 9.76667 30.2529 10.08C30.7129 10.48 31.0296 10.8433 31.2029 11.17C31.3762 11.4967 31.4629 11.88 31.4629 12.32C31.4629 12.8933 31.3196 13.3333 31.0329 13.64C30.7529 13.9467 30.3429 14.1 29.8029 14.1ZM32.9536 8H31.8036V7H35.2036V8H34.0536V14H32.9536V8ZM36.1272 7H37.6172L38.7572 14H37.6572L37.4572 12.61V12.63H36.2072L36.0072 14H34.9872L36.1272 7ZM37.3272 11.68L36.8372 8.22H36.8172L36.3372 11.68H37.3272ZM39.2909 7H40.6709L41.7409 11.19H41.7609V7H42.7409V14H41.6109L40.2909 8.89H40.2709V14H39.2909V7ZM43.5584 7H45.2384C45.7851 7 46.1951 7.14667 46.4684 7.44C46.7418 7.73333 46.8784 8.16333 46.8784 8.73V12.27C46.8784 12.8367 46.7418 13.2667 46.4684 13.56C46.1951 13.8533 45.7851 14 45.2384 14H43.5584V7ZM45.2184 13C45.3984 13 45.5351 12.9467 45.6284 12.84C45.7284 12.7333 45.7784 12.56 45.7784 12.32V8.68C45.7784 8.44 45.7284 8.26667 45.6284 8.16C45.5351 8.05333 45.3984 8 45.2184 8H44.6584V13H45.2184ZM47.5623 12.94H48.6223V14H47.5623V12.94ZM28.3827 17H29.4827V23H31.2927V24H28.3827V17ZM31.8202 17H32.9202V24H31.8202V17ZM35.174 24.1C34.6407 24.1 34.2373 23.95 33.964 23.65C33.6907 23.3433 33.554 22.9067 33.554 22.34V21.94H34.594V22.42C34.594 22.8733 34.784 23.1 35.164 23.1C35.3507 23.1 35.4907 23.0467 35.584 22.94C35.684 22.8267 35.734 22.6467 35.734 22.4C35.734 22.1067 35.6673 21.85 35.534 21.63C35.4007 21.4033 35.154 21.1333 34.794 20.82C34.3407 20.42 34.024 20.06 33.844 19.74C33.664 19.4133 33.574 19.0467 33.574 18.64C33.574 18.0867 33.714 17.66 33.994 17.36C34.274 17.0533 34.6807 16.9 35.214 16.9C35.7407 16.9 36.1373 17.0533 36.404 17.36C36.6773 17.66 36.814 18.0933 36.814 18.66V18.95H35.774V18.59C35.774 18.35 35.7273 18.1767 35.634 18.07C35.5407 17.9567 35.404 17.9 35.224 17.9C34.8573 17.9 34.674 18.1233 34.674 18.57C34.674 18.8233 34.7407 19.06 34.874 19.28C35.014 19.5 35.264 19.7667 35.624 20.08C36.084 20.48 36.4007 20.8433 36.574 21.17C36.7473 21.4967 36.834 21.88 36.834 22.32C36.834 22.8933 36.6907 23.3333 36.404 23.64C36.124 23.9467 35.714 24.1 35.174 24.1ZM38.2854 17H39.7754L40.9154 24H39.8154L39.6154 22.61V22.63H38.3654L38.1654 24H37.1454L38.2854 17ZM39.4854 21.68L38.9954 18.22H38.9754L38.4954 21.68H39.4854ZM41.4491 17H42.8291L43.8991 21.19H43.9191V17H44.8991V24H43.7691L42.4491 18.89H42.4291V24H41.4491V17ZM47.1466 24.1C46.6133 24.1 46.21 23.95 45.9366 23.65C45.6633 23.3433 45.5266 22.9067 45.5266 22.34V21.94H46.5666V22.42C46.5666 22.8733 46.7566 23.1 47.1366 23.1C47.3233 23.1 47.4633 23.0467 47.5566 22.94C47.6566 22.8267 47.7066 22.6467 47.7066 22.4C47.7066 22.1067 47.64 21.85 47.5066 21.63C47.3733 21.4033 47.1266 21.1333 46.7666 20.82C46.3133 20.42 45.9966 20.06 45.8166 19.74C45.6366 19.4133 45.5466 19.0467 45.5466 18.64C45.5466 18.0867 45.6866 17.66 45.9666 17.36C46.2466 17.0533 46.6533 16.9 47.1866 16.9C47.7133 16.9 48.11 17.0533 48.3766 17.36C48.65 17.66 48.7866 18.0933 48.7866 18.66V18.95H47.7466V18.59C47.7466 18.35 47.7 18.1767 47.6066 18.07C47.5133 17.9567 47.3766 17.9 47.1966 17.9C46.83 17.9 46.6466 18.1233 46.6466 18.57C46.6466 18.8233 46.7133 19.06 46.8466 19.28C46.9866 19.5 47.2366 19.7667 47.5966 20.08C48.0566 20.48 48.3733 20.8433 48.5466 21.17C48.72 21.4967 48.8066 21.88 48.8066 22.32C48.8066 22.8933 48.6633 23.3333 48.3766 23.64C48.0966 23.9467 47.6866 24.1 47.1466 24.1Z" fill="#4792DE"/>
<path d="M4 1H73V-1H4V1ZM76 4V28H78V4H76ZM73 31H4V33H73V31ZM1 28V4H-1V28H1ZM4 31C2.34315 31 1 29.6569 1 28H-1C-1 30.7614 1.23858 33 4 33V31ZM76 28C76 29.6569 74.6569 31 73 31V33C75.7614 33 78 30.7614 78 28H76ZM73 1C74.6569 1 76 2.34315 76 4H78C78 1.23858 75.7614 -1 73 -1V1ZM4 -1C1.23858 -1 -1 1.23858 -1 4H1C1 2.34315 2.34315 1 4 1V-1Z" fill="#4792DE"/>
</svg>
