<svg width="8" height="8" viewBox="0 0 8 8" fill="none" xmlns="http://www.w3.org/2000/svg">
<path d="M5.76819 2.73083C5.89026 2.85291 5.89026 3.05078 5.76819 3.17279L3.67175 5.26929C3.54968 5.3913 3.35187 5.3913 3.2298 5.26929L2.23181 4.27124C2.10974 4.14923 2.10974 3.95135 2.23181 3.82935C2.35382 3.70728 2.5517 3.70728 2.67371 3.82935L3.45074 4.60638L5.32623 2.73083C5.4483 2.60883 5.64618 2.60883 5.76819 2.73083ZM8 4.00006C8 6.21106 6.21069 8.00006 4 8.00006C1.789 8.00006 0 6.21075 0 4.00006C0 1.78906 1.78931 6.10352e-05 4 6.10352e-05C6.211 6.10352e-05 8 1.78937 8 4.00006ZM7.375 4.00006C7.375 2.13452 5.8653 0.625061 4 0.625061C2.13446 0.625061 0.625 2.13477 0.625 4.00006C0.625 5.8656 2.1347 7.37506 4 7.37506C5.86554 7.37506 7.375 5.86536 7.375 4.00006Z" fill="#8AC770"/>
</svg>
