<svg width="77" height="32" viewBox="0 0 77 32" fill="none" xmlns="http://www.w3.org/2000/svg">
<path d="M0 4C0 1.79086 1.79086 0 4 0H73C75.2091 0 77 1.79086 77 4V28C77 30.2091 75.2091 32 73 32H4C1.79086 32 0 30.2091 0 28V4Z" fill="white"/>
<path d="M22.6398 14.1C22.1065 14.1 21.7031 13.95 21.4298 13.65C21.1565 13.3433 21.0198 12.9067 21.0198 12.34V11.94H22.0598V12.42C22.0598 12.8733 22.2498 13.1 22.6298 13.1C22.8165 13.1 22.9565 13.0467 23.0498 12.94C23.1498 12.8267 23.1998 12.6467 23.1998 12.4C23.1998 12.1067 23.1331 11.85 22.9998 11.63C22.8665 11.4033 22.6198 11.1333 22.2598 10.82C21.8065 10.42 21.4898 10.06 21.3098 9.74C21.1298 9.41333 21.0398 9.04667 21.0398 8.64C21.0398 8.08667 21.1798 7.66 21.4598 7.36C21.7398 7.05333 22.1465 6.9 22.6798 6.9C23.2065 6.9 23.6031 7.05333 23.8698 7.36C24.1431 7.66 24.2798 8.09333 24.2798 8.66V8.95H23.2398V8.59C23.2398 8.35 23.1931 8.17667 23.0998 8.07C23.0065 7.95667 22.8698 7.9 22.6898 7.9C22.3231 7.9 22.1398 8.12333 22.1398 8.57C22.1398 8.82333 22.2065 9.06 22.3398 9.28C22.4798 9.5 22.7298 9.76667 23.0898 10.08C23.5498 10.48 23.8665 10.8433 24.0398 11.17C24.2131 11.4967 24.2998 11.88 24.2998 12.32C24.2998 12.8933 24.1565 13.3333 23.8698 13.64C23.5898 13.9467 23.1798 14.1 22.6398 14.1ZM25.7905 8H24.6405V7H28.0405V8H26.8905V14H25.7905V8ZM28.9641 7H30.4541L31.5941 14H30.4941L30.2941 12.61V12.63H29.0441L28.8441 14H27.8241L28.9641 7ZM30.1641 11.68L29.6741 8.22H29.6541L29.1741 11.68H30.1641ZM32.1278 7H33.5078L34.5778 11.19H34.5978V7H35.5778V14H34.4478L33.1278 8.89H33.1078V14H32.1278V7ZM36.3954 7H38.0754C38.622 7 39.032 7.14667 39.3054 7.44C39.5787 7.73333 39.7154 8.16333 39.7154 8.73V12.27C39.7154 12.8367 39.5787 13.2667 39.3054 13.56C39.032 13.8533 38.622 14 38.0754 14H36.3954V7ZM38.0554 13C38.2354 13 38.372 12.9467 38.4654 12.84C38.5654 12.7333 38.6154 12.56 38.6154 12.32V8.68C38.6154 8.44 38.5654 8.26667 38.4654 8.16C38.372 8.05333 38.2354 8 38.0554 8H37.4954V13H38.0554ZM41.2883 7H42.7783L43.9183 14H42.8183L42.6183 12.61V12.63H41.3683L41.1683 14H40.1483L41.2883 7ZM42.4883 11.68L41.9983 8.22H41.9783L41.4983 11.68H42.4883ZM45.3508 7H46.8408L47.9808 14H46.8808L46.6808 12.61V12.63H45.4308L45.2308 14H44.2108L45.3508 7ZM46.5508 11.68L46.0608 8.22H46.0408L45.5608 11.68H46.5508ZM48.5145 7H50.1445C50.7112 7 51.1245 7.13333 51.3845 7.4C51.6445 7.66 51.7745 8.06333 51.7745 8.61V9.04C51.7745 9.76667 51.5345 10.2267 51.0545 10.42V10.44C51.3212 10.52 51.5078 10.6833 51.6145 10.93C51.7278 11.1767 51.7845 11.5067 51.7845 11.92V13.15C51.7845 13.35 51.7912 13.5133 51.8045 13.64C51.8178 13.76 51.8512 13.88 51.9045 14H50.7845C50.7445 13.8867 50.7178 13.78 50.7045 13.68C50.6912 13.58 50.6845 13.4 50.6845 13.14V11.86C50.6845 11.54 50.6312 11.3167 50.5245 11.19C50.4245 11.0633 50.2478 11 49.9945 11H49.6145V14H48.5145V7ZM50.0145 10C50.2345 10 50.3978 9.94333 50.5045 9.83C50.6178 9.71667 50.6745 9.52667 50.6745 9.26V8.72C50.6745 8.46667 50.6278 8.28333 50.5345 8.17C50.4478 8.05667 50.3078 8 50.1145 8H49.6145V10H50.0145ZM52.5477 7H54.2277C54.7744 7 55.1844 7.14667 55.4577 7.44C55.731 7.73333 55.8677 8.16333 55.8677 8.73V12.27C55.8677 12.8367 55.731 13.2667 55.4577 13.56C55.1844 13.8533 54.7744 14 54.2277 14H52.5477V7ZM54.2077 13C54.3877 13 54.5244 12.9467 54.6177 12.84C54.7177 12.7333 54.7677 12.56 54.7677 12.32V8.68C54.7677 8.44 54.7177 8.26667 54.6177 8.16C54.5244 8.05333 54.3877 8 54.2077 8H53.6477V13H54.2077ZM25.7655 17H26.8655V23H28.6755V24H25.7655V17ZM29.203 17H30.303V24H29.203V17ZM32.6768 24.1C32.1501 24.1 31.7468 23.95 31.4668 23.65C31.1935 23.35 31.0568 22.9267 31.0568 22.38V18.62C31.0568 18.0733 31.1935 17.65 31.4668 17.35C31.7468 17.05 32.1501 16.9 32.6768 16.9C33.2035 16.9 33.6035 17.05 33.8768 17.35C34.1568 17.65 34.2968 18.0733 34.2968 18.62V19.36H33.2568V18.55C33.2568 18.1167 33.0735 17.9 32.7068 17.9C32.3401 17.9 32.1568 18.1167 32.1568 18.55V22.46C32.1568 22.8867 32.3401 23.1 32.7068 23.1C33.0735 23.1 33.2568 22.8867 33.2568 22.46V21.39H34.2968V22.38C34.2968 22.9267 34.1568 23.35 33.8768 23.65C33.6035 23.95 33.2035 24.1 32.6768 24.1ZM34.9549 17H37.9549V18H36.0549V19.85H37.5649V20.85H36.0549V23H37.9549V24H34.9549V17ZM38.5877 17H39.9677L41.0377 21.19H41.0577V17H42.0377V24H40.9077L39.5877 18.89H39.5677V24H38.5877V17ZM43.7153 18H42.5653V17H45.9653V18H44.8153V24H43.7153V18ZM46.4979 17H47.5979V24H46.4979V17ZM48.4217 17H51.4217V18H49.5217V19.85H51.0317V20.85H49.5217V23H51.4217V24H48.4217V17Z" fill="#4792DE"/>
<path d="M4 1H73V-1H4V1ZM76 4V28H78V4H76ZM73 31H4V33H73V31ZM1 28V4H-1V28H1ZM4 31C2.34315 31 1 29.6569 1 28H-1C-1 30.7614 1.23858 33 4 33V31ZM76 28C76 29.6569 74.6569 31 73 31V33C75.7614 33 78 30.7614 78 28H76ZM73 1C74.6569 1 76 2.34315 76 4H78C78 1.23858 75.7614 -1 73 -1V1ZM4 -1C1.23858 -1 -1 1.23858 -1 4H1C1 2.34315 2.34315 1 4 1V-1Z" fill="#4792DE"/>
</svg>
