<svg width="77" height="32" viewBox="0 0 77 32" fill="none" xmlns="http://www.w3.org/2000/svg">
<path d="M0 4C0 1.79086 1.79086 0 4 0H73C75.2091 0 77 1.79086 77 4V28C77 30.2091 75.2091 32 73 32H4C1.79086 32 0 30.2091 0 28V4Z" fill="#5499F5"/>
<path d="M24.6815 7H25.7815V13H27.5915V14H24.6815V7ZM28.119 7H29.219V14H28.119V7ZM31.5928 14.1C31.0661 14.1 30.6628 13.95 30.3828 13.65C30.1095 13.35 29.9728 12.9267 29.9728 12.38V8.62C29.9728 8.07333 30.1095 7.65 30.3828 7.35C30.6628 7.05 31.0661 6.9 31.5928 6.9C32.1195 6.9 32.5195 7.05 32.7928 7.35C33.0728 7.65 33.2128 8.07333 33.2128 8.62V9.36H32.1728V8.55C32.1728 8.11667 31.9895 7.9 31.6228 7.9C31.2561 7.9 31.0728 8.11667 31.0728 8.55V12.46C31.0728 12.8867 31.2561 13.1 31.6228 13.1C31.9895 13.1 32.1728 12.8867 32.1728 12.46V11.39H33.2128V12.38C33.2128 12.9267 33.0728 13.35 32.7928 13.65C32.5195 13.95 32.1195 14.1 31.5928 14.1ZM33.8709 7H36.8709V8H34.9709V9.85H36.4809V10.85H34.9709V13H36.8709V14H33.8709V7ZM37.5038 7H38.8838L39.9538 11.19H39.9738V7H40.9538V14H39.8238L38.5038 8.89H38.4838V14H37.5038V7ZM43.3213 14.1C42.7947 14.1 42.3913 13.95 42.1113 13.65C41.838 13.35 41.7013 12.9267 41.7013 12.38V8.62C41.7013 8.07333 41.838 7.65 42.1113 7.35C42.3913 7.05 42.7947 6.9 43.3213 6.9C43.848 6.9 44.248 7.05 44.5213 7.35C44.8013 7.65 44.9413 8.07333 44.9413 8.62V9.36H43.9013V8.55C43.9013 8.11667 43.718 7.9 43.3513 7.9C42.9847 7.9 42.8013 8.11667 42.8013 8.55V12.46C42.8013 12.8867 42.9847 13.1 43.3513 13.1C43.718 13.1 43.9013 12.8867 43.9013 12.46V11.39H44.9413V12.38C44.9413 12.9267 44.8013 13.35 44.5213 13.65C44.248 13.95 43.848 14.1 43.3213 14.1ZM45.5995 7H46.6995V14H45.5995V7ZM48.3733 7H49.8633L51.0033 14H49.9033L49.7033 12.61V12.63H48.4533L48.2533 14H47.2333L48.3733 7ZM49.5733 11.68L49.0833 8.22H49.0633L48.5833 11.68H49.5733ZM22.2596 17H25.2596V18H23.3596V19.85H24.8696V20.85H23.3596V23H25.2596V24H22.2596V17ZM26.882 20.42L25.672 17H26.832L27.572 19.26H27.592L28.352 17H29.392L28.182 20.42L29.452 24H28.292L27.492 21.56H27.472L26.652 24H25.612L26.882 20.42ZM30.8345 18H29.6845V17H33.0845V18H31.9345V24H30.8345V18ZM33.617 17H36.617V18H34.717V19.85H36.227V20.85H34.717V23H36.617V24H33.617V17ZM37.2498 17H38.6298L39.6998 21.19H39.7198V17H40.6998V24H39.5698L38.2498 18.89H38.2298V24H37.2498V17ZM41.5174 17H43.1974C43.7441 17 44.1541 17.1467 44.4274 17.44C44.7008 17.7333 44.8374 18.1633 44.8374 18.73V22.27C44.8374 22.8367 44.7008 23.2667 44.4274 23.56C44.1541 23.8533 43.7441 24 43.1974 24H41.5174V17ZM43.1774 23C43.3574 23 43.4941 22.9467 43.5874 22.84C43.6874 22.7333 43.7374 22.56 43.7374 22.32V18.68C43.7374 18.44 43.6874 18.2667 43.5874 18.16C43.4941 18.0533 43.3574 18 43.1774 18H42.6174V23H43.1774ZM45.5799 17H46.6799V24H45.5799V17ZM47.5038 17H49.1838C49.7304 17 50.1404 17.1467 50.4138 17.44C50.6871 17.7333 50.8238 18.1633 50.8238 18.73V22.27C50.8238 22.8367 50.6871 23.2667 50.4138 23.56C50.1404 23.8533 49.7304 24 49.1838 24H47.5038V17ZM49.1638 23C49.3438 23 49.4804 22.9467 49.5738 22.84C49.6738 22.7333 49.7238 22.56 49.7238 22.32V18.68C49.7238 18.44 49.6738 18.2667 49.5738 18.16C49.4804 18.0533 49.3438 18 49.1638 18H48.6038V23H49.1638ZM52.3967 17H53.8867L55.0267 24H53.9267L53.7267 22.61V22.63H52.4767L52.2767 24H51.2567L52.3967 17ZM53.5967 21.68L53.1067 18.22H53.0867L52.6067 21.68H53.5967Z" fill="white"/>
</svg>
