<svg width="77" height="32" viewBox="0 0 77 32" fill="none" xmlns="http://www.w3.org/2000/svg">
<path d="M0 4C0 1.79086 1.79086 0 4 0H73C75.2091 0 77 1.79086 77 4V28C77 30.2091 75.2091 32 73 32H4C1.79086 32 0 30.2091 0 28V4Z" fill="white"/>
<path d="M24.6711 14.1C24.1377 14.1 23.7344 13.95 23.4611 13.65C23.1877 13.3433 23.0511 12.9067 23.0511 12.34V11.94H24.0911V12.42C24.0911 12.8733 24.2811 13.1 24.6611 13.1C24.8477 13.1 24.9877 13.0467 25.0811 12.94C25.1811 12.8267 25.2311 12.6467 25.2311 12.4C25.2311 12.1067 25.1644 11.85 25.0311 11.63C24.8977 11.4033 24.6511 11.1333 24.2911 10.82C23.8377 10.42 23.5211 10.06 23.3411 9.74C23.1611 9.41333 23.0711 9.04667 23.0711 8.64C23.0711 8.08667 23.2111 7.66 23.4911 7.36C23.7711 7.05333 24.1777 6.9 24.7111 6.9C25.2377 6.9 25.6344 7.05333 25.9011 7.36C26.1744 7.66 26.3111 8.09333 26.3111 8.66V8.95H25.2711V8.59C25.2711 8.35 25.2244 8.17667 25.1311 8.07C25.0377 7.95667 24.9011 7.9 24.7211 7.9C24.3544 7.9 24.1711 8.12333 24.1711 8.57C24.1711 8.82333 24.2377 9.06 24.3711 9.28C24.5111 9.5 24.7611 9.76667 25.1211 10.08C25.5811 10.48 25.8977 10.8433 26.0711 11.17C26.2444 11.4967 26.3311 11.88 26.3311 12.32C26.3311 12.8933 26.1877 13.3333 25.9011 13.64C25.6211 13.9467 25.2111 14.1 24.6711 14.1ZM27.8218 8H26.6718V7H30.0718V8H28.9218V14H27.8218V8ZM30.9954 7H32.4854L33.6254 14H32.5254L32.3254 12.61V12.63H31.0754L30.8754 14H29.8554L30.9954 7ZM32.1954 11.68L31.7054 8.22H31.6854L31.2054 11.68H32.1954ZM34.159 7H35.539L36.609 11.19H36.629V7H37.609V14H36.479L35.159 8.89H35.139V14H34.159V7ZM38.4266 7H40.1066C40.6533 7 41.0633 7.14667 41.3366 7.44C41.6099 7.73333 41.7466 8.16333 41.7466 8.73V12.27C41.7466 12.8367 41.6099 13.2667 41.3366 13.56C41.0633 13.8533 40.6533 14 40.1066 14H38.4266V7ZM40.0866 13C40.2666 13 40.4033 12.9467 40.4966 12.84C40.5966 12.7333 40.6466 12.56 40.6466 12.32V8.68C40.6466 8.44 40.5966 8.26667 40.4966 8.16C40.4033 8.05333 40.2666 8 40.0866 8H39.5266V13H40.0866ZM43.3196 7H44.8096L45.9496 14H44.8496L44.6496 12.61V12.63H43.3996L43.1996 14H42.1796L43.3196 7ZM44.5196 11.68L44.0296 8.22H44.0096L43.5296 11.68H44.5196ZM46.4832 7H48.1132C48.6799 7 49.0932 7.13333 49.3532 7.4C49.6132 7.66 49.7432 8.06333 49.7432 8.61V9.04C49.7432 9.76667 49.5032 10.2267 49.0232 10.42V10.44C49.2899 10.52 49.4766 10.6833 49.5832 10.93C49.6966 11.1767 49.7532 11.5067 49.7532 11.92V13.15C49.7532 13.35 49.7599 13.5133 49.7732 13.64C49.7866 13.76 49.8199 13.88 49.8732 14H48.7532C48.7132 13.8867 48.6866 13.78 48.6732 13.68C48.6599 13.58 48.6532 13.4 48.6532 13.14V11.86C48.6532 11.54 48.5999 11.3167 48.4932 11.19C48.3932 11.0633 48.2166 11 47.9632 11H47.5832V14H46.4832V7ZM47.9832 10C48.2032 10 48.3666 9.94333 48.4732 9.83C48.5866 9.71667 48.6432 9.52667 48.6432 9.26V8.72C48.6432 8.46667 48.5966 8.28333 48.5032 8.17C48.4166 8.05667 48.2766 8 48.0832 8H47.5832V10H47.9832ZM50.5164 7H52.1964C52.7431 7 53.1531 7.14667 53.4264 7.44C53.6998 7.73333 53.8364 8.16333 53.8364 8.73V12.27C53.8364 12.8367 53.6998 13.2667 53.4264 13.56C53.1531 13.8533 52.7431 14 52.1964 14H50.5164V7ZM52.1764 13C52.3564 13 52.4931 12.9467 52.5864 12.84C52.6864 12.7333 52.7364 12.56 52.7364 12.32V8.68C52.7364 8.44 52.6864 8.26667 52.5864 8.16C52.4931 8.05333 52.3564 8 52.1764 8H51.6164V13H52.1764ZM26.6883 17H27.7883V23H29.5983V24H26.6883V17ZM30.1258 17H31.2258V24H30.1258V17ZM33.5996 24.1C33.073 24.1 32.6696 23.95 32.3896 23.65C32.1163 23.35 31.9796 22.9267 31.9796 22.38V18.62C31.9796 18.0733 32.1163 17.65 32.3896 17.35C32.6696 17.05 33.073 16.9 33.5996 16.9C34.1263 16.9 34.5263 17.05 34.7996 17.35C35.0796 17.65 35.2196 18.0733 35.2196 18.62V19.36H34.1796V18.55C34.1796 18.1167 33.9963 17.9 33.6296 17.9C33.263 17.9 33.0796 18.1167 33.0796 18.55V22.46C33.0796 22.8867 33.263 23.1 33.6296 23.1C33.9963 23.1 34.1796 22.8867 34.1796 22.46V21.39H35.2196V22.38C35.2196 22.9267 35.0796 23.35 34.7996 23.65C34.5263 23.95 34.1263 24.1 33.5996 24.1ZM35.8778 17H38.8778V18H36.9778V19.85H38.4878V20.85H36.9778V23H38.8778V24H35.8778V17ZM39.5106 17H40.8906L41.9606 21.19H41.9806V17H42.9606V24H41.8306L40.5106 18.89H40.4906V24H39.5106V17ZM45.2082 24.1C44.6748 24.1 44.2715 23.95 43.9982 23.65C43.7248 23.3433 43.5882 22.9067 43.5882 22.34V21.94H44.6282V22.42C44.6282 22.8733 44.8182 23.1 45.1982 23.1C45.3848 23.1 45.5248 23.0467 45.6182 22.94C45.7182 22.8267 45.7682 22.6467 45.7682 22.4C45.7682 22.1067 45.7015 21.85 45.5682 21.63C45.4348 21.4033 45.1882 21.1333 44.8282 20.82C44.3748 20.42 44.0582 20.06 43.8782 19.74C43.6982 19.4133 43.6082 19.0467 43.6082 18.64C43.6082 18.0867 43.7482 17.66 44.0282 17.36C44.3082 17.0533 44.7148 16.9 45.2482 16.9C45.7748 16.9 46.1715 17.0533 46.4382 17.36C46.7115 17.66 46.8482 18.0933 46.8482 18.66V18.95H45.8082V18.59C45.8082 18.35 45.7615 18.1767 45.6682 18.07C45.5748 17.9567 45.4382 17.9 45.2582 17.9C44.8915 17.9 44.7082 18.1233 44.7082 18.57C44.7082 18.8233 44.7748 19.06 44.9082 19.28C45.0482 19.5 45.2982 19.7667 45.6582 20.08C46.1182 20.48 46.4348 20.8433 46.6082 21.17C46.7815 21.4967 46.8682 21.88 46.8682 22.32C46.8682 22.8933 46.7248 23.3333 46.4382 23.64C46.1582 23.9467 45.7482 24.1 45.2082 24.1ZM47.4989 17H50.4989V18H48.5989V19.85H50.1089V20.85H48.5989V23H50.4989V24H47.4989V17Z" fill="#4792DE"/>
<path d="M4 1H73V-1H4V1ZM76 4V28H78V4H76ZM73 31H4V33H73V31ZM1 28V4H-1V28H1ZM4 31C2.34315 31 1 29.6569 1 28H-1C-1 30.7614 1.23858 33 4 33V31ZM76 28C76 29.6569 74.6569 31 73 31V33C75.7614 33 78 30.7614 78 28H76ZM73 1C74.6569 1 76 2.34315 76 4H78C78 1.23858 75.7614 -1 73 -1V1ZM4 -1C1.23858 -1 -1 1.23858 -1 4H1C1 2.34315 2.34315 1 4 1V-1Z" fill="#4792DE"/>
</svg>
