<svg width="77" height="32" viewBox="0 0 77 32" fill="none" xmlns="http://www.w3.org/2000/svg">
<path d="M0 4C0 1.79086 1.79086 0 4 0H73C75.2091 0 77 1.79086 77 4V28C77 30.2091 75.2091 32 73 32H4C1.79086 32 0 30.2091 0 28V4Z" fill="white"/>
<path d="M25.4823 7H26.5823V13H28.3923V14H25.4823V7ZM28.9198 7H30.0198V14H28.9198V7ZM32.3936 14.1C31.8669 14.1 31.4636 13.95 31.1836 13.65C30.9103 13.35 30.7736 12.9267 30.7736 12.38V8.62C30.7736 8.07333 30.9103 7.65 31.1836 7.35C31.4636 7.05 31.8669 6.9 32.3936 6.9C32.9203 6.9 33.3203 7.05 33.5936 7.35C33.8736 7.65 34.0136 8.07333 34.0136 8.62V9.36H32.9736V8.55C32.9736 8.11667 32.7903 7.9 32.4236 7.9C32.0569 7.9 31.8736 8.11667 31.8736 8.55V12.46C31.8736 12.8867 32.0569 13.1 32.4236 13.1C32.7903 13.1 32.9736 12.8867 32.9736 12.46V11.39H34.0136V12.38C34.0136 12.9267 33.8736 13.35 33.5936 13.65C33.3203 13.95 32.9203 14.1 32.3936 14.1ZM34.6717 7H37.6717V8H35.7717V9.85H37.2817V10.85H35.7717V13H37.6717V14H34.6717V7ZM38.3045 7H39.6845L40.7545 11.19H40.7745V7H41.7545V14H40.6245L39.3045 8.89H39.2845V14H38.3045V7ZM44.1221 14.1C43.5954 14.1 43.1921 13.95 42.9121 13.65C42.6388 13.35 42.5021 12.9267 42.5021 12.38V8.62C42.5021 8.07333 42.6388 7.65 42.9121 7.35C43.1921 7.05 43.5954 6.9 44.1221 6.9C44.6488 6.9 45.0488 7.05 45.3221 7.35C45.6021 7.65 45.7421 8.07333 45.7421 8.62V9.36H44.7021V8.55C44.7021 8.11667 44.5188 7.9 44.1521 7.9C43.7854 7.9 43.6021 8.11667 43.6021 8.55V12.46C43.6021 12.8867 43.7854 13.1 44.1521 13.1C44.5188 13.1 44.7021 12.8867 44.7021 12.46V11.39H45.7421V12.38C45.7421 12.9267 45.6021 13.35 45.3221 13.65C45.0488 13.95 44.6488 14.1 44.1221 14.1ZM46.4002 7H47.5002V14H46.4002V7ZM49.1741 7H50.6641L51.8041 14H50.7041L50.5041 12.61V12.63H49.2541L49.0541 14H48.0341L49.1741 7ZM50.3741 11.68L49.8841 8.22H49.8641L49.3841 11.68H50.3741ZM23.4461 17H26.4461V18H24.5461V19.85H26.0561V20.85H24.5461V23H26.4461V24H23.4461V17ZM28.5285 24.1C27.9951 24.1 27.5918 23.95 27.3185 23.65C27.0451 23.3433 26.9085 22.9067 26.9085 22.34V21.94H27.9485V22.42C27.9485 22.8733 28.1385 23.1 28.5185 23.1C28.7051 23.1 28.8451 23.0467 28.9385 22.94C29.0385 22.8267 29.0885 22.6467 29.0885 22.4C29.0885 22.1067 29.0218 21.85 28.8885 21.63C28.7551 21.4033 28.5085 21.1333 28.1485 20.82C27.6951 20.42 27.3785 20.06 27.1985 19.74C27.0185 19.4133 26.9285 19.0467 26.9285 18.64C26.9285 18.0867 27.0685 17.66 27.3485 17.36C27.6285 17.0533 28.0351 16.9 28.5685 16.9C29.0951 16.9 29.4918 17.0533 29.7585 17.36C30.0318 17.66 30.1685 18.0933 30.1685 18.66V18.95H29.1285V18.59C29.1285 18.35 29.0818 18.1767 28.9885 18.07C28.8951 17.9567 28.7585 17.9 28.5785 17.9C28.2118 17.9 28.0285 18.1233 28.0285 18.57C28.0285 18.8233 28.0951 19.06 28.2285 19.28C28.3685 19.5 28.6185 19.7667 28.9785 20.08C29.4385 20.48 29.7551 20.8433 29.9285 21.17C30.1018 21.4967 30.1885 21.88 30.1885 22.32C30.1885 22.8933 30.0451 23.3333 29.7585 23.64C29.4785 23.9467 29.0685 24.1 28.5285 24.1ZM31.6792 18H30.5292V17H33.9292V18H32.7792V24H31.6792V18ZM34.8528 17H36.3428L37.4828 24H36.3828L36.1828 22.61V22.63H34.9328L34.7328 24H33.7128L34.8528 17ZM36.0528 21.68L35.5628 18.22H35.5428L35.0628 21.68H36.0528ZM35.7028 15.38H36.9028L35.8328 16.53H35.0028L35.7028 15.38ZM38.0164 17H39.3964L40.4664 21.19H40.4864V17H41.4664V24H40.3364L39.0164 18.89H38.9964V24H38.0164V17ZM42.284 17H43.964C44.5107 17 44.9207 17.1467 45.194 17.44C45.4674 17.7333 45.604 18.1633 45.604 18.73V22.27C45.604 22.8367 45.4674 23.2667 45.194 23.56C44.9207 23.8533 44.5107 24 43.964 24H42.284V17ZM43.944 23C44.124 23 44.2607 22.9467 44.354 22.84C44.454 22.7333 44.504 22.56 44.504 22.32V18.68C44.504 18.44 44.454 18.2667 44.354 18.16C44.2607 18.0533 44.124 18 43.944 18H43.384V23H43.944ZM47.177 17H48.667L49.807 24H48.707L48.507 22.61V22.63H47.257L47.057 24H46.037L47.177 17ZM48.377 21.68L47.887 18.22H47.867L47.387 21.68H48.377ZM50.3407 17H51.9707C52.5373 17 52.9507 17.1333 53.2107 17.4C53.4707 17.66 53.6007 18.0633 53.6007 18.61V19.04C53.6007 19.7667 53.3607 20.2267 52.8807 20.42V20.44C53.1473 20.52 53.334 20.6833 53.4407 20.93C53.554 21.1767 53.6107 21.5067 53.6107 21.92V23.15C53.6107 23.35 53.6173 23.5133 53.6307 23.64C53.644 23.76 53.6773 23.88 53.7307 24H52.6107C52.5707 23.8867 52.544 23.78 52.5307 23.68C52.5173 23.58 52.5107 23.4 52.5107 23.14V21.86C52.5107 21.54 52.4573 21.3167 52.3507 21.19C52.2507 21.0633 52.074 21 51.8207 21H51.4407V24H50.3407V17ZM51.8407 20C52.0607 20 52.224 19.9433 52.3307 19.83C52.444 19.7167 52.5007 19.5267 52.5007 19.26V18.72C52.5007 18.4667 52.454 18.2833 52.3607 18.17C52.274 18.0567 52.134 18 51.9407 18H51.4407V20H51.8407Z" fill="#4792DE"/>
<path d="M4 1H73V-1H4V1ZM76 4V28H78V4H76ZM73 31H4V33H73V31ZM1 28V4H-1V28H1ZM4 31C2.34315 31 1 29.6569 1 28H-1C-1 30.7614 1.23858 33 4 33V31ZM76 28C76 29.6569 74.6569 31 73 31V33C75.7614 33 78 30.7614 78 28H76ZM73 1C74.6569 1 76 2.34315 76 4H78C78 1.23858 75.7614 -1 73 -1V1ZM4 -1C1.23858 -1 -1 1.23858 -1 4H1C1 2.34315 2.34315 1 4 1V-1Z" fill="#4792DE"/>
</svg>
