<svg width="77" height="32" viewBox="0 0 77 32" fill="none" xmlns="http://www.w3.org/2000/svg">
<path d="M0 4C0 1.79086 1.79086 0 4 0H73C75.2091 0 77 1.79086 77 4V28C77 30.2091 75.2091 32 73 32H4C1.79086 32 0 30.2091 0 28V4Z" fill="white"/>
<path d="M26.4442 7H27.5442V13H29.3542V14H26.4442V7ZM29.8817 7H30.9817V14H29.8817V7ZM33.3555 14.1C32.8288 14.1 32.4255 13.95 32.1455 13.65C31.8722 13.35 31.7355 12.9267 31.7355 12.38V8.62C31.7355 8.07333 31.8722 7.65 32.1455 7.35C32.4255 7.05 32.8288 6.9 33.3555 6.9C33.8822 6.9 34.2822 7.05 34.5555 7.35C34.8355 7.65 34.9755 8.07333 34.9755 8.62V9.36H33.9355V8.55C33.9355 8.11667 33.7522 7.9 33.3855 7.9C33.0188 7.9 32.8355 8.11667 32.8355 8.55V12.46C32.8355 12.8867 33.0188 13.1 33.3855 13.1C33.7522 13.1 33.9355 12.8867 33.9355 12.46V11.39H34.9755V12.38C34.9755 12.9267 34.8355 13.35 34.5555 13.65C34.2822 13.95 33.8822 14.1 33.3555 14.1ZM35.6336 7H38.6336V8H36.7336V9.85H38.2436V10.85H36.7336V13H38.6336V14H35.6336V7ZM39.2664 7H40.6464L41.7164 11.19H41.7364V7H42.7164V14H41.5864L40.2664 8.89H40.2464V14H39.2664V7ZM45.664 9.36V8.55C45.664 8.11667 45.4807 7.9 45.114 7.9C44.7474 7.9 44.564 8.11667 44.564 8.55V12.46C44.564 12.8867 44.7474 13.1 45.114 13.1C45.4807 13.1 45.664 12.8867 45.664 12.46V11.39H46.704V12.38C46.704 12.88 46.5874 13.28 46.354 13.58C46.1207 13.8733 45.784 14.0433 45.344 14.09V14.39C45.5707 14.39 45.7407 14.4267 45.854 14.5C45.974 14.5733 46.034 14.6933 46.034 14.86C46.034 15.1067 45.9507 15.27 45.784 15.35C45.6174 15.43 45.3607 15.47 45.014 15.47C44.7074 15.47 44.4707 15.4267 44.304 15.34C44.1374 15.2533 44.054 15.1033 44.054 14.89V14.79H44.794V14.87C44.794 14.9367 44.814 14.9867 44.854 15.02C44.9007 15.0533 44.954 15.07 45.014 15.07C45.1074 15.07 45.174 15.05 45.214 15.01C45.254 14.9767 45.274 14.9167 45.274 14.83C45.274 14.7367 45.244 14.67 45.184 14.63C45.124 14.59 45.0307 14.57 44.904 14.57H44.854V14.09C44.4007 14.0433 44.054 13.8733 43.814 13.58C43.5807 13.2867 43.464 12.8867 43.464 12.38V8.62C43.464 8.07333 43.6007 7.65 43.874 7.35C44.154 7.05 44.5574 6.9 45.084 6.9C45.6107 6.9 46.0107 7.05 46.284 7.35C46.564 7.65 46.704 8.07333 46.704 8.62V9.36H45.664ZM48.2121 7H49.7021L50.8421 14H49.7421L49.5421 12.61V12.63H48.2921L48.0921 14H47.0721L48.2121 7ZM49.4121 11.68L48.9221 8.22H48.9021L48.4221 11.68H49.4121ZM27.1034 17H28.7234C29.27 17 29.68 17.1467 29.9534 17.44C30.2267 17.7333 30.3634 18.1633 30.3634 18.73V19.42C30.3634 19.9867 30.2267 20.4167 29.9534 20.71C29.68 21.0033 29.27 21.15 28.7234 21.15H28.2034V24H27.1034V17ZM28.7234 20.15C28.9034 20.15 29.0367 20.1 29.1234 20C29.2167 19.9 29.2634 19.73 29.2634 19.49V18.66C29.2634 18.42 29.2167 18.25 29.1234 18.15C29.0367 18.05 28.9034 18 28.7234 18H28.2034V20.15H28.7234ZM31.4592 17H32.9492L34.0892 24H32.9892L32.7892 22.61V22.63H31.5392L31.3392 24H30.3192L31.4592 17ZM32.6592 21.68L32.1692 18.22H32.1492L31.6692 21.68H32.6592ZM34.6229 17H36.3029C36.8496 17 37.2596 17.1467 37.5329 17.44C37.8062 17.7333 37.9429 18.1633 37.9429 18.73V22.27C37.9429 22.8367 37.8062 23.2667 37.5329 23.56C37.2596 23.8533 36.8496 24 36.3029 24H34.6229V17ZM36.2829 23C36.4629 23 36.5996 22.9467 36.6929 22.84C36.7929 22.7333 36.8429 22.56 36.8429 22.32V18.68C36.8429 18.44 36.7929 18.2667 36.6929 18.16C36.5996 18.0533 36.4629 18 36.2829 18H35.7229V23H36.2829ZM38.6854 17H40.3154C40.8821 17 41.2954 17.1333 41.5554 17.4C41.8154 17.66 41.9454 18.0633 41.9454 18.61V19.04C41.9454 19.7667 41.7054 20.2267 41.2254 20.42V20.44C41.4921 20.52 41.6787 20.6833 41.7854 20.93C41.8987 21.1767 41.9554 21.5067 41.9554 21.92V23.15C41.9554 23.35 41.9621 23.5133 41.9754 23.64C41.9887 23.76 42.0221 23.88 42.0754 24H40.9554C40.9154 23.8867 40.8887 23.78 40.8754 23.68C40.8621 23.58 40.8554 23.4 40.8554 23.14V21.86C40.8554 21.54 40.8021 21.3167 40.6954 21.19C40.5954 21.0633 40.4187 21 40.1654 21H39.7854V24H38.6854V17ZM40.1854 20C40.4054 20 40.5687 19.9433 40.6754 19.83C40.7887 19.7167 40.8454 19.5267 40.8454 19.26V18.72C40.8454 18.4667 40.7987 18.2833 40.7054 18.17C40.6187 18.0567 40.4787 18 40.2854 18H39.7854V20H40.1854ZM43.5686 17H45.0586L46.1986 24H45.0986L44.8986 22.61V22.63H43.6486L43.4486 24H42.4286L43.5686 17ZM44.7686 21.68L44.2786 18.22H44.2586L43.7786 21.68H44.7686ZM42.9286 16.25C43.0553 15.9633 43.1919 15.7533 43.3386 15.62C43.4853 15.48 43.6519 15.41 43.8386 15.41C43.9586 15.41 44.0619 15.4267 44.1486 15.46C44.2419 15.4933 44.3386 15.54 44.4386 15.6C44.4986 15.6333 44.5553 15.6633 44.6086 15.69C44.6686 15.7167 44.7253 15.73 44.7786 15.73C44.8586 15.73 44.9286 15.7 44.9886 15.64C45.0486 15.58 45.1119 15.48 45.1786 15.34L45.7086 15.66C45.5819 15.9467 45.4453 16.16 45.2986 16.3C45.1519 16.4333 44.9853 16.5 44.7986 16.5C44.6786 16.5 44.5719 16.4833 44.4786 16.45C44.3919 16.4167 44.2986 16.37 44.1986 16.31C44.1386 16.2767 44.0786 16.2467 44.0186 16.22C43.9653 16.1933 43.9119 16.18 43.8586 16.18C43.7786 16.18 43.7086 16.21 43.6486 16.27C43.5886 16.33 43.5253 16.43 43.4586 16.57L42.9286 16.25ZM48.3027 24.1C47.7627 24.1 47.3494 23.9467 47.0627 23.64C46.7761 23.3333 46.6327 22.9 46.6327 22.34V18.66C46.6327 18.1 46.7761 17.6667 47.0627 17.36C47.3494 17.0533 47.7627 16.9 48.3027 16.9C48.8427 16.9 49.2561 17.0533 49.5427 17.36C49.8294 17.6667 49.9727 18.1 49.9727 18.66V22.34C49.9727 22.9 49.8294 23.3333 49.5427 23.64C49.2561 23.9467 48.8427 24.1 48.3027 24.1ZM48.3027 23.1C48.6827 23.1 48.8727 22.87 48.8727 22.41V18.59C48.8727 18.13 48.6827 17.9 48.3027 17.9C47.9227 17.9 47.7327 18.13 47.7327 18.59V22.41C47.7327 22.87 47.9227 23.1 48.3027 23.1Z" fill="#4792DE"/>
<path d="M4 1H73V-1H4V1ZM76 4V28H78V4H76ZM73 31H4V33H73V31ZM1 28V4H-1V28H1ZM4 31C2.34315 31 1 29.6569 1 28H-1C-1 30.7614 1.23858 33 4 33V31ZM76 28C76 29.6569 74.6569 31 73 31V33C75.7614 33 78 30.7614 78 28H76ZM73 1C74.6569 1 76 2.34315 76 4H78C78 1.23858 75.7614 -1 73 -1V1ZM4 -1C1.23858 -1 -1 1.23858 -1 4H1C1 2.34315 2.34315 1 4 1V-1Z" fill="#4792DE"/>
</svg>
