<svg width="77" height="32" viewBox="0 0 77 32" fill="none" xmlns="http://www.w3.org/2000/svg">
<path d="M0 4C0 1.79086 1.79086 0 4 0H73C75.2091 0 77 1.79086 77 4V28C77 30.2091 75.2091 32 73 32H4C1.79086 32 0 30.2091 0 28V4Z" fill="white"/>
<path d="M26.5467 7H27.6467V13H29.4567V14H26.5467V7ZM29.9842 7H31.0842V14H29.9842V7ZM33.458 14.1C32.9314 14.1 32.528 13.95 32.248 13.65C31.9747 13.35 31.838 12.9267 31.838 12.38V8.62C31.838 8.07333 31.9747 7.65 32.248 7.35C32.528 7.05 32.9314 6.9 33.458 6.9C33.9847 6.9 34.3847 7.05 34.658 7.35C34.938 7.65 35.078 8.07333 35.078 8.62V9.36H34.038V8.55C34.038 8.11667 33.8547 7.9 33.488 7.9C33.1214 7.9 32.938 8.11667 32.938 8.55V12.46C32.938 12.8867 33.1214 13.1 33.488 13.1C33.8547 13.1 34.038 12.8867 34.038 12.46V11.39H35.078V12.38C35.078 12.9267 34.938 13.35 34.658 13.65C34.3847 13.95 33.9847 14.1 33.458 14.1ZM35.7362 7H38.7362V8H36.8362V9.85H38.3462V10.85H36.8362V13H38.7362V14H35.7362V7ZM39.369 7H40.749L41.819 11.19H41.839V7H42.819V14H41.689L40.369 8.89H40.349V14H39.369V7ZM43.4166 13.02L45.4566 8H43.5166V7H46.6366V7.98L44.5966 13H46.6366V14H43.4166V13.02ZM48.1096 7H49.5996L50.7396 14H49.6396L49.4396 12.61V12.63H48.1896L47.9896 14H46.9696L48.1096 7ZM49.3096 11.68L48.8196 8.22H48.7996L48.3196 11.68H49.3096ZM24.6711 24.1C24.1377 24.1 23.7344 23.95 23.4611 23.65C23.1877 23.3433 23.0511 22.9067 23.0511 22.34V21.94H24.0911V22.42C24.0911 22.8733 24.2811 23.1 24.6611 23.1C24.8477 23.1 24.9877 23.0467 25.0811 22.94C25.1811 22.8267 25.2311 22.6467 25.2311 22.4C25.2311 22.1067 25.1644 21.85 25.0311 21.63C24.8977 21.4033 24.6511 21.1333 24.2911 20.82C23.8377 20.42 23.5211 20.06 23.3411 19.74C23.1611 19.4133 23.0711 19.0467 23.0711 18.64C23.0711 18.0867 23.2111 17.66 23.4911 17.36C23.7711 17.0533 24.1777 16.9 24.7111 16.9C25.2377 16.9 25.6344 17.0533 25.9011 17.36C26.1744 17.66 26.3111 18.0933 26.3111 18.66V18.95H25.2711V18.59C25.2711 18.35 25.2244 18.1767 25.1311 18.07C25.0377 17.9567 24.9011 17.9 24.7211 17.9C24.3544 17.9 24.1711 18.1233 24.1711 18.57C24.1711 18.8233 24.2377 19.06 24.3711 19.28C24.5111 19.5 24.7611 19.7667 25.1211 20.08C25.5811 20.48 25.8977 20.8433 26.0711 21.17C26.2444 21.4967 26.3311 21.88 26.3311 22.32C26.3311 22.8933 26.1877 23.3333 25.9011 23.64C25.6211 23.9467 25.2111 24.1 24.6711 24.1ZM27.8218 18H26.6718V17H30.0718V18H28.9218V24H27.8218V18ZM30.9954 17H32.4854L33.6254 24H32.5254L32.3254 22.61V22.63H31.0754L30.8754 24H29.8554L30.9954 17ZM32.1954 21.68L31.7054 18.22H31.6854L31.2054 21.68H32.1954ZM34.159 17H35.539L36.609 21.19H36.629V17H37.609V24H36.479L35.159 18.89H35.139V24H34.159V17ZM38.4266 17H40.1066C40.6533 17 41.0633 17.1467 41.3366 17.44C41.6099 17.7333 41.7466 18.1633 41.7466 18.73V22.27C41.7466 22.8367 41.6099 23.2667 41.3366 23.56C41.0633 23.8533 40.6533 24 40.1066 24H38.4266V17ZM40.0866 23C40.2666 23 40.4033 22.9467 40.4966 22.84C40.5966 22.7333 40.6466 22.56 40.6466 22.32V18.68C40.6466 18.44 40.5966 18.2667 40.4966 18.16C40.4033 18.0533 40.2666 18 40.0866 18H39.5266V23H40.0866ZM43.3196 17H44.8096L45.9496 24H44.8496L44.6496 22.61V22.63H43.3996L43.1996 24H42.1796L43.3196 17ZM44.5196 21.68L44.0296 18.22H44.0096L43.5296 21.68H44.5196ZM46.4832 17H48.1132C48.6799 17 49.0932 17.1333 49.3532 17.4C49.6132 17.66 49.7432 18.0633 49.7432 18.61V19.04C49.7432 19.7667 49.5032 20.2267 49.0232 20.42V20.44C49.2899 20.52 49.4766 20.6833 49.5832 20.93C49.6966 21.1767 49.7532 21.5067 49.7532 21.92V23.15C49.7532 23.35 49.7599 23.5133 49.7732 23.64C49.7866 23.76 49.8199 23.88 49.8732 24H48.7532C48.7132 23.8867 48.6866 23.78 48.6732 23.68C48.6599 23.58 48.6532 23.4 48.6532 23.14V21.86C48.6532 21.54 48.5999 21.3167 48.4932 21.19C48.3932 21.0633 48.2166 21 47.9632 21H47.5832V24H46.4832V17ZM47.9832 20C48.2032 20 48.3666 19.9433 48.4732 19.83C48.5866 19.7167 48.6432 19.5267 48.6432 19.26V18.72C48.6432 18.4667 48.5966 18.2833 48.5032 18.17C48.4166 18.0567 48.2766 18 48.0832 18H47.5832V20H47.9832ZM50.5164 17H52.1964C52.7431 17 53.1531 17.1467 53.4264 17.44C53.6998 17.7333 53.8364 18.1633 53.8364 18.73V22.27C53.8364 22.8367 53.6998 23.2667 53.4264 23.56C53.1531 23.8533 52.7431 24 52.1964 24H50.5164V17ZM52.1764 23C52.3564 23 52.4931 22.9467 52.5864 22.84C52.6864 22.7333 52.7364 22.56 52.7364 22.32V18.68C52.7364 18.44 52.6864 18.2667 52.5864 18.16C52.4931 18.0533 52.3564 18 52.1764 18H51.6164V23H52.1764Z" fill="#4792DE"/>
<path d="M4 1H73V-1H4V1ZM76 4V28H78V4H76ZM73 31H4V33H73V31ZM1 28V4H-1V28H1ZM4 31C2.34315 31 1 29.6569 1 28H-1C-1 30.7614 1.23858 33 4 33V31ZM76 28C76 29.6569 74.6569 31 73 31V33C75.7614 33 78 30.7614 78 28H76ZM73 1C74.6569 1 76 2.34315 76 4H78C78 1.23858 75.7614 -1 73 -1V1ZM4 -1C1.23858 -1 -1 1.23858 -1 4H1C1 2.34315 2.34315 1 4 1V-1Z" fill="#4792DE"/>
</svg>
