<svg width="77" height="32" viewBox="0 0 77 32" fill="none" xmlns="http://www.w3.org/2000/svg">
<path d="M0 4C0 1.79086 1.79086 0 4 0H73C75.2091 0 77 1.79086 77 4V28C77 30.2091 75.2091 32 73 32H4C1.79086 32 0 30.2091 0 28V4Z" fill="#5499F5"/>
<path d="M26.6346 7H27.7346V13H29.5446V14H26.6346V7ZM30.0721 7H31.1721V14H30.0721V7ZM33.5459 14.1C33.0193 14.1 32.6159 13.95 32.3359 13.65C32.0626 13.35 31.9259 12.9267 31.9259 12.38V8.62C31.9259 8.07333 32.0626 7.65 32.3359 7.35C32.6159 7.05 33.0193 6.9 33.5459 6.9C34.0726 6.9 34.4726 7.05 34.7459 7.35C35.0259 7.65 35.1659 8.07333 35.1659 8.62V9.36H34.1259V8.55C34.1259 8.11667 33.9426 7.9 33.5759 7.9C33.2093 7.9 33.0259 8.11667 33.0259 8.55V12.46C33.0259 12.8867 33.2093 13.1 33.5759 13.1C33.9426 13.1 34.1259 12.8867 34.1259 12.46V11.39H35.1659V12.38C35.1659 12.9267 35.0259 13.35 34.7459 13.65C34.4726 13.95 34.0726 14.1 33.5459 14.1ZM35.8241 7H38.8241V8H36.9241V9.85H38.4341V10.85H36.9241V13H38.8241V14H35.8241V7ZM39.4569 7H40.8369L41.9069 11.19H41.9269V7H42.9069V14H41.7769L40.4569 8.89H40.4369V14H39.4569V7ZM45.2745 14.1C44.7478 14.1 44.3445 13.95 44.0645 13.65C43.7911 13.35 43.6545 12.9267 43.6545 12.38V8.62C43.6545 8.07333 43.7911 7.65 44.0645 7.35C44.3445 7.05 44.7478 6.9 45.2745 6.9C45.8011 6.9 46.2011 7.05 46.4745 7.35C46.7545 7.65 46.8945 8.07333 46.8945 8.62V9.36H45.8545V8.55C45.8545 8.11667 45.6711 7.9 45.3045 7.9C44.9378 7.9 44.7545 8.11667 44.7545 8.55V12.46C44.7545 12.8867 44.9378 13.1 45.3045 13.1C45.6711 13.1 45.8545 12.8867 45.8545 12.46V11.39H46.8945V12.38C46.8945 12.9267 46.7545 13.35 46.4745 13.65C46.2011 13.95 45.8011 14.1 45.2745 14.1ZM47.5526 7H50.5526V8H48.6526V9.85H50.1626V10.85H48.6526V13H50.5526V14H47.5526V7ZM25.4627 17H28.4627V18H26.5627V19.85H28.0727V20.85H26.5627V23H28.4627V24H25.4627V17ZM27.0627 15.38H28.2627L27.1927 16.53H26.3627L27.0627 15.38ZM29.9555 18H28.8055V17H32.2055V18H31.0555V24H29.9555V18ZM32.7381 17H35.7381V18H33.8381V19.85H35.3481V20.85H33.8381V23H35.7381V24H32.7381V17ZM36.3709 17H37.7509L38.8209 21.19H38.8409V17H39.8209V24H38.6909L37.3709 18.89H37.3509V24H36.3709V17ZM40.6385 17H42.3185C42.8652 17 43.2752 17.1467 43.5485 17.44C43.8218 17.7333 43.9585 18.1633 43.9585 18.73V22.27C43.9585 22.8367 43.8218 23.2667 43.5485 23.56C43.2752 23.8533 42.8652 24 42.3185 24H40.6385V17ZM42.2985 23C42.4785 23 42.6152 22.9467 42.7085 22.84C42.8085 22.7333 42.8585 22.56 42.8585 22.32V18.68C42.8585 18.44 42.8085 18.2667 42.7085 18.16C42.6152 18.0533 42.4785 18 42.2985 18H41.7385V23H42.2985ZM46.301 24.1C45.7677 24.1 45.361 23.95 45.081 23.65C44.801 23.3433 44.661 22.9067 44.661 22.34V17H45.761V22.42C45.761 22.66 45.8077 22.8333 45.901 22.94C46.001 23.0467 46.141 23.1 46.321 23.1C46.501 23.1 46.6377 23.0467 46.731 22.94C46.831 22.8333 46.881 22.66 46.881 22.42V17H47.941V22.34C47.941 22.9067 47.801 23.3433 47.521 23.65C47.241 23.95 46.8343 24.1 46.301 24.1ZM48.7245 17H51.7245V18H49.8245V19.85H51.3345V20.85H49.8245V23H51.7245V24H48.7245V17Z" fill="white"/>
</svg>
