<svg width="77" height="32" viewBox="0 0 77 32" fill="none" xmlns="http://www.w3.org/2000/svg">
<path d="M0 4C0 1.79086 1.79086 0 4 0H73C75.2091 0 77 1.79086 77 4V28C77 30.2091 75.2091 32 73 32H4C1.79086 32 0 30.2091 0 28V4Z" fill="#5499F5"/>
<path d="M21.301 14.1C20.7677 14.1 20.361 13.95 20.081 13.65C19.801 13.3433 19.661 12.9067 19.661 12.34V7H20.761V12.42C20.761 12.66 20.8077 12.8333 20.901 12.94C21.001 13.0467 21.141 13.1 21.321 13.1C21.501 13.1 21.6377 13.0467 21.731 12.94C21.831 12.8333 21.881 12.66 21.881 12.42V7H22.941V12.34C22.941 12.9067 22.801 13.3433 22.521 13.65C22.241 13.95 21.8343 14.1 21.301 14.1ZM23.7245 7H24.8245V14H23.7245V7ZM26.5083 8H25.3583V7H28.7583V8H27.6083V14H26.5083V8ZM30.8118 14.1C30.2785 14.1 29.8718 13.95 29.5918 13.65C29.3118 13.3433 29.1718 12.9067 29.1718 12.34V8.66C29.1718 8.09333 29.3118 7.66 29.5918 7.36C29.8718 7.05333 30.2785 6.9 30.8118 6.9C31.3451 6.9 31.7518 7.05333 32.0318 7.36C32.3118 7.66 32.4518 8.09333 32.4518 8.66V9.26H31.4118V8.59C31.4118 8.13 31.2218 7.9 30.8418 7.9C30.4618 7.9 30.2718 8.13 30.2718 8.59V12.42C30.2718 12.8733 30.4618 13.1 30.8418 13.1C31.2218 13.1 31.4118 12.8733 31.4118 12.42V11.05H30.8618V10.05H32.4518V12.34C32.4518 12.9067 32.3118 13.3433 32.0318 13.65C31.7518 13.95 31.3451 14.1 30.8118 14.1ZM33.158 7H36.158V8H34.258V9.85H35.768V10.85H34.258V13H36.158V14H33.158V7ZM36.7909 7H38.4509C39.0175 7 39.4309 7.13333 39.6909 7.4C39.9509 7.66 40.0809 8.06333 40.0809 8.61V8.89C40.0809 9.25 40.0209 9.54333 39.9009 9.77C39.7875 9.99667 39.6109 10.16 39.3709 10.26V10.28C39.9175 10.4667 40.1909 10.9533 40.1909 11.74V12.34C40.1909 12.88 40.0475 13.2933 39.7609 13.58C39.4809 13.86 39.0675 14 38.5209 14H36.7909V7ZM38.3209 9.85C38.5409 9.85 38.7042 9.79333 38.8109 9.68C38.9242 9.56667 38.9809 9.37667 38.9809 9.11V8.72C38.9809 8.46667 38.9342 8.28333 38.8409 8.17C38.7542 8.05667 38.6142 8 38.4209 8H37.8909V9.85H38.3209ZM38.5209 13C38.7142 13 38.8575 12.95 38.9509 12.85C39.0442 12.7433 39.0909 12.5633 39.0909 12.31V11.7C39.0909 11.38 39.0342 11.16 38.9209 11.04C38.8142 10.9133 38.6342 10.85 38.3809 10.85H37.8909V13H38.5209ZM40.8338 7H42.4638C43.0305 7 43.4438 7.13333 43.7038 7.4C43.9638 7.66 44.0938 8.06333 44.0938 8.61V9.04C44.0938 9.76667 43.8538 10.2267 43.3738 10.42V10.44C43.6405 10.52 43.8272 10.6833 43.9338 10.93C44.0472 11.1767 44.1038 11.5067 44.1038 11.92V13.15C44.1038 13.35 44.1105 13.5133 44.1238 13.64C44.1372 13.76 44.1705 13.88 44.2238 14H43.1038C43.0638 13.8867 43.0372 13.78 43.0238 13.68C43.0105 13.58 43.0038 13.4 43.0038 13.14V11.86C43.0038 11.54 42.9505 11.3167 42.8438 11.19C42.7438 11.0633 42.5672 11 42.3138 11H41.9338V14H40.8338V7ZM42.3338 10C42.5538 10 42.7172 9.94333 42.8238 9.83C42.9372 9.71667 42.9938 9.52667 42.9938 9.26V8.72C42.9938 8.46667 42.9472 8.28333 42.8538 8.17C42.7672 8.05667 42.6272 8 42.4338 8H41.9338V10H42.3338ZM44.867 7H47.867V8H45.967V9.85H47.477V10.85H45.967V13H47.867V14H44.867V7ZM48.4998 7H49.5998V14H48.4998V7ZM50.4237 7H52.1037C52.6503 7 53.0603 7.14667 53.3337 7.44C53.607 7.73333 53.7437 8.16333 53.7437 8.73V12.27C53.7437 12.8367 53.607 13.2667 53.3337 13.56C53.0603 13.8533 52.6503 14 52.1037 14H50.4237V7ZM52.0837 13C52.2637 13 52.4003 12.9467 52.4937 12.84C52.5937 12.7333 52.6437 12.56 52.6437 12.32V8.68C52.6437 8.44 52.5937 8.26667 52.4937 8.16C52.4003 8.05333 52.2637 8 52.0837 8H51.5237V13H52.0837ZM54.4862 7H57.4862V8H55.5862V9.85H57.0962V10.85H55.5862V13H57.4862V14H54.4862V7ZM25.7655 17H26.8655V23H28.6755V24H25.7655V17ZM29.203 17H30.303V24H29.203V17ZM32.6768 24.1C32.1501 24.1 31.7468 23.95 31.4668 23.65C31.1935 23.35 31.0568 22.9267 31.0568 22.38V18.62C31.0568 18.0733 31.1935 17.65 31.4668 17.35C31.7468 17.05 32.1501 16.9 32.6768 16.9C33.2035 16.9 33.6035 17.05 33.8768 17.35C34.1568 17.65 34.2968 18.0733 34.2968 18.62V19.36H33.2568V18.55C33.2568 18.1167 33.0735 17.9 32.7068 17.9C32.3401 17.9 32.1568 18.1167 32.1568 18.55V22.46C32.1568 22.8867 32.3401 23.1 32.7068 23.1C33.0735 23.1 33.2568 22.8867 33.2568 22.46V21.39H34.2968V22.38C34.2968 22.9267 34.1568 23.35 33.8768 23.65C33.6035 23.95 33.2035 24.1 32.6768 24.1ZM34.9549 17H37.9549V18H36.0549V19.85H37.5649V20.85H36.0549V23H37.9549V24H34.9549V17ZM38.5877 17H39.9677L41.0377 21.19H41.0577V17H42.0377V24H40.9077L39.5877 18.89H39.5677V24H38.5877V17ZM43.7153 18H42.5653V17H45.9653V18H44.8153V24H43.7153V18ZM46.4979 17H47.5979V24H46.4979V17ZM48.4217 17H51.4217V18H49.5217V19.85H51.0317V20.85H49.5217V23H51.4217V24H48.4217V17Z" fill="white"/>
</svg>
