<svg width="77" height="32" viewBox="0 0 77 32" fill="none" xmlns="http://www.w3.org/2000/svg">
<path d="M0 4C0 1.79086 1.79086 0 4 0H73C75.2091 0 77 1.79086 77 4V28C77 30.2091 75.2091 32 73 32H4C1.79086 32 0 30.2091 0 28V4Z" fill="#5499F5"/>
<path d="M26.5467 7H27.6467V13H29.4567V14H26.5467V7ZM29.9842 7H31.0842V14H29.9842V7ZM33.458 14.1C32.9314 14.1 32.528 13.95 32.248 13.65C31.9747 13.35 31.838 12.9267 31.838 12.38V8.62C31.838 8.07333 31.9747 7.65 32.248 7.35C32.528 7.05 32.9314 6.9 33.458 6.9C33.9847 6.9 34.3847 7.05 34.658 7.35C34.938 7.65 35.078 8.07333 35.078 8.62V9.36H34.038V8.55C34.038 8.11667 33.8547 7.9 33.488 7.9C33.1214 7.9 32.938 8.11667 32.938 8.55V12.46C32.938 12.8867 33.1214 13.1 33.488 13.1C33.8547 13.1 34.038 12.8867 34.038 12.46V11.39H35.078V12.38C35.078 12.9267 34.938 13.35 34.658 13.65C34.3847 13.95 33.9847 14.1 33.458 14.1ZM35.7362 7H38.7362V8H36.8362V9.85H38.3462V10.85H36.8362V13H38.7362V14H35.7362V7ZM39.369 7H40.749L41.819 11.19H41.839V7H42.819V14H41.689L40.369 8.89H40.349V14H39.369V7ZM43.4166 13.02L45.4566 8H43.5166V7H46.6366V7.98L44.5966 13H46.6366V14H43.4166V13.02ZM48.1096 7H49.5996L50.7396 14H49.6396L49.4396 12.61V12.63H48.1896L47.9896 14H46.9696L48.1096 7ZM49.3096 11.68L48.8196 8.22H48.7996L48.3196 11.68H49.3096ZM27.7235 17H30.7235V18H28.8235V19.85H30.3335V20.85H28.8235V23H30.7235V24H27.7235V17ZM32.8058 24.1C32.2725 24.1 31.8692 23.95 31.5958 23.65C31.3225 23.3433 31.1858 22.9067 31.1858 22.34V21.94H32.2258V22.42C32.2258 22.8733 32.4158 23.1 32.7958 23.1C32.9825 23.1 33.1225 23.0467 33.2158 22.94C33.3158 22.8267 33.3658 22.6467 33.3658 22.4C33.3658 22.1067 33.2992 21.85 33.1658 21.63C33.0325 21.4033 32.7858 21.1333 32.4258 20.82C31.9725 20.42 31.6558 20.06 31.4758 19.74C31.2958 19.4133 31.2058 19.0467 31.2058 18.64C31.2058 18.0867 31.3458 17.66 31.6258 17.36C31.9058 17.0533 32.3125 16.9 32.8458 16.9C33.3725 16.9 33.7692 17.0533 34.0358 17.36C34.3092 17.66 34.4458 18.0933 34.4458 18.66V18.95H33.4058V18.59C33.4058 18.35 33.3592 18.1767 33.2658 18.07C33.1725 17.9567 33.0358 17.9 32.8558 17.9C32.4892 17.9 32.3058 18.1233 32.3058 18.57C32.3058 18.8233 32.3725 19.06 32.5058 19.28C32.6458 19.5 32.8958 19.7667 33.2558 20.08C33.7158 20.48 34.0325 20.8433 34.2058 21.17C34.3792 21.4967 34.4658 21.88 34.4658 22.32C34.4658 22.8933 34.3225 23.3333 34.0358 23.64C33.7558 23.9467 33.3458 24.1 32.8058 24.1ZM35.9565 18H34.8065V17H38.2065V18H37.0565V24H35.9565V18ZM38.7391 17H41.7391V18H39.8391V19.85H41.3491V20.85H39.8391V23H41.7391V24H38.7391V17ZM43.8214 24.1C43.2881 24.1 42.8848 23.95 42.6114 23.65C42.3381 23.3433 42.2014 22.9067 42.2014 22.34V21.94H43.2414V22.42C43.2414 22.8733 43.4314 23.1 43.8114 23.1C43.9981 23.1 44.1381 23.0467 44.2314 22.94C44.3314 22.8267 44.3814 22.6467 44.3814 22.4C44.3814 22.1067 44.3148 21.85 44.1814 21.63C44.0481 21.4033 43.8014 21.1333 43.4414 20.82C42.9881 20.42 42.6714 20.06 42.4914 19.74C42.3114 19.4133 42.2214 19.0467 42.2214 18.64C42.2214 18.0867 42.3614 17.66 42.6414 17.36C42.9214 17.0533 43.3281 16.9 43.8614 16.9C44.3881 16.9 44.7848 17.0533 45.0514 17.36C45.3248 17.66 45.4614 18.0933 45.4614 18.66V18.95H44.4214V18.59C44.4214 18.35 44.3748 18.1767 44.2814 18.07C44.1881 17.9567 44.0514 17.9 43.8714 17.9C43.5048 17.9 43.3214 18.1233 43.3214 18.57C43.3214 18.8233 43.3881 19.06 43.5214 19.28C43.6614 19.5 43.9114 19.7667 44.2714 20.08C44.7314 20.48 45.0481 20.8433 45.2214 21.17C45.3948 21.4967 45.4814 21.88 45.4814 22.32C45.4814 22.8933 45.3381 23.3333 45.0514 23.64C44.7714 23.9467 44.3614 24.1 43.8214 24.1ZM46.9329 17H48.4229L49.5629 24H48.4629L48.2629 22.61V22.63H47.0129L46.8129 24H45.7929L46.9329 17ZM48.1329 21.68L47.6429 18.22H47.6229L47.1429 21.68H48.1329Z" fill="white"/>
</svg>
