<svg width="77" height="32" viewBox="0 0 77 32" fill="none" xmlns="http://www.w3.org/2000/svg">
<path d="M0 4C0 1.79086 1.79086 0 4 0H73C75.2091 0 77 1.79086 77 4V28C77 30.2091 75.2091 32 73 32H4C1.79086 32 0 30.2091 0 28V4Z" fill="#5499F5"/>
<path d="M30.802 14.1C30.2687 14.1 29.862 13.95 29.582 13.65C29.302 13.3433 29.162 12.9067 29.162 12.34V8.66C29.162 8.09333 29.302 7.66 29.582 7.36C29.862 7.05333 30.2687 6.9 30.802 6.9C31.3354 6.9 31.742 7.05333 32.022 7.36C32.302 7.66 32.442 8.09333 32.442 8.66V9.26H31.402V8.59C31.402 8.13 31.212 7.9 30.832 7.9C30.452 7.9 30.262 8.13 30.262 8.59V12.42C30.262 12.8733 30.452 13.1 30.832 13.1C31.212 13.1 31.402 12.8733 31.402 12.42V11.05H30.852V10.05H32.442V12.34C32.442 12.9067 32.302 13.3433 32.022 13.65C31.742 13.95 31.3354 14.1 30.802 14.1ZM33.1483 7H36.1483V8H34.2483V9.85H35.7583V10.85H34.2483V13H36.1483V14H33.1483V7ZM36.7811 7H38.1611L39.2311 11.19H39.2511V7H40.2311V14H39.1011L37.7811 8.89H37.7611V14H36.7811V7ZM41.0487 7H42.1487V14H41.0487V7ZM46.0625 12.32C46.0625 12.84 45.9425 13.2533 45.7025 13.56C45.4692 13.8667 45.1258 14.0433 44.6725 14.09V14.39C44.8992 14.39 45.0692 14.4267 45.1825 14.5C45.3025 14.5733 45.3625 14.6933 45.3625 14.86C45.3625 15.1067 45.2792 15.27 45.1125 15.35C44.9458 15.43 44.6892 15.47 44.3425 15.47C44.0358 15.47 43.7992 15.4267 43.6325 15.34C43.4658 15.2533 43.3825 15.1033 43.3825 14.89V14.79H44.1225V14.87C44.1225 14.9367 44.1425 14.9867 44.1825 15.02C44.2292 15.0533 44.2825 15.07 44.3425 15.07C44.4358 15.07 44.5025 15.05 44.5425 15.01C44.5825 14.9767 44.6025 14.9167 44.6025 14.83C44.6025 14.7367 44.5725 14.67 44.5125 14.63C44.4525 14.59 44.3592 14.57 44.2325 14.57H44.1825V14.09C43.7225 14.05 43.3725 13.88 43.1325 13.58C42.8992 13.28 42.7825 12.8667 42.7825 12.34V11.94H43.8225V12.42C43.8225 12.8733 44.0125 13.1 44.3925 13.1C44.5792 13.1 44.7192 13.0467 44.8125 12.94C44.9125 12.8267 44.9625 12.6467 44.9625 12.4C44.9625 12.1067 44.8958 11.85 44.7625 11.63C44.6292 11.4033 44.3825 11.1333 44.0225 10.82C43.5692 10.42 43.2525 10.06 43.0725 9.74C42.8925 9.41333 42.8025 9.04667 42.8025 8.64C42.8025 8.08667 42.9425 7.66 43.2225 7.36C43.5025 7.05333 43.9092 6.9 44.4425 6.9C44.9692 6.9 45.3658 7.05333 45.6325 7.36C45.9058 7.66 46.0425 8.09333 46.0425 8.66V8.95H45.0025V8.59C45.0025 8.35 44.9558 8.17667 44.8625 8.07C44.7692 7.95667 44.6325 7.9 44.4525 7.9C44.0858 7.9 43.9025 8.12333 43.9025 8.57C43.9025 8.82333 43.9692 9.06 44.1025 9.28C44.2425 9.5 44.4925 9.76667 44.8525 10.08C45.3125 10.48 45.6292 10.8433 45.8025 11.17C45.9758 11.4967 46.0625 11.88 46.0625 12.32ZM46.6932 12.94H47.7532V14H46.6932V12.94ZM28.3827 17H29.4827V23H31.2927V24H28.3827V17ZM31.8202 17H32.9202V24H31.8202V17ZM35.174 24.1C34.6407 24.1 34.2373 23.95 33.964 23.65C33.6907 23.3433 33.554 22.9067 33.554 22.34V21.94H34.594V22.42C34.594 22.8733 34.784 23.1 35.164 23.1C35.3507 23.1 35.4907 23.0467 35.584 22.94C35.684 22.8267 35.734 22.6467 35.734 22.4C35.734 22.1067 35.6673 21.85 35.534 21.63C35.4007 21.4033 35.154 21.1333 34.794 20.82C34.3407 20.42 34.024 20.06 33.844 19.74C33.664 19.4133 33.574 19.0467 33.574 18.64C33.574 18.0867 33.714 17.66 33.994 17.36C34.274 17.0533 34.6807 16.9 35.214 16.9C35.7407 16.9 36.1373 17.0533 36.404 17.36C36.6773 17.66 36.814 18.0933 36.814 18.66V18.95H35.774V18.59C35.774 18.35 35.7273 18.1767 35.634 18.07C35.5407 17.9567 35.404 17.9 35.224 17.9C34.8573 17.9 34.674 18.1233 34.674 18.57C34.674 18.8233 34.7407 19.06 34.874 19.28C35.014 19.5 35.264 19.7667 35.624 20.08C36.084 20.48 36.4007 20.8433 36.574 21.17C36.7473 21.4967 36.834 21.88 36.834 22.32C36.834 22.8933 36.6907 23.3333 36.404 23.64C36.124 23.9467 35.714 24.1 35.174 24.1ZM38.2854 17H39.7754L40.9154 24H39.8154L39.6154 22.61V22.63H38.3654L38.1654 24H37.1454L38.2854 17ZM39.4854 21.68L38.9954 18.22H38.9754L38.4954 21.68H39.4854ZM41.4491 17H42.8291L43.8991 21.19H43.9191V17H44.8991V24H43.7691L42.4491 18.89H42.4291V24H41.4491V17ZM47.1466 24.1C46.6133 24.1 46.21 23.95 45.9366 23.65C45.6633 23.3433 45.5266 22.9067 45.5266 22.34V21.94H46.5666V22.42C46.5666 22.8733 46.7566 23.1 47.1366 23.1C47.3233 23.1 47.4633 23.0467 47.5566 22.94C47.6566 22.8267 47.7066 22.6467 47.7066 22.4C47.7066 22.1067 47.64 21.85 47.5066 21.63C47.3733 21.4033 47.1266 21.1333 46.7666 20.82C46.3133 20.42 45.9966 20.06 45.8166 19.74C45.6366 19.4133 45.5466 19.0467 45.5466 18.64C45.5466 18.0867 45.6866 17.66 45.9666 17.36C46.2466 17.0533 46.6533 16.9 47.1866 16.9C47.7133 16.9 48.11 17.0533 48.3766 17.36C48.65 17.66 48.7866 18.0933 48.7866 18.66V18.95H47.7466V18.59C47.7466 18.35 47.7 18.1767 47.6066 18.07C47.5133 17.9567 47.3766 17.9 47.1966 17.9C46.83 17.9 46.6466 18.1233 46.6466 18.57C46.6466 18.8233 46.7133 19.06 46.8466 19.28C46.9866 19.5 47.2366 19.7667 47.5966 20.08C48.0566 20.48 48.3733 20.8433 48.5466 21.17C48.72 21.4967 48.8066 21.88 48.8066 22.32C48.8066 22.8933 48.6633 23.3333 48.3766 23.64C48.0966 23.9467 47.6866 24.1 47.1466 24.1Z" fill="white"/>
</svg>
