<svg width="8" height="8" viewBox="0 0 8 8" fill="none" xmlns="http://www.w3.org/2000/svg">
<path d="M4 6.10352e-05C1.79099 6.10352e-05 0 1.79105 0 4.00006C0 6.20932 1.79099 8.00006 4 8.00006C6.20926 8.00006 8 6.20957 8 4.00006C8 1.79105 6.20923 6.10352e-05 4 6.10352e-05ZM4 7.25005C2.20501 7.25005 0.750012 5.79505 0.750012 4.00006C0.750012 2.20507 2.20501 0.750073 4 0.750073C5.79499 0.750073 7.24999 2.20507 7.24999 4.00006C7.24999 5.79505 5.79499 7.25005 4 7.25005ZM4.00025 1.7543C3.71376 1.7543 3.49699 1.90381 3.49699 2.14531V4.3603C3.49699 4.60205 3.71373 4.75105 4.00025 4.75105C4.27975 4.75105 4.50351 4.59581 4.50351 4.3603V2.14531C4.50349 1.90955 4.27975 1.7543 4.00025 1.7543ZM4.00025 5.25006C3.725 5.25006 3.50099 5.47408 3.50099 5.74955C3.50099 6.02455 3.725 6.24856 4.00025 6.24856C4.2755 6.24856 4.49926 6.02455 4.49926 5.74955C4.49923 5.47405 4.2755 5.25006 4.00025 5.25006Z" fill="#F04F4F"/>
</svg>
