<svg width="8" height="10" viewBox="0 0 8 10" fill="none" xmlns="http://www.w3.org/2000/svg">
<circle cx="4" cy="5" r="4" fill="#9C9C9C"/>
<path d="M2.21484 3.875H3.02344C3.05859 3.35938 3.40625 3.03516 3.94531 3.03516C4.48047 3.03516 4.82812 3.35938 4.82812 3.80078C4.82812 4.20312 4.66016 4.42969 4.1875 4.71484C3.65234 5.03516 3.41406 5.38672 3.43359 5.9375L3.4375 6.25H4.24609V6.01172C4.24609 5.60938 4.39062 5.40234 4.89453 5.10547C5.41016 4.79688 5.71484 4.37109 5.71484 3.76562C5.71484 2.92969 5.01953 2.31641 3.98828 2.31641C2.85547 2.31641 2.25 2.98828 2.21484 3.875ZM3.84766 8.05859C4.14062 8.05859 4.36328 7.83984 4.36328 7.55469C4.36328 7.26953 4.14062 7.05078 3.84766 7.05078C3.5625 7.05078 3.33594 7.26953 3.33594 7.55469C3.33594 7.83984 3.5625 8.05859 3.84766 8.05859Z" fill="#3C3C3C"/>
</svg>
