<svg width="71" height="81" viewBox="0 0 71 81" fill="none" xmlns="http://www.w3.org/2000/svg">
<rect width="71" height="80" transform="translate(0 0.491455)" fill="#557F36"/>
<path d="M43.0349 47.5864H22.3706L21.6091 50.154H27.1303L28.1847 53.6786H37.2501L38.2899 50.154H43.7964L43.0642 47.5712L43.0349 47.5864ZM25.739 33.1686C25.3605 33.708 25.0882 34.3196 24.9378 34.9684C24.7873 35.6171 24.7617 36.2902 24.8624 36.9493C24.963 37.6083 25.188 38.2402 25.5244 38.8089C25.8608 39.3777 26.302 39.872 26.8227 40.2636L31.7728 43.9858C32.0386 44.1814 32.2188 44.4784 32.2737 44.8117C32.3286 45.1449 32.2538 45.4872 32.0657 45.7633L32.798 46.3254L35.4194 42.5728C36.0204 41.711 36.3434 40.674 36.3421 39.6103C36.3437 39.3356 36.3241 39.0613 36.2835 38.7899C36.182 38.1333 35.9564 37.504 35.6196 36.9382C35.2828 36.3724 34.8415 35.8813 34.321 35.4931L29.371 31.7557C29.2399 31.6598 29.1284 31.5379 29.043 31.3971C28.9575 31.2563 28.8998 31.0994 28.8731 30.9353C28.8676 30.8645 28.8676 30.7934 28.8731 30.7226C28.8709 30.4616 28.9477 30.2066 29.0927 29.9934L28.3605 29.4312L25.739 33.1686ZM28.712 18.1887C27.8329 19.4316 27.356 20.9315 27.35 22.473C27.3497 22.8647 27.379 23.2559 27.4378 23.6428C27.5817 24.5983 27.9068 25.5146 28.3945 26.3387C28.8823 27.1628 29.5228 27.8783 30.279 28.4437L36.5032 33.123C36.9078 33.4255 37.2508 33.8082 37.5122 34.2488C37.7736 34.6895 37.9483 35.1795 38.0263 35.6906C38.0565 35.8967 38.0712 36.105 38.0702 36.3135C38.0682 37.1443 37.8118 37.953 37.3379 38.6228L37.9384 39.0785L42.8445 32.0444C43.3908 31.2623 43.7833 30.3763 43.9995 29.4369C44.2157 28.4975 44.2513 27.5231 44.1044 26.5694C43.9576 25.6157 43.631 24.7013 43.1434 23.8785C42.6559 23.0557 42.0168 22.3407 41.2628 21.7741L33.7499 16.1073C33.2811 15.7518 32.9672 15.2181 32.8766 14.6231C32.786 14.0281 32.9263 13.4201 33.2666 12.932L32.6808 12.4915L28.712 18.1887ZM16 55.836H21.6677C23.0589 55.836 24.1573 56.231 24.8603 56.9451C25.1353 57.2255 25.3514 57.562 25.495 57.9332C25.6387 58.3045 25.7068 58.7025 25.6951 59.1024V59.1328C25.6951 60.5609 24.9628 61.3661 24.0841 61.8675C25.49 62.4296 26.3687 63.2804 26.3687 64.982V65.0123C26.3687 67.3368 24.5527 68.4915 21.7995 68.4915H16V55.836ZM21.0965 60.9407C22.2681 60.9407 23.0297 60.5457 23.0297 59.6038V59.5734C23.0297 58.7378 22.3999 58.2668 21.2722 58.2668H18.6215V60.9407H21.0965ZM21.8141 66.0454C22.9857 66.0454 23.718 65.62 23.718 64.6781V64.6477C23.718 63.7969 23.1029 63.2804 21.7262 63.2804H18.6215V66.0454H21.8141ZM27.5404 55.8208H33.208C34.6139 55.8208 35.6977 56.231 36.4007 56.9451C36.6756 57.2255 36.8917 57.562 37.0354 57.9332C37.179 58.3045 37.2471 58.7025 37.2354 59.1024V59.1328C37.2354 60.5609 36.5032 61.3661 35.6245 61.8675C37.045 62.4296 37.9091 63.2804 37.9091 64.982V65.0123C37.9091 67.3368 36.0931 68.4915 33.3398 68.4915H27.5404V55.8208ZM32.6369 60.9559C33.8085 60.9559 34.57 60.5457 34.57 59.6038V59.5734C34.57 58.7378 33.9403 58.2668 32.8126 58.2668H30.1618V60.9407L32.6369 60.9559ZM33.3545 66.0454C34.5261 66.0454 35.2583 65.62 35.2583 64.6781V64.6477C35.2583 63.7969 34.6432 63.2804 33.2666 63.2804H30.1618V66.0454H33.3545ZM39.0807 55.8208H44.7777C46.1689 55.8208 47.2673 56.231 47.9557 56.9451C48.2333 57.2242 48.4521 57.5601 48.5983 57.9314C48.7445 58.3027 48.8149 58.7014 48.8051 59.1024V59.1328C48.8051 60.5609 48.0728 61.3661 47.1941 61.8675C48.6 62.4296 49.4787 63.2804 49.4787 64.982V65.0123C49.4787 67.3368 47.6628 68.4915 44.9095 68.4915H39.11L39.0807 55.8208ZM44.1772 60.9559C45.3635 60.9559 46.1104 60.5457 46.1104 59.6038V59.5734C46.1104 58.7378 45.4953 58.2668 44.353 58.2668H41.7168V60.9407L44.1772 60.9559ZM44.8948 66.0454C46.0811 66.0454 46.7987 65.62 46.7987 64.6781V64.6477C46.7987 63.7969 46.1836 63.2804 44.807 63.2804H41.7022V66.0454H44.8948ZM50.0206 65.8479V65.8327C50.0187 65.1478 50.2791 64.49 50.7446 64.0042C51.2102 63.5185 51.8427 63.2444 52.503 63.2424C53.1633 63.2404 53.7973 63.5106 54.2656 63.9935C54.7338 64.4764 54.998 65.1326 55 65.8176C55.0038 66.5025 54.7453 67.1611 54.2811 67.6483C53.8169 68.1355 53.1852 68.4115 52.5249 68.4155C51.8646 68.4195 51.2298 68.1513 50.7602 67.6698C50.2905 67.1883 50.0245 66.5329 50.0206 65.8479ZM54.7071 65.8327V65.8176C54.7071 65.5183 54.6502 65.2219 54.5398 64.9455C54.4294 64.669 54.2676 64.4177 54.0636 64.2061C53.8596 63.9945 53.6175 63.8267 53.351 63.7121C53.0844 63.5976 52.7988 63.5387 52.5103 63.5387C52.2218 63.5387 51.9361 63.5976 51.6696 63.7121C51.4031 63.8267 51.1609 63.9945 50.9569 64.2061C50.7529 64.4177 50.5911 64.669 50.4807 64.9455C50.3703 65.2219 50.3135 65.5183 50.3135 65.8176V65.8479C50.3145 66.1472 50.3723 66.4433 50.4835 66.7195C50.5948 66.9956 50.7574 67.2462 50.9621 67.4571C51.1668 67.668 51.4095 67.8351 51.6764 67.9487C51.9433 68.0623 52.2291 68.1202 52.5176 68.1192C52.8061 68.1182 53.0916 68.0583 53.3577 67.9429C53.6239 67.8274 53.8655 67.6587 54.0688 67.4464C54.2721 67.2341 54.4331 66.9823 54.5426 66.7054C54.6521 66.4285 54.708 66.132 54.7071 65.8327ZM51.4851 64.3894H52.6567C52.8061 64.3803 52.9557 64.4025 53.0966 64.4547C53.2375 64.5069 53.3669 64.5881 53.4769 64.6933C53.554 64.7725 53.6147 64.8673 53.655 64.9719C53.6953 65.0764 53.7144 65.1884 53.7112 65.301C53.7188 65.4902 53.6652 65.6767 53.5591 65.8308C53.453 65.9849 53.3004 66.0978 53.1254 66.1518L53.7844 67.1241H53.0961L52.5396 66.2429H52.0709V67.1241H51.4851V64.3894ZM52.6567 65.7264C52.9496 65.7264 53.1254 65.5745 53.1254 65.3314C53.1254 65.0579 52.935 64.9212 52.6567 64.9212H52.0709V65.7264H52.6567Z" fill="white"/>
</svg>
