<svg width="186" height="41" viewBox="0 0 186 41" fill="none" xmlns="http://www.w3.org/2000/svg">
<path d="M115.047 22.8939H113.023V22.2307H117.923V22.8939H115.899V27.4481H115.047V22.8939ZM118.93 22.2307H120.2L122.197 26.1806H122.233L124.213 22.2307H125.482V27.4481H124.63V23.1592H124.612L122.49 27.4481H121.922L119.8 23.1592H119.783V27.4481H118.93V22.2307Z" fill="#87A86B"/>
<path d="M59.5756 26.4278C59.0472 25.7896 58.3781 25.2987 57.5678 24.9551C56.7575 24.6115 55.9212 24.4397 55.058 24.4397C54.0013 24.4397 53.0416 24.6279 52.1784 25.0042C51.333 25.3642 50.602 25.8633 49.9857 26.5014C49.3868 27.1395 48.9203 27.8922 48.5855 28.7595C48.2508 29.6103 48.0836 30.5266 48.0836 31.5084C48.0836 32.4247 48.2421 33.292 48.5591 34.1101C48.8761 34.9282 49.3339 35.6482 49.9329 36.27C50.5318 36.8918 51.2625 37.3825 52.1256 37.7426C52.9887 38.1027 53.9662 38.2826 55.058 38.2826C56.1325 38.2826 57.0745 38.0782 57.8848 37.669C58.6951 37.2599 59.382 36.6872 59.9454 35.9509L62.0853 37.4481C61.9446 37.628 61.6977 37.8899 61.3456 38.2335C60.9935 38.5606 60.5266 38.8962 59.9454 39.2398C59.3642 39.567 58.6596 39.8534 57.832 40.0989C57.0217 40.3608 56.0797 40.4916 55.0052 40.4916C53.5258 40.4916 52.1871 40.2296 50.9896 39.7062C49.8095 39.1827 48.7969 38.4954 47.9515 37.6445C47.1239 36.7936 46.4898 35.8364 46.0494 34.7728C45.6089 33.6928 45.3889 32.6047 45.3889 31.5084C45.3889 30.1666 45.6267 28.9313 46.1022 27.8022C46.5777 26.6568 47.2382 25.6751 48.0836 24.8569C48.9467 24.0224 49.977 23.3761 51.1745 22.9179C52.372 22.4598 53.693 22.2307 55.1373 22.2307C56.3703 22.2307 57.5765 22.4516 58.7566 22.8934C59.9541 23.3352 60.9316 24.0143 61.6891 24.9306L59.5756 26.4278ZM65.4173 22.6725H67.9535V37.8408H76.5395V40.0498H65.4173V22.6725ZM81.5743 22.6725V33.3247C81.5743 33.8647 81.6535 34.4292 81.812 35.0182C81.9705 35.5909 82.2347 36.1227 82.6046 36.6136C82.9744 37.1045 83.459 37.5052 84.0576 37.8163C84.6565 38.1273 85.3963 38.2826 86.2767 38.2826C87.1576 38.2826 87.8973 38.1273 88.4959 37.8163C89.0948 37.5052 89.579 37.1045 89.9489 36.6136C90.3187 36.1227 90.5829 35.5909 90.7414 35.0182C90.8999 34.4292 90.9792 33.8647 90.9792 33.3247V22.6725H93.5154V33.6928C93.5154 34.7073 93.3304 35.6318 92.9606 36.4663C92.5907 37.2845 92.0801 37.9961 91.4283 38.6017C90.7769 39.2072 90.0108 39.6736 89.1299 40.0007C88.2494 40.3278 87.2984 40.4916 86.2767 40.4916C85.2555 40.4916 84.3044 40.3278 83.4235 40.0007C82.5431 39.6736 81.7769 39.2072 81.1251 38.6017C80.4738 37.9961 79.9627 37.2845 79.5929 36.4663C79.223 35.6318 79.0381 34.7073 79.0381 33.6928V22.6725H81.5743ZM98.2476 22.6725H104.746C105.557 22.6725 106.305 22.7625 106.992 22.9425C107.697 23.1225 108.296 23.3925 108.788 23.7525C109.3 24.0961 109.696 24.546 109.977 25.1024C110.277 25.6424 110.426 26.2805 110.426 27.0168C110.426 28.015 110.127 28.8331 109.528 29.4712C108.93 30.093 108.154 30.5512 107.203 30.8457V30.8948C107.767 30.9275 108.296 31.0666 108.788 31.3121C109.282 31.5411 109.704 31.852 110.057 32.2447C110.426 32.6211 110.717 33.0629 110.928 33.5701C111.14 34.0774 111.245 34.6255 111.245 35.2146C111.245 36 111.07 36.6954 110.717 37.3008C110.383 37.8899 109.916 38.3888 109.317 38.798C108.718 39.2072 108.022 39.5179 107.23 39.7307C106.437 39.9436 105.583 40.0498 104.667 40.0498H98.2476V22.6725ZM100.784 29.8885H104.245C104.72 29.8885 105.169 29.8476 105.592 29.7658C106.015 29.6676 106.384 29.5122 106.701 29.2994C107.018 29.0867 107.265 28.8167 107.441 28.4895C107.635 28.1622 107.732 27.7613 107.732 27.2868C107.732 26.5996 107.494 26.0023 107.018 25.4951C106.543 24.9878 105.795 24.7342 104.773 24.7342H100.784V29.8885ZM100.784 37.9881H104.509C104.896 37.9881 105.319 37.9555 105.777 37.8899C106.252 37.8082 106.693 37.6609 107.098 37.4481C107.503 37.219 107.846 36.9163 108.128 36.54C108.41 36.1636 108.551 35.6645 108.551 35.0428C108.551 34.0119 108.19 33.2429 107.468 32.7356C106.746 32.212 105.768 31.9502 104.535 31.9502H100.784V37.9881Z" fill="#B7C9A7"/>
<path d="M58.2081 4.48865C57.7307 3.88089 57.1259 3.41338 56.3939 3.08613C55.6618 2.75887 54.9059 2.59524 54.126 2.59524C53.1711 2.59524 52.3038 2.77445 51.524 3.13288C50.7601 3.47573 50.0997 3.95102 49.5426 4.55878C49.0015 5.16654 48.5798 5.88339 48.2774 6.70931C47.9751 7.51967 47.8239 8.39234 47.8239 9.32736C47.8239 10.2 47.9671 11.026 48.2535 11.8052C48.54 12.5843 48.9538 13.27 49.4949 13.8622C50.036 14.4544 50.6965 14.9219 51.4762 15.2647C52.2561 15.6076 53.1393 15.779 54.126 15.779C55.0968 15.779 55.9483 15.5842 56.6803 15.1946C57.4124 14.805 58.0331 14.2596 58.5423 13.5583L60.476 14.9842C60.3487 15.1556 60.1259 15.405 59.8075 15.7322C59.4893 16.0439 59.0675 16.3634 58.5423 16.6906C58.0171 17.0023 57.3806 17.275 56.6326 17.5088C55.9005 17.7581 55.0491 17.8828 54.0783 17.8828C52.7415 17.8828 51.532 17.6334 50.4498 17.1347C49.3835 16.6361 48.4684 15.9816 47.7045 15.1712C46.9565 14.3609 46.3836 13.4492 45.9857 12.4363C45.5879 11.4078 45.3889 10.3715 45.3889 9.32736C45.3889 8.04949 45.6038 6.87294 46.0335 5.79767C46.4632 4.70681 47.06 3.77179 47.8239 2.99262C48.6037 2.19786 49.5347 1.58231 50.6169 1.14597C51.6991 0.709624 52.8927 0.491455 54.1976 0.491455C55.3117 0.491455 56.4018 0.701834 57.4681 1.12259C58.5503 1.54335 59.4336 2.19007 60.1179 3.06275L58.2081 4.48865ZM63.4869 0.912212H69.431C70.5132 0.912212 71.4044 1.06026 72.1046 1.35635C72.8049 1.63685 73.3539 2.00307 73.7518 2.45499C74.1656 2.89133 74.452 3.39001 74.6112 3.95102C74.7703 4.49643 74.8499 5.02628 74.8499 5.54054C74.8499 6.0704 74.7544 6.58466 74.5634 7.08332C74.3725 7.56642 74.094 8.01056 73.7279 8.41572C73.3778 8.80532 72.9402 9.14036 72.415 9.42086C71.9057 9.68577 71.3328 9.8494 70.6962 9.91174L75.4945 17.462H72.6298L68.3329 10.1689H65.7786V17.462H63.4869V0.912212ZM65.7786 8.20534H68.7864C69.2321 8.20534 69.6697 8.17418 70.0994 8.11184C70.545 8.03393 70.9349 7.90146 71.2691 7.71446C71.6193 7.52745 71.8977 7.26254 72.1046 6.91969C72.3115 6.56128 72.415 6.10155 72.415 5.54054C72.415 4.97953 72.3115 4.52762 72.1046 4.18477C71.8977 3.82636 71.6193 3.55363 71.2691 3.36663C70.9349 3.17963 70.545 3.05496 70.0994 2.99262C69.6697 2.91471 69.2321 2.87575 68.7864 2.87575H65.7786V8.20534ZM78.5848 0.912212H89.4941V3.016H80.8765V7.94821H88.8974V10.052H80.8765V15.3582H89.9238V17.462H78.5848V0.912212ZM93.7805 0.912212H97.1942L102.565 13.4414H102.661L107.984 0.912212H111.398V17.462H109.106V3.85751H109.059L103.353 17.462H101.825L96.12 3.85751H96.0722V17.462H93.7805V0.912212ZM121.386 0.912212H123.462L130.696 17.462H128.022L126.327 13.3713H118.282L116.611 17.462H113.938L121.386 0.912212ZM125.492 11.4078L122.34 3.81076H122.293L119.094 11.4078H125.492ZM134.475 3.016H129.032V0.912212H142.21V3.016H136.767V17.462H134.475V3.016ZM145.154 0.912212H147.446V17.462H145.154V0.912212ZM159.266 17.8828C157.977 17.8828 156.791 17.6646 155.709 17.2282C154.627 16.7763 153.696 16.1608 152.916 15.3816C152.152 14.6024 151.547 13.683 151.101 12.6233C150.672 11.5636 150.457 10.4182 150.457 9.18711C150.457 7.95599 150.672 6.8106 151.101 5.75092C151.547 4.69125 152.152 3.77179 152.916 2.99262C153.696 2.21344 154.627 1.60568 155.709 1.16934C156.791 0.717419 157.977 0.491455 159.266 0.491455C160.555 0.491455 161.741 0.717419 162.823 1.16934C163.905 1.60568 164.828 2.21344 165.592 2.99262C166.372 3.77179 166.976 4.69125 167.406 5.75092C167.852 6.8106 168.074 7.95599 168.074 9.18711C168.074 10.4182 167.852 11.5636 167.406 12.6233C166.976 13.683 166.372 14.6024 165.592 15.3816C164.828 16.1608 163.905 16.7763 162.823 17.2282C161.741 17.6646 160.555 17.8828 159.266 17.8828ZM159.266 15.779C160.237 15.779 161.112 15.6076 161.892 15.2647C162.672 14.9063 163.34 14.431 163.897 13.8388C164.454 13.2466 164.884 12.5532 165.186 11.7584C165.488 10.948 165.639 10.091 165.639 9.18711C165.639 8.28325 165.488 7.43395 165.186 6.63919C164.884 5.82883 164.454 5.12757 163.897 4.5354C163.34 3.94324 162.672 3.47573 161.892 3.13288C161.112 2.77445 160.237 2.59524 159.266 2.59524C158.295 2.59524 157.42 2.77445 156.64 3.13288C155.86 3.47573 155.192 3.94324 154.635 4.5354C154.078 5.12757 153.648 5.82883 153.345 6.63919C153.043 7.43395 152.892 8.28325 152.892 9.18711C152.892 10.091 153.043 10.948 153.345 11.7584C153.648 12.5532 154.078 13.2466 154.635 13.8388C155.192 14.431 155.86 14.9063 156.64 15.2647C157.42 15.6076 158.295 15.779 159.266 15.779ZM171.344 0.912212H174.352L183.662 14.5167H183.71V0.912212H186.001V17.462H183.089L173.683 3.85751H173.636V17.462H171.344V0.912212Z" fill="#B7C9A7"/>
<path d="M1.366 24.1089C1.35426 24.6944 1.5706 25.2633 1.97356 25.7067C2.03241 26.299 2.12807 26.8875 2.26005 27.4691C2.05146 27.0312 1.73887 26.6451 1.34676 26.3411C0.954653 26.0371 0.493689 25.8234 0 25.7168C0.105048 26.369 0.398711 26.9807 0.848304 27.4839C1.2979 27.9871 1.88578 28.362 2.54653 28.5669C2.67386 29.0805 2.83302 29.5639 3.0134 30.0876C2.78467 29.7227 2.47747 29.4076 2.11182 29.1629C1.74616 28.9182 1.33028 28.7494 0.891286 28.6676C1.01036 29.3195 1.31876 29.927 1.78177 30.4216C2.24478 30.9162 2.84403 31.2784 3.51209 31.4673C3.67125 31.85 3.85163 32.263 4.10628 32.7665C3.8582 32.4769 3.55058 32.2382 3.20215 32.065C2.85373 31.8919 2.47181 31.7879 2.07967 31.7594C2.22648 32.406 2.5686 32.998 3.06418 33.463C3.55977 33.9281 4.18736 34.246 4.87024 34.3779C4.96939 34.4135 5.0788 34.4135 5.17795 34.3779C6.16473 33.9952 6.79075 32.9881 6.36633 31.4271C6.36633 31.4271 4.59437 31.7393 4.97635 34.1563C4.57315 33.3204 4.18056 32.3939 3.85163 31.558C4.87024 31.2055 5.54932 30.1883 5.10367 28.5971C5.10367 28.5971 3.43782 28.8891 3.69247 31.1249C3.37416 30.289 3.07706 29.4028 2.84363 28.5669C3.86224 28.1942 4.52009 27.1972 4.08506 25.606C4.08506 25.606 2.64203 25.8577 2.64203 27.7612C2.48287 27.0965 2.34493 26.3915 2.26005 25.8275C2.55193 25.314 2.68582 24.7329 2.64642 24.1506C2.60702 23.5683 2.39592 23.0082 2.03723 22.5343C1.61677 22.9628 1.37775 23.5235 1.366 24.1089Z" fill="white"/>
<path d="M30.1552 18.9087C30.1552 18.9087 28.797 20.7819 31.0783 23.1385C31.1632 23.8334 31.2268 24.7701 31.2375 25.6463C31.0381 24.9494 30.6268 24.3236 30.055 23.8472C29.4833 23.3708 28.7763 23.0648 28.0225 22.9673C27.9753 23.8416 28.2631 24.7026 28.8326 25.3912C29.4021 26.0798 30.2148 26.5496 31.1207 26.7138C31.0828 27.8269 30.9729 28.9369 30.7918 30.0372C30.6911 29.2518 30.3276 28.5177 29.7546 27.943C29.1816 27.3684 28.4294 26.9834 27.6086 26.8447C27.5619 27.7323 27.8603 28.6053 28.4472 29.2979C29.034 29.9904 29.8684 30.4542 30.7918 30.6012C30.5982 31.7375 30.3432 32.8636 30.0279 33.9751C29.9787 33.1359 29.629 32.3379 29.0365 31.7133C28.4441 31.0887 27.6445 30.675 26.7704 30.5408C26.7242 31.4077 27.0072 32.2615 27.568 32.9471C28.1287 33.6327 28.93 34.1047 29.8263 34.2772C29.9953 34.2983 30.1665 34.2983 30.3356 34.2772C31.2378 34.1719 32.0707 33.7637 32.6836 33.1265C33.2966 32.4893 33.6492 31.6651 33.6779 30.8026C33.1314 30.8443 32.6003 30.995 32.1194 31.2449C31.6386 31.4948 31.2187 31.8383 30.8873 32.2529C31.0677 31.6386 31.2056 31.0947 31.3117 30.5509C32.2205 30.3791 33.0321 29.8987 33.5946 29.1999C34.1571 28.501 34.4319 27.6314 34.3676 26.7541C33.7866 26.8544 33.2373 27.0788 32.7612 27.4103C32.2851 27.7418 31.8947 28.1717 31.6194 28.6676C31.7043 27.9626 31.7786 27.308 31.7786 26.6534C32.6603 26.4626 33.4403 25.9771 33.9761 25.2855C34.5118 24.5939 34.7675 23.7425 34.6965 22.8868C34.0393 23.0004 33.4243 23.2734 32.9112 23.6793C32.398 24.0851 32.0042 24.6101 31.768 25.2031C31.7432 24.4423 31.6545 23.6846 31.5027 22.9371C31.706 22.5913 31.8325 22.2097 31.8744 21.8157C31.9163 21.4217 31.8729 21.0238 31.7466 20.6464C31.6204 20.269 31.414 19.9201 31.1403 19.6212C30.8666 19.3224 30.5314 19.0799 30.1552 18.9087Z" fill="white"/>
<path d="M14.7525 12.0472C13.3713 9.36257 13.9899 6.67936 17.1573 4.83936C17.1573 4.83936 19.5977 8.1729 15.5126 12.3725C15.3747 13.6516 15.2686 15.2529 15.258 16.7635C15.6012 15.5502 16.3066 14.457 17.2893 13.6154C18.2719 12.7738 19.49 12.2198 20.7967 12.0201C20.9452 15.5852 18.526 17.9016 15.2898 18.7073C15.3685 20.6636 15.5669 22.614 15.884 24.5485C16.0796 23.1535 16.7436 21.8554 17.7776 20.8468C18.8115 19.8382 20.1605 19.1727 21.6243 18.949C21.7622 22.5242 19.343 24.8506 16.075 25.6463C16.4442 27.7943 16.933 29.9223 17.5392 32.0213C17.5729 30.4786 18.1752 28.9959 19.2414 27.8312C20.3077 26.6664 21.7704 25.8933 23.375 25.6463C23.513 29.2316 21.0726 31.558 17.8151 32.3335C17.623 32.4058 17.4128 32.4233 17.2103 32.3838C16.2006 32.2101 15.2308 31.8692 14.3455 31.3767C13.3549 30.8343 12.5365 30.0486 11.9764 29.1023C11.4163 28.156 11.1351 27.0839 11.1623 25.9987C12.9986 26.1894 14.6808 27.0619 15.8415 28.4259C15.5551 27.4792 15.311 26.4922 15.1094 25.5254C11.8308 24.6895 9.42217 22.3228 9.63438 18.7375C10.6787 18.9175 11.6656 19.3226 12.5191 19.9214C13.3726 20.5203 14.07 21.297 14.5577 22.1919C14.4091 20.9934 14.3136 19.805 14.2712 18.6368C11.088 17.7102 8.83859 15.3737 9.02958 11.9193C10.2209 12.1092 11.3385 12.5936 12.2698 13.3238C13.2012 14.054 13.9134 15.0042 14.3349 16.0787C14.3704 14.727 14.51 13.3795 14.7525 12.0472Z" fill="white"/>
</svg>
