<svg width="64" height="65" viewBox="0 0 64 65" fill="none" xmlns="http://www.w3.org/2000/svg">
<path d="M31.8019 34.7822C34.785 35.0437 37.7876 35.1702 40.8914 35.0593C43.6309 34.9615 47.2651 34.893 49.9809 34.8376C47.4314 37.2208 44.5493 40.7364 43.2747 43.6499C42.1108 46.3102 44.9928 48.0838 46.3784 46.3102C47.9825 44.257 49.23 42.2598 51.3665 39.9365C53.9111 37.1695 55.4124 35.8352 57.6294 33.5074C59.0708 31.994 59.8661 30.5421 57.186 28.5747C54.49 26.9396 50.5352 24.6396 48.0965 21.7576C46.4478 19.8092 44.9928 16.7141 42.7758 18.4876C41.6065 19.4231 42.5946 22.6689 44.686 25.1028C47.4313 28.2976 50.3664 29.9052 50.3688 29.9049C44.3276 30.0157 39.2287 30.2929 33.4845 30.762C32.3539 30.8543 30.9536 30.6808 30.0685 31.5226C28.4103 33.0997 30.276 34.6485 31.8019 34.7822ZM22.7125 35.9461C23.3109 36.2242 24.0449 36.3973 24.7109 36.2295C26.2697 35.8367 26.9479 33.5442 26.7741 32.1546C26.6317 31.0166 25.7855 30.4238 24.6882 30.2886C23.2485 30.1112 22.3273 31.0518 21.9367 32.1496C21.5344 33.2799 21.2739 35.2774 22.7125 35.9461ZM14.4821 35.9738C15.8166 36.5642 17.0665 35.5466 17.6542 34.609C18.4417 33.3528 18.5482 31.6684 17.3203 30.5999C16.3216 29.7308 14.3414 30.3673 13.9001 31.3183C13.2795 32.6558 12.4468 35.073 14.4821 35.9738ZM5.0462 33.8539C5.0878 35.5166 6.6431 36.4506 7.5965 36.3631C9.1198 36.2233 10.4084 35.0178 10.2837 33.0641C10.1935 31.6512 8.912 30.57 7.2077 30.6116C5.5383 30.6523 5.0056 32.2285 5.0462 33.8539Z" fill="#7DAC5A"/>
</svg>
