<svg width="64" height="53" viewBox="0 0 64 53" fill="none" xmlns="http://www.w3.org/2000/svg">
<path d="M44.3218 28.8819C43.6562 29.2903 43.0284 29.5626 42.4385 29.6988C41.8637 29.8349 41.3343 29.903 40.8502 29.903C39.7611 29.903 38.8535 29.6534 38.1274 29.1542C37.4014 28.655 36.8568 28.0121 36.4938 27.2256C36.1307 26.439 35.9492 25.6146 35.9492 24.7524C35.9492 23.7994 36.1534 22.8994 36.5618 22.0523C36.9854 21.2052 37.598 20.5245 38.3997 20.0102C39.2166 19.4808 40.2073 19.2161 41.3721 19.2161C42.0982 19.2161 42.794 19.3371 43.4595 19.5791C44.1402 19.8211 44.7453 20.2069 45.2747 20.7363C45.8193 21.2657 46.2428 21.9615 46.5454 22.8237C46.863 23.686 47.0218 24.7373 47.0218 25.9776C47.0218 27.2634 46.8252 28.5416 46.4319 29.8122C46.0537 31.0677 45.4638 32.2173 44.6621 33.2611C43.8755 34.2897 42.8545 35.1141 41.599 35.7342C40.3586 36.3544 38.8762 36.6645 37.1518 36.6645C37.1064 36.6645 37.0005 36.657 36.8341 36.6418C36.6677 36.6418 36.5089 36.6343 36.3576 36.6191C36.3425 36.483 36.3349 36.3469 36.3349 36.2107C36.3501 36.0897 36.3803 35.9536 36.4257 35.8023C36.5618 35.8174 36.6602 35.825 36.7207 35.825C36.7963 35.825 36.8417 35.825 36.8568 35.825C38.309 35.825 39.5418 35.5376 40.5552 34.9628C41.5839 34.388 42.4083 33.5863 43.0284 32.5577C43.6486 31.5139 44.0797 30.2887 44.3218 28.8819ZM44.526 26.0911C44.526 24.6238 44.3671 23.4515 44.0495 22.5742C43.7318 21.6968 43.3158 21.0615 42.8015 20.6682C42.3024 20.2749 41.7805 20.0783 41.2359 20.0783C40.6914 20.0783 40.2149 20.2598 39.8065 20.6228C39.3981 20.9859 39.0804 21.4699 38.8535 22.075C38.6417 22.68 38.5359 23.3532 38.5359 24.0944C38.5359 24.8356 38.6569 25.5616 38.8989 26.2726C39.1409 26.9835 39.5115 27.5659 40.0107 28.0197C40.5099 28.4735 41.1452 28.7004 41.9166 28.7004C42.2343 28.7004 42.6049 28.6475 43.0284 28.5416C43.4671 28.4206 43.936 28.1937 44.4352 27.8609C44.4957 27.2861 44.526 26.6961 44.526 26.0911Z" fill="white"/>
<path d="M31.3804 28.8819C30.7148 29.2903 30.087 29.5626 29.4971 29.6988C28.9223 29.8349 28.3929 29.903 27.9088 29.903C26.8197 29.903 25.9121 29.6534 25.186 29.1542C24.46 28.655 23.9154 28.0121 23.5524 27.2256C23.1893 26.439 23.0078 25.6146 23.0078 24.7524C23.0078 23.7994 23.212 22.8994 23.6204 22.0523C24.044 21.2052 24.6566 20.5245 25.4583 20.0102C26.2751 19.4808 27.2659 19.2161 28.4307 19.2161C29.1567 19.2161 29.8526 19.3371 30.5181 19.5791C31.1988 19.8211 31.8039 20.2069 32.3333 20.7363C32.8779 21.2657 33.3014 21.9615 33.604 22.8237C33.9216 23.686 34.0804 24.7373 34.0804 25.9776C34.0804 27.2634 33.8838 28.5416 33.4905 29.8122C33.1123 31.0677 32.5224 32.2173 31.7207 33.2611C30.9341 34.2897 29.9131 35.1141 28.6576 35.7342C27.4172 36.3544 25.9348 36.6645 24.2104 36.6645C24.165 36.6645 24.0591 36.657 23.8927 36.6418C23.7263 36.6418 23.5675 36.6343 23.4162 36.6191C23.4011 36.483 23.3935 36.3469 23.3935 36.2107C23.4087 36.0897 23.4389 35.9536 23.4843 35.8023C23.6204 35.8174 23.7188 35.825 23.7793 35.825C23.8549 35.825 23.9003 35.825 23.9154 35.825C25.3676 35.825 26.6004 35.5376 27.6138 34.9628C28.6424 34.388 29.4668 33.5863 30.087 32.5577C30.7072 31.5139 31.1383 30.2887 31.3804 28.8819ZM31.5846 26.0911C31.5846 24.6238 31.4257 23.4515 31.1081 22.5742C30.7904 21.6968 30.3744 21.0615 29.8601 20.6682C29.361 20.2749 28.8391 20.0783 28.2945 20.0783C27.75 20.0783 27.2735 20.2598 26.8651 20.6228C26.4567 20.9859 26.139 21.4699 25.9121 22.075C25.7003 22.68 25.5944 23.3532 25.5944 24.0944C25.5944 24.8356 25.7155 25.5616 25.9575 26.2726C26.1995 26.9835 26.5701 27.5659 27.0693 28.0197C27.5685 28.4735 28.2038 28.7004 28.9752 28.7004C29.2929 28.7004 29.6635 28.6475 30.087 28.5416C30.5257 28.4206 30.9946 28.1937 31.4938 27.8609C31.5543 27.2861 31.5846 26.6961 31.5846 26.0911Z" fill="white"/>
<path d="M15.606 35.8475V33.6693C15.1674 33.6542 14.6833 33.6012 14.1539 33.5105C13.6245 33.4197 13.1177 33.2836 12.6337 33.102C12.1496 32.9054 11.7563 32.6558 11.4538 32.3533C11.1513 32.0507 11 31.6726 11 31.2188C11 30.8255 11.1059 30.5305 11.3177 30.3339C11.5446 30.1221 11.8093 30.0162 12.1118 30.0162C12.611 30.0162 13.0043 30.2583 13.2917 30.7423C13.5942 31.2264 13.7455 31.7558 13.7455 32.3306C14.048 32.4667 14.3505 32.5802 14.6531 32.6709C14.9556 32.7466 15.2732 32.792 15.606 32.8071V27.4977C14.8648 27.2556 14.1614 26.9834 13.4959 26.6808C12.8454 26.3632 12.316 25.9548 11.9076 25.4556C11.5143 24.9413 11.3177 24.2757 11.3177 23.4589C11.3177 22.6723 11.5067 22.0067 11.8849 21.4622C12.2782 20.9025 12.8001 20.4714 13.4505 20.1689C14.1009 19.8512 14.8195 19.6546 15.606 19.5789V17.5141C15.9539 17.4839 16.2943 17.4839 16.6271 17.5141V19.5335C16.9901 19.5487 17.3985 19.594 17.8523 19.6697C18.3212 19.7453 18.775 19.8739 19.2137 20.0554C19.6524 20.2218 20.0154 20.4563 20.3028 20.7588C20.5902 21.0462 20.7339 21.4092 20.7339 21.8479C20.7339 22.2109 20.628 22.4908 20.4163 22.6874C20.2196 22.8841 19.97 22.9824 19.6675 22.9824C19.2591 22.9824 18.8961 22.7933 18.5784 22.4151C18.2759 22.0219 18.1246 21.4924 18.1246 20.8269C17.8674 20.6756 17.6027 20.5773 17.3305 20.5319C17.0733 20.4865 16.8388 20.4563 16.6271 20.4411V25.3194C17.5952 25.622 18.4196 25.9548 19.1003 26.3178C19.7961 26.6808 20.3255 27.1195 20.6885 27.6338C21.0516 28.133 21.2331 28.7683 21.2331 29.5397C21.2331 30.4171 21.0138 31.1507 20.5751 31.7407C20.1364 32.3155 19.5616 32.7617 18.8507 33.0794C18.1549 33.3819 17.4137 33.571 16.6271 33.6466V35.8475C16.2943 35.8778 15.9539 35.8778 15.606 35.8475ZM16.6271 32.7617C17.2926 32.6709 17.8674 32.4365 18.3515 32.0583C18.8355 31.665 19.0776 31.0978 19.0776 30.3566C19.0776 29.6759 18.8582 29.154 18.4196 28.791C17.9809 28.4279 17.3834 28.1103 16.6271 27.838V32.7617ZM15.606 24.9791V20.4865C14.8497 20.5773 14.2749 20.8193 13.8816 21.2126C13.5034 21.6059 13.3144 22.0824 13.3144 22.642C13.3144 23.2169 13.5186 23.6858 13.927 24.0488C14.3354 24.4118 14.8951 24.7219 15.606 24.9791Z" fill="white"/>
<path d="M49.5355 6.30483C49.7129 4.72191 49.691 5.0061 49.7253 4.65885C49.7453 4.45759 49.7761 4.5159 48.5938 4.89122C48.3056 4.98278 48.1569 4.79793 48.2185 4.60832C48.3184 4.30167 48.5918 4.19067 49.0099 4.02525C49.3936 3.87322 49.571 3.89525 49.4859 3.7903C49.4783 3.7808 49.1258 3.38086 48.6269 2.76496C48.4922 2.59825 48.4775 2.35811 48.6801 2.32572C48.7792 2.30974 48.8692 2.33868 48.9447 2.40389C49.1146 2.54944 49.2837 2.69543 49.4443 2.85177C49.7649 3.16361 49.912 3.43139 49.938 3.26467C50.0719 2.40692 50.0767 2.21688 50.3888 0.728111C50.422 0.570034 50.5071 0.497043 50.6223 0.49186C51.0272 0.473721 50.8373 1.06283 50.5735 2.56974C50.4028 3.54325 50.2905 3.67455 50.4908 3.64C51.8777 3.40159 51.2086 3.54023 51.9956 3.50265C52.0184 3.50179 52.0556 3.52252 52.0628 3.54325C52.0988 3.65123 51.8937 3.6996 50.7745 4.15655C50.4872 4.27403 50.9009 4.29044 51.3917 5.30973C51.4313 5.39136 51.4536 5.48033 51.3837 5.54685C51.3037 5.62329 51.2174 5.5706 51.1459 5.51661C50.478 5.01215 50.2481 4.41224 50.1806 4.73789C49.7445 6.8378 49.8133 6.88877 49.6838 6.89006C49.5758 6.89093 49.5986 6.85249 49.5359 6.30613L49.5355 6.30483Z" fill="white"/>
<path d="M2.45049 16.8934C2.37215 15.9915 2.34977 15.8201 2.35297 15.5173C2.35576 15.2539 2.64555 15.2236 2.75147 15.4037C3.01567 15.852 2.92734 16.7318 3.04125 17.1257C3.28747 16.9996 3.7775 16.5569 4.66803 16.0706C4.68722 16.0602 4.72199 16.0706 4.74278 16.0827C4.86189 16.1617 4.1848 16.8143 3.41257 17.6043C3.9166 17.9165 4.07967 17.9951 4.21158 18.1761C4.29991 18.2975 4.29152 18.4707 4.12724 18.4262C3.92779 18.3726 3.42816 18.2569 3.18474 18.1947C3.05244 18.161 3.07962 18.142 3.13078 18.789C3.23471 20.1002 3.26988 20.1331 3.16116 20.1793C3.09481 20.2073 3.02486 20.1983 2.98689 20.1313C2.93053 20.032 2.87018 19.9292 2.8434 19.8191C2.59119 18.7877 2.62916 18.6002 2.60158 18.4711C2.56161 18.2858 2.5704 18.3709 1.74862 19.039C1.67227 19.1012 1.33972 19.3621 1.21582 19.3889C1.05034 19.4252 0.919638 19.2835 0.974797 19.1116C1.08591 18.7626 1.42966 18.5147 2.08557 17.9226C2.21187 17.8086 2.11075 17.8384 1.44764 17.5153C0.797329 17.1987 1.07152 16.7383 1.33972 16.8238C1.68427 16.934 2.02281 17.064 2.36416 17.1858C2.46688 17.2225 2.45049 17.2328 2.45049 16.8925V16.8934Z" fill="white"/>
<path d="M19.8935 4.25698C19.9614 5.27541 18.6308 6.01266 17.7463 5.14843C17.2439 4.65779 17.2379 3.87777 17.6695 3.36985C18.3826 2.5311 19.9003 2.98719 19.8935 4.25698ZM19.3763 4.20429C19.3587 4.13 19.3443 4.05571 19.3231 3.98229C19.1097 3.2351 18.0708 3.36899 17.9349 3.99827C17.8754 4.27296 17.9381 4.52994 18.1536 4.71221C18.443 4.95709 18.7315 4.97264 19.0197 4.80809C19.2304 4.68759 19.3783 4.49409 19.3767 4.20429H19.3763Z" fill="white"/>
<path d="M62.4059 17.5605C61.2595 17.4814 60.8499 16.1771 61.5457 15.5309C61.7328 15.3569 61.8931 15.3647 62.0418 15.2122C62.2236 15.026 63.2648 15.1932 63.4987 16.0643C63.7293 16.923 63.0058 17.6023 62.4055 17.5609L62.4059 17.5605ZM62.1988 15.7659C62.0901 15.7689 61.991 15.7499 61.8959 15.8505C61.6357 16.1261 61.6253 16.5118 61.9011 16.774C62.3779 17.2275 62.9455 16.8841 62.9559 16.4634C62.9635 16.1568 62.7756 15.8864 62.4954 15.8164C62.3979 15.7922 62.298 15.7814 62.1984 15.7655L62.1988 15.7659Z" fill="white"/>
<path d="M34.7643 9.57746C34.7667 9.94803 34.4717 10.2802 34.116 10.2707C33.7219 10.2603 33.4741 9.96877 33.4657 9.57833C33.4581 9.2125 33.7835 8.86353 34.1072 8.86353C34.4737 8.86353 34.7615 9.19091 34.7643 9.57746Z" fill="white"/>
</svg>
