<svg width="64" height="50" viewBox="0 0 64 50" fill="none" xmlns="http://www.w3.org/2000/svg">
<path d="M52.1251 25.2701C52.1251 26.8928 51.8834 28.3428 51.4 29.6202C50.934 30.8804 50.2348 31.8816 49.3026 32.6239C48.3705 33.3489 47.2139 33.7114 45.8329 33.7114C44.4864 33.7114 43.3557 33.3576 42.4408 32.6498C41.5259 31.9248 40.8354 30.9494 40.3693 29.7238C39.9032 28.4982 39.6702 27.1085 39.6702 25.5549C39.6702 24.4328 39.791 23.3712 40.0327 22.37C40.2916 21.3515 40.68 20.4452 41.1979 19.6511C41.7158 18.8571 42.3717 18.2356 43.1658 17.7868C43.9772 17.3207 44.9352 17.0876 46.04 17.0876C47.1276 17.0876 48.0597 17.3121 48.8366 17.7609C49.6134 18.1924 50.2435 18.7966 50.7268 19.5734C51.2102 20.333 51.564 21.2048 51.7885 22.1887C52.0129 23.1554 52.1251 24.1825 52.1251 25.2701ZM45.807 18.0975C44.9611 18.0975 44.2879 18.4255 43.7873 19.0815C43.2867 19.7374 42.9328 20.6006 42.7256 21.6708C42.5185 22.7239 42.4149 23.8632 42.4149 25.0888C42.4149 26.021 42.4753 26.9359 42.5962 27.8336C42.717 28.7312 42.9155 29.5512 43.1917 30.2935C43.4679 31.0358 43.8304 31.6313 44.2793 32.0801C44.7453 32.5117 45.3236 32.7275 46.0141 32.7275C46.8773 32.7275 47.5505 32.3995 48.0339 31.7435C48.5345 31.0875 48.8883 30.2244 49.0955 29.1541C49.3026 28.0666 49.4062 26.9014 49.4062 25.6585C49.4062 24.7263 49.3458 23.82 49.225 22.9396C49.1041 22.042 48.9056 21.2306 48.6294 20.5056C48.3705 19.7633 48.008 19.1764 47.5419 18.7448C47.0758 18.3133 46.4975 18.0975 45.807 18.0975Z" fill="white"/>
<path d="M27.8647 17.527L36.798 17.3457C36.7463 17.7427 36.6772 18.1743 36.5909 18.6404C36.5046 19.1065 36.4096 19.538 36.3061 19.9351H28.6415L28.0201 24.1817C28.4516 24.1126 28.8745 24.0608 29.2888 24.0263C29.7031 23.9918 30.1002 23.9745 30.48 23.9745C32.0854 23.9745 33.3887 24.2507 34.3899 24.8031C35.3911 25.3555 36.1248 26.0892 36.5909 27.0041C37.057 27.9017 37.29 28.8857 37.29 29.956C37.29 30.9917 37.0915 31.9412 36.6945 32.8043C36.2974 33.6674 35.745 34.4097 35.0373 35.0311C34.3295 35.6699 33.5268 36.1532 32.6291 36.4812C31.7315 36.8264 30.7734 36.9991 29.7549 36.9991C28.8573 36.9991 28.1064 36.8955 27.5022 36.6883C26.9153 36.4985 26.4492 36.2568 26.1039 35.9633C25.7759 35.6871 25.5429 35.3937 25.4048 35.0829C25.2667 34.7895 25.1976 34.5392 25.1976 34.332C25.1976 33.9522 25.3098 33.6588 25.5343 33.4516C25.7759 33.2445 26.0608 33.1409 26.3887 33.1409C26.8894 33.1409 27.3727 33.3739 27.8388 33.84C28.3221 34.3061 28.6501 35.0053 28.8228 35.9374C29.0299 35.972 29.2112 35.9892 29.3665 35.9892C29.5392 36.0065 29.7031 36.0151 29.8585 36.0151C30.9288 36.0151 31.8264 35.7648 32.5515 35.2642C33.2765 34.7808 33.8203 34.1421 34.1828 33.3481C34.5625 32.554 34.7524 31.7081 34.7524 30.8105C34.7524 30.0337 34.5884 29.3 34.2605 28.6095C33.9325 27.9017 33.3887 27.3321 32.6291 26.9005C31.8869 26.4517 30.8856 26.2273 29.6255 26.2273C29.2284 26.2273 28.771 26.2618 28.2531 26.3308C27.7352 26.3826 27.2173 26.4776 26.6995 26.6157L26.5182 26.538L27.8647 17.527Z" fill="white"/>
<path d="M16.9584 36.0672V33.5814C16.4578 33.5641 15.9054 33.5037 15.3012 33.4001C14.697 33.2966 14.1187 33.1412 13.5663 32.9341C13.0139 32.7096 12.5651 32.4248 12.2198 32.0796C11.8746 31.7343 11.702 31.3027 11.702 30.7849C11.702 30.336 11.8228 29.9994 12.0645 29.775C12.3234 29.5333 12.6255 29.4125 12.9708 29.4125C13.5404 29.4125 13.9892 29.6887 14.3172 30.2411C14.6625 30.7935 14.8351 31.3977 14.8351 32.0537C15.1804 32.209 15.5256 32.3385 15.8709 32.4421C16.2161 32.5284 16.5786 32.5802 16.9584 32.5974V26.5383C16.1125 26.2621 15.3098 25.9514 14.5503 25.6061C13.808 25.2436 13.2038 24.7775 12.7377 24.2079C12.2889 23.6209 12.0645 22.8614 12.0645 21.9292C12.0645 21.0316 12.2803 20.272 12.7118 19.6506C13.1606 19.0118 13.7562 18.5199 14.4985 18.1746C15.2408 17.8121 16.0608 17.5877 16.9584 17.5014V15.145C17.3554 15.1105 17.7438 15.1105 18.1236 15.145V17.4496C18.5379 17.4668 19.004 17.5186 19.5219 17.6049C20.057 17.6913 20.5749 17.838 21.0755 18.0451C21.5761 18.235 21.9904 18.5026 22.3184 18.8478C22.6464 19.1758 22.8104 19.5901 22.8104 20.0907C22.8104 20.505 22.6896 20.8244 22.4479 21.0488C22.2235 21.2732 21.9386 21.3854 21.5934 21.3854C21.1273 21.3854 20.713 21.1697 20.3505 20.7381C20.0052 20.2893 19.8326 19.6851 19.8326 18.9255C19.5391 18.7529 19.2371 18.6407 18.9263 18.5889C18.6329 18.5371 18.3653 18.5026 18.1236 18.4853V24.0525C19.2284 24.3977 20.1692 24.7775 20.946 25.1918C21.7401 25.6061 22.3443 26.1067 22.7586 26.6937C23.1729 27.2633 23.3801 27.9883 23.3801 28.8687C23.3801 29.87 23.1298 30.7072 22.6291 31.3804C22.1285 32.0364 21.4725 32.5456 20.6612 32.9082C19.8671 33.2534 19.0213 33.4692 18.1236 33.5555V36.0672C17.7438 36.1017 17.3554 36.1017 16.9584 36.0672ZM18.1236 32.5456C18.8832 32.4421 19.5391 32.1745 20.0915 31.7429C20.6439 31.2941 20.9201 30.6468 20.9201 29.8009C20.9201 29.0241 20.6698 28.4285 20.1692 28.0142C19.6686 27.5999 18.9867 27.2374 18.1236 26.9267V32.5456ZM16.9584 23.6641V18.5371C16.0953 18.6407 15.4393 18.9169 14.9905 19.3657C14.5589 19.8145 14.3431 20.3583 14.3431 20.997C14.3431 21.653 14.5762 22.1881 15.0423 22.6024C15.5083 23.0167 16.1471 23.3706 16.9584 23.6641Z" fill="white"/>
<path d="M49.5364 6.30483C49.7139 4.72191 49.6919 5.0061 49.7263 4.65885C49.7463 4.45759 49.7771 4.5159 48.5948 4.89122C48.3066 4.98278 48.1579 4.79793 48.2194 4.60832C48.3194 4.30167 48.5928 4.19067 49.0108 4.02525C49.3946 3.87322 49.572 3.89525 49.4869 3.7903C49.4793 3.7808 49.1268 3.38086 48.6279 2.76496C48.4932 2.59825 48.4784 2.35811 48.6811 2.32572C48.7802 2.30974 48.8701 2.33868 48.9457 2.40389C49.1156 2.54944 49.2846 2.69543 49.4453 2.85177C49.7659 3.16361 49.913 3.43139 49.9389 3.26467C50.0728 2.40692 50.0776 2.21688 50.3898 0.728111C50.423 0.570034 50.5081 0.497043 50.6232 0.49186C51.0281 0.473721 50.8383 1.06283 50.5745 2.56974C50.4038 3.54325 50.2915 3.67455 50.4917 3.64C51.8787 3.40159 51.2096 3.54023 51.9966 3.50265C52.0194 3.50179 52.0566 3.52252 52.0638 3.54325C52.0997 3.65123 51.8947 3.6996 50.7755 4.15655C50.4881 4.27403 50.9018 4.29044 51.3927 5.30973C51.4322 5.39136 51.4546 5.48033 51.3847 5.54685C51.3047 5.62329 51.2184 5.5706 51.1468 5.51661C50.4789 5.01215 50.2491 4.41224 50.1816 4.73789C49.7455 6.8378 49.8142 6.88877 49.6847 6.89006C49.5768 6.89093 49.5996 6.85249 49.5368 6.30613L49.5364 6.30483Z" fill="white"/>
<path d="M2.45141 16.8934C2.37307 15.9915 2.35068 15.8201 2.35388 15.5173C2.35668 15.2539 2.64646 15.2236 2.75238 15.4037C3.01659 15.852 2.92825 16.7318 3.04217 17.1257C3.28838 16.9996 3.77842 16.5569 4.66895 16.0706C4.68814 16.0602 4.72291 16.0706 4.74369 16.0827C4.86281 16.1617 4.18571 16.8143 3.41349 17.6043C3.91751 17.9165 4.08059 17.9951 4.21249 18.1761C4.30083 18.2975 4.29243 18.4707 4.12815 18.4262C3.9287 18.3726 3.42908 18.2569 3.18566 18.1947C3.05336 18.161 3.08054 18.142 3.1317 18.789C3.23562 20.1002 3.2708 20.1331 3.16208 20.1793C3.09573 20.2073 3.02578 20.1983 2.98781 20.1313C2.93145 20.032 2.87109 19.9292 2.84431 19.8191C2.5921 18.7877 2.63007 18.6002 2.6025 18.4711C2.56253 18.2858 2.57132 18.3709 1.74953 19.039C1.67319 19.1012 1.34064 19.3621 1.21673 19.3889C1.05126 19.4252 0.920554 19.2835 0.975713 19.1116C1.08683 18.7626 1.43057 18.5147 2.08648 17.9226C2.21279 17.8086 2.11166 17.8384 1.44856 17.5153C0.798245 17.1987 1.07244 16.7383 1.34064 16.8238C1.68518 16.934 2.02373 17.064 2.36507 17.1858C2.4678 17.2225 2.45141 17.2328 2.45141 16.8925V16.8934Z" fill="white"/>
<path d="M19.8943 4.25698C19.9623 5.27541 18.6317 6.01266 17.7471 5.14843C17.2447 4.65779 17.2387 3.87777 17.6704 3.36985C18.3835 2.5311 19.9011 2.98719 19.8943 4.25698ZM19.3771 4.20429C19.3595 4.13 19.3451 4.05571 19.324 3.98229C19.1105 3.2351 18.0717 3.36899 17.9358 3.99827C17.8762 4.27296 17.939 4.52994 18.1544 4.71221C18.4438 4.95709 18.7324 4.97264 19.0206 4.80809C19.2312 4.68759 19.3791 4.49409 19.3775 4.20429H19.3771Z" fill="white"/>
<path d="M62.4069 17.5605C61.2605 17.4814 60.8508 16.1771 61.5467 15.5309C61.7338 15.3569 61.894 15.3647 62.0427 15.2122C62.2246 15.026 63.2658 15.1932 63.4996 16.0643C63.7303 16.923 63.0068 17.6023 62.4065 17.5609L62.4069 17.5605ZM62.1998 15.7659C62.0911 15.7689 61.992 15.7499 61.8968 15.8505C61.6366 16.1261 61.6262 16.5118 61.902 16.774C62.3789 17.2275 62.9465 16.8841 62.9569 16.4634C62.9644 16.1568 62.7766 15.8864 62.4964 15.8164C62.3989 15.7922 62.2989 15.7814 62.1994 15.7655L62.1998 15.7659Z" fill="white"/>
<path d="M34.7653 9.57746C34.7677 9.94803 34.4727 10.2802 34.117 10.2707C33.7229 10.2603 33.4751 9.96877 33.4667 9.57833C33.4591 9.2125 33.7844 8.86353 34.1082 8.86353C34.4747 8.86353 34.7625 9.19091 34.7653 9.57746Z" fill="white"/>
</svg>
