<svg width="64" height="50" viewBox="0 0 64 50" fill="none" xmlns="http://www.w3.org/2000/svg">
<path d="M49.4248 5.96945C49.6036 4.47785 49.5814 4.74564 49.616 4.41843C49.6362 4.22877 49.6672 4.28372 48.476 4.63739C48.1856 4.72367 48.0358 4.54948 48.0978 4.37081C48.1985 4.08185 48.474 3.97726 48.8952 3.82138C49.2818 3.67812 49.4606 3.69888 49.3748 3.59998C49.3672 3.59103 49.012 3.21416 48.5094 2.6338C48.3737 2.4767 48.3588 2.25042 48.563 2.2199C48.6628 2.20484 48.7534 2.2321 48.8295 2.29356C49.0007 2.43071 49.171 2.56827 49.3329 2.7156C49.6559 3.00945 49.8041 3.26178 49.8303 3.10468C49.9652 2.29641 49.97 2.11733 50.2845 0.714457C50.318 0.565501 50.4037 0.496721 50.5197 0.491837C50.9276 0.474744 50.7364 1.02987 50.4706 2.44984C50.2986 3.36719 50.1855 3.49091 50.3872 3.45835C51.7846 3.23369 51.1105 3.36434 51.9034 3.32893C51.9264 3.32811 51.9638 3.34765 51.9711 3.36719C52.0073 3.46893 51.8007 3.51451 50.6731 3.9451C50.3836 4.0558 50.8004 4.07127 51.2949 5.03175C51.3348 5.10867 51.3573 5.19251 51.2869 5.25519C51.2063 5.32723 51.1193 5.27757 51.0473 5.2267C50.3743 4.75134 50.1428 4.18604 50.0747 4.49291C49.6354 6.47167 49.7046 6.51969 49.5742 6.52091C49.4654 6.52173 49.4884 6.4855 49.4252 5.97067L49.4248 5.96945Z" fill="white"/>
<path d="M1.98543 15.9471C1.9065 15.0973 1.88395 14.9357 1.88717 14.6504C1.88999 14.4022 2.18195 14.3737 2.28867 14.5434C2.55485 14.9658 2.46586 15.7949 2.58063 16.166C2.82869 16.0472 3.32241 15.63 4.21964 15.1718C4.23897 15.162 4.27401 15.1718 4.29495 15.1832C4.41495 15.2576 3.73277 15.8726 2.95474 16.617C3.46255 16.9112 3.62686 16.9853 3.75975 17.1558C3.84875 17.2702 3.84029 17.4334 3.67478 17.3915C3.47383 17.341 2.97045 17.2319 2.7252 17.1733C2.5919 17.1416 2.61929 17.1237 2.67083 17.7333C2.77554 18.9689 2.81098 18.9999 2.70144 19.0434C2.63459 19.0699 2.56412 19.0613 2.52586 18.9982C2.46908 18.9046 2.40827 18.8078 2.38129 18.704C2.12718 17.7321 2.16544 17.5555 2.13765 17.4338C2.09738 17.2592 2.10624 17.3394 1.27828 17.969C1.20136 18.0276 0.866306 18.2734 0.741467 18.2986C0.574747 18.3328 0.443063 18.1993 0.498636 18.0374C0.610588 17.7085 0.956916 17.4749 1.61776 16.9169C1.74501 16.8095 1.64313 16.8376 0.975037 16.5331C0.319834 16.2348 0.596091 15.801 0.866307 15.8816C1.21344 15.9853 1.55453 16.1078 1.89844 16.2226C2.00194 16.2572 1.98543 16.267 1.98543 15.9463V15.9471Z" fill="white"/>
<path d="M19.561 4.03989C19.6294 4.99956 18.2888 5.69429 17.3976 4.87991C16.8914 4.41758 16.8854 3.68256 17.3203 3.20395C18.0388 2.41358 19.5678 2.84336 19.561 4.03989ZM19.0399 3.99024C19.0222 3.92024 19.0077 3.85024 18.9863 3.78105C18.7713 3.07697 17.7246 3.20313 17.5877 3.79611C17.5277 4.05495 17.5909 4.29711 17.808 4.46886C18.0996 4.69962 18.3903 4.71427 18.6807 4.55921C18.8929 4.44566 19.0419 4.26333 19.0403 3.99024H19.0399Z" fill="white"/>
<path d="M62.3906 16.5753C61.2357 16.5009 60.8229 15.2718 61.524 14.6629C61.7125 14.4989 61.874 14.5062 62.0238 14.3626C62.207 14.1872 63.256 14.3447 63.4916 15.1655C63.724 15.9746 62.9951 16.6148 62.3902 16.5757L62.3906 16.5753ZM62.182 14.8843C62.0725 14.8872 61.9726 14.8693 61.8768 14.9641C61.6146 15.2237 61.6041 15.5872 61.882 15.8342C62.3624 16.2616 62.9343 15.938 62.9448 15.5416C62.9524 15.2526 62.7631 14.9979 62.4808 14.9319C62.3826 14.9091 62.2819 14.899 62.1816 14.8839L62.182 14.8843Z" fill="white"/>
<path d="M34.5424 9.05361C34.5448 9.4028 34.2476 9.71577 33.8892 9.70682C33.4922 9.69705 33.2425 9.42234 33.234 9.05442C33.2264 8.7097 33.5542 8.38086 33.8803 8.38086C34.2496 8.38086 34.5396 8.68935 34.5424 9.05361Z" fill="white"/>
<path d="M40.5358 38.0254C39.9483 37.5878 39.5705 37.4522 38.9244 37.2075C38.1515 36.9149 37.3409 37.0287 36.6416 37.1584C35.6272 37.3466 31.7468 37.9779 32.4464 38.6997C32.9188 39.1862 33.8436 39.7624 34.7571 39.8763C35.7638 40.0028 36.8334 39.636 37.729 39.4086C38.3781 39.2429 38.7251 39.1972 39.9244 38.8911C40.2289 38.813 40.7303 38.7467 40.7898 38.4575C40.8331 38.2472 40.6094 38.0802 40.5358 38.0254ZM40.0001 38.5971C39.6795 38.6704 39.4353 38.7488 38.4201 38.9719C36.8661 39.3127 35.8605 39.7439 34.7895 39.6099C33.9393 39.5036 33.0771 38.9663 32.6339 38.5305C32.6942 38.3726 33.5766 38.0617 34.6014 37.8377C35.3554 37.6732 36.1134 37.5292 36.6894 37.4224C37.4211 37.2868 38.1369 37.1963 38.8311 37.4589C39.4709 37.7011 39.8187 37.8246 40.378 38.2416C40.5225 38.3493 40.5297 38.4022 40.5297 38.4022C40.5012 38.4816 40.1372 38.5652 40.0001 38.5971Z" fill="white"/>
<path d="M44.0741 18.9192C44.5671 16.06 44.4301 15.0021 44.2354 13.125C44.0028 10.8792 42.4492 10.7766 41.011 10.8567C38.9246 10.9734 31.219 10.9445 30.0078 15.423C29.1925 18.4428 28.7675 22.3401 29.7645 23.752C30.8603 25.3133 33.5843 24.2893 35.6171 23.8584C37.093 23.5416 37.7484 23.602 40.4754 23.0167C41.1691 22.8659 42.1172 22.9512 43.1053 21.4552C43.8237 20.3677 44.0125 19.2771 44.0741 18.9192ZM41.5025 21.5091C40.7999 21.6199 40.1947 21.8252 37.9983 22.128C34.6388 22.5872 31.809 24.0125 30.6415 22.3544C29.7145 21.0384 30.1111 17.4045 30.8118 14.6822C31.3923 13.8899 33.6654 13.0003 35.8785 12.7015C37.5063 12.4827 39.0756 12.3779 40.2604 12.3118C41.7649 12.2286 43.1055 12.3729 43.3153 14.3886C43.5081 16.2472 43.6382 17.214 43.1679 19.9377C43.0466 20.6411 42.8926 20.9306 42.8926 20.9306C42.6032 21.3312 41.8048 21.4585 41.5025 21.5091Z" fill="white"/>
<path d="M44.7561 33.8666C44.5236 33.6891 44.1487 33.4834 43.6742 33.223C42.7764 32.7297 41.3778 31.9357 40.0637 31.3522C39.5647 31.1307 38.6361 31.0467 37.8553 31.1522C36.6852 31.3103 27.9856 32.9058 23.7949 33.8779C18.9405 35.004 17.0613 35.6294 16.3396 35.9562C16.1433 36.045 16.0312 36.1554 16.007 36.2843C15.9751 36.4526 16.0963 36.5544 16.1754 36.6384C16.8227 37.3248 17.5825 37.7855 18.4915 38.2936C19.7867 39.0177 20.9207 39.7121 22.3259 39.7121C23.1838 39.7121 24.5202 39.3265 26.4438 38.8043C30.7913 37.6244 31.9545 37.3484 39.2308 35.852C42.0144 35.2795 44.213 34.8273 44.6198 34.6788C45.1185 34.4965 45.1944 34.2022 44.7558 33.8671L44.7561 33.8666ZM16.3683 36.4532C16.2807 36.3603 16.1736 36.3254 16.4486 36.201C17.0302 35.9379 18.7662 35.3198 23.8544 34.1394C28.0393 33.1687 36.7232 31.5759 37.8906 31.4183C38.5065 31.335 39.4423 31.3694 39.9569 31.5979C40.1801 31.697 40.4721 31.8329 40.8337 32.0109C32.9676 33.2914 25.0168 35.0255 17.1922 37.1712C16.7366 36.8433 16.528 36.6223 16.3683 36.4532ZM17.4818 37.3715C25.3473 35.2231 33.3385 33.4877 41.2404 32.215C42.0699 32.6368 42.6932 32.9867 43.2047 33.2699C35.2177 34.4557 27.2491 36.2306 19.5125 38.5535C18.8757 38.2066 18.0603 37.7563 17.4818 37.3715ZM44.5297 34.4259C43.7515 34.71 35.408 36.3009 31.3293 37.2657C27.3315 38.2114 24.3648 39.1697 22.9017 39.3998C22.1755 39.5137 21.3816 39.3816 20.9164 39.1998C20.4443 39.0151 20.2208 38.9254 19.8513 38.7342C27.6054 36.4201 35.5889 34.652 43.5889 33.4818C44.0331 33.7256 44.386 33.9206 44.5956 34.0809C44.8352 34.264 44.8469 34.3102 44.5294 34.4259H44.5297Z" fill="white"/>
<path d="M51.5656 36.053C49.2658 34.3487 43.9964 31.4394 41.3211 30.2512C40.8301 30.0332 40.0498 29.8981 39.2323 29.8689C40.1821 29.4438 40.6402 28.7043 40.7265 27.9074C40.9013 26.2915 41.0182 24.2054 41.0809 21.9859C40.5041 22.1432 39.897 22.2385 39.3029 22.2802C39.2679 23.7368 39.1999 25.0848 39.0941 26.1784C39.0341 26.7979 38.6337 27.3475 38.0484 27.6134C33.864 29.5136 22.3206 32.4001 15.2505 32.7782C14.3209 32.8265 13.4895 32.2044 13.3203 31.3274C12.3402 26.2434 12.3909 19.6066 13.2069 15.6716C13.3081 15.1839 13.6266 14.7543 14.0812 14.4931C18.0865 12.1916 32.3164 9.10857 37.0775 9.11394C38.0027 9.11501 38.7856 9.77851 38.9092 10.6584C39.5846 10.6834 40.2778 10.8066 40.9407 11.0102C40.9064 10.4995 40.8676 10.0301 40.8243 9.6123C40.701 8.41527 39.7169 7.49346 38.5348 7.46849C33.2534 7.35813 17.2241 10.6901 12.6455 13.3527C12.0639 13.6907 11.6502 14.2592 11.5107 14.9122C10.5053 19.6158 10.3385 27.4549 11.3313 33.4431C11.5232 34.6003 12.5392 35.4752 13.7425 35.4322C13.8953 35.4266 14.0499 35.4196 14.2061 35.4118C13.8682 35.535 13.5751 35.6521 13.3336 35.7614C13.0703 35.8803 12.7977 36.0715 12.8429 36.3586C12.6532 36.9872 12.7751 38.1474 12.9738 38.3555C14.1509 39.5866 15.3704 40.6553 17.5148 41.8545C19.8119 43.1385 21.9148 44.0418 23.2749 44.5735C24.0478 44.8755 25.5248 45.0326 26.8477 44.8251C28.7827 44.5208 32.0812 43.7335 36.6471 42.6466C40.3351 41.7688 47.6039 40.1008 51.1676 38.8002C51.6334 38.6302 51.7957 37.7307 51.8345 37.4589C51.9036 36.9721 51.9376 36.3296 51.5648 36.0535L51.5656 36.053ZM51.5462 36.4687C51.5345 36.5498 51.4054 36.6789 51.0778 36.7987C45.9991 38.6527 32.983 41.5207 26.8073 42.4911C25.6558 42.6721 24.1785 42.5704 23.3708 42.2546C20.5354 41.1462 15.2745 38.6125 13.1643 36.4193C13.1157 36.3688 13.095 36.3229 13.1027 36.2826C13.2969 35.2574 35.413 30.1304 38.9047 30.1304C39.8 30.1304 40.6867 30.2631 41.2141 30.4972C43.8481 31.6671 49.1258 34.5786 51.4083 36.2697C51.4644 36.311 51.5571 36.3924 51.5462 36.4687Z" fill="white"/>
</svg>
