<svg width="69" height="53" viewBox="0 0 69 53" fill="none" xmlns="http://www.w3.org/2000/svg">
<path d="M53.1675 6.26953C53.3581 4.69622 53.3345 4.97868 53.3714 4.63354C53.3929 4.4335 53.4259 4.49145 52.1561 4.8645C51.8466 4.9555 51.6869 4.77177 51.753 4.58332C51.8604 4.27853 52.154 4.16821 52.603 4.00379C53.0151 3.85268 53.2057 3.87458 53.1143 3.77026C53.1061 3.76082 52.7275 3.36331 52.1918 2.75115C52.0471 2.58545 52.0312 2.34677 52.2489 2.31458C52.3553 2.29869 52.4519 2.32746 52.533 2.39228C52.7155 2.53694 52.8971 2.68204 53.0696 2.83744C53.4139 3.14738 53.5719 3.41353 53.5998 3.24783C53.7436 2.39528 53.7488 2.2064 54.084 0.726673C54.1197 0.569557 54.2111 0.497009 54.3347 0.491858C54.7696 0.473828 54.5657 1.05936 54.2824 2.55712C54.0991 3.52471 53.9784 3.65522 54.1935 3.62087C55.6831 3.38391 54.9645 3.52171 55.8097 3.48436C55.8342 3.4835 55.8741 3.50411 55.8819 3.52471C55.9205 3.63203 55.7003 3.68011 54.4983 4.13429C54.1896 4.25106 54.6339 4.26737 55.1611 5.28047C55.2036 5.3616 55.2276 5.45003 55.1525 5.51614C55.0666 5.59212 54.9739 5.53975 54.8971 5.48609C54.1798 4.98469 53.9329 4.38843 53.8604 4.7121C53.392 6.79926 53.4659 6.84991 53.3268 6.8512C53.2109 6.85206 53.2353 6.81385 53.1679 6.27081L53.1675 6.26953Z" fill="white"/>
<path d="M2.59867 16.7938C2.51453 15.8974 2.49049 15.727 2.49393 15.4261C2.49693 15.1642 2.80816 15.1342 2.92192 15.3132C3.20567 15.7588 3.1108 16.6332 3.23314 17.0247C3.49758 16.8994 4.02388 16.4594 4.98031 15.976C5.00092 15.9657 5.03826 15.976 5.06059 15.988C5.18851 16.0666 4.46131 16.7152 3.63194 17.5004C4.17327 17.8107 4.34841 17.8889 4.49007 18.0687C4.58494 18.1894 4.57593 18.3615 4.3995 18.3173C4.18529 18.2641 3.64869 18.149 3.38726 18.0872C3.24516 18.0537 3.27435 18.0348 3.3293 18.6779C3.44092 19.9812 3.47869 20.0138 3.36193 20.0597C3.29067 20.0876 3.21554 20.0786 3.17476 20.0121C3.11423 19.9133 3.04941 19.8112 3.02065 19.7017C2.74978 18.6766 2.79056 18.4903 2.76094 18.3619C2.71801 18.1778 2.72745 18.2623 1.84485 18.9264C1.76286 18.9882 1.4057 19.2475 1.27263 19.2741C1.0949 19.3102 0.95453 19.1694 1.01377 18.9985C1.13311 18.6517 1.50229 18.4053 2.20674 17.8167C2.34239 17.7034 2.23378 17.733 1.52161 17.4119C0.82317 17.0973 1.11766 16.6397 1.4057 16.7247C1.77574 16.8341 2.13934 16.9633 2.50595 17.0844C2.61627 17.1209 2.59867 17.1312 2.59867 16.7929V16.7938Z" fill="white"/>
<path d="M21.3336 4.23436C21.4066 5.2466 19.9775 5.97938 19.0275 5.12039C18.4879 4.63273 18.4815 3.85745 18.9451 3.35262C19.7109 2.51896 21.3409 2.97228 21.3336 4.23436ZM20.7781 4.18199C20.7592 4.10815 20.7438 4.03431 20.721 3.96134C20.4918 3.21868 19.3761 3.35176 19.2302 3.97722C19.1662 4.25024 19.2336 4.50566 19.465 4.68682C19.7758 4.93022 20.0857 4.94568 20.3952 4.78212C20.6214 4.66235 20.7803 4.47003 20.7786 4.18199H20.7781Z" fill="white"/>
<path d="M66.9911 17.4564C65.7599 17.3779 65.3199 16.0814 66.0673 15.4392C66.2682 15.2662 66.4403 15.274 66.6 15.1224C66.7954 14.9374 67.9136 15.1035 68.1648 15.9694C68.4125 16.8228 67.6355 17.4981 66.9907 17.4568L66.9911 17.4564ZM66.7687 15.6728C66.652 15.6758 66.5455 15.6569 66.4434 15.7569C66.1639 16.0308 66.1527 16.4141 66.4489 16.6747C66.9611 17.1254 67.5706 16.7842 67.5818 16.366C67.59 16.0613 67.3882 15.7925 67.0873 15.723C66.9825 15.6989 66.8752 15.6882 66.7683 15.6723L66.7687 15.6728Z" fill="white"/>
<path d="M37.3047 9.52259C37.3073 9.89091 36.9905 10.221 36.6084 10.2116C36.1852 10.2013 35.9191 9.91151 35.9101 9.52345C35.9019 9.15985 36.2513 8.81299 36.599 8.81299C36.9927 8.81299 37.3017 9.13838 37.3047 9.52259Z" fill="white"/>
<path d="M55.1154 34.5781C55.1154 35.6145 54.961 36.5407 54.6523 37.3566C54.3546 38.1615 53.908 38.8011 53.3126 39.2752C52.7172 39.7383 51.9785 39.9698 51.0964 39.9698C50.2364 39.9698 49.5142 39.7438 48.9298 39.2917C48.3454 38.8286 47.9044 38.2056 47.6067 37.4228C47.309 36.64 47.1602 35.7524 47.1602 34.76C47.1602 34.0434 47.2373 33.3653 47.3917 32.7257C47.5571 32.0752 47.8052 31.4964 48.136 30.9892C48.4667 30.482 48.8857 30.085 49.3929 29.7984C49.9111 29.5007 50.5231 29.3518 51.2287 29.3518C51.9234 29.3518 52.5188 29.4951 53.0149 29.7818C53.5111 30.0575 53.9136 30.4434 54.2223 30.9395C54.531 31.4247 54.757 31.9815 54.9004 32.61C55.0437 33.2274 55.1154 33.8835 55.1154 34.5781ZM51.0799 29.9968C50.5396 29.9968 50.1096 30.2063 49.7898 30.6253C49.4701 31.0443 49.2441 31.5956 49.1118 32.2792C48.9794 32.9518 48.9133 33.6795 48.9133 34.4623C48.9133 35.0577 48.9519 35.6421 49.0291 36.2155C49.1062 36.7888 49.233 37.3125 49.4094 37.7867C49.5859 38.2608 49.8174 38.6412 50.1041 38.9278C50.4018 39.2035 50.7712 39.3413 51.2122 39.3413C51.7635 39.3413 52.1935 39.1318 52.5022 38.7128C52.822 38.2939 53.048 37.7426 53.1803 37.0589C53.3126 36.3643 53.3788 35.6201 53.3788 34.8262C53.3788 34.2308 53.3402 33.6519 53.263 33.0896C53.1858 32.5163 53.059 31.998 52.8826 31.5349C52.7172 31.0608 52.4857 30.6859 52.188 30.4103C51.8903 30.1346 51.5209 29.9968 51.0799 29.9968Z" fill="white"/>
<path d="M45.797 34.5781C45.797 35.6145 45.6427 36.5407 45.3339 37.3566C45.0362 38.1615 44.5897 38.8011 43.9943 39.2752C43.3989 39.7383 42.6601 39.9698 41.7781 39.9698C40.918 39.9698 40.1958 39.7438 39.6115 39.2917C39.0271 38.8286 38.586 38.2056 38.2883 37.4228C37.9906 36.64 37.8418 35.7524 37.8418 34.76C37.8418 34.0434 37.919 33.3653 38.0733 32.7257C38.2387 32.0752 38.4868 31.4964 38.8176 30.9892C39.1484 30.482 39.5674 30.085 40.0746 29.7984C40.5928 29.5007 41.2047 29.3518 41.9104 29.3518C42.605 29.3518 43.2004 29.4951 43.6966 29.7818C44.1927 30.0575 44.5952 30.4434 44.9039 30.9395C45.2126 31.4247 45.4387 31.9815 45.582 32.61C45.7254 33.2274 45.797 33.8835 45.797 34.5781ZM41.7615 29.9968C41.2213 29.9968 40.7912 30.2063 40.4715 30.6253C40.1517 31.0443 39.9257 31.5956 39.7934 32.2792C39.6611 32.9518 39.5949 33.6795 39.5949 34.4623C39.5949 35.0577 39.6335 35.6421 39.7107 36.2155C39.7879 36.7888 39.9147 37.3125 40.0911 37.7867C40.2675 38.2608 40.4991 38.6412 40.7857 38.9278C41.0834 39.2035 41.4528 39.3413 41.8938 39.3413C42.4451 39.3413 42.8751 39.1318 43.1839 38.7128C43.5036 38.2939 43.7297 37.7426 43.862 37.0589C43.9943 36.3643 44.0604 35.6201 44.0604 34.8262C44.0604 34.2308 44.0218 33.6519 43.9447 33.0896C43.8675 32.5163 43.7407 31.998 43.5643 31.5349C43.3989 31.0608 43.1673 30.6859 42.8696 30.4103C42.5719 30.1346 42.2026 29.9968 41.7615 29.9968Z" fill="white"/>
<path d="M36.4766 34.5781C36.4766 35.6145 36.3222 36.5407 36.0135 37.3566C35.7158 38.1615 35.2692 38.8011 34.6738 39.2752C34.0784 39.7383 33.3397 39.9698 32.4576 39.9698C31.5976 39.9698 30.8754 39.7438 30.291 39.2917C29.7067 38.8286 29.2656 38.2056 28.9679 37.4228C28.6702 36.64 28.5214 35.7524 28.5214 34.76C28.5214 34.0434 28.5985 33.3653 28.7529 32.7257C28.9183 32.0752 29.1664 31.4964 29.4972 30.9892C29.8279 30.482 30.2469 30.085 30.7541 29.7984C31.2723 29.5007 31.8843 29.3518 32.5899 29.3518C33.2846 29.3518 33.88 29.4951 34.3761 29.7818C34.8723 30.0575 35.2748 30.4434 35.5835 30.9395C35.8922 31.4247 36.1182 31.9815 36.2616 32.61C36.4049 33.2274 36.4766 33.8835 36.4766 34.5781ZM32.4411 29.9968C31.9008 29.9968 31.4708 30.2063 31.1511 30.6253C30.8313 31.0443 30.6053 31.5956 30.473 32.2792C30.3406 32.9518 30.2745 33.6795 30.2745 34.4623C30.2745 35.0577 30.3131 35.6421 30.3903 36.2155C30.4674 36.7888 30.5942 37.3125 30.7707 37.7867C30.9471 38.2608 31.1786 38.6412 31.4653 38.9278C31.763 39.2035 32.1324 39.3413 32.5734 39.3413C33.1247 39.3413 33.5547 39.1318 33.8634 38.7128C34.1832 38.2939 34.4092 37.7426 34.5415 37.0589C34.6738 36.3643 34.74 35.6201 34.74 34.8262C34.74 34.2308 34.7014 33.6519 34.6242 33.0896C34.547 32.5163 34.4202 31.998 34.2438 31.5349C34.0784 31.0608 33.8469 30.6859 33.5492 30.4103C33.2515 30.1346 32.8821 29.9968 32.4411 29.9968Z" fill="white"/>
<path d="M22.4842 39.788C22.4511 39.6006 22.4511 39.4241 22.4842 39.2587C23.0134 39.2036 23.3883 39.1485 23.6088 39.0934C23.8294 39.0272 23.9617 38.9059 24.0058 38.7295C24.0499 38.5531 24.0719 38.2664 24.0719 37.8695V31.7005C24.0719 31.4248 24.0444 31.2374 23.9892 31.1381C23.9451 31.0389 23.8128 30.9893 23.5923 30.9893C23.471 30.9893 23.2781 31.0058 23.0134 31.0389C22.7488 31.072 22.4346 31.1271 22.0707 31.2043C22.0046 31.0389 21.966 30.8625 21.955 30.675C22.4952 30.5317 22.9804 30.3939 23.4104 30.2616C23.8404 30.1293 24.2539 29.9859 24.6508 29.8316C25.0588 29.6772 25.4888 29.5063 25.9408 29.3188C25.996 29.374 26.0456 29.4291 26.0897 29.4842C26.1338 29.5394 26.1724 29.611 26.2055 29.6992C25.9078 30.0521 25.7589 30.6971 25.7589 31.6343V37.7041C25.7589 38.0569 25.7699 38.3326 25.792 38.531C25.814 38.7185 25.8747 38.8618 25.9739 38.961C26.0731 39.0493 26.233 39.1154 26.4535 39.1595C26.6851 39.1926 26.9993 39.2257 27.3963 39.2587C27.4293 39.4352 27.4293 39.6116 27.3963 39.788C27.1096 39.788 26.8009 39.7825 26.4701 39.7715C26.1393 39.7494 25.6487 39.7384 24.9981 39.7384C24.3586 39.7384 23.8624 39.7494 23.5096 39.7715C23.1678 39.7825 22.826 39.788 22.4842 39.788Z" fill="white"/>
<path d="M16.9062 41.475V39.8872C16.5865 39.8762 16.2336 39.8376 15.8477 39.7715C15.4618 39.7053 15.0925 39.6061 14.7396 39.4738C14.3868 39.3304 14.1001 39.1485 13.8796 38.928C13.6591 38.7075 13.5488 38.4318 13.5488 38.101C13.5488 37.8144 13.626 37.5993 13.7804 37.456C13.9458 37.3016 14.1387 37.2245 14.3592 37.2245C14.7231 37.2245 15.0098 37.4009 15.2193 37.7537C15.4398 38.1065 15.55 38.4924 15.55 38.9114C15.7706 39.0107 15.9911 39.0934 16.2116 39.1595C16.4321 39.2146 16.6637 39.2477 16.9062 39.2588V35.3886C16.366 35.2122 15.8533 35.0138 15.3681 34.7932C14.894 34.5617 14.5081 34.264 14.2104 33.9001C13.9237 33.5253 13.7804 33.0401 13.7804 32.4447C13.7804 31.8714 13.9182 31.3862 14.1938 30.9893C14.4805 30.5813 14.8609 30.2671 15.335 30.0466C15.8091 29.815 16.3329 29.6717 16.9062 29.6166V28.1115C17.1598 28.0895 17.4079 28.0895 17.6505 28.1115V29.5835C17.9151 29.5945 18.2128 29.6276 18.5436 29.6827C18.8854 29.7378 19.2162 29.8316 19.5359 29.9639C19.8557 30.0852 20.1203 30.2561 20.3298 30.4766C20.5393 30.6861 20.644 30.9507 20.644 31.2704C20.644 31.5351 20.5668 31.739 20.4125 31.8824C20.2691 32.0257 20.0872 32.0974 19.8667 32.0974C19.569 32.0974 19.3044 31.9596 19.0728 31.6839C18.8523 31.3972 18.7421 31.0113 18.7421 30.5262C18.5546 30.4159 18.3617 30.3443 18.1632 30.3112C17.9757 30.2781 17.8048 30.2561 17.6505 30.245V33.8009C18.3561 34.0214 18.9571 34.264 19.4532 34.5286C19.9604 34.7932 20.3463 35.113 20.611 35.4879C20.8756 35.8517 21.0079 36.3148 21.0079 36.8771C21.0079 37.5167 20.848 38.0514 20.5283 38.4814C20.2085 38.9004 19.7895 39.2257 19.2713 39.4572C18.7641 39.6777 18.2238 39.8156 17.6505 39.8707V41.475C17.4079 41.497 17.1598 41.497 16.9062 41.475ZM17.6505 39.2257C18.1356 39.1595 18.5546 38.9886 18.9074 38.713C19.2603 38.4263 19.4367 38.0128 19.4367 37.4725C19.4367 36.9764 19.2768 36.596 18.9571 36.3314C18.6373 36.0667 18.2018 35.8352 17.6505 35.6367V39.2257ZM16.9062 33.5528V30.2781C16.3549 30.3443 15.9359 30.5207 15.6493 30.8074C15.3736 31.094 15.2358 31.4413 15.2358 31.8493C15.2358 32.2683 15.3846 32.6101 15.6824 32.8747C15.9801 33.1393 16.388 33.3654 16.9062 33.5528Z" fill="white"/>
<path d="M24.997 23.0146C25.0773 24.1963 23.5052 25.0517 22.46 24.0489C21.8664 23.4796 21.8593 22.5746 22.3694 21.9852C23.2119 21.012 25.0051 21.5412 24.997 23.0146ZM24.3859 22.9534C24.3652 22.8672 24.3482 22.781 24.3231 22.6958C24.0709 21.8288 22.8435 21.9842 22.6829 22.7144C22.6126 23.0331 22.6867 23.3313 22.9413 23.5428C23.2832 23.8269 23.6242 23.845 23.9647 23.654C24.2136 23.5142 24.3883 23.2897 24.3864 22.9534H24.3859Z" fill="white"/>
<path d="M66.0276 19.4896C65.0469 19.4243 64.6964 18.3457 65.2917 17.8114C65.4518 17.6675 65.5889 17.6739 65.7161 17.5478C65.8716 17.3939 66.7624 17.5321 66.9624 18.2525C67.1597 18.9625 66.5408 19.5243 66.0272 19.49L66.0276 19.4896ZM65.8504 18.0057C65.7574 18.0082 65.6726 17.9925 65.5913 18.0757C65.3687 18.3035 65.3598 18.6225 65.5957 18.8392C66.0036 19.2142 66.4892 18.9303 66.4981 18.5825C66.5046 18.3289 66.3439 18.1053 66.1042 18.0475C66.0207 18.0275 65.9352 18.0185 65.8501 18.0053L65.8504 18.0057Z" fill="white"/>
<path d="M48 26.9987C48.0037 27.2621 47.5494 27.4981 47.0016 27.4913C46.3948 27.4839 46.0131 27.2768 46.0002 26.9994C45.9885 26.7394 46.4895 26.4915 46.9881 26.4915C47.5525 26.4915 47.9957 26.7241 48 26.9987Z" fill="white"/>
<path d="M35.16 12.4915H36.784L37.372 12.5734L37.428 12.6007V12.6553H37.652L38.044 12.7372V12.7918H38.184V12.8464H38.352V12.901L38.576 12.9283L38.716 12.9829V13.0375H38.856V13.0921L39.052 13.1194V13.2014L39.248 13.2287L39.36 13.2833V13.3379L39.5 13.3652L39.78 13.529V13.5836H39.864V13.6382L40.032 13.6928L40.088 13.7201V13.7747H40.172V13.8293H40.228V13.8839H40.284V13.9386L40.424 13.9659V14.0205H40.48V14.0751H40.536V14.1297L40.648 14.1843L40.732 14.2116V14.2662H40.788V14.3208H40.844V14.3754H40.9V14.43H40.956L41.04 14.5119V14.5665H41.096V14.6211H41.152L41.18 14.7304H41.236V14.8123L41.348 14.8669V14.9215L41.46 14.9761L41.488 15.1126H41.544V15.1672H41.6V15.2218H41.656L41.74 15.3583V15.413H41.796L41.908 15.5768V15.6587H41.964L42.16 16.0136V16.0682H42.216V16.1502H42.272L42.3 16.3686H42.356L42.412 16.4505L42.468 16.6962H42.524V16.8601H42.58L42.664 17.1058V17.2423H42.72L42.776 17.4061V17.5973H42.832L42.86 17.7884V18.0341H42.916L42.972 18.3345L43 18.7986V19.8908L42.972 20.1911L42.916 20.3003L42.776 20.4368L42.664 20.4915H42.188L41.964 20.3276L41.936 20.1365H41.852V19.5904L41.936 19.5631V19.099H41.88L41.852 19.0444L41.824 18.5529V18.2525H41.768L41.74 18.0341L41.712 18.0068V17.8157H41.656L41.544 17.4334L41.516 17.3788V17.215H41.46V17.1331H41.404L41.376 16.8874L41.292 16.8601L41.264 16.6689H41.208V16.587H41.152L41.012 16.3413V16.2321L40.9 16.2048V16.0956H40.844L40.816 15.9863H40.76L40.508 15.6587L40.452 15.5495H40.396V15.4949H40.34L40.312 15.3857H40.256L40.144 15.2491V15.1945L40.004 15.1399L39.892 15.058V15.0034H39.836V14.9488L39.752 14.9215V14.8669L39.668 14.8396V14.785L39.556 14.7577L39.5 14.6485L39.332 14.6211V14.5665H39.22L39.164 14.4846L39.08 14.4573V14.4027L38.828 14.3208V14.2662H38.716V14.2116L38.604 14.1843L38.52 14.157V14.1024L38.324 14.0751V14.0205H38.212V13.9659H38.072V13.9113H37.904L37.596 13.802L37.4 13.7747V13.7201H37.204V13.6655H36.952L36.532 13.6109V13.5563H35.412V13.6109L35.048 13.6655H34.74V13.7201H34.544V13.7747L34.348 13.802L34.152 13.8839L33.872 13.9113V13.9659L33.76 14.0205H33.676V14.0751L33.424 14.1024V14.157H33.34V14.2116H33.228V14.2662H33.116L33.088 14.3481L32.864 14.4573H32.808V14.5119H32.724V14.5665L32.556 14.6485H32.5V14.7031H32.416V14.7577L32.304 14.785V14.8669L32.164 14.9488H32.108V15.0034H32.052V15.058H31.996L31.968 15.1399H31.912V15.1945H31.856V15.2491H31.8V15.3037H31.744L31.716 15.3857H31.66L31.604 15.4949H31.548L31.492 15.6041L31.408 15.7406H31.352V15.7952H31.296V15.8498H31.24V15.9317H31.184L31.128 16.0956L31.1 16.1502H31.044V16.2321H30.988L30.932 16.3686H30.876L30.848 16.5324H30.792V16.6143H30.736L30.708 16.7508L30.68 16.8328H30.624L30.596 17.0239H30.54V17.1877H30.484L30.428 17.4334L30.316 17.7338L30.232 18.116H30.176V18.3618L30.12 18.7167H30.064V19.9181H30.12V20.1911H30.036L30.008 20.3003L29.98 20.3549H29.924V20.4095L29.784 20.4915H29.336L29.14 20.3822L29.028 20.2457L29 20.1092V18.4983L29.056 17.9522L29.14 17.6792L29.168 17.488H29.224V17.3515H29.28V17.1604L29.336 16.9966H29.392L29.42 16.7781L29.476 16.6416H29.532V16.5597H29.588V16.3959L29.784 16.0136H29.84L29.896 15.8498L29.98 15.7133H30.036V15.6041H30.092L30.12 15.4949L30.176 15.413H30.232L30.288 15.2764L30.344 15.1672H30.4V15.1126L30.512 15.0034L30.54 14.9215H30.596V14.8669H30.652V14.8123H30.708L30.736 14.7304H30.792V14.6758H30.848V14.6211H30.904L30.96 14.5119L31.044 14.4846L31.1 14.3754H31.156V14.3208H31.212V14.2662H31.268L31.296 14.1843H31.352V14.1297H31.408V14.0751H31.464V14.0205L31.632 13.9386L31.66 13.8839H31.716V13.8293L31.856 13.7474L31.968 13.7201V13.6655L32.08 13.6382V13.5836H32.192V13.529H32.276V13.4744L32.528 13.3379H32.584V13.2833L32.78 13.2014H32.892V13.1467L32.976 13.0921H33.144V13.0375L33.508 12.901H33.648V12.8464H33.788V12.7918H33.956V12.7372H34.124V12.6826L34.292 12.6553H34.544V12.6007L34.908 12.5188L35.16 12.4915Z" fill="white"/>
<path d="M31.4375 20.4915H32.1379V20.5434H32.4461L32.6422 20.5694V20.6213H32.8384L33.1185 20.7252V20.7772H33.2586L33.5948 20.907L33.819 21.0109V21.0629L34.0151 21.0889L34.1832 21.1408V21.1928H34.2672V21.2447H34.4353V21.2966L34.7435 21.3486L34.8836 21.3746V21.4265H35.1918V21.4785H35.8642V21.4265H36.1724V21.3746L36.4526 21.3226L36.6767 21.2966V21.2447H36.7888V21.1928H36.9289V21.1408H37.0409V21.0889L37.2371 21.0629V21.0109L37.3491 20.959H37.4892V20.907L37.7974 20.7772H37.9375V20.7252H38.1056V20.6733L38.2737 20.6213H38.4138V20.5694L38.6099 20.5434H38.9741V20.4915H39.7026V20.5434H40.0108L40.319 20.6213V20.6733H40.4591L40.5711 20.7252V20.7772H40.6832V20.8291L40.8233 20.8551V20.907L40.9353 20.933L41.0754 21.0109V21.0629L41.2155 21.0889V21.1408H41.2716V21.1928H41.3836V21.2447H41.4397V21.2966L41.5797 21.3226L41.7478 21.3746V21.4265H41.8319V21.4785H41.8879V21.5304H41.944V21.6343H42V22.0759H41.944V22.1798H41.8879V22.2317L41.8039 22.3096H41.6918V22.3616H41.2435V22.3096L41.1315 22.2837L40.9353 22.2317V22.1798L40.8233 22.1538L40.7392 22.1278V22.0759H40.6832V22.0239L40.5431 21.9979V21.92L40.403 21.8941L40.2909 21.8421V21.7902L40.0388 21.7122V21.6603H39.9267V21.6083L39.6466 21.5824L39.4784 21.5564H39.1983L38.8341 21.6083H38.6379V21.6603L38.4698 21.7122H38.3297V21.7642L38.1336 21.7902V21.8421H37.9935V21.8941L37.7974 21.92L37.7694 21.9979L37.5733 22.0239V22.0759H37.4612V22.1278H37.3211V22.1798L36.9569 22.2837L36.9289 22.3096H36.7608V22.3616L36.5927 22.4135L36.3966 22.4395H36.0603V22.4915H34.9957V22.4395H34.6875L34.4914 22.4135V22.3616H34.2953V22.3096H34.1272L33.875 22.2057L33.7349 22.1798V22.1278H33.6509V22.0759H33.5108V22.0239L33.2866 21.9979L33.2586 21.946L32.9784 21.8421L32.7263 21.7642V21.7122H32.5862L32.4741 21.6603V21.6083H32.25L31.9138 21.5564L31.4655 21.5824L31.2134 21.6343L31.0733 21.6603V21.7122H30.9612V21.7642L30.8211 21.7902V21.8421H30.7091V21.8941L30.569 21.92V21.972L30.4569 22.0239H30.3728V22.0759H30.3168V22.1278H30.2047V22.1798L29.8966 22.3096H29.7565V22.3616H29.3642V22.3096H29.2522V22.2577L29.1401 22.2057L29.1121 22.1278H29.056V22.0239H29V21.6603H29.056L29.0841 21.5564L29.1121 21.4785H29.1681V21.4265L29.4763 21.2966H29.5603V21.2447H29.6724V21.1928L29.8125 21.1148L29.9246 21.0629H30.0086L30.0647 20.959H30.1767V20.907L30.4289 20.7772H30.5409V20.7252H30.681V20.6733L30.9892 20.5694L31.1573 20.5434H31.4375V20.4915Z" fill="white"/>
<path d="M31.6806 22.4915H32.5061V22.5434H32.8305V22.5954H33.0369L33.3612 22.6733V22.7252H33.5086V22.7772L33.656 22.8031L33.8919 22.8551V22.907H34.0098V22.959L34.1572 22.985L34.3047 23.0629V23.1148L34.57 23.1408L34.688 23.1928V23.2447H34.8649V23.2966L35.1007 23.3226L35.3661 23.3746L35.3956 23.4005L35.6904 23.4265V23.4785L36.3096 23.4525L36.3391 23.4265L36.6339 23.4005L37.0467 23.2966H37.1646V23.2447H37.3415V23.1928L37.6069 23.1148H37.6953V23.0629H37.8133V23.0109L38.0491 22.907L38.3735 22.8031L38.4029 22.7772H38.5504V22.7252L38.8747 22.6213L39.0221 22.5954H39.258V22.5434H39.5823V22.4915H40.4079V22.5434H40.7322V22.5954H40.9386L41.0565 22.6213V22.6733H41.2039L41.3219 22.7252V22.7772H41.4398V22.8291L41.5872 22.8551V22.907L41.7052 22.933L41.7641 22.959V23.0109H41.8526V23.1148L41.9705 23.1668L42 23.4785L41.9705 23.6603H41.9115V23.7122H41.8526V23.7902H41.7936V23.8421H41.7052V23.8941L41.4693 23.946L41.2924 23.92L41.027 23.8421V23.7902L40.8501 23.7382L40.6437 23.6603V23.6083L40.4373 23.5824L40.231 23.5564H39.8182L39.4644 23.6083H39.2875V23.6603L39.0811 23.7122H38.9631V23.7642L38.6978 23.7902V23.8421H38.6093V23.8941L38.4029 23.972H38.285V24.0239L37.9902 24.1278H37.9017V24.1798L37.6364 24.2577H37.4889V24.3096H37.312V24.3616H37.1057V24.4135H36.8993V24.4655L36.5749 24.4915H35.5135L35.1597 24.4655L35.1302 24.4395L34.9238 24.4135V24.3616H34.7764V24.3096H34.57L34.2752 24.2057L34.1867 24.1798V24.1278H34.0393V24.0759L33.8034 24.0499V23.972L33.5971 23.946L33.3317 23.8421V23.7902L33.0663 23.7642V23.7122L32.801 23.6603V23.6083H32.5651L32.5356 23.5824L32.2703 23.5564H31.9165L31.6806 23.5824L31.6511 23.6083H31.4447V23.6603H31.3268V23.7122H31.2088V23.7642L31.0025 23.7902V23.8421H30.9435V23.8941L30.7961 23.946H30.4423L30.2654 23.8941V23.8421H30.2064L30.1179 23.7642V23.6863H30.059L30 23.5304V23.2966H30.059V23.1668L30.1769 23.1148L30.2359 22.985L30.3833 22.959V22.907H30.4423V22.8551L30.6486 22.8291V22.7772H30.7666V22.7252L30.8845 22.6733H31.0319V22.6213L31.3563 22.5954V22.5434L31.6511 22.5174L31.6806 22.4915Z" fill="white"/>
</svg>
