<svg width="47" height="128" viewBox="0 0 47 128" fill="none" xmlns="http://www.w3.org/2000/svg">
<path d="M44.4543 66.6799C44.9566 64.4006 44.4394 57.3588 42.4347 54.6473C42.1673 54.1912 41.7942 53.8061 41.3467 53.5243C40.8992 53.2426 40.3905 53.0725 39.8635 53.0284C38.3585 53.033 38.4231 51.3291 38.2101 50.1306C37.6271 47.044 35.5015 35.7906 34.3837 33.471C32.7443 30.2243 28.9811 27.4453 25.2109 28.6503C24.1439 28.9983 24.0651 29.6392 23.7377 28.3291C23.417 26.6315 19.4922 4.58261 15.416 1.76949C12.1378 -0.488374 7.82549 -0.459724 5.21693 2.80352C1.73618 7.16389 2.84984 13.9065 3.22966 19.1627C3.56032 25.6631 4.8837 32.0746 7.1539 38.1748C3.82394 38.3242 2.72478 41.8884 2.73481 44.7636C2.8096 49.5173 3.53542 54.2383 4.89203 58.7948C5.17887 59.8196 7.25183 65.009 7.17417 65.3034C6.99555 65.9099 5.13027 65.9825 3.17273 68.1771C-1.22348 73.1233 0.698057 83.2963 5.81107 88.0714C7.42087 89.5389 9.45593 90.1535 10.1255 92.358C12.2966 100.113 23.7297 103.002 32.0809 101.144C34.0948 109.901 36.3379 118.602 38.2488 127.378C38.2621 127.402 38.2827 127.422 38.3077 127.434C38.3326 127.445 38.3606 127.449 38.3877 127.444C38.4148 127.439 38.4396 127.425 38.4586 127.405C38.4775 127.385 38.4897 127.359 38.4933 127.332C36.5848 118.569 34.9601 109.685 32.516 101.049C38.0163 99.6904 42.8786 96.2945 45.0025 90.8184C46.7379 85.8953 46.0443 79.9658 44.5919 75.0987C44.0415 73.8349 43.586 72.5318 43.2293 71.2003C43.0108 69.5499 44.1192 68.2217 44.4543 66.6799ZM34.9548 60.4823C32.6488 65.9497 30.0344 71.282 27.124 76.4534C28.0567 80.6861 31.0081 94.9003 32.3863 98.3163C32.3827 98.3436 32.3705 98.3691 32.3516 98.3891C32.3326 98.4092 32.3079 98.4227 32.2808 98.4278C32.2537 98.4329 32.2256 98.4294 32.2007 98.4176C32.1757 98.4059 32.1551 98.3866 32.1418 98.3624C30.6297 94.4286 29.4662 90.3696 28.6646 86.2322C26.1527 85.8138 23.7464 84.9112 21.5794 83.5745C19.6169 82.4268 17.0042 81.0821 15.7983 79.0722C15.6822 78.881 15.9796 78.6916 16.1319 78.8627C17.7012 80.5661 19.5518 81.9872 21.6029 83.0639C23.74 84.4072 26.1081 85.3419 28.5868 85.8207C28.1981 83.7629 24.6583 67.9149 23.3833 62.0819C21.1513 60.9185 18.9426 59.7373 16.7924 58.3719C15.1341 57.3531 13.0314 56.0986 12.1089 54.2483C12.0057 54.0546 12.3007 53.8524 12.4296 54.0412C14.9789 57.449 19.5032 59.6713 23.2701 61.6238C23.1584 61.0322 16.9865 33.507 14.1272 20.2744C14.1293 20.2119 14.1525 20.1519 14.1932 20.1044C14.2339 20.0569 14.2896 20.0247 14.3511 20.0131C14.4126 20.0015 14.4762 20.0112 14.5314 20.0406C14.5866 20.07 14.6301 20.1173 14.6548 20.1748C16.4666 28.1441 18.2116 36.1128 19.9719 44.0918C21.4069 42.5057 22.5461 40.6755 23.3355 38.688C23.3659 38.634 23.4144 38.5925 23.4724 38.5709C23.5304 38.5493 23.5942 38.5489 23.6525 38.5698C23.7108 38.5907 23.7597 38.6316 23.7907 38.6852C23.8217 38.7388 23.8326 38.8017 23.8216 38.8626C22.9625 40.9932 21.683 42.9291 20.0594 44.5548C21.124 49.4153 25.7351 70.229 26.9695 75.7766C29.6619 70.6994 32.0371 65.4956 34.426 60.2226C34.5777 59.9675 35.1539 60.125 34.9524 60.4695L34.9548 60.4823Z" fill="#7DAC5A"/>
</svg>
