<svg width="51" height="129" viewBox="0 0 51 129" fill="none" xmlns="http://www.w3.org/2000/svg">
<path d="M45.5531 75.9103C46.9941 74.0742 49.5813 67.5046 48.9506 64.192C48.9074 63.6651 48.7382 63.1562 48.4571 62.7083C48.1761 62.2604 47.7914 61.8866 47.3356 61.6183C45.9775 60.9699 46.7745 59.4626 47.1022 58.2902C47.9152 55.256 50.8793 44.1939 50.8778 41.619C50.8084 37.9825 48.6223 33.8466 44.7025 33.2977C43.5901 33.1487 43.2411 33.692 43.5142 32.3695C43.9613 30.7007 49.985 9.13054 47.5318 4.82822C45.5567 1.37218 41.6585 -0.471808 37.893 1.33764C32.8658 3.75754 30.9457 10.3162 29.0089 15.2173C26.4882 21.2182 24.9007 27.5695 24.3014 34.0507C21.2359 32.7415 18.7 35.4767 17.4624 38.0719C15.4686 42.3879 14.0756 46.9566 13.3223 51.6508C13.1365 52.6986 12.7543 58.2737 12.5566 58.5053C12.1327 58.9743 10.4204 58.231 7.70491 59.3597C1.59878 61.9106 -1.08075 71.9107 1.45614 78.4306C2.27044 80.4509 3.83775 81.8872 3.48526 84.164C2.07907 92.0934 11.129 99.6538 19.4596 101.601C17.4772 110.366 15.726 119.178 13.6424 127.915C13.644 127.943 13.6542 127.969 13.6716 127.991C13.6889 128.012 13.7127 128.027 13.7393 128.034C13.7659 128.042 13.7941 128.04 13.8199 128.03C13.8457 128.02 13.8677 128.003 13.8827 127.98C15.9629 119.255 18.3509 110.546 19.893 101.704C25.4384 102.865 31.2923 101.913 35.5806 97.8994C39.279 94.2156 41.2251 88.5717 42.0268 83.5562C42.0787 82.1787 42.2333 80.807 42.4892 79.4525C43.0079 77.8706 44.5826 77.1543 45.5531 75.9103ZM39.6804 66.2067C35.2318 70.1335 30.5638 73.8048 25.6989 77.2029C24.7041 81.4214 21.2003 95.5096 20.961 99.1853C20.9459 99.2084 20.9239 99.2261 20.8982 99.2359C20.8724 99.2458 20.8442 99.2472 20.8176 99.2401C20.7909 99.2329 20.7672 99.2176 20.7498 99.1962C20.7324 99.1748 20.7222 99.1484 20.7207 99.1209C21.0638 94.9205 21.7753 90.7584 22.847 86.6826C20.765 85.2164 18.988 83.3596 17.6149 81.2156C16.3442 79.3304 14.5729 76.9859 14.3578 74.6518C14.3361 74.4292 14.6862 74.3875 14.7492 74.6076C15.4247 76.8231 16.4761 78.9061 17.8575 80.7657C19.2008 82.9027 20.9294 84.7718 22.9554 86.278C23.4974 84.2552 27.1794 68.4397 28.5596 62.6307C27.0528 60.6145 25.5747 58.5924 24.2292 56.4297C23.1766 54.7926 21.8259 52.7505 21.7969 50.6831C21.7879 50.4639 22.1413 50.4096 22.1757 50.6356C22.9952 54.8118 26.1084 58.7761 28.6563 62.1688C28.8121 61.5872 35.1855 34.108 38.3467 20.9443C38.3756 20.8888 38.4226 20.8449 38.4799 20.8197C38.5371 20.7945 38.6013 20.7897 38.6617 20.8058C38.7221 20.822 38.7753 20.8583 38.8123 20.9088C38.8493 20.9592 38.868 21.0207 38.8653 21.0832C37.0424 29.05 35.1596 36.9873 33.2861 44.9405C35.267 44.1335 37.0871 42.9783 38.6602 41.5296C38.7109 41.4941 38.7726 41.4777 38.8343 41.4834C38.896 41.489 38.9536 41.5164 38.9971 41.5605C39.0405 41.6046 39.0669 41.6627 39.0716 41.7244C39.0762 41.7862 39.0588 41.8475 39.0225 41.8977C37.3246 43.445 35.3322 44.6347 33.1642 45.3957C32.0161 50.2371 27.1462 70.9918 25.8531 76.526C30.4807 73.1183 34.8775 69.459 39.3165 65.7433C39.5638 65.5792 40.0146 65.971 39.6837 66.194L39.6804 66.2067Z" fill="#7DAC5A"/>
</svg>
