<svg width="209" height="46" viewBox="0 0 209 46" fill="none" xmlns="http://www.w3.org/2000/svg">
<path d="M129.274 25.7627H127V25H132.507V25.7627H130.232V31H129.274V25.7627ZM133.638 25H135.064L137.309 29.5424H137.349L139.573 25H141V31H140.042V26.0678H140.022L137.638 31H137L134.616 26.0678H134.596V31H133.638V25Z" fill="#87A86B"/>
<path d="M66.9409 29.8266C66.3472 29.0927 65.5954 28.5282 64.6849 28.1331C63.7744 27.7379 62.8346 27.5403 61.8648 27.5403C60.6774 27.5403 59.599 27.7567 58.6291 28.1895C57.6792 28.6035 56.8577 29.1774 56.1652 29.9113C55.4922 30.6452 54.9681 31.5108 54.5919 32.5081C54.2157 33.4866 54.0279 34.5403 54.0279 35.6694C54.0279 36.7231 54.206 37.7204 54.5622 38.6613C54.9184 39.6021 55.4328 40.4301 56.1058 41.1452C56.7789 41.8602 57.5998 42.4246 58.5697 42.8387C59.5396 43.2528 60.6379 43.4597 61.8648 43.4597C63.0721 43.4597 64.1306 43.2246 65.0411 42.754C65.9516 42.2836 66.7234 41.625 67.3565 40.7782L69.761 42.5C69.6029 42.7068 69.3255 43.0081 68.9298 43.4032C68.5342 43.7794 68.0096 44.1653 67.3565 44.5605C66.7034 44.9367 65.9117 45.2661 64.9817 45.5484C64.0712 45.8496 63.0128 46 61.8054 46C60.143 46 58.6388 45.6988 57.2933 45.0968C55.9672 44.4948 54.8294 43.7044 53.8795 42.7258C52.9495 41.7473 52.237 40.6465 51.7421 39.4234C51.2472 38.1815 51 36.9301 51 35.6694C51 34.1263 51.2672 32.7056 51.8015 31.4073C52.3358 30.09 53.078 28.961 54.0279 28.0202C54.9978 27.0605 56.1555 26.3172 57.501 25.7903C58.8466 25.2634 60.3309 25 61.9538 25C63.3393 25 64.6946 25.254 66.0207 25.7621C67.3663 26.2702 68.4646 27.0511 69.3157 28.1048L66.9409 29.8266ZM73.5051 25.5081H76.3548V42.9516H86.0025V45.4919H73.5051V25.5081ZM91.6599 25.5081V37.7581C91.6599 38.379 91.7489 39.0282 91.927 39.7056C92.1051 40.3642 92.402 40.9758 92.8176 41.5403C93.2332 42.1048 93.7777 42.5657 94.4503 42.9234C95.1233 43.2811 95.9545 43.4597 96.9438 43.4597C97.9336 43.4597 98.7648 43.2811 99.4374 42.9234C100.11 42.5657 100.654 42.1048 101.07 41.5403C101.486 40.9758 101.783 40.3642 101.961 39.7056C102.139 39.0282 102.228 38.379 102.228 37.7581V25.5081H105.078V38.1815C105.078 39.3481 104.87 40.4113 104.454 41.371C104.039 42.3118 103.465 43.1302 102.732 43.8266C102.001 44.523 101.14 45.0593 100.15 45.4355C99.1605 45.8117 98.0918 46 96.9438 46C95.7963 46 94.7276 45.8117 93.7378 45.4355C92.7485 45.0593 91.8876 44.523 91.1552 43.8266C90.4233 43.1302 89.8491 42.3118 89.4335 41.371C89.0179 40.4113 88.8101 39.3481 88.8101 38.1815V25.5081H91.6599ZM110.395 25.5081H117.697C118.608 25.5081 119.449 25.6116 120.221 25.8185C121.012 26.0255 121.685 26.336 122.239 26.75C122.814 27.1452 123.259 27.6626 123.575 28.3024C123.912 28.9234 124.08 29.6573 124.08 30.504C124.08 31.6519 123.743 32.5927 123.07 33.3266C122.398 34.0417 121.527 34.5685 120.458 34.9073V34.9637C121.092 35.0013 121.685 35.1613 122.239 35.4435C122.794 35.707 123.269 36.0645 123.664 36.5161C124.08 36.9489 124.406 37.457 124.644 38.0403C124.881 38.6237 125 39.254 125 39.9314C125 40.8347 124.802 41.6344 124.406 42.3306C124.031 43.0081 123.506 43.5818 122.833 44.0524C122.16 44.523 121.378 44.8802 120.488 45.125C119.597 45.3698 118.638 45.4919 117.608 45.4919H110.395V25.5081ZM113.245 33.8065H117.133C117.668 33.8065 118.172 33.7594 118.647 33.6653C119.122 33.5524 119.538 33.3737 119.894 33.129C120.25 32.8844 120.528 32.5739 120.725 32.1976C120.943 31.8213 121.052 31.3602 121.052 30.8145C121.052 30.0242 120.785 29.3374 120.25 28.754C119.716 28.1707 118.875 27.879 117.727 27.879H113.245V33.8065ZM113.245 43.121H117.43C117.866 43.121 118.341 43.0835 118.855 43.0081C119.39 42.9141 119.884 42.7448 120.339 42.5C120.795 42.2366 121.181 41.8884 121.497 41.4556C121.814 41.0229 121.972 40.4489 121.972 39.7339C121.972 38.5484 121.567 37.664 120.755 37.0806C119.944 36.4785 118.845 36.1774 117.46 36.1774H113.245V43.121Z" fill="#87A86B"/>
<path d="M65.4044 4.59677C64.8679 3.89785 64.1884 3.36021 63.3658 2.98387C62.5432 2.60753 61.6938 2.41935 60.8175 2.41935C59.7446 2.41935 58.77 2.62544 57.8937 3.03763C57.0353 3.43191 56.2932 3.97849 55.6673 4.67742C55.0594 5.37634 54.5855 6.20073 54.2457 7.15054C53.9059 8.08245 53.736 9.08602 53.736 10.1613C53.736 11.1649 53.897 12.1147 54.2188 13.0108C54.5407 13.9068 55.0057 14.6954 55.6137 15.3763C56.2217 16.0573 56.9638 16.595 57.8401 16.9892C58.7163 17.3835 59.7088 17.5806 60.8175 17.5806C61.9084 17.5806 62.8651 17.3566 63.6877 16.9086C64.5103 16.4606 65.2077 15.8333 65.7799 15.0269L67.9526 16.6667C67.8096 16.8638 67.5593 17.1505 67.2016 17.5269C66.8439 17.8853 66.37 18.2527 65.7799 18.629C65.1898 18.9874 64.4745 19.3011 63.634 19.5699C62.8114 19.8566 61.8547 20 60.7639 20C59.2617 20 57.9027 19.7132 56.6866 19.1398C55.4885 18.5663 54.4603 17.8136 53.6019 16.8817C52.7614 15.9498 52.1177 14.9014 51.6706 13.7366C51.2235 12.5538 51 11.362 51 10.1613C51 8.69174 51.2414 7.33871 51.7242 6.10215C52.2071 4.84766 52.8777 3.77239 53.736 2.87634C54.6123 1.96237 55.6584 1.25448 56.8744 0.752688C58.0904 0.250895 59.4316 0 60.898 0C62.1498 0 63.3747 0.241935 64.5728 0.725806C65.7889 1.20968 66.7814 1.9534 67.5503 2.95699L65.4044 4.59677ZM71.3359 0.483871H78.015C79.231 0.483871 80.2325 0.65412 81.0193 0.994623C81.8061 1.3172 82.423 1.73835 82.8701 2.25806C83.3351 2.75986 83.6569 3.33333 83.8358 3.97849C84.0146 4.60572 84.104 5.21505 84.104 5.80645C84.104 6.41578 83.9967 7.00718 83.7821 7.58064C83.5675 8.13621 83.2546 8.64697 82.8433 9.1129C82.4499 9.56095 81.9581 9.94624 81.368 10.2688C80.7958 10.5735 80.152 10.7616 79.4367 10.8333L84.8283 19.5161H81.6094L76.7811 11.129H73.911V19.5161H71.3359V0.483871ZM73.911 8.87097H77.2908C77.7915 8.87097 78.2833 8.83514 78.7661 8.76344C79.2668 8.67385 79.7049 8.52151 80.0804 8.30645C80.4739 8.0914 80.7868 7.78675 81.0193 7.39247C81.2518 6.9803 81.368 6.45161 81.368 5.80645C81.368 5.16129 81.2518 4.64159 81.0193 4.24731C80.7868 3.83514 80.4739 3.5215 80.0804 3.30645C79.7049 3.0914 79.2668 2.94803 78.7661 2.87634C78.2833 2.78674 77.7915 2.74194 77.2908 2.74194H73.911V8.87097ZM88.3007 0.483871H100.559V2.90323H90.8758V8.57527H99.8885V10.9946H90.8758V17.0968H101.042V19.5161H88.3007V0.483871ZM105.376 0.483871H109.211L115.247 14.8925H115.354L121.336 0.483871H125.172V19.5161H122.596V3.87097H122.543L116.132 19.5161H114.415L108.004 3.87097H107.951V19.5161H105.376V0.483871ZM136.394 0.483871H138.728L146.855 19.5161H143.851L141.947 14.8118H132.907L131.029 19.5161H128.025L136.394 0.483871ZM141.008 12.5538L137.467 3.8172H137.413L133.819 12.5538H141.008ZM151.102 2.90323H144.986V0.483871H159.793V2.90323H153.677V19.5161H151.102V2.90323ZM163.101 0.483871H165.677V19.5161H163.101V0.483871ZM178.958 20C177.51 20 176.178 19.7491 174.962 19.2473C173.746 18.7276 172.7 18.0197 171.823 17.1237C170.965 16.2276 170.285 15.1702 169.785 13.9516C169.302 12.733 169.06 11.4158 169.06 10C169.06 8.58422 169.302 7.26701 169.785 6.04839C170.285 4.82976 170.965 3.77239 171.823 2.87634C172.7 1.98029 173.746 1.28136 174.962 0.77957C176.178 0.259858 177.51 0 178.958 0C180.407 0 181.739 0.259858 182.955 0.77957C184.171 1.28136 185.208 1.98029 186.067 2.87634C186.943 3.77239 187.622 4.82976 188.105 6.04839C188.606 7.26701 188.856 8.58422 188.856 10C188.856 11.4158 188.606 12.733 188.105 13.9516C187.622 15.1702 186.943 16.2276 186.067 17.1237C185.208 18.0197 184.171 18.7276 182.955 19.2473C181.739 19.7491 180.407 20 178.958 20ZM178.958 17.5806C180.049 17.5806 181.033 17.3835 181.909 16.9892C182.785 16.5771 183.536 16.0305 184.162 15.3495C184.788 14.6685 185.271 13.871 185.611 12.957C185.951 12.0251 186.12 11.0394 186.12 10C186.12 8.96056 185.951 7.98387 185.611 7.06989C185.271 6.13798 184.788 5.33153 184.162 4.65054C183.536 3.96955 182.785 3.43191 181.909 3.03763C181.033 2.62544 180.049 2.41935 178.958 2.41935C177.868 2.41935 176.884 2.62544 176.008 3.03763C175.132 3.43191 174.381 3.96955 173.754 4.65054C173.129 5.33153 172.646 6.13798 172.306 7.06989C171.966 7.98387 171.796 8.96056 171.796 10C171.796 11.0394 171.966 12.0251 172.306 12.957C172.646 13.871 173.129 14.6685 173.754 15.3495C174.381 16.0305 175.132 16.5771 176.008 16.9892C176.884 17.3835 177.868 17.5806 178.958 17.5806ZM192.53 0.483871H195.91L206.371 16.129H206.425V0.483871H209V19.5161H205.728L195.159 3.87097H195.105V19.5161H192.53V0.483871Z" fill="#87A86B"/>
<path d="M1.53492 27.16C1.52172 27.8333 1.76482 28.4875 2.2176 28.9974C2.28373 29.6786 2.39122 30.3554 2.53952 31.0242C2.30514 30.5207 1.95389 30.0767 1.51329 29.727C1.0727 29.3774 0.554737 29.1316 0 29.009C0.118038 29.759 0.448014 30.4625 0.953201 31.0412C1.45839 31.6199 2.11897 32.051 2.86143 32.2866C3.0045 32.8773 3.18333 33.4332 3.38602 34.0355C3.12901 33.6158 2.78382 33.2534 2.37295 32.9721C1.96209 32.6907 1.49478 32.4966 1.0015 32.4025C1.1353 33.1522 1.48183 33.8507 2.00209 34.4196C2.52236 34.9884 3.19571 35.4049 3.94638 35.6222C4.12522 36.0623 4.32791 36.5372 4.61405 37.1162C4.33529 36.7831 3.98963 36.5087 3.59812 36.3095C3.20661 36.1104 2.77746 35.9908 2.33683 35.9581C2.5018 36.7017 2.88622 37.3824 3.44309 37.9172C3.99996 38.452 4.70515 38.8176 5.47248 38.9693C5.58388 39.0102 5.70683 39.0102 5.81823 38.9693C6.92703 38.5292 7.63047 37.371 7.15356 35.5759C7.15356 35.5759 5.16249 35.9349 5.5917 38.7145C5.13864 37.7532 4.69751 36.6877 4.32791 35.7264C5.47248 35.3211 6.23552 34.1513 5.73477 32.3214C5.73477 32.3214 3.86292 32.6573 4.14907 35.2284C3.79139 34.2671 3.45755 33.2479 3.19526 32.2866C4.33983 31.8581 5.07903 30.7115 4.5902 28.8816C4.5902 28.8816 2.96873 29.1712 2.96873 31.3601C2.78989 30.5957 2.6349 29.785 2.53952 29.1364C2.86749 28.5458 3.01793 27.8776 2.97366 27.2079C2.92939 26.5382 2.69219 25.8942 2.28914 25.3492C1.81669 25.8419 1.54812 26.4868 1.53492 27.16Z" fill="white"/>
<path d="M33.884 21.1797C33.884 21.1797 32.358 23.3339 34.9213 26.0441C35.0167 26.8432 35.0882 27.9203 35.1002 28.9279C34.8761 28.1265 34.414 27.4069 33.7715 26.859C33.1291 26.3111 32.3347 25.9592 31.4876 25.8472C31.4347 26.8526 31.758 27.8427 32.3979 28.6346C33.0378 29.4265 33.951 29.9667 34.969 30.1556C34.9263 31.4357 34.8029 32.7121 34.5994 33.9776C34.4863 33.0743 34.0777 32.2301 33.4339 31.5692C32.79 30.9083 31.9448 30.4656 31.0226 30.3062C30.9701 31.3269 31.3054 32.3309 31.9648 33.1273C32.6242 33.9237 33.5618 34.4571 34.5994 34.6262C34.3818 35.9329 34.0953 37.2279 33.741 38.5061C33.6858 37.541 33.2927 36.6233 32.627 35.905C31.9613 35.1867 31.0629 34.711 30.0807 34.5567C30.0288 35.5536 30.3468 36.5355 30.9769 37.3239C31.607 38.1124 32.5074 38.6551 33.5144 38.8535C33.7044 38.8778 33.8968 38.8778 34.0867 38.8535C35.1006 38.7324 36.0364 38.263 36.7251 37.5303C37.4139 36.7975 37.8102 35.8496 37.8424 34.8578C37.2283 34.9057 36.6315 35.079 36.0912 35.3664C35.5508 35.6538 35.0791 36.0488 34.7067 36.5256C34.9094 35.8191 35.0644 35.1937 35.1836 34.5682C36.2047 34.3707 37.1167 33.8183 37.7487 33.0146C38.3808 32.2109 38.6896 31.2109 38.6173 30.2019C37.9645 30.3173 37.3473 30.5753 36.8123 30.9566C36.2774 31.3378 35.8386 31.8322 35.5294 32.4025C35.6247 31.5917 35.7082 30.8389 35.7082 30.0861C36.699 29.8667 37.5754 29.3084 38.1774 28.5131C38.7794 27.7178 39.0667 26.7386 38.9869 25.7545C38.2485 25.8852 37.5574 26.1991 36.9809 26.6659C36.4043 27.1327 35.9617 27.7363 35.6963 28.4183C35.6684 27.5434 35.5688 26.672 35.3982 25.8124C35.6266 25.4147 35.7687 24.9759 35.8159 24.5228C35.863 24.0697 35.8141 23.6121 35.6723 23.1781C35.5304 22.744 35.2986 22.3428 34.991 21.9991C34.6835 21.6555 34.3067 21.3766 33.884 21.1797Z" fill="white"/>
<path d="M16.5767 13.289C15.0247 10.2017 15.7198 7.116 19.2789 5C19.2789 5 22.0211 8.83358 17.4308 13.6632C17.2759 15.1341 17.1566 16.9755 17.1447 18.7128C17.5303 17.3175 18.323 16.0603 19.4272 15.0924C20.5314 14.1246 21.9 13.4875 23.3683 13.2578C23.5352 17.3578 20.8169 20.0216 17.1805 20.9481C17.2689 23.1979 17.4918 25.4408 17.8481 27.6655C18.0679 26.0613 18.814 24.5685 19.9759 23.4086C21.1377 22.2486 22.6534 21.4833 24.2983 21.2261C24.4533 25.3376 21.7349 28.013 18.0627 28.9279C18.4776 31.3982 19.0268 33.8453 19.7081 36.2592C19.7459 34.4851 20.4227 32.78 21.6208 31.4406C22.8188 30.1011 24.4624 29.212 26.2655 28.9279C26.4205 33.051 23.6783 35.7264 20.0181 36.6182C19.8022 36.7014 19.566 36.7215 19.3385 36.6761C18.2038 36.4764 17.1142 36.0843 16.1194 35.518C15.0063 34.8942 14.0868 33.9907 13.4574 32.9024C12.828 31.8141 12.512 30.5812 12.5426 29.3333C14.6059 29.5525 16.4962 30.556 17.8004 32.1245C17.4785 31.0358 17.2043 29.9008 16.9778 28.7889C13.2937 27.8277 10.5873 25.1059 10.8257 20.9828C11.9992 21.1899 13.1081 21.6557 14.0672 22.3444C15.0262 23.0331 15.8099 23.9263 16.3578 24.9554C16.1909 23.5772 16.0836 22.2105 16.0359 20.867C12.4591 19.8015 9.93153 17.1145 10.1461 13.142C11.4848 13.3603 12.7406 13.9174 13.7871 14.7571C14.8336 15.5968 15.6339 16.6895 16.1074 17.9253C16.1474 16.3708 16.3042 14.8212 16.5767 13.289Z" fill="white"/>
</svg>
