<svg width="48" height="49" viewBox="0 0 48 49" fill="none" xmlns="http://www.w3.org/2000/svg">
<rect y="0.491455" width="48" height="48" rx="24" fill="white"/>
<path d="M20.3633 38.5305C19.8945 38.5305 19.4844 38.5032 19.1328 38.4485C18.7734 38.4016 18.4688 38.343 18.2188 38.2727V35.2493C18.4688 35.304 18.7383 35.3547 19.0273 35.4016C19.3086 35.4563 19.6094 35.4836 19.9297 35.4836C20.3516 35.4836 20.7305 35.4016 21.0664 35.2375C21.4023 35.0813 21.668 34.7805 21.8633 34.3352C22.0586 33.8899 22.1562 33.2493 22.1562 32.4133V16.3586H25.7891V32.3899C25.7891 33.8586 25.5586 35.0422 25.0977 35.9407C24.6445 36.8469 24.0078 37.5032 23.1875 37.9094C22.375 38.3235 21.4336 38.5305 20.3633 38.5305Z" fill="#425831"/>
</svg>
