<svg width="126" height="23" viewBox="0 0 126 23" fill="none" xmlns="http://www.w3.org/2000/svg">
<path d="M11 3.72752L12.5186 8.40129L12.7431 9.09227H13.4697H18.3839L14.4082 11.9808L13.8204 12.4079L14.0449 13.0988L15.5635 17.7726L11.5878 14.8841L11 14.457L10.4122 14.8841L6.43648 17.7726L7.95507 13.0988L8.17959 12.4079L7.5918 11.9808L3.61606 9.09227H8.53035H9.25689L9.4814 8.40129L11 3.72752Z" fill="#FFD60C" stroke="#D3BA3C" stroke-width="2"/>
<path d="M37 3.72752L38.5186 8.40129L38.7431 9.09227H39.4697H44.3839L40.4082 11.9808L39.8204 12.4079L40.0449 13.0988L41.5635 17.7726L37.5878 14.8841L37 14.457L36.4122 14.8841L32.4365 17.7726L33.9551 13.0988L34.1796 12.4079L33.5918 11.9808L29.6161 9.09227H34.5303H35.2569L35.4814 8.40129L37 3.72752Z" fill="#FFD60C" stroke="#D3BA3C" stroke-width="2"/>
<path d="M63 3.72752L64.5186 8.40129L64.7431 9.09227H65.4697H70.3839L66.4082 11.9808L65.8204 12.4079L66.0449 13.0988L67.5635 17.7726L63.5878 14.8841L63 14.457L62.4122 14.8841L58.4365 17.7726L59.9551 13.0988L60.1796 12.4079L59.5918 11.9808L55.6161 9.09227H60.5303H61.2569L61.4814 8.40129L63 3.72752Z" fill="#FFD60C" stroke="#D3BA3C" stroke-width="2"/>
<path d="M89 3.72752L90.5186 8.40129L90.7431 9.09227H91.4697H96.3839L92.4082 11.9808L91.8204 12.4079L92.0449 13.0988L93.5635 17.7726L89.5878 14.8841L89 14.457L88.4122 14.8841L84.4365 17.7726L85.9551 13.0988L86.1796 12.4079L85.5918 11.9808L81.6161 9.09227H86.5303H87.2569L87.4814 8.40129L89 3.72752Z" fill="#FFD60C" stroke="#D3BA3C" stroke-width="2"/>
<path d="M115 3.72752L116.519 8.40129L116.743 9.09227H117.47H122.384L118.408 11.9808L117.82 12.4079L118.045 13.0988L119.564 17.7726L115.588 14.8841L115 14.457L114.412 14.8841L110.436 17.7726L111.955 13.0988L112.18 12.4079L111.592 11.9808L107.616 9.09227H112.53H113.257L113.481 8.40129L115 3.72752Z" fill="#FFD60C" stroke="#D3BA3C" stroke-width="2"/>
</svg>
