<svg width="46" height="47" viewBox="0 0 46 47" fill="none" xmlns="http://www.w3.org/2000/svg">
<path d="M42.8374 8.70279C43.0299 7.09279 43.0068 7.38412 43.0453 7.03146C43.0684 6.82446 43.0992 6.88579 41.8211 7.26912C41.5054 7.36112 41.3514 7.17712 41.413 6.97779C41.5208 6.66346 41.8134 6.55612 42.2677 6.38746C42.6834 6.23412 42.8759 6.25712 42.7835 6.14979C42.7758 6.14212 42.3909 5.73579 41.8519 5.10712C41.7056 4.93846 41.6902 4.69312 41.9058 4.66246C42.0136 4.64712 42.1137 4.67779 42.1907 4.73912C42.3755 4.88479 42.5602 5.03812 42.7296 5.19146C43.0761 5.50579 43.2378 5.78179 43.2609 5.61312C43.4072 4.73912 43.4149 4.54746 43.746 3.02946C43.7845 2.86846 43.8769 2.79179 44 2.79179C44.4389 2.77646 44.231 3.37446 43.9462 4.90779C43.7614 5.89679 43.6382 6.03479 43.8538 5.99646C45.3552 5.75112 44.6314 5.89679 45.486 5.85846C45.5091 5.85846 45.5476 5.88146 45.5553 5.89679C45.5938 6.00412 45.3706 6.05779 44.1617 6.51779C43.8538 6.64046 44.3003 6.65579 44.8316 7.69079C44.8778 7.77512 44.9009 7.86712 44.8239 7.92846C44.7392 8.00512 44.6468 7.95146 44.5698 7.89779C43.8461 7.38412 43.5997 6.77079 43.5227 7.10812C43.053 9.24712 43.1223 9.29312 42.9837 9.30079C42.8682 9.30079 42.8913 9.26246 42.822 8.70279H42.8374Z" fill="#8D3B00"/>
<path d="M1.50599 35.5894C1.42899 34.6004 1.4059 34.4164 1.4059 34.0868C1.4059 33.7954 1.70618 33.7648 1.81397 33.9641C2.08345 34.4548 1.99106 35.4208 2.10655 35.8501C2.35293 35.7121 2.8534 35.2291 3.75424 34.6924C3.77734 34.6848 3.80814 34.6924 3.83124 34.7078C3.95443 34.7921 3.26147 35.5051 2.48382 36.3714C2.99199 36.7164 3.16138 36.8008 3.29227 37.0001C3.38466 37.1304 3.37697 37.3221 3.20758 37.2761C3.00739 37.2148 2.49922 37.0921 2.25284 37.0231C2.12195 36.9848 2.14505 36.9618 2.19894 37.6748C2.30674 39.1084 2.33753 39.1468 2.22974 39.1928C2.16045 39.2234 2.09115 39.2158 2.05265 39.1391C1.99876 39.0318 1.93716 38.9168 1.90636 38.7941C1.65228 37.6671 1.69078 37.4601 1.65998 37.3221C1.62148 37.1228 1.62918 37.2148 0.797636 37.9431C0.720641 38.0121 0.381864 38.2958 0.258672 38.3264C0.089283 38.3648 -0.0416083 38.2114 0.0122881 38.0198C0.12778 37.6364 0.474257 37.3681 1.13641 36.7164C1.2673 36.5938 1.15951 36.6244 0.489656 36.2718C-0.1725 35.9268 0.104682 35.4208 0.381864 35.5128C0.728341 35.6354 1.07482 35.7734 1.42129 35.9114C1.52909 35.9498 1.50599 35.9651 1.50599 35.5894Z" fill="#8D3B00"/>
<path d="M7.70422 19.6561C6.20615 19.5541 5.66603 17.9012 6.58321 17.085C6.82779 16.8606 7.04181 16.8708 7.23544 16.6769C7.46983 16.4423 8.83541 16.6565 9.14114 17.7584C9.44687 18.8399 8.49911 19.7071 7.71441 19.6561H7.70422ZM7.43925 17.3809C7.29658 17.3809 7.1641 17.3605 7.0418 17.4829C6.7055 17.8298 6.68512 18.3195 7.0418 18.6562C7.66345 19.2276 8.40739 18.7991 8.41758 18.2583C8.41758 17.8706 8.18319 17.5237 7.81632 17.4421C7.68384 17.4115 7.56154 17.4013 7.42906 17.3809H7.43925Z" fill="#8D3B00"/>
<path d="M9.96763 14.3104C10.0186 13.5613 10.845 13.2913 11.2531 13.7499C11.3654 13.8722 11.3603 13.9792 11.4572 14.076C11.5745 14.1932 11.4674 14.876 10.9165 15.0288C10.3757 15.1817 9.94212 14.7078 9.96763 14.3155L9.96763 14.3104ZM11.1052 14.1779C11.1052 14.1065 11.1154 14.0403 11.0542 13.9792C10.8808 13.811 10.6359 13.8008 10.4676 13.9792C10.1819 14.29 10.3961 14.662 10.6665 14.6671C10.8603 14.6671 11.0338 14.5499 11.0746 14.3664C11.0899 14.3002 11.095 14.239 11.1052 14.1728L11.1052 14.1779Z" fill="#8D3B00"/>
<path d="M36.4532 38.8277C35.3214 38.7511 34.9133 37.5091 35.6063 36.8957C35.7911 36.7271 35.9528 36.7347 36.099 36.5891C36.2761 36.4127 37.3079 36.5737 37.5388 37.4017C37.7698 38.2144 37.0538 38.8661 36.4609 38.8277H36.4532ZM36.253 37.1181C36.1452 37.1181 36.0451 37.1027 35.9528 37.1947C35.6987 37.4554 35.6833 37.8234 35.9528 38.0764C36.4224 38.5057 36.9845 38.1837 36.9922 37.7774C36.9922 37.4861 36.8151 37.2254 36.5379 37.1641C36.4378 37.1411 36.3454 37.1334 36.2453 37.1181H36.253Z" fill="#8D3B00"/>
<path d="M39.9642 18.9606V18.9376V18.9146C39.8102 17.4886 39.2789 16.1316 38.4243 14.9816C37.5773 13.847 36.4455 12.95 35.1366 12.3826C33.9201 11.7693 32.7113 11.4626 31.5101 11.4626C30.6555 11.4626 29.8163 11.616 29.0078 11.9226C27.7605 12.3903 26.5979 13.226 25.5815 14.3606C23.7337 12.559 21.8704 12.0683 20.5307 11.9993C20.4229 11.9993 20.3228 11.9993 20.215 11.9993C17.8051 11.9993 15.4644 13.226 13.2624 15.6486L13.2239 15.6946C12.1536 16.883 11.0603 18.8456 11.4299 21.7666C10.5367 21.7743 9.32791 22.1193 7.86501 23.3076C6.74088 24.2123 6.24812 25.5616 6.38671 27.325C6.5022 28.8046 7.05656 30.5373 8.0267 32.477C9.05073 34.5163 10.2365 36.1646 10.8447 36.9696C11.2759 37.537 11.6994 38.0353 12.0612 38.411C12.2383 38.595 12.3846 38.733 12.5001 38.8326C12.5463 38.871 12.5848 38.9016 12.6156 38.9246L12.8158 39.0703L13.0314 38.9476C13.6781 38.5796 15.9726 37.238 18.2978 35.3673C18.652 35.076 18.9908 34.7923 19.3142 34.5086C19.9763 35.1526 20.5538 35.674 20.9772 36.0496C21.7857 36.755 22.5633 37.3683 23.2178 37.8206C23.5566 38.0506 23.8568 38.2423 24.1186 38.3803C24.2726 38.4646 24.4112 38.5336 24.5498 38.5873L25.8048 39.0933L26.8674 38.25C27.7297 37.56 30.771 35.0606 33.7199 31.8023C35.6371 29.6863 37.1308 27.6546 38.1779 25.7686C39.5561 23.2846 40.1644 21 39.9873 18.976L39.9642 18.9606ZM17.7974 34.754C15.7416 36.41 13.7166 37.6443 12.8697 38.135C12.7927 38.066 12.708 37.974 12.6079 37.8743C12.2691 37.514 11.8687 37.0386 11.4453 36.4943C10.8447 35.7123 9.69749 34.1023 8.70426 32.1243C7.78802 30.2996 7.24905 28.6206 7.14126 27.256C7.01807 25.738 7.41074 24.6416 8.33468 23.898C9.4588 22.9933 10.5213 22.5256 11.453 22.5256C11.4838 22.5256 11.5146 22.5333 11.5454 22.5333C11.5916 22.748 11.6378 22.9626 11.6994 23.185C12.2922 25.393 13.6088 27.8233 15.6107 30.3916C16.6809 31.764 17.7743 32.96 18.7521 33.9413C18.4441 34.2096 18.1284 34.478 17.7974 34.7463V34.754ZM36.1375 24.6416C35.0673 26.5813 33.5505 28.5133 31.9875 30.246C29.0925 33.4506 26.0666 35.9193 25.4121 36.4406C25.3736 36.4253 25.3121 36.3946 25.212 36.341C25.0349 36.249 24.8116 36.1033 24.5344 35.9116C23.98 35.5283 23.2794 34.984 22.5017 34.294C22.0167 33.8723 21.5008 33.3893 20.9695 32.8756C20.7925 32.6993 20.6077 32.523 20.4229 32.339C19.4219 31.327 18.3979 30.1923 17.4586 28.981C16.7194 28.0303 16.0496 27.0566 15.4798 26.0753C14.8638 25.0173 14.3711 23.9516 14.0554 22.9243C14.0246 22.817 13.9784 22.702 13.9553 22.5946C13.4009 20.5323 13.6165 18.7 14.9562 17.2356C16.8503 15.1426 18.6597 14.2993 20.2381 14.2993C20.3074 14.2993 20.3767 14.2993 20.446 14.2993C22.0783 14.376 23.6721 15.3573 25.0657 17.251L25.7355 18.1633L26.3438 17.2126C27.3447 15.641 28.5535 14.5676 29.8548 14.0693C30.386 13.87 30.9481 13.7626 31.5409 13.7626C32.3648 13.7626 33.2425 13.9773 34.1588 14.4526L34.1896 14.468L34.2204 14.4833C35.1674 14.882 35.9912 15.5336 36.6072 16.354C37.2155 17.1743 37.6004 18.148 37.7082 19.1676C37.8545 20.8236 37.2617 22.702 36.1837 24.6493L36.1375 24.6416Z" fill="#8D3B00"/>
<path d="M39.9274 37.4987L39.7195 37.2994C39.681 37.261 39.6271 37.215 39.5732 37.1537C39.3807 36.9544 39.1421 36.6707 38.8957 36.3487C38.5492 35.8964 37.887 34.9687 37.3096 33.8264C36.7629 32.7377 36.4549 31.7717 36.3933 30.9437C36.3163 29.9777 36.5858 29.234 37.1941 28.7434C38.2874 27.8617 39.1036 27.8234 39.604 27.9384C40.066 28.0534 40.7358 28.4137 41.2517 29.5254L41.3749 29.7937L41.5674 29.5714C42.0756 28.9964 42.6376 28.636 43.1997 28.5287C43.7925 28.4214 44.37 28.5824 44.9167 29.0194L44.9398 29.0347C45.2862 29.2647 45.5711 29.602 45.7559 30.0007C45.9407 30.3917 46.0254 30.8364 45.9946 31.2734C45.933 31.9404 45.6019 32.6687 44.9937 33.443C44.5009 34.0794 43.8233 34.7464 42.9841 35.421C41.86 36.3257 40.7435 37.0157 40.1738 37.3454L39.9274 37.491V37.4987ZM39.1729 28.659C38.7494 28.659 38.2335 28.889 37.6791 29.3414C37.2634 29.671 37.1017 30.1617 37.1556 30.8824C37.2095 31.5954 37.5021 32.4924 37.9948 33.4814C38.5415 34.5777 39.1729 35.4594 39.5039 35.8887C39.6964 36.1417 39.8812 36.3717 40.0429 36.5404C40.5896 36.2107 41.5443 35.5974 42.499 34.8307C43.2921 34.1944 43.9234 33.5657 44.3854 32.9754C44.8936 32.3237 45.1785 31.7257 45.2247 31.212C45.2478 30.913 45.1862 30.5987 45.0553 30.3227C44.9244 30.0467 44.7319 29.8167 44.4855 29.6557L44.4239 29.6097C44.062 29.3184 43.7079 29.2034 43.3383 29.28C42.9456 29.3567 42.5298 29.6327 42.1372 30.0774L41.1593 31.1814L40.5357 29.8474C40.2277 29.188 39.835 28.7894 39.4115 28.682C39.3345 28.6667 39.2498 28.6514 39.1652 28.6514L39.1729 28.659Z" fill="#8D3B00"/>
</svg>
