<svg width="48" height="48" viewBox="0 0 48 48" fill="none" xmlns="http://www.w3.org/2000/svg">
<path d="M43 37C43 37 15.5999 37 5 37M43 37C43 35.7936 43 32.5238 43 30.7143C43 28.9048 42.0952 28 40.2857 28C38.4762 28 9.52381 28 7.71429 28C5.90476 28 5 28.9048 5 30.7143C5 32.5238 5 35.7936 5 37M43 37L5 37" stroke="#373737" stroke-width="2" stroke-linecap="round" stroke-linejoin="round"/>
<path d="M43 32C41.8612 32 40.803 32.4765 39.9183 33.2947C38.899 34.2351 37.5988 34.2351 36.5795 33.2947C35.6947 32.4765 34.6366 32 33.4978 32C32.3589 32 31.3038 32.4765 30.419 33.2947C29.3997 34.2351 28.0995 34.2351 27.0802 33.2947C26.1955 32.4765 25.1373 32 23.9985 32C22.8597 32 21.8015 32.4765 20.9168 33.2947C19.8975 34.2351 18.5973 34.2351 17.578 33.2947C16.6932 32.4765 15.6351 32 14.4963 32C13.3574 32 12.2993 32.4765 11.4145 33.2947C10.3953 34.2351 9.09502 34.2351 8.07575 33.2947C7.19696 32.4765 6.13883 32 5 32" stroke="#373737" stroke-miterlimit="10"/>
<path d="M43 31C43 29.6429 42.9003 29.2591 42.3985 28.2857C42.0084 27.529 37.1208 18.1073 34.9639 13.9497C34.3416 12.7502 33.1042 12 31.7529 12H16.2471C14.8958 12 13.6584 12.7502 13.0361 13.9497C10.8792 18.1073 5.99156 27.529 5.60151 28.2857C5.09974 29.2591 5 29.6429 5 31" stroke="#373737" stroke-width="2" stroke-linecap="round" stroke-linejoin="round"/>
</svg>
