<svg width="48" height="48" viewBox="0 0 48 48" fill="none" xmlns="http://www.w3.org/2000/svg">
<path d="M43 39C43 39 15.5999 39 5 39M43 39C43 37.7936 43 29.5238 43 27.7143C43 25.9048 42.0952 25 40.2857 25C38.4762 25 9.52381 25 7.71429 25C5.90476 25 5 25.9048 5 27.7143C5 29.5238 5 37.7936 5 39M43 39L5 39" stroke="#373737" stroke-width="2" stroke-linecap="round" stroke-linejoin="round"/>
<path d="M43 28C43 26.6429 42.9003 26.2591 42.3985 25.2857C42.0084 24.529 37.1208 15.1073 34.9639 10.9497C34.3416 9.75017 33.1042 9 31.7529 9H16.2471C14.8958 9 13.6584 9.75017 13.0361 10.9497C10.8792 15.1073 5.99156 24.529 5.60151 25.2857C5.09974 26.2591 5 26.6429 5 28" stroke="#373737" stroke-width="2" stroke-linecap="round" stroke-linejoin="round"/>
<path d="M8 35.5C7.72386 35.5 7.5 35.7239 7.5 36C7.5 36.2761 7.72386 36.5 8 36.5V35.5ZM40 36.5C40.2761 36.5 40.5 36.2761 40.5 36C40.5 35.7239 40.2761 35.5 40 35.5V36.5ZM8 36.5H40V35.5H8V36.5Z" fill="#373737"/>
<path d="M8 27.5C7.72386 27.5 7.5 27.7239 7.5 28C7.5 28.2761 7.72386 28.5 8 28.5V27.5ZM40 28.5C40.2761 28.5 40.5 28.2761 40.5 28C40.5 27.7239 40.2761 27.5 40 27.5V28.5ZM8 28.5H40V27.5H8V28.5Z" fill="#373737"/>
<circle cx="10" cy="32" r="2" stroke="#373737"/>
<circle cx="17" cy="32" r="2" stroke="#373737"/>
<circle cx="24" cy="32" r="2" stroke="#373737"/>
<circle cx="31" cy="32" r="2" stroke="#373737"/>
<circle cx="38" cy="32" r="2" stroke="#373737"/>
</svg>
