<svg width="48" height="48" viewBox="0 0 48 48" fill="none" xmlns="http://www.w3.org/2000/svg">
<path d="M43 37C43 37 15.5999 37 5 37M43 37C43 35.7937 43 31.5238 43 29.7143C43 27.9048 42.0952 27 40.2857 27C38.4762 27 9.52381 27 7.71429 27C5.90476 27 5 27.9048 5 29.7143C5 31.5238 5 35.7937 5 37M43 37L5 37" stroke="#373737" stroke-width="2" stroke-linecap="round" stroke-linejoin="round"/>
<path d="M43 30C43 28.6429 42.9003 28.2591 42.3985 27.2857C42.0084 26.529 37.1208 17.1073 34.9639 12.9497C34.3416 11.7502 33.1042 11 31.7529 11H16.2471C14.8958 11 13.6584 11.7502 13.0361 12.9497C10.8792 17.1073 5.99156 26.529 5.60151 27.2857C5.09974 28.2591 5 28.6429 5 30" stroke="#373737" stroke-width="2" stroke-linecap="round" stroke-linejoin="round"/>
<circle cx="10" cy="32" r="2" stroke="#373737"/>
<circle cx="17" cy="32" r="2" stroke="#373737"/>
<circle cx="24" cy="32" r="2" stroke="#373737"/>
<circle cx="31" cy="32" r="2" stroke="#373737"/>
<circle cx="38" cy="32" r="2" stroke="#373737"/>
</svg>
