<svg width="48" height="48" viewBox="0 0 48 48" fill="none" xmlns="http://www.w3.org/2000/svg">
<path d="M43 40C43 40 15.5999 40 5 40M43 40C43 38.7936 43 28.5238 43 26.7143C43 24.9048 42.0952 24 40.2857 24C38.4762 24 9.52381 24 7.71429 24C5.90476 24 5 24.9048 5 26.7143C5 28.5238 5 38.7936 5 40M43 40L5 40" stroke="#373737" stroke-width="2" stroke-linecap="round" stroke-linejoin="round"/>
<path d="M43 27C43 25.6429 42.9003 25.2591 42.3985 24.2857C42.0084 23.529 37.1208 14.1073 34.9639 9.94969C34.3416 8.75017 33.1042 8 31.7529 8H16.2471C14.8958 8 13.6584 8.75017 13.0361 9.94969C10.8792 14.1073 5.99156 23.529 5.60151 24.2857C5.09974 25.2591 5 25.6429 5 27" stroke="#373737" stroke-width="2" stroke-linecap="round" stroke-linejoin="round"/>
<path d="M39.5 18.5C38.541 18.5 38.1499 19.2383 37.4049 19.6473C36.5465 20.1176 35.4516 20.1176 34.5933 19.6473C33.8482 19.2383 32.9571 19 31.9981 19C31.0391 19 30.1506 19.2383 29.4055 19.6473C28.5472 20.1176 27.4522 20.1176 26.5939 19.6473C25.8488 19.2383 24.9578 19 23.9987 19C23.0397 19 22.1487 19.2383 21.4036 19.6473C20.5453 20.1176 19.4503 20.1176 18.592 19.6473C17.8469 19.2383 16.9559 19 15.9969 19C15.0378 19 14.1468 19.2383 13.4017 19.6473C12.5434 20.1176 11.4484 20.1176 10.5901 19.6473C9.85007 19.2383 9.45902 18.5 8.5 18.5" stroke="#373737" stroke-miterlimit="10" stroke-linecap="round"/>
<path d="M37.5 14.5C36.6609 14.5 36.3812 15.2383 35.7293 15.6473C34.9782 16.1176 34.0201 16.1176 33.2691 15.6473C32.6172 15.2383 31.8375 15 30.9983 15C30.1592 15 29.3817 15.2383 28.7298 15.6473C27.9788 16.1176 27.0207 16.1176 26.2696 15.6473C25.6177 15.2383 24.838 15 23.9989 15C23.1598 15 22.3801 15.2383 21.7282 15.6473C20.9771 16.1176 20.019 16.1176 19.268 15.6473C18.6161 15.2383 17.8364 15 16.9972 15C16.1581 15 15.3784 15.2383 14.7265 15.6473C13.9755 16.1176 13.0174 16.1176 12.2663 15.6473C11.6188 15.2383 11.3391 14.5 10.5 14.5" stroke="#373737" stroke-miterlimit="10" stroke-linecap="round"/>
<path d="M35.5 10.5C34.7807 10.5 34.6124 11.2383 34.0536 11.6473C33.4099 12.1176 32.5887 12.1176 31.9449 11.6473C31.3861 11.2383 30.7178 11 29.9986 11C29.2793 11 28.6129 11.2383 28.0541 11.6473C27.4104 12.1176 26.5892 12.1176 25.9454 11.6473C25.3866 11.2383 24.7183 11 23.9991 11C23.2798 11 22.6115 11.2383 22.0527 11.6473C21.409 12.1176 20.5877 12.1176 19.944 11.6473C19.3852 11.2383 18.7169 11 17.9976 11C17.2784 11 16.6101 11.2383 16.0513 11.6473C15.4075 12.1176 14.5863 12.1176 13.9426 11.6473C13.3876 11.2383 13.2193 10.5 12.5 10.5" stroke="#373737" stroke-miterlimit="10" stroke-linecap="round"/>
<rect x="10" y="29" width="3" height="6" rx="1" stroke="#373737"/>
<rect x="15" y="29" width="3" height="6" rx="1" stroke="#373737"/>
<rect x="20" y="29" width="3" height="6" rx="1" stroke="#373737"/>
<rect x="8" y="27" width="32" height="10" rx="2" stroke="#373737"/>
<rect x="25" y="29" width="3" height="6" rx="1" stroke="#373737"/>
<rect x="30" y="29" width="3" height="6" rx="1" stroke="#373737"/>
<rect x="35" y="29" width="3" height="6" rx="1" stroke="#373737"/>
</svg>
