<svg width="48" height="48" viewBox="0 0 48 48" fill="none" xmlns="http://www.w3.org/2000/svg">
<path d="M43 39C43 39 15.5999 39 5 39M43 39C43 37.7936 43 29.5238 43 27.7143C43 25.9048 42.0952 25 40.2857 25C38.4762 25 9.52381 25 7.71429 25C5.90476 25 5 25.9048 5 27.7143C5 29.5238 5 37.7936 5 39M43 39L5 39" stroke="#373737" stroke-width="2" stroke-linecap="round" stroke-linejoin="round"/>
<path d="M43 28C43 26.6429 42.9003 26.2591 42.3985 25.2857C42.0084 24.529 37.1208 15.1073 34.9639 10.9497C34.3416 9.75017 33.1042 9 31.7529 9H16.2471C14.8958 9 13.6584 9.75017 13.0361 10.9497C10.8792 15.1073 5.99156 24.529 5.60151 25.2857C5.09974 26.2591 5 26.6429 5 28" stroke="#373737" stroke-width="2" stroke-linecap="round" stroke-linejoin="round"/>
<path d="M8 27.5C7.72386 27.5 7.5 27.7239 7.5 28C7.5 28.2761 7.72386 28.5 8 28.5V27.5ZM40 28.5C40.2761 28.5 40.5 28.2761 40.5 28C40.5 27.7239 40.2761 27.5 40 27.5V28.5ZM8 28.5H40V27.5H8V28.5Z" fill="#373737"/>
<path d="M12.5 30C12.5 29.7239 12.2761 29.5 12 29.5C11.7239 29.5 11.5 29.7239 11.5 30L12.5 30ZM11.5 36C11.5 36.2761 11.7239 36.5 12 36.5C12.2761 36.5 12.5 36.2761 12.5 36L11.5 36ZM11.5 30L11.5 36L12.5 36L12.5 30L11.5 30Z" fill="#373737"/>
<path d="M16.5 30C16.5 29.7239 16.2761 29.5 16 29.5C15.7239 29.5 15.5 29.7239 15.5 30L16.5 30ZM15.5 36C15.5 36.2761 15.7239 36.5 16 36.5C16.2761 36.5 16.5 36.2761 16.5 36L15.5 36ZM15.5 30L15.5 36L16.5 36L16.5 30L15.5 30Z" fill="#373737"/>
<path d="M20.5 30C20.5 29.7239 20.2761 29.5 20 29.5C19.7239 29.5 19.5 29.7239 19.5 30L20.5 30ZM19.5 36C19.5 36.2761 19.7239 36.5 20 36.5C20.2761 36.5 20.5 36.2761 20.5 36L19.5 36ZM19.5 30L19.5 36L20.5 36L20.5 30L19.5 30Z" fill="#373737"/>
<path d="M24.5 30C24.5 29.7239 24.2761 29.5 24 29.5C23.7239 29.5 23.5 29.7239 23.5 30L24.5 30ZM23.5 36C23.5 36.2761 23.7239 36.5 24 36.5C24.2761 36.5 24.5 36.2761 24.5 36L23.5 36ZM23.5 30L23.5 36L24.5 36L24.5 30L23.5 30Z" fill="#373737"/>
<path d="M28.5 30C28.5 29.7239 28.2761 29.5 28 29.5C27.7239 29.5 27.5 29.7239 27.5 30L28.5 30ZM27.5 36C27.5 36.2761 27.7239 36.5 28 36.5C28.2761 36.5 28.5 36.2761 28.5 36L27.5 36ZM27.5 30L27.5 36L28.5 36L28.5 30L27.5 30Z" fill="#373737"/>
<path d="M32.5 30C32.5 29.7239 32.2761 29.5 32 29.5C31.7239 29.5 31.5 29.7239 31.5 30L32.5 30ZM31.5 36C31.5 36.2761 31.7239 36.5 32 36.5C32.2761 36.5 32.5 36.2761 32.5 36L31.5 36ZM31.5 30L31.5 36L32.5 36L32.5 30L31.5 30Z" fill="#373737"/>
<path d="M36.5 30C36.5 29.7239 36.2761 29.5 36 29.5C35.7239 29.5 35.5 29.7239 35.5 30L36.5 30ZM35.5 36C35.5 36.2761 35.7239 36.5 36 36.5C36.2761 36.5 36.5 36.2761 36.5 36L35.5 36ZM35.5 30L35.5 36L36.5 36L36.5 30L35.5 30Z" fill="#373737"/>
<rect x="8" y="30" width="32" height="6" rx="2" stroke="#373737"/>
</svg>
