<svg width="48" height="48" viewBox="0 0 48 48" fill="none" xmlns="http://www.w3.org/2000/svg">
<path d="M16 7.00009L40 7.00009M16 37.0001C16 40.3138 18.6863 43.0001 22 43.0001L34 43.0001C37.3137 43.0001 40 40.3138 40 37.0001M16 7.00009L16 37.0001C16 40.3138 18.6863 43.0001 22 43.0001L34 43.0001C37.3137 43.0001 40 40.3138 40 37.0001L40 7.00009L16 7.00009Z" stroke="#373737" stroke-width="2" stroke-linecap="round" stroke-linejoin="round"/>
<path d="M8.5 25.5L16 38L10 38C8.89543 38 8 37.1046 8 36L8 27C8 25.8955 8.89543 25 10 25L16 25L8.5 37.5" stroke="#373737" stroke-linecap="round" stroke-linejoin="round"/>
<path d="M8.5 10.5L16 23L10 23C8.89543 23 8 22.1046 8 21L8 12C8 10.8955 8.89543 10 10 10L16 10L8.5 22.5" stroke="#373737" stroke-linecap="round" stroke-linejoin="round"/>
<path d="M22 13.0001C22 11.8955 22.8954 11.0001 24 11.0001H32C33.1046 11.0001 34 11.8955 34 13.0001C34 14.1046 33.1046 15.0001 32 15.0001H24C22.8954 15.0001 22 14.1046 22 13.0001Z" stroke="#373737" stroke-width="2" stroke-linecap="round" stroke-linejoin="round"/>
<path d="M16 7.00006H40C40 9.2092 38.2091 11.0001 36 11.0001H20C17.7909 11.0001 16 9.2092 16 7.00006Z" stroke="#373737" stroke-width="2" stroke-linecap="round" stroke-linejoin="round"/>
</svg>
