<svg width="24" height="42" viewBox="0 0 24 42" fill="none" xmlns="http://www.w3.org/2000/svg">
<path d="M22.5 1.5V30C22.5 32.4825 20.4825 34.5 18 34.5H6C3.5175 34.5 1.5 32.4825 1.5 30V1.5H22.5ZM24 0H0V30C0 33.315 2.685 36 6 36H18C21.315 36 24 33.315 24 30V0Z" fill="#373737"/>
<path d="M22.245 1.5C21.6225 3.2475 19.9575 4.5 18 4.5H6C4.0425 4.5 2.3775 3.2475 1.755 1.5H22.245ZM24 0H0C0 3.315 2.685 6 6 6H18C21.315 6 24 3.315 24 0Z" fill="#373737"/>
<path d="M16.5 6C17.325 6 18 6.675 18 7.5C18 8.325 17.325 9 16.5 9H7.5C6.675 9 6 8.325 6 7.5C6 6.675 6.675 6 7.5 6H16.5ZM16.5 4.5H7.5C5.8425 4.5 4.5 5.8425 4.5 7.5C4.5 9.1575 5.8425 10.5 7.5 10.5H16.5C18.1575 10.5 19.5 9.1575 19.5 7.5C19.5 5.8425 18.1575 4.5 16.5 4.5Z" fill="#373737"/>
<path d="M10.4423 35.9286L3.4502 40.5714" stroke="#373737" stroke-miterlimit="10"/>
<path d="M3.92857 35.9286L9.96429 35.9286L9.96429 39.6429C9.96429 40.1536 9.54643 40.5714 9.03571 40.5714L4.85714 40.5714C4.34643 40.5714 3.92857 40.1536 3.92857 39.6429L3.92857 35.9286ZM3 35L3 39.6429C3 40.6689 3.83107 41.5 4.85714 41.5L9.03571 41.5C10.0618 41.5 10.8929 40.6689 10.8929 39.6429L10.8929 35L3 35Z" fill="#373737"/>
<path d="M10.4425 40.5714L3.45038 35.9286" stroke="#373737" stroke-miterlimit="10"/>
<path d="M20.4423 35.9286L13.4502 40.5714" stroke="#373737" stroke-miterlimit="10"/>
<path d="M13.9286 35.9286L19.9643 35.9286L19.9643 39.6429C19.9643 40.1536 19.5464 40.5714 19.0357 40.5714L14.8571 40.5714C14.3464 40.5714 13.9286 40.1536 13.9286 39.6429L13.9286 35.9286ZM13 35L13 39.6429C13 40.6689 13.8311 41.5 14.8571 41.5L19.0357 41.5C20.0618 41.5 20.8929 40.6689 20.8929 39.6429L20.8929 35L13 35Z" fill="#373737"/>
<path d="M20.4423 40.5714L13.4502 35.9286" stroke="#373737" stroke-miterlimit="10"/>
</svg>
