<svg width="24" height="43" viewBox="0 0 24 43" fill="none" xmlns="http://www.w3.org/2000/svg">
<path d="M22.5 1.5V30C22.5 32.4825 20.4825 34.5 18 34.5H6C3.5175 34.5 1.5 32.4825 1.5 30V1.5H22.5ZM24 0H0V30C0 33.315 2.685 36 6 36H18C21.315 36 24 33.315 24 30V0Z" fill="#373737"/>
<path d="M22.245 1.5C21.6225 3.2475 19.9575 4.5 18 4.5H6C4.0425 4.5 2.3775 3.2475 1.755 1.5H22.245ZM24 0H0C0 3.315 2.685 6 6 6H18C21.315 6 24 3.315 24 0Z" fill="#373737"/>
<path d="M16.5 6C17.325 6 18 6.675 18 7.5C18 8.325 17.325 9 16.5 9H7.5C6.675 9 6 8.325 6 7.5C6 6.675 6.675 6 7.5 6H16.5ZM16.5 4.5H7.5C5.8425 4.5 4.5 5.8425 4.5 7.5C4.5 9.1575 5.8425 10.5 7.5 10.5H16.5C18.1575 10.5 19.5 9.1575 19.5 7.5C19.5 5.8425 18.1575 4.5 16.5 4.5Z" fill="#373737"/>
<path d="M4.28571 36.0119L19.7143 36.0119L19.7143 40.0595C19.7143 40.6161 17.9294 41.0714 16.7647 41.0714L7.23529 41.0714C6.07059 41.0714 4.28571 40.6161 4.28571 40.0595L4.28571 36.0119ZM3 35L3 40.0595C3 41.1777 4.89529 42.0833 7.23529 42.0833L16.7647 42.0833C19.1047 42.0833 21 41.1777 21 40.0595L21 35L3 35Z" fill="#373737"/>
<path d="M19.9727 36.0116L4.02686 41.0711" stroke="#373737" stroke-miterlimit="10"/>
<path d="M19.9409 40.9998L4.05859 35.9998" stroke="#373737" stroke-miterlimit="10"/>
</svg>
