<svg width="90" height="90" viewBox="0 0 90 90" fill="none" xmlns="http://www.w3.org/2000/svg">
<path d="M57.5 14.5V43C57.5 45.4825 55.4825 47.5 53 47.5H41C38.5175 47.5 36.5 45.4825 36.5 43V14.5H57.5ZM59 13H35V43C35 46.315 37.685 49 41 49H53C56.315 49 59 46.315 59 43V13Z" fill="#373737"/>
<path d="M57.245 14.5C56.6225 16.2475 54.9575 17.5 53 17.5H41C39.0425 17.5 37.3775 16.2475 36.755 14.5H57.245ZM59 13H35C35 16.315 37.685 19 41 19H53C56.315 19 59 16.315 59 13Z" fill="#373737"/>
<path d="M51.5 19C52.325 19 53 19.675 53 20.5C53 21.325 52.325 22 51.5 22H42.5C41.675 22 41 21.325 41 20.5C41 19.675 41.675 19 42.5 19H51.5ZM51.5 17.5H42.5C40.8425 17.5 39.5 18.8425 39.5 20.5C39.5 22.1575 40.8425 23.5 42.5 23.5H51.5C53.1575 23.5 54.5 22.1575 54.5 20.5C54.5 18.8425 53.1575 17.5 51.5 17.5Z" fill="#373737"/>
<path d="M35 32.5V42.25H29C28.175 42.25 27.5 41.575 27.5 40.75V34C27.5 33.175 28.175 32.5 29 32.5H35ZM36.5 31H29C27.3425 31 26 32.3425 26 34V40.75C26 42.4075 27.3425 43.75 29 43.75H36.5V31Z" fill="#373737"/>
<path d="M35 43.0225L27.5 31.7275" stroke="#373737" stroke-miterlimit="10"/>
<path d="M27.5 43.0225L35 31.7275" stroke="#373737" stroke-miterlimit="10"/>
<path d="M35 17.5V27.25H29C28.175 27.25 27.5 26.575 27.5 25.75V19C27.5 18.175 28.175 17.5 29 17.5H35ZM36.5 16H29C27.3425 16 26 17.3425 26 19V25.75C26 27.4075 27.3425 28.75 29 28.75H36.5V16Z" fill="#373737"/>
<path d="M35 28.0225L27.5 16.7275" stroke="#373737" stroke-miterlimit="10"/>
<path d="M27.5 28.0225L35 16.7275" stroke="#373737" stroke-miterlimit="10"/>
<path d="M59.5 42.25L59.5 32.5L65.5 32.5C66.325 32.5 67 33.175 67 34L67 40.75C67 41.575 66.325 42.25 65.5 42.25L59.5 42.25ZM58 43.75L65.5 43.75C67.1575 43.75 68.5 42.4075 68.5 40.75L68.5 34C68.5 32.3425 67.1575 31 65.5 31L58 31L58 43.75Z" fill="#373737"/>
<path d="M59.5 27.25L59.5 17.5L65.5 17.5C66.325 17.5 67 18.175 67 19L67 25.75C67 26.575 66.325 27.25 65.5 27.25L59.5 27.25ZM58 28.75L65.5 28.75C67.1575 28.75 68.5 27.4075 68.5 25.75L68.5 19C68.5 17.3425 67.1575 16 65.5 16L58 16L58 28.75Z" fill="#373737"/>
<path d="M59.5 31.7275L67 43.0225" stroke="#373737" stroke-miterlimit="10"/>
<path d="M59.5 16.7275L67 28.0225" stroke="#373737" stroke-miterlimit="10"/>
<path d="M66.5 31.7275L59 43.0225" stroke="#373737" stroke-miterlimit="10"/>
<path d="M67 16.7275L59.5 28.0225" stroke="#373737" stroke-miterlimit="10"/>
</svg>
