<svg width="40" height="36" viewBox="0 0 40 36" fill="none" xmlns="http://www.w3.org/2000/svg">
<path d="M31.5 1.5V30C31.5 32.4825 29.4825 34.5 27 34.5H15C12.5175 34.5 10.5 32.4825 10.5 30V1.5H31.5ZM33 0H9V30C9 33.315 11.685 36 15 36H27C30.315 36 33 33.315 33 30V0Z" fill="#373737"/>
<path d="M31.245 1.5C30.6225 3.2475 28.9575 4.5 27 4.5H15C13.0425 4.5 11.3775 3.2475 10.755 1.5H31.245ZM33 0H9C9 3.315 11.685 6 15 6H27C30.315 6 33 3.315 33 0Z" fill="#373737"/>
<path d="M25.5 6C26.325 6 27 6.675 27 7.5C27 8.325 26.325 9 25.5 9H16.5C15.675 9 15 8.325 15 7.5C15 6.675 15.675 6 16.5 6H25.5ZM25.5 4.5H16.5C14.8425 4.5 13.5 5.8425 13.5 7.5C13.5 9.1575 14.8425 10.5 16.5 10.5H25.5C27.1575 10.5 28.5 9.1575 28.5 7.5C28.5 5.8425 27.1575 4.5 25.5 4.5Z" fill="#373737"/>
<path d="M33.4706 30.2857L33.4706 9.71429L37.5182 9.71429C38.0747 9.71429 38.5301 12.0941 38.5301 13.6471L38.5301 26.3529C38.5301 27.9059 38.0747 30.2857 37.5182 30.2857L33.4706 30.2857ZM32.4587 32L37.5182 32C38.6363 32 39.542 29.4729 39.542 26.3529L39.542 13.6471C39.542 10.5271 38.6363 8 37.5182 8L32.4587 8L32.4587 32Z" fill="#373737"/>
<path d="M33.4703 9.36945L38.5298 30.6306" stroke="#373737" stroke-miterlimit="10"/>
<path d="M38.4585 9.41177L33.4585 30.5882" stroke="#373737" stroke-miterlimit="10"/>
</svg>
