<svg width="33" height="42" viewBox="0 0 33 42" fill="none" xmlns="http://www.w3.org/2000/svg">
<path d="M31.5 1.5V30C31.5 32.4825 29.4825 34.5 27 34.5H15C12.5175 34.5 10.5 32.4825 10.5 30V1.5H31.5ZM33 0H9V30C9 33.315 11.685 36 15 36H27C30.315 36 33 33.315 33 30V0Z" fill="#373737"/>
<path d="M31.245 1.5C30.6225 3.2475 28.9575 4.5 27 4.5H15C13.0425 4.5 11.3775 3.2475 10.755 1.5H31.245ZM33 0H9C9 3.315 11.685 6 15 6H27C30.315 6 33 3.315 33 0Z" fill="#373737"/>
<path d="M25.5 6C26.325 6 27 6.675 27 7.5C27 8.325 26.325 9 25.5 9H16.5C15.675 9 15 8.325 15 7.5C15 6.675 15.675 6 16.5 6H25.5ZM25.5 4.5H16.5C14.8425 4.5 13.5 5.8425 13.5 7.5C13.5 9.1575 14.8425 10.5 16.5 10.5H25.5C27.1575 10.5 28.5 9.1575 28.5 7.5C28.5 5.8425 27.1575 4.5 25.5 4.5Z" fill="#373737"/>
<path d="M19.4423 35.9286L12.4502 40.5714" stroke="#373737" stroke-miterlimit="10"/>
<path d="M12.9286 35.9286L18.9643 35.9286L18.9643 39.6429C18.9643 40.1536 18.5464 40.5714 18.0357 40.5714L13.8571 40.5714C13.3464 40.5714 12.9286 40.1536 12.9286 39.6429L12.9286 35.9286ZM12 35L12 39.6429C12 40.6689 12.8311 41.5 13.8571 41.5L18.0357 41.5C19.0618 41.5 19.8929 40.6689 19.8929 39.6429L19.8929 35L12 35Z" fill="#373737"/>
<path d="M19.4423 40.5714L12.4502 35.9286" stroke="#373737" stroke-miterlimit="10"/>
<path d="M29.4423 35.9286L22.4502 40.5714" stroke="#373737" stroke-miterlimit="10"/>
<path d="M22.9286 35.9286L28.9643 35.9286L28.9643 39.6429C28.9643 40.1536 28.5464 40.5714 28.0357 40.5714L23.8571 40.5714C23.3464 40.5714 22.9286 40.1536 22.9286 39.6429L22.9286 35.9286ZM22 35L22 39.6429C22 40.6689 22.8311 41.5 23.8571 41.5L28.0357 41.5C29.0618 41.5 29.8929 40.6689 29.8929 39.6429L29.8929 35L22 35Z" fill="#373737"/>
<path d="M29.4423 40.5714L22.4502 35.9286" stroke="#373737" stroke-miterlimit="10"/>
</svg>
