<svg width="80" height="24" viewBox="0 0 80 24" fill="none" xmlns="http://www.w3.org/2000/svg">
<path d="M49.4077 18.7689C44.7797 22.1801 38.0716 24.0001 32.2961 24.0001C24.1979 24.0001 16.9074 21.0049 11.3919 16.0233C10.9585 15.6316 11.3468 15.0977 11.8668 15.4028C17.8191 18.866 25.1789 20.9495 32.7814 20.9495C37.9087 20.9495 43.549 19.8887 48.7352 17.6873C49.5186 17.3545 50.1738 18.2004 49.4077 18.7689Z" fill="#FF9900"/>
<path d="M51.3325 16.567C50.7432 15.8113 47.4221 16.2099 45.9314 16.3867C45.4773 16.4422 45.408 16.047 45.817 15.7627C48.4621 13.9011 52.8024 14.4385 53.3086 15.0625C53.8147 15.6899 53.1768 20.0406 50.6912 22.1171C50.3099 22.4361 49.9459 22.2662 50.1157 21.8433C50.6739 20.4497 51.9254 17.3262 51.3325 16.567Z" fill="#FF9900"/>
<path d="M46.0353 2.62072V0.811115C46.0353 0.537249 46.2433 0.353516 46.4929 0.353516H54.5946C54.8546 0.353516 55.0626 0.540716 55.0626 0.811115V2.36072C55.0591 2.62072 54.8407 2.96045 54.4524 3.49778L50.2543 9.49165C51.8143 9.45352 53.461 9.68578 54.8754 10.4831C55.1943 10.6634 55.281 10.9269 55.3052 11.1869V13.1178C55.3052 13.3813 55.014 13.6898 54.709 13.5303C52.2164 12.2234 48.9057 12.0813 46.1497 13.5442C45.8689 13.6967 45.5742 13.3917 45.5742 13.1282V11.2943C45.5742 10.9997 45.5777 10.497 45.8724 10.0498L50.7361 3.07485H46.5033C46.2433 3.07485 46.0353 2.89112 46.0353 2.62072Z" fill="#221F1F"/>
<path d="M16.4793 13.9115H14.0145C13.7788 13.8942 13.5916 13.7174 13.5742 13.492V0.842163C13.5742 0.589096 13.7857 0.388028 14.0492 0.388028H16.3476C16.5868 0.398421 16.7774 0.582161 16.7948 0.81096V2.46456H16.8399C17.4396 0.866427 18.5663 0.121094 20.0847 0.121094C21.6274 0.121094 22.5911 0.866427 23.2844 2.46456C23.8807 0.866427 25.2362 0.121094 26.6887 0.121094C27.7218 0.121094 28.852 0.547494 29.5418 1.50429C30.3218 2.56856 30.1624 4.11469 30.1624 5.47016L30.1589 13.4539C30.1589 13.707 29.9474 13.9115 29.684 13.9115H27.2226C26.9765 13.8942 26.7789 13.6966 26.7789 13.4539V6.74936C26.7789 6.2155 26.8274 4.8843 26.7095 4.37816C26.5258 3.52883 25.9746 3.28963 25.2605 3.28963C24.6642 3.28963 24.0402 3.68829 23.7871 4.32616C23.534 4.96403 23.5583 6.03176 23.5583 6.74936V13.4539C23.5583 13.707 23.3468 13.9115 23.0834 13.9115H20.622C20.3724 13.8942 20.1783 13.6966 20.1783 13.4539L20.1748 6.74936C20.1748 5.33843 20.4071 3.26189 18.6564 3.26189C16.8849 3.26189 16.9543 5.28643 16.9543 6.74936V13.4539C16.9543 13.707 16.7428 13.9115 16.4793 13.9115Z" fill="#221F1F"/>
<path d="M62.037 0.121094C65.6943 0.121094 67.6738 3.26189 67.6738 7.2555C67.6738 11.1139 65.4863 14.175 62.037 14.175C58.4455 14.175 56.4902 11.0342 56.4902 7.1203C56.4902 3.18216 58.4697 0.121094 62.037 0.121094ZM62.0578 2.70376C60.2412 2.70376 60.1268 5.17896 60.1268 6.72163C60.1268 8.26776 60.1025 11.568 62.037 11.568C63.9471 11.568 64.0372 8.90563 64.0372 7.28323C64.0372 6.2155 63.9922 4.93976 63.6698 3.92749C63.3924 3.04696 62.8412 2.70376 62.0578 2.70376Z" fill="#221F1F"/>
<path d="M72.4172 13.9115H69.9628C69.7167 13.8942 69.5191 13.6966 69.5191 13.4539L69.5156 0.80056C69.5364 0.568293 69.741 0.388028 69.9906 0.388028H72.2751C72.49 0.398421 72.6668 0.544028 72.7154 0.741628V2.67603H72.7605C73.4503 0.946161 74.4175 0.121094 76.1197 0.121094C77.2256 0.121094 78.3037 0.519761 78.997 1.61176C79.6419 2.62403 79.6419 4.32616 79.6419 5.54989V13.5128C79.6141 13.7347 79.4096 13.9115 79.1669 13.9115H76.6952C76.4698 13.8942 76.2826 13.7278 76.2584 13.5128V6.6419C76.2584 5.2587 76.4178 3.23416 74.7157 3.23416C74.1159 3.23416 73.5647 3.6363 73.2909 4.24643C72.9442 5.0195 72.8991 5.7891 72.8991 6.6419V13.4539C72.8957 13.707 72.6807 13.9115 72.4172 13.9115Z" fill="#221F1F"/>
<path d="M7.26273 7.86934V7.33547C5.48085 7.33547 3.59843 7.7168 3.59843 9.8176C3.59843 10.8819 4.14964 11.6029 5.09605 11.6029C5.78939 11.6029 6.40992 11.1765 6.80166 10.4832C7.287 9.6304 7.26273 8.8296 7.26273 7.86934ZM9.74836 13.8771C9.58542 14.0227 9.34968 14.0331 9.16595 13.936C8.34781 13.2565 8.20221 12.9411 7.75154 12.2928C6.39952 13.6725 5.44272 14.0851 3.68857 14.0851C1.61548 14.0851 0 12.8059 0 10.244C0 8.24374 1.08508 6.88134 2.62776 6.21574C3.9659 5.6264 5.83445 5.5224 7.26273 5.35947V5.04054C7.26273 4.45467 7.3078 3.76133 6.9646 3.2552C6.66299 2.80107 6.08752 2.61387 5.58138 2.61387C4.64191 2.61387 3.80297 3.09573 3.59843 4.09413C3.55683 4.316 3.3939 4.5344 3.17203 4.5448L0.780007 4.28827C0.578938 4.2432 0.357069 4.08027 0.412537 3.77174C0.963742 0.873602 3.5811 0 5.92459 0C7.12406 0 8.69101 0.318933 9.63742 1.2272C10.8369 2.34693 10.7225 3.84107 10.7225 5.46694V9.308C10.7225 10.4624 11.2009 10.9685 11.6516 11.5925C11.811 11.8144 11.8457 12.0813 11.6446 12.2477C11.142 12.6672 10.2476 13.4472 9.75529 13.884L9.74836 13.8771" fill="#221F1F"/>
<path d="M39.1299 7.86934V7.33547C37.348 7.33547 35.4656 7.7168 35.4656 9.8176C35.4656 10.8819 36.0168 11.6029 36.9632 11.6029C37.6566 11.6029 38.2771 11.1765 38.6688 10.4832C39.1542 9.6304 39.1299 8.8296 39.1299 7.86934ZM41.6155 13.8771C41.4526 14.0227 41.2169 14.0331 41.0331 13.936C40.215 13.2565 40.0694 12.9411 39.6187 12.2928C38.2667 13.6725 37.3099 14.0851 35.5558 14.0851C33.4827 14.0851 31.8672 12.8059 31.8672 10.244C31.8672 8.24374 32.9523 6.88134 34.4949 6.21574C35.8331 5.6264 37.7016 5.5224 39.1299 5.35947V5.04054C39.1299 4.45467 39.175 3.76133 38.8318 3.2552C38.5302 2.80107 37.9547 2.61387 37.4486 2.61387C36.5091 2.61387 35.6702 3.09573 35.4656 4.09413C35.424 4.316 35.2611 4.5344 35.0392 4.5448L32.6472 4.28827C32.4461 4.2432 32.2243 4.08027 32.2797 3.77174C32.8309 0.873602 35.4483 0 37.7918 0C38.9913 0 40.5582 0.318933 41.5046 1.2272C42.7041 2.34693 42.5897 3.84107 42.5897 5.46694V9.308C42.5897 10.4624 43.0681 10.9685 43.5188 11.5925C43.6782 11.8144 43.7129 12.0813 43.5118 12.2477C43.0092 12.6672 42.1147 13.4472 41.6225 13.884L41.6155 13.8771" fill="#221F1F"/>
</svg>
