<svg width="122" height="18" viewBox="0 0 122 18" fill="none" xmlns="http://www.w3.org/2000/svg">
<g clip-path="url(#clip0_830_734)">
<path d="M17.5224 6.4378L11.9889 5.59255L9.50861 0.309547C9.32336 -0.0849531 8.67611 -0.0849531 8.49086 0.309547L6.01136 5.59255L0.477862 6.4378C0.0233619 6.50755 -0.158138 7.0603 0.160612 7.38655L4.18061 11.507L3.23036 17.3323C3.15461 17.795 3.64886 18.1423 4.05761 17.915L9.00011 15.1835L13.9426 17.9158C14.3476 18.1408 14.8464 17.8003 14.7699 17.333L13.8196 11.5078L17.8396 7.3873C18.1584 7.0603 17.9761 6.50755 17.5224 6.4378Z" fill="#3FA9DE"/>
</g>
<g clip-path="url(#clip1_830_734)">
<path d="M43.5224 6.4378L37.9889 5.59255L35.5086 0.309547C35.3234 -0.0849531 34.6761 -0.0849531 34.4909 0.309547L32.0114 5.59255L26.4779 6.4378C26.0234 6.50755 25.8419 7.0603 26.1606 7.38655L30.1806 11.507L29.2304 17.3323C29.1546 17.795 29.6489 18.1423 30.0576 17.915L35.0001 15.1835L39.9426 17.9158C40.3476 18.1408 40.8464 17.8003 40.7699 17.333L39.8196 11.5078L43.8396 7.3873C44.1584 7.0603 43.9761 6.50755 43.5224 6.4378Z" fill="#3FA9DE"/>
</g>
<g clip-path="url(#clip2_830_734)">
<path d="M69.5224 6.4378L63.9889 5.59255L61.5086 0.309547C61.3234 -0.0849531 60.6761 -0.0849531 60.4909 0.309547L58.0114 5.59255L52.4779 6.4378C52.0234 6.50755 51.8419 7.0603 52.1606 7.38655L56.1806 11.507L55.2304 17.3323C55.1546 17.795 55.6489 18.1423 56.0576 17.915L61.0001 15.1835L65.9426 17.9158C66.3476 18.1408 66.8464 17.8003 66.7699 17.333L65.8196 11.5078L69.8396 7.3873C70.1584 7.0603 69.9761 6.50755 69.5224 6.4378Z" fill="#3FA9DE"/>
</g>
<g clip-path="url(#clip3_830_734)">
<path d="M95.5224 6.4378L89.9889 5.59255L87.5086 0.309547C87.3234 -0.0849531 86.6761 -0.0849531 86.4909 0.309547L84.0114 5.59255L78.4779 6.4378C78.0234 6.50755 77.8419 7.0603 78.1606 7.38655L82.1806 11.507L81.2304 17.3323C81.1546 17.795 81.6489 18.1423 82.0576 17.915L87.0001 15.1835L91.9426 17.9158C92.3476 18.1408 92.8464 17.8003 92.7699 17.333L91.8196 11.5078L95.8396 7.3873C96.1584 7.0603 95.9761 6.50755 95.5224 6.4378Z" fill="#3FA9DE"/>
</g>
<g clip-path="url(#clip4_830_734)">
<path d="M115.536 5.80503L115.65 6.04653L115.913 6.08681L121.446 6.93199C121.446 6.932 121.446 6.932 121.446 6.93201C121.464 6.93475 121.473 6.94048 121.478 6.94512C121.485 6.95105 121.492 6.96069 121.496 6.97384C121.501 6.98701 121.501 6.99929 121.499 7.0086C121.497 7.01606 121.494 7.02584 121.482 7.03829L117.462 11.1586L117.286 11.3393L117.326 11.5883L118.276 17.4135L118.276 17.4138C118.28 17.4326 118.276 17.4421 118.274 17.4478C118.27 17.4555 118.263 17.4653 118.251 17.4737C118.239 17.4822 118.226 17.486 118.217 17.4867C118.209 17.4873 118.199 17.4865 118.185 17.4787L118.185 17.4782L113.242 14.746L113 14.6123L112.758 14.7459L107.816 17.4774L107.815 17.478C107.8 17.4864 107.79 17.4869 107.783 17.4864C107.774 17.4857 107.762 17.4821 107.75 17.4735C107.738 17.465 107.73 17.4548 107.727 17.4464C107.724 17.44 107.721 17.4305 107.724 17.4131L107.724 17.4128L108.674 11.5875L108.715 11.3385L108.539 11.1579L104.519 7.03738L104.518 7.03713C104.506 7.02484 104.503 7.01521 104.501 7.0079C104.499 6.99874 104.499 6.98662 104.504 6.9736C104.508 6.96062 104.515 6.95109 104.522 6.94521C104.527 6.94063 104.536 6.93482 104.554 6.93204C104.554 6.93203 104.554 6.93202 104.554 6.93201L110.087 6.08681L110.351 6.04652L110.464 5.80498L112.941 0.52671C112.942 0.526423 112.942 0.52609 112.943 0.52571C112.952 0.520536 112.972 0.513672 113 0.513672C113.027 0.513672 113.047 0.520536 113.056 0.52571C113.057 0.52609 113.058 0.526424 113.058 0.526711L115.536 5.80503Z" fill="url(#paint0_linear_830_734)" stroke="#1EA5E0"/>
</g>
<defs>
<linearGradient id="paint0_linear_830_734" x1="113" y1="9" x2="122" y2="9" gradientUnits="userSpaceOnUse">
<stop stop-color="#1EA5E0"/>
<stop stop-color="white"/>
</linearGradient>
<clipPath id="clip0_830_734">
<rect width="18" height="18" fill="white"/>
</clipPath>
<clipPath id="clip1_830_734">
<rect width="18" height="18" fill="white" transform="translate(26)"/>
</clipPath>
<clipPath id="clip2_830_734">
<rect width="18" height="18" fill="white" transform="translate(52)"/>
</clipPath>
<clipPath id="clip3_830_734">
<rect width="18" height="18" fill="white" transform="translate(78)"/>
</clipPath>
<clipPath id="clip4_830_734">
<rect width="18" height="18" fill="white" transform="translate(104)"/>
</clipPath>
</defs>
</svg>
