<svg width="122" height="18" viewBox="0 0 122 18" fill="none" xmlns="http://www.w3.org/2000/svg">
<g clip-path="url(#clip0_901_823)">
<path d="M17.5224 6.4378L11.9889 5.59255L9.50861 0.309547C9.32336 -0.0849531 8.67611 -0.0849531 8.49086 0.309547L6.01136 5.59255L0.477862 6.4378C0.0233619 6.50755 -0.158138 7.0603 0.160612 7.38655L4.18061 11.507L3.23036 17.3323C3.15461 17.795 3.64886 18.1423 4.05761 17.915L9.00011 15.1835L13.9426 17.9158C14.3476 18.1408 14.8464 17.8003 14.7699 17.333L13.8196 11.5078L17.8396 7.3873C18.1584 7.0603 17.9761 6.50755 17.5224 6.4378Z" fill="#3FA9DE"/>
</g>
<g clip-path="url(#clip1_901_823)">
<path d="M43.5224 6.4378L37.9889 5.59255L35.5086 0.309547C35.3234 -0.0849531 34.6761 -0.0849531 34.4909 0.309547L32.0114 5.59255L26.4779 6.4378C26.0234 6.50755 25.8419 7.0603 26.1606 7.38655L30.1806 11.507L29.2304 17.3323C29.1546 17.795 29.6489 18.1423 30.0576 17.915L35.0001 15.1835L39.9426 17.9158C40.3476 18.1408 40.8464 17.8003 40.7699 17.333L39.8196 11.5078L43.8396 7.3873C44.1584 7.0603 43.9761 6.50755 43.5224 6.4378Z" fill="#3FA9DE"/>
</g>
<g clip-path="url(#clip2_901_823)">
<path d="M69.5224 6.4378L63.9889 5.59255L61.5086 0.309547C61.3234 -0.0849531 60.6761 -0.0849531 60.4909 0.309547L58.0114 5.59255L52.4779 6.4378C52.0234 6.50755 51.8419 7.0603 52.1606 7.38655L56.1806 11.507L55.2304 17.3323C55.1546 17.795 55.6489 18.1423 56.0576 17.915L61.0001 15.1835L65.9426 17.9158C66.3476 18.1408 66.8464 17.8003 66.7699 17.333L65.8196 11.5078L69.8396 7.3873C70.1584 7.0603 69.9761 6.50755 69.5224 6.4378Z" fill="#3FA9DE"/>
</g>
<g clip-path="url(#clip3_901_823)">
<path d="M95.5224 6.4378L89.9889 5.59255L87.5086 0.309547C87.3234 -0.0849531 86.6761 -0.0849531 86.4909 0.309547L84.0114 5.59255L78.4779 6.4378C78.0234 6.50755 77.8419 7.0603 78.1606 7.38655L82.1806 11.507L81.2304 17.3323C81.1546 17.795 81.6489 18.1423 82.0576 17.915L87.0001 15.1835L91.9426 17.9158C92.3476 18.1408 92.8464 17.8003 92.7699 17.333L91.8196 11.5078L95.8396 7.3873C96.1584 7.0603 95.9761 6.50755 95.5224 6.4378Z" fill="#3FA9DE"/>
</g>
<g clip-path="url(#clip4_901_823)">
<path d="M121.522 6.4378L115.989 5.59255L113.509 0.309547C113.323 -0.0849531 112.676 -0.0849531 112.491 0.309547L110.011 5.59255L104.478 6.4378C104.023 6.50755 103.842 7.0603 104.161 7.38655L108.181 11.507L107.23 17.3323C107.155 17.795 107.649 18.1423 108.058 17.915L113 15.1835L117.943 17.9158C118.348 18.1408 118.846 17.8003 118.77 17.333L117.82 11.5078L121.84 7.3873C122.158 7.0603 121.976 6.50755 121.522 6.4378Z" fill="#3FA9DE"/>
</g>
<defs>
<clipPath id="clip0_901_823">
<rect width="18" height="18" fill="white"/>
</clipPath>
<clipPath id="clip1_901_823">
<rect width="18" height="18" fill="white" transform="translate(26)"/>
</clipPath>
<clipPath id="clip2_901_823">
<rect width="18" height="18" fill="white" transform="translate(52)"/>
</clipPath>
<clipPath id="clip3_901_823">
<rect width="18" height="18" fill="white" transform="translate(78)"/>
</clipPath>
<clipPath id="clip4_901_823">
<rect width="18" height="18" fill="white" transform="translate(104)"/>
</clipPath>
</defs>
</svg>
