<svg width="41" height="40" viewBox="0 0 41 40" fill="none" xmlns="http://www.w3.org/2000/svg">
<g clip-path="url(#clip0_2718_52318)">
<path d="M40.3201 20.6988L33.363 31.0522C33.2062 31.2796 32.9787 31.4522 32.7199 31.5306L15.778 36.5583C14.3505 36.9504 13.3387 38.0407 12.5936 39.2642H0.938257C6.38944 33.0522 11.4249 27.1461 13.9662 25.499C16.3114 24.5107 19.0331 23.3734 21.4018 22.393L25.4411 21.2243C25.9745 21.0518 26.5628 21.5381 26.4843 22.1028C26.398 22.9577 25.6294 23.8754 24.798 24.1186C24.4058 24.2676 22.3508 24.7304 22.0763 25.0284L17.5585 28.4638C17.2055 28.7148 17.4252 29.2952 17.8565 29.2639L28.5236 28.5423C29.5825 28.4717 30.5708 28.0089 31.3159 27.2403C33.1905 25.2716 36.4925 21.8126 38.6887 19.5066C39.5515 18.5497 41.0104 19.6478 40.3201 20.6988ZM21.9194 10.7141C21.2214 13.9692 23.2215 15.7026 25.8882 17.0673C25.598 15.5222 25.6059 13.9613 25.7314 12.4005C25.6921 10.6514 24.8137 9.09839 24.0764 7.57676C24.045 7.39636 24.1078 7.18459 24.2646 7.09831C25.1274 6.70614 26.1471 10.0318 26.351 10.6984C26.9706 9.61605 28.006 8.76896 29.1982 8.40032C28.4217 7.07478 27.2451 6.00807 25.8882 5.31001C24.7901 4.74528 22.7665 3.97662 21.5351 4.43938C22.1783 6.47868 22.2253 8.61209 21.9194 10.7141ZM28.6334 9.63174C26.2882 10.9181 26.2255 14.1417 26.7196 16.4634C28.2334 12.9103 32.5865 11.8671 34.9239 9.01995C35.0729 8.83955 35.2141 8.64347 35.4337 8.55719C36.0063 8.37679 36.2337 8.88661 35.8572 9.30232C33.4885 12.5181 28.453 13.577 27.1824 17.6399C35.5278 19.9929 40.3829 12.0475 37.0494 4.77665C35.5278 6.5179 33.5591 7.85128 31.3786 8.61994C30.4531 8.93367 29.4962 9.16113 28.6334 9.63174ZM0.938257 4.39232C0.349999 4.38448 0.357843 3.51386 0.938257 3.50602C2.6246 3.50602 4.00504 2.13341 4.00504 0.439232C4.01288 -0.149025 4.8835 -0.141182 4.89135 0.439232C4.89135 2.13341 6.26395 3.50602 7.95029 3.50602C8.53855 3.51386 8.5307 4.38448 7.95029 4.39232C6.26395 4.39232 4.89135 5.77277 4.89135 7.45911C4.8835 8.04737 4.01288 8.03952 4.00504 7.45911C3.9972 5.77277 2.6246 4.39232 0.938257 4.39232ZM2.75009 3.95309C3.47169 4.32958 4.06779 4.91783 4.44427 5.63943C4.82076 4.91783 5.40902 4.32958 6.13061 3.95309C5.41686 3.57661 4.82076 2.98051 4.44427 2.25891C4.06779 2.98051 3.47953 3.57661 2.75009 3.95309ZM6.44435 24.2441C7.03261 24.2519 7.02476 25.1225 6.44435 25.1304C5.58941 25.1304 4.89135 25.8284 4.89135 26.6834C4.8835 27.2716 4.01288 27.2638 4.00504 26.6834C4.00504 25.8284 3.30697 25.1304 2.45204 25.1304C1.87163 25.1225 1.87163 24.2519 2.45204 24.2441C3.30697 24.2441 4.00504 23.546 4.00504 22.6911C4.01288 22.1028 4.8835 22.1106 4.89135 22.6911C4.89135 23.546 5.58941 24.2441 6.44435 24.2441ZM5.04037 24.6833C4.81291 24.5264 4.60898 24.3225 4.44427 24.0872C4.27956 24.3147 4.08347 24.5186 3.84817 24.6833C4.07563 24.848 4.27956 25.0441 4.44427 25.2794C4.60114 25.0519 4.81291 24.848 5.04037 24.6833ZM28.2256 1.50594C28.8138 1.50594 29.2844 1.02749 29.2844 0.447076C29.2844 0.203929 29.4805 0 29.7315 0C29.9825 0 30.1786 0.196086 30.1786 0.447076C30.1786 1.02749 30.657 1.50594 31.2374 1.50594C31.8257 1.51378 31.8179 2.3844 31.2374 2.39225C30.6492 2.39225 30.1786 2.8707 30.1786 3.45111C30.1707 4.03153 29.3001 4.03153 29.2923 3.45111C29.2923 2.86285 28.8217 2.39225 28.2334 2.39225C27.6452 2.3844 27.6452 1.52163 28.2256 1.50594ZM29.4648 1.95302C29.559 2.03145 29.6452 2.12557 29.7237 2.21969C29.8099 2.12557 29.8962 2.03145 29.9903 1.95302C29.8962 1.87458 29.8099 1.78046 29.7237 1.68634C29.6452 1.78046 29.559 1.87458 29.4648 1.95302ZM39.5044 36.9269C38.4142 36.9269 37.5357 37.8132 37.5357 38.9034C37.5279 39.4917 36.6573 39.4839 36.6494 38.9034C36.6494 37.8132 35.7631 36.9269 34.6729 36.9269C34.0846 36.9191 34.0925 36.0484 34.6729 36.0406C35.7631 36.0406 36.6494 35.1543 36.6494 34.064C36.6573 33.4758 37.5279 33.4836 37.5357 34.064C37.5357 35.1543 38.422 36.0406 39.5044 36.0406C40.0848 36.0406 40.0848 36.9269 39.5044 36.9269ZM37.975 36.4798C37.6142 36.2524 37.3161 35.9543 37.0886 35.5935C36.8612 35.9543 36.5553 36.2524 36.2023 36.4798C36.5553 36.7073 36.8612 37.0132 37.0886 37.3661C37.3161 37.0132 37.6142 36.7073 37.975 36.4798ZM10.2484 10.1023V12.8162C10.2484 13.0593 10.0523 13.2633 9.80134 13.2633H7.09535V14.7457H9.80918C10.0523 14.7457 10.2563 14.9417 10.2563 15.1927V17.9066H11.7387V15.1927C11.7387 14.9496 11.9348 14.7457 12.1857 14.7457H14.8996V13.2633H12.1857C11.9426 13.2633 11.7387 13.0672 11.7387 12.8162V10.1023H10.2484ZM4.45996 10.3847C4.43643 9.71802 3.49522 9.76508 3.56581 10.4239L3.82464 11.8593C3.8717 12.1416 4.20897 12.3142 4.45996 12.1809L5.76981 11.522C6.35023 11.1769 5.80119 10.3926 5.25215 10.7847C8.58561 4.91783 17.5114 7.23165 17.582 14.0005C17.5899 14.5809 18.4605 14.5888 18.4683 14.0005C18.3899 6.29828 8.20912 3.69426 4.45996 10.3847ZM17.5742 17.5379C17.6291 18.1576 18.5468 18.0556 18.4605 17.436L18.2017 16.0006C18.1546 15.7182 17.8173 15.5457 17.5663 15.679L16.2565 16.3379C15.7388 16.5967 16.131 17.3889 16.6565 17.1301L16.8369 17.0438C13.6211 23.0989 4.49133 20.8714 4.4129 14.0005C4.40506 13.4201 3.53443 13.4123 3.52659 14.0005C3.59718 21.7577 13.8721 24.3147 17.5742 17.5379Z" fill="white"/>
</g>
<defs>
<clipPath id="clip0_2718_52318">
<rect width="40" height="40" fill="white" transform="translate(0.5)"/>
</clipPath>
</defs>
</svg>
