<svg width="40" height="40" viewBox="0 0 40 40" fill="none" xmlns="http://www.w3.org/2000/svg">
<g clip-path="url(#clip0_1925_30814)">
<path d="M20 40C31.0457 40 40 31.0457 40 20C40 8.9543 31.0457 0 20 0C8.9543 0 0 8.9543 0 20C0 31.0457 8.9543 40 20 40Z" fill="#5FC68F"/>
<path d="M3.44828 21.7241C3.44828 28.8698 7.19569 35.1405 12.8336 38.6776C5.32759 35.7957 0 28.5198 0 20C0 8.95431 8.95431 0 20 0C23.8991 0 27.5379 1.11638 30.6147 3.04655C28.3897 2.19224 25.9733 1.72414 23.4483 1.72414C12.4026 1.72414 3.44828 10.6784 3.44828 21.7241Z" fill="#5FC68F"/>
<path d="M20.0828 37.1655C29.5173 37.1655 37.1655 29.5173 37.1655 20.0828C37.1655 10.6482 29.5173 3 20.0828 3C10.6482 3 3 10.6482 3 20.0828C3 29.5173 10.6482 37.1655 20.0828 37.1655Z" fill="#DBEEFF"/>
<path d="M8.09038 22.5869C8.09038 28.2387 10.8352 33.2499 15.0645 36.3594C8.03694 34.2412 2.91797 27.7188 2.91797 20.0007C2.91797 10.5662 10.5662 2.91797 20.0007 2.91797C23.7835 2.91797 27.2792 4.14728 30.1094 6.22831C19.1494 2.92771 8.09038 11.1408 8.09038 22.5869Z" fill="#EEF7FF"/>
<path d="M20.0002 34.9688C19.6193 34.9688 19.3105 34.66 19.3105 34.2791V32.6662C19.3105 32.2854 19.6193 31.9766 20.0002 31.9766C20.3811 31.9766 20.6899 32.2854 20.6899 32.6662V34.2791C20.6899 34.6599 20.3811 34.9688 20.0002 34.9688Z" fill="#B5D5F5"/>
<path d="M26.7951 32.4613C27.176 32.4613 27.4848 32.1526 27.4848 31.7717C27.4848 31.3908 27.176 31.082 26.7951 31.082C26.4142 31.082 26.1055 31.3908 26.1055 31.7717C26.1055 32.1526 26.4142 32.4613 26.7951 32.4613Z" fill="#B5D5F5"/>
<path d="M13.2053 32.4613C13.5862 32.4613 13.8949 32.1526 13.8949 31.7717C13.8949 31.3908 13.5862 31.082 13.2053 31.082C12.8244 31.082 12.5156 31.3908 12.5156 31.7717C12.5156 32.1526 12.8244 32.4613 13.2053 32.4613Z" fill="#B5D5F5"/>
<path d="M26.7951 8.92228C27.176 8.92228 27.4848 8.61351 27.4848 8.23262C27.4848 7.85174 27.176 7.54297 26.7951 7.54297C26.4142 7.54297 26.1055 7.85174 26.1055 8.23262C26.1055 8.61351 26.4142 8.92228 26.7951 8.92228Z" fill="#B5D5F5"/>
<path d="M20.0002 8.02349C19.6193 8.02349 19.3105 7.7147 19.3105 7.33384V5.7209C19.3105 5.34004 19.6193 5.03125 20.0002 5.03125C20.3811 5.03125 20.6899 5.34004 20.6899 5.7209V7.33384C20.6899 7.7147 20.3811 8.02349 20.0002 8.02349Z" fill="#B5D5F5"/>
<path d="M13.2053 8.92228C13.5862 8.92228 13.8949 8.61351 13.8949 8.23262C13.8949 7.85174 13.5862 7.54297 13.2053 7.54297C12.8244 7.54297 12.5156 7.85174 12.5156 8.23262C12.5156 8.61351 12.8244 8.92228 13.2053 8.92228Z" fill="#B5D5F5"/>
<path d="M27.3267 12C36.2244 12 36.2244 29 27.3267 29H12.7132C3.76226 29 3.76226 12 12.7132 12H27.3267Z" fill="#7ADBAE"/>
<path d="M15.0836 19.992V19.152L17.5476 16.956C17.7396 16.7853 17.8729 16.624 17.9476 16.472C18.0223 16.32 18.0596 16.1733 18.0596 16.032C18.0596 15.84 18.0183 15.6693 17.9356 15.52C17.8529 15.368 17.7383 15.248 17.5916 15.16C17.4476 15.072 17.2809 15.028 17.0916 15.028C16.8916 15.028 16.7143 15.0747 16.5596 15.168C16.4076 15.2587 16.2889 15.38 16.2036 15.532C16.1183 15.684 16.0783 15.848 16.0836 16.024H15.0916C15.0916 15.64 15.1769 15.3053 15.3476 15.02C15.5209 14.7347 15.7583 14.5133 16.0596 14.356C16.3636 14.1987 16.7143 14.12 17.1116 14.12C17.4796 14.12 17.8103 14.2027 18.1036 14.368C18.3969 14.5307 18.6276 14.7573 18.7956 15.048C18.9636 15.336 19.0476 15.668 19.0476 16.044C19.0476 16.3187 19.0103 16.5493 18.9356 16.736C18.8609 16.9227 18.7489 17.0947 18.5996 17.252C18.4529 17.4093 18.2703 17.584 18.0516 17.776L16.3036 19.324L16.2156 19.084H19.0476V19.992H15.0836ZM22.0812 20.12C21.6732 20.12 21.3132 20.0333 21.0012 19.86C20.6892 19.684 20.4452 19.44 20.2692 19.128C20.0959 18.816 20.0092 18.456 20.0092 18.048V16.192C20.0092 15.784 20.0959 15.424 20.2692 15.112C20.4452 14.8 20.6892 14.5573 21.0012 14.384C21.3132 14.208 21.6732 14.12 22.0812 14.12C22.4892 14.12 22.8479 14.208 23.1572 14.384C23.4692 14.5573 23.7132 14.8 23.8892 15.112C24.0652 15.424 24.1532 15.784 24.1532 16.192V18.048C24.1532 18.456 24.0652 18.816 23.8892 19.128C23.7132 19.44 23.4692 19.684 23.1572 19.86C22.8479 20.0333 22.4892 20.12 22.0812 20.12ZM22.0812 19.204C22.2839 19.204 22.4679 19.156 22.6332 19.06C22.7986 18.9613 22.9292 18.8307 23.0252 18.668C23.1212 18.5027 23.1692 18.3187 23.1692 18.116V16.12C23.1692 15.9147 23.1212 15.7307 23.0252 15.568C22.9292 15.4027 22.7986 15.272 22.6332 15.176C22.4679 15.0773 22.2839 15.028 22.0812 15.028C21.8786 15.028 21.6946 15.0773 21.5292 15.176C21.3639 15.272 21.2332 15.4027 21.1372 15.568C21.0412 15.7307 20.9932 15.9147 20.9932 16.12V18.116C20.9932 18.3187 21.0412 18.5027 21.1372 18.668C21.2332 18.8307 21.3639 18.9613 21.5292 19.06C21.6946 19.156 21.8786 19.204 22.0812 19.204ZM19.0253 27V24.376C19.0253 24.08 18.952 23.8493 18.8053 23.684C18.6587 23.516 18.46 23.432 18.2093 23.432C18.0547 23.432 17.916 23.468 17.7933 23.54C17.6707 23.6093 17.5733 23.7133 17.5013 23.852C17.4293 23.988 17.3933 24.1507 17.3933 24.34L16.9653 24.088C16.9627 23.7893 17.0293 23.5267 17.1653 23.3C17.304 23.0707 17.4907 22.892 17.7253 22.764C17.96 22.636 18.2213 22.572 18.5093 22.572C18.9867 22.572 19.352 22.716 19.6053 23.004C19.8613 23.2893 19.9893 23.6653 19.9893 24.132V27H19.0253ZM13.8293 27V22.68H14.6813V24.02H14.8013V27H13.8293ZM16.4333 27V24.388C16.4333 24.0867 16.36 23.852 16.2133 23.684C16.0667 23.516 15.8667 23.432 15.6133 23.432C15.368 23.432 15.1707 23.516 15.0213 23.684C14.8747 23.852 14.8013 24.0707 14.8013 24.34L14.3693 24.052C14.3693 23.772 14.4387 23.52 14.5773 23.296C14.716 23.072 14.9027 22.896 15.1373 22.768C15.3747 22.6373 15.64 22.572 15.9333 22.572C16.256 22.572 16.5253 22.6413 16.7413 22.78C16.96 22.916 17.1227 23.1027 17.2293 23.34C17.3387 23.5747 17.3933 23.84 17.3933 24.136V27H16.4333ZM21.1127 22.024V21.14H22.0767V22.024H21.1127ZM21.1127 27V22.68H22.0767V27H21.1127ZM26.2628 27V24.92C26.2628 24.784 26.2535 24.6333 26.2348 24.468C26.2162 24.3027 26.1722 24.144 26.1028 23.992C26.0362 23.8373 25.9348 23.7107 25.7988 23.612C25.6655 23.5133 25.4842 23.464 25.2548 23.464C25.1322 23.464 25.0108 23.484 24.8908 23.524C24.7708 23.564 24.6615 23.6333 24.5628 23.732C24.4668 23.828 24.3895 23.9613 24.3308 24.132C24.2722 24.3 24.2428 24.516 24.2428 24.78L23.6708 24.536C23.6708 24.168 23.7415 23.8347 23.8828 23.536C24.0268 23.2373 24.2375 23 24.5148 22.824C24.7922 22.6453 25.1335 22.556 25.5388 22.556C25.8588 22.556 26.1228 22.6093 26.3308 22.716C26.5388 22.8227 26.7042 22.9587 26.8268 23.124C26.9495 23.2893 27.0402 23.4653 27.0988 23.652C27.1575 23.8387 27.1948 24.016 27.2108 24.184C27.2295 24.3493 27.2388 24.484 27.2388 24.588V27H26.2628ZM23.2668 27V22.68H24.1268V24.02H24.2428V27H23.2668Z" fill="#555555"/>
</g>
<defs>
<clipPath id="clip0_1925_30814">
<rect width="40" height="40" fill="white"/>
</clipPath>
</defs>
</svg>
