<svg width="40" height="40" viewBox="0 0 40 40" fill="none" xmlns="http://www.w3.org/2000/svg">
<g clip-path="url(#clip0_1925_30854)">
<path d="M20 40C31.0457 40 40 31.0457 40 20C40 8.9543 31.0457 0 20 0C8.9543 0 0 8.9543 0 20C0 31.0457 8.9543 40 20 40Z" fill="#5FC68F"/>
<path d="M3.44828 21.7241C3.44828 28.8698 7.19569 35.1405 12.8336 38.6776C5.32759 35.7957 0 28.5198 0 20C0 8.95431 8.95431 0 20 0C23.8991 0 27.5379 1.11638 30.6147 3.04655C28.3897 2.19224 25.9733 1.72414 23.4483 1.72414C12.4026 1.72414 3.44828 10.6784 3.44828 21.7241Z" fill="#5FC68F"/>
<path d="M20.0828 37.1655C29.5173 37.1655 37.1655 29.5173 37.1655 20.0828C37.1655 10.6482 29.5173 3 20.0828 3C10.6482 3 3 10.6482 3 20.0828C3 29.5173 10.6482 37.1655 20.0828 37.1655Z" fill="#DBEEFF"/>
<path d="M8.09038 22.5869C8.09038 28.2387 10.8352 33.2499 15.0645 36.3594C8.03694 34.2412 2.91797 27.7188 2.91797 20.0007C2.91797 10.5662 10.5662 2.91797 20.0007 2.91797C23.7835 2.91797 27.2792 4.14728 30.1094 6.22831C19.1494 2.92771 8.09038 11.1408 8.09038 22.5869Z" fill="#EEF7FF"/>
<path d="M20.0002 34.9688C19.6193 34.9688 19.3105 34.66 19.3105 34.2791V32.6662C19.3105 32.2854 19.6193 31.9766 20.0002 31.9766C20.3811 31.9766 20.6899 32.2854 20.6899 32.6662V34.2791C20.6899 34.6599 20.3811 34.9688 20.0002 34.9688Z" fill="#B5D5F5"/>
<path d="M26.7951 32.4613C27.176 32.4613 27.4848 32.1526 27.4848 31.7717C27.4848 31.3908 27.176 31.082 26.7951 31.082C26.4142 31.082 26.1055 31.3908 26.1055 31.7717C26.1055 32.1526 26.4142 32.4613 26.7951 32.4613Z" fill="#B5D5F5"/>
<path d="M13.2053 32.4613C13.5862 32.4613 13.8949 32.1526 13.8949 31.7717C13.8949 31.3908 13.5862 31.082 13.2053 31.082C12.8244 31.082 12.5156 31.3908 12.5156 31.7717C12.5156 32.1526 12.8244 32.4613 13.2053 32.4613Z" fill="#B5D5F5"/>
<path d="M26.7951 8.92228C27.176 8.92228 27.4848 8.61351 27.4848 8.23262C27.4848 7.85174 27.176 7.54297 26.7951 7.54297C26.4142 7.54297 26.1055 7.85174 26.1055 8.23262C26.1055 8.61351 26.4142 8.92228 26.7951 8.92228Z" fill="#B5D5F5"/>
<path d="M20.0002 8.02349C19.6193 8.02349 19.3105 7.7147 19.3105 7.33384V5.7209C19.3105 5.34004 19.6193 5.03125 20.0002 5.03125C20.3811 5.03125 20.6899 5.34004 20.6899 5.7209V7.33384C20.6899 7.7147 20.3811 8.02349 20.0002 8.02349Z" fill="#B5D5F5"/>
<path d="M13.2053 8.92228C13.5862 8.92228 13.8949 8.61351 13.8949 8.23262C13.8949 7.85174 13.5862 7.54297 13.2053 7.54297C12.8244 7.54297 12.5156 7.85174 12.5156 8.23262C12.5156 8.61351 12.8244 8.92228 13.2053 8.92228Z" fill="#B5D5F5"/>
<path d="M27.3267 12C36.2244 12 36.2244 29 27.3267 29H12.7132C3.76226 29 3.76226 12 12.7132 12H27.3267Z" fill="#7ADBAE"/>
<path d="M26.2636 27.0026V24.9226C26.2636 24.7866 26.2542 24.6359 26.2356 24.4706C26.2169 24.3053 26.1729 24.1466 26.1036 23.9946C26.0369 23.8399 25.9356 23.7133 25.7996 23.6146C25.6662 23.5159 25.4849 23.4666 25.2556 23.4666C25.1329 23.4666 25.0116 23.4866 24.8916 23.5266C24.7716 23.5666 24.6622 23.6359 24.5636 23.7346C24.4676 23.8306 24.3902 23.9639 24.3316 24.1346C24.2729 24.3026 24.2436 24.5186 24.2436 24.7826L23.6716 24.5386C23.6716 24.1706 23.7422 23.8373 23.8836 23.5386C24.0276 23.2399 24.2382 23.0026 24.5156 22.8266C24.7929 22.6479 25.1342 22.5586 25.5396 22.5586C25.8596 22.5586 26.1236 22.6119 26.3316 22.7186C26.5396 22.8253 26.7049 22.9613 26.8276 23.1266C26.9502 23.2919 27.0409 23.4679 27.0996 23.6546C27.1582 23.8413 27.1956 24.0186 27.2116 24.1866C27.2302 24.3519 27.2396 24.4866 27.2396 24.5906V27.0026H26.2636ZM23.2676 27.0026V22.6826H24.1276V24.0226H24.2436V27.0026H23.2676Z" fill="#555555"/>
<path d="M21.1133 22.0246V21.1406H22.0773V22.0246H21.1133ZM21.1133 27.0006V22.6806H22.0773V27.0006H21.1133Z" fill="#555555"/>
<path d="M19.0261 27.0022V24.3782C19.0261 24.0822 18.9527 23.8516 18.8061 23.6862C18.6594 23.5182 18.4607 23.4342 18.2101 23.4342C18.0554 23.4342 17.9167 23.4702 17.7941 23.5422C17.6714 23.6116 17.5741 23.7156 17.5021 23.8542C17.4301 23.9902 17.3941 24.1529 17.3941 24.3422L16.9661 24.0902C16.9634 23.7916 17.0301 23.5289 17.1661 23.3022C17.3047 23.0729 17.4914 22.8942 17.7261 22.7662C17.9607 22.6382 18.2221 22.5742 18.5101 22.5742C18.9874 22.5742 19.3527 22.7182 19.6061 23.0062C19.8621 23.2916 19.9901 23.6676 19.9901 24.1342V27.0022H19.0261ZM13.8301 27.0022V22.6822H14.6821V24.0222H14.8021V27.0022H13.8301ZM16.4341 27.0022V24.3902C16.4341 24.0889 16.3607 23.8542 16.2141 23.6862C16.0674 23.5182 15.8674 23.4342 15.6141 23.4342C15.3687 23.4342 15.1714 23.5182 15.0221 23.6862C14.8754 23.8542 14.8021 24.0729 14.8021 24.3422L14.3701 24.0542C14.3701 23.7742 14.4394 23.5222 14.5781 23.2982C14.7167 23.0742 14.9034 22.8982 15.1381 22.7702C15.3754 22.6396 15.6407 22.5742 15.9341 22.5742C16.2567 22.5742 16.5261 22.6436 16.7421 22.7822C16.9607 22.9182 17.1234 23.1049 17.2301 23.3422C17.3394 23.5769 17.3941 23.8422 17.3941 24.1382V27.0022H16.4341Z" fill="#555555"/>
<path d="M28.7528 20.1222C28.4594 20.1222 28.1861 20.0622 27.9328 19.9422C27.6794 19.8195 27.4608 19.6515 27.2768 19.4382C27.0954 19.2249 26.9648 18.9769 26.8848 18.6942L27.8128 18.4462C27.8501 18.6009 27.9181 18.7342 28.0168 18.8462C28.1181 18.9582 28.2354 19.0449 28.3688 19.1062C28.5048 19.1675 28.6448 19.1982 28.7888 19.1982C28.9754 19.1982 29.1461 19.1529 29.3008 19.0622C29.4554 18.9715 29.5781 18.8502 29.6688 18.6982C29.7594 18.5435 29.8048 18.3729 29.8048 18.1862C29.8048 17.9995 29.7581 17.8302 29.6648 17.6782C29.5741 17.5235 29.4514 17.4022 29.2968 17.3142C29.1421 17.2235 28.9728 17.1782 28.7888 17.1782C28.5674 17.1782 28.3834 17.2182 28.2368 17.2982C28.0928 17.3782 27.9821 17.4635 27.9048 17.5542L27.0808 17.2902L27.2568 14.2422H30.3848V15.1462H27.7728L28.1328 14.8062L28.0048 16.9262L27.8288 16.7102C27.9781 16.5742 28.1514 16.4729 28.3488 16.4062C28.5461 16.3395 28.7368 16.3062 28.9208 16.3062C29.2808 16.3062 29.5994 16.3889 29.8768 16.5542C30.1568 16.7169 30.3754 16.9395 30.5328 17.2222C30.6928 17.5049 30.7728 17.8262 30.7728 18.1862C30.7728 18.5462 30.6794 18.8729 30.4928 19.1662C30.3061 19.4569 30.0594 19.6889 29.7528 19.8622C29.4488 20.0355 29.1154 20.1222 28.7528 20.1222Z" fill="#555555"/>
<path d="M24.5696 20.0022V19.0502H22.0176V18.1502L23.8616 14.2422H24.9616L23.1176 18.1502H24.5696V16.6502H25.5456V18.1502H26.0856V19.0502H25.5456V20.0022H24.5696Z" fill="#555555"/>
<path d="M18.7383 17.4982V16.7422H21.1383V17.4982H18.7383Z" fill="#555555"/>
<path d="M15.6247 20.1211C15.2167 20.1211 14.8567 20.0344 14.5447 19.8611C14.2327 19.6851 13.9887 19.4411 13.8127 19.1291C13.6394 18.8171 13.5527 18.4571 13.5527 18.0491V16.1931C13.5527 15.7851 13.6394 15.4251 13.8127 15.1131C13.9887 14.8011 14.2327 14.5584 14.5447 14.3851C14.8567 14.2091 15.2167 14.1211 15.6247 14.1211C16.0327 14.1211 16.3914 14.2091 16.7007 14.3851C17.0127 14.5584 17.2567 14.8011 17.4327 15.1131C17.6087 15.4251 17.6967 15.7851 17.6967 16.1931V18.0491C17.6967 18.4571 17.6087 18.8171 17.4327 19.1291C17.2567 19.4411 17.0127 19.6851 16.7007 19.8611C16.3914 20.0344 16.0327 20.1211 15.6247 20.1211ZM15.6247 19.2051C15.8274 19.2051 16.0114 19.1571 16.1767 19.0611C16.3421 18.9624 16.4727 18.8318 16.5687 18.6691C16.6647 18.5038 16.7127 18.3198 16.7127 18.1171V16.1211C16.7127 15.9158 16.6647 15.7318 16.5687 15.5691C16.4727 15.4038 16.3421 15.2731 16.1767 15.1771C16.0114 15.0784 15.8274 15.0291 15.6247 15.0291C15.4221 15.0291 15.2381 15.0784 15.0727 15.1771C14.9074 15.2731 14.7767 15.4038 14.6807 15.5691C14.5847 15.7318 14.5367 15.9158 14.5367 16.1211V18.1171C14.5367 18.3198 14.5847 18.5038 14.6807 18.6691C14.7767 18.8318 14.9074 18.9624 15.0727 19.0611C15.2381 19.1571 15.4221 19.2051 15.6247 19.2051Z" fill="#555555"/>
<path d="M8.62695 19.9931V19.1531L11.091 16.9571C11.283 16.7864 11.4163 16.6251 11.491 16.4731C11.5656 16.3211 11.603 16.1744 11.603 16.0331C11.603 15.8411 11.5616 15.6704 11.479 15.5211C11.3963 15.3691 11.2816 15.2491 11.135 15.1611C10.991 15.0731 10.8243 15.0291 10.635 15.0291C10.435 15.0291 10.2576 15.0758 10.103 15.1691C9.95095 15.2598 9.83229 15.3811 9.74695 15.5331C9.66162 15.6851 9.62162 15.8491 9.62695 16.0251H8.63495C8.63495 15.6411 8.72029 15.3064 8.89095 15.0211C9.06429 14.7358 9.30162 14.5144 9.60295 14.3571C9.90695 14.1998 10.2576 14.1211 10.655 14.1211C11.023 14.1211 11.3536 14.2038 11.647 14.3691C11.9403 14.5318 12.171 14.7584 12.339 15.0491C12.507 15.3371 12.591 15.6691 12.591 16.0451C12.591 16.3198 12.5536 16.5504 12.479 16.7371C12.4043 16.9238 12.2923 17.0958 12.143 17.2531C11.9963 17.4104 11.8136 17.5851 11.595 17.7771L9.84695 19.3251L9.75895 19.0851H12.591V19.9931H8.62695Z" fill="#555555"/>
</g>
<defs>
<clipPath id="clip0_1925_30854">
<rect width="40" height="40" fill="white"/>
</clipPath>
</defs>
</svg>
