<svg width="40" height="40" viewBox="0 0 40 40" fill="none" xmlns="http://www.w3.org/2000/svg">
<g clip-path="url(#clip0_1925_30834)">
<path d="M20 40C31.0457 40 40 31.0457 40 20C40 8.9543 31.0457 0 20 0C8.9543 0 0 8.9543 0 20C0 31.0457 8.9543 40 20 40Z" fill="#5FC68F"/>
<path d="M3.44828 21.7241C3.44828 28.8698 7.19569 35.1405 12.8336 38.6776C5.32759 35.7957 0 28.5198 0 20C0 8.95431 8.95431 0 20 0C23.8991 0 27.5379 1.11638 30.6147 3.04655C28.3897 2.19224 25.9733 1.72414 23.4483 1.72414C12.4026 1.72414 3.44828 10.6784 3.44828 21.7241Z" fill="#5FC68F"/>
<path d="M20.0828 37.1655C29.5173 37.1655 37.1655 29.5173 37.1655 20.0828C37.1655 10.6482 29.5173 3 20.0828 3C10.6482 3 3 10.6482 3 20.0828C3 29.5173 10.6482 37.1655 20.0828 37.1655Z" fill="#DBEEFF"/>
<path d="M8.09038 22.5869C8.09038 28.2387 10.8352 33.2499 15.0645 36.3594C8.03694 34.2412 2.91797 27.7188 2.91797 20.0007C2.91797 10.5662 10.5662 2.91797 20.0007 2.91797C23.7835 2.91797 27.2792 4.14728 30.1094 6.22831C19.1494 2.92771 8.09038 11.1408 8.09038 22.5869Z" fill="#EEF7FF"/>
<path d="M20.0002 34.9688C19.6193 34.9688 19.3105 34.66 19.3105 34.2791V32.6662C19.3105 32.2854 19.6193 31.9766 20.0002 31.9766C20.3811 31.9766 20.6899 32.2854 20.6899 32.6662V34.2791C20.6899 34.6599 20.3811 34.9688 20.0002 34.9688Z" fill="#B5D5F5"/>
<path d="M26.7951 32.4613C27.176 32.4613 27.4848 32.1526 27.4848 31.7717C27.4848 31.3908 27.176 31.082 26.7951 31.082C26.4142 31.082 26.1055 31.3908 26.1055 31.7717C26.1055 32.1526 26.4142 32.4613 26.7951 32.4613Z" fill="#B5D5F5"/>
<path d="M13.2053 32.4613C13.5862 32.4613 13.8949 32.1526 13.8949 31.7717C13.8949 31.3908 13.5862 31.082 13.2053 31.082C12.8244 31.082 12.5156 31.3908 12.5156 31.7717C12.5156 32.1526 12.8244 32.4613 13.2053 32.4613Z" fill="#B5D5F5"/>
<path d="M26.7951 8.92228C27.176 8.92228 27.4848 8.61351 27.4848 8.23262C27.4848 7.85174 27.176 7.54297 26.7951 7.54297C26.4142 7.54297 26.1055 7.85174 26.1055 8.23262C26.1055 8.61351 26.4142 8.92228 26.7951 8.92228Z" fill="#B5D5F5"/>
<path d="M20.0002 8.02349C19.6193 8.02349 19.3105 7.7147 19.3105 7.33384V5.7209C19.3105 5.34004 19.6193 5.03125 20.0002 5.03125C20.3811 5.03125 20.6899 5.34004 20.6899 5.7209V7.33384C20.6899 7.7147 20.3811 8.02349 20.0002 8.02349Z" fill="#B5D5F5"/>
<path d="M13.2053 8.92228C13.5862 8.92228 13.8949 8.61351 13.8949 8.23262C13.8949 7.85174 13.5862 7.54297 13.2053 7.54297C12.8244 7.54297 12.5156 7.85174 12.5156 8.23262C12.5156 8.61351 12.8244 8.92228 13.2053 8.92228Z" fill="#B5D5F5"/>
<path d="M27.3267 12C36.2244 12 36.2244 29 27.3267 29H12.7132C3.76226 29 3.76226 12 12.7132 12H27.3267Z" fill="#7ADBAE"/>
<path d="M26.7636 26.9987V24.9187C26.7636 24.7827 26.7542 24.632 26.7356 24.4667C26.7169 24.3014 26.6729 24.1427 26.6036 23.9907C26.5369 23.836 26.4356 23.7094 26.2996 23.6107C26.1662 23.512 25.9849 23.4627 25.7556 23.4627C25.6329 23.4627 25.5116 23.4827 25.3916 23.5227C25.2716 23.5627 25.1622 23.632 25.0636 23.7307C24.9676 23.8267 24.8902 23.96 24.8316 24.1307C24.7729 24.2987 24.7436 24.5147 24.7436 24.7787L24.1716 24.5347C24.1716 24.1667 24.2422 23.8334 24.3836 23.5347C24.5276 23.236 24.7382 22.9987 25.0156 22.8227C25.2929 22.644 25.6342 22.5547 26.0396 22.5547C26.3596 22.5547 26.6236 22.608 26.8316 22.7147C27.0396 22.8214 27.2049 22.9574 27.3276 23.1227C27.4502 23.288 27.5409 23.464 27.5996 23.6507C27.6582 23.8374 27.6956 24.0147 27.7116 24.1827C27.7302 24.348 27.7396 24.4827 27.7396 24.5867V26.9987H26.7636ZM23.7676 26.9987V22.6787H24.6276V24.0187H24.7436V26.9987H23.7676Z" fill="#555555"/>
<path d="M21.6133 22.0207V21.1367H22.5773V22.0207H21.6133ZM21.6133 26.9967V22.6767H22.5773V26.9967H21.6133Z" fill="#555555"/>
<path d="M19.5261 26.9983V24.3743C19.5261 24.0783 19.4527 23.8476 19.3061 23.6823C19.1594 23.5143 18.9607 23.4303 18.7101 23.4303C18.5554 23.4303 18.4167 23.4663 18.2941 23.5383C18.1714 23.6076 18.0741 23.7116 18.0021 23.8503C17.9301 23.9863 17.8941 24.149 17.8941 24.3383L17.4661 24.0863C17.4634 23.7876 17.5301 23.525 17.6661 23.2983C17.8047 23.069 17.9914 22.8903 18.2261 22.7623C18.4607 22.6343 18.7221 22.5703 19.0101 22.5703C19.4874 22.5703 19.8527 22.7143 20.1061 23.0023C20.3621 23.2876 20.4901 23.6636 20.4901 24.1303V26.9983H19.5261ZM14.3301 26.9983V22.6783H15.1821V24.0183H15.3021V26.9983H14.3301ZM16.9341 26.9983V24.3863C16.9341 24.085 16.8607 23.8503 16.7141 23.6823C16.5674 23.5143 16.3674 23.4303 16.1141 23.4303C15.8687 23.4303 15.6714 23.5143 15.5221 23.6823C15.3754 23.8503 15.3021 24.069 15.3021 24.3383L14.8701 24.0503C14.8701 23.7703 14.9394 23.5183 15.0781 23.2943C15.2167 23.0703 15.4034 22.8943 15.6381 22.7663C15.8754 22.6356 16.1407 22.5703 16.4341 22.5703C16.7567 22.5703 17.0261 22.6396 17.2421 22.7783C17.4607 22.9143 17.6234 23.101 17.7301 23.3383C17.8394 23.573 17.8941 23.8383 17.8941 24.1343V26.9983H16.9341Z" fill="#555555"/>
<path d="M26.7151 18.3618C26.5391 18.3618 26.3684 18.3232 26.2031 18.2458C26.0404 18.1658 25.8844 18.0738 25.7351 17.9698C25.5884 17.8658 25.4498 17.7738 25.3191 17.6938C25.1884 17.6138 25.0684 17.5738 24.9591 17.5738C24.8364 17.5738 24.7524 17.6365 24.7071 17.7618C24.6644 17.8845 24.6684 18.0352 24.7191 18.2138H23.8631C23.7884 17.9098 23.7751 17.6365 23.8231 17.3938C23.8711 17.1485 23.9791 16.9538 24.1471 16.8098C24.3151 16.6632 24.5444 16.5898 24.8351 16.5898C25.0138 16.5898 25.1844 16.6298 25.3471 16.7098C25.5124 16.7872 25.6698 16.8792 25.8191 16.9858C25.9684 17.0898 26.1071 17.1818 26.2351 17.2618C26.3658 17.3392 26.4871 17.3778 26.5991 17.3778C26.7164 17.3778 26.7978 17.3165 26.8431 17.1938C26.8884 17.0712 26.8871 16.9192 26.8391 16.7378H27.6951C27.7671 17.0392 27.7791 17.3125 27.7311 17.5578C27.6858 17.8005 27.5791 17.9952 27.4111 18.1418C27.2431 18.2885 27.0111 18.3618 26.7151 18.3618Z" fill="#555555"/>
<path d="M20.495 20.1183C20.2016 20.1183 19.9283 20.0583 19.675 19.9383C19.4216 19.8156 19.203 19.6476 19.019 19.4343C18.8376 19.2209 18.707 18.9729 18.627 18.6903L19.555 18.4423C19.5923 18.5969 19.6603 18.7303 19.759 18.8423C19.8603 18.9543 19.9776 19.0409 20.111 19.1023C20.247 19.1636 20.387 19.1943 20.531 19.1943C20.7176 19.1943 20.8883 19.1489 21.043 19.0583C21.1976 18.9676 21.3203 18.8463 21.411 18.6943C21.5016 18.5396 21.547 18.3689 21.547 18.1823C21.547 17.9956 21.5003 17.8263 21.407 17.6743C21.3163 17.5196 21.1936 17.3983 21.039 17.3103C20.8843 17.2196 20.715 17.1743 20.531 17.1743C20.3096 17.1743 20.1256 17.2143 19.979 17.2943C19.835 17.3743 19.7243 17.4596 19.647 17.5503L18.823 17.2863L18.999 14.2383H22.127V15.1423H19.515L19.875 14.8023L19.747 16.9223L19.571 16.7063C19.7203 16.5703 19.8936 16.4689 20.091 16.4023C20.2883 16.3356 20.479 16.3023 20.663 16.3023C21.023 16.3023 21.3416 16.3849 21.619 16.5503C21.899 16.7129 22.1176 16.9356 22.275 17.2183C22.435 17.5009 22.515 17.8223 22.515 18.1823C22.515 18.5423 22.4216 18.8689 22.235 19.1623C22.0483 19.4529 21.8016 19.6849 21.495 19.8583C21.191 20.0316 20.8576 20.1183 20.495 20.1183Z" fill="#555555"/>
<path d="M16.3118 19.9983V19.0463H13.7598V18.1463L15.6038 14.2383H16.7038L14.8598 18.1463H16.3118V16.6463H17.2878V18.1463H17.8278V19.0463H17.2878V19.9983H16.3118Z" fill="#555555"/>
</g>
<defs>
<clipPath id="clip0_1925_30834">
<rect width="40" height="40" fill="white"/>
</clipPath>
</defs>
</svg>
