<svg width="49" height="48" viewBox="0 0 49 48" fill="none" xmlns="http://www.w3.org/2000/svg">
<path d="M17.7506 38.2632C10.1359 34.4909 7.76598 25.9594 10.7547 18.4069C13.7985 10.7189 21.4277 4.63142 29.4173 2.85817C31.0818 2.49058 31.4751 4.92092 29.9135 5.40555C23.0919 7.52569 16.9209 12.1987 13.8173 18.7235C12.4535 21.5487 12.0136 24.7315 12.5599 27.8208C13.2571 31.8762 15.9206 34.4108 18.7369 37.1099C19.4151 37.7587 18.4486 38.6041 17.7506 38.2632Z" fill="#BC3C0C"/>
<path d="M24.3742 43.8773C20.664 42.9184 16.4668 42.1135 13.4055 39.6505C13.2922 39.5681 13.2149 39.4452 13.1897 39.3074C13.1644 39.1696 13.1932 39.0273 13.2701 38.9101C13.3469 38.793 13.4659 38.7099 13.6024 38.6781C13.7389 38.6463 13.8824 38.6682 14.0031 38.7393C17.1111 40.3397 20.3569 41.1716 23.7315 41.8903C23.6221 39.6461 23.1464 37.3628 23.3845 35.141C23.4048 34.9421 23.495 34.7568 23.6392 34.6181C23.7833 34.4795 23.972 34.3965 24.1716 34.3839C24.3712 34.3713 24.5687 34.43 24.7292 34.5494C24.8896 34.6688 25.0024 34.8413 25.0475 35.0362C25.5931 37.6742 25.7677 40.3756 25.5663 43.0619C25.5541 43.1995 25.5116 43.3326 25.4418 43.4518C25.3721 43.5709 25.2768 43.6732 25.1628 43.7511C25.0488 43.8291 24.919 43.8809 24.7826 43.9027C24.6463 43.9245 24.5068 43.9158 24.3742 43.8773Z" fill="#BC3C0C"/>
</svg>
