<svg width="375" height="22" viewBox="0 0 375 22" fill="none" xmlns="http://www.w3.org/2000/svg">
<g clip-path="url(#clip0_421_1008)">
<path d="M80.9654 11.7074C80.9654 9.53483 80.0329 7.61523 76.8791 7.61523C75.261 7.61523 73.9756 8.07517 73.2787 8.47776L73.7895 10.2208C74.4312 9.81934 75.455 9.48872 76.4213 9.48872C78.0179 9.48647 78.2795 10.3872 78.2795 10.9664V11.1058C74.7942 11.1002 72.5909 12.3012 72.5909 14.7471C72.5909 16.2416 73.7095 17.6428 75.6647 17.6428C76.8577 17.6428 77.8657 17.1626 78.4678 16.4047H78.5265C78.5265 16.4047 78.9234 18.0611 81.1188 17.428C81.0071 16.7342 80.9654 16.0032 80.9654 15.1148V11.7074ZM78.3653 14.0015C78.3653 14.1769 78.3506 14.3591 78.2987 14.5154C78.098 15.1845 77.4057 15.7446 76.5442 15.7446C75.817 15.7446 75.2464 15.3341 75.2464 14.4738C75.2464 13.1581 76.7032 12.796 78.3653 12.805" fill="white"/>
<path d="M27.6053 4.65918C27.6053 4.65918 29.8819 13.9479 30.2439 15.4525C30.6701 17.2113 31.4334 17.8613 33.6367 17.4284L35.0597 11.6685C35.4194 10.2414 35.6641 9.21808 35.8964 7.76405H35.9358C36.0971 9.2327 36.3294 10.2414 36.6237 11.673C36.6237 11.673 37.2043 14.2898 37.5054 15.6606C37.7986 17.0314 38.624 17.8962 40.7855 17.4284L44.1728 4.65918H41.4384L40.2759 10.1829C39.968 11.7832 39.6884 13.0438 39.4708 14.5102H39.4313C39.2351 13.0595 38.9859 11.8506 38.6657 10.283L37.4615 4.65918H34.6087L33.3233 10.1391C32.9568 11.8124 32.614 13.154 32.3986 14.5743H32.3614C32.1393 13.2417 31.8383 11.5448 31.5191 9.93441C31.5191 9.93441 30.7558 6.01088 30.4863 4.65918" fill="white"/>
<path d="M51.793 11.7074C51.793 9.53483 50.8582 7.61523 47.7044 7.61523C46.0908 7.61523 44.8032 8.07517 44.1063 8.47776L44.6171 10.2208C45.2564 9.81934 46.2792 9.48872 47.2489 9.48872C48.8455 9.48647 49.1071 10.3872 49.1071 10.9664V11.1058C45.6218 11.1002 43.4163 12.3012 43.4163 14.7471C43.4163 16.2416 44.5393 17.6428 46.4855 17.6428C47.6897 17.6428 48.6888 17.1626 49.2909 16.4047H49.3517C49.3517 16.4047 49.7509 18.0611 51.944 17.428C51.8313 16.7342 51.793 16.0032 51.793 15.1148V11.7074ZM49.1906 14.0015C49.1906 14.1769 49.1759 14.3591 49.1263 14.5154C48.9233 15.1845 48.231 15.7446 47.3673 15.7446C46.6445 15.7446 46.0717 15.3341 46.0717 14.4738C46.0717 13.1581 47.5285 12.796 49.1906 12.805" fill="white"/>
<path d="M53.2119 4.65918V17.4239H55.8143V14.7171V4.65918H53.2119Z" fill="white"/>
<path d="M88.9526 4.65918V14.0772C88.9526 15.3772 89.1973 16.2836 89.7238 16.8391C90.1862 17.326 90.9427 17.6432 91.8437 17.6432C92.6172 17.6432 93.3738 17.4947 93.7313 17.3654L93.6997 15.3378C93.4324 15.3997 93.1269 15.4525 92.7074 15.4525C91.8189 15.4525 91.5257 14.8914 91.5257 13.7241V10.1188H93.7922V7.6797H91.5257V4.65918" fill="white"/>
<path d="M82.2262 7.83671V17.4279H84.9166V12.5159C84.9166 12.2517 84.9334 12.0234 84.9752 11.812C85.1759 10.7763 85.964 10.1207 87.0995 10.1207C87.4164 10.1207 87.6317 10.1555 87.8708 10.1926V7.67815C87.6701 7.64217 87.5336 7.62305 87.2867 7.62305C86.2798 7.62305 85.1387 8.26066 84.6572 9.64947H84.5907V7.83671" fill="white"/>
<path d="M57.3256 7.83671V17.4279H59.9471V11.7985C59.9471 11.5342 59.9764 11.2643 60.07 11.0203C60.2832 10.4501 60.812 9.79004 61.661 9.79004C62.7164 9.79004 63.2148 10.6784 63.2148 11.9604V17.4279H65.8297V11.731C65.8297 11.4825 65.8647 11.1777 65.9379 10.9573C66.1477 10.3107 66.7205 9.79004 67.512 9.79004C68.5787 9.79004 69.0952 10.6593 69.0952 12.1707V17.4279H71.7077V11.7726C71.7077 8.80157 70.1922 7.62305 68.4716 7.62305C67.715 7.62305 67.1129 7.8086 66.5716 8.14146C66.1138 8.42147 65.7124 8.81619 65.3527 9.33235H65.3133C64.8994 8.30002 63.9275 7.62305 62.6578 7.62305C61.0296 7.62305 60.2899 8.44284 59.8547 9.13556H59.8152V7.83671" fill="white"/>
<path d="M107.872 7.40624C108.386 7.40624 108.819 7.1386 108.876 6.79449L109.385 1.03683C109.385 0.466686 108.712 0 107.872 0C107.027 0 106.359 0.466686 106.359 1.03683L106.873 6.79449C106.927 7.1386 107.358 7.40624 107.872 7.40624Z" fill="#FFC220"/>
<path d="M104.745 9.20795C105 8.75813 104.985 8.25883 104.71 8.03617L99.9514 4.71765C99.4565 4.42977 98.7156 4.77275 98.2917 5.49921C97.8688 6.22453 97.9545 7.03871 98.4394 7.32097L103.707 9.75673C104.045 9.88267 104.485 9.64877 104.745 9.20345" fill="#FFC220"/>
<path d="M110.998 9.20322C111.268 9.64854 111.709 9.88245 112.037 9.76325L117.305 7.32074C117.794 7.03286 117.867 6.22656 117.454 5.50123C117.031 4.77477 116.285 4.43404 115.792 4.7163L111.032 8.03145C110.768 8.25748 110.749 8.75903 111.004 9.20772" fill="#FFC220"/>
<path d="M107.872 14.5981C108.386 14.5981 108.819 14.8658 108.876 15.2099L109.385 20.9676C109.385 21.5377 108.712 21.9999 107.872 21.9999C107.027 21.9999 106.359 21.5377 106.359 20.9676L106.873 15.2099C106.927 14.8658 107.358 14.5981 107.872 14.5981Z" fill="#FFC220"/>
<path d="M110.998 12.8017C111.268 12.3553 111.709 12.1169 112.037 12.2462L117.305 14.6842C117.794 14.9665 117.867 15.7795 117.454 16.506C117.031 17.2268 116.285 17.5698 115.792 17.2875L111.032 13.9679C110.768 13.7441 110.749 13.2448 111.004 12.8017" fill="#FFC220"/>
<path d="M104.745 12.7967C105 13.2454 104.985 13.7436 104.71 13.9685L99.9514 17.2825C99.4565 17.5704 98.7156 17.2263 98.2917 16.5054C97.8688 15.7801 97.9545 14.9659 98.4394 14.6837L103.707 12.2457C104.045 12.1175 104.485 12.3536 104.745 12.7967Z" fill="#FFC220"/>
<path d="M118.846 16.7823H118.912C119.001 16.7823 119.037 16.8104 119.047 16.8812C119.066 16.9599 119.076 17.0128 119.096 17.0353H119.265C119.25 17.0184 119.231 16.9757 119.221 16.8767C119.202 16.7913 119.158 16.7429 119.096 16.726V16.7103C119.181 16.6912 119.231 16.6338 119.231 16.563C119.231 16.4989 119.202 16.4528 119.172 16.4235C119.116 16.3965 119.062 16.3752 118.942 16.3752C118.836 16.3752 118.758 16.3842 118.696 16.3988V17.0353H118.846V16.7823ZM118.851 16.4921L118.928 16.482C119.018 16.482 119.066 16.5236 119.066 16.5821C119.066 16.6473 119.001 16.6777 118.918 16.6777H118.851V16.4921ZM118.947 16.0603C118.577 16.0603 118.284 16.3482 118.284 16.7013C118.284 17.0634 118.577 17.3513 118.947 17.3513C119.321 17.3513 119.605 17.0634 119.605 16.7013C119.605 16.3482 119.321 16.0603 118.947 16.0603ZM118.947 16.1896C119.231 16.1896 119.442 16.419 119.442 16.7013C119.442 16.9858 119.231 17.222 118.947 17.2175C118.663 17.2175 118.447 16.9858 118.447 16.7013C118.447 16.419 118.663 16.1896 118.942 16.1896" fill="#FFC220"/>
</g>
<g clip-path="url(#clip1_421_1008)">
<path d="M196.263 17.1871C192.084 20.3054 186.026 21.9692 180.811 21.9692C173.499 21.9692 166.916 19.2311 161.935 14.6772C161.544 14.3191 161.894 13.831 162.364 14.1099C167.739 17.2758 174.385 19.1804 181.25 19.1804C185.879 19.1804 190.972 18.2107 195.655 16.1983C196.363 15.8941 196.955 16.6673 196.263 17.1871Z" fill="#FF9900"/>
<path d="M198 15.1747C197.468 14.4838 194.469 14.8483 193.123 15.0099C192.713 15.0606 192.65 14.6993 193.02 14.4394C195.408 12.7377 199.328 13.2289 199.785 13.7993C200.242 14.3729 199.666 18.3501 197.421 20.2483C197.077 20.5399 196.748 20.3846 196.901 19.998C197.405 18.724 198.536 15.8687 198 15.1747Z" fill="#FF9900"/>
<path d="M193.217 2.4256V0.771344C193.217 0.520988 193.405 0.353027 193.63 0.353027H200.946C201.181 0.353027 201.368 0.524157 201.368 0.771344V2.18792C201.365 2.4256 201.168 2.73617 200.818 3.22737L197.027 8.70669C198.435 8.67183 199.922 8.88416 201.199 9.61305C201.487 9.77784 201.566 10.0187 201.588 10.2564V12.0215C201.588 12.2624 201.325 12.5444 201.049 12.3987C198.798 11.2039 195.809 11.074 193.32 12.4113C193.067 12.5508 192.801 12.2719 192.801 12.031V10.3546C192.801 10.0852 192.804 9.62572 193.07 9.21691L197.462 2.84075H193.64C193.405 2.84075 193.217 2.67279 193.217 2.4256Z" fill="white"/>
<path d="M166.531 12.7472H164.305C164.092 12.7313 163.923 12.5697 163.907 12.3637V0.799793C163.907 0.568451 164.098 0.384644 164.336 0.384644H166.412C166.628 0.394145 166.8 0.562111 166.815 0.77127V2.28292H166.856C167.398 0.821975 168.415 0.140625 169.786 0.140625C171.179 0.140625 172.049 0.821975 172.676 2.28292C173.214 0.821975 174.438 0.140625 175.75 0.140625C176.682 0.140625 177.703 0.53042 178.326 1.40508C179.03 2.37799 178.886 3.79139 178.886 5.0305L178.883 12.3289C178.883 12.5602 178.692 12.7472 178.454 12.7472H176.232C176.009 12.7313 175.831 12.5507 175.831 12.3289V6.19989C175.831 5.71185 175.875 4.49493 175.768 4.03224C175.602 3.25582 175.105 3.03715 174.46 3.03715C173.921 3.03715 173.358 3.4016 173.129 3.98471C172.901 4.56782 172.923 5.54389 172.923 6.19989V12.3289C172.923 12.5602 172.732 12.7472 172.494 12.7472H170.271C170.046 12.7313 169.871 12.5507 169.871 12.3289L169.868 6.19989C169.868 4.91008 170.077 3.0118 168.496 3.0118C166.897 3.0118 166.959 4.86254 166.959 6.19989V12.3289C166.959 12.5602 166.769 12.7472 166.531 12.7472Z" fill="white"/>
<path d="M207.667 0.140625C210.969 0.140625 212.757 3.0118 212.757 6.66257C212.757 10.1897 210.782 12.988 207.667 12.988C204.424 12.988 202.658 10.1169 202.658 6.53898C202.658 2.93891 204.446 0.140625 207.667 0.140625ZM207.686 2.50158C206.045 2.50158 205.942 4.7643 205.942 6.17453C205.942 7.58794 205.92 10.6049 207.667 10.6049C209.392 10.6049 209.473 8.17105 209.473 6.68792C209.473 5.71185 209.432 4.54563 209.141 3.62026C208.891 2.81532 208.393 2.50158 207.686 2.50158Z" fill="white"/>
<path d="M217.039 12.7472H214.823C214.601 12.7313 214.422 12.5507 214.422 12.3289L214.419 0.761762C214.438 0.549435 214.622 0.384644 214.848 0.384644H216.911C217.105 0.394145 217.264 0.527252 217.308 0.707889V2.47623H217.349C217.972 0.894864 218.845 0.140625 220.382 0.140625C221.381 0.140625 222.354 0.505068 222.981 1.50332C223.563 2.42869 223.563 3.98471 223.563 5.10339V12.3827C223.538 12.5856 223.353 12.7472 223.134 12.7472H220.902C220.698 12.7313 220.529 12.5792 220.508 12.3827V6.10164C220.508 4.83719 220.652 2.98645 219.114 2.98645C218.573 2.98645 218.075 3.35406 217.828 3.91182C217.515 4.61852 217.474 5.32205 217.474 6.10164V12.3289C217.471 12.5602 217.277 12.7472 217.039 12.7472Z" fill="white"/>
<path d="M187.385 7.22357V6.73554C185.776 6.73554 184.076 7.08413 184.076 9.00459C184.076 9.97749 184.574 10.6367 185.429 10.6367C186.055 10.6367 186.615 10.2469 186.969 9.61305C187.407 8.83346 187.385 8.1014 187.385 7.22357ZM189.63 12.7156C189.482 12.8487 189.27 12.8582 189.104 12.7694C188.365 12.1483 188.233 11.8599 187.827 11.2673C186.606 12.5286 185.742 12.9057 184.158 12.9057C182.286 12.9057 180.827 11.7363 180.827 9.39439C180.827 7.56583 181.807 6.32039 183.2 5.71193C184.408 5.17318 186.095 5.07811 187.385 4.92917V4.63761C187.385 4.10204 187.426 3.46822 187.116 3.00554C186.844 2.59039 186.324 2.41926 185.867 2.41926C185.019 2.41926 184.261 2.85976 184.076 3.77246C184.039 3.97528 183.892 4.17493 183.691 4.18444L181.531 3.94992C181.35 3.90873 181.149 3.75978 181.2 3.47773C181.697 0.828392 184.061 0.0297852 186.177 0.0297852C187.26 0.0297852 188.675 0.321339 189.529 1.15164C190.613 2.17524 190.509 3.54111 190.509 5.02741V8.53874C190.509 9.59404 190.941 10.0567 191.348 10.6272C191.492 10.83 191.523 11.074 191.342 11.2261C190.888 11.6096 190.08 12.3226 189.636 12.7219L189.63 12.7156Z" fill="white"/>
<path d="M158.207 7.22357V6.73554C156.598 6.73554 154.898 7.08413 154.898 9.00459C154.898 9.97749 155.396 10.6367 156.25 10.6367C156.877 10.6367 157.437 10.2469 157.791 9.61305C158.229 8.83346 158.207 8.1014 158.207 7.22357ZM160.451 12.7156C160.304 12.8487 160.091 12.8582 159.925 12.7694C159.187 12.1483 159.055 11.8599 158.648 11.2673C157.427 12.5286 156.563 12.9057 154.98 12.9057C153.108 12.9057 151.649 11.7363 151.649 9.39439C151.649 7.56583 152.629 6.32039 154.022 5.71193C155.23 5.17318 156.917 5.07811 158.207 4.92917V4.63761C158.207 4.10204 158.248 3.46822 157.938 3.00554C157.665 2.59039 157.146 2.41926 156.689 2.41926C155.84 2.41926 155.083 2.85976 154.898 3.77246C154.861 3.97528 154.713 4.17493 154.513 4.18444L152.353 3.94992C152.172 3.90873 151.971 3.75978 152.021 3.47773C152.519 0.828392 154.882 0.0297852 156.999 0.0297852C158.082 0.0297852 159.497 0.321339 160.351 1.15164C161.434 2.17524 161.331 3.54111 161.331 5.02741V8.53874C161.331 9.59404 161.763 10.0567 162.17 10.6272C162.314 10.83 162.345 11.074 162.164 11.2261C161.71 11.6096 160.902 12.3226 160.458 12.7219L160.451 12.7156Z" fill="white"/>
</g>
<path fill-rule="evenodd" clip-rule="evenodd" d="M273.903 6.09659C273.048 4.61495 271.796 3.36246 270.315 2.50731C268.833 1.65216 267.122 1.19385 265.411 1.19385C263.701 1.19385 261.99 1.65216 260.509 2.50731C259.02 3.37027 257.782 4.60764 256.919 6.09659C256.064 7.57824 255.605 9.28903 255.605 10.9998C255.605 12.7106 256.064 14.4214 256.919 15.9031C257.782 17.3922 259.019 18.6297 260.509 19.4924C262 20.3506 263.69 20.8036 265.411 20.8063C267.122 20.8063 268.833 20.348 270.315 19.4924C271.796 18.6372 273.048 17.3847 273.903 15.9031C274.758 14.4214 275.217 12.7106 275.217 10.9998C275.217 9.28903 274.758 7.57775 273.903 6.09659ZM271.03 14.2424C270.461 15.2242 269.646 16.04 268.664 16.6087C267.68 17.1743 266.566 17.4728 265.431 17.4747C264.303 17.4747 263.176 17.1728 262.199 16.6087C261.222 16.0447 260.396 15.219 259.832 14.2424C259.268 13.2658 258.966 12.1377 258.966 11.0102C258.966 9.88208 259.268 8.75401 259.832 7.7774C260.396 6.80078 261.222 5.97464 262.199 5.41109C263.182 4.84538 264.296 4.54683 265.431 4.54512C266.559 4.54512 267.687 4.84706 268.664 5.41109C269.645 5.97994 270.461 6.79572 271.03 7.7774C271.596 8.76093 271.895 9.87543 271.897 11.0102C271.894 12.1447 271.596 13.259 271.03 14.2424Z" fill="#CA3432"/>
<path fill-rule="evenodd" clip-rule="evenodd" d="M278.217 6.79882H282.276V18.2055H285.649V6.79882H289.708V3.91127H278.217V6.79882ZM286.621 18.2055H290.165L291.175 15.3184H295.31L296.283 18.2055H299.77L294.853 3.91176H291.166L286.621 18.2055ZM294.336 12.7205H291.875L293.112 9.28019L294.336 12.7205ZM300.056 18.2055H303.315V13.0598H305.659C306.154 13.0598 306.728 12.9698 307.022 13.372C307.316 13.7743 307.288 14.4745 307.278 15.1984C307.266 15.9223 307.27 16.6687 307.434 17.2013C307.597 17.7339 307.891 18.2055 308.318 18.2055H311.261C310.923 17.8501 310.684 17.4128 310.566 16.9367C310.45 16.4578 310.466 15.936 310.487 15.3577C310.509 14.7799 310.534 14.1461 310.466 13.6263C310.4 13.1055 310.242 12.6993 309.985 12.3777C309.724 12.0558 309.373 11.8189 308.977 11.6971C309.599 11.2511 310.12 10.6576 310.437 10.0281C310.753 9.3992 310.865 8.73484 310.907 8.07688C310.949 7.41892 310.921 6.76784 310.714 6.14922C310.505 5.5306 310.117 4.94394 309.595 4.54169C309.067 4.13686 308.422 3.91564 307.757 3.91176H300.056L300.056 18.2055ZM307.099 7.0747C307.491 7.33385 307.73 7.80937 307.724 8.29079C307.718 8.53668 307.655 8.77775 307.539 8.9946C307.423 9.21146 307.257 9.39804 307.056 9.53934C306.647 9.82062 306.098 9.76063 305.587 9.76063H303.312V6.93602H305.711C306.19 6.93602 306.706 6.81554 307.099 7.0747ZM312.614 6.44132C312.124 7.16518 311.763 8.01492 311.567 9.10169C311.371 10.1885 311.339 11.5127 311.516 12.6684C311.691 13.8245 312.076 14.8114 312.542 15.5766C313.009 16.3417 313.558 16.8841 314.157 17.3474C314.755 17.8106 315.4 18.1941 316.129 18.4095C316.863 18.6217 317.634 18.6747 318.39 18.5649C319.117 18.4567 319.762 18.1927 320.265 17.964C320.767 17.7348 321.128 17.5411 321.466 17.3139L322.038 18.205H324.154L324.149 10.1909H318.089V12.987H320.931C321.041 13.4694 320.975 13.9976 320.73 14.4372C320.485 14.8763 320.061 15.2269 319.459 15.4748C318.858 15.7221 318.08 15.8662 317.322 15.6366C316.565 15.4069 315.83 14.8035 315.345 14.1126C314.861 13.4227 314.627 12.6447 314.525 11.7837C314.423 10.9231 314.452 9.97897 314.658 9.15578C314.864 8.33259 315.247 7.62939 315.729 7.12289C316.211 6.61638 316.791 6.30707 317.522 6.17479C318.253 6.04251 319.133 6.08824 319.72 6.41575C320.308 6.74325 320.602 7.35204 320.771 7.73905C320.94 8.12606 320.986 8.29079 320.991 8.45995H324.036C323.99 7.82756 323.811 7.20943 323.448 6.50328C323.084 5.79713 322.538 5.00394 321.762 4.44482C320.986 3.8857 319.981 3.56163 319.049 3.43869C318.191 3.32145 317.319 3.37917 316.484 3.60835C315.712 3.82226 315.025 4.17189 314.373 4.64496C313.721 5.1195 313.103 5.71746 312.614 6.44132ZM335.417 18.2055V15.3184H328.699V12.002L334.472 11.9902L334.473 9.37215H328.699V6.79931H335.417V3.91176L325.339 3.91373L325.355 18.2055H335.417ZM335.903 6.79882H339.963V18.2055H343.336V6.79882H347.395V3.91127H335.903V6.79882ZM344.963 17.5642H345.148V17.5283C345.121 17.5288 345.084 17.52 345.068 17.4841L344.927 17.25C345.061 17.2072 345.115 17.0346 344.976 16.9426C344.915 16.9102 344.863 16.9053 344.785 16.9033H344.443V16.9353C344.481 16.9259 344.55 16.9544 344.536 17.0041C344.533 17.1698 344.543 17.3252 344.528 17.5013C344.499 17.5386 344.484 17.5244 344.446 17.5283V17.5642H344.781V17.5283C344.745 17.5372 344.674 17.5096 344.689 17.4595V17.25H344.781L344.963 17.5642ZM344.688 17.217V16.9471C344.77 16.9431 344.897 16.9594 344.897 17.0562C344.903 17.0951 344.897 17.2072 344.801 17.2146C344.767 17.22 344.725 17.2165 344.688 17.217ZM344.769 17.8627C344.887 17.8627 345.015 17.8298 345.137 17.7427C345.436 17.4949 345.48 17.1856 345.279 16.8684C345.03 16.566 344.72 16.5212 344.398 16.7253C344.096 16.9726 344.052 17.2819 344.255 17.5996C344.399 17.7914 344.587 17.8607 344.769 17.8627ZM344.769 17.7939C344.665 17.7939 344.551 17.7644 344.442 17.6871C344.174 17.4659 344.134 17.191 344.315 16.9048C344.535 16.6378 344.812 16.5989 345.095 16.7794C345.363 16.9997 345.404 17.2765 345.223 17.5593C345.095 17.7299 344.927 17.7924 344.769 17.7939Z" fill="white"/>
<path fill-rule="evenodd" clip-rule="evenodd" d="M267.077 8.09764C266.574 7.80652 265.992 7.65015 265.411 7.65015C264.829 7.65015 264.248 7.80652 263.745 8.09764C263.239 8.39173 262.818 8.81333 262.524 9.32062C262.233 9.82878 262.079 10.4045 262.078 10.9906C262.078 11.5738 262.234 12.1565 262.524 12.6611C262.815 13.1656 263.241 13.5925 263.745 13.8836C264.249 14.1747 264.829 14.3311 265.411 14.3311C265.992 14.3311 266.574 14.1752 267.077 13.8836C267.58 13.592 268.006 13.1656 268.297 12.6611C268.589 12.1528 268.743 11.5769 268.744 10.9906C268.744 10.4079 268.588 9.82516 268.297 9.32062C268.004 8.81333 267.583 8.39173 267.077 8.09764Z" fill="#CA3432"/>
<defs>
<clipPath id="clip0_421_1008">
<rect width="92" height="22" fill="white" transform="translate(27.6053)"/>
</clipPath>
<clipPath id="clip1_421_1008">
<rect width="72" height="22" fill="white" transform="translate(151.605)"/>
</clipPath>
</defs>
</svg>
