<svg width="118" height="32" viewBox="0 0 118 32" fill="none" xmlns="http://www.w3.org/2000/svg">
<path d="M105.642 12.7321H106.098C108.137 12.7321 109.758 13.3904 110.958 14.7041C112.159 16.0177 112.758 17.8749 112.758 20.2727C112.758 22.6705 112.156 24.5277 110.958 25.8412C109.758 27.1549 108.137 27.8133 106.098 27.8133H105.642C103.603 27.8133 101.982 27.1549 100.782 25.8412C99.5811 24.5277 98.9792 22.6705 98.9792 20.2727C98.9792 17.8749 99.581 16.0177 100.779 14.7041C101.976 13.3904 103.6 12.7321 105.642 12.7321ZM105.642 31.7964H106.098C109.452 31.7964 112.144 30.7575 114.17 28.6768C116.196 26.5962 117.206 23.7938 117.206 20.2696C117.206 16.7455 116.193 13.943 114.17 11.8624C112.144 9.78171 109.455 8.74288 106.098 8.74288H105.642C102.285 8.74288 99.5962 9.78171 97.5699 11.8624C95.5437 13.943 94.5336 16.7455 94.5336 20.2696C94.5336 23.7938 95.5467 26.5962 97.5699 28.6768C99.5932 30.7575 102.285 31.7964 105.642 31.7964ZM64.7688 31.3646H85.2067L85.6635 30.9297V27.8101L85.2067 27.3754H78.5443L78.1118 26.9223V0.752385L77.6552 0.296387H67.0007L66.5441 0.752385V3.85074L67.0007 4.30674H73.2065L73.6631 4.74159V26.9223L73.2065 27.3783H64.7658L64.3303 27.8133V30.9327L64.7688 31.3646ZM42.5556 12.7321H43.0122C45.0506 12.7321 46.6716 13.3904 47.8722 14.7041C49.0728 16.0177 49.6717 17.8749 49.6717 20.2727C49.6717 22.6705 49.0728 24.5277 47.8722 25.8412C46.6716 27.1549 45.0536 27.8133 43.0122 27.8133H42.5556C40.5172 27.8133 38.8962 27.1549 37.6955 25.8412C36.4949 24.5277 35.8961 22.6705 35.8961 20.2727C35.8961 17.8749 36.4949 16.0177 37.6955 14.7041C38.8962 13.3904 40.5172 12.7321 42.5556 12.7321ZM42.5556 31.7964H43.0122C46.3661 31.7964 49.0577 30.7575 51.084 28.6768C53.1103 26.5962 54.1203 23.7938 54.1203 20.2696C54.1203 16.7455 53.1072 13.943 51.084 11.8624C49.0577 9.78171 46.3692 8.74288 43.0122 8.74288H42.5556C39.1986 8.74288 36.51 9.78171 34.4838 11.8624C32.4575 13.943 31.4475 16.7455 31.4475 20.2696C31.4475 23.7938 32.4605 26.5962 34.4838 28.6768C36.51 30.7575 39.1986 31.7964 42.5556 31.7964ZM1.25012 31.3646H3.02839L3.91752 30.9297L11.0125 23.368H11.4691L18.5853 30.9297L19.4744 31.3646H21.2314L21.688 30.9297V27.8101L14.1365 20.2727V19.8378L21.2314 12.7321V9.61261L20.7989 9.17775H19.0208L18.1316 9.61261L11.4691 16.7183H11.0125L4.35302 9.61261L3.46388 9.17775H1.68562L1.25012 9.61261V12.7321L8.36622 19.8378V20.2727L0.793457 27.8133V30.9327L1.25012 31.3646Z" fill="white"/>
</svg>
