<svg width="74" height="35" viewBox="0 0 74 35" fill="none" xmlns="http://www.w3.org/2000/svg">
<g clip-path="url(#clip0_433_162)">
<mask id="mask0_433_162" style="mask-type:luminance" maskUnits="userSpaceOnUse" x="0" y="0" width="74" height="35">
<path d="M73.0549 0H0.5V35H73.0549V0Z" fill="white"/>
</mask>
<g mask="url(#mask0_433_162)">
<path d="M26.9429 6.57869C27.6444 6.57869 28.3625 6.3952 28.5295 6.0449C28.7132 5.69461 29.0639 4.81051 28.3458 4.27672C27.6444 3.74293 27.6444 3.92642 27.277 3.74293C26.9263 3.55944 26.3919 3.39263 26.0412 3.74293C25.6905 4.09323 25.8241 5.02737 25.8408 5.2609C25.8742 5.52779 26.2248 6.57869 26.9429 6.57869Z" fill="#F2D056"/>
<path d="M61.5285 12.5006C61.5285 12.1503 61.1778 11.7999 60.9941 11.9668C60.8104 12.1503 59.8251 13.0844 59.3408 13.4013C58.8732 13.7349 57.6207 14.9693 57.6207 14.9693C57.6207 14.9693 56.7356 15.8534 56.5519 15.8534C56.3682 15.8534 55.6668 16.7376 54.7817 16.0369C53.8966 15.3363 53.7129 14.619 53.8966 13.7349C54.0803 12.8509 53.8966 12.6673 54.598 12.5006C55.2994 12.3171 56.5519 12.3171 57.437 11.9668C58.3221 11.6165 59.1738 11.2495 58.9233 10.282C58.6728 9.31449 58.5058 8.51379 58.2386 8.1969C57.9714 7.89663 57.6207 7.3628 56.7356 7.3628C55.8505 7.3628 55.3161 8.01337 54.6982 8.29694C54.1137 8.58051 52.7777 9.91503 52.4938 10.6323C52.3602 10.9993 52.0429 11.4663 51.8091 12.0835C51.7924 12.1002 51.7924 12.1169 51.7757 12.1336C51.425 12.6673 50.3896 13.3346 49.8385 13.8017C49.3041 14.2687 48.8365 14.7525 48.586 14.9193C48.252 15.1362 48.1518 15.1362 47.8846 15.3363C47.5506 15.5532 47.1832 15.8701 47.3502 15.1529C47.5339 14.4522 47.5339 14.2687 47.7009 13.3846C47.8846 12.5006 48.3188 10.1652 48.586 9.49802C48.8532 8.83076 48.9367 7.91333 49.2874 7.0292C49.6381 6.14511 49.8218 5.61132 49.9888 4.91072C50.1725 4.21012 50.3061 3.87651 50.6735 3.05913C51.0409 2.25845 51.3916 1.72465 51.2246 1.19087C51.0409 0.657076 50.8405 0.22337 50.5065 0.273414C50.1725 0.306775 50.3729 0.156647 49.8218 0.139966C49.2874 0.139966 49.3041 0.273414 49.2874 0.473585C49.2707 0.673757 49.3375 1.02406 49.1371 1.37436C48.9367 1.72465 48.2186 2.87564 47.6842 3.97659C47.1665 5.07753 46.1645 7.4129 46.0309 8.09678C45.914 8.78067 45.3796 10.5489 45.2126 10.8992C45.0957 11.1327 45.0289 11.5831 44.9788 12.0502C44.6114 12.3505 44.077 12.9509 43.1752 13.6349C41.7557 14.7025 40.1692 16.1036 39.8185 15.9369C39.4678 15.7533 39.8185 14.7024 39.902 13.8684C39.9855 13.0343 40.8706 10.4655 41.0543 9.93166C41.238 9.39791 41.9394 7.46292 41.9394 7.27942C41.9394 7.09593 42.8245 7.09593 43.0082 7.09593C43.1919 7.09593 43.7096 7.09593 43.7096 6.56214C43.7096 6.16179 43.5259 6.21184 43.3589 6.21184C43.1752 6.21184 42.4738 6.21184 42.4738 6.02835C42.4738 5.77813 42.4738 5.67804 42.6575 5.14426C42.8412 4.61046 42.8412 4.44365 43.0082 3.72637C43.1919 3.02577 43.5426 1.60789 43.5426 1.0741C43.5426 0.540309 42.6575 0.373499 42.3068 0.190009C41.9561 0.00651808 41.6054 1.0741 41.4217 1.4244C41.238 1.7747 41.0709 2.30849 40.7203 3.00909C40.3696 3.70969 39.4845 6.01167 39.2173 6.12844C38.9501 6.2452 37.8813 5.82818 37.6642 5.8115C37.4471 5.79481 37.5306 6.52878 37.5306 6.71226C37.5306 6.89576 37.7143 6.89576 38.065 7.06257C38.4156 7.24606 38.5159 7.14597 38.7831 7.31278C38.9501 7.42952 38.6829 7.74649 38.5994 8.13018C38.4156 9.01422 38.5994 8.13018 38.2487 9.54804C38.1151 10.1152 37.8646 11.0493 37.6307 11.9835C37.2633 12.267 36.7123 12.9009 35.7603 13.6015C34.3409 14.6691 32.7544 16.0703 32.4037 15.9035C32.053 15.72 32.4037 14.6691 32.4872 13.835C32.5707 13.001 33.4557 10.4321 33.6395 9.89834C33.8231 9.36451 34.5246 7.42952 34.5246 7.24606C34.5246 7.06256 35.4097 7.06257 35.5934 7.06257C35.7771 7.06257 36.2948 7.06256 36.2948 6.52878C36.2948 6.12843 36.111 6.17848 35.9441 6.17848C35.7603 6.17848 35.059 6.17848 35.059 5.99498C35.059 5.74477 35.059 5.64468 35.2427 5.11089C35.4264 4.5771 35.4264 4.41029 35.5934 3.69301C35.7771 2.99241 36.1278 1.57453 36.1278 1.04074C36.1278 0.506947 35.2427 0.340138 34.8919 0.156647C34.5412 -0.0268437 34.1905 1.04074 34.0069 1.39104C33.8231 1.74134 33.6562 2.27513 33.3055 2.97573C32.9547 3.67633 32.0697 5.97831 31.8024 6.09507C31.5352 6.21184 30.4665 5.79481 30.2494 5.77813C30.0323 5.76145 30.1158 6.49541 30.1158 6.6789C30.1158 6.86239 30.2994 6.86239 30.6501 7.0292C31.0009 7.2127 31.101 7.11261 31.3682 7.27942C31.5352 7.3962 31.2848 7.7131 31.1846 8.09678C31.0009 8.79737 31.0009 8.63061 30.8339 9.51465C30.7003 10.1485 30.4164 11.2495 30.1491 12.2837C29.8486 12.4672 29.4812 12.7341 29.0637 13.051C28.3622 13.5849 27.4772 14.1186 27.1098 14.6357C26.7591 15.1695 26.041 15.8701 25.874 15.5198C25.7069 15.1695 25.3395 13.9351 25.874 12.5172C26.4084 11.0993 26.9427 10.0485 27.1098 9.51465C27.2934 8.9809 27.2934 8.81406 27.2934 8.63061C27.2934 8.44708 26.7591 7.92995 26.4084 7.74649C26.0576 7.56296 25.3395 7.3962 25.1726 7.56296C24.9888 7.74649 24.9888 7.91333 24.8219 8.26362C24.5713 8.76404 23.9368 10.5656 23.7531 11.6165C23.7364 11.6832 23.7364 11.7499 23.7196 11.8333C23.6529 11.8833 23.5693 11.9501 23.4858 12.0669C23.1351 12.6006 22.0998 13.2679 21.5486 13.7349C21.0143 14.202 20.5466 14.6858 20.2962 14.8526C19.9621 15.0694 19.862 15.0694 19.5947 15.2696C19.2607 15.4865 18.8933 15.8034 19.0604 15.0861C19.244 14.3855 19.244 14.202 19.411 13.3179C19.5947 12.4339 20.0289 10.0985 20.2962 9.43123C20.5633 8.76404 20.6469 7.84661 20.9976 6.96248C21.3482 6.07839 21.5319 5.5446 21.6989 4.844C21.8827 4.1434 22.0163 3.80978 22.3837 2.99241C22.751 2.19172 23.1018 1.65794 22.9348 1.12414C22.751 0.590352 22.5506 0.156647 22.2167 0.20669C21.8827 0.240051 22.0831 0.0899233 21.5319 0.0732422C20.9976 0.0732422 21.0143 0.20669 20.9976 0.406861C20.9808 0.607033 21.0476 0.957331 20.8472 1.30764C20.6469 1.65794 19.9288 2.80892 19.3943 3.90986C18.8766 5.0108 17.8746 7.34618 17.741 8.03007C17.6241 8.71395 17.0897 10.4822 16.9228 10.8325C16.739 11.1828 16.7223 12.0335 16.6555 12.684C16.5887 13.3346 16.2547 14.6691 16.1379 15.0527C16.0209 15.4364 16.1212 15.7033 16.0209 16.4873C15.9374 17.2046 16.3716 18.2555 16.5554 18.439C16.739 18.6225 17.2567 18.7893 17.7912 18.6224C18.3255 18.439 18.409 18.3556 18.7597 18.1387C19.1605 17.8885 19.5614 17.5716 19.912 17.0378C20.2627 16.504 20.7304 15.9035 21.2147 15.5031C21.6989 15.1028 21.6822 15.1028 22.2167 14.569C22.751 14.0352 22.7844 14.0352 23.1184 13.6849C23.2019 13.5849 23.2854 13.5014 23.369 13.4347C23.1852 14.4689 23.0516 15.6199 23.369 16.2538C23.9033 17.3213 24.7884 17.3213 25.4898 17.3213C26.1913 17.3213 26.9094 16.7876 27.4437 16.087C27.9782 15.3863 29.0303 14.5023 29.5647 13.9685C29.6481 13.8851 29.715 13.8183 29.8151 13.7516C29.7818 13.9018 29.7651 14.0352 29.7484 14.152C29.5647 15.3863 29.7484 16.454 30.8171 17.338C31.8859 18.2221 32.9381 17.6883 33.4725 17.6883C34.0069 17.6883 35.4264 15.5699 35.727 15.403C35.9608 15.2863 36.5286 14.5857 37.23 13.8684C37.2133 13.9685 37.1965 14.0519 37.1799 14.1353C36.9962 15.3697 37.1799 16.4373 38.2487 17.3213C39.3175 18.2054 40.3696 17.6717 40.904 17.6717C41.4384 17.6717 42.8579 15.5532 43.1585 15.3863C43.3923 15.2696 44.0102 14.5023 44.7617 13.7516C44.6448 14.3021 44.5112 14.8693 44.4444 15.0861C44.3275 15.4698 44.4277 15.7367 44.3275 16.5207C44.244 17.238 44.6782 18.2889 44.8619 18.4723C45.0456 18.6558 45.5633 18.8227 46.0977 18.6558C46.6321 18.4723 46.7156 18.389 47.0663 18.1721C47.4671 17.9219 47.8679 17.605 48.2186 17.0711C48.5693 16.5373 49.0369 15.9369 49.5212 15.5365C50.0055 15.1362 49.9888 15.1362 50.5232 14.6023C51.0576 14.0686 51.091 14.0686 51.425 13.7183C51.4417 13.7016 51.4584 13.6849 51.4751 13.6682C51.4751 13.8851 51.4751 14.1019 51.4918 14.3355C51.6755 16.2871 51.8425 16.6374 52.5606 17.1713C53.262 17.705 53.6294 17.8718 54.3308 18.0553C55.0322 18.2388 55.934 18.2555 56.8191 17.3881C57.6875 16.5207 57.437 16.8209 58.272 15.9369C58.7897 15.3863 59.7416 14.252 60.0923 13.9018C60.4764 13.5682 61.5285 12.8509 61.5285 12.5006ZM55.0823 10.6489C55.266 10.4655 55.2326 10.3654 55.433 10.1152C55.6334 9.86494 55.5165 10.0318 55.7837 9.7649C55.9674 9.58137 56.2179 9.14766 56.2179 9.14766C56.7523 8.79737 56.7523 9.14766 56.9193 9.68148C57.103 10.2153 57.1865 10.2986 56.9193 10.5656C56.6688 10.8158 56.2179 10.9159 55.8505 11.0993C55.4998 11.2829 55.1491 11.2829 54.9654 11.0993C54.8151 10.9159 54.8986 10.8325 55.0823 10.6489Z" fill="#F2D056"/>
<path d="M9.9425 17.7216C8.17225 17.7216 0.924454 17.9051 0.924454 17.9051C0.223053 17.9051 0.740754 18.9727 0.924454 19.1395C1.10815 19.323 2.69466 19.1395 3.93046 19.1395C5.16626 19.1395 8.0053 19.1395 9.77548 19.1395C11.3787 19.1395 11.8296 19.3731 12.4308 18.956C12.9651 18.6057 12.4308 18.2554 12.247 17.8884C12.0801 17.5381 11.7127 17.7216 9.9425 17.7216Z" fill="#F2D056"/>
<path d="M72.6512 17.8883C72.6512 17.8883 65.4034 17.7048 63.6332 17.7048C61.8631 17.7048 61.5123 17.5213 61.3286 17.8883C61.145 18.2386 60.6273 18.5889 61.145 18.9559C61.7461 19.3562 62.197 19.1394 63.8003 19.1394C65.5704 19.1394 68.4094 19.1394 69.6452 19.1394C70.881 19.1394 72.4843 19.3228 72.6512 19.1394C72.8182 18.9559 73.3527 17.8883 72.6512 17.8883Z" fill="#F2D056"/>
<path d="M14.4017 20.8577H4.96622C4.74912 20.8577 4.59882 20.9411 4.51532 21.0912C4.41512 21.258 4.38171 21.5082 4.38171 21.8418V22.4591C4.38171 22.8094 4.43181 23.0595 4.51532 23.2097C4.61552 23.3765 4.76582 23.4432 4.96622 23.4432H8.13926V34.169C8.13926 34.5861 8.54003 34.8029 9.34164 34.8029H10.043C10.8446 34.8029 11.2454 34.5861 11.2454 34.169V23.4432H14.4184C14.6355 23.4432 14.7858 23.3598 14.8693 23.2097C14.9695 23.0428 15.0029 22.7927 15.0029 22.4591V21.8418C15.0029 21.4915 14.9529 21.2413 14.8693 21.0912C14.7691 20.9244 14.6188 20.8577 14.4017 20.8577Z" fill="white"/>
<path d="M26.4756 20.8079H25.7741C24.9725 20.8079 24.5718 21.0247 24.5718 21.4417V26.3627H19.1944V21.4417C19.1944 21.0247 18.7936 20.8079 17.992 20.8079H17.2905C16.489 20.8079 16.0881 21.0247 16.0881 21.4417V34.186C16.0881 34.603 16.489 34.8199 17.2905 34.8199H17.992C18.7936 34.8199 19.1944 34.603 19.1944 34.186V28.9982H24.5718V34.2027C24.5718 34.6197 24.9725 34.8366 25.7741 34.8366H26.4756C27.2771 34.8366 27.678 34.6197 27.678 34.2027V21.4584C27.678 21.0247 27.2771 20.8079 26.4756 20.8079Z" fill="white"/>
<path d="M31.7863 20.791H31.085C30.2833 20.791 29.8826 21.0079 29.8826 21.4416V34.1858C29.8826 34.6195 30.2833 34.8364 31.085 34.8364H31.7863C32.5879 34.8364 32.9888 34.6195 32.9888 34.1858V21.4416C32.9721 21.0079 32.5879 20.791 31.7863 20.791Z" fill="white"/>
<path d="M45.4305 20.8076H44.846C44.0444 20.8076 43.6436 21.0245 43.6436 21.4416V28.0472C43.6436 28.6477 43.6603 29.0981 43.677 29.3984L43.5935 29.4151C43.3764 29.0147 43.1426 28.631 42.8754 28.2474L38.383 21.3415C38.2495 21.1246 38.0825 20.9912 37.8654 20.9078C37.6483 20.841 37.381 20.791 37.0638 20.791H36.2121C35.4105 20.791 35.0096 21.0079 35.0096 21.4249V34.1691C35.0096 34.5861 35.4105 34.803 36.2121 34.803H36.7965C37.5982 34.803 37.999 34.5861 37.999 34.1691V27.4634C37.999 26.8629 37.9823 26.4125 37.9656 26.1123L38.0491 26.0956C38.2662 26.4959 38.5 26.8796 38.7672 27.2632L43.3597 34.2692C43.4933 34.4861 43.6603 34.6195 43.8774 34.7029C44.0945 34.7697 44.3617 34.8197 44.679 34.8197H45.4305C46.2321 34.8197 46.6329 34.6028 46.6329 34.1858V21.4416C46.6329 21.0245 46.2321 20.8076 45.4305 20.8076Z" fill="white"/>
<path d="M58.7402 27.0464H54.6987C54.4816 27.0464 54.3313 27.1298 54.2478 27.2799C54.1477 27.4467 54.1142 27.6969 54.1142 28.0305V28.6644C54.1142 29.0147 54.1644 29.2649 54.2478 29.4151C54.348 29.5819 54.4984 29.6486 54.6987 29.6486H56.4523V32.1841C55.9513 32.2842 55.4336 32.3175 54.8991 32.3175C52.628 32.3175 51.4924 30.7996 51.4924 27.7804C51.4924 26.2791 51.7763 25.1614 52.3441 24.4108C52.9119 23.6601 53.7803 23.2931 54.9493 23.2931C55.5004 23.2931 56.0014 23.3432 56.4188 23.4266C56.8363 23.5267 57.1871 23.6268 57.4876 23.7435C57.7715 23.8603 57.9386 23.927 57.9886 23.927C58.1557 23.927 58.3227 23.8103 58.5398 23.5767C58.7402 23.3432 58.9238 23.0763 59.0741 22.776C59.2245 22.4758 59.2912 22.2423 59.2912 22.0421C59.2912 21.7752 59.0575 21.5417 58.6066 21.3248C58.1557 21.108 57.6046 20.9411 56.9366 20.8244C56.2685 20.7076 55.6339 20.6409 55.0161 20.6409C50.5739 20.6409 48.3528 23.0096 48.3528 27.7303C48.3528 30.1824 48.8871 32.0006 49.9559 33.1516C51.0247 34.3193 52.678 34.8865 54.9158 34.8865C56.0181 34.8865 57.0701 34.7696 58.0721 34.5528C59.0741 34.3193 59.5751 33.9189 59.5751 33.3184V27.7804C59.5751 27.4968 59.5084 27.2966 59.3915 27.1798C59.2077 27.1131 59.0073 27.0464 58.7402 27.0464Z" fill="white"/>
<path d="M69.3447 28.5311C68.994 27.9973 68.5765 27.5803 68.0922 27.2967C67.6079 27.0131 66.99 26.7128 66.2385 26.3959C65.7208 26.1624 65.32 25.9956 65.0695 25.8454C64.8023 25.712 64.5852 25.5285 64.3848 25.295C64.2011 25.0614 64.1009 24.7778 64.1009 24.4443C64.1009 24.1607 64.2345 23.8937 64.5017 23.6603C64.7689 23.4267 65.2532 23.3266 65.9546 23.3266C66.4723 23.3266 66.9733 23.41 67.4576 23.5601C67.5578 23.5935 67.6914 23.6603 67.8417 23.727C67.992 23.7937 68.1089 23.827 68.1757 23.827C68.326 23.827 68.4763 23.727 68.66 23.5101C68.827 23.3099 68.9773 23.0597 69.0942 22.7761C69.2111 22.4926 69.2779 22.259 69.2779 22.0756C69.2779 21.8587 69.1276 21.6585 68.8437 21.4416C68.5264 21.2081 68.0922 21.0413 67.5411 20.8912C66.99 20.7577 66.3721 20.6743 65.7041 20.6743C64.8858 20.6743 64.1176 20.8245 63.3995 21.108C62.6814 21.3916 62.0969 21.842 61.6627 22.4425C61.2118 23.043 60.9947 23.7937 60.9947 24.6944C60.9947 25.7787 61.2285 26.6294 61.7128 27.2133C62.1971 27.7971 62.8484 28.2975 63.6834 28.6978L64.6019 29.0982C65.3534 29.3985 65.9045 29.6821 66.2385 29.9323C66.5725 30.1825 66.7395 30.5161 66.7395 30.9331C66.7395 31.4502 66.5558 31.8172 66.1884 32.0174C65.821 32.2175 65.3868 32.3343 64.8691 32.3343C64.4015 32.3343 64.0007 32.2676 63.65 32.1508C63.2993 32.0341 62.9152 31.8672 62.4977 31.6504C62.1971 31.4836 62.0134 31.4168 61.9466 31.4168C61.813 31.4168 61.646 31.517 61.4456 31.7338C61.2452 31.9507 61.0782 32.1842 60.9279 32.4678C60.7776 32.7514 60.7108 32.9849 60.7108 33.1851C60.7108 33.4352 60.8945 33.6855 61.2619 33.9357C61.6627 34.2359 62.2138 34.4695 62.9152 34.653C63.6166 34.8365 64.4516 34.9365 65.3868 34.9365C66.1717 34.9365 66.9065 34.7864 67.5745 34.5028C68.2592 34.2192 68.8103 33.7355 69.2445 33.085C69.6787 32.4344 69.8958 31.6004 69.8958 30.5828C69.8791 29.7488 69.6954 29.0648 69.3447 28.5311Z" fill="white"/>
</g>
</g>
<defs>
<clipPath id="clip0_433_162">
<rect width="73" height="35" fill="white" transform="translate(0.5)"/>
</clipPath>
</defs>
</svg>
