<svg width="105" height="19" viewBox="0 0 105 19" fill="none" xmlns="http://www.w3.org/2000/svg">
<path d="M18.7567 0.000488281H0.261108V18.496H18.7567V0.000488281Z" fill="#00B67E"/>
<path d="M9.50779 2.05615L11.3677 6.68853L16.3482 7.0262L12.5181 10.2269L13.7352 15.0679L9.50779 12.4137L5.28038 15.0679L6.49843 10.2269L2.66736 7.0262L7.64784 6.68853L9.50779 2.05615Z" fill="white"/>
<path d="M40.2523 0.000488281H21.7567V18.496H40.2523V0.000488281Z" fill="#00B67E"/>
<path d="M61.7477 0.000488281H43.2522V18.496H61.7477V0.000488281Z" fill="#00B67E"/>
<path d="M83.2434 0.000488281H64.7478V18.496H83.2434V0.000488281Z" fill="#00B67E"/>
<path d="M104.739 0.000488281H86.2433V18.496H104.739V0.000488281Z" fill="url(#paint0_linear_421_1075)"/>
<path d="M95.4909 2.05518L97.3509 6.68755L102.331 7.02522L98.5003 10.2259L99.7184 15.0669L95.4909 12.4127L91.2626 15.0669L92.4806 10.2259L88.6495 7.02522L93.63 6.68755L95.4909 2.05518Z" fill="white"/>
<path d="M31.0489 2.05615L32.9276 6.68828L37.9582 7.02593L34.0886 10.2264L35.3189 15.0672L31.0489 12.4131L26.779 15.0672L28.0083 10.2264L24.1396 7.02593L29.1702 6.68828L31.0489 2.05615Z" fill="white"/>
<path d="M52.5008 2.05615L54.3795 6.68828L59.4101 7.02593L55.5414 10.2264L56.7708 15.0672L52.5008 12.4131L48.2309 15.0672L49.4602 10.2264L45.5916 7.02593L50.6222 6.68828L52.5008 2.05615Z" fill="white"/>
<path d="M73.9489 2.05615L75.8276 6.68828L80.8582 7.02593L76.9886 10.2264L78.2189 15.0672L73.9489 12.4131L69.678 15.0672L70.9083 10.2264L67.0397 7.02593L72.0693 6.68828L73.9489 2.05615Z" fill="white"/>
<defs>
<linearGradient id="paint0_linear_421_1075" x1="105.02" y1="8.88757" x2="86.0204" y2="8.88757" gradientUnits="userSpaceOnUse">
<stop offset="0.425" stop-color="#DCDCE6"/>
<stop offset="0.4251" stop-color="#00B67E"/>
</linearGradient>
</defs>
</svg>
