<svg width="80" height="80" viewBox="0 0 80 80" fill="none" xmlns="http://www.w3.org/2000/svg">
<g clip-path="url(#clip0_988_1101)">
<path d="M38.473 66.6666H7.99816C5.0527 66.6666 2.66504 64.2787 2.66504 61.3334V56H43.5958L38.473 66.6666Z" fill="#D3DCFB"/>
<path d="M72.0035 23.9999V46.4059V61.3331H7.99817C5.0527 61.3331 2.66504 58.9453 2.66504 55.9998V23.9999L40.001 10.6665L72.0035 23.9999Z" fill="#EBF5FC"/>
<path d="M12.0833 34.6668H9.25C8.55969 34.6668 8 34.1071 8 33.4168V30.5835C8 29.8932 8.55969 29.3335 9.25 29.3335H12.0833C12.7736 29.3335 13.3333 29.8932 13.3333 30.5835V33.4168C13.3333 34.1071 12.7736 34.6668 12.0833 34.6668Z" fill="#3C58A0"/>
<path d="M22.7503 34.6668H19.917C19.2267 34.6668 18.667 34.1071 18.667 33.4168V30.5835C18.667 29.8932 19.2267 29.3335 19.917 29.3335H22.7503C23.4406 29.3335 24.0003 29.8932 24.0003 30.5835V33.4168C24.0003 34.1071 23.4406 34.6668 22.7503 34.6668Z" fill="#3C58A0"/>
<path d="M33.4163 34.6668H30.583C29.8927 34.6668 29.333 34.1071 29.333 33.4168V30.5835C29.333 29.8932 29.8927 29.3335 30.583 29.3335H33.4163C34.1066 29.3335 34.6663 29.8932 34.6663 30.5835V33.4168C34.6663 34.1071 34.1068 34.6668 33.4163 34.6668Z" fill="#3C58A0"/>
<path d="M44.0833 34.6668H41.25C40.5597 34.6668 40 34.1071 40 33.4168V30.5835C40 29.8932 40.5597 29.3335 41.25 29.3335H44.0833C44.7736 29.3335 45.3333 29.8932 45.3333 30.5835V33.4168C45.3333 34.1071 44.7736 34.6668 44.0833 34.6668Z" fill="#3C58A0"/>
<path d="M54.7483 34.6668H51.915C51.2247 34.6668 50.665 34.1071 50.665 33.4168V30.5835C50.665 29.8932 51.2247 29.3335 51.915 29.3335H54.7483C55.4386 29.3335 55.9983 29.8932 55.9983 30.5835V33.4168C55.9983 34.1071 55.4388 34.6668 54.7483 34.6668Z" fill="#3C58A0"/>
<path d="M65.4153 34.6668H62.582C61.8917 34.6668 61.332 34.1071 61.332 33.4168V30.5835C61.332 29.8932 61.8917 29.3335 62.582 29.3335H65.4153C66.1056 29.3335 66.6653 29.8932 66.6653 30.5835V33.4168C66.6653 34.1071 66.1056 34.6668 65.4153 34.6668Z" fill="#3C58A0"/>
<path d="M12.0833 45.3333H9.25C8.55969 45.3333 8 44.7736 8 44.0833V41.25C8 40.5597 8.55969 40 9.25 40H12.0833C12.7736 40 13.3333 40.5597 13.3333 41.25V44.0833C13.3333 44.7738 12.7736 45.3333 12.0833 45.3333Z" fill="#3C58A0"/>
<path d="M22.7503 45.3333H19.917C19.2267 45.3333 18.667 44.7736 18.667 44.0833V41.25C18.667 40.5597 19.2267 40 19.917 40H22.7503C23.4406 40 24.0003 40.5597 24.0003 41.25V44.0833C24.0003 44.7738 23.4406 45.3333 22.7503 45.3333Z" fill="#3C58A0"/>
<path d="M33.4163 45.3333H30.583C29.8927 45.3333 29.333 44.7736 29.333 44.0833V41.25C29.333 40.5597 29.8927 40 30.583 40H33.4163C34.1066 40 34.6663 40.5597 34.6663 41.25V44.0833C34.6663 44.7738 34.1068 45.3333 33.4163 45.3333Z" fill="#3C58A0"/>
<path d="M45.3333 45.3333V41.3333C45.3333 40.5969 44.7364 40 44 40H41.3333C40.5969 40 40 40.5969 40 41.3333V44C40 44.7364 40.597 45.3333 41.3333 45.3333H45.3333Z" fill="#3C58A0"/>
<path d="M12.0833 56H9.25C8.55969 56 8 55.4403 8 54.75V51.9167C8 51.2264 8.55969 50.6667 9.25 50.6667H12.0833C12.7736 50.6667 13.3333 51.2264 13.3333 51.9167V54.75C13.3333 55.4403 12.7736 56 12.0833 56Z" fill="#3C58A0"/>
<path d="M22.7503 56H19.917C19.2267 56 18.667 55.4403 18.667 54.75V51.9167C18.667 51.2264 19.2267 50.6667 19.917 50.6667H22.7503C23.4406 50.6667 24.0003 51.2264 24.0003 51.9167V54.75C24.0003 55.4403 23.4406 56 22.7503 56Z" fill="#3C58A0"/>
<path d="M33.4163 56H30.583C29.8927 56 29.333 55.4403 29.333 54.75V51.9167C29.333 51.2264 29.8927 50.6667 30.583 50.6667H33.4163C34.1066 50.6667 34.6663 51.2264 34.6663 51.9167V54.75C34.6663 55.4403 34.1068 56 33.4163 56Z" fill="#3C58A0"/>
<path d="M65.3775 29.3333H62.6196C62.4528 29.3333 62.2939 29.3661 62.1475 29.4237C62.6248 29.6122 62.9629 30.0765 62.9629 30.6209V33.3787C62.9629 33.9231 62.6246 34.3875 62.1475 34.5759C62.2939 34.6337 62.4528 34.6665 62.6196 34.6665H65.3775C66.0887 34.6665 66.6653 34.09 66.6653 33.3789V30.6211C66.6651 29.9098 66.0886 29.3333 65.3775 29.3333Z" fill="#2A428C"/>
<path d="M54.7105 29.3333H51.9527C51.7858 29.3333 51.6269 29.3661 51.4805 29.4237C51.9578 29.6122 52.2959 30.0765 52.2959 30.6209V33.3787C52.2959 33.9231 51.9577 34.3875 51.4805 34.5759C51.6269 34.6337 51.7858 34.6665 51.9527 34.6665H54.7105C55.4217 34.6665 55.9981 34.09 55.9981 33.3789V30.6211C55.9981 29.9098 55.4217 29.3333 54.7105 29.3333Z" fill="#2A428C"/>
<path d="M44.0454 29.3333H41.2876C41.1207 29.3333 40.9618 29.3661 40.8154 29.4237C41.2928 29.6122 41.6311 30.0765 41.6311 30.6209V33.3787C41.6311 33.9231 41.2928 34.3875 40.8154 34.5759C40.9618 34.6337 41.1207 34.6665 41.2876 34.6665H44.0454C44.7567 34.6665 45.3332 34.09 45.3332 33.3789V30.6211C45.3331 29.9098 44.7565 29.3333 44.0454 29.3333Z" fill="#2A428C"/>
<path d="M33.3794 29.3333H30.6216C30.4547 29.3333 30.2958 29.3661 30.1494 29.4237C30.6268 29.6122 30.965 30.0765 30.965 30.6209V33.3787C30.965 33.9231 30.6268 34.3875 30.1494 34.5759C30.2958 34.6337 30.4547 34.6665 30.6216 34.6665H33.3794C34.0907 34.6665 34.6672 34.09 34.6672 33.3789V30.6211C34.6671 29.9098 34.0907 29.3333 33.3794 29.3333Z" fill="#2A428C"/>
<path d="M22.7124 29.3333H19.9546C19.7877 29.3333 19.6288 29.3661 19.4824 29.4237C19.9598 29.6122 20.2979 30.0765 20.2979 30.6209V33.3787C20.2979 33.9231 19.9596 34.3875 19.4824 34.5759C19.6288 34.6337 19.7877 34.6665 19.9546 34.6665H22.7124C23.4237 34.6665 24.0002 34.09 24.0002 33.3789V30.6211C24.0002 29.9098 23.4237 29.3333 22.7124 29.3333Z" fill="#2A428C"/>
<path d="M12.0454 29.3333H9.28762C9.12074 29.3333 8.96184 29.3661 8.81543 29.4237C9.29277 29.6122 9.63106 30.0765 9.63106 30.6209V33.3787C9.63106 33.9231 9.29277 34.3875 8.81543 34.5759C8.96184 34.6337 9.12074 34.6665 9.28762 34.6665H12.0454C12.7567 34.6665 13.3332 34.09 13.3332 33.3789V30.6211C13.3331 29.9098 12.7565 29.3333 12.0454 29.3333Z" fill="#2A428C"/>
<path d="M12.0454 40H9.28762C9.12074 40 8.96184 40.0328 8.81543 40.0905C9.29277 40.2789 9.63106 40.7433 9.63106 41.2877V44.0456C9.63106 44.59 9.29277 45.0544 8.81543 45.2428C8.96184 45.3006 9.12074 45.3334 9.28762 45.3334H12.0454C12.7567 45.3334 13.3332 44.7569 13.3332 44.0458V41.2878C13.3331 40.5766 12.7565 40 12.0454 40Z" fill="#2A428C"/>
<path d="M12.0454 50.6667H9.28762C9.12074 50.6667 8.96184 50.6996 8.81543 50.7572C9.29277 50.9457 9.63106 51.41 9.63106 51.9544V54.7124C9.63106 55.2567 9.29277 55.7211 8.81543 55.9096C8.96184 55.9674 9.12074 56.0002 9.28762 56.0002H12.0454C12.7567 56.0002 13.3332 55.4236 13.3332 54.7125V51.9546C13.3331 51.2432 12.7565 50.6667 12.0454 50.6667Z" fill="#2A428C"/>
<path d="M22.7124 40H19.9546C19.7877 40 19.6288 40.0328 19.4824 40.0905C19.9598 40.2789 20.2979 40.7433 20.2979 41.2877V44.0456C20.2979 44.59 19.9596 45.0544 19.4824 45.2428C19.6288 45.3006 19.7877 45.3334 19.9546 45.3334H22.7124C23.4237 45.3334 24.0002 44.7569 24.0002 44.0458V41.2878C24.0002 40.5766 23.4237 40 22.7124 40Z" fill="#2A428C"/>
<path d="M22.7124 50.6667H19.9546C19.7877 50.6667 19.6288 50.6996 19.4824 50.7572C19.9598 50.9457 20.2979 51.41 20.2979 51.9544V54.7124C20.2979 55.2567 19.9596 55.7211 19.4824 55.9096C19.6288 55.9674 19.7877 56.0002 19.9546 56.0002H22.7124C23.4237 56.0002 24.0002 55.4236 24.0002 54.7125V51.9546C24.0002 51.2432 23.4237 50.6667 22.7124 50.6667Z" fill="#2A428C"/>
<path d="M33.3794 40H30.6216C30.4547 40 30.2958 40.0328 30.1494 40.0905C30.6268 40.2789 30.965 40.7433 30.965 41.2877V44.0456C30.965 44.59 30.6268 45.0544 30.1494 45.2428C30.2958 45.3006 30.4547 45.3334 30.6216 45.3334H33.3794C34.0907 45.3334 34.6672 44.7569 34.6672 44.0458V41.2878C34.6671 40.5766 34.0907 40 33.3794 40Z" fill="#2A428C"/>
<path d="M45.3332 45.3333V41.2877C45.3332 40.5764 44.7567 40 44.0454 40H41.2876C41.1207 40 40.9618 40.0328 40.8154 40.0905C41.2928 40.2789 41.6311 40.7433 41.6311 41.2877V44.0456C41.6311 44.59 41.2928 45.0544 40.8154 45.2428C40.9618 45.3006 41.1207 45.3334 41.2876 45.3334H45.3332V45.3333Z" fill="#2A428C"/>
<path d="M33.3794 50.6667H30.6216C30.4547 50.6667 30.2958 50.6996 30.1494 50.7572C30.6268 50.9457 30.965 51.41 30.965 51.9544V54.7124C30.965 55.2567 30.6268 55.7211 30.1494 55.9096C30.2958 55.9674 30.4547 56.0002 30.6216 56.0002H33.3794C34.0907 56.0002 34.6672 55.4236 34.6672 54.7125V51.9546C34.6671 51.2432 34.0907 50.6667 33.3794 50.6667Z" fill="#2A428C"/>
<path d="M68.2988 22.4564V46.406V61.3333H72.0037V46.406V24L68.2988 22.4564Z" fill="#D3DCFB"/>
<path d="M72.0035 24.0001V10.6666C72.0035 7.72115 69.6157 5.3335 66.6704 5.3335H7.99817C5.0527 5.3335 2.66504 7.72115 2.66504 10.6666V24.0001H72.0035Z" fill="#FC4D38"/>
<path d="M19.4696 11.8738H15.9982C15.3313 11.8738 14.791 11.3334 14.791 10.6667C14.791 9.99994 15.3315 9.45947 15.9982 9.45947H19.4696C20.1365 9.45947 20.6768 9.99994 20.6768 10.6667C20.6768 11.3334 20.1363 11.8738 19.4696 11.8738Z" fill="#E80054"/>
<path d="M27.9979 11.8738H24.5265C23.8596 11.8738 23.3193 11.3334 23.3193 10.6667C23.3193 9.99994 23.8598 9.45947 24.5265 9.45947H27.9979C28.6648 9.45947 29.2051 9.99994 29.2051 10.6667C29.2051 11.3334 28.6648 11.8738 27.9979 11.8738Z" fill="#E80054"/>
<path d="M50.1377 11.8738H46.6662C45.9993 11.8738 45.459 11.3334 45.459 10.6667C45.459 9.99994 45.9995 9.45947 46.6662 9.45947H50.1377C50.8046 9.45947 51.3449 9.99994 51.3449 10.6667C51.3449 11.3334 50.8046 11.8738 50.1377 11.8738Z" fill="#E80054"/>
<path d="M58.667 11.8738H55.1955C54.5286 11.8738 53.9883 11.3334 53.9883 10.6667C53.9883 9.99994 54.5288 9.45947 55.1955 9.45947H58.667C59.3339 9.45947 59.8742 9.99994 59.8742 10.6667C59.8742 11.3334 59.3338 11.8738 58.667 11.8738Z" fill="#E80054"/>
<path d="M25.3316 10C25.3316 11.8409 23.8393 13.3333 21.9983 13.3333C20.1574 13.3333 18.665 11.8409 18.665 10V3.33328C18.6649 1.49234 20.1572 0 21.9982 0C23.8391 0 25.3314 1.49234 25.3314 3.33328V10H25.3316Z" fill="#EBF5FC"/>
<path d="M55.9997 10C55.9997 11.8409 54.5074 13.3333 52.6664 13.3333C50.8255 13.3333 49.333 11.8409 49.333 10V3.33328C49.333 1.49234 50.8254 0 52.6663 0C54.5072 0 55.9996 1.49234 55.9996 3.33328V10H55.9997Z" fill="#EBF5FC"/>
<path d="M52.6668 0C51.9824 0 51.3468 0.206875 50.8174 0.560625C51.7119 1.15844 52.3014 2.17672 52.3014 3.33344V10C52.3014 11.1566 51.7119 12.175 50.8174 12.7728C51.3466 13.1264 51.9824 13.3334 52.6668 13.3334C54.5077 13.3334 56 11.8411 56 10.0002V3.33328C56.0002 1.49234 54.5079 0 52.6668 0V0Z" fill="#D3DCFB"/>
<path d="M21.9988 0C21.3144 0 20.6788 0.206875 20.1494 0.560625C21.0439 1.15844 21.6335 2.17672 21.6335 3.33344V10C21.6335 11.1566 21.0439 12.175 20.1494 12.7728C20.6786 13.1264 21.3144 13.3334 21.9988 13.3334C23.8397 13.3334 25.3321 11.8411 25.3321 10.0002V3.33328C25.3322 1.49234 23.8399 0 21.9988 0V0Z" fill="#D3DCFB"/>
<path d="M66.6704 5.33325H62.9668C65.9123 5.33325 68.2999 7.72091 68.2999 10.6664V24H72.0034V10.6665C72.0035 7.72106 69.6157 5.33325 66.6704 5.33325Z" fill="#E80054"/>
<path d="M2.66504 17.4594H72.0036V19.8739H2.66504V17.4594Z" fill="#E80054"/>
<path d="M57.334 80C68.3797 80 77.334 71.0457 77.334 60C77.334 48.9543 68.3797 40 57.334 40C46.2883 40 37.334 48.9543 37.334 60C37.334 71.0457 46.2883 80 57.334 80Z" fill="#3856A7"/>
<path d="M57.3347 74.6667C65.4349 74.6667 72.0014 68.1002 72.0014 60C72.0014 51.8998 65.4349 45.3333 57.3347 45.3333C49.2345 45.3333 42.668 51.8998 42.668 60C42.668 68.1002 49.2345 74.6667 57.3347 74.6667Z" fill="#EBF5FC"/>
<path d="M57.3341 58.5404C56.6673 58.5404 56.127 58 56.127 57.3333V50.6665C56.127 49.9998 56.6674 49.4594 57.3341 49.4594C58.001 49.4594 58.5413 49.9998 58.5413 50.6665V57.3333C58.5413 58 58.0009 58.5404 57.3341 58.5404Z" fill="#3C58A0"/>
<path d="M64.0013 61.2072H60.0011C59.3343 61.2072 58.7939 60.6668 58.7939 60C58.7939 59.3333 59.3344 58.7928 60.0011 58.7928H64.0013C64.6682 58.7928 65.2085 59.3333 65.2085 60C65.2085 60.6668 64.668 61.2072 64.0013 61.2072Z" fill="#3C58A0"/>
<path d="M57.3346 40C56.7104 40 56.0932 40.0302 55.4836 40.0861C65.6612 41.0203 73.6323 49.5786 73.6323 60C73.6323 70.4214 65.6611 78.9797 55.4834 79.9139C56.0931 79.9698 56.7103 80 57.3345 80C68.3801 80 77.3345 71.0456 77.3345 60C77.3345 48.9544 68.3803 40 57.3346 40Z" fill="#15206B"/>
<path d="M57.3342 45.3333C56.7077 45.3333 56.0903 45.3728 55.4844 45.449C62.7113 46.3586 68.3013 52.5264 68.3013 60C68.3013 67.4736 62.7113 73.6414 55.4844 74.5509C56.0903 74.6272 56.7077 74.6667 57.3342 74.6667C65.4344 74.6667 72.0009 68.1001 72.0009 60C72.0009 51.8998 65.4344 45.3333 57.3342 45.3333Z" fill="#D3DCFB"/>
<path d="M57.3347 62.6667C58.8075 62.6667 60.0014 61.4728 60.0014 60C60.0014 58.5272 58.8075 57.3333 57.3347 57.3333C55.8619 57.3333 54.668 58.5272 54.668 60C54.668 61.4728 55.8619 62.6667 57.3347 62.6667Z" fill="#FFDD40"/>
</g>
<defs>
<clipPath id="clip0_988_1101">
<rect width="80" height="80" fill="white"/>
</clipPath>
</defs>
</svg>
