<svg width="10" height="10" viewBox="0 0 10 10" fill="none" xmlns="http://www.w3.org/2000/svg">
<path d="M9.19656 0.807136C8.93656 0.547136 8.51656 0.547136 8.25656 0.807136L4.99656 4.06047L1.73656 0.800469C1.47656 0.540469 1.05656 0.540469 0.796562 0.800469C0.536563 1.06047 0.536563 1.48047 0.796562 1.74047L4.05656 5.00047L0.796562 8.26047C0.536563 8.52047 0.536563 8.94047 0.796562 9.20047C1.05656 9.46047 1.47656 9.46047 1.73656 9.20047L4.99656 5.94047L8.25656 9.20047C8.51656 9.46047 8.93656 9.46047 9.19656 9.20047C9.45656 8.94047 9.45656 8.52047 9.19656 8.26047L5.93656 5.00047L9.19656 1.74047C9.4499 1.48714 9.4499 1.06047 9.19656 0.807136Z" fill="#0071EB"/>
</svg>
