<svg width="22" height="22" viewBox="0 0 22 22" fill="none" xmlns="http://www.w3.org/2000/svg">
<path d="M21.5031 0.516679C20.8531 -0.133321 19.8031 -0.133321 19.1531 0.516679L11.0031 8.65001L2.85313 0.500012C2.20313 -0.149988 1.15312 -0.149988 0.503125 0.500012C-0.146875 1.15001 -0.146875 2.20001 0.503125 2.85001L8.65313 11L0.503125 19.15C-0.146875 19.8 -0.146875 20.85 0.503125 21.5C1.15312 22.15 2.20313 22.15 2.85313 21.5L11.0031 13.35L19.1531 21.5C19.8031 22.15 20.8531 22.15 21.5031 21.5C22.1531 20.85 22.1531 19.8 21.5031 19.15L13.3531 11L21.5031 2.85001C22.1365 2.21668 22.1365 1.15001 21.5031 0.516679Z" fill="#1F1F1F"/>
</svg>
