<svg width="18" height="12" viewBox="0 0 18 12" fill="none" xmlns="http://www.w3.org/2000/svg">
<path d="M3.14376 4.02953C2.60779 3.39785 1.66122 3.32026 1.02953 3.85624C0.397851 4.39221 0.320263 5.33878 0.856236 5.97047L3.14376 4.02953ZM6.66667 10.5L5.5229 11.4705C5.791 11.7864 6.17786 11.9774 6.59172 11.9981C7.00559 12.0188 7.40958 11.8674 7.70787 11.5798L6.66667 10.5ZM17.0412 2.57977C17.6375 2.00473 17.6548 1.05514 17.0798 0.458797C16.5047 -0.137542 15.5551 -0.154807 14.9588 0.420234L17.0412 2.57977ZM0.856236 5.97047L5.5229 11.4705L7.81043 9.52953L3.14376 4.02953L0.856236 5.97047ZM7.70787 11.5798L17.0412 2.57977L14.9588 0.420234L5.62546 9.42023L7.70787 11.5798Z" fill="#59B469"/>
</svg>
