<svg width="17" height="17" viewBox="0 0 17 17" fill="none" xmlns="http://www.w3.org/2000/svg">
<path d="M14.0635 12.5C12.8532 14.5924 10.591 16 8 16C4.13401 16 1 12.866 1 9.00005C1 6.40906 2.4077 4.14686 4.5 2.93652" stroke="#C4C4C4" stroke-linecap="round"/>
<path d="M8 0.5C7.17157 0.5 6.5 1.17157 6.5 2C6.5 2.82843 7.17157 3.5 8 3.5V0.5ZM13.5 9C13.5 9.82843 14.1716 10.5 15 10.5C15.8284 10.5 16.5 9.82843 16.5 9H13.5ZM8 3.5C11.0376 3.5 13.5 5.96243 13.5 9H16.5C16.5 4.30558 12.6944 0.5 8 0.5V3.5Z" fill="#59B469"/>
</svg>
