<svg width="36" height="36" viewBox="0 0 36 36" fill="none" xmlns="http://www.w3.org/2000/svg">
<path d="M22.3897 23.4219H22.3713C21.9669 23.4219 21.6797 23.7106 21.6797 24.1013L21.7946 24.2162L21.6797 24.1013V24.3418C21.6797 24.7309 21.9677 25.0334 22.3713 25.0334C22.7605 25.0334 23.0508 24.7317 23.0508 24.3418C23.0508 24.4046 22.9994 24.4567 22.9359 24.4567C22.9359 24.4567 23.0508 24.4437 23.0508 24.3357V24.1013C23.0508 23.716 22.7704 23.4303 22.3897 23.4219ZM21.8045 24.4544C21.7984 24.4559 21.7946 24.4567 21.7946 24.4567C21.7976 24.4567 21.8015 24.4559 21.8045 24.4559V24.4544Z" fill="#1F1F1F"/>
<path d="M24.8421 19.0545V24.4492C24.8421 24.7778 25.0964 25.0328 25.425 25.0328C25.7559 25.0328 25.9971 24.7785 25.9971 24.4492V19.0545C25.9971 18.7244 25.7421 18.4709 25.4135 18.4709C25.0987 18.4709 24.8421 18.7397 24.8421 19.0545ZM24.7578 16.8555C24.7578 17.2078 25.0466 17.4629 25.4135 17.4629C25.7942 17.4629 26.0806 17.207 26.0806 16.8555V16.7C26.0806 16.3323 25.7942 16.0918 25.4135 16.0918C25.0466 16.0918 24.7578 16.3315 24.7578 16.7V16.8555Z" fill="#1F1F1F"/>
<path fill-rule="evenodd" clip-rule="evenodd" d="M34.2372 21.7602V21.7342C34.2372 19.9166 32.8194 18.3984 30.8907 18.3984C28.9506 18.3984 27.5312 19.9411 27.5312 21.7579L27.555 21.7817L27.5312 21.7579V21.7817C27.5312 23.5978 28.9383 25.1167 30.8662 25.1167C32.8072 25.1167 34.2364 23.5748 34.2372 21.7602ZM33.0584 21.7817V21.7579C33.0584 20.4887 32.1124 19.4447 30.8662 19.4447C29.5871 19.4447 28.7101 20.488 28.7101 21.7342V21.7579C28.7101 23.0264 29.6453 24.0573 30.8907 24.0573C32.1699 24.0573 33.0584 23.0264 33.0584 21.7817Z" fill="#1F1F1F"/>
<path fill-rule="evenodd" clip-rule="evenodd" d="M17.4859 11.1953L16.5622 11.658C18.3629 13.1125 19.243 14.9906 19.4062 17.2625C19.2698 21.6491 17.2002 24.4686 13.6454 25.6773C9.53756 26.9151 6.9356 25.9139 4.41713 23.3472L4.25781 24.3338L5.2819 25.4008C8.8436 29.1126 14.7491 29.2344 18.4602 25.6727C22.172 22.111 22.2938 16.2062 18.7321 12.4944L17.4859 11.1953Z" fill="#FEEF7C"/>
<path fill-rule="evenodd" clip-rule="evenodd" d="M3.75326 23.7848L4.37215 23.244C1.80084 19.6011 1.6936 14.267 5.21164 11.3311C7.81973 9.15425 12.9945 8.026 17.1345 11.6712L17.444 11.1281L16.4345 10.0765C12.8728 6.36464 6.96798 6.24285 3.25615 9.80455C-0.455675 13.3663 -0.577462 19.2718 2.98424 22.9828L3.75326 23.7848Z" fill="#5CD3CB"/>
<path d="M1.53125 17.7651C1.53125 22.9223 5.71261 27.1037 10.8698 27.1037C16.0278 27.1037 20.2091 22.9223 20.2091 17.7651C20.2091 12.6071 16.0278 8.42578 10.8698 8.42578C5.71261 8.42578 1.53125 12.6071 1.53125 17.7651ZM8.03116 19.454C8.12921 19.1438 8.02044 18.8053 7.75925 18.61C7.06836 18.0937 5.70495 17.0757 4.78963 16.3925C4.65712 16.2937 4.60351 16.1214 4.65559 15.9643C4.70768 15.8081 4.85397 15.7024 5.01865 15.7024H8.5681C8.89823 15.7024 9.19159 15.491 9.29499 15.1769C9.57457 14.3321 10.1307 12.6523 10.4998 11.5394C10.5512 11.3831 10.6975 11.2774 10.8629 11.2767C11.0276 11.2767 11.1739 11.3824 11.2267 11.5386C11.599 12.6523 12.162 14.3344 12.4446 15.1792C12.5488 15.4917 12.8414 15.7024 13.1707 15.7024C14.0102 15.7024 15.6279 15.7024 16.7286 15.7024C16.8933 15.7024 17.0396 15.8073 17.0917 15.9636C17.1438 16.1198 17.0909 16.2922 16.9592 16.391C16.0461 17.0788 14.6827 18.106 13.9926 18.6253C13.7337 18.8206 13.6257 19.1584 13.7238 19.4686C13.9903 20.3111 14.525 22.0001 14.8865 23.1406C14.937 23.3007 14.8781 23.4745 14.741 23.5703C14.6046 23.666 14.4208 23.6622 14.2883 23.5603C13.3707 22.8564 12.031 21.8277 11.3294 21.2893C11.0536 21.0779 10.6699 21.0786 10.3949 21.2908C9.69942 21.8285 8.37814 22.8503 7.46895 23.5534C7.33644 23.6561 7.15261 23.6607 7.0155 23.5649C6.87763 23.4684 6.81865 23.2945 6.86921 23.1352C7.23074 21.9909 7.76461 20.2989 8.03116 19.454Z" fill="#1F1F1F"/>
</svg>
