<svg width="16" height="16" viewBox="0 0 16 16" fill="none" xmlns="http://www.w3.org/2000/svg">
<path d="M8 1C4.14021 1 1 4.14021 1 8.00004C1 11.8599 4.14021 15 8 15C11.8598 15 15 11.8598 15 8C15 4.14017 11.8598 1 8 1ZM8 13.8223C4.7896 13.8223 2.17772 11.2104 2.17772 8.00004C2.17772 4.78964 4.7896 2.17772 8 2.17772C11.2104 2.17772 13.8223 4.7896 13.8223 8.00004C13.8223 11.2105 11.2104 13.8223 8 13.8223Z" fill="#6B7280"/>
<path d="M7.99996 3.62817C6.60318 3.62817 5.4668 4.76456 5.4668 6.16134C5.4668 6.48655 5.73045 6.7502 6.05566 6.7502C6.38087 6.7502 6.64452 6.48655 6.64452 6.16134C6.64452 5.41396 7.25258 4.8059 7.99996 4.8059C8.74735 4.8059 9.35541 5.41396 9.35541 6.16134C9.35541 6.90872 8.74735 7.51678 7.99996 7.51678C7.67476 7.51678 7.4111 7.78044 7.4111 8.10565V9.43706C7.4111 9.76227 7.67476 10.0259 7.99996 10.0259C8.32517 10.0259 8.58883 9.76227 8.58883 9.43706V8.62541C9.7026 8.35929 10.5331 7.35544 10.5331 6.1613C10.5331 4.76456 9.39674 3.62817 7.99996 3.62817Z" fill="#6B7280"/>
<path d="M8.00003 12.263C8.45531 12.263 8.82439 11.8939 8.82439 11.4386C8.82439 10.9833 8.45531 10.6143 8.00003 10.6143C7.54474 10.6143 7.17566 10.9833 7.17566 11.4386C7.17566 11.8939 7.54474 12.263 8.00003 12.263Z" fill="#6B7280"/>
</svg>
