<svg width="117" height="28" viewBox="0 0 117 28" fill="none" xmlns="http://www.w3.org/2000/svg">
<path d="M31.2481 9.92417H42.9991V12.0774H38.3793V24.1841H35.8372V12.0774H31.2373V9.92334H31.2473L31.2481 9.92417ZM42.4975 13.8583H44.6698V15.8515H44.7104C44.7825 15.5696 44.9152 15.2977 45.11 15.0357C45.5267 14.4741 46.0905 14.0388 46.7392 13.7779C47.0687 13.6473 47.4196 13.579 47.774 13.5764C48.0393 13.5764 48.235 13.5864 48.3378 13.5971C48.4398 13.6071 48.5417 13.627 48.6545 13.6369V15.8308C48.4881 15.8017 48.3208 15.7782 48.1529 15.7603C47.9861 15.7406 47.8184 15.7306 47.6504 15.7305C47.2608 15.7305 46.8926 15.8109 46.5444 15.9626C46.1962 16.1127 45.8985 16.344 45.6432 16.6367C45.3707 16.9639 45.162 17.3394 45.028 17.7435C44.8746 18.1863 44.8024 18.6887 44.8024 19.2633V24.1741H42.4876V13.8583H42.4975ZM59.2995 24.1849H57.0252V22.7456H56.9838C56.6969 23.2696 56.2774 23.6825 55.7136 23.9942C55.1498 24.306 54.576 24.4668 53.9923 24.4668C52.6094 24.4668 51.6045 24.1352 50.9909 23.4603C50.3757 22.7862 50.0681 21.7697 50.0681 20.4108V13.8591H52.3839V20.1894C52.3839 21.0956 52.558 21.7399 52.917 22.1121C53.2652 22.4844 53.7668 22.6759 54.4019 22.6759C54.8936 22.6759 55.2932 22.6055 55.6207 22.4537C55.949 22.3028 56.2152 22.1121 56.41 21.8601C56.6148 21.6188 56.7583 21.317 56.8511 20.9746C56.9423 20.6322 56.9838 20.2599 56.9838 19.8578V13.8691H59.2995V24.1849ZM63.2436 20.8743C63.3157 21.5376 63.5711 22.0019 64.0122 22.273C64.4624 22.535 64.9955 22.6759 65.6207 22.6759C65.8362 22.6759 66.0816 22.6552 66.3586 22.6254C66.6347 22.5947 66.9008 22.5242 67.1371 22.4347C67.3825 22.3435 67.5765 22.2025 67.7407 22.0218C67.8949 21.8394 67.9662 21.6089 67.9563 21.317C67.9549 21.1816 67.9251 21.0479 67.8687 20.9248C67.8122 20.8016 67.7305 20.6918 67.6288 20.6023C67.4231 20.4116 67.1678 20.2707 66.8494 20.1496C66.4947 20.0268 66.1318 19.9292 65.7633 19.8578C65.3537 19.7774 64.9441 19.6862 64.5246 19.5958C64.1019 19.5043 63.6845 19.39 63.2743 19.2534C62.8895 19.13 62.5266 18.9468 62.1989 18.7103C61.8796 18.4875 61.6193 18.1904 61.4403 17.8447C61.2462 17.4923 61.1534 17.0595 61.1534 16.5364C61.1534 15.9726 61.2968 15.5099 61.5738 15.1269C61.8531 14.747 62.2137 14.4343 62.6292 14.2115C63.0758 13.9754 63.5559 13.8091 64.0528 13.7182C64.5751 13.6278 65.0776 13.5772 65.5485 13.5772C66.0916 13.5772 66.6139 13.6378 67.1064 13.7489C67.5832 13.851 68.0377 14.0383 68.4479 14.3019C68.8476 14.5539 69.1751 14.8856 69.442 15.2885C69.7082 15.6907 69.8724 16.184 69.9437 16.7577H67.526C67.4132 16.2147 67.167 15.8424 66.7682 15.6608C66.3685 15.4701 65.9075 15.3789 65.3951 15.3789C65.231 15.3789 65.0361 15.3889 64.8114 15.4195C64.5949 15.4483 64.3819 15.4989 64.1755 15.5704C63.9869 15.6399 63.8157 15.7497 63.6739 15.8921C63.605 15.9665 63.5515 16.0536 63.5164 16.1487C63.4812 16.2437 63.4652 16.3447 63.4691 16.446C63.4691 16.7279 63.5711 16.9493 63.7659 17.12C63.9608 17.2908 64.217 17.4318 64.5345 17.5528C64.8521 17.6639 65.2111 17.7643 65.6207 17.8447C66.0302 17.9251 66.4498 18.0155 66.8809 18.1067C67.3004 18.1971 67.71 18.3181 68.1204 18.4483C68.53 18.5793 68.8882 18.7609 69.2066 18.9922C69.5241 19.2235 69.7803 19.5054 69.9743 19.8478C70.1692 20.1894 70.272 20.6222 70.272 21.1255C70.272 21.739 70.1285 22.2531 69.8408 22.6859C69.5548 23.1087 69.1858 23.4603 68.7348 23.7223C68.2626 23.9943 67.751 24.1912 67.2184 24.306C66.6764 24.4252 66.1233 24.4858 65.5684 24.4867C64.947 24.4937 64.3274 24.4193 63.7253 24.2654C63.1615 24.1145 62.6698 23.8931 62.2603 23.6021C61.8554 23.3079 61.5226 22.9258 61.2869 22.4844C61.0514 22.0417 60.9279 21.5077 60.908 20.8942H63.2436V20.8743ZM70.8864 13.86H72.6383V10.7591H74.954V13.86H77.0434V15.5597H74.9548V21.0758C74.9548 21.3162 74.9648 21.5185 74.9855 21.6992C75.0054 21.8709 75.0568 22.0218 75.1289 22.142C75.2073 22.2683 75.3263 22.3642 75.4664 22.4139C75.6206 22.4745 75.8146 22.5051 76.0816 22.5051C76.2449 22.5051 76.4091 22.5051 76.5733 22.4944C76.7374 22.4844 76.9007 22.4645 77.0649 22.4239V24.1849C76.8087 24.2156 76.5525 24.2355 76.3171 24.2654C76.0688 24.2942 75.8191 24.3078 75.5692 24.306C74.9548 24.306 74.4632 24.2455 74.0934 24.1352C73.7252 24.0241 73.4276 23.8533 73.2228 23.6319C73.0072 23.4105 72.8746 23.1386 72.7925 22.8061C72.7127 22.4322 72.6683 22.0516 72.6598 21.6694V15.5787H70.9079V13.8575H70.8872L70.8864 13.86ZM78.6825 13.86H80.8755V15.2579H80.917C81.2436 14.6543 81.6947 14.2314 82.2784 13.9702C82.875 13.705 83.5217 13.571 84.1746 13.5772C85.0037 13.5772 85.7209 13.7182 86.3361 14.01C86.9504 14.2919 87.4628 14.6849 87.8724 15.1874C88.282 15.6907 88.5797 16.2744 88.7844 16.9393C88.9931 17.631 89.0968 18.3501 89.092 19.0726C89.092 19.7666 89 20.4406 88.8151 21.0857C88.6453 21.7079 88.3641 22.2942 87.9852 22.8161C87.6128 23.3192 87.1289 23.7293 86.5715 24.0141C85.9978 24.3159 85.332 24.4668 84.5535 24.4668C84.2132 24.4665 83.8736 24.4359 83.5386 24.3756C83.2046 24.3154 82.8783 24.2178 82.5661 24.0846C82.2559 23.9552 81.9658 23.7821 81.7046 23.5706C81.4468 23.3649 81.2223 23.1208 81.0389 22.8467H80.9974V27.9997H78.6825V13.8583V13.86ZM86.7763 19.032C86.7768 18.573 86.7149 18.1162 86.5923 17.6739C86.4787 17.2549 86.2912 16.8595 86.0384 16.5065C85.7986 16.1707 85.4874 15.8921 85.1272 15.6907C84.7403 15.4816 84.3067 15.3743 83.867 15.3789C82.8936 15.3789 82.1557 15.7106 81.664 16.3755C81.1723 17.0396 80.9261 17.9259 80.9261 19.032C80.9261 19.5552 80.9883 20.0385 81.1209 20.4813C81.2536 20.924 81.4385 21.3071 81.7046 21.6288C81.9617 21.9513 82.2684 22.2025 82.6274 22.3833C82.9856 22.5748 83.406 22.6652 83.8769 22.6652C84.41 22.6652 84.8503 22.5549 85.2192 22.3435C85.5765 22.1379 85.8842 21.8563 86.1205 21.5185C86.356 21.1761 86.5309 20.793 86.6329 20.3611C86.7272 19.9243 86.7753 19.4788 86.7763 19.032ZM90.8639 9.92417H93.1796V12.0782H90.8639V9.92417ZM90.8639 13.8591H93.1796V24.1849H90.8639V13.8591ZM95.249 9.92417H97.5648V24.1849H95.249V9.92417ZM104.664 24.4668C103.824 24.4668 103.076 24.3259 102.421 24.0548C101.793 23.7972 101.225 23.4134 100.751 22.9272C100.291 22.4311 99.938 21.845 99.7155 21.2059C99.4718 20.5004 99.3506 19.7584 99.3573 19.0121C99.3573 18.2269 99.48 17.5031 99.7155 16.8381C99.9382 16.1993 100.291 15.6136 100.751 15.1177C101.201 14.6344 101.765 14.2621 102.421 13.9901C103.076 13.7182 103.824 13.5772 104.664 13.5772C105.504 13.5772 106.252 13.7182 106.908 13.9901C107.564 14.2621 108.117 14.6451 108.578 15.1177C109.038 15.6134 109.39 16.1992 109.613 16.8381C109.848 17.5023 109.971 18.2269 109.971 19.0121C109.971 19.808 109.848 20.5418 109.613 21.2059C109.391 21.8451 109.038 22.4313 108.578 22.9272C108.127 23.4105 107.564 23.7828 106.908 24.0548C106.252 24.3259 105.504 24.4668 104.664 24.4668ZM104.664 22.6652C105.177 22.6652 105.627 22.5549 106.006 22.3435C106.375 22.1379 106.694 21.8523 106.939 21.5077C107.184 21.1661 107.358 20.7731 107.482 20.3403C107.595 19.9075 107.656 19.4648 107.656 19.0121C107.656 18.5693 107.595 18.1365 107.482 17.6938C107.376 17.2738 107.192 16.8777 106.939 16.5264C106.693 16.1851 106.375 15.9031 106.006 15.7014C105.627 15.49 105.177 15.3789 104.664 15.3789C104.152 15.3789 103.701 15.49 103.322 15.7014C102.956 15.9062 102.638 16.1876 102.39 16.5264C102.141 16.8798 101.957 17.2752 101.847 17.6938C101.734 18.1241 101.675 18.567 101.672 19.0121C101.672 19.4648 101.734 19.9075 101.847 20.3403C101.96 20.7731 102.144 21.1661 102.39 21.5077C102.636 21.8501 102.943 22.132 103.322 22.3435C103.701 22.5648 104.152 22.6652 104.664 22.6652ZM110.647 13.86H112.399V10.7591H114.715V13.86H116.804V15.5597H114.715V21.0758C114.715 21.3162 114.725 21.5185 114.745 21.6992C114.766 21.8709 114.817 22.0218 114.889 22.142C114.967 22.2684 115.086 22.3644 115.227 22.4139C115.381 22.4745 115.575 22.5051 115.842 22.5051C116.005 22.5051 116.169 22.5051 116.333 22.4944C116.498 22.4844 116.661 22.4645 116.825 22.4239V24.1849C116.569 24.2156 116.313 24.2355 116.077 24.2654C115.829 24.2942 115.579 24.3078 115.329 24.306C114.715 24.306 114.222 24.2455 113.854 24.1352C113.485 24.0241 113.188 23.8533 112.983 23.6319C112.768 23.4105 112.635 23.1386 112.553 22.8061C112.473 22.4322 112.429 22.0516 112.42 21.6694V15.5787H110.668V13.8575H110.647V13.86Z" fill="black"/>
<path d="M28.5444 9.92366H17.9309L14.6526 0L11.3627 9.92449L0.75 9.91371L9.34542 16.0525L6.05716 25.9654L14.6526 19.8365L23.2381 25.9654L19.9597 16.0525L28.5444 9.92366Z" fill="#04DA8D"/>
<path d="M20.6966 18.2971L19.9587 16.0527L14.6523 19.8368L20.6966 18.2971Z" fill="#126849"/>
</svg>
