<svg width="117" height="28" viewBox="0 0 117 28" fill="none" xmlns="http://www.w3.org/2000/svg">
<path d="M31.2486 9.92441H42.9996V12.0776H38.3798V24.1843H35.8377V12.0776H31.2378V9.92358H31.2477L31.2486 9.92441ZM42.498 13.8586H44.6703V15.8517H44.7109C44.783 15.5698 44.9157 15.2979 45.1105 15.0359C45.5271 14.4744 46.091 14.039 46.7397 13.7781C47.0692 13.6476 47.4201 13.5792 47.7745 13.5767C48.0398 13.5767 48.2355 13.5866 48.3383 13.5974C48.4402 13.6073 48.5422 13.6272 48.655 13.6372V15.831C48.4886 15.8019 48.3213 15.7784 48.1534 15.7605C47.9866 15.7408 47.8189 15.7308 47.6509 15.7307C47.2612 15.7307 46.8931 15.8111 46.5449 15.9628C46.1967 16.1129 45.899 16.3442 45.6436 16.6369C45.3712 16.9642 45.1625 17.3396 45.0284 17.7438C44.8751 18.1865 44.8029 18.689 44.8029 19.2636V24.1744H42.488V13.8586H42.498ZM59.3 24.1852H57.0257V22.7458H56.9843C56.6974 23.2698 56.2779 23.6827 55.7141 23.9945C55.1503 24.3062 54.5765 24.4671 53.9928 24.4671C52.6099 24.4671 51.605 24.1354 50.9914 23.4605C50.3762 22.7865 50.0686 21.77 50.0686 20.411V13.8594H52.3843V20.1897C52.3843 21.0959 52.5585 21.7401 52.9175 22.1124C53.2657 22.4847 53.7673 22.6762 54.4024 22.6762C54.8941 22.6762 55.2937 22.6057 55.6212 22.454C55.9495 22.3031 56.2157 22.1124 56.4105 21.8603C56.6153 21.6191 56.7587 21.3173 56.8516 20.9748C56.9428 20.6324 56.9843 20.2601 56.9843 19.858V13.8693H59.3V24.1852ZM63.2441 20.8745C63.3162 21.5378 63.5716 22.0021 64.0127 22.2732C64.4629 22.5352 64.996 22.6762 65.6211 22.6762C65.8367 22.6762 66.0821 22.6555 66.3591 22.6256C66.6352 22.5949 66.9013 22.5245 67.1376 22.4349C67.383 22.3437 67.577 22.2028 67.7412 22.022C67.8954 21.8396 67.9667 21.6091 67.9568 21.3173C67.9554 21.1818 67.9256 21.0482 67.8692 20.925C67.8127 20.8019 67.731 20.692 67.6293 20.6026C67.4236 20.4119 67.1683 20.2709 66.8499 20.1499C66.4952 20.027 66.1323 19.9295 65.7638 19.858C65.3542 19.7776 64.9446 19.6864 64.5251 19.596C64.1024 19.5046 63.685 19.3903 63.2748 19.2536C62.89 19.1303 62.527 18.947 62.1994 18.7105C61.8801 18.4877 61.6198 18.1907 61.4408 17.8449C61.2467 17.4926 61.1539 17.0598 61.1539 16.5366C61.1539 15.9728 61.2973 15.5102 61.5742 15.1271C61.8536 14.7472 62.2142 14.4345 62.6297 14.2118C63.0763 13.9757 63.5564 13.8093 64.0533 13.7184C64.5756 13.6281 65.0781 13.5775 65.549 13.5775C66.0921 13.5775 66.6144 13.638 67.1069 13.7491C67.5837 13.8512 68.0382 14.0385 68.4484 14.3021C68.8481 14.5542 69.1756 14.8858 69.4425 15.2888C69.7087 15.6909 69.8728 16.1842 69.9441 16.758H67.5264C67.4137 16.2149 67.1674 15.8426 66.7686 15.6611C66.369 15.4704 65.908 15.3792 65.3956 15.3792C65.2315 15.3792 65.0366 15.3891 64.8119 15.4198C64.5954 15.4486 64.3824 15.4991 64.176 15.5707C63.9874 15.6401 63.8162 15.7499 63.6744 15.8924C63.6055 15.9667 63.552 16.0539 63.5169 16.1489C63.4817 16.244 63.4657 16.345 63.4696 16.4462C63.4696 16.7281 63.5716 16.9495 63.7664 17.1203C63.9613 17.2911 64.2175 17.432 64.535 17.5531C64.8526 17.6642 65.2116 17.7645 65.6211 17.8449C66.0307 17.9254 66.4503 18.0157 66.8814 18.1069C67.3009 18.1973 67.7105 18.3184 68.1209 18.4485C68.5305 18.5795 68.8887 18.7611 69.2071 18.9924C69.5246 19.2238 69.7808 19.5057 69.9748 19.8481C70.1697 20.1897 70.2725 20.6225 70.2725 21.1257C70.2725 21.7393 70.129 22.2533 69.8413 22.6861C69.5553 23.109 69.1863 23.4605 68.7353 23.7225C68.2631 23.9945 67.7515 24.1914 67.2188 24.3062C66.6769 24.4254 66.1238 24.486 65.5689 24.487C64.9475 24.494 64.3279 24.4195 63.7258 24.2656C63.162 24.1147 62.6703 23.8933 62.2607 23.6023C61.8559 23.3082 61.5231 22.926 61.2874 22.4847C61.0519 22.0419 60.9284 21.508 60.9085 20.8944H63.2441V20.8745ZM70.8868 13.8602H72.6388V10.7593H74.9545V13.8602H77.0438V15.5599H74.9553V21.076C74.9553 21.3164 74.9653 21.5187 74.986 21.6995C75.0059 21.8711 75.0573 22.022 75.1294 22.1422C75.2078 22.2685 75.3268 22.3645 75.4669 22.4142C75.6211 22.4747 75.8151 22.5054 76.0821 22.5054C76.2454 22.5054 76.4096 22.5054 76.5737 22.4946C76.7379 22.4847 76.9012 22.4648 77.0654 22.4241V24.1852C76.8092 24.2158 76.553 24.2357 76.3175 24.2656C76.0693 24.2944 75.8196 24.308 75.5697 24.3062C74.9553 24.3062 74.4636 24.2457 74.0939 24.1354C73.7257 24.0243 73.4281 23.8535 73.2233 23.6322C73.0077 23.4108 72.8751 23.1388 72.793 22.8064C72.7132 22.4325 72.6687 22.0519 72.6603 21.6696V15.579H70.9084V13.8577H70.8877L70.8868 13.8602ZM78.683 13.8602H80.876V15.2581H80.9175C81.2441 14.6545 81.6952 14.2317 82.2789 13.9705C82.8755 13.7052 83.5221 13.5712 84.1751 13.5775C85.0042 13.5775 85.7214 13.7184 86.3366 14.0103C86.9509 14.2922 87.4633 14.6852 87.8729 15.1876C88.2825 15.6909 88.5801 16.2746 88.7849 16.9395C88.9936 17.6313 89.0973 18.3504 89.0925 19.0729C89.0925 19.7668 89.0005 20.4409 88.8156 21.0859C88.6458 21.7081 88.3646 22.2944 87.9857 22.8163C87.6133 23.3194 87.1294 23.7295 86.572 24.0144C85.9983 24.3162 85.3325 24.4671 84.554 24.4671C84.2137 24.4667 83.874 24.4362 83.5391 24.3759C83.205 24.3157 82.8788 24.218 82.5666 24.0848C82.2564 23.9554 81.9663 23.7823 81.7051 23.5708C81.4473 23.3652 81.2228 23.121 81.0393 22.847H80.9979V27.9999H78.683V13.8586V13.8602ZM86.7768 19.0322C86.7773 18.5733 86.7153 18.1164 86.5928 17.6741C86.4792 17.2551 86.2916 16.8597 86.0389 16.5067C85.7991 16.1709 85.4879 15.8923 85.1277 15.6909C84.7408 15.4819 84.3072 15.3746 83.8675 15.3792C82.8941 15.3792 82.1562 15.7108 81.6645 16.3757C81.1728 17.0399 80.9266 17.9262 80.9266 19.0322C80.9266 19.5554 80.9888 20.0388 81.1214 20.4815C81.2541 20.9243 81.439 21.3073 81.7051 21.629C81.9621 21.9515 82.2689 22.2028 82.6279 22.3835C82.9861 22.575 83.4065 22.6654 83.8774 22.6654C84.4105 22.6654 84.8508 22.5551 85.2197 22.3437C85.577 22.1382 85.8847 21.8565 86.121 21.5187C86.3565 21.1763 86.5314 20.7933 86.6334 20.3613C86.7277 19.9245 86.7758 19.4791 86.7768 19.0322ZM90.8643 9.92441H93.1801V12.0785H90.8643V9.92441ZM90.8643 13.8594H93.1801V24.1852H90.8643V13.8594ZM95.2495 9.92441H97.5652V24.1852H95.2495V9.92441ZM104.665 24.4671C103.824 24.4671 103.076 24.3261 102.421 24.055C101.793 23.7975 101.225 23.4137 100.752 22.9274C100.291 22.4314 99.9385 21.8453 99.716 21.2062C99.4723 20.5007 99.3511 19.7587 99.3578 19.0123C99.3578 18.2272 99.4805 17.5033 99.716 16.8384C99.9387 16.1996 100.291 15.6138 100.752 15.118C101.202 14.6346 101.766 14.2623 102.421 13.9904C103.076 13.7184 103.824 13.5775 104.665 13.5775C105.505 13.5775 106.253 13.7184 106.909 13.9904C107.564 14.2623 108.117 14.6454 108.578 15.118C109.039 15.6136 109.391 16.1995 109.613 16.8384C109.849 17.5025 109.971 18.2272 109.971 19.0123C109.971 19.8083 109.849 20.542 109.613 21.2062C109.391 21.8454 109.039 22.4315 108.578 22.9274C108.127 23.4108 107.564 23.7831 106.909 24.055C106.253 24.3261 105.505 24.4671 104.665 24.4671ZM104.665 22.6654C105.177 22.6654 105.628 22.5551 106.006 22.3437C106.376 22.1381 106.694 21.8526 106.939 21.508C107.185 21.1664 107.359 20.7734 107.482 20.3406C107.595 19.9078 107.656 19.465 107.656 19.0123C107.656 18.5696 107.595 18.1368 107.482 17.694C107.377 17.2741 107.192 16.8779 106.939 16.5266C106.694 16.1853 106.375 15.9034 106.006 15.7017C105.628 15.4903 105.177 15.3792 104.665 15.3792C104.153 15.3792 103.702 15.4903 103.323 15.7017C102.956 15.9065 102.638 16.1878 102.391 16.5266C102.141 16.88 101.957 17.2755 101.848 17.694C101.734 18.1244 101.675 18.5673 101.673 19.0123C101.673 19.465 101.735 19.9078 101.848 20.3406C101.96 20.7734 102.144 21.1664 102.391 21.508C102.636 21.8504 102.944 22.1323 103.323 22.3437C103.702 22.5651 104.153 22.6654 104.665 22.6654ZM110.648 13.8602H112.4V10.7593H114.715V13.8602H116.805V15.5599H114.715V21.076C114.715 21.3164 114.725 21.5187 114.745 21.6995C114.766 21.8711 114.817 22.022 114.89 22.1422C114.968 22.2687 115.087 22.3646 115.227 22.4142C115.381 22.4747 115.575 22.5054 115.842 22.5054C116.006 22.5054 116.17 22.5054 116.334 22.4946C116.498 22.4847 116.661 22.4648 116.826 22.4241V24.1852C116.569 24.2158 116.313 24.2357 116.078 24.2656C115.829 24.2944 115.58 24.308 115.33 24.3062C114.715 24.3062 114.223 24.2457 113.854 24.1354C113.486 24.0243 113.188 23.8535 112.983 23.6322C112.769 23.4108 112.635 23.1388 112.553 22.8064C112.473 22.4324 112.429 22.0519 112.42 21.6696V15.579H110.669V13.8577H110.648V13.8602Z" fill="white"/>
<path d="M28.5444 9.92391H17.9309L14.6526 0.000244141L11.3627 9.92474L0.75 9.91396L9.34542 16.0527L6.05716 25.9656L14.6526 19.8368L23.2381 25.9656L19.9597 16.0527L28.5444 9.92391Z" fill="#04DA8D"/>
<path d="M20.6965 18.2974L19.9585 16.053L14.6522 19.8371L20.6965 18.2974Z" fill="#126849"/>
</svg>
