<svg width="146" height="28" viewBox="0 0 146 28" fill="none" xmlns="http://www.w3.org/2000/svg">
<path d="M28 0H0V28H28V0Z" fill="#00B67A"/>
<path d="M14.0007 18.8695L18.259 17.7903L20.0382 23.2736L14.0007 18.8695ZM23.8007 11.782H16.3049L14.0007 4.72363L11.6965 11.782H4.20068L10.2674 16.157L7.96318 23.2153L14.0299 18.8403L17.7632 16.157L23.8007 11.782Z" fill="white"/>
<path d="M57 0H29V28H57V0Z" fill="#00B67A"/>
<path d="M43.0007 18.8695L47.259 17.7903L49.0382 23.2736L43.0007 18.8695ZM52.8007 11.782H45.3049L43.0007 4.72363L40.6965 11.782H33.2007L39.2674 16.157L36.9632 23.2153L43.0299 18.8403L46.7632 16.157L52.8007 11.782Z" fill="white"/>
<path d="M86 0H58V28H86V0Z" fill="#00B67A"/>
<path d="M72.0007 18.8695L76.259 17.7903L78.0382 23.2736L72.0007 18.8695ZM81.8007 11.782H74.3049L72.0007 4.72363L69.6965 11.782H62.2007L68.2674 16.157L65.9632 23.2153L72.0299 18.8403L75.7632 16.157L81.8007 11.782Z" fill="white"/>
<path d="M115 0H87V28H115V0Z" fill="#00B67A"/>
<path d="M101.001 18.8695L105.259 17.7903L107.038 23.2736L101.001 18.8695ZM110.801 11.782H103.305L101.001 4.72363L98.6965 11.782H91.2007L97.2674 16.157L94.9632 23.2153L101.03 18.8403L104.763 16.157L110.801 11.782Z" fill="white"/>
<path d="M144 0H116V28H144V0Z" fill="#00B67A"/>
<path d="M145.75 0H130V28H145.75V0Z" fill="#DCDCE6"/>
<path d="M130.001 18.8695L134.259 17.7903L136.038 23.2736L130.001 18.8695ZM139.801 11.782H132.305L130.001 4.72363L127.697 11.782H120.201L126.267 16.157L123.963 23.2153L130.03 18.8403L133.763 16.157L139.801 11.782Z" fill="white"/>
</svg>
