<svg width="24" height="24" viewBox="0 0 24 24" fill="none" xmlns="http://www.w3.org/2000/svg">
<path d="M18.1268 14.2686C16.4586 14.2686 15.1016 15.6256 15.1016 17.2938C15.1016 18.9619 16.4586 20.319 18.1268 20.319C19.7952 20.319 21.152 18.9619 21.152 17.2938C21.152 15.6256 19.7949 14.2686 18.1268 14.2686ZM18.1268 18.8064C17.2926 18.8064 16.6142 18.128 16.6142 17.2938C16.6142 16.4596 17.2926 15.7812 18.1268 15.7812C18.961 15.7812 19.6394 16.4596 19.6394 17.2938C19.6394 18.128 18.961 18.8064 18.1268 18.8064Z" fill="#536D80"/>
<path d="M7.79084 14.2686C6.1227 14.2686 4.76562 15.6256 4.76562 17.2938C4.76562 18.9619 6.1227 20.319 7.79084 20.319C9.45898 20.319 10.8161 18.9619 10.8161 17.2938C10.8161 15.6256 9.45898 14.2686 7.79084 14.2686ZM7.79084 18.8064C6.95666 18.8064 6.27823 18.128 6.27823 17.2938C6.27823 16.4596 6.95666 15.7812 7.79084 15.7812C8.6248 15.7812 9.30345 16.4596 9.30345 17.2938C9.30345 18.128 8.62503 18.8064 7.79084 18.8064Z" fill="#536D80"/>
<path d="M20.163 5.60984C20.0344 5.35447 19.773 5.19336 19.4871 5.19336H15.5039V6.70597H19.0207L21.0801 10.8021L22.4319 10.1224L20.163 5.60984Z" fill="#536D80"/>
<path d="M15.8555 16.563H10.1328V18.0756H15.8555V16.563Z" fill="#536D80"/>
<path d="M5.52262 16.563H2.90081C2.48306 16.563 2.14453 16.9016 2.14453 17.3193C2.14453 17.737 2.48311 18.0756 2.90081 18.0756H5.52267C5.94042 18.0756 6.27895 17.737 6.27895 17.3193C6.27895 16.9015 5.94038 16.563 5.52262 16.563Z" fill="#536D80"/>
<path d="M23.8428 11.9395L22.3552 10.0235C22.2123 9.83896 21.9917 9.73105 21.758 9.73105H16.2622V4.43695C16.2622 4.0192 15.9236 3.68066 15.5059 3.68066H2.90081C2.48306 3.68066 2.14453 4.01924 2.14453 4.43695C2.14453 4.85465 2.48311 5.19323 2.90081 5.19323H14.7495V10.4873C14.7495 10.9051 15.0881 11.2436 15.5058 11.2436H21.3876L22.489 12.6624V16.5629H20.3966C19.9788 16.5629 19.6403 16.9015 19.6403 17.3192C19.6403 17.737 19.9789 18.0755 20.3966 18.0755H23.2453C23.6631 18.0755 24.0016 17.7369 24.0016 17.3192V12.4034C24.0016 12.2354 23.9457 12.0721 23.8428 11.9395Z" fill="#536D80"/>
<path d="M5.46967 12.7314H1.99066C1.57291 12.7314 1.23438 13.07 1.23438 13.4877C1.23438 13.9055 1.57295 14.244 1.99066 14.244H5.46962C5.88737 14.244 6.22591 13.9054 6.22591 13.4877C6.22595 13.07 5.88737 12.7314 5.46967 12.7314Z" fill="#536D80"/>
<path d="M7.21008 9.75635H0.756281C0.338578 9.75635 0 10.0949 0 10.5127C0 10.9304 0.338578 11.269 0.756281 11.269H7.21008C7.62783 11.269 7.96636 10.9304 7.96636 10.5127C7.96636 10.095 7.62783 9.75635 7.21008 9.75635Z" fill="#536D80"/>
<path d="M8.44445 6.78125H1.99066C1.57291 6.78125 1.23438 7.11983 1.23438 7.53753C1.23438 7.95528 1.57295 8.29381 1.99066 8.29381H8.44445C8.8622 8.29381 9.20073 7.95523 9.20073 7.53753C9.20078 7.11983 8.8622 6.78125 8.44445 6.78125Z" fill="#536D80"/>
</svg>
