<svg width="30" height="31" viewBox="0 0 30 31" fill="none" xmlns="http://www.w3.org/2000/svg">
<path d="M27.48 15.4995C27.48 22.381 21.8814 27.9795 15 27.9795C8.1186 27.9795 2.52002 22.381 2.52002 15.4995C2.52002 15.0685 2.86894 14.7195 3.30002 14.7195C3.7311 14.7195 4.08002 15.0685 4.08002 15.4995C4.08002 21.5209 8.97868 26.4195 15 26.4195C21.0214 26.4195 25.92 21.5209 25.92 15.4995C25.92 9.47819 21.0214 4.57953 15 4.57953C12.0976 4.57953 9.40326 5.70767 7.3763 7.69953H10.32C10.7511 7.69953 11.1 8.04845 11.1 8.47953C11.1 8.91061 10.7511 9.25953 10.32 9.25953H5.64002C5.20894 9.25953 4.86002 8.91061 4.86002 8.47953V3.79953C4.86002 3.36845 5.20894 3.01953 5.64002 3.01953C6.0711 3.01953 6.42002 3.36845 6.42002 3.79953V6.46037C8.72128 4.26389 11.7451 3.01953 15 3.01953C21.8814 3.01953 27.48 8.61811 27.48 15.4995ZM22.02 12.3795V19.3995C22.02 19.7248 21.8183 20.0157 21.5143 20.1301L15.2743 22.4701C15.1859 22.5029 15.0928 22.5195 15 22.5195C14.9072 22.5195 14.8141 22.5029 14.7257 22.4701L8.48572 20.1301C8.18178 20.0157 7.98002 19.7248 7.98002 19.3995V12.3795C7.98002 12.0543 8.18178 11.7633 8.48572 11.6489L14.7257 9.30893C14.9025 9.24341 15.0975 9.24341 15.2741 9.30893L21.5141 11.6489C21.8183 11.7633 22.02 12.0543 22.02 12.3795ZM10.9812 12.3795L15 13.8862L19.0188 12.3795L15 10.8728L10.9812 12.3795ZM9.54002 18.8587L14.22 20.6137V15.2603L9.54002 13.5053V18.8587ZM20.46 18.8587V13.5053L15.78 15.2603V20.6137L20.46 18.8587Z" fill="#5C5555"/>
</svg>
