<svg width="30" height="31" viewBox="0 0 30 31" fill="none" xmlns="http://www.w3.org/2000/svg">
<path d="M21.6367 17.957C19.8295 17.957 18.3594 19.4272 18.3594 21.2344C18.3594 23.0415 19.8295 24.5117 21.6367 24.5117C23.4442 24.5117 24.914 23.0415 24.914 21.2344C24.914 19.4272 23.4438 17.957 21.6367 17.957ZM21.6367 22.873C20.733 22.873 19.998 22.1381 19.998 21.2344C19.998 20.3306 20.733 19.5957 21.6367 19.5957C22.5404 19.5957 23.2754 20.3306 23.2754 21.2344C23.2754 22.1381 22.5404 22.873 21.6367 22.873Z" fill="#5C5555"/>
<path d="M10.4389 17.957C8.63179 17.957 7.16162 19.4272 7.16162 21.2344C7.16162 23.0415 8.63179 24.5117 10.4389 24.5117C12.2461 24.5117 13.7163 23.0415 13.7163 21.2344C13.7163 19.4272 12.2461 17.957 10.4389 17.957ZM10.4389 22.873C9.53524 22.873 8.80028 22.1381 8.80028 21.2344C8.80028 20.3306 9.53524 19.5957 10.4389 19.5957C11.3424 19.5957 12.0776 20.3306 12.0776 21.2344C12.0776 22.1381 11.3426 22.873 10.4389 22.873Z" fill="#5C5555"/>
<path d="M23.8437 8.57619C23.7044 8.29954 23.4212 8.125 23.1115 8.125H18.7964V9.76366H22.6062L24.8373 14.2011L26.3017 13.4648L23.8437 8.57619Z" fill="#5C5555"/>
<path d="M19.1786 20.4414H12.979V22.0801H19.1786V20.4414Z" fill="#5C5555"/>
<path d="M7.98089 20.4414H5.14059C4.68803 20.4414 4.32129 20.8082 4.32129 21.2607C4.32129 21.7133 4.68808 22.08 5.14059 22.08H7.98094C8.4335 22.08 8.80025 21.7132 8.80025 21.2607C8.80025 20.8081 8.43345 20.4414 7.98089 20.4414Z" fill="#5C5555"/>
<path d="M27.8278 15.4353L26.2162 13.3597C26.0614 13.1598 25.8224 13.0429 25.5692 13.0429H19.6154V7.30759C19.6154 6.85502 19.2486 6.48828 18.7961 6.48828H5.14059C4.68803 6.48828 4.32129 6.85507 4.32129 7.30759C4.32129 7.7601 4.68808 8.12689 5.14059 8.12689H17.9767V13.8622C17.9767 14.3147 18.3435 14.6815 18.796 14.6815H25.168L26.3612 16.2185V20.4441H24.0943C23.6418 20.4441 23.275 20.8109 23.275 21.2634C23.275 21.716 23.6418 22.0827 24.0943 22.0827H27.1805C27.633 22.0827 27.9998 21.7159 27.9998 21.2634V15.9379C27.9998 15.756 27.9392 15.579 27.8278 15.4353Z" fill="#5C5555"/>
<path d="M7.92662 16.293H4.15768C3.70512 16.293 3.33838 16.6598 3.33838 17.1123C3.33838 17.5648 3.70517 17.9316 4.15768 17.9316H7.92657C8.37913 17.9316 8.74587 17.5648 8.74587 17.1123C8.74592 16.6598 8.37913 16.293 7.92662 16.293Z" fill="#5C5555"/>
<path d="M9.81092 13.0703H2.8193C2.36679 13.0703 2 13.4371 2 13.8897C2 14.3422 2.36679 14.709 2.8193 14.709H9.81092C10.2635 14.709 10.6302 14.3422 10.6302 13.8897C10.6302 13.4372 10.2635 13.0703 9.81092 13.0703Z" fill="#5C5555"/>
<path d="M11.1493 9.84766H4.15768C3.70512 9.84766 3.33838 10.2144 3.33838 10.667C3.33838 11.1195 3.70517 11.4863 4.15768 11.4863H11.1493C11.6019 11.4863 11.9686 11.1195 11.9686 10.667C11.9687 10.2144 11.6019 9.84766 11.1493 9.84766Z" fill="#5C5555"/>
</svg>
