<svg width="14" height="14" viewBox="0 0 14 14" fill="none" xmlns="http://www.w3.org/2000/svg">
<path d="M11.7062 5.53147C11.7062 5.35742 11.6518 5.21601 11.543 5.10723L10.7105 4.29138C10.5908 4.17172 10.4547 4.11189 10.3024 4.11189C10.15 4.11189 10.014 4.17172 9.8943 4.29138L6.17256 7.99534L4.1158 5.93939C3.9961 5.81974 3.86007 5.75991 3.70772 5.75991C3.55536 5.75991 3.41934 5.81974 3.29963 5.93939L2.46713 6.75525C2.35831 6.86403 2.3039 7.00272 2.3039 7.17133C2.3039 7.33994 2.35831 7.47863 2.46713 7.58741L5.76447 10.8835C5.87329 10.9922 6.00932 11.0466 6.17256 11.0466C6.33579 11.0466 6.47726 10.9922 6.59697 10.8835L11.543 5.93939C11.6518 5.83061 11.7062 5.69464 11.7062 5.53147ZM13.9915 7C13.9915 8.27273 13.6813 9.44211 13.061 10.5082C12.4408 11.5742 11.5919 12.4227 10.5146 13.0536C9.43724 13.6845 8.2674 14 7.00505 14C5.7427 14 4.56742 13.6845 3.47919 13.0536C2.39096 12.4227 1.54758 11.5742 0.949055 10.5082C0.350529 9.44211 0.0349424 8.27273 0.00229548 7C-0.0303514 5.72727 0.285235 4.55789 0.949055 3.49184C1.61287 2.4258 2.45625 1.57731 3.47919 0.946387C4.50212 0.315463 5.67741 9.53674e-07 7.00505 9.53674e-07C8.33269 9.53674e-07 9.50254 0.315463 10.5146 0.946387C11.5266 1.57731 12.3755 2.4258 13.061 3.49184C13.7466 4.55789 14.0568 5.72727 13.9915 7Z" fill="#1C1B1B"/>
</svg>
