<svg width="88" height="16" viewBox="0 0 88 16" fill="none" xmlns="http://www.w3.org/2000/svg">
<path d="M8 0L10.4922 4.56977L15.6085 5.52786L12.0325 9.31023L12.7023 14.4721L8 12.24L3.29772 14.4721L3.96752 9.31023L0.391548 5.52786L5.50779 4.56977L8 0Z" fill="#FCE358"/>
<path d="M26 0L28.4922 4.56977L33.6085 5.52786L30.0325 9.31023L30.7023 14.4721L26 12.24L21.2977 14.4721L21.9675 9.31023L18.3915 5.52786L23.5078 4.56977L26 0Z" fill="#FCE358"/>
<path d="M44 0L46.4922 4.56977L51.6085 5.52786L48.0325 9.31023L48.7023 14.4721L44 12.24L39.2977 14.4721L39.9675 9.31023L36.3915 5.52786L41.5078 4.56977L44 0Z" fill="#FCE358"/>
<path d="M62 0L64.4922 4.56977L69.6085 5.52786L66.0325 9.31023L66.7023 14.4721L62 12.24L57.2977 14.4721L57.9675 9.31023L54.3915 5.52786L59.5078 4.56977L62 0Z" fill="#FCE358"/>
<path d="M80 0L82.4922 4.56977L87.6085 5.52786L84.0325 9.31023L84.7023 14.4721L80 12.24L75.2977 14.4721L75.9675 9.31023L72.3915 5.52786L77.5078 4.56977L80 0Z" fill="#FCE358"/>
</svg>
