<svg width="24" height="24" viewBox="0 0 24 24" fill="none" xmlns="http://www.w3.org/2000/svg">
<path d="M18.4167 5H9.08333C8.92862 5 8.78025 5.06146 8.67085 5.17085C8.56146 5.28025 8.5 5.42862 8.5 5.58333V8.5H5.58333C5.42862 8.5 5.28025 8.56146 5.17085 8.67085C5.06146 8.78025 5 8.92862 5 9.08333V18.4167C5 18.5714 5.06146 18.7197 5.17085 18.8291C5.28025 18.9385 5.42862 19 5.58333 19H14.9167C15.0714 19 15.2197 18.9385 15.3291 18.8291C15.4385 18.7197 15.5 18.5714 15.5 18.4167V15.5H18.4167C18.5714 15.5 18.7197 15.4385 18.8291 15.3291C18.9385 15.2197 19 15.0714 19 14.9167V5.58333C19 5.42862 18.9385 5.28025 18.8291 5.17085C18.7197 5.06146 18.5714 5 18.4167 5ZM14.3333 17.8333H6.16667V9.66667H14.3333V17.8333ZM17.8333 14.3333H15.5V9.08333C15.5 8.92862 15.4385 8.78025 15.3291 8.67085C15.2197 8.56146 15.0714 8.5 14.9167 8.5H9.66667V6.16667H17.8333V14.3333Z" fill="#333333"/>
</svg>
