<svg width="24" height="24" viewBox="0 0 24 24" fill="none" xmlns="http://www.w3.org/2000/svg">
<path d="M1 22.9281L6.10441 8.63573L15.2923 17.8237L1 22.9281ZM13.8121 13.2807L12.7401 12.2088L20.4223 4.52668L23 7.10441L21.9281 8.17633L20.4223 6.67053L13.8121 13.2807ZM9.72854 9.19722L8.65661 8.12529L10.1369 6.64501L8.60557 5.11369L9.67749 4.04176L12.2807 6.64501L9.72854 9.19722ZM11.7703 11.239L10.6984 10.1671L15.2668 5.59861L12.7401 3.07193L13.8121 2L17.4107 5.59861L11.7703 11.239ZM15.8538 15.3225L14.7819 14.2506L18.3805 10.652L21.9791 14.2506L20.9072 15.3225L18.3805 12.7958L15.8538 15.3225Z" fill="#0170B9"/>
</svg>
