<svg width="24" height="24" viewBox="0 0 24 24" fill="none" xmlns="http://www.w3.org/2000/svg">
<g clip-path="url(#clip0_370_2725)">
<path d="M24 12.001C24.0013 13.5772 23.6918 15.1382 23.0893 16.5947C22.4867 18.0512 21.6029 19.3746 20.4883 20.4892C19.3738 21.6038 18.0505 22.4877 16.594 23.0903C15.1375 23.693 13.5766 24.0025 12.0003 24.0013H11.9114C8.743 23.9815 5.71134 22.708 3.47926 20.4592C1.24718 18.2105 -0.0037387 15.1694 8.394e-06 12.001C8.394e-06 5.37383 5.37251 0 12.0003 0C18.6282 0 24 5.37383 24 12.001Z" fill="#FE0000"/>
<path d="M8.24365 16.4063V7.59571C8.24365 7.48318 8.27302 7.3726 8.32885 7.2749C8.38469 7.1772 8.46505 7.09576 8.562 7.03863C8.65895 6.98151 8.76913 6.95067 8.88165 6.94918C8.99418 6.94769 9.10514 6.97559 9.20357 7.03012L17.1697 11.4347C17.2708 11.4907 17.3551 11.5728 17.4138 11.6723C17.4725 11.7719 17.5035 11.8854 17.5035 12.001C17.5035 12.1166 17.4725 12.2301 17.4138 12.3296C17.3551 12.4292 17.2708 12.5113 17.1697 12.5672L9.20357 16.9725C9.10506 17.0269 8.99408 17.0546 8.88158 17.053C8.76908 17.0514 8.65895 17.0204 8.56204 16.9633C8.46514 16.9061 8.3848 16.8247 8.32897 16.727C8.27313 16.6293 8.24373 16.5188 8.24365 16.4063Z" fill="white"/>
</g>
<defs>
<clipPath id="clip0_370_2725">
<rect width="24" height="24" fill="white"/>
</clipPath>
</defs>
</svg>
