<svg width="24" height="24" viewBox="0 0 24 24" fill="none" xmlns="http://www.w3.org/2000/svg">
<g clip-path="url(#clip0_370_2724)">
<path d="M24 12C24.0013 13.5762 23.6918 15.1373 23.0891 16.5938C22.4865 18.0503 21.6026 19.3737 20.4879 20.4882C19.3733 21.6027 18.0498 22.4865 16.5932 23.089C15.1367 23.6915 13.5756 24.0008 11.9993 23.9993H11.9104C8.74232 23.9793 5.71102 22.7059 3.47916 20.4573C1.24731 18.2088 -0.00356453 15.1681 7.62988e-06 12C7.62988e-06 5.37338 5.37206 0 11.9993 0C18.6266 0 24 5.37338 24 12Z" fill="url(#paint0_linear_370_2724)"/>
<path d="M15.6024 4.66512H8.39697C7.38704 4.66529 6.41852 5.06657 5.70439 5.7807C4.99026 6.49483 4.58898 7.46335 4.58881 8.47328V15.6787C4.58916 16.6885 4.99053 17.6568 5.70467 18.3706C6.4188 19.0845 7.38721 19.4856 8.39697 19.4856H15.6024C16.6121 19.4845 17.5801 19.0829 18.294 18.369C19.008 17.6551 19.4095 16.6871 19.4106 15.6774V8.47328C19.4093 7.46367 19.0077 6.49576 18.2938 5.78186C17.5799 5.06796 16.612 4.66635 15.6024 4.66512ZM18.324 15.6787C18.324 16.4005 18.0372 17.0928 17.5268 17.6031C17.0164 18.1135 16.3242 18.4003 15.6024 18.4003H8.39697C7.67517 18.4003 6.98294 18.1135 6.47255 17.6031C5.96217 17.0928 5.67543 16.4005 5.67543 15.6787V8.47328C5.67543 7.75148 5.96217 7.05925 6.47255 6.54886C6.98294 6.03847 7.67517 5.75174 8.39697 5.75174H15.6024C16.3242 5.75174 17.0164 6.03847 17.5268 6.54886C18.0372 7.05925 18.324 7.75148 18.324 8.47328V15.6787Z" fill="white"/>
<path d="M12 8.32193C11.2575 8.32193 10.5316 8.54212 9.91417 8.95466C9.29676 9.3672 8.81556 9.95356 8.5314 10.6396C8.24723 11.3256 8.17288 12.0805 8.31775 12.8088C8.46261 13.5371 8.82019 14.206 9.34525 14.7311C9.87031 15.2561 10.5393 15.6137 11.2676 15.7586C11.9958 15.9034 12.7507 15.8291 13.4367 15.5449C14.1228 15.2608 14.7091 14.7796 15.1217 14.1622C15.5342 13.5448 15.7544 12.8189 15.7544 12.0763C15.7534 11.0809 15.3575 10.1266 14.6536 9.42273C13.9497 8.71888 12.9954 8.32299 12 8.32193ZM12 14.7428C11.4725 14.7428 10.9568 14.5863 10.5182 14.2932C10.0796 14.0001 9.7377 13.5836 9.53586 13.0962C9.33401 12.6088 9.28123 12.0725 9.38419 11.5551C9.48716 11.0377 9.74125 10.5625 10.1143 10.1895C10.4874 9.81653 10.9627 9.56256 11.4801 9.45972C11.9975 9.35689 12.5338 9.4098 13.0211 9.61177C13.5085 9.81374 13.925 10.1557 14.2179 10.5944C14.5109 11.0331 14.6672 11.5488 14.6671 12.0763C14.6664 12.7834 14.3852 13.4613 13.8851 13.9612C13.3851 14.4612 12.7071 14.7422 12 14.7428Z" fill="white"/>
<path d="M17.0461 8.15134C17.0461 8.31729 16.9969 8.4795 16.9047 8.61748C16.8125 8.75546 16.6815 8.863 16.5282 8.9265C16.3748 8.99001 16.2061 9.00662 16.0434 8.97425C15.8806 8.94188 15.7311 8.86197 15.6138 8.74463C15.4964 8.62729 15.4165 8.47778 15.3842 8.31503C15.3518 8.15227 15.3684 7.98357 15.4319 7.83026C15.4954 7.67695 15.6029 7.54591 15.7409 7.45371C15.8789 7.36152 16.0411 7.31231 16.2071 7.31231C16.4296 7.31231 16.643 7.40071 16.8004 7.55806C16.9577 7.71541 17.0461 7.92882 17.0461 8.15134Z" fill="white"/>
</g>
<defs>
<linearGradient id="paint0_linear_370_2724" x1="-7.14171" y1="29.1629" x2="27.0528" y2="-1.49685" gradientUnits="userSpaceOnUse">
<stop offset="0.23" stop-color="#FC9701"/>
<stop offset="0.52" stop-color="#E32646"/>
<stop offset="1" stop-color="#6A1BA8"/>
</linearGradient>
<clipPath id="clip0_370_2724">
<rect width="24" height="24" fill="white"/>
</clipPath>
</defs>
</svg>
