<svg width="24" height="24" viewBox="0 0 24 24" fill="none" xmlns="http://www.w3.org/2000/svg">
<g clip-path="url(#clip0_370_2723)">
<path d="M23.9999 12C24.0012 13.5762 23.6917 15.1373 23.089 16.5938C22.4864 18.0503 21.6024 19.3737 20.4878 20.4882C19.3732 21.6027 18.0497 22.4865 16.5931 23.089C15.1365 23.6915 13.5755 24.0008 11.9992 23.9993H11.9103C8.7422 23.9793 5.7109 22.7059 3.47904 20.4573C1.24718 18.2088 -0.0036866 15.1681 -0.00011444 12C-0.00011444 5.37338 5.37194 0 11.9992 0C18.6265 0 23.9999 5.37338 23.9999 12Z" fill="#3B579D"/>
<path d="M15.5194 9.21141V11.7577H18.9047L18.45 15.1968H15.5227V23.4756C14.8206 23.6904 14.1003 23.8402 13.3707 23.923C12.9154 23.9744 12.4575 23.9999 11.9993 23.9993H11.9104V15.1968H8.98041V11.7577H11.9077V8.83703C11.9077 7.76406 12.3219 6.73251 13.0639 5.95748C13.806 5.18244 14.8185 4.72376 15.8905 4.67706C16.4838 4.65104 17.0782 4.66656 17.6694 4.72353L18.9837 4.85097V7.92034H16.8131C16.6434 7.91999 16.4752 7.95313 16.3182 8.01785C16.1613 8.08258 16.0187 8.17762 15.8985 8.29754C15.7783 8.41747 15.683 8.55991 15.6179 8.71672C15.5529 8.87354 15.5194 9.04164 15.5194 9.21141Z" fill="white"/>
</g>
<defs>
<clipPath id="clip0_370_2723">
<rect width="24" height="24" fill="white"/>
</clipPath>
</defs>
</svg>
