<svg width="24" height="24" viewBox="0 0 24 24" fill="none" xmlns="http://www.w3.org/2000/svg">
<path fill-rule="evenodd" clip-rule="evenodd" d="M12 20C7.5816 20 4 16.4184 4 12C4 7.5816 7.5816 4 12 4C16.4184 4 20 7.5816 20 12C20 16.4184 16.4184 20 12 20ZM12 18.4C13.6974 18.4 15.3253 17.7257 16.5255 16.5255C17.7257 15.3253 18.4 13.6974 18.4 12C18.4 10.3026 17.7257 8.67475 16.5255 7.47452C15.3253 6.27428 13.6974 5.6 12 5.6C10.3026 5.6 8.67475 6.27428 7.47452 7.47452C6.27428 8.67475 5.6 10.3026 5.6 12C5.6 13.6974 6.27428 15.3253 7.47452 16.5255C8.67475 17.7257 10.3026 18.4 12 18.4ZM11.2 15.2H12.8V16.8H11.2V15.2ZM11.2 13.6064C11.2 13.6064 12.8 13.6 12.8 13.6064C12.8 12.8048 15.2 12 15.2 10.4C15.2 8.632 13.7816 7.2 12.0072 7.2C11.5864 7.19905 11.1695 7.28112 10.7804 7.44152C10.3913 7.60191 10.0377 7.83747 9.7398 8.13471C9.44189 8.43195 9.20554 8.78504 9.04427 9.17375C8.88301 9.56246 8.8 9.97916 8.8 10.4H10.4C10.4 9.52 11.12 8.8 12 8.8C12.88 8.8 13.6 9.52 13.6 10.4C13.6 11.12 11.2 12.2936 11.2 13.6064Z" fill="#07A64F"/>
</svg>
