<svg width="54" height="22" viewBox="0 0 54 22" fill="none" xmlns="http://www.w3.org/2000/svg">
<g opacity="0.96">
<path d="M53.4433 7.74524C53.1504 7.14654 52.7592 6.60121 52.2858 6.13196C52.1903 6.04159 52.0883 5.95841 51.9805 5.8831C51.8991 5.82143 51.8146 5.76396 51.7273 5.71092H51.7085L51.6854 5.6979C51.5914 5.64742 51.4948 5.60202 51.396 5.56189H51.3714C51.1202 5.46558 50.8533 5.41652 50.5843 5.4172H50.4729C50.1776 5.43565 49.8891 5.51392 49.625 5.64726C49.3143 5.80868 49.0287 6.01435 48.7771 6.25784H48.7612L48.7453 6.27231C48.7356 6.2839 48.7244 6.29412 48.712 6.3027L48.6643 6.34755C48.4921 6.50671 48.3185 6.67889 48.1188 6.88L47.9741 7.02469C47.7947 7.20121 47.6162 7.37966 47.4387 7.56004C47.4937 6.61667 47.5531 5.65304 47.6008 4.6952C47.6008 4.57367 47.6138 4.44634 47.624 4.32625C47.6601 3.90767 47.6688 3.48717 47.65 3.06746V2.96618C47.624 2.48726 47.5834 1.76671 47.0973 1.14888C46.7414 0.688775 46.0295 0.151978 44.6737 0.151978C44.3668 0.15387 44.0604 0.176105 43.7564 0.218535C43.2579 0.28786 42.7661 0.399184 42.2864 0.55132C40.7773 1.03747 39.9077 1.79709 39.682 2.82872C39.5228 3.59412 39.8093 4.25969 39.9974 4.70099L40.0379 4.79504C40.2116 5.18068 40.4107 5.55432 40.634 5.91348L40.8163 6.23469C41.2842 7.0681 41.7573 7.89861 42.2357 8.72623L41.5123 8.47737L41.3271 8.4137C41.058 8.31532 40.8192 8.23284 40.6037 8.16339L40.5429 8.14603L40.4995 8.13301H40.459C40.1242 8.02311 39.7752 7.9622 39.423 7.95215H39.368C39.09 7.95092 38.8146 8.00503 38.5578 8.11131C38.2746 8.22782 38.0196 8.40343 37.8097 8.6264C37.7403 8.70742 37.6752 8.79134 37.6115 8.87671L37.597 8.89696L37.5811 8.91867C37.4535 9.11016 37.3491 9.31608 37.27 9.53215V9.54662C37.0541 10.1695 36.9465 10.8248 36.9517 11.484C36.305 8.99101 34.1809 7.14334 31.6778 7.14334C30.7703 7.14517 29.879 7.38408 29.0922 7.8364C28.6466 7.47098 28.0925 7.26366 27.5164 7.24691C26.9404 7.23015 26.3751 7.4049 25.9091 7.74379V6.43292C25.887 5.76624 25.6074 5.13407 25.129 4.6692C24.6507 4.20433 24.0108 3.94293 23.3437 3.93993C23.0075 3.93688 22.6739 4.00031 22.3622 4.12657C22.0506 4.25284 21.7669 4.43945 21.5276 4.67568C21.2883 4.91192 21.098 5.19312 20.9677 5.50312C20.8374 5.81313 20.7696 6.14583 20.7683 6.48211V9.2066C20.7045 9.12356 20.6359 9.04433 20.5628 8.96931C19.8199 8.20724 18.8907 7.65259 17.8673 7.36037C16.8329 7.0744 15.7402 7.0744 14.7058 7.36037H14.6783C13.8475 7.57338 13.0774 7.97602 12.4284 8.53669C12.2202 8.11334 11.8967 7.7574 11.495 7.50987C11.0934 7.26233 10.63 7.13328 10.1583 7.13755C9.91734 7.1371 9.67761 7.17121 9.44638 7.23883C8.17746 7.61502 7.66816 8.83041 7.35852 9.55385C7.33103 9.62041 7.30499 9.68407 7.27894 9.74339C7.20226 9.92281 7.13426 10.082 7.06915 10.2093C7.00404 10.3366 6.95629 10.4582 6.90709 10.5855C6.87092 10.6839 6.84054 10.7504 6.80581 10.8358C6.59457 10.4133 6.37898 9.99226 6.16339 9.57121L6.03462 9.30788C5.71486 8.63363 5.23594 7.62226 4.04226 7.26777C3.45001 7.08594 2.81156 7.12834 2.24856 7.3869C1.68556 7.64545 1.23735 8.10209 0.989325 8.6698C0.41057 10.0082 1.13401 11.1903 1.51165 11.8226C1.78656 12.2726 2.1396 12.8672 2.46949 13.4865C2.61418 13.7354 2.66482 13.8395 2.97735 14.4356L3.0222 14.5181L3.41865 15.2662C3.51414 15.4369 3.61687 15.6337 3.73841 15.8637C3.85995 16.0938 4.01621 16.3817 4.17248 16.6812C4.14499 16.7188 4.1175 16.7579 4.08422 16.7955L4.06107 16.823L4.02489 16.8057C3.77143 16.6795 3.50309 16.5856 3.22621 16.5264C3.03015 16.4819 2.8297 16.4596 2.62865 16.4598C2.19119 16.4576 1.76076 16.5698 1.38005 16.7853C0.999335 17.0008 0.681584 17.3121 0.458317 17.6883C0.240096 18.0627 0.127901 18.4894 0.133763 18.9227C0.139626 19.356 0.263325 19.7796 0.491596 20.148C1.26568 21.3952 2.81819 21.8538 4.02779 21.8538C4.34766 21.8549 4.66675 21.8224 4.97984 21.7569C7.68986 21.1781 8.86329 18.6157 9.7184 16.7434L9.89058 16.3672C10.0671 15.9708 10.2509 15.5758 10.4418 15.1851L10.6126 14.8191C10.7861 15.3655 11.0401 15.8829 11.3664 16.3542C11.5681 16.6494 11.7941 16.9272 12.0421 17.1847C12.2925 17.4375 12.5641 17.6684 12.8538 17.8749C13.1506 18.0779 13.466 18.2523 13.7957 18.3958C14.1328 18.5499 14.4854 18.6673 14.8476 18.7459C15.0703 18.7995 15.2959 18.8401 15.5233 18.8675C15.7319 18.889 15.9416 18.8981 16.1513 18.895H16.3408C17.0927 18.8955 17.8392 18.7688 18.5487 18.5202C18.8744 18.4148 19.1898 18.2797 19.4907 18.1165C20.0239 17.8148 20.4635 17.3717 20.761 16.836C20.8451 17.4494 21.1487 18.0115 21.6157 18.4181C22.0826 18.8247 22.6812 19.0481 23.3003 19.0469C23.8484 19.0473 24.3823 18.8724 24.8239 18.5477V19.3363C24.8304 20.0102 25.1043 20.6541 25.5853 21.1262C26.0664 21.5983 26.7152 21.86 27.3892 21.8538C28.0632 21.86 28.7121 21.5983 29.1931 21.1262C29.6742 20.6541 29.9481 20.0102 29.9546 19.3363V18.6461C30.4968 18.8309 31.0659 18.9247 31.6387 18.9239C34.6497 18.9239 37.1007 16.292 37.1065 13.0568C37.1688 13.2531 37.2537 13.4415 37.3597 13.6182C37.522 13.8682 37.7337 14.0824 37.9819 14.2476C38.3421 14.4835 38.761 14.6143 39.1915 14.6252H39.3897C39.725 14.6155 40.0581 14.5669 40.3823 14.4805H40.4358L41.8393 14.1694C41.6194 14.4689 41.4052 14.7598 41.1954 15.0491L41.0782 15.2112C40.9075 15.4398 40.7628 15.6452 40.634 15.8362L40.5979 15.8912L40.5718 15.9288L40.5602 15.9462V15.9636C40.3586 16.2542 40.2011 16.573 40.0929 16.9098C40.0036 17.19 39.9759 17.4861 40.0119 17.778C40.0515 18.0777 40.1551 18.3654 40.3157 18.6215V18.6331C40.3725 18.7211 40.4363 18.8044 40.5067 18.8819L40.5212 18.8978L40.5342 18.9152C40.6063 18.9972 40.6826 19.0755 40.7628 19.1496C40.8586 19.2388 40.9606 19.321 41.0681 19.3956C41.5717 19.7334 42.1207 19.9979 42.6987 20.1812C43.192 20.3431 43.7041 20.4404 44.2223 20.4706H44.367C44.4521 20.4714 44.5371 20.467 44.6217 20.4576C44.727 20.4494 44.8318 20.4354 44.9356 20.4156H44.9747C45.0803 20.391 45.1859 20.3607 45.2887 20.3259H45.3046C45.5886 20.2224 45.8482 20.0613 46.0671 19.8528C46.2742 19.6467 46.4372 19.4005 46.546 19.1294C46.6685 18.8044 46.7421 18.4631 46.7645 18.1165V18.0717C46.7674 18.0569 46.7674 18.0416 46.7645 18.0268V17.9689C46.7876 17.7201 46.7978 17.4915 46.8108 17.2209V16.8389L46.8976 16.9923L46.996 17.1746C47.1335 17.4235 47.2492 17.6333 47.3722 17.8329L47.4026 17.8821L47.4301 17.927V17.9415L47.4431 17.9617C47.6424 18.2536 47.8831 18.5149 48.1579 18.7372C48.3771 18.9394 48.6364 19.0932 48.9189 19.1887H48.9348C49.1552 19.2613 49.3857 19.2984 49.6178 19.2986C49.6898 19.2987 49.7618 19.2943 49.8333 19.2856H49.8565C49.9667 19.2728 50.076 19.2525 50.1835 19.2248H50.2283C50.3331 19.1986 50.436 19.1658 50.5365 19.1265C50.6559 19.0822 50.7719 19.0295 50.8838 18.9687C51.3345 18.7241 51.751 18.421 52.1223 18.0673C52.5595 17.6536 52.936 17.1801 53.2408 16.661C53.3599 16.453 53.4509 16.2302 53.5113 15.9983V15.9563C53.5373 15.8531 53.5561 15.7482 53.5678 15.6424V15.6076C53.5966 15.3115 53.5621 15.0126 53.4665 14.7308C53.3656 14.4507 53.2058 14.1956 52.9977 13.9828C52.7511 13.7315 52.47 13.5166 52.1628 13.3447H52.1455L52.1252 13.3331L52.0847 13.31L52.0326 13.2767C51.8301 13.1595 51.5986 13.0278 51.3656 12.9135L51.1674 12.8093C50.852 12.6357 50.5327 12.4693 50.2095 12.3102L51.6014 11.9933H51.655C52.05 11.9209 52.4313 11.7872 52.785 11.5969C53.1653 11.4034 53.4833 11.1065 53.7023 10.7403C53.8457 10.4865 53.9321 10.2046 53.9555 9.91413C54.0684 9.01561 53.6821 8.21982 53.452 7.74379L53.4433 7.74524Z" fill="white"/>
</g>
<path d="M4.04229 21.9985C2.79508 21.9985 1.1818 21.5398 0.38167 20.2289C0.138241 19.8376 0.00634312 19.3873 0.00022311 18.9265C-0.0058969 18.4657 0.113994 18.012 0.346945 17.6144C0.583405 17.2171 0.919169 16.8881 1.32125 16.6598C1.72333 16.4315 2.17788 16.3117 2.64026 16.3122C2.85207 16.3119 3.06323 16.3357 3.26966 16.3831C3.51865 16.4352 3.76123 16.5143 3.9931 16.6189L3.96416 16.5654C3.83973 16.3368 3.72543 16.1313 3.6227 15.9273L3.56627 15.8217C3.46933 15.638 3.38251 15.4759 3.30438 15.3327L2.76903 14.3198C2.53609 13.8742 2.47966 13.7686 2.35522 13.5487C2.0861 13.0451 1.76489 12.4881 1.40028 11.8905C1.00094 11.2322 0.261579 10.0096 0.867824 8.60464C1.12807 8.00395 1.60061 7.52028 2.19508 7.24614C2.78955 6.97199 3.46422 6.92662 4.09004 7.11869C5.33871 7.505 5.83644 8.54966 6.16633 9.24127L6.29365 9.5046C6.45956 9.82678 6.62547 10.1518 6.79138 10.4798C6.83768 10.3655 6.88688 10.2526 6.93607 10.1427V10.1311C6.9925 10.0067 7.0634 9.8533 7.13719 9.68257C7.15889 9.63338 7.1777 9.58563 7.1994 9.53788L7.22689 9.47277C7.54376 8.73197 8.07477 7.49343 9.39723 7.10132C9.64559 7.02977 9.90272 6.99325 10.1612 6.99281C10.6269 6.9927 11.0844 7.1146 11.4883 7.34638C11.8922 7.57815 12.2283 7.91171 12.4632 8.31381C13.1004 7.79894 13.8404 7.42646 14.6335 7.22141H14.6784C15.7319 6.93128 16.8442 6.93128 17.8977 7.22141C18.9287 7.51348 19.8673 8.06551 20.6236 8.82456V6.48205C20.6294 5.76801 20.9177 5.08531 21.4256 4.58338C21.9335 4.08145 22.6196 3.80116 23.3336 3.80387C24.0392 3.80469 24.7167 4.08022 25.2226 4.57206C25.7285 5.06389 26.023 5.73339 26.0437 6.43865V7.4833C26.5131 7.20541 27.0552 7.07478 27.5997 7.10831C28.1443 7.14184 28.6662 7.338 29.098 7.6714C29.884 7.23854 30.7661 7.01017 31.6634 7.00727C33.9292 7.00727 35.965 8.49757 36.8389 10.7128C36.8881 10.3088 36.9797 9.91107 37.1124 9.52631V9.50894L37.121 9.48579C37.2034 9.25864 37.3132 9.04242 37.448 8.84193L37.4827 8.79273C37.5464 8.70592 37.6159 8.61911 37.6882 8.53519C37.912 8.29507 38.1849 8.10605 38.4883 7.98103C38.7632 7.8659 39.0585 7.80781 39.3565 7.8103H39.4115C39.7712 7.82069 40.1277 7.88157 40.4706 7.99116H40.5285L40.6312 8.02154C40.841 8.0881 41.0739 8.16623 41.3705 8.27475L41.9146 8.4614C41.5008 7.73795 41.0898 7.01451 40.6876 6.30264L40.5053 5.98143C40.2823 5.61682 40.0837 5.23787 39.9106 4.84707L39.8701 4.75013C39.6719 4.28423 39.3782 3.59262 39.546 2.79249C39.7761 1.71167 40.6818 0.911537 42.2416 0.405127C42.7297 0.251842 43.2296 0.139086 43.7362 0.0680039C44.0464 0.0244392 44.3591 0.00172018 44.6723 0C46.0961 0 46.8427 0.578755 47.2116 1.05333C47.7282 1.70877 47.7672 2.45537 47.7904 2.9502V3.06017C47.8091 3.48422 47.8004 3.90905 47.7643 4.33198V4.38696C47.7556 4.48824 47.747 4.59097 47.747 4.68791C47.7079 5.46923 47.6616 6.25489 47.6168 7.01451L47.6081 7.17801L47.8743 6.91323L48.019 6.76854C48.2158 6.57176 48.3923 6.39524 48.5702 6.2303L48.7063 6.10297H48.7236C48.9742 5.86721 49.2561 5.66711 49.5614 5.5083C49.8439 5.36548 50.1526 5.28178 50.4686 5.26233H50.5887C50.8662 5.26092 51.1418 5.30994 51.4018 5.40702H51.4293L51.4553 5.41715C51.5566 5.45911 51.6579 5.50541 51.7534 5.56184H51.7751L51.8098 5.58354C51.902 5.6393 51.9914 5.69967 52.0775 5.7644C52.1894 5.84277 52.2953 5.92934 52.3944 6.02339C52.8571 6.48307 53.2431 7.01409 53.5374 7.59616L53.5765 7.67718C53.8152 8.16768 54.2131 8.98662 54.0959 9.92999C54.0694 10.2389 53.9766 10.5384 53.8239 10.8082C53.5915 11.1999 53.2522 11.5171 52.8458 11.7227C52.48 11.9189 52.0862 12.0575 51.6782 12.1336H51.6145L50.6306 12.3579C50.8332 12.462 51.0338 12.5686 51.2325 12.6776L51.4293 12.7818C51.6536 12.8889 51.872 13.0148 52.0645 13.1262L52.1788 13.1956H52.1961L52.2294 13.2144C52.5486 13.3933 52.8409 13.6164 53.0976 13.8771C53.32 14.1047 53.4908 14.3776 53.5982 14.6772C53.7019 14.9792 53.7389 15.3001 53.7067 15.6177V15.6524C53.695 15.7581 53.6766 15.863 53.6517 15.9664V16.0286C53.5881 16.2723 53.4923 16.5063 53.3667 16.7246C53.0566 17.2593 52.6712 17.7466 52.2222 18.1715C51.8406 18.539 51.412 18.8543 50.9475 19.109C50.8291 19.1722 50.7069 19.2278 50.5814 19.2754C50.4759 19.3158 50.3682 19.3501 50.2588 19.3782H50.1937C50.0862 19.4021 49.9775 19.4205 49.8681 19.4331H49.8377C49.7633 19.4416 49.6884 19.4459 49.6135 19.4462C49.3738 19.4459 49.1357 19.4088 48.9074 19.3362H48.8915H48.8698C48.5672 19.235 48.2896 19.0708 48.0552 18.8544C47.7756 18.6184 47.5319 18.343 47.3317 18.0369L47.2941 17.9819V17.953L47.2637 17.9052C47.1624 17.7403 47.0684 17.5724 46.9628 17.3815C46.9526 17.5768 46.9425 17.7736 46.9237 17.9776V18.0224C46.9258 18.0417 46.9258 18.0611 46.9237 18.0803V18.1121C46.9003 18.4774 46.8233 18.8371 46.6951 19.1799C46.5793 19.4729 46.4045 19.7389 46.1814 19.9613C45.9487 20.186 45.6711 20.3591 45.3668 20.4691L45.3263 20.4778C45.2236 20.5111 45.1209 20.54 45.0196 20.5632H44.9545C44.8501 20.5825 44.7448 20.5965 44.6391 20.6051C44.5502 20.6146 44.4608 20.619 44.3714 20.6181H44.2267C43.6936 20.5901 43.1663 20.4928 42.6583 20.3288C42.0637 20.1387 41.4995 19.8644 40.9828 19.5142C40.8691 19.4343 40.7621 19.3453 40.663 19.2479C40.5788 19.1716 40.4991 19.0904 40.4243 19.0049L40.4055 18.9817C40.3295 18.8969 40.2608 18.8059 40.2 18.7097L40.1769 18.6735V18.6591C40.0174 18.3936 39.9144 18.098 39.8745 17.7909C39.8353 17.4778 39.8644 17.1599 39.9598 16.8591C40.0694 16.5272 40.2248 16.2121 40.4214 15.923V15.9042L40.5183 15.7595C40.6355 15.5844 40.773 15.3891 40.9669 15.1272L41.0826 14.9666C41.2186 14.7785 41.3575 14.5885 41.4993 14.3965L40.4416 14.628H40.4055C40.0747 14.7157 39.7347 14.7643 39.3926 14.7727H39.1872C38.7286 14.7624 38.2821 14.6241 37.898 14.3734C37.6327 14.1972 37.4066 13.9681 37.2339 13.7006L37.2165 13.6716C36.9271 16.7014 34.5311 19.0729 31.6344 19.0729C31.1128 19.077 30.5937 19.0014 30.0949 18.8486V19.3376C30.0877 20.0498 29.7983 20.7299 29.2903 21.229C28.7823 21.7281 28.0971 22.0053 27.3849 21.9999C26.6728 22.0053 25.9876 21.7281 25.4796 21.229C24.9715 20.7299 24.6822 20.0498 24.6749 19.3376V18.8168C24.2568 19.0624 23.7809 19.1922 23.296 19.193C22.7071 19.1899 22.135 18.9961 21.6655 18.6405C21.1959 18.285 20.8543 17.7869 20.6916 17.2209C20.3958 17.6406 20.0109 17.9899 19.5645 18.2438C19.2546 18.4117 18.9302 18.5512 18.5951 18.6605C17.8733 18.9127 17.1141 19.0413 16.3495 19.041H16.1571C15.9426 19.0444 15.728 19.0347 15.5147 19.0121C15.2809 18.9844 15.049 18.9428 14.8202 18.8877C14.4489 18.8075 14.0875 18.6872 13.7422 18.5288C13.4051 18.3818 13.0825 18.2036 12.7786 17.9964C12.4782 17.785 12.1965 17.5483 11.9365 17.2889C11.6826 17.0251 11.4513 16.7405 11.2449 16.4381C10.9791 16.0539 10.7595 15.6396 10.5909 15.2039L10.5707 15.2473C10.3797 15.638 10.1959 16.0344 10.0208 16.428L9.84721 16.8056C8.97907 18.7039 7.78973 21.304 5.00737 21.8972C4.69006 21.9643 4.36663 21.9983 4.04229 21.9985ZM2.63881 16.6045C2.22713 16.6036 1.82229 16.7099 1.4641 16.9128C1.10591 17.1158 0.806674 17.4084 0.59581 17.762C0.390051 18.1143 0.284281 18.516 0.28989 18.9239C0.295499 19.3319 0.412274 19.7305 0.627641 20.077C1.36266 21.2808 2.87032 21.7091 4.02783 21.7091C4.33752 21.7107 4.64651 21.6792 4.94949 21.615C7.58572 21.0522 8.74178 18.5274 9.58387 16.6841L9.7575 16.3064C9.93257 15.9114 10.1192 15.5135 10.3102 15.1214L10.6358 14.4211L10.7472 14.7756C10.917 15.3083 11.1647 15.8129 11.4822 16.2731C11.6802 16.5612 11.9014 16.8327 12.1434 17.0848C12.3904 17.3316 12.6581 17.5567 12.9435 17.7576C13.235 17.9542 13.544 18.1232 13.8667 18.2626C14.191 18.4126 14.5305 18.5271 14.8795 18.6041C15.0978 18.6568 15.3191 18.6964 15.5422 18.7227C15.744 18.7442 15.9469 18.7534 16.1498 18.7502H16.3408C17.075 18.7506 17.8039 18.6268 18.4967 18.3842C18.8153 18.2807 19.1238 18.1485 19.4184 17.9892C19.9284 17.7008 20.349 17.2772 20.6338 16.7651L20.8479 16.3802L20.9043 16.8143C20.9849 17.3927 21.2717 17.9225 21.712 18.3061C22.1523 18.6898 22.7164 18.9014 23.3004 18.9021C23.8174 18.9011 24.3208 18.7365 24.7386 18.4319L24.9686 18.2612V19.3362C24.9759 19.9716 25.2348 20.5781 25.6885 21.0229C26.1423 21.4678 26.7539 21.7145 27.3893 21.7091C28.0247 21.7145 28.6363 21.4678 29.09 21.0229C29.5438 20.5781 29.8027 19.9716 29.8099 19.3362V18.4464L30.0009 18.5115C30.5259 18.6907 31.0768 18.7821 31.6315 18.782H31.6388C34.5687 18.782 36.9561 16.2153 36.9619 13.0596V12.135L36.8013 11.5201C36.156 9.03147 34.0435 7.29376 31.6677 7.29376C30.7856 7.29637 29.9194 7.52875 29.1545 7.96801L29.0677 8.0172L28.9895 7.95354C28.5704 7.6047 28.0463 7.40655 27.5012 7.39081C26.9561 7.37507 26.4215 7.54265 25.9829 7.86673L25.7528 8.03601V6.44444C25.7333 5.81505 25.4695 5.21799 25.0175 4.77967C24.5654 4.34136 23.9604 4.09621 23.3307 4.09614C22.6944 4.09419 22.0832 4.34393 21.6302 4.79089C21.1773 5.23785 20.9195 5.84576 20.913 6.48205V9.62903L20.654 9.2948C20.5932 9.21593 20.528 9.14057 20.4587 9.06909C19.733 8.32765 18.8262 7.78852 17.8282 7.505C16.8195 7.22503 15.7536 7.22503 14.7449 7.505H14.6972C13.8963 7.7155 13.154 8.10594 12.5268 8.6466L12.3822 8.76958L12.2997 8.6003C12.1032 8.20377 11.7998 7.87007 11.4237 7.63689C11.0476 7.40371 10.6138 7.28035 10.1713 7.28074C9.94026 7.28108 9.71039 7.31371 9.48838 7.37768C8.2947 7.73361 7.79841 8.89402 7.50036 9.58852L7.47431 9.65074C7.45261 9.70283 7.43235 9.75347 7.41065 9.79543C7.33686 9.96761 7.26596 10.1224 7.20808 10.2483L7.20085 10.2628C7.14297 10.3843 7.08944 10.5073 7.04169 10.6317C7.0171 10.6997 6.99395 10.7547 6.96935 10.8126L6.82466 11.1772L6.67997 10.8878C6.46776 10.4663 6.25362 10.0457 6.03755 9.62614L5.90733 9.35847C5.60059 8.71026 5.13614 7.73072 4.00468 7.39504C3.44607 7.22439 2.84413 7.26603 2.31434 7.51196C1.78455 7.7579 1.36424 8.19081 1.13405 8.72762C0.587128 9.99654 1.27874 11.1352 1.64625 11.7473C2.01376 12.3593 2.33931 12.912 2.60843 13.417C2.73431 13.6384 2.79074 13.7454 3.02513 14.194L3.55903 15.1981C3.63717 15.3428 3.72398 15.5034 3.82237 15.69L3.8788 15.7957C3.98153 15.9939 4.09583 16.2037 4.21882 16.4309L4.3635 16.6927L4.29984 16.7796C4.27308 16.8183 4.24409 16.8555 4.21303 16.891L4.11898 17.0024L3.98297 16.9358C3.7396 16.8148 3.48196 16.7248 3.21612 16.6681C3.02998 16.6261 2.83977 16.6048 2.64894 16.6045H2.63881ZM40.4604 18.5867C40.5041 18.6551 40.5524 18.7204 40.6051 18.782L40.6428 18.8254C40.71 18.9008 40.781 18.9728 40.8554 19.041C40.9455 19.1276 41.0423 19.207 41.1448 19.2783C41.6365 19.607 42.1724 19.8642 42.7364 20.0423C43.2185 20.1996 43.7189 20.294 44.2252 20.323H44.3699C44.4497 20.3243 44.5294 20.3204 44.6087 20.3114C44.7143 20.3027 44.8156 20.2883 44.9111 20.2709H44.9675C45.0654 20.2489 45.1621 20.2214 45.2569 20.1884H45.2931C45.5493 20.0921 45.7832 19.9443 45.9803 19.7544C46.1735 19.5578 46.3238 19.3233 46.4216 19.0656C46.539 18.7536 46.6097 18.426 46.6314 18.0933V17.9486C46.6531 17.6983 46.6633 17.4885 46.6763 17.1948V16.2674L47.1335 17.0848C47.2709 17.3337 47.3852 17.5392 47.5053 17.7374L47.5849 17.8821C47.7706 18.1601 47.9953 18.4101 48.2519 18.6243C48.4516 18.81 48.6876 18.9524 48.945 19.0425H48.9595H48.9812C49.187 19.1104 49.4024 19.1451 49.6192 19.1452C49.686 19.1448 49.7526 19.1409 49.8189 19.1336H49.8507C49.9515 19.1225 50.0515 19.1056 50.1502 19.083H50.211C50.3036 19.0582 50.3949 19.0287 50.4845 18.9947C50.5979 18.9537 50.7086 18.9053 50.8158 18.85C51.2577 18.608 51.6654 18.3083 52.0283 17.9588C52.4561 17.555 52.824 17.0921 53.1207 16.5842C53.228 16.3951 53.3102 16.1927 53.3652 15.9823V15.9244C53.3885 15.8291 53.4059 15.7325 53.4173 15.6351V15.6076C53.4457 15.3272 53.4136 15.044 53.3233 14.7771C53.2305 14.5173 53.0824 14.2808 52.8892 14.084C52.6616 13.8509 52.4025 13.6507 52.1195 13.4893H52.1007L51.9183 13.3808C51.7302 13.2723 51.5161 13.1493 51.2976 13.0437L51.0936 12.9366C50.7796 12.7644 50.4599 12.5966 50.1401 12.4403L49.7755 12.2595L51.5942 11.8457H51.6304C52.0061 11.7751 52.3686 11.6472 52.7055 11.4666C53.0654 11.2864 53.3666 11.0074 53.5736 10.6621C53.7053 10.4276 53.7853 10.1676 53.808 9.8996C53.9093 9.08211 53.5794 8.34709 53.3537 7.87396L53.316 7.79872C53.0323 7.21424 52.6517 6.68199 52.1904 6.22451C52.0998 6.13978 52.0031 6.06191 51.901 5.99156C51.8301 5.93802 51.7563 5.89028 51.6897 5.84687H51.6724L51.6159 5.81504C51.5378 5.77308 51.4539 5.73401 51.3685 5.69784H51.341L51.3164 5.68771C51.0821 5.59668 50.8328 5.55007 50.5814 5.55026H50.4729C50.2004 5.56965 49.9346 5.64397 49.6916 5.76874C49.3938 5.92396 49.1199 6.12132 48.8784 6.35473L48.8365 6.39524H48.8206L48.8061 6.40682L48.7641 6.44588C48.5905 6.60649 48.4154 6.78011 48.223 6.97544L48.0783 7.12013C47.896 7.2981 47.718 7.47607 47.5415 7.65548L47.2753 7.93907L47.3303 7.00872C47.3751 6.25055 47.4214 5.46489 47.459 4.6937C47.459 4.59242 47.4692 4.48246 47.4778 4.37539V4.32041C47.514 3.90811 47.5227 3.49387 47.5039 3.08042V2.97191C47.4793 2.52048 47.4417 1.82886 46.983 1.24432C46.6488 0.810256 45.9702 0.302399 44.668 0.302399C44.3678 0.303876 44.0681 0.325629 43.7709 0.367508C43.2804 0.436441 42.7965 0.545812 42.324 0.694504C40.8771 1.16185 40.0293 1.89253 39.8238 2.86484C39.6791 3.57815 39.9468 4.21623 40.1262 4.63872L40.1711 4.74434C40.3391 5.12439 40.5325 5.49272 40.7498 5.84687L40.935 6.17242C41.3995 7.00293 41.8769 7.84068 42.3544 8.66396L42.5483 8.99964L41.2693 8.56557C40.9799 8.45995 40.7455 8.38037 40.5458 8.31671L40.4011 8.28632C40.0794 8.18093 39.7441 8.12246 39.4057 8.1127H39.3463C39.0904 8.11109 38.8366 8.16027 38.5998 8.25739C38.3355 8.36627 38.0977 8.53057 37.9023 8.7392C37.8401 8.81154 37.7765 8.89257 37.7157 8.97504L37.6882 9.01411C37.5707 9.18809 37.4736 9.375 37.3988 9.57116V9.58418L37.3902 9.60733C37.1815 10.2123 37.0768 10.8483 37.0805 11.4883L37.0892 12.5503L37.2339 13.0191C37.293 13.2044 37.3736 13.3821 37.4741 13.5487C37.6248 13.7796 37.8219 13.9767 38.0528 14.1274C38.3901 14.3474 38.7817 14.4697 39.1843 14.4804H39.3796C39.7021 14.4731 40.0226 14.428 40.3346 14.3459H40.3722H40.4098L42.175 13.9538L41.8524 14.3878C41.6594 14.6425 41.4762 14.8933 41.3025 15.1402L41.1853 15.3023C40.9929 15.5613 40.8583 15.7523 40.7513 15.923L40.7021 15.9982V16.017L40.676 16.0547C40.4828 16.3292 40.3316 16.6311 40.2275 16.9503C40.144 17.2107 40.1183 17.4863 40.1523 17.7576C40.1916 18.0363 40.2902 18.3032 40.4416 18.5404L40.4604 18.5867Z" fill="#FF1A1A"/>
<path d="M42.9491 12.63L43.7869 12.439C43.8144 12.4337 43.8414 12.4265 43.8679 12.4173C44.0978 12.3597 44.296 12.2142 44.4198 12.0121C44.5437 11.8101 44.5835 11.5675 44.5306 11.3365V11.322C44.5019 11.212 44.4528 11.1085 44.3859 11.0167C44.2917 10.8992 44.1758 10.8009 44.0444 10.7273C43.8885 10.6407 43.7259 10.5667 43.5582 10.506L42.6395 10.1775C42.1229 9.98942 41.6078 9.80566 41.087 9.62625C40.7498 9.50905 40.4634 9.40487 40.2188 9.33687L40.0741 9.29491C39.8518 9.21985 39.6199 9.1765 39.3854 9.16614C39.266 9.16119 39.147 9.18243 39.0367 9.22835C38.922 9.27629 38.8188 9.34833 38.7343 9.4396C38.692 9.48552 38.6524 9.53383 38.6157 9.58429C38.5444 9.69223 38.4852 9.80772 38.4392 9.92865C38.2684 10.4228 38.1833 10.9424 38.1874 11.4652C38.1874 11.9369 38.2033 12.5432 38.4681 12.9541C38.532 13.0603 38.6178 13.1515 38.7199 13.2218C38.8938 13.3283 39.0946 13.383 39.2986 13.3795C39.5921 13.3845 39.8848 13.3455 40.1667 13.2637L42.9491 12.6285V12.63ZM52.2974 8.26473C52.0681 7.79199 51.7604 7.36149 51.3874 6.99146C51.3388 6.9441 51.2871 6.90011 51.2325 6.8598C51.1819 6.82362 51.1298 6.7889 51.0748 6.75707C51.0191 6.72657 50.9616 6.69951 50.9026 6.67604C50.786 6.63126 50.6615 6.61058 50.5366 6.61527C50.4178 6.62293 50.302 6.65546 50.1966 6.71077C49.9902 6.82068 49.8007 6.95954 49.6337 7.12313C49.6019 7.15496 49.5614 7.18969 49.5252 7.22297C49.3357 7.39804 49.1244 7.61363 48.8741 7.86394C48.4863 8.25026 48.1044 8.63657 47.7166 9.02145L47.0366 9.71306C46.9128 9.83926 46.8 9.97576 46.6994 10.1211C46.6131 10.2435 46.5516 10.3816 46.5186 10.5277C46.5012 10.6396 46.5041 10.7538 46.5273 10.8648V10.8793C46.5842 11.1101 46.7277 11.3102 46.9281 11.4382C47.1285 11.5661 47.3704 11.6121 47.6037 11.5665L47.6877 11.5506L51.3049 10.7288C51.5943 10.6804 51.8747 10.5887 52.1368 10.4568C52.3204 10.3724 52.476 10.2374 52.5854 10.0675C52.6445 9.95986 52.681 9.84118 52.6924 9.71885C52.7474 9.23414 52.4899 8.68432 52.283 8.25894L52.2974 8.26473ZM45.8125 9.75936C46.0744 9.43526 46.0744 8.95344 46.1019 8.55844C46.1815 7.24033 46.2639 5.92221 46.3305 4.6041C46.3744 4.10669 46.3908 3.60724 46.3797 3.10802C46.3551 2.69276 46.3522 2.21674 46.0903 1.87527C45.6201 1.27481 44.6145 1.32401 43.9286 1.41805C43.7174 1.44699 43.5076 1.48606 43.2993 1.5338C43.0909 1.58155 42.884 1.63653 42.6814 1.7002C42.0231 1.91144 41.0971 2.30066 40.9452 3.04436C40.8555 3.4654 41.0653 3.89513 41.2273 4.28C41.4397 4.73351 41.6768 5.175 41.9377 5.60245C42.5859 6.75996 43.2399 7.90879 43.9026 9.06051C44.1008 9.40343 44.3135 9.83894 44.6941 10.0169L44.7707 10.0444C44.9415 10.1075 45.1269 10.1201 45.3046 10.0806L45.3365 10.0733C45.5018 10.0307 45.652 9.94305 45.7705 9.82013C45.7919 9.80097 45.8122 9.78069 45.8313 9.75936H45.8125ZM45.5014 13.2927C45.397 13.1509 45.2511 13.0451 45.0839 12.9899C44.9167 12.9347 44.7365 12.9328 44.5682 12.9845C44.5288 12.9978 44.4901 13.0132 44.4524 13.0308C44.3948 13.06 44.3396 13.0939 44.2875 13.1321C44.1394 13.2463 44.0071 13.3796 43.8939 13.5285C43.8664 13.5693 43.836 13.608 43.8028 13.6443L43.224 14.4299C42.8941 14.8712 42.5686 15.314 42.2459 15.7625C42.0347 16.0519 41.8524 16.2978 41.7077 16.5134C41.6816 16.5539 41.6527 16.5988 41.6267 16.6364C41.4898 16.8273 41.382 17.0375 41.3069 17.26C41.2682 17.3729 41.2558 17.4932 41.2707 17.6116C41.2874 17.7348 41.3298 17.8531 41.3951 17.9589C41.4302 18.0119 41.4678 18.063 41.508 18.1122C41.5943 18.2111 41.6913 18.2999 41.7974 18.377C42.2002 18.645 42.6385 18.8554 43.0996 19.0021C43.4863 19.1271 43.8875 19.2019 44.2933 19.2249C44.3622 19.2292 44.4313 19.2292 44.5002 19.2249C44.5638 19.2191 44.6275 19.2104 44.6912 19.1989C44.7539 19.1846 44.8157 19.1667 44.8764 19.1453C44.9955 19.0984 45.1035 19.0269 45.1932 18.9355C45.2773 18.8539 45.3429 18.7552 45.3857 18.6461C45.4665 18.4261 45.5152 18.1957 45.5304 17.9618C45.5304 17.9169 45.539 17.8634 45.5448 17.8171C45.5665 17.5595 45.5781 17.2557 45.594 16.8997C45.623 16.3528 45.6447 15.8074 45.6635 15.2619L45.7011 14.2896C45.7157 14.0562 45.6947 13.8221 45.6389 13.5951C45.6108 13.4879 45.5658 13.3858 45.5058 13.2927H45.5014ZM52.079 14.8148C51.9115 14.6472 51.721 14.5045 51.5132 14.3908L51.3859 14.3156C51.1587 14.1825 50.8867 14.0421 50.5684 13.8729C50.0794 13.6081 49.5903 13.352 49.0955 13.0973L48.2274 12.6416C48.1815 12.6231 48.137 12.6013 48.0942 12.5765C47.9259 12.4923 47.7474 12.43 47.5632 12.3912C47.4997 12.3794 47.4354 12.3727 47.3708 12.371C47.3293 12.3688 47.2878 12.3688 47.2464 12.371C47.0729 12.3961 46.9118 12.4754 46.786 12.5975C46.6602 12.7196 46.5763 12.8784 46.5461 13.051C46.533 13.16 46.5374 13.2704 46.5591 13.378C46.6096 13.6068 46.695 13.8264 46.8123 14.0291L47.2782 14.8871C47.5386 15.3704 47.8005 15.8508 48.0696 16.334C48.2433 16.6465 48.388 16.9128 48.524 17.1356C48.5486 17.1776 48.5775 17.2224 48.6006 17.2615C48.7185 17.4657 48.8647 17.6523 49.0347 17.8156C49.1247 17.9002 49.232 17.9641 49.3492 18.0031C49.4664 18.0421 49.5906 18.0551 49.7133 18.0413C49.777 18.0327 49.8406 18.0225 49.9043 18.0081C50.0326 17.9733 50.1568 17.9248 50.2747 17.8634C50.628 17.6689 50.9544 17.4291 51.2456 17.1501C51.5963 16.8197 51.8984 16.4412 52.1426 16.0258C52.1758 15.9664 52.2043 15.9045 52.228 15.8406C52.2512 15.782 52.271 15.7221 52.2873 15.6612C52.3014 15.5996 52.3121 15.5373 52.3192 15.4746C52.332 15.3509 52.3177 15.226 52.2772 15.1085C52.2376 14.9955 52.1733 14.8927 52.0891 14.8076L52.079 14.8148Z" fill="#FF1A1A"/>
<path fill-rule="evenodd" clip-rule="evenodd" d="M22.017 6.46477C22.0216 6.12242 22.1608 5.79565 22.4045 5.55518C22.6483 5.31471 22.9769 5.1799 23.3192 5.17993C23.6615 5.18582 23.9883 5.32393 24.231 5.56532C24.4737 5.80671 24.6136 6.13266 24.6214 6.4749V16.4989C24.6165 16.841 24.4771 17.1674 24.2335 17.4076C23.9898 17.6477 23.6614 17.7824 23.3192 17.7823C23.1502 17.785 22.9822 17.7542 22.8251 17.6917C22.668 17.6292 22.5248 17.5362 22.4038 17.4182C22.2827 17.3001 22.1862 17.1592 22.1199 17.0037C22.0535 16.8482 22.0186 16.681 22.017 16.512V6.46477ZM20.8118 12.656C20.8066 12.9642 20.6923 13.2605 20.4891 13.4923C20.25 13.7232 19.9303 13.8519 19.5979 13.8511C18.6728 13.8511 17.7473 13.854 16.8213 13.8598L14.0476 13.8714C14.1644 14.2427 14.3729 14.5786 14.6538 14.848C14.812 14.9966 14.9891 15.1236 15.1805 15.2257C15.4747 15.3982 15.8089 15.4909 16.1499 15.4948C16.6361 15.4813 17.112 15.3513 17.5375 15.1157L17.5722 15.0983C17.8672 14.9291 18.1856 14.8043 18.517 14.7279C18.6778 14.6973 18.8433 14.7019 19.0022 14.7413C19.1611 14.7808 19.3095 14.8542 19.4372 14.9566C19.5854 15.0772 19.6943 15.2391 19.7502 15.4217C19.8061 15.6044 19.8065 15.7995 19.7512 15.9824C19.5888 16.4288 19.2687 16.8003 18.8513 17.027C18.6256 17.1572 18.3888 17.2671 18.1437 17.3555C17.5169 17.5739 16.8553 17.6755 16.1919 17.655C16.0228 17.6582 15.8537 17.6514 15.6855 17.6347C15.5051 17.6129 15.3263 17.5795 15.1501 17.5349C14.871 17.4757 14.5993 17.3859 14.3399 17.2672C14.0814 17.1546 13.8343 17.0175 13.602 16.8578C13.3706 16.695 13.1542 16.5119 12.9552 16.3108C12.7582 16.1071 12.5791 15.8869 12.4198 15.6525C11.879 14.8247 11.6164 13.8459 11.6704 12.8586C11.7087 11.8871 12.0401 10.9499 12.621 10.1702C12.683 10.0794 12.7517 9.99336 12.8264 9.9127C12.8568 9.87798 12.8872 9.8447 12.9147 9.81142C13.6381 8.94329 14.6061 8.66838 15.0054 8.55407H15.0271C15.8379 8.3284 16.6949 8.3284 17.5057 8.55407C18.3072 8.7863 19.0353 9.22136 19.6196 9.81721C19.7227 9.93129 19.8193 10.0511 19.9089 10.176C20.2662 10.6527 20.5298 11.1927 20.6859 11.7676C20.7685 12.0566 20.8109 12.3555 20.8118 12.656ZM14.8796 11.0138C14.4817 11.3301 14.2036 11.7726 14.091 12.2682H18.4968C18.3771 11.7731 18.0961 11.3318 17.6981 11.0138C17.2942 10.6963 16.7967 10.5213 16.283 10.5161C15.7729 10.5212 15.279 10.6964 14.8796 11.0138ZM31.6461 8.37321C31.0878 8.37587 30.5363 8.49602 30.0275 8.72586C29.5187 8.9557 29.064 9.29008 28.693 9.70724V9.67541C28.6739 9.33668 28.5215 9.01929 28.2691 8.79262C28.0167 8.56595 27.6848 8.44845 27.3459 8.46581C27.0147 8.47745 26.7009 8.61737 26.4709 8.85603C26.2409 9.09469 26.1126 9.4134 26.1132 9.74486V19.3117C26.1151 19.651 26.2517 19.9758 26.4928 20.2145C26.734 20.4532 27.0601 20.5865 27.3995 20.5849H27.4082C27.7477 20.5884 28.0747 20.4571 28.3174 20.2197C28.5602 19.9824 28.6989 19.6584 28.7031 19.3189V16.3311C29.0759 16.7479 29.532 17.0819 30.0419 17.3114C30.5518 17.5409 31.1043 17.661 31.6634 17.6637C33.9785 17.6637 35.8594 15.6019 35.8594 13.0336C35.8594 10.4654 33.9626 8.37321 31.6461 8.37321ZM31.0847 15.5831C29.7695 15.5831 28.6973 14.4574 28.6973 13.0539C28.6973 11.6504 29.7593 10.5161 31.0847 10.5161C32.41 10.5161 33.4706 11.6403 33.4706 13.0539C33.4706 14.4675 32.3941 15.5831 31.0847 15.5831ZM9.73298 13.7021L9.30759 14.6194C9.11516 15.0173 8.92272 15.4253 8.74186 15.8334L8.56534 16.2168C7.75219 17.9805 6.7929 20.0756 4.7007 20.5271C3.68788 20.747 2.16286 20.4475 1.59568 19.5142C1.0285 18.581 1.86914 17.4886 2.95142 17.7331C3.12779 17.7754 3.29834 17.839 3.45927 17.9227C3.74142 18.0674 4.0279 18.2005 4.33753 18.1383C4.64717 18.076 4.81211 17.8793 5.04506 17.6101C5.29335 17.3263 5.47306 16.9892 5.57028 16.6248L5.55581 16.5901C5.55111 16.5782 5.5458 16.5667 5.5399 16.5554C5.27801 16.0735 5.04796 15.6424 4.85552 15.2821C4.74749 15.0795 4.63849 14.877 4.52852 14.6744L4.09446 13.8526C3.77035 13.2507 3.71682 13.1523 3.57502 12.8918C3.2596 12.3131 2.92875 11.7392 2.58246 11.17C2.20916 10.5522 1.82429 9.86785 2.13826 9.1444C2.25993 8.86119 2.48237 8.63322 2.76251 8.50464C3.04265 8.37607 3.36054 8.35604 3.6546 8.44845C4.3057 8.64233 4.59508 9.25003 4.8642 9.81865C4.91339 9.92138 4.96114 10.0241 5.00889 10.1211C5.44296 10.966 5.86834 11.8125 6.29373 12.6589C6.33134 12.7428 6.38777 12.8571 6.45722 12.9975C6.52667 13.1378 6.59178 13.2666 6.66702 13.4315L6.77988 13.6616C6.82329 13.7513 6.86235 13.828 6.88984 13.8887C7.08855 13.4065 7.28725 12.9242 7.48596 12.4419C7.68467 11.9596 7.88385 11.4773 8.08352 10.995C8.08352 10.9689 8.13561 10.8662 8.20796 10.7056C8.26728 10.5739 8.34396 10.4061 8.42788 10.2151L8.51325 10.0111C8.77514 9.38459 9.092 8.62931 9.79375 8.41951C10.0418 8.34859 10.3057 8.35552 10.5497 8.43935C10.7937 8.52319 11.0061 8.67989 11.1582 8.8883C11.2994 9.08947 11.377 9.32838 11.381 9.57413C11.3897 10.1037 11.1292 10.6694 10.9064 11.1556C10.8514 11.2757 10.7993 11.3885 10.7545 11.4956L10.727 11.5535C10.6648 11.6909 10.4969 12.0599 10.2076 12.6705C10.1034 12.8889 10.0035 13.1045 9.90082 13.3288L9.73298 13.7021Z" fill="black"/>
</svg>
