<svg width="162" height="54" viewBox="0 0 162 54" fill="none" xmlns="http://www.w3.org/2000/svg">
<mask id="mask0_490_925" style="mask-type:luminance" maskUnits="userSpaceOnUse" x="5" y="7" width="40" height="40">
<path d="M44.537 7.54517H5.0957V46.4546H44.537V7.54517Z" fill="white"/>
</mask>
<g mask="url(#mask0_490_925)">
<path d="M22.3788 11.1436V11.1141L5.44984 40.2545C5.21556 40.6607 5.09345 41.1205 5.09573 41.5879C5.09802 42.0554 5.22462 42.514 5.46288 42.918C5.70114 43.322 6.04275 43.6572 6.45349 43.8902C6.86422 44.1232 7.32975 44.2457 7.80358 44.2456H41.8258C42.3084 44.2466 42.7825 44.1205 43.199 43.88C43.6156 43.6396 43.9594 43.2937 44.1949 42.8781C44.4304 42.4626 44.549 41.9925 44.5384 41.5165C44.5278 41.0405 44.3884 40.576 44.1347 40.171V40.2054L27.1212 11.1043C26.8871 10.6846 26.5431 10.3346 26.1252 10.0909C25.7072 9.84712 25.2305 9.71851 24.745 9.71851C24.2594 9.71851 23.7828 9.84712 23.3649 10.0909C22.9469 10.3346 22.6029 10.6846 22.3689 11.1043" fill="white"/>
<path d="M41.2831 38.5952C41.4153 38.5953 41.5446 38.6337 41.6547 38.706C41.7649 38.7782 41.8509 38.8808 41.9022 39.001C41.9535 39.1213 41.9676 39.2538 41.9429 39.3819C41.9181 39.5101 41.8556 39.6281 41.7632 39.7214C41.6707 39.8146 41.5524 39.8789 41.4231 39.9061C41.2938 39.9333 41.1592 39.9222 41.0362 39.8744C40.9132 39.8265 40.8073 39.7438 40.7317 39.6368C40.6562 39.5298 40.6143 39.4031 40.6113 39.2727C40.6126 39.0973 40.6838 38.9295 40.8095 38.8055C40.9352 38.6815 41.1054 38.6112 41.2831 38.6099M41.2831 39.7881C41.3884 39.793 41.4927 39.7663 41.5824 39.7115C41.672 39.6569 41.7428 39.5766 41.7854 39.4815C41.828 39.3864 41.8404 39.2808 41.821 39.1786C41.8017 39.0764 41.7514 38.9823 41.6769 38.9088C41.6023 38.8352 41.507 38.7856 41.4034 38.7665C41.2998 38.7474 41.1927 38.7597 41.0963 38.8017C40.9999 38.8438 40.9186 38.9136 40.8631 39.002C40.8076 39.0904 40.7806 39.1933 40.7855 39.2972C40.7855 39.4274 40.8379 39.5523 40.9312 39.6443C41.0246 39.7364 41.1511 39.7881 41.2831 39.7881ZM41.0144 38.9045H41.2931C41.4822 38.9045 41.5916 38.9585 41.5916 39.1205C41.5939 39.1468 41.5903 39.1734 41.5811 39.1982C41.5719 39.223 41.5573 39.2456 41.5383 39.2643C41.5194 39.283 41.4965 39.2974 41.4714 39.3065C41.4462 39.3156 41.4193 39.3191 41.3926 39.3168L41.5916 39.6359H41.4274L41.2483 39.3267H41.1736V39.6359H41.0144V38.9045ZM41.303 39.2039C41.3777 39.2039 41.4324 39.2039 41.4324 39.1058C41.4324 39.0076 41.3478 39.0223 41.2831 39.0223H41.1736V39.2039H41.303Z" fill="#007853"/>
<path d="M7.36508 40.4409H8.21103L9.20627 42.9936H8.45486L8.24088 42.4487H7.29043L7.08641 42.9936H6.38477L7.36508 40.4409ZM7.78805 40.9662L7.45465 41.948H8.10155L7.78805 40.9662Z" fill="#007853"/>
<path d="M11.4605 42.0512C11.4605 42.7483 10.9978 43.0625 10.326 43.0625C9.65419 43.0625 9.19141 42.7483 9.19141 42.0512V40.4705H9.8831V41.9432C9.8831 42.277 9.97267 42.5617 10.326 42.5617C10.6793 42.5617 10.7689 42.277 10.7689 41.9432V40.4705H11.4605V42.0512Z" fill="#007853"/>
<path d="M11.8639 42.3606C12.0829 42.4753 12.3275 42.5343 12.5755 42.5324C12.7944 42.5324 13.0034 42.4882 13.0034 42.282C13.0034 41.7911 11.7793 42.1053 11.7793 41.1775C11.7793 40.5639 12.3864 40.397 12.9089 40.397C13.1347 40.3937 13.3597 40.4252 13.5757 40.4902L13.5309 41.0155C13.3486 40.9386 13.152 40.9001 12.9537 40.9026C12.7795 40.9026 12.4909 40.9026 12.4909 41.1382C12.4909 41.5506 13.715 41.2757 13.715 42.1937C13.715 42.8564 13.1527 43.0331 12.5755 43.0331C12.3145 43.0337 12.0547 42.9974 11.8042 42.9251L11.8639 42.3606Z" fill="#007853"/>
<path d="M14.5471 40.9466H13.9102V40.4409H15.8758V40.9466H15.2338L15.2388 42.9936H14.5471V40.9466Z" fill="#007853"/>
<path d="M16.0996 40.4312H17.3337C17.7915 40.4312 18.1647 40.6373 18.1647 41.0742C18.1795 41.2236 18.1364 41.373 18.0441 41.4923C17.9517 41.6116 17.817 41.692 17.6671 41.7173C17.891 41.7762 17.906 41.9677 18.0353 42.277L18.2891 42.9741H17.5676L17.4183 42.5126C17.279 42.0757 17.1894 41.9628 16.9207 41.9628H16.7764V42.9741H16.0996V40.4312ZM16.7913 41.4915H16.9704C17.1944 41.4915 17.4681 41.4915 17.4681 41.197C17.4681 40.9024 17.2242 40.9122 16.9704 40.9122H16.7913V41.4915Z" fill="#007853"/>
<path d="M19.3544 40.4412H20.1855L21.1807 42.9939H20.4343L20.2452 42.449H19.2748L19.0708 42.9939H18.3691L19.3544 40.4412ZM19.7724 40.9664L19.439 41.9483H20.0859L19.7724 40.9664Z" fill="#007853"/>
<path d="M21.4629 40.4412H22.1496V42.4883H23.2195V42.9939H21.4629V40.4412Z" fill="#007853"/>
<path d="M24.2141 40.4412H23.5273V42.9939H24.2141V40.4412Z" fill="#007853"/>
<path d="M25.4549 40.4412H26.3009L27.2961 42.9939H26.5447L26.3506 42.449H25.3554L25.1613 42.9939H24.4746L25.4549 40.4412ZM25.8779 40.9664L25.5445 41.9483H26.1914L25.8779 40.9664Z" fill="#007853"/>
<path d="M27.543 40.4412H28.4188L29.2946 42.1741H29.2996L29.2896 40.4412H29.9216V42.9939H29.0657L28.16 41.2463H28.155L28.1749 42.9939H27.543V40.4412Z" fill="#007853"/>
<path d="M31.4902 40.4412H32.58L33.1274 42.1348H33.1324L33.7096 40.4412H34.7546V42.9939H34.0779L34.0878 41.0303H34.0828L33.421 42.9939H32.789L32.157 41.0303H32.1521L32.167 42.9939H31.4902V40.4412Z" fill="#007853"/>
<path d="M35.915 40.4409H36.756L37.7512 42.9936H36.9998L36.8057 42.4487H35.8105L35.6114 42.9936H34.9297L35.915 40.4409ZM36.338 40.9662L36.0045 41.948H36.6514L36.338 40.9662Z" fill="#007853"/>
<path d="M38.0234 40.4409H38.9639C39.8646 40.4409 40.4966 40.7158 40.4966 41.7026C40.4966 42.6893 39.8447 42.9936 38.9639 42.9936H38.0234V40.4409ZM38.7151 42.488H38.9789C39.0852 42.5025 39.1934 42.4932 39.2955 42.4606C39.3976 42.428 39.4909 42.3731 39.5684 42.2999C39.646 42.2267 39.7057 42.1372 39.7433 42.0379C39.7807 41.9388 39.795 41.8325 39.785 41.7271C39.7955 41.621 39.7817 41.5139 39.7446 41.4137C39.7075 41.3135 39.6481 41.2228 39.5706 41.1484C39.4933 41.0739 39.3999 41.0176 39.2975 40.9835C39.195 40.9494 39.0862 40.9385 38.9789 40.9515H38.7151V42.488Z" fill="#007853"/>
<path d="M40.7754 40.4412H42.6017V40.9223H41.4671V41.4475H42.537V41.9335H41.4671V42.5079H42.6415V42.9939H40.7754V40.4412Z" fill="#007853"/>
<path d="M40.6912 37.0832L25.877 11.8112C25.7673 11.6136 25.6056 11.4487 25.4091 11.3339C25.2125 11.219 24.9883 11.1584 24.7599 11.1584C24.5314 11.1584 24.3072 11.219 24.1107 11.3339C23.9141 11.4487 23.7525 11.6136 23.6427 11.8112L13.2176 29.7687C16.5168 29.9503 18.1092 28.4923 19.6518 27.0736C21.0203 25.8168 22.4385 24.5159 24.7972 24.5159C27.8476 24.5159 29.4052 27.319 29.4699 27.4614C29.5212 27.5616 29.5519 27.6709 29.5604 27.7828C29.5689 27.8948 29.555 28.0074 29.5194 28.1141C29.4838 28.2207 29.4273 28.3195 29.3531 28.4045C29.2788 28.4897 29.1883 28.5595 29.0867 28.6101C28.9851 28.6607 28.8744 28.6911 28.7609 28.6995C28.6473 28.7079 28.5332 28.6941 28.4251 28.659C28.317 28.6239 28.2169 28.5681 28.1307 28.4949C28.0444 28.4217 27.9736 28.3324 27.9223 28.2321C27.8327 28.0701 26.6832 26.2685 24.7972 26.2685C23.1202 26.2685 22.1101 27.1963 20.8163 28.3647C19.1542 29.8668 16.6711 31.4181 12.5309 30.9272L8.94307 37.1225C8.83329 37.313 8.77617 37.5286 8.77736 37.7478C8.77856 37.9669 8.83802 38.1819 8.94989 38.3713C9.0617 38.5606 9.22199 38.7177 9.41466 38.8268C9.60729 38.9359 9.82565 38.9931 10.0478 38.9928H24.9764C24.8022 38.7572 22.9859 36.2536 22.9859 36.2536C22.742 35.8936 22.6177 35.4677 22.6302 35.035C22.6427 34.6022 22.7914 34.184 23.0555 33.8383L25.2252 30.4019C25.2852 30.3057 25.3641 30.2223 25.4573 30.1566C25.5504 30.0908 25.6559 30.0441 25.7676 30.019C25.9347 29.9804 26.1097 29.9917 26.2704 30.0514C26.431 30.1111 26.57 30.2166 26.6698 30.3545C26.7695 30.4923 26.8254 30.6563 26.8305 30.8256C26.8355 30.9949 26.7894 31.1618 26.6981 31.3052L24.5036 34.771C24.3494 35.0067 24.3046 35.095 24.4588 35.3405C24.8719 35.9885 26.8773 38.9241 26.9171 38.983H39.5914C39.8178 38.984 40.0403 38.9251 40.2358 38.8126C40.4314 38.7001 40.5929 38.538 40.7036 38.3432C40.8143 38.1484 40.8701 37.9279 40.8653 37.7047C40.8605 37.4813 40.7952 37.2634 40.6762 37.0734M34.7048 30.1712C34.6112 30.2847 34.4798 30.3618 34.334 30.3887C34.1883 30.4157 34.0376 30.3908 33.9086 30.3185C33.4908 30.0974 33.0243 29.9811 32.5501 29.9798C32.1385 29.9697 31.7297 30.0494 31.3529 30.2131C30.9762 30.3769 30.6408 30.6207 30.3706 30.9272L27.3848 34.6434C27.2654 34.7657 27.1038 34.8393 26.932 34.8496C26.851 34.8561 26.7697 34.8429 26.6951 34.8112C26.6205 34.7796 26.555 34.7304 26.5041 34.6679C26.4061 34.5618 26.3511 34.4237 26.3498 34.2801C26.3514 34.1626 26.384 34.0476 26.4443 33.9463C27.768 31.7372 28.4348 30.6474 28.4348 30.6425C29.5097 28.9096 30.8632 28.4579 32.0625 28.4187L31.4952 26.4108C31.4419 26.2955 31.4306 26.1656 31.4633 26.0431C31.4959 25.9205 31.5705 25.8129 31.6743 25.7383C31.7342 25.6956 31.8024 25.6657 31.8748 25.6507C31.9471 25.6357 32.0218 25.6358 32.094 25.6511C32.1663 25.6664 32.2344 25.6964 32.2941 25.7394C32.3539 25.7823 32.4038 25.8371 32.4406 25.9003L34.7795 29.4545C34.8446 29.5698 34.8729 29.7019 34.8605 29.8333C34.848 29.9648 34.7955 30.0895 34.7098 30.1908" fill="#007853"/>
<path d="M32.4259 25.9102C32.3885 25.8469 32.3382 25.792 32.278 25.749C32.2179 25.706 32.1492 25.6759 32.0766 25.6607C32.004 25.6454 31.9289 25.6453 31.8562 25.6604C31.7835 25.6755 31.7149 25.7054 31.6546 25.7482C31.5508 25.8227 31.4762 25.9304 31.4436 26.053C31.4109 26.1755 31.4222 26.3054 31.4755 26.4207L32.0427 28.4285C30.8435 28.4678 29.49 28.9195 28.4151 30.6524C28.4151 30.6524 27.7632 31.7471 26.4246 33.9562C26.3643 34.0575 26.3317 34.1725 26.3301 34.29C26.3314 34.4336 26.3864 34.5716 26.4843 34.6778C26.5352 34.7403 26.6008 34.7894 26.6754 34.8211C26.75 34.8527 26.8313 34.8659 26.9123 34.8595C27.0854 34.8503 27.248 34.7745 27.3651 34.6484L30.3508 30.9371C30.6209 30.6291 30.957 30.3844 31.3349 30.2205C31.7127 30.0566 32.1228 29.9778 32.5354 29.9896C33.0095 29.991 33.476 30.1073 33.8939 30.3284C34.0228 30.4007 34.1735 30.4256 34.3193 30.3986C34.4651 30.3716 34.5964 30.2946 34.6901 30.1811C34.7758 30.0797 34.8283 29.955 34.8408 29.8236C34.8532 29.6921 34.8249 29.56 34.7597 29.4447L32.4259 25.9102Z" fill="white"/>
<path d="M20.8315 28.3253C22.1104 27.152 23.1206 26.2291 24.8125 26.2291C26.6985 26.2291 27.848 28.0553 27.9375 28.1927C28.0411 28.3952 28.222 28.5488 28.4404 28.6196C28.6587 28.6905 28.8967 28.673 29.102 28.5707C29.3072 28.4685 29.4628 28.2901 29.5347 28.0747C29.6066 27.8593 29.5887 27.6245 29.4851 27.422C29.4204 27.2944 27.8629 24.4766 24.8125 24.4766C22.4538 24.4766 21.0356 25.7775 19.6671 27.0342C18.1096 28.4726 16.5172 29.9453 13.218 29.7686L12.5312 30.9271C16.6714 31.3837 19.1546 29.852 20.8315 28.3106" fill="white"/>
<path d="M24.5188 34.781L26.7133 31.3152C26.7735 31.2198 26.8142 31.1136 26.8328 31.0027C26.8514 30.8919 26.8477 30.7784 26.8218 30.669C26.7959 30.5595 26.7484 30.4562 26.6819 30.3649C26.6155 30.2736 26.5314 30.1962 26.4346 30.137C26.3379 30.0775 26.2303 30.0374 26.1179 30.0191C26.0055 30.0007 25.8906 30.0044 25.7796 30.0299C25.6687 30.0554 25.5639 30.1023 25.4714 30.1678C25.3788 30.2334 25.3003 30.3163 25.2403 30.4119L23.0707 33.8482C22.8065 34.1939 22.6578 34.6121 22.6454 35.0449C22.6329 35.4777 22.7572 35.9036 23.001 36.2635C23.001 36.2635 24.7974 38.7671 24.9915 39.0028H26.9521C26.9123 38.9439 24.9069 36.0082 24.4939 35.3602C24.3396 35.1148 24.3844 35.0264 24.5387 34.7908" fill="white"/>
</g>
<path d="M61.4229 33.7403C61.2681 33.7402 61.1173 33.693 60.9909 33.6051C60.8645 33.5173 60.7685 33.3931 60.7162 33.2494C59.5842 30.0538 59.2607 26.6337 59.7743 23.2867C60.2878 19.9397 61.6224 16.7671 63.6621 14.0451C63.7836 13.8991 63.9572 13.8048 64.1468 13.7815C64.3369 13.7582 64.5285 13.8078 64.6828 13.9199C64.8365 14.0321 64.941 14.1983 64.9744 14.3842C65.0072 14.5701 64.9669 14.7615 64.8614 14.9189C62.9665 17.4485 61.7269 20.3964 61.2502 23.5064C60.773 26.6163 61.073 29.794 62.1245 32.7634C62.1573 32.8546 62.1718 32.9514 62.1663 33.048C62.1613 33.1447 62.1369 33.2394 62.0942 33.3266C62.0514 33.4138 61.9916 33.4918 61.9185 33.5561C61.8453 33.6204 61.7597 33.6697 61.6667 33.7011C61.5886 33.7283 61.506 33.7416 61.4229 33.7403Z" fill="#CFD2D9"/>
<path d="M99.9483 33.7404C99.8657 33.7394 99.7831 33.7261 99.7045 33.7011C99.6114 33.6692 99.5258 33.6194 99.4522 33.5547C99.379 33.4899 99.3193 33.4115 99.2765 33.3239C99.2342 33.2362 99.2093 33.1412 99.2043 33.0442C99.1994 32.9471 99.2138 32.8501 99.2467 32.7586C100.301 29.7803 100.6 26.5925 100.117 23.474C99.6338 20.3555 98.3833 17.4013 96.4749 14.8699C96.356 14.713 96.3052 14.516 96.3341 14.3222C96.3625 14.1284 96.4674 13.9537 96.6267 13.8365C96.7859 13.7193 96.9855 13.6692 97.182 13.6973C97.3781 13.7254 97.5552 13.8293 97.6742 13.9862C99.7283 16.7124 101.075 19.8936 101.595 23.2516C102.116 26.6096 101.794 30.0422 100.66 33.2495C100.607 33.3935 100.51 33.5179 100.383 33.6057C100.255 33.6935 100.104 33.7406 99.9483 33.7404Z" fill="#CFD2D9"/>
<path d="M70.5239 12.1844C70.5069 12.1777 70.4915 12.1678 70.4791 12.1551C70.4661 12.1425 70.4562 12.1274 70.4492 12.1108L68.5533 8.55167C68.5443 8.54058 68.5384 8.52767 68.5354 8.51392C68.5324 8.50013 68.5324 8.48584 68.5359 8.47215C68.5389 8.45845 68.5453 8.44568 68.5548 8.43479C68.5637 8.42389 68.5752 8.4152 68.5881 8.40931L69.658 7.87422C69.6849 7.85709 69.7157 7.84692 69.7476 7.84476C69.7759 7.84992 69.8023 7.86361 69.8222 7.88404L71.7281 9.59731C71.753 9.59731 71.7729 9.62676 71.7878 9.59731C71.8027 9.56785 71.7878 9.57276 71.7878 9.5384L71.4146 7.08385C71.4146 6.99549 71.4146 6.93658 71.4644 6.90713L72.5741 6.33276C72.6238 6.33276 72.6686 6.33276 72.6985 6.38676L74.5944 9.94585C74.6019 9.96284 74.6058 9.98125 74.6058 9.99985C74.6058 10.0185 74.6019 10.0369 74.5944 10.0539C74.5874 10.0717 74.5765 10.0879 74.563 10.1014C74.5491 10.1149 74.5327 10.1255 74.5148 10.1324L73.848 10.4809C73.8156 10.4914 73.7808 10.4914 73.7484 10.4809C73.7201 10.4656 73.6972 10.4415 73.6837 10.4122L72.3352 7.88404C72.3352 7.88404 72.3103 7.84967 72.3004 7.85458C72.2904 7.85949 72.3004 7.87913 72.3004 7.90858L72.7582 10.9277C72.7646 10.9544 72.7617 10.9825 72.7497 11.0074C72.7383 11.0323 72.7184 11.0527 72.6935 11.0651L72.2655 11.286C72.2446 11.305 72.2168 11.3155 72.1884 11.3155C72.16 11.3155 72.1322 11.305 72.1113 11.286L69.877 9.23895C69.8521 9.2144 69.8371 9.20949 69.8272 9.2144C69.8172 9.21931 69.8272 9.23895 69.8272 9.2684L71.1558 11.7671C71.1663 11.794 71.1663 11.8237 71.1558 11.8506C71.1558 11.8506 71.131 11.8849 71.0912 11.9046L70.5637 12.1795C70.5507 12.1832 70.5373 12.1849 70.5239 12.1844Z" fill="#444C5F"/>
<path d="M75.8727 9.90186C75.6308 9.97638 75.3691 9.95709 75.1412 9.84786C75.0406 9.79352 74.9531 9.71851 74.8844 9.62788C74.8157 9.53726 74.7674 9.43314 74.7431 9.32259C74.7028 9.17016 74.7042 9.00998 74.747 8.85824C74.7898 8.7065 74.8724 8.56865 74.9869 8.45859C75.2974 8.16429 75.6851 7.96189 76.1065 7.87441L76.3056 7.81059C76.3245 7.80317 76.3419 7.79144 76.3554 7.77622C76.3603 7.76542 76.3628 7.75374 76.3628 7.74186C76.3628 7.73003 76.3603 7.7183 76.3554 7.7075L76.3205 7.59459C76.3101 7.53205 76.2857 7.47245 76.2499 7.41997C76.2135 7.36744 76.1663 7.32316 76.1115 7.29022C76.0528 7.26052 75.9886 7.2426 75.9229 7.23755C75.8572 7.23249 75.791 7.2404 75.7283 7.26077C75.6064 7.28703 75.495 7.34727 75.4064 7.43431C75.3183 7.52129 75.2576 7.63145 75.2307 7.75168C75.2302 7.76866 75.2243 7.78506 75.2133 7.79831C75.2024 7.81162 75.1879 7.82109 75.171 7.82531H75.1213H74.5241C74.5082 7.82693 74.4928 7.82281 74.4798 7.81378C74.4669 7.80475 74.4579 7.79139 74.4544 7.77622C74.4475 7.74721 74.4475 7.71687 74.4544 7.68786C74.4913 7.44888 74.6197 7.23284 74.8127 7.08404C75.0531 6.89975 75.3317 6.7706 75.6288 6.70604C75.9637 6.59082 76.329 6.59082 76.6639 6.70604C76.7898 6.76289 76.9002 6.84801 76.9863 6.95459C77.0729 7.06112 77.1326 7.18615 77.1615 7.31968L77.6591 9.28331C77.6686 9.31704 77.6686 9.35268 77.6591 9.38641C77.6377 9.40987 77.6103 9.42686 77.5795 9.4355L76.9973 9.57786C76.9838 9.58675 76.9684 9.59146 76.9525 9.59146C76.9366 9.59146 76.9211 9.58675 76.9077 9.57786C76.8749 9.54875 76.851 9.51139 76.838 9.46986L76.8032 9.35204C76.8032 9.31768 76.7684 9.30295 76.7435 9.31277C76.7141 9.32843 76.6888 9.35023 76.6688 9.37659C76.4827 9.64718 76.1971 9.83564 75.8727 9.90186ZM76.4847 8.21804C76.4847 8.21804 76.4449 8.21804 76.4101 8.21804L76.2558 8.26713C76.0543 8.32476 75.8687 8.42722 75.7134 8.56659C75.6487 8.61789 75.6 8.68603 75.5731 8.76325C75.5457 8.84051 75.5407 8.92372 75.5592 9.0035C75.5706 9.05435 75.5935 9.10197 75.6263 9.14282C75.6592 9.18361 75.7005 9.21655 75.7483 9.23913C75.8622 9.27963 75.9871 9.27963 76.1016 9.23913C76.2608 9.20099 76.4016 9.10894 76.4997 8.97895C76.5434 8.93384 76.5768 8.87949 76.5967 8.81999C76.6166 8.76055 76.6226 8.69741 76.6141 8.63531L76.5196 8.27695C76.5136 8.25457 76.5016 8.23419 76.4847 8.21804Z" fill="#444C5F"/>
<path d="M80.1887 9.08199V8.91999C80.1887 8.89053 80.1788 8.87581 80.1589 8.87581L80.1091 8.90035C80.0056 9.00987 79.8867 9.10408 79.7558 9.18017C79.5314 9.29082 79.2771 9.32857 79.0293 9.28802C78.782 9.24747 78.5536 9.13064 78.3774 8.95435C78.1142 8.63379 77.9713 8.23301 77.9743 7.82035C77.9524 7.53332 77.9952 7.24506 78.0987 6.97599C78.1848 6.74506 78.3326 6.54144 78.5267 6.3869C78.7043 6.24291 78.9243 6.15862 79.1537 6.14635C79.2935 6.1381 79.4338 6.15642 79.5667 6.20035C79.7016 6.24591 79.8265 6.31581 79.9349 6.40653C79.9514 6.42224 79.9723 6.43255 79.9947 6.43599C79.9947 6.43599 80.0345 6.40653 80.0295 6.35744L79.9548 5.04181C79.9548 4.97308 79.9797 4.93872 80.0394 4.93381L80.751 4.89453C80.7749 4.89434 80.7983 4.90312 80.8157 4.91908C80.8361 4.94053 80.8486 4.96827 80.8506 4.99763L81.0844 9.02308C81.0889 9.05617 81.08 9.08965 81.0596 9.11635C81.0307 9.141 80.9934 9.15337 80.9551 9.15072L80.3281 9.18999C80.3116 9.19465 80.2937 9.19534 80.2768 9.19205C80.2599 9.18876 80.244 9.18154 80.2305 9.17104C80.2171 9.16048 80.2061 9.14694 80.1987 9.13147C80.1917 9.11596 80.1882 9.09902 80.1887 9.08199ZM79.7757 6.75017C79.6836 6.70967 79.5831 6.69116 79.4821 6.69617C79.3816 6.69656 79.2831 6.72248 79.196 6.77152C79.1089 6.82057 79.0357 6.89101 78.9845 6.97599C78.8616 7.21698 78.8143 7.48894 78.8501 7.75653C78.8452 8.02594 78.9218 8.29069 79.0691 8.51744C79.1263 8.5927 79.202 8.65215 79.289 8.69C79.3761 8.72785 79.4722 8.74282 79.5667 8.73344C79.715 8.72726 79.8553 8.66584 79.9598 8.56162C80.0086 8.51445 80.0469 8.45785 80.0728 8.3953C80.0987 8.33281 80.1111 8.26575 80.1091 8.19835L80.0345 6.94653C79.9593 6.86804 79.8717 6.80176 79.7757 6.75017Z" fill="#444C5F"/>
<path d="M82.7054 8.56647C82.8308 8.71458 83.009 8.80952 83.2031 8.83156C83.3364 8.85243 83.4733 8.8406 83.6012 8.7972C83.746 8.73917 83.8793 8.65606 83.9943 8.55175C84.0102 8.54571 84.0281 8.54571 84.044 8.55175L84.0988 8.57629L84.4919 8.80211C84.5033 8.80815 84.5123 8.81762 84.5178 8.82916C84.5227 8.84065 84.5242 8.85351 84.5218 8.86593C84.5213 8.87658 84.5183 8.88704 84.5133 8.89641C84.5083 8.90579 84.5008 8.91384 84.4919 8.91993C84.3118 9.1268 84.0828 9.28693 83.8251 9.38629C83.5623 9.4639 83.2847 9.48069 83.014 9.43538C82.7333 9.40372 82.4656 9.30053 82.2377 9.13593C82.0157 8.98227 81.8436 8.76937 81.7401 8.52229C81.6351 8.26393 81.6022 7.98244 81.6455 7.70738C81.6813 7.41308 81.7928 7.13263 81.969 6.89247C82.1342 6.67485 82.3561 6.50524 82.6109 6.40156C82.8662 6.30535 83.1418 6.27339 83.4131 6.30854C83.6843 6.34369 83.942 6.44481 84.1635 6.60284C84.3755 6.75924 84.5347 6.9747 84.6213 7.22138C84.7183 7.5039 84.7442 7.80556 84.6959 8.10011C84.6924 8.13599 84.6825 8.17095 84.6661 8.2032C84.6661 8.2032 84.6263 8.22775 84.5765 8.2032L82.6159 7.94302C82.5711 7.94302 82.5412 7.96756 82.5363 8.02647C82.5238 8.12318 82.5323 8.22141 82.5616 8.31454C82.5905 8.40771 82.6398 8.49362 82.7054 8.56647ZM83.7952 7.58466C83.8231 7.59241 83.852 7.59241 83.8798 7.58466C83.8798 7.58466 83.8798 7.5552 83.9047 7.52084C83.9186 7.41878 83.9102 7.315 83.8798 7.21647C83.8475 7.11245 83.7893 7.01795 83.7106 6.94156C83.624 6.86317 83.5141 6.81491 83.3971 6.80411C83.3091 6.78982 83.219 6.79473 83.1329 6.81849C83.0468 6.8422 82.9672 6.88423 82.8995 6.94156C82.8264 7.00254 82.7666 7.07745 82.7239 7.16184C82.6811 7.24622 82.6562 7.33827 82.6507 7.43247L83.7952 7.58466Z" fill="#444C5F"/>
<path d="M87.4728 10.4223C87.4668 10.4404 87.4569 10.4571 87.4439 10.4715C87.4315 10.4858 87.4156 10.4975 87.3982 10.5057C87.3579 10.5192 87.3141 10.5192 87.2738 10.5057L86.7065 10.2848C86.6721 10.2728 86.6428 10.2504 86.6219 10.221C86.6104 10.1909 86.6104 10.1578 86.6219 10.1277L87.6669 7.50625C87.6967 7.44243 87.7415 7.41789 87.8012 7.44243L88.4631 7.70262C88.5163 7.72225 88.5312 7.76153 88.5078 7.82043L87.4728 10.4223ZM88.7567 7.24607C88.7502 7.26527 88.7397 7.28289 88.7258 7.29762C88.7119 7.31239 88.6949 7.32393 88.676 7.33144C88.6566 7.3389 88.6362 7.34219 88.6158 7.34101C88.5954 7.33983 88.5755 7.33424 88.5576 7.32462L87.9704 7.09389C87.953 7.08976 87.9371 7.08186 87.9231 7.07082C87.9097 7.05982 87.8983 7.04588 87.8908 7.03007C87.8838 7.01377 87.8803 6.99625 87.8803 6.97853C87.8803 6.9608 87.8838 6.94328 87.8908 6.92698L88.1147 6.36243C88.1446 6.29371 88.1894 6.26916 88.2491 6.29371L88.9209 6.55389C88.9328 6.55826 88.9438 6.56543 88.9527 6.57485C88.9612 6.58423 88.9671 6.59557 88.9706 6.60789C88.9766 6.62104 88.9796 6.63523 88.9796 6.64962C88.9796 6.664 88.9766 6.67819 88.9706 6.69134L88.7567 7.24607Z" fill="#444C5F"/>
<path d="M88.1504 10.8197C88.14 10.7894 88.14 10.7567 88.1504 10.7264L89.5885 8.27189C89.6283 8.20808 89.6731 8.19335 89.7279 8.2228L90.335 8.57135C90.3459 8.57719 90.3559 8.58544 90.3633 8.59545C90.3708 8.60547 90.3758 8.61705 90.3783 8.62928C90.3807 8.64155 90.3802 8.65416 90.3773 8.66619C90.3738 8.67827 90.3678 8.68946 90.3598 8.69898L90.2155 8.94444C90.2155 8.94444 90.2155 8.98862 90.2155 8.99844H90.2603C90.4524 8.95141 90.65 8.93158 90.8475 8.93953C91.0232 8.94851 91.1939 8.99903 91.3451 9.0868C91.4566 9.13962 91.5556 9.21572 91.6343 9.30987C91.7134 9.40398 91.7706 9.51384 91.8024 9.63191C91.8338 9.75002 91.8393 9.87343 91.8179 9.99376C91.7965 10.1141 91.7492 10.2284 91.6785 10.3288L90.6385 12.101C90.632 12.1187 90.6211 12.1346 90.6067 12.1473C90.5927 12.16 90.5753 12.1692 90.5569 12.174C90.5385 12.1788 90.5191 12.1792 90.5002 12.175C90.4813 12.1708 90.4638 12.1623 90.4494 12.1501L89.8921 11.831C89.8777 11.8253 89.8642 11.8167 89.8528 11.8058C89.8418 11.7948 89.8334 11.7816 89.8274 11.7672C89.8254 11.7357 89.8339 11.7046 89.8523 11.6788L90.8475 9.99989C90.8813 9.95439 90.9042 9.90191 90.9142 9.84644C90.9246 9.79091 90.9222 9.73387 90.9067 9.67953C90.8913 9.62518 90.8639 9.57496 90.8261 9.5327C90.7883 9.49038 90.741 9.4571 90.6883 9.43535C90.5912 9.37639 90.4788 9.34733 90.3648 9.35189C90.224 9.35626 90.0852 9.38105 89.9518 9.42553L88.9566 11.1339C88.9486 11.151 88.9371 11.166 88.9222 11.1779C88.9078 11.1899 88.8904 11.1983 88.872 11.2026C88.8317 11.2051 88.7913 11.1948 88.7575 11.1732L88.2201 10.8639C88.1927 10.8568 88.1683 10.8413 88.1504 10.8197Z" fill="#444C5F"/>
<path d="M69.4143 40.6671C69.3994 40.6807 69.3825 40.6923 69.3646 40.7015L65.6424 42.562C65.6056 42.576 65.5647 42.576 65.5279 42.562C65.4906 42.5535 65.4573 42.5328 65.4334 42.5031L65.0004 42.0515C64.9696 42.0265 64.9492 41.9913 64.9427 41.9524C64.9363 41.9135 64.9442 41.8737 64.9656 41.8404L66.3042 39.5969C66.3042 39.5675 66.3341 39.5479 66.3042 39.538C66.2744 39.5282 66.2744 39.538 66.2296 39.538L63.9057 40.7653C63.8704 40.779 63.8315 40.779 63.7962 40.7653C63.7569 40.7558 63.7216 40.7333 63.6967 40.7015L63.2538 40.24C63.223 40.213 63.2021 40.1768 63.1941 40.1369C63.1906 40.0992 63.1996 40.0615 63.219 40.0289L65.309 36.4649C65.3194 36.4479 65.3329 36.4329 65.3488 36.4208C65.4085 36.3668 65.4682 36.3717 65.5379 36.4208L66.0355 36.9411C66.0654 36.964 66.0853 36.9974 66.0902 37.0344C66.0957 37.0476 66.0987 37.0618 66.0987 37.0761C66.0987 37.0905 66.0957 37.1046 66.0902 37.1179L64.687 39.4448C64.6621 39.484 64.6521 39.5086 64.6621 39.5184C64.672 39.5282 64.6869 39.5184 64.7218 39.5184L67.1701 38.2568C67.2248 38.2175 67.2845 38.2568 67.3442 38.296L67.7722 38.7428C67.7996 38.7686 67.82 38.8006 67.8319 38.836C67.8399 38.865 67.8399 38.8954 67.8319 38.9244L66.4087 41.2857C66.4087 41.2857 66.4087 41.3299 66.4087 41.3397C66.4087 41.3495 66.4087 41.3397 66.4535 41.3397L68.9167 40.0535C68.9764 40.0207 69.0361 40.0355 69.0959 40.0977L69.4541 40.4708C69.4676 40.485 69.478 40.5023 69.4835 40.5211C69.489 40.54 69.4895 40.5599 69.4855 40.5791C69.482 40.5983 69.4731 40.6164 69.4611 40.6317C69.4487 40.647 69.4327 40.6591 69.4143 40.6671Z" fill="#444C5F"/>
<path d="M67.5445 43.9904C67.4265 43.7511 67.3768 43.4847 67.4002 43.2197C67.43 42.9393 67.531 42.6708 67.6938 42.4391C67.853 42.1961 68.0724 41.9968 68.3307 41.8598C68.5721 41.7386 68.8418 41.6842 69.112 41.7028C69.3931 41.7252 69.6628 41.8219 69.8932 41.9826C70.1331 42.1339 70.3272 42.3458 70.4555 42.5962C70.573 42.8355 70.6212 43.1023 70.5949 43.3669C70.562 43.6512 70.4575 43.9228 70.2913 44.1573C70.1386 44.3937 69.9261 44.5866 69.6743 44.7169C69.4354 44.8395 69.1667 44.8939 68.898 44.874C68.6163 44.8424 68.3466 44.7447 68.1113 44.5893C67.8759 44.4339 67.6813 44.2252 67.5445 43.9806V43.9904ZM68.9876 44.1818C69.22 44.0624 69.4135 43.8802 69.5449 43.6566C69.7071 43.4489 69.8071 43.2007 69.8335 42.9398C69.839 42.8427 69.8176 42.7459 69.7718 42.6596C69.7265 42.5732 69.6584 42.5005 69.5748 42.4489C69.4951 42.394 69.4026 42.3602 69.3055 42.3508C69.209 42.3413 69.1115 42.3565 69.0224 42.3949C68.787 42.5145 68.592 42.6986 68.4601 42.9251C68.2999 43.1292 68.2033 43.3747 68.1814 43.632C68.1834 43.7261 68.2083 43.8184 68.2536 43.9012C68.2994 43.9839 68.364 44.0547 68.4432 44.1076C68.5218 44.1605 68.6124 44.1939 68.7074 44.2051C68.802 44.2164 68.898 44.205 68.9876 44.172V44.1818Z" fill="#444C5F"/>
<path d="M70.2891 45.7038L71.5033 43.1609C71.5382 43.0971 71.578 43.0775 71.6377 43.102L72.2498 43.3917C72.2627 43.3955 72.2741 43.4023 72.2836 43.4114C72.2935 43.4205 72.3005 43.4318 72.305 43.4442C72.3095 43.4567 72.311 43.47 72.309 43.483C72.307 43.4961 72.302 43.5085 72.2945 43.5193L72.1502 43.8237C72.1468 43.8287 72.1448 43.8347 72.1448 43.8408C72.1448 43.847 72.1468 43.853 72.1502 43.858C72.1677 43.8648 72.1876 43.8648 72.205 43.858C72.3707 43.7715 72.5513 43.7166 72.7374 43.696C72.8987 43.676 73.0619 43.6998 73.2102 43.7648C73.3346 43.8237 73.3843 43.8826 73.3545 43.9366L73.0708 44.5404C73.0659 44.5507 73.0589 44.5599 73.0504 44.5675C73.042 44.5751 73.032 44.5809 73.0211 44.5846C73.0211 44.5846 72.9813 44.5846 72.9564 44.5846C72.8499 44.4997 72.733 44.4288 72.608 44.3735C72.5175 44.3282 72.416 44.3079 72.3144 44.3146C72.2099 44.3148 72.1065 44.3365 72.0109 44.3784C71.9283 44.413 71.8611 44.4757 71.8218 44.5551L71.0953 46.0671C71.0604 46.1457 70.9958 46.1653 70.9062 46.1211L70.3389 45.8609C70.3235 45.8556 70.31 45.8468 70.2986 45.8353C70.2876 45.8238 70.2792 45.8098 70.2742 45.7946C70.2697 45.7794 70.2682 45.7632 70.2707 45.7475C70.2737 45.7318 70.2797 45.7168 70.2891 45.7038Z" fill="#444C5F"/>
<path d="M75.8319 47.7704C75.8299 47.7811 75.8249 47.7912 75.818 47.7997C75.811 47.8083 75.802 47.815 75.7921 47.8195C75.7667 47.8294 75.7379 47.8294 75.7125 47.8195L74.981 47.6084C74.9486 47.5947 74.9203 47.5722 74.9004 47.5436C74.88 47.5149 74.8685 47.4813 74.8665 47.4464L74.6326 46.1651C74.6326 46.1259 74.6326 46.1062 74.5978 46.0964H74.5431L74.0455 46.3664C74.0216 46.3785 74.0012 46.3959 73.9857 46.4172C73.9703 46.4385 73.9599 46.4632 73.9559 46.4891L73.7718 47.1028C73.7683 47.122 73.7608 47.1402 73.7494 47.1563C73.7384 47.1723 73.724 47.1859 73.7071 47.196C73.6683 47.2081 73.6265 47.2081 73.5876 47.196L72.9955 47.0242C72.9611 47.0152 72.9298 46.9964 72.9059 46.9702C72.8959 46.9382 72.8959 46.9041 72.9059 46.8721L74.0654 43.0184C74.0654 42.9497 74.13 42.9251 74.1898 42.9448L74.8715 43.146C74.9312 43.146 74.9461 43.2 74.9262 43.2688L74.2146 45.5122C74.2146 45.5417 74.2146 45.5564 74.2146 45.5613C74.2146 45.5662 74.2445 45.5613 74.2694 45.5613L75.7075 44.7366C75.7588 44.7031 75.8205 44.6892 75.8817 44.6973L76.4788 44.8741C76.5435 44.8741 76.5684 44.9231 76.5584 44.9624C76.545 44.9905 76.5221 45.0131 76.4937 45.0262L75.4985 45.5761C75.4856 45.5826 75.4741 45.5916 75.4647 45.6025C75.4552 45.6135 75.4482 45.6262 75.4438 45.6399C75.4363 45.6688 75.4363 45.6993 75.4438 45.7282L75.8817 47.7213C75.8722 47.7434 75.8543 47.761 75.8319 47.7704Z" fill="#444C5F"/>
<path d="M77.4703 47.9471C77.4703 47.9962 77.4703 48.0305 77.4156 48.0452C77.3957 48.0535 77.3748 48.0577 77.3534 48.0577C77.332 48.0577 77.3111 48.0535 77.2912 48.0452L76.6891 47.9471C76.6537 47.9425 76.6204 47.9271 76.5945 47.9029C76.5831 47.8728 76.5831 47.8397 76.5945 47.8096L77.0523 45.0409C77.0523 44.9672 77.1021 44.9378 77.1668 44.9476L77.8684 45.0605C77.9281 45.0605 77.948 45.1047 77.9381 45.1685L77.4703 47.9471ZM78.0326 44.5892C78.0316 44.6092 78.0257 44.6287 78.0157 44.646C78.0058 44.6634 77.9913 44.6781 77.9744 44.6891C77.9575 44.7001 77.9381 44.707 77.9182 44.7093C77.8978 44.7116 77.8774 44.7091 77.8585 44.7022L77.2365 44.604C77.2001 44.6019 77.1663 44.5861 77.1419 44.5598C77.128 44.5251 77.128 44.4865 77.1419 44.4518L77.2365 43.8627C77.2365 43.7842 77.2912 43.7547 77.3559 43.7645L78.0675 43.8774C78.0919 43.8827 78.1128 43.8967 78.1272 43.9167C78.1381 43.9435 78.1381 43.9733 78.1272 44.0002L78.0326 44.5892Z" fill="#444C5F"/>
<path d="M78.4274 48.2123C78.41 48.1862 78.401 48.1552 78.4025 48.1239L78.507 45.311C78.507 45.2423 78.5418 45.203 78.6065 45.2079H79.3082C79.3679 45.2079 79.3928 45.2423 79.3928 45.311V45.5908C79.3928 45.6203 79.3928 45.635 79.4176 45.635C79.4321 45.6399 79.448 45.6399 79.4624 45.635C79.6117 45.5042 79.7794 45.3951 79.96 45.311C80.1158 45.2396 80.286 45.2059 80.4577 45.2128C80.5811 45.2102 80.7035 45.2329 80.8174 45.2793C80.9314 45.3258 81.0339 45.3951 81.1195 45.4828C81.2011 45.5732 81.2628 45.6791 81.3011 45.7939C81.3399 45.9087 81.3539 46.03 81.3434 46.1505L81.2688 48.1976C81.2698 48.2161 81.2663 48.2345 81.2593 48.2516C81.2524 48.2687 81.2414 48.2842 81.2275 48.2968C81.2141 48.3093 81.1976 48.3189 81.1797 48.3246C81.1618 48.3304 81.1429 48.3323 81.1245 48.3301H80.4776C80.4612 48.3321 80.4447 48.3305 80.4293 48.3254C80.4139 48.3203 80.3999 48.3118 80.388 48.3007C80.379 48.2719 80.379 48.2411 80.388 48.2123L80.4626 46.2781C80.4676 46.2234 80.4617 46.1682 80.4442 46.1159C80.4273 46.0636 80.3995 46.0152 80.3631 45.9737C80.3213 45.9345 80.2721 45.9039 80.2183 45.8837C80.1646 45.8634 80.1073 45.854 80.0496 45.8559C79.9372 45.8503 79.8252 45.8759 79.7262 45.9296C79.6043 45.9999 79.4938 46.0875 79.3977 46.1897L79.3231 48.1534C79.3251 48.1713 79.3231 48.1895 79.3171 48.2064C79.3112 48.2235 79.3012 48.2389 79.2883 48.2516C79.2499 48.2663 79.2072 48.2663 79.1688 48.2516H78.5468C78.5035 48.2523 78.4612 48.2385 78.4274 48.2123Z" fill="#444C5F"/>
<path d="M85.0885 44.8349L85.1432 45.2178C85.1432 45.3258 85.1432 45.3749 85.0337 45.3699C84.9775 45.3624 84.9208 45.3624 84.8645 45.3699H84.76C84.6605 45.3994 84.6306 45.4485 84.6655 45.5172C84.7063 45.5943 84.7346 45.6771 84.7501 45.7627C84.775 45.9315 84.7431 46.1038 84.6605 46.2536C84.561 46.4233 84.4142 46.5613 84.2375 46.6512C84.0081 46.7755 83.7563 46.8539 83.4961 46.8819C83.3358 46.9024 83.1786 46.9419 83.0283 46.9998C82.9338 47.0489 82.889 47.1029 82.894 47.1569C82.8974 47.1812 82.9089 47.2038 82.9273 47.2208C82.9452 47.2378 82.9686 47.2481 82.9935 47.2501C83.0875 47.2635 83.1831 47.2635 83.2771 47.2501L84.1081 47.1814C84.4112 47.1368 84.7212 47.1812 84.9989 47.309C85.0974 47.3637 85.1815 47.4408 85.2437 47.5339C85.3059 47.6269 85.3447 47.7333 85.3572 47.8441C85.3786 47.9887 85.3602 48.1364 85.3029 48.2713C85.2462 48.4062 85.1531 48.5233 85.0337 48.6099C84.6919 48.8616 84.2848 49.013 83.8593 49.0469C82.7447 49.2039 82.1475 49.0469 82.0779 48.5559C82.0694 48.4973 82.0734 48.4374 82.0908 48.3806C82.1082 48.3238 82.1376 48.2714 82.1774 48.227C82.2844 48.1112 82.4128 48.0163 82.5556 47.9472C82.563 47.9443 82.5695 47.9396 82.575 47.9336C82.58 47.9276 82.5834 47.9205 82.5854 47.9129C82.5854 47.9129 82.5854 47.9129 82.5456 47.8834C82.3068 47.8098 82.1774 47.687 82.1525 47.5103C82.1465 47.4547 82.153 47.3985 82.1719 47.3459C82.1913 47.2931 82.2217 47.2454 82.262 47.2059C82.3685 47.0888 82.4949 46.9907 82.6352 46.9163C82.68 46.8869 82.68 46.8672 82.6352 46.8476C82.4645 46.8149 82.3083 46.7308 82.1878 46.6068C82.0674 46.4829 81.9893 46.3252 81.9634 46.1554C81.941 46.0194 81.9554 45.8799 82.0042 45.7509C82.053 45.6218 82.1351 45.5074 82.2421 45.419C82.5411 45.1833 82.9054 45.0413 83.2871 45.0116C83.612 44.946 83.9499 44.9892 84.2475 45.1343C84.2599 45.1397 84.2734 45.1425 84.2873 45.1425C84.3012 45.1425 84.3147 45.1397 84.3271 45.1343C84.3425 45.1318 84.357 45.1261 84.3699 45.1177C84.3828 45.1092 84.3933 45.0981 84.4017 45.0852C84.4684 44.9802 84.5545 44.8886 84.6555 44.8152C84.7401 44.7422 84.8436 44.693 84.9541 44.6729C85.0337 44.6925 85.0785 44.7514 85.0885 44.8349ZM83.8494 46.3076C83.8917 46.2567 83.9225 46.1976 83.9395 46.1341C83.9569 46.0706 83.9599 46.0042 83.9489 45.9394C83.9429 45.8687 83.922 45.8 83.8867 45.7381C83.8514 45.6763 83.8031 45.6227 83.7449 45.581C83.608 45.4977 83.4433 45.4712 83.2871 45.5074C83.1273 45.5206 82.9781 45.5924 82.8691 45.7087C82.8238 45.7636 82.7904 45.8275 82.7725 45.8962C82.7546 45.9648 82.7516 46.0365 82.7646 46.1063C82.7715 46.1725 82.7944 46.2363 82.8308 46.2925C82.8666 46.3487 82.9159 46.3958 82.9736 46.4303C83.1109 46.5073 83.2711 46.5334 83.4264 46.5039C83.5896 46.4894 83.7409 46.4139 83.8494 46.2929V46.3076ZM83.2124 48.0061C83.098 48.0123 82.9885 48.0574 82.9039 48.1338C82.8651 48.1636 82.8347 48.2027 82.8153 48.2474C82.7964 48.292 82.789 48.3408 82.7944 48.389C82.8059 48.4597 82.8392 48.5252 82.89 48.5762C82.9407 48.6272 83.0064 48.6613 83.0781 48.6738C83.3358 48.7247 83.6016 48.7247 83.8593 48.6738C84.0639 48.6564 84.2614 48.5925 84.4366 48.4872C84.4943 48.4552 84.5411 48.4066 84.5704 48.3479C84.5998 48.2892 84.6102 48.2231 84.6008 48.1583C84.5963 48.1166 84.5804 48.0769 84.555 48.0432C84.5296 48.0096 84.4958 47.9832 84.4565 47.9669C84.3455 47.919 84.2226 47.9037 84.1032 47.9227L83.2124 48.0061Z" fill="#444C5F"/>
<path d="M87.4791 42.7534C88.0439 42.484 88.6908 42.4349 89.2904 42.616C89.5507 42.7256 89.7851 42.8868 89.9791 43.0894C90.1737 43.2921 90.3235 43.532 90.42 43.7942C90.5509 44.0521 90.6265 44.3339 90.642 44.6219C90.6574 44.91 90.6121 45.1981 90.5096 45.4682C90.3728 45.745 90.1822 45.9925 89.9483 46.1964C89.7139 46.4003 89.4417 46.5565 89.1461 46.6562L87.9867 47.1471C87.9697 47.1553 87.9508 47.1596 87.9319 47.1596C87.913 47.1596 87.8941 47.1553 87.8772 47.1471C87.8443 47.1286 87.8195 47.0989 87.8075 47.0636L86.2102 43.3916C86.2032 43.377 86.1992 43.3611 86.1992 43.345C86.1992 43.3288 86.2032 43.3129 86.2102 43.2983C86.2281 43.2694 86.2564 43.2483 86.2898 43.2394L87.4791 42.7534ZM87.4194 43.6322L88.4893 46.0867C88.4957 46.1087 88.5097 46.1278 88.5291 46.1407C88.5385 46.1451 88.5485 46.1473 88.5589 46.1473C88.5694 46.1473 88.5793 46.1451 88.5888 46.1407L88.6933 46.0965C88.8903 46.0502 89.0735 45.9573 89.2257 45.8258C89.3785 45.6943 89.4964 45.528 89.5696 45.3415C89.6422 45.155 89.6681 44.9537 89.6447 44.7552C89.6213 44.5566 89.5492 44.3666 89.4347 44.2016C89.3208 43.8507 89.0774 43.5546 88.753 43.372C88.4291 43.2557 88.0713 43.2698 87.7578 43.4112L87.4244 43.5389C87.4044 43.5536 87.3995 43.5831 87.4194 43.6322Z" fill="#444C5F"/>
<path d="M92.8685 44.8104C92.666 44.9606 92.4137 45.029 92.1619 45.0018C92.0484 44.9868 91.9395 44.9474 91.8434 44.8863C91.7469 44.8252 91.6658 44.744 91.6046 44.6484C91.516 44.5189 91.4632 44.3689 91.4508 44.2132C91.4388 44.0574 91.4677 43.9013 91.5349 43.7598C91.722 43.3738 92.0151 43.0472 92.3808 42.8173L92.5401 42.6897C92.56 42.6775 92.5744 42.6581 92.5799 42.6357C92.5854 42.6259 92.5884 42.6149 92.5884 42.6038C92.5884 42.5926 92.5854 42.5816 92.5799 42.5718L92.5102 42.4737C92.4774 42.4193 92.4336 42.3724 92.3813 42.336C92.3291 42.2996 92.2694 42.2746 92.2067 42.2626C92.1405 42.2543 92.0738 42.2591 92.0096 42.2768C91.9454 42.2945 91.8857 42.3247 91.8335 42.3657C91.729 42.4303 91.6454 42.5226 91.5916 42.632C91.5379 42.7414 91.5165 42.8634 91.5299 42.9842C91.5364 43.0008 91.5369 43.0191 91.5314 43.036C91.5259 43.0529 91.515 43.0676 91.5001 43.0775L91.4553 43.102L90.8979 43.3131C90.8865 43.3219 90.8726 43.3266 90.8581 43.3266C90.8437 43.3266 90.8298 43.3219 90.8183 43.3131C90.8059 43.2862 90.7959 43.2583 90.7885 43.2297C90.7397 42.9911 90.786 42.7433 90.9178 42.5375C91.0826 42.2859 91.3 42.0717 91.5548 41.9091C91.8374 41.6853 92.1878 41.5609 92.55 41.5557C92.6844 41.5701 92.8133 41.6149 92.9272 41.6863C93.0412 41.7579 93.1367 41.8542 93.2069 41.968L94.3564 43.6322C94.3793 43.6579 94.3917 43.6912 94.3912 43.7255C94.3912 43.75 94.3912 43.7697 94.3365 43.7942L93.8389 44.128C93.8249 44.1373 93.8085 44.1423 93.7916 44.1423C93.7747 44.1423 93.7583 44.1373 93.7443 44.128C93.705 44.1101 93.6712 44.0832 93.6448 44.0495L93.5652 43.9513C93.5652 43.9218 93.5204 43.9169 93.5005 43.9513C93.4771 43.9764 93.4602 44.0067 93.4507 44.0397C93.3656 44.3616 93.1571 44.6381 92.8685 44.8104ZM92.8685 43.0235C92.8576 43.0183 92.8456 43.0156 92.8337 43.0156C92.8217 43.0156 92.8098 43.0183 92.7988 43.0235L92.6695 43.1217C92.5023 43.2444 92.3649 43.402 92.2664 43.5831C92.2161 43.6553 92.1888 43.7409 92.1888 43.8286C92.1888 43.9162 92.2161 44.0019 92.2664 44.074C92.2948 44.1178 92.3326 44.1547 92.3774 44.1819C92.4221 44.2091 92.4729 44.2259 92.5251 44.2311C92.6461 44.2363 92.7645 44.1979 92.8586 44.1231C92.9979 44.0358 93.1004 43.9015 93.1472 43.7451C93.175 43.6894 93.19 43.6281 93.19 43.5659C93.19 43.5037 93.175 43.4424 93.1472 43.3868L92.9332 43.0775C92.9332 43.0775 92.8785 43.0284 92.8586 43.0235H92.8685Z" fill="#444C5F"/>
<path d="M95.848 43.7106C95.8325 43.7247 95.8121 43.7326 95.7907 43.7326C95.7693 43.7326 95.7489 43.7247 95.7335 43.7106L95.425 43.3915C95.3802 43.3473 95.4001 43.2884 95.4797 43.2099L95.7684 42.9399C95.8097 42.9017 95.8425 42.8552 95.8639 42.8036C95.8853 42.7519 95.8952 42.6962 95.8928 42.6404C95.8972 42.5891 95.8913 42.5375 95.8748 42.4885C95.8584 42.4396 95.8325 42.3944 95.7982 42.3557C95.7748 42.3334 95.748 42.3151 95.7186 42.3017L93.0165 41.1088C93.0036 41.1113 92.9896 41.1113 92.9767 41.1088C92.9712 41.0981 92.9688 41.0864 92.9688 41.0744C92.9688 41.0625 92.9712 41.0508 92.9767 41.0401C92.9767 41.0267 92.9797 41.0135 92.9857 41.0015C92.9916 40.9895 93.0006 40.9792 93.0115 40.9713L93.544 40.4804C93.5639 40.4606 93.5903 40.4484 93.6186 40.4461C93.646 40.4367 93.6759 40.4367 93.7032 40.4461L95.3404 41.2561C95.3752 41.2561 95.4001 41.2561 95.415 41.2561C95.43 41.2561 95.415 41.2168 95.415 41.1726L94.6835 39.5035C94.6716 39.4783 94.6681 39.45 94.6736 39.4227C94.6791 39.3954 94.693 39.3704 94.7134 39.3513L95.0767 39.0077C95.0936 38.9918 95.1155 38.9829 95.1389 38.9829C95.1623 38.9829 95.1841 38.9918 95.2011 39.0077V39.047L96.3705 41.9581C96.4665 42.1691 96.5237 42.3951 96.5397 42.6257C96.5521 42.7963 96.5143 42.9669 96.4302 43.1166C96.3277 43.2993 96.1968 43.465 96.042 43.6075C95.9808 43.6476 95.9156 43.6821 95.848 43.7106Z" fill="#444C5F"/>
<path d="M96.4743 37.9868C96.3907 38.0825 96.3369 38.2002 96.32 38.3255C96.3096 38.3718 96.3131 38.4201 96.33 38.4645C96.3464 38.5089 96.3758 38.5476 96.4146 38.5759C96.4365 38.5917 96.4613 38.6029 96.4882 38.6088C96.5146 38.6147 96.542 38.6152 96.5688 38.6102C96.6624 38.5865 96.748 38.5391 96.8176 38.4728L97.3501 38.0408C97.5407 37.8675 97.78 37.7561 98.0368 37.7217C98.2453 37.6999 98.4548 37.7599 98.619 37.8886C98.735 37.9715 98.828 38.082 98.8887 38.2099C98.9499 38.3379 98.9768 38.479 98.9674 38.62C98.9375 38.9696 98.8007 39.3018 98.5742 39.5724C98.3991 39.8126 98.1712 40.0106 97.9074 40.1517C97.7009 40.2677 97.4616 40.3143 97.2257 40.2842C97.2013 40.2925 97.1754 40.2925 97.151 40.2842C97.1401 40.278 97.1316 40.2683 97.1272 40.2567C97.1227 40.2451 97.1222 40.2322 97.1262 40.2204L97.2058 39.7884C97.2088 39.7601 97.2192 39.7331 97.2356 39.7099C97.2506 39.6914 97.272 39.6791 97.2954 39.6755C97.4516 39.6857 97.6074 39.6547 97.7477 39.5857C97.8875 39.5166 98.006 39.4121 98.0915 39.2828C98.1886 39.1669 98.2582 39.031 98.2956 38.8851C98.3115 38.8355 98.312 38.7823 98.2971 38.7324C98.2816 38.6825 98.2518 38.6383 98.211 38.6053C98.1831 38.586 98.1513 38.5729 98.1179 38.567C98.0841 38.561 98.0497 38.5624 98.0169 38.571C97.9164 38.6074 97.8233 38.6624 97.7432 38.733L97.2804 39.1306C96.8226 39.5184 96.4096 39.5773 96.0463 39.3024C95.8965 39.1965 95.7861 39.0446 95.7328 38.8704C95.6776 38.6845 95.6776 38.4869 95.7328 38.301C95.796 38.0734 95.906 37.8612 96.0563 37.6775C96.2081 37.4722 96.4056 37.3042 96.6335 37.1866C96.8161 37.0827 97.0251 37.0332 97.2356 37.0442C97.266 37.0424 97.2958 37.0511 97.3202 37.0688C97.3262 37.0783 97.3297 37.0894 97.3297 37.1007C97.3297 37.112 97.3262 37.1231 97.3202 37.1326L97.2307 37.5842C97.2366 37.5984 97.2366 37.6142 97.2307 37.6284C97.2207 37.6424 97.2073 37.6534 97.1914 37.6604C97.1754 37.6673 97.158 37.6698 97.1411 37.6677C97.0122 37.6644 96.8843 37.6916 96.7684 37.7472C96.6524 37.8027 96.5514 37.8849 96.4743 37.9868Z" fill="#444C5F"/>
<path d="M88.7766 18.3946H85.9253V17.4913C85.9114 17.3349 85.8382 17.1893 85.7208 17.0833C85.6033 16.9773 85.4501 16.9185 85.2908 16.9185C85.1316 16.9185 84.9783 16.9773 84.8609 17.0833C84.7434 17.1893 84.6703 17.3349 84.6564 17.4913V18.3946H76.6248V17.4913C76.6109 17.3349 76.5377 17.1893 76.4203 17.0833C76.3028 16.9773 76.1496 16.9185 75.9903 16.9185C75.8311 16.9185 75.6778 16.9773 75.5604 17.0833C75.4429 17.1893 75.3698 17.3349 75.3559 17.4913V18.3946H72.5045C72.0268 18.3946 71.5685 18.5819 71.2306 18.9151C70.8927 19.2484 70.7031 19.7004 70.7031 20.1717V33.9172C70.7031 34.3885 70.8927 34.8405 71.2306 35.1737C71.5685 35.507 72.0268 35.6943 72.5045 35.6943H88.7766C89.2544 35.6943 89.7127 35.507 90.0506 35.1737C90.3884 34.8405 90.578 34.3885 90.578 33.9172V20.1717C90.578 19.9383 90.5313 19.7073 90.4407 19.4917C90.3506 19.276 90.2178 19.0801 90.0506 18.9151C89.8834 18.7501 89.6848 18.6192 89.4658 18.5299C89.2474 18.4406 89.013 18.3946 88.7766 18.3946ZM89.3041 33.9319C89.3041 34.0002 89.2907 34.0679 89.2638 34.131C89.2374 34.1942 89.1986 34.2515 89.1499 34.2998C89.1006 34.3482 89.0424 34.3865 88.9787 34.4126C88.9145 34.4388 88.8458 34.4523 88.7766 34.4523H72.5045C72.3647 34.4523 72.2303 34.3974 72.1313 34.2998C72.0328 34.2023 71.977 34.0699 71.977 33.9319V23.8584H89.3041V33.9319ZM71.977 20.1864C71.975 20.1171 71.987 20.0481 72.0129 19.9835C72.0387 19.9189 72.0771 19.8601 72.1263 19.8106C72.1756 19.7611 72.2343 19.7219 72.2995 19.6954C72.3647 19.6689 72.4343 19.6556 72.5045 19.6563H75.3559V20.0441C75.1887 20.1742 75.0662 20.3525 75.0065 20.5542C74.9468 20.7559 74.9518 20.971 75.022 21.1696C75.0916 21.3682 75.2225 21.5404 75.3957 21.6623C75.5693 21.7842 75.7773 21.8496 75.9903 21.8496C76.2033 21.8496 76.4113 21.7842 76.585 21.6623C76.7581 21.5404 76.889 21.3682 76.9587 21.1696C77.0289 20.971 77.0338 20.7559 76.9741 20.5542C76.9144 20.3525 76.792 20.1742 76.6248 20.0441V19.6563H84.6663V20.0441C84.4991 20.1742 84.3767 20.3525 84.317 20.5542C84.2573 20.7559 84.2622 20.971 84.3324 21.1696C84.4021 21.3682 84.533 21.5404 84.7061 21.6623C84.8798 21.7842 85.0878 21.8496 85.3008 21.8496C85.5138 21.8496 85.7218 21.7842 85.8949 21.6623C86.0686 21.5404 86.1995 21.3682 86.2691 21.1696C86.3393 20.971 86.3443 20.7559 86.2846 20.5542C86.2249 20.3525 86.1024 20.1742 85.9352 20.0441V19.6563H88.7866C88.8563 19.6556 88.9249 19.6686 88.9891 19.6945C89.0533 19.7205 89.112 19.7588 89.1613 19.8072C89.2101 19.8557 89.2489 19.9133 89.2753 19.9767C89.3016 20.0401 89.3146 20.1081 89.3141 20.1766V22.6312H71.977V20.1864Z" fill="#CFD2D9"/>
<path d="M80.3576 25.1815C80.7039 25.1839 81.0408 25.2443 81.3688 25.3628C81.6982 25.479 81.9953 25.6697 82.259 25.9346C82.5232 26.1973 82.7327 26.5494 82.8885 26.9911C83.0437 27.4327 83.1214 27.9789 83.1214 28.6297C83.1239 29.2434 83.0577 29.792 82.9238 30.2754C82.7915 30.7566 82.6019 31.1633 82.3545 31.4957C82.1072 31.8281 81.8092 32.0815 81.4603 32.2558C81.1115 32.4301 80.7194 32.5173 80.2835 32.5173C79.8266 32.5173 79.4211 32.4289 79.0678 32.2523C78.717 32.0756 78.4328 31.8339 78.2158 31.5271C77.9994 31.2203 77.866 30.8693 77.8168 30.4741H79.1066C79.1728 30.7577 79.3071 30.9832 79.5097 31.1506C79.7147 31.3156 79.9724 31.3981 80.2835 31.3981C80.7856 31.3981 81.1717 31.1831 81.4429 30.7531C81.7136 30.3231 81.849 29.7257 81.849 28.961H81.7997C81.6843 29.1655 81.5345 29.3422 81.3508 29.4909C81.1672 29.6374 80.9587 29.7501 80.7253 29.8291C80.4944 29.9082 80.2496 29.9477 79.9904 29.9477C79.5659 29.9477 79.1842 29.8477 78.8453 29.6478C78.5079 29.4479 78.2407 29.1737 78.0427 28.825C77.8471 28.4763 77.7481 28.0777 77.7461 27.6291C77.7461 27.1642 77.8546 26.747 78.071 26.3774C78.2905 26.0055 78.5955 25.7127 78.9867 25.4988C79.3778 25.2826 79.8346 25.1769 80.3576 25.1815ZM80.3611 26.2275C80.1068 26.2275 79.8769 26.2891 79.6719 26.4123C79.4694 26.5332 79.3091 26.6982 79.1917 26.9074C79.0762 27.1143 79.0185 27.3455 79.0185 27.6012C79.0205 27.8546 79.0782 28.0847 79.1917 28.2916C79.3071 28.4984 79.4634 28.6623 79.6614 28.7831C79.862 28.904 80.0904 28.9644 80.3472 28.9644C80.5382 28.9644 80.7159 28.9285 80.8806 28.8564C81.0458 28.7843 81.1896 28.6844 81.312 28.5565C81.4369 28.4264 81.5335 28.2788 81.6016 28.1137C81.6723 27.9487 81.7066 27.7744 81.7042 27.5908C81.7042 27.3467 81.6454 27.1212 81.5275 26.9144C81.4121 26.7075 81.2533 26.5413 81.0503 26.4158C80.8502 26.2903 80.6203 26.2275 80.3611 26.2275Z" fill="#444C5F"/>
<path d="M130.18 44.6887C130.17 44.7077 130.159 44.7257 130.145 44.7427L126.931 47.8599C126.901 47.8886 126.862 47.9074 126.821 47.9139C126.779 47.9172 126.737 47.9068 126.702 47.8845L126.105 47.5605C126.065 47.5441 126.033 47.5144 126.013 47.4766C125.995 47.4387 125.99 47.3954 126 47.3543L126.632 44.6101C126.632 44.5709 126.632 44.5463 126.632 44.5414C126.632 44.5365 126.597 44.5414 126.557 44.5856L124.537 46.5492C124.508 46.5765 124.472 46.5952 124.433 46.6032C124.388 46.6065 124.344 46.5944 124.308 46.5689L123.696 46.24C123.658 46.2185 123.625 46.1881 123.602 46.1516C123.589 46.1117 123.589 46.0688 123.602 46.0289L124.572 41.6843C124.576 41.6649 124.585 41.6465 124.597 41.6303C124.637 41.5518 124.706 41.542 124.796 41.591L125.482 41.9641C125.52 41.9809 125.551 42.0082 125.572 42.0427C125.579 42.0574 125.582 42.0733 125.582 42.0893C125.582 42.1054 125.579 42.1212 125.572 42.136L124.9 44.9832C124.9 45.0323 124.9 45.0618 124.9 45.0667C124.9 45.0716 124.935 45.0667 124.965 45.0372L127.06 42.9459C127.11 42.8919 127.169 42.887 127.254 42.9459L127.846 43.27C127.882 43.2866 127.913 43.312 127.936 43.3436C127.946 43.3755 127.946 43.4098 127.936 43.4418L127.259 46.3332C127.259 46.3627 127.259 46.3823 127.259 46.3921C127.259 46.402 127.284 46.3921 127.304 46.3921L129.409 44.2665C129.437 44.2433 129.472 44.2306 129.508 44.2306C129.545 44.2306 129.58 44.2433 129.608 44.2665L130.105 44.5365C130.2 44.5414 130.225 44.6052 130.18 44.6887Z" fill="#444C5F"/>
<path d="M129.648 49.0037C129.381 48.9444 129.147 48.7863 128.996 48.5619C128.932 48.4574 128.892 48.3406 128.878 48.2194C128.865 48.0983 128.877 47.9757 128.916 47.8599C128.964 47.6983 129.053 47.5515 129.175 47.4337C129.297 47.3159 129.448 47.2311 129.613 47.1873C130.066 47.0746 130.542 47.0899 130.986 47.2315L131.21 47.2757C131.233 47.2831 131.257 47.2831 131.28 47.2757C131.291 47.271 131.301 47.2637 131.309 47.2542C131.317 47.2448 131.322 47.2337 131.325 47.2217L131.359 47.099C131.386 47.036 131.4 46.9684 131.4 46.9001C131.4 46.8319 131.386 46.7643 131.359 46.7013C131.32 46.642 131.268 46.591 131.209 46.5514C131.149 46.5118 131.082 46.4843 131.011 46.4706C130.885 46.4296 130.749 46.4245 130.619 46.4557C130.491 46.4869 130.373 46.5533 130.28 46.6473C130.27 46.6632 130.256 46.6756 130.239 46.6827C130.222 46.6898 130.203 46.6912 130.185 46.6866H130.13L129.568 46.3773C129.56 46.3741 129.553 46.3694 129.547 46.3634C129.541 46.3575 129.536 46.3505 129.533 46.3427C129.53 46.335 129.528 46.3267 129.528 46.3183C129.528 46.3099 129.53 46.3016 129.533 46.2939C129.545 46.2648 129.561 46.2382 129.583 46.2153C129.664 46.1127 129.764 46.027 129.878 45.9629C129.993 45.8989 130.119 45.8578 130.25 45.8422C130.576 45.802 130.907 45.8322 131.22 45.9306C131.596 46.0041 131.935 46.1994 132.185 46.4853C132.268 46.605 132.32 46.7421 132.338 46.8854C132.356 47.0287 132.34 47.1742 132.29 47.3101L131.688 49.3964C131.678 49.4318 131.659 49.4642 131.633 49.4897C131.617 49.4961 131.6 49.4995 131.583 49.4995C131.566 49.4995 131.549 49.4961 131.534 49.4897L130.912 49.313C130.894 49.3085 130.878 49.3002 130.865 49.2884C130.852 49.2761 130.842 49.2609 130.837 49.2442C130.826 49.1991 130.826 49.1519 130.837 49.1068L130.867 48.9791C130.867 48.9399 130.867 48.9153 130.837 48.9104C130.803 48.9015 130.767 48.9015 130.732 48.9104C130.567 48.9973 130.386 49.0503 130.199 49.0664C130.013 49.0824 129.825 49.0611 129.648 49.0037ZM131.14 47.7666C131.14 47.7666 131.111 47.7322 131.076 47.7224L130.902 47.6831C130.682 47.6318 130.454 47.6318 130.235 47.6831C130.146 47.6948 130.063 47.7316 129.994 47.7891C129.926 47.8466 129.877 47.9224 129.852 48.0071C129.834 48.0602 129.828 48.1165 129.836 48.1718C129.844 48.2272 129.865 48.28 129.896 48.3262C129.974 48.4295 130.087 48.5011 130.215 48.5275C130.376 48.5845 130.552 48.5845 130.712 48.5275C130.877 48.4588 130.976 48.3753 131.006 48.2673L131.116 47.8795C131.13 47.8652 131.141 47.8471 131.146 47.8272C131.152 47.8072 131.151 47.7863 131.145 47.7666H131.14Z" fill="#444C5F"/>
<path d="M132.681 49.5584L133.089 46.5491C133.089 46.4755 133.139 46.4411 133.204 46.446L133.935 46.5442C133.949 46.5452 133.963 46.5492 133.975 46.5559C133.987 46.5627 133.998 46.5721 134.006 46.5833C134.014 46.5946 134.019 46.6075 134.022 46.6211C134.024 46.6347 134.023 46.6487 134.02 46.662L133.97 47.0253C133.97 47.0253 133.97 47.0547 133.97 47.0597C133.991 47.057 134.01 47.0484 134.025 47.0351C134.167 46.8919 134.336 46.7769 134.523 46.6964C134.678 46.6253 134.85 46.5965 135.02 46.6129C135.169 46.6326 135.239 46.6767 135.229 46.7455L135.135 47.4573C135.131 47.4818 135.118 47.5042 135.1 47.5211C135.09 47.5283 135.077 47.5322 135.065 47.5322C135.053 47.5322 135.04 47.5283 135.03 47.5211C134.891 47.4696 134.745 47.435 134.597 47.418C134.488 47.4031 134.377 47.415 134.274 47.4524C134.166 47.4851 134.067 47.5423 133.985 47.6193C133.912 47.6815 133.863 47.7664 133.846 47.8598L133.602 49.6467C133.602 49.74 133.527 49.7842 133.423 49.7695L132.756 49.6811C132.706 49.686 132.671 49.6418 132.681 49.5584Z" fill="#444C5F"/>
<path d="M135.652 49.8873L135.702 46.8535C135.702 46.7749 135.737 46.7357 135.807 46.7357H136.538C136.608 46.7357 136.643 46.7749 136.638 46.8437V47.2069C136.634 47.2198 136.634 47.2333 136.638 47.2462H136.667C136.667 47.2462 136.692 47.2462 136.717 47.2118C136.841 47.0547 136.995 46.9229 137.17 46.824C137.32 46.7323 137.492 46.6815 137.668 46.6768C137.817 46.6768 137.892 46.716 137.892 46.7897V47.5064C137.891 47.5185 137.889 47.5304 137.883 47.5413C137.878 47.5523 137.871 47.5622 137.862 47.5702C137.852 47.5774 137.839 47.5813 137.827 47.5813C137.814 47.5813 137.802 47.5774 137.792 47.5702C137.649 47.5346 137.502 47.5148 137.354 47.5113C137.244 47.5128 137.135 47.5379 137.036 47.5849C136.932 47.6308 136.84 47.6996 136.767 47.7862C136.702 47.8563 136.665 47.9468 136.663 48.0415L136.633 49.8431C136.633 49.9413 136.573 49.9855 136.463 49.9855H135.792C135.692 50.01 135.652 49.9708 135.652 49.8873Z" fill="#444C5F"/>
<path d="M139.529 49.9609C139.261 50.009 138.983 49.9545 138.753 49.8087C138.652 49.7381 138.568 49.6463 138.506 49.5407C138.444 49.4347 138.406 49.3169 138.395 49.1951C138.374 49.0279 138.398 48.8583 138.463 48.7027C138.529 48.5471 138.634 48.4106 138.768 48.3066C139.138 48.0288 139.579 47.8587 140.042 47.8157L140.266 47.7666C140.289 47.7619 140.312 47.7518 140.33 47.7371C140.339 47.715 140.339 47.6906 140.33 47.6684V47.5407C140.326 47.4733 140.307 47.4075 140.275 47.3475C140.243 47.2875 140.2 47.2347 140.146 47.1922C140.086 47.1529 140.018 47.1257 139.948 47.1122C139.877 47.0987 139.804 47.0992 139.733 47.1137C139.6 47.1247 139.474 47.1731 139.368 47.2531C139.262 47.3332 139.181 47.4415 139.136 47.5653C139.133 47.5832 139.124 47.5996 139.111 47.612C139.097 47.6244 139.08 47.6322 139.062 47.634H139.007L138.365 47.5702C138.348 47.5703 138.333 47.5642 138.321 47.5533C138.309 47.5424 138.302 47.5273 138.3 47.5113C138.293 47.4806 138.293 47.4487 138.3 47.418C138.371 47.1661 138.537 46.9503 138.763 46.8142C139.047 46.6476 139.365 46.5453 139.693 46.5147C140.066 46.4325 140.455 46.4775 140.798 46.6424C140.921 46.72 141.024 46.8247 141.099 46.9482C141.174 47.0717 141.22 47.2107 141.231 47.3542L141.515 49.5093C141.523 49.5446 141.523 49.5819 141.515 49.6173C141.503 49.6296 141.489 49.6394 141.474 49.6458C141.459 49.6526 141.442 49.6566 141.425 49.6566L140.783 49.74C140.765 49.7435 140.747 49.743 140.73 49.7376C140.713 49.7327 140.697 49.7233 140.684 49.7106C140.659 49.6728 140.64 49.6315 140.629 49.5878V49.4504C140.627 49.4366 140.62 49.4239 140.608 49.415C140.597 49.4057 140.584 49.4013 140.569 49.4013C140.537 49.417 140.509 49.4386 140.485 49.4651C140.366 49.6055 140.221 49.7219 140.057 49.8068C139.893 49.8922 139.714 49.9442 139.529 49.9609ZM140.405 48.2329C140.393 48.2272 140.379 48.2242 140.365 48.2242C140.351 48.2242 140.338 48.2272 140.325 48.2329L140.156 48.2673C139.934 48.3038 139.723 48.3893 139.539 48.5177C139.461 48.5631 139.398 48.63 139.359 48.7103C139.319 48.7906 139.304 48.8807 139.315 48.9693C139.319 49.0245 139.336 49.078 139.366 49.1249C139.395 49.172 139.436 49.2113 139.484 49.2393C139.596 49.3056 139.73 49.3281 139.858 49.3031C140.037 49.2849 140.203 49.203 140.325 49.0724C140.377 49.03 140.418 48.9766 140.446 48.9162C140.473 48.8558 140.487 48.7901 140.485 48.7238L140.435 48.3262C140.437 48.2925 140.426 48.2591 140.405 48.2329Z" fill="#444C5F"/>
<path d="M142.675 49.3669C142.645 49.3669 142.63 49.3276 142.616 49.2884L141.705 46.3871C141.68 46.3135 141.705 46.2644 141.765 46.2447L142.491 46.0238C142.551 46.0042 142.591 46.0287 142.611 46.0975L142.705 46.3871C142.705 46.4166 142.73 46.4313 142.75 46.4215C142.77 46.4116 142.75 46.4215 142.785 46.3871C142.887 46.2066 143.014 46.0413 143.163 45.8962C143.303 45.764 143.474 45.6679 143.661 45.6164C143.785 45.5696 143.918 45.5489 144.05 45.5557C144.183 45.5625 144.313 45.5965 144.432 45.6556C144.546 45.72 144.646 45.8061 144.726 45.9089C144.807 46.0117 144.866 46.1292 144.9 46.2546L145.566 48.3704C145.575 48.3889 145.579 48.4091 145.579 48.4295C145.578 48.4499 145.573 48.4699 145.563 48.4879C145.554 48.506 145.54 48.5216 145.523 48.5336C145.507 48.5455 145.487 48.5535 145.467 48.5569L144.8 48.7582C144.768 48.7703 144.732 48.7703 144.701 48.7582C144.675 48.7358 144.656 48.7069 144.646 48.6747L144.009 46.6522C143.995 46.5951 143.971 46.5413 143.936 46.4941C143.9 46.4468 143.856 46.4071 143.805 46.3773C143.688 46.3321 143.559 46.3321 143.442 46.3773C143.322 46.4109 143.215 46.4773 143.133 46.5687C143.037 46.6838 142.956 46.8109 142.894 46.9467L143.531 48.9742C143.54 48.9926 143.545 49.0127 143.545 49.0331C143.545 49.0535 143.54 49.0736 143.531 49.092C143.503 49.1259 143.464 49.1499 143.422 49.1607L142.78 49.3571C142.764 49.3659 142.746 49.3718 142.728 49.3733C142.711 49.3753 142.692 49.3728 142.675 49.3669Z" fill="#444C5F"/>
<path d="M146.712 45.1109C146.672 45.1109 146.662 45.16 146.682 45.2091L147.344 46.5443C147.362 46.5966 147.391 46.6443 147.43 46.6842C147.469 46.7241 147.515 46.7551 147.568 46.7751C147.681 46.7933 147.797 46.7725 147.896 46.7162L148.2 46.5689C148.211 46.5628 148.224 46.5597 148.237 46.5597C148.25 46.5597 148.263 46.5628 148.274 46.5689C148.301 46.5803 148.323 46.6014 148.334 46.6278L148.493 46.9714C148.511 47.0047 148.515 47.0434 148.503 47.0793C148.492 47.1151 148.467 47.1452 148.434 47.1629C148.224 47.2968 148.004 47.415 147.777 47.5163C147.564 47.6391 147.311 47.6794 147.07 47.6292C146.959 47.6015 146.856 47.5483 146.769 47.4742C146.683 47.4 146.616 47.3068 146.572 47.2022L145.806 45.646C145.776 45.592 145.741 45.5723 145.692 45.5969L145.348 45.7638C145.274 45.7982 145.224 45.7638 145.194 45.7196L144.99 45.3072C144.96 45.2549 144.98 45.2107 145.05 45.1747L145.443 44.9882C145.473 44.9882 145.478 44.944 145.468 44.8998L145.129 44.0162C145.104 43.9523 145.129 43.9082 145.169 43.8836L145.786 43.5891C145.799 43.583 145.812 43.5798 145.826 43.5798C145.84 43.5798 145.853 43.583 145.866 43.5891C145.893 43.6028 145.914 43.6254 145.926 43.6529L146.339 44.4874C146.341 44.4958 146.346 44.5035 146.351 44.5098C146.357 44.5162 146.365 44.521 146.373 44.5239C146.381 44.5268 146.39 44.5276 146.399 44.5265C146.408 44.5252 146.416 44.5219 146.423 44.5169L147.015 44.2322C147.085 44.1978 147.13 44.2322 147.16 44.2714L147.364 44.6838C147.393 44.7476 147.364 44.7967 147.299 44.8311L146.712 45.1109Z" fill="#444C5F"/>
<path d="M149.962 47.4964C149.941 47.5071 149.917 47.5094 149.895 47.5031C149.872 47.4966 149.854 47.482 149.842 47.4621L149.568 47.0693C149.534 47.0153 149.568 46.9564 149.663 46.8877L150.016 46.6521C150.067 46.6179 150.11 46.5736 150.143 46.522C150.176 46.4704 150.197 46.4128 150.205 46.3526C150.232 46.2439 150.214 46.1294 150.156 46.0335C150.133 46.0066 150.108 45.9819 150.081 45.9599L147.414 44.1975C147.398 44.1885 147.385 44.1769 147.374 44.1632C147.365 44.1395 147.365 44.1132 147.374 44.0895C147.383 44.0608 147.402 44.0363 147.429 44.0208L148.081 43.579C148.11 43.5713 148.141 43.5713 148.17 43.579C148.186 43.5787 148.201 43.5815 148.216 43.5875C148.231 43.5934 148.244 43.6022 148.255 43.6133L149.887 44.7473C149.917 44.7768 149.947 44.7817 149.962 44.7473C149.976 44.713 149.962 44.7081 149.962 44.659L149.464 42.7543C149.454 42.7245 149.455 42.6926 149.466 42.6633C149.477 42.6341 149.497 42.6091 149.524 42.5923L149.967 42.2928C149.992 42.2829 150.021 42.2829 150.046 42.2928C150.07 42.2964 150.091 42.3087 150.106 42.3272C150.108 42.3435 150.108 42.36 150.106 42.3763L150.857 45.6703C150.917 45.9126 150.938 46.1629 150.917 46.4115C150.898 46.59 150.828 46.7598 150.718 46.9024C150.576 47.0723 150.408 47.2197 150.22 47.3393C150.141 47.4021 150.054 47.4549 149.962 47.4964Z" fill="#444C5F"/>
<path d="M133.773 29.0482C133.777 29.0627 133.777 29.0779 133.773 29.0924L132.777 30.7222C132.759 30.7448 132.749 30.7722 132.748 30.8007C132.744 30.8497 132.744 30.899 132.748 30.948V32.0525C132.748 32.1213 132.708 32.1556 132.628 32.1556H132.091C132.067 32.1647 132.04 32.1647 132.016 32.1556C132.012 32.1447 132.009 32.1331 132.009 32.1213C132.009 32.1094 132.012 32.0978 132.016 32.0869V30.9431C132.02 30.917 132.02 30.8906 132.016 30.8645L131.971 30.786L130.976 29.1218C130.972 29.1074 130.972 29.0921 130.976 29.0776C130.972 29.0665 130.972 29.0544 130.976 29.0433C130.997 29.0371 131.02 29.0371 131.041 29.0433H131.683C131.709 29.0372 131.736 29.0372 131.762 29.0433C131.782 29.059 131.797 29.0792 131.807 29.1022L132.444 30.2067C132.444 30.2362 132.474 30.2509 132.489 30.2509C132.504 30.2509 132.514 30.2509 132.529 30.2116L133.156 29.1022C133.166 29.0778 133.183 29.0572 133.205 29.0433C133.23 29.0366 133.256 29.0366 133.28 29.0433H133.778C133.728 29.0089 133.773 29.0187 133.773 29.0482Z" fill="#444C5F"/>
<path d="M134.269 29.009H136.434C136.479 29.009 136.498 29.009 136.498 29.0778V29.4705C136.5 29.4825 136.499 29.4947 136.495 29.5061C136.491 29.5176 136.485 29.528 136.476 29.5366C136.467 29.5451 136.457 29.5516 136.445 29.5554C136.433 29.5593 136.421 29.5605 136.409 29.5589H135.016C134.961 29.5589 134.936 29.5834 134.936 29.6276V30.2412C134.936 30.2903 134.936 30.3149 135.001 30.3149H135.911C135.961 30.3149 135.986 30.3149 135.986 30.3836V30.791C135.986 30.8303 135.961 30.8499 135.916 30.8499H134.996C134.956 30.8499 134.936 30.8499 134.936 30.899V31.5667C134.932 31.5794 134.932 31.5932 134.936 31.6059C134.941 31.6085 134.947 31.6099 134.953 31.6099C134.959 31.6099 134.965 31.6085 134.971 31.6059H136.464C136.513 31.6059 136.538 31.6059 136.538 31.6698V32.0723C136.538 32.1214 136.513 32.1509 136.454 32.1509H134.269C134.245 32.1599 134.218 32.1599 134.194 32.1509C134.19 32.14 134.188 32.1283 134.188 32.1165C134.188 32.1047 134.19 32.093 134.194 32.0821V29.0876C134.185 29.0336 134.204 29.009 134.269 29.009Z" fill="#444C5F"/>
<path d="M136.838 32.0821C136.838 32.0821 136.838 32.0429 136.838 32.0331L137.908 29.0876C137.914 29.0615 137.928 29.0378 137.948 29.0189C137.97 29.0126 137.994 29.0126 138.017 29.0189H138.664C138.69 29.009 138.718 29.009 138.744 29.0189C138.768 29.0349 138.786 29.0594 138.794 29.0876L139.853 32.0331C139.854 32.0461 139.854 32.0593 139.853 32.0723C139.859 32.0899 139.859 32.1088 139.853 32.1263C139.846 32.1294 139.839 32.131 139.831 32.131C139.823 32.131 139.816 32.1294 139.809 32.1263H139.177C139.158 32.1281 139.139 32.1231 139.123 32.1123C139.108 32.1015 139.097 32.0856 139.092 32.0674L138.868 31.444C138.868 31.444 138.868 31.4145 138.868 31.4096C138.857 31.4055 138.845 31.4055 138.833 31.4096H137.754C137.741 31.4094 137.728 31.4137 137.718 31.4218C137.708 31.4299 137.701 31.4412 137.699 31.4538L137.47 32.0772C137.464 32.0958 137.452 32.1118 137.436 32.1225C137.42 32.1333 137.4 32.1381 137.38 32.1361H136.883C136.858 32.1558 136.838 32.1312 136.838 32.0821ZM138.644 30.8647C138.644 30.8647 138.684 30.8647 138.684 30.8303C138.687 30.8174 138.687 30.804 138.684 30.7911L138.326 29.8092C138.326 29.8092 138.326 29.7847 138.296 29.7847C138.266 29.7847 138.296 29.7847 138.271 29.8141L137.903 30.796C137.902 30.809 137.902 30.8222 137.903 30.8352C137.903 30.8352 137.903 30.8696 137.953 30.8696L138.644 30.8647Z" fill="#444C5F"/>
<path d="M142.909 32.077C142.909 32.0873 142.907 32.0975 142.903 32.1068C142.899 32.1162 142.893 32.1245 142.885 32.131C142.877 32.1346 142.868 32.1364 142.86 32.1364C142.851 32.1364 142.843 32.1346 142.835 32.131H142.203C142.18 32.1313 142.158 32.1235 142.141 32.1091C142.123 32.0947 142.112 32.0746 142.108 32.0525L141.645 30.8645C141.638 30.8457 141.624 30.8301 141.606 30.8203C141.58 30.8137 141.552 30.8137 141.526 30.8203H141.113C141.108 30.8177 141.102 30.8163 141.096 30.8163C141.09 30.8163 141.084 30.8177 141.078 30.8203C141.076 30.8258 141.075 30.8316 141.075 30.8375C141.075 30.8434 141.076 30.8492 141.078 30.8547V32.0279C141.088 32.0533 141.088 32.0812 141.078 32.1065C141.049 32.1155 141.018 32.1155 140.989 32.1065H140.441C140.43 32.1113 140.418 32.1139 140.406 32.1139C140.394 32.1139 140.383 32.1113 140.372 32.1065C140.363 32.0861 140.363 32.0631 140.372 32.0427V29.0874C140.372 29.0334 140.396 29.0089 140.441 29.0089H141.735C142.051 28.9901 142.366 29.0673 142.636 29.2298C142.739 29.3024 142.822 29.3992 142.878 29.5115C142.933 29.6238 142.96 29.748 142.954 29.8729C142.961 30.0619 142.901 30.2476 142.785 30.3981C142.68 30.5414 142.532 30.6493 142.362 30.7074C142.362 30.7074 142.337 30.7369 142.362 30.7712L142.929 32.0378C142.924 32.0515 142.917 32.0646 142.909 32.077ZM142.029 30.2263C142.073 30.1892 142.108 30.1424 142.13 30.0894C142.153 30.0366 142.163 29.9791 142.158 29.9219C142.163 29.864 142.153 29.8059 142.131 29.7522C142.108 29.6985 142.073 29.6507 142.029 29.6127C141.929 29.5332 141.803 29.4946 141.675 29.5047H141.148C141.127 29.4972 141.104 29.4972 141.083 29.5047C141.079 29.5123 141.077 29.5207 141.077 29.5292C141.077 29.5378 141.079 29.5461 141.083 29.5538V30.241C141.077 30.2601 141.077 30.2808 141.083 30.2999C141.083 30.2999 141.108 30.2999 141.128 30.2999H141.655C141.785 30.3173 141.916 30.2914 142.029 30.2263Z" fill="#444C5F"/>
<path d="M140.739 14.7432C140.888 14.7432 140.982 14.7432 141.017 14.807C141.052 14.8708 141.067 14.9297 141.057 15.0573L140.992 16.3975C140.992 16.4705 140.963 16.5407 140.913 16.5939C140.842 16.6383 140.757 16.6573 140.674 16.6479H135.449C135.285 16.6479 135.205 16.7166 135.205 16.8541L134.981 19.3675V19.4166C134.979 19.4439 134.983 19.4713 134.994 19.4963C135.005 19.5212 135.023 19.5429 135.046 19.559C135.066 19.5753 135.092 19.5843 135.118 19.5843C135.144 19.5843 135.17 19.5753 135.19 19.559C135.718 19.3577 136.146 19.2104 136.474 19.1221C136.85 19.0277 137.236 18.9832 137.623 18.9895C138.36 18.9768 139.091 19.1191 139.768 19.4068C140.378 19.6759 140.896 20.1121 141.261 20.6635C141.647 21.2714 141.841 21.9789 141.818 22.6959C141.844 23.4438 141.639 24.1818 141.231 24.8122C140.822 25.4425 140.228 25.9354 139.529 26.2255C138.745 26.5621 137.897 26.7294 137.041 26.7164C136.138 26.7253 135.242 26.5585 134.404 26.2255C133.664 25.9466 133.011 25.4831 132.508 24.8804C132.446 24.8157 132.408 24.733 132.398 24.6448C132.402 24.6008 132.415 24.5581 132.438 24.5198C132.46 24.4816 132.491 24.4488 132.528 24.4239L133.638 23.6237C133.688 23.5954 133.744 23.5802 133.802 23.5795C133.883 23.5878 133.957 23.6265 134.011 23.6875C134.391 24.0855 134.825 24.4306 135.3 24.7135C135.751 24.9487 136.257 25.0621 136.768 25.0424C137.489 25.0868 138.201 24.8586 138.758 24.4043C138.992 24.2004 139.177 23.9482 139.301 23.6657C139.425 23.3832 139.484 23.0772 139.475 22.7695C139.49 22.4828 139.439 22.1964 139.327 21.9314C139.215 21.6664 139.045 21.4294 138.828 21.2379C138.348 20.8497 137.74 20.6518 137.121 20.6832C136.753 20.6778 136.387 20.7377 136.041 20.8599C135.615 21.0192 135.2 21.2045 134.797 21.4146C134.744 21.4465 134.685 21.4681 134.623 21.4784C134.554 21.4629 134.488 21.4364 134.429 21.3999L133.2 20.7323C133.145 20.7038 133.096 20.6655 133.055 20.6193C133.033 20.5804 133.023 20.5362 133.025 20.4917V20.2708L133.478 15.0672C133.476 15.0204 133.484 14.9736 133.502 14.9303C133.52 14.887 133.547 14.8482 133.583 14.8168C133.706 14.7608 133.842 14.7387 133.976 14.753L140.739 14.7432Z" fill="#444C5F"/>
<path d="M156.548 22.1462C156.203 21.5945 155.755 21.1116 155.229 20.7225C154.077 19.8138 153.173 18.6355 152.599 17.2948C152.026 15.9539 151.801 14.493 151.945 13.0447C152.104 11.572 151.796 10.4674 151.024 9.72126C150.253 8.97508 149.114 8.67563 147.646 8.85235C146.18 9.01278 144.697 8.81043 143.33 8.26361C141.963 7.71678 140.757 6.84272 139.818 5.72035C138.897 4.58144 137.872 4.00708 136.788 4.00708C135.703 4.00708 134.698 4.59617 133.777 5.75963C132.854 6.89549 131.659 7.7862 130.299 8.35113C128.939 8.91602 127.458 9.13723 125.989 8.99472C124.496 8.84744 123.382 9.15672 122.625 9.89799C121.869 10.6393 121.575 11.7831 121.75 13.2411C121.912 14.6861 121.706 16.1483 121.151 17.4951C120.596 18.8418 119.709 20.0305 118.57 20.9533C117.415 21.8762 116.828 22.8825 116.838 23.9478C116.848 25.0131 117.44 26.0096 118.61 26.8933C119.762 27.8019 120.665 28.9804 121.238 30.3213C121.81 31.6622 122.034 33.1231 121.889 34.5711C121.73 36.0438 122.043 37.1434 122.809 37.8945C123.576 38.6456 124.725 38.9402 126.188 38.7536C127.655 38.5929 129.138 38.7956 130.505 39.3433C131.872 39.8911 133.079 40.7666 134.016 41.8905C134.926 43.0098 135.976 43.6038 137.051 43.6038C138.126 43.6038 139.141 43.0098 140.062 41.8562C140.98 40.7154 142.173 39.8206 143.533 39.2544C144.893 38.6882 146.376 38.4688 147.845 38.6162C149.338 38.7684 150.452 38.4689 151.209 37.7129C151.965 36.9569 152.264 35.8524 152.084 34.3796C151.922 32.9346 152.128 31.4724 152.683 30.1257C153.238 28.7789 154.125 27.5903 155.264 26.6674C156.419 25.7445 157.006 24.7333 157.001 23.668C156.99 23.13 156.834 22.6047 156.548 22.1462ZM150.636 34.576C150.761 35.5578 150.606 36.2991 150.174 36.7262C149.741 37.1533 149.014 37.3153 147.999 37.2171C146.285 37.0495 144.556 37.3076 142.968 37.9678C141.382 38.628 139.987 39.6694 138.912 40.9971C138.3 41.7727 137.634 42.1998 137.031 42.1998C136.429 42.1998 135.777 41.7874 135.155 41.0265C134.189 39.8724 132.981 38.9394 131.613 38.2926C130.245 37.6457 128.75 37.3005 127.233 37.2809C126.826 37.2831 126.419 37.3093 126.014 37.3594C125.019 37.4822 124.277 37.33 123.835 36.9029C123.392 36.4758 123.227 35.7493 123.337 34.7527C123.505 33.0615 123.242 31.3558 122.572 29.7904C121.902 28.225 120.846 26.8494 119.5 25.7887C118.699 25.1751 118.296 24.5467 118.291 23.9429C118.286 23.3391 118.684 22.7156 119.48 22.0824C120.81 21.0026 121.845 19.6132 122.493 18.0395C123.141 16.4658 123.382 14.7576 123.193 13.0693C123.068 12.0874 123.222 11.3462 123.66 10.9191C124.098 10.492 124.815 10.33 125.83 10.4282C127.544 10.6007 129.276 10.3449 130.863 9.68435C132.451 9.02378 133.845 7.97966 134.917 6.64817C136.185 5.04781 137.405 5.07726 138.679 6.62363C139.774 7.93445 141.182 8.95593 142.777 9.59608C144.372 10.2362 146.103 10.475 147.815 10.2907C148.81 10.1631 149.551 10.2907 149.999 10.7473C150.447 11.2038 150.601 11.8911 150.497 12.8925C150.329 14.584 150.591 16.2902 151.26 17.8564C151.929 19.4225 152.984 20.7992 154.329 21.8614C155.13 22.4751 155.538 23.0985 155.538 23.7024C155.538 24.3062 155.14 24.9247 154.354 25.5531C153.021 26.6326 151.983 28.0234 151.334 29.5992C150.685 31.1749 150.445 32.8856 150.636 34.576Z" fill="#CFD2D9"/>
</svg>
