<svg width="17" height="17" viewBox="0 0 17 17" fill="none" xmlns="http://www.w3.org/2000/svg">
<path fill-rule="evenodd" clip-rule="evenodd" d="M8.33333 0C3.725 0 0 3.68189 0 8.23688C0 12.7919 3.725 16.4738 8.33333 16.4738C12.9417 16.4738 16.6667 12.7919 16.6667 8.23688C16.6667 3.68189 12.9417 0 8.33333 0ZM8.33333 14.8264C4.65833 14.8264 1.66667 11.8693 1.66667 8.23688C1.66667 4.60442 4.65833 1.64738 8.33333 1.64738C12.0083 1.64738 15 4.60442 15 8.23688C15 11.8693 12.0083 14.8264 8.33333 14.8264ZM8.33333 7.07548L11.325 4.11844L12.5 5.27984L9.50833 8.23688L12.5 11.1939L11.325 12.3553L8.33333 9.39828L5.34167 12.3553L4.16667 11.1939L7.15833 8.23688L4.16667 5.27984L5.34167 4.11844L8.33333 7.07548Z" fill="#F04F4F"/>
</svg>
