<svg width="46" height="29" viewBox="0 0 46 29" fill="none" xmlns="http://www.w3.org/2000/svg">
<rect y="0.478928" width="46" height="27.831" rx="4" fill="#ADADAD"/>
<path d="M9.17105 11.7196C8.63772 11.7196 8.23439 11.5696 7.96105 11.2696C7.68772 10.963 7.55105 10.5263 7.55105 9.95964V9.55964H8.59105V10.0396C8.59105 10.493 8.78105 10.7196 9.16105 10.7196C9.34772 10.7196 9.48772 10.6663 9.58105 10.5596C9.68105 10.4463 9.73105 10.2663 9.73105 10.0196C9.73105 9.72631 9.66439 9.46964 9.53105 9.24964C9.39772 9.02298 9.15105 8.75298 8.79105 8.43964C8.33772 8.03964 8.02105 7.67964 7.84105 7.35964C7.66105 7.03298 7.57105 6.66631 7.57105 6.25964C7.57105 5.70631 7.71105 5.27964 7.99105 4.97964C8.27105 4.67298 8.67772 4.51964 9.21105 4.51964C9.73772 4.51964 10.1344 4.67298 10.4011 4.97964C10.6744 5.27964 10.8111 5.71298 10.8111 6.27964V6.56964H9.77105V6.20964C9.77105 5.96964 9.72439 5.79631 9.63105 5.68964C9.53772 5.57631 9.40105 5.51964 9.22105 5.51964C8.85439 5.51964 8.67105 5.74298 8.67105 6.18964C8.67105 6.44298 8.73772 6.67964 8.87105 6.89964C9.01105 7.11964 9.26105 7.38631 9.62105 7.69964C10.0811 8.09964 10.3977 8.46298 10.5711 8.78964C10.7444 9.11631 10.8311 9.49964 10.8311 9.93964C10.8311 10.513 10.6877 10.953 10.4011 11.2596C10.1211 11.5663 9.71105 11.7196 9.17105 11.7196ZM12.3218 5.61964H11.1718V4.61964H14.5718V5.61964H13.4218V11.6196H12.3218V5.61964ZM15.4954 4.61964H16.9854L18.1254 11.6196H17.0254L16.8254 10.2296V10.2496H15.5754L15.3754 11.6196H14.3554L15.4954 4.61964ZM16.6954 9.29964L16.2054 5.83964H16.1854L15.7054 9.29964H16.6954ZM18.659 4.61964H20.039L21.109 8.80964H21.129V4.61964H22.109V11.6196H20.979L19.659 6.50964H19.639V11.6196H18.659V4.61964ZM22.9266 4.61964H24.6066C25.1533 4.61964 25.5633 4.76631 25.8366 5.05964C26.1099 5.35298 26.2466 5.78298 26.2466 6.34964V9.88964C26.2466 10.4563 26.1099 10.8863 25.8366 11.1796C25.5633 11.473 25.1533 11.6196 24.6066 11.6196H22.9266V4.61964ZM24.5866 10.6196C24.7666 10.6196 24.9033 10.5663 24.9966 10.4596C25.0966 10.353 25.1466 10.1796 25.1466 9.93964V6.29964C25.1466 6.05964 25.0966 5.88631 24.9966 5.77964C24.9033 5.67298 24.7666 5.61964 24.5866 5.61964H24.0266V10.6196H24.5866ZM27.8196 4.61964H29.3096L30.4496 11.6196H29.3496L29.1496 10.2296V10.2496H27.8996L27.6996 11.6196H26.6796L27.8196 4.61964ZM29.0196 9.29964L28.5296 5.83964H28.5096L28.0296 9.29964H29.0196ZM30.9832 4.61964H32.6132C33.1799 4.61964 33.5932 4.75298 33.8532 5.01964C34.1132 5.27964 34.2432 5.68298 34.2432 6.22964V6.65964C34.2432 7.38631 34.0032 7.84631 33.5232 8.03964V8.05964C33.7899 8.13964 33.9766 8.30298 34.0832 8.54964C34.1966 8.79631 34.2532 9.12631 34.2532 9.53964V10.7696C34.2532 10.9696 34.2599 11.133 34.2732 11.2596C34.2866 11.3796 34.3199 11.4996 34.3732 11.6196H33.2532C33.2132 11.5063 33.1866 11.3996 33.1732 11.2996C33.1599 11.1996 33.1532 11.0196 33.1532 10.7596V9.47964C33.1532 9.15964 33.0999 8.93631 32.9932 8.80964C32.8932 8.68298 32.7166 8.61964 32.4632 8.61964H32.0832V11.6196H30.9832V4.61964ZM32.4832 7.61964C32.7032 7.61964 32.8666 7.56298 32.9732 7.44964C33.0866 7.33631 33.1432 7.14631 33.1432 6.87964V6.33964C33.1432 6.08631 33.0966 5.90298 33.0032 5.78964C32.9166 5.67631 32.7766 5.61964 32.5832 5.61964H32.0832V7.61964H32.4832ZM35.0164 4.61964H36.6964C37.2431 4.61964 37.6531 4.76631 37.9264 5.05964C38.1998 5.35298 38.3364 5.78298 38.3364 6.34964V9.88964C38.3364 10.4563 38.1998 10.8863 37.9264 11.1796C37.6531 11.473 37.2431 11.6196 36.6964 11.6196H35.0164V4.61964ZM36.6764 10.6196C36.8564 10.6196 36.9931 10.5663 37.0864 10.4596C37.1864 10.353 37.2364 10.1796 37.2364 9.93964V6.29964C37.2364 6.05964 37.1864 5.88631 37.0864 5.77964C36.9931 5.67298 36.8564 5.61964 36.6764 5.61964H36.1164V10.6196H36.6764ZM11.1883 16.6196H12.2883V22.6196H14.0983V23.6196H11.1883V16.6196ZM14.6258 16.6196H15.7258V23.6196H14.6258V16.6196ZM18.0996 23.7196C17.573 23.7196 17.1696 23.5696 16.8896 23.2696C16.6163 22.9696 16.4796 22.5463 16.4796 21.9996V18.2396C16.4796 17.693 16.6163 17.2696 16.8896 16.9696C17.1696 16.6696 17.573 16.5196 18.0996 16.5196C18.6263 16.5196 19.0263 16.6696 19.2996 16.9696C19.5796 17.2696 19.7196 17.693 19.7196 18.2396V18.9796H18.6796V18.1696C18.6796 17.7363 18.4963 17.5196 18.1296 17.5196C17.763 17.5196 17.5796 17.7363 17.5796 18.1696V22.0796C17.5796 22.5063 17.763 22.7196 18.1296 22.7196C18.4963 22.7196 18.6796 22.5063 18.6796 22.0796V21.0096H19.7196V21.9996C19.7196 22.5463 19.5796 22.9696 19.2996 23.2696C19.0263 23.5696 18.6263 23.7196 18.0996 23.7196ZM20.3778 16.6196H23.3778V17.6196H21.4778V19.4696H22.9878V20.4696H21.4778V22.6196H23.3778V23.6196H20.3778V16.6196ZM24.0106 16.6196H25.3906L26.4606 20.8096H26.4806V16.6196H27.4606V23.6196H26.3306L25.0106 18.5096H24.9906V23.6196H24.0106V16.6196ZM29.7082 23.7196C29.1748 23.7196 28.7715 23.5696 28.4982 23.2696C28.2248 22.963 28.0882 22.5263 28.0882 21.9596V21.5596H29.1282V22.0396C29.1282 22.493 29.3182 22.7196 29.6982 22.7196C29.8848 22.7196 30.0248 22.6663 30.1182 22.5596C30.2182 22.4463 30.2682 22.2663 30.2682 22.0196C30.2682 21.7263 30.2015 21.4696 30.0682 21.2496C29.9348 21.023 29.6882 20.753 29.3282 20.4396C28.8748 20.0396 28.5582 19.6796 28.3782 19.3596C28.1982 19.033 28.1082 18.6663 28.1082 18.2596C28.1082 17.7063 28.2482 17.2796 28.5282 16.9796C28.8082 16.673 29.2148 16.5196 29.7482 16.5196C30.2748 16.5196 30.6715 16.673 30.9382 16.9796C31.2115 17.2796 31.3482 17.713 31.3482 18.2796V18.5696H30.3082V18.2096C30.3082 17.9696 30.2615 17.7963 30.1682 17.6896C30.0748 17.5763 29.9382 17.5196 29.7582 17.5196C29.3915 17.5196 29.2082 17.743 29.2082 18.1896C29.2082 18.443 29.2748 18.6796 29.4082 18.8996C29.5482 19.1196 29.7982 19.3863 30.1582 19.6996C30.6182 20.0996 30.9348 20.463 31.1082 20.7896C31.2815 21.1163 31.3682 21.4996 31.3682 21.9396C31.3682 22.513 31.2248 22.953 30.9382 23.2596C30.6582 23.5663 30.2482 23.7196 29.7082 23.7196ZM31.9989 16.6196H34.9989V17.6196H33.0989V19.4696H34.6089V20.4696H33.0989V22.6196H34.9989V23.6196H31.9989V16.6196Z" fill="white"/>
</svg>
