<svg width="46" height="26" viewBox="0 0 46 26" fill="none" xmlns="http://www.w3.org/2000/svg">
<rect width="46" height="26" rx="4" fill="#5499F5"/>
<path d="M7.90219 4H10.9022V5H9.00219V6.85H10.5122V7.85H9.00219V10H10.9022V11H7.90219V4ZM12.5245 7.42L11.3145 4H12.4745L13.2145 6.26H13.2345L13.9945 4H15.0345L13.8245 7.42L15.0945 11H13.9345L13.1345 8.56H13.1145L12.2945 11H11.2545L12.5245 7.42ZM16.477 5H15.327V4H18.727V5H17.577V11H16.477V5ZM19.2596 4H22.2596V5H20.3596V6.85H21.8696V7.85H20.3596V10H22.2596V11H19.2596V4ZM22.8924 4H24.2724L25.3424 8.19H25.3624V4H26.3424V11H25.2124L23.8924 5.89H23.8724V11H22.8924V4ZM27.16 4H28.84C29.3867 4 29.7967 4.14667 30.07 4.44C30.3433 4.73333 30.48 5.16333 30.48 5.73V9.27C30.48 9.83667 30.3433 10.2667 30.07 10.56C29.7967 10.8533 29.3867 11 28.84 11H27.16V4ZM28.82 10C29 10 29.1367 9.94667 29.23 9.84C29.33 9.73333 29.38 9.56 29.38 9.32V5.68C29.38 5.44 29.33 5.26667 29.23 5.16C29.1367 5.05333 29 5 28.82 5H28.26V10H28.82ZM31.2225 4H34.2225V5H32.3225V6.85H33.8325V7.85H32.3225V10H34.2225V11H31.2225V4ZM34.8553 4H36.5353C37.082 4 37.492 4.14667 37.7653 4.44C38.0386 4.73333 38.1753 5.16333 38.1753 5.73V9.27C38.1753 9.83667 38.0386 10.2667 37.7653 10.56C37.492 10.8533 37.082 11 36.5353 11H34.8553V4ZM36.5153 10C36.6953 10 36.832 9.94667 36.9253 9.84C37.0253 9.73333 37.0753 9.56 37.0753 9.32V5.68C37.0753 5.44 37.0253 5.26667 36.9253 5.16C36.832 5.05333 36.6953 5 36.5153 5H35.9553V10H36.5153ZM11.1883 16H12.2883V22H14.0983V23H11.1883V16ZM14.6258 16H15.7258V23H14.6258V16ZM18.0996 23.1C17.573 23.1 17.1696 22.95 16.8896 22.65C16.6163 22.35 16.4796 21.9267 16.4796 21.38V17.62C16.4796 17.0733 16.6163 16.65 16.8896 16.35C17.1696 16.05 17.573 15.9 18.0996 15.9C18.6263 15.9 19.0263 16.05 19.2996 16.35C19.5796 16.65 19.7196 17.0733 19.7196 17.62V18.36H18.6796V17.55C18.6796 17.1167 18.4963 16.9 18.1296 16.9C17.763 16.9 17.5796 17.1167 17.5796 17.55V21.46C17.5796 21.8867 17.763 22.1 18.1296 22.1C18.4963 22.1 18.6796 21.8867 18.6796 21.46V20.39H19.7196V21.38C19.7196 21.9267 19.5796 22.35 19.2996 22.65C19.0263 22.95 18.6263 23.1 18.0996 23.1ZM20.3778 16H23.3778V17H21.4778V18.85H22.9878V19.85H21.4778V22H23.3778V23H20.3778V16ZM24.0106 16H25.3906L26.4606 20.19H26.4806V16H27.4606V23H26.3306L25.0106 17.89H24.9906V23H24.0106V16ZM29.7082 23.1C29.1748 23.1 28.7715 22.95 28.4982 22.65C28.2248 22.3433 28.0882 21.9067 28.0882 21.34V20.94H29.1282V21.42C29.1282 21.8733 29.3182 22.1 29.6982 22.1C29.8848 22.1 30.0248 22.0467 30.1182 21.94C30.2182 21.8267 30.2682 21.6467 30.2682 21.4C30.2682 21.1067 30.2015 20.85 30.0682 20.63C29.9348 20.4033 29.6882 20.1333 29.3282 19.82C28.8748 19.42 28.5582 19.06 28.3782 18.74C28.1982 18.4133 28.1082 18.0467 28.1082 17.64C28.1082 17.0867 28.2482 16.66 28.5282 16.36C28.8082 16.0533 29.2148 15.9 29.7482 15.9C30.2748 15.9 30.6715 16.0533 30.9382 16.36C31.2115 16.66 31.3482 17.0933 31.3482 17.66V17.95H30.3082V17.59C30.3082 17.35 30.2615 17.1767 30.1682 17.07C30.0748 16.9567 29.9382 16.9 29.7582 16.9C29.3915 16.9 29.2082 17.1233 29.2082 17.57C29.2082 17.8233 29.2748 18.06 29.4082 18.28C29.5482 18.5 29.7982 18.7667 30.1582 19.08C30.6182 19.48 30.9348 19.8433 31.1082 20.17C31.2815 20.4967 31.3682 20.88 31.3682 21.32C31.3682 21.8933 31.2248 22.3333 30.9382 22.64C30.6582 22.9467 30.2482 23.1 29.7082 23.1ZM31.9989 16H34.9989V17H33.0989V18.85H34.6089V19.85H33.0989V22H34.9989V23H31.9989V16Z" fill="white"/>
</svg>
