<svg width="42" height="43" viewBox="0 0 42 43" fill="none" xmlns="http://www.w3.org/2000/svg">
<g id="fi_3664536">
<g id="Layer_2_1_">
<g id="Layer_2-2">
<g id="_04.baby-carriage">
<path id="_Path_" d="M13.7332 6.35698C12.9772 5.22298 11.4652 4.88698 10.3312 5.64298C10.2892 5.68498 10.2472 5.68498 10.2052 5.72698C6.46721 8.62498 4.28321 13.077 4.24121 17.781H20.9992L13.7332 6.35698Z" fill="#FF209E"/>
<path id="_Path_2" d="M36.7075 11.5229H33.5575C31.2475 11.5229 29.3575 13.4129 29.3575 15.7229V19.9229H4.24153C4.24153 23.2409 5.75353 26.2229 8.18953 28.4909C5.37553 29.1629 3.61153 32.0189 4.28353 34.8749C4.95553 37.7309 7.81153 39.4529 10.6675 38.7809C13.4815 38.1089 15.2455 35.253 14.5735 32.3969C14.5315 32.229 14.4895 32.0609 14.4475 31.9349C17.3875 32.7329 20.4535 32.7329 23.3935 31.9349C23.2255 32.4809 23.0995 33.0269 23.0995 33.5729C23.0995 36.4709 25.4095 38.8229 28.3075 38.8229C31.2055 38.8229 33.5575 36.5129 33.5575 33.6149C33.5575 31.2209 31.9195 29.1209 29.6095 28.5329C32.0455 26.3069 33.5575 23.2829 33.5575 19.9649V15.6809H36.7075C37.2955 15.6809 37.7575 15.2189 37.7575 14.6309V12.5309C37.7575 11.9849 37.2955 11.5229 36.7075 11.5229ZM9.49153 35.5889C8.31553 35.5889 7.39153 34.6649 7.39153 33.489C7.39153 32.313 8.31553 31.389 9.49153 31.389C10.6675 31.389 11.5915 32.313 11.5915 33.489C11.5915 34.6649 10.6255 35.5889 9.49153 35.5889ZM30.4075 33.489C30.4075 34.6649 29.4835 35.5889 28.3075 35.5889C27.1315 35.5889 26.2075 34.6649 26.2075 33.489C26.2075 32.313 27.1315 31.389 28.3075 31.389C29.4835 31.389 30.4075 32.3549 30.4075 33.489Z" fill="#FF209E"/>
</g>
</g>
</g>
</g>
</svg>
