<svg width="42" height="43" viewBox="0 0 42 43" fill="none" xmlns="http://www.w3.org/2000/svg">
<g id="fi_3730493" clip-path="url(#clip0_168_1177)">
<path id="Vector" d="M20.755 18.3585H20.7725L29.3475 15.436C29.3825 15.2785 29.3825 15.121 29.3825 14.981C29.3825 14.8235 29.365 14.6835 29.3125 14.5435C29.1725 14.141 28.91 13.7035 28.5425 13.3885V9.55596C28.5425 6.72096 27.5275 5.60096 26.4775 4.95346C25.935 3.30846 23.6775 0.980957 19.25 0.980957C14 0.980957 10.045 6.17846 10.045 9.55596C10.045 10.956 9.99254 12.0585 9.94004 12.8985C9.94004 13.0735 9.92254 13.231 9.92254 13.371C9.53755 13.721 9.27504 14.1935 9.15254 14.6485C9.13505 14.7535 9.11755 14.8585 9.11755 14.981C9.11755 16.346 9.88754 18.3235 9.99255 18.551C10.0975 18.8485 10.325 19.0935 10.6225 19.2335C10.64 19.3035 10.6575 19.4085 10.6575 19.6185C10.6575 21.4735 12.25 23.2235 13.125 24.0635C13.0375 25.9885 12.495 27.3185 11.725 27.651L4.86504 29.926C2.92254 30.5735 1.47004 32.1485 0.962544 34.1435L0.0350443 37.8535C-0.0524557 38.2385 0.0350443 38.6585 0.280044 38.9735C0.525044 39.2885 0.910044 39.481 1.31254 39.481H20.93C20.405 38.816 19.915 38.081 19.46 37.2935C18.305 35.246 17.5 32.761 17.5 29.9435V22.926C17.5 20.861 18.8125 19.041 20.755 18.3585Z" fill="#FF209E"/>
<path id="Vector_2" d="M41.1092 21.6764L31.9217 18.5509C31.6487 18.4564 31.3513 18.4564 31.0783 18.5509L21.8907 21.6764C21.357 21.8566 21 22.3554 21 22.9189V29.9504C21 38.5324 30.5795 42.7044 30.9873 42.8776C31.3163 43.0159 31.6837 43.0159 32.0127 42.8776C32.4205 42.7026 42 38.5324 42 29.9504V22.9189C42 22.3554 41.643 21.8566 41.1092 21.6764ZM37.2505 28.3124L32.438 34.4374C31.8255 35.2196 30.6775 35.3334 29.9233 34.6859L26.8608 32.0609C26.1258 31.4326 26.04 30.3266 26.6718 29.5934C27.3 28.8601 28.406 28.7761 29.1375 29.4044L30.814 30.8411L34.4977 26.1529C35.0945 25.3934 36.1935 25.2586 36.9548 25.8589C37.716 26.4521 37.849 27.5529 37.2505 28.3124Z" fill="#FF209E"/>
</g>
<defs>
<clipPath id="clip0_168_1177">
<rect width="42" height="42" fill="white" transform="translate(0 0.980957)"/>
</clipPath>
</defs>
</svg>
