<svg width="42" height="43" viewBox="0 0 42 43" fill="none" xmlns="http://www.w3.org/2000/svg">
<path d="M10.8545 12.3867C11.6333 12.3867 12.3945 12.1558 13.042 11.7231C13.6896 11.2905 14.1942 10.6755 14.4923 9.95604C14.7903 9.23655 14.8683 8.44485 14.7163 7.68105C14.5644 6.91725 14.1894 6.21566 13.6387 5.66499C13.0881 5.11432 12.3865 4.73931 11.6227 4.58738C10.8589 4.43545 10.0672 4.51342 9.34768 4.81144C8.62819 5.10946 8.01324 5.61414 7.58058 6.26166C7.14792 6.90918 6.91699 7.67046 6.91699 8.44922C6.91699 9.49351 7.33183 10.495 8.07026 11.2335C8.80868 11.9719 9.8102 12.3867 10.8545 12.3867Z" fill="#FF209E"/>
<path d="M13.3218 13.8961H8.3868C7.11679 13.839 5.87595 14.2877 4.93617 15.1439C3.99638 16 3.43429 17.1938 3.37305 18.4636V25.0261C3.39364 25.7597 3.64235 26.4687 4.08459 27.0544C4.52682 27.6401 5.14059 28.0735 5.84055 28.2942V36.6417C5.82112 36.9918 5.87204 37.3423 5.99031 37.6725C6.10858 38.0026 6.2918 38.3057 6.52915 38.5638C6.7665 38.822 7.05316 39.0299 7.37222 39.1755C7.69128 39.321 8.03626 39.4011 8.3868 39.4111H13.3218C13.6712 39.3994 14.0148 39.318 14.3323 39.1717C14.6498 39.0255 14.9349 38.8172 15.1709 38.5592C15.4069 38.3013 15.5889 37.9988 15.7064 37.6695C15.8238 37.3402 15.8743 36.9908 15.8549 36.6417V28.2417C16.5657 28.0319 17.192 27.6029 17.6446 27.016C18.0971 26.4292 18.3527 25.7143 18.3749 24.9736V18.4111C18.3004 17.1434 17.727 15.9568 16.7801 15.1108C15.8332 14.2647 14.5898 13.828 13.3218 13.8961Z" fill="#FF209E"/>
<path d="M29.2291 12.6232C31.3964 12.6232 33.1534 10.8662 33.1534 8.69879C33.1534 6.53142 31.3964 4.77441 29.2291 4.77441C27.0617 4.77441 25.3047 6.53142 25.3047 8.69879C25.3047 10.8662 27.0617 12.6232 29.2291 12.6232Z" fill="#FF209E"/>
<path d="M38.3513 27.5595L35.3063 22.5457V18.2145C35.3418 17.0722 34.9244 15.9622 34.1451 15.1263C33.3658 14.2904 32.2876 13.7964 31.1457 13.752H27.3001C26.1581 13.7964 25.08 14.2904 24.3007 15.1263C23.5213 15.9622 23.1039 17.0722 23.1394 18.2145V22.5457L20.1994 27.3495L20.1076 27.5595C19.8648 28.1621 19.7749 28.8154 19.8458 29.4612C19.9168 30.107 20.1465 30.7252 20.5144 31.2607C20.8334 31.7423 21.2662 32.1379 21.7743 32.4126C22.2825 32.6873 22.8505 32.8326 23.4282 32.8357H26.6832V36.222C26.5586 36.6033 26.5176 37.0069 26.5629 37.4055C26.6082 37.8041 26.7388 38.1883 26.9457 38.532C27.0825 38.7343 27.2661 38.9008 27.4808 39.0173C27.6956 39.1338 27.9352 39.1969 28.1794 39.2013H30.2663C30.5106 39.1969 30.7502 39.1338 30.9649 39.0173C31.1797 38.9008 31.3632 38.7343 31.5001 38.532C31.71 38.1896 31.8433 37.8059 31.8909 37.4071C31.9385 37.0084 31.8992 36.6041 31.7757 36.222V32.8357H35.0176C35.5954 32.8338 36.1639 32.689 36.6723 32.4142C37.1806 32.1394 37.6132 31.7431 37.9313 31.2607C38.3014 30.7264 38.5334 30.1087 38.6067 29.4629C38.68 28.8171 38.5922 28.1631 38.3513 27.5595Z" fill="#FF209E"/>
</svg>
