<svg width="32" height="33" viewBox="0 0 32 33" fill="none" xmlns="http://www.w3.org/2000/svg">
<g clip-path="url(#clip0_168_2703)">
<path d="M16.0003 22.4205C18.8393 22.4173 21.14 20.1166 21.1431 17.2776C21.1431 13.9285 18.3649 10.8073 16.7049 8.94277C16.4306 8.63477 16.1906 8.36334 15.9997 8.13477C15.8111 8.36334 15.57 8.63477 15.2957 8.94277C13.6357 10.8073 10.8574 13.9285 10.8574 17.2776C10.8606 20.1166 13.1613 22.4173 16.0003 22.4205ZM12.5717 16.7062C12.8873 16.7062 13.1431 16.962 13.1431 17.2776C13.145 18.8548 14.4231 20.1329 16.0003 20.1348C16.3159 20.1348 16.5717 20.3906 16.5717 20.7062C16.5717 21.0218 16.3159 21.2776 16.0003 21.2776C13.7922 21.2751 12.0028 19.4857 12.0003 17.2776C12.0003 16.962 12.2561 16.7062 12.5717 16.7062Z" fill="#FF209E"/>
<path d="M22.2629 16.8027C22.2731 16.9604 22.2857 17.1182 22.2857 17.2776C22.2851 17.5044 22.2723 17.731 22.2474 17.9564C26.8651 19.013 29.7143 21.1353 29.7143 23.5633C29.7143 27.0879 23.6903 29.849 16 29.849C13.6381 29.8636 11.2841 29.5756 8.99543 28.9919C8.79812 28.9392 8.64389 28.7853 8.59085 28.5881C8.53781 28.3908 8.59401 28.1803 8.73828 28.0358C8.88255 27.8912 9.09297 27.8346 9.29029 27.8873C11.4827 28.4457 13.7376 28.7209 16 28.7062C22.8143 28.7062 28.5714 26.3507 28.5714 23.5633C28.5714 21.7576 25.9594 19.9862 22.0206 19.0759C21.9081 19.449 21.761 19.8108 21.5811 20.1564C24.2177 20.8324 25.7143 21.9422 25.7143 23.2547C25.7143 23.8833 25.3606 24.8102 23.6766 25.621C23.4916 25.7197 23.2674 25.7091 23.0925 25.5934C22.9176 25.4777 22.8201 25.2756 22.8385 25.0667C22.8569 24.8578 22.9882 24.6758 23.1806 24.5924C24.0646 24.1656 24.5714 23.6776 24.5714 23.2547C24.5714 22.6422 23.4246 21.7484 20.9246 21.1724C19.7363 22.6822 17.9213 23.5635 16 23.5635C14.0787 23.5635 12.2637 22.6822 11.0754 21.1724C8.57543 21.7484 7.42857 22.6422 7.42857 23.2547C7.42857 24.3404 10.6891 25.849 16 25.849C17.3078 25.8545 18.6137 25.7502 19.904 25.537C20.1053 25.5027 20.3096 25.5784 20.4399 25.7356C20.5703 25.8928 20.6069 26.1075 20.5359 26.299C20.465 26.4905 20.2973 26.6296 20.096 26.6639C18.7423 26.8878 17.3721 26.9975 16 26.9919C11.2909 26.9919 6.28571 25.6822 6.28571 23.2547C6.28571 21.9404 7.78229 20.8324 10.4189 20.1564C10.239 19.8108 10.0919 19.449 9.97943 19.0759C6.04057 19.9862 3.42857 21.7576 3.42857 23.5633C3.42857 24.6302 4.33771 25.7142 5.988 26.6164C6.25684 26.7715 6.35276 27.1128 6.20406 27.3852C6.05536 27.6576 5.71641 27.7616 5.44057 27.6193C3.37657 26.4913 2.28571 25.089 2.28571 23.5633C2.28571 21.1353 5.13486 19.013 9.75257 17.9564C9.72766 17.731 9.71488 17.5044 9.71429 17.2776C9.71429 17.1182 9.72686 16.9604 9.73714 16.8027C3.88572 18.0633 0 20.9604 0 24.1433C0 28.5502 7.17771 32.1347 16 32.1347C24.8223 32.1347 32 28.5502 32 24.1433C32 20.9604 28.1143 18.0633 22.2629 16.8027Z" fill="#FF209E"/>
<path d="M22.6466 8.00908C22.7095 8.01423 22.7672 8.00908 22.8284 8.01251C23.433 7.04519 24.4057 6.36595 25.5221 6.13137C25.3783 5.90377 25.2054 5.69592 25.0078 5.51308C24.9952 5.50108 24.9866 5.48908 24.9729 5.47708C24.9232 5.43251 24.8586 5.39251 24.8015 5.34908C24.3895 5.02942 23.9065 4.8138 23.3935 4.72051C23.2512 4.69594 23.0866 4.67251 22.9152 4.6588C21.6872 4.48926 20.473 5.05062 19.8066 6.09594C20.2961 7.23547 21.4067 7.98357 22.6466 8.00908Z" fill="#FF209E"/>
<path d="M23.9421 3.67387C23.965 3.67958 23.9844 3.68872 24.0073 3.69501C24.0913 3.71844 24.1696 3.74587 24.249 3.7733C25.2321 4.09191 26.0614 4.76517 26.5753 5.66187C27.1444 4.97629 27.3924 4.07962 27.2564 3.19901C27.2383 3.03834 27.2101 2.87897 27.1718 2.72187C26.9532 1.50249 26.0436 0.522567 24.8438 0.213867C23.9092 1.03035 23.5396 2.31866 23.8993 3.50644C23.913 3.56358 23.9273 3.62072 23.9421 3.67387Z" fill="#FF209E"/>
<path d="M23.6448 8.86446C23.5657 9.0051 23.4958 9.15074 23.4356 9.30046C22.8931 10.4161 23.0531 11.7459 23.8448 12.701C25.0787 12.5898 26.133 11.7658 26.5391 10.5953C26.5648 10.5347 26.5802 10.4782 26.6019 10.4187C25.8665 9.54479 25.5208 8.40788 25.6454 7.27246C24.7817 7.49299 24.0536 8.07238 23.6448 8.86446Z" fill="#FF209E"/>
<path d="M29.8934 6.40279C29.9058 6.39658 29.9186 6.39104 29.9317 6.38621C30.0666 6.32455 30.1977 6.25471 30.3242 6.17707C31.4184 5.59301 32.0709 4.42409 31.9939 3.18621C30.9284 2.55127 29.5897 2.59911 28.5722 3.3085C28.5179 3.34164 28.4717 3.37764 28.4197 3.4125C28.5024 4.54995 28.1149 5.67155 27.3477 6.51536C28.1733 6.84326 29.0999 6.80229 29.8934 6.40279Z" fill="#FF209E"/>
<path d="M30.2036 7.68855C30.1516 7.64341 30.1019 7.61026 30.0505 7.56969C29.5527 7.76756 29.0227 7.87179 28.487 7.87712C27.896 7.87518 27.3119 7.74902 26.7727 7.50684C26.7123 8.39836 27.0386 9.27275 27.6682 9.90684C27.7785 10.0235 27.8947 10.1345 28.0162 10.2394C28.9078 11.0983 30.2185 11.3582 31.3705 10.9046C31.6485 9.69632 31.1917 8.43739 30.2036 7.68855Z" fill="#FF209E"/>
<path d="M3.06096 9.92188C3.05181 9.92988 3.04267 9.93559 3.03353 9.94359C2.39266 10.4273 2.07864 11.2306 2.22153 12.0207C2.97792 12.2816 3.81673 12.0964 4.39296 11.5413C4.47771 11.4699 4.55823 11.3935 4.6341 11.3127C4.99816 10.944 5.21238 10.4533 5.23524 9.93559C4.89219 10.0567 4.53106 10.1187 4.16724 10.119C3.78992 10.117 3.41573 10.0504 3.06096 9.92188Z" fill="#FF209E"/>
<path d="M2.92251 8.60081C3.00778 8.65262 3.09592 8.69955 3.18651 8.74138L3.21793 8.75452C3.67989 8.98614 4.21142 9.03787 4.70936 8.89967C4.24794 8.3101 4.01244 7.57503 4.04536 6.82709C4.03565 6.82081 4.02765 6.81452 4.01793 6.80881C3.35906 6.3488 2.49754 6.29822 1.78936 6.67795C1.77594 7.48086 2.21362 8.22356 2.92251 8.60081Z" fill="#FF209E"/>
<path d="M5.68523 7.86967C5.70809 7.84109 5.73209 7.81252 5.75666 7.78452C5.83939 7.68815 5.92794 7.59693 6.0218 7.51138C6.04238 7.49252 6.06409 7.47538 6.08523 7.45709C6.20087 7.35652 6.32409 7.26501 6.4538 7.18338C6.4698 7.17309 6.48752 7.16395 6.50409 7.15424C6.65925 7.05937 6.82234 6.97812 6.99152 6.91138C6.99952 6.90795 7.00866 6.90567 7.01723 6.90281C7.10809 6.86738 7.20123 6.83424 7.30295 6.80567C7.30295 6.79538 7.30809 6.78567 7.31038 6.77538C7.54129 6.00771 7.32206 5.1754 6.74295 4.62109C5.9767 4.85571 5.40631 5.49958 5.2658 6.28852C5.24016 6.39159 5.22108 6.49618 5.20866 6.60167C5.12864 7.11911 5.24172 7.64792 5.52638 8.08738C5.57323 8.01424 5.62752 7.94224 5.68523 7.86967Z" fill="#FF209E"/>
<path d="M6.56055 8.60871C7.28171 8.81635 7.90591 9.27292 8.32226 9.89728H8.35255C9.15457 9.87979 9.87925 9.41462 10.2291 8.69271C9.76836 8.03656 8.97927 7.69331 8.18512 7.80357C8.07083 7.81271 7.95655 7.82928 7.85483 7.84643C7.34438 7.93282 6.88363 8.20419 6.56055 8.60871Z" fill="#FF209E"/>
<path d="M5.7095 11.8546C5.9718 12.6123 6.63787 13.1582 7.43236 13.2666C7.91698 12.6279 8.00137 11.771 7.65065 11.05C7.6099 10.9482 7.56256 10.8491 7.50893 10.7534C7.26923 10.2915 6.86761 9.93426 6.38093 9.75C6.40889 10.5007 6.16705 11.2365 5.69922 11.8243C5.70322 11.8346 5.7055 11.8443 5.7095 11.8546Z" fill="#FF209E"/>
</g>
<defs>
<clipPath id="clip0_168_2703">
<rect width="32" height="32" fill="white" transform="translate(0 0.134766)"/>
</clipPath>
</defs>
</svg>
