<svg width="32" height="33" viewBox="0 0 32 33" fill="none" xmlns="http://www.w3.org/2000/svg">
<g clip-path="url(#clip0_168_2824)">
<path d="M15.1648 14.8556L9.38277 12.1934L9.23047 20.2005L10.3076 20.6964L15.1458 15.8582L15.1648 14.8556Z" fill="#FF209E"/>
<path d="M9.1008 21.9028L8.0854 21.4354C7.7963 21.3026 7.614 21.0114 7.6198 20.6937L7.8052 10.9406C7.8115 10.6213 8.0068 10.3364 8.3021 10.2156L15.7943 7.14577C15.9964 7.06137 16.2271 7.06507 16.4287 7.15777L21.5266 9.47707L26.7211 4.28257C23.8825 1.71317 20.1302 0.134766 16 0.134766C7.1634 0.134766 0 7.29817 0 16.1348C0 20.265 1.5784 24.0173 4.1477 26.8559L9.1008 21.9028Z" fill="#FF209E"/>
<path d="M15.1005 18.165L11.8555 21.4101L15.0112 22.8629L15.1005 18.165Z" fill="#FF209E"/>
<path d="M27.8527 5.41406L23.082 10.1848L23.7983 10.5107C24.0889 10.643 24.2733 10.9352 24.2671 11.2539L24.0817 21.007C24.0755 21.3247 23.8817 21.6091 23.588 21.731L16.0958 24.8404C15.9974 24.881 15.8932 24.9013 15.789 24.9013C15.6749 24.9013 15.5604 24.8768 15.4546 24.8279L10.6505 22.6164L5.2793 27.9876C8.1179 30.5569 11.8702 32.1353 16.0004 32.1353C24.837 32.1353 32.0004 24.9719 32.0004 16.1353C32.0004 12.0051 30.422 8.25266 27.8527 5.41406Z" fill="#FF209E"/>
<path d="M10.6113 10.9982L15.9909 13.475L18.6195 12.3839L20.3189 10.6846L16.081 8.75684L10.6113 10.9982Z" fill="#FF209E"/>
<path d="M22.6435 12.4463L19.525 13.7407L16.7322 16.5336L16.6113 22.8935L22.4912 20.4532L22.6435 12.4463Z" fill="#FF209E"/>
</g>
<defs>
<clipPath id="clip0_168_2824">
<rect width="32" height="32" fill="white" transform="translate(0 0.134766)"/>
</clipPath>
</defs>
</svg>
