<svg width="32" height="33" viewBox="0 0 32 33" fill="none" xmlns="http://www.w3.org/2000/svg">
<g clip-path="url(#clip0_168_2624)">
<path d="M31.2745 27.4198L28.3595 14.4898C28.1816 13.5316 27.6824 12.6628 26.9444 12.0265C26.2063 11.3902 25.2734 11.0245 24.2995 10.9898C24.1322 10.9895 23.9651 11.0012 23.7995 11.0248C23.906 11.8692 23.9661 12.7188 23.9795 13.5698C24.3142 13.6908 24.6027 13.9135 24.8044 14.2067C25.0062 14.4999 25.1111 14.8489 25.1045 15.2048C25.1167 15.4247 25.084 15.6449 25.0082 15.8518C24.9325 16.0587 24.8153 16.2479 24.6639 16.408C24.5125 16.568 24.33 16.6955 24.1277 16.7826C23.9253 16.8698 23.7073 16.9147 23.487 16.9147C23.2667 16.9147 23.0487 16.8698 22.8463 16.7826C22.644 16.6955 22.4615 16.568 22.3101 16.408C22.1587 16.2479 22.0416 16.0587 21.9658 15.8518C21.89 15.6449 21.8573 15.4247 21.8695 15.2048C21.8629 14.8515 21.9661 14.505 22.1649 14.213C22.3638 13.921 22.6484 13.698 22.9795 13.5748C22.9682 12.8127 22.9181 12.0517 22.8295 11.2948C21.9208 11.6915 21.1747 12.3865 20.7145 13.2648L20.5395 13.5848C20.1149 14.4165 19.4716 15.1168 18.6787 15.6102C17.8857 16.1036 16.9733 16.3714 16.0395 16.3848H15.9395C15.0058 16.3708 14.0936 16.1028 13.3008 15.6095C12.508 15.1162 11.8645 14.4162 11.4395 13.5848L11.2695 13.2648C10.8074 12.3861 10.0596 11.6912 9.14951 11.2948C9.06092 12.0517 9.01086 12.8127 8.99951 13.5748C9.33059 13.698 9.61523 13.921 9.81407 14.213C10.0129 14.505 10.1162 14.8515 10.1095 15.2048C10.123 15.6474 9.96068 16.0773 9.65803 16.4006C9.35539 16.7238 8.93705 16.9141 8.49451 16.9298C8.05196 16.9141 7.63363 16.7238 7.33098 16.4006C7.02834 16.0773 6.86601 15.6474 6.87951 15.2048C6.8733 14.8497 6.9778 14.5015 7.1785 14.2085C7.3792 13.9155 7.66615 13.6922 7.99951 13.5698C8.01292 12.7188 8.07301 11.8692 8.17951 11.0248C8.01389 11.0012 7.8468 10.9895 7.67951 10.9898C6.70625 11.0248 5.77403 11.3906 5.03679 12.027C4.29954 12.6633 3.80136 13.5321 3.62451 14.4898L0.724507 27.4198C0.589637 28.0147 0.589223 28.6322 0.723296 29.2273C0.857369 29.8224 1.12255 30.3801 1.49951 30.8598C1.79892 31.2517 2.18375 31.5703 2.62474 31.7912C3.06574 32.0121 3.55129 32.1296 4.04451 32.1348H27.9595C28.4521 32.1304 28.9372 32.0132 29.3775 31.7921C29.8178 31.5711 30.2016 31.2522 30.4995 30.8598C30.8765 30.3801 31.1416 29.8224 31.2757 29.2273C31.4098 28.6322 31.4094 28.0147 31.2745 27.4198Z" fill="#FF209E"/>
<path d="M9.32594 10.2698C10.1859 4.98977 12.8559 1.13477 16.0009 1.13477C19.1459 1.13477 21.8159 4.98977 22.6759 10.2698C22.7359 10.6048 22.7809 10.9398 22.8209 11.2698C23.131 11.1375 23.4571 11.0467 23.7909 10.9998C23.7509 10.6664 23.7009 10.3331 23.6409 9.99977C22.6609 4.30977 19.6109 0.134766 16.0009 0.134766C12.3909 0.134766 9.34094 4.30977 8.36094 10.0248C8.30094 10.3581 8.25094 10.6914 8.21094 11.0248C8.54474 11.0717 8.87089 11.1625 9.18094 11.2948C9.22094 10.9398 9.26594 10.6048 9.32594 10.2698Z" fill="#FF209E"/>
<path d="M23.5006 15.9196C23.6743 15.8945 23.8332 15.8077 23.9481 15.675C24.063 15.5423 24.1263 15.3726 24.1263 15.1971C24.1263 15.0216 24.063 14.8519 23.9481 14.7192C23.8332 14.5866 23.6743 14.4997 23.5006 14.4746C23.3269 14.4997 23.168 14.5866 23.0531 14.7192C22.9382 14.8519 22.875 15.0216 22.875 15.1971C22.875 15.3726 22.9382 15.5423 23.0531 15.675C23.168 15.8077 23.3269 15.8945 23.5006 15.9196Z" fill="#FF209E"/>
<path d="M8.52406 15.9196C8.69779 15.8945 8.85665 15.8077 8.97155 15.675C9.08645 15.5423 9.14969 15.3726 9.14969 15.1971C9.14969 15.0216 9.08645 14.8519 8.97155 14.7192C8.85665 14.5866 8.69779 14.4997 8.52406 14.4746C8.35034 14.4997 8.19148 14.5866 8.07658 14.7192C7.96168 14.8519 7.89844 15.0216 7.89844 15.1971C7.89844 15.3726 7.96168 15.5423 8.07658 15.675C8.19148 15.8077 8.35034 15.8945 8.52406 15.9196Z" fill="#FF209E"/>
</g>
<defs>
<clipPath id="clip0_168_2624">
<rect width="32" height="32" fill="white" transform="translate(0 0.134766)"/>
</clipPath>
</defs>
</svg>
