<svg width="32" height="33" viewBox="0 0 32 33" fill="none" xmlns="http://www.w3.org/2000/svg">
<g clip-path="url(#clip0_168_2438)">
<path d="M23.052 14.1194H23.0794C26.1196 14.1051 28.5883 11.6271 28.5883 8.58314C28.5883 6.91193 27.6843 5.53869 26.5902 4.04571L23.052 -0.464844L19.5137 4.04571C18.4197 5.53857 17.5156 6.91174 17.5156 8.58308C17.5156 11.6358 19.9992 14.1194 23.052 14.1194Z" fill="#FF209E"/>
<path d="M23.0544 15.9946L23.0212 15.9945C18.9494 15.9771 15.6422 12.6592 15.6422 8.58326C15.6422 7.57332 15.8705 6.67043 16.2351 5.82711L14.1789 3.20557L6.93478 12.4404L6.91641 12.4647C5.0697 14.9833 3.41211 17.5136 3.41211 20.7684C3.41211 26.6912 8.21903 31.5123 14.1365 31.5352L14.1804 31.5354C20.1165 31.5354 24.9459 26.7054 24.9459 20.7686C24.9459 18.9902 24.4505 17.4282 23.7003 15.9662C23.4873 15.9846 23.272 15.9946 23.0544 15.9946Z" fill="#FF209E"/>
</g>
<defs>
<clipPath id="clip0_168_2438">
<rect width="32" height="32" fill="white" transform="translate(0 0.134766)"/>
</clipPath>
</defs>
</svg>
