<svg width="375" height="219" viewBox="0 0 375 219" fill="none" xmlns="http://www.w3.org/2000/svg">
<path d="M-36.213 148.314C-45.2623 139.296 -45.2623 174.673 -36.213 165.655L-27.5125 156.985L27.0559 211.367C36.1053 220.385 50.776 220.383 59.8253 211.367L75.0746 196.168C84.1239 187.15 98.7968 187.15 107.846 196.168L123.095 211.367C132.145 220.383 146.815 220.383 155.865 211.367L171.114 196.168C180.163 187.15 194.836 187.15 203.885 196.168L219.135 211.365C228.184 220.383 242.855 220.383 251.904 211.365L267.153 196.168C276.202 187.15 290.873 187.15 299.925 196.168L315.174 211.365C324.221 220.383 338.894 220.383 347.943 211.365L402.513 156.984L411.213 165.655C420.262 174.673 420.262 139.296 411.213 148.314L402.513 156.984L395.964 150.458C386.915 141.44 386.915 126.819 395.964 117.801L411.213 102.604C420.262 93.5855 420.262 78.9628 411.213 69.9445L347.943 6.89362C338.894 -2.12469 324.221 -2.12469 315.174 6.89362L299.925 22.0905C290.873 31.1088 276.202 31.1088 267.153 22.0905L251.904 6.89362C242.855 -2.12469 228.184 -2.12469 219.135 6.89362L203.885 22.0905C194.836 31.1088 180.163 31.1088 171.114 22.0905L155.865 6.89362C146.815 -2.12469 132.145 -2.12469 123.095 6.89362L107.846 22.0905C98.7968 31.1088 84.1239 31.1088 75.0746 22.0905L59.8253 6.89362C50.776 -2.12469 36.1053 -2.12469 27.0559 6.89362L-36.213 69.9445C-45.2623 78.9649 -45.2623 93.5855 -36.213 102.604L-20.9648 117.803C-11.9154 126.819 -11.9154 141.442 -20.9648 150.46L-27.5125 156.985L-36.213 148.314Z" fill="#F4A63E"/>
</svg>
