<svg width="32" height="33" viewBox="0 0 32 33" fill="none" xmlns="http://www.w3.org/2000/svg">
<path d="M24.7501 11.3898C26.2247 11.3898 27.4201 10.1944 27.4201 8.7198C27.4201 7.2452 26.2247 6.0498 24.7501 6.0498C23.2755 6.0498 22.0801 7.2452 22.0801 8.7198C22.0801 10.1944 23.2755 11.3898 24.7501 11.3898Z" fill="#FF209E"/>
<path d="M25.25 4.8027V3.9707C25.25 3.83809 25.1973 3.71092 25.1036 3.61715C25.0098 3.52338 24.8826 3.4707 24.75 3.4707C24.6174 3.4707 24.4902 3.52338 24.3964 3.61715C24.3027 3.71092 24.25 3.83809 24.25 3.9707V4.8027C24.25 4.93531 24.3027 5.06249 24.3964 5.15626C24.4902 5.25002 24.6174 5.3027 24.75 5.3027C24.8826 5.3027 25.0098 5.25002 25.1036 5.15626C25.1973 5.06249 25.25 4.93531 25.25 4.8027Z" fill="#FF209E"/>
<path d="M21.7441 5.00873C21.6977 4.96231 21.6426 4.92548 21.5819 4.90036C21.5212 4.87524 21.4562 4.8623 21.3906 4.8623C21.3249 4.8623 21.2599 4.87524 21.1992 4.90036C21.1386 4.92549 21.0835 4.96231 21.0371 5.00874C20.9906 5.05516 20.9538 5.11028 20.9287 5.17093C20.9036 5.23159 20.8906 5.2966 20.8906 5.36225C20.8906 5.42791 20.9036 5.49292 20.9287 5.55358C20.9538 5.61423 20.9906 5.66935 21.0371 5.71577L21.6255 6.30416C21.7194 6.39696 21.8463 6.44881 21.9783 6.44839C22.1104 6.44798 22.2369 6.39534 22.3303 6.30195C22.4237 6.20857 22.4763 6.08204 22.4767 5.94998C22.4771 5.81792 22.4253 5.69107 22.3325 5.59711L21.7441 5.00873Z" fill="#FF209E"/>
<path d="M20 8.2207C19.8674 8.2207 19.7402 8.27338 19.6464 8.36715C19.5527 8.46092 19.5 8.58809 19.5 8.7207C19.5 8.85331 19.5527 8.98049 19.6464 9.07426C19.7402 9.16803 19.8674 9.2207 20 9.2207H20.8323C20.9649 9.2207 21.0921 9.16803 21.1858 9.07426C21.2796 8.98049 21.3323 8.85331 21.3323 8.7207C21.3323 8.58809 21.2796 8.46092 21.1858 8.36715C21.0921 8.27338 20.9649 8.2207 20.8323 8.2207H20Z" fill="#FF209E"/>
<path d="M21.3906 12.5792C21.4563 12.5793 21.5214 12.5664 21.5821 12.5412C21.6428 12.5161 21.6979 12.4792 21.7444 12.4327L22.3327 11.8438C22.4256 11.7498 22.4775 11.6229 22.4771 11.4907C22.4767 11.3586 22.424 11.232 22.3305 11.1386C22.237 11.0451 22.1104 10.9925 21.9782 10.9922C21.8461 10.9919 21.7192 11.0438 21.6252 11.1368L21.0368 11.7257C20.967 11.7956 20.9194 11.8847 20.9002 11.9817C20.8809 12.0787 20.8909 12.1792 20.9287 12.2705C20.9666 12.3619 21.0307 12.4399 21.1129 12.4949C21.1951 12.5498 21.2917 12.5791 21.3906 12.5792Z" fill="#FF209E"/>
<path d="M25.25 13.4707V12.6387C25.25 12.5061 25.1973 12.3789 25.1036 12.2851C25.0098 12.1913 24.8826 12.1387 24.75 12.1387C24.6174 12.1387 24.4902 12.1913 24.3964 12.2851C24.3027 12.3789 24.25 12.5061 24.25 12.6387V13.4707C24.25 13.6033 24.3027 13.7305 24.3964 13.8243C24.4902 13.918 24.6174 13.9707 24.75 13.9707C24.8826 13.9707 25.0098 13.918 25.1036 13.8243C25.1973 13.7305 25.25 13.6033 25.25 13.4707Z" fill="#FF209E"/>
<path d="M28.1078 12.5799C28.2066 12.5799 28.3033 12.5506 28.3855 12.4956C28.4677 12.4407 28.5318 12.3626 28.5696 12.2713C28.6075 12.18 28.6174 12.0795 28.5982 11.9825C28.5789 11.8855 28.5314 11.7964 28.4615 11.7264L27.8731 11.1376C27.7792 11.0447 27.6523 10.9928 27.5202 10.9932C27.3881 10.9935 27.2615 11.0461 27.1681 11.1395C27.0747 11.2329 27.022 11.3594 27.0215 11.4915C27.021 11.6236 27.0728 11.7505 27.1656 11.8446L27.754 12.4334C27.8004 12.4799 27.8556 12.5168 27.9163 12.542C27.977 12.5671 28.0421 12.58 28.1078 12.5799Z" fill="#FF209E"/>
<path d="M29.5002 9.2207C29.6329 9.2207 29.76 9.16803 29.8538 9.07426C29.9476 8.98049 30.0002 8.85331 30.0002 8.7207C30.0002 8.58809 29.9476 8.46092 29.8538 8.36715C29.76 8.27338 29.6329 8.2207 29.5002 8.2207H28.668C28.5354 8.2207 28.4082 8.27338 28.3144 8.36715C28.2206 8.46092 28.168 8.58809 28.168 8.7207C28.168 8.85331 28.2206 8.98049 28.3144 9.07426C28.4082 9.16803 28.5354 9.2207 28.668 9.2207H29.5002Z" fill="#FF209E"/>
<path d="M27.873 6.30379L28.4614 5.71541C28.5079 5.66902 28.5449 5.61389 28.5701 5.5532C28.5954 5.49251 28.6084 5.42744 28.6084 5.36171C28.6085 5.29599 28.5956 5.23089 28.5705 5.17016C28.5453 5.10942 28.5085 5.05424 28.462 5.00776C28.4155 4.96128 28.3603 4.92443 28.2996 4.8993C28.2389 4.87417 28.1738 4.86127 28.108 4.86133C28.0423 4.86139 27.9772 4.8744 27.9165 4.89963C27.8559 4.92487 27.8007 4.96182 27.7543 5.00838L27.166 5.59675C27.1195 5.64317 27.0827 5.69828 27.0576 5.75894C27.0325 5.8196 27.0195 5.88461 27.0195 5.95026C27.0195 6.01592 27.0325 6.08093 27.0576 6.14159C27.0827 6.20224 27.1195 6.25736 27.166 6.30378C27.2124 6.35021 27.2675 6.38704 27.3282 6.41216C27.3888 6.43729 27.4538 6.45022 27.5195 6.45022C27.5851 6.45022 27.6501 6.43729 27.7108 6.41216C27.7715 6.38704 27.8266 6.35022 27.873 6.30379Z" fill="#FF209E"/>
<path d="M2.5 27.8C2.36739 27.8 2.24021 27.8527 2.14645 27.9464C2.05268 28.0402 2 28.1674 2 28.3C2 28.4326 2.05268 28.5598 2.14645 28.6535C2.24021 28.7473 2.36739 28.8 2.5 28.8H21.115C21.2476 28.8 21.3748 28.7473 21.4686 28.6535C21.5623 28.5598 21.615 28.4326 21.615 28.3C21.615 28.1674 21.5623 28.0402 21.4686 27.9464C21.3748 27.8527 21.2476 27.8 21.115 27.8H16.575V23.13H18.985C19.2324 23.1298 19.4754 23.0645 19.6896 22.9407C19.9038 22.8168 20.0817 22.6388 20.2053 22.4245C20.3289 22.2102 20.394 21.9671 20.3939 21.7197C20.3939 21.4723 20.3287 21.2292 20.205 21.015L18.84 18.655C19.0464 18.5967 19.2369 18.4921 19.3968 18.3492C19.5567 18.2062 19.682 18.0287 19.763 17.8301C19.844 17.6314 19.8786 17.417 19.8642 17.2029C19.8498 16.9889 19.7868 16.781 19.68 16.595L18.32 14.235C18.5258 14.1758 18.7154 14.0706 18.8745 13.9273C19.0337 13.7841 19.1582 13.6065 19.2386 13.4081C19.319 13.2097 19.3533 12.9955 19.3388 12.7819C19.3243 12.5683 19.2615 12.3607 19.155 12.175L16.05 6.78997C15.9265 6.57565 15.7487 6.39765 15.5345 6.27389C15.3204 6.15012 15.0774 6.08496 14.83 6.08496C14.5826 6.08496 14.3396 6.15012 14.1255 6.27389C13.9113 6.39765 13.7335 6.57565 13.61 6.78997L11.635 10.21L12.21 11.215L13.14 12.825C13.3537 13.1897 13.4663 13.6048 13.4663 14.0275C13.4663 14.4502 13.3537 14.8652 13.14 15.23C13.043 15.406 12.9218 15.5676 12.78 15.71L13.665 17.245C13.8787 17.6106 13.9913 18.0265 13.9913 18.45C13.9913 18.8735 13.8787 19.2893 13.665 19.655C13.565 19.8275 13.4441 19.9871 13.305 20.13L14.19 21.665C14.4037 22.0306 14.5163 22.4465 14.5163 22.87C14.5163 23.2935 14.4037 23.7093 14.19 24.075C14.1597 24.1313 14.1246 24.1848 14.085 24.235C13.8386 24.6034 13.4915 24.8932 13.085 25.07V27.8H9.69V24.28H12.105C12.3526 24.2811 12.596 24.2165 12.8104 24.0926C13.0248 23.9687 13.2024 23.7901 13.325 23.575C13.4494 23.3609 13.515 23.1176 13.515 22.87C13.515 22.6223 13.4494 22.3791 13.325 22.165L11.96 19.805C12.1669 19.7474 12.3579 19.6432 12.5183 19.5004C12.6787 19.3576 12.8042 19.1799 12.8853 18.981C12.9664 18.7822 13.0009 18.5674 12.9861 18.3531C12.9713 18.1388 12.9077 17.9308 12.8 17.745L11.435 15.385C11.6414 15.3267 11.8319 15.2221 11.9918 15.0792C12.1517 14.9362 12.277 14.7587 12.358 14.5601C12.439 14.3614 12.4736 14.147 12.4592 13.9329C12.4448 13.7189 12.3818 13.511 12.275 13.325L12.26 13.295H12.255L9.165 7.93997C9.04203 7.72573 8.86471 7.54773 8.65094 7.42395C8.43717 7.30017 8.19452 7.23499 7.9475 7.23499C7.70048 7.23499 7.45783 7.30017 7.24406 7.42395C7.03029 7.54773 6.85297 7.72573 6.73 7.93997L3.62 13.325C3.51317 13.511 3.45016 13.7189 3.43579 13.9329C3.42141 14.147 3.45603 14.3614 3.53703 14.5601C3.61802 14.7587 3.74325 14.9362 3.90319 15.0792C4.06313 15.2221 4.25356 15.3267 4.46 15.385L3.095 17.745C2.98734 17.9308 2.92368 18.1388 2.90889 18.3531C2.89409 18.5674 2.92857 18.7822 3.00966 18.981C3.09075 19.1799 3.21631 19.3576 3.37671 19.5004C3.53711 19.6432 3.72809 19.7474 3.935 19.805L2.57 22.165C2.44714 22.3796 2.3825 22.6227 2.3825 22.87C2.3825 23.1173 2.44714 23.3603 2.57 23.575C2.69262 23.7901 2.87021 23.9687 3.08458 24.0926C3.29896 24.2165 3.54241 24.2811 3.79 24.28H6.205V27.8H2.5Z" fill="#FF209E"/>
</svg>
