<svg width="32" height="33" viewBox="0 0 32 33" fill="none" xmlns="http://www.w3.org/2000/svg">
<g id="fi_16978081">
<path id="Vector" d="M24.3296 9.12305L20.8154 8.46338C20.3433 8.375 20 7.96191 20 7.48096V4.98096C20 4.70459 19.7764 4.48096 19.5 4.48096H12.5C12.2236 4.48096 12 4.70459 12 4.98096V7.48096C12 7.96191 11.6567 8.375 11.1841 8.46387L7.67041 9.12305C5.54395 9.52148 4 11.3813 4 13.5454V26.481C4 28.1353 5.34571 29.481 7 29.481H7.65872C10.8305 21.4507 8.07434 15.2521 8.04589 15.1899C7.93066 14.939 8.04052 14.6421 8.29101 14.5269C8.54247 14.4111 8.83838 14.5215 8.95409 14.7715C9.07669 15.0375 11.8471 21.2219 8.73282 29.481H23.2672C20.1529 21.2219 22.9233 15.0375 23.0459 14.7715C23.1616 14.5215 23.4575 14.4116 23.709 14.5269C23.9595 14.6421 24.0693 14.939 23.9541 15.1899C23.9257 15.2521 21.1695 21.4507 24.3413 29.481H25C26.6543 29.481 28 28.1353 28 26.481V13.5454C28 11.3813 26.4561 9.52148 24.3296 9.12305ZM11.5 25.481C11.2238 25.481 11 25.2571 11 24.981C11 24.7048 11.2238 24.481 11.5 24.481C11.7762 24.481 12 24.7048 12 24.981C12 25.2571 11.7762 25.481 11.5 25.481ZM11.5 21.481C11.2238 21.481 11 21.2571 11 20.981C11 20.7048 11.2238 20.481 11.5 20.481C11.7762 20.481 12 20.7048 12 20.981C12 21.2571 11.7762 21.481 11.5 21.481ZM11.5 17.481C11.2238 17.481 11 17.2571 11 16.981C11 16.7048 11.2238 16.481 11.5 16.481C11.7762 16.481 12 16.7048 12 16.981C12 17.2571 11.7762 17.481 11.5 17.481ZM11.5 13.481C11.2238 13.481 11 13.2571 11 12.981C11 12.7048 11.2238 12.481 11.5 12.481C11.7762 12.481 12 12.7048 12 12.981C12 13.2571 11.7762 13.481 11.5 13.481ZM14 27.481C13.7238 27.481 13.5 27.2571 13.5 26.981C13.5 26.7048 13.7238 26.481 14 26.481C14.2762 26.481 14.5 26.7048 14.5 26.981C14.5 27.2571 14.2762 27.481 14 27.481ZM14 23.481C13.7238 23.481 13.5 23.2571 13.5 22.981C13.5 22.7048 13.7238 22.481 14 22.481C14.2762 22.481 14.5 22.7048 14.5 22.981C14.5 23.2571 14.2762 23.481 14 23.481ZM14 19.481C13.7238 19.481 13.5 19.2571 13.5 18.981C13.5 18.7048 13.7238 18.481 14 18.481C14.2762 18.481 14.5 18.7048 14.5 18.981C14.5 19.2571 14.2762 19.481 14 19.481ZM14 15.481C13.7238 15.481 13.5 15.2571 13.5 14.981C13.5 14.7048 13.7238 14.481 14 14.481C14.2762 14.481 14.5 14.7048 14.5 14.981C14.5 15.2571 14.2762 15.481 14 15.481ZM14 11.481C13.7238 11.481 13.5 11.2571 13.5 10.981C13.5 10.7048 13.7238 10.481 14 10.481C14.2762 10.481 14.5 10.7048 14.5 10.981C14.5 11.2571 14.2762 11.481 14 11.481ZM16 25.481C15.7238 25.481 15.5 25.2571 15.5 24.981C15.5 24.7048 15.7238 24.481 16 24.481C16.2762 24.481 16.5 24.7048 16.5 24.981C16.5 25.2571 16.2762 25.481 16 25.481ZM16 21.481C15.7238 21.481 15.5 21.2571 15.5 20.981C15.5 20.7048 15.7238 20.481 16 20.481C16.2762 20.481 16.5 20.7048 16.5 20.981C16.5 21.2571 16.2762 21.481 16 21.481ZM16 17.481C15.7238 17.481 15.5 17.2571 15.5 16.981C15.5 16.7048 15.7238 16.481 16 16.481C16.2762 16.481 16.5 16.7048 16.5 16.981C16.5 17.2571 16.2762 17.481 16 17.481ZM16 13.481C15.7238 13.481 15.5 13.2571 15.5 12.981C15.5 12.7048 15.7238 12.481 16 12.481C16.2762 12.481 16.5 12.7048 16.5 12.981C16.5 13.2571 16.2762 13.481 16 13.481ZM18 27.481C17.7238 27.481 17.5 27.2571 17.5 26.981C17.5 26.7048 17.7238 26.481 18 26.481C18.2762 26.481 18.5 26.7048 18.5 26.981C18.5 27.2571 18.2762 27.481 18 27.481ZM18 23.481C17.7238 23.481 17.5 23.2571 17.5 22.981C17.5 22.7048 17.7238 22.481 18 22.481C18.2762 22.481 18.5 22.7048 18.5 22.981C18.5 23.2571 18.2762 23.481 18 23.481ZM18 19.481C17.7238 19.481 17.5 19.2571 17.5 18.981C17.5 18.7048 17.7238 18.481 18 18.481C18.2762 18.481 18.5 18.7048 18.5 18.981C18.5 19.2571 18.2762 19.481 18 19.481ZM18 15.481C17.7238 15.481 17.5 15.2571 17.5 14.981C17.5 14.7048 17.7238 14.481 18 14.481C18.2762 14.481 18.5 14.7048 18.5 14.981C18.5 15.2571 18.2762 15.481 18 15.481ZM18 11.481C17.7238 11.481 17.5 11.2571 17.5 10.981C17.5 10.7048 17.7238 10.481 18 10.481C18.2762 10.481 18.5 10.7048 18.5 10.981C18.5 11.2571 18.2762 11.481 18 11.481ZM20.5 25.481C20.2238 25.481 20 25.2571 20 24.981C20 24.7048 20.2238 24.481 20.5 24.481C20.7762 24.481 21 24.7048 21 24.981C21 25.2571 20.7762 25.481 20.5 25.481ZM20.5 21.481C20.2238 21.481 20 21.2571 20 20.981C20 20.7048 20.2238 20.481 20.5 20.481C20.7762 20.481 21 20.7048 21 20.981C21 21.2571 20.7762 21.481 20.5 21.481ZM20.5 17.481C20.2238 17.481 20 17.2571 20 16.981C20 16.7048 20.2238 16.481 20.5 16.481C20.7762 16.481 21 16.7048 21 16.981C21 17.2571 20.7762 17.481 20.5 17.481ZM20.5 13.481C20.2238 13.481 20 13.2571 20 12.981C20 12.7048 20.2238 12.481 20.5 12.481C20.7762 12.481 21 12.7048 21 12.981C21 13.2571 20.7762 13.481 20.5 13.481Z" fill="#FF209E"/>
</g>
</svg>
