<svg width="32" height="33" viewBox="0 0 32 33" fill="none" xmlns="http://www.w3.org/2000/svg">
<path d="M20.8027 24.1384C20.8027 23.2893 21.14 22.475 21.7404 21.8746C22.3408 21.2742 23.1551 20.9369 24.0041 20.9369H30.4071V6.53026C30.4071 5.25663 29.9012 4.03516 29.0006 3.13457C28.1 2.23398 26.8785 1.72803 25.6049 1.72803H6.39598C5.12235 1.72803 3.90088 2.23398 3.00029 3.13457C2.0997 4.03516 1.59375 5.25663 1.59375 6.53026V25.7392C1.59375 27.0128 2.0997 28.2343 3.00029 29.1349C3.90088 30.0354 5.12235 30.5414 6.39598 30.5414H20.8027V24.1384ZM20.8027 11.3325C21.1193 11.3325 21.4287 11.4264 21.692 11.6023C21.9552 11.7781 22.1604 12.0282 22.2816 12.3206C22.4027 12.6131 22.4344 12.935 22.3726 13.2455C22.3109 13.556 22.1584 13.8413 21.9346 14.0651C21.7107 14.289 21.4255 14.4414 21.115 14.5032C20.8044 14.565 20.4826 14.5333 20.1901 14.4121C19.8976 14.291 19.6476 14.0858 19.4717 13.8226C19.2958 13.5593 19.2019 13.2498 19.2019 12.9332C19.2019 12.5087 19.3706 12.1015 19.6708 11.8013C19.971 11.5011 20.3781 11.3325 20.8027 11.3325ZM11.1982 11.3325C11.5148 11.3325 11.8243 11.4264 12.0875 11.6023C12.3508 11.7781 12.5559 12.0282 12.6771 12.3206C12.7983 12.6131 12.83 12.935 12.7682 13.2455C12.7064 13.556 12.554 13.8413 12.3301 14.0651C12.1062 14.289 11.821 14.4414 11.5105 14.5032C11.2 14.565 10.8781 14.5333 10.5856 14.4121C10.2931 14.291 10.0431 14.0858 9.86724 13.8226C9.69135 13.5593 9.59746 13.2498 9.59746 12.9332C9.59746 12.5087 9.76611 12.1015 10.0663 11.8013C10.3665 11.5011 10.7737 11.3325 11.1982 11.3325ZM9.91761 16.775C10.0437 16.6068 10.2018 16.4652 10.3826 16.3581C10.5635 16.251 10.7637 16.1805 10.9718 16.1508C11.1799 16.1211 11.3918 16.1326 11.5955 16.1848C11.7991 16.237 11.9905 16.3287 12.1587 16.4549C13.267 17.2861 14.615 17.7355 16.0004 17.7355C17.3858 17.7355 18.7339 17.2861 19.8422 16.4549C20.0104 16.3287 20.2018 16.237 20.4054 16.1848C20.609 16.1326 20.8209 16.1211 21.029 16.1508C21.2371 16.1805 21.4373 16.251 21.6182 16.3581C21.7991 16.4652 21.9571 16.6068 22.0833 16.775C22.2094 16.9432 22.3012 17.1345 22.3533 17.3382C22.4055 17.5418 22.417 17.7537 22.3873 17.9618C22.3576 18.1699 22.2872 18.3701 22.1801 18.551C22.073 18.7319 21.9313 18.8899 21.7631 19.016C20.1006 20.2629 18.0786 20.9369 16.0004 20.9369C13.9223 20.9369 11.9003 20.2629 10.2378 19.016C10.0696 18.8899 9.92791 18.7319 9.82081 18.551C9.71371 18.3701 9.64328 18.1699 9.61355 17.9618C9.58382 17.7537 9.59537 17.5418 9.64754 17.3382C9.69972 17.1345 9.79148 16.9432 9.91761 16.775Z" fill="#FF209E"/>
<path d="M24.0039 29.6031L29.4688 24.1382H24.0039V29.6031Z" fill="#FF209E"/>
</svg>
