<svg width="32" height="33" viewBox="0 0 32 33" fill="none" xmlns="http://www.w3.org/2000/svg">
<g clip-path="url(#clip0_168_2572)">
<path d="M27.3137 4.82108C24.2917 1.79908 20.2738 0.134766 16 0.134766C11.7262 0.134766 7.70825 1.79908 4.68625 4.82108C1.66425 7.84308 0 11.861 0 16.1348C0 20.4085 1.66425 24.4265 4.68625 27.4485C7.70825 30.4704 11.7262 32.1348 16 32.1348C20.2738 32.1348 24.2917 30.4705 27.3137 27.4485C30.3357 24.4265 32 20.4085 32 16.1348C32 11.861 30.3357 7.84302 27.3137 4.82108ZM16 28.9943C8.90919 28.9943 3.1405 23.2255 3.1405 16.1348C3.1405 16.1231 3.14088 16.1116 3.14094 16.1001C3.14094 16.0972 3.1405 16.0944 3.1405 16.0915C3.1405 16.0865 3.14112 16.0818 3.14125 16.0769C3.17244 9.07108 8.83412 3.37127 15.8252 3.27752C15.8399 3.27683 15.8544 3.27533 15.8692 3.27533C15.8781 3.27533 15.8867 3.27639 15.8955 3.27664C15.9304 3.27639 15.9651 3.27533 16.0001 3.27533C23.0909 3.27533 28.8596 9.04408 28.8596 16.1348C28.8596 23.2256 23.0908 28.9943 16 28.9943Z" fill="#FF209E"/>
<path d="M25.7688 16.9074C25.246 16.9074 24.8221 16.4835 24.8221 15.9607C24.8221 15.4378 25.246 15.0139 25.7688 15.0139H26.91C26.374 9.75916 22.1124 5.59059 16.8168 5.19922V6.19266C16.8168 6.71553 16.3929 7.13941 15.87 7.13941C15.3471 7.13941 14.9233 6.71553 14.9233 6.19266V5.22184C9.70602 5.73309 5.5502 9.91572 5.08002 15.1447H6.10202C6.62489 15.1447 7.04877 15.5686 7.04877 16.0915C7.04877 16.6143 6.62489 17.0382 6.10202 17.0382H5.07227C5.50758 22.3514 9.7467 26.6035 15.0541 27.0596V25.8594C15.0541 25.3365 15.478 24.9127 16.0009 24.9127C16.5238 24.9127 16.9476 25.3365 16.9476 25.8594V27.0596C22.2985 26.5998 26.5635 22.2814 26.9393 16.9074H25.7688ZM19.8334 13.6413L16.6704 16.8043C16.4928 16.9819 16.2521 17.0817 16.001 17.0817C15.7499 17.0817 15.509 16.9819 15.3315 16.8043L9.8257 11.2985C9.45595 10.9288 9.45595 10.3294 9.8257 9.95966C10.1954 9.58991 10.7948 9.58991 11.1646 9.95966L16.001 14.796L18.4946 12.3024C18.8643 11.9327 19.4638 11.9327 19.8335 12.3024C20.2031 12.6721 20.2031 13.2716 19.8334 13.6413Z" fill="#FF209E"/>
</g>
<defs>
<clipPath id="clip0_168_2572">
<rect width="32" height="32" fill="white" transform="translate(0 0.134766)"/>
</clipPath>
</defs>
</svg>
