<svg width="32" height="33" viewBox="0 0 32 33" fill="none" xmlns="http://www.w3.org/2000/svg">
<path d="M28 6.80127C23.8158 6.1312 19.7698 4.77996 16.0227 2.80127C12.2555 4.77063 8.19611 6.12122 4 6.80127V14.6533C4 23.5426 11.556 27.9866 16 29.4679C20.444 27.9866 28 23.5426 28 14.6533V6.80127ZM21.2333 15.5253C20.5333 19.0853 16 21.1346 16 21.1346C16 21.1346 11.4667 19.0853 10.7667 15.5253C10.34 13.3426 11.272 11.1466 13.6427 11.1346C14.1664 11.1576 14.6712 11.3374 15.0916 11.6507C15.5119 11.9641 15.8284 12.3965 16 12.8919C16.1716 12.3965 16.4881 11.9641 16.9084 11.6507C17.3288 11.3374 17.8336 11.1576 18.3573 11.1346C20.732 11.1466 21.66 13.3426 21.2333 15.5253Z" fill="#FF209E"/>
</svg>
