<svg width="42" height="43" viewBox="0 0 42 43" fill="none" xmlns="http://www.w3.org/2000/svg">
<g clip-path="url(#clip0_168_1168)">
<path d="M34.473 20.7506C34.2183 17.9416 33.1061 15.3778 31.395 13.3262L29.7011 15.0201L27.9612 13.2801L29.655 11.5863C27.6034 9.87511 25.0396 8.76301 22.2306 8.5083V10.9069H19.7697V8.5083C16.9607 8.76301 14.3969 9.87519 12.3453 11.5863L14.0391 13.2801L12.2992 15.0201L10.6053 13.3262C8.89415 15.3778 7.78205 17.9416 7.52734 20.7506H9.92594V23.2116H7.52734C7.78205 26.0206 8.89423 28.5844 10.6053 30.636L12.2992 28.9421L14.0391 30.6821L12.3453 32.3759C14.3969 34.087 16.9608 35.1992 19.7697 35.4539V33.0553H22.2306V35.4539C25.0396 35.1992 27.6034 34.087 29.655 32.3759L27.9612 30.6821L29.7011 28.9421L31.395 30.636C33.1061 28.5844 34.2183 26.0205 34.473 23.2116H32.0744V20.7506H34.473ZM18.5392 28.1335H16.0783V20.524C15.6915 20.6619 15.2813 20.7506 14.8478 20.7506H13.6173V18.2897H14.8478C15.5267 18.2897 16.0783 17.7381 16.0783 17.0592V15.8288H18.5392C18.5392 16.205 18.5392 28.6702 18.5392 28.1335ZM28.383 25.6725V28.1335H21.0002V26.903C21.0002 24.442 22.638 23.214 23.9538 22.2275C25.2107 21.2842 25.922 20.693 25.922 19.5202C25.922 18.8413 25.3705 18.2897 24.6916 18.2897C24.0127 18.2897 23.4611 18.8413 23.4611 19.5202V20.7506H21.0002V19.5202C21.0002 17.4847 22.656 15.8288 24.6916 15.8288C26.7271 15.8288 28.383 17.4847 28.383 19.5202C28.383 21.9811 26.7451 23.2092 25.4293 24.1957C24.6963 24.7461 24.1484 25.1762 23.8192 25.6725H28.383Z" fill="#FF209E"/>
<path d="M21 0.980957C9.46559 0.980957 0 10.4465 0 21.981C0 33.5154 9.46559 42.981 21 42.981C32.5344 42.981 42 33.5154 42 21.981C42 10.4465 32.5344 0.980957 21 0.980957ZM21 37.9771C12.18 37.9771 5.00391 30.801 5.00391 21.981C5.00391 13.161 12.18 5.98486 21 5.98486C29.82 5.98486 36.9961 13.161 36.9961 21.981C36.9961 30.801 29.82 37.9771 21 37.9771Z" fill="#FF209E"/>
</g>
<defs>
<clipPath id="clip0_168_1168">
<rect width="42" height="42" fill="white" transform="translate(0 0.980957)"/>
</clipPath>
</defs>
</svg>
