<svg width="375" height="219" viewBox="0 0 375 219" fill="none" xmlns="http://www.w3.org/2000/svg">
<path d="M-36.213 148.621C-45.2623 139.603 -45.2623 174.98 -36.213 165.962L-27.5125 157.292L27.0559 211.674C36.1053 220.692 50.776 220.69 59.8253 211.674L75.0746 196.475C84.1239 187.457 98.7968 187.457 107.846 196.475L123.095 211.674C132.145 220.69 146.815 220.69 155.865 211.674L171.114 196.475C180.163 187.457 194.836 187.457 203.885 196.475L219.135 211.672C228.184 220.69 242.855 220.69 251.904 211.672L267.153 196.475C276.202 187.457 290.873 187.457 299.925 196.475L315.174 211.672C324.221 220.69 338.894 220.69 347.943 211.672L402.513 157.291L411.213 165.962C420.262 174.98 420.262 139.603 411.213 148.621L402.513 157.291L395.964 150.765C386.915 141.747 386.915 127.126 395.964 118.108L411.213 102.911C420.262 93.8926 420.262 79.27 411.213 70.2517L347.943 7.20074C338.894 -1.81757 324.221 -1.81757 315.174 7.20074L299.925 22.3976C290.873 31.416 276.202 31.416 267.153 22.3976L251.904 7.20074C242.855 -1.81757 228.184 -1.81757 219.135 7.20074L203.885 22.3976C194.836 31.416 180.163 31.416 171.114 22.3976L155.865 7.20074C146.815 -1.81757 132.145 -1.81757 123.095 7.20074L107.846 22.3976C98.7968 31.416 84.1239 31.416 75.0746 22.3976L59.8253 7.20074C50.776 -1.81757 36.1053 -1.81757 27.0559 7.20074L-36.213 70.2517C-45.2623 79.2721 -45.2623 93.8926 -36.213 102.911L-20.9648 118.11C-11.9154 127.126 -11.9154 141.749 -20.9648 150.767L-27.5125 157.292L-36.213 148.621Z" fill="#F0F0F4"/>
</svg>
