<svg width="617" height="4" viewBox="0 0 617 4" fill="none" xmlns="http://www.w3.org/2000/svg">
<rect x="194" width="4" height="4" rx="2" fill="#4495EC" fill-opacity="0.5"/>
<rect x="50" width="4" height="4" rx="2" fill="#4495EC" fill-opacity="0.5"/>
<rect x="75" width="4" height="4" rx="2" fill="#4495EC" fill-opacity="0.5"/>
<rect x="438" width="4" height="4" rx="2" fill="#4495EC" fill-opacity="0.5"/>
<rect x="219" width="4" height="4" rx="2" fill="#4495EC" fill-opacity="0.5"/>
<rect width="4" height="4" rx="2" fill="#4495EC" fill-opacity="0.5"/>
<rect x="463" width="4" height="4" rx="2" fill="#4495EC" fill-opacity="0.5"/>
<rect x="244" width="4" height="4" rx="2" fill="#4495EC" fill-opacity="0.5"/>
<rect x="25" width="4" height="4" rx="2" fill="#4495EC" fill-opacity="0.5"/>
<rect x="488" width="4" height="4" rx="2" fill="#4495EC" fill-opacity="0.5"/>
<rect x="269" width="4" height="4" rx="2" fill="#4495EC" fill-opacity="0.5"/>
<rect x="513" width="4" height="4" rx="2" fill="#4495EC" fill-opacity="0.5"/>
<rect x="294" width="4" height="4" rx="2" fill="#4495EC" fill-opacity="0.5"/>
<rect x="538" width="4" height="4" rx="2" fill="#4495EC" fill-opacity="0.5"/>
<rect x="319" width="4" height="4" rx="2" fill="#4495EC" fill-opacity="0.5"/>
<rect x="563" width="4" height="4" rx="2" fill="#4495EC" fill-opacity="0.5"/>
<rect x="588" width="4" height="4" rx="2" fill="#4495EC" fill-opacity="0.5"/>
<rect x="613" width="4" height="4" rx="2" fill="#4495EC" fill-opacity="0.5"/>
</svg>
