<svg width="1110" height="4" viewBox="0 0 1110 4" fill="none" xmlns="http://www.w3.org/2000/svg">
<rect width="56.9231" height="4" rx="2" fill="#046BD9"/>
<rect x="272" width="4" height="4" rx="2" fill="#4495EC" fill-opacity="0.5"/>
<rect x="128" width="4" height="4" rx="2" fill="#4495EC" fill-opacity="0.5"/>
<rect x="153" width="4" height="4" rx="2" fill="#4495EC" fill-opacity="0.5"/>
<rect x="516" width="4" height="4" rx="2" fill="#4495EC" fill-opacity="0.5"/>
<rect x="178" width="73" height="4" rx="2" fill="#046BD9"/>
<rect x="422" width="73" height="4" rx="2" fill="#046BD9"/>
<rect x="297" width="4" height="4" rx="2" fill="#4495EC" fill-opacity="0.5"/>
<rect x="78" width="4" height="4" rx="2" fill="#4495EC" fill-opacity="0.5"/>
<rect x="541" width="4" height="4" rx="2" fill="#4495EC" fill-opacity="0.5"/>
<rect x="322" width="4" height="4" rx="2" fill="#4495EC" fill-opacity="0.5"/>
<rect x="103" width="4" height="4" rx="2" fill="#4495EC" fill-opacity="0.5"/>
<rect x="566" width="4" height="4" rx="2" fill="#4495EC" fill-opacity="0.5"/>
<rect x="347" width="4" height="4" rx="2" fill="#4495EC" fill-opacity="0.5"/>
<rect x="591" width="4" height="4" rx="2" fill="#4495EC" fill-opacity="0.5"/>
<rect x="372" width="4" height="4" rx="2" fill="#4495EC" fill-opacity="0.5"/>
<rect x="616" width="4" height="4" rx="2" fill="#4495EC" fill-opacity="0.5"/>
<rect x="397" width="4" height="4" rx="2" fill="#4495EC" fill-opacity="0.5"/>
<rect x="641" width="4" height="4" rx="2" fill="#4495EC" fill-opacity="0.5"/>
<rect x="666" width="4" height="4" rx="2" fill="#4495EC" fill-opacity="0.5"/>
<rect x="691" width="4" height="4" rx="2" fill="#4495EC" fill-opacity="0.5"/>
<rect x="716" width="394" height="4" rx="2" fill="#046BD9"/>
</svg>
