<svg width="335" height="4" viewBox="0 0 335 4" fill="none" xmlns="http://www.w3.org/2000/svg">
<rect width="25" height="4" rx="2" fill="#046BD9"/>
<rect x="158" width="25" height="4" rx="2" fill="#046BD9"/>
<rect x="60" width="25" height="4" rx="2" fill="#046BD9"/>
<rect x="106.728" width="3.90883" height="4" rx="1.95442" fill="#94BCE8"/>
<rect x="192.364" width="3.90883" height="4" rx="1.95442" fill="#94BCE8"/>
<rect x="34" width="3.90883" height="4" rx="1.95442" fill="#94BCE8"/>
<rect x="119.637" width="3.90883" height="4" rx="1.95442" fill="#94BCE8"/>
<rect x="205.273" width="3.90883" height="4" rx="1.95442" fill="#94BCE8"/>
<rect x="46.9092" width="3.90883" height="4" rx="1.95442" fill="#94BCE8"/>
<rect x="132.546" width="3.90883" height="4" rx="1.95442" fill="#94BCE8"/>
<rect x="218.183" width="3.90883" height="4" rx="1.95442" fill="#94BCE8"/>
<rect x="93.8184" width="3.90883" height="4" rx="1.95442" fill="#94BCE8"/>
<rect x="145.455" width="3.90883" height="4" rx="1.95442" fill="#94BCE8"/>
<rect x="231.092" width="3.90883" height="4" rx="1.95442" fill="#94BCE8"/>
<rect x="244" width="91" height="4" rx="2" fill="#046BD9"/>
</svg>
