<svg width="32" height="96" viewBox="0 0 32 96" fill="none" xmlns="http://www.w3.org/2000/svg">
<circle cx="29" cy="93" r="3" transform="rotate(-90 29 93)" fill="#E3E7F3"/>
<circle cx="29" cy="39" r="3" transform="rotate(-90 29 39)" fill="#E3E7F3"/>
<circle cx="11" cy="93" r="3" transform="rotate(-90 11 93)" fill="#E3E7F3"/>
<circle cx="11" cy="39" r="3" transform="rotate(-90 11 39)" fill="#E3E7F3"/>
<circle cx="29" cy="75" r="3" transform="rotate(-90 29 75)" fill="#E3E7F3"/>
<circle cx="29" cy="21" r="3" transform="rotate(-90 29 21)" fill="#E3E7F3"/>
<circle cx="11" cy="75" r="3" transform="rotate(-90 11 75)" fill="#E3E7F3"/>
<circle cx="11" cy="21" r="3" transform="rotate(-90 11 21)" fill="#E3E7F3"/>
<circle cx="29" cy="57" r="3" transform="rotate(-90 29 57)" fill="#E3E7F3"/>
<circle cx="29" cy="3" r="3" transform="rotate(-90 29 3)" fill="#E3E7F3"/>
<circle cx="11" cy="57" r="3" transform="rotate(-90 11 57)" fill="#E3E7F3"/>
<circle cx="11" cy="3" r="3" transform="rotate(-90 11 3)" fill="#E3E7F3"/>
</svg>
