<svg width="1140" height="82" viewBox="0 0 1140 82" fill="none" xmlns="http://www.w3.org/2000/svg">
<rect width="1140" height="50" transform="matrix(-1 0 0 1 1140 32)" fill="url(#paint0_linear_502_109)"/>
<circle cx="1005" cy="39" r="3" fill="#E3E7F3"/>
<circle cx="1059" cy="39" r="3" fill="#E3E7F3"/>
<circle cx="1005" cy="21" r="3" fill="#E3E7F3"/>
<circle cx="1059" cy="21" r="3" fill="#E3E7F3"/>
<circle cx="1005" cy="3" r="3" fill="#E3E7F3"/>
<circle cx="1059" cy="3" r="3" fill="#E3E7F3"/>
<circle cx="1023" cy="39" r="3" fill="#E3E7F3"/>
<circle cx="1077" cy="39" r="3" fill="#E3E7F3"/>
<circle cx="1023" cy="21" r="3" fill="#E3E7F3"/>
<circle cx="1077" cy="21" r="3" fill="#E3E7F3"/>
<circle cx="1023" cy="3" r="3" fill="#E3E7F3"/>
<circle cx="1077" cy="3" r="3" fill="#E3E7F3"/>
<circle cx="1041" cy="39" r="3" fill="#E3E7F3"/>
<circle cx="1095" cy="39" r="3" fill="#E3E7F3"/>
<circle cx="1041" cy="21" r="3" fill="#E3E7F3"/>
<circle cx="1095" cy="21" r="3" fill="#E3E7F3"/>
<circle cx="1041" cy="3" r="3" fill="#E3E7F3"/>
<circle cx="1095" cy="3" r="3" fill="#E3E7F3"/>
<defs>
<linearGradient id="paint0_linear_502_109" x1="-660.297" y1="25.3012" x2="1140" y2="25.3013" gradientUnits="userSpaceOnUse">
<stop stop-color="#EAF2FB"/>
<stop offset="1" stop-color="#F7FAFD"/>
</linearGradient>
</defs>
</svg>
