<svg width="698" height="50" viewBox="0 0 698 50" fill="none" xmlns="http://www.w3.org/2000/svg">
<rect x="140" width="1140" height="50" fill="url(#paint0_linear_502_110)"/>
<circle cx="3" cy="39" r="3" fill="#E3E7F3"/>
<circle cx="57" cy="39" r="3" fill="#E3E7F3"/>
<circle cx="3" cy="21" r="3" fill="#E3E7F3"/>
<circle cx="57" cy="21" r="3" fill="#E3E7F3"/>
<circle cx="3" cy="3" r="3" fill="#E3E7F3"/>
<circle cx="57" cy="3" r="3" fill="#E3E7F3"/>
<circle cx="21" cy="39" r="3" fill="#E3E7F3"/>
<circle cx="75" cy="39" r="3" fill="#E3E7F3"/>
<circle cx="21" cy="21" r="3" fill="#E3E7F3"/>
<circle cx="75" cy="21" r="3" fill="#E3E7F3"/>
<circle cx="21" cy="3" r="3" fill="#E3E7F3"/>
<circle cx="75" cy="3" r="3" fill="#E3E7F3"/>
<circle cx="39" cy="39" r="3" fill="#E3E7F3"/>
<circle cx="93" cy="39" r="3" fill="#E3E7F3"/>
<circle cx="39" cy="21" r="3" fill="#E3E7F3"/>
<circle cx="93" cy="21" r="3" fill="#E3E7F3"/>
<circle cx="39" cy="3" r="3" fill="#E3E7F3"/>
<circle cx="93" cy="3" r="3" fill="#E3E7F3"/>
<defs>
<linearGradient id="paint0_linear_502_110" x1="-520.297" y1="25.3012" x2="1280" y2="25.3013" gradientUnits="userSpaceOnUse">
<stop stop-color="#EAF2FB"/>
<stop offset="1" stop-color="#F7FAFD"/>
</linearGradient>
</defs>
</svg>
