<svg width="1077" height="109" viewBox="0 0 1077 109" fill="none" xmlns="http://www.w3.org/2000/svg">
<rect x="-63" y="59" width="1140" height="50" fill="url(#paint0_linear_502_111)"/>
<circle r="3" transform="matrix(0 -1 -1 0 313 93)" fill="#E3E7F3"/>
<circle r="3" transform="matrix(0 -1 -1 0 313 39)" fill="#E3E7F3"/>
<circle r="3" transform="matrix(0 -1 -1 0 331 93)" fill="#E3E7F3"/>
<circle r="3" transform="matrix(0 -1 -1 0 331 39)" fill="#E3E7F3"/>
<circle r="3" transform="matrix(0 -1 -1 0 349 93)" fill="#E3E7F3"/>
<circle r="3" transform="matrix(0 -1 -1 0 349 39)" fill="#E3E7F3"/>
<circle r="3" transform="matrix(0 -1 -1 0 313 75)" fill="#E3E7F3"/>
<circle r="3" transform="matrix(0 -1 -1 0 313 21)" fill="#E3E7F3"/>
<circle r="3" transform="matrix(0 -1 -1 0 331 75)" fill="#E3E7F3"/>
<circle r="3" transform="matrix(0 -1 -1 0 331 21)" fill="#E3E7F3"/>
<circle r="3" transform="matrix(0 -1 -1 0 349 75)" fill="#E3E7F3"/>
<circle r="3" transform="matrix(0 -1 -1 0 349 21)" fill="#E3E7F3"/>
<circle r="3" transform="matrix(0 -1 -1 0 313 57)" fill="#E3E7F3"/>
<circle r="3" transform="matrix(0 -1 -1 0 313 3)" fill="#E3E7F3"/>
<circle r="3" transform="matrix(0 -1 -1 0 331 57)" fill="#E3E7F3"/>
<circle r="3" transform="matrix(0 -1 -1 0 331 3)" fill="#E3E7F3"/>
<circle r="3" transform="matrix(0 -1 -1 0 349 57)" fill="#E3E7F3"/>
<circle r="3" transform="matrix(0 -1 -1 0 349 3)" fill="#E3E7F3"/>
<defs>
<linearGradient id="paint0_linear_502_111" x1="-723.297" y1="84.3012" x2="1077" y2="84.3013" gradientUnits="userSpaceOnUse">
<stop stop-color="#EAF2FB"/>
<stop offset="1" stop-color="#F7FAFD"/>
</linearGradient>
</defs>
</svg>
