<svg width="215" height="131" viewBox="0 0 215 131" fill="none" xmlns="http://www.w3.org/2000/svg">
<rect width="215" height="83" transform="matrix(-1 0 0 1 215 48)" fill="url(#paint0_linear_343_24)"/>
<circle cx="120" cy="93" r="3" transform="rotate(-90 120 93)" fill="#E3E7F3"/>
<circle cx="120" cy="39" r="3" transform="rotate(-90 120 39)" fill="#E3E7F3"/>
<circle cx="102" cy="93" r="3" transform="rotate(-90 102 93)" fill="#E3E7F3"/>
<circle cx="102" cy="39" r="3" transform="rotate(-90 102 39)" fill="#E3E7F3"/>
<circle cx="84" cy="93" r="3" transform="rotate(-90 84 93)" fill="#E3E7F3"/>
<circle cx="84" cy="39" r="3" transform="rotate(-90 84 39)" fill="#E3E7F3"/>
<circle cx="120" cy="75" r="3" transform="rotate(-90 120 75)" fill="#E3E7F3"/>
<circle cx="120" cy="21" r="3" transform="rotate(-90 120 21)" fill="#E3E7F3"/>
<circle cx="102" cy="75" r="3" transform="rotate(-90 102 75)" fill="#E3E7F3"/>
<circle cx="102" cy="21" r="3" transform="rotate(-90 102 21)" fill="#E3E7F3"/>
<circle cx="84" cy="75" r="3" transform="rotate(-90 84 75)" fill="#E3E7F3"/>
<circle cx="84" cy="21" r="3" transform="rotate(-90 84 21)" fill="#E3E7F3"/>
<circle cx="120" cy="57" r="3" transform="rotate(-90 120 57)" fill="#E3E7F3"/>
<circle cx="120" cy="3" r="3" transform="rotate(-90 120 3)" fill="#E3E7F3"/>
<circle cx="102" cy="57" r="3" transform="rotate(-90 102 57)" fill="#E3E7F3"/>
<circle cx="102" cy="3" r="3" transform="rotate(-90 102 3)" fill="#E3E7F3"/>
<circle cx="84" cy="57" r="3" transform="rotate(-90 84 57)" fill="#E3E7F3"/>
<circle cx="84" cy="3" r="3" transform="rotate(-90 84 3)" fill="#E3E7F3"/>
<defs>
<linearGradient id="paint0_linear_343_24" x1="-124.53" y1="42" x2="215" y2="42" gradientUnits="userSpaceOnUse">
<stop stop-color="#EAF2FB"/>
<stop offset="1" stop-color="#F7FAFD"/>
</linearGradient>
</defs>
</svg>
