<svg width="357" height="81" viewBox="0 0 357 81" fill="none" xmlns="http://www.w3.org/2000/svg">
<rect x="68" width="1140" height="50" fill="url(#paint0_linear_502_115)"/>
<circle cx="3" cy="78" r="3" fill="#E3E7F3"/>
<circle cx="57" cy="78" r="3" fill="#E3E7F3"/>
<circle cx="3" cy="60" r="3" fill="#E3E7F3"/>
<circle cx="57" cy="60" r="3" fill="#E3E7F3"/>
<circle cx="3" cy="42" r="3" fill="#E3E7F3"/>
<circle cx="57" cy="42" r="3" fill="#E3E7F3"/>
<circle cx="21" cy="78" r="3" fill="#E3E7F3"/>
<circle cx="75" cy="78" r="3" fill="#E3E7F3"/>
<circle cx="21" cy="60" r="3" fill="#E3E7F3"/>
<circle cx="75" cy="60" r="3" fill="#E3E7F3"/>
<circle cx="21" cy="42" r="3" fill="#E3E7F3"/>
<circle cx="75" cy="42" r="3" fill="#E3E7F3"/>
<circle cx="39" cy="78" r="3" fill="#E3E7F3"/>
<circle cx="93" cy="78" r="3" fill="#E3E7F3"/>
<circle cx="39" cy="60" r="3" fill="#E3E7F3"/>
<circle cx="93" cy="60" r="3" fill="#E3E7F3"/>
<circle cx="39" cy="42" r="3" fill="#E3E7F3"/>
<circle cx="93" cy="42" r="3" fill="#E3E7F3"/>
<defs>
<linearGradient id="paint0_linear_502_115" x1="-592.297" y1="25.3012" x2="1208" y2="25.3013" gradientUnits="userSpaceOnUse">
<stop stop-color="#EAF2FB"/>
<stop offset="1" stop-color="#F7FAFD"/>
</linearGradient>
</defs>
</svg>
