<svg width="1362" height="59" viewBox="0 0 1362 59" fill="none" xmlns="http://www.w3.org/2000/svg">
<rect width="1140" height="50" transform="matrix(-1 0 0 1 1368 0)" fill="url(#paint0_linear_502_113)"/>
<circle r="3" transform="matrix(-1 0 0 1 93 56)" fill="#E3E7F3"/>
<circle r="3" transform="matrix(-1 0 0 1 39 56)" fill="#E3E7F3"/>
<circle r="3" transform="matrix(-1 0 0 1 93 38)" fill="#E3E7F3"/>
<circle r="3" transform="matrix(-1 0 0 1 39 38)" fill="#E3E7F3"/>
<circle r="3" transform="matrix(-1 0 0 1 93 20)" fill="#E3E7F3"/>
<circle r="3" transform="matrix(-1 0 0 1 39 20)" fill="#E3E7F3"/>
<circle r="3" transform="matrix(-1 0 0 1 75 56)" fill="#E3E7F3"/>
<circle r="3" transform="matrix(-1 0 0 1 21 56)" fill="#E3E7F3"/>
<circle r="3" transform="matrix(-1 0 0 1 75 38)" fill="#E3E7F3"/>
<circle r="3" transform="matrix(-1 0 0 1 21 38)" fill="#E3E7F3"/>
<circle r="3" transform="matrix(-1 0 0 1 75 20)" fill="#E3E7F3"/>
<circle r="3" transform="matrix(-1 0 0 1 21 20)" fill="#E3E7F3"/>
<circle r="3" transform="matrix(-1 0 0 1 57 56)" fill="#E3E7F3"/>
<circle r="3" transform="matrix(-1 0 0 1 3 56)" fill="#E3E7F3"/>
<circle r="3" transform="matrix(-1 0 0 1 57 38)" fill="#E3E7F3"/>
<circle r="3" transform="matrix(-1 0 0 1 3 38)" fill="#E3E7F3"/>
<circle r="3" transform="matrix(-1 0 0 1 57 20)" fill="#E3E7F3"/>
<circle r="3" transform="matrix(-1 0 0 1 3 20)" fill="#E3E7F3"/>
<defs>
<linearGradient id="paint0_linear_502_113" x1="-660.297" y1="25.3012" x2="1140" y2="25.3013" gradientUnits="userSpaceOnUse">
<stop stop-color="#EAF2FB"/>
<stop offset="1" stop-color="#F7FAFD"/>
</linearGradient>
</defs>
</svg>
