<svg width="78" height="70" viewBox="0 0 78 70" fill="none" xmlns="http://www.w3.org/2000/svg">
<rect x="78" y="69.9819" width="78" height="40" transform="rotate(-180 78 69.9819)" fill="url(#paint0_linear_518_112)"/>
<ellipse cx="65.3572" cy="52.3257" rx="1.65625" ry="1.64286" transform="rotate(-90 65.3572 52.3257)" fill="#E3E7F3"/>
<ellipse cx="65.3572" cy="22.5132" rx="1.65625" ry="1.64286" transform="rotate(-90 65.3572 22.5132)" fill="#E3E7F3"/>
<ellipse cx="55.5" cy="52.3257" rx="1.65625" ry="1.64286" transform="rotate(-90 55.5 52.3257)" fill="#E3E7F3"/>
<ellipse cx="55.5" cy="22.5132" rx="1.65625" ry="1.64286" transform="rotate(-90 55.5 22.5132)" fill="#E3E7F3"/>
<ellipse cx="45.6429" cy="52.3257" rx="1.65625" ry="1.64286" transform="rotate(-90 45.6429 52.3257)" fill="#E3E7F3"/>
<ellipse cx="45.6429" cy="22.5132" rx="1.65625" ry="1.64286" transform="rotate(-90 45.6429 22.5132)" fill="#E3E7F3"/>
<ellipse cx="65.3572" cy="42.3882" rx="1.65625" ry="1.64286" transform="rotate(-90 65.3572 42.3882)" fill="#E3E7F3"/>
<ellipse cx="65.3572" cy="12.5757" rx="1.65625" ry="1.64286" transform="rotate(-90 65.3572 12.5757)" fill="#E3E7F3"/>
<ellipse cx="55.5" cy="42.3882" rx="1.65625" ry="1.64286" transform="rotate(-90 55.5 42.3882)" fill="#E3E7F3"/>
<ellipse cx="55.5" cy="12.5757" rx="1.65625" ry="1.64286" transform="rotate(-90 55.5 12.5757)" fill="#E3E7F3"/>
<ellipse cx="45.6429" cy="42.3882" rx="1.65625" ry="1.64286" transform="rotate(-90 45.6429 42.3882)" fill="#E3E7F3"/>
<ellipse cx="45.6429" cy="12.5757" rx="1.65625" ry="1.64286" transform="rotate(-90 45.6429 12.5757)" fill="#E3E7F3"/>
<ellipse cx="65.3572" cy="32.4507" rx="1.65625" ry="1.64286" transform="rotate(-90 65.3572 32.4507)" fill="#E3E7F3"/>
<ellipse cx="65.3572" cy="2.63818" rx="1.65625" ry="1.64286" transform="rotate(-90 65.3572 2.63818)" fill="#E3E7F3"/>
<ellipse cx="55.5" cy="32.4507" rx="1.65625" ry="1.64286" transform="rotate(-90 55.5 32.4507)" fill="#E3E7F3"/>
<ellipse cx="55.5" cy="2.63818" rx="1.65625" ry="1.64286" transform="rotate(-90 55.5 2.63818)" fill="#E3E7F3"/>
<ellipse cx="45.6429" cy="32.4507" rx="1.65625" ry="1.64286" transform="rotate(-90 45.6429 32.4507)" fill="#E3E7F3"/>
<ellipse cx="45.6429" cy="2.63818" rx="1.65625" ry="1.64286" transform="rotate(-90 45.6429 2.63818)" fill="#E3E7F3"/>
<defs>
<linearGradient id="paint0_linear_518_112" x1="32.8218" y1="90.2229" x2="156" y2="90.2229" gradientUnits="userSpaceOnUse">
<stop stop-color="#EAF2FB"/>
<stop offset="1" stop-color="#F7FAFD"/>
</linearGradient>
</defs>
</svg>
