<svg width="117" height="20" viewBox="0 0 117 20" fill="none" xmlns="http://www.w3.org/2000/svg">
<g clip-path="url(#clip0_1_1551)">
<path d="M10.6738 2.18579L5.13577 3.82745L10.6738 5.47746V2.18579Z" fill="#1D96F3"/>
<path d="M11.753 16.9939C10.9331 16.9939 10.2639 17.6606 10.2639 18.4772C10.2639 19.2939 10.9331 19.9606 11.753 19.9606C12.5728 19.9606 13.242 19.2939 13.242 18.4772C13.242 17.6606 12.5811 16.9939 11.753 16.9939Z" fill="#1D96F3"/>
<path d="M20.6958 14.5107C19.876 14.5107 19.2067 15.1774 19.2067 15.9941C19.2067 16.8107 19.876 17.4774 20.6958 17.4774C21.5156 17.4774 22.1849 16.8107 22.1849 15.9941C22.1849 15.1774 21.524 14.5107 20.6958 14.5107Z" fill="#1D96F3"/>
<path d="M2.81854 14.5107C1.99872 14.5107 1.32947 15.1774 1.32947 15.9941C1.32947 16.8107 1.99872 17.4774 2.81854 17.4774C3.63837 17.4774 4.30761 16.8107 4.30761 15.9941C4.29924 15.1774 3.63837 14.5107 2.81854 14.5107Z" fill="#1D96F3"/>
<path d="M1.33006 11.228C1.33006 11.9113 1.7818 12.5196 2.44268 12.7196L11.3102 15.378C11.603 15.4613 11.9125 15.4613 12.2137 15.378L21.0812 12.7196C21.742 12.5196 22.1938 11.9196 22.1938 11.228V3.81964L11.7619 6.91964L2.61 4.19464L1.33006 3.81964L11.7619 0.736308V5.6613L20.1191 3.1863L21.3907 2.8113L11.9878 -0.0053711C11.8372 -0.0470378 11.6866 -0.0470378 11.536 -0.0053711L0.786298 3.2113C0.242536 3.37797 -0.0753541 3.95296 0.0919572 4.49463C0.192344 4.82796 0.451676 5.0863 0.786298 5.1863L1.33006 5.35297V11.228Z" fill="#046BD9"/>
<path d="M29.1981 14.1982C29.0977 14.1315 29.0558 14.0149 29.0809 13.9065L29.4825 12.3149C29.5076 12.2315 29.5661 12.1565 29.6498 12.1232C29.6833 12.1065 29.7167 12.1065 29.7502 12.1065C29.8004 12.1065 29.8506 12.1232 29.8924 12.1482C30.4529 12.4982 31.942 13.2982 33.6569 13.2982C35.5392 13.2982 35.6563 12.4815 35.6563 11.7982C35.6563 11.0232 35.146 10.5149 33.2135 10.0232C30.8126 9.42321 29.4407 8.08987 29.4407 6.36487C29.4407 4.69821 30.6118 2.74821 33.9246 2.74821C35.8905 2.74821 37.5636 3.69821 37.6305 3.73987C37.7393 3.79821 37.7895 3.93154 37.756 4.04821L37.3545 5.58987C37.3294 5.67321 37.2708 5.74821 37.1872 5.78154C37.1537 5.78987 37.1202 5.79821 37.0868 5.79821C37.0282 5.79821 36.978 5.78154 36.9362 5.74821C36.1331 5.21488 34.9452 4.86487 33.9246 4.86487C32.218 4.86487 32.0005 5.67321 32.0005 6.23987C32.0005 6.51487 31.8583 7.21487 34.1254 7.77321C36.8526 8.43154 38.3584 9.71487 38.3584 11.3815C38.3584 13.8482 36.4928 15.4482 33.6067 15.4482C31.0803 15.4399 29.2733 14.2482 29.1981 14.1982ZM96.0891 13.6482C95.0518 14.7565 93.5293 15.4065 91.9147 15.4065C88.6856 15.4065 86.1592 12.6315 86.1592 9.08154C86.1592 5.53154 88.6856 2.76488 91.9147 2.76488C93.546 2.75654 95.102 3.43988 96.1895 4.64821L96.2397 3.34821C96.2481 3.19821 96.3652 3.08154 96.5158 3.08154H98.2725C98.4231 3.08154 98.5486 3.20654 98.5486 3.35654V12.9815C98.5486 13.6649 98.8581 13.6649 99.0422 13.6732C99.1175 13.6732 99.1927 13.6649 99.268 13.6482C99.3099 13.6315 99.3601 13.6149 99.4103 13.6149C99.4604 13.6149 99.5106 13.6315 99.5525 13.6482C99.6361 13.6982 99.6947 13.7899 99.6947 13.8899V14.7649C99.6779 14.8649 99.6194 14.9565 99.5441 15.0232C99.176 15.2982 99.0756 15.4065 98.3144 15.4065C97.1097 15.4149 96.3401 14.7899 96.0891 13.6482ZM88.5517 9.13154C88.5517 11.6732 90.1161 12.9732 92.2577 12.9732C94.4411 12.9732 95.7963 11.6732 95.7963 9.13154C95.7963 6.62321 94.4327 5.28988 92.2577 5.28988C90.0826 5.28988 88.5517 6.62321 88.5517 9.13154ZM49.0579 13.6482C48.0206 14.7565 46.498 15.4065 44.8835 15.4065C41.6544 15.4065 39.128 12.6315 39.128 9.08154C39.128 5.53154 41.6544 2.76488 44.8835 2.76488C46.5148 2.75654 48.0708 3.43988 49.1583 4.64821L49.2085 3.34821C49.2169 3.19821 49.334 3.08154 49.4846 3.08154H51.2413C51.3919 3.08154 51.5174 3.20654 51.5174 3.35654V12.9815C51.5174 13.6649 51.8269 13.6649 52.011 13.6732C52.0862 13.6732 52.1615 13.6649 52.2368 13.6482C52.2787 13.6315 52.3288 13.6149 52.379 13.6149C52.4292 13.6149 52.4794 13.6315 52.5213 13.6482C52.6049 13.6982 52.6635 13.7899 52.6635 13.8899V14.7649C52.6467 14.8649 52.5882 14.9565 52.5129 15.0232C52.1448 15.2982 52.0444 15.4065 51.2832 15.4065C50.0785 15.4149 49.3172 14.7899 49.0579 13.6482ZM41.5289 9.13154C41.5289 11.6732 43.0933 12.9732 45.2348 12.9732C47.4183 12.9732 48.7735 11.6732 48.7735 9.13154C48.7735 6.62321 47.4099 5.28988 45.2348 5.28988C43.0598 5.28988 41.5289 6.62321 41.5289 9.13154ZM110.612 11.3982V5.01488H109.441C109.29 5.01488 109.165 4.88987 109.165 4.73987V3.36487C109.165 3.21487 109.29 3.08987 109.441 3.08987H110.612V0.631541C110.612 0.498208 110.704 0.389873 110.838 0.364873L112.862 -0.0351257C112.879 -0.0351257 112.896 -0.043457 112.912 -0.043457C112.979 -0.043457 113.038 -0.018458 113.088 0.0232086C113.155 0.0732086 113.188 0.15654 113.188 0.239873V3.08987H115.815C115.966 3.08987 116.091 3.21487 116.091 3.36487V4.73987C116.091 4.88987 115.966 5.01488 115.815 5.01488H113.188V11.6065C113.188 12.9982 113.556 13.2649 114.242 13.2649C114.836 13.2732 115.414 13.1065 115.907 12.7732C115.949 12.7482 115.999 12.7315 116.058 12.7315C116.091 12.7315 116.125 12.7399 116.158 12.7482C116.242 12.7815 116.3 12.8482 116.325 12.9399L116.593 13.9982C116.618 14.0899 116.593 14.1899 116.518 14.2565C115.991 14.7815 114.903 15.3982 113.582 15.3982C110.921 15.4149 110.612 13.1232 110.612 11.3982ZM72.0548 15.3315C71.8541 15.2815 71.6617 15.1982 71.4776 15.0982C70.9171 14.7649 70.524 14.2149 70.3901 13.5815V8.17321C70.3901 5.57321 69.5619 5.05654 68.2151 5.05654C66.7093 5.05654 64.9525 6.37321 64.9525 8.06487V14.8232C64.9525 14.9732 64.827 15.0982 64.6764 15.0982H62.6603C62.5097 15.0982 62.3843 14.9732 62.3843 14.8232V8.16488C62.3843 5.56488 61.5561 5.04821 60.2092 5.04821C58.7034 5.04821 56.9466 6.36488 56.9466 8.05654V14.8149C56.9466 14.9649 56.8212 15.0899 56.6706 15.0899H54.6461C54.4955 15.0899 54.37 14.9649 54.37 14.8149V5.46487C54.37 4.78154 54.0522 4.74821 53.8765 4.73154C53.8012 4.73154 53.7175 4.73987 53.6422 4.75654C53.6004 4.77321 53.5502 4.78988 53.5 4.78988C53.4498 4.78988 53.408 4.77321 53.3578 4.75654C53.2742 4.70654 53.224 4.61488 53.2156 4.51488V3.63988C53.2323 3.53988 53.2909 3.44821 53.3662 3.38154C53.7343 3.10654 53.8346 2.99821 54.5959 2.99821C54.8218 2.99821 55.0477 3.02321 55.2652 3.07321C56.0599 3.27321 56.5535 3.86488 56.7542 4.77321C57.825 3.47321 59.2221 2.76488 60.753 2.76488C62.652 2.76488 63.8817 3.52321 64.4924 5.08154C65.7138 3.56488 67.1945 2.76488 68.7923 2.76488C71.5947 2.76488 72.9583 4.47321 72.9583 7.99821V13.0649C72.9918 13.6315 73.2846 13.6649 73.4435 13.6815C73.5188 13.6815 73.6025 13.6732 73.6778 13.6565C73.7196 13.6399 73.7698 13.6232 73.82 13.6232C73.8702 13.6232 73.9204 13.6399 73.9622 13.6565C74.0459 13.7065 74.096 13.7982 74.1044 13.8982V14.7732C74.0877 14.8732 74.0291 14.9649 73.9538 15.0315C73.5858 15.3065 73.4854 15.4149 72.7241 15.4149C72.4982 15.4065 72.2724 15.3815 72.0548 15.3315ZM74.6231 9.36487C74.4307 5.64821 76.8651 2.91488 80.5459 2.72321C82.2608 2.63154 83.4906 2.92321 84.7789 3.72321C84.8542 3.77321 84.9044 3.85654 84.9127 3.93988L85.0047 5.76488C85.0131 5.87321 84.9546 5.97321 84.8542 6.02321C84.8207 6.03988 84.7872 6.04821 84.7454 6.04821C84.6785 6.04821 84.6032 6.03154 84.553 5.98154C83.3567 4.98987 81.876 4.98154 80.8471 5.03154C78.5716 5.14821 77.2499 7.02321 77.3335 9.21487C77.4172 11.4065 79.0066 13.1149 81.2821 12.9982C82.311 12.9482 83.7666 12.7815 84.8542 11.6732C84.9044 11.6232 84.9713 11.5899 85.0382 11.5899C85.08 11.5899 85.1135 11.5899 85.147 11.6065C85.2473 11.6482 85.3226 11.7399 85.3226 11.8482L85.4147 13.6732C85.423 13.7649 85.3812 13.8482 85.3059 13.9065C84.1013 14.8315 82.9134 15.2482 81.1984 15.3399C81.0646 15.3482 80.9307 15.3482 80.7969 15.3482C77.3335 15.3649 74.8155 12.9482 74.6231 9.36487ZM101.451 15.0899C101.301 15.0899 101.175 14.9649 101.175 14.8149V3.36487C101.175 3.21487 101.301 3.08987 101.451 3.08987H103.208C103.35 3.08987 103.476 3.20654 103.484 3.34821L103.568 4.73154C104.538 3.54821 106.178 3.04821 107.809 3.04821C107.96 3.04821 108.085 3.17321 108.085 3.32321V5.08154C108.085 5.16488 108.052 5.23988 107.985 5.28988C107.935 5.33154 107.876 5.35654 107.809 5.35654C107.793 5.35654 107.776 5.35654 107.759 5.34821C107.508 5.29821 107.249 5.28154 106.989 5.28154C105.166 5.28154 103.744 6.83154 103.744 8.28154V14.8232C103.744 14.9732 103.618 15.0982 103.468 15.0982L101.451 15.0899Z" fill="#183B56"/>
</g>
<defs>
<clipPath id="clip0_1_1551">
<rect width="116.8" height="20" fill="white"/>
</clipPath>
</defs>
</svg>
