<svg width="5" height="9" viewBox="0 0 5 9" fill="none" xmlns="http://www.w3.org/2000/svg">
<path d="M0.620372 7.6746C0.440661 7.88427 0.464941 8.19992 0.674604 8.37963C0.884267 8.55934 1.19992 8.53506 1.37963 8.3254L0.620372 7.6746ZM4 4.5L4.37963 4.8254C4.54012 4.63815 4.54012 4.36185 4.37963 4.1746L4 4.5ZM1.37963 0.674604C1.19992 0.464942 0.884267 0.440661 0.674604 0.620372C0.464941 0.800083 0.440661 1.11573 0.620372 1.3254L1.37963 0.674604ZM1.37963 8.3254L4.37963 4.8254L3.62037 4.1746L0.620372 7.6746L1.37963 8.3254ZM4.37963 4.1746L1.37963 0.674604L0.620372 1.3254L3.62037 4.8254L4.37963 4.1746Z" fill="#046BD9"/>
</svg>
