<svg width="25" height="24" viewBox="0 0 25 24" fill="none" xmlns="http://www.w3.org/2000/svg">
<g clip-path="url(#clip0_0_434)">
<path d="M24.3483 3.87686C24.2169 3.69449 24.018 3.58834 23.8077 3.58834H5.38212L4.86688 1.10869C4.79436 0.759828 4.51466 0.512695 4.1923 0.512695H1.1923C0.809984 0.512695 0.5 0.856973 0.5 1.28163C0.5 1.70629 0.809984 2.05052 1.1923 2.05052H3.64156L7.139 18.8828C7.21147 19.2317 7.49122 19.4788 7.81358 19.4788H21.6846C22.067 19.4788 22.3769 19.1346 22.3769 18.71C22.3769 18.2853 22.0669 17.9411 21.6846 17.9411H8.36436L7.83186 15.3781H21.7308C22.0546 15.3781 22.3352 15.1288 22.4062 14.778L24.4831 4.52601C24.5293 4.29808 24.4797 4.05928 24.3483 3.87686Z" fill="#0B0F41"/>
<path d="M10.6538 18.3779C9.25414 18.3779 8.11536 19.6426 8.11536 21.1972C8.11536 22.7518 9.25409 24.0165 10.6538 24.0165C12.0535 24.0165 13.1923 22.7518 13.1923 21.1972C13.1923 19.6426 12.0536 18.3779 10.6538 18.3779Z" fill="#0B0F41"/>
<path d="M18.9616 18.3779C17.5619 18.3779 16.4231 19.6426 16.4231 21.1972C16.4231 22.7518 17.5618 24.0165 18.9616 24.0165C20.3613 24.0165 21.5 22.7518 21.5 21.1972C21.5 19.6426 20.3613 18.3779 18.9616 18.3779Z" fill="#0B0F41"/>
</g>
<defs>
<clipPath id="clip0_0_434">
<rect width="24" height="24" fill="white" transform="translate(0.5)"/>
</clipPath>
</defs>
</svg>
