<svg width="161" height="28" viewBox="0 0 161 28" fill="none" xmlns="http://www.w3.org/2000/svg">
<path fill-rule="evenodd" clip-rule="evenodd" d="M1.55332 19.5649C1.14053 19.5642 0.74501 19.4377 0.453723 19.2131C0.162437 18.9886 -0.000765871 18.6844 2.70233e-06 18.3676V14.0542C2.70233e-06 10.716 3.52174 8 7.85053 8C12.1799 8 15.7022 10.716 15.7022 14.0542C15.7027 14.2112 15.6629 14.3666 15.585 14.5118C15.5072 14.6569 15.3929 14.7889 15.2487 14.9001C15.1045 15.0113 14.9331 15.0996 14.7444 15.16C14.5557 15.2204 14.3533 15.2516 14.1489 15.252C13.7361 15.2512 13.3406 15.1245 13.0495 14.8999C12.7583 14.6753 12.5952 14.3711 12.5962 14.0542C12.5962 12.0364 10.4674 10.3951 7.85111 10.3951C5.23426 10.3951 3.10605 12.0369 3.10605 14.0542V18.3676C3.10682 18.6844 2.9437 18.9884 2.65254 19.213C2.36138 19.4375 1.966 19.5641 1.55332 19.5649ZM14.1489 20C9.8201 20 6.29837 17.2844 6.29837 13.9458C6.29745 13.6289 6.4605 13.3247 6.75168 13.1001C7.04286 12.8755 7.43832 12.7488 7.85111 12.748C8.26389 12.7488 8.65935 12.8755 8.95053 13.1001C9.24171 13.3247 9.40477 13.6289 9.40384 13.9458C9.40384 15.9636 11.5326 17.6049 14.1489 17.6049C16.7657 17.6049 18.8939 15.9631 18.8939 13.9458V9.63244C18.8932 9.31563 19.0563 9.01155 19.3475 8.78704C19.6386 8.56252 20.034 8.43594 20.4467 8.43511C20.8595 8.43582 21.255 8.56235 21.5463 8.78688C21.8376 9.01141 22.0008 9.31556 22 9.63244V13.9458C22 17.284 18.4783 20 14.1495 20H14.1489Z" fill="#0B0F41"/>
<path d="M28.792 11V2.6H31.804L33.472 9.92H33.688V2.6H35.248V11H32.236L30.568 3.68H30.352V11H28.792ZM39.5911 11.168C38.9991 11.168 38.4751 11.044 38.0191 10.796C37.5711 10.54 37.2191 10.184 36.9631 9.728C36.7151 9.264 36.5911 8.72 36.5911 8.096V7.952C36.5911 7.328 36.7151 6.788 36.9631 6.332C37.2111 5.868 37.5591 5.512 38.0071 5.264C38.4551 5.008 38.9751 4.88 39.5671 4.88C40.1511 4.88 40.6591 5.012 41.0911 5.276C41.5231 5.532 41.8591 5.892 42.0991 6.356C42.3391 6.812 42.4591 7.344 42.4591 7.952V8.468H38.1271C38.1431 8.876 38.2951 9.208 38.5831 9.464C38.8711 9.72 39.2231 9.848 39.6391 9.848C40.0631 9.848 40.3751 9.756 40.5751 9.572C40.7751 9.388 40.9271 9.184 41.0311 8.96L42.2671 9.608C42.1551 9.816 41.9911 10.044 41.7751 10.292C41.5671 10.532 41.2871 10.74 40.9351 10.916C40.5831 11.084 40.1351 11.168 39.5911 11.168ZM38.1391 7.34H40.9231C40.8911 6.996 40.7511 6.72 40.5031 6.512C40.2631 6.304 39.9471 6.2 39.5551 6.2C39.1471 6.2 38.8231 6.304 38.5831 6.512C38.3431 6.72 38.1951 6.996 38.1391 7.34ZM47.3808 11.168C46.8448 11.168 46.4328 11.076 46.1448 10.892C45.8568 10.708 45.6448 10.504 45.5088 10.28H45.2928V11H43.8048V2.6H45.3168V5.732H45.5328C45.6208 5.588 45.7368 5.452 45.8808 5.324C46.0328 5.196 46.2288 5.092 46.4688 5.012C46.7168 4.924 47.0208 4.88 47.3808 4.88C47.8608 4.88 48.3048 5 48.7128 5.24C49.1208 5.472 49.4488 5.816 49.6968 6.272C49.9448 6.728 50.0688 7.28 50.0688 7.928V8.12C50.0688 8.768 49.9448 9.32 49.6968 9.776C49.4488 10.232 49.1208 10.58 48.7128 10.82C48.3048 11.052 47.8608 11.168 47.3808 11.168ZM46.9248 9.848C47.3888 9.848 47.7768 9.7 48.0888 9.404C48.4008 9.1 48.5568 8.66 48.5568 8.084V7.964C48.5568 7.388 48.4008 6.952 48.0888 6.656C47.7848 6.352 47.3968 6.2 46.9248 6.2C46.4608 6.2 46.0728 6.352 45.7608 6.656C45.4488 6.952 45.2928 7.388 45.2928 7.964V8.084C45.2928 8.66 45.4488 9.1 45.7608 9.404C46.0728 9.7 46.4608 9.848 46.9248 9.848ZM53.7252 11.096C53.2612 11.096 52.8532 10.992 52.5012 10.784C52.1572 10.568 51.8892 10.272 51.6972 9.896C51.5052 9.52 51.4092 9.088 51.4092 8.6V5.048H52.9212V8.48C52.9212 8.928 53.0292 9.264 53.2452 9.488C53.4692 9.712 53.7852 9.824 54.1932 9.824C54.6572 9.824 55.0172 9.672 55.2732 9.368C55.5292 9.056 55.6572 8.624 55.6572 8.072V5.048H57.1692V11H55.6812V10.22H55.4652C55.3692 10.42 55.1892 10.616 54.9252 10.808C54.6612 11 54.2612 11.096 53.7252 11.096ZM58.8517 11V2.6H60.3637V11H58.8517ZM63.8872 11.168C63.4632 11.168 63.0832 11.096 62.7472 10.952C62.4112 10.8 62.1432 10.584 61.9432 10.304C61.7512 10.016 61.6552 9.668 61.6552 9.26C61.6552 8.852 61.7512 8.512 61.9432 8.24C62.1432 7.96 62.4152 7.752 62.7592 7.616C63.1112 7.472 63.5112 7.4 63.9592 7.4H65.5912V7.064C65.5912 6.784 65.5032 6.556 65.3272 6.38C65.1512 6.196 64.8712 6.104 64.4872 6.104C64.1112 6.104 63.8312 6.192 63.6472 6.368C63.4632 6.536 63.3432 6.756 63.2872 7.028L61.8952 6.56C61.9912 6.256 62.1432 5.98 62.3512 5.732C62.5672 5.476 62.8512 5.272 63.2032 5.12C63.5632 4.96 63.9992 4.88 64.5112 4.88C65.2952 4.88 65.9152 5.076 66.3712 5.468C66.8272 5.86 67.0552 6.428 67.0552 7.172V9.392C67.0552 9.632 67.1672 9.752 67.3912 9.752H67.8712V11H66.8632C66.5672 11 66.3232 10.928 66.1312 10.784C65.9392 10.64 65.8432 10.448 65.8432 10.208V10.196H65.6152C65.5832 10.292 65.5112 10.42 65.3992 10.58C65.2872 10.732 65.1112 10.868 64.8712 10.988C64.6312 11.108 64.3032 11.168 63.8872 11.168ZM64.1512 9.944C64.5752 9.944 64.9192 9.828 65.1832 9.596C65.4552 9.356 65.5912 9.04 65.5912 8.648V8.528H64.0672C63.7872 8.528 63.5672 8.588 63.4072 8.708C63.2472 8.828 63.1672 8.996 63.1672 9.212C63.1672 9.428 63.2512 9.604 63.4192 9.74C63.5872 9.876 63.8312 9.944 64.1512 9.944ZM71.9756 11V2.6H77.3756V4.04H73.5596V6.044H77.0396V7.484H73.5596V9.56H77.4476V11H71.9756ZM78.1401 11L80.3001 8L78.1641 5.048H79.9161L81.2721 7.028H81.4881L82.8441 5.048H84.5961L82.4601 8L84.6201 11H82.8441L81.4881 8.996H81.2721L79.9161 11H78.1401ZM85.7697 13.4V5.048H87.2577V5.768H87.4737C87.6097 5.536 87.8217 5.332 88.1097 5.156C88.3977 4.972 88.8097 4.88 89.3457 4.88C89.8257 4.88 90.2697 5 90.6777 5.24C91.0857 5.472 91.4137 5.816 91.6617 6.272C91.9097 6.728 92.0337 7.28 92.0337 7.928V8.12C92.0337 8.768 91.9097 9.32 91.6617 9.776C91.4137 10.232 91.0857 10.58 90.6777 10.82C90.2697 11.052 89.8257 11.168 89.3457 11.168C88.9857 11.168 88.6817 11.124 88.4337 11.036C88.1937 10.956 87.9977 10.852 87.8457 10.724C87.7017 10.588 87.5857 10.452 87.4977 10.316H87.2817V13.4H85.7697ZM88.8897 9.848C89.3617 9.848 89.7497 9.7 90.0537 9.404C90.3657 9.1 90.5217 8.66 90.5217 8.084V7.964C90.5217 7.388 90.3657 6.952 90.0537 6.656C89.7417 6.352 89.3537 6.2 88.8897 6.2C88.4257 6.2 88.0377 6.352 87.7257 6.656C87.4137 6.952 87.2577 7.388 87.2577 7.964V8.084C87.2577 8.66 87.4137 9.1 87.7257 9.404C88.0377 9.7 88.4257 9.848 88.8897 9.848ZM93.422 11V2.6H94.934V11H93.422ZM99.4415 11.168C98.8495 11.168 98.3175 11.048 97.8455 10.808C97.3735 10.568 97.0015 10.22 96.7295 9.764C96.4575 9.308 96.3215 8.76 96.3215 8.12V7.928C96.3215 7.288 96.4575 6.74 96.7295 6.284C97.0015 5.828 97.3735 5.48 97.8455 5.24C98.3175 5 98.8495 4.88 99.4415 4.88C100.034 4.88 100.566 5 101.038 5.24C101.51 5.48 101.882 5.828 102.154 6.284C102.426 6.74 102.562 7.288 102.562 7.928V8.12C102.562 8.76 102.426 9.308 102.154 9.764C101.882 10.22 101.51 10.568 101.038 10.808C100.566 11.048 100.034 11.168 99.4415 11.168ZM99.4415 9.824C99.9055 9.824 100.29 9.676 100.594 9.38C100.898 9.076 101.05 8.644 101.05 8.084V7.964C101.05 7.404 100.898 6.976 100.594 6.68C100.298 6.376 99.9135 6.224 99.4415 6.224C98.9775 6.224 98.5935 6.376 98.2895 6.68C97.9855 6.976 97.8335 7.404 97.8335 7.964V8.084C97.8335 8.644 97.9855 9.076 98.2895 9.38C98.5935 9.676 98.9775 9.824 99.4415 9.824ZM103.957 11V5.048H105.445V5.72H105.661C105.749 5.48 105.893 5.304 106.093 5.192C106.301 5.08 106.541 5.024 106.813 5.024H107.533V6.368H106.789C106.405 6.368 106.089 6.472 105.841 6.68C105.593 6.88 105.469 7.192 105.469 7.616V11H103.957ZM111.216 11.168C110.624 11.168 110.1 11.044 109.644 10.796C109.196 10.54 108.844 10.184 108.588 9.728C108.34 9.264 108.216 8.72 108.216 8.096V7.952C108.216 7.328 108.34 6.788 108.588 6.332C108.836 5.868 109.184 5.512 109.632 5.264C110.08 5.008 110.6 4.88 111.192 4.88C111.776 4.88 112.284 5.012 112.716 5.276C113.148 5.532 113.484 5.892 113.724 6.356C113.964 6.812 114.084 7.344 114.084 7.952V8.468H109.752C109.768 8.876 109.92 9.208 110.208 9.464C110.496 9.72 110.848 9.848 111.264 9.848C111.688 9.848 112 9.756 112.2 9.572C112.4 9.388 112.552 9.184 112.656 8.96L113.892 9.608C113.78 9.816 113.616 10.044 113.4 10.292C113.192 10.532 112.912 10.74 112.56 10.916C112.208 11.084 111.76 11.168 111.216 11.168ZM109.764 7.34H112.548C112.516 6.996 112.376 6.72 112.128 6.512C111.888 6.304 111.572 6.2 111.18 6.2C110.772 6.2 110.448 6.304 110.208 6.512C109.968 6.72 109.82 6.996 109.764 7.34ZM117.614 5.264V2.6H118.574L119.078 4.808H119.198L119.702 2.6H120.662V5.264H120.158V3.056H120.038L119.534 5.264H118.742L118.238 3.056H118.118V5.264H117.614ZM115.862 5.264V3.056H114.974V2.6H117.254V3.056H116.366V5.264H115.862ZM28.792 25V16.6H32.44C32.968 16.6 33.428 16.692 33.82 16.876C34.212 17.06 34.516 17.32 34.732 17.656C34.948 17.992 35.056 18.388 35.056 18.844V18.988C35.056 19.492 34.936 19.9 34.696 20.212C34.456 20.524 34.16 20.752 33.808 20.896V21.112C34.128 21.128 34.376 21.24 34.552 21.448C34.728 21.648 34.816 21.916 34.816 22.252V25H33.232V22.48C33.232 22.288 33.18 22.132 33.076 22.012C32.98 21.892 32.816 21.832 32.584 21.832H30.376V25H28.792ZM30.376 20.392H32.272C32.648 20.392 32.94 20.292 33.148 20.092C33.364 19.884 33.472 19.612 33.472 19.276V19.156C33.472 18.82 33.368 18.552 33.16 18.352C32.952 18.144 32.656 18.04 32.272 18.04H30.376V20.392ZM39.134 25.168C38.542 25.168 38.018 25.044 37.562 24.796C37.114 24.54 36.762 24.184 36.506 23.728C36.258 23.264 36.134 22.72 36.134 22.096V21.952C36.134 21.328 36.258 20.788 36.506 20.332C36.754 19.868 37.102 19.512 37.55 19.264C37.998 19.008 38.518 18.88 39.11 18.88C39.694 18.88 40.202 19.012 40.634 19.276C41.066 19.532 41.402 19.892 41.642 20.356C41.882 20.812 42.002 21.344 42.002 21.952V22.468H37.67C37.686 22.876 37.838 23.208 38.126 23.464C38.414 23.72 38.766 23.848 39.182 23.848C39.606 23.848 39.918 23.756 40.118 23.572C40.318 23.388 40.47 23.184 40.574 22.96L41.81 23.608C41.698 23.816 41.534 24.044 41.318 24.292C41.11 24.532 40.83 24.74 40.478 24.916C40.126 25.084 39.678 25.168 39.134 25.168ZM37.682 21.34H40.466C40.434 20.996 40.294 20.72 40.046 20.512C39.806 20.304 39.49 20.2 39.098 20.2C38.69 20.2 38.366 20.304 38.126 20.512C37.886 20.72 37.738 20.996 37.682 21.34ZM43.3478 27.4V19.048H44.8358V19.768H45.0518C45.1878 19.536 45.3998 19.332 45.6878 19.156C45.9758 18.972 46.3878 18.88 46.9238 18.88C47.4038 18.88 47.8478 19 48.2558 19.24C48.6638 19.472 48.9918 19.816 49.2398 20.272C49.4878 20.728 49.6118 21.28 49.6118 21.928V22.12C49.6118 22.768 49.4878 23.32 49.2398 23.776C48.9918 24.232 48.6638 24.58 48.2558 24.82C47.8478 25.052 47.4038 25.168 46.9238 25.168C46.5638 25.168 46.2598 25.124 46.0118 25.036C45.7718 24.956 45.5758 24.852 45.4238 24.724C45.2798 24.588 45.1638 24.452 45.0758 24.316H44.8598V27.4H43.3478ZM46.4678 23.848C46.9398 23.848 47.3278 23.7 47.6318 23.404C47.9438 23.1 48.0998 22.66 48.0998 22.084V21.964C48.0998 21.388 47.9438 20.952 47.6318 20.656C47.3198 20.352 46.9318 20.2 46.4678 20.2C46.0038 20.2 45.6158 20.352 45.3038 20.656C44.9918 20.952 44.8358 21.388 44.8358 21.964V22.084C44.8358 22.66 44.9918 23.1 45.3038 23.404C45.6158 23.7 46.0038 23.848 46.4678 23.848ZM53.8322 25.168C53.2402 25.168 52.7082 25.048 52.2362 24.808C51.7642 24.568 51.3922 24.22 51.1202 23.764C50.8482 23.308 50.7122 22.76 50.7122 22.12V21.928C50.7122 21.288 50.8482 20.74 51.1202 20.284C51.3922 19.828 51.7642 19.48 52.2362 19.24C52.7082 19 53.2402 18.88 53.8322 18.88C54.4242 18.88 54.9562 19 55.4282 19.24C55.9002 19.48 56.2722 19.828 56.5442 20.284C56.8162 20.74 56.9522 21.288 56.9522 21.928V22.12C56.9522 22.76 56.8162 23.308 56.5442 23.764C56.2722 24.22 55.9002 24.568 55.4282 24.808C54.9562 25.048 54.4242 25.168 53.8322 25.168ZM53.8322 23.824C54.2962 23.824 54.6802 23.676 54.9842 23.38C55.2882 23.076 55.4402 22.644 55.4402 22.084V21.964C55.4402 21.404 55.2882 20.976 54.9842 20.68C54.6882 20.376 54.3042 20.224 53.8322 20.224C53.3682 20.224 52.9842 20.376 52.6802 20.68C52.3762 20.976 52.2242 21.404 52.2242 21.964V22.084C52.2242 22.644 52.3762 23.076 52.6802 23.38C52.9842 23.676 53.3682 23.824 53.8322 23.824ZM58.3478 25V19.048H59.8358V19.72H60.0518C60.1398 19.48 60.2838 19.304 60.4838 19.192C60.6918 19.08 60.9318 19.024 61.2038 19.024H61.9238V20.368H61.1798C60.7958 20.368 60.4798 20.472 60.2318 20.68C59.9838 20.88 59.8598 21.192 59.8598 21.616V25H58.3478ZM65.3856 25C64.9936 25 64.6736 24.88 64.4256 24.64C64.1856 24.392 64.0656 24.064 64.0656 23.656V20.296H62.5776V19.048H64.0656V17.2H65.5776V19.048H67.2096V20.296H65.5776V23.392C65.5776 23.632 65.6896 23.752 65.9136 23.752H67.0656V25H65.3856ZM68.5783 25V19.048H70.0903V25H68.5783ZM69.3343 18.352C69.0623 18.352 68.8303 18.264 68.6383 18.088C68.4543 17.912 68.3623 17.68 68.3623 17.392C68.3623 17.104 68.4543 16.872 68.6383 16.696C68.8303 16.52 69.0623 16.432 69.3343 16.432C69.6143 16.432 69.8463 16.52 70.0303 16.696C70.2143 16.872 70.3063 17.104 70.3063 17.392C70.3063 17.68 70.2143 17.912 70.0303 18.088C69.8463 18.264 69.6143 18.352 69.3343 18.352ZM71.7658 25V19.048H73.2538V19.828H73.4698C73.5658 19.62 73.7458 19.424 74.0098 19.24C74.2738 19.048 74.6738 18.952 75.2098 18.952C75.6738 18.952 76.0778 19.06 76.4218 19.276C76.7738 19.484 77.0458 19.776 77.2378 20.152C77.4298 20.52 77.5258 20.952 77.5258 21.448V25H76.0138V21.568C76.0138 21.12 75.9018 20.784 75.6778 20.56C75.4618 20.336 75.1498 20.224 74.7418 20.224C74.2778 20.224 73.9178 20.38 73.6618 20.692C73.4058 20.996 73.2778 21.424 73.2778 21.976V25H71.7658ZM78.8723 22.048V21.856C78.8723 21.232 78.9963 20.7 79.2443 20.26C79.4923 19.812 79.8203 19.472 80.2283 19.24C80.6443 19 81.0963 18.88 81.5843 18.88C82.1283 18.88 82.5403 18.976 82.8203 19.168C83.1003 19.36 83.3043 19.56 83.4323 19.768H83.6483V19.048H85.1363V26.056C85.1363 26.464 85.0163 26.788 84.7763 27.028C84.5363 27.276 84.2163 27.4 83.8163 27.4H79.8323V26.08H83.2883C83.5123 26.08 83.6243 25.96 83.6243 25.72V24.172H83.4083C83.3283 24.3 83.2163 24.432 83.0723 24.568C82.9283 24.696 82.7363 24.804 82.4963 24.892C82.2563 24.98 81.9523 25.024 81.5843 25.024C81.0963 25.024 80.6443 24.908 80.2283 24.676C79.8203 24.436 79.4923 24.096 79.2443 23.656C78.9963 23.208 78.8723 22.672 78.8723 22.048ZM82.0163 23.704C82.4803 23.704 82.8683 23.556 83.1803 23.26C83.4923 22.964 83.6483 22.548 83.6483 22.012V21.892C83.6483 21.348 83.4923 20.932 83.1803 20.644C82.8763 20.348 82.4883 20.2 82.0163 20.2C81.5523 20.2 81.1643 20.348 80.8523 20.644C80.5403 20.932 80.3843 21.348 80.3843 21.892V22.012C80.3843 22.548 80.5403 22.964 80.8523 23.26C81.1643 23.556 81.5523 23.704 82.0163 23.704ZM89.8115 25V16.6H92.7515L94.2035 23.92H94.4195L95.8715 16.6H98.8115V25H97.2755V17.764H97.0595L95.6195 25H93.0035L91.5635 17.764H91.3475V25H89.8115ZM103.154 25.168C102.562 25.168 102.038 25.044 101.582 24.796C101.134 24.54 100.782 24.184 100.526 23.728C100.278 23.264 100.154 22.72 100.154 22.096V21.952C100.154 21.328 100.278 20.788 100.526 20.332C100.774 19.868 101.122 19.512 101.57 19.264C102.018 19.008 102.538 18.88 103.13 18.88C103.714 18.88 104.222 19.012 104.654 19.276C105.086 19.532 105.422 19.892 105.662 20.356C105.902 20.812 106.022 21.344 106.022 21.952V22.468H101.69C101.706 22.876 101.858 23.208 102.146 23.464C102.434 23.72 102.786 23.848 103.202 23.848C103.626 23.848 103.938 23.756 104.138 23.572C104.338 23.388 104.49 23.184 104.594 22.96L105.83 23.608C105.718 23.816 105.554 24.044 105.338 24.292C105.13 24.532 104.85 24.74 104.498 24.916C104.146 25.084 103.698 25.168 103.154 25.168ZM101.702 21.34H104.486C104.454 20.996 104.314 20.72 104.066 20.512C103.826 20.304 103.51 20.2 103.118 20.2C102.71 20.2 102.386 20.304 102.146 20.512C101.906 20.72 101.758 20.996 101.702 21.34ZM107.367 25V19.048H108.855V19.696H109.071C109.175 19.496 109.347 19.324 109.587 19.18C109.827 19.028 110.143 18.952 110.535 18.952C110.959 18.952 111.299 19.036 111.555 19.204C111.811 19.364 112.007 19.576 112.143 19.84H112.359C112.495 19.584 112.687 19.372 112.935 19.204C113.183 19.036 113.535 18.952 113.991 18.952C114.359 18.952 114.691 19.032 114.987 19.192C115.291 19.344 115.531 19.58 115.707 19.9C115.891 20.212 115.983 20.608 115.983 21.088V25H114.471V21.196C114.471 20.868 114.387 20.624 114.219 20.464C114.051 20.296 113.815 20.212 113.511 20.212C113.167 20.212 112.899 20.324 112.707 20.548C112.523 20.764 112.431 21.076 112.431 21.484V25H110.919V21.196C110.919 20.868 110.835 20.624 110.667 20.464C110.499 20.296 110.263 20.212 109.959 20.212C109.615 20.212 109.347 20.324 109.155 20.548C108.971 20.764 108.879 21.076 108.879 21.484V25H107.367ZM121.186 25.168C120.65 25.168 120.238 25.076 119.95 24.892C119.662 24.708 119.45 24.504 119.314 24.28H119.098V25H117.61V16.6H119.122V19.732H119.338C119.426 19.588 119.542 19.452 119.686 19.324C119.838 19.196 120.034 19.092 120.274 19.012C120.522 18.924 120.826 18.88 121.186 18.88C121.666 18.88 122.11 19 122.518 19.24C122.926 19.472 123.254 19.816 123.502 20.272C123.75 20.728 123.874 21.28 123.874 21.928V22.12C123.874 22.768 123.75 23.32 123.502 23.776C123.254 24.232 122.926 24.58 122.518 24.82C122.11 25.052 121.666 25.168 121.186 25.168ZM120.73 23.848C121.194 23.848 121.582 23.7 121.894 23.404C122.206 23.1 122.362 22.66 122.362 22.084V21.964C122.362 21.388 122.206 20.952 121.894 20.656C121.59 20.352 121.202 20.2 120.73 20.2C120.266 20.2 119.878 20.352 119.566 20.656C119.254 20.952 119.098 21.388 119.098 21.964V22.084C119.098 22.66 119.254 23.1 119.566 23.404C119.878 23.7 120.266 23.848 120.73 23.848ZM127.974 25.168C127.382 25.168 126.858 25.044 126.402 24.796C125.954 24.54 125.602 24.184 125.346 23.728C125.098 23.264 124.974 22.72 124.974 22.096V21.952C124.974 21.328 125.098 20.788 125.346 20.332C125.594 19.868 125.942 19.512 126.39 19.264C126.838 19.008 127.358 18.88 127.95 18.88C128.534 18.88 129.042 19.012 129.474 19.276C129.906 19.532 130.242 19.892 130.482 20.356C130.722 20.812 130.842 21.344 130.842 21.952V22.468H126.51C126.526 22.876 126.678 23.208 126.966 23.464C127.254 23.72 127.606 23.848 128.022 23.848C128.446 23.848 128.758 23.756 128.958 23.572C129.158 23.388 129.31 23.184 129.414 22.96L130.65 23.608C130.538 23.816 130.374 24.044 130.158 24.292C129.95 24.532 129.67 24.74 129.318 24.916C128.966 25.084 128.518 25.168 127.974 25.168ZM126.522 21.34H129.306C129.274 20.996 129.134 20.72 128.886 20.512C128.646 20.304 128.33 20.2 127.938 20.2C127.53 20.2 127.206 20.304 126.966 20.512C126.726 20.72 126.578 20.996 126.522 21.34ZM132.188 25V19.048H133.676V19.72H133.892C133.98 19.48 134.124 19.304 134.324 19.192C134.532 19.08 134.772 19.024 135.044 19.024H135.764V20.368H135.02C134.636 20.368 134.32 20.472 134.072 20.68C133.824 20.88 133.7 21.192 133.7 21.616V25H132.188ZM139.277 25.168C138.501 25.168 137.865 25 137.369 24.664C136.873 24.328 136.573 23.848 136.469 23.224L137.861 22.864C137.917 23.144 138.009 23.364 138.137 23.524C138.273 23.684 138.437 23.8 138.629 23.872C138.829 23.936 139.045 23.968 139.277 23.968C139.629 23.968 139.889 23.908 140.057 23.788C140.225 23.66 140.309 23.504 140.309 23.32C140.309 23.136 140.229 22.996 140.069 22.9C139.909 22.796 139.653 22.712 139.301 22.648L138.965 22.588C138.549 22.508 138.169 22.4 137.825 22.264C137.481 22.12 137.205 21.924 136.997 21.676C136.789 21.428 136.685 21.108 136.685 20.716C136.685 20.124 136.901 19.672 137.333 19.36C137.765 19.04 138.333 18.88 139.037 18.88C139.701 18.88 140.253 19.028 140.693 19.324C141.133 19.62 141.421 20.008 141.557 20.488L140.153 20.92C140.089 20.616 139.957 20.4 139.757 20.272C139.565 20.144 139.325 20.08 139.037 20.08C138.749 20.08 138.529 20.132 138.377 20.236C138.225 20.332 138.149 20.468 138.149 20.644C138.149 20.836 138.229 20.98 138.389 21.076C138.549 21.164 138.765 21.232 139.037 21.28L139.373 21.34C139.821 21.42 140.225 21.528 140.585 21.664C140.953 21.792 141.241 21.98 141.449 22.228C141.665 22.468 141.773 22.796 141.773 23.212C141.773 23.836 141.545 24.32 141.089 24.664C140.641 25 140.037 25.168 139.277 25.168ZM143.098 25V16.6H144.61V19.78H144.826C144.89 19.652 144.99 19.524 145.126 19.396C145.262 19.268 145.442 19.164 145.666 19.084C145.898 18.996 146.19 18.952 146.542 18.952C147.006 18.952 147.41 19.06 147.754 19.276C148.106 19.484 148.378 19.776 148.57 20.152C148.762 20.52 148.858 20.952 148.858 21.448V25H147.346V21.568C147.346 21.12 147.234 20.784 147.01 20.56C146.794 20.336 146.482 20.224 146.074 20.224C145.61 20.224 145.25 20.38 144.994 20.692C144.738 20.996 144.61 21.424 144.61 21.976V25H143.098ZM150.492 25V19.048H152.004V25H150.492ZM151.248 18.352C150.976 18.352 150.744 18.264 150.552 18.088C150.368 17.912 150.276 17.68 150.276 17.392C150.276 17.104 150.368 16.872 150.552 16.696C150.744 16.52 150.976 16.432 151.248 16.432C151.528 16.432 151.76 16.52 151.944 16.696C152.128 16.872 152.22 17.104 152.22 17.392C152.22 17.68 152.128 17.912 151.944 18.088C151.76 18.264 151.528 18.352 151.248 18.352ZM153.68 27.4V19.048H155.168V19.768H155.384C155.52 19.536 155.732 19.332 156.02 19.156C156.308 18.972 156.72 18.88 157.256 18.88C157.736 18.88 158.18 19 158.588 19.24C158.996 19.472 159.324 19.816 159.572 20.272C159.82 20.728 159.944 21.28 159.944 21.928V22.12C159.944 22.768 159.82 23.32 159.572 23.776C159.324 24.232 158.996 24.58 158.588 24.82C158.18 25.052 157.736 25.168 157.256 25.168C156.896 25.168 156.592 25.124 156.344 25.036C156.104 24.956 155.908 24.852 155.756 24.724C155.612 24.588 155.496 24.452 155.408 24.316H155.192V27.4H153.68ZM156.8 23.848C157.272 23.848 157.66 23.7 157.964 23.404C158.276 23.1 158.432 22.66 158.432 22.084V21.964C158.432 21.388 158.276 20.952 157.964 20.656C157.652 20.352 157.264 20.2 156.8 20.2C156.336 20.2 155.948 20.352 155.636 20.656C155.324 20.952 155.168 21.388 155.168 21.964V22.084C155.168 22.66 155.324 23.1 155.636 23.404C155.948 23.7 156.336 23.848 156.8 23.848Z" fill="#0B0F41"/>
</svg>
