<svg width="37" height="22" viewBox="0 0 37 22" fill="none" xmlns="http://www.w3.org/2000/svg">
<path fill-rule="evenodd" clip-rule="evenodd" d="M2.6124 21.2023C1.91817 21.201 1.25297 20.969 0.76308 20.5574C0.273189 20.1457 -0.00128806 19.5881 4.54484e-06 19.0072V11.0994C4.54484e-06 4.97933 5.92292 0 13.2032 0C20.4844 0 26.4083 4.97933 26.4083 11.0994C26.409 11.3871 26.3421 11.6722 26.2112 11.9383C26.0803 12.2043 25.8881 12.4462 25.6455 12.6501C25.4029 12.854 25.1147 13.016 24.7974 13.1267C24.48 13.2374 24.1397 13.2947 23.7959 13.2953C23.1016 13.2938 22.4365 13.0616 21.9468 12.6498C21.4571 12.2381 21.1829 11.6804 21.1844 11.0994C21.1844 7.40015 17.6042 4.39104 13.2041 4.39104C8.80308 4.39104 5.22382 7.40096 5.22382 11.0994V19.0072C5.22511 19.588 4.95077 20.1455 4.46109 20.5571C3.97141 20.9687 3.30646 21.2008 2.6124 21.2023ZM23.7959 22C16.5156 22 10.5927 17.0215 10.5927 10.9006C10.5912 10.3196 10.8654 9.76194 11.3551 9.35015C11.8448 8.93836 12.5099 8.70618 13.2041 8.70467C13.8984 8.70618 14.5635 8.93836 15.0532 9.35015C15.5429 9.76194 15.8171 10.3196 15.8156 10.9006C15.8156 14.5999 19.3958 17.609 23.7959 17.609C28.1969 17.609 31.7762 14.599 31.7762 10.9006V2.99281C31.7749 2.412 32.0492 1.85451 32.5389 1.4429C33.0286 1.03128 33.6935 0.799215 34.3876 0.797704C35.0818 0.798999 35.747 1.03097 36.2369 1.44261C36.7268 1.85425 37.0013 2.41186 37 2.99281V10.9006C37 17.0207 31.0771 22 23.7968 22H23.7959Z" fill="#0B0F41"/>
</svg>
