<svg width="16" height="16" viewBox="0 0 16 16" fill="none" xmlns="http://www.w3.org/2000/svg">
<path d="M8 15.3511C3.81055 15.3511 0.36084 11.9014 0.36084 7.71191C0.36084 3.52979 3.81055 0.0727539 7.99268 0.0727539C12.1821 0.0727539 15.6392 3.52979 15.6392 7.71191C15.6392 11.9014 12.1895 15.3511 8 15.3511ZM7.18701 11.3521C7.47998 11.3521 7.73633 11.2056 7.91211 10.9419L11.3325 5.66113C11.4424 5.49268 11.5303 5.29492 11.5303 5.11914C11.5303 4.70898 11.1641 4.42334 10.7686 4.42334C10.5122 4.42334 10.2925 4.56982 10.1167 4.84082L7.16504 9.55762L5.81006 7.8584C5.61963 7.62402 5.4292 7.52881 5.1875 7.52881C4.77734 7.52881 4.45508 7.8584 4.45508 8.26855C4.45508 8.46631 4.521 8.64209 4.66748 8.8252L6.43262 10.9492C6.65234 11.2202 6.88672 11.3521 7.18701 11.3521Z" fill="#49BB54"/>
</svg>
