<svg width="18" height="18" viewBox="0 0 18 18" fill="none" xmlns="http://www.w3.org/2000/svg">
<path d="M6.46031 1.7867C5.98149 1.7867 5.60527 1.38966 5.60527 0.893352C5.60527 0.404135 5.98149 0 6.46031 0C6.93914 0 7.3222 0.404135 7.3222 0.893352C7.3222 1.38966 6.93914 1.7867 6.46031 1.7867ZM10.7697 2.95657C9.99678 2.95657 9.38115 2.31137 9.38115 1.51019C9.38115 0.694829 9.99678 0.0638109 10.7697 0.0638109C11.5495 0.0638109 12.1652 0.694829 12.1652 1.51019C12.1652 2.31137 11.5495 2.95657 10.7697 2.95657ZM16.4746 2.06322C16.071 2.06322 15.7564 1.72998 15.7564 1.31876C15.7564 0.914622 16.071 0.574298 16.4746 0.574298C16.8577 0.574298 17.1792 0.914622 17.1792 1.31876C17.1792 1.72998 16.8577 2.06322 16.4746 2.06322ZM14.3678 2.40354C14.5867 2.16957 14.9629 2.16957 15.1955 2.40354C15.4212 2.64461 15.428 3.03456 15.1955 3.26853L13.9231 4.58729C13.6974 4.82835 13.3212 4.82126 13.0955 4.58729C12.8697 4.34623 12.8629 3.96336 13.0955 3.7223L14.3678 2.40354ZM11.3033 13.7831L1.88411 17.867C0.673367 18.3917 -0.40057 17.2786 0.146659 16.0165L4.28508 6.50162C4.71602 5.509 5.60527 5.39556 6.59712 5.7288C6.6108 4.84254 6.52872 3.95627 6.37139 3.0771C6.29614 2.72969 6.61764 2.44608 6.93914 2.43899C7.26063 2.43899 7.46585 2.70133 7.52741 3.01329C7.72578 4.10517 7.79418 5.18286 7.73946 6.27473C8.34141 6.62924 8.92284 7.083 9.42903 7.54386L11.7548 5.14741C11.9668 4.92762 12.343 4.91344 12.5756 5.1545C12.7945 5.39556 12.7876 5.77843 12.5756 6.00531L10.2636 8.40885C10.7082 8.92643 11.1391 9.53618 11.4811 10.1601C12.5346 10.1034 13.588 10.1743 14.6414 10.3799C14.9424 10.4508 15.2023 10.6564 15.2023 10.9967C15.2023 11.3371 14.915 11.6632 14.5867 11.5852C13.7316 11.4151 12.8697 11.3371 12.0078 11.3512C12.3499 12.4148 12.2541 13.3719 11.3033 13.7831ZM9.47691 5.25376C9.08701 5.25376 8.75867 4.92053 8.75867 4.5093C8.75867 4.10517 9.08701 3.76484 9.47691 3.76484C9.87365 3.76484 10.1883 4.10517 10.1883 4.5093C10.1883 4.92053 9.87365 5.25376 9.47691 5.25376ZM14.1147 8.8768C13.4512 8.8768 12.9313 8.33795 12.9313 7.65021C12.9313 6.96247 13.4512 6.40945 14.1147 6.40945C14.785 6.40945 15.3186 6.96247 15.3186 7.65021C15.3186 8.33795 14.785 8.8768 14.1147 8.8768ZM7.3564 10.6068C9.01177 12.3297 10.5098 12.9961 10.9134 12.5707C11.0912 12.3864 11.0639 11.9752 10.8313 11.4292C10.4688 11.4647 10.1062 11.5214 9.74369 11.5923C9.40851 11.6632 9.14173 11.33 9.14173 10.9967C9.13489 10.6777 9.37431 10.4579 9.68896 10.387C9.85313 10.3515 10.0241 10.3232 10.1883 10.2948C9.96942 9.98285 9.70948 9.64962 9.40167 9.3022L9.04597 9.67089C8.82024 9.91195 8.44402 9.90486 8.21144 9.67089C7.99255 9.43692 7.98571 9.03987 8.21144 8.8059L8.56714 8.4443C8.23197 8.12525 7.91047 7.85582 7.60949 7.63603C7.58213 7.80619 7.55477 7.97636 7.52057 8.15361C7.459 8.47975 7.24011 8.72791 6.9323 8.72082C6.6108 8.72082 6.2893 8.4443 6.36455 8.0898C6.43295 7.72111 6.48767 7.35243 6.52872 6.98374C6.01569 6.75686 5.63263 6.7285 5.46162 6.91284C5.0512 7.33116 5.68735 8.88389 7.3564 10.6068ZM17.1381 8.5861C16.6593 8.5861 16.2762 8.19615 16.2762 7.69984C16.2762 7.20354 16.6525 6.7994 17.1381 6.7994C17.6169 6.7994 18 7.20354 18 7.69984C18 8.19615 17.6169 8.5861 17.1381 8.5861ZM16.8098 12.273C16.331 12.273 15.9479 11.883 15.9479 11.3796C15.9479 10.8833 16.331 10.4933 16.8098 10.4933C17.2818 10.4933 17.6648 10.8833 17.6648 11.3796C17.6648 11.883 17.2818 12.273 16.8098 12.273Z" fill="#17181A"/>
</svg>
