<svg width="84" height="20" viewBox="0 0 84 20" fill="none" xmlns="http://www.w3.org/2000/svg">
<path d="M4.0345 19.545C6.58119 19.545 8.10251 18.2851 8.10251 16.308V16.3013C8.10251 14.7398 7.16425 13.9155 5.10679 13.5134L4.10822 13.319C3.06274 13.1113 2.62041 12.8097 2.62041 12.2601V12.2534C2.62041 11.6771 3.14316 11.2817 4.0278 11.2817C4.56022 11.2817 5.10374 11.4431 5.40875 11.8358C5.61553 12.102 5.88331 12.3674 6.22041 12.3674H7.1654C7.56885 12.3674 7.89442 12.0176 7.77344 11.6328C7.28225 10.0702 5.69273 9.35156 4.01439 9.35156C1.78939 9.35156 0.180949 10.5713 0.174248 12.4679V12.4746C0.174248 13.9825 1.05889 14.9476 3.10295 15.343L4.10152 15.5373C5.23413 15.7585 5.66304 16.0132 5.66304 16.556V16.5627C5.66304 17.1793 5.03307 17.6149 4.07471 17.6149C3.55664 17.6149 2.9271 17.4794 2.58631 17.0872C2.35586 16.8219 2.0798 16.5292 1.72842 16.5292H0.728973C0.333085 16.5292 0.00910895 16.8669 0.118697 17.2473C0.589702 18.8824 2.32297 19.545 4.0345 19.545Z" fill="white"/>
<path d="M10.6527 18.7684C10.732 19.0719 11.0062 19.2836 11.3199 19.2836H12.5771C12.8892 19.2836 13.1624 19.0741 13.2432 18.7726L14.6789 13.4176C14.6881 13.3832 14.7193 13.3592 14.755 13.3592C14.7905 13.3592 14.8216 13.383 14.831 13.4173L16.2917 18.7754C16.3735 19.0755 16.646 19.2836 16.957 19.2836H18.2031C18.5168 19.2836 18.791 19.0719 18.8703 18.7684L21.0366 10.4768C21.1508 10.0399 20.821 9.61293 20.3694 9.61293H19.2957C18.9664 9.61293 18.683 9.84582 18.6192 10.1689L17.4743 15.9659C17.4674 16.0011 17.4365 16.0266 17.4005 16.0266C17.366 16.0266 17.3359 16.0031 17.3275 15.9695L15.8705 10.1354C15.7938 9.82838 15.5179 9.61293 15.2014 9.61293H14.3126C13.9941 9.61293 13.717 9.83109 13.6423 10.1407L12.2354 15.9691C12.2273 16.0028 12.1971 16.0266 12.1624 16.0266C12.1266 16.0266 12.0958 16.0013 12.0888 15.9663L10.9253 10.1669C10.8607 9.84474 10.5777 9.61293 10.2492 9.61293H9.15366C8.70202 9.61293 8.37229 10.0399 8.48646 10.4768L10.6527 18.7684Z" fill="white"/>
<path d="M22.1309 18.594C22.1309 18.9749 22.4397 19.2836 22.8205 19.2836H23.9009C24.2818 19.2836 24.5905 18.9749 24.5905 18.594V10.3025C24.5905 9.92168 24.2818 9.61293 23.9009 9.61293H22.8205C22.4397 9.61293 22.1309 9.92168 22.1309 10.3025V18.594Z" fill="white"/>
<path d="M25.9598 18.594C25.9598 18.9749 26.2686 19.2836 26.6494 19.2836H27.6025C27.9833 19.2836 28.2921 18.9749 28.2921 18.594V13.8683C28.2921 13.824 28.3279 13.7882 28.3722 13.7882C28.3977 13.7882 28.4216 13.8003 28.4367 13.8208L32.2539 19.003C32.3839 19.1795 32.59 19.2836 32.8091 19.2836H33.7212C34.1021 19.2836 34.4108 18.9749 34.4108 18.594V10.3025C34.4108 9.92168 34.1021 9.61293 33.7212 9.61293H32.7682C32.3873 9.61293 32.0786 9.92168 32.0786 10.3025V14.9746C32.0786 15.0189 32.0427 15.0548 31.9984 15.0548C31.973 15.0548 31.949 15.0428 31.9339 15.0224L28.1302 9.89184C28.0002 9.71639 27.7947 9.61293 27.5763 9.61293H26.6494C26.2686 9.61293 25.9598 9.92168 25.9598 10.3025V18.594Z" fill="white"/>
<path d="M40.1584 19.545C42.8928 19.545 44.5481 17.9165 44.5481 15.2559V14.6989C44.5481 14.3181 44.2394 14.0093 43.8585 14.0093H41.096C40.7151 14.0093 40.4064 14.3181 40.4064 14.6989V15.0086C40.4064 15.3894 40.7151 15.6982 41.096 15.6982H42.0147C42.1025 15.6982 42.1726 15.7713 42.169 15.859C42.1019 16.8509 41.3312 17.5077 40.212 17.5077C38.8046 17.5077 37.8932 16.3281 37.8932 14.4181V14.4047C37.8932 12.5282 38.7175 11.3889 40.0914 11.3889C40.7877 11.3889 41.4683 11.6872 41.822 12.2589C41.992 12.5338 42.2582 12.7695 42.5814 12.7695H43.6923C44.1002 12.7695 44.4253 12.4126 44.2985 12.0248C43.7347 10.3005 41.8952 9.35156 40.0914 9.35156C37.1895 9.35156 35.3934 11.2951 35.3934 14.4315V14.4449C35.3934 17.6216 37.1828 19.545 40.1584 19.545Z" fill="white"/>
<path opacity="0.4" d="M47.6395 4.04195C39.061 -2.21416 24.1669 0.00734597 8.9406 8.45446C8.75475 8.55757 8.82602 8.83952 9.03856 8.83952H10.5213C10.5504 8.83952 10.5802 8.83292 10.6067 8.82106C31.6602 -0.578037 37.3762 2.03669 47.4776 4.3814C47.6902 4.43073 47.8157 4.1705 47.6395 4.04195Z" fill="#CCD4DA"/>
<path fill-rule="evenodd" clip-rule="evenodd" d="M51.5023 6.59781C50.9785 6.41307 50.415 6.31256 49.828 6.31256C47.506 6.31256 45.5513 7.88545 44.9712 10.0239C43.6113 6.00022 41.268 2.08447 34.0728 0.467563C40.3224 0.384045 46.1176 0.657241 51.5023 6.59781Z" fill="white"/>
<path fill-rule="evenodd" clip-rule="evenodd" d="M49.8285 15.6551C52.2089 15.6551 54.1385 13.7255 54.1385 11.3451C54.1385 8.9648 52.2089 7.03516 49.8285 7.03516C47.4482 7.03516 45.5186 8.9648 45.5186 11.3451C45.5186 13.7255 47.4482 15.6551 49.8285 15.6551ZM51.7121 11.9761C51.7121 12.958 50.9666 13.6035 49.8302 13.6035C48.6907 13.6035 47.9452 12.958 47.9452 11.9761V9.66689C47.9452 9.29717 48.1513 9.08807 48.5028 9.08807C48.8543 9.08807 49.0574 9.29717 49.0574 9.66689V11.8579C49.0574 12.367 49.3332 12.6701 49.8302 12.6701C50.3241 12.6701 50.5999 12.367 50.5999 11.8579V9.66689C50.5999 9.29717 50.8029 9.08807 51.1545 9.08807C51.509 9.08807 51.7121 9.29717 51.7121 9.66689V11.9761Z" fill="white"/>
<path d="M57.0986 18.5606C57.0986 18.9675 57.4284 19.2973 57.8353 19.2973H58.806C59.2128 19.2973 59.5426 18.9675 59.5426 18.5606V16.4807H61.1942C63.3385 16.4807 64.7236 15.1622 64.7236 13.1047V13.0914C64.7236 11.0338 63.3385 9.68875 61.1942 9.68875H57.8353C57.4284 9.68875 57.0986 10.0186 57.0986 10.4254V18.5606ZM60.6081 11.5599C61.6403 11.5599 62.253 12.0926 62.253 13.0914V13.1047C62.253 14.1035 61.6403 14.6428 60.6081 14.6428H59.5426V11.5599H60.6081Z" fill="white"/>
<path d="M65.5364 18.5606C65.5364 18.9675 65.8662 19.2973 66.273 19.2973H67.2437C67.6505 19.2973 67.9804 18.9675 67.9804 18.5606V15.9879H69.2257L70.6737 18.8896C70.7984 19.1394 71.0536 19.2973 71.3329 19.2973H72.4036C72.9573 19.2973 73.3131 18.7094 73.0562 18.2189L71.6963 15.6217C72.6952 15.1889 73.3345 14.1235 73.3345 12.8916V12.8783C73.3345 10.8407 72.0226 9.68875 69.6985 9.68875H66.273C65.8662 9.68875 65.5364 10.0186 65.5364 10.4254V18.5606ZM67.9804 14.2167V11.5332H69.4121C70.2712 11.5332 70.8439 12.0659 70.8439 12.8716V12.8849C70.8439 13.6973 70.2912 14.2167 69.4254 14.2167H67.9804Z" fill="white"/>
<path d="M78.7689 19.4704C81.699 19.4704 83.517 17.5594 83.517 14.4964V14.483C83.517 11.4267 81.6923 9.51562 78.7689 9.51562C75.8654 9.51562 74.0274 11.4267 74.0274 14.483V14.4964C74.0274 17.5594 75.852 19.4704 78.7689 19.4704ZM78.7689 17.4462C77.397 17.4462 76.518 16.3208 76.518 14.4964V14.483C76.518 12.6585 77.4037 11.5399 78.7689 11.5399C80.1473 11.5399 81.033 12.6652 81.033 14.483V14.4964C81.033 16.3009 80.1673 17.4462 78.7689 17.4462Z" fill="white"/>
</svg>
