<svg width="106" height="24" viewBox="0 0 106 24" fill="none" xmlns="http://www.w3.org/2000/svg">
<path d="M59.9 4.50754C49.1137 -3.35866 30.3865 -0.565419 11.2416 10.0557C11.0079 10.1853 11.0975 10.5398 11.3648 10.5398H13.2291C13.2657 10.5398 13.3031 10.5315 13.3365 10.5166C39.8083 -1.30146 46.9954 1.9862 59.6965 4.93436C59.9637 4.99638 60.1216 4.66918 59.9 4.50754Z" fill="#1D8327"/>
<path d="M67.0782 10.6026L57.5921 15.5258L57.5717 15.4532C55.8559 9.34759 53.9343 2.5098 42.842 0.0171476C51.6059 -0.09997 59.6591 0.340799 67.0782 10.6026Z" fill="#65D470"/>
<path d="M5.07282 24.0005C8.27493 24.0005 10.1878 22.4163 10.1878 19.9304V19.922C10.1878 17.9586 9.00804 16.9221 6.42108 16.4165L5.16551 16.1721C3.85096 15.9109 3.2948 15.5317 3.2948 14.8407V14.8323C3.2948 14.1076 3.95208 13.6105 5.06439 13.6105C5.73384 13.6105 6.41724 13.8134 6.80075 14.3071C7.06074 14.6419 7.39744 14.9756 7.8213 14.9756H9.00949C9.51676 14.9756 9.92613 14.5358 9.77401 14.0519C9.1564 12.0871 7.1578 11.1836 5.04754 11.1836C2.2499 11.1836 0.227518 12.7172 0.219092 15.102V15.1104C0.219092 17.0064 1.3314 18.2198 3.90152 18.717L5.15708 18.9614C6.58118 19.2394 7.12048 19.5596 7.12048 20.2422V20.2506C7.12048 21.0259 6.32838 21.5736 5.12338 21.5736C4.47198 21.5736 3.68041 21.4033 3.25193 20.9101C2.96216 20.5766 2.61506 20.2085 2.17324 20.2085H0.916583C0.418808 20.2085 0.0114532 20.6331 0.149244 21.1115C0.741467 23.1673 2.92081 24.0005 5.07282 24.0005Z" fill="white"/>
<path d="M13.3943 23.0239C13.494 23.4056 13.8388 23.6718 14.2332 23.6718H15.8139C16.2063 23.6718 16.5498 23.4083 16.6514 23.0293L18.4566 16.2961C18.4682 16.2528 18.5075 16.2227 18.5523 16.2227C18.597 16.2227 18.6361 16.2526 18.6479 16.2957L20.4846 23.0328C20.5874 23.4101 20.9301 23.6718 21.3211 23.6718H22.8879C23.2823 23.6718 23.6271 23.4056 23.7268 23.0239L26.4506 12.5985C26.5941 12.049 26.1795 11.5122 25.6116 11.5122H24.2617C23.8476 11.5122 23.4913 11.8051 23.411 12.2113L21.9715 19.5002C21.9628 19.5445 21.9239 19.5765 21.8787 19.5765C21.8353 19.5765 21.7974 19.5469 21.7869 19.5048L19.9549 12.1692C19.8585 11.7831 19.5116 11.5122 19.1137 11.5122H17.9961C17.5956 11.5122 17.2472 11.7865 17.1532 12.1759L15.3843 19.5042C15.3741 19.5466 15.3361 19.5765 15.2925 19.5765C15.2476 19.5765 15.2088 19.5448 15.2 19.5007L13.737 12.2087C13.6558 11.8037 13.3 11.5122 12.8869 11.5122H11.5094C10.9416 11.5122 10.527 12.049 10.6705 12.5985L13.3943 23.0239Z" fill="white"/>
<path d="M27.8265 22.8048C27.8265 23.2836 28.2147 23.6718 28.6936 23.6718H30.052C30.5309 23.6718 30.9191 23.2836 30.9191 22.8048V12.3793C30.9191 11.9004 30.5309 11.5122 30.052 11.5122H28.6936C28.2147 11.5122 27.8265 11.9004 27.8265 12.3793V22.8048Z" fill="white"/>
<path d="M32.6409 22.8048C32.6409 23.2836 33.0291 23.6718 33.5079 23.6718H34.7062C35.1851 23.6718 35.5733 23.2836 35.5733 22.8048V16.8628C35.5733 16.8071 35.6184 16.762 35.6741 16.762C35.7061 16.762 35.7362 16.7772 35.7552 16.803L40.5548 23.319C40.7182 23.5409 40.9773 23.6718 41.2529 23.6718H42.3997C42.8786 23.6718 43.2668 23.2836 43.2668 22.8048V12.3793C43.2668 11.9004 42.8786 11.5122 42.3997 11.5122H41.2014C40.7226 11.5122 40.3344 11.9004 40.3344 12.3793V18.2537C40.3344 18.3095 40.2892 18.3546 40.2335 18.3546C40.2015 18.3546 40.1714 18.3395 40.1524 18.3138L35.3698 11.8629C35.2063 11.6423 34.9479 11.5122 34.6733 11.5122H33.5079C33.0291 11.5122 32.6409 11.9004 32.6409 12.3793V22.8048Z" fill="white"/>
<path d="M50.4936 24.0005C53.9316 24.0005 56.013 21.9528 56.013 18.6074V17.9072C56.013 17.4283 55.6248 17.0401 55.1459 17.0401H51.6724C51.1936 17.0401 50.8054 17.4283 50.8054 17.9072V18.2965C50.8054 18.7754 51.1936 19.1636 51.6724 19.1636H52.8276C52.938 19.1636 53.0261 19.2555 53.0215 19.3658C52.9373 20.613 51.9682 21.4388 50.561 21.4388C48.7914 21.4388 47.6454 19.9557 47.6454 17.5541V17.5373C47.6454 15.1778 48.6819 13.7453 50.4093 13.7453C51.2848 13.7453 52.1406 14.1203 52.5853 14.8392C52.7991 15.1848 53.1337 15.4812 53.5401 15.4812H54.9369C55.4499 15.4812 55.8586 15.0324 55.6991 14.5448C54.9902 12.3768 52.6773 11.1836 50.4093 11.1836C46.7606 11.1836 44.5023 13.6273 44.5023 17.571V17.5878C44.5023 21.582 46.7522 24.0005 50.4936 24.0005Z" fill="white"/>
<circle cx="62.6519" cy="13.6927" r="5.41922" fill="white"/>
<path d="M62.6501 16.5486C64.079 16.5486 65.0163 15.737 65.0163 14.5024V11.5989C65.0163 11.134 64.761 10.8711 64.3152 10.8711C63.8732 10.8711 63.6179 11.134 63.6179 11.5989V14.3538C63.6179 14.9939 63.2712 15.375 62.6501 15.375C62.0252 15.375 61.6784 14.9939 61.6784 14.3538V11.5989C61.6784 11.134 61.4231 10.8711 60.9811 10.8711C60.5391 10.8711 60.28 11.134 60.28 11.5989V14.5024C60.28 15.737 61.2174 16.5486 62.6501 16.5486Z" fill="#49BB54"/>
<path d="M71.8477 22.7893C71.8477 23.3013 72.2627 23.7164 72.7747 23.7164H73.9961C74.508 23.7164 74.9231 23.3013 74.9231 22.7893V20.1716H77.0013C79.6997 20.1716 81.4427 18.5124 81.4427 15.923V15.9063C81.4427 13.3169 79.6997 11.6241 77.0013 11.6241H72.7747C72.2627 11.6241 71.8477 12.0392 71.8477 12.5511V22.7893ZM76.2639 13.9789C77.5628 13.9789 78.3337 14.6493 78.3337 15.9063V15.923C78.3337 17.18 77.5628 17.8588 76.2639 17.8588H74.9231V13.9789H76.2639Z" fill="#49BB54"/>
<path d="M82.4654 22.7893C82.4654 23.3013 82.8804 23.7164 83.3924 23.7164H84.6138C85.1258 23.7164 85.5408 23.3013 85.5408 22.7893V19.5515H87.1078L88.93 23.2032C89.0869 23.5177 89.4081 23.7164 89.7595 23.7164H91.1069C91.8036 23.7164 92.2513 22.9766 91.9281 22.3594L90.2168 19.0906C91.4738 18.5459 92.2783 17.2052 92.2783 15.6549V15.6381C92.2783 13.0739 90.6274 11.6241 87.7028 11.6241H83.3924C82.8804 11.6241 82.4654 12.0392 82.4654 12.5511V22.7893ZM85.5408 17.3225V13.9454H87.3425C88.4235 13.9454 89.1442 14.6158 89.1442 15.6297V15.6465C89.1442 16.6688 88.4486 17.3225 87.3592 17.3225H85.5408Z" fill="#49BB54"/>
<path d="M99.1166 23.9342C102.804 23.9342 105.092 21.5292 105.092 17.6744V17.6577C105.092 13.8113 102.795 11.4062 99.1166 11.4062C95.463 11.4062 93.1501 13.8113 93.1501 17.6577V17.6744C93.1501 21.5292 95.4462 23.9342 99.1166 23.9342ZM99.1166 21.3867C97.3904 21.3867 96.2842 19.9705 96.2842 17.6744V17.6577C96.2842 15.3616 97.3987 13.9537 99.1166 13.9537C100.851 13.9537 101.966 15.37 101.966 17.6577V17.6744C101.966 19.9454 100.876 21.3867 99.1166 21.3867Z" fill="#49BB54"/>
</svg>
