<svg width="173" height="28" viewBox="0 0 173 28" fill="none" xmlns="http://www.w3.org/2000/svg">
<path d="M11 12H12C13.0938 12 14 12.9062 14 14V20C14 21.125 13.0938 22 12 22H2C0.875 22 0 21.125 0 20V14C0 12.9062 0.875 12 2 12H9V10.5C9 8.03125 11 6 13.5 6C15.9688 6 18 8.03125 18 10.5V12C18 12.5625 17.5312 13 17 13C16.4375 13 16 12.5625 16 12V10.5C16 9.125 14.875 8 13.5 8C12.0938 8 11 9.125 11 10.5V12Z" fill="white"/>
<path d="M30.4406 19.7891C27.55 19.7891 25.7141 18.1172 25.7141 15.6094V8.22656H28.0734V15.3984C28.0734 16.8594 28.925 17.7891 30.4406 17.7891C31.9562 17.7891 32.8 16.8594 32.8 15.3984V8.22656H35.1594V15.6094C35.1594 18.1094 33.3469 19.7891 30.4406 19.7891ZM37.3472 19.5V10.8984H39.6284V12.2266H39.7691C40.1597 11.2969 41.0112 10.7109 42.2378 10.7109C44.1519 10.7109 45.1831 11.8828 45.1831 13.9375V19.5H42.9019V14.4531C42.9019 13.2422 42.4019 12.6016 41.3237 12.6016C40.2691 12.6016 39.6284 13.3594 39.6284 14.5234V19.5H37.3472ZM47.1522 19.5V7.60938H49.4334V19.5H47.1522ZM55.2931 19.6797C52.6447 19.6797 51.0509 18 51.0509 15.2031V15.1875C51.0509 12.4141 52.6681 10.7109 55.2931 10.7109C57.9181 10.7109 59.5353 12.4062 59.5353 15.1875V15.2031C59.5353 18.0078 57.9416 19.6797 55.2931 19.6797ZM55.2931 17.8906C56.5041 17.8906 57.1994 16.8984 57.1994 15.2031V15.1875C57.1994 13.5078 56.4963 12.5 55.2931 12.5C54.0822 12.5 53.3869 13.5078 53.3869 15.1875V15.2031C53.3869 16.8984 54.0744 17.8906 55.2931 17.8906ZM64.8638 19.6797C62.1763 19.6797 60.6528 18.0469 60.6528 15.1875V15.1719C60.6528 12.3438 62.1684 10.7109 64.8638 10.7109C67.145 10.7109 68.4966 11.9531 68.6997 13.875V13.8984H66.5747L66.5669 13.8828C66.4184 13.0469 65.8481 12.5 64.8716 12.5C63.645 12.5 62.9731 13.4531 62.9731 15.1719V15.1875C62.9731 16.9297 63.6528 17.8906 64.8716 17.8906C65.8091 17.8906 66.3638 17.4453 66.5669 16.5859L66.5825 16.5547H68.6919L68.6841 16.6016C68.4497 18.4766 67.1059 19.6797 64.8638 19.6797ZM70.2391 19.5V7.60938H72.5203V14.2969H72.6609L75.5359 10.8984H78.1219L74.8172 14.5469L78.3484 19.5H75.6531L73.1453 15.9531L72.5203 16.6172V19.5H70.2391Z" fill="white"/>
<path d="M89.2271 20.0005C91.8954 20.0005 93.4894 18.6804 93.4894 16.609V16.6019C93.4894 14.9658 92.5063 14.1022 90.3506 13.6809L89.3044 13.4772C88.209 13.2595 87.7455 12.9436 87.7455 12.3678V12.3608C87.7455 11.7569 88.2932 11.3426 89.2201 11.3426C89.778 11.3426 90.3474 11.5117 90.667 11.9231C90.8837 12.2021 91.1642 12.4801 91.5174 12.4801H92.5075C92.9302 12.4801 93.2714 12.1137 93.1446 11.7104C92.63 10.0732 90.9645 9.32031 89.2061 9.32031C86.8748 9.32031 85.1896 10.5983 85.1826 12.5855V12.5925C85.1826 14.1724 86.1094 15.1835 88.2511 15.5978L89.2974 15.8014C90.484 16.0332 90.9334 16.3 90.9334 16.8688V16.8758C90.9334 17.5218 90.2734 17.9782 89.2693 17.9782C88.7265 17.9782 88.0669 17.8363 87.7098 17.4253C87.4683 17.1474 87.1791 16.8407 86.8109 16.8407H85.7638C85.349 16.8407 85.0095 17.1945 85.1244 17.5931C85.6179 19.3062 87.4339 20.0005 89.2271 20.0005Z" fill="white"/>
<path d="M96.1614 19.1867C96.2445 19.5048 96.5317 19.7266 96.8604 19.7266H98.1776C98.5046 19.7266 98.7908 19.507 98.8755 19.1912L100.38 13.5805C100.389 13.5444 100.422 13.5194 100.459 13.5194C100.497 13.5194 100.529 13.5443 100.539 13.5802L102.07 19.1942C102.155 19.5085 102.441 19.7266 102.767 19.7266H104.072C104.401 19.7266 104.688 19.5048 104.771 19.1867L107.041 10.4993C107.161 10.0415 106.815 9.59416 106.342 9.59416H105.217C104.872 9.59416 104.575 9.83817 104.508 10.1767L103.309 16.2505C103.301 16.2874 103.269 16.314 103.231 16.314C103.195 16.314 103.164 16.2894 103.155 16.2543L101.628 10.1416C101.548 9.81989 101.259 9.59416 100.927 9.59416H99.996C99.6623 9.59416 99.372 9.82274 99.2936 10.1472L97.8196 16.2538C97.8111 16.2891 97.7795 16.314 97.7431 16.314C97.7057 16.314 97.6734 16.2876 97.666 16.2508L96.4469 10.1746C96.3792 9.83704 96.0828 9.59416 95.7385 9.59416H94.5907C94.1175 9.59416 93.7721 10.0415 93.8917 10.4993L96.1614 19.1867Z" fill="white"/>
<path d="M108.188 19.0041C108.188 19.4032 108.511 19.7266 108.91 19.7266H110.042C110.441 19.7266 110.765 19.4032 110.765 19.0041V10.3167C110.765 9.91765 110.441 9.59416 110.042 9.59416H108.91C108.511 9.59416 108.188 9.91765 108.188 10.3167V19.0041Z" fill="white"/>
<path d="M112.199 19.0041C112.199 19.4032 112.523 19.7266 112.922 19.7266H113.92C114.319 19.7266 114.643 19.4032 114.643 19.0041V14.0527C114.643 14.0063 114.681 13.9688 114.727 13.9688C114.754 13.9688 114.779 13.9814 114.795 14.0029L118.794 19.4326C118.93 19.6175 119.146 19.7266 119.376 19.7266H120.331C120.73 19.7266 121.054 19.4032 121.054 19.0041V10.3167C121.054 9.91765 120.73 9.59416 120.331 9.59416H119.333C118.934 9.59416 118.61 9.91765 118.61 10.3167V15.2118C118.61 15.2582 118.573 15.2959 118.526 15.2959C118.5 15.2959 118.475 15.2833 118.459 15.2619L114.473 9.88638C114.337 9.70256 114.122 9.59416 113.893 9.59416H112.922C112.523 9.59416 112.199 9.91765 112.199 10.3167V19.0041Z" fill="white"/>
<path d="M127.076 20.0005C129.941 20.0005 131.675 18.2942 131.675 15.5065V14.923C131.675 14.524 131.352 14.2005 130.953 14.2005H128.058C127.659 14.2005 127.336 14.524 127.336 14.923V15.2474C127.336 15.6465 127.659 15.97 128.058 15.97H129.021C129.113 15.97 129.186 16.0466 129.182 16.1385C129.112 17.1777 128.305 17.8659 127.132 17.8659C125.657 17.8659 124.703 16.63 124.703 14.6288V14.6148C124.703 12.6487 125.566 11.4549 127.006 11.4549C127.735 11.4549 128.448 11.7675 128.819 12.3665C128.997 12.6545 129.276 12.9014 129.615 12.9014H130.778C131.206 12.9014 131.547 12.5275 131.414 12.1212C130.823 10.3146 128.896 9.32031 127.006 9.32031C123.965 9.32031 122.083 11.3566 122.083 14.6428V14.6569C122.083 17.9852 123.958 20.0005 127.076 20.0005Z" fill="white"/>
<path opacity="0.4" d="M134.914 3.75609C125.926 -2.79873 110.321 -0.471157 94.3674 8.3793C94.1727 8.48733 94.2474 8.78274 94.4701 8.78274H96.0236C96.0541 8.78274 96.0853 8.77582 96.1131 8.7634C118.172 -1.08449 124.161 1.65508 134.745 4.11175C134.967 4.16344 135.099 3.89078 134.914 3.75609Z" fill="#CCD4DA"/>
<path fill-rule="evenodd" clip-rule="evenodd" d="M138.962 6.43408C138.413 6.24046 137.822 6.13512 137.207 6.13512C134.775 6.13512 132.727 7.78298 132.119 10.0234C130.694 5.80769 128.239 1.70511 120.7 0.0110344C127.248 -0.0764715 133.32 0.209771 138.962 6.43408Z" fill="white"/>
<path fill-rule="evenodd" clip-rule="evenodd" d="M137.207 15.9222C139.701 15.9222 141.723 13.9004 141.723 11.4064C141.723 8.91241 139.701 6.89062 137.207 6.89062C134.713 6.89062 132.691 8.91241 132.691 11.4064C132.691 13.9004 134.713 15.9222 137.207 15.9222ZM139.18 12.0675C139.18 13.0962 138.399 13.7725 137.209 13.7725C136.015 13.7725 135.234 13.0962 135.234 12.0675V9.64802C135.234 9.26065 135.45 9.04156 135.818 9.04156C136.186 9.04156 136.399 9.26065 136.399 9.64802V11.9437C136.399 12.4771 136.688 12.7946 137.209 12.7946C137.726 12.7946 138.015 12.4771 138.015 11.9437V9.64802C138.015 9.26065 138.228 9.04156 138.596 9.04156C138.968 9.04156 139.18 9.26065 139.18 9.64802V12.0675Z" fill="white"/>
<path d="M144.822 18.9691C144.822 19.3954 145.168 19.7409 145.594 19.7409H146.611C147.037 19.7409 147.383 19.3954 147.383 18.9691V16.7898H149.113C151.36 16.7898 152.811 15.4084 152.811 13.2526V13.2387C152.811 11.0829 151.36 9.67358 149.113 9.67358H145.594C145.168 9.67358 144.822 10.0191 144.822 10.4454V18.9691ZM148.499 11.634C149.581 11.634 150.223 12.1922 150.223 13.2387V13.2526C150.223 14.2991 149.581 14.8642 148.499 14.8642H147.383V11.634H148.499Z" fill="white"/>
<path d="M153.663 18.9691C153.663 19.3954 154.008 19.7409 154.435 19.7409H155.452C155.878 19.7409 156.224 19.3954 156.224 18.9691V16.2735H157.528L159.046 19.3138C159.176 19.5755 159.444 19.7409 159.736 19.7409H160.858C161.438 19.7409 161.811 19.125 161.542 18.6111L160.117 15.8898C161.164 15.4363 161.833 14.3201 161.833 13.0294V13.0154C161.833 10.8805 160.459 9.67358 158.024 9.67358H154.435C154.008 9.67358 153.663 10.0191 153.663 10.4454V18.9691ZM156.224 14.4177V11.6061H157.724C158.624 11.6061 159.224 12.1643 159.224 13.0084V13.0224C159.224 13.8735 158.645 14.4177 157.738 14.4177H156.224Z" fill="white"/>
<path d="M167.527 19.9223C170.597 19.9223 172.502 17.92 172.502 14.7107V14.6968C172.502 11.4945 170.59 9.49219 167.527 9.49219C164.485 9.49219 162.559 11.4945 162.559 14.6968V14.7107C162.559 17.92 164.471 19.9223 167.527 19.9223ZM167.527 17.8014C166.09 17.8014 165.169 16.6224 165.169 14.7107V14.6968C165.169 12.7852 166.097 11.6131 167.527 11.6131C168.971 11.6131 169.899 12.7922 169.899 14.6968V14.7107C169.899 16.6014 168.992 17.8014 167.527 17.8014Z" fill="white"/>
</svg>
