<svg width="31" height="36" viewBox="0 0 31 36" fill="none" xmlns="http://www.w3.org/2000/svg">
<path d="M22.5 1.5V30C22.5 32.4825 20.4825 34.5 18 34.5H6C3.5175 34.5 1.5 32.4825 1.5 30V1.5H22.5ZM24 0H0V30C0 33.315 2.685 36 6 36H18C21.315 36 24 33.315 24 30V0Z" fill="#373737"/>
<path d="M22.245 1.5C21.6225 3.2475 19.9575 4.5 18 4.5H6C4.0425 4.5 2.3775 3.2475 1.755 1.5H22.245ZM24 0H0C0 3.315 2.685 6 6 6H18C21.315 6 24 3.315 24 0Z" fill="#373737"/>
<path d="M16.5 6C17.325 6 18 6.675 18 7.5C18 8.325 17.325 9 16.5 9H7.5C6.675 9 6 8.325 6 7.5C6 6.675 6.675 6 7.5 6H16.5ZM16.5 4.5H7.5C5.8425 4.5 4.5 5.8425 4.5 7.5C4.5 9.1575 5.8425 10.5 7.5 10.5H16.5C18.1575 10.5 19.5 9.1575 19.5 7.5C19.5 5.8425 18.1575 4.5 16.5 4.5Z" fill="#373737"/>
<path d="M24.4704 30.2857L24.4704 9.71429L28.518 9.71429C29.0746 9.71429 29.5299 12.0941 29.5299 13.6471L29.5299 26.3529C29.5299 27.9059 29.0746 30.2857 28.518 30.2857L24.4704 30.2857ZM23.4585 32L28.518 32C29.6362 32 30.5418 29.4729 30.5418 26.3529L30.5418 13.6471C30.5418 10.5271 29.6362 8 28.518 8L23.4585 8L23.4585 32Z" fill="#373737"/>
<path d="M24.4701 9.36946L29.5296 30.6306" stroke="#373737" stroke-miterlimit="10"/>
<path d="M29.4583 9.41176L24.4583 30.5882" stroke="#373737" stroke-miterlimit="10"/>
</svg>
