<svg width="33" height="36" viewBox="0 0 33 36" fill="none" xmlns="http://www.w3.org/2000/svg">
<path d="M31.5 1.5V30C31.5 32.4825 29.4825 34.5 27 34.5H15C12.5175 34.5 10.5 32.4825 10.5 30V1.5H31.5ZM33 0H9V30C9 33.315 11.685 36 15 36H27C30.315 36 33 33.315 33 30V0Z" fill="#373737"/>
<path d="M31.245 1.5C30.6225 3.2475 28.9575 4.5 27 4.5H15C13.0425 4.5 11.3775 3.2475 10.755 1.5H31.245ZM33 0H9C9 3.315 11.685 6 15 6H27C30.315 6 33 3.315 33 0Z" fill="#373737"/>
<path d="M25.5 6C26.325 6 27 6.675 27 7.5C27 8.325 26.325 9 25.5 9H16.5C15.675 9 15 8.325 15 7.5C15 6.675 15.675 6 16.5 6H25.5ZM25.5 4.5H16.5C14.8425 4.5 13.5 5.8425 13.5 7.5C13.5 9.1575 14.8425 10.5 16.5 10.5H25.5C27.1575 10.5 28.5 9.1575 28.5 7.5C28.5 5.8425 27.1575 4.5 25.5 4.5Z" fill="#373737"/>
<path d="M9 19.5V29.25H3C2.175 29.25 1.5 28.575 1.5 27.75V21C1.5 20.175 2.175 19.5 3 19.5H9ZM10.5 18H3C1.3425 18 0 19.3425 0 21V27.75C0 29.4075 1.3425 30.75 3 30.75H10.5V18Z" fill="#373737"/>
<path d="M9 30.0225L1.5 18.7275" stroke="#373737" stroke-miterlimit="10"/>
<path d="M1.5 30.0225L9 18.7275" stroke="#373737" stroke-miterlimit="10"/>
<path d="M9 4.5V14.25H3C2.175 14.25 1.5 13.575 1.5 12.75V6C1.5 5.175 2.175 4.5 3 4.5H9ZM10.5 3H3C1.3425 3 0 4.3425 0 6V12.75C0 14.4075 1.3425 15.75 3 15.75H10.5V3Z" fill="#373737"/>
<path d="M9 15.0225L1.5 3.7275" stroke="#373737" stroke-miterlimit="10"/>
<path d="M1.5 15.0225L9 3.7275" stroke="#373737" stroke-miterlimit="10"/>
</svg>
