<svg width="24" height="25" viewBox="0 0 24 25" fill="none" xmlns="http://www.w3.org/2000/svg">
<path d="M13.7405 10.0842C12.6621 9.99393 11.5901 10.3204 10.745 10.9964C9.89995 11.6724 9.34606 12.6465 9.19729 13.7184L8.53023 18.5015C8.10162 21.1852 11.4174 23.0076 13.4523 21.2051C14.5775 20.2544 15.0402 18.9185 16.3005 17.9471C17.5698 16.895 18.9412 16.6488 20.1774 15.8255C22.2992 14.2063 21.218 10.647 18.5505 10.4859L13.7405 10.0842Z" fill="#729ACD"/>
<path d="M17.7523 3.33042C16.3543 3.34588 15.6382 5.05366 15.6384 6.39612C15.6648 10.5466 19.6834 10.5036 19.7839 6.45152C19.8089 4.71867 18.9146 3.34561 17.7523 3.33042Z" fill="#729ACD"/>
<path d="M12.551 8.32235C13.8436 7.88459 14.397 6.05915 13.7864 4.25634C12.1872 -0.0402368 7.75836 1.45969 9.10248 5.84267C9.71305 7.64548 11.2618 8.75897 12.551 8.32235Z" fill="#729ACD"/>
<path d="M5.17238 13.253C3.87481 12.9116 2.04016 13.1779 1.67324 14.527C1.12191 17.091 6.45701 18.5285 7.57192 16.3074C8.15434 15.0248 6.97799 13.7176 5.17238 13.253Z" fill="#729ACD"/>
<path d="M8.86203 10.7912C9.50751 9.59289 8.66787 7.88015 6.99212 6.9775C2.89465 4.92131 0.677199 9.03797 4.64693 11.3313C6.32269 12.2339 8.21484 11.9927 8.86203 10.7912Z" fill="#729ACD"/>
</svg>
