<svg width="16" height="18" viewBox="0 0 16 18" fill="none" xmlns="http://www.w3.org/2000/svg">
<path d="M4.86055 7.65359C4.66923 7.45446 4.35271 7.44813 4.15359 7.63945C3.95446 7.83077 3.94813 8.14729 4.13945 8.34641L4.86055 7.65359ZM6.83333 10.4286L6.47278 10.775L6.81272 11.1288L7.17289 10.7956L6.83333 10.4286ZM12.4229 5.93845C12.6256 5.75092 12.6379 5.43457 12.4504 5.23187C12.2628 5.02918 11.9465 5.01688 11.7438 5.20441L12.4229 5.93845ZM11.7675 0.701958L11.4662 1.10098L11.7675 0.701958ZM14.6026 2.84278L14.9039 2.44376L14.6026 2.84278ZM14.6552 11.7276L14.9828 12.1053L14.6552 11.7276ZM7.34478 16.9317L7.01716 17.3094L7.34478 16.9317ZM8.65522 16.9317L8.98284 17.3094L8.65522 16.9317ZM1.34478 11.7276L1.01716 12.1053L1.34478 11.7276ZM4.23254 0.701959L3.93124 0.302938L4.23254 0.701959ZM3.93124 0.302938L1.0961 2.44376L1.6987 3.2418L4.53384 1.10098L3.93124 0.302938ZM0.5 3.64082V10.9722H1.5V3.64082H0.5ZM1.01716 12.1053L7.01716 17.3094L7.67239 16.554L1.67239 11.3499L1.01716 12.1053ZM8.98284 17.3094L14.9828 12.1053L14.3276 11.3499L8.32761 16.554L8.98284 17.3094ZM15.5 10.9722V3.64082H14.5V10.9722H15.5ZM14.9039 2.44376L12.0688 0.302938L11.4662 1.10098L14.3013 3.2418L14.9039 2.44376ZM11.1649 0H4.83514V1H11.1649V0ZM4.13945 8.34641L6.47278 10.775L7.19389 10.0822L4.86055 7.65359L4.13945 8.34641ZM7.17289 10.7956L12.4229 5.93845L11.7438 5.20441L6.49378 10.0616L7.17289 10.7956ZM12.0688 0.302938C11.8084 0.106352 11.4911 0 11.1649 0V1C11.2736 1 11.3794 1.03545 11.4662 1.10098L12.0688 0.302938ZM15.5 3.64082C15.5 3.17041 15.2793 2.72724 14.9039 2.44376L14.3013 3.2418C14.4264 3.33629 14.5 3.48402 14.5 3.64082H15.5ZM14.9828 12.1053C15.3113 11.8204 15.5 11.407 15.5 10.9722H14.5C14.5 11.1171 14.4371 11.2549 14.3276 11.3499L14.9828 12.1053ZM7.01716 17.3094C7.5811 17.7985 8.4189 17.7985 8.98284 17.3094L8.32761 16.554C8.13963 16.717 7.86037 16.717 7.67239 16.554L7.01716 17.3094ZM0.5 10.9722C0.5 11.407 0.688685 11.8204 1.01716 12.1053L1.67239 11.3499C1.56289 11.2549 1.5 11.1171 1.5 10.9722H0.5ZM1.0961 2.44376C0.720684 2.72724 0.5 3.17041 0.5 3.64082H1.5C1.5 3.48402 1.57356 3.33629 1.6987 3.2418L1.0961 2.44376ZM4.53384 1.10098C4.62062 1.03545 4.7264 1 4.83514 1V0C4.50892 0 4.19158 0.106353 3.93124 0.302938L4.53384 1.10098Z" fill="#3C3C3C"/>
</svg>
