<svg width="14" height="10" viewBox="0 0 14 10" fill="none" xmlns="http://www.w3.org/2000/svg">
<path d="M1.70166 4.95415C1.30814 4.56664 0.674999 4.5715 0.287484 4.96501C-0.10003 5.35852 -0.0951678 5.99167 0.298344 6.37918L1.70166 4.95415ZM4.38492 9L3.68327 9.71252C4.07251 10.0958 4.69733 10.0958 5.08658 9.71252L4.38492 9ZM13.2104 1.71252C13.6039 1.325 13.6088 0.691855 13.2213 0.298344C12.8337 -0.0951678 12.2006 -0.10003 11.8071 0.287484L13.2104 1.71252ZM0.298344 6.37918L3.68327 9.71252L5.08658 8.28748L1.70166 4.95415L0.298344 6.37918ZM5.08658 9.71252L13.2104 1.71252L11.8071 0.287484L3.68327 8.28748L5.08658 9.71252Z" fill="#3C3C3C"/>
</svg>
