<svg width="327" height="24" viewBox="0 0 327 24" fill="none" xmlns="http://www.w3.org/2000/svg">
<path d="M18 23C24.0751 23 29 18.0751 29 12C29 5.92487 24.0751 1 18 1C11.9249 1 7 5.92487 7 12C7 18.0751 11.9249 23 18 23Z" fill="#21C35D"/>
<path d="M17.0591 16.1987V12.7207C15.9744 12.4108 15.1776 11.9432 14.6685 11.3179C14.1649 10.687 13.9131 9.92334 13.9131 9.02686C13.9131 8.1193 14.1981 7.3584 14.7681 6.74414C15.3436 6.12435 16.1073 5.76742 17.0591 5.67334V4.85156H18.2627V5.67334C19.1426 5.77848 19.8426 6.08008 20.3628 6.57812C20.883 7.07064 21.215 7.73193 21.3589 8.56201L19.2588 8.83594C19.1315 8.18294 18.7995 7.74023 18.2627 7.50781V10.7534C19.5908 11.1131 20.4956 11.5807 20.9771 12.1562C21.4585 12.7262 21.6992 13.4595 21.6992 14.356C21.6992 15.3576 21.3949 16.2015 20.7861 16.8877C20.1829 17.5739 19.3418 17.9945 18.2627 18.1494V19.7017H17.0591V18.1909C16.1017 18.0747 15.3242 17.7178 14.7266 17.1201C14.1289 16.5225 13.7471 15.6785 13.5811 14.5884L15.7476 14.356C15.8361 14.7987 16.0021 15.1805 16.2456 15.5015C16.4891 15.8224 16.7603 16.0549 17.0591 16.1987ZM17.0591 7.48291C16.7326 7.59359 16.4725 7.78174 16.2788 8.04736C16.0851 8.31299 15.9883 8.60628 15.9883 8.92725C15.9883 9.22054 16.0768 9.49447 16.2539 9.74902C16.431 9.99805 16.6994 10.2 17.0591 10.355V7.48291ZM18.2627 16.3149C18.6777 16.2375 19.0153 16.0465 19.2754 15.7422C19.5355 15.4323 19.6655 15.0698 19.6655 14.6548C19.6655 14.284 19.5549 13.9658 19.3335 13.7002C19.1177 13.429 18.7607 13.2215 18.2627 13.0776V16.3149Z" fill="white"/>
<rect x="36" y="11" width="291" height="2" fill="#21C35D"/>
</svg>
