<svg width="364" height="18" viewBox="0 0 364 18" fill="none" xmlns="http://www.w3.org/2000/svg">
<path d="M12 15C15.3137 15 18 12.3137 18 9C18 5.68629 15.3137 3 12 3C8.68629 3 6 5.68629 6 9C6 12.3137 8.68629 15 12 15Z" fill="#5692D8"/>
<rect x="24" y="8" width="28" height="2" fill="#4792DE"/>
<path d="M64 15C67.3137 15 70 12.3137 70 9C70 5.68629 67.3137 3 64 3C60.6863 3 58 5.68629 58 9C58 12.3137 60.6863 15 64 15Z" fill="#C8DEF5"/>
<rect x="76" y="8" width="28" height="2" fill="#C8DEF5"/>
<path d="M116 15C119.314 15 122 12.3137 122 9C122 5.68629 119.314 3 116 3C112.686 3 110 5.68629 110 9C110 12.3137 112.686 15 116 15Z" fill="#C8DEF5"/>
<rect opacity="0.3" x="128" y="8" width="28" height="2" fill="#4792DE"/>
<path d="M168 15C171.314 15 174 12.3137 174 9C174 5.68629 171.314 3 168 3C164.686 3 162 5.68629 162 9C162 12.3137 164.686 15 168 15Z" fill="#C8DEF5"/>
<rect opacity="0.3" x="180" y="8" width="28" height="2" fill="#4792DE"/>
<rect width="24" height="18" transform="translate(208)" fill="white"/>
<path d="M220 15C223.314 15 226 12.3137 226 9C226 5.68629 223.314 3 220 3C216.686 3 214 5.68629 214 9C214 12.3137 216.686 15 220 15Z" fill="#C8DEF5"/>
<rect opacity="0.3" x="232" y="8" width="28" height="2" fill="#4792DE"/>
<path d="M272 15C275.314 15 278 12.3137 278 9C278 5.68629 275.314 3 272 3C268.686 3 266 5.68629 266 9C266 12.3137 268.686 15 272 15Z" fill="#C8DEF5"/>
<rect opacity="0.3" x="284" y="8" width="28" height="2" fill="#4792DE"/>
<path d="M324 15C327.314 15 330 12.3137 330 9C330 5.68629 327.314 3 324 3C320.686 3 318 5.68629 318 9C318 12.3137 320.686 15 324 15Z" fill="#C8DEF5"/>
<rect opacity="0.3" x="336" y="8" width="28" height="2" fill="#4792DE"/>
</svg>
