<svg width="124" height="18" viewBox="0 0 124 18" fill="none" xmlns="http://www.w3.org/2000/svg">
<g clip-path="url(#clip0_505_9227)">
<path d="M7.2093 18C11.9386 18 14.3609 16.65 14.3609 11.7C14.3609 7.2 12.6307 5.175 7.9014 5.175C5.82512 5.175 4.44093 5.4 3.34512 6.24375V0H0V11.8688C0 16.425 2.07628 18 7.2093 18ZM7.15163 15.5813C3.69116 15.5813 3.17209 15.075 3.17209 11.25C3.17209 7.9875 4.26791 7.5375 6.9786 7.5375C9.6893 7.5375 10.8428 7.93125 10.8428 11.25C10.9005 14.9625 10.266 15.5813 7.15163 15.5813Z" fill="#F76900"/>
<path d="M52.5404 12.7125V17.775H49.1953V0H52.5404V9.9H53.1748C53.2325 9.9 53.2902 9.9 53.2902 9.9C54.04 9.9 54.7321 9.5625 55.1934 9.05625L59.0576 5.2875H62.9218L57.0967 11.1375L63.4409 17.6625H59.1153L55.0204 13.3313C54.6744 12.8813 54.0976 12.5437 53.4632 12.5437C53.3479 12.5437 53.1748 12.5437 53.0595 12.6H52.5404V12.7125Z" fill="#F76900"/>
<path d="M120.885 14.625H124.23V17.775H120.885V14.625ZM35.8154 17.775V10.0125C35.8154 8.1 36.4498 7.59375 39.3912 7.59375C42.3326 7.59375 42.967 8.1 42.967 10.0125V17.775H46.3122V9.7875C46.3122 6.1875 43.7168 5.0625 40.0256 5.0625H38.9298C35.2387 5.0625 32.5856 6.24375 32.5856 9.7875V17.775H35.8154ZM74.4573 17.775V10.0125C74.4573 8.1 75.0917 7.59375 77.9177 7.59375C80.7438 7.59375 81.4936 8.1 81.4936 10.0125V17.775H84.8387V9.7875C84.8387 6.1875 82.128 5.0625 78.5522 5.0625H77.341C73.6498 5.0625 71.0545 6.24375 71.0545 9.7875V17.775H74.4573ZM96.6043 7.7625H91.0098V13.8938C91.0098 15.075 91.8749 15.4688 93.2591 15.4688C93.3745 15.4688 93.4898 15.4688 93.6629 15.4688C94.7587 15.4688 95.7968 15.3562 96.8349 15.1312L96.7196 17.3813C95.5661 17.6625 94.2396 17.8875 92.8554 17.8875C89.1643 17.8875 87.7801 16.425 87.7801 14.1188V1.35H91.0098V5.34375H96.6043V7.7625ZM115.06 9.39375C115.06 6.01875 117.54 5.0625 119.789 5.0625C120.885 5.0625 123.654 5.175 124.23 5.2875V7.70625H120.654C118.809 7.70625 118.405 7.93125 118.405 9.61875V17.8313H115.06V9.39375ZM64.768 5.34375H68.1131V17.775H64.768V5.34375ZM26.4145 9.9V9.28125C26.4145 7.81875 25.434 7.59375 22.8387 7.59375C22.781 7.59375 22.6656 7.59375 22.5503 7.59375C20.647 7.59375 18.8015 7.875 17.0712 8.49375L17.1866 6.13125C18.9745 5.45625 20.9354 5.0625 22.954 5.0625C26.6452 5.0625 29.7596 5.56875 29.7596 9.675V13.5C29.7596 17.9438 26.0684 18 22.954 18C18.3977 18 16.1484 16.7625 16.1484 14.2312C16.3215 10.7437 18.4554 10.125 26.4145 9.9ZM23.1847 15.5813C25.6647 15.5813 26.4145 15.2437 26.4145 14.0062V11.9812L23.4154 12.0938C20.4163 12.3188 19.6666 12.7125 19.6666 13.6687C19.6666 15.2437 20.1856 15.5813 23.1847 15.5813ZM64.768 0H68.1131V3.15H64.768V0ZM103.814 10.7438C108.254 10.5188 108.889 10.2375 108.889 9.16875C108.889 8.1 108.139 7.48125 105.659 7.48125C102.429 7.48125 102.083 8.1 102.083 10.8562L103.814 10.7438ZM102.083 13.1625C102.314 14.7375 103.064 15.5813 105.659 15.5813C105.774 15.5813 105.89 15.5813 106.005 15.5813C108.139 15.5813 110.158 15.2437 112.061 14.5687L111.946 16.8188C110.1 17.55 108.024 17.9438 105.774 18C100.353 18 98.5652 16.65 98.5652 11.3625C98.5652 6.75 100.065 5.0625 105.717 5.0625C110.331 5.0625 112.407 6.525 112.522 9.16875C112.465 12.3187 110.215 13.05 102.083 13.1625Z" fill="#F76900"/>
</g>
<defs>
<clipPath id="clip0_505_9227">
<rect width="124" height="18" fill="white"/>
</clipPath>
</defs>
</svg>
