<svg width="97" height="28" viewBox="0 0 97 28" fill="none" xmlns="http://www.w3.org/2000/svg">
<path fill-rule="evenodd" clip-rule="evenodd" d="M84.1005 9.29053C84.0765 10.4236 83.0787 10.8874 82.0229 10.8874C81.2297 10.8874 80.5815 10.5944 80.5815 9.9122C80.5815 9.38769 80.8815 8.91245 82.2267 8.82679C82.9599 8.77828 83.6922 8.69314 84.1005 8.32748V9.29053ZM77.291 10.7045H74.6487V7.77875H77.2549C78.1798 7.77875 78.8159 8.19308 78.8159 9.24126C78.8159 10.1559 78.1798 10.7045 77.291 10.7045ZM74.6487 4.23129H77.2196C78.0474 4.23129 78.5881 4.60933 78.5881 5.511C78.5881 6.44982 77.8798 6.79143 77.2549 6.79143H74.6487V4.23129ZM85.0969 7.21785C85.0969 6.0476 84.257 5.26747 82.5989 5.26747C81.0138 5.26747 79.9927 6.08403 79.9213 7.33998H80.9778C81.086 6.42548 81.9387 6.21825 82.5869 6.21825C83.6313 6.21825 84.1005 6.59629 84.1005 7.09558C84.1005 7.59577 83.6073 7.87585 82.0944 7.94948C80.9808 8.00873 80.1957 8.31204 79.8213 8.92774C79.7431 8.17431 79.3603 7.52244 78.564 7.24205C79.2851 6.8643 79.6085 6.15762 79.6085 5.52309C79.6085 4.14559 78.6956 3.24393 77.2196 3.24393H73.628V11.7041H77.2429C78.3948 11.7041 79.231 11.1385 79.61 10.3028C79.8107 11.3773 80.8439 11.8503 81.9869 11.8503C82.9478 11.8503 83.6682 11.5334 84.1126 10.9845C84.1246 11.2775 84.184 11.5211 84.2682 11.7041H85.2773C85.1803 11.4604 85.0969 10.9966 85.0969 10.6801V7.21785ZM94.2713 7.77875L96.6609 5.42588H95.16L92.3373 8.24181V2.63374H91.3169V11.7041H92.3373V9.68064L93.5261 8.51023L95.6398 11.7041H96.8775L94.2713 7.77875ZM88.4107 5.26747C87.6655 5.26747 87.0293 5.58459 86.609 6.10822V5.42588H85.624V11.7041H86.6451V7.86374C86.6451 6.92507 87.3294 6.21825 88.2663 6.21825C89.2506 6.21825 89.7792 6.92507 89.7792 7.88811V11.7041H90.7883V7.92526C90.7883 6.36486 89.9236 5.26747 88.4107 5.26747ZM57.5723 18.1451C56.3334 15.8931 53.3591 15.106 49.584 14.4773C47.0779 14.0798 45.5898 13.722 45.5898 12.6487C45.5898 11.8936 46.5686 11.0196 48.9577 11.0196C50.5326 11.0196 51.5789 11.5292 52.0769 12.2392L52.1108 12.2956C52.1108 12.2956 52.3806 12.7284 52.666 12.7284H57.0833C57.0945 12.7278 57.1024 12.7284 57.1147 12.7284C57.4745 12.7301 57.5575 12.4871 57.5723 12.3213V18.1451ZM49.3492 23.023C47.9344 23.023 46.0517 22.6119 45.2214 21.1614C45.1211 21.0299 44.9304 20.7932 44.6951 20.7971H35.8672C35.6324 20.8113 35.4757 20.9624 35.3789 21.1139C34.475 22.524 32.9033 23.1815 31.2968 23.1815C29.0906 23.1815 27.2758 21.899 26.4629 19.7861C26.3636 19.5129 26.5232 19.1268 26.911 19.128H40.1489C40.1856 19.1191 40.2257 19.1112 40.2706 19.1049C41.0892 18.9927 41.4116 18.4745 41.5397 18.0813C41.5617 17.4001 41.5412 16.7463 41.4831 16.119C43.1261 18.0134 46.2399 18.6188 48.7614 19.0084C52.2855 19.5646 52.9905 20.0418 52.9905 21.1945C52.9905 22.387 51.4246 23.023 49.3492 23.023ZM26.4898 14.3674C27.3232 12.2553 29.1053 10.94 31.2968 10.94C33.5965 10.94 35.4529 12.2577 36.2017 14.3674C36.255 14.5307 36.2865 14.8348 35.9837 14.8348C35.9703 14.8348 35.9675 14.8315 35.9569 14.8348H26.7351C26.6881 14.837 26.7386 14.8348 26.6962 14.8348C26.4539 14.8348 26.3936 14.6111 26.4898 14.3674ZM13.0927 22.9831H6.23017C5.90569 22.9873 5.74589 22.7497 5.73153 22.4377V22.2237C5.73153 22.2231 5.73211 22.2192 5.73211 22.2192H5.73153V16.5809C5.73153 16.5809 5.73411 16.5776 5.73153 16.5343V16.4743C5.73153 16.1114 5.92952 15.8689 6.23017 15.8689H12.9751C15.5988 15.8689 17.0476 17.1802 17.0476 19.4857C17.0476 22.1881 15.0896 22.9831 13.0927 22.9831ZM5.72737 5.65017V5.5961C5.72737 5.19941 5.90339 4.97847 6.23017 4.97847H13.0927C15.0508 4.97847 16.2644 6.17045 16.2644 7.99867C16.2644 9.82707 14.8548 11.0594 13.0927 11.0594H6.29736C6.24783 11.0619 6.28056 11.0604 6.23017 11.0594C5.8998 11.0539 5.73153 10.8605 5.73153 10.452V10.2381C5.73153 10.2374 5.73211 10.2334 5.73211 10.2334H5.73153L5.72794 5.70424C5.72794 5.70424 5.73009 5.69331 5.72737 5.65017ZM74.7358 17.1005H70.6795C70.3178 17.1516 70.1883 17.4059 70.1419 17.5831V19.0482C70.1419 20.9163 69.0062 22.8237 66.4609 22.8237C63.877 22.8237 62.7413 20.9163 62.7413 19.0482V12.1919C62.7413 11.9674 62.8813 11.7757 63.1043 11.7749C63.1208 11.7749 63.1176 11.7757 63.1317 11.7749H69.638C69.9667 11.7156 70.0937 11.484 70.1419 11.313V7.40483C70.1154 7.24015 70.0113 6.91355 69.6067 6.84608H63.1107C63.1008 6.84171 63.0946 6.84608 63.0823 6.84608C62.849 6.84608 62.7354 6.6419 62.7413 6.48363V2.26488C62.7413 2.00576 62.593 1.64288 62.1325 1.63967C62.0942 1.63953 62.0243 1.6385 61.98 1.63967H58.3496C58.2931 1.6385 58.2063 1.63967 58.168 1.63967C57.8194 1.63967 57.5723 1.93362 57.5723 2.21256V12.1953C57.5716 12.1851 57.5704 12.1768 57.5701 12.1738C56.682 8.63177 53.3523 6.32974 48.9577 6.32974C43.6477 6.32974 40.8688 9.0949 40.4116 12.0188C38.6982 8.34625 35.237 6.32974 31.336 6.32974C26.2303 6.32974 21.95 10.2511 21.1391 15.3477C20.5104 14.3975 19.654 13.6407 18.6142 13.0862C20.2978 11.8546 21.2765 9.98621 21.2765 7.68083C21.2765 3.0705 18.5356 0.208984 13.0927 0.208984H1.75734C1.01175 0.208984 0.5625 0.720516 0.5625 1.29952V26.6032C0.5625 27.3216 0.861713 27.7879 1.75734 27.7924C1.88297 27.7932 2.07909 27.7924 2.11628 27.7924H13.7977C18.2156 27.7924 21.2457 25.5377 22.0924 21.8824C23.7957 25.3912 27.3086 27.7924 31.336 27.7924C35.525 27.7924 38.7008 25.8201 40.3172 22.7364C41.6465 25.9561 45.0246 27.7924 49.3492 27.7924C54.0054 27.7924 57.4528 25.4695 58.0909 22.045C59.249 25.4828 62.2795 27.7924 66.4609 27.7924C71.8646 27.7924 75.311 23.9366 75.311 18.7702V17.7542L75.3003 17.7585C75.3003 17.7585 75.3015 17.1805 74.7358 17.1005Z" fill="#000099"/>
</svg>
