<svg width="90" height="48" viewBox="0 0 90 48" fill="none" xmlns="http://www.w3.org/2000/svg">
<path d="M38.1699 39.7011V15.457H47.1699C50.786 15.457 53.4378 15.9452 55.2056 17.0028C56.8931 18.0604 57.7771 19.6062 57.7771 21.7214C57.7771 23.1045 57.3753 24.3248 56.4914 25.2197C55.6074 26.1147 54.4021 26.7655 52.6342 27.1723C54.5628 27.4977 56.0896 28.2299 56.9735 29.2062C57.9378 30.1825 58.4199 31.4842 58.4199 33.1113C58.4199 35.3079 57.6164 37.0164 56.0896 38.074C54.5628 39.213 52.2324 39.7011 49.0985 39.7011H38.1699ZM44.5985 25.3011H47.1699C48.6164 25.3011 49.661 25.057 50.3038 24.6503C50.9467 24.2435 51.2681 23.5113 51.2681 22.535C51.2681 21.6401 50.9467 20.9892 50.2235 20.5011C49.5003 20.013 48.536 19.8503 47.1699 19.8503H44.5985V25.3011ZM44.5985 35.3079H47.1699C48.7771 35.3079 49.9824 35.0638 50.6253 34.5757C51.3485 34.0875 51.6699 33.3553 51.6699 32.2977C51.6699 31.3214 51.2681 30.5892 50.5449 30.1011C49.8217 29.613 48.6967 29.3689 47.0896 29.3689H44.5181V35.3079H44.5985Z" fill="#B11116"/>
<path d="M60.6699 39.7011V15.457H71.5985C74.7324 15.457 77.0628 16.1079 78.6699 17.4096C80.2771 18.7113 81.0806 20.6638 81.0806 23.1858C81.0806 25.7079 80.2771 27.5791 78.6699 28.9621C77.0628 30.3452 74.8931 31.0774 72.0003 31.0774H67.1788V39.7011H60.6699ZM67.3396 26.3587H70.3128C71.7592 26.3587 72.8039 26.1147 73.4467 25.5452C74.0896 25.057 74.4913 24.2435 74.4913 23.1045C74.4913 22.0469 74.1699 21.2333 73.5271 20.7452C72.8842 20.257 71.8396 20.013 70.3931 20.013H67.4199V26.3587H67.3396Z" fill="#B11116"/>
<path d="M83.4102 15.457H89.9994V39.7011H83.4102V15.457Z" fill="#B11116"/>
<path fill-rule="evenodd" clip-rule="evenodd" d="M0.321429 36.1214C0.5625 36.8536 1.125 37.5045 2.00893 38.1553C3.21429 39.1316 12.5357 45.396 15.4286 47.2672L16.0714 47.674L16.5536 47.3486C17.0357 47.0231 28.3661 39.213 29.7321 38.1553C30.6161 37.5045 31.0982 36.8536 31.4196 36.1214C31.8214 34.9824 31.6607 34.0875 31.5804 33.4367C31.5 33.1113 29.6518 21.8028 28.6875 16.4333C24.5089 15.7824 20.3304 15.457 16.0714 15.457C15.9911 15.457 15.9107 15.457 15.8304 15.457V44.7452C10.125 41.0028 4.66071 37.3418 3.69643 36.6096C3.13393 36.2028 2.8125 35.796 2.65179 35.3892C2.41071 34.8197 2.49107 34.3316 2.57143 33.7621C2.65179 33.4367 4.66071 21.3147 5.625 16.1892C4.74107 16.2706 4.09821 16.4333 3.21429 16.596C2.25 21.9655 0.241071 33.1113 0.160714 33.4367C0 34.0875 -0.160714 34.9824 0.321429 36.1214ZM7.71429 20.7452H8.75893V21.3147V21.6401H9.64286V20.7452H10.6875V21.6401H11.4911V20.7452H12.5357V23.0231H7.71429V20.7452ZM8.4375 23.3486H11.6518L12.7768 32.3791H7.39286L8.4375 23.3486ZM6.75 32.8672H13.4196V35.1452H11.6518V34.5757H8.59821V35.1452H6.75V32.8672ZM9.32143 28.3113H10.8482V27.7418H9.32143V28.3113ZM10.8482 25.9519H9.32143V26.5214H10.8482V25.9519ZM9.32143 30.1011H10.8482V29.5316H9.32143V30.1011ZM8.35714 11.796C7.71429 11.8774 7.3125 11.9587 6.75 12.1214C6.66964 12.6096 6.50893 13.5858 6.34821 14.3994C9.48214 13.9113 12.7768 13.6672 15.9911 13.6672C19.0446 13.6672 22.0982 13.9113 25.0714 14.318C24.9107 13.5858 24.75 12.6096 24.6696 12.1214C24.2679 11.9587 23.7857 11.8774 23.0625 11.796C25.1518 11.3079 26.4375 9.84347 26.4375 8.37906C26.4375 6.50787 24.9911 4.96211 21.2946 4.63669C20.0089 3.57906 18.2411 3.17228 16.6339 3.00957C17.0357 2.7655 17.2768 2.27736 17.2768 1.70787C17.2768 0.894313 16.4732 0.162109 15.6696 0.162109C14.8661 0.162109 14.0625 0.812957 14.0625 1.70787C14.0625 2.19601 14.3036 2.68414 14.7054 3.00957C13.1786 3.17228 11.3304 3.57906 10.0446 4.63669C6.42857 4.96211 4.98214 6.50787 4.98214 8.37906C4.98214 9.84347 6.26786 11.3079 8.35714 11.796ZM22.0982 5.77567C22.0982 5.77567 24.8304 6.01974 24.8304 8.46041C24.8304 10.413 22.7411 11.4706 20.1696 11.0638C23.7054 9.68075 22.9821 6.8333 22.0982 5.77567ZM16.5536 4.39262C18.8839 4.63669 20.6518 6.10109 20.6518 7.89092C20.6518 9.68075 18.8036 11.2265 16.4732 11.3892C16.9554 10.7384 17.2768 9.43669 17.2768 7.80957C17.1964 6.34516 16.9554 5.04347 16.5536 4.39262ZM14.8661 4.39262C14.4643 5.12482 14.1429 6.34516 14.1429 7.80957C14.1429 9.35533 14.4643 10.7384 14.9464 11.3892C12.6161 11.2265 10.7679 9.76211 10.7679 7.89092C10.7679 6.01974 12.5357 4.55533 14.8661 4.39262ZM9.32143 5.77567C8.4375 6.8333 7.71429 9.5994 11.3304 11.0638C8.75893 11.3892 6.66964 10.3316 6.66964 8.46041C6.50893 6.10109 9.32143 5.77567 9.32143 5.77567ZM22.9821 37.0163C22.9821 36.935 23.0625 36.7723 23.0625 36.6909C23.2232 36.6909 23.3839 36.6096 23.625 36.6096C23.9464 36.3655 23.9464 35.7147 24.2679 35.4706C24.4286 35.3892 24.5089 35.4706 24.5893 35.6333C24.6696 35.3892 24.6696 35.0638 24.75 34.7384C24.9911 34.0875 25.6339 33.6808 25.3929 32.4604C25.3929 32.4604 25.3929 32.4604 25.3125 32.3791C25.2321 32.5418 25.1518 32.6231 25.0714 32.7858C24.1875 32.7045 24.5089 30.7519 25.1518 30.5892C25.5536 31.8096 27.4018 32.135 27.5625 30.5079C27.5625 30.1824 27.3214 29.7757 27 29.2875C27.1607 28.7994 27.3214 28.3926 27.4821 28.1486C27.5625 27.9858 27 28.2299 26.6786 28.7994C26.8393 28.3113 27 27.8231 27.2411 27.5791C27.3214 27.4163 26.8393 27.6604 26.5179 28.1486C26.6786 27.6604 26.8393 27.1723 27.0804 26.9282C27.1607 26.7655 26.5179 27.0909 26.2768 27.6604C26.1964 27.335 26.1161 27.0096 26.1161 26.7655C26.1161 26.0333 26.3571 24.5689 26.6786 23.3486C26.7589 23.0231 26.9196 22.3723 27.4018 22.1282C27 22.0469 26.3571 22.3723 26.3571 23.1045C26.2768 22.0469 25.4732 21.6401 25.0714 21.5587C26.3571 22.7791 25.3125 25.4638 25.3125 26.6841C25.3125 28.3113 27.2411 29.9384 26.9196 30.5079C26.5179 31.3214 25.7143 29.7757 25.4732 29.2062C25.2321 28.718 24.3482 27.9045 23.7054 27.2536C24.1071 27.0096 24.5089 26.2774 24.5089 25.6265C24.5893 25.7079 24.6696 25.7892 24.6696 25.8706H24.75C24.6696 25.2197 24.9107 24.4875 24.6696 23.918C24.75 23.918 24.9107 23.918 24.9911 23.918C24.9107 20.9892 22.8214 21.5587 21.7768 21.8028C21.7768 21.8841 21.6964 21.8841 21.6964 21.9655C21.8571 21.9655 21.9375 21.9655 22.0982 21.9655C22.0179 21.9655 21.8571 22.0469 21.7768 22.0469C21.6964 22.2096 21.7768 22.6977 22.0179 22.9418C22.0982 22.6977 22.0982 22.6163 22.3393 22.535C22.5804 22.6977 22.7411 23.1045 22.5804 23.5113C22.4196 23.5926 22.2589 23.5113 22.1786 23.3486C22.0982 23.7553 22.0982 24.2435 22.4196 24.4875C22.4196 24.0808 22.5804 23.918 22.9018 23.9994C22.8214 24.8943 22.1786 24.6502 21.6161 24.8943C20.4911 25.3011 20.25 27.0096 19.2054 27.2536C19.2857 27.6604 19.6875 27.9858 19.9286 28.1486C19.7679 28.3926 19.2054 29.2875 18.8839 29.2875C18.8036 29.1248 18.7232 28.9621 18.4821 28.9621C18.3214 29.0435 18.1607 29.0435 18 29.1248C18 29.2062 17.9196 29.2875 17.9196 29.2875C18 29.2875 18.0804 29.2875 18.1607 29.3689C18.1607 29.4502 18.1607 29.613 18.1607 29.6943C18.3214 29.6943 18.4821 29.6943 18.6429 29.7757V29.857C18.4821 29.857 18.3214 29.7757 18.1607 29.7757C18.0804 29.857 17.8393 30.2638 17.8393 30.5079V30.5892C17.9196 30.5079 17.9196 30.5079 18 30.4265C18.0804 30.4265 18.0804 30.5079 18.1607 30.5892C18.1607 30.5892 18.2411 30.5892 18.2411 30.6706C18.4018 30.5079 18.4821 30.4265 18.6429 30.2638C18.6429 30.2638 18.6429 30.3452 18.7232 30.3452C18.6429 30.5079 18.4821 30.5892 18.4018 30.7519C18.4018 30.996 18.3214 31.2401 18.4018 31.4841C18.4821 31.4028 18.5625 31.3214 18.6429 31.2401C18.9643 31.5655 19.125 31.1587 19.3661 30.8333C19.4464 30.9147 19.6071 30.9147 19.7679 30.996C19.7679 31.0774 19.7679 31.1587 19.7679 31.2401C20.25 30.7519 19.6071 30.2638 20.25 29.6943C20.5714 29.857 20.7321 29.857 21.0536 29.6943C21.1339 29.613 21.1339 29.5316 21.2143 29.4502C21.0536 29.3689 20.9732 29.2875 20.8929 29.1248C20.8929 29.0435 20.8929 28.9621 20.9732 28.9621C21.1339 28.718 21.5357 28.718 21.7768 28.7994C22.4196 29.0435 22.8214 29.6943 23.3036 30.1824C23.2232 30.8333 23.2232 31.5655 23.3036 32.135C23.4643 32.7045 23.8661 32.9486 23.7054 33.6808C23.9464 33.6808 24.1071 33.518 24.1875 33.3553C24.2679 33.3553 24.3482 33.3553 24.5089 33.3553C24.2679 33.8435 23.7857 34.7384 23.3036 34.9011C22.8214 35.0638 22.6607 34.4943 22.2589 34.5757C22.1786 34.657 22.0982 34.7384 22.0982 34.7384C21.9375 34.8197 21.8571 34.7384 21.6964 34.9824V35.0638C21.7768 35.0638 21.8571 35.0638 21.9375 35.0638C21.9375 35.1452 22.0179 35.2265 22.0179 35.3892C22.0982 35.2265 22.2589 35.1452 22.3393 34.9824C22.3393 34.9824 22.3393 34.9824 22.3393 35.0638C22.1786 35.2265 22.0179 35.4706 21.9375 35.7147C21.9375 35.8774 21.9375 36.0401 21.9375 36.2028C21.9375 36.2028 21.9375 36.2028 22.0179 36.2028L22.1786 35.9587H22.2589C22.2589 36.0401 22.3393 36.0401 22.3393 36.1214H22.4196C22.5 35.8774 22.5 35.7147 22.5804 35.4706C22.5804 35.4706 22.6607 35.4706 22.6607 35.3892C22.5804 35.7147 22.5 36.1214 22.5804 36.5282L22.6607 36.6096C22.6607 36.5282 22.7411 36.4469 22.7411 36.4469C22.5 36.6096 22.5 36.5282 22.6607 36.6096C22.6607 36.2841 22.5804 36.0401 22.8214 35.8774C22.6607 36.1214 22.7411 36.6096 22.8214 36.935C22.8214 36.935 22.9018 37.0163 22.9821 37.0163ZM22.5804 22.4536V22.1282C22.8214 22.1282 23.1429 22.1282 23.3036 22.2096C23.0625 22.2096 22.8214 22.2909 22.5804 22.4536ZM23.0625 33.3553C22.8214 33.1113 21.9375 32.0536 22.1786 31.4028C22.2589 31.0774 22.5804 31.1587 22.8214 31.3214C22.8214 31.1587 22.8214 30.9147 22.9018 30.7519C22.7411 30.5079 22.3393 30.3452 22.5 29.9384C21.375 29.0435 21.4554 30.5892 20.5714 30.5079C20.5714 30.8333 20.8125 31.0774 21.0536 31.1587C21.0536 31.8909 21.2946 32.3791 21.6161 32.6231V32.7045C21.2143 32.7858 20.6518 32.7858 20.4107 32.5418C20.0089 32.2163 19.9286 31.8096 19.3661 31.8096C19.3661 31.8909 19.4464 31.8909 19.4464 31.9723C19.4464 32.0536 19.4464 32.135 19.3661 32.2163C19.4464 32.2163 19.6071 32.2977 19.6875 32.2977C19.6875 32.2977 19.6875 32.2977 19.7679 32.2977V32.5418C19.4464 32.4604 19.0446 32.4604 18.9643 32.8672C19.0446 32.8672 19.125 32.8672 19.2054 32.8672C19.2857 32.9486 19.2857 33.0299 19.3661 33.274C19.5268 33.1113 19.6071 32.9486 19.7679 32.8672C19.6875 33.274 19.3661 33.3553 19.3661 33.8435C19.4464 33.8435 19.5268 33.7621 19.6071 33.6808C19.6875 33.7621 19.7679 33.8435 19.8482 33.9248C19.9286 33.8435 20.0089 33.5994 20.0089 33.4367H20.0893C20.0089 33.7621 19.8482 34.0875 20.0089 34.413C20.0089 34.4943 20.0893 34.4943 20.0893 34.5757C20.0893 34.4943 20.1696 34.413 20.1696 34.3316C20.3304 34.2502 20.4107 34.413 20.5714 34.3316C20.8125 34.2502 20.8125 33.8435 21.2143 33.8435C21.2946 33.9248 21.375 34.0062 21.375 34.2502C21.6161 34.1689 21.6964 33.9248 21.8571 33.8435C22.4196 33.5994 22.5804 33.9248 23.0625 33.3553ZM21.2946 23.918C21.7768 23.8367 21.9375 23.3486 22.4196 23.3486C22.3393 23.3486 22.1786 23.2672 22.0982 23.3486C21.8571 23.4299 20.8125 23.9994 21.2143 23.1045C20.8125 23.1045 20.6518 23.9994 21.2946 23.918ZM18 26.2774C18.0804 26.4401 18.4018 26.4401 18.5625 26.4401C18.6429 26.3587 18.7232 26.196 18.8036 26.1147C18.8036 26.1147 18.8036 26.1147 18.8839 26.1147C19.125 26.4401 19.3661 26.7655 19.6071 27.0096C19.6071 27.0096 19.6071 27.0096 19.6875 27.0096C19.9286 26.7655 20.0893 26.4401 20.25 26.196C20.1696 25.7079 19.6875 25.5452 19.5268 25.1384C19.3661 24.6502 19.8482 23.9994 19.2054 23.5926C19.2054 23.8367 19.125 23.918 19.0446 24.0808C19.0446 24.2435 19.0446 24.4062 19.125 24.4875V24.5689C19.0446 24.4875 19.0446 24.3248 18.9643 24.1621C18.8839 23.9994 18.5625 23.7553 18.3214 23.7553C18.4018 23.918 18.3214 24.0808 18.4018 24.2435C18.4821 24.4062 18.5625 24.5689 18.6429 24.7316V24.813H18.5625C18.4821 24.7316 18.4018 24.5689 18.2411 24.4875C18.0804 24.4062 17.8393 24.4875 17.6786 24.5689C17.7589 24.6502 17.8393 24.7316 17.8393 24.813C18 24.8943 18.6429 25.7079 18 26.2774ZM22.1786 20.1757C22.4196 20.013 22.6607 19.9316 22.9018 19.9316C22.8214 19.8502 22.8214 19.8502 22.8214 19.7689C22.8214 19.6062 22.9821 19.5248 23.0625 19.5248C23.2232 19.5248 23.3036 19.6062 23.3036 19.7689C23.3036 19.8502 23.3036 19.9316 23.2232 19.9316C23.4643 19.9316 23.7054 20.013 23.9464 20.1757C24.5089 20.257 24.75 20.5011 24.75 20.7452C24.75 20.9892 24.5089 21.2333 24.1071 21.3147C24.1071 21.396 24.1071 21.4774 24.1071 21.5587C23.8661 21.4774 23.4643 21.4774 23.0625 21.4774C22.7411 21.4774 22.2589 21.5587 22.0179 21.5587C22.0179 21.4774 22.0179 21.396 22.0179 21.3147C21.6161 21.2333 21.375 20.9892 21.375 20.7452C21.375 20.5011 21.6161 20.257 22.1786 20.1757ZM24.4286 20.8265C24.4286 20.5011 24.0268 20.4197 24.0268 20.4197C24.1875 20.5824 24.2679 20.9079 23.7054 21.1519C24.1875 21.2333 24.4286 21.0706 24.4286 20.8265ZM23.7857 20.7452C23.7857 20.5011 23.4643 20.257 23.1429 20.257C23.2232 20.3384 23.2232 20.5011 23.2232 20.7452C23.2232 20.9892 23.1429 21.1519 23.0625 21.2333C23.5446 21.1519 23.7857 20.9892 23.7857 20.7452ZM22.9018 21.2333C22.8214 21.1519 22.7411 20.9892 22.7411 20.7452C22.7411 20.5824 22.8214 20.3384 22.8214 20.257C22.4196 20.257 22.1786 20.5011 22.1786 20.7452C22.2589 20.9892 22.5804 21.1519 22.9018 21.2333ZM22.3393 21.1519C21.7768 20.9079 21.9375 20.5824 22.0179 20.4197C22.0179 20.4197 21.6161 20.4197 21.6161 20.8265C21.6161 21.0706 21.9375 21.2333 22.3393 21.1519Z" fill="#DCB91C"/>
</svg>
