<svg width="124" height="20" viewBox="0 0 124 20" fill="none" xmlns="http://www.w3.org/2000/svg">
<path d="M11.9876 11.2446V19.1081C11.3359 19.289 10.6637 19.3756 9.98964 19.3655C9.3157 19.3736 8.64376 19.2871 7.99171 19.1081V10.981C7.99171 9.80425 7.49515 9.01973 5.74258 9.01973C5.15005 9.02299 4.56061 9.10957 3.99001 9.27715V19.0836C3.33832 19.2645 2.66613 19.3511 1.99209 19.341C1.32114 19.3566 0.651218 19.2783 0 19.1081L0 7.05231C1.86211 6.08419 3.91567 5.59071 5.99378 5.61199C9.24187 5.61199 11.9876 6.78876 11.9876 11.2446Z" fill="#009F98"/>
<path d="M13.7109 12.5555C13.7109 8.20391 16.4566 5.61133 20.4525 5.61133C24.4483 5.61133 27.1999 8.20391 27.1999 12.5555C27.1999 16.9071 24.4483 19.4997 20.4466 19.4997C16.4449 19.4997 13.7109 16.901 13.7109 12.5555ZM23.058 12.5555C23.0755 10.3552 22.1992 9.01907 20.4466 9.01907C18.6941 9.01907 17.8236 10.3552 17.8236 12.5555C17.8236 14.7558 18.6941 16.092 20.4466 16.092C22.1992 16.092 23.0755 14.7558 23.0755 12.5555H23.058Z" fill="#009F98"/>
<path d="M39.0597 5.74063C39.7771 5.7334 40.4921 5.82614 41.1862 6.01643C40.3267 10.5978 38.8101 15.016 36.6879 19.1203C35.2083 19.4635 33.6751 19.4635 32.1955 19.1203C30.0734 15.016 28.5567 10.5978 27.6973 6.01643C29.0931 5.66505 30.5484 5.66505 31.9443 6.01643C32.6453 9.03192 33.4691 12.1761 34.5381 15.449H34.5907C35.6349 12.3829 36.4207 9.22661 36.9391 6.01643C37.6313 5.82654 38.3444 5.7338 39.0597 5.74063Z" fill="#009F98"/>
<path d="M41.6816 12.5555C41.6816 8.20391 44.4273 5.61133 48.4232 5.61133C52.419 5.61133 55.1706 8.20391 55.1706 12.5555C55.1706 16.9071 52.419 19.4997 48.4232 19.4997C44.4273 19.4997 41.6816 16.901 41.6816 12.5555ZM51.0287 12.5555C51.0287 10.3552 50.1582 9.01907 48.4057 9.01907C46.6531 9.01907 45.7827 10.3552 45.7827 12.5555C45.7827 14.7558 46.6356 16.092 48.4057 16.092C50.1758 16.092 51.0462 14.7558 51.0462 12.5555H51.0287Z" fill="#009F98"/>
<path d="M69.6298 12.2924C69.6298 17.5327 66.2591 19.5002 62.3859 19.5002C60.4659 19.524 58.5725 19.0279 56.8887 18.0598V0.763715C57.5411 0.586126 58.2126 0.497546 58.8866 0.500166C59.5626 0.495623 60.2363 0.58423 60.8904 0.763715V5.84468C61.629 5.68986 62.3804 5.61185 63.1337 5.61178C66.7556 5.61178 69.6298 7.57307 69.6298 12.2924ZM65.5055 12.556C65.5055 10.4598 64.7577 9.01952 62.6371 9.01952C62.0445 9.02234 61.455 9.10892 60.8845 9.27694V15.8227C61.4516 16.0082 62.0432 16.0972 62.6371 16.0863C64.7577 16.0924 65.5055 14.6521 65.5055 12.556Z" fill="#009F98"/>
<path d="M82.8372 10.981V18.3359C80.8348 19.0977 78.7222 19.4917 76.5922 19.5004C73.5953 19.5004 70.8496 18.7098 70.8496 15.3081C70.8496 11.3733 74.8455 10.981 78.8413 10.981C78.8413 9.66943 78.3448 9.01976 76.5922 9.01976C75.2482 9.08712 73.9318 9.44387 72.7249 10.0678C71.9765 9.23905 71.4961 8.18391 71.352 7.05234C73.0806 6.08556 75.0131 5.59027 76.9719 5.61201C80.2142 5.61201 82.8372 6.92363 82.8372 10.981ZM78.8647 15.823V13.8617C76.119 13.8617 74.9974 13.8617 74.9974 14.9833C74.9974 15.823 75.6166 16.0865 76.8668 16.0865C77.5404 16.0827 78.2111 15.9942 78.8647 15.823Z" fill="#009F98"/>
<path d="M96.8 11.2446V19.1081C96.1484 19.289 95.4762 19.3756 94.8021 19.3655C94.1282 19.3736 93.4562 19.2871 92.8042 19.1081V10.981C92.8042 9.80425 92.3076 9.01973 90.5551 9.01973C89.9625 9.02255 89.373 9.10913 88.8025 9.27715V19.0836C88.1508 19.2645 87.4786 19.3511 86.8046 19.341C86.1306 19.3495 85.4586 19.2629 84.8066 19.0836V7.05231C86.6687 6.08419 88.7223 5.59071 90.8004 5.61199C94.0544 5.61199 96.8 6.78876 96.8 11.2446Z" fill="#009F98"/>
<path d="M108.659 15.0454C109.408 15.9249 109.889 17.0203 110.038 18.1896C108.527 19.1477 106.776 19.6048 105.014 19.5012C102.017 19.5012 98.5234 17.7973 98.5234 12.557C98.5234 7.57408 102.029 5.61279 105.014 5.61279C106.768 5.51412 108.511 5.9711 110.014 6.9244C109.872 8.09092 109.4 9.186 108.659 10.0686C107.802 9.37378 106.745 9.00432 105.662 9.02053C104.038 9.02053 102.665 9.93376 102.665 12.557C102.665 15.1802 104.038 16.0934 105.662 16.0934C106.745 16.1096 107.802 15.7402 108.659 15.0454Z" fill="#009F98"/>
<path d="M110.512 12.5555C110.512 8.20391 113.257 5.61133 117.253 5.61133C121.249 5.61133 124.001 8.20391 124.001 12.5555C124.001 16.9071 121.249 19.4997 117.253 19.4997C113.257 19.4997 110.512 16.901 110.512 12.5555ZM119.859 12.5555C119.859 10.3552 118.988 9.01907 117.236 9.01907C115.483 9.01907 114.613 10.3552 114.613 12.5555C114.613 14.7558 115.466 16.092 117.236 16.092C119.006 16.092 119.876 14.7558 119.876 12.5555H119.859Z" fill="#009F98"/>
</svg>
