<svg width="193" height="28" viewBox="0 0 193 28" fill="none" xmlns="http://www.w3.org/2000/svg">
<path d="M19.0614 15.8338V27.4222C18.0523 27.6888 17.0115 27.8164 15.9678 27.8016C14.9243 27.8135 13.8839 27.6859 12.8743 27.4222V15.4455C12.8743 13.7113 12.1054 12.5551 9.39174 12.5551C8.47427 12.5599 7.5616 12.6875 6.67808 12.9345V27.3861C5.66901 27.6526 4.6282 27.7803 3.58452 27.7655C2.54564 27.7884 1.50834 27.673 0.5 27.4222L0.5 9.65578C3.38326 8.22907 6.56298 7.50184 9.78069 7.5332C14.81 7.5332 19.0614 9.26739 19.0614 15.8338Z" fill="#009F98"/>
<path d="M21.7295 17.7668C21.7295 11.3538 25.9809 7.5332 32.168 7.5332C38.3551 7.5332 42.6156 11.3538 42.6156 17.7668C42.6156 24.1797 38.3551 28.0003 32.159 28.0003C25.9628 28.0003 21.7295 24.1706 21.7295 17.7668ZM36.2023 17.7668C36.2294 14.5242 34.8726 12.5551 32.159 12.5551C29.4453 12.5551 28.0975 14.5242 28.0975 17.7668C28.0975 21.0093 29.4453 22.9784 32.159 22.9784C34.8726 22.9784 36.2294 21.0093 36.2294 17.7668H36.2023Z" fill="#009F98"/>
<path d="M60.9783 7.72323C62.089 7.71258 63.1962 7.84926 64.2708 8.12969C62.94 14.8812 60.5917 21.3922 57.3058 27.4407C55.0148 27.9465 52.6408 27.9465 50.3498 27.4407C47.0639 21.3922 44.7156 14.8812 43.3848 8.12969C45.5461 7.61186 47.7995 7.61186 49.9609 8.12969C51.0463 12.5736 52.3217 17.2071 53.9771 22.0303H54.0585C55.6752 17.5119 56.892 12.8605 57.6948 8.12969C58.7665 7.84984 59.8706 7.71317 60.9783 7.72323Z" fill="#009F98"/>
<path d="M65.04 17.7668C65.04 11.3538 69.2914 7.5332 75.4786 7.5332C81.6657 7.5332 85.9261 11.3538 85.9261 17.7668C85.9261 24.1797 81.6657 28.0003 75.4786 28.0003C69.2914 28.0003 65.04 24.1706 65.04 17.7668ZM79.5129 17.7668C79.5129 14.5242 78.1651 12.5551 75.4514 12.5551C72.7378 12.5551 71.39 14.5242 71.39 17.7668C71.39 21.0093 72.7106 22.9784 75.4514 22.9784C78.1922 22.9784 79.54 21.0093 79.54 17.7668H79.5129Z" fill="#009F98"/>
<path d="M108.313 17.3783C108.313 25.1009 103.094 28.0002 97.0968 28.0002C94.1239 28.0354 91.1922 27.3043 88.585 25.8777V0.388632C89.5951 0.126922 90.6349 -0.00361706 91.6785 0.000244907C92.7253 -0.00644961 93.7684 0.124129 94.7811 0.388632V7.87637C95.9249 7.64822 97.0883 7.53325 98.2546 7.53315C103.863 7.53315 108.313 10.4235 108.313 17.3783ZM101.927 17.7667C101.927 14.6777 100.769 12.5551 97.4857 12.5551C96.5682 12.5592 95.6555 12.6868 94.7721 12.9344V22.5809C95.6501 22.8542 96.5662 22.9853 97.4857 22.9693C100.769 22.9783 101.927 20.8557 101.927 17.7667Z" fill="#009F98"/>
<path d="M128.765 15.4455V26.2842C125.665 27.4069 122.394 27.9875 119.096 28.0003C114.455 28.0003 110.204 26.8352 110.204 21.8223C110.204 16.0236 116.391 15.4455 122.578 15.4455C122.578 13.5126 121.809 12.5552 119.096 12.5552C117.015 12.6544 114.977 13.1802 113.108 14.0997C111.949 12.8783 111.205 11.3234 110.982 9.65582C113.659 8.23109 116.651 7.50119 119.684 7.53324C124.704 7.53324 128.765 9.46614 128.765 15.4455ZM122.615 22.581V19.6907C118.363 19.6907 116.626 19.6907 116.626 21.3436C116.626 22.581 117.585 22.9694 119.521 22.9694C120.564 22.9637 121.603 22.8333 122.615 22.581Z" fill="#009F98"/>
<path d="M150.384 15.8338V27.4222C149.375 27.6888 148.334 27.8164 147.29 27.8016C146.247 27.8135 145.206 27.6859 144.197 27.4222V15.4455C144.197 13.7113 143.428 12.5551 140.714 12.5551C139.797 12.5593 138.884 12.6869 138.001 12.9345V27.3861C136.992 27.6526 135.951 27.7803 134.907 27.7655C133.863 27.7779 132.823 27.6503 131.813 27.3861V9.65578C134.697 8.22907 137.876 7.50184 141.094 7.5332C146.133 7.5332 150.384 9.26739 150.384 15.8338Z" fill="#009F98"/>
<path d="M168.747 21.4337C169.907 22.7299 170.651 24.3442 170.881 26.0673C168.543 27.4792 165.831 28.1529 163.102 28.0002C158.462 28.0002 153.053 25.4892 153.053 17.7666C153.053 10.4234 158.48 7.5331 163.102 7.5331C165.819 7.38769 168.517 8.06113 170.845 9.466C170.625 11.1851 169.894 12.7989 168.747 14.0996C167.419 13.0756 165.784 12.5311 164.106 12.555C161.592 12.555 159.466 13.9008 159.466 17.7666C159.466 21.6325 161.592 22.9783 164.106 22.9783C165.784 23.0021 167.419 22.4577 168.747 21.4337Z" fill="#009F98"/>
<path d="M171.614 17.7668C171.614 11.3538 175.866 7.5332 182.053 7.5332C188.24 7.5332 192.5 11.3538 192.5 17.7668C192.5 24.1797 188.24 28.0003 182.053 28.0003C175.866 28.0003 171.614 24.1706 171.614 17.7668ZM186.087 17.7668C186.087 14.5242 184.739 12.5551 182.026 12.5551C179.312 12.5551 177.964 14.5242 177.964 17.7668C177.964 21.0093 179.285 22.9784 182.026 22.9784C184.766 22.9784 186.114 21.0093 186.114 17.7668H186.087Z" fill="#009F98"/>
</svg>
