<svg width="123" height="23" viewBox="0 0 123 23" fill="none" xmlns="http://www.w3.org/2000/svg">
<path d="M16.2412 10.2857C16.1896 9.49445 15.9834 8.70325 15.5709 8.01753L12.0649 1.74061C11.8071 1.26588 11.6008 0.73841 11.4977 0.210938L11.343 0.474674C10.4665 2.00434 10.4665 3.95599 11.343 5.48566L14.1788 10.4967C15.0553 12.0263 15.0553 13.978 14.1788 15.5076L14.0241 15.7714C13.921 15.2439 13.7148 14.7164 13.457 14.2417L10.879 9.6527L9.22911 6.69885C8.97131 6.22412 8.76507 5.69665 8.66195 5.16918L8.50728 5.43292C7.63077 6.96259 7.63077 8.86149 8.50728 10.4439L11.343 15.4549C12.2195 16.9846 12.2195 18.9362 11.343 20.4659L11.1884 20.7296C11.0852 20.2021 10.879 19.6747 10.6212 19.1999L7.06362 12.923C6.59958 12.0791 6.39335 11.1296 6.39335 10.1802C2.62952 11.1824 0 13.345 0 15.8241C0 19.3054 5.05281 22.101 11.2915 22.101C17.5301 22.101 22.583 19.3054 22.583 15.8241C22.6345 13.4505 20.0565 11.2879 16.2412 10.2857ZM26.9139 20.9934C26.9655 20.0967 27.0686 19.5164 27.3264 18.778C28.5123 19.3582 30.059 19.6219 31.1933 19.6219C33.1526 19.6219 34.2869 18.989 34.2869 17.6703C34.2869 16.4043 33.462 15.8241 31.5027 14.9274L30.42 14.5054C28.4091 13.6087 27.0686 12.4483 27.0686 10.1802C27.0686 7.70105 28.7701 6.11863 32.173 6.11863C33.5651 6.11863 34.8541 6.32962 36.0399 6.7516C35.9884 7.59555 35.8337 8.28127 35.6274 8.91424C34.4931 8.49226 33.101 8.28127 32.1214 8.28127C30.2653 8.28127 29.4403 9.01973 29.4403 10.1802C29.4403 11.2879 30.2653 11.9736 31.7605 12.6065L32.8948 13.0813C35.5759 14.2417 36.7102 15.5076 36.7102 17.6175C36.7102 20.0967 34.8541 21.8373 31.2449 21.8373C29.5435 21.8373 28.0998 21.5736 26.9139 20.9934ZM48.1048 10.6021V21.4681H45.9393L45.8362 20.1494C45.2175 21.0989 44.341 21.7318 42.8457 21.7318C40.0615 21.7318 38.1538 19.6219 38.1538 15.9824C38.1538 12.1846 40.1647 9.96918 44.0832 9.96918C45.6299 10.0219 46.9189 10.1802 48.1048 10.6021ZM45.7846 18.989V12.1846C45.3206 12.0791 44.7534 12.0791 44.0832 12.0791C41.6599 12.0791 40.5256 13.6087 40.5256 16.0351C40.5256 18.2505 41.4021 19.8329 43.4645 19.8329C44.4441 19.7802 45.1659 19.4637 45.7846 18.989ZM60.0665 14.189V21.4681H57.7464V14.6109C57.7464 12.8703 57.1792 12.0791 54.859 12.0791C54.2919 12.0791 53.6732 12.1318 53.0029 12.2373V21.4681H50.6827V10.6021C52.178 10.2329 53.8279 9.96918 54.9106 9.96918C58.8291 10.0219 60.0665 11.5516 60.0665 14.189ZM66.563 19.7274C67.2333 19.7274 67.9035 19.6219 68.3676 19.4109C68.316 20.0439 68.2129 20.7824 68.1098 21.4153C67.4911 21.6791 66.7692 21.7846 66.1505 21.7846C63.8819 21.7846 62.4383 20.7296 62.4383 18.0923V6.6461C63.1601 6.38237 64.0366 6.27687 64.7584 6.27687V10.3912H68.4707C68.4191 11.1296 68.3676 11.8153 68.2644 12.4483H64.7584V17.7758C64.7584 19.1472 65.4287 19.7274 66.563 19.7274ZM79.0919 10.6021V21.4681H76.9264L76.8233 20.1494C76.2046 21.0989 75.3281 21.7318 73.8328 21.7318C71.0486 21.7318 69.141 19.6219 69.141 15.9824C69.141 12.1846 71.1518 9.96918 75.0703 9.96918C76.6171 10.0219 77.8545 10.1802 79.0919 10.6021ZM76.7202 18.989V12.1846C76.2561 12.0791 75.689 12.0791 75.0187 12.0791C72.5954 12.0791 71.4611 13.6087 71.4611 16.0351C71.4611 18.2505 72.3376 19.8329 74.4 19.8329C75.3796 19.7802 76.153 19.4637 76.7202 18.989ZM91.0536 14.189V21.4681H88.6819V14.6109C88.6819 12.8703 88.1148 12.0791 85.7946 12.0791C85.2274 12.0791 84.6087 12.1318 83.9385 12.2373V21.4681H81.6183V10.6021C83.1135 10.2329 84.7634 9.96918 85.8462 9.96918C89.7647 10.0219 91.0536 11.5516 91.0536 14.189ZM102.861 6.27687V21.4681H100.695L100.592 20.0967C99.9734 21.0988 99.0969 21.7318 97.5501 21.7318C94.7659 21.7318 92.8582 19.6219 92.8582 15.9824C92.8582 12.1846 94.869 9.96918 98.7875 9.96918C99.4062 9.96918 99.9734 10.0219 100.541 10.1274V6.54061C101.262 6.32962 102.087 6.27687 102.861 6.27687ZM100.541 18.989V12.2901C99.9218 12.1846 99.3031 12.0791 98.6844 12.0791C96.3642 12.0791 95.2815 13.556 95.2815 16.0351C95.2815 18.2505 96.158 19.8329 98.2204 19.8329C99.1484 19.7802 99.9218 19.4637 100.541 18.989ZM114.616 16.8263H107.14C107.449 18.778 108.532 19.6747 110.646 19.6747C111.935 19.6747 113.224 19.4109 114.358 18.8307C114.255 19.4637 114.152 20.3076 113.998 20.9934C112.915 21.4681 111.832 21.6791 110.543 21.6791C106.625 21.6791 104.768 19.4637 104.768 15.7714C104.768 12.5538 106.212 9.96918 109.924 9.96918C113.276 9.96918 114.719 12.1846 114.719 14.9274C114.719 15.6659 114.719 16.1934 114.616 16.8263ZM107.14 14.8219H112.399C112.399 13.0285 111.471 11.9736 109.873 11.9736C108.171 12.0263 107.295 12.9758 107.14 14.8219ZM122.814 10.1274C122.814 10.8659 122.711 11.7098 122.608 12.1846C122.041 12.1318 121.525 12.0791 120.855 12.0791C120.288 12.0791 119.721 12.1318 119.153 12.1846V21.4681H116.833V10.6021C117.813 10.2329 119.514 9.96918 120.803 9.96918C121.474 10.0219 122.299 10.0219 122.814 10.1274Z" fill="#EC0000"/>
</svg>
