<svg width="16" height="71" viewBox="0 0 16 71" fill="none" xmlns="http://www.w3.org/2000/svg">
<rect width="16" height="71" fill="#F5F5F5"/>
<g id="Desktop">
<path d="M-2322 -849C-2322 -850.104 -2321.1 -851 -2320 -851H10652C10653.1 -851 10654 -850.105 10654 -849V3684C10654 3685.1 10653.1 3686 10652 3686H-2320C-2321.1 3686 -2322 3685.1 -2322 3684V-849Z" fill="#E5E7E3"/>
<path d="M-2320 -850H10652V-852H-2320V-850ZM10653 -849V3684H10655V-849H10653ZM10652 3685H-2320V3687H10652V3685ZM-2321 3684V-849H-2323V3684H-2321ZM-2320 3685C-2320.55 3685 -2321 3684.55 -2321 3684H-2323C-2323 3685.66 -2321.66 3687 -2320 3687V3685ZM10653 3684C10653 3684.55 10652.6 3685 10652 3685V3687C10653.7 3687 10655 3685.66 10655 3684H10653ZM10652 -850C10652.6 -850 10653 -849.552 10653 -849H10655C10655 -850.657 10653.7 -852 10652 -852V-850ZM-2320 -852C-2321.66 -852 -2323 -850.657 -2323 -849H-2321C-2321 -849.552 -2320.55 -850 -2320 -850V-852Z" fill="black" fill-opacity="0.1"/>
<g id="Package" clip-path="url(#clip0_1_4575)">
<rect width="1440" height="3326.62" transform="translate(-592 -150)" fill="#3C6C60"/>
<g id="Frame 2075">
<path d="M-592 50.3838C-592 0.678207 -551.706 -39.6162 -502 -39.6162H758C807.706 -39.6162 848 0.678162 848 50.3838V2341.71H-592V50.3838Z" fill="#FBF6F1"/>
<g id="Frame 34262">
<g id="Frame 1000004842">
<rect x="-389.5" y="0.883789" width="1035" height="69" rx="34.5" fill="white"/>
<rect x="-389.5" y="0.883789" width="1035" height="69" rx="34.5" stroke="#DBE7D7"/>
<g id="Frame 34270">
<path id="Line 32" d="M14.4535 30.1409L3.8147e-06 0.383788L3.99311e-07 34.8838L7.54912e-07 70.3838L14.4535 40.6266C16.0613 37.3163 16.0613 33.4513 14.4535 30.1409Z" fill="#0C5947"/>
</g>
</g>
</g>
</g>
</g>
</g>
<defs>
<clipPath id="clip0_1_4575">
<rect width="1440" height="3326.62" fill="white" transform="translate(-592 -150)"/>
</clipPath>
</defs>
</svg>
