<svg width="29" height="22" viewBox="0 0 29 22" fill="none" xmlns="http://www.w3.org/2000/svg">
<path d="M3.30185 20.2214C1.75657 18.4757 0.829407 16.5713 0.829407 13.3973C0.829407 7.84274 4.69259 2.923 10.1011 0.383789L11.4918 2.4469C6.39239 5.30352 5.3107 8.95364 5.00165 11.3342C5.77429 10.8581 6.85598 10.6994 7.93767 10.8581C10.7192 11.1755 12.8825 13.3973 12.8825 16.4126C12.8825 17.8409 12.2644 19.2692 11.3373 20.3801C10.2556 21.491 9.01936 21.9671 7.47409 21.9671C5.77428 21.9671 4.22901 21.1736 3.30185 20.2214ZM18.7546 20.2214C17.2093 18.4757 16.2822 16.5713 16.2822 13.3973C16.2822 7.84274 20.1453 2.923 25.5538 0.383789L26.9445 2.4469C21.8451 5.30352 20.7634 8.95364 20.4544 11.3342C21.227 10.8581 22.3087 10.6994 23.3904 10.8581C26.1719 11.1755 28.3353 13.3973 28.3353 16.4126C28.3353 17.8409 27.7172 19.2692 26.79 20.3801C25.8629 21.491 24.4721 21.9671 22.9268 21.9671C21.227 21.9671 19.6818 21.1736 18.7546 20.2214Z" fill="#4B8771"/>
</svg>
