<svg width="458" height="33" viewBox="0 0 458 33" fill="none" xmlns="http://www.w3.org/2000/svg">
<g filter="url(#filter0_i_878_29795)">
<path fill-rule="evenodd" clip-rule="evenodd" d="M3.9977 0.178711H75.5489C76.406 0.178711 77.1509 0.419997 77.7583 0.820387C78.3656 0.419997 79.1106 0.178711 79.9677 0.178711H151.519C152.354 0.178711 153.083 0.407955 153.682 0.790334C154.281 0.407944 155.01 0.178711 155.845 0.178711H226.698C227.509 0.178711 228.221 0.395287 228.81 0.758573C229.399 0.395287 230.11 0.178711 230.922 0.178711H301.775C302.609 0.178711 303.337 0.407224 303.935 0.78853C304.533 0.407233 305.261 0.178711 306.095 0.178711H377.646C378.597 0.178711 379.409 0.47528 380.049 0.956429C380.689 0.47528 381.501 0.178711 382.451 0.178711H454.003C457.936 0.178711 459.507 5.26035 456.26 7.48056L420.485 31.9443C419.124 32.8752 417.33 32.8752 415.969 31.9443L380.194 7.48055C380.144 7.44683 380.096 7.41245 380.049 7.37743C380.002 7.41245 379.954 7.44683 379.904 7.48056L344.129 31.9443C342.767 32.8752 340.974 32.8752 339.613 31.9443L303.936 7.54776L268.621 31.9202C267.253 32.8641 265.444 32.8641 264.077 31.9202L228.81 7.5812L193.543 31.9202C192.176 32.8641 190.367 32.8641 188.999 31.9202L153.681 7.54581L118.001 31.9443C116.64 32.8752 114.847 32.8752 113.485 31.9443L77.7583 7.51368L42.0311 31.9443C40.6698 32.8752 38.8768 32.8752 37.5154 31.9443L1.73986 7.48055C-1.50695 5.26034 0.0643624 0.178711 3.9977 0.178711Z" fill="white"/>
</g>
<defs>
<filter id="filter0_i_878_29795" x="-0.00976562" y="0.178711" width="458.02" height="32.4639" filterUnits="userSpaceOnUse" color-interpolation-filters="sRGB">
<feFlood flood-opacity="0" result="BackgroundImageFix"/>
<feBlend mode="normal" in="SourceGraphic" in2="BackgroundImageFix" result="shape"/>
<feColorMatrix in="SourceAlpha" type="matrix" values="0 0 0 0 0 0 0 0 0 0 0 0 0 0 0 0 0 0 127 0" result="hardAlpha"/>
<feOffset dy="-1.2"/>
<feComposite in2="hardAlpha" operator="arithmetic" k2="-1" k3="1"/>
<feColorMatrix type="matrix" values="0 0 0 0 0.72549 0 0 0 0 0.819608 0 0 0 0 0.694118 0 0 0 1 0"/>
<feBlend mode="normal" in2="shape" result="effect1_innerShadow_878_29795"/>
</filter>
</defs>
</svg>
