<svg width="343" height="24" viewBox="0 0 343 24" fill="none" xmlns="http://www.w3.org/2000/svg">
<g filter="url(#filter0_i_878_29151)">
<path fill-rule="evenodd" clip-rule="evenodd" d="M49.5145 0.794922H3.73392C-0.227574 0.794922 -1.77892 5.93597 1.52133 8.12726L24.4116 23.3258C25.7524 24.216 27.4961 24.216 28.8368 23.3258L50.7702 8.76261L72.7036 23.3258C74.0443 24.216 75.788 24.216 77.1288 23.3258L99.0622 8.76261L120.996 23.3258C122.336 24.216 124.08 24.216 125.421 23.3258L147.354 8.76261L169.288 23.3258C170.628 24.216 172.372 24.216 173.713 23.3258L195.646 8.76261L217.58 23.3258C218.92 24.216 220.664 24.216 222.005 23.3258L243.938 8.76261L265.871 23.3258C267.212 24.216 268.956 24.216 270.297 23.3258L292.23 8.76262L314.163 23.3258C315.504 24.216 317.248 24.216 318.589 23.3258L341.479 8.12726C344.779 5.93597 343.228 0.794922 339.266 0.794922H293.486C293.035 0.794922 292.615 0.861554 292.23 0.982881C291.845 0.861554 291.425 0.794922 290.974 0.794922H245.194C244.743 0.794922 244.323 0.861556 243.938 0.982886C243.553 0.861556 243.133 0.794922 242.682 0.794922H196.902C196.451 0.794922 196.031 0.861556 195.646 0.982886C195.261 0.861556 194.841 0.794922 194.39 0.794922H148.61C148.159 0.794922 147.739 0.861556 147.354 0.982886C146.969 0.861556 146.549 0.794922 146.098 0.794922H100.318C99.8669 0.794922 99.4471 0.861556 99.0622 0.982884C98.6772 0.861556 98.2575 0.794922 97.8065 0.794922H52.0259C51.5749 0.794922 51.1551 0.861556 50.7702 0.982884C50.3853 0.861556 49.9655 0.794922 49.5145 0.794922Z" fill="white"/>
</g>
<defs>
<filter id="filter0_i_878_29151" x="-0.273438" y="0.794922" width="343.547" height="23.1987" filterUnits="userSpaceOnUse" color-interpolation-filters="sRGB">
<feFlood flood-opacity="0" result="BackgroundImageFix"/>
<feBlend mode="normal" in="SourceGraphic" in2="BackgroundImageFix" result="shape"/>
<feColorMatrix in="SourceAlpha" type="matrix" values="0 0 0 0 0 0 0 0 0 0 0 0 0 0 0 0 0 0 127 0" result="hardAlpha"/>
<feOffset dy="-1.2"/>
<feComposite in2="hardAlpha" operator="arithmetic" k2="-1" k3="1"/>
<feColorMatrix type="matrix" values="0 0 0 0 0.72549 0 0 0 0 0.819608 0 0 0 0 0.694118 0 0 0 1 0"/>
<feBlend mode="normal" in2="shape" result="effect1_innerShadow_878_29151"/>
</filter>
</defs>
</svg>
