<svg width="32" height="33" viewBox="0 0 32 33" fill="none" xmlns="http://www.w3.org/2000/svg">
<g clip-path="url(#clip0_315_1792)">
<path d="M28.3908 13.9605L30.3869 11.9644C31.6463 10.7049 31.6463 8.65556 30.3869 7.396C30.0054 7.01456 29.5514 6.7495 29.069 6.59906C29.7196 5.3775 29.5312 3.823 28.503 2.79475C27.3843 1.67606 25.643 1.55194 24.3849 2.42044C24.2272 1.96481 23.9675 1.54712 23.6165 1.19612C23.0063 0.586 22.1951 0.25 21.3322 0.25C20.4693 0.25 19.6581 0.586 19.048 1.19619L10.7598 9.48431L10.7614 6.62612C10.7614 4.82425 9.36598 3.29681 7.65085 3.22125C6.75216 3.18175 5.90129 3.50131 5.25329 4.12144C4.60498 4.74181 4.24791 5.57756 4.24798 6.47456L4.24716 16.4239C4.2471 17.1941 3.9471 17.9182 3.40248 18.4628L0.943539 20.9217C0.577414 21.2878 0.577414 21.8814 0.943539 22.2476L10.6713 31.9754C10.8471 32.1512 11.0855 32.25 11.3342 32.25C11.5828 32.25 11.8212 32.1512 11.997 31.9754L12.6726 31.2998C12.9964 30.976 13.3466 30.6846 13.7197 30.4257V31.3125C13.7197 31.8302 14.1394 32.25 14.6572 32.25H24.0322C24.5499 32.25 24.9697 31.8302 24.9697 31.3125V30.6614C24.9697 29.6034 25.3192 28.5547 25.954 27.7083C26.8307 26.5396 27.3134 25.0913 27.3134 23.6302V21.5229L29.5621 19.2743C30.1722 18.6641 30.5081 17.8529 30.5078 16.9901C30.5075 16.1272 30.1712 15.3162 29.5607 14.7064C29.2185 14.3647 28.8178 14.1166 28.3908 13.9605ZM29.061 10.6387L24.2381 15.4615C24.209 15.4684 24.1795 15.4746 24.1508 15.4825C23.9835 14.5312 23.2765 13.7635 22.3583 13.5079L27.1448 8.72144C27.6732 8.19356 28.5327 8.19369 29.061 8.72194C29.5895 9.25031 29.5895 10.1102 29.061 10.6387ZM11.3469 29.9741L11.3342 29.9867L2.93235 21.5847L4.72835 19.7887C5.62704 18.89 6.12204 17.6951 6.12223 16.4241L6.12304 6.47469C6.12304 6.09406 6.27454 5.73944 6.54966 5.47619C6.82454 5.21313 7.18616 5.07794 7.56835 5.09444C8.29516 5.1265 8.88641 5.81356 8.88641 6.62563L8.8836 11.7484C8.88341 12.1277 9.11173 12.4698 9.4621 12.6149C9.81254 12.7603 10.2159 12.68 10.484 12.4118L20.3739 2.522C20.8784 1.99619 21.7861 1.99625 22.2906 2.522C22.8164 3.0265 22.8164 3.93425 22.2906 4.43875L16.6376 10.0918C16.2715 10.4578 16.2715 11.0514 16.6376 11.4176C17.0037 11.7836 17.5973 11.7836 17.9634 11.4176L25.2603 4.12063C25.7887 3.59225 26.6485 3.59225 27.177 4.12063C27.7055 4.64906 27.7055 5.509 27.177 6.03744L20.2148 12.9997C19.774 12.6111 19.1959 12.375 18.5635 12.375C17.6455 12.375 16.8415 12.8723 16.4067 13.6117C16.1088 13.4861 15.7816 13.4167 15.4385 13.4167C15.4385 13.4167 15.4385 13.4167 15.4384 13.4167C14.7707 13.4167 14.1429 13.6767 13.6707 14.1489C13.1985 14.6211 12.9385 15.2489 12.9385 15.9166V20.3841C11.9554 19.6404 10.5539 19.657 9.66204 20.4735C9.14954 20.9427 8.85885 21.583 8.8436 22.2764C8.82854 22.9599 9.09717 23.6291 9.58041 24.1123L13.2317 27.7644C13.3899 27.9226 13.5122 28.1071 13.5949 28.3079C12.7672 28.7495 12.0131 29.3079 11.3469 29.9741ZM25.4385 23.6302C25.4385 24.6882 25.0889 25.7369 24.4541 26.5833C23.6349 27.6756 23.1596 29.0122 23.1009 30.375H15.5947V28.9428C15.5947 27.9968 15.2264 27.1076 14.5577 26.4387L10.9063 22.7865C10.781 22.6613 10.7142 22.4948 10.7182 22.3176C10.722 22.1406 10.7966 21.9769 10.9282 21.8564C11.1734 21.6319 11.6132 21.6748 11.8886 21.9503L13.213 23.2747C13.4811 23.5429 13.8843 23.6231 14.2347 23.478C14.585 23.3329 14.8135 22.9911 14.8135 22.6119V15.9166C14.8003 15.1058 16.0767 15.1062 16.0635 15.9166C16.0635 16.4344 16.4832 16.8541 17.001 16.8541C17.5187 16.8541 17.9385 16.4343 17.9385 15.9166C17.9719 15.39 17.721 14.2468 18.5635 14.25C19.4058 14.246 19.1551 15.3918 19.1885 15.9166C19.1885 16.4344 19.6082 16.8541 20.126 16.8541C20.6437 16.8541 21.0635 16.4344 21.0635 15.9166C21.0509 15.1073 22.3255 15.1048 22.3135 15.9167V17.8941C22.3135 18.4118 22.7332 18.8316 23.251 18.8316C23.7687 18.8316 24.1885 18.4118 24.1885 17.8941C24.1885 17.5491 24.4691 17.2682 24.814 17.2681C25.1496 17.2609 25.4454 17.5565 25.4385 17.8921V23.6302ZM28.2364 17.9485L27.3135 18.8714V17.8921C27.3135 17.2243 27.0534 16.5966 26.581 16.1245C26.5228 16.0663 26.4622 16.0114 26.3994 15.9598C26.9316 15.5074 27.733 15.5311 28.2357 16.0332C28.4917 16.2889 28.6327 16.6289 28.6328 16.9907C28.633 17.3525 28.4922 17.6926 28.2364 17.9485Z" fill="#0C0B0B"/>
</g>
<defs>
<clipPath id="clip0_315_1792">
<rect width="32" height="32" fill="white" transform="translate(0 0.25)"/>
</clipPath>
</defs>
</svg>
