<svg width="89" height="50" viewBox="0 0 89 50" fill="none" xmlns="http://www.w3.org/2000/svg">
<path d="M0.617229 29.0777L0.617198 29.0777C-1.53907 30.9906 -1.53907 34.1476 0.617198 36.0606L12.5573 46.6536L13.2189 45.9079L12.5573 46.6536C14.6439 48.5048 17.9824 48.5042 20.0688 46.6537L20.0689 46.6536L22.9467 44.1002C24.2758 42.921 26.4749 42.921 27.8041 44.1002L30.6818 46.6536L30.682 46.6537C32.7684 48.5043 36.1069 48.5043 38.1933 46.6537L38.1935 46.6536L41.0712 44.1002C41.0712 44.1002 41.0713 44.1002 41.0713 44.1001C42.4004 42.921 44.5995 42.921 45.9286 44.1002L48.8064 46.6533C50.8929 48.5043 54.2315 48.5043 56.318 46.6533L55.6583 45.9097L56.318 46.6533L59.1958 44.1002C60.5248 42.9211 62.7235 42.921 64.0532 44.1002L0.617229 29.0777ZM0.617229 29.0777L3.49485 26.5249C4.75422 25.4077 4.75409 23.6514 3.49494 22.5346L3.49478 22.5345L0.617198 19.9811C-1.53912 18.0681 -1.53898 14.9115 0.617111 12.9983L0.617205 12.9982L12.5573 2.40549C14.6438 0.554462 17.9824 0.554462 20.0689 2.40549L22.9467 4.9586L22.2831 5.70665L22.9467 4.9586C24.2758 6.13776 26.4749 6.13776 27.8041 4.9586L30.6819 2.40549C32.7683 0.554462 36.107 0.554462 38.1934 2.40549L41.0712 4.9586C42.4004 6.13776 44.5995 6.13776 45.9286 4.9586L48.8064 2.40549C50.8929 0.554462 54.2315 0.554462 56.318 2.40549L59.1958 4.9586C60.5249 6.13772 62.7236 6.13783 64.0532 4.95852L66.9309 2.40557C66.9309 2.40554 66.931 2.40552 66.931 2.40549C69.0171 0.554398 72.3561 0.554527 74.4425 2.40548L86.3828 12.9982C88.5391 14.9111 88.5391 18.0681 86.3828 19.9811L83.505 22.5342C82.2457 23.6514 82.2457 25.4074 83.505 26.5246L86.3828 29.0777C88.5391 30.9906 88.5391 34.1476 86.3828 36.0606L85.7192 35.3126L86.3828 36.0606L74.4425 46.6533C72.3561 48.5043 69.0171 48.5044 66.931 46.6533C66.931 46.6533 66.9309 46.6532 66.9309 46.6532L64.0532 44.1003L0.617229 29.0777Z" fill="#0DA802" stroke="white" stroke-width="2"/>
<path d="M14.6403 15.9352H21.9363V18.2392H17.0883V23.4232H21.3123V25.7272H17.0883V33.0232H14.6403V15.9352ZM25.1892 29.3272C25.1892 29.7912 25.2932 30.1432 25.5012 30.3832C25.7252 30.6072 26.0212 30.7192 26.3892 30.7192C26.7572 30.7192 27.0452 30.6072 27.2532 30.3832C27.4772 30.1432 27.5892 29.7912 27.5892 29.3272V24.5512C27.5892 24.0872 27.4772 23.7432 27.2532 23.5192C27.0452 23.2792 26.7572 23.1592 26.3892 23.1592C26.0212 23.1592 25.7252 23.2792 25.5012 23.5192C25.2932 23.7432 25.1892 24.0872 25.1892 24.5512V29.3272ZM22.7412 24.9352C22.7412 24.4392 22.7732 23.9832 22.8372 23.5672C22.9012 23.1512 23.0212 22.7832 23.1972 22.4632C23.4852 21.9352 23.9012 21.5112 24.4452 21.1912C24.9892 20.8712 25.6372 20.7112 26.3892 20.7112C27.1412 20.7112 27.7892 20.8712 28.3332 21.1912C28.8772 21.5112 29.2932 21.9352 29.5812 22.4632C29.7572 22.7832 29.8772 23.1512 29.9412 23.5672C30.0052 23.9832 30.0372 24.4392 30.0372 24.9352V28.9432C30.0372 29.4392 30.0052 29.8952 29.9412 30.3112C29.8772 30.7272 29.7572 31.0952 29.5812 31.4152C29.2932 31.9432 28.8772 32.3672 28.3332 32.6872C27.7892 33.0072 27.1412 33.1672 26.3892 33.1672C25.6372 33.1672 24.9892 33.0072 24.4452 32.6872C23.9012 32.3672 23.4852 31.9432 23.1972 31.4152C23.0212 31.0952 22.9012 30.7272 22.8372 30.3112C22.7732 29.8952 22.7412 29.4392 22.7412 28.9432V24.9352ZM31.84 20.8552H34.288V22.1512C34.784 21.7032 35.272 21.3512 35.752 21.0952C36.232 20.8392 36.824 20.7112 37.528 20.7112V23.3032C37.288 23.2072 37.04 23.1592 36.784 23.1592C36.528 23.1592 36.248 23.2072 35.944 23.3032C35.656 23.3832 35.384 23.5272 35.128 23.7352C34.888 23.9432 34.688 24.2152 34.528 24.5512C34.368 24.8872 34.288 25.3032 34.288 25.7992V33.0232H31.84V20.8552ZM42.9728 15.9352H45.4208V26.1592H45.4688L48.4208 20.8552H50.8688L47.9648 25.7992L51.4688 33.0232H48.8048L46.5968 27.7672L45.4208 29.6152V33.0232H42.9728V15.9352ZM52.301 15.9352H54.749V18.3832H52.301V15.9352ZM52.301 20.8552H54.749V33.0232H52.301V20.8552ZM59.2021 29.0632C59.2021 29.5592 59.2981 29.9592 59.4901 30.2632C59.6821 30.5672 59.9861 30.7192 60.4021 30.7192C60.7701 30.7192 61.0661 30.5832 61.2901 30.3112C61.5141 30.0232 61.6261 29.6552 61.6261 29.2072V24.4792C61.6261 24.0952 61.5061 23.7832 61.2661 23.5432C61.0421 23.2872 60.7541 23.1592 60.4021 23.1592C59.9381 23.1592 59.6181 23.3032 59.4421 23.5912C59.2821 23.8792 59.2021 24.2152 59.2021 24.5992V29.0632ZM61.6261 31.9192C61.4661 32.0952 61.3141 32.2632 61.1701 32.4232C61.0261 32.5672 60.8661 32.6952 60.6901 32.8072C60.5141 32.9192 60.3141 33.0072 60.0901 33.0712C59.8661 33.1352 59.6021 33.1672 59.2981 33.1672C58.2901 33.1672 57.5781 32.7832 57.1621 32.0152C57.0181 31.7432 56.9141 31.4072 56.8501 31.0072C56.7861 30.6072 56.7541 30.0712 56.7541 29.3992V24.7672C56.7541 23.8872 56.7781 23.2392 56.8261 22.8232C56.8741 22.4072 56.9781 22.0712 57.1381 21.8152C57.3461 21.4952 57.6101 21.2312 57.9301 21.0232C58.2661 20.8152 58.7301 20.7112 59.3221 20.7112C59.8021 20.7112 60.2261 20.8232 60.5941 21.0472C60.9781 21.2552 61.3061 21.5592 61.5781 21.9592H61.6261V15.9352H64.0741V33.0232H61.6261V31.9192ZM70.5222 24.2632C70.5062 23.8472 70.3702 23.5352 70.1142 23.3272C69.8742 23.1192 69.5942 23.0152 69.2742 23.0152C68.8902 23.0152 68.5942 23.1432 68.3862 23.3992C68.1782 23.6392 68.0742 23.9192 68.0742 24.2392C68.0742 24.4632 68.1302 24.6872 68.2422 24.9112C68.3542 25.1192 68.6422 25.3112 69.1062 25.4872L70.5462 26.0632C71.4582 26.4152 72.0822 26.8952 72.4182 27.5032C72.7702 28.1112 72.9462 28.7752 72.9462 29.4952C72.9462 30.0072 72.8502 30.4872 72.6582 30.9352C72.4822 31.3672 72.2342 31.7512 71.9142 32.0872C71.5942 32.4232 71.2102 32.6872 70.7622 32.8792C70.3142 33.0712 69.8262 33.1672 69.2982 33.1672C68.8182 33.1672 68.3622 33.0872 67.9302 32.9272C67.4982 32.7672 67.1142 32.5352 66.7782 32.2312C66.4582 31.9272 66.1942 31.5512 65.9862 31.1032C65.7782 30.6392 65.6662 30.1032 65.6502 29.4952H67.9542C68.0022 29.8312 68.1142 30.1432 68.2902 30.4312C68.4822 30.7192 68.8102 30.8632 69.2742 30.8632C69.6262 30.8632 69.9382 30.7512 70.2102 30.5272C70.4982 30.2872 70.6422 29.9592 70.6422 29.5432C70.6422 29.2072 70.5542 28.9192 70.3782 28.6792C70.2022 28.4392 69.8822 28.2312 69.4182 28.0552L68.2422 27.6232C67.4742 27.3352 66.8662 26.9112 66.4182 26.3512C65.9862 25.7752 65.7702 25.0792 65.7702 24.2632C65.7702 23.7512 65.8662 23.2792 66.0582 22.8472C66.2502 22.3992 66.5062 22.0232 66.8262 21.7192C67.1622 21.3992 67.5462 21.1512 67.9782 20.9752C68.4102 20.7992 68.8742 20.7112 69.3702 20.7112C69.8662 20.7112 70.3222 20.8072 70.7382 20.9992C71.1702 21.1752 71.5382 21.4232 71.8422 21.7432C72.1462 22.0472 72.3862 22.4232 72.5622 22.8712C72.7382 23.3032 72.8262 23.7672 72.8262 24.2632H70.5222Z" fill="white"/>
</svg>
