<svg width="173" height="122" viewBox="0 0 173 122" fill="none" xmlns="http://www.w3.org/2000/svg">
<rect x="140.64" y="31.5835" width="98.946" height="8.67004" rx="4.33502" transform="rotate(-180 140.64 31.5835)" fill="#FFC21A"/>
<rect x="98.9463" y="104.041" width="98.946" height="8.67004" rx="4.33502" transform="rotate(-180 98.9463 104.041)" fill="#FFC21A"/>
<rect x="112.637" y="49.5432" width="98.946" height="8.67004" rx="4.33502" transform="rotate(-180 112.637 49.5432)" fill="#FFC21A"/>
<rect x="110.77" y="122" width="98.946" height="8.67004" rx="4.33502" transform="rotate(-180 110.77 122)" fill="#FFC21A"/>
<rect x="138.151" y="49.5432" width="19.2914" height="8.67004" rx="4.33502" transform="rotate(-180 138.151 49.5432)" fill="#FFC21A"/>
<rect x="138.151" y="104.041" width="34.2266" height="8.67004" rx="4.33502" transform="rotate(-180 138.151 104.041)" fill="#FFC21A"/>
<rect x="153.086" y="49.5432" width="8.71223" height="8.67004" rx="4.33502" transform="rotate(-180 153.086 49.5432)" fill="#FFC21A"/>
<rect x="110.77" y="8.66992" width="98.946" height="8.67004" rx="4.33502" transform="rotate(-180 110.77 8.66992)" fill="#FFC21A"/>
<rect x="173" y="81.127" width="98.946" height="8.67004" rx="4.33502" transform="rotate(-180 173 81.127)" fill="#FFC21A"/>
</svg>
