<svg width="491" height="486" viewBox="0 0 491 486" fill="none" xmlns="http://www.w3.org/2000/svg">
<path d="M47.6683 90.9984C55.1544 80.7512 119.244 -3.98081 223.13 0.145847C228.322 0.352528 329.639 5.70191 367.008 72.1227C394.653 121.255 365.386 164.849 399.108 198.325C428.493 227.493 464.605 208.186 482.661 231.774C510.167 267.703 466.364 364.74 399.061 418.858C329.568 474.736 196.616 515.732 93.2811 441.179C-22.7335 357.475 -21.5559 185.745 47.6683 90.9984Z" fill="#F4F5FE"/>
<path d="M249.845 326.366L239.154 326.385C238.418 319.324 236.719 312.545 234.194 306.176L243.233 300.934C245.702 299.501 246.548 296.271 245.124 293.709L241.325 286.878C239.892 284.303 236.71 283.356 234.215 284.773L225.287 289.839C221.132 284.018 216.173 278.769 210.556 274.253L215.69 265.434C217.163 262.903 216.29 259.572 213.733 257.986L206.9 253.747C204.317 252.144 201.002 252.901 199.501 255.447L194.354 264.176C187.742 261.097 180.596 258.874 173.06 257.682V247.331C173.06 244.278 170.548 241.686 167.439 241.546L159.12 241.165C155.971 241.021 153.41 243.408 153.41 246.496V256.962C145.641 257.609 138.152 259.355 131.112 262.057L125.557 252.595C123.925 249.815 120.3 248.736 117.455 250.195L109.845 254.098C106.967 255.574 105.981 259.046 107.645 261.846L113.399 271.525C107.101 275.978 101.47 281.308 96.7006 287.352L86.2913 281.463C83.3403 279.794 79.5539 280.659 77.8378 283.405L73.2611 290.734C71.5346 293.499 72.5594 297.087 75.5451 298.739L86.3156 304.7C83.3299 311.577 81.3116 318.95 80.4345 326.658L67.5154 326.681C64.0381 326.686 61.2104 329.322 61.2104 332.567V341.197C61.2104 344.441 64.0381 347.038 67.5154 346.994L80.7784 346.829C81.8987 354.357 84.1098 361.525 87.2518 368.178L75.5451 374.822C72.5594 376.515 71.5346 380.119 73.2611 382.86L77.8378 390.123C79.5521 392.844 83.3403 393.657 86.2913 391.947L98.1318 385.081C102.863 390.677 108.366 395.592 114.471 399.684L107.645 411.263C105.981 414.086 106.969 417.545 109.845 418.98L117.455 422.775C120.3 424.194 123.925 423.065 125.557 420.26L132.328 408.63C139.013 410.989 146.088 412.484 153.41 413V425.964C153.41 429.052 155.971 431.402 159.12 431.212L167.439 430.716C170.548 430.53 173.06 427.904 173.06 424.85V412.028C180.167 410.814 186.927 408.686 193.22 405.794L199.501 416.359C201.002 418.883 204.316 419.595 206.9 417.955L213.733 413.618C216.29 411.996 217.163 408.653 215.689 406.143L209.59 395.755C215.048 391.436 219.908 386.439 224.042 380.913L234.211 386.54C236.707 387.921 239.889 386.931 241.322 384.334L245.121 377.449C246.545 374.869 245.699 371.65 243.229 370.252L233.395 364.689C236.057 358.442 237.923 351.79 238.863 344.863L249.841 344.726C252.671 344.691 254.958 342.3 254.958 339.385V331.636C254.962 328.72 252.674 326.361 249.845 326.366ZM163.29 390.163C131.654 391.337 105.18 366.785 105.18 335.288C105.18 303.791 131.654 278.901 163.29 279.67C193.851 280.414 217.874 304.983 217.874 334.568C217.872 364.152 193.849 389.029 163.29 390.163Z" fill="#97A6B7"/>
<path d="M127.89 249.791L120.276 249.527L117.649 256.355L127.89 249.791Z" fill="#97A6B7"/>
<path d="M203.396 252.941L212.177 253.028V259.505L203.396 252.941Z" fill="#97A6B7"/>
<path d="M236.859 284.182L245.612 284.536L243.423 289.437L236.859 284.182Z" fill="#97A6B7"/>
<path d="M250.601 326.459L259.441 327.159L256.553 331.447L250.601 326.459Z" fill="#97A6B7"/>
<path d="M235.896 387.11L244.474 388.336L245.525 381.333L235.896 387.11Z" fill="#97A6B7"/>
<path d="M203.076 418.706L210.777 420.106L211.39 414.416L203.076 418.706Z" fill="#97A6B7"/>
<path d="M164.563 432.36L157.648 431.134L163.601 422.295L164.563 432.36Z" fill="#97A6B7"/>
<path d="M127.102 424.92L119.049 423.256L125.264 415.729L127.102 424.92Z" fill="#97A6B7"/>
<path d="M81.8516 280.685L90.2547 280.947L86.9285 287.073L81.8516 280.685Z" fill="#97A6B7"/>
<path d="M65.1343 346.588L72.8374 347.726L72.2243 341.425L65.1343 346.588Z" fill="#97A6B7"/>
<path d="M81.6768 392.711L89.2045 393.937L89.8176 388.947L81.6768 392.711Z" fill="#97A6B7"/>
<path d="M258.483 327.061L247.704 327.08C246.96 319.961 245.249 313.127 242.701 306.706L251.817 301.42C254.307 299.975 255.16 296.719 253.724 294.136L249.894 287.25C248.449 284.653 245.241 283.698 242.724 285.127L233.723 290.235C229.534 284.367 224.533 279.075 218.871 274.522L224.049 265.632C225.534 263.08 224.653 259.723 222.076 258.124L215.185 253.849C212.58 252.234 209.238 252.996 207.725 255.563L202.537 264.364C195.869 261.258 188.665 259.02 181.066 257.818V247.381C181.066 244.302 178.533 241.692 175.398 241.547L167.009 241.165C163.834 241.021 161.253 243.427 161.253 246.539V257.09C153.419 257.743 145.867 259.503 138.769 262.228L133.169 252.689C131.524 249.886 127.868 248.799 125 250.27L117.328 254.204C114.428 255.692 113.431 259.192 115.108 262.014L120.911 271.773C114.561 276.263 108.883 281.636 104.074 287.729L93.5778 281.793C90.6025 280.11 86.7831 280.982 85.0548 283.752L80.4416 291.14C78.7012 293.928 79.7347 297.546 82.7448 299.211L93.6056 305.221C90.5938 312.154 88.5599 319.586 87.6758 327.358L74.649 327.381C71.144 327.386 68.292 330.043 68.292 333.315V342.015C68.292 345.285 71.144 347.903 74.649 347.859L88.0215 347.693C89.1505 355.282 91.3806 362.508 94.5487 369.215L82.7448 375.912C79.7347 377.62 78.7012 381.251 80.4416 384.014L85.0548 391.337C86.7848 394.081 90.6025 394.899 93.5778 393.174L105.516 386.251C110.285 391.893 115.833 396.848 121.99 400.974L115.107 412.648C113.429 415.494 114.424 418.98 117.326 420.427L124.998 424.253C127.868 425.684 131.522 424.545 133.167 421.719L139.993 409.995C146.734 412.373 153.867 413.881 161.251 414.402V427.471C161.251 430.584 163.832 432.953 167.007 432.763L175.396 432.261C178.531 432.074 181.064 429.427 181.064 426.347V413.42C188.23 412.196 195.046 410.053 201.391 407.137L207.724 417.788C209.236 420.333 212.578 421.05 215.184 419.397L222.074 415.025C224.651 413.391 225.532 410.02 224.047 407.489L217.898 397.018C223.401 392.664 228.301 387.627 232.469 382.055L242.724 387.73C245.241 389.122 248.449 388.122 249.894 385.505L253.724 378.564C255.16 375.963 254.307 372.717 251.817 371.308L241.901 365.7C244.586 359.4 246.465 352.696 247.413 345.713L258.483 345.575C261.336 345.541 263.643 343.13 263.643 340.191V332.379C263.643 329.433 261.336 327.056 258.483 327.061ZM171.21 391.377C139.312 392.56 112.618 367.808 112.618 336.054C112.618 304.3 139.312 279.208 171.21 279.983C202.025 280.732 226.246 305.5 226.246 335.328C226.246 365.154 202.023 390.232 171.21 391.377Z" fill="#D8DEE8"/>
<path d="M34.8901 357.662C25.8096 358.204 18.3809 352.313 18.3809 344.528V63.9604C18.3809 56.1761 25.8096 50.165 34.8901 50.5575L454.819 68.7523C461.485 69.0406 466.884 74.6609 466.884 81.2817V319.902C466.884 326.523 461.485 332.232 454.819 332.628L34.8901 357.662Z" fill="#97A6B7"/>
<path d="M38.6645 357.662C29.584 358.204 22.1553 352.312 22.1553 344.528V63.9602C22.1553 56.1758 29.584 50.1647 38.6645 50.5572L458.594 68.7521C465.26 69.0404 470.658 74.6607 470.658 81.2814V319.902C470.658 326.522 465.26 332.231 458.594 332.627L38.6645 357.662Z" fill="white"/>
<path opacity="0.3" d="M458.593 74.3691L38.6642 57.0948C33.8095 56.895 29.8633 60.1029 29.8633 64.2591V282.467V344.106C29.8633 348.262 33.8095 351.406 38.6642 351.128L458.593 327.016C462.166 326.811 465.056 323.765 465.056 320.213V265.663V81.0662C465.056 77.5145 462.168 74.515 458.593 74.3691Z" fill="#D8DEE8"/>
<path d="M38.6645 327.291C36.7747 327.384 35.2358 326.144 35.2358 324.527V64.4645C35.2358 62.8475 36.7747 61.5935 38.6645 61.6682L458.594 78.2982C459.987 78.3537 461.121 79.5261 461.121 80.9121V303.892C461.121 305.278 459.988 306.463 458.594 306.532L38.6645 327.291Z" fill="#91B3FA"/>
<path opacity="0.6" d="M414.756 315.262C379.427 293.41 404.103 231.279 364.429 200.061C324.43 168.588 268.146 207.189 240.126 174.596C219.264 150.328 243.675 121.022 223.754 98.1991C192.514 62.4069 112.544 111.633 75.803 76.3708C70.587 71.3636 65.3225 63.7686 62.3263 51.5831L38.6645 50.5584C29.584 50.1641 22.1553 56.177 22.1553 63.9613V344.529C22.1553 352.313 29.584 358.205 38.6645 357.663L458.594 332.63C465.26 332.232 470.658 326.525 470.658 319.905V315.662C442.776 325.12 425.73 322.05 414.756 315.262Z" fill="white"/>
<path d="M61.9805 306.081L163.054 301.864V248.877L61.9805 251.328V306.081Z" fill="#F4F7FA"/>
<g opacity="0.7">
<path opacity="0.7" d="M332.748 214.844L348.104 214.632V102.368L332.748 101.974V214.844Z" fill="#F4F7FA"/>
<path opacity="0.7" d="M305.038 215.224L320.691 215.009V158.337L305.038 158.243V215.224Z" fill="#F4F7FA"/>
<path opacity="0.7" d="M276.783 215.616L292.744 215.396V90.1039L276.783 89.6367V215.616Z" fill="#F4F7FA"/>
<path opacity="0.7" d="M247.972 216.013L264.248 215.787V108.035L247.972 107.66V216.013Z" fill="#F4F7FA"/>
<path opacity="0.7" d="M218.585 216.418L235.186 216.189V187.011L218.585 187.075V216.418Z" fill="#F4F7FA"/>
<path opacity="0.7" d="M188.607 216.831L205.544 216.598V147.327L188.607 147.169V216.831Z" fill="#F4F7FA"/>
<path opacity="0.7" d="M158.019 217.254L175.301 217.016V116.17L158.019 115.831V217.254Z" fill="#F4F7FA"/>
<path opacity="0.7" d="M126.802 217.684L144.44 217.441V143.148L126.802 142.96V217.684Z" fill="#F4F7FA"/>
<path opacity="0.7" d="M94.937 218.123L112.942 217.875V101.444L94.937 101.012V218.123Z" fill="#F4F7FA"/>
<path opacity="0.7" d="M62.4028 218.573L80.7862 218.32V87.5518L62.4028 87.0342V218.573Z" fill="#F4F7FA"/>
</g>
<path d="M362.206 293.555L437.742 290.403V282.759L362.206 285.701V293.555Z" fill="#F4F7FA"/>
<path d="M362.206 192.179L437.742 191.73V184.086L362.206 184.326V192.179Z" fill="#F4F7FA"/>
<path d="M362.206 178.735L437.742 178.644V171.001L362.206 170.881V178.735Z" fill="#F4F7FA"/>
<path d="M362.206 282.698L374.517 282.232V270.188L362.206 270.601V282.698Z" fill="#F4F7FA"/>
<path d="M371.324 243.012C371.324 258.985 384.455 271.485 400.485 270.938C416.333 270.396 429.05 257.276 429.05 241.629C429.05 225.982 416.334 213.472 400.485 213.689C384.453 213.91 371.324 227.038 371.324 243.012Z" fill="#F4F7FA"/>
<path opacity="0.35" d="M373.017 242.116C373.38 230.611 380.96 220.79 391.381 216.993C394.235 215.953 397.299 215.36 400.484 215.315C415.439 215.101 427.444 226.901 427.444 241.669C427.444 256.438 415.439 268.814 400.484 269.316C385.368 269.825 372.994 258.032 372.994 242.974C372.994 242.687 373.008 242.401 373.017 242.116Z" fill="white"/>
<path d="M373.017 242.116C373.38 230.611 380.96 220.79 391.381 216.993C394.235 215.953 397.299 215.36 400.484 215.315C415.439 215.101 427.444 226.901 427.444 241.669C427.444 256.438 415.439 268.814 400.484 269.316C385.368 269.825 372.994 258.032 372.994 242.974C372.994 242.687 373.008 242.401 373.017 242.116Z" fill="#91B3FA"/>
<path d="M373.017 242.113C373.38 230.609 380.959 220.787 391.381 216.99L400.484 242.313L373.017 242.113Z" fill="white"/>
<path d="M89.7379 272.729C96.1593 272.97 97.1128 269.253 103.433 268.894C114.155 268.284 116.782 278.717 127.113 278.559C135.547 278.429 137.668 271.384 146.017 272.164C152.223 272.744 153.446 276.876 159.495 277.469C160.704 277.587 161.892 277.541 163.051 277.371V301.864L61.9771 306.081V262.746C67.3944 263.136 71.3494 264.361 74.1823 265.603C80.9996 268.59 83.261 272.484 89.7379 272.729Z" fill="#F4F7FA"/>
<path d="M362.206 160.229L437.742 160.632V94.3624L362.206 92.1445V160.229Z" fill="#F4F7FA"/>
<path d="M62.4028 245.316L348.104 238.935V226.96L62.4028 232.137V245.316Z" fill="#F4F7FA"/>
<path d="M175.301 301.353L348.104 294.144V243.569L175.301 247.708V301.353Z" fill="#F4F7FA"/>
<g opacity="0.79">
<path opacity="0.79" d="M59.0084 360.902C52.2154 361.312 46.666 356.204 46.666 349.514V222.077C46.666 215.389 52.2154 209.883 59.0084 209.808L284.071 207.294C289.883 207.229 294.593 212.181 294.593 218.334V335.55C294.593 341.703 289.883 346.992 284.071 347.343L59.0084 360.902Z" fill="url(#paint0_linear)"/>
<path opacity="0.79" d="M284.071 210.923L59.0082 213.727C54.5548 213.782 50.9351 217.492 50.9351 222.015V349.276C50.9351 353.799 54.5548 357.25 59.0082 356.987L284.071 343.713C287.887 343.487 290.971 339.925 290.971 335.755V218.39C290.971 214.218 287.887 210.876 284.071 210.923Z" fill="#4547EB"/>
<path opacity="0.79" d="M95.9751 335.378L79.1133 336.266V309.177L95.9751 308.44V335.378Z" fill="white"/>
<path opacity="0.79" d="M123.67 333.922L107.114 334.792V299.115L123.67 298.438V333.922Z" fill="white"/>
<path opacity="0.79" d="M150.863 332.492L134.605 333.347V286.352L150.863 285.751V332.492Z" fill="white"/>
<path opacity="0.79" d="M177.571 331.087L161.604 331.927V270.019L177.571 269.512V331.087Z" fill="white"/>
<path opacity="0.79" d="M79.1114 286.091C78.731 286.105 78.3454 286.049 77.9737 285.917C76.48 285.386 75.78 283.812 76.4105 282.402C77.1313 280.79 78.8734 280.526 79.8079 280.384C80.5148 280.276 81.4753 280.167 82.6911 280.028C122.447 275.493 150.682 259.742 167.249 233.344C168.041 232.081 169.739 231.652 171.042 232.385C172.343 233.118 172.756 234.735 171.964 235.996C160.772 253.869 144.398 267.285 123.14 275.856C105.92 282.798 90.0278 284.639 83.1896 285.431C82.0554 285.563 80.8882 285.698 80.3446 285.79C79.9625 285.971 79.5421 286.075 79.1114 286.091ZM81.8001 284.354C81.8001 284.354 81.8001 284.356 81.7984 284.356C81.7984 284.356 81.7984 284.354 81.8001 284.354ZM81.8019 284.347C81.8019 284.349 81.8019 284.349 81.8001 284.35C81.8019 284.35 81.8019 284.349 81.8019 284.347ZM81.8053 284.342C81.8053 284.344 81.8036 284.344 81.8036 284.345C81.8036 284.344 81.8053 284.344 81.8053 284.342ZM81.8088 284.335C81.8088 284.337 81.8071 284.338 81.8071 284.338C81.8071 284.338 81.8071 284.337 81.8088 284.335ZM81.8123 284.328C81.8123 284.33 81.8105 284.331 81.8088 284.333C81.8105 284.331 81.8105 284.33 81.8123 284.328Z" fill="white"/>
<path opacity="0.79" d="M172.265 248.551C170.823 248.586 169.611 247.544 169.515 246.147L168.73 234.594L157.196 242.217C155.917 243.059 154.187 242.773 153.329 241.572C152.471 240.371 152.815 238.712 154.095 237.87L173.611 225.014L175.013 245.673C175.112 247.125 173.962 248.409 172.446 248.541C172.386 248.547 172.326 248.549 172.265 248.551Z" fill="white"/>
<path opacity="0.68" d="M202.957 237.963C202.957 240.136 201.137 241.939 198.891 241.989C196.64 242.04 194.813 240.315 194.813 238.137C194.813 235.957 196.64 234.155 198.891 234.111C201.137 234.066 202.957 235.791 202.957 237.963Z" fill="white"/>
<path opacity="0.68" d="M278.414 244.898L209.084 246.583V229.083L278.414 227.812V244.898Z" fill="white"/>
<path opacity="0.68" d="M202.957 261.862C202.957 264.034 201.137 265.853 198.891 265.921C196.64 265.99 194.813 264.279 194.813 262.101C194.813 259.922 196.64 258.105 198.891 258.041C201.137 257.978 202.957 259.689 202.957 261.862Z" fill="white"/>
<path opacity="0.68" d="M278.414 268.182L209.084 270.432V252.93L278.414 251.096V268.182Z" fill="white"/>
<path opacity="0.68" d="M202.957 309.657C202.957 311.83 201.137 313.678 198.891 313.784C196.64 313.889 194.813 312.21 194.813 310.03C194.813 307.851 196.64 306.004 198.891 305.904C201.137 305.803 202.957 307.484 202.957 309.657Z" fill="white"/>
<path opacity="0.68" d="M278.414 310.478L209.084 313.752V305.002L278.414 301.933V310.478Z" fill="white"/>
<path opacity="0.68" d="M202.957 325.367C202.957 327.54 201.137 329.396 198.891 329.515C196.64 329.633 194.813 327.962 194.813 325.784C194.813 323.606 196.64 321.747 198.891 321.636C201.137 321.523 202.957 323.194 202.957 325.367Z" fill="white"/>
<path opacity="0.68" d="M278.414 325.783L209.084 329.43V320.68L278.414 317.239V325.783Z" fill="white"/>
</g>
<path d="M291.806 436.062C291.43 436.062 291.116 435.777 291.08 435.401L281.746 334.525C281.707 334.124 282.003 333.769 282.404 333.733C282.807 333.702 283.159 333.992 283.196 334.391L291.076 419.549V332.225C291.076 331.822 291.403 331.496 291.806 331.496C292.209 331.496 292.535 331.822 292.535 332.225V435.335C292.535 435.724 292.229 436.045 291.84 436.062C291.828 436.062 291.816 436.062 291.806 436.062Z" fill="#2B478B"/>
<path opacity="0.81" d="M395.896 343.259L293.488 332.041L212.109 340.982L315.149 353.32L395.896 343.259Z" fill="#F4F7FA"/>
<path d="M315.149 353.32L395.896 343.258V348.118L315.149 358.179L212.109 345.841V340.981L315.149 353.32Z" fill="#2B478B"/>
<path d="M213.235 451.078C213.224 451.078 213.216 451.078 213.205 451.078C212.815 451.063 212.505 450.741 212.505 450.35V345.574C212.505 345.171 212.832 344.845 213.235 344.845C213.638 344.845 213.964 345.171 213.964 345.574V431.76L220.737 345.517C220.768 345.114 221.122 344.817 221.52 344.846C221.921 344.878 222.222 345.228 222.19 345.63L213.963 450.406C213.931 450.788 213.614 451.078 213.235 451.078Z" fill="#2B478B"/>
<path d="M394.925 451.079C394.548 451.079 394.23 450.791 394.199 450.41L385.462 345.634C385.429 345.233 385.726 344.88 386.128 344.847C386.527 344.8 386.881 345.111 386.914 345.512L394.196 432.837V348.118C394.196 347.715 394.522 347.388 394.925 347.388C395.328 347.388 395.655 347.715 395.655 348.118V450.35C395.655 450.74 395.347 451.062 394.956 451.077C394.946 451.079 394.935 451.079 394.925 451.079Z" fill="#2B478B"/>
<path d="M366.994 340.616L287.396 340.024V341.776C287.396 342.252 287.743 342.657 288.214 342.728L310.722 346.179C310.99 346.221 311.261 346.231 311.53 346.212L366.131 342.278C366.619 342.244 366.996 341.837 366.996 341.349V340.616H366.994Z" fill="#26264F"/>
<path d="M338.107 337.718L288.216 340.924C287.324 340.981 286.598 340.372 286.598 339.562V307.131C286.598 306.322 287.324 305.665 288.216 305.665H338.107C338.842 305.665 339.438 306.259 339.438 306.99V336.308C339.438 337.039 338.844 337.671 338.107 337.718Z" fill="#26264F"/>
<path d="M338.903 337.719L289.012 340.925C288.12 340.982 287.394 340.373 287.394 339.563V307.132C287.394 306.323 288.12 305.666 289.012 305.666H338.903C339.638 305.666 340.234 306.26 340.234 306.991V336.309C340.234 337.04 339.64 337.672 338.903 337.719Z" fill="#26264F"/>
<path d="M337.35 335.654L290.883 338.438C290.156 338.481 289.566 337.981 289.566 337.319V308.926C289.566 308.266 290.156 307.728 290.883 307.724L337.35 307.549C337.956 307.547 338.448 308.033 338.448 308.634V334.495C338.446 335.1 337.956 335.617 337.35 335.654Z" fill="#FEB3B1"/>
<path d="M315.721 306.554C315.721 306.855 315.464 307.102 315.148 307.102C314.829 307.104 314.572 306.859 314.572 306.556C314.572 306.254 314.829 306.009 315.148 306.009C315.464 306.009 315.721 306.252 315.721 306.554Z" fill="white"/>
<path opacity="0.48" d="M327.085 328.84C323.219 326.958 320.18 329.344 317.246 326.989C315.467 325.561 316.341 324.496 314.152 322.364C311.73 320.002 310.151 320.795 307.716 318.67C304.636 315.981 306.177 313.89 303.523 311.96C300.304 309.619 296.834 311.787 293.77 309.541C292.448 308.572 291.724 307.165 291.345 305.666H288.347C287.823 305.666 287.396 306.052 287.396 306.527V340.168C287.396 340.644 287.823 341.001 288.347 340.968L339.454 337.684C339.704 337.668 339.926 337.535 340.071 337.344C336.329 337.22 334.031 336.084 332.562 334.91C329.687 332.614 330.186 330.35 327.085 328.84Z" fill="#4547EB"/>
<path d="M340.892 337.631L287.396 341.005L310.72 344.582C310.988 344.623 311.259 344.634 311.528 344.615L366.994 340.618L341.743 337.655C341.462 337.62 341.177 337.612 340.892 337.631Z" fill="#26264F"/>
<path opacity="0.47" d="M295.2 341.033L339.738 338.181L353.522 339.786L309.368 342.834L295.2 341.033Z" fill="#D8DEE8"/>
<path d="M351.024 443.066C351.024 443.066 339.323 443.878 339.151 444.643C338.979 445.407 347.094 448.359 349.928 448.471C352.763 448.582 355.095 447.743 354.838 446.543C354.581 445.341 353.59 442.322 353.59 442.322L351.024 443.066Z" fill="url(#paint1_linear)"/>
<path d="M350.472 437.867L350.264 443.389C350.264 443.389 352.044 444.392 353.456 443.816L355.028 437.992L350.472 437.867Z" fill="url(#paint2_linear)"/>
<path d="M318.299 440.838C318.299 440.838 306.598 441.651 306.426 442.415C306.254 443.179 314.369 446.132 317.204 446.243C320.038 446.354 322.371 445.515 322.114 444.315C321.857 443.113 320.865 440.095 320.865 440.095L318.299 440.838Z" fill="url(#paint3_linear)"/>
<path d="M317.747 435.641L317.539 441.162C317.539 441.162 319.319 442.168 320.731 441.589L322.303 435.766L317.747 435.641Z" fill="url(#paint4_linear)"/>
<path d="M349.229 438.646C351.415 438.889 353.602 439.133 355.787 439.376C358.74 436.104 363.148 430.396 365.505 422.372C370.047 406.903 363.47 395.754 367.692 392.979C373.669 389.052 386.621 411.661 407.413 411.08C415.943 410.842 427.078 406.663 431.358 397.565C432.004 396.192 435.178 389.001 432.088 382.261C428.897 375.301 413.069 372.272 381.54 366.499C368.008 364.021 361.173 362.784 358.427 364.095C338.967 373.384 347.082 425.907 349.229 438.646Z" fill="#93312C"/>
<path d="M315.846 438.741C318.107 439.135 320.368 439.528 322.63 439.922C325.378 435.877 329.534 429.537 334.184 421.494C343.876 404.727 343.698 401.321 348.176 399.162C357.654 394.595 364.817 406.935 388.26 410.337C395.929 411.45 412.954 413.922 419.842 404.75C422.635 401.031 424.239 394.765 422.029 389.445C418.067 379.91 405.016 381.056 362.025 372.683C345.258 369.418 342.972 368.836 338.912 370.279C316.231 378.345 315.788 427.726 315.846 438.741Z" fill="#B84E45"/>
<path d="M362.815 307.437C365.047 301.978 369.837 298.84 372.321 297.212C373.565 296.398 374.713 295.786 375.88 295.311C384.877 291.637 393.859 291.891 395.462 292.011C399.347 292.302 408.944 293.02 416.055 299.18C419.495 302.162 422.247 306.325 426.257 329.788C431.852 362.511 427.312 359.157 431.723 372.421C434.058 379.44 437.695 387.494 433.847 392.636C432.606 394.297 430.829 394.774 427.211 396.402C413.692 402.484 401.571 401.437 394.206 400.707C386.102 399.905 382.004 399.446 379.856 396.582C376.424 392.007 379.957 386.194 380.573 376.135C381.016 368.911 379.373 363.189 376.089 351.741C368.451 325.128 358.539 317.893 362.815 307.437Z" fill="#F99746"/>
<path d="M324.722 340.024L316.085 338.364C315.465 338.244 314.827 338.239 314.204 338.345L306.731 339.63C306.731 339.63 311.59 341.584 315.72 340.971C319.85 340.358 324.361 342.682 324.361 342.682L324.722 340.024Z" fill="#FEB3B1"/>
<path d="M381.922 285.964C380.47 283.768 382.645 279.546 383.505 277.875C383.534 277.818 383.572 277.741 383.652 277.592C384.974 275.155 385.313 274.822 385.943 274.4L386.82 273.86C386.82 273.86 386.871 273.841 386.925 273.82C387.487 273.62 389.403 273.561 389.792 273.644C391.032 273.908 392.354 278.962 391.977 286.106C392.029 286.379 392.078 286.653 392.127 286.929C392.323 288.056 392.477 289.163 392.597 290.245C392.712 291.278 394.178 291.256 395.216 291.19C399.432 290.92 401.495 291.28 401.674 291.907C402.011 293.083 397.011 296.93 390.836 297.795C382.551 297.857 375.81 296.975 376.534 295.669C376.856 295.089 383.275 293.413 385.082 291.749C386.735 290.226 386.6 288.656 386.737 287.53C385.881 287.577 383.03 287.638 381.922 285.964Z" fill="#FEB3B1"/>
<path d="M384.248 271.831C383.567 273.333 385.219 276.35 385.83 276.788C385.898 276.836 386.286 277.142 386.633 277.663C386.68 277.734 386.721 277.818 386.76 277.925C387.244 279.32 385.026 280.961 385.455 281.585C385.766 282.038 387.274 281.432 387.453 281.823C387.621 282.191 386.369 282.953 386.56 283.395C386.704 283.728 387.475 283.422 387.962 283.933C388.337 284.327 388.382 284.887 388.389 285.164C388.45 287.148 383.953 294.309 383.015 297.539C382.021 300.966 383.798 304.228 390.254 313.24C399.437 326.059 404.028 332.47 406.581 334.302C419.057 343.257 433.725 342.16 439.742 341.225C446.969 340.103 461.9 337.783 466.707 326.285C472.234 313.068 461.353 294.983 450.188 291.912C445.081 290.509 442.363 292.641 435.733 290.333C428.411 287.785 429.298 283.278 422.517 280.617C413.475 277.067 407.641 283.414 401.48 278.794C398.128 276.279 398.68 273.519 394.557 271.506C390.487 269.523 385.141 269.861 384.248 271.831Z" fill="#2B478B"/>
<path d="M386.249 281.065C386.791 280.32 387.744 281.02 387.75 281.984C387.755 282.948 386.82 283.952 385.914 283.761C385.009 283.57 385.519 282.068 386.249 281.065Z" fill="#FEB3B1"/>
<path opacity="0.3" d="M401.2 391.202C398.815 386.455 404.658 380.144 400.84 372.906C397.599 366.76 391.709 368.137 389.002 362.503C385.731 355.698 392.844 350.613 392.588 340.261C392.284 327.887 381.635 315.5 375.369 316.585C371.315 317.288 370.794 323.336 367.94 329.959C370.464 335.494 373.413 342.429 376.086 351.74C379.371 363.187 381.014 368.91 380.571 376.133C379.954 386.195 376.421 392.008 379.853 396.581C382.002 399.445 386.099 399.903 394.204 400.706C401.57 401.435 413.69 402.484 427.208 396.4C428.919 395.631 430.201 395.054 431.245 394.485C410.126 397.659 403.091 394.967 401.2 391.202Z" fill="#B84E45"/>
<path d="M322.521 342.544C322.766 341.441 323.011 340.34 323.256 339.237C339.852 342.212 347.109 338.872 350.616 334.97C353.834 331.388 352.462 329.539 357.612 315.868C362.517 302.847 368.082 299.5 370.886 298.29C372.452 297.614 373.533 297.166 374.832 297.482C380.81 298.943 382.787 314.524 381.111 326.181C380.166 332.748 378.313 345.627 367.747 351.74C367.552 351.853 367.245 352.03 366.839 352.247C365.508 352.96 360.221 355.5 349.808 353.623C337.532 351.41 325.554 344.374 322.521 342.544Z" fill="#F99746"/>
<path d="M404.556 486.001C424.582 486.001 440.816 479.375 440.816 471.203C440.816 463.03 424.582 456.405 404.556 456.405C384.53 456.405 368.296 463.03 368.296 471.203C368.296 479.375 384.53 486.001 404.556 486.001Z" fill="#B7C0CE"/>
<path d="M440.816 469.468C440.816 477.183 424.581 483.437 404.556 483.437C384.529 483.437 368.296 477.183 368.296 469.468C368.296 461.753 384.531 449.13 404.556 449.13C424.582 449.13 440.816 461.755 440.816 469.468Z" fill="white"/>
<path opacity="0.65" d="M440.816 469.468C440.816 461.753 424.581 449.13 404.556 449.13C395.309 449.13 386.876 451.824 380.47 455.48C380.022 456.419 379.814 457.352 379.899 458.239C380.314 462.58 387.394 465.249 391.458 466.128C401.692 468.344 406.689 462.225 415.127 462.458C420.343 462.602 427.572 465.223 436.147 476.321C439.115 474.298 440.816 471.96 440.816 469.468Z" fill="#4547EB"/>
<path d="M406.543 456.137C405.094 456.498 403.743 456.483 402.47 456.16C401.316 455.866 400.524 454.8 400.524 453.61V412.726H408.587V453.561C408.587 454.789 407.733 455.84 406.543 456.137Z" fill="white"/>
<path d="M406.543 456.137C405.094 456.498 403.743 456.483 402.47 456.16C401.316 455.866 400.524 454.8 400.524 453.61V412.726H408.587V453.561C408.587 454.789 407.733 455.84 406.543 456.137Z" fill="#4547EB"/>
<path d="M361.953 395.521L374.271 387.734C374.784 384.825 380.59 354.398 404.162 344.844C413.748 340.959 424.063 341.419 429.724 341.673C441.026 342.178 449.087 342.537 452.963 347.929C457.941 354.85 449.592 361.127 451.32 380.926C452.025 389.001 453.818 392.585 451.584 397.935C448.909 404.342 442.705 407.894 437.88 409.893C432.114 413.241 422.073 418.012 408.813 419.174C386.477 421.132 369.801 411.55 364.065 407.885C361.515 407.081 359.6 404.96 359.058 402.343C358.507 399.687 359.66 396.969 361.953 395.521Z" fill="#4547EB"/>
<path opacity="0.26" d="M367.617 401.063C368.072 398.326 375.704 400.594 382.923 395.233C393.712 387.217 388.113 373.641 397.499 360.617C406.112 348.664 423.453 342.58 428.838 347.134C436.004 353.195 418.465 375.866 428.838 390.495C433.877 397.602 441.552 397.258 441.592 401.426C441.654 408.012 422.55 415.606 404.422 415.272C384.932 414.918 366.893 405.409 367.617 401.063Z" fill="white"/>
<path d="M315.845 471.245C315.835 471.245 315.826 471.245 315.816 471.245C315.425 471.23 315.116 470.908 315.116 470.518V356.998C315.116 356.595 315.442 356.269 315.845 356.269C316.248 356.269 316.575 356.595 316.575 356.998V451.85L323.996 356.942C324.028 356.541 324.373 356.244 324.78 356.272C325.181 356.303 325.482 356.654 325.45 357.055L316.573 470.575C316.542 470.954 316.224 471.245 315.845 471.245Z" fill="#2B478B"/>
<defs>
<linearGradient id="paint0_linear" x1="150.327" y1="218.679" x2="247.227" y2="530.084" gradientUnits="userSpaceOnUse">
<stop stop-color="#444B8C"/>
<stop offset="0.9964" stop-color="#26264F"/>
</linearGradient>
<linearGradient id="paint1_linear" x1="345.496" y1="426.493" x2="348.112" y2="459.79" gradientUnits="userSpaceOnUse">
<stop offset="0.003597" stop-color="#26264F"/>
<stop offset="1" stop-color="#444B8C"/>
</linearGradient>
<linearGradient id="paint2_linear" x1="351.641" y1="444.888" x2="357.91" y2="405.553" gradientUnits="userSpaceOnUse">
<stop stop-color="#FFC444"/>
<stop offset="0.9964" stop-color="#F36F56"/>
</linearGradient>
<linearGradient id="paint3_linear" x1="312.772" y1="424.266" x2="315.388" y2="457.563" gradientUnits="userSpaceOnUse">
<stop offset="0.003597" stop-color="#26264F"/>
<stop offset="1" stop-color="#444B8C"/>
</linearGradient>
<linearGradient id="paint4_linear" x1="318.917" y1="442.661" x2="325.185" y2="403.326" gradientUnits="userSpaceOnUse">
<stop stop-color="#FFC444"/>
<stop offset="0.9964" stop-color="#F36F56"/>
</linearGradient>
</defs>
</svg>
