<svg width="173" height="122" viewBox="0 0 173 122" fill="none" xmlns="http://www.w3.org/2000/svg">
<rect width="98.946" height="8.67004" rx="4.33502" transform="matrix(1 -8.69994e-08 -8.78482e-08 -1 32.3599 31.5835)" fill="#69C68E"/>
<rect width="98.946" height="8.67004" rx="4.33502" transform="matrix(1 -8.69994e-08 -8.78482e-08 -1 74.0537 104.041)" fill="#69C68E"/>
<rect width="98.946" height="8.67004" rx="4.33502" transform="matrix(1 -8.69994e-08 -8.78482e-08 -1 60.3633 49.543)" fill="#69C68E"/>
<rect width="98.946" height="8.67004" rx="4.33502" transform="matrix(1 -8.69994e-08 -8.78482e-08 -1 62.2305 122)" fill="#69C68E"/>
<rect width="19.2914" height="8.67004" rx="4.33502" transform="matrix(1 -8.69994e-08 -8.78482e-08 -1 34.8486 49.543)" fill="#69C68E"/>
<rect width="34.2266" height="8.67004" rx="4.33502" transform="matrix(1 -8.69994e-08 -8.78482e-08 -1 34.8486 104.041)" fill="#69C68E"/>
<rect width="8.71223" height="8.67004" rx="4.33502" transform="matrix(1 -8.69994e-08 -8.78482e-08 -1 19.9136 49.543)" fill="#69C68E"/>
<rect width="98.946" height="8.67004" rx="4.33502" transform="matrix(1 -8.69994e-08 -8.78482e-08 -1 62.2305 8.66992)" fill="#69C68E"/>
<rect width="98.946" height="8.67004" rx="4.33502" transform="matrix(1 -8.69994e-08 -8.78482e-08 -1 0 81.127)" fill="#69C68E"/>
</svg>
