<svg width="255" height="197" viewBox="0 0 255 197" fill="none" xmlns="http://www.w3.org/2000/svg">
<rect x="203" y="51" width="159" height="14" rx="7" transform="rotate(-180 203 51)" fill="#2E3ACA"/>
<rect x="136" y="168" width="159" height="14" rx="7" transform="rotate(-180 136 168)" fill="#2E3ACA"/>
<rect x="158" y="80" width="159" height="14" rx="7" transform="rotate(-180 158 80)" fill="#2E3ACA"/>
<rect x="155" y="197" width="159" height="14" rx="7" transform="rotate(-180 155 197)" fill="#2E3ACA"/>
<rect x="199" y="80" width="31" height="14" rx="7" transform="rotate(-180 199 80)" fill="#2E3ACA"/>
<rect x="199" y="168" width="55" height="14" rx="7" transform="rotate(-180 199 168)" fill="#2E3ACA"/>
<rect x="223" y="80" width="14" height="14" rx="7" transform="rotate(-180 223 80)" fill="#2E3ACA"/>
<rect x="155" y="14" width="159" height="14" rx="7" transform="rotate(-180 155 14)" fill="#2E3ACA"/>
<rect x="255" y="131" width="159" height="14" rx="7" transform="rotate(-180 255 131)" fill="#2E3ACA"/>
</svg>
