<svg width="229" height="187" viewBox="0 0 229 187" fill="none" xmlns="http://www.w3.org/2000/svg">
<rect x="179.432" y="48.3799" width="151.565" height="13.2807" rx="6.64035" transform="rotate(-180 179.432 48.3799)" fill="#ECECEC"/>
<rect x="115.565" y="159.368" width="151.565" height="13.2807" rx="6.64035" transform="rotate(-180 115.565 159.368)" fill="#ECECEC"/>
<rect x="136.536" y="75.8896" width="151.565" height="13.2807" rx="6.64035" transform="rotate(-180 136.536 75.8896)" fill="#ECECEC"/>
<rect x="133.676" y="186.879" width="151.565" height="13.2807" rx="6.64035" transform="rotate(-180 133.676 186.879)" fill="#ECECEC"/>
<rect x="175.619" y="75.8896" width="29.5504" height="13.2807" rx="6.64035" transform="rotate(-180 175.619 75.8896)" fill="#ECECEC"/>
<rect x="175.619" y="159.368" width="52.4281" height="13.2807" rx="6.64035" transform="rotate(-180 175.619 159.368)" fill="#ECECEC"/>
<rect x="198.496" y="75.8896" width="13.3453" height="13.2807" rx="6.64035" transform="rotate(-180 198.496 75.8896)" fill="#ECECEC"/>
<rect x="133.676" y="13.2803" width="151.565" height="13.2807" rx="6.64035" transform="rotate(-180 133.676 13.2803)" fill="#ECECEC"/>
<rect x="229" y="124.27" width="151.565" height="13.2807" rx="6.64035" transform="rotate(-180 229 124.27)" fill="#ECECEC"/>
</svg>
