<svg width="311" height="220" viewBox="0 0 311 220" fill="none" xmlns="http://www.w3.org/2000/svg">
<rect width="177.874" height="15.586" rx="7.79301" transform="matrix(1 -8.69994e-08 -8.78482e-08 -1 58.1726 56.7773)" fill="#ECECEC"/>
<rect width="177.874" height="15.586" rx="7.79301" transform="matrix(1 -8.69994e-08 -8.78482e-08 -1 133.126 187.032)" fill="#ECECEC"/>
<rect width="177.874" height="15.586" rx="7.79301" transform="matrix(1 -8.69994e-08 -8.78482e-08 -1 108.514 89.0635)" fill="#ECECEC"/>
<rect width="177.874" height="15.586" rx="7.79301" transform="matrix(1 -8.69994e-08 -8.78482e-08 -1 111.87 219.318)" fill="#ECECEC"/>
<rect width="34.6799" height="15.586" rx="7.79301" transform="matrix(1 -8.69994e-08 -8.78482e-08 -1 62.6475 89.0635)" fill="#ECECEC"/>
<rect width="61.5288" height="15.586" rx="7.79301" transform="matrix(1 -8.69994e-08 -8.78482e-08 -1 62.6475 187.032)" fill="#ECECEC"/>
<rect width="15.6619" height="15.586" rx="7.79301" transform="matrix(1 -8.69994e-08 -8.78482e-08 -1 35.7986 89.0635)" fill="#ECECEC"/>
<rect width="177.874" height="15.586" rx="7.79301" transform="matrix(1 -8.69994e-08 -8.78482e-08 -1 111.87 15.5859)" fill="#ECECEC"/>
<rect width="177.874" height="15.586" rx="7.79301" transform="matrix(1 -8.69994e-08 -8.78482e-08 -1 -6.10352e-05 145.841)" fill="#ECECEC"/>
</svg>
