<svg width="485" height="486" viewBox="0 0 485 486" fill="none" xmlns="http://www.w3.org/2000/svg">
<path d="M429.085 68.2214C419.18 57.7849 409.806 51.0561 402.402 45.7386C315.357 -16.7635 212.361 1.4559 190.471 5.90576C158.147 12.476 95.6646 25.1758 50.4917 78.3373C-17.8526 158.766 -7.21139 285.481 45.8014 369.128C55.4989 384.429 106.718 469.349 210.825 482.967C273.83 491.208 347.272 474.587 400.457 429.996C512.096 336.395 504.148 147.303 429.085 68.2214Z" fill="#F4F5FE"/>
<path d="M99.9457 122.494C100.661 111.435 107.333 101.64 117.335 96.885L246.926 35.2924C255.225 31.3478 264.856 31.3478 273.156 35.2924L402.746 96.885C412.749 101.64 419.422 111.435 420.136 122.494C432.292 310.526 311.816 379.037 272.322 396.344C264.489 399.776 255.591 399.776 247.758 396.344C208.266 379.037 87.7898 310.526 99.9457 122.494Z" fill="url(#paint0_linear)"/>
<path d="M299.24 60.8798C299.027 60.8798 298.811 60.8345 298.608 60.7369L267.988 46.1834C267.252 45.8332 266.937 44.9516 267.286 44.2128C267.636 43.4758 268.519 43.1605 269.256 43.5107L299.875 58.0642C300.612 58.4144 300.927 59.296 300.577 60.0348C300.323 60.5697 299.793 60.8798 299.24 60.8798Z" fill="#91B3FA"/>
<path d="M410.227 162.372C410.21 162.372 410.193 162.372 410.177 162.372C409.36 162.344 408.721 161.661 408.749 160.844C409.157 148.725 408.942 136.084 408.114 123.273C407.682 116.6 403.646 110.662 397.579 107.779L310.402 66.3445C309.665 65.9943 309.35 65.1127 309.7 64.374C310.05 63.637 310.931 63.3216 311.669 63.6718L398.846 105.106C405.882 108.449 410.563 115.338 411.065 123.083C411.899 135.99 412.113 148.728 411.704 160.944C411.678 161.742 411.021 162.372 410.227 162.372Z" fill="#91B3FA"/>
<path d="M131.283 129.833C131.426 127.03 133.094 124.528 135.627 123.324L256.772 65.7458C258.84 64.7631 261.241 64.7631 263.309 65.7458L384.454 123.324C386.987 124.528 388.655 127.03 388.798 129.833C392.381 199.975 376.191 258.5 340.644 303.859C313.545 338.442 281.843 356.975 263.266 365.622C261.218 366.576 258.864 366.576 256.817 365.622C238.24 356.977 206.538 338.444 179.437 303.861C143.892 258.5 127.702 199.975 131.283 129.833Z" fill="url(#paint1_linear)"/>
<path d="M295.861 205.194H307.935V157.043C307.935 138.13 293.788 122.15 275.028 119.867L250.342 116.865C239.717 115.572 229.027 118.905 221.014 126.009C213.002 133.112 208.406 143.329 208.406 154.041V196.078H220.48V154.041C220.48 146.784 223.593 139.864 229.02 135.053C234.446 130.243 241.689 127.985 248.885 128.859L273.571 131.861C286.279 133.407 295.861 144.232 295.861 157.043V205.194Z" fill="#F99746"/>
<path d="M311.507 194.383L205.668 188.515C201.369 188.276 197.753 191.7 197.753 196.008V279.917C197.753 284.061 201.111 287.422 205.253 287.422H308.549C312.597 287.422 315.913 284.21 316.046 280.162L318.589 202.122C318.722 198.045 315.577 194.608 311.507 194.383Z" fill="#F99746"/>
<path d="M240.919 263.386L247.324 244.956C248.094 242.739 247.57 240.262 245.922 238.593C242.639 235.263 240.684 230.622 240.915 225.524C241.324 216.533 248.663 209.243 257.65 208.898C267.595 208.517 275.778 216.471 275.778 226.337C275.778 231.812 273.258 236.695 269.317 239.894C267.273 241.553 266.432 244.28 267.297 246.768L273.074 263.386C274.479 267.428 271.481 271.648 267.205 271.648H246.79C242.514 271.648 239.515 267.426 240.919 263.386Z" fill="#4B4DF7"/>
<path d="M6.21397 436.564C6.21397 436.564 3.83027 440.324 3.22997 450.851C3.17322 451.831 3.95032 452.668 4.93262 452.668H23.5744C24.3253 452.668 24.8601 451.932 24.62 451.222C23.5286 447.987 20.2237 440.099 12.8543 435.59L6.21397 436.564Z" fill="#93312C"/>
<path d="M5.40576 429.431L6.46008 438.278C6.55176 439.04 7.14988 439.652 7.9117 439.739C8.93111 439.857 10.4133 439.94 11.854 439.702C13.1637 439.486 14.1045 438.319 14.1045 436.991V428.45L5.40576 429.431Z" fill="#FEB3B1"/>
<path d="M52.3415 435.59C52.3415 435.59 48.7725 441.141 48.8489 448.758C48.8663 450.551 50.3681 451.982 52.1603 451.982H81.114C82.4695 451.982 83.0196 450.239 81.9107 449.459C76.4317 445.61 65.6636 438.417 57.8751 435.59H52.3415Z" fill="#93312C"/>
<path d="M49.3579 426.036L51.6063 436.963C51.8573 438.186 53.0535 439.008 54.2694 438.734C55.0094 438.568 55.8825 438.252 56.8146 437.668C57.7009 437.114 58.1506 436.058 57.9694 435.03L55.6424 421.792L49.3579 426.036Z" fill="#FEB3B1"/>
<path d="M9.53734 274.112C9.53734 274.112 1.71826 281.011 0.244821 289.312C-1.22644 297.613 4.41411 432.525 4.41411 432.525C4.41411 432.525 12.2332 433.827 16.265 431.382C16.265 431.382 21.0455 343.826 24.68 323.593C24.68 323.593 43.7387 414.291 49.0191 430.679C49.0191 430.679 56.5522 431.596 58.9817 430.161C58.9817 430.161 53.9895 312.592 47.7159 291.691L9.53734 274.112Z" fill="#7D97F4"/>
<path d="M24.4535 320.931C24.5408 320.931 24.6281 320.92 24.7154 320.898C25.2677 320.754 25.5995 320.188 25.4554 319.636L22.1331 306.885C22.0676 306.633 21.9104 306.415 21.6899 306.273L14.5126 301.666C14.0346 301.356 13.3928 301.498 13.0828 301.978C12.7751 302.459 12.9148 303.101 13.395 303.409L20.2296 307.798L23.4493 320.155C23.5759 320.621 23.9951 320.931 24.4535 320.931Z" fill="#91B3FA"/>
<path d="M73.9502 200.352C43.355 212.811 38.7622 222.785 38.7622 222.785L64.1666 237.917C64.1666 237.917 92.7274 222.708 105.32 196.274C99.3393 194.068 94.3165 190.824 90.7759 188.108C86.5673 193.032 81.0882 197.445 73.9502 200.352Z" fill="#B5453C"/>
<path d="M98.0696 133.893C97.5522 132.972 96.1486 133.363 96.1814 134.42L96.4892 144.32C96.5481 146.234 97.1942 148.082 98.338 149.615L102.012 153.604C103.555 155.675 104.142 158.303 103.614 160.832C102.355 166.886 99.0082 178.472 90.77 188.108C94.3106 190.821 99.3335 194.065 105.315 196.273C109.936 186.574 112.409 175.366 110.529 162.842C111.966 161.455 112.291 159.273 111.322 157.527L98.0696 133.893Z" fill="#FEC4C3"/>
<path d="M97.5374 210.648C85.9485 198.152 63.8752 192.506 51.0944 190.186C45.4954 189.17 39.977 192.287 37.9928 197.624C32.2409 213.094 16.6006 253.348 13.5686 260.264C11.0801 265.939 8.48465 271.483 6.83439 274.948C5.84773 277.019 6.70997 279.496 8.77497 280.492C19.5278 285.678 38.8747 291.546 46.7178 293.835C48.4422 294.337 50.1602 293.042 50.1602 291.244C50.1602 289.719 50.5749 288.223 51.3586 286.915L81.0654 237.375C99.5805 257.92 115.795 259.799 128.253 255.301C126.157 248.824 124.788 242.334 124.129 235.83C105.728 232.678 97.5374 210.648 97.5374 210.648Z" fill="#B5453C"/>
<path d="M154.552 232.387L151.232 227.957C140.481 235.347 131.494 237.096 124.138 235.836C124.795 242.337 126.166 248.827 128.262 255.306C144.668 249.38 154.552 232.387 154.552 232.387Z" fill="#FEC4C3"/>
<path d="M152.206 232.463L170.915 233.193L188.14 223.566C185.667 222.015 171.686 225.185 171.686 225.185C171.686 225.185 157.069 222.972 153.112 222.967C149.827 222.963 150.296 227.692 150.549 229.294C150.602 229.621 150.643 229.818 150.643 229.818L152.206 232.463Z" fill="#FEC4C3"/>
<path d="M68.6742 167.236L58.8032 191.342C58.8032 191.342 70.1455 199.2 79.2699 198.45L84.1966 176.774L68.6742 167.236Z" fill="#FEB3B1"/>
<path d="M85.3434 150.803C85.5704 151.124 92.4858 176.123 92.4858 176.123L78.1377 179.771L68.0659 157.051C68.0637 157.051 81.5583 145.438 85.3434 150.803Z" fill="#FEC4C3"/>
<path d="M73.4733 160.501L77.839 172.879C77.8958 173.038 77.97 173.185 78.0661 173.322C78.6576 174.165 80.9104 176.913 83.58 174.438C86.003 172.191 88.247 170.177 90.3208 169.812C91.2507 169.648 92.1522 170.216 92.4054 171.127C93.0341 173.399 94.3525 178.543 94.8175 183.189C94.9114 184.133 94.2609 184.985 93.3309 185.16C90.5281 185.693 84.5863 186.65 79.6268 186.3C78.9545 186.252 78.3629 185.85 78.0835 185.236C76.717 182.246 72.5281 173.176 70.9695 170.83C69.507 168.628 65.9227 168.689 64.4187 168.822C63.9254 168.866 63.4408 168.706 63.0697 168.381C61.7556 167.227 59.2518 164.283 62.7728 160.757C63.5106 160.019 63.4888 158.828 62.7313 158.114C61.2186 156.692 59.6033 154.169 62.1223 151.038C64.6828 147.858 68.0619 148.364 70.1335 149.12C70.9717 149.426 71.8841 149.072 72.3404 148.305C72.6001 147.869 73.052 147.539 73.8356 147.606C74.8922 147.698 75.7806 146.816 75.761 145.754C75.7238 143.716 76.4529 141.143 79.9848 140.042C86.2519 138.089 90.1614 144.148 90.5478 148.67C90.9341 153.192 84.0188 154.922 79.9521 154.616C76.8611 154.385 74.5647 157.452 73.6414 158.935C73.3467 159.403 73.2877 159.979 73.4733 160.501Z" fill="url(#paint2_linear)"/>
<path d="M72.6007 175.321C72.6007 175.321 71.5879 167.47 68.3245 167.086C65.0611 166.701 61.885 169.384 65.1287 173.792C69.1649 179.271 72.6007 175.321 72.6007 175.321Z" fill="#FEC4C3"/>
<defs>
<linearGradient id="paint0_linear" x1="448.212" y1="-220.067" x2="399.68" y2="-119.525" gradientUnits="userSpaceOnUse">
<stop stop-color="#09005D"/>
<stop offset="1" stop-color="#1A0F91"/>
</linearGradient>
<linearGradient id="paint1_linear" x1="316.551" y1="29.2162" x2="203.031" y2="307.651" gradientUnits="userSpaceOnUse">
<stop stop-color="#4F52FF"/>
<stop offset="1" stop-color="#4042E2"/>
</linearGradient>
<linearGradient id="paint2_linear" x1="79.1719" y1="118.613" x2="75.8473" y2="241.529" gradientUnits="userSpaceOnUse">
<stop stop-color="#09005D"/>
<stop offset="1" stop-color="#1A0F91"/>
</linearGradient>
</defs>
</svg>
