<svg width="386" height="425" viewBox="0 0 386 425" fill="none" xmlns="http://www.w3.org/2000/svg">
<path d="M47.0834 365.512C57.0862 376.988 66.0371 383.733 72.8899 388.827C139.725 438.495 216.124 424.179 239.744 419.286C277.853 411.391 310.023 405.822 337.662 378.031C400.467 314.877 397.412 183.137 349.422 101.529C343.731 91.8525 295.814 12.7974 219.249 1.65827C217.376 1.38599 215.979 1.23061 214.756 1.08601C202.912 -0.309261 129.515 -7.67635 69.6666 48.1299C61.0999 56.1185 47.3128 70.5265 34.5278 92.5032C-12.2186 172.858 -12.3665 297.308 47.0834 365.512Z" fill="#F4F5FE"/>
<path d="M344.359 40.2884C344.925 38.5449 342.888 37.1114 341.416 38.2075C326.467 49.337 289.696 83.5716 290.238 150.754C290.918 235.043 270.115 263.411 246.413 279.465C246.413 279.465 277.061 274.128 299.225 245.463C353.643 175.082 334.294 71.2973 344.359 40.2884Z" fill="#FFC21A"/>
<path d="M331.123 65.089C328.38 74.1526 325.816 83.2649 323.591 92.4585C321.318 101.638 319.323 110.883 317.622 120.177C315.955 129.475 314.464 138.805 313.371 148.182C312.237 157.554 311.507 166.966 310.807 176.418C310.055 185.86 309.351 195.376 307.668 204.85C305.998 214.304 303.171 223.712 298.705 232.325C297.59 234.471 296.43 236.606 295.157 238.651C293.921 240.72 292.593 242.735 291.23 244.726C288.481 248.695 285.465 252.488 282.18 256.042C275.591 263.132 267.926 269.214 259.682 274.162C258.814 274.684 257.687 274.404 257.165 273.538C256.653 272.686 256.914 271.588 257.745 271.054L257.751 271.05C259.722 269.791 261.676 268.508 263.567 267.145C264.523 266.477 265.447 265.77 266.385 265.08C267.295 264.355 268.234 263.665 269.121 262.913C272.718 259.965 276.103 256.769 279.235 253.338C285.527 246.516 290.829 238.719 295.109 230.498C297.204 226.362 298.989 222.079 300.438 217.675C301.884 213.268 302.993 208.744 303.845 204.153C305.549 194.966 306.324 185.554 307.144 176.118C307.976 166.681 308.878 157.203 310.168 147.777C310.801 143.063 311.518 138.361 312.319 133.674C312.706 131.329 313.139 128.991 313.568 126.653C314.018 124.318 314.482 121.988 314.965 119.66C316.913 110.356 319.144 101.115 321.664 91.956C324.228 82.81 327.035 73.7351 330.188 64.784C330.278 64.5278 330.558 64.3941 330.815 64.4841C331.064 64.5716 331.198 64.839 331.123 65.089Z" fill="white"/>
<path d="M285.18 367.703C285.942 370.994 289.825 372.437 292.584 370.484C307.812 359.699 348.105 325.321 352.317 261.117C355.874 206.899 362.963 177.838 367.098 164.867C367.972 162.124 364.831 159.862 362.496 161.55C336.732 180.176 257.541 248.453 285.18 367.703Z" fill="#BDD0FB"/>
<path d="M289.726 368.277C289.79 368.331 289.86 368.379 289.935 368.423C290.571 368.781 291.376 368.556 291.734 367.922C292.14 367.202 332.43 295.126 340.788 219.963C340.868 219.239 340.346 218.588 339.619 218.507C338.895 218.427 338.241 218.948 338.161 219.673C329.865 294.289 289.836 365.914 289.433 366.627C289.118 367.186 289.254 367.876 289.726 368.277Z" fill="white"/>
</svg>
