<svg width="386" height="425" viewBox="0 0 386 425" fill="none" xmlns="http://www.w3.org/2000/svg">
<path d="M47.0834 365.512C57.0862 376.988 66.0371 383.733 72.8899 388.827C139.725 438.495 216.124 424.179 239.744 419.286C277.853 411.391 310.023 405.822 337.662 378.031C400.467 314.877 397.412 183.137 349.422 101.529C343.731 91.8525 295.814 12.7974 219.249 1.65827C217.376 1.38599 215.979 1.23061 214.756 1.08601C202.912 -0.309261 129.515 -7.67635 69.6666 48.1299C61.0999 56.1185 47.3128 70.5265 34.5278 92.5032C-12.2186 172.858 -12.3665 297.308 47.0834 365.512Z" fill="#F4F5FE"/>
<path d="M344.359 40.2884C344.925 38.5449 342.888 37.1114 341.416 38.2075C326.467 49.337 289.696 83.5716 290.238 150.754C290.918 235.043 270.115 263.411 246.413 279.465C246.413 279.465 277.061 274.128 299.225 245.463C353.643 175.082 334.294 71.2973 344.359 40.2884Z" fill="#FFC21A"/>
<path d="M331.123 65.089C328.38 74.1526 325.816 83.2649 323.591 92.4585C321.318 101.638 319.323 110.883 317.622 120.177C315.955 129.475 314.464 138.805 313.371 148.182C312.237 157.554 311.507 166.966 310.807 176.418C310.055 185.86 309.351 195.376 307.668 204.85C305.998 214.304 303.171 223.712 298.705 232.325C297.59 234.471 296.43 236.606 295.157 238.651C293.921 240.72 292.593 242.735 291.23 244.726C288.481 248.695 285.465 252.488 282.18 256.042C275.591 263.132 267.926 269.214 259.682 274.162C258.814 274.684 257.687 274.404 257.165 273.538C256.653 272.686 256.914 271.588 257.745 271.054L257.751 271.05C259.722 269.791 261.676 268.508 263.567 267.145C264.523 266.477 265.447 265.77 266.385 265.08C267.295 264.355 268.234 263.665 269.121 262.913C272.718 259.965 276.103 256.769 279.235 253.338C285.527 246.516 290.829 238.719 295.109 230.498C297.204 226.362 298.989 222.079 300.438 217.675C301.884 213.268 302.993 208.744 303.845 204.153C305.549 194.966 306.324 185.554 307.144 176.118C307.976 166.681 308.878 157.203 310.168 147.777C310.801 143.063 311.518 138.361 312.319 133.674C312.706 131.329 313.139 128.991 313.568 126.653C314.018 124.318 314.482 121.988 314.965 119.66C316.913 110.356 319.144 101.115 321.664 91.956C324.228 82.81 327.035 73.7351 330.188 64.784C330.278 64.5278 330.558 64.3941 330.815 64.4841C331.064 64.5716 331.198 64.839 331.123 65.089Z" fill="white"/>
<path d="M285.18 367.703C285.942 370.994 289.825 372.437 292.584 370.484C307.812 359.699 348.105 325.321 352.317 261.117C355.874 206.899 362.963 177.838 367.098 164.867C367.972 162.124 364.831 159.862 362.496 161.55C336.732 180.176 257.541 248.453 285.18 367.703Z" fill="#BDD0FB"/>
<path d="M289.726 368.277C289.79 368.331 289.86 368.379 289.935 368.423C290.571 368.781 291.376 368.556 291.734 367.922C292.14 367.202 332.43 295.126 340.788 219.963C340.868 219.239 340.346 218.588 339.619 218.507C338.895 218.427 338.241 218.948 338.161 219.673C329.865 294.289 289.836 365.914 289.433 366.627C289.118 367.186 289.254 367.876 289.726 368.277Z" fill="white"/>
<path d="M182.864 37.0829C179.094 37.2692 175.365 37.7128 171.639 38.2515C167.915 38.7889 164.203 39.4538 160.524 40.2874C153.166 41.9372 145.86 44.0256 138.791 46.8664C135.258 48.2887 131.783 49.8859 128.365 51.6344C124.975 53.4354 121.646 55.3926 118.441 57.5885C112.081 62.0253 106.194 67.4207 101.539 73.9447L100.66 75.1607L99.86 76.4343C99.3354 77.2916 98.777 78.1203 98.2825 79.0089C97.3523 80.8348 96.3344 82.6421 95.637 84.5643L95.0636 85.9903L94.7782 86.7052L94.5515 87.4326L93.6514 90.3534C93.3434 91.3282 93.1769 92.3193 92.9402 93.3054C92.7274 94.294 92.4795 95.2826 92.3605 96.2762C91.0823 104.226 91.1299 112.196 91.9737 119.92C92.8063 127.659 94.2723 135.224 96.0489 142.646C97.8618 150.059 99.9815 157.333 102.187 164.528C106.631 178.891 111.59 192.98 115.385 206.931C116.33 210.418 117.154 213.89 117.824 217.327L118.301 219.898L118.674 222.441C118.811 223.28 118.907 224.149 119.001 225.016C119.089 225.882 119.215 226.751 119.266 227.612C119.873 234.516 119.717 241.338 118.383 247.697C117.683 250.863 116.738 253.915 115.461 256.799C114.16 259.667 112.633 262.42 110.735 264.964C107.024 270.111 101.973 274.472 96.2906 278.315C93.4198 280.2 90.3887 281.965 87.2474 283.616L84.8611 284.824C84.0661 285.233 83.2623 285.632 82.4372 285.994L79.9871 287.149C79.1645 287.529 78.3244 287.874 77.4906 288.239C75.8317 288.992 74.134 289.682 72.43 290.376C70.7411 291.122 68.9971 291.722 67.2793 292.443L62.051 294.458C60.2957 295.124 58.5279 295.767 56.7676 296.504L56.7576 296.507C56.5598 296.59 56.4683 296.817 56.5535 297.015C56.6148 297.158 56.7538 297.246 56.9003 297.252C58.8121 297.328 60.7214 297.33 62.6357 297.32C64.54 297.247 66.4555 297.192 68.3623 297.048C72.1771 296.754 75.997 296.316 79.7943 295.614C83.6041 294.969 87.3714 293.993 91.1386 292.894C94.8683 291.678 98.5992 290.312 102.21 288.544C105.832 286.791 109.324 284.669 112.663 282.22C113.485 281.587 114.288 280.929 115.102 280.28L117.436 278.179C118.943 276.719 120.438 275.217 121.759 273.552C127.204 267.012 130.842 258.926 132.51 250.756C134.185 242.562 134.259 234.365 133.534 226.472C133.465 225.477 133.326 224.504 133.218 223.52C133.106 222.54 132.997 221.559 132.825 220.562L132.343 217.588L131.761 214.676C130.951 210.816 129.994 207.049 128.939 203.357C126.842 195.963 124.453 188.785 121.979 181.709L114.641 160.629C112.244 153.642 109.961 146.663 108 139.657C106.027 132.66 104.351 125.633 103.297 118.608C102.209 111.589 101.807 104.566 102.547 97.7959C102.598 96.9373 102.77 96.1175 102.904 95.2826C103.059 94.4565 103.133 93.6003 103.343 92.793L103.934 90.3546L104.079 89.7422L104.278 89.1535L104.674 87.9737C105.133 86.364 105.876 84.8955 106.519 83.3669C106.879 82.6133 107.319 81.8747 107.714 81.1236L108.321 80L109.01 78.9201C110.761 75.9831 112.94 73.281 115.246 70.6777C117.564 68.0718 120.214 65.7372 122.917 63.4426C125.67 61.1992 128.598 59.1295 131.628 57.181C134.691 55.2801 137.848 53.4954 141.102 51.8606C144.371 50.2571 147.7 48.7374 151.089 47.3251C154.487 45.9353 157.948 44.6655 161.453 43.5057C168.467 41.2098 175.647 39.2189 182.954 37.8291L182.965 37.8266C183.173 37.7866 183.307 37.5879 183.265 37.3816C183.224 37.2029 183.051 37.0742 182.864 37.0829Z" fill="#FEB3B1"/>
<path d="M61.1395 297.962C61.6215 297.962 62.1198 297.961 62.6369 297.957L63.5922 297.922C65.1697 297.865 66.801 297.805 68.4086 297.685C72.6741 297.355 76.4364 296.883 79.9082 296.241C83.2485 295.675 86.7691 294.833 91.3151 293.507C95.8937 292.013 99.3342 290.662 102.488 289.118C106.095 287.372 109.646 285.224 113.038 282.736C113.636 282.277 114.212 281.814 114.788 281.35L115.497 280.78L117.86 278.655C119.588 276.982 120.986 275.551 122.256 273.951C127.522 267.625 131.388 259.43 133.13 250.887C134.654 243.437 134.992 235.433 134.165 226.419C134.117 225.73 134.034 225.034 133.954 224.361C133.918 224.06 133.882 223.758 133.849 223.455L133.829 223.282C133.724 222.364 133.615 221.417 133.451 220.46L132.97 217.493L132.384 214.558C131.609 210.862 130.682 207.145 129.55 203.189C127.734 196.79 125.585 190.102 122.579 181.507L115.241 160.428C112.352 152.009 110.307 145.553 108.611 139.493C106.397 131.635 104.863 124.775 103.924 118.521C102.738 110.874 102.494 104.122 103.177 97.8713C103.217 97.2251 103.318 96.6302 103.427 96.0003C103.462 95.7979 103.497 95.5941 103.53 95.3904C103.586 95.0905 103.635 94.768 103.682 94.4468C103.76 93.9244 103.834 93.432 103.957 92.9595L104.689 89.9238L105.274 88.1815C105.607 87.018 106.072 85.9644 106.567 84.8496C106.747 84.4409 106.929 84.0322 107.103 83.6198C107.309 83.1873 107.557 82.7399 107.819 82.265C107.973 81.9863 108.127 81.7063 108.275 81.4264L108.868 80.329L109.544 79.2692C111.049 76.7446 112.951 74.2325 115.722 71.1067C118.118 68.4121 120.905 65.9913 123.329 63.9341C125.878 61.8569 128.707 59.8222 131.972 57.7226C135.092 55.7866 138.264 54.0057 141.389 52.4359C144.726 50.7987 148.074 49.2776 151.335 47.9191C154.647 46.5643 158.12 45.2845 161.653 44.116C169.415 41.5751 176.422 39.7254 183.073 38.4606C183.352 38.4068 183.583 38.2544 183.735 38.0282C183.886 37.8032 183.94 37.5307 183.886 37.2645C183.787 36.7746 183.357 36.4247 182.833 36.4484C179.526 36.6109 176.045 36.9733 171.55 37.622C167.588 38.1944 163.936 38.8618 160.385 39.6667C152.19 41.5051 145.048 43.6673 138.554 46.2769C135.09 47.6729 131.564 49.2851 128.076 51.0699C124.348 53.0508 121.081 55.0105 118.083 57.0652C111.105 61.9319 105.367 67.486 101.023 73.5763L100.147 74.7886L99.3241 76.0972C99.1439 76.3921 98.9636 76.6771 98.7833 76.9621C98.4302 77.5207 98.0659 78.0981 97.7303 78.6993C97.53 79.0917 97.3372 79.4617 97.1444 79.8329C96.3907 81.2814 95.6119 82.7786 95.0435 84.3484L94.1747 86.5168L93.0466 90.1675C92.8338 90.8424 92.686 91.526 92.5421 92.1884C92.4719 92.5121 92.4018 92.8358 92.3242 93.1595C92.2754 93.387 92.2278 93.5982 92.1802 93.8107C92.0075 94.588 91.8284 95.3929 91.7308 96.2028C90.5514 103.53 90.4199 111.543 91.3427 119.99C92.0951 126.983 93.4335 134.443 95.4317 142.795C97.4311 150.969 99.7686 158.803 101.581 164.716C103.14 169.755 104.784 174.827 106.374 179.731C109.294 188.738 112.312 198.053 114.772 207.1C115.742 210.676 116.559 214.159 117.2 217.451L117.677 220.017L118.045 222.536C118.184 223.382 118.278 224.249 118.369 225.088C118.398 225.368 118.431 225.651 118.465 225.935C118.531 226.502 118.599 227.089 118.632 227.653C119.281 235.034 118.987 241.729 117.762 247.57C117.03 250.884 116.087 253.821 114.88 256.545C113.475 259.641 111.953 262.273 110.225 264.588C106.874 269.239 102.201 273.556 95.9337 277.793C93.1793 279.602 90.1545 281.374 86.9507 283.059L84.5719 284.262C83.6191 284.753 82.8817 285.108 82.1805 285.417L79.7141 286.579C79.1945 286.819 78.6637 287.047 78.1316 287.274C77.8324 287.403 77.5319 287.53 77.2339 287.663C75.595 288.406 73.8886 289.101 72.2397 289.772L72.1896 289.794C71.2381 290.214 70.2603 290.591 69.3163 290.956C68.5676 291.245 67.7939 291.543 67.0327 291.863L60.6224 294.323C59.279 294.828 57.8906 295.35 56.5209 295.924C56.258 296.035 56.0614 296.233 55.9588 296.488C55.8561 296.743 55.8599 297.021 55.9688 297.274C56.124 297.634 56.4796 297.877 56.8727 297.894C58.2599 297.945 59.6284 297.962 61.1395 297.962ZM179.046 37.9894C173.467 39.2092 167.61 40.8302 161.253 42.9111C157.69 44.0897 154.189 45.3795 150.846 46.7468C147.557 48.1166 144.186 49.6488 140.819 51.2998C137.655 52.8883 134.451 54.688 131.29 56.6502C127.977 58.7812 125.109 60.8433 122.512 62.958C120.046 65.0514 117.219 67.5073 114.767 70.2631C111.942 73.4526 109.997 76.0235 108.46 78.6018L107.758 79.7041L107.15 80.829C107.003 81.1089 106.854 81.3801 106.703 81.6513C106.444 82.1213 106.176 82.6074 105.941 83.0998C105.758 83.5323 105.58 83.9347 105.403 84.3346C104.913 85.4407 104.406 86.583 104.058 87.8041L103.457 89.6001L102.721 92.6483C102.584 93.1758 102.502 93.7257 102.423 94.2568C102.378 94.563 102.331 94.8693 102.275 95.1705C102.24 95.3854 102.206 95.5841 102.172 95.7829C102.063 96.419 101.951 97.0764 101.909 97.7625C101.217 104.093 101.465 110.954 102.667 118.709C103.613 125.013 105.157 131.923 107.387 139.833C109.09 145.915 111.142 152.394 114.039 160.839L121.378 181.922C124.375 190.494 126.519 197.158 128.327 203.533C129.451 207.463 130.371 211.15 131.139 214.81L131.719 217.716L132.198 220.667C132.357 221.596 132.463 222.526 132.567 223.425L132.587 223.597C132.62 223.9 132.657 224.206 132.694 224.511C132.772 225.169 132.854 225.849 132.9 226.52C133.718 235.423 133.386 243.306 131.887 250.634C130.185 258.974 126.415 266.971 121.27 273.151C120.035 274.709 118.667 276.106 116.992 277.728L114.676 279.813L113.991 280.361C113.422 280.819 112.853 281.278 112.275 281.721C108.956 284.156 105.473 286.263 101.932 287.976C98.8308 289.495 95.4417 290.826 90.9408 292.295C86.4636 293.599 82.9868 294.432 79.6878 294.992C76.2498 295.627 72.5314 296.093 68.3122 296.419C66.7309 296.538 65.1121 296.596 63.5471 296.654L62.6106 296.689C60.9555 296.699 59.4982 296.695 58.0696 296.659C59.0775 296.256 60.0866 295.877 61.0707 295.507L62.2763 295.052L67.5072 293.036C68.2684 292.717 69.0346 292.421 69.7745 292.136C70.7323 291.766 71.7239 291.382 72.6867 290.959L72.7192 290.945C74.3806 290.269 76.0984 289.569 77.7522 288.818C78.0402 288.691 78.3369 288.565 78.6337 288.438C79.1758 288.205 79.7179 287.973 80.2525 287.727L82.7077 286.569C83.4188 286.257 84.1763 285.891 85.1503 285.389L87.5341 284.183C90.783 282.476 93.8429 280.681 96.6386 278.847C103.039 274.52 107.815 270.102 111.251 265.335C113.026 262.955 114.595 260.246 116.04 257.061C117.283 254.254 118.252 251.239 119.004 247.835C120.256 241.865 120.557 235.045 119.899 227.558C119.864 226.976 119.794 226.372 119.727 225.787C119.694 225.509 119.662 225.231 119.633 224.953C119.54 224.094 119.444 223.209 119.301 222.339L118.93 219.807L118.448 217.211C117.8 213.884 116.976 210.372 115.998 206.765C113.529 197.688 110.506 188.36 107.582 179.339C105.994 174.438 104.352 169.37 102.796 164.341C100.988 158.447 98.6581 150.636 96.6674 142.496C94.6817 134.199 93.3533 126.792 92.6059 119.852C91.6957 111.515 91.8247 103.618 92.989 96.3765C93.0817 95.6041 93.2544 94.8318 93.421 94.0831C93.4685 93.8682 93.5161 93.6532 93.5625 93.4382C93.6388 93.1208 93.7114 92.7871 93.7828 92.4534C93.9255 91.791 94.062 91.1648 94.2586 90.5424L95.3791 86.9155L96.228 84.7996C96.7763 83.2886 97.5363 81.8288 98.2699 80.4165C98.4652 80.0428 98.6593 79.6691 98.8496 79.2942C99.1564 78.743 99.5132 78.1806 99.8562 77.637C100.04 77.347 100.223 77.0558 100.403 76.7621L101.2 75.4948L102.056 74.3137C106.319 68.3397 111.953 62.8868 118.806 58.1063C121.761 56.0816 124.988 54.1456 128.665 52.1922C132.11 50.4287 135.599 48.8327 139.029 47.4517C145.458 44.8683 152.534 42.7262 160.664 40.9027C164.182 40.1066 167.802 39.4429 171.732 38.8768C174.491 38.4793 176.864 38.1906 179.046 37.9894Z" fill="#FEB3B1"/>
<path d="M101.162 143.361C101.217 143.396 101.276 143.428 101.336 143.46L138.579 162.073C139.526 162.547 140.673 162.17 141.14 161.234C141.607 160.297 141.216 159.156 140.272 158.681L103.029 140.068C102.082 139.594 100.935 139.97 100.468 140.906C100.03 141.784 100.343 142.841 101.162 143.361Z" fill="url(#paint0_linear)"/>
<path d="M139.439 162.913C139.711 162.913 139.984 162.87 140.249 162.781C140.889 162.567 141.407 162.119 141.707 161.517C142.328 160.273 141.812 158.747 140.556 158.115L103.312 139.502C102.698 139.196 102.002 139.146 101.356 139.361C100.715 139.575 100.198 140.023 99.8975 140.624C99.3178 141.788 99.7134 143.195 100.82 143.898L100.823 143.899C100.895 143.945 100.97 143.988 101.049 144.026L138.294 162.64C138.657 162.821 139.047 162.913 139.439 162.913ZM102.166 140.497C102.364 140.497 102.562 140.543 102.744 140.634L139.986 159.248C140.617 159.565 140.88 160.329 140.57 160.951C140.421 161.249 140.164 161.471 139.846 161.577C139.522 161.686 139.171 161.66 138.862 161.506L101.62 142.893C101.58 142.873 101.54 142.849 101.501 142.825C100.947 142.473 100.746 141.769 101.036 141.189C101.185 140.892 101.441 140.669 101.759 140.563C101.893 140.519 102.03 140.497 102.166 140.497Z" fill="white"/>
<path d="M96.4792 119.893C96.5192 119.92 96.5618 119.943 96.6044 119.967L158.864 153.294C159.796 153.794 160.954 153.451 161.448 152.528C161.941 151.606 161.583 150.457 160.653 149.952L98.3935 116.625C97.4607 116.125 96.3039 116.469 95.8094 117.391C95.3373 118.271 95.6404 119.361 96.4792 119.893Z" fill="url(#paint1_linear)"/>
<path d="M159.771 154.157C160.019 154.157 160.268 154.121 160.512 154.047C161.158 153.853 161.689 153.418 162.007 152.825C162.662 151.602 162.19 150.062 160.954 149.393L98.6926 116.065C98.0879 115.741 97.3942 115.672 96.7419 115.87C96.0959 116.065 95.5651 116.498 95.2471 117.092C94.6261 118.252 95.0167 119.718 96.1372 120.428L96.1385 120.429C96.1898 120.461 96.2436 120.493 96.2987 120.523L158.563 153.853C158.941 154.054 159.354 154.157 159.771 154.157ZM97.4819 117.027C97.6922 117.027 97.9013 117.08 98.0929 117.182L160.352 150.509C160.973 150.845 161.214 151.617 160.887 152.227C160.729 152.52 160.466 152.735 160.146 152.833C159.818 152.931 159.469 152.898 159.164 152.733L96.9035 119.407C96.8772 119.393 96.8471 119.375 96.8183 119.357C96.2562 118.999 96.0584 118.267 96.3676 117.688C96.5254 117.394 96.7883 117.18 97.11 117.082C97.2327 117.046 97.3579 117.027 97.4819 117.027Z" fill="white"/>
<path d="M181.084 148.059C182.007 148.644 183.209 148.407 183.773 147.529C184.339 146.648 184.049 145.455 183.126 144.865L100.169 91.8199C100.166 91.8187 100.165 91.8174 100.163 91.8162C99.2399 91.2313 98.038 91.4675 97.4733 92.3461C96.9074 93.2272 97.1979 94.4195 98.1206 95.0094L181.078 148.055C181.079 148.056 181.082 148.057 181.084 148.059Z" fill="url(#paint2_linear)"/>
<path d="M182.176 149.013C183.018 149.013 183.832 148.612 184.308 147.872C184.676 147.298 184.789 146.612 184.625 145.94C184.463 145.277 184.053 144.706 183.468 144.332L100.452 91.2506C99.2311 90.5232 97.6749 90.8557 96.9374 92.0042C96.5694 92.5779 96.4567 93.2641 96.6207 93.9364C96.7809 94.5988 97.1928 95.17 97.7775 95.5437L180.742 148.594C181.189 148.878 181.688 149.013 182.176 149.013ZM99.8709 92.3829L182.783 145.4C183.091 145.597 183.308 145.895 183.39 146.238C183.472 146.572 183.417 146.908 183.238 147.187C182.868 147.762 182.072 147.917 181.45 147.541L181.418 147.521L98.4624 94.4751C98.1544 94.2776 97.9378 93.9802 97.8539 93.6365C97.7725 93.3028 97.8276 92.9666 98.0067 92.6879C98.381 92.1055 99.1935 91.9543 99.8208 92.3504L99.8709 92.3829Z" fill="white"/>
<path d="M195.849 137.565C196.728 138.122 197.891 137.885 198.463 137.025C199.044 136.154 198.799 134.973 197.916 134.388L106.866 74.0198C105.985 73.4262 104.799 73.6674 104.218 74.5385C103.637 75.4096 103.882 76.5907 104.765 77.1756L195.815 137.544C195.827 137.551 195.838 137.559 195.849 137.565Z" fill="url(#paint3_linear)"/>
<path d="M196.874 138.496C197.699 138.496 198.51 138.101 198.992 137.376C199.367 136.813 199.497 136.137 199.36 135.471C199.222 134.808 198.834 134.236 198.268 133.86L107.218 73.4915C106.656 73.1128 105.976 72.9754 105.308 73.1066C104.641 73.2378 104.065 73.6227 103.69 74.1877C103.314 74.7513 103.184 75.4275 103.321 76.0924C103.459 76.7548 103.847 77.3272 104.413 77.7034L195.503 138.099L195.848 137.565L195.507 138.1C195.93 138.369 196.405 138.496 196.874 138.496ZM105.803 74.3276C106.053 74.3276 106.299 74.4026 106.512 74.5464L197.565 134.917C197.852 135.107 198.048 135.396 198.116 135.728C198.185 136.059 198.12 136.395 197.935 136.674C197.557 137.242 196.774 137.4 196.191 137.03L196.18 137.023L105.119 76.6473C104.833 76.4573 104.637 76.1686 104.568 75.8361C104.5 75.5049 104.565 75.17 104.75 74.8913C104.938 74.6088 105.225 74.4176 105.558 74.3526C105.638 74.3351 105.72 74.3276 105.803 74.3276Z" fill="white"/>
<path d="M116.112 64.933C116.123 64.9405 116.134 64.948 116.147 64.9543L208.482 120.859C209.387 121.408 210.561 121.127 211.104 120.232C211.648 119.337 211.349 118.163 210.448 117.619L118.114 61.7135C117.209 61.1649 116.034 61.4461 115.491 62.3409C114.955 63.2258 115.234 64.3769 116.112 64.933Z" fill="url(#paint4_linear)"/>
<path d="M209.479 121.776C209.679 121.776 209.879 121.752 210.078 121.705C210.74 121.546 211.297 121.141 211.649 120.562C212.373 119.369 211.982 117.807 210.779 117.078L118.444 61.173C117.862 60.8205 117.177 60.7143 116.519 60.8718C115.856 61.0305 115.299 61.4354 114.947 62.0141C114.239 63.1814 114.607 64.7299 115.769 65.4686L115.816 65.4986L208.151 121.404C208.559 121.65 209.016 121.776 209.479 121.776ZM117.116 62.0691C117.349 62.0691 117.579 62.1328 117.786 62.2578L210.12 118.163C210.725 118.529 210.924 119.31 210.562 119.905C210.388 120.191 210.112 120.392 209.782 120.472C209.449 120.551 209.106 120.497 208.812 120.32L116.477 64.415L116.113 64.9349L116.454 64.4C115.869 64.03 115.682 63.2552 116.035 62.6728C116.21 62.3853 116.487 62.1853 116.815 62.1053C116.914 62.0803 117.015 62.0691 117.116 62.0691Z" fill="white"/>
<path d="M133.371 53.6296C133.387 53.6396 133.403 53.6496 133.421 53.6608L214.241 101.628C215.151 102.168 216.323 101.877 216.858 100.977C217.392 100.077 217.103 98.9337 216.178 98.37L135.358 50.4026C134.447 49.8627 133.276 50.1539 132.741 51.0537C132.216 51.9373 132.499 53.0772 133.371 53.6296Z" fill="url(#paint5_linear)"/>
<path d="M215.223 102.535C215.43 102.535 215.639 102.51 215.844 102.459C216.505 102.295 217.058 101.884 217.405 101.302C218.121 100.097 217.728 98.5721 216.511 97.8297L135.684 49.8585C135.099 49.511 134.414 49.4098 133.757 49.5735C133.096 49.7372 132.542 50.1484 132.196 50.7308C131.493 51.9131 131.859 53.4217 133.029 54.1653L133.062 54.1853L213.916 102.174C214.319 102.413 214.769 102.535 215.223 102.535ZM134.374 50.7658C134.603 50.7658 134.83 50.8283 135.034 50.9483L215.854 98.9158C216.475 99.2945 216.674 100.043 216.311 100.654C216.139 100.943 215.864 101.147 215.536 101.228C215.204 101.31 214.86 101.259 214.564 101.084L133.744 53.118L133.37 53.6316L133.711 53.0967C133.122 52.723 132.936 51.9694 133.286 51.3782C133.458 51.0895 133.733 50.8858 134.061 50.8046C134.166 50.7783 134.27 50.7658 134.374 50.7658Z" fill="white"/>
<path d="M152.659 47.2971C152.696 47.3208 152.735 47.3433 152.774 47.3646L214.059 80.3169C214.967 80.8044 216.106 80.4544 216.606 79.5345C217.105 78.6147 216.764 77.4686 215.867 76.9862L154.582 44.0339C153.674 43.5464 152.535 43.8964 152.035 44.8162C151.558 45.6948 151.84 46.7772 152.659 47.2971Z" fill="url(#paint6_linear)"/>
<path d="M214.932 81.1697C215.829 81.1697 216.706 80.686 217.166 79.8361C217.491 79.2387 217.562 78.5526 217.368 77.9027C217.177 77.264 216.752 76.7391 216.171 76.4266L154.885 43.4743C153.672 42.8207 152.143 43.2881 151.478 44.5116C150.848 45.6727 151.216 47.13 152.318 47.8299C152.368 47.8611 152.42 47.8924 152.473 47.9211L213.761 80.8734C214.133 81.0747 214.535 81.1697 214.932 81.1697ZM153.71 44.4479C153.906 44.4479 154.101 44.4941 154.283 44.5916L215.569 77.544C215.851 77.6952 216.057 77.9514 216.151 78.2664C216.249 78.5913 216.212 78.9338 216.051 79.2337C215.719 79.8449 214.962 80.0811 214.365 79.7599L153.078 46.8075C153.054 46.7938 153.029 46.78 153.005 46.765L153.002 46.7625C152.461 46.4188 152.282 45.6965 152.596 45.119C152.826 44.6916 153.263 44.4479 153.71 44.4479Z" fill="white"/>
<path d="M124.571 224.028C125.35 224.521 126.392 224.4 127.02 223.698C127.719 222.918 127.643 221.717 126.852 221.014L73.5085 173.702C72.7197 172.998 71.509 173.063 70.8104 173.843C70.1118 174.623 70.1869 175.824 70.9782 176.526L124.322 223.839C124.401 223.91 124.485 223.973 124.571 224.028Z" fill="url(#paint7_linear)"/>
<path d="M125.606 224.963C126.307 224.963 126.997 224.673 127.493 224.119C127.942 223.617 128.168 222.971 128.129 222.299C128.09 221.619 127.786 220.994 127.274 220.539L73.93 173.227C72.8821 172.293 71.2683 172.378 70.3355 173.419C69.8873 173.92 69.6607 174.566 69.6995 175.239C69.7383 175.919 70.0426 176.545 70.5546 177L123.899 224.312C123.999 224.402 124.11 224.486 124.228 224.561C124.656 224.832 125.134 224.963 125.606 224.963ZM72.226 173.846C72.5315 173.846 72.8383 173.955 73.0849 174.174L126.43 221.486C126.688 221.715 126.842 222.03 126.861 222.371C126.88 222.705 126.768 223.026 126.545 223.274C126.13 223.737 125.442 223.829 124.91 223.491C124.853 223.455 124.796 223.414 124.744 223.366L71.3972 176.052C71.1393 175.822 70.9853 175.509 70.9666 175.167C70.9465 174.834 71.0592 174.514 71.2808 174.265C71.5312 173.988 71.878 173.846 72.226 173.846Z" fill="white"/>
<path d="M125.697 240.609C126.55 241.151 127.685 240.944 128.273 240.122C128.883 239.271 128.679 238.084 127.817 237.47L51.0063 182.75C50.1399 182.122 48.9518 182.327 48.3421 183.178C47.7324 184.029 47.9364 185.217 48.7978 185.83L125.609 240.551C125.638 240.572 125.668 240.591 125.697 240.609Z" fill="url(#paint8_linear)"/>
<path d="M126.727 241.544C127.521 241.544 128.299 241.175 128.789 240.491C129.181 239.943 129.335 239.276 129.225 238.611C129.112 237.938 128.743 237.35 128.186 236.952L51.3747 182.232C50.8251 181.834 50.1515 181.672 49.4804 181.782C48.8094 181.891 48.2209 182.256 47.824 182.808C47.4322 183.355 47.2782 184.022 47.3884 184.687C47.501 185.359 47.8691 185.949 48.4275 186.347L125.239 241.068C125.276 241.095 125.316 241.122 125.355 241.147C125.782 241.415 126.258 241.544 126.727 241.544ZM49.8873 183.017C50.1528 183.017 50.4119 183.101 50.6323 183.262L127.448 237.986C127.73 238.187 127.917 238.483 127.973 238.821C128.028 239.152 127.952 239.483 127.758 239.753C127.367 240.297 126.612 240.439 126.037 240.074H126.036L125.977 240.034L49.1662 185.314C48.8845 185.113 48.6992 184.817 48.6416 184.478C48.5865 184.148 48.6629 183.817 48.8569 183.546C49.0548 183.27 49.3477 183.087 49.6833 183.033C49.7521 183.022 49.8197 183.017 49.8873 183.017Z" fill="white"/>
<path d="M122.359 258.091C123.238 258.649 124.401 258.411 124.975 257.55C125.555 256.679 125.309 255.498 124.428 254.914L30.1876 192.489C29.2962 191.889 28.1193 192.136 27.5396 193.009C26.9599 193.88 27.2053 195.061 28.088 195.645L122.328 258.07C122.337 258.077 122.348 258.085 122.359 258.091Z" fill="url(#paint9_linear)"/>
<path d="M123.384 259.022C124.209 259.022 125.02 258.627 125.503 257.901C125.878 257.336 126.009 256.66 125.87 255.995C125.732 255.331 125.344 254.76 124.777 254.385L30.5364 191.96C29.9717 191.58 29.2919 191.443 28.6258 191.574C27.9598 191.705 27.3851 192.091 27.0083 192.657C26.6327 193.221 26.5025 193.898 26.6414 194.563C26.7792 195.226 27.1673 195.798 27.7344 196.173L122.015 258.625L122.358 258.091L122.017 258.626C122.439 258.895 122.915 259.022 123.384 259.022ZM29.1179 192.794C29.3683 192.794 29.6149 192.869 29.8315 193.015L124.075 255.443C124.362 255.633 124.558 255.92 124.626 256.254C124.695 256.585 124.63 256.921 124.445 257.2C124.067 257.766 123.284 257.926 122.7 257.556L122.691 257.551L28.4368 195.117C28.1501 194.927 27.9548 194.64 27.8859 194.306C27.817 193.975 27.8821 193.639 28.0674 193.36C28.2565 193.076 28.5419 192.884 28.8737 192.819C28.9551 192.801 29.0365 192.794 29.1179 192.794Z" fill="white"/>
<path d="M13.252 212.538C13.2621 212.544 13.2721 212.55 13.2833 212.558C13.2833 212.558 38.2606 227.762 63.2668 242.933C77.7861 251.742 89.3658 258.749 97.6828 263.761C102.387 266.596 106.312 268.95 109.067 270.589C110.453 271.412 111.545 272.056 112.294 272.49C113.647 273.272 114.815 273.948 115.866 272.726C116.548 271.931 116.448 270.731 115.641 270.046C115.471 269.9 115.281 269.79 115.083 269.714C111.477 267.827 41.9503 225.571 15.2577 209.322C14.3538 208.772 13.1781 209.05 12.6335 209.943C12.0952 210.825 12.3731 211.979 13.252 212.538ZM113.338 269.899C113.195 269.992 113.065 270.107 112.948 270.244C113.067 270.105 113.199 269.991 113.338 269.899ZM114.942 269.664C114.745 269.605 114.541 269.579 114.338 269.585C114.551 269.578 114.756 269.606 114.942 269.664Z" fill="url(#paint10_linear)"/>
<path d="M114.586 274.025C115.191 274.025 115.79 273.789 116.349 273.139C116.787 272.629 117 271.978 116.947 271.306C116.895 270.627 116.578 270.008 116.055 269.563C115.847 269.386 115.61 269.241 115.351 269.136C111.435 267.056 42.0604 224.893 15.5894 208.779C15.0085 208.425 14.3236 208.317 13.6651 208.473C13.0028 208.629 12.4444 209.034 12.0914 209.611C11.3777 210.78 11.7458 212.332 12.9114 213.072L12.9252 213.081L13.252 212.537L12.9302 213.085C13.2019 213.25 38.2155 228.476 62.9361 243.474C77.4543 252.282 89.0352 259.29 97.3535 264.303C102.269 267.265 106.101 269.563 108.742 271.133C110.13 271.958 111.224 272.603 111.976 273.038C112.772 273.498 113.683 274.025 114.586 274.025ZM114.764 270.262C114.773 270.267 114.781 270.272 114.79 270.276L114.855 270.306C114.994 270.359 115.119 270.434 115.229 270.528C115.495 270.753 115.654 271.064 115.681 271.406C115.708 271.739 115.603 272.062 115.385 272.314C114.737 273.069 114.144 272.827 112.614 271.942C111.867 271.508 110.776 270.866 109.393 270.045C106.755 268.476 102.926 266.179 98.0121 263.218C89.6938 258.205 78.1153 251.199 63.5972 242.391C38.8765 227.394 13.8642 212.169 13.615 212.016L13.2532 212.539L13.5938 212.004C13.0078 211.632 12.8213 210.856 13.1768 210.274C13.3509 209.986 13.6288 209.786 13.9581 209.709C14.2886 209.63 14.6341 209.685 14.9271 209.864C40.7558 225.586 107.417 266.101 114.349 270.033L114.356 270.219C114.492 270.222 114.629 270.235 114.76 270.273L114.764 270.262ZM113.432 270.656C113.433 270.654 113.434 270.653 113.435 270.652C113.472 270.611 113.509 270.572 113.549 270.537C113.593 270.498 113.639 270.462 113.69 270.429L112.991 269.371C112.887 269.438 112.789 269.515 112.697 269.598C112.697 269.598 112.695 269.598 112.695 269.6C112.695 269.601 112.694 269.601 112.694 269.601C112.614 269.673 112.539 269.751 112.469 269.832C112.469 269.832 112.469 269.832 112.468 269.833L113.432 270.656Z" fill="white"/>
<path d="M7.55859 235.096C7.61243 235.13 7.66879 235.162 7.72762 235.192L103.406 283.32C104.352 283.796 105.5 283.422 105.969 282.487C106.439 281.552 106.052 280.408 105.108 279.933L9.4291 231.805C8.48384 231.329 7.33577 231.703 6.86626 232.637C6.42557 233.514 6.73728 234.575 7.55859 235.096Z" fill="url(#paint11_linear)"/>
<path d="M104.272 284.16C104.541 284.16 104.811 284.117 105.075 284.03C105.716 283.818 106.236 283.37 106.538 282.769C107.162 281.522 106.649 279.995 105.395 279.364L9.71588 231.235C9.10241 230.928 8.40878 230.875 7.76025 231.09C7.11923 231.303 6.60091 231.75 6.29919 232.351C5.7145 233.516 6.10886 234.925 7.21813 235.63H7.21938C7.29075 235.675 7.36587 235.717 7.44224 235.756L103.121 283.883C103.484 284.067 103.877 284.16 104.272 284.16ZM8.56152 232.229C8.76058 232.229 8.95842 232.276 9.14246 232.369L104.821 280.496C105.452 280.814 105.713 281.579 105.401 282.201C105.252 282.499 104.994 282.721 104.676 282.826C104.349 282.934 104.001 282.907 103.692 282.752L8.01316 234.625C7.97309 234.605 7.93555 234.584 7.89799 234.56C7.3421 234.206 7.14175 233.501 7.43347 232.921C7.58246 232.623 7.84037 232.401 8.15838 232.296C8.29109 232.251 8.4263 232.229 8.56152 232.229Z" fill="white"/>
<path d="M6.42109 264.003C6.53752 264.076 6.66272 264.139 6.79668 264.188L83.1559 292.062C84.15 292.425 85.2442 291.921 85.5998 290.936C85.9554 289.951 85.437 288.859 84.4442 288.496L8.08499 260.622C7.09091 260.26 5.99666 260.763 5.6411 261.748C5.33311 262.599 5.67865 263.531 6.42109 264.003Z" fill="url(#paint12_linear)"/>
<path d="M83.8191 292.815C84.1872 292.815 84.5528 292.735 84.8946 292.575C85.5056 292.29 85.9688 291.784 86.1966 291.151C86.6711 289.842 85.9825 288.383 84.6617 287.901L8.30245 260.025C7.65768 259.79 6.9628 259.82 6.34431 260.108C5.73335 260.394 5.27012 260.899 5.04225 261.531C4.64162 262.637 5.07731 263.901 6.07891 264.537L6.08016 264.538C6.23666 264.637 6.40443 264.719 6.5772 264.783L82.9364 292.659C83.2244 292.764 83.5224 292.815 83.8191 292.815ZM7.42229 261.137C7.57254 261.137 7.72279 261.164 7.86676 261.216L84.2247 289.092C84.8908 289.334 85.2389 290.065 85.001 290.72C84.8883 291.034 84.6592 291.284 84.3562 291.425C84.0457 291.57 83.6964 291.585 83.3721 291.465L7.01414 263.591C6.92651 263.56 6.84012 263.517 6.75999 263.466C6.25793 263.147 6.0376 262.515 6.23792 261.962C6.35059 261.649 6.58095 261.399 6.88393 261.256C7.05546 261.177 7.23826 261.137 7.42229 261.137Z" fill="white"/>
<path d="M205.677 49.1496C208.056 56.5335 209.772 64.0461 210.824 71.5361C211.87 79.0225 212.221 86.5188 211.524 93.7952C211.176 97.4296 210.591 101.01 209.696 104.477C208.782 107.939 207.633 111.307 206.148 114.508C204.654 117.703 202.895 120.757 200.817 123.593C198.762 126.444 196.439 129.112 193.861 131.549C188.738 136.461 182.683 140.525 176.118 143.764C174.496 144.607 172.797 145.327 171.125 146.089C169.411 146.778 167.717 147.507 165.965 148.127C162.502 149.446 158.926 150.537 155.327 151.557C153.51 152.024 151.711 152.543 149.869 152.943L147.12 153.582L144.287 154.196L132.924 156.629L110.135 161.473C94.9381 164.805 79.66 168.175 64.616 172.974C57.1015 175.372 49.6384 178.152 42.4469 181.69C35.263 185.215 28.387 189.679 22.4951 195.327C16.6232 200.985 11.942 207.915 8.96729 215.425C5.98378 222.946 4.58154 230.889 4.0845 238.75C3.55115 246.629 4.04318 254.479 4.91081 262.226C5.36905 266.101 5.92494 269.958 6.63107 273.784C7.29713 277.618 8.0959 281.423 8.946 285.213C8.99232 285.418 9.19641 285.549 9.403 285.505C9.59706 285.464 9.72351 285.278 9.69847 285.085C8.68561 277.41 7.91187 269.719 7.55254 262.04C7.37601 258.201 7.34344 254.365 7.43484 250.547C7.55003 246.729 7.82173 242.931 8.26869 239.172C9.17889 231.667 10.9579 224.298 14.0742 217.621C17.1391 210.926 21.5461 204.984 27.0286 200.163C32.5161 195.329 38.9839 191.62 45.776 188.519C52.5918 185.436 59.7846 183.01 67.1163 180.931C74.4492 178.844 81.9324 177.121 89.4556 175.47C96.9814 173.824 104.566 172.317 112.172 170.838L135.032 166.371C138.849 165.624 142.664 164.862 146.477 164.075L149.341 163.485L152.27 162.837C154.226 162.431 156.163 161.896 158.109 161.415C161.983 160.361 165.845 159.221 169.642 157.82C171.554 157.169 173.421 156.364 175.305 155.614C177.16 154.782 179.032 153.989 180.851 153.055C188.172 149.468 195.152 144.872 201.194 139.102C204.191 136.2 206.952 133.015 209.338 129.557C211.699 126.086 213.756 122.391 215.326 118.505C218.489 110.735 219.944 102.404 219.916 94.2388C219.905 86.0601 218.538 78.0326 216.22 70.3963C215.056 66.5769 213.662 62.8463 212.019 59.2368C210.375 55.6274 208.567 52.1129 206.357 48.811C206.239 48.6347 206 48.5847 205.824 48.701C205.677 48.7972 205.62 48.9747 205.671 49.1334L205.677 49.1496Z" fill="#FEB3B1"/>
<path d="M9.32167 286.146C9.39177 286.146 9.46313 286.139 9.5345 286.124C10.0453 286.015 10.3934 285.523 10.327 285.003C9.21526 276.579 8.51411 269.059 8.18484 262.01C8.01457 258.308 7.97577 254.456 8.06842 250.561C8.18484 246.705 8.46281 242.897 8.89725 239.246C9.88007 231.144 11.8156 223.957 14.6477 217.888C17.6975 211.228 22.0019 205.425 27.4456 200.638C32.2908 196.37 38.3717 192.595 46.0377 189.094C52.1362 186.336 59.0872 183.865 67.2878 181.54C74.8148 179.398 82.4545 177.653 89.5896 176.087C97.337 174.393 105.079 172.861 112.291 171.459L135.151 166.992C139.319 166.176 143.064 165.425 146.603 164.695L149.468 164.105L152.406 163.455C153.792 163.167 155.193 162.809 156.546 162.463C157.117 162.317 157.688 162.171 158.26 162.029C161.464 161.158 165.663 159.964 169.861 158.415C171.269 157.935 172.682 157.361 174.047 156.805C174.544 156.603 175.04 156.402 175.538 156.203C175.977 156.005 176.393 155.822 176.807 155.638C178.235 155.006 179.711 154.352 181.139 153.618C188.998 149.768 195.897 145.036 201.631 139.559C204.778 136.511 207.546 133.268 209.859 129.917C212.375 126.218 214.411 122.459 215.914 118.742C218.975 111.221 220.578 102.746 220.548 94.2363C220.537 86.4001 219.285 78.3163 216.825 70.2126C215.636 66.3082 214.212 62.5275 212.594 58.9744C210.669 54.7463 208.854 51.4043 206.883 48.4585C206.572 47.9936 205.94 47.8636 205.473 48.1698C205.094 48.4185 204.926 48.8934 205.064 49.3259L205.07 49.3446C207.415 56.6235 209.139 64.1198 210.192 71.6249C211.3 79.5636 211.534 87.0025 210.888 93.7352C210.527 97.5021 209.919 101.063 209.078 104.318C208.107 107.993 206.959 111.24 205.568 114.242C204.037 117.519 202.264 120.54 200.3 123.219C198.248 126.066 195.934 128.713 193.419 131.089C188.525 135.781 182.609 139.853 175.831 143.195C174.621 143.824 173.352 144.391 172.125 144.941C171.701 145.131 171.277 145.32 170.855 145.512C170.419 145.687 169.957 145.876 169.496 146.064C168.275 146.564 167.013 147.081 165.747 147.528C161.976 148.965 158.103 150.11 155.148 150.947C154.603 151.087 154.046 151.236 153.489 151.385C152.261 151.712 150.99 152.051 149.729 152.325L146.971 152.965L144.148 153.576L132.786 156.009L109.997 160.853C95.0884 164.122 79.6763 167.502 64.417 172.37C55.7332 175.142 48.6606 177.923 42.1603 181.123C34.319 184.97 27.552 189.595 22.0482 194.871C16.0925 200.608 11.3637 207.636 8.37016 215.192C5.61703 222.131 4.00569 229.825 3.44354 238.711C2.97781 245.598 3.24071 253.094 4.27235 262.297C4.76689 266.491 5.33154 270.284 5.99886 273.899C6.58604 277.275 7.32347 280.916 8.31882 285.351C8.43024 285.823 8.85342 286.146 9.32167 286.146ZM206.842 50.7319C208.395 53.2377 209.88 56.0698 211.441 59.498C213.036 63.0012 214.44 66.7294 215.613 70.58C218.037 78.565 219.271 86.525 219.281 94.2388C219.31 102.586 217.739 110.894 214.739 118.266C213.271 121.902 211.276 125.58 208.813 129.201C206.55 132.48 203.837 135.66 200.752 138.647C195.114 144.03 188.325 148.688 180.571 152.486C179.165 153.208 177.705 153.854 176.294 154.481C175.877 154.666 175.46 154.851 175.043 155.037C174.568 155.226 174.068 155.428 173.569 155.632C172.219 156.18 170.824 156.748 169.437 157.22C165.27 158.757 161.106 159.942 157.941 160.803C157.38 160.942 156.807 161.088 156.232 161.236C154.891 161.578 153.505 161.933 152.139 162.217L149.202 162.867L146.346 163.455C142.812 164.184 139.07 164.935 134.907 165.75L112.047 170.217C104.828 171.62 97.0766 173.154 89.3154 174.851C82.1603 176.421 74.4981 178.171 66.9385 180.323C58.6778 182.664 51.6679 185.157 45.5106 187.942C37.7282 191.495 31.5446 195.337 26.6055 199.689C21.0266 204.594 16.6158 210.538 13.4933 217.358C10.6062 223.545 8.63432 230.861 7.63522 239.096C7.19704 242.784 6.91409 246.63 6.79765 250.528C6.70375 254.457 6.7438 258.338 6.91533 262.07C7.17075 267.543 7.64777 273.295 8.36641 279.526C7.93822 277.439 7.57388 275.518 7.25337 273.676C6.58981 270.081 6.03017 266.313 5.53813 262.151C4.51651 253.028 4.25484 245.605 4.71556 238.792C5.26895 230.039 6.85274 222.472 9.5558 215.659C12.483 208.268 17.1091 201.396 22.9346 195.783C28.3432 190.599 35.0014 186.048 42.7262 182.26C49.1689 179.089 56.1864 176.331 64.8089 173.578C80.0119 168.727 95.3939 165.354 110.27 162.092L133.055 157.249L147.253 154.202L150.012 153.562C151.294 153.283 152.579 152.941 153.821 152.611C154.374 152.463 154.929 152.316 155.483 152.173C158.478 151.325 162.387 150.17 166.191 148.72C167.47 148.268 168.747 147.745 169.982 147.239C170.44 147.052 170.899 146.863 171.36 146.678C171.806 146.476 172.228 146.287 172.648 146.099C173.893 145.543 175.179 144.967 176.409 144.327C183.292 140.934 189.315 136.787 194.299 132.008C196.868 129.58 199.234 126.874 201.332 123.965C203.341 121.223 205.156 118.131 206.723 114.778C208.146 111.706 209.319 108.392 210.308 104.64C211.167 101.316 211.788 97.6895 212.155 93.8564C212.811 87.025 212.574 79.4874 211.453 71.4499C210.475 64.4797 208.925 57.5196 206.842 50.7319Z" fill="white"/>
<path d="M220.232 378.286C225.025 378.7 233.343 379.371 239.901 379.66C243.844 379.833 246.112 379.447 247.419 378.925C247.417 379.072 247.413 379.211 247.407 379.34C247.376 380.028 246.815 380.579 246.119 380.618C233.728 381.308 223.872 380.857 220.364 380.644C219.639 380.601 219.206 379.813 219.578 379.196C219.764 378.889 219.988 378.586 220.232 378.286Z" fill="#B5453C"/>
<path d="M239.902 379.661C233.345 379.372 225.026 378.701 220.234 378.287C224.946 372.515 239.902 368.626 239.902 368.626H244.127C247.033 372.807 247.453 376.787 247.421 378.926C246.114 379.449 243.844 379.834 239.902 379.661Z" fill="#B5453C"/>
<path d="M244.838 361.742L244.443 369.55C244.4 370.397 243.765 371.106 242.918 371.228C242.074 371.348 240.943 371.364 239.744 370.965C239.007 370.72 238.459 370.1 238.323 369.343L236.957 361.742H244.838Z" fill="#FEB3B1"/>
<path d="M299.705 379.602C301.784 379.312 302.724 378.234 303.118 377.082C303.121 377.092 303.123 377.103 303.126 377.113C303.431 378.329 302.723 379.589 301.305 380.188C299.593 380.911 297.72 381.035 296.265 380.975C294.705 380.911 293.272 380.267 292.486 379.235L292.475 379.22C294.041 379.994 296.238 380.085 299.705 379.602Z" fill="#B5453C"/>
<path d="M289.907 361.692H293.39C298.696 361.583 302.029 372.757 303.119 377.083C302.725 378.236 301.785 379.313 299.706 379.603C296.239 380.085 294.042 379.994 292.476 379.221C289.609 375.455 288.188 369.94 287.504 366.72C286.728 363.059 289.907 361.692 289.907 361.692Z" fill="#B5453C"/>
<path d="M292.942 354.444L294.876 362.124C295.113 363.065 294.662 364.04 293.789 364.486C292.707 365.041 291.184 365.623 289.783 365.455C289.124 365.376 288.577 364.912 288.359 364.294L285.52 356.212L292.942 354.444Z" fill="#FEB3B1"/>
<path d="M295.25 356.663C292.843 358.794 285.014 359.075 285.014 359.075C256.816 291.514 245.281 281.916 245.281 281.916C249.353 307.417 245.937 363.871 245.937 363.871C241.283 365.921 235.285 363.871 235.285 363.871C234.907 322.123 228.479 285.715 220.885 257.012C239.944 256.584 250.079 250.074 253.389 247.461C269.274 273.028 295.25 356.663 295.25 356.663Z" fill="#2B478B"/>
<path d="M248.547 169.765C252.154 187.727 250.862 219.877 250.012 234.541C249.773 238.663 252.657 244.377 254.985 248.275C255.351 248.887 255.125 249.67 254.491 249.995C250.591 251.996 237.376 258.199 222.061 258.97C221.04 259.021 220.128 258.328 219.864 257.341C208.505 214.999 195.31 187.942 195.31 187.942C209.878 164.72 248.547 169.765 248.547 169.765Z" fill="#B5453C"/>
<path d="M243.355 280.318C243.516 280.318 243.677 280.274 243.825 280.185C244.251 279.925 244.386 279.372 244.127 278.948C243.975 278.699 240.327 272.814 232.946 269.258C232.498 269.043 231.957 269.229 231.741 269.678C231.524 270.127 231.712 270.665 232.161 270.882C239.042 274.196 242.549 279.829 242.584 279.885C242.754 280.164 243.051 280.318 243.355 280.318Z" fill="#1C1A56"/>
<path d="M271.175 221.319C270.015 229.686 266.593 238.813 259.744 248.509L257.141 246.391C257.141 246.391 260.146 234.219 258.438 220.405C262.662 219.58 267.652 220.429 271.175 221.319Z" fill="#B5453C"/>
<path d="M244.518 191.93L248.547 169.767C248.547 169.767 275.469 190.309 271.175 221.319C267.651 220.429 262.662 219.582 258.437 220.404C257.206 210.452 253.53 199.65 244.518 191.93Z" fill="#B5453C"/>
<path d="M195.312 187.943L205.703 210.283C204.023 223.771 196.765 229.603 188.939 231.84C188.451 225.693 186.894 220.726 185.45 217.291C195.448 206.985 195.312 187.943 195.312 187.943Z" fill="#B5453C"/>
<path d="M185.448 217.291C186.893 220.726 188.45 225.692 188.938 231.839C168.058 239.927 162.533 224.243 162.533 224.243L166.392 223.563C175.107 224.479 181.194 221.675 185.448 217.291Z" fill="#B5453C"/>
<path d="M204.886 160.36L209.902 178.77C210.466 180.839 212.707 181.948 214.7 181.153C216.851 180.295 219.582 179.123 221.93 177.857C224.438 176.504 225.223 173.283 223.636 170.92L213.205 155.395L204.886 160.36Z" fill="#FEB3B1"/>
<path d="M152.964 211.924L281.514 258.63C286.905 260.588 289.483 266.717 287.108 271.93L286.717 272.786C284.615 277.399 279.154 279.423 274.547 277.294L149.725 219.652L152.964 211.924Z" fill="#4547EB"/>
<path opacity="0.21" d="M93.8758 246.035C58.8285 246.035 30.4171 218.185 30.4171 183.83C30.4171 149.475 58.8285 121.625 93.8758 121.625C128.923 121.625 157.334 149.475 157.334 183.83C157.334 218.185 128.923 246.035 93.8758 246.035Z" fill="white"/>
<path d="M93.8772 114.612C132.876 114.612 164.49 145.602 164.49 183.829C164.49 222.057 132.876 253.047 93.8772 253.047C54.8788 253.047 23.2646 222.058 23.2646 183.829C23.2646 145.602 54.8788 114.612 93.8772 114.612ZM93.8772 242.878C127.146 242.878 154.117 216.441 154.117 183.829C154.117 151.217 127.146 124.779 93.8772 124.779C60.6079 124.779 33.6374 151.217 33.6374 183.829C33.6374 216.441 60.6067 242.878 93.8772 242.878Z" fill="#4547EB"/>
<path d="M159.12 192.403C159.356 192.403 159.561 192.228 159.591 191.989C159.802 190.34 159.949 188.67 160.031 187.026C160.043 186.765 159.842 186.543 159.58 186.53C159.268 186.511 159.094 186.719 159.082 186.98C159.003 188.6 158.858 190.245 158.65 191.871C158.617 192.129 158.8 192.367 159.06 192.399C159.08 192.402 159.102 192.403 159.12 192.403ZM158.636 173.048C158.664 173.048 158.691 173.046 158.72 173.041C158.977 172.995 159.149 172.75 159.103 172.492C158.303 168.038 157.021 163.66 155.294 159.477L155.293 159.476C145.114 134.826 121.006 118.897 93.8765 118.897C81.2264 118.897 68.9293 122.405 58.3123 129.043C58.0907 129.182 58.0244 129.474 58.1634 129.695C58.2998 129.918 58.594 129.984 58.8169 129.845C69.2823 123.303 81.4054 119.844 93.8765 119.844C120.62 119.844 144.383 135.543 154.415 159.838C154.417 159.839 154.417 159.841 154.417 159.841C156.119 163.96 157.381 168.273 158.169 172.66C158.212 172.887 158.411 173.048 158.636 173.048Z" fill="#BDD0FB"/>
<path d="M193.91 146.375C193.865 146.691 198.094 167.384 198.094 167.384L209.879 164.722L208.788 144.515C208.788 144.514 194.675 141.082 193.91 146.375Z" fill="url(#paint13_linear)"/>
<path d="M206.138 149.017L207.546 159.609C207.564 159.746 207.564 159.879 207.545 160.016C207.426 160.845 206.807 163.673 203.949 162.864C201.355 162.13 198.978 161.499 197.335 162.002C196.597 162.226 196.152 162.973 196.307 163.726C196.691 165.606 197.638 169.827 199.019 173.368C199.299 174.087 200.088 174.465 200.829 174.248C203.064 173.598 207.739 172.095 211.217 170.005C211.688 169.723 211.969 169.21 211.946 168.662C211.833 165.987 211.519 157.86 211.783 155.58C212.031 153.442 214.66 152.161 215.802 151.701C216.176 151.549 216.47 151.256 216.619 150.881C217.149 149.557 217.878 146.495 214.011 145.24C213.203 144.978 212.776 144.107 213.064 143.308C213.636 141.717 213.878 139.289 210.887 137.95C207.847 136.591 205.577 138.208 204.351 139.523C203.855 140.054 203.06 140.135 202.446 139.748C202.095 139.526 201.644 139.454 201.1 139.794C200.366 140.25 199.393 139.939 199.014 139.163C198.285 137.672 196.803 136.073 193.827 136.582C188.546 137.484 187.947 143.326 189.341 146.749C190.734 150.172 196.403 148.869 199.248 147.143C201.41 145.83 204.216 147.206 205.437 147.94C205.822 148.175 206.079 148.571 206.138 149.017Z" fill="#23276B"/>
<path d="M212.258 159.443C212.258 159.443 210.087 153.374 212.318 151.888C214.547 150.402 217.851 151.173 217.124 155.57C216.219 161.038 212.258 159.443 212.258 159.443Z" fill="url(#paint14_linear)"/>
<path d="M258.214 246.021L246.061 245.033L240.797 249.876C240.797 249.876 242.043 251.594 245.935 250.607C249.828 249.62 255.16 249.377 255.16 249.377C255.16 249.377 260.534 251.795 260.6 247.27L258.214 246.021Z" fill="#FEB3B1"/>
<path d="M164.082 227.113C163.031 227.933 159.431 226.222 157.227 225.039C156.153 224.463 155.633 223.209 156.001 222.048C156.532 220.378 157.415 218.225 158.504 217.952C160.309 217.502 168.412 223.735 164.082 227.113Z" fill="#FEB3B1"/>
<path d="M278.978 275.499C279.029 275.499 279.082 275.49 279.133 275.473C284.154 273.739 285.322 270.779 285.418 268.599C285.556 265.414 283.551 262.459 280.431 261.244L264.996 255.235C264.756 255.14 264.479 255.26 264.382 255.503C264.287 255.747 264.407 256.022 264.651 256.117L280.087 262.125C282.829 263.192 284.591 265.777 284.469 268.556C284.35 271.3 282.451 273.324 278.821 274.577C278.575 274.663 278.442 274.932 278.53 275.179C278.599 275.377 278.781 275.499 278.978 275.499Z" fill="#BDD0FB"/>
<path d="M260.068 254.299C260.257 254.299 260.437 254.184 260.509 253.998C260.605 253.754 260.484 253.479 260.24 253.384L258.24 252.605C258.001 252.509 257.722 252.631 257.627 252.874C257.532 253.118 257.652 253.393 257.896 253.488L259.896 254.267C259.952 254.289 260.01 254.299 260.068 254.299Z" fill="#BDD0FB"/>
<defs>
<linearGradient id="paint0_linear" x1="141.337" y1="151.07" x2="100.27" y2="151.07" gradientUnits="userSpaceOnUse">
<stop stop-color="#FF928E"/>
<stop offset="1" stop-color="#FE7062"/>
</linearGradient>
<linearGradient id="paint1_linear" x1="161.669" y1="134.958" x2="95.5859" y2="134.958" gradientUnits="userSpaceOnUse">
<stop stop-color="#FF928E"/>
<stop offset="1" stop-color="#FE7062"/>
</linearGradient>
<linearGradient id="paint2_linear" x1="184.062" y1="119.937" x2="97.1838" y2="119.937" gradientUnits="userSpaceOnUse">
<stop stop-color="#FF928E"/>
<stop offset="1" stop-color="#FE7062"/>
</linearGradient>
<linearGradient id="paint3_linear" x1="198.778" y1="105.78" x2="103.904" y2="105.78" gradientUnits="userSpaceOnUse">
<stop stop-color="#FF928E"/>
<stop offset="1" stop-color="#FE7062"/>
</linearGradient>
<linearGradient id="paint4_linear" x1="211.376" y1="91.2877" x2="115.218" y2="91.2877" gradientUnits="userSpaceOnUse">
<stop stop-color="#FF928E"/>
<stop offset="1" stop-color="#FE7062"/>
</linearGradient>
<linearGradient id="paint5_linear" x1="217.125" y1="76.0153" x2="132.477" y2="76.0153" gradientUnits="userSpaceOnUse">
<stop stop-color="#FF928E"/>
<stop offset="1" stop-color="#FE7062"/>
</linearGradient>
<linearGradient id="paint6_linear" x1="216.837" y1="62.1745" x2="151.803" y2="62.1745" gradientUnits="userSpaceOnUse">
<stop stop-color="#FF928E"/>
<stop offset="1" stop-color="#FE7062"/>
</linearGradient>
<linearGradient id="paint7_linear" x1="127.499" y1="198.771" x2="70.3312" y2="198.771" gradientUnits="userSpaceOnUse">
<stop stop-color="#FF928E"/>
<stop offset="1" stop-color="#FE7062"/>
</linearGradient>
<linearGradient id="paint8_linear" x1="128.625" y1="211.647" x2="47.9904" y2="211.647" gradientUnits="userSpaceOnUse">
<stop stop-color="#FF928E"/>
<stop offset="1" stop-color="#FE7062"/>
</linearGradient>
<linearGradient id="paint9_linear" x1="125.288" y1="225.276" x2="27.2246" y2="225.276" gradientUnits="userSpaceOnUse">
<stop stop-color="#FF928E"/>
<stop offset="1" stop-color="#FE7062"/>
</linearGradient>
<linearGradient id="paint10_linear" x1="116.319" y1="241.217" x2="12.3588" y2="241.217" gradientUnits="userSpaceOnUse">
<stop stop-color="#FF928E"/>
<stop offset="1" stop-color="#FE7062"/>
</linearGradient>
<linearGradient id="paint11_linear" x1="106.169" y1="257.561" x2="6.66613" y2="257.561" gradientUnits="userSpaceOnUse">
<stop stop-color="#FF928E"/>
<stop offset="1" stop-color="#FE7062"/>
</linearGradient>
<linearGradient id="paint12_linear" x1="85.7124" y1="276.341" x2="5.52889" y2="276.341" gradientUnits="userSpaceOnUse">
<stop stop-color="#FF928E"/>
<stop offset="1" stop-color="#FE7062"/>
</linearGradient>
<linearGradient id="paint13_linear" x1="198.604" y1="147.192" x2="217.988" y2="182.404" gradientUnits="userSpaceOnUse">
<stop stop-color="#FEBBBA"/>
<stop offset="1" stop-color="#FF928E"/>
</linearGradient>
<linearGradient id="paint14_linear" x1="230.155" y1="177.383" x2="213.777" y2="154.847" gradientUnits="userSpaceOnUse">
<stop stop-color="#FEBBBA"/>
<stop offset="1" stop-color="#FF928E"/>
</linearGradient>
</defs>
</svg>
