<svg width="106" height="106" viewBox="0 0 106 106" fill="none" xmlns="http://www.w3.org/2000/svg">
<circle cx="4.83841" cy="52.9995" r="4.83841" fill="#3F4CEC"/>
<circle cx="4.83841" cy="28.9195" r="4.83841" fill="#3F4CEC"/>
<circle cx="4.83841" cy="101.162" r="4.83841" fill="#3F4CEC"/>
<circle cx="4.8389" cy="4.83841" r="4.83841" fill="#3F4CEC"/>
<circle cx="4.83841" cy="77.0806" r="4.83841" fill="#3F4CEC"/>
<circle cx="28.919" cy="52.9995" r="4.83841" fill="#3F4CEC"/>
<circle cx="28.919" cy="28.9195" r="4.83841" fill="#3F4CEC"/>
<circle cx="28.919" cy="101.162" r="4.83841" fill="#3F4CEC"/>
<circle cx="28.919" cy="4.83841" r="4.83841" fill="#3F4CEC"/>
<circle cx="28.919" cy="77.0806" r="4.83841" fill="#3F4CEC"/>
<circle cx="53" cy="52.9995" r="4.83841" fill="#3F4CEC"/>
<circle cx="53" cy="28.9195" r="4.83841" fill="#3F4CEC"/>
<circle cx="53" cy="101.162" r="4.83841" fill="#3F4CEC"/>
<circle cx="53" cy="4.83841" r="4.83841" fill="#3F4CEC"/>
<circle cx="53" cy="77.0806" r="4.83841" fill="#3F4CEC"/>
<circle cx="77.0811" cy="52.9995" r="4.83841" fill="#3F4CEC"/>
<circle cx="77.0811" cy="28.9195" r="4.83841" fill="#3F4CEC"/>
<circle cx="77.0811" cy="101.162" r="4.83841" fill="#3F4CEC"/>
<circle cx="77.0811" cy="4.83841" r="4.83841" fill="#3F4CEC"/>
<circle cx="77.0811" cy="77.0806" r="4.83841" fill="#3F4CEC"/>
<circle cx="101.162" cy="52.9995" r="4.83841" fill="#3F4CEC"/>
<circle cx="101.162" cy="28.9195" r="4.83841" fill="#3F4CEC"/>
<circle cx="101.162" cy="101.162" r="4.83841" fill="#3F4CEC"/>
<circle cx="101.162" cy="4.83841" r="4.83841" fill="#3F4CEC"/>
<circle cx="101.162" cy="77.0806" r="4.83841" fill="#3F4CEC"/>
</svg>
