<svg width="36" height="36" viewBox="0 0 36 36" fill="none" xmlns="http://www.w3.org/2000/svg">
<path d="M27.9702 35.47L26.7795 34.2789C26.4401 33.9396 25.9799 33.7489 25.4999 33.7489C25.02 33.7489 24.5598 33.9396 24.2204 34.2789L23.0295 35.47C22.6902 35.8094 22.2299 36 21.7499 36C21.2701 36 20.8098 35.8094 20.4704 35.47L19.2796 34.2792C18.9402 33.9398 18.48 33.7492 18.0001 33.7492C17.5201 33.7492 17.0598 33.9398 16.7205 34.2792L15.5297 35.47C15.1904 35.8094 14.7301 36 14.2501 36C13.7703 36 13.31 35.8094 12.9706 35.47L11.7798 34.2792C11.4404 33.9398 10.9802 33.7492 10.5003 33.7492C10.0203 33.7492 9.56002 33.9398 9.22067 34.2792L8.02989 35.47C7.69055 35.8094 7.23025 36 6.75032 36C6.27041 36 5.81015 35.8094 5.47078 35.47L0.53007 30.5293C0.190718 30.19 7.25097e-05 29.7297 7.25097e-05 29.2497C7.25097e-05 28.7699 0.190718 28.3096 0.53007 27.9702L1.72088 26.7794C1.88891 26.6114 2.02221 26.4119 2.11315 26.1923C2.20409 25.9728 2.2509 25.7375 2.2509 25.4999C2.2509 25.2623 2.20409 25.0269 2.11315 24.8074C2.02221 24.5879 1.88891 24.3884 1.72088 24.2203L0.53007 23.0295C0.362033 22.8614 0.228738 22.662 0.137797 22.4424C0.0468558 22.2229 4.88892e-05 21.9876 4.88892e-05 21.75C4.88892e-05 21.5123 0.0468558 21.277 0.137797 21.0575C0.228738 20.838 0.362033 20.6385 0.53007 20.4705L1.72095 19.2795C2.0603 18.9402 2.25094 18.48 2.25094 18C2.25094 17.5202 2.0603 17.0599 1.72095 16.7205L0.53007 15.5297C0.190718 15.1903 7.25097e-05 14.73 7.25097e-05 14.2501C7.25097e-05 13.7701 0.190718 13.3099 0.53007 12.9706L1.72088 11.7798C2.06023 11.4404 2.25088 10.9802 2.25088 10.5003C2.25088 10.0203 2.06023 9.56004 1.72088 9.22069L0.529998 8.02985C0.190646 7.69043 0 7.2302 0 6.75026C0 6.27035 0.190646 5.81008 0.529998 5.47072L5.47071 0.529998C5.81007 0.190646 6.27034 0 6.75025 0C7.23019 0 7.69042 0.190646 8.02983 0.529998L9.22061 1.72081C9.55996 2.06016 10.0203 2.25081 10.5002 2.25081C10.9801 2.25081 11.4404 2.06016 11.7797 1.72081L12.9705 0.529998C13.3099 0.190646 13.7701 0 14.2501 0C14.73 0 15.1902 0.190646 15.5296 0.529998L16.7204 1.72081C17.0598 2.06016 17.5201 2.25081 18 2.25081C18.4799 2.25081 18.9402 2.06016 19.2795 1.72081L20.4704 0.529998C20.8097 0.190646 21.2699 0 21.7499 0C22.2298 0 22.69 0.190646 23.0295 0.529998L24.2202 1.72081C24.5596 2.06016 25.0199 2.25081 25.4998 2.25081C25.9797 2.25081 26.44 2.06016 26.7793 1.72081L27.9702 0.529998C28.3095 0.190646 28.7697 0 29.2497 0C29.7296 0 30.1899 0.190646 30.5293 0.529998L35.4699 5.47044C35.6379 5.63846 35.7712 5.83793 35.8622 6.05747C35.9531 6.27701 35.9999 6.51235 35.9999 6.74995C35.9999 6.98755 35.9531 7.22288 35.8622 7.44241C35.7712 7.66195 35.6379 7.86147 35.4699 8.02947L34.2791 9.22037C34.111 9.38837 33.9777 9.58783 33.8868 9.80736C33.7959 10.0269 33.7491 10.2622 33.7491 10.4999C33.7491 10.7375 33.7959 10.9728 33.8868 11.1924C33.9777 11.4119 34.111 11.6113 34.2791 11.7793L35.4699 12.97C35.8093 13.3093 35.9999 13.7696 35.9999 14.2495C35.9999 14.7295 35.8093 15.1897 35.4699 15.5291L34.2791 16.7199C33.9397 17.0592 33.7491 17.5195 33.7491 17.9995C33.7491 18.4793 33.9397 18.9396 34.2791 19.279L35.47 20.4699C35.8093 20.8092 35.9999 21.2695 35.9999 21.7494C35.9999 22.2293 35.8093 22.6896 35.47 23.029L34.2791 24.2197C33.9398 24.5591 33.7492 25.0193 33.7492 25.4993C33.7492 25.9792 33.9398 26.4395 34.2791 26.7788L35.47 27.9697C35.8094 28.3091 36 28.7694 36 29.2492C36 29.7292 35.8094 30.1894 35.47 30.5288L32.9996 32.9991L30.5293 35.47C30.19 35.8094 29.7297 36 29.2497 36C28.7699 36 28.3096 35.8094 27.9702 35.47Z" fill="#2C7C73"/>
<path d="M23.539 27.7056L22.8775 27.0439C22.6889 26.8553 22.4333 26.7494 22.1666 26.7494C21.9 26.7494 21.6443 26.8553 21.4558 27.0439L20.7942 27.7056C20.6057 27.8941 20.3499 28 20.0833 28C19.8167 28 19.561 27.8941 19.3725 27.7056L18.7109 27.044C18.5224 26.8555 18.2667 26.7496 18 26.7496C17.7334 26.7496 17.4777 26.8555 17.2892 27.044L16.6276 27.7056C16.4391 27.8941 16.1834 28 15.9167 28C15.6501 28 15.3944 27.8941 15.2059 27.7056L14.5443 27.044C14.3558 26.8555 14.1001 26.7496 13.8335 26.7496C13.5668 26.7496 13.3111 26.8555 13.1226 27.044L12.4611 27.7056C12.2725 27.8941 12.0168 28 11.7502 28C11.4836 28 11.2279 27.8941 11.0393 27.7056L8.29448 24.9607C8.10595 24.7722 8.00004 24.5165 8.00004 24.2499C8.00004 23.9833 8.10595 23.7275 8.29448 23.539L8.95604 22.8774C9.0494 22.7841 9.12345 22.6733 9.17397 22.5513C9.22449 22.4293 9.2505 22.2986 9.2505 22.1666C9.2505 22.0346 9.22449 21.9039 9.17397 21.7819C9.12345 21.6599 9.0494 21.5491 8.95604 21.4557L8.29448 20.7942C8.20113 20.7008 8.12708 20.59 8.07655 20.468C8.02603 20.3461 8.00003 20.2153 8.00003 20.0833C8.00003 19.9513 8.02603 19.8206 8.07655 19.6986C8.12708 19.5767 8.20113 19.4658 8.29448 19.3725L8.95608 18.7109C9.14461 18.5223 9.25052 18.2666 9.25052 18C9.25052 17.7334 9.14461 17.4777 8.95608 17.2892L8.29448 16.6276C8.10595 16.439 8.00004 16.1833 8.00004 15.9167C8.00004 15.6501 8.10595 15.3944 8.29448 15.2059L8.95604 14.5443C9.14457 14.3558 9.25049 14.1001 9.25049 13.8335C9.25049 13.5669 9.14457 13.3111 8.95604 13.1226L8.29444 12.461C8.10591 12.2725 8 12.0168 8 11.7501C8 11.4835 8.10591 11.2278 8.29444 11.0393L11.0393 8.29444C11.2278 8.10591 11.4835 8 11.7501 8C12.0168 8 12.2725 8.10591 12.461 8.29444L13.1226 8.95601C13.3111 9.14454 13.5668 9.25045 13.8334 9.25045C14.1 9.25045 14.3558 9.14454 14.5443 8.95601L15.2059 8.29444C15.3944 8.10591 15.6501 8 15.9167 8C16.1833 8 16.439 8.10591 16.6276 8.29444L17.2891 8.95601C17.4777 9.14454 17.7334 9.25045 18 9.25045C18.2666 9.25045 18.5223 9.14454 18.7108 8.95601L19.3724 8.29444C19.5609 8.10591 19.8166 8 20.0833 8C20.3499 8 20.6056 8.10591 20.7941 8.29444L21.4557 8.95601C21.6442 9.14454 21.8999 9.25045 22.1666 9.25045C22.4332 9.25045 22.6889 9.14454 22.8774 8.95601L23.539 8.29444C23.7275 8.10591 23.9832 8 24.2498 8C24.5165 8 24.7721 8.10591 24.9607 8.29444L27.7055 11.0391C27.7988 11.1325 27.8729 11.2433 27.9234 11.3653C27.9739 11.4872 28 11.618 28 11.75C28 11.882 27.9739 12.0127 27.9234 12.1347C27.8729 12.2566 27.7988 12.3675 27.7055 12.4608L27.0439 13.1224C26.9506 13.2158 26.8765 13.3266 26.826 13.4485C26.7755 13.5705 26.7495 13.7012 26.7495 13.8333C26.7495 13.9653 26.7755 14.096 26.826 14.218C26.8765 14.3399 26.9506 14.4507 27.0439 14.5441L27.7055 15.2056C27.894 15.3941 27.9999 15.6498 27.9999 15.9164C27.9999 16.183 27.894 16.4387 27.7055 16.6273L27.0439 17.2888C26.8554 17.4774 26.7495 17.7331 26.7495 17.9997C26.7495 18.2663 26.8554 18.522 27.0439 18.7105L27.7055 19.3722C27.8941 19.5607 28 19.8164 28 20.083C28 20.3496 27.8941 20.6054 27.7055 20.7939L27.044 21.4554C26.8554 21.6439 26.7495 21.8996 26.7495 22.1663C26.7495 22.4329 26.8554 22.6886 27.044 22.8771L27.7056 23.5387C27.8941 23.7273 28 23.983 28 24.2496C28 24.5162 27.8941 24.7719 27.7056 24.9605L26.3331 26.3328L24.9607 27.7056C24.7722 27.8941 24.5165 28 24.2499 28C23.9833 28 23.7275 27.8941 23.539 27.7056Z" fill="white"/>
</svg>
