<svg width="36" height="36" viewBox="0 0 36 36" fill="none" xmlns="http://www.w3.org/2000/svg">
<path d="M27.9702 35.47L26.7795 34.2789C26.4401 33.9396 25.9799 33.7489 25.4999 33.7489C25.02 33.7489 24.5598 33.9396 24.2204 34.2789L23.0295 35.47C22.6902 35.8094 22.2299 36 21.7499 36C21.2701 36 20.8098 35.8094 20.4704 35.47L19.2796 34.2792C18.9402 33.9398 18.48 33.7492 18.0001 33.7492C17.5201 33.7492 17.0598 33.9398 16.7205 34.2792L15.5297 35.47C15.1904 35.8094 14.7301 36 14.2501 36C13.7703 36 13.31 35.8094 12.9706 35.47L11.7798 34.2792C11.4404 33.9398 10.9802 33.7492 10.5003 33.7492C10.0203 33.7492 9.56002 33.9398 9.22067 34.2792L8.02989 35.47C7.69055 35.8094 7.23025 36 6.75032 36C6.27041 36 5.81015 35.8094 5.47078 35.47L0.53007 30.5293C0.190718 30.19 7.25097e-05 29.7297 7.25097e-05 29.2497C7.25097e-05 28.7699 0.190718 28.3096 0.53007 27.9702L1.72088 26.7794C1.88891 26.6114 2.02221 26.4119 2.11315 26.1923C2.20409 25.9728 2.2509 25.7375 2.2509 25.4999C2.2509 25.2623 2.20409 25.0269 2.11315 24.8074C2.02221 24.5879 1.88891 24.3884 1.72088 24.2203L0.53007 23.0295C0.362033 22.8614 0.228738 22.662 0.137797 22.4424C0.0468558 22.2229 4.88892e-05 21.9876 4.88892e-05 21.75C4.88892e-05 21.5123 0.0468558 21.277 0.137797 21.0575C0.228738 20.838 0.362033 20.6385 0.53007 20.4705L1.72095 19.2795C2.0603 18.9402 2.25094 18.48 2.25094 18C2.25094 17.5202 2.0603 17.0599 1.72095 16.7205L0.53007 15.5297C0.190718 15.1903 7.25097e-05 14.73 7.25097e-05 14.2501C7.25097e-05 13.7701 0.190718 13.3099 0.53007 12.9706L1.72088 11.7798C2.06023 11.4404 2.25088 10.9802 2.25088 10.5003C2.25088 10.0203 2.06023 9.56004 1.72088 9.22069L0.529998 8.02985C0.190646 7.69043 0 7.2302 0 6.75026C0 6.27035 0.190646 5.81008 0.529998 5.47072L5.47071 0.529998C5.81007 0.190646 6.27034 0 6.75025 0C7.23019 0 7.69042 0.190646 8.02983 0.529998L9.22061 1.72081C9.55996 2.06016 10.0203 2.25081 10.5002 2.25081C10.9801 2.25081 11.4404 2.06016 11.7797 1.72081L12.9705 0.529998C13.3099 0.190646 13.7701 0 14.2501 0C14.73 0 15.1902 0.190646 15.5296 0.529998L16.7204 1.72081C17.0598 2.06016 17.5201 2.25081 18 2.25081C18.4799 2.25081 18.9402 2.06016 19.2795 1.72081L20.4704 0.529998C20.8097 0.190646 21.2699 0 21.7499 0C22.2298 0 22.69 0.190646 23.0295 0.529998L24.2202 1.72081C24.5596 2.06016 25.0199 2.25081 25.4998 2.25081C25.9797 2.25081 26.44 2.06016 26.7793 1.72081L27.9702 0.529998C28.3095 0.190646 28.7697 0 29.2497 0C29.7296 0 30.1899 0.190646 30.5293 0.529998L35.4699 5.47044C35.6379 5.63846 35.7712 5.83793 35.8622 6.05747C35.9531 6.27701 35.9999 6.51235 35.9999 6.74995C35.9999 6.98755 35.9531 7.22288 35.8622 7.44241C35.7712 7.66195 35.6379 7.86147 35.4699 8.02947L34.2791 9.22037C34.111 9.38837 33.9777 9.58783 33.8868 9.80736C33.7959 10.0269 33.7491 10.2622 33.7491 10.4999C33.7491 10.7375 33.7959 10.9728 33.8868 11.1924C33.9777 11.4119 34.111 11.6113 34.2791 11.7793L35.4699 12.97C35.8093 13.3093 35.9999 13.7696 35.9999 14.2495C35.9999 14.7295 35.8093 15.1897 35.4699 15.5291L34.2791 16.7199C33.9397 17.0592 33.7491 17.5195 33.7491 17.9995C33.7491 18.4793 33.9397 18.9396 34.2791 19.279L35.47 20.4699C35.8093 20.8092 35.9999 21.2695 35.9999 21.7494C35.9999 22.2293 35.8093 22.6896 35.47 23.029L34.2791 24.2197C33.9398 24.5591 33.7492 25.0193 33.7492 25.4993C33.7492 25.9792 33.9398 26.4395 34.2791 26.7788L35.47 27.9697C35.8094 28.3091 36 28.7694 36 29.2492C36 29.7292 35.8094 30.1894 35.47 30.5288L32.9996 32.9991L30.5293 35.47C30.19 35.8094 29.7297 36 29.2497 36C28.7699 36 28.3096 35.8094 27.9702 35.47Z" fill="#2C7C73"/>
<g clip-path="url(#clip0_481_3703)">
<path d="M13.4297 11.3203V9.6492L14.6949 11.4813C14.8087 11.6458 14.9989 11.7156 15.1796 11.6592C15.3637 11.6017 15.4827 11.4299 15.4827 11.2178L15.4553 8.38685C15.4532 8.17115 15.2766 7.99795 15.0609 8.00002C14.8452 8.00209 14.672 8.17869 14.6741 8.39439L14.6905 10.1001L13.3605 8.17416C13.1427 7.85881 12.6484 8.01291 12.6484 8.39611V11.3203C12.6484 11.5361 12.8233 11.711 13.0391 11.711C13.2548 11.711 13.4297 11.5361 13.4297 11.3203Z" fill="white"/>
<path d="M20.908 11.711C21.1237 11.711 21.2986 11.5361 21.2986 11.3203V9.6492L22.5638 11.4813C22.6776 11.6458 22.8678 11.7156 23.0485 11.6592C23.2326 11.6017 23.3516 11.4299 23.3516 11.2178L23.3242 8.38685C23.3221 8.17115 23.1455 7.99795 22.9298 8.00002C22.7141 8.00209 22.5409 8.17869 22.543 8.39439L22.5594 10.1001L21.2294 8.17416C21.0117 7.85885 20.5173 8.01295 20.5173 8.39615V11.3203C20.5173 11.5361 20.6922 11.711 20.908 11.711Z" fill="white"/>
<path d="M18 11.7109C19.0231 11.7109 19.8555 10.8786 19.8555 9.85547C19.8555 8.83238 19.0231 8 18 8C16.9769 8 16.1445 8.83238 16.1445 9.85547C16.1445 10.8786 16.9769 11.7109 18 11.7109ZM18 8.78125C18.5923 8.78125 19.0742 9.26313 19.0742 9.85547C19.0742 10.4478 18.5923 10.9297 18 10.9297C17.4077 10.9297 16.9258 10.4478 16.9258 9.85547C16.9258 9.26313 17.4077 8.78125 18 8.78125Z" fill="white"/>
<path d="M21.0469 12.4922C20.8311 12.4922 20.6562 12.6671 20.6562 12.8828V15.8125C20.6562 16.0282 20.8311 16.2031 21.0469 16.2031C21.2626 16.2031 21.4375 16.0282 21.4375 15.8125V12.8828C21.4375 12.6671 21.2626 12.4922 21.0469 12.4922Z" fill="white"/>
<path d="M25.0479 15.0996C24.8826 14.961 24.6362 14.9827 24.4976 15.1479C24.4728 15.1775 24.4461 15.205 24.4182 15.2299C24.2752 15.3573 24.0921 15.4219 23.874 15.4219C23.2817 15.4219 22.7998 14.94 22.7998 14.3477C22.7998 13.7553 23.2817 13.2734 23.874 13.2734C24.0893 13.2734 24.2969 13.3368 24.4743 13.4566C24.6531 13.5774 24.8959 13.5304 25.0167 13.3516C25.1375 13.1729 25.0904 12.9301 24.9117 12.8093C24.6046 12.6018 24.2458 12.4922 23.874 12.4922C22.8509 12.4922 22.0186 13.3246 22.0186 14.3477C22.0186 15.3707 22.8509 16.2031 23.874 16.2031C24.2836 16.2031 24.6514 16.0684 24.9378 15.8133C24.9939 15.7634 25.0471 15.7084 25.0961 15.65C25.2348 15.4846 25.2132 15.2383 25.0479 15.0996Z" fill="white"/>
<path d="M19.1034 14.2438L19.9037 13.1078C20.028 12.9314 19.9857 12.6878 19.8093 12.5635C19.633 12.4393 19.3893 12.4815 19.265 12.6579L18.626 13.565L17.988 12.6581C17.8638 12.4816 17.6202 12.4392 17.4437 12.5634C17.2673 12.6875 17.2249 12.9312 17.349 13.1076L18.1481 14.2435L17.2012 15.5876C17.0769 15.7639 17.1192 16.0076 17.2956 16.1319C17.4719 16.2561 17.7156 16.2139 17.8399 16.0375L18.6255 14.9222L19.41 16.0373C19.5341 16.2137 19.7777 16.2561 19.9542 16.132C20.1306 16.0079 20.173 15.7642 20.0489 15.5878L19.1034 14.2438Z" fill="white"/>
<path d="M12.5086 12.4922H10.8906C10.6749 12.4922 10.5 12.6671 10.5 12.8828C10.5 13.0986 10.6749 13.2734 10.8906 13.2734H11.3057V15.8125C11.3057 16.0282 11.4806 16.2031 11.6963 16.2031C11.9121 16.2031 12.087 16.0282 12.087 15.8125V13.2734H12.5086C12.7243 13.2734 12.8992 13.0986 12.8992 12.8828C12.8992 12.6671 12.7243 12.4922 12.5086 12.4922Z" fill="white"/>
<path d="M15.0117 12.4922C13.9886 12.4922 13.1562 13.3246 13.1562 14.3477C13.1562 15.3707 13.9886 16.2031 15.0117 16.2031C16.0348 16.2031 16.8672 15.3707 16.8672 14.3477C16.8672 13.3246 16.0348 12.4922 15.0117 12.4922ZM15.0117 15.4219C14.4194 15.4219 13.9375 14.94 13.9375 14.3477C13.9375 13.7553 14.4194 13.2734 15.0117 13.2734C15.6041 13.2734 16.0859 13.7553 16.0859 14.3477C16.0859 14.94 15.6041 15.4219 15.0117 15.4219Z" fill="white"/>
<path d="M13.1774 23.3856C12.9486 23.1568 12.9486 22.7858 13.1774 22.557C13.4062 22.3281 13.7772 22.3281 14.0061 22.557L18.6858 27.2367C18.8309 26.8269 19.0334 26.1271 19.0927 25.2839C19.2185 23.4928 18.6409 21.9021 17.4224 20.6835L17.4172 20.6783L17.4119 20.6733C16.0511 19.3786 14.7133 18.8274 13.5329 18.3411C12.2311 17.8048 11.1069 17.3415 10.091 16.0047L10.0909 16.0046C9.83228 15.6642 9.30794 15.7065 9.1072 16.084L9.10716 16.084C9.077 16.1407 8.36611 17.493 8.12075 19.3258C7.78923 21.8027 8.47079 23.9687 10.0918 25.5897C12.5801 28.0779 16.6597 28.0435 17.7746 27.9828L13.1774 23.3856Z" fill="white"/>
<path d="M27.8793 19.3258C27.634 17.493 26.9231 16.1407 26.8929 16.084L26.8929 16.084C26.6921 15.7065 26.1678 15.6642 25.9091 16.0046L25.9091 16.0047C24.8932 17.3415 23.769 17.8048 22.4671 18.3411C21.3492 18.8017 20.0899 19.321 18.8037 20.4746C19.6737 21.5703 20.1689 22.8638 20.2644 24.2866L21.994 22.557C22.2228 22.3281 22.5938 22.3281 22.8227 22.557C23.0515 22.7858 23.0515 23.1568 22.8227 23.3856L20.1898 26.0184C20.0489 26.9612 19.7818 27.6774 19.6559 27.9787C21.3952 27.8837 24.0809 27.4171 25.9083 25.5896C27.5293 23.9687 28.2109 21.8027 27.8793 19.3258Z" fill="white"/>
</g>
<defs>
<clipPath id="clip0_481_3703">
<rect width="20" height="20" fill="white" transform="translate(8 8)"/>
</clipPath>
</defs>
</svg>
