<svg width="36" height="36" viewBox="0 0 36 36" fill="none" xmlns="http://www.w3.org/2000/svg">
<path d="M27.9702 35.47L26.7795 34.2789C26.4401 33.9396 25.9799 33.7489 25.4999 33.7489C25.02 33.7489 24.5598 33.9396 24.2204 34.2789L23.0295 35.47C22.6902 35.8094 22.2299 36 21.7499 36C21.2701 36 20.8098 35.8094 20.4704 35.47L19.2796 34.2792C18.9402 33.9398 18.48 33.7492 18.0001 33.7492C17.5201 33.7492 17.0598 33.9398 16.7205 34.2792L15.5297 35.47C15.1904 35.8094 14.7301 36 14.2501 36C13.7703 36 13.31 35.8094 12.9706 35.47L11.7798 34.2792C11.4404 33.9398 10.9802 33.7492 10.5003 33.7492C10.0203 33.7492 9.56002 33.9398 9.22067 34.2792L8.02989 35.47C7.69055 35.8094 7.23025 36 6.75032 36C6.27041 36 5.81015 35.8094 5.47078 35.47L0.53007 30.5293C0.190718 30.19 7.25097e-05 29.7297 7.25097e-05 29.2497C7.25097e-05 28.7699 0.190718 28.3096 0.53007 27.9702L1.72088 26.7794C1.88891 26.6114 2.02221 26.4119 2.11315 26.1923C2.20409 25.9728 2.2509 25.7375 2.2509 25.4999C2.2509 25.2623 2.20409 25.0269 2.11315 24.8074C2.02221 24.5879 1.88891 24.3884 1.72088 24.2203L0.53007 23.0295C0.362033 22.8614 0.228738 22.662 0.137797 22.4424C0.0468558 22.2229 4.88892e-05 21.9876 4.88892e-05 21.75C4.88892e-05 21.5123 0.0468558 21.277 0.137797 21.0575C0.228738 20.838 0.362033 20.6385 0.53007 20.4705L1.72095 19.2795C2.0603 18.9402 2.25094 18.48 2.25094 18C2.25094 17.5202 2.0603 17.0599 1.72095 16.7205L0.53007 15.5297C0.190718 15.1903 7.25097e-05 14.73 7.25097e-05 14.2501C7.25097e-05 13.7701 0.190718 13.3099 0.53007 12.9706L1.72088 11.7798C2.06023 11.4404 2.25088 10.9802 2.25088 10.5003C2.25088 10.0203 2.06023 9.56004 1.72088 9.22069L0.529998 8.02985C0.190646 7.69043 0 7.2302 0 6.75026C0 6.27035 0.190646 5.81008 0.529998 5.47072L5.47071 0.529998C5.81007 0.190646 6.27034 0 6.75025 0C7.23019 0 7.69042 0.190646 8.02983 0.529998L9.22061 1.72081C9.55996 2.06016 10.0203 2.25081 10.5002 2.25081C10.9801 2.25081 11.4404 2.06016 11.7797 1.72081L12.9705 0.529998C13.3099 0.190646 13.7701 0 14.2501 0C14.73 0 15.1902 0.190646 15.5296 0.529998L16.7204 1.72081C17.0598 2.06016 17.5201 2.25081 18 2.25081C18.4799 2.25081 18.9402 2.06016 19.2795 1.72081L20.4704 0.529998C20.8097 0.190646 21.2699 0 21.7499 0C22.2298 0 22.69 0.190646 23.0295 0.529998L24.2202 1.72081C24.5596 2.06016 25.0199 2.25081 25.4998 2.25081C25.9797 2.25081 26.44 2.06016 26.7793 1.72081L27.9702 0.529998C28.3095 0.190646 28.7697 0 29.2497 0C29.7296 0 30.1899 0.190646 30.5293 0.529998L35.4699 5.47044C35.6379 5.63846 35.7712 5.83793 35.8622 6.05747C35.9531 6.27701 35.9999 6.51235 35.9999 6.74995C35.9999 6.98755 35.9531 7.22288 35.8622 7.44241C35.7712 7.66195 35.6379 7.86147 35.4699 8.02947L34.2791 9.22037C34.111 9.38837 33.9777 9.58783 33.8868 9.80736C33.7959 10.0269 33.7491 10.2622 33.7491 10.4999C33.7491 10.7375 33.7959 10.9728 33.8868 11.1924C33.9777 11.4119 34.111 11.6113 34.2791 11.7793L35.4699 12.97C35.8093 13.3093 35.9999 13.7696 35.9999 14.2495C35.9999 14.7295 35.8093 15.1897 35.4699 15.5291L34.2791 16.7199C33.9397 17.0592 33.7491 17.5195 33.7491 17.9995C33.7491 18.4793 33.9397 18.9396 34.2791 19.279L35.47 20.4699C35.8093 20.8092 35.9999 21.2695 35.9999 21.7494C35.9999 22.2293 35.8093 22.6896 35.47 23.029L34.2791 24.2197C33.9398 24.5591 33.7492 25.0193 33.7492 25.4993C33.7492 25.9792 33.9398 26.4395 34.2791 26.7788L35.47 27.9697C35.8094 28.3091 36 28.7694 36 29.2492C36 29.7292 35.8094 30.1894 35.47 30.5288L32.9996 32.9991L30.5293 35.47C30.19 35.8094 29.7297 36 29.2497 36C28.7699 36 28.3096 35.8094 27.9702 35.47Z" fill="#2C7C73"/>
<g clip-path="url(#clip0_481_3726)">
<path d="M17.4531 11.0078L15.1094 12.7656H17.4531V11.0078Z" fill="white"/>
<path d="M13.9375 9.28516V12.1797L16.586 10.1876C15.8944 9.74216 15.0155 9.379 13.9375 9.28516Z" fill="white"/>
<path d="M17.4531 15.6953V13.9375H15.1094L17.4531 15.6953Z" fill="white"/>
<path d="M12.7656 9.28516C11.8515 9.39059 11.0078 9.76566 10.3047 10.3281L12.7656 12.1797V9.28516Z" fill="white"/>
<path d="M13.9375 14.5234V16.2812H16.2812L13.9375 14.5234Z" fill="white"/>
<path d="M22.6679 9.25C20.828 9.25 19.4803 10.0352 18.6249 10.7617V16.8672C18.6249 16.9534 18.6234 17.0448 18.5078 17.2188C18.4077 17.3686 18.2055 17.4531 18.039 17.4531H8.39453C9.13275 19.9844 11.4179 23.4297 17.7343 26.6992C17.8164 26.746 17.9101 26.7695 18.0038 26.7695C18.0976 26.7695 18.1913 26.746 18.2734 26.6992C26.6756 22.3515 27.9999 17.6875 27.9999 15.2852C27.9999 11.9101 25.6209 9.25 22.6679 9.25ZM16.2812 20.9688H15.6953V21.5547C15.6953 21.8828 15.4375 22.1406 15.1093 22.1406C14.7811 22.1406 14.5234 21.8828 14.5234 21.5547V20.9688H13.9374C13.6092 20.9688 13.3515 20.7109 13.3515 20.3828C13.3515 20.0546 13.6092 19.7969 13.9374 19.7969H14.5234V19.2109C14.5234 18.8827 14.7811 18.625 15.1093 18.625C15.4375 18.625 15.6953 18.8827 15.6953 19.2109V19.7969H16.2812C16.6094 19.7969 16.8671 20.0546 16.8671 20.3828C16.8671 20.7109 16.6094 20.9688 16.2812 20.9688ZM22.1406 20.9688H21.5546V21.5547C21.5546 21.8828 21.2969 22.1406 20.9687 22.1406C20.6405 22.1406 20.3828 21.8828 20.3828 21.5547V20.9688H19.7968C19.4686 20.9688 19.2109 20.7109 19.2109 20.3828C19.2109 20.0546 19.4686 19.7969 19.7968 19.7969H20.3828V19.2109C20.3828 18.8827 20.6405 18.625 20.9687 18.625C21.2969 18.625 21.5546 18.8827 21.5546 19.2109V19.7969H22.1406C22.4688 19.7969 22.7265 20.0546 22.7265 20.3828C22.7265 20.7109 22.4688 20.9688 22.1406 20.9688ZM23.8984 15.1094H23.3124V15.6953C23.3124 16.0234 23.0547 16.2812 22.7265 16.2812C22.3983 16.2812 22.1406 16.0234 22.1406 15.6953V15.1094H21.5546C21.2264 15.1094 20.9687 14.8515 20.9687 14.5234C20.9687 14.1952 21.2264 13.9375 21.5546 13.9375H22.1406V13.3516C22.1406 13.0233 22.3983 12.7656 22.7265 12.7656C23.0547 12.7656 23.3124 13.0233 23.3124 13.3516V13.9375H23.8984C24.2266 13.9375 24.4843 14.1952 24.4843 14.5234C24.4843 14.8515 24.2266 15.1094 23.8984 15.1094Z" fill="white"/>
<path d="M11.5938 13.9375H8.12894C8.04684 14.3712 8 14.8164 8 15.2852C8 15.5781 8.0235 15.9179 8.07034 16.2812H8.46494L11.5938 13.9375Z" fill="white"/>
<path d="M12.7656 16.2812V14.5234L10.4219 16.2812H12.7656Z" fill="white"/>
<path d="M9.47263 11.1719C9.08597 11.6289 8.7695 12.168 8.54688 12.7657H11.5938L9.47263 11.1719Z" fill="white"/>
</g>
<defs>
<clipPath id="clip0_481_3726">
<rect width="20" height="20" fill="white" transform="translate(8 8)"/>
</clipPath>
</defs>
</svg>
