<svg width="36" height="36" viewBox="0 0 36 36" fill="none" xmlns="http://www.w3.org/2000/svg">
<path d="M27.9702 35.47L26.7795 34.2789C26.4401 33.9396 25.9799 33.7489 25.4999 33.7489C25.02 33.7489 24.5598 33.9396 24.2204 34.2789L23.0295 35.47C22.6902 35.8094 22.2299 36 21.7499 36C21.2701 36 20.8098 35.8094 20.4704 35.47L19.2796 34.2792C18.9402 33.9398 18.48 33.7492 18.0001 33.7492C17.5201 33.7492 17.0598 33.9398 16.7205 34.2792L15.5297 35.47C15.1904 35.8094 14.7301 36 14.2501 36C13.7703 36 13.31 35.8094 12.9706 35.47L11.7798 34.2792C11.4404 33.9398 10.9802 33.7492 10.5003 33.7492C10.0203 33.7492 9.56002 33.9398 9.22067 34.2792L8.02989 35.47C7.69055 35.8094 7.23025 36 6.75032 36C6.27041 36 5.81015 35.8094 5.47078 35.47L0.53007 30.5293C0.190718 30.19 7.25097e-05 29.7297 7.25097e-05 29.2497C7.25097e-05 28.7699 0.190718 28.3096 0.53007 27.9702L1.72088 26.7794C1.88891 26.6114 2.02221 26.4119 2.11315 26.1923C2.20409 25.9728 2.2509 25.7375 2.2509 25.4999C2.2509 25.2623 2.20409 25.0269 2.11315 24.8074C2.02221 24.5879 1.88891 24.3884 1.72088 24.2203L0.53007 23.0295C0.362033 22.8614 0.228738 22.662 0.137797 22.4424C0.0468558 22.2229 4.88892e-05 21.9876 4.88892e-05 21.75C4.88892e-05 21.5123 0.0468558 21.277 0.137797 21.0575C0.228738 20.838 0.362033 20.6385 0.53007 20.4705L1.72095 19.2795C2.0603 18.9402 2.25094 18.48 2.25094 18C2.25094 17.5202 2.0603 17.0599 1.72095 16.7205L0.53007 15.5297C0.190718 15.1903 7.25097e-05 14.73 7.25097e-05 14.2501C7.25097e-05 13.7701 0.190718 13.3099 0.53007 12.9706L1.72088 11.7798C2.06023 11.4404 2.25088 10.9802 2.25088 10.5003C2.25088 10.0203 2.06023 9.56004 1.72088 9.22069L0.529998 8.02985C0.190646 7.69043 0 7.2302 0 6.75026C0 6.27035 0.190646 5.81008 0.529998 5.47072L5.47071 0.529998C5.81007 0.190646 6.27034 0 6.75025 0C7.23019 0 7.69042 0.190646 8.02983 0.529998L9.22061 1.72081C9.55996 2.06016 10.0203 2.25081 10.5002 2.25081C10.9801 2.25081 11.4404 2.06016 11.7797 1.72081L12.9705 0.529998C13.3099 0.190646 13.7701 0 14.2501 0C14.73 0 15.1902 0.190646 15.5296 0.529998L16.7204 1.72081C17.0598 2.06016 17.5201 2.25081 18 2.25081C18.4799 2.25081 18.9402 2.06016 19.2795 1.72081L20.4704 0.529998C20.8097 0.190646 21.2699 0 21.7499 0C22.2298 0 22.69 0.190646 23.0295 0.529998L24.2202 1.72081C24.5596 2.06016 25.0199 2.25081 25.4998 2.25081C25.9797 2.25081 26.44 2.06016 26.7793 1.72081L27.9702 0.529998C28.3095 0.190646 28.7697 0 29.2497 0C29.7296 0 30.1899 0.190646 30.5293 0.529998L35.4699 5.47044C35.6379 5.63846 35.7712 5.83793 35.8622 6.05747C35.9531 6.27701 35.9999 6.51235 35.9999 6.74995C35.9999 6.98755 35.9531 7.22288 35.8622 7.44241C35.7712 7.66195 35.6379 7.86147 35.4699 8.02947L34.2791 9.22037C34.111 9.38837 33.9777 9.58783 33.8868 9.80736C33.7959 10.0269 33.7491 10.2622 33.7491 10.4999C33.7491 10.7375 33.7959 10.9728 33.8868 11.1924C33.9777 11.4119 34.111 11.6113 34.2791 11.7793L35.4699 12.97C35.8093 13.3093 35.9999 13.7696 35.9999 14.2495C35.9999 14.7295 35.8093 15.1897 35.4699 15.5291L34.2791 16.7199C33.9397 17.0592 33.7491 17.5195 33.7491 17.9995C33.7491 18.4793 33.9397 18.9396 34.2791 19.279L35.47 20.4699C35.8093 20.8092 35.9999 21.2695 35.9999 21.7494C35.9999 22.2293 35.8093 22.6896 35.47 23.029L34.2791 24.2197C33.9398 24.5591 33.7492 25.0193 33.7492 25.4993C33.7492 25.9792 33.9398 26.4395 34.2791 26.7788L35.47 27.9697C35.8094 28.3091 36 28.7694 36 29.2492C36 29.7292 35.8094 30.1894 35.47 30.5288L32.9996 32.9991L30.5293 35.47C30.19 35.8094 29.7297 36 29.2497 36C28.7699 36 28.3096 35.8094 27.9702 35.47Z" fill="#2C7C73"/>
<g clip-path="url(#clip0_481_3740)">
<path d="M18.2964 20.3012C20.5705 20.3012 22.414 18.4577 22.414 16.1836C22.414 13.9094 18.2964 10.0071 18.2964 10.0071C18.2964 10.0071 14.1787 13.9094 14.1787 16.1836C14.1787 18.4577 16.0222 20.3012 18.2964 20.3012Z" fill="white"/>
<path d="M13.4219 25.993H15.3542L15.9609 23.5662C15.3507 23.435 14.7512 23.2524 14.1657 23.0178L13.4219 25.993Z" fill="white"/>
<path d="M10.2471 25.9936H12.2093L13.044 22.6545H11.0819L10.2471 25.9936Z" fill="white"/>
<path d="M17.1275 23.7522L16.5674 25.9927H18.4962L19.0475 23.7879C18.7984 23.8048 18.5486 23.8136 18.2985 23.8136C17.9051 23.8136 17.5146 23.7928 17.1275 23.7522Z" fill="white"/>
<path d="M22.8623 25.9936H24.8443L25.6791 22.6545H23.697L22.8623 25.9936Z" fill="white"/>
<path d="M8 25.9936H9.03431L9.86906 22.6545H8V25.9936Z" fill="white"/>
<path d="M19.708 25.9933H21.6492L22.3891 23.0334C21.7135 23.3003 21.0126 23.5006 20.2985 23.6315L19.708 25.9933Z" fill="white"/>
<path d="M26.8914 22.6545L26.0566 25.9936H27.9997V22.6545H26.8914Z" fill="white"/>
<path d="M13.5023 21.4277C14.9641 22.2301 16.6181 22.6543 18.2856 22.6543C19.9531 22.6543 21.6072 22.2301 23.0689 21.4277C24.5307 20.6253 25.7765 19.4576 26.6718 18.0508L27.9085 16.1074L26.9159 15.4758L25.6792 17.4192C24.062 19.9606 21.298 21.4778 18.2856 21.4778C15.2733 21.4778 12.5093 19.9606 10.8921 17.4192L10.4449 16.7165L11.841 17.006L12.0798 15.8541L8.71121 15.1555L8.0127 18.5241L9.16466 18.763L9.45666 17.3548L9.89952 18.0508C10.7948 19.4576 12.0406 20.6253 13.5023 21.4277Z" fill="white"/>
</g>
<defs>
<clipPath id="clip0_481_3740">
<rect width="20" height="20" fill="white" transform="translate(8 8)"/>
</clipPath>
</defs>
</svg>
