<svg width="104" height="19" viewBox="0 0 104 19" fill="none" xmlns="http://www.w3.org/2000/svg">
<path d="M18.7771 0H0.281494V18.4956H18.7771V0Z" fill="#00B67E"/>
<path d="M9.52817 2.05566L11.3881 6.68804L16.3686 7.02571L12.5385 10.2264L13.7556 15.0674L9.52817 12.4132L5.30076 15.0674L6.51882 10.2264L2.68774 7.02571L7.66823 6.68804L9.52817 2.05566Z" fill="white"/>
<path d="M40.0114 0.000976562H21.5159V18.4965H40.0114V0.000976562Z" fill="#00B67E"/>
<path d="M30.7626 2.05566L32.6225 6.68804L37.603 7.02571L33.7719 10.2264L34.99 15.0674L30.7626 12.4132L26.5351 15.0674L27.7522 10.2264L23.9221 7.02571L28.9026 6.68804L30.7626 2.05566Z" fill="white"/>
<path d="M61.2477 0.000976562H42.7522V18.4965H61.2477V0.000976562Z" fill="#00B67E"/>
<path d="M52.0008 2.05566L53.8608 6.68804L58.8413 7.02571L55.0112 10.2264L56.2283 15.0674L52.0008 12.4132L47.7734 15.0674L48.9905 10.2264L45.1604 7.02571L50.1409 6.68804L52.0008 2.05566Z" fill="white"/>
<path d="M82.4841 0H63.9885V18.4956H82.4841V0Z" fill="#00B67E"/>
<path d="M73.2352 2.05566L75.0952 6.68804L80.0756 7.02571L76.2446 10.2264L77.4626 15.0674L73.2352 12.4132L69.0068 15.0674L70.2249 10.2264L66.3948 7.02571L71.3743 6.68804L73.2352 2.05566Z" fill="white"/>
<path d="M103.718 0.000976562H85.2229V18.4965H103.718V0.000976562Z" fill="url(#paint0_linear_273_55)"/>
<path d="M94.4706 2.05566L96.3305 6.68804L101.311 7.02571L97.4799 10.2264L98.698 15.0674L94.4706 12.4132L90.2422 15.0674L91.4602 10.2264L87.6292 7.02571L92.6096 6.68804L94.4706 2.05566Z" fill="white"/>
<defs>
<linearGradient id="paint0_linear_273_55" x1="104" y1="8.88806" x2="85" y2="8.88806" gradientUnits="userSpaceOnUse">
<stop offset="0.425" stop-color="#DCDCE6"/>
<stop offset="0.4251" stop-color="#00B67E"/>
</linearGradient>
</defs>
</svg>
