<svg width="32" height="32" viewBox="0 0 32 32" fill="none" xmlns="http://www.w3.org/2000/svg">
<rect width="32" height="32"/>
<path d="M15.9576 13.3683C17.7593 13.3683 19.2199 11.9078 19.2199 10.106C19.2199 8.30433 17.7593 6.84375 15.9576 6.84375C14.1559 6.84375 12.6953 8.30433 12.6953 10.106C12.6953 11.9078 14.1559 13.3683 15.9576 13.3683Z" fill="#B5A6F2"/>
<path d="M15.9563 13.9721C13.8257 13.9721 12.0898 12.2362 12.0898 10.1057C12.0898 7.97512 13.8257 6.23926 15.9563 6.23926C18.0868 6.23926 19.8227 7.97512 19.8227 10.1057C19.8227 12.2362 18.0868 13.9721 15.9563 13.9721ZM15.9563 7.44751C14.4902 7.44751 13.2981 8.63966 13.2981 10.1057C13.2981 11.5717 14.4902 12.7638 15.9563 12.7638C17.4223 12.7638 18.6144 11.5717 18.6144 10.1057C18.6144 8.63966 17.4223 7.44751 15.9563 7.44751Z" fill="#2E168D"/>
<path d="M15.958 25.1002C19.1277 25.1002 21.6972 22.4748 21.6972 19.2361C21.6972 15.9975 19.1277 13.3721 15.958 13.3721C12.7883 13.3721 10.2188 15.9975 10.2188 19.2361C10.2188 22.4748 12.7883 25.1002 15.958 25.1002Z" fill="#B5A6F2"/>
<path d="M15.9566 25.704C12.4567 25.704 9.61328 22.8001 9.61328 19.2358C9.61328 15.6714 12.4607 12.7676 15.9566 12.7676C19.4525 12.7676 22.3 15.6714 22.3 19.2358C22.3 22.8001 19.4525 25.704 15.9566 25.704ZM15.9566 13.9718C13.1253 13.9718 10.8215 16.3319 10.8215 19.2318C10.8215 22.1316 13.1253 24.4917 15.9566 24.4917C18.788 24.4917 21.0917 22.1316 21.0917 19.2318C21.0917 16.3319 18.788 13.9718 15.9566 13.9718Z" fill="#2E168D"/>
<path d="M17.1094 13.4603L22.9211 9.80328C24.7737 8.63933 27.1822 9.96841 27.1822 12.1554C27.1822 13.9194 25.5591 15.2404 23.8313 14.8739L17.1094 13.4603Z" fill="white"/>
<path d="M24.4076 15.5391C24.174 15.5391 23.9404 15.515 23.7068 15.4666L16.9849 14.053C16.7433 14.0006 16.558 13.8113 16.5137 13.5697C16.4694 13.328 16.5781 13.0824 16.7876 12.9535L22.5993 9.29648C23.6585 8.63194 24.9433 8.59569 26.0388 9.19579C27.1343 9.79992 27.7867 10.9075 27.7867 12.1601C27.7867 13.183 27.3316 14.1416 26.5342 14.786C25.922 15.2814 25.1729 15.5432 24.4076 15.5432V15.5391ZM18.6966 13.179L23.9565 14.2866C24.601 14.4235 25.2655 14.2624 25.777 13.8476C26.2885 13.4327 26.5825 12.8165 26.5825 12.156C26.5825 11.3505 26.1636 10.6417 25.4588 10.251C24.754 9.86436 23.9284 9.8845 23.2477 10.3154L18.6966 13.179Z" fill="#2E168D"/>
<path d="M14.6783 13.4603L8.86659 9.80328C7.01393 8.63933 4.60547 9.96841 4.60547 12.1554C4.60547 13.9194 6.22856 15.2404 7.95637 14.8739L14.6783 13.4603Z" fill="white"/>
<path d="M7.37909 15.5384C6.60983 15.5384 5.86071 15.2766 5.25256 14.7812C4.45914 14.1368 4 13.1782 4 12.1552C4 10.9027 4.65246 9.79915 5.74794 9.19099C6.84343 8.58687 8.12821 8.62311 9.18745 9.29168L14.9992 12.9487C15.2086 13.0816 15.3173 13.3232 15.273 13.5649C15.2287 13.8065 15.0435 13.9999 14.8018 14.0482L8.07988 15.4618C7.84628 15.5102 7.61269 15.5343 7.37909 15.5343V15.5384ZM7.38715 9.97636C7.0287 9.97636 6.66622 10.069 6.33193 10.2502C5.62712 10.6369 5.20826 11.3497 5.20826 12.1552C5.20826 12.8158 5.50227 13.432 6.01376 13.8468C6.52526 14.2616 7.18577 14.4187 7.8342 14.2858L13.0941 13.1782L8.54304 10.3147C8.18459 10.0891 7.78587 9.97636 7.38715 9.97636Z" fill="#2E168D"/>
<path d="M21.3383 17.7942H10.5768C10.2425 17.7942 9.97266 17.5244 9.97266 17.1901C9.97266 16.8558 10.2425 16.5859 10.5768 16.5859H21.3383C21.6726 16.5859 21.9424 16.8558 21.9424 17.1901C21.9424 17.5244 21.6726 17.7942 21.3383 17.7942Z" fill="#2E168D"/>
<path d="M21.3383 21.6126H10.5768C10.2425 21.6126 9.97266 21.3427 9.97266 21.0084C9.97266 20.6741 10.2425 20.4043 10.5768 20.4043H21.3383C21.6726 20.4043 21.9424 20.6741 21.9424 21.0084C21.9424 21.3427 21.6726 21.6126 21.3383 21.6126Z" fill="#2E168D"/>
<path d="M15.9557 28C15.6214 28 15.3516 27.7302 15.3516 27.3959V25.1002C15.3516 24.7659 15.6214 24.4961 15.9557 24.4961C16.29 24.4961 16.5598 24.7659 16.5598 25.1002V27.3959C16.5598 27.7302 16.29 28 15.9557 28Z" fill="#2E168D"/>
<path d="M14.6766 7.66898C14.3665 7.66898 14.1006 7.42733 14.0765 7.11319C14.0765 7.08096 13.9194 5.42565 12.8239 5.19608C12.4977 5.12762 12.2883 4.80944 12.3567 4.47919C12.4252 4.15296 12.7474 3.94353 13.0736 4.01199C15.0632 4.43086 15.2767 6.91181 15.2847 7.01652C15.3089 7.35081 15.0632 7.64079 14.7289 7.66496C14.7128 7.66496 14.6967 7.66496 14.6806 7.66496L14.6766 7.66898Z" fill="#2E168D"/>
<path d="M17.2386 7.66886C17.2386 7.66886 17.2064 7.66886 17.1902 7.66886C16.856 7.6447 16.6103 7.35069 16.6345 7.02043C16.6425 6.91572 16.856 4.43476 18.8456 4.0159C19.1718 3.94743 19.49 4.15686 19.5625 4.48309C19.6309 4.80932 19.4215 5.13152 19.0953 5.19999C18.0038 5.42956 17.8427 7.09695 17.8427 7.11306C17.8185 7.43124 17.5527 7.67289 17.2426 7.67289L17.2386 7.66886Z" fill="#2E168D"/>
</svg>
