<svg width="32" height="32" viewBox="0 0 32 32" fill="none" xmlns="http://www.w3.org/2000/svg">
<path d="M23.1638 8.84558C23.7882 9.9775 23.3169 11.4156 22.1004 11.9433C21.0409 12.4025 19.8043 11.907 19.2484 10.8959L18.8456 10.1628C18.2575 9.09533 16.912 8.70862 15.8446 9.29674C14.7771 9.88486 14.3904 11.2303 14.9785 12.2977L21.3229 23.7862C21.911 24.8536 21.5243 26.1991 20.4569 26.7912C19.3894 27.3793 18.044 26.9926 17.4518 25.9251L11.1074 14.4367C9.33903 11.2303 10.5032 7.19805 13.7056 5.42967C16.912 3.66129 20.9443 4.82544 22.7126 8.02786L23.1638 8.84558Z" fill="#B5A6F2"/>
<path d="M19.3893 27.6743C19.1275 27.6743 18.8657 27.6381 18.6038 27.5615C17.8828 27.3521 17.2826 26.8767 16.92 26.2201L10.5756 14.7277C9.64108 13.0359 9.42356 11.0822 9.95931 9.22518C10.4951 7.36818 11.7196 5.83344 13.4115 4.8989C16.9039 2.96939 21.3108 4.2423 23.2403 7.73475L23.6914 8.55247C24.0741 9.24532 24.1466 10.0711 23.8928 10.8203C23.6391 11.5696 23.0711 12.1819 22.342 12.4961C21.0328 13.0641 19.4377 12.492 18.7166 11.1869L18.3138 10.4538C18.1083 10.0792 17.766 9.80524 17.3551 9.68842C16.9442 9.5716 16.5092 9.61994 16.1345 9.82538C15.7599 10.0308 15.486 10.3732 15.3692 10.7841C15.2524 11.195 15.3007 11.63 15.5061 12.0046L21.8505 23.4971C22.2131 24.1537 22.2977 24.915 22.0922 25.6361C21.8828 26.3571 21.4074 26.9573 20.7468 27.3198C20.3239 27.5535 19.8606 27.6703 19.3893 27.6703V27.6743ZM16.8999 5.20907C15.917 5.20907 14.918 5.45076 13.9996 5.95831C12.5897 6.73575 11.5706 8.01672 11.1235 9.56355C10.6763 11.1104 10.8616 12.7378 11.6391 14.1476L17.9835 25.6401C18.1889 26.0147 18.5313 26.2886 18.9422 26.4054C19.3531 26.5223 19.7881 26.4739 20.1627 26.2685C20.5374 26.063 20.8113 25.7206 20.9321 25.3098C21.0489 24.8989 21.0006 24.4638 20.7952 24.0892L14.4507 12.5968C14.0882 11.9402 14.0036 11.1789 14.2091 10.4578C14.4185 9.73676 14.8938 9.13656 15.5504 8.77402C16.207 8.41148 16.9684 8.32689 17.6894 8.53233C18.4105 8.7418 19.0107 9.21712 19.3732 9.87372L19.776 10.6069C20.199 11.3682 21.1134 11.7146 21.8586 11.3883C22.2816 11.203 22.5998 10.8647 22.7448 10.4296C22.8898 10.0026 22.8495 9.53132 22.632 9.13656L22.1809 8.31883C21.0852 6.33293 19.0228 5.20907 16.8959 5.20907H16.8999Z" fill="#2E168D"/>
<path d="M21.2266 18.5586H11.3091C10.0878 18.5586 9.09766 19.5478 9.09766 20.7681C9.09766 21.9883 10.0878 22.9775 11.3091 22.9775H21.2266C22.4479 22.9775 23.438 21.9883 23.438 20.7681C23.438 19.5478 22.4479 18.5586 21.2266 18.5586Z" fill="#B5A6F2"/>
<path d="M21.2333 23.5826H11.3118C9.76095 23.5826 8.49609 22.3218 8.49609 20.7669C8.49609 19.212 9.75692 17.9512 11.3118 17.9512H21.2333C22.7841 17.9512 24.049 19.212 24.049 20.7669C24.049 22.3218 22.7881 23.5826 21.2333 23.5826ZM11.3118 19.1637C10.4256 19.1637 9.70455 19.8847 9.70455 20.7709C9.70455 21.6571 10.4256 22.3782 11.3118 22.3782H21.2333C22.1195 22.3782 22.8405 21.6571 22.8405 20.7709C22.8405 19.8847 22.1195 19.1637 21.2333 19.1637H11.3118Z" fill="#2E168D"/>
<path d="M20.7995 9.91816C20.4652 9.91816 20.1953 9.64827 20.1953 9.31393V8.64525C20.1953 8.3109 20.4652 8.04102 20.7995 8.04102C21.1339 8.04102 21.4038 8.3109 21.4038 8.64525V9.31393C21.4038 9.64827 21.1339 9.91816 20.7995 9.91816Z" fill="#2E168D"/>
<path d="M23.2193 14.0036C23.0219 14.0036 22.8286 13.9069 22.7118 13.7256L21.753 12.2392C21.5718 11.9572 21.6523 11.5867 21.9343 11.4054C22.2123 11.2241 22.5869 11.3047 22.7681 11.5867L23.7269 13.0731C23.9081 13.355 23.8276 13.7256 23.5456 13.9069C23.4449 13.9713 23.3321 14.0036 23.2193 14.0036Z" fill="#2E168D"/>
<path d="M24.1186 14.1281C24.0783 14.1281 24.034 14.1241 23.9897 14.116L23.1639 13.9388C22.8376 13.8703 22.6322 13.548 22.7007 13.2217C22.7691 12.8955 23.0914 12.686 23.4177 12.7585L24.2435 12.9357C24.5697 13.0042 24.7752 13.3265 24.7067 13.6528C24.6463 13.9347 24.3965 14.1281 24.1186 14.1281Z" fill="#2E168D"/>
<path d="M22.9569 14.8801C22.9126 14.8801 22.8723 14.8761 22.828 14.8681C22.5017 14.7996 22.2962 14.4773 22.3647 14.151L22.542 13.3253C22.6104 12.999 22.9327 12.7895 23.259 12.862C23.5853 12.9305 23.7907 13.2527 23.7222 13.579L23.545 14.4048C23.4846 14.6868 23.2348 14.8801 22.9569 14.8801Z" fill="#2E168D"/>
<path d="M8.54019 16.9314L9.15247 21.1328C9.30555 22.1922 10.2159 22.9777 11.2874 22.9777H23.948C25.1041 22.9777 26.1313 23.8236 26.2441 24.9716C26.369 26.2889 25.3378 27.4006 24.0447 27.4006H10.4496C7.66607 27.4006 5.40625 25.1448 5.40625 22.3573V17.161C5.40625 16.2909 6.11118 15.5859 6.98128 15.5859C7.76275 15.5859 8.4274 16.162 8.54019 16.9354V16.9314Z" fill="#B5A6F2"/>
<path d="M24.0435 27.9997H10.4483C7.33452 27.9997 4.80078 25.466 4.80078 22.3522V17.1558C4.80078 15.9554 5.77963 14.9766 6.98004 14.9766C8.05556 14.9766 8.98205 15.7782 9.13915 16.8416L9.75144 21.043C9.8602 21.8003 10.5248 22.3723 11.2862 22.3723H23.9468C25.4372 22.3723 26.7061 23.4881 26.8431 24.9141C26.9196 25.7037 26.6578 26.4972 26.1261 27.0813C25.5943 27.6654 24.833 28.0038 24.0435 28.0038V27.9997ZM6.98004 16.189C6.44429 16.189 6.00924 16.6241 6.00924 17.1598V22.3562C6.00924 24.8054 7.99917 26.7953 10.4483 26.7953H24.0435C24.4946 26.7953 24.9297 26.6019 25.2318 26.2676C25.5379 25.9292 25.687 25.4902 25.6427 25.0269C25.5661 24.2172 24.8209 23.5808 23.9508 23.5808H11.2902C9.92868 23.5808 8.75647 22.5657 8.55909 21.2203L7.9468 17.0189C7.87832 16.5435 7.46342 16.189 6.98406 16.189H6.98004Z" fill="#2E168D"/>
</svg>
