<svg width="32" height="32" viewBox="0 0 32 32" fill="none" xmlns="http://www.w3.org/2000/svg">
<rect width="32" height="32"/>
<path d="M20.0602 12.8926L26.1731 22.0195C26.6365 22.7086 26.4954 23.6354 25.8507 24.1592C24.4847 25.2754 21.7849 26.6454 17.8359 24.9248" fill="white"/>
<path d="M21.435 26.3399C20.3108 26.3399 19.0294 26.1022 17.5949 25.4776C17.2886 25.3446 17.1476 24.99 17.2805 24.6838C17.4135 24.3775 17.7722 24.2405 18.0744 24.3695C21.6083 25.9087 24.0421 24.849 25.4646 23.6885C25.8675 23.358 25.9562 22.7858 25.666 22.3547L19.5532 13.2278C19.3679 12.9497 19.4404 12.575 19.7184 12.3896C19.9965 12.2042 20.3712 12.2768 20.5566 12.5548L26.6694 21.6817C27.3061 22.6327 27.1167 23.902 26.2302 24.6273C25.3114 25.3768 23.6875 26.3439 21.431 26.3439L21.435 26.3399Z" fill="#2E168D"/>
<path d="M23.7156 25.9614C23.502 25.9614 23.2925 25.8445 23.1837 25.6431L19.5289 18.8371C19.3718 18.543 19.4806 18.1763 19.7747 18.0191C20.0689 17.862 20.4356 17.9708 20.5927 18.2649L24.2475 25.0709C24.4047 25.365 24.2959 25.7317 24.0017 25.8889C23.909 25.9372 23.8123 25.9614 23.7156 25.9614Z" fill="#2E168D"/>
<path d="M25.6022 21.7694H21.4638C21.1294 21.7694 20.8594 21.4994 20.8594 21.165C20.8594 20.8305 21.1294 20.5605 21.4638 20.5605H25.6022C25.9366 20.5605 26.2066 20.8305 26.2066 21.165C26.2066 21.4994 25.9366 21.7694 25.6022 21.7694Z" fill="#2E168D"/>
<path d="M11.7915 12.8926L5.67867 22.0155C5.21527 22.7045 5.35631 23.6313 6.00103 24.1552C7.36705 25.2714 10.0668 26.6414 14.0158 24.9208" fill="white"/>
<path d="M10.4187 26.34C8.16218 26.34 6.53828 25.377 5.61954 24.6234C4.72901 23.8981 4.53962 22.6328 5.17629 21.6778L11.2891 12.5509C11.4745 12.2729 11.8492 12.2003 12.1273 12.3857C12.4053 12.5711 12.4778 12.9458 12.2925 13.2238L6.18368 22.3548C5.89355 22.786 5.9822 23.3622 6.38515 23.6886C7.80758 24.8491 10.2455 25.9089 13.7753 24.3696C14.0816 24.2366 14.4362 24.3776 14.5692 24.6839C14.7021 24.9901 14.5611 25.3447 14.2549 25.4777C12.8244 26.1023 11.5389 26.34 10.4147 26.34H10.4187Z" fill="#2E168D"/>
<path d="M15.951 25.5289C17.8159 25.5289 19.3277 24.0171 19.3277 22.1522C19.3277 20.2872 17.8159 18.7754 15.951 18.7754C14.086 18.7754 12.5742 20.2872 12.5742 22.1522C12.5742 24.0171 14.086 25.5289 15.951 25.5289Z" fill="#B5A6F2"/>
<path d="M15.9499 26.1382C13.7538 26.1382 11.9688 24.3531 11.9688 22.157C11.9688 19.9609 13.7538 18.1758 15.9499 18.1758C18.146 18.1758 19.9311 19.9609 19.9311 22.157C19.9311 24.3531 18.146 26.1382 15.9499 26.1382ZM15.9499 19.3806C14.4227 19.3806 13.1776 20.6257 13.1776 22.1529C13.1776 23.6801 14.4227 24.9253 15.9499 24.9253C17.4771 24.9253 18.7223 23.6801 18.7223 22.1529C18.7223 20.6257 17.4771 19.3806 15.9499 19.3806Z" fill="#2E168D"/>
<path d="M13.2283 13.3921C11.6447 13.3921 10.3633 12.1067 10.3633 10.5271C10.3633 8.94754 11.6487 7.66211 13.2283 7.66211V13.3962V13.3921Z" fill="white"/>
<path d="M13.2274 13.9976C11.3133 13.9976 9.75391 12.4422 9.75391 10.5282C9.75391 8.61412 11.3133 7.05469 13.2274 7.05469C13.5618 7.05469 13.8318 7.32467 13.8318 7.65912V13.3932C13.8318 13.7276 13.5618 13.9976 13.2274 13.9976ZM12.6229 8.34817C11.6679 8.61412 10.9628 9.48854 10.9628 10.5282C10.9628 11.5678 11.6679 12.4422 12.6229 12.7081V8.34817Z" fill="#2E168D"/>
<path d="M18.6758 13.3921C20.2594 13.3921 21.5408 12.1107 21.5408 10.5271C21.5408 8.94351 20.2594 7.66211 18.6758 7.66211V13.3921Z" fill="white"/>
<path d="M18.6747 13.9975C18.3403 13.9975 18.0703 13.7275 18.0703 13.393V7.66303C18.0703 7.32857 18.3403 7.05859 18.6747 7.05859C20.5888 7.05859 22.1442 8.614 22.1442 10.528C22.1442 12.4421 20.5888 13.9975 18.6747 13.9975ZM19.2792 8.34805V12.704C20.2342 12.438 20.9353 11.5636 20.9353 10.528C20.9353 9.49244 20.2342 8.614 19.2792 8.34805Z" fill="#2E168D"/>
<path d="M15.9505 6.44141C17.4536 6.44141 18.6745 7.66236 18.6745 9.16538V12.8927H13.2266V9.16538C13.2266 7.66236 14.4475 6.44141 15.9505 6.44141Z" fill="#B5A6F2"/>
<path d="M18.6735 13.4981H13.2255C12.8911 13.4981 12.6211 13.2281 12.6211 12.8936V9.1663C12.6211 7.32882 14.1161 5.83789 15.9495 5.83789C17.7829 5.83789 19.2779 7.33285 19.2779 9.1663V12.8936C19.2779 13.2281 19.0079 13.4981 18.6735 13.4981ZM13.83 12.2892H18.069V9.1663C18.069 7.99773 17.1181 7.04676 15.9495 7.04676C14.7809 7.04676 13.83 7.99773 13.83 9.1663V12.2892Z" fill="#2E168D"/>
<path d="M15.9495 20.7018C18.7046 20.7018 20.9381 18.4683 20.9381 15.7132C20.9381 12.9581 18.7046 10.7246 15.9495 10.7246C13.1944 10.7246 10.9609 12.9581 10.9609 15.7132C10.9609 18.4683 13.1944 20.7018 15.9495 20.7018Z" fill="#B5A6F2"/>
<path d="M15.9524 21.3071C12.8698 21.3071 10.3594 18.7967 10.3594 15.7141C10.3594 12.6315 12.8698 10.1211 15.9524 10.1211C19.035 10.1211 21.5454 12.6315 21.5454 15.7141C21.5454 18.7967 19.035 21.3071 15.9524 21.3071ZM15.9524 11.33C13.5347 11.33 11.5682 13.2964 11.5682 15.7141C11.5682 18.1318 13.5347 20.0983 15.9524 20.0983C18.3701 20.0983 20.3365 18.1318 20.3365 15.7141C20.3365 13.2964 18.3701 11.33 15.9524 11.33Z" fill="#2E168D"/>
<path d="M15.1169 7.05814C14.8711 7.05814 14.6374 6.90502 14.5488 6.65921L13.8758 4.80965C13.763 4.49535 13.9242 4.14881 14.2385 4.03598C14.5528 3.92315 14.8993 4.08433 15.0122 4.39864L15.6851 6.2482C15.7979 6.56251 15.6367 6.90905 15.3224 7.02187C15.2539 7.04605 15.1854 7.05814 15.1169 7.05814Z" fill="#2E168D"/>
<path d="M16.7604 7.05814C16.6919 7.05814 16.6234 7.04605 16.5549 7.02187C16.2406 6.90905 16.0794 6.56251 16.1922 6.2482L16.8652 4.39864C16.978 4.08433 17.3245 3.92315 17.6388 4.03598C17.9531 4.14881 18.1143 4.49535 18.0015 4.80965L17.3286 6.65921C17.2399 6.90502 17.0062 7.05814 16.7604 7.05814Z" fill="#2E168D"/>
<path d="M12.244 28.0003C12.1231 28.0003 11.9982 27.964 11.8934 27.8874C11.6234 27.694 11.5589 27.3152 11.7524 27.0453L13.5254 24.5711C13.7188 24.3011 14.0976 24.2367 14.3675 24.4301C14.6375 24.6235 14.702 25.0023 14.5086 25.2723L12.7356 27.7464C12.6187 27.9116 12.4333 28.0003 12.244 28.0003Z" fill="#2E168D"/>
<path d="M20.2134 27.9994C20.024 27.9994 19.8387 27.9108 19.7218 27.7456L17.9488 25.2714C17.7554 25.0015 17.8158 24.6227 18.0898 24.4293C18.3598 24.2358 18.7386 24.2963 18.932 24.5703L20.705 27.0444C20.8984 27.3144 20.838 27.6932 20.564 27.8866C20.4592 27.9632 20.3343 27.9994 20.2134 27.9994Z" fill="#2E168D"/>
<path d="M8.13894 25.9614C8.04223 25.9614 7.94552 25.9372 7.85284 25.8889C7.55868 25.7317 7.44988 25.365 7.60704 25.0709L11.2618 18.2649C11.419 17.9708 11.7897 17.862 12.0798 18.0191C12.374 18.1763 12.4828 18.543 12.3256 18.8371L8.67084 25.6431C8.56204 25.8445 8.3525 25.9614 8.13894 25.9614Z" fill="#2E168D"/>
<path d="M10.3912 21.7694H6.25287C5.91842 21.7694 5.64844 21.4994 5.64844 21.165C5.64844 20.8305 5.91842 20.5605 6.25287 20.5605H10.3912C10.7257 20.5605 10.9957 20.8305 10.9957 21.165C10.9957 21.4994 10.7257 21.7694 10.3912 21.7694Z" fill="#2E168D"/>
</svg>
