<svg width="186" height="160" viewBox="0 0 186 160" fill="none" xmlns="http://www.w3.org/2000/svg">
<g id="OBJECTS">
<path id="Vector" d="M19.0332 135.932C19.0332 135.932 39.5338 150.453 57.3224 123.234C57.3224 123.226 32.1194 112.608 19.0332 135.932Z" fill="#C5D9FF"/>
<path id="Vector_2" d="M29.4203 138.297C29.3043 138.235 29.217 138.13 29.1771 138.005C29.1372 137.88 29.1479 137.744 29.2068 137.626L31.3166 133.462L24.876 135.863C24.8152 135.886 24.7504 135.896 24.6855 135.894C24.6205 135.891 24.5567 135.876 24.4978 135.848C24.4389 135.821 24.3861 135.782 24.3425 135.734C24.2988 135.686 24.2653 135.629 24.2439 135.568C24.1982 135.445 24.2032 135.309 24.2576 135.19C24.312 135.07 24.4116 134.977 24.5343 134.931L31.338 132.369L26.9816 130.631C26.9209 130.607 26.8656 130.571 26.8188 130.525C26.772 130.48 26.7346 130.426 26.7088 130.366C26.683 130.306 26.6693 130.241 26.6685 130.176C26.6676 130.111 26.6797 130.046 26.704 129.986C26.7267 129.925 26.7612 129.869 26.8057 129.822C26.8502 129.775 26.9036 129.737 26.9629 129.711C27.0222 129.685 27.0861 129.67 27.1509 129.669C27.2157 129.668 27.2801 129.68 27.3403 129.704L32.7218 131.839L40.3284 129.003L35.9378 127.248C35.8262 127.192 35.7395 127.097 35.6947 126.98C35.6499 126.864 35.6503 126.735 35.6958 126.619C35.7413 126.503 35.8286 126.408 35.9406 126.353C36.0525 126.297 36.181 126.286 36.3008 126.321L41.7121 128.487L57.1517 122.721C57.2125 122.698 57.2772 122.688 57.342 122.691C57.4067 122.694 57.4704 122.709 57.5291 122.736C57.5879 122.764 57.6406 122.803 57.6844 122.85C57.7281 122.898 57.7619 122.954 57.7838 123.015C57.8296 123.139 57.8248 123.276 57.7704 123.396C57.716 123.515 57.6164 123.609 57.4934 123.656L41.6267 129.58L39.0641 134.679C39.0352 134.737 38.995 134.789 38.9459 134.831C38.8967 134.873 38.8397 134.905 38.778 134.925C38.7164 134.945 38.6514 134.953 38.5868 134.947C38.5223 134.941 38.4595 134.923 38.4021 134.893C38.2853 134.832 38.1973 134.727 38.1573 134.602C38.1173 134.476 38.1286 134.34 38.1886 134.222L40.2814 130.088L32.679 132.941L30.0823 138.066C30.0545 138.125 30.0151 138.178 29.9666 138.222C29.9181 138.266 29.8613 138.299 29.7997 138.321C29.7381 138.342 29.6728 138.351 29.6076 138.347C29.5425 138.343 29.4788 138.326 29.4203 138.297Z" fill="#E1EDFF"/>
<path id="Vector_3" d="M58.7797 63.7529C58.7797 63.7529 36.4425 79.9399 54.0133 91.9413C54.0133 91.9669 73.7366 88.264 58.7797 63.7529Z" fill="#C5D9FF"/>
<path id="Vector_4" d="M55.7577 83.3681L56.4582 78.9776L61.0196 74.3393L56.5906 78.1405L58.4057 66.8438C58.4121 66.8009 58.402 66.7572 58.3775 66.7215C58.3529 66.6858 58.3157 66.6608 58.2733 66.6516C58.2517 66.6466 58.2292 66.6461 58.2074 66.6502C58.1856 66.6543 58.1648 66.6628 58.1464 66.6752C58.128 66.6876 58.1123 66.7036 58.1003 66.7224C58.0884 66.7411 58.0804 66.762 58.0769 66.784L55.8431 77.786L52.9987 72.8487L55.6808 78.5932L54.7711 83.0606L51.7815 77.8458L51.6875 77.897L54.6046 83.8764L53.4087 89.7575C53.4066 89.7673 53.4066 89.7775 53.4087 89.7874C53.3868 89.8773 53.3836 89.9707 53.3996 90.0618C53.4155 90.153 53.4501 90.2398 53.5012 90.317C53.5524 90.3941 53.6189 90.4598 53.6966 90.5099C53.7744 90.5601 53.8617 90.5936 53.953 90.6084C54.0443 90.6231 54.1377 90.6189 54.2273 90.5958C54.3169 90.5727 54.4008 90.5313 54.4736 90.4743C54.5464 90.4172 54.6067 90.3457 54.6505 90.2643C54.6944 90.1828 54.7209 90.0931 54.7284 90.0009L55.6638 84.1198L60.7291 79.9001L55.7577 83.3681Z" fill="#E1EDFF"/>
<path id="Vector_5" d="M19.8652 116.821C19.8652 116.821 40.447 135.225 48.1049 115.22C48.1049 115.22 40.1352 96.5983 19.8652 116.821Z" fill="#F7A9B4"/>
<path id="Vector_6" d="M46.049 115.004L40.1721 115.393L34.9744 111.34L39.4333 115.44L35.047 115.735L29.5588 112.271L34.2099 115.79L22.9217 116.538C22.8783 116.542 22.838 116.562 22.8088 116.595C22.7796 116.627 22.7635 116.669 22.7637 116.713C22.7659 116.757 22.7848 116.798 22.8166 116.828C22.8484 116.858 22.8906 116.875 22.9345 116.875L34.039 116.627L29.9175 120.535L34.8548 116.606L39.3606 116.503L35.0043 120.612L35.0726 120.693L40.1679 116.486L46.1088 116.354H46.1344C46.3067 116.335 46.4649 116.25 46.5763 116.117C46.6877 115.984 46.7437 115.814 46.7328 115.641C46.7218 115.468 46.6446 115.305 46.5173 115.188C46.39 115.07 46.2223 115.006 46.049 115.009V115.004Z" fill="#F9C7D0"/>
<path id="Vector_7" d="M0.375 84.46C0.375 84.46 7.96451 122.091 55.842 111.585C55.842 111.585 39.0401 73.1462 0.375 84.46Z" fill="#C5D9FF"/>
<path id="Vector_8" d="M7.1508 89.6352C7.17675 89.5759 7.21416 89.5223 7.26087 89.4776C7.30759 89.4328 7.36269 89.3977 7.42302 89.3743C7.48335 89.3509 7.5477 89.3396 7.6124 89.3411C7.67709 89.3427 7.74084 89.357 7.79999 89.3832L18.4774 94.1923L15.2656 87.0086C15.2131 86.8882 15.2097 86.7522 15.2559 86.6294C15.3022 86.5065 15.3945 86.4066 15.5134 86.3508C15.5725 86.3246 15.6363 86.3103 15.7009 86.3087C15.7656 86.3072 15.83 86.3185 15.8903 86.3419C15.9507 86.3653 16.0058 86.4004 16.0525 86.4452C16.0992 86.49 16.1366 86.5435 16.1625 86.6028L19.8014 94.7988L27.5618 98.2967L24.2859 90.9122C24.2593 90.8533 24.2445 90.7898 24.2424 90.7252C24.2403 90.6606 24.251 90.5962 24.2738 90.5357C24.2966 90.4752 24.3311 90.4198 24.3753 90.3727C24.4195 90.3255 24.4726 90.2875 24.5315 90.2609C24.5904 90.2342 24.654 90.2195 24.7186 90.2174C24.7832 90.2153 24.8475 90.226 24.908 90.2488C24.9685 90.2716 25.0239 90.3061 25.0711 90.3503C25.1182 90.3945 25.1562 90.4476 25.1828 90.5065L28.8986 98.8733C28.8986 98.8733 28.8986 98.8733 28.8986 98.8989L36.33 102.247L33.2507 95.3113C33.2226 95.2524 33.2065 95.1886 33.2031 95.1234C33.1997 95.0583 33.2092 94.9931 33.231 94.9317C33.2528 94.8702 33.2865 94.8136 33.3302 94.7652C33.3739 94.7167 33.4267 94.6773 33.4856 94.6493C33.5445 94.6213 33.6083 94.6051 33.6735 94.6017C33.7386 94.5983 33.8038 94.6078 33.8652 94.6296C33.9267 94.6515 33.9833 94.6852 34.0317 94.7289C34.0802 94.7725 34.1195 94.8253 34.1476 94.8842L37.6797 102.837L56.0107 111.101C56.1302 111.156 56.2233 111.256 56.2697 111.379C56.3161 111.502 56.312 111.639 56.2584 111.759C56.2172 111.853 56.1471 111.933 56.058 111.985C55.969 112.037 55.8656 112.06 55.7629 112.049C55.71 112.045 55.6581 112.032 55.6092 112.011L37.6284 103.896C37.5514 103.933 37.4656 103.948 37.3807 103.939C37.3197 103.93 37.2605 103.911 37.2056 103.883L29.6161 105.865C29.5598 105.878 29.5015 105.878 29.4452 105.865C29.3442 105.855 29.2487 105.814 29.1721 105.748C29.0956 105.681 29.0417 105.592 29.0181 105.493C28.9855 105.366 29.0045 105.231 29.0708 105.117C29.1372 105.004 29.2456 104.921 29.3726 104.887L36.0225 103.178L18.9387 95.4907L10.1875 95.9178H10.1405C10.0233 95.8988 9.91669 95.8388 9.83974 95.7484C9.76279 95.658 9.72054 95.5432 9.72054 95.4245C9.72054 95.3058 9.76279 95.191 9.83974 95.1006C9.91669 95.0102 10.0233 94.9501 10.1405 94.9312L16.974 94.5981L7.39852 90.2929C7.27895 90.238 7.18587 90.1381 7.13949 90.015C7.09311 89.8918 7.09718 89.7554 7.1508 89.6352Z" fill="#E1EDFF"/>
<path id="Vector_9" d="M37.3869 61.1494C37.3869 61.1494 23.7625 82.3804 51.2761 99.413C51.2761 99.413 60.8815 73.5737 37.3869 61.1494Z" fill="#F28393"/>
<path id="Vector_10" d="M35.405 71.7383C35.4322 71.6791 35.4707 71.6258 35.5185 71.5815C35.5663 71.5372 35.6223 71.5027 35.6834 71.4801C35.7445 71.4575 35.8094 71.4472 35.8745 71.4497C35.9396 71.4522 36.0036 71.4676 36.0627 71.4948L40.2526 73.4851L37.6515 67.0786C37.6019 66.9568 37.6023 66.8203 37.6527 66.6988C37.7031 66.5772 37.7993 66.4805 37.9206 66.4295C37.9803 66.4044 38.0443 66.3916 38.109 66.3916C38.1737 66.3916 38.2377 66.4045 38.2974 66.4296C38.357 66.4546 38.4111 66.4913 38.4564 66.5375C38.5017 66.5837 38.5373 66.6384 38.5613 66.6985L41.3075 73.4894L42.8749 69.0219C42.8955 68.9603 42.9283 68.9034 42.9712 68.8547C43.0141 68.8059 43.0664 68.7662 43.1249 68.738C43.1834 68.7097 43.247 68.6934 43.3119 68.6901C43.3768 68.6868 43.4417 68.6965 43.5028 68.7187C43.6264 68.764 43.7271 68.8562 43.7831 68.9754C43.8391 69.0946 43.8458 69.231 43.8017 69.3551L41.867 74.8561L44.9378 82.4456L46.5138 77.9483C46.5349 77.8865 46.568 77.8295 46.6114 77.7807C46.6547 77.7319 46.7074 77.6922 46.7662 77.664C46.8251 77.6358 46.8889 77.6195 46.9541 77.6163C47.0193 77.613 47.0845 77.6228 47.1459 77.645C47.2695 77.6903 47.3703 77.7826 47.4262 77.9017C47.4822 78.0209 47.4889 78.1573 47.4449 78.2814L45.4973 83.8336L51.7286 99.239C51.7538 99.2993 51.7668 99.3639 51.7669 99.4292C51.767 99.4946 51.7541 99.5592 51.7291 99.6196C51.7041 99.6799 51.6674 99.7347 51.6212 99.7808C51.5749 99.8269 51.52 99.8634 51.4596 99.8882C51.37 99.9295 51.2689 99.9386 51.1734 99.9138C51.0944 99.8982 51.0206 99.863 50.9587 99.8116C50.8968 99.7601 50.8487 99.6939 50.8189 99.6191L44.4125 83.7824L39.2873 81.3522C39.1697 81.2941 39.0794 81.1925 39.0355 81.0689C38.9917 80.9453 38.9977 80.8094 39.0524 80.6902C39.0791 80.6312 39.1173 80.578 39.1647 80.5337C39.212 80.4895 39.2677 80.455 39.3284 80.4324C39.3892 80.4098 39.4538 80.3994 39.5186 80.4019C39.5834 80.4043 39.647 80.4196 39.7059 80.4468L43.8658 82.42L40.8035 74.8561L35.6442 72.4131C35.5836 72.3852 35.5292 72.3454 35.4842 72.2961C35.4392 72.2468 35.4045 72.189 35.3822 72.1261C35.3599 72.0632 35.3505 71.9965 35.3544 71.9299C35.3583 71.8633 35.3755 71.7981 35.405 71.7383Z" fill="#F7A9B4"/>
<path id="Vector_11" d="M167.315 135.932C167.315 135.932 147.194 150.453 129.73 123.234C129.73 123.226 154.464 112.608 167.315 135.932Z" fill="#C5D9FF"/>
<path id="Vector_12" d="M157.111 138.295C157.226 138.233 157.313 138.128 157.353 138.003C157.392 137.878 157.382 137.742 157.325 137.625L155.253 133.461L161.574 135.861C161.634 135.884 161.698 135.894 161.762 135.892C161.826 135.889 161.889 135.873 161.947 135.846C162.005 135.818 162.057 135.779 162.099 135.731C162.141 135.683 162.174 135.627 162.194 135.566C162.239 135.444 162.235 135.308 162.182 135.189C162.128 135.07 162.029 134.977 161.907 134.93L155.232 132.367L159.503 130.629C159.624 130.579 159.72 130.483 159.77 130.362C159.821 130.241 159.821 130.105 159.772 129.984C159.75 129.924 159.716 129.868 159.673 129.821C159.629 129.774 159.576 129.736 159.518 129.71C159.459 129.683 159.396 129.669 159.332 129.668C159.268 129.667 159.204 129.678 159.144 129.702L153.865 131.838L146.4 129.002L150.709 127.246C150.83 127.196 150.926 127.1 150.977 126.979C151.027 126.858 151.027 126.723 150.978 126.601C150.956 126.541 150.923 126.487 150.879 126.44C150.836 126.393 150.784 126.355 150.726 126.329C150.667 126.303 150.605 126.288 150.541 126.287C150.477 126.285 150.414 126.296 150.354 126.319L145.041 128.485L129.884 122.719C129.824 122.697 129.76 122.688 129.696 122.691C129.633 122.694 129.57 122.71 129.513 122.737C129.455 122.765 129.403 122.803 129.361 122.851C129.318 122.898 129.285 122.954 129.264 123.014C129.235 123.11 129.235 123.212 129.264 123.308C129.282 123.386 129.319 123.458 129.371 123.519C129.423 123.579 129.489 123.626 129.563 123.654L145.14 129.578L147.668 134.712C147.696 134.769 147.735 134.821 147.783 134.863C147.831 134.905 147.887 134.937 147.947 134.957C148.008 134.977 148.072 134.984 148.135 134.979C148.199 134.974 148.261 134.955 148.317 134.925C148.432 134.863 148.519 134.758 148.559 134.633C148.599 134.508 148.589 134.373 148.531 134.255L146.472 130.121L153.912 132.939L156.475 138.065C156.501 138.122 156.539 138.173 156.585 138.215C156.632 138.258 156.686 138.29 156.745 138.312C156.804 138.333 156.867 138.343 156.93 138.34C156.993 138.337 157.054 138.322 157.111 138.295Z" fill="#E1EDFF"/>
<path id="Vector_13" d="M128.299 63.7529C128.299 63.7529 150.222 79.9399 132.997 91.9413C132.976 91.9669 113.616 88.264 128.299 63.7529Z" fill="#C5D9FF"/>
<path id="Vector_14" d="M133.57 89.7446L132.395 83.8635L135.257 77.8842L135.163 77.8329L132.233 83.0478L131.34 78.5803L133.997 72.8487L131.204 77.7859L129 66.7839C128.997 66.7622 128.989 66.7413 128.978 66.7226C128.966 66.7039 128.951 66.6878 128.933 66.6754C128.915 66.6629 128.894 66.6543 128.873 66.6502C128.851 66.6461 128.829 66.6466 128.808 66.6515C128.766 66.6608 128.729 66.686 128.705 66.7218C128.681 66.7576 128.672 66.8013 128.68 66.8437L130.444 78.1404L126.096 74.3393L130.58 78.9775L131.264 83.3681L126.407 79.8873L131.379 84.107L132.289 89.9881C132.3 90.0747 132.329 90.1581 132.373 90.2335C132.417 90.3088 132.476 90.3745 132.546 90.4266C132.616 90.4788 132.696 90.5164 132.781 90.5371C132.866 90.5579 132.954 90.5615 133.04 90.5476C133.214 90.5153 133.368 90.4163 133.469 90.2718C133.571 90.1272 133.611 89.9487 133.583 89.7745C133.576 89.7657 133.572 89.7555 133.57 89.7446Z" fill="#E1EDFF"/>
<path id="Vector_15" d="M166.496 116.821C166.496 116.821 146.294 135.225 138.777 115.22C138.777 115.22 146.602 96.5983 166.496 116.821Z" fill="#F7A9B4"/>
<path id="Vector_16" d="M163.497 116.514L152.413 115.767L156.983 112.247L151.593 115.711L147.288 115.429L151.666 111.329L146.567 115.382L140.796 115.002C140.623 114.999 140.455 115.064 140.328 115.181C140.201 115.299 140.124 115.461 140.113 115.634C140.102 115.807 140.158 115.978 140.269 116.111C140.381 116.243 140.539 116.328 140.711 116.347H140.737L146.567 116.48L151.568 120.687L151.636 120.606L147.365 116.497L151.786 116.599L156.637 120.512L152.589 116.604L163.488 116.851C163.51 116.852 163.532 116.848 163.552 116.84C163.573 116.833 163.591 116.821 163.607 116.806C163.623 116.791 163.636 116.773 163.645 116.753C163.654 116.733 163.658 116.711 163.659 116.689C163.66 116.645 163.644 116.601 163.613 116.569C163.583 116.536 163.541 116.516 163.497 116.514Z" fill="#F9C7D0"/>
<path id="Vector_17" d="M185.625 84.46C185.625 84.46 178.176 122.091 131.195 111.585C131.195 111.585 147.668 73.1462 185.625 84.46Z" fill="#C5D9FF"/>
<path id="Vector_18" d="M178.971 89.6348C178.946 89.576 178.91 89.5226 178.865 89.478C178.819 89.4333 178.765 89.3983 178.706 89.3748C178.646 89.3513 178.583 89.3399 178.519 89.3413C178.456 89.3427 178.393 89.3568 178.334 89.3828L167.866 94.1919L170.993 87.0081C171.046 86.8889 171.05 86.7537 171.006 86.631C170.961 86.5083 170.871 86.4077 170.754 86.3504C170.695 86.3243 170.632 86.3101 170.568 86.3087C170.504 86.3073 170.44 86.3186 170.38 86.3421C170.321 86.3656 170.266 86.4006 170.22 86.4453C170.175 86.49 170.138 86.5434 170.113 86.6024L166.542 94.7984L158.927 98.2963L162.143 90.9118C162.196 90.792 162.2 90.6564 162.155 90.5336C162.109 90.4109 162.018 90.3106 161.9 90.2541C161.842 90.2274 161.779 90.2129 161.715 90.2112C161.651 90.2095 161.587 90.2208 161.528 90.2443C161.468 90.2679 161.414 90.3032 161.369 90.3482C161.323 90.3931 161.288 90.4469 161.263 90.5061L157.616 98.8729C157.616 98.8729 157.616 98.8729 157.616 98.8985L150.325 102.247L153.349 95.3109C153.402 95.1911 153.406 95.0555 153.361 94.9327C153.315 94.81 153.224 94.7097 153.106 94.6532C153.048 94.6264 152.985 94.6115 152.921 94.6095C152.857 94.6075 152.793 94.6183 152.733 94.6414C152.673 94.6645 152.619 94.6994 152.573 94.744C152.527 94.7885 152.49 94.8419 152.465 94.9009L149.001 102.853L131.012 111.118C130.893 111.173 130.801 111.274 130.756 111.397C130.71 111.52 130.715 111.656 130.769 111.775C130.808 111.87 130.876 111.949 130.964 112.001C131.052 112.054 131.154 112.076 131.256 112.066C131.307 112.062 131.358 112.049 131.405 112.027L149.057 103.913C149.134 103.95 149.22 103.965 149.305 103.955C149.364 103.945 149.422 103.927 149.476 103.9L156.928 105.847C156.982 105.86 157.037 105.86 157.091 105.847C157.192 105.838 157.288 105.798 157.364 105.731C157.441 105.664 157.495 105.575 157.518 105.476C157.551 105.349 157.532 105.214 157.467 105.101C157.401 104.988 157.294 104.904 157.168 104.869L150.642 103.161L167.405 95.4732L175.994 95.9003H176.062C176.186 95.8888 176.302 95.8314 176.385 95.7394C176.469 95.6473 176.516 95.5273 176.516 95.4027C176.516 95.2782 176.469 95.1581 176.385 95.0661C176.302 94.974 176.186 94.9167 176.062 94.9052L169.383 94.572L178.779 90.2669C178.882 90.203 178.959 90.1035 178.994 89.9871C179.03 89.8708 179.021 89.7455 178.971 89.6348Z" fill="#E1EDFF"/>
<path id="Vector_19" d="M149.296 61.1494C149.296 61.1494 162.668 82.3804 135.663 99.413C135.663 99.413 126.237 73.5737 149.296 61.1494Z" fill="#F28393"/>
<path id="Vector_20" d="M151.238 71.7379C151.213 71.6789 151.176 71.6256 151.13 71.5811C151.084 71.5367 151.029 71.502 150.969 71.4793C150.909 71.4565 150.846 71.4461 150.782 71.4487C150.718 71.4514 150.655 71.4669 150.597 71.4945L146.484 73.4847L149.047 67.0783C149.095 66.9569 149.095 66.8213 149.046 66.7001C148.996 66.579 148.902 66.4818 148.782 66.4291C148.723 66.4042 148.659 66.3915 148.595 66.3916C148.531 66.3917 148.468 66.4047 148.409 66.4298C148.35 66.4549 148.297 66.4916 148.252 66.5377C148.208 66.5838 148.173 66.6384 148.15 66.6982L145.455 73.489L143.917 69.0216C143.898 68.9604 143.867 68.9038 143.825 68.8551C143.783 68.8065 143.732 68.7668 143.675 68.7384C143.617 68.7101 143.554 68.6937 143.49 68.6902C143.426 68.6868 143.362 68.6963 143.302 68.7183C143.18 68.7654 143.081 68.8581 143.026 68.9769C142.971 69.0956 142.964 69.2311 143.007 69.3547L144.9 74.8557L141.884 82.4452L140.334 77.9479C140.315 77.8867 140.283 77.8301 140.242 77.7815C140.2 77.7328 140.149 77.6931 140.091 77.6647C140.034 77.6364 139.971 77.62 139.907 77.6165C139.843 77.6131 139.779 77.6227 139.719 77.6447C139.597 77.6917 139.498 77.7844 139.443 77.9032C139.388 78.0219 139.381 78.1575 139.424 78.281L141.333 83.8333L135.217 99.2387C135.167 99.36 135.167 99.496 135.217 99.6175C135.266 99.7389 135.362 99.836 135.482 99.8878C135.57 99.9282 135.67 99.9372 135.764 99.9135C135.842 99.8976 135.914 99.8623 135.975 99.8107C136.035 99.7592 136.082 99.6932 136.11 99.6188L142.401 83.782L147.432 81.3519C147.549 81.293 147.638 81.1911 147.681 81.0675C147.725 80.944 147.718 80.8086 147.663 80.6899C147.638 80.6309 147.601 80.5775 147.555 80.5331C147.509 80.4886 147.454 80.454 147.395 80.4312C147.335 80.4085 147.271 80.3981 147.207 80.4007C147.143 80.4033 147.08 80.4189 147.022 80.4464L142.939 82.4196L145.959 74.8557L151.024 72.4127C151.141 72.3509 151.229 72.2454 151.269 72.1191C151.309 71.9928 151.298 71.8559 151.238 71.7379Z" fill="#F7A9B4"/>
<path id="Vector_21" d="M56.347 84.1584L52.7209 89.668L39.0538 80.5324C38.6267 80.2633 38.7378 79.0931 38.7079 78.6831C38.6285 77.8008 38.4123 76.9363 38.0672 76.1205C37.2739 74.0467 36.0647 72.1572 34.5138 70.5682C34.3468 70.3998 34.1448 70.2701 33.9221 70.1883C33.6995 70.1066 33.4615 70.0748 33.2252 70.0951C32.9889 70.1155 32.7599 70.1876 32.5545 70.3062C32.3491 70.4249 32.1723 70.5872 32.0366 70.7818C31.821 71.11 31.7272 71.5034 31.7717 71.8936C31.8162 72.2838 31.9961 72.646 32.2801 72.9173C32.972 73.6134 34.4155 74.8648 34.2105 76.0052C34.1233 76.322 33.9207 76.5947 33.6425 76.7697C32.2374 77.7648 30.0549 77.4146 28.7907 76.3426C28.2124 75.8481 27.7728 75.2116 27.5152 74.4957C27.2576 73.7798 27.1908 73.0091 27.3215 72.2595C27.354 71.9927 27.4622 71.7408 27.6333 71.5335C28.1586 70.974 29.316 71.2644 29.9652 71.431C30.1713 71.484 30.3859 71.4958 30.5966 71.4659C30.8073 71.436 31.01 71.3649 31.1933 71.2566C31.3765 71.1484 31.5366 71.0051 31.6645 70.8349C31.7923 70.6648 31.8854 70.4711 31.9384 70.265C31.9914 70.0589 32.0033 69.8443 31.9734 69.6336C31.9435 69.4229 31.8723 69.2201 31.7641 69.0369C31.6558 68.8537 31.5125 68.6936 31.3423 68.5657C31.1722 68.4379 30.9785 68.3448 30.7724 68.2918C27.6674 67.4931 25.2714 68.3345 24.366 70.5469C24.1214 71.1638 23.9981 71.8222 24.0029 72.4859L19.8088 68.9154C19.5261 68.6749 19.1595 68.5566 18.7896 68.5862C18.4196 68.6158 18.0765 68.791 17.8357 69.0734L17.652 69.2869C17.4116 69.5697 17.2932 69.9363 17.3228 70.3062C17.3525 70.6762 17.5277 71.0192 17.81 71.2601L19.339 72.567C19.0971 72.538 18.8518 72.5723 18.6272 72.6666C18.4026 72.761 18.2063 72.9121 18.0577 73.1052L17.8869 73.3358C17.6617 73.6338 17.5631 74.0087 17.6127 74.379C17.6623 74.7493 17.856 75.085 18.1517 75.3133L31.8188 85.9181C31.8279 85.9233 31.8382 85.9261 31.8487 85.9261C31.8592 85.9261 31.8695 85.9233 31.8786 85.9181C33.2538 87.5667 34.6319 89.2138 36.0129 90.8596L42.919 99.1154C45.3492 102.02 47.5872 104.698 51.0339 105.983C52.4005 106.721 53.9522 107.047 55.5004 106.921C57.0486 106.794 58.5267 106.22 59.7552 105.27C59.7875 105.242 59.8218 105.216 59.8577 105.193C60.5234 104.661 61.1001 104.027 61.5661 103.314L68.9591 91.97L56.347 84.1584Z" fill="#F9D9EB"/>
<path id="Vector_22" opacity="0.32" d="M61.3801 94.7378L55.0677 86.0977L52.6973 89.7792L61.3801 94.7378Z" fill="#EF92C7"/>
<path id="Vector_23" d="M167.921 73.1472C167.772 72.9541 167.576 72.803 167.352 72.7086C167.127 72.6143 166.882 72.58 166.64 72.609L168.169 71.3021C168.451 71.0612 168.626 70.7182 168.656 70.3482C168.686 69.9783 168.567 69.6117 168.327 69.3289L168.143 69.1154C167.902 68.833 167.559 68.6578 167.189 68.6282C166.819 68.5986 166.453 68.7169 166.17 68.9574L161.976 72.5279C161.981 71.8642 161.857 71.2058 161.613 70.5889C160.716 68.3765 158.32 67.5351 155.206 68.3338C155 68.3868 154.807 68.4799 154.636 68.6077C154.466 68.7356 154.323 68.8957 154.215 69.0789C154.106 69.2621 154.035 69.4649 154.005 69.6756C153.976 69.8863 153.987 70.1009 154.04 70.307C154.093 70.5131 154.186 70.7068 154.314 70.8769C154.442 71.0471 154.602 71.1904 154.786 71.2986C154.969 71.4069 155.172 71.478 155.382 71.5079C155.593 71.5378 155.807 71.526 156.014 71.473C156.868 71.2551 158.239 70.9818 158.653 71.9556C159.439 73.7964 157.897 76.2265 156.244 76.974C155.702 77.2207 155.114 77.3526 154.518 77.3614C153.922 77.3702 153.33 77.2558 152.78 77.0252C152.565 76.953 152.368 76.8367 152.2 76.6837C152.032 76.5308 151.898 76.3445 151.807 76.1369C151.427 74.9495 152.99 73.6554 153.699 72.9422C153.983 72.6709 154.163 72.3087 154.207 71.9185C154.252 71.5283 154.158 71.1349 153.942 70.8067C153.806 70.6121 153.63 70.4498 153.424 70.3311C153.219 70.2125 152.99 70.1404 152.754 70.12C152.517 70.0997 152.279 70.1315 152.057 70.2132C151.834 70.295 151.632 70.4247 151.465 70.5931C149.051 73.0409 147.483 76.1975 146.993 79.6006C147.002 79.9082 146.979 80.216 146.925 80.5189L133.061 89.8039L129.247 84.4097L117.109 91.9608V92.1914L124.391 103.364C124.857 104.078 125.434 104.712 126.1 105.243C126.136 105.267 126.17 105.292 126.202 105.32C127.431 106.271 128.909 106.844 130.457 106.971C132.005 107.098 133.557 106.772 134.924 106.034C138.387 104.752 140.625 102.07 143.038 99.1659L149.945 90.9101C151.325 89.2644 152.704 87.6172 154.079 85.9686C154.088 85.9739 154.098 85.9766 154.109 85.9766C154.119 85.9766 154.13 85.9739 154.139 85.9686L167.806 75.3638C168.101 75.1355 168.295 74.7998 168.345 74.4295C168.394 74.0593 168.296 73.6844 168.071 73.3863L167.921 73.1472Z" fill="#F9D9EB"/>
<path id="Vector_24" opacity="0.32" d="M124.43 94.7372L130.588 86.3105L133.117 89.7786L124.43 94.7372Z" fill="#EF92C7"/>
<path id="Vector_25" d="M129.245 84.4188L130.847 83.4237L114.733 62.2781C113.614 60.787 112.164 59.5769 110.497 58.7436C108.83 57.9103 106.991 57.4769 105.127 57.4775H79.3947C77.7134 57.4773 76.0598 57.905 74.5893 58.7201C73.1189 59.5353 71.8801 60.7112 70.9894 62.1372C70.1908 63.4185 69.2811 64.6271 68.397 65.8315L67.8887 66.5106L55.1484 83.398L56.3443 84.1412L68.9992 92.0126L69.1102 92.0809L68.8497 109.336H117.077L117.107 92.1834V91.9528L129.245 84.4188Z" fill="#6D4AFE"/>
<path id="Vector_26" d="M126.349 132.89H59.6838C55.3703 132.89 51.2336 131.176 48.1835 128.126C45.1334 125.076 43.4199 120.94 43.4199 116.626V115.913C43.4199 114 44.1799 112.165 45.5328 110.812C46.8856 109.459 48.7204 108.699 50.6336 108.699H134.345C136.497 108.699 138.561 109.554 140.083 111.076C141.604 112.598 142.459 114.662 142.459 116.814C142.458 118.928 142.04 121.02 141.229 122.972C140.418 124.924 139.231 126.697 137.735 128.19C136.239 129.683 134.463 130.866 132.51 131.673C130.556 132.479 128.463 132.893 126.349 132.89Z" fill="#4521D9"/>
<path id="Vector_27" d="M143.728 116.059C143.254 111.672 139.487 108.636 135.527 107.295C133.469 106.603 131.281 106.384 129.127 106.657C126.973 106.929 124.908 107.684 123.086 108.866L74.7217 141.834C74.2318 142.383 73.9718 143.099 73.9956 143.835C74.0195 144.57 74.3253 145.268 74.8498 145.785L88.2991 159.067C88.668 159.432 89.1206 159.7 89.6172 159.849C90.1138 159.998 90.6393 160.023 91.1478 159.921L93.5011 159.435C93.5915 159.415 93.6766 159.377 93.7506 159.322C93.8246 159.266 93.8857 159.196 93.9296 159.114C93.9735 159.033 93.9991 158.943 94.0048 158.851C94.0105 158.759 93.996 158.666 93.9624 158.58L89.0166 146.327C103.538 141.005 118.059 135.573 132.696 130.559C134.908 129.803 137.3 129.179 139.102 127.595C140.832 126.249 141.989 124.285 142.771 122.239C143.572 120.283 143.899 118.165 143.728 116.059Z" fill="#F9D9EB"/>
<path id="Vector_28" d="M110.384 141.835L62.3908 108.867C60.5677 107.688 58.5018 106.937 56.3476 106.668C54.1933 106.4 52.0062 106.621 49.9495 107.317C45.986 108.658 42.2233 111.694 41.745 116.081C41.5747 118.18 41.9025 120.29 42.7017 122.239C43.479 124.285 44.6407 126.25 46.3662 127.595C48.1771 129.18 50.5688 129.803 52.7726 130.559C67.2939 135.535 81.7041 140.929 96.1315 146.212L91.1387 158.598C91.1051 158.684 91.0906 158.776 91.0963 158.869C91.1019 158.961 91.1276 159.051 91.1715 159.132C91.2154 159.213 91.2765 159.284 91.3505 159.339C91.4244 159.395 91.5096 159.433 91.6 159.452L93.9533 159.939C94.4611 160.041 94.9861 160.016 95.4821 159.867C95.9781 159.718 96.4299 159.449 96.7977 159.085L110.251 145.802C110.782 145.286 111.093 144.585 111.117 143.845C111.142 143.105 110.879 142.385 110.384 141.835Z" fill="#F9D9EB"/>
<path id="Vector_29" opacity="0.32" d="M92.6351 129.641L78.0882 139.566L73.625 137.939L92.6351 129.641Z" fill="#EF92C7"/>
<path id="Vector_30" opacity="0.32" d="M92.7402 144.941L107.185 139.632L109.256 141.054L92.7402 144.941Z" fill="#EF92C7"/>
<path id="Vector_31" d="M102.897 13.6752C103.412 12.11 103.548 10.4451 103.294 8.81719C103.041 7.18926 102.405 5.64465 101.439 4.3101C100.472 2.97555 99.2036 1.88909 97.7363 1.13986C96.2689 0.390639 94.6449 0 92.9973 0C91.3497 0 89.7256 0.390639 88.2583 1.13986C86.7909 1.88909 85.5221 2.97555 84.556 4.3101C83.5899 5.64465 82.9539 7.18926 82.7003 8.81719C82.4467 10.4451 82.5827 12.11 83.0972 13.6752C80.7755 15.0607 78.8534 17.0255 77.5192 19.3771C76.1851 21.7287 75.4846 24.3865 75.4863 27.0903V29.3026C75.4863 31.3543 75.8904 33.3859 76.6756 35.2814C77.4607 37.1769 78.6115 38.8991 80.0623 40.3499C82.9922 43.2798 86.966 44.9258 91.1095 44.9258H94.8936C99.0356 44.9236 103.007 43.2766 105.935 40.3469C108.863 37.4172 110.508 33.4447 110.508 29.3026V27.0903C110.51 24.3865 109.81 21.7287 108.475 19.3771C107.141 17.0255 105.219 15.0607 102.897 13.6752Z" fill="#2E178C"/>
<path id="Vector_32" d="M105.49 33.768H105.388L105.302 29.6593C105.291 29.2479 105.258 28.8373 105.204 28.4293H102.398C96.9908 28.4293 92.6088 28.4848 92.6088 23.082C92.6088 24.925 91.8767 26.6925 90.5735 27.9956C89.2704 29.2988 87.5029 30.0309 85.66 30.0309H80.4494C80.4494 30.0779 80.4494 30.1291 80.4494 30.1761L80.522 33.768C79.3333 33.7714 78.1941 34.2448 77.3532 35.0849C76.5122 35.9251 76.0377 37.0638 76.0332 38.2525V38.8889C76.0366 40.0779 76.5107 41.2173 77.3519 42.0577C78.1931 42.8981 79.3329 43.3711 80.522 43.3734H80.7355C80.8034 45.263 81.3328 47.1073 82.2776 48.7451C83.2223 50.383 84.5537 51.7647 86.1554 52.7695V60.0302C86.1554 61.7293 86.8304 63.3588 88.0318 64.5602C89.2332 65.7617 90.8627 66.4366 92.5618 66.4366H93.4673C95.1664 66.4366 96.7959 65.7617 97.9973 64.5602C99.1988 63.3588 99.8737 61.7293 99.8737 60.0302V52.9147C101.546 51.9276 102.944 50.5363 103.939 48.8685C104.933 47.2006 105.493 45.3097 105.567 43.3691C106.745 43.3512 107.869 42.8719 108.697 42.0341C109.525 41.1963 109.992 40.0669 109.996 38.8889V38.2525C109.991 37.0608 109.515 35.9196 108.67 35.0789C107.825 34.2383 106.682 33.7669 105.49 33.768Z" fill="#F9D9EB"/>
<path id="Vector_33" opacity="0.32" d="M105.433 41.6836C105.496 44.7305 104.346 47.6777 102.237 49.877C100.127 52.0763 97.2304 53.3478 94.1835 53.4117L92.5563 53.4458C89.509 53.5076 86.5618 52.3569 84.3626 50.2466C82.1634 48.1363 80.8921 45.2391 80.8282 42.1918L80.7129 43.2041C80.7552 45.2457 81.336 47.24 82.3965 48.9852C83.4569 50.7303 84.9594 52.1645 86.752 53.1426C87.2756 54.2726 88.1172 55.2254 89.1739 55.8846C90.2305 56.5438 91.4564 56.8807 92.7015 56.8541H93.6069C94.7708 56.8247 95.9046 56.4788 96.8866 55.8535C97.8686 55.2282 98.6617 54.3471 99.1806 53.3049C101.134 52.3196 102.768 50.8017 103.895 48.9266C105.022 47.0515 105.595 44.8958 105.549 42.7086L105.433 41.6836Z" fill="#EF92C7"/>
<path id="Vector_34" d="M78.5903 40.4714C78.5591 40.4725 78.5281 40.466 78.4999 40.4526C78.4717 40.4393 78.4471 40.4194 78.4281 40.3946C78.4095 40.3737 78.3953 40.3493 78.3863 40.3229C78.3773 40.2964 78.3737 40.2684 78.3757 40.2406C78.3777 40.2127 78.3852 40.1855 78.3979 40.1606C78.4105 40.1357 78.4281 40.1136 78.4494 40.0956L79.6624 39.0706L78.3085 37.0632C78.2776 37.0161 78.2665 36.9587 78.2777 36.9036C78.2889 36.8484 78.3215 36.7998 78.3683 36.7685C78.3911 36.7524 78.417 36.7411 78.4443 36.7352C78.4716 36.7293 78.4999 36.7289 78.5273 36.7341C78.5548 36.7393 78.5809 36.7499 78.6042 36.7653C78.6275 36.7808 78.6475 36.8007 78.663 36.824L80.1236 38.9937C80.1539 39.0369 80.1668 39.0899 80.1597 39.1422C80.1525 39.1944 80.1259 39.2421 80.0852 39.2756L78.727 40.4202C78.6891 40.4531 78.6406 40.4713 78.5903 40.4714Z" fill="#F7A9B4"/>
<path id="Vector_35" d="M107.614 40.4714C107.564 40.4713 107.515 40.4531 107.478 40.4202L106.119 39.2756C106.079 39.2421 106.052 39.1944 106.045 39.1422C106.038 39.0899 106.051 39.0369 106.081 38.9937L107.542 36.824C107.557 36.8007 107.577 36.7808 107.6 36.7653C107.624 36.7499 107.65 36.7393 107.677 36.7341C107.705 36.7289 107.733 36.7293 107.76 36.7352C107.788 36.7411 107.813 36.7524 107.836 36.7685C107.883 36.7998 107.916 36.8484 107.927 36.9036C107.938 36.9587 107.927 37.0161 107.896 37.0632L106.542 39.0706L107.751 40.0956C107.773 40.1133 107.79 40.1352 107.803 40.1599C107.817 40.1847 107.824 40.2118 107.827 40.2397C107.829 40.2675 107.826 40.2956 107.817 40.3222C107.809 40.3488 107.795 40.3734 107.777 40.3946C107.757 40.4189 107.732 40.4384 107.704 40.4517C107.676 40.465 107.645 40.4718 107.614 40.4714Z" fill="#F7A9B4"/>
<path id="Vector_36" d="M92.5481 48.5477C92.5161 48.5473 92.4846 48.5398 92.4558 48.5257C92.427 48.5117 92.4017 48.4915 92.3816 48.4666C92.3462 48.4229 92.3294 48.3669 92.335 48.3109C92.3406 48.255 92.3681 48.2035 92.4115 48.1676C92.7414 47.9083 93.1424 47.7555 93.5612 47.7295C93.98 47.7036 94.3968 47.8057 94.7562 48.0224C94.8037 48.053 94.8372 48.1013 94.8492 48.1565C94.8612 48.2117 94.8508 48.2695 94.8203 48.3171C94.8055 48.3411 94.7861 48.3618 94.7631 48.3781C94.7401 48.3944 94.7141 48.4058 94.6866 48.4118C94.6591 48.4178 94.6306 48.4182 94.603 48.4129C94.5753 48.4076 94.549 48.3968 94.5256 48.3812C94.2419 48.2127 93.9138 48.1339 93.5845 48.1553C93.2553 48.1766 92.9401 48.297 92.6805 48.5007C92.6428 48.5306 92.5962 48.5471 92.5481 48.5477Z" fill="#F7A9B4"/>
<path id="Vector_37" d="M91.6119 43.5693C90.9404 43.6126 90.2731 43.4356 89.7113 43.0653C89.542 42.9279 89.4072 42.7529 89.3175 42.5541C89.2277 42.3554 89.1856 42.1385 89.1945 41.9207C89.1945 41.8516 89.222 41.7853 89.2708 41.7365C89.3197 41.6876 89.386 41.6602 89.455 41.6602C89.5241 41.6602 89.5904 41.6876 89.6393 41.7365C89.6881 41.7853 89.7156 41.8516 89.7156 41.9207C89.7085 42.0606 89.7342 42.2002 89.7905 42.3285C89.8469 42.4568 89.9324 42.5701 90.0402 42.6596C90.7107 43.2105 92.2653 43.044 92.8078 42.9372C92.8751 42.9233 92.9453 42.9365 93.0029 42.9742C93.0605 43.0118 93.1009 43.0706 93.1153 43.1379C93.1279 43.2058 93.1136 43.2759 93.0753 43.3333C93.037 43.3908 92.9778 43.431 92.9103 43.4454C92.4821 43.5259 92.0475 43.5673 91.6119 43.5693Z" fill="#F7A9B4"/>
<path id="Vector_38" d="M96.6981 31.5536C96.9756 31.7165 97.284 31.8198 97.6036 31.8568C97.941 31.9209 98.2741 31.9978 98.5603 32.0704C98.8464 32.143 99.1753 32.2412 99.4999 32.348C99.7985 32.4673 100.118 32.5254 100.44 32.5188C100.713 32.4761 100.892 32.2028 100.696 31.7586C100.508 31.4373 100.255 31.1592 99.9525 30.9428C99.65 30.7264 99.305 30.5765 98.9404 30.5029C98.5871 30.3884 98.2132 30.3519 97.8445 30.3962C97.4757 30.4404 97.121 30.5643 96.8049 30.7592C96.4419 31.0539 96.476 31.3828 96.6981 31.5536Z" fill="#3E479B"/>
<path id="Vector_39" d="M98.339 37.5462C97.844 37.5429 97.3567 37.4229 96.9168 37.196C96.8523 37.1631 96.8034 37.1059 96.781 37.0371C96.7586 36.9682 96.7644 36.8932 96.7972 36.8287C96.8131 36.7969 96.8351 36.7685 96.8619 36.7453C96.8888 36.722 96.92 36.7043 96.9538 36.6932C96.9876 36.6821 97.0232 36.6778 97.0586 36.6805C97.094 36.6832 97.1286 36.6929 97.1602 36.7091C97.5065 36.899 97.895 36.9985 98.2899 36.9985C98.6848 36.9985 99.0733 36.899 99.4196 36.7091C99.449 36.6839 99.4835 36.6653 99.5207 36.6545C99.5579 36.6436 99.5969 36.6408 99.6353 36.6462C99.6736 36.6516 99.7104 36.6651 99.7432 36.6858C99.7759 36.7065 99.8039 36.7339 99.8252 36.7663C99.8466 36.7986 99.8608 36.8351 99.867 36.8733C99.8731 36.9116 99.8711 36.9507 99.861 36.9881C99.8509 37.0255 99.833 37.0603 99.8085 37.0902C99.7839 37.1202 99.7533 37.1446 99.7185 37.1618C99.3032 37.4152 98.8256 37.5483 98.339 37.5462Z" fill="#3E479B"/>
<path id="Vector_40" d="M93.6952 39.9195H91.4401C91.3835 39.9195 91.3292 39.897 91.2891 39.8569C91.2491 39.8169 91.2266 39.7625 91.2266 39.7059C91.2266 39.6493 91.2491 39.595 91.2891 39.5549C91.3292 39.5149 91.3835 39.4924 91.4401 39.4924H93.6952C93.7819 39.4929 93.8677 39.4741 93.9462 39.4372C94.0247 39.4003 94.094 39.3462 94.1489 39.279C94.2038 39.2119 94.2429 39.1332 94.2634 39.0489C94.284 38.9646 94.2854 38.8768 94.2675 38.7919L93.2254 33.5813C93.2198 33.5539 93.2196 33.5255 93.2249 33.498C93.2303 33.4705 93.241 33.4442 93.2565 33.4208C93.2719 33.3974 93.2919 33.3773 93.3151 33.3616C93.3383 33.3459 93.3645 33.335 93.3919 33.3294C93.4195 33.3231 93.448 33.3226 93.4757 33.3276C93.5035 33.3327 93.5299 33.3434 93.5534 33.3589C93.577 33.3745 93.5971 33.3946 93.6127 33.4182C93.6282 33.4417 93.6389 33.4682 93.6439 33.4959L94.7074 38.7108C94.7364 38.8573 94.7326 39.0085 94.6963 39.1534C94.6599 39.2983 94.5919 39.4334 94.4972 39.549C94.4025 39.6645 94.2834 39.7577 94.1484 39.8217C94.0134 39.8858 93.8659 39.9191 93.7165 39.9195H93.6952Z" fill="#F7A9B4"/>
<path id="Vector_41" d="M85.9768 33.4278C86.2985 33.4217 86.6156 33.349 86.9079 33.2143C87.2282 33.0947 87.5528 32.9837 87.8346 32.8982C88.1165 32.8128 88.4497 32.7231 88.7828 32.642C89.0997 32.5921 89.4025 32.4756 89.6712 32.3003C89.8847 32.1209 89.8932 31.7963 89.4918 31.5187C89.1665 31.3448 88.8083 31.2413 88.4404 31.2148C88.0725 31.1883 87.7031 31.2395 87.3563 31.365C86.9989 31.4519 86.6643 31.6148 86.3754 31.8425C86.0865 32.0702 85.8501 32.3574 85.6821 32.6847C85.4984 33.1545 85.6992 33.4278 85.9768 33.4278Z" fill="#3E479B"/>
<path id="Vector_42" d="M87.6863 37.5463C87.1911 37.544 86.7036 37.4239 86.264 37.1961C86.2068 37.1606 86.1647 37.1052 86.1458 37.0406C86.1269 36.9759 86.1325 36.9066 86.1615 36.8459C86.1774 36.8141 86.1994 36.7857 86.2263 36.7625C86.2531 36.7392 86.2844 36.7215 86.3181 36.7104C86.3519 36.6993 86.3875 36.695 86.4229 36.6977C86.4584 36.7004 86.4929 36.7101 86.5246 36.7263C86.8699 36.9166 87.2578 37.0164 87.6521 37.0164C88.0464 37.0164 88.4343 36.9166 88.7796 36.7263C88.8092 36.7028 88.8433 36.6857 88.8798 36.6761C88.9163 36.6664 88.9544 36.6644 88.9917 36.6703C89.029 36.6761 89.0647 36.6896 89.0966 36.7099C89.1284 36.7302 89.1557 36.7568 89.1767 36.7882C89.1977 36.8196 89.212 36.855 89.2187 36.8921C89.2253 36.9293 89.2242 36.9674 89.2154 37.0042C89.2066 37.0409 89.1902 37.0754 89.1674 37.1054C89.1446 37.1355 89.1158 37.1606 89.0829 37.179C88.6608 37.4295 88.177 37.5567 87.6863 37.5463Z" fill="#3E479B"/>
<path id="Vector_43" d="M77.3887 46.9966H76.9616C76.905 46.9966 76.8506 46.974 76.8106 46.934C76.7705 46.894 76.748 46.8396 76.748 46.783C76.748 46.7264 76.7705 46.672 76.8106 46.632C76.8506 46.5919 76.905 46.5695 76.9616 46.5695H77.3887C78.1816 46.5695 78.942 46.2545 79.5027 45.6938C80.0634 45.1331 80.3784 44.3727 80.3784 43.5798V29.319C80.3784 29.2624 80.4009 29.2081 80.4409 29.168C80.481 29.128 80.5353 29.1055 80.5919 29.1055C80.6486 29.1055 80.7029 29.128 80.7429 29.168C80.783 29.2081 80.8055 29.2624 80.8055 29.319V43.5969C80.8009 44.5001 80.439 45.3648 79.7987 46.0018C79.1584 46.6389 78.2919 46.9966 77.3887 46.9966Z" fill="#3E479B"/>
<path id="Vector_44" d="M79.7612 39.9196H79.5007C79.444 39.9196 79.3897 39.8971 79.3497 39.857C79.3096 39.817 79.2871 39.7626 79.2871 39.706C79.2871 39.6494 79.3096 39.5951 79.3497 39.555C79.3897 39.515 79.444 39.4925 79.5007 39.4925H79.7612C80.2047 39.4847 80.6278 39.3048 80.941 38.9908C81.2543 38.6768 81.4331 38.2532 81.4397 37.8097V29.319C81.4397 29.2624 81.4622 29.2081 81.5022 29.168C81.5423 29.128 81.5966 29.1055 81.6532 29.1055C81.7099 29.1055 81.7642 29.128 81.8042 29.168C81.8443 29.2081 81.8668 29.2624 81.8668 29.319V37.8097C81.8668 38.3685 81.6451 38.9045 81.2503 39.3001C80.8556 39.6956 80.32 39.9184 79.7612 39.9196Z" fill="#3E479B"/>
<path id="Vector_45" d="M108.862 45.8921H108.434C107.532 45.8864 106.668 45.5239 106.032 44.8838C105.396 44.2436 105.039 43.3778 105.039 42.4753V28.2145C105.039 28.1579 105.062 28.1036 105.102 28.0635C105.142 28.0235 105.196 28.001 105.253 28.001C105.309 28.001 105.364 28.0235 105.404 28.0635C105.444 28.1036 105.466 28.1579 105.466 28.2145V42.4966C105.466 43.2859 105.778 44.0431 106.334 44.6031C106.89 45.1632 107.645 45.4807 108.434 45.4863H108.862C108.918 45.4863 108.973 45.5088 109.013 45.5489C109.053 45.5889 109.075 45.6432 109.075 45.6999C109.069 45.7524 109.044 45.8008 109.005 45.8362C108.965 45.8715 108.914 45.8914 108.862 45.8921Z" fill="#3E479B"/>
<path id="Vector_46" d="M106.317 38.8151H106.057C105.498 38.8139 104.962 38.5911 104.568 38.1956C104.173 37.8 103.951 37.264 103.951 36.7052V28.2145C103.951 28.1579 103.974 28.1036 104.014 28.0635C104.054 28.0235 104.108 28.001 104.165 28.001C104.221 28.001 104.276 28.0235 104.316 28.0635C104.356 28.1036 104.378 28.1579 104.378 28.2145V36.7052C104.378 37.1508 104.555 37.5781 104.87 37.8936C105.184 38.209 105.611 38.3868 106.057 38.388H106.317C106.374 38.388 106.428 38.4105 106.468 38.4505C106.508 38.4906 106.531 38.5449 106.531 38.6015C106.531 38.6582 106.508 38.7125 106.468 38.7525C106.428 38.7926 106.374 38.8151 106.317 38.8151Z" fill="#3E479B"/>
<g id="Group" opacity="0.51">
<path id="Vector_47" d="M161.207 58.2027C160.857 58.164 160.526 58.0248 160.253 57.802C159.981 57.5792 159.779 57.2822 159.671 56.947C159.564 56.6118 159.555 56.2526 159.648 55.9129C159.74 55.5731 159.928 55.2673 160.19 55.0323C160.452 54.7973 160.777 54.6432 161.125 54.5885C161.472 54.5339 161.828 54.581 162.15 54.7243C162.472 54.8676 162.745 55.1009 162.937 55.3961C163.129 55.6912 163.231 56.0355 163.231 56.3876C163.202 56.896 162.972 57.372 162.593 57.712C162.214 58.052 161.716 58.2284 161.207 58.2027ZM161.207 55.4309C161.025 55.4673 160.858 55.5546 160.724 55.6826C160.59 55.8105 160.495 55.974 160.45 56.1538C160.405 56.3336 160.413 56.5225 160.471 56.6983C160.529 56.8742 160.637 57.0298 160.78 57.1471C160.924 57.2644 161.097 57.3385 161.281 57.3608C161.465 57.3831 161.652 57.3527 161.819 57.2731C161.987 57.1935 162.128 57.068 162.227 56.9113C162.325 56.7545 162.378 56.5729 162.377 56.3876C162.347 56.106 162.207 55.8475 161.989 55.6678C161.77 55.4881 161.489 55.4015 161.207 55.4266V55.4309Z" fill="#F7A9B4"/>
<path id="Vector_48" d="M166.963 56.3541C166.613 56.3154 166.282 56.1762 166.009 55.9533C165.737 55.7305 165.534 55.4336 165.427 55.0984C165.319 54.7632 165.311 54.404 165.403 54.0643C165.496 53.7245 165.684 53.4187 165.946 53.1837C166.208 52.9487 166.533 52.7945 166.88 52.7399C167.228 52.6852 167.584 52.7324 167.906 52.8757C168.227 53.019 168.501 53.2523 168.693 53.5474C168.884 53.8426 168.987 54.1869 168.987 54.5389C168.957 55.0474 168.728 55.5234 168.349 55.8634C167.97 56.2034 167.471 56.3798 166.963 56.3541ZM166.963 53.5822C166.781 53.6187 166.614 53.7059 166.479 53.8339C166.345 53.9619 166.251 54.1253 166.206 54.3052C166.161 54.485 166.168 54.6738 166.227 54.8497C166.285 55.0255 166.392 55.1812 166.536 55.2984C166.679 55.4157 166.853 55.4898 167.037 55.5122C167.221 55.5345 167.408 55.5041 167.575 55.4245C167.742 55.3449 167.884 55.2194 167.982 55.0626C168.081 54.9059 168.133 54.7242 168.133 54.5389C168.101 54.2586 167.96 54.0018 167.742 53.8232C167.523 53.6446 167.244 53.5582 166.963 53.5822Z" fill="#F7A9B4"/>
<path id="Vector_49" d="M162.814 56.8102C162.701 56.8102 162.592 56.7652 162.512 56.6851C162.432 56.605 162.387 56.4964 162.387 56.3831V49.0797C162.386 48.8999 162.451 48.7259 162.568 48.5901C162.686 48.4542 162.849 48.3657 163.027 48.3409L168.007 47.5934C168.123 47.5744 168.242 47.5815 168.355 47.614C168.468 47.6464 168.573 47.7036 168.661 47.7814C168.75 47.858 168.822 47.953 168.871 48.0598C168.921 48.1667 168.946 48.2829 168.947 48.4006V54.8071C168.947 54.9204 168.902 55.029 168.822 55.1091C168.742 55.1892 168.633 55.2342 168.52 55.2342C168.407 55.2342 168.298 55.1892 168.218 55.1091C168.138 55.029 168.093 54.9204 168.093 54.8071V48.4434L163.241 49.1694V56.3831C163.241 56.4964 163.196 56.605 163.116 56.6851C163.036 56.7652 162.927 56.8102 162.814 56.8102Z" fill="#F7A9B4"/>
<path id="Vector_50" d="M168.452 49.7133L162.748 50.5576L162.873 51.4026L168.577 50.5583L168.452 49.7133Z" fill="#F7A9B4"/>
</g>
<g id="Group_2" opacity="0.26">
<path id="Vector_51" d="M53.0436 41.5438C52.6924 41.5058 52.3597 41.3669 52.0858 41.1439C51.8119 40.9208 51.6085 40.6231 51.5002 40.2869C51.3918 39.9506 51.3833 39.5902 51.4755 39.2492C51.5677 38.9082 51.7568 38.6012 52.0198 38.3654C52.2828 38.1296 52.6085 37.975 52.9575 37.9204C53.3065 37.8658 53.6639 37.9135 53.9863 38.0577C54.3088 38.2019 54.5826 38.4365 54.7746 38.733C54.9665 39.0296 55.0685 39.3754 55.0681 39.7286C55.0383 40.2371 54.8088 40.7131 54.4296 41.0531C54.0504 41.3931 53.5523 41.5695 53.0436 41.5438ZM53.0436 38.7677C52.8621 38.804 52.6946 38.8912 52.5607 39.019C52.4267 39.1468 52.3318 39.3099 52.2869 39.4895C52.2421 39.6692 52.2491 39.8578 52.3072 40.0336C52.3653 40.2094 52.4721 40.365 52.6151 40.4825C52.7582 40.6 52.9317 40.6745 53.1154 40.6973C53.2991 40.7201 53.4855 40.6902 53.653 40.6113C53.8204 40.5323 53.962 40.4075 54.0613 40.2512C54.1606 40.095 54.2135 39.9138 54.2139 39.7286C54.1836 39.4467 54.0442 39.1879 53.8255 39.0075C53.6068 38.8271 53.3261 38.7395 53.0436 38.7634V38.7677Z" fill="#F7A9B4"/>
<path id="Vector_52" d="M58.7948 39.6949C58.445 39.6562 58.1138 39.517 57.8412 39.2942C57.5687 39.0713 57.3665 38.7744 57.259 38.4392C57.1515 38.104 57.1433 37.7448 57.2354 37.4051C57.3275 37.0653 57.516 36.7595 57.7781 36.5245C58.0402 36.2895 58.3647 36.1353 58.7125 36.0807C59.0602 36.0261 59.4164 36.0732 59.7379 36.2165C60.0595 36.3598 60.3327 36.5931 60.5245 36.8882C60.7164 37.1834 60.8188 37.5277 60.8193 37.8798C60.7895 38.3882 60.56 38.8642 60.1808 39.2042C59.8017 39.5442 59.3035 39.7206 58.7948 39.6949ZM58.7948 36.9231C58.6131 36.9595 58.4455 37.0468 58.3115 37.1747C58.1775 37.3027 58.0826 37.4662 58.0379 37.646C57.9932 37.8258 58.0005 38.0146 58.0589 38.1905C58.1173 38.3663 58.2245 38.522 58.368 38.6393C58.5115 38.7565 58.6853 38.8307 58.8693 38.853C59.0532 38.8753 59.2397 38.8449 59.4071 38.7653C59.5744 38.6857 59.7157 38.5602 59.8145 38.4035C59.9133 38.2467 59.9655 38.0651 59.9651 37.8798C59.9338 37.599 59.7938 37.3416 59.5751 37.1627C59.3563 36.9839 59.0763 36.8979 58.7948 36.9231Z" fill="#F7A9B4"/>
<path id="Vector_53" d="M54.6517 40.1516C54.5384 40.1516 54.4298 40.1066 54.3497 40.0265C54.2696 39.9464 54.2246 39.8378 54.2246 39.7245V32.4169C54.2238 32.2377 54.2877 32.0643 54.4047 31.9285C54.5216 31.7927 54.6837 31.7038 54.861 31.678L59.8409 30.9306C59.9577 30.9135 60.0768 30.9216 60.1901 30.9545C60.3035 30.9874 60.4084 31.0442 60.4979 31.1211C60.5874 31.1981 60.6593 31.2933 60.7088 31.4004C60.7583 31.5076 60.7842 31.6241 60.7848 31.7421V38.1485C60.7848 38.2618 60.7398 38.3704 60.6597 38.4505C60.5796 38.5306 60.471 38.5756 60.3577 38.5756C60.2445 38.5756 60.1358 38.5306 60.0557 38.4505C59.9756 38.3704 59.9306 38.2618 59.9306 38.1485V31.7848L55.0788 32.5109V39.7245C55.0788 39.7806 55.0678 39.8361 55.0463 39.888C55.0248 39.9398 54.9934 39.9869 54.9537 40.0265C54.9141 40.0662 54.867 40.0976 54.8152 40.1191C54.7633 40.1406 54.7078 40.1516 54.6517 40.1516Z" fill="#F7A9B4"/>
<path id="Vector_54" d="M60.2876 33.0473L54.584 33.8916L54.7091 34.7366L60.4127 33.8923L60.2876 33.0473Z" fill="#F7A9B4"/>
</g>
<g id="Group_3" opacity="0.65">
<path id="Vector_55" d="M10.0104 63.076C9.6592 63.0381 9.32652 62.8991 9.0526 62.6761C8.77868 62.453 8.57526 62.1554 8.46695 61.8191C8.35864 61.4829 8.35007 61.1225 8.44229 60.7814C8.53451 60.4404 8.72356 60.1335 8.98657 59.8976C9.24958 59.6618 9.57529 59.5072 9.9243 59.4526C10.2733 59.398 10.6307 59.4457 10.9531 59.5899C11.2756 59.7342 11.5494 59.9687 11.7414 60.2653C11.9333 60.5618 12.0353 60.9076 12.0349 61.2609C12.0051 61.7693 11.7756 62.2453 11.3964 62.5853C11.0172 62.9253 10.5191 63.1017 10.0104 63.076ZM10.0104 60.2999C9.8289 60.3363 9.66143 60.4234 9.52749 60.5512C9.39354 60.679 9.29861 60.8422 9.25373 61.0218C9.20885 61.2014 9.21587 61.39 9.27397 61.5658C9.33206 61.7416 9.43885 61.8973 9.58192 62.0147C9.72499 62.1322 9.89846 62.2067 10.0822 62.2295C10.2659 62.2523 10.4523 62.2225 10.6198 62.1435C10.7872 62.0646 10.9288 61.9397 11.0281 61.7835C11.1274 61.6272 11.1803 61.446 11.1807 61.2609C11.1494 60.9797 11.0095 60.7219 10.7909 60.5424C10.5723 60.3629 10.2923 60.2759 10.0104 60.2999Z" fill="#F28393"/>
<path id="Vector_56" d="M11.6185 61.6877C11.5052 61.6877 11.3966 61.6427 11.3165 61.5627C11.2364 61.4826 11.1914 61.3739 11.1914 61.2606V53.953C11.1923 53.7743 11.2569 53.6018 11.3735 53.4664C11.4901 53.331 11.6512 53.2416 11.8278 53.2141L16.8077 52.4667C16.9245 52.4496 17.0436 52.4578 17.1569 52.4906C17.2703 52.5235 17.3752 52.5803 17.4647 52.6572C17.5542 52.7342 17.6261 52.8294 17.6756 52.9366C17.7251 53.0437 17.751 53.1602 17.7516 53.2782V54.9866C17.7516 55.0999 17.7066 55.2085 17.6265 55.2886C17.5464 55.3687 17.4378 55.4137 17.3245 55.4137C17.2112 55.4137 17.1026 55.3687 17.0225 55.2886C16.9424 55.2085 16.8974 55.0999 16.8974 54.9866V53.3081L12.0456 54.0342V61.2478C12.0473 61.305 12.0375 61.3619 12.0168 61.4152C11.9961 61.4685 11.965 61.5171 11.9251 61.5582C11.8853 61.5992 11.8376 61.6318 11.785 61.6541C11.7323 61.6763 11.6757 61.6878 11.6185 61.6877Z" fill="#F28393"/>
<path id="Vector_57" d="M17.2525 54.5815L11.5488 55.4258L11.6739 56.2708L17.3776 55.4265L17.2525 54.5815Z" fill="#F28393"/>
</g>
<g id="Group_4" opacity="0.47">
<path id="Vector_58" d="M149.572 22.7076C149.222 22.6688 148.891 22.5295 148.618 22.3065C148.346 22.0835 148.143 21.7863 148.036 21.4509C147.929 21.1154 147.921 20.7561 148.013 20.4162C148.106 20.0764 148.295 19.7706 148.557 19.5357C148.82 19.3009 149.144 19.1471 149.492 19.093C149.84 19.0388 150.197 19.0866 150.518 19.2305C150.84 19.3745 151.113 19.6084 151.304 19.9041C151.495 20.1997 151.597 20.5445 151.597 20.8967C151.566 21.4044 151.336 21.8794 150.957 22.2184C150.578 22.5575 150.08 22.7333 149.572 22.7076ZM149.572 19.9358C149.391 19.9721 149.223 20.0593 149.089 20.1871C148.955 20.3149 148.86 20.478 148.816 20.6576C148.771 20.8372 148.778 21.0259 148.836 21.2017C148.894 21.3774 149.001 21.5331 149.144 21.6506C149.287 21.7681 149.46 21.8426 149.644 21.8653C149.828 21.8881 150.014 21.8583 150.182 21.7794C150.349 21.7004 150.491 21.5756 150.59 21.4193C150.689 21.2631 150.742 21.0818 150.742 20.8967C150.711 20.6156 150.571 20.3578 150.353 20.1783C150.134 19.9988 149.854 19.9117 149.572 19.9358Z" fill="#FF331F"/>
<path id="Vector_59" d="M151.179 21.323C151.066 21.323 150.957 21.278 150.877 21.1979C150.797 21.1178 150.752 21.0092 150.752 20.8959V13.5883C150.751 13.4091 150.815 13.2356 150.932 13.0999C151.049 12.9641 151.211 12.8751 151.388 12.8494L156.351 12.102C156.468 12.0833 156.587 12.0904 156.701 12.1227C156.815 12.155 156.92 12.2118 157.01 12.2891C157.099 12.3664 157.171 12.4624 157.219 12.5702C157.268 12.6781 157.292 12.7952 157.291 12.9135V14.6219C157.291 14.7351 157.246 14.8438 157.166 14.9239C157.086 15.004 156.977 15.049 156.864 15.049C156.75 15.049 156.642 15.004 156.562 14.9239C156.482 14.8438 156.437 14.7351 156.437 14.6219V12.9519L151.589 13.6822V20.8959C151.589 21.0063 151.547 21.1124 151.47 21.192C151.394 21.2716 151.289 21.3186 151.179 21.323Z" fill="#FF331F"/>
<path id="Vector_60" d="M156.819 14.2202L151.115 15.0645L151.24 15.9094L156.944 15.0652L156.819 14.2202Z" fill="#FF331F"/>
</g>
<g id="Group_5" opacity="0.23">
<path id="Vector_61" d="M124.288 40.0624C123.937 40.0244 123.604 39.8855 123.33 39.6624C123.056 39.4393 122.853 39.1417 122.744 38.8054C122.636 38.4692 122.627 38.1088 122.72 37.7678C122.812 37.4268 123.001 37.1198 123.264 36.884C123.527 36.6481 123.853 36.4936 124.202 36.439C124.551 36.3844 124.908 36.432 125.23 36.5763C125.553 36.7205 125.827 36.955 126.019 37.2516C126.211 37.5481 126.313 37.8939 126.312 38.2472C126.282 38.7556 126.053 39.2317 125.674 39.5717C125.295 39.9116 124.796 40.088 124.288 40.0624ZM124.288 37.2862C124.106 37.3226 123.939 37.4098 123.805 37.5375C123.671 37.6653 123.576 37.8285 123.531 38.0081C123.486 38.1877 123.493 38.3764 123.551 38.5521C123.609 38.7279 123.716 38.8836 123.859 39.0011C124.002 39.1186 124.176 39.193 124.36 39.2158C124.543 39.2386 124.73 39.2088 124.897 39.1298C125.065 39.0509 125.206 38.926 125.305 38.7698C125.405 38.6135 125.458 38.4323 125.458 38.2472C125.43 37.9637 125.291 37.7027 125.072 37.5205C124.853 37.3384 124.572 37.2496 124.288 37.2734V37.2862Z" fill="#6D4AFE"/>
<path id="Vector_62" d="M125.888 38.6735C125.775 38.6735 125.666 38.6285 125.586 38.5484C125.506 38.4683 125.461 38.3596 125.461 38.2464V30.9387C125.46 30.7596 125.524 30.5861 125.641 30.4503C125.758 30.3146 125.92 30.2256 126.097 30.1999L131.077 29.4524C131.194 29.436 131.312 29.4446 131.425 29.4778C131.538 29.511 131.642 29.5679 131.731 29.6448C131.82 29.7216 131.892 29.8167 131.941 29.9235C131.99 30.0302 132.016 30.1463 132.017 30.2639V31.9723C132.017 32.0856 131.972 32.1942 131.892 32.2743C131.812 32.3544 131.703 32.3994 131.59 32.3994C131.477 32.3994 131.368 32.3544 131.288 32.2743C131.208 32.1942 131.163 32.0856 131.163 31.9723V30.2938L126.315 31.0327V38.2464C126.315 38.3596 126.27 38.4683 126.19 38.5484C126.11 38.6285 126.001 38.6735 125.888 38.6735Z" fill="#6D4AFE"/>
<path id="Vector_63" d="M125.89 33.2572C125.834 33.2614 125.778 33.2546 125.724 33.237C125.671 33.2194 125.621 33.1915 125.579 33.1548C125.493 33.0807 125.439 32.9754 125.431 32.8622C125.422 32.7489 125.459 32.6369 125.533 32.5508C125.607 32.4647 125.713 32.4115 125.826 32.403L131.528 31.5488C131.583 31.5404 131.64 31.5429 131.694 31.5564C131.749 31.5698 131.8 31.5939 131.846 31.6272C131.891 31.6605 131.929 31.7025 131.958 31.7506C131.987 31.7987 132.006 31.8521 132.015 31.9076C132.023 31.9631 132.021 32.0198 132.007 32.0744C131.994 32.1289 131.97 32.1803 131.936 32.2255C131.903 32.2707 131.861 32.3089 131.813 32.3379C131.765 32.3669 131.711 32.3862 131.656 32.3945L125.95 33.2487L125.89 33.2572Z" fill="#6D4AFE"/>
</g>
<g id="Group_6" opacity="0.54">
<path id="Vector_64" d="M43.1354 14.577C42.7842 14.539 42.4515 14.4001 42.1776 14.1771C41.9037 13.954 41.7003 13.6563 41.592 13.3201C41.4836 12.9839 41.4751 12.6234 41.5673 12.2824C41.6595 11.9414 41.8486 11.6344 42.1116 11.3986C42.3746 11.1628 42.7003 11.0082 43.0493 10.9536C43.3983 10.899 43.7557 10.9467 44.0781 11.0909C44.4006 11.2351 44.6744 11.4697 44.8664 11.7662C45.0583 12.0628 45.1603 12.4086 45.1599 12.7618C45.1301 13.2703 44.9006 13.7463 44.5214 14.0863C44.1422 14.4263 43.6441 14.6027 43.1354 14.577ZM43.1354 11.8009C42.9539 11.8373 42.7864 11.9244 42.6525 12.0522C42.5185 12.18 42.4236 12.3432 42.3787 12.5228C42.3339 12.7024 42.3409 12.891 42.399 13.0668C42.4571 13.2426 42.5639 13.3982 42.7069 13.5157C42.85 13.6332 43.0235 13.7077 43.2072 13.7305C43.3909 13.7533 43.5773 13.7234 43.7448 13.6445C43.9122 13.5655 44.0538 13.4407 44.1531 13.2844C44.2524 13.1282 44.3053 12.947 44.3057 12.7618C44.2744 12.4807 44.1345 12.2229 43.9159 12.0434C43.6973 11.8639 43.4173 11.7769 43.1354 11.8009Z" fill="#6D4AFE"/>
<path id="Vector_65" d="M48.8854 12.7323C48.5342 12.6943 48.2015 12.5554 47.9276 12.3323C47.6537 12.1093 47.4503 11.8116 47.342 11.4754C47.2336 11.1391 47.2251 10.7787 47.3173 10.4377C47.4095 10.0967 47.5986 9.78971 47.8616 9.55389C48.1246 9.31806 48.4503 9.1635 48.7993 9.10889C49.1483 9.05428 49.5057 9.10197 49.8281 9.24618C50.1506 9.3904 50.4244 9.62496 50.6164 9.9215C50.8084 10.218 50.9103 10.5639 50.9099 10.9171C50.8801 11.4255 50.6506 11.9016 50.2714 12.2416C49.8922 12.5816 49.3941 12.7579 48.8854 12.7323ZM48.8854 9.95615C48.6036 9.93214 48.3235 10.0192 48.1049 10.1987C47.8863 10.3782 47.7464 10.636 47.7152 10.9171C47.7674 11.1892 47.9128 11.4346 48.1264 11.6111C48.34 11.7876 48.6084 11.8841 48.8854 11.8841C49.1625 11.8841 49.4309 11.7876 49.6445 11.6111C49.858 11.4346 50.0034 11.1892 50.0557 10.9171C50.0244 10.636 49.8845 10.3782 49.6659 10.1987C49.4473 10.0192 49.1673 9.93214 48.8854 9.95615Z" fill="#6D4AFE"/>
<path id="Vector_66" d="M44.7357 13.1887C44.6224 13.1887 44.5138 13.1437 44.4337 13.0636C44.3536 12.9835 44.3086 12.8749 44.3086 12.7616V5.454C44.3095 5.2753 44.3741 5.10278 44.4907 4.96737C44.6073 4.83197 44.7684 4.74254 44.945 4.71513L49.9249 3.96771C50.0417 3.95058 50.1608 3.95873 50.2741 3.9916C50.3874 4.02447 50.4924 4.08129 50.5819 4.15823C50.6714 4.23516 50.7433 4.33041 50.7928 4.43754C50.8423 4.54467 50.8682 4.66118 50.8688 4.77919V11.1856C50.8688 11.2989 50.8238 11.4075 50.7437 11.4876C50.6636 11.5677 50.555 11.6127 50.4417 11.6127C50.3284 11.6127 50.2198 11.5677 50.1397 11.4876C50.0596 11.4075 50.0146 11.2989 50.0146 11.1856V4.8219L45.1628 5.54796V12.7616C45.1628 12.8749 45.1178 12.9835 45.0377 13.0636C44.9576 13.1437 44.849 13.1887 44.7357 13.1887Z" fill="#6D4AFE"/>
<path id="Vector_67" d="M50.3794 6.08248L44.6758 6.92676L44.8009 7.77174L50.5045 6.92747L50.3794 6.08248Z" fill="#6D4AFE"/>
</g>
</g>
</svg>
