<svg width="101" height="100" viewBox="0 0 101 100" fill="none" xmlns="http://www.w3.org/2000/svg">
<path d="M61.8731 11.894C62.2838 6.50688 58.2496 1.80685 52.8624 1.3962C47.4753 0.985548 42.7753 5.01977 42.3646 10.4069C41.954 15.794 45.9882 20.494 51.3753 20.9047C56.7625 21.3153 61.4625 17.2811 61.8731 11.894Z" fill="#B5A6F2"/>
<path d="M52.1312 14.6814C51.4324 14.6814 50.7492 14.4742 50.1681 14.0859C49.587 13.6977 49.1341 13.1458 48.8666 12.5001C48.5992 11.8544 48.5292 11.1439 48.6656 10.4585C48.8019 9.77303 49.1384 9.14341 49.6326 8.64923C50.1268 8.15504 50.7564 7.8185 51.4419 7.68216C52.1273 7.54581 52.8378 7.61579 53.4835 7.88324C54.1292 8.15069 54.6811 8.6036 55.0693 9.18469C55.4576 9.76579 55.6648 10.449 55.6648 11.1479C55.664 12.0848 55.2915 12.9831 54.629 13.6456C53.9665 14.3081 53.0682 14.6806 52.1312 14.6814Z" fill="#2E168D"/>
<path d="M52.132 98.6352C55.7344 98.6352 58.6547 95.7149 58.6547 92.1125C58.6547 88.5101 55.7344 85.5898 52.132 85.5898C48.5297 85.5898 45.6094 88.5101 45.6094 92.1125C45.6094 95.7149 48.5297 98.6352 52.132 98.6352Z" fill="#B5A6F2"/>
<path d="M80.7562 27.0818C83.0077 27.0818 84.8328 25.2567 84.8328 23.0053C84.8328 20.7539 83.0077 18.9287 80.7562 18.9287C78.5048 18.9287 76.6797 20.7539 76.6797 23.0053C76.6797 25.2567 78.5048 27.0818 80.7562 27.0818Z" fill="#B5A6F2"/>
<path d="M23.5055 87.593C27.5579 87.593 30.843 84.3079 30.843 80.2555C30.843 76.2031 27.5579 72.918 23.5055 72.918C19.4531 72.918 16.168 76.2031 16.168 80.2555C16.168 84.3079 19.4531 87.593 23.5055 87.593Z" fill="#B5A6F2"/>
<path d="M92.6109 56.5227C91.6434 56.5227 90.6975 56.2357 89.893 55.6982C89.0885 55.1606 88.4614 54.3966 88.0911 53.5026C87.7209 52.6087 87.624 51.625 87.8128 50.676C88.0015 49.7271 88.4675 48.8554 89.1516 48.1712C89.8358 47.487 90.7075 47.0211 91.6565 46.8323C92.6055 46.6435 93.5892 46.7404 94.4831 47.1107C95.377 47.481 96.1411 48.108 96.6786 48.9125C97.2162 49.717 97.5031 50.6629 97.5031 51.6305C97.5031 52.928 96.9877 54.1723 96.0702 55.0898C95.1528 56.0072 93.9084 56.5227 92.6109 56.5227Z" fill="#B5A6F2"/>
<path d="M14.7905 59.166C18.9511 57.4414 20.9259 52.6705 19.2013 48.5099C17.4768 44.3492 12.7058 42.3744 8.54521 44.099C4.38458 45.8236 2.40977 50.5945 4.13436 54.7552C5.85896 58.9158 10.6299 60.8906 14.7905 59.166Z" fill="#B5A6F2"/>
<path d="M80.7578 85.9619C83.9097 85.9619 86.4648 83.4068 86.4648 80.2549C86.4648 77.103 83.9097 74.5479 80.7578 74.5479C77.6059 74.5479 75.0508 77.103 75.0508 80.2549C75.0508 83.4068 77.6059 85.9619 80.7578 85.9619Z" fill="#B5A6F2"/>
<path d="M23.507 31.973C28.4599 31.973 32.475 27.958 32.475 23.0051C32.475 18.0522 28.4599 14.0371 23.507 14.0371C18.5542 14.0371 14.5391 18.0522 14.5391 23.0051C14.5391 27.958 18.5542 31.973 23.507 31.973Z" fill="#B5A6F2"/>
<path d="M23.5082 25.7227C22.8792 25.7227 22.2696 25.5047 21.7833 25.1057C21.297 24.7067 20.9641 24.1514 20.8413 23.5345C20.7186 22.9176 20.8135 22.2772 21.11 21.7224C21.4065 21.1676 21.8862 20.7328 22.4674 20.4921C23.0485 20.2514 23.6951 20.2196 24.2971 20.4022C24.899 20.5848 25.419 20.9705 25.7684 21.4936C26.1179 22.0166 26.2752 22.6446 26.2135 23.2706C26.1517 23.8966 25.8749 24.4818 25.4301 24.9266C25.178 25.1794 24.8785 25.38 24.5486 25.5166C24.2188 25.6532 23.8652 25.7232 23.5082 25.7227Z" fill="#2E168D"/>
<path d="M12.6758 52.9971H10.625C10.2624 52.9971 9.91465 52.853 9.65825 52.5966C9.40185 52.3402 9.25781 51.9925 9.25781 51.6299C9.25781 51.2673 9.40185 50.9195 9.65825 50.6631C9.91465 50.4067 10.2624 50.2627 10.625 50.2627H12.6758C13.0384 50.2627 13.3861 50.4067 13.6425 50.6631C13.8989 50.9195 14.043 51.2673 14.043 51.6299C14.043 51.9925 13.8989 52.3402 13.6425 52.5966C13.3861 52.853 13.0384 52.9971 12.6758 52.9971Z" fill="#2E168D"/>
<path d="M24.5312 81.6221H22.4805C22.1179 81.6221 21.7701 81.478 21.5137 81.2216C21.2573 80.9652 21.1133 80.6175 21.1133 80.2549C21.1133 79.8923 21.2573 79.5445 21.5137 79.2881C21.7701 79.0317 22.1179 78.8877 22.4805 78.8877H24.5312C24.8939 78.8877 25.2416 79.0317 25.498 79.2881C25.7544 79.5445 25.8984 79.8923 25.8984 80.2549C25.8984 80.6175 25.7544 80.9652 25.498 81.2216C25.2416 81.478 24.8939 81.6221 24.5312 81.6221Z" fill="#2E168D"/>
<path d="M53.157 93.4795H51.1055C50.7429 93.4795 50.3951 93.3354 50.1387 93.0791C49.8823 92.8227 49.7383 92.4749 49.7383 92.1123C49.7383 91.7497 49.8823 91.402 50.1387 91.1456C50.3951 90.8892 50.7429 90.7451 51.1055 90.7451H53.157C53.5196 90.7451 53.8674 90.8892 54.1238 91.1456C54.3802 91.402 54.5242 91.7497 54.5242 92.1123C54.5242 92.4749 54.3802 92.8227 54.1238 93.0791C53.8674 93.3354 53.5196 93.4795 53.157 93.4795Z" fill="#2E168D"/>
<path d="M81.7812 81.6221H79.7305C79.3679 81.6221 79.0201 81.478 78.7637 81.2216C78.5073 80.9652 78.3633 80.6175 78.3633 80.2549C78.3633 79.8923 78.5073 79.5445 78.7637 79.2881C79.0201 79.0317 79.3679 78.8877 79.7305 78.8877H81.7812C82.1439 78.8877 82.4916 79.0317 82.748 79.2881C83.0044 79.5445 83.1484 79.8923 83.1484 80.2549C83.1484 80.6175 83.0044 80.9652 82.748 81.2216C82.4916 81.478 82.1439 81.6221 81.7812 81.6221Z" fill="#2E168D"/>
</svg>
