<svg width="32" height="32" viewBox="0 0 32 32" fill="none" xmlns="http://www.w3.org/2000/svg">
<rect width="32" height="32"/>
<path d="M22.1492 16.434V15.682C22.1492 12.3321 19.5412 9.46083 16.2132 9.39648C12.8212 9.33616 10.0492 12.0828 10.0492 15.4769V16.43C10.0492 18.5292 9.71716 20.6123 9.06516 22.6069L8.28516 24.9957H23.9172L23.1372 22.6069C22.4852 20.6123 22.1532 18.5292 22.1532 16.43L22.1492 16.434Z" fill="#B5A6F2"/>
<path d="M23.9134 25.6027H8.28137C8.08937 25.6027 7.90937 25.5102 7.79737 25.3534C7.68537 25.1966 7.65337 24.9955 7.71337 24.8105L8.49337 22.4177C9.12537 20.4834 9.44537 18.4687 9.44537 16.4298V15.4767C9.44537 13.6671 10.1534 11.974 11.4374 10.7033C12.6894 9.46467 14.3414 8.78906 16.0934 8.78906C16.1374 8.78906 16.1774 8.78906 16.2174 8.78906C19.8174 8.85743 22.7454 11.9459 22.7454 15.6738V16.4258C22.7454 18.4606 23.0654 20.4754 23.6974 22.4137L24.4774 24.8025C24.5374 24.9875 24.5054 25.1885 24.3934 25.3454C24.2814 25.5022 24.1014 25.5947 23.9094 25.5947L23.9134 25.6027ZM9.10937 24.3963H23.0814L22.5574 22.7958C21.8854 20.7368 21.5454 18.5974 21.5454 16.4338V15.6818C21.5454 12.6054 19.1454 10.0558 16.1974 10.0035C14.7254 9.97539 13.3294 10.5344 12.2774 11.5719C11.2254 12.6094 10.6454 14.0009 10.6454 15.4808V16.4338C10.6454 18.5974 10.3054 20.7408 9.63337 22.7958L9.10937 24.3963Z" fill="#2E168D"/>
<path d="M16.1 10.004C15.768 10.004 15.5 9.73458 15.5 9.4008V4.60322C15.5 4.26944 15.768 4 16.1 4C16.432 4 16.7 4.26944 16.7 4.60322V9.4008C16.7 9.73458 16.432 10.004 16.1 10.004Z" fill="#2E168D"/>
<path d="M13.6368 25H18.5528C18.5528 26.3231 17.4848 27.3968 16.1688 27.3968H16.0168C14.7008 27.3968 13.6328 26.3231 13.6328 25H13.6368Z" fill="white"/>
<path d="M16.1751 27.9997H16.0231C14.3791 27.9997 13.0391 26.6525 13.0391 24.9997C13.0391 24.6659 13.3071 24.3965 13.6391 24.3965H18.5551C18.8871 24.3965 19.1551 24.6659 19.1551 24.9997C19.1551 26.6525 17.8151 27.9997 16.1711 27.9997H16.1751ZM14.3431 25.6029C14.5911 26.2946 15.2511 26.7933 16.0231 26.7933H16.1751C16.9471 26.7933 17.6071 26.2946 17.8551 25.6029H14.3471H14.3431Z" fill="#2E168D"/>
<path d="M6.674 21.9562C6.522 21.9562 6.366 21.8959 6.25 21.7793C3.25 18.7632 3.25 13.857 6.25 10.8449C6.486 10.6077 6.866 10.6077 7.098 10.8449C7.33 11.0822 7.334 11.4642 7.098 11.6975C4.566 14.2431 4.566 18.3811 7.098 20.9267C7.334 21.164 7.334 21.546 7.098 21.7793C6.982 21.8959 6.826 21.9562 6.674 21.9562Z" fill="#2E168D"/>
<path d="M8.24744 19.0401C8.09544 19.0401 7.93944 18.9798 7.82344 18.8632C6.42344 17.4557 6.42344 15.1675 7.82344 13.76C8.05944 13.5227 8.43944 13.5227 8.67144 13.76C8.90344 13.9972 8.90744 14.3793 8.67144 14.6125C7.73944 15.5495 7.73944 17.0737 8.67144 18.0107C8.90744 18.2479 8.90744 18.63 8.67144 18.8632C8.55544 18.9798 8.39944 19.0401 8.24744 19.0401Z" fill="#2E168D"/>
<path d="M24.0697 19.0406C23.9177 19.0406 23.7617 18.9803 23.6457 18.8636C23.4098 18.6264 23.4098 18.2443 23.6457 18.0111C24.5777 17.0741 24.5777 15.55 23.6457 14.613C23.4098 14.3757 23.4098 13.9937 23.6457 13.7604C23.8817 13.5272 24.2617 13.5232 24.4937 13.7604C25.8937 15.1679 25.8937 17.4561 24.4937 18.8636C24.3777 18.9803 24.2217 19.0406 24.0697 19.0406Z" fill="#2E168D"/>
<path d="M25.5229 21.9557C25.3709 21.9557 25.2149 21.8954 25.0989 21.7787C24.8629 21.5415 24.8629 21.1594 25.0989 20.9262C27.6309 18.3806 27.6309 14.2425 25.0989 11.697C24.8629 11.4597 24.8629 11.0777 25.0989 10.8444C25.3349 10.6112 25.7149 10.6071 25.9469 10.8444C28.9469 13.8605 28.9469 18.7667 25.9469 21.7787C25.8309 21.8954 25.6749 21.9557 25.5229 21.9557Z" fill="#2E168D"/>
</svg>
