<svg width="24" height="24" viewBox="0 0 24 24" fill="none" xmlns="http://www.w3.org/2000/svg">
<g id="Group 1">
<path id="Vector" d="M12.0018 23.3337C18.2635 23.3337 23.3396 18.2576 23.3396 11.996C23.3396 5.73429 18.2635 0.658203 12.0018 0.658203C5.74015 0.658203 0.664062 5.73429 0.664062 11.996C0.664062 18.2576 5.74015 23.3337 12.0018 23.3337Z" fill="#B5A6F2"/>
<path id="Vector_2" d="M12 23.9956C5.3819 23.9956 0 18.6137 0 11.9956C0 5.37748 5.3819 0 12 0C18.6181 0 24 5.3819 24 12C24 18.6181 18.6181 24 12 24V23.9956ZM12 1.3245C6.11479 1.3245 1.3245 6.11479 1.3245 12C1.3245 17.8852 6.11479 22.6755 12 22.6755C17.8852 22.6755 22.6755 17.8852 22.6755 12C22.6755 6.11479 17.8852 1.3245 12 1.3245Z" fill="#2E168D"/>
<path id="Vector_3" d="M8.16298 11.285C8.90668 11.285 9.50956 10.6821 9.50956 9.93838C9.50956 9.19468 8.90668 8.5918 8.16298 8.5918C7.41929 8.5918 6.81641 9.19468 6.81641 9.93838C6.81641 10.6821 7.41929 11.285 8.16298 11.285Z" fill="#2E168D"/>
<path id="Vector_4" d="M15.831 11.285C16.5746 11.285 17.1775 10.6821 17.1775 9.93838C17.1775 9.19468 16.5746 8.5918 15.831 8.5918C15.0873 8.5918 14.4844 9.19468 14.4844 9.93838C14.4844 10.6821 15.0873 11.285 15.831 11.285Z" fill="#2E168D"/>
<path id="Vector_5" d="M10.0007 8.34013C9.93449 8.34013 9.86385 8.3313 9.79762 8.30922L5.88151 7.04211C5.53272 6.93174 5.34287 6.55646 5.45325 6.20768C5.56362 5.85889 5.9389 5.66905 6.28769 5.77942L10.2038 7.04653C10.5526 7.1569 10.7424 7.53218 10.6321 7.88097C10.5393 8.15911 10.2833 8.34013 10.0007 8.34013Z" fill="#2E168D"/>
<path id="Vector_6" d="M13.9987 8.34013C13.7205 8.34013 13.46 8.16353 13.3673 7.88097C13.2569 7.53218 13.4468 7.16132 13.7956 7.04653L17.7117 5.77942C18.0605 5.66905 18.4313 5.85889 18.5461 6.20768C18.6565 6.55646 18.4667 6.92732 18.1179 7.04211L14.2017 8.30922C14.1355 8.3313 14.0649 8.34013 13.9987 8.34013Z" fill="#2E168D"/>
<path id="Vector_7" d="M16.4465 18.194C16.4465 15.7392 14.4553 13.748 12.0006 13.748C9.54586 13.748 7.55469 15.7392 7.55469 18.194" fill="#B5A6F2"/>
<path id="Vector_8" d="M16.4447 18.8569C16.0783 18.8569 15.7825 18.5611 15.7825 18.1946C15.7825 16.1063 14.0827 14.4065 11.9988 14.4065C9.91491 14.4065 8.21513 16.1063 8.21513 18.1946C8.21513 18.5611 7.91932 18.8569 7.55288 18.8569C7.18643 18.8569 6.89062 18.5611 6.89062 18.1946C6.89062 15.3778 9.18202 13.082 11.9988 13.082C14.8156 13.082 17.107 15.3734 17.107 18.1946C17.107 18.5611 16.8112 18.8569 16.4447 18.8569Z" fill="#2E168D"/>
</g>
</svg>
