<svg width="24" height="24" viewBox="0 0 24 24" fill="none" xmlns="http://www.w3.org/2000/svg">
<path d="M12.0018 23.3376C18.2635 23.3376 23.3396 18.2615 23.3396 11.9999C23.3396 5.73819 18.2635 0.662109 12.0018 0.662109C5.74015 0.662109 0.664062 5.73819 0.664062 11.9999C0.664062 18.2615 5.74015 23.3376 12.0018 23.3376Z" fill="#B5A6F2"/>
<path d="M12 24C5.3819 24 0 18.6137 0 12C0 5.38631 5.3819 0 12 0C18.6181 0 24 5.3819 24 12C24 18.6181 18.6181 24 12 24ZM12 1.3245C6.11479 1.3245 1.3245 6.11479 1.3245 12C1.3245 17.8852 6.11479 22.6755 12 22.6755C17.8852 22.6755 22.6755 17.8852 22.6755 12C22.6755 6.11479 17.8852 1.3245 12 1.3245Z" fill="#2E168D"/>
<path d="M8.16298 11.2889C8.90668 11.2889 9.50956 10.686 9.50956 9.94228C9.50956 9.19859 8.90668 8.5957 8.16298 8.5957C7.41929 8.5957 6.81641 9.19859 6.81641 9.94228C6.81641 10.686 7.41929 11.2889 8.16298 11.2889Z" fill="#2E168D"/>
<path d="M15.831 11.2889C16.5746 11.2889 17.1775 10.686 17.1775 9.94228C17.1775 9.19859 16.5746 8.5957 15.831 8.5957C15.0873 8.5957 14.4844 9.19859 14.4844 9.94228C14.4844 10.686 15.0873 11.2889 15.831 11.2889Z" fill="#2E168D"/>
<path d="M6.07817 7.07683C5.76471 7.07683 5.48656 6.85608 5.42917 6.5382C5.36294 6.18059 5.59694 5.8318 5.95897 5.76558L9.87508 5.03268C10.2327 4.96646 10.5815 5.20045 10.6477 5.56249C10.7139 5.9201 10.4799 6.26889 10.1179 6.33511L6.20179 7.068C6.16206 7.07683 6.11791 7.08125 6.07817 7.08125V7.07683Z" fill="#2E168D"/>
<path d="M17.9165 7.07719C17.8768 7.07719 17.8371 7.07719 17.7929 7.06395L13.8768 6.33105C13.5192 6.26483 13.2808 5.91604 13.347 5.55843C13.4132 5.20081 13.7576 4.9624 14.1196 5.02863L18.0357 5.76152C18.3933 5.82774 18.6318 6.17653 18.5655 6.53415C18.5037 6.85203 18.2256 7.07278 17.9165 7.07278V7.07719Z" fill="#2E168D"/>
<path d="M12.0012 17.5366C10.8091 17.5366 9.61267 17.0819 8.70318 16.1724C8.44269 15.9119 8.44269 15.4925 8.70318 15.2364C8.96366 14.9803 9.38309 14.9759 9.63916 15.2364C10.9416 16.5388 13.0564 16.5388 14.3588 15.2364C14.6193 14.9759 15.0387 14.9759 15.2948 15.2364C15.5509 15.4969 15.5553 15.9163 15.2948 16.1724C14.3853 17.0819 13.1932 17.5366 11.9968 17.5366H12.0012Z" fill="#2E168D"/>
</svg>
