<svg width="24" height="24" viewBox="0 0 24 24" fill="none" xmlns="http://www.w3.org/2000/svg">
<g id="Group 4">
<path id="Vector" d="M12.0018 23.3376C18.2635 23.3376 23.3396 18.2615 23.3396 11.9999C23.3396 5.73819 18.2635 0.662109 12.0018 0.662109C5.74014 0.662109 0.664062 5.73819 0.664062 11.9999C0.664062 18.2615 5.74014 23.3376 12.0018 23.3376Z" fill="#B5A6F2"/>
<path id="Vector_2" d="M12 24C5.3819 24 0 18.6181 0 12C0 5.3819 5.3819 0 12 0C18.6181 0 24 5.3819 24 12C24 18.6181 18.6181 24 12 24ZM12 1.32892C6.11479 1.32892 1.3245 6.1192 1.3245 12.0044C1.3245 17.8896 6.11479 22.6799 12 22.6799C17.8852 22.6799 22.6755 17.8896 22.6755 12.0044C22.6755 6.1192 17.8852 1.32892 12 1.32892Z" fill="#2E168D"/>
<path id="Vector_3" d="M8.16299 11.2889C8.90668 11.2889 9.50957 10.686 9.50957 9.94228C9.50957 9.19859 8.90668 8.5957 8.16299 8.5957C7.41929 8.5957 6.81641 9.19859 6.81641 9.94228C6.81641 10.686 7.41929 11.2889 8.16299 11.2889Z" fill="#2E168D"/>
<path id="Vector_4" d="M15.8349 11.2889C16.5786 11.2889 17.1814 10.686 17.1814 9.94228C17.1814 9.19859 16.5786 8.5957 15.8349 8.5957C15.0912 8.5957 14.4883 9.19859 14.4883 9.94228C14.4883 10.686 15.0912 11.2889 15.8349 11.2889Z" fill="#2E168D"/>
<path id="Vector_5" d="M6.08208 7.08172C5.76862 7.08172 5.49047 6.86097 5.43307 6.54308C5.36685 6.18547 5.60084 5.83668 5.96287 5.77046L9.87899 5.03757C10.241 4.97134 10.5854 5.20534 10.6516 5.56737C10.7178 5.92498 10.4838 6.27377 10.1218 6.33999L6.2057 7.07289C6.16597 7.08172 6.12182 7.08613 6.08208 7.08613V7.08172Z" fill="#2E168D"/>
<path id="Vector_6" d="M17.9165 7.08207C17.8768 7.08207 17.837 7.08207 17.7929 7.06883L13.8768 6.33594C13.5192 6.26971 13.2808 5.92093 13.347 5.56331C13.4132 5.2057 13.7576 4.96728 14.1196 5.03351L18.0357 5.7664C18.3933 5.83263 18.6318 6.18141 18.5655 6.53903C18.5037 6.85691 18.2256 7.07766 17.9165 7.07766V7.08207Z" fill="#2E168D"/>
<path id="Vector_7" d="M13.9987 16.9534H9.99428C9.62784 16.9534 9.33203 16.6576 9.33203 16.2912C9.33203 15.9247 9.62784 15.6289 9.99428 15.6289H13.9987C14.3651 15.6289 14.6609 15.9247 14.6609 16.2912C14.6609 16.6576 14.3651 16.9534 13.9987 16.9534Z" fill="#2E168D"/>
</g>
</svg>
