<svg width="24" height="24" viewBox="0 0 24 24" fill="none" xmlns="http://www.w3.org/2000/svg">
<g id="Group 2">
<path id="Vector" d="M12.0018 23.3376C18.2635 23.3376 23.3396 18.2615 23.3396 11.9999C23.3396 5.73819 18.2635 0.662109 12.0018 0.662109C5.74014 0.662109 0.664062 5.73819 0.664062 11.9999C0.664062 18.2615 5.74014 23.3376 12.0018 23.3376Z" fill="#B5A6F2"/>
<path id="Vector_2" d="M12 24C5.3819 24 0 18.6181 0 12C0 5.3819 5.3819 0 12 0C18.6181 0 24 5.3819 24 12C24 18.6181 18.6181 24 12 24ZM12 1.32892C6.11479 1.32892 1.3245 6.1192 1.3245 12.0044C1.3245 17.8896 6.11479 22.6799 12 22.6799C17.8852 22.6799 22.6755 17.8896 22.6755 12.0044C22.6755 6.1192 17.8852 1.32892 12 1.32892Z" fill="#2E168D"/>
<path id="Vector_3" d="M8.16689 11.2889C8.91059 11.2889 9.51347 10.686 9.51347 9.94228C9.51347 9.19859 8.91059 8.5957 8.16689 8.5957C7.4232 8.5957 6.82031 9.19859 6.82031 9.94228C6.82031 10.686 7.4232 11.2889 8.16689 11.2889Z" fill="#2E168D"/>
<path id="Vector_4" d="M15.8349 11.2889C16.5786 11.2889 17.1814 10.686 17.1814 9.94228C17.1814 9.19859 16.5786 8.5957 15.8349 8.5957C15.0912 8.5957 14.4883 9.19859 14.4883 9.94228C14.4883 10.686 15.0912 11.2889 15.8349 11.2889Z" fill="#2E168D"/>
<path id="Vector_5" d="M9.99972 7.4711C9.99972 7.4711 9.95557 7.4711 9.9335 7.4711L6.01738 7.07817C5.65535 7.04285 5.38603 6.71613 5.42577 6.3541C5.46109 5.99207 5.78338 5.71834 6.14983 5.76249L10.0659 6.15543C10.428 6.19075 10.6973 6.51746 10.6576 6.87949C10.6222 7.21945 10.3353 7.47552 9.99972 7.47552V7.4711Z" fill="#2E168D"/>
<path id="Vector_6" d="M14.0008 7.46966C13.6653 7.46966 13.3783 7.21359 13.343 6.87363C13.3077 6.5116 13.5726 6.18489 13.9346 6.14957L17.8507 5.75663C18.2172 5.71248 18.5395 5.98621 18.5748 6.34824C18.6101 6.71027 18.3452 7.03699 17.9832 7.07231L14.0671 7.46524C14.045 7.46524 14.0229 7.46524 14.0008 7.46524V7.46966Z" fill="#2E168D"/>
<path id="Vector_7" d="M15.1469 15.9732C13.4118 14.2381 10.595 14.2381 8.85547 15.9732H15.1469Z" fill="#B5A6F2"/>
<path id="Vector_8" d="M15.1484 16.6353C14.9806 16.6353 14.8085 16.5691 14.6804 16.4411C13.2058 14.9665 10.804 14.9665 9.325 16.4411C9.06452 16.7016 8.6451 16.7016 8.38902 16.4411C8.13295 16.1806 8.12854 15.7612 8.38902 15.5051C10.3802 13.5139 13.6252 13.5139 15.6164 15.5051C15.8769 15.7656 15.8769 16.185 15.6164 16.4411C15.4884 16.5691 15.3162 16.6353 15.1484 16.6353Z" fill="#2E168D"/>
</g>
</svg>
