<svg width="24" height="24" viewBox="0 0 24 24" fill="none" xmlns="http://www.w3.org/2000/svg">
<g id="Layer_1" clip-path="url(#clip0_550_751)">
<path id="Vector" d="M11.9999 23.3376C18.2615 23.3376 23.3376 18.2615 23.3376 11.9999C23.3376 5.73819 18.2615 0.662109 11.9999 0.662109C5.73819 0.662109 0.662109 5.73819 0.662109 11.9999C0.662109 18.2615 5.73819 23.3376 11.9999 23.3376Z" fill="#B5A6F2"/>
<path id="Vector_2" d="M12 24C5.3819 24 0 18.6137 0 12C0 5.38631 5.3819 0 12 0C18.6181 0 24 5.3819 24 12C24 18.6181 18.6181 24 12 24ZM12 1.3245C6.11479 1.3245 1.3245 6.11479 1.3245 12C1.3245 17.8852 6.11479 22.6755 12 22.6755C17.8852 22.6755 22.6755 17.8852 22.6755 12C22.6755 6.11479 17.8852 1.3245 12 1.3245Z" fill="#2E168D"/>
<path id="Vector_3" d="M6.38864 13.5992C6.25619 13.5992 6.12374 13.5595 6.00453 13.4756C4.79482 12.6235 4.03985 11.3608 3.92506 10.023C3.82352 8.80449 4.24294 7.65659 5.11712 6.78241C6.64471 5.25482 9.13478 5.25482 10.6668 6.78241C11.2849 7.40052 11.6248 8.22171 11.6248 9.09588C11.6248 9.97005 11.2849 10.7912 10.6668 11.4093C9.57628 12.4999 7.74846 12.5175 6.68003 11.4447C5.66458 10.4292 5.5542 9.17977 6.40188 8.33208C6.82572 7.91266 7.40851 7.70515 7.9648 7.78462C8.54316 7.86409 9.04206 8.23495 9.36877 8.82215C9.54537 9.14003 9.43058 9.54621 9.1127 9.72281C8.79482 9.89941 8.38864 9.78462 8.21204 9.46674C8.12815 9.31663 7.98687 9.12679 7.78378 9.1003C7.63809 9.07822 7.47032 9.14445 7.34228 9.27248C6.90961 9.70515 7.39085 10.2835 7.62043 10.5131C8.16347 11.0561 9.17009 11.0385 9.73522 10.4778C10.1017 10.1113 10.3048 9.62127 10.3048 9.1003C10.3048 8.57932 10.1017 8.08926 9.73522 7.72281C9.24515 7.23275 8.59173 6.96343 7.89857 6.96343C7.20542 6.96343 6.55199 7.23275 6.06193 7.72281C5.47032 8.31442 5.18334 9.09147 5.25398 9.91266C5.33345 10.8619 5.88974 11.7714 6.77716 12.3983C7.07738 12.6102 7.14802 13.0252 6.9361 13.321C6.80806 13.5021 6.60056 13.5992 6.39305 13.5992H6.38864Z" fill="#2E168D"/>
<path id="Vector_4" d="M15.8418 12.7675C14.0361 12.7675 12.5703 11.3017 12.5703 9.49595C12.5703 7.95511 13.8507 6.65269 15.365 6.65269C16.7999 6.65269 17.7624 7.45622 17.7624 8.6571C17.7624 9.25313 17.4931 9.80942 17.0471 10.1494C16.5791 10.5026 15.9699 10.5953 15.3253 10.4099C14.9721 10.3083 14.769 9.94187 14.8705 9.59308C14.9721 9.23988 15.3385 9.03679 15.6873 9.13834C15.8551 9.1869 16.0847 9.21781 16.248 9.09419C16.3672 9.00589 16.4379 8.84253 16.4379 8.66152C16.4379 8.04783 15.6873 7.9816 15.365 7.9816C14.5968 7.9816 13.8948 8.70567 13.8948 9.50037C13.8948 10.5732 14.769 11.4474 15.8418 11.4474C17.2767 11.4474 18.4423 10.2818 18.4423 8.84695C18.4423 8.01251 18.0935 7.26196 17.4621 6.72774C16.7337 6.11405 15.7006 5.86681 14.6277 6.04783C14.2701 6.10964 13.9257 5.86681 13.8639 5.50478C13.8021 5.14275 14.0449 4.8028 14.407 4.74099C15.8639 4.48933 17.29 4.84695 18.3187 5.71229C19.2546 6.50258 19.7668 7.61074 19.7668 8.84253C19.7668 11.0059 18.0052 12.7675 15.8418 12.7675Z" fill="#2E168D"/>
<path id="Vector_5" d="M18.1643 17.4223C17.3343 17.4223 16.8795 17.0956 16.544 16.8572C16.2659 16.6586 16.0981 16.5393 15.6963 16.5393C15.2946 16.5393 15.1268 16.6586 14.8486 16.8572C14.5175 17.0956 14.0584 17.4223 13.2283 17.4223C12.3983 17.4223 11.9436 17.0956 11.608 16.8572C11.3299 16.6586 11.1665 16.5393 10.7603 16.5393C10.3542 16.5393 10.1908 16.6586 9.91266 16.8572C9.58154 17.0956 9.12237 17.4223 8.29235 17.4223C7.46233 17.4223 7.00758 17.0956 6.67204 16.8572C6.3939 16.6586 6.23054 16.5393 5.82436 16.5393C5.45792 16.5393 5.16211 16.2435 5.16211 15.8771C5.16211 15.5106 5.45792 15.2148 5.82436 15.2148C6.65438 15.2148 7.10913 15.5416 7.44467 15.78C7.72282 15.9786 7.88617 16.0978 8.29235 16.0978C8.69853 16.0978 8.86189 15.9786 9.14003 15.78C9.47116 15.5416 9.93032 15.2148 10.7559 15.2148C11.5815 15.2148 12.0407 15.5416 12.3762 15.78C12.6544 15.9786 12.8177 16.0978 13.2239 16.0978C13.6301 16.0978 13.7935 15.9786 14.0716 15.78C14.4027 15.5416 14.8619 15.2148 15.6919 15.2148C16.5219 15.2148 16.9767 15.5416 17.3122 15.78C17.5904 15.9786 17.7581 16.0978 18.1599 16.0978C18.5263 16.0978 18.8222 16.3937 18.8222 16.7601C18.8222 17.1265 18.5263 17.4223 18.1599 17.4223H18.1643Z" fill="#2E168D"/>
</g>
<defs>
<clipPath id="clip0_550_751">
<rect width="24" height="24" fill="white"/>
</clipPath>
</defs>
</svg>
