<svg width="26" height="26" viewBox="0 0 26 26" fill="none" xmlns="http://www.w3.org/2000/svg">
<path d="M11.9999 25.3376C18.2615 25.3376 23.3376 20.2615 23.3376 13.9999C23.3376 7.73819 18.2615 2.66211 11.9999 2.66211C5.73819 2.66211 0.662109 7.73819 0.662109 13.9999C0.662109 20.2615 5.73819 25.3376 11.9999 25.3376Z" fill="#B5A6F2"/>
<path d="M12 26C5.3819 26 0 20.6181 0 14C0 7.3819 5.3819 2 12 2C18.6181 2 24 7.3819 24 14C24 20.6181 18.6181 26 12 26ZM12 3.32892C6.11479 3.32892 1.3245 8.1192 1.3245 14.0044C1.3245 19.8896 6.11479 24.6799 12 24.6799C17.8852 24.6799 22.6755 19.8896 22.6755 14.0044C22.6755 8.1192 17.8852 3.32892 12 3.32892Z" fill="#2E168D"/>
<path d="M6.10547 12.04C7.1739 13.1085 8.909 13.1085 9.97743 12.04H6.10547Z" fill="#B5A6F2"/>
<path d="M8.04049 13.5007C7.17073 13.5007 6.30098 13.1696 5.63872 12.5073C5.37824 12.2468 5.37824 11.8274 5.63872 11.5713C5.89921 11.3153 6.31865 11.3109 6.57472 11.5713C7.38266 12.3793 8.69833 12.3793 9.5107 11.5713C9.77118 11.3109 10.1906 11.3109 10.4467 11.5713C10.7027 11.8318 10.7072 12.2513 10.4467 12.5073C9.78443 13.1696 8.91467 13.5007 8.04491 13.5007H8.04049Z" fill="#2E168D"/>
<path d="M14.0215 12.04C15.0899 13.1085 16.825 13.1085 17.8934 12.04H14.0215Z" fill="#B5A6F2"/>
<path d="M15.9604 13.5007C15.0907 13.5007 14.2209 13.1696 13.5586 12.5073C13.2982 12.2468 13.2982 11.8274 13.5586 11.5713C13.8191 11.3153 14.2386 11.3109 14.4946 11.5713C15.3026 12.3793 16.6183 12.3793 17.4306 11.5713C17.6911 11.3109 18.1105 11.3109 18.3666 11.5713C18.6227 11.8318 18.6271 12.2513 18.3666 12.5073C17.7043 13.1696 16.8346 13.5007 15.9648 13.5007H15.9604Z" fill="#2E168D"/>
<path d="M10.0002 9.08134H6.08413C5.71768 9.08134 5.42188 8.78553 5.42188 8.41909C5.42188 8.05264 5.71768 7.75684 6.08413 7.75684H10.0002C10.3667 7.75684 10.6625 8.05264 10.6625 8.41909C10.6625 8.78553 10.3667 9.08134 10.0002 9.08134Z" fill="#2E168D"/>
<path d="M17.9163 9.08134H14.0001C13.6337 9.08134 13.3379 8.78553 13.3379 8.41909C13.3379 8.05264 13.6337 7.75684 14.0001 7.75684H17.9163C18.2827 7.75684 18.5785 8.05264 18.5785 8.41909C18.5785 8.78553 18.2827 9.08134 17.9163 9.08134Z" fill="#2E168D"/>
<path d="M14.0006 18.9534H9.99624C9.62979 18.9534 9.33398 18.6576 9.33398 18.2912C9.33398 17.9247 9.62979 17.6289 9.99624 17.6289H14.0006C14.3671 17.6289 14.6629 17.9247 14.6629 18.2912C14.6629 18.6576 14.3671 18.9534 14.0006 18.9534Z" fill="#2E168D"/>
<path d="M20.1032 4.15639H17.7992C17.5632 4.15639 17.3472 4.01639 17.2512 3.80039C17.1552 3.58439 17.1952 3.33239 17.3552 3.15239L18.7552 1.60039H17.7992C17.4672 1.60039 17.1992 1.33239 17.1992 1.00039C17.1992 0.668391 17.4672 0.400391 17.7992 0.400391H20.1032C20.3392 0.400391 20.5552 0.540391 20.6512 0.756391C20.7472 0.972391 20.7072 1.22439 20.5472 1.40439L19.1472 2.95639H20.1032C20.4352 2.95639 20.7032 3.22439 20.7032 3.55639C20.7032 3.88839 20.4352 4.15639 20.1032 4.15639Z" fill="#2E168D"/>
<path d="M24.4157 7.9767H22.1117C21.8757 7.9767 21.6597 7.8367 21.5637 7.6207C21.4677 7.4047 21.5077 7.1527 21.6677 6.9727L23.0677 5.4207H22.1117C21.7797 5.4207 21.5117 5.1527 21.5117 4.8207C21.5117 4.4887 21.7797 4.2207 22.1117 4.2207H24.4157C24.6517 4.2207 24.8677 4.3607 24.9637 4.5767C25.0597 4.7927 25.0197 5.0447 24.8597 5.2247L23.4597 6.7767H24.4157C24.7477 6.7767 25.0157 7.0447 25.0157 7.3767C25.0157 7.7087 24.7477 7.9767 24.4157 7.9767Z" fill="#2E168D"/>
</svg>
