<svg width="24" height="24" viewBox="0 0 24 24" fill="none" xmlns="http://www.w3.org/2000/svg">
<g id="Group 3">
<path id="Vector" d="M12.0018 23.3376C18.2635 23.3376 23.3396 18.2615 23.3396 11.9999C23.3396 5.73819 18.2635 0.662109 12.0018 0.662109C5.74014 0.662109 0.664062 5.73819 0.664062 11.9999C0.664062 18.2615 5.74014 23.3376 12.0018 23.3376Z" fill="#B5A6F2"/>
<path id="Vector_2" d="M12 24C5.3819 24 0 18.6181 0 12C0 5.3819 5.3819 0 12 0C18.6181 0 24 5.3819 24 12C24 18.6181 18.6181 24 12 24ZM12 1.32892C6.11479 1.32892 1.3245 6.1192 1.3245 12.0044C1.3245 17.8896 6.11479 22.6799 12 22.6799C17.8852 22.6799 22.6755 17.8896 22.6755 12.0044C22.6755 6.1192 17.8852 1.32892 12 1.32892Z" fill="#2E168D"/>
<path id="Vector_3" d="M8.16298 11.2889C8.90667 11.2889 9.50956 10.686 9.50956 9.94228C9.50956 9.19859 8.90667 8.5957 8.16298 8.5957C7.41928 8.5957 6.81641 9.19859 6.81641 9.94228C6.81641 10.686 7.41928 11.2889 8.16298 11.2889Z" fill="#2E168D"/>
<path id="Vector_4" d="M15.8349 11.2889C16.5786 11.2889 17.1814 10.686 17.1814 9.94228C17.1814 9.19859 16.5786 8.5957 15.8349 8.5957C15.0912 8.5957 14.4883 9.19859 14.4883 9.94228C14.4883 10.686 15.0912 11.2889 15.8349 11.2889Z" fill="#2E168D"/>
<path id="Vector_5" d="M10.0002 7.08232H6.08413C5.71768 7.08232 5.42188 6.78651 5.42188 6.42006C5.42188 6.05362 5.71768 5.75781 6.08413 5.75781H10.0002C10.3667 5.75781 10.6625 6.05362 10.6625 6.42006C10.6625 6.78651 10.3667 7.08232 10.0002 7.08232Z" fill="#2E168D"/>
<path id="Vector_6" d="M17.9143 7.08232H13.9982C13.6317 7.08232 13.3359 6.78651 13.3359 6.42006C13.3359 6.05362 13.6317 5.75781 13.9982 5.75781H17.9143C18.2808 5.75781 18.5766 6.05362 18.5766 6.42006C18.5766 6.78651 18.2808 7.08232 17.9143 7.08232Z" fill="#2E168D"/>
<path id="Vector_7" d="M16.2111 16.9534H7.78725C7.42081 16.9534 7.125 16.6576 7.125 16.2912C7.125 15.9247 7.42081 15.6289 7.78725 15.6289H16.2111C16.5775 15.6289 16.8733 15.9247 16.8733 16.2912C16.8733 16.6576 16.5775 16.9534 16.2111 16.9534Z" fill="#2E168D"/>
</g>
</svg>
