<svg width="126" height="32" viewBox="0 0 126 32" fill="none" xmlns="http://www.w3.org/2000/svg">
<g id="macstories-black 1" clip-path="url(#clip0_169_2093)">
<path id="Vector" d="M46.746 22.9069V15.5604L44.415 22.9069H42.714L40.446 15.5604V22.9069H38.241V8.96736H40.446L43.596 18.1976L46.746 8.96736H48.951V22.9069H46.746ZM59.283 22.9069C56.133 23.2208 51.597 23.786 51.597 19.5162V17.8836C51.597 16.4395 52.164 15.6232 52.983 15.2464C54.369 14.5557 56.385 15.1836 57.078 15.5604C57.078 14.4929 55.944 14.3046 54.936 14.3046L55.125 12.7976C59.283 12.7976 59.283 15.0581 59.283 17.0046V22.9069ZM57.141 17.8836C56.385 17.3813 53.865 16.4395 53.865 18.1348V19.2022C53.865 20.5208 54.747 21.3371 57.141 20.8976V17.8836ZM68.103 22.7813C66.717 23.1581 65.142 23.2209 63.945 22.8441C62.37 22.3418 61.74 21.3371 61.74 19.3278V16.7534C61.74 12.8604 65.016 11.9185 68.103 13.3627L67.536 15.2464C65.142 14.3046 63.945 15.2464 63.945 16.6278V19.5162C63.945 21.3999 66.906 20.8976 67.599 20.5836L68.103 22.7813ZM72.324 19.0139C72.45 20.1441 73.332 20.9604 74.655 20.9604C76.419 20.9604 77.049 19.8929 77.049 19.2022C77.049 15.3092 70.308 16.6906 70.308 12.1697C70.308 10.4743 71.694 8.7162 74.844 8.7162C76.23 8.7162 76.986 8.90457 77.742 9.34411C77.742 9.34411 77.301 10.7255 77.049 11.4162C76.293 11.165 75.726 10.9767 74.844 10.9767C73.206 10.9767 72.639 11.6046 72.702 12.3581C72.891 14.3046 79.443 14.2418 79.443 18.9511C79.443 21.1488 78.057 23.0325 74.655 23.0325C71.568 23.0325 69.993 21.0232 69.93 19.265L72.324 19.0139ZM84.672 23.1581C82.278 23.0953 81.648 21.8395 81.648 20.2697V8.96736H83.853V12.9232H85.743L85.239 14.9953H83.853V20.2697C83.853 21.2743 84.483 21.3999 85.302 21.3999L84.672 23.1581ZM94.878 19.265C94.878 21.2743 93.807 23.0953 91.161 23.0953C88.578 23.0953 87.381 21.2743 87.381 19.265V16.6278C87.381 14.1162 88.704 12.7348 91.161 12.7348C93.492 12.7348 94.878 14.2418 94.878 16.6278V19.265ZM92.673 16.6278C92.673 14.9953 91.728 14.9325 91.161 14.9325C90.468 14.9325 89.586 15.1836 89.586 16.6278V19.4534C89.586 20.5836 90.342 20.9604 91.161 20.9604C91.98 20.9604 92.673 20.5209 92.673 19.4534V16.6278ZM97.398 22.9069V12.9232H99.414L99.603 12.986C100.989 12.4836 101.934 12.7976 103.005 12.986L102.501 15.1208C101.178 14.4302 99.603 15.0581 99.603 16.5022V22.9069H97.398ZM104.706 9.97201C104.706 9.34411 105.273 8.84178 105.903 8.84178C106.533 8.84178 107.037 9.4069 107.037 9.97201C107.037 10.5999 106.47 11.165 105.903 11.165C105.273 11.165 104.706 10.5999 104.706 9.97201ZM104.706 22.9069V12.9232H106.911V22.9069H104.706ZM111.762 19.3906V19.9557C111.762 21.2743 113.022 21.5883 115.416 20.3325L116.235 22.2162C115.29 22.7813 114.093 23.1581 112.959 23.1581C111.006 23.2209 109.557 22.3418 109.557 20.2697V16.1883C109.557 13.9906 111.069 12.7976 113.211 12.7976C115.416 12.7976 116.739 14.0534 116.739 16.1255V19.1395L111.762 19.3906ZM114.534 16.1255C114.534 15.3092 113.904 14.8697 113.211 14.8697C112.077 14.8697 111.762 15.6232 111.762 16.1255V17.3185L114.534 17.1302V16.1255ZM120.834 20.1441C120.834 20.5208 121.212 21.1488 122.346 21.1488C123.291 21.1488 123.732 20.5836 123.732 20.0813C123.732 18.0092 119.259 19.0767 118.881 15.686C118.755 14.4302 119.637 12.7348 122.283 12.7348C123.669 12.7348 124.488 13.2999 124.488 13.2999L123.858 15.3092C123.858 15.3092 123.417 14.8697 122.283 14.8697C121.023 14.8697 121.212 15.4976 121.275 15.686C121.527 16.8162 126.063 16.5022 126.063 20.0813C126.063 21.6511 124.992 23.1581 122.346 23.1581C119.952 23.1581 118.692 21.8395 118.629 20.3325L120.834 20.1441ZM15.75 0.302246C24.444 0.302246 31.5 7.3348 31.5 15.9999C31.5 24.665 24.444 31.6976 15.75 31.6976C7.056 31.6976 0 24.665 0 15.9999C0 7.3348 7.056 0.302246 15.75 0.302246ZM23.121 25.6697V6.33015C23.121 6.20457 22.995 6.07899 22.869 6.07899H8.694C8.568 6.07899 8.442 6.20457 8.442 6.33015V25.6697C8.442 25.7953 8.568 25.9209 8.694 25.9209C8.694 25.9209 14.994 21.7139 15.75 21.7139C16.506 21.7139 22.806 25.9209 22.806 25.9209C22.995 25.9209 23.121 25.7953 23.121 25.6697Z" fill="black"/>
</g>
<defs>
<clipPath id="clip0_169_2093">
<rect width="126" height="32" fill="white"/>
</clipPath>
</defs>
</svg>
