<svg width="32" height="32" viewBox="0 0 32 32" fill="none" xmlns="http://www.w3.org/2000/svg">
<g clip-path="url(#clip0_570_3410)">
<mask id="path-1-inside-1_570_3410" fill="white">
<path d="M1.73242 16.7301C4.14456 15.6765 7.1375 13.8783 8.99285 11.9741L7.53152 16.7301L8.99255 21.4851C7.1375 19.5805 4.14456 17.783 1.73242 16.7301Z"/>
</mask>
<path d="M1.73242 16.7301C4.14456 15.6765 7.1375 13.8783 8.99285 11.9741L7.53152 16.7301L8.99255 21.4851C7.1375 19.5805 4.14456 17.783 1.73242 16.7301Z" fill="#515E7A"/>
<path d="M1.73242 16.7301L-0.815342 8.64575L-19.3302 16.7328L-0.813839 24.8151L1.73242 16.7301ZM8.99285 11.9741L15.8805 14.9072L25.5034 -16.4112L4.17971 5.47445L8.99285 11.9741ZM7.53152 16.7301L0.643898 13.797L-0.257348 16.7301L0.643912 19.6633L7.53152 16.7301ZM8.99255 21.4851L4.17846 27.9837L25.5067 49.8817L15.8802 18.5519L8.99255 21.4851ZM4.28019 24.8145C7.12419 23.5722 11.0241 21.3289 13.806 18.4737L4.17971 5.47445C3.25089 6.42775 1.16492 7.78079 -0.815342 8.64575L4.28019 24.8145ZM2.10523 9.04094L0.643898 13.797L14.4191 19.6632L15.8805 14.9072L2.10523 9.04094ZM0.643912 19.6633L2.10495 24.4182L15.8802 18.5519L14.4191 13.7969L0.643912 19.6633ZM13.8066 14.9864C11.024 12.1294 7.12278 9.88653 4.27868 8.64509L-0.813839 24.8151C1.16633 25.6794 3.25103 27.0315 4.17846 27.9837L13.8066 14.9864Z" fill="url(#paint0_linear_570_3410)" mask="url(#path-1-inside-1_570_3410)"/>
<path d="M7.26953 16.7301L31.2695 16.7301" stroke="url(#paint1_linear_570_3410)"/>
</g>
<defs>
<linearGradient id="paint0_linear_570_3410" x1="4.47305" y1="17.1617" x2="10.0052" y2="17.1415" gradientUnits="userSpaceOnUse">
<stop stop-color="#FFDA81"/>
<stop offset="1" stop-color="#FFB574"/>
</linearGradient>
<linearGradient id="paint1_linear_570_3410" x1="24.6695" y1="16.9402" x2="24.6293" y2="17.9135" gradientUnits="userSpaceOnUse">
<stop stop-color="#FFDA81"/>
<stop offset="1" stop-color="#FFB574"/>
</linearGradient>
<clipPath id="clip0_570_3410">
<rect width="32" height="32" fill="white"/>
</clipPath>
</defs>
</svg>
