<svg width="24" height="24" viewBox="0 0 24 24" fill="none" xmlns="http://www.w3.org/2000/svg">
<mask id="path-1-inside-1" fill="white">
<path d="M22.4039 12.3109C22.3074 12.1134 22.3074 11.8868 22.4039 11.6892L23.299 9.85808C23.7974 8.8385 23.4025 7.62328 22.4001 7.09139L20.5996 6.13608C20.4054 6.03305 20.2722 5.84968 20.2342 5.63316L19.8821 3.62557C19.686 2.50779 18.652 1.75667 17.5286 1.91562L15.5105 2.20109C15.2927 2.23184 15.0773 2.16181 14.9193 2.00895L13.4544 0.591834C12.6387 -0.197255 11.3609 -0.197302 10.5453 0.591834L9.08035 2.00909C8.92229 2.162 8.7069 2.23189 8.48912 2.20123L6.47102 1.91576C5.3472 1.75672 4.31361 2.50793 4.11753 3.62571L3.76541 5.63321C3.7274 5.84977 3.59422 6.0331 3.40002 6.13618L1.59956 7.09148C0.597101 7.62332 0.202228 8.83865 0.700601 9.85822L1.59567 11.6893C1.69224 11.8869 1.69224 12.1135 1.59567 12.311L0.700554 14.1421C0.202182 15.1617 0.597054 16.3769 1.59952 16.9088L3.39998 17.8641C3.59422 17.9672 3.7274 18.1505 3.76541 18.3671L4.11753 20.3747C4.29603 21.3922 5.16856 22.1058 6.17135 22.1057C6.27011 22.1057 6.37033 22.0988 6.47107 22.0846L8.48916 21.7991C8.7068 21.7682 8.92233 21.8384 9.08039 21.9912L10.5453 23.4083C10.9532 23.8029 11.4764 24.0002 11.9998 24.0001C12.5231 24.0001 13.0466 23.8028 13.4543 23.4083L14.9193 21.9912C15.0773 21.8384 15.2927 21.7685 15.5105 21.7991L17.5286 22.0846C18.6525 22.2436 19.686 21.4924 19.8821 20.3746L20.2342 18.3671C20.2722 18.1505 20.4054 17.9672 20.5996 17.8641L22.4001 16.9088C23.4025 16.377 23.7974 15.1617 23.299 14.1421L22.4039 12.3109ZM21.7513 15.686L19.9508 16.6413C19.3768 16.946 18.9831 17.4877 18.8708 18.1279L18.5187 20.1354C18.4524 20.5136 18.1027 20.7676 17.7225 20.7139L15.7044 20.4285C15.0608 20.3373 14.4239 20.5444 13.9568 20.9963L12.4919 22.4133C12.216 22.6802 11.7837 22.6802 11.5077 22.4133L10.0428 20.9962C9.648 20.6143 9.13191 20.4074 8.59313 20.4074C8.49442 20.4074 8.3949 20.4143 8.29524 20.4284L6.27715 20.7139C5.89718 20.7676 5.54726 20.5135 5.48089 20.1354L5.12872 18.1278C5.0164 17.4876 4.62275 16.9458 4.04867 16.6413L2.24822 15.686C1.90903 15.506 1.77544 15.0949 1.94405 14.7499L2.83917 12.9188C3.12454 12.3349 3.12454 11.6652 2.83917 11.0814L1.94405 9.25021C1.77544 8.90526 1.90903 8.49412 2.24822 8.31416L4.04867 7.35886C4.6227 7.05422 5.0164 6.51244 5.12867 5.87232L5.48079 3.86477C5.54717 3.48658 5.89676 3.23252 6.27705 3.28624L8.29515 3.57171C8.93851 3.66279 9.57558 3.45574 10.0427 3.00391L11.5076 1.5868C11.7835 1.31989 12.2158 1.31989 12.4918 1.5868L13.9567 3.00391C14.4238 3.45579 15.0608 3.66279 15.7043 3.57171L17.7224 3.28624C18.1024 3.23248 18.4523 3.48658 18.5186 3.86477L18.8707 5.87237C18.9831 6.51249 19.3767 7.05431 19.9508 7.35886L21.7512 8.31416C22.0904 8.49412 22.224 8.90526 22.0554 9.25021L21.1603 11.0813C20.8749 11.6651 20.8749 12.3349 21.1603 12.9187L22.0554 14.7498C22.2241 15.0949 22.0905 15.5061 21.7513 15.686Z"/>
<path d="M21.7513 15.686L19.9508 16.6413C19.3768 16.946 18.9831 17.4877 18.8708 18.1279L18.5187 20.1354C18.4524 20.5136 18.1027 20.7676 17.7225 20.7139L15.7044 20.4285C15.0608 20.3373 14.4239 20.5444 13.9568 20.9963L12.4919 22.4133C12.216 22.6802 11.7837 22.6802 11.5077 22.4133L10.0428 20.9962C9.648 20.6143 9.13191 20.4074 8.59313 20.4074C8.49442 20.4074 8.3949 20.4143 8.29524 20.4284L6.27715 20.7139C5.89718 20.7676 5.54726 20.5135 5.48089 20.1354L5.12872 18.1278C5.0164 17.4876 4.62275 16.9458 4.04867 16.6413L2.24822 15.686C1.90903 15.506 1.77544 15.0949 1.94405 14.7499L2.83917 12.9188C3.12454 12.3349 3.12454 11.6652 2.83917 11.0814L1.94405 9.25021C1.77544 8.90526 1.90903 8.49412 2.24822 8.31416L4.04867 7.35886C4.6227 7.05422 5.0164 6.51244 5.12867 5.87232L5.48079 3.86477C5.54717 3.48658 5.89676 3.23252 6.27705 3.28624L8.29515 3.57171C8.93851 3.66279 9.57558 3.45574 10.0427 3.00391L11.5076 1.5868C11.7835 1.31989 12.2158 1.31989 12.4918 1.5868L13.9567 3.00391C14.4238 3.45579 15.0608 3.66279 15.7043 3.57171L17.7224 3.28624C18.1024 3.23248 18.4523 3.48658 18.5186 3.86477L18.8707 5.87237C18.9831 6.51249 19.3767 7.05431 19.9508 7.35886L21.7512 8.31416C22.0904 8.49412 22.224 8.90526 22.0554 9.25021L21.1603 11.0813C20.8749 11.6651 20.8749 12.3349 21.1603 12.9187L22.0554 14.7498C22.2241 15.0949 22.0905 15.5061 21.7513 15.686Z"/>
</mask>
<path d="M22.4039 12.3109C22.3074 12.1134 22.3074 11.8868 22.4039 11.6892L23.299 9.85808C23.7974 8.8385 23.4025 7.62328 22.4001 7.09139L20.5996 6.13608C20.4054 6.03305 20.2722 5.84968 20.2342 5.63316L19.8821 3.62557C19.686 2.50779 18.652 1.75667 17.5286 1.91562L15.5105 2.20109C15.2927 2.23184 15.0773 2.16181 14.9193 2.00895L13.4544 0.591834C12.6387 -0.197255 11.3609 -0.197302 10.5453 0.591834L9.08035 2.00909C8.92229 2.162 8.7069 2.23189 8.48912 2.20123L6.47102 1.91576C5.3472 1.75672 4.31361 2.50793 4.11753 3.62571L3.76541 5.63321C3.7274 5.84977 3.59422 6.0331 3.40002 6.13618L1.59956 7.09148C0.597101 7.62332 0.202228 8.83865 0.700601 9.85822L1.59567 11.6893C1.69224 11.8869 1.69224 12.1135 1.59567 12.311L0.700554 14.1421C0.202182 15.1617 0.597054 16.3769 1.59952 16.9088L3.39998 17.8641C3.59422 17.9672 3.7274 18.1505 3.76541 18.3671L4.11753 20.3747C4.29603 21.3922 5.16856 22.1058 6.17135 22.1057C6.27011 22.1057 6.37033 22.0988 6.47107 22.0846L8.48916 21.7991C8.7068 21.7682 8.92233 21.8384 9.08039 21.9912L10.5453 23.4083C10.9532 23.8029 11.4764 24.0002 11.9998 24.0001C12.5231 24.0001 13.0466 23.8028 13.4543 23.4083L14.9193 21.9912C15.0773 21.8384 15.2927 21.7685 15.5105 21.7991L17.5286 22.0846C18.6525 22.2436 19.686 21.4924 19.8821 20.3746L20.2342 18.3671C20.2722 18.1505 20.4054 17.9672 20.5996 17.8641L22.4001 16.9088C23.4025 16.377 23.7974 15.1617 23.299 14.1421L22.4039 12.3109ZM21.7513 15.686L19.9508 16.6413C19.3768 16.946 18.9831 17.4877 18.8708 18.1279L18.5187 20.1354C18.4524 20.5136 18.1027 20.7676 17.7225 20.7139L15.7044 20.4285C15.0608 20.3373 14.4239 20.5444 13.9568 20.9963L12.4919 22.4133C12.216 22.6802 11.7837 22.6802 11.5077 22.4133L10.0428 20.9962C9.648 20.6143 9.13191 20.4074 8.59313 20.4074C8.49442 20.4074 8.3949 20.4143 8.29524 20.4284L6.27715 20.7139C5.89718 20.7676 5.54726 20.5135 5.48089 20.1354L5.12872 18.1278C5.0164 17.4876 4.62275 16.9458 4.04867 16.6413L2.24822 15.686C1.90903 15.506 1.77544 15.0949 1.94405 14.7499L2.83917 12.9188C3.12454 12.3349 3.12454 11.6652 2.83917 11.0814L1.94405 9.25021C1.77544 8.90526 1.90903 8.49412 2.24822 8.31416L4.04867 7.35886C4.6227 7.05422 5.0164 6.51244 5.12867 5.87232L5.48079 3.86477C5.54717 3.48658 5.89676 3.23252 6.27705 3.28624L8.29515 3.57171C8.93851 3.66279 9.57558 3.45574 10.0427 3.00391L11.5076 1.5868C11.7835 1.31989 12.2158 1.31989 12.4918 1.5868L13.9567 3.00391C14.4238 3.45579 15.0608 3.66279 15.7043 3.57171L17.7224 3.28624C18.1024 3.23248 18.4523 3.48658 18.5186 3.86477L18.8707 5.87237C18.9831 6.51249 19.3767 7.05431 19.9508 7.35886L21.7512 8.31416C22.0904 8.49412 22.224 8.90526 22.0554 9.25021L21.1603 11.0813C20.8749 11.6651 20.8749 12.3349 21.1603 12.9187L22.0554 14.7498C22.2241 15.0949 22.0905 15.5061 21.7513 15.686Z" fill="#3856A7"/>
<path d="M21.7513 15.686L19.9508 16.6413C19.3768 16.946 18.9831 17.4877 18.8708 18.1279L18.5187 20.1354C18.4524 20.5136 18.1027 20.7676 17.7225 20.7139L15.7044 20.4285C15.0608 20.3373 14.4239 20.5444 13.9568 20.9963L12.4919 22.4133C12.216 22.6802 11.7837 22.6802 11.5077 22.4133L10.0428 20.9962C9.648 20.6143 9.13191 20.4074 8.59313 20.4074C8.49442 20.4074 8.3949 20.4143 8.29524 20.4284L6.27715 20.7139C5.89718 20.7676 5.54726 20.5135 5.48089 20.1354L5.12872 18.1278C5.0164 17.4876 4.62275 16.9458 4.04867 16.6413L2.24822 15.686C1.90903 15.506 1.77544 15.0949 1.94405 14.7499L2.83917 12.9188C3.12454 12.3349 3.12454 11.6652 2.83917 11.0814L1.94405 9.25021C1.77544 8.90526 1.90903 8.49412 2.24822 8.31416L4.04867 7.35886C4.6227 7.05422 5.0164 6.51244 5.12867 5.87232L5.48079 3.86477C5.54717 3.48658 5.89676 3.23252 6.27705 3.28624L8.29515 3.57171C8.93851 3.66279 9.57558 3.45574 10.0427 3.00391L11.5076 1.5868C11.7835 1.31989 12.2158 1.31989 12.4918 1.5868L13.9567 3.00391C14.4238 3.45579 15.0608 3.66279 15.7043 3.57171L17.7224 3.28624C18.1024 3.23248 18.4523 3.48658 18.5186 3.86477L18.8707 5.87237C18.9831 6.51249 19.3767 7.05431 19.9508 7.35886L21.7512 8.31416C22.0904 8.49412 22.224 8.90526 22.0554 9.25021L21.1603 11.0813C20.8749 11.6651 20.8749 12.3349 21.1603 12.9187L22.0554 14.7498C22.2241 15.0949 22.0905 15.5061 21.7513 15.686Z" fill="#3856A7"/>
<path d="M21.7513 15.686L21.2826 14.8026L21.2826 14.8027L21.7513 15.686ZM19.9508 16.6413L19.4821 15.758L19.4821 15.758L19.9508 16.6413ZM18.8708 18.1279L19.8558 18.3006L19.8558 18.3006L18.8708 18.1279ZM18.5187 20.1354L17.5337 19.9626L17.5337 19.9627L18.5187 20.1354ZM17.7225 20.7139L17.5824 21.7041L17.5827 21.7041L17.7225 20.7139ZM15.7044 20.4285L15.5641 21.4186L15.5643 21.4186L15.7044 20.4285ZM13.9568 20.9963L13.2616 20.2775L13.2616 20.2775L13.9568 20.9963ZM12.4919 22.4133L11.7966 21.6946L11.7966 21.6946L12.4919 22.4133ZM11.5077 22.4133L10.8124 23.1321L10.8125 23.1322L11.5077 22.4133ZM10.0428 20.9962L10.7381 20.2775L10.7381 20.2775L10.0428 20.9962ZM8.29524 20.4284L8.4353 21.4186L8.43543 21.4185L8.29524 20.4284ZM6.27715 20.7139L6.41713 21.704L6.4172 21.704L6.27715 20.7139ZM5.48089 20.1354L4.49592 20.3081L4.49594 20.3082L5.48089 20.1354ZM5.12872 18.1278L6.11368 17.955L6.11367 17.955L5.12872 18.1278ZM4.04867 16.6413L3.57997 17.5246L3.58004 17.5247L4.04867 16.6413ZM2.24822 15.686L2.71692 14.8026L2.71688 14.8026L2.24822 15.686ZM1.94405 14.7499L1.04564 14.3108L1.04563 14.3108L1.94405 14.7499ZM2.83917 12.9188L3.73757 13.3579L3.7376 13.3579L2.83917 12.9188ZM2.83917 11.0814L3.7376 10.6423L3.73757 10.6422L2.83917 11.0814ZM1.94405 9.25021L1.04563 9.68934L1.04564 9.68937L1.94405 9.25021ZM2.24822 8.31416L2.71688 9.19754L2.71692 9.19752L2.24822 8.31416ZM4.04867 7.35886L4.51738 8.24222L4.51745 8.24217L4.04867 7.35886ZM5.12867 5.87232L4.1437 5.69956L4.1437 5.69958L5.12867 5.87232ZM5.48079 3.86477L4.49585 3.6919L4.49583 3.69201L5.48079 3.86477ZM6.27705 3.28624L6.41711 2.2961L6.41692 2.29607L6.27705 3.28624ZM8.29515 3.57171L8.43532 2.58158L8.43521 2.58156L8.29515 3.57171ZM10.0427 3.00391L10.7379 3.72268L10.738 3.72265L10.0427 3.00391ZM11.5076 1.5868L12.2029 2.30554L12.2029 2.30553L11.5076 1.5868ZM12.4918 1.5868L13.1871 0.86807L13.187 0.867947L12.4918 1.5868ZM13.9567 3.00391L13.2614 3.72264L13.2614 3.72264L13.9567 3.00391ZM15.7043 3.57171L15.5642 2.58156L15.5641 2.58158L15.7043 3.57171ZM17.7224 3.28624L17.8624 4.27638L17.8624 4.27638L17.7224 3.28624ZM18.5186 3.86477L17.5337 4.03752L17.5337 4.03753L18.5186 3.86477ZM18.8707 5.87237L17.8858 6.04512L17.8858 6.04518L18.8707 5.87237ZM19.9508 7.35886L20.4195 6.4755L20.4194 6.47547L19.9508 7.35886ZM21.7512 8.31416L21.2825 9.19752L21.2826 9.19754L21.7512 8.31416ZM22.0554 9.25021L22.9538 9.68938L22.9538 9.68934L22.0554 9.25021ZM21.1603 11.0813L20.2619 10.6421L20.2619 10.6422L21.1603 11.0813ZM21.1603 12.9187L20.2619 13.3579L20.2619 13.3579L21.1603 12.9187ZM22.0554 14.7498L22.9538 14.3107L22.9538 14.3107L22.0554 14.7498ZM21.2826 14.8027L19.4821 15.758L20.4195 17.5247L22.22 16.5694L21.2826 14.8027ZM19.4821 15.758C18.6357 16.2072 18.0514 17.0111 17.8859 17.9551L19.8558 18.3006C19.9148 17.9644 20.1179 17.6847 20.4196 17.5246L19.4821 15.758ZM17.8859 17.9551L17.5337 19.9626L19.5037 20.3082L19.8558 18.3006L17.8859 17.9551ZM17.5337 19.9627C17.5606 19.8094 17.7088 19.7021 17.8622 19.7237L17.5827 21.7041C18.4967 21.8331 19.3441 21.2178 19.5037 20.3082L17.5337 19.9627ZM17.8625 19.7238L15.8444 19.4383L15.5643 21.4186L17.5824 21.7041L17.8625 19.7238ZM15.8446 19.4384C14.8953 19.3039 13.9502 19.6114 13.2616 20.2775L14.6521 21.715C14.8977 21.4775 15.2263 21.3707 15.5641 21.4186L15.8446 19.4384ZM13.2616 20.2775L11.7966 21.6946L13.1872 23.1321L14.6521 21.715L13.2616 20.2775ZM11.7966 21.6946C11.9084 21.5864 12.0913 21.5866 12.2028 21.6945L10.8125 23.1322C11.4761 23.7739 12.5235 23.7741 13.1872 23.1321L11.7966 21.6946ZM12.203 21.6946L10.7381 20.2775L9.34749 21.7149L10.8124 23.1321L12.203 21.6946ZM10.7381 20.2775C10.1571 19.7154 9.39176 19.4074 8.59313 19.4074V21.4074C8.87206 21.4074 9.13895 21.5132 9.3475 21.715L10.7381 20.2775ZM8.59313 19.4074C8.44754 19.4074 8.30118 19.4176 8.15506 19.4383L8.43543 21.4185C8.48862 21.411 8.54129 21.4074 8.59313 21.4074V19.4074ZM8.15518 19.4383L6.13709 19.7237L6.4172 21.704L8.4353 21.4186L8.15518 19.4383ZM6.13716 19.7237C6.29107 19.702 6.43895 19.8093 6.46583 19.9625L4.49594 20.3082C4.65557 21.2178 5.50329 21.8332 6.41713 21.704L6.13716 19.7237ZM6.46585 19.9626L6.11368 17.955L4.14375 18.3005L4.49592 20.3081L6.46585 19.9626ZM6.11367 17.955C5.94806 17.0111 5.36392 16.207 4.51731 15.7579L3.58004 17.5247C3.88158 17.6846 4.08474 17.9642 4.14376 18.3006L6.11367 17.955ZM4.51738 15.7579L2.71692 14.8026L1.77952 16.5693L3.57997 17.5246L4.51738 15.7579ZM2.71688 14.8026C2.85418 14.8754 2.91072 15.0494 2.84247 15.1891L1.04563 14.3108C0.640157 15.1403 0.963878 16.1366 1.77955 16.5693L2.71688 14.8026ZM2.84245 15.1891L3.73757 13.3579L1.94076 12.4796L1.04564 14.3108L2.84245 15.1891ZM3.7376 13.3579C4.1584 12.4969 4.1584 11.5032 3.7376 10.6423L1.94074 11.5205C2.09068 11.8273 2.09068 12.1729 1.94074 12.4796L3.7376 13.3579ZM3.73757 10.6422L2.84245 8.81104L1.04564 9.68937L1.94076 11.5205L3.73757 10.6422ZM2.84247 8.81107C2.91072 8.95071 2.85418 9.1247 2.71688 9.19754L1.77955 7.43079C0.963878 7.86354 0.640157 8.8598 1.04563 9.68934L2.84247 8.81107ZM2.71692 9.19752L4.51738 8.24222L3.57997 6.4755L1.77952 7.43081L2.71692 9.19752ZM4.51745 8.24217C5.36381 7.79301 5.94807 6.98909 6.11364 6.04506L4.1437 5.69958C4.08473 6.0358 3.88159 6.31543 3.5799 6.47554L4.51745 8.24217ZM6.11363 6.04508L6.46575 4.03753L4.49583 3.69201L4.1437 5.69956L6.11363 6.04508ZM6.46574 4.03763C6.43889 4.19062 6.29087 4.29812 6.13719 4.27641L6.41692 2.29607C5.50265 2.16693 4.65544 2.78255 4.49585 3.6919L6.46574 4.03763ZM6.13699 4.27638L8.15509 4.56185L8.43521 2.58156L6.41711 2.2961L6.13699 4.27638ZM8.15498 4.56184C9.10391 4.69617 10.0492 4.38886 10.7379 3.72268L9.34743 2.28515C9.10193 2.52262 8.7731 2.6294 8.43532 2.58158L8.15498 4.56184ZM10.738 3.72265L12.2029 2.30554L10.8123 0.868059L9.34741 2.28518L10.738 3.72265ZM12.2029 2.30553C12.0911 2.41371 11.9083 2.41355 11.7967 2.30565L13.187 0.867947C12.5234 0.22624 11.476 0.226073 10.8123 0.868065L12.2029 2.30553ZM11.7966 2.30553L13.2614 3.72264L14.652 2.28519L13.1871 0.86807L11.7966 2.30553ZM13.2614 3.72264C13.9502 4.38894 14.8954 4.69616 15.8444 4.56184L15.5641 2.58158C15.2262 2.62941 14.8975 2.52264 14.652 2.28518L13.2614 3.72264ZM15.8443 4.56185L17.8624 4.27638L17.5823 2.2961L15.5642 2.58156L15.8443 4.56185ZM17.8624 4.27638C17.7085 4.29816 17.5605 4.19075 17.5337 4.03752L19.5036 3.69202C19.3441 2.78242 18.4963 2.16679 17.5823 2.2961L17.8624 4.27638ZM17.5337 4.03753L17.8858 6.04512L19.8557 5.69961L19.5036 3.69201L17.5337 4.03753ZM17.8858 6.04518C18.0514 6.98906 18.6355 7.79313 19.4821 8.24225L20.4194 6.47547C20.1179 6.3155 19.9147 6.03592 19.8557 5.69955L17.8858 6.04518ZM19.4821 8.24222L21.2825 9.19752L22.2199 7.43081L20.4195 6.4755L19.4821 8.24222ZM21.2826 9.19754C21.1453 9.1247 21.0887 8.95071 21.157 8.81107L22.9538 9.68934C23.3593 8.8598 23.0356 7.86354 22.2199 7.43079L21.2826 9.19754ZM21.157 8.81103L20.2619 10.6421L22.0587 11.5205L22.9538 9.68938L21.157 8.81103ZM20.2619 10.6422C19.8411 11.5031 19.8411 12.4969 20.2619 13.3579L22.0587 12.4796C21.9088 12.1728 21.9088 11.8272 22.0587 11.5205L20.2619 10.6422ZM20.2619 13.3579L21.157 15.189L22.9538 14.3107L22.0587 12.4795L20.2619 13.3579ZM21.157 15.189C21.0888 15.0495 21.1452 14.8755 21.2826 14.8026L22.22 16.5694C23.0357 16.1366 23.3593 15.1402 22.9538 14.3107L21.157 15.189ZM22.4039 12.3109L20.607 13.1891L20.6071 13.1893L22.4039 12.3109ZM22.4039 11.6892L24.2007 12.5676L24.2007 12.5676L22.4039 11.6892ZM23.299 9.85808L25.0959 10.7364L25.0959 10.7364L23.299 9.85808ZM22.4001 7.09139L21.4627 8.8581L21.4627 8.85811L22.4001 7.09139ZM20.5996 6.13608L21.537 4.36937L21.5368 4.36923L20.5996 6.13608ZM20.2342 5.63316L18.2643 5.97868L18.2643 5.97903L20.2342 5.63316ZM19.8821 3.62557L21.852 3.28005L21.852 3.28001L19.8821 3.62557ZM17.5286 1.91562L17.8087 3.89591L17.8088 3.8959L17.5286 1.91562ZM15.5105 2.20109L15.79 4.18146L15.7906 4.18138L15.5105 2.20109ZM14.9193 2.00895L13.5287 3.44641L13.5287 3.44642L14.9193 2.00895ZM13.4544 0.591834L12.0638 2.02927L12.0638 2.02929L13.4544 0.591834ZM10.5453 0.591834L11.9359 2.02924L11.936 2.02919L10.5453 0.591834ZM9.08035 2.00909L10.4709 3.44656L10.471 3.4465L9.08035 2.00909ZM8.48912 2.20123L8.209 4.18152L8.21033 4.18171L8.48912 2.20123ZM6.47102 1.91576L6.19077 3.89603L6.1909 3.89605L6.47102 1.91576ZM4.11753 3.62571L2.14761 3.28015L2.14761 3.28018L4.11753 3.62571ZM3.76541 5.63321L5.73529 5.97901L5.73534 5.97874L3.76541 5.63321ZM3.40002 6.13618L4.33742 7.90289L4.33768 7.90276L3.40002 6.13618ZM1.59956 7.09148L2.53689 8.85824L2.53697 8.8582L1.59956 7.09148ZM0.700601 9.85822L-1.09623 10.7365L-1.09622 10.7365L0.700601 9.85822ZM1.59567 11.6893L3.39255 10.8111L3.3925 10.811L1.59567 11.6893ZM1.59567 12.311L-0.201125 11.4327L-0.201131 11.4327L1.59567 12.311ZM0.700554 14.1421L-1.09625 13.2638L-1.09627 13.2638L0.700554 14.1421ZM1.59952 16.9088L2.53692 15.1421L2.53691 15.1421L1.59952 16.9088ZM3.39998 17.8641L2.46257 19.6309L2.46283 19.631L3.39998 17.8641ZM3.76541 18.3671L5.73534 18.0215L5.73528 18.0212L3.76541 18.3671ZM4.11753 20.3747L2.14761 20.7202L2.14761 20.7202L4.11753 20.3747ZM6.17135 22.1057V20.1057H6.17116L6.17135 22.1057ZM6.47107 22.0846L6.19095 20.1043L6.19093 20.1043L6.47107 22.0846ZM8.48916 21.7991L8.76928 23.7794L8.77022 23.7792L8.48916 21.7991ZM9.08039 21.9912L10.471 20.5538L10.4707 20.5535L9.08039 21.9912ZM10.5453 23.4083L9.15469 24.8458L9.15471 24.8458L10.5453 23.4083ZM11.9998 24.0001L12 26.0001L11.9998 24.0001ZM13.4543 23.4083L12.0638 21.9709L12.0636 21.971L13.4543 23.4083ZM14.9193 21.9912L13.5289 20.5535L13.5287 20.5537L14.9193 21.9912ZM15.5105 21.7991L15.7906 19.8188L15.7885 19.8185L15.5105 21.7991ZM17.5286 22.0846L17.8087 20.1043L17.8087 20.1043L17.5286 22.0846ZM19.8821 20.3746L17.9121 20.029L17.9121 20.0291L19.8821 20.3746ZM20.2342 18.3671L18.2644 18.0213L18.2643 18.0215L20.2342 18.3671ZM20.5996 17.8641L19.6622 16.0974L19.662 16.0976L20.5996 17.8641ZM22.4001 16.9088L21.4628 15.1421L21.4627 15.1421L22.4001 16.9088ZM23.299 14.1421L25.0959 13.2638L25.0959 13.2638L23.299 14.1421ZM24.2008 11.4327C24.375 11.7892 24.3751 12.2108 24.2007 12.5676L20.6071 10.8109C20.2396 11.5627 20.2397 12.4375 20.607 13.1891L24.2008 11.4327ZM24.2007 12.5676L25.0959 10.7364L21.5022 8.97975L20.6071 10.8109L24.2007 12.5676ZM25.0959 10.7364C26.068 8.74763 25.2929 6.36216 23.3375 5.32467L21.4627 8.85811C21.481 8.86784 21.4904 8.87699 21.4958 8.88355C21.5021 8.89102 21.507 8.8999 21.5103 8.9099C21.5135 8.9199 21.5147 8.93 21.5141 8.9397C21.5135 8.94822 21.5113 8.96113 21.5022 8.97978L25.0959 10.7364ZM23.3375 5.32468L21.537 4.36937L19.6622 7.9028L21.4627 8.8581L23.3375 5.32468ZM21.5368 4.36923C21.8879 4.55548 22.1355 4.8967 22.2041 5.2873L18.2643 5.97903C18.4089 6.80265 18.9228 7.51063 19.6625 7.90293L21.5368 4.36923ZM22.2041 5.28765L21.852 3.28005L17.9121 3.97108L18.2643 5.97868L22.2041 5.28765ZM21.852 3.28001C21.4695 1.09969 19.4401 -0.374742 17.2484 -0.0646535L17.8088 3.8959C17.8292 3.89301 17.8421 3.8949 17.8503 3.897C17.8597 3.89939 17.869 3.90366 17.8775 3.90987C17.8861 3.91608 17.893 3.92357 17.8982 3.93181C17.9028 3.93904 17.9086 3.95075 17.9121 3.97113L21.852 3.28001ZM17.2485 -0.0646625L15.2304 0.220805L15.7906 4.18138L17.8087 3.89591L17.2485 -0.0646625ZM15.2309 0.220726C15.6236 0.165289 16.0245 0.295494 16.3098 0.571479L13.5287 3.44642C14.13 4.02813 14.9617 4.29839 15.79 4.18146L15.2309 0.220726ZM16.3098 0.571496L14.845 -0.84562L12.0638 2.02929L13.5287 3.44641L16.3098 0.571496ZM14.845 -0.845604C13.254 -2.3847 10.7457 -2.38492 9.15459 -0.845523L11.936 2.02919C11.9509 2.01477 11.9624 2.00872 11.9703 2.00557C11.9793 2.00198 11.9893 2 11.9998 2C12.0103 2 12.0203 2.00198 12.0293 2.00558C12.0372 2.00875 12.0488 2.01483 12.0638 2.02927L14.845 -0.845604ZM9.15464 -0.845573L7.68972 0.571684L10.471 3.4465L11.9359 2.02924L9.15464 -0.845573ZM7.68977 0.571627C7.97559 0.295139 8.37643 0.165651 8.7679 0.220757L8.21033 4.18171C9.03736 4.29812 9.86899 4.02886 10.4709 3.44656L7.68977 0.571627ZM8.76924 0.220945L6.75114 -0.0645219L6.1909 3.89605L8.209 4.18152L8.76924 0.220945ZM6.75127 -0.064503C4.5589 -0.374773 2.53003 1.10013 2.14761 3.28015L6.08745 3.97127C6.09105 3.95077 6.09688 3.939 6.10145 3.93176C6.10665 3.92351 6.11356 3.91605 6.12204 3.90989C6.13051 3.90374 6.1397 3.8995 6.14907 3.89712C6.15728 3.89503 6.1702 3.89312 6.19077 3.89603L6.75127 -0.064503ZM2.14761 3.28018L1.79548 5.28768L5.73534 5.97874L6.08746 3.97124L2.14761 3.28018ZM1.79553 5.28742C1.86412 4.89669 2.11174 4.5557 2.46237 4.3696L4.33768 7.90276C5.07671 7.5105 5.59067 6.80285 5.73529 5.97901L1.79553 5.28742ZM2.46262 4.36946L0.662162 5.32477L2.53697 8.8582L4.33742 7.90289L2.46262 4.36946ZM0.66224 5.32473C-1.29329 6.3622 -2.0683 8.74784 -1.09623 10.7365L2.49743 8.97992C2.48832 8.96128 2.48612 8.94837 2.48556 8.93984C2.48493 8.93011 2.48613 8.91999 2.48938 8.90998C2.49264 8.89997 2.49761 8.89109 2.50382 8.88362C2.50926 8.87707 2.5186 8.86794 2.53689 8.85824L0.66224 5.32473ZM-1.09622 10.7365L-0.201149 12.5676L3.3925 10.811L2.49742 8.97991L-1.09622 10.7365ZM-0.201207 12.5675C-0.375439 12.211 -0.37553 11.7894 -0.201125 11.4327L3.39247 13.1894C3.76 12.4376 3.75991 11.5628 3.39255 10.8111L-0.201207 12.5675ZM-0.201131 11.4327L-1.09625 13.2638L2.49736 15.0205L3.39248 13.1894L-0.201131 11.4327ZM-1.09627 13.2638C-2.06838 15.2526 -1.29326 17.6381 0.662129 18.6756L2.53691 15.1421C2.51858 15.1324 2.50922 15.1232 2.50376 15.1167C2.49754 15.1092 2.49258 15.1003 2.48933 15.0903C2.48608 15.0803 2.48488 15.0702 2.48552 15.0605C2.48607 15.052 2.48827 15.0391 2.49738 15.0204L-1.09627 13.2638ZM0.662115 18.6755L2.46257 19.6309L4.33738 16.0974L2.53692 15.1421L0.662115 18.6755ZM2.46283 19.631C2.1117 19.4447 1.86412 19.1035 1.79554 18.7129L5.73528 18.0212C5.59067 17.1976 5.07675 16.4896 4.33712 16.0973L2.46283 19.631ZM1.79548 18.7126L2.14761 20.7202L6.08746 20.0291L5.73534 18.0215L1.79548 18.7126ZM2.14761 20.7202C2.49548 22.7033 4.20636 24.1059 6.17154 24.1057L6.17116 20.1057C6.14918 20.1057 6.13186 20.0989 6.11758 20.0869C6.11039 20.0809 6.10454 20.074 6.10003 20.0662C6.09596 20.0593 6.09077 20.048 6.08745 20.0291L2.14761 20.7202ZM6.17135 24.1057C6.36368 24.1057 6.55751 24.0922 6.7512 24.0648L6.19093 20.1043C6.18316 20.1054 6.17655 20.1057 6.17135 20.1057V24.1057ZM6.75118 24.0648L8.76928 23.7794L8.20905 19.8188L6.19095 20.1043L6.75118 24.0648ZM8.77022 23.7792C8.37532 23.8353 7.97446 23.704 7.69004 23.4289L10.4707 20.5535C9.8702 19.9728 9.03829 19.7011 8.20811 19.8189L8.77022 23.7792ZM7.68981 23.4287L9.15469 24.8458L11.9359 21.9709L10.471 20.5538L7.68981 23.4287ZM9.15471 24.8458C9.94541 25.6107 10.9713 26.0002 12 26.0001L11.9996 22.0001C11.9891 22.0001 11.9793 21.9982 11.9703 21.9946C11.9625 21.9915 11.9509 21.9854 11.9358 21.9709L9.15471 24.8458ZM12 26.0001C13.0279 26 14.0542 25.6109 14.845 24.8457L12.0636 21.971C12.0489 21.9852 12.0374 21.9913 12.0294 21.9945C12.0202 21.9981 12.0102 22.0001 11.9996 22.0001L12 26.0001ZM14.8449 24.8458L16.3098 23.4287L13.5287 20.5537L12.0638 21.9709L14.8449 24.8458ZM16.3096 23.4289C16.0236 23.7055 15.6231 23.8345 15.2325 23.7797L15.7885 19.8185C14.9624 19.7025 14.131 19.9712 13.5289 20.5535L16.3096 23.4289ZM15.2304 23.7794L17.2485 24.0648L17.8087 20.1043L15.7906 19.8188L15.2304 23.7794ZM17.2484 24.0648C19.4409 24.375 21.4696 22.9002 21.852 20.7202L17.9121 20.0291C17.9085 20.0496 17.9027 20.0614 17.8981 20.0686C17.8929 20.0768 17.886 20.0843 17.8776 20.0904C17.8691 20.0966 17.86 20.1008 17.8506 20.1032C17.8424 20.1053 17.8294 20.1072 17.8087 20.1043L17.2484 24.0648ZM21.852 20.7202L22.2042 18.7127L18.2643 18.0215L17.9121 20.029L21.852 20.7202ZM22.2041 18.7129C22.1355 19.1036 21.8879 19.4446 21.5373 19.6307L19.662 16.0976C18.9229 16.4898 18.409 17.1975 18.2644 18.0213L22.2041 18.7129ZM21.537 19.6309L23.3375 18.6755L21.4627 15.1421L19.6622 16.0974L21.537 19.6309ZM23.3374 18.6756C25.2929 17.6381 26.0679 15.2525 25.0959 13.2638L21.5022 15.0204C21.5113 15.039 21.5135 15.052 21.5141 15.0605C21.5147 15.0702 21.5135 15.0803 21.5103 15.0903C21.507 15.1004 21.502 15.1092 21.4958 15.1167C21.4904 15.1232 21.481 15.1324 21.4628 15.1421L23.3374 18.6756ZM25.0959 13.2638L24.2007 11.4326L20.6071 13.1893L21.5022 15.0204L25.0959 13.2638Z" fill="#3856A7" mask="url(#path-1-inside-1)"/>
</svg>
