<svg width="24" height="24" viewBox="0 0 24 24" fill="none" xmlns="http://www.w3.org/2000/svg">
<mask id="path-1-inside-1" fill="white">
<path d="M21.9186 12.3109C21.822 12.1134 21.822 11.8868 21.9186 11.6892L22.8137 9.85808C23.3121 8.8385 22.9172 7.62328 21.9147 7.09139L20.1143 6.13608C19.92 6.03305 19.7869 5.84968 19.7488 5.63316L19.3967 3.62557C19.2006 2.50779 18.1667 1.75667 17.0432 1.91562L15.0251 2.20109C14.8073 2.23184 14.5919 2.16181 14.4339 2.00895L12.969 0.591834C12.1533 -0.197255 10.8755 -0.197302 10.0599 0.591834L8.595 2.00909C8.43694 2.162 8.22155 2.23189 8.00377 2.20123L5.98567 1.91576C4.86185 1.75672 3.82826 2.50793 3.63218 3.62571L3.28006 5.63321C3.24204 5.84977 3.10887 6.0331 2.91467 6.13618L1.11421 7.09148C0.11175 7.62332 -0.283123 8.83865 0.215249 9.85822L1.11032 11.6893C1.20688 11.8869 1.20688 12.1135 1.11032 12.311L0.215202 14.1421C-0.28317 15.1617 0.111703 16.3769 1.11417 16.9088L2.91462 17.8641C3.10887 17.9672 3.24204 18.1505 3.28006 18.3671L3.63218 20.3747C3.81068 21.3922 4.68321 22.1058 5.686 22.1057C5.78476 22.1057 5.88498 22.0988 5.98571 22.0846L8.00381 21.7991C8.22145 21.7682 8.43698 21.8384 8.59504 21.9912L10.0599 23.4083C10.4678 23.8029 10.991 24.0002 11.5144 24.0001C12.0377 24.0001 12.5613 23.8028 12.969 23.4083L14.4339 21.9912C14.592 21.8384 14.8074 21.7685 15.0251 21.7991L17.0432 22.0846C18.1672 22.2436 19.2006 21.4924 19.3967 20.3746L19.7489 18.3671C19.7869 18.1505 19.9201 17.9672 20.1143 17.8641L21.9147 16.9088C22.9172 16.377 23.3121 15.1617 22.8137 14.1421L21.9186 12.3109ZM21.2659 15.686L19.4655 16.6413C18.8915 16.946 18.4977 17.4877 18.3855 18.1279L18.0334 20.1354C17.967 20.5136 17.6174 20.7676 17.2371 20.7139L15.219 20.4285C14.5754 20.3373 13.9386 20.5444 13.4715 20.9963L12.0065 22.4133C11.7306 22.6802 11.2983 22.6802 11.0223 22.4133L9.55743 20.9962C9.16265 20.6143 8.64656 20.4074 8.10778 20.4074C8.00906 20.4074 7.90955 20.4143 7.80989 20.4284L5.79179 20.7139C5.41183 20.7676 5.06191 20.5135 4.99553 20.1354L4.64336 18.1278C4.53105 17.4876 4.1374 16.9458 3.56332 16.6413L1.76286 15.686C1.42368 15.506 1.29009 15.0949 1.45869 14.7499L2.35381 12.9188C2.63919 12.3349 2.63919 11.6652 2.35381 11.0814L1.45869 9.25021C1.29009 8.90526 1.42368 8.49412 1.76286 8.31416L3.56332 7.35886C4.13735 7.05422 4.53105 6.51244 4.64332 5.87232L4.99544 3.86477C5.06181 3.48658 5.41141 3.23252 5.7917 3.28624L7.8098 3.57171C8.45315 3.66279 9.09023 3.45574 9.55733 3.00391L11.0223 1.5868C11.2982 1.31989 11.7305 1.31989 12.0065 1.5868L13.4714 3.00391C13.9385 3.45579 14.5755 3.66279 15.2189 3.57171L17.237 3.28624C17.617 3.23248 17.9669 3.48658 18.0333 3.86477L18.3854 5.87237C18.4977 6.51249 18.8914 7.05431 19.4654 7.35886L21.2659 8.31416C21.6051 8.49412 21.7387 8.90526 21.5701 9.25021L20.6749 11.0813C20.3896 11.6651 20.3896 12.3349 20.6749 12.9187L21.5701 14.7498C21.7387 15.0949 21.6051 15.5061 21.2659 15.686Z"/>
</mask>
<path d="M21.9186 12.3109C21.822 12.1134 21.822 11.8868 21.9186 11.6892L22.8137 9.85808C23.3121 8.8385 22.9172 7.62328 21.9147 7.09139L20.1143 6.13608C19.92 6.03305 19.7869 5.84968 19.7488 5.63316L19.3967 3.62557C19.2006 2.50779 18.1667 1.75667 17.0432 1.91562L15.0251 2.20109C14.8073 2.23184 14.5919 2.16181 14.4339 2.00895L12.969 0.591834C12.1533 -0.197255 10.8755 -0.197302 10.0599 0.591834L8.595 2.00909C8.43694 2.162 8.22155 2.23189 8.00377 2.20123L5.98567 1.91576C4.86185 1.75672 3.82826 2.50793 3.63218 3.62571L3.28006 5.63321C3.24204 5.84977 3.10887 6.0331 2.91467 6.13618L1.11421 7.09148C0.11175 7.62332 -0.283123 8.83865 0.215249 9.85822L1.11032 11.6893C1.20688 11.8869 1.20688 12.1135 1.11032 12.311L0.215202 14.1421C-0.28317 15.1617 0.111703 16.3769 1.11417 16.9088L2.91462 17.8641C3.10887 17.9672 3.24204 18.1505 3.28006 18.3671L3.63218 20.3747C3.81068 21.3922 4.68321 22.1058 5.686 22.1057C5.78476 22.1057 5.88498 22.0988 5.98571 22.0846L8.00381 21.7991C8.22145 21.7682 8.43698 21.8384 8.59504 21.9912L10.0599 23.4083C10.4678 23.8029 10.991 24.0002 11.5144 24.0001C12.0377 24.0001 12.5613 23.8028 12.969 23.4083L14.4339 21.9912C14.592 21.8384 14.8074 21.7685 15.0251 21.7991L17.0432 22.0846C18.1672 22.2436 19.2006 21.4924 19.3967 20.3746L19.7489 18.3671C19.7869 18.1505 19.9201 17.9672 20.1143 17.8641L21.9147 16.9088C22.9172 16.377 23.3121 15.1617 22.8137 14.1421L21.9186 12.3109ZM21.2659 15.686L19.4655 16.6413C18.8915 16.946 18.4977 17.4877 18.3855 18.1279L18.0334 20.1354C17.967 20.5136 17.6174 20.7676 17.2371 20.7139L15.219 20.4285C14.5754 20.3373 13.9386 20.5444 13.4715 20.9963L12.0065 22.4133C11.7306 22.6802 11.2983 22.6802 11.0223 22.4133L9.55743 20.9962C9.16265 20.6143 8.64656 20.4074 8.10778 20.4074C8.00906 20.4074 7.90955 20.4143 7.80989 20.4284L5.79179 20.7139C5.41183 20.7676 5.06191 20.5135 4.99553 20.1354L4.64336 18.1278C4.53105 17.4876 4.1374 16.9458 3.56332 16.6413L1.76286 15.686C1.42368 15.506 1.29009 15.0949 1.45869 14.7499L2.35381 12.9188C2.63919 12.3349 2.63919 11.6652 2.35381 11.0814L1.45869 9.25021C1.29009 8.90526 1.42368 8.49412 1.76286 8.31416L3.56332 7.35886C4.13735 7.05422 4.53105 6.51244 4.64332 5.87232L4.99544 3.86477C5.06181 3.48658 5.41141 3.23252 5.7917 3.28624L7.8098 3.57171C8.45315 3.66279 9.09023 3.45574 9.55733 3.00391L11.0223 1.5868C11.2982 1.31989 11.7305 1.31989 12.0065 1.5868L13.4714 3.00391C13.9385 3.45579 14.5755 3.66279 15.2189 3.57171L17.237 3.28624C17.617 3.23248 17.9669 3.48658 18.0333 3.86477L18.3854 5.87237C18.4977 6.51249 18.8914 7.05431 19.4654 7.35886L21.2659 8.31416C21.6051 8.49412 21.7387 8.90526 21.5701 9.25021L20.6749 11.0813C20.3896 11.6651 20.3896 12.3349 20.6749 12.9187L21.5701 14.7498C21.7387 15.0949 21.6051 15.5061 21.2659 15.686Z" fill="#3856A7"/>
<path d="M21.9186 12.3109L20.1217 13.1891L20.1218 13.1893L21.9186 12.3109ZM21.9186 11.6892L23.7154 12.5676L23.7154 12.5676L21.9186 11.6892ZM22.8137 9.85808L24.6105 10.7364L24.6105 10.7364L22.8137 9.85808ZM21.9147 7.09139L20.9773 8.8581L20.9773 8.85811L21.9147 7.09139ZM20.1143 6.13608L21.0517 4.36937L21.0514 4.36923L20.1143 6.13608ZM19.7488 5.63316L17.7789 5.97868L17.779 5.97903L19.7488 5.63316ZM19.3967 3.62557L21.3666 3.28005L21.3666 3.28001L19.3967 3.62557ZM17.0432 1.91562L17.3233 3.89591L17.3234 3.8959L17.0432 1.91562ZM15.0251 2.20109L15.3047 4.18146L15.3052 4.18138L15.0251 2.20109ZM14.4339 2.00895L13.0433 3.44641L13.0433 3.44642L14.4339 2.00895ZM12.969 0.591834L11.5784 2.02927L11.5784 2.02929L12.969 0.591834ZM10.0599 0.591834L11.4506 2.02924L11.4506 2.02919L10.0599 0.591834ZM8.595 2.00909L9.98557 3.44656L9.98563 3.4465L8.595 2.00909ZM8.00377 2.20123L7.72365 4.18152L7.72498 4.18171L8.00377 2.20123ZM5.98567 1.91576L5.70542 3.89603L5.70555 3.89605L5.98567 1.91576ZM3.63218 3.62571L1.66226 3.28015L1.66226 3.28018L3.63218 3.62571ZM3.28006 5.63321L5.24994 5.97901L5.24999 5.97874L3.28006 5.63321ZM2.91467 6.13618L3.85207 7.90289L3.85233 7.90276L2.91467 6.13618ZM1.11421 7.09148L2.05154 8.85824L2.05161 8.8582L1.11421 7.09148ZM0.215249 9.85822L-1.58158 10.7365L-1.58157 10.7365L0.215249 9.85822ZM1.11032 11.6893L2.9072 10.8111L2.90714 10.811L1.11032 11.6893ZM1.11032 12.311L-0.686477 11.4327L-0.686482 11.4327L1.11032 12.311ZM0.215202 14.1421L-1.5816 13.2638L-1.58163 13.2638L0.215202 14.1421ZM1.11417 16.9088L2.05157 15.1421L2.05155 15.1421L1.11417 16.9088ZM2.91462 17.8641L1.97722 19.6309L1.97748 19.631L2.91462 17.8641ZM3.28006 18.3671L5.24999 18.0215L5.24993 18.0212L3.28006 18.3671ZM3.63218 20.3747L1.66225 20.7202L1.66226 20.7202L3.63218 20.3747ZM5.686 22.1057V20.1057H5.68581L5.686 22.1057ZM5.98571 22.0846L5.7056 20.1043L5.70558 20.1043L5.98571 22.0846ZM8.00381 21.7991L8.28393 23.7794L8.28486 23.7792L8.00381 21.7991ZM8.59504 21.9912L9.98563 20.5538L9.9854 20.5535L8.59504 21.9912ZM10.0599 23.4083L8.66934 24.8458L8.66936 24.8458L10.0599 23.4083ZM11.5144 24.0001L11.5146 26.0001L11.5144 24.0001ZM12.969 23.4083L11.5784 21.9709L11.5782 21.971L12.969 23.4083ZM14.4339 21.9912L13.0435 20.5535L13.0433 20.5537L14.4339 21.9912ZM15.0251 21.7991L15.3052 19.8188L15.3031 19.8185L15.0251 21.7991ZM17.0432 22.0846L17.3234 20.1043L17.3233 20.1043L17.0432 22.0846ZM19.3967 20.3746L17.4268 20.029L17.4268 20.0291L19.3967 20.3746ZM19.7489 18.3671L17.779 18.0213L17.779 18.0215L19.7489 18.3671ZM20.1143 17.8641L19.1769 16.0974L19.1766 16.0976L20.1143 17.8641ZM21.9147 16.9088L20.9774 15.1421L20.9773 15.1421L21.9147 16.9088ZM22.8137 14.1421L24.6105 13.2638L24.6105 13.2638L22.8137 14.1421ZM21.2659 15.686L20.3286 13.9193L20.3285 13.9193L21.2659 15.686ZM19.4655 16.6413L18.5281 14.8746L18.5279 14.8747L19.4655 16.6413ZM18.3855 18.1279L20.3554 18.4734L20.3554 18.4733L18.3855 18.1279ZM18.0334 20.1354L16.0634 19.7899L16.0634 19.7899L18.0334 20.1354ZM17.2371 20.7139L16.957 22.6942L16.9576 22.6943L17.2371 20.7139ZM15.219 20.4285L14.9385 22.4087L14.9389 22.4088L15.219 20.4285ZM13.4715 20.9963L12.081 19.5587L12.0809 19.5588L13.4715 20.9963ZM12.0065 22.4133L10.616 20.9758L10.616 20.9759L12.0065 22.4133ZM11.0223 22.4133L9.63173 23.8508L9.63198 23.851L11.0223 22.4133ZM9.55743 20.9962L10.948 19.5588L10.948 19.5587L9.55743 20.9962ZM7.80989 20.4284L8.09001 22.4087L8.09026 22.4087L7.80989 20.4284ZM5.79179 20.7139L6.07176 22.6942L6.07191 22.6942L5.79179 20.7139ZM4.99553 20.1354L3.02561 20.4809L3.02564 20.4811L4.99553 20.1354ZM4.64336 18.1278L6.61328 17.7822L6.61327 17.7821L4.64336 18.1278ZM3.56332 16.6413L2.62592 18.408L2.62605 18.4081L3.56332 16.6413ZM1.76286 15.686L2.70027 13.9193L2.7002 13.9192L1.76286 15.686ZM1.45869 14.7499L-0.338118 13.8716L-0.338145 13.8716L1.45869 14.7499ZM2.35381 12.9188L4.15063 13.7971L4.15067 13.797L2.35381 12.9188ZM2.35381 11.0814L4.15067 10.2031L4.15063 10.203L2.35381 11.0814ZM1.45869 9.25021L-0.338145 10.1285L-0.338118 10.1285L1.45869 9.25021ZM1.76286 8.31416L2.7002 10.0809L2.70027 10.0809L1.76286 8.31416ZM3.56332 7.35886L4.50073 9.12557L4.50088 9.12549L3.56332 7.35886ZM4.64332 5.87232L2.67339 5.5268L2.67338 5.52683L4.64332 5.87232ZM4.99544 3.86477L3.02555 3.51904L3.02551 3.51924L4.99544 3.86477ZM5.7917 3.28624L6.07182 1.30595L6.07143 1.3059L5.7917 3.28624ZM7.8098 3.57171L8.09014 1.59145L8.08992 1.59142L7.8098 3.57171ZM9.55733 3.00391L10.9478 4.44145L10.9479 4.44139L9.55733 3.00391ZM11.0223 1.5868L12.4128 3.02427L12.4128 3.02426L11.0223 1.5868ZM12.0065 1.5868L13.3971 0.149342L13.3968 0.149097L12.0065 1.5868ZM13.4714 3.00391L12.0808 4.44137L12.0808 4.44137L13.4714 3.00391ZM15.2189 3.57171L14.9388 1.59142L14.9386 1.59145L15.2189 3.57171ZM17.237 3.28624L17.5171 5.26653L17.5172 5.26652L17.237 3.28624ZM18.0333 3.86477L16.0633 4.21026L16.0633 4.21028L18.0333 3.86477ZM18.3854 5.87237L16.4155 6.21788L16.4155 6.21799L18.3854 5.87237ZM19.4654 7.35886L20.4028 5.59214L20.4027 5.59208L19.4654 7.35886ZM21.2659 8.31416L20.3285 10.0809L20.3286 10.0809L21.2659 8.31416ZM21.5701 9.25021L23.3669 10.1286L23.3669 10.1285L21.5701 9.25021ZM20.6749 11.0813L18.8781 10.203L18.8781 10.203L20.6749 11.0813ZM20.6749 12.9187L18.8781 13.797L18.8781 13.7971L20.6749 12.9187ZM21.5701 14.7498L23.3669 13.8715L23.3669 13.8715L21.5701 14.7498ZM23.7155 11.4327C23.8897 11.7892 23.8898 12.2108 23.7154 12.5676L20.1218 10.8109C19.7542 11.5627 19.7543 12.4375 20.1217 13.1891L23.7155 11.4327ZM23.7154 12.5676L24.6105 10.7364L21.0169 8.97975L20.1218 10.8109L23.7154 12.5676ZM24.6105 10.7364C25.5826 8.74763 24.8075 6.36216 22.8521 5.32467L20.9773 8.85811C20.9957 8.86784 21.005 8.87699 21.0105 8.88355C21.0167 8.89102 21.0217 8.8999 21.0249 8.9099C21.0282 8.9199 21.0294 8.93 21.0287 8.9397C21.0282 8.94822 21.026 8.96113 21.0169 8.97978L24.6105 10.7364ZM22.8521 5.32468L21.0517 4.36937L19.1769 7.9028L20.9773 8.8581L22.8521 5.32468ZM21.0514 4.36923C21.4025 4.55548 21.6501 4.8967 21.7187 5.2873L17.779 5.97903C17.9236 6.80266 18.4375 7.51063 19.1771 7.90293L21.0514 4.36923ZM21.7188 5.28765L21.3666 3.28005L17.4268 3.97108L17.7789 5.97868L21.7188 5.28765ZM21.3666 3.28001C20.9842 1.09969 18.9547 -0.374742 16.763 -0.0646535L17.3234 3.8959C17.3438 3.89301 17.3567 3.8949 17.365 3.897C17.3744 3.89939 17.3836 3.90366 17.3922 3.90987C17.4007 3.91608 17.4077 3.92357 17.4129 3.93181C17.4174 3.93904 17.4232 3.95075 17.4268 3.97113L21.3666 3.28001ZM16.7631 -0.0646624L14.745 0.220805L15.3052 4.18138L17.3233 3.89591L16.7631 -0.0646624ZM14.7456 0.220726C15.1383 0.165289 15.5392 0.295494 15.8245 0.571479L13.0433 3.44642C13.6447 4.02813 14.4763 4.29839 15.3047 4.18146L14.7456 0.220726ZM15.8245 0.571496L14.3596 -0.845621L11.5784 2.02929L13.0433 3.44641L15.8245 0.571496ZM14.3596 -0.845604C12.7687 -2.3847 10.2603 -2.38492 8.66924 -0.845523L11.4506 2.02919C11.4655 2.01477 11.4771 2.00872 11.485 2.00557C11.494 2.00198 11.5039 2 11.5144 2C11.5249 2 11.5349 2.00198 11.5439 2.00558C11.5519 2.00875 11.5635 2.01483 11.5784 2.02927L14.3596 -0.845604ZM8.66929 -0.845574L7.20436 0.571684L9.98563 3.4465L11.4506 2.02924L8.66929 -0.845574ZM7.20442 0.571627C7.49023 0.29514 7.89108 0.165651 8.28255 0.220757L7.72498 4.18171C8.55201 4.29812 9.38364 4.02885 9.98557 3.44656L7.20442 0.571627ZM8.28388 0.220945L6.26579 -0.0645219L5.70555 3.89605L7.72365 4.18152L8.28388 0.220945ZM6.26592 -0.064503C4.07355 -0.374773 2.04467 1.10013 1.66226 3.28015L5.6021 3.97127C5.6057 3.95077 5.61153 3.939 5.6161 3.93176C5.6213 3.92351 5.62821 3.91605 5.63669 3.90989C5.64516 3.90374 5.65435 3.8995 5.66372 3.89712C5.67193 3.89503 5.68485 3.89312 5.70542 3.89603L6.26592 -0.064503ZM1.66226 3.28018L1.31013 5.28768L5.24999 5.97874L5.60211 3.97124L1.66226 3.28018ZM1.31018 5.28742C1.37877 4.89669 1.62639 4.5557 1.97702 4.3696L3.85233 7.90276C4.59136 7.5105 5.10532 6.80285 5.24994 5.97901L1.31018 5.28742ZM1.97727 4.36946L0.176811 5.32477L2.05161 8.8582L3.85207 7.90289L1.97727 4.36946ZM0.176889 5.32473C-1.77864 6.3622 -2.55365 8.74784 -1.58158 10.7365L2.01208 8.97992C2.00297 8.96128 2.00077 8.94837 2.00021 8.93984C1.99958 8.93011 2.00078 8.91999 2.00403 8.90998C2.00729 8.89997 2.01226 8.89109 2.01847 8.88362C2.02391 8.87707 2.03325 8.86794 2.05154 8.85824L0.176889 5.32473ZM-1.58157 10.7365L-0.6865 12.5676L2.90714 10.811L2.01207 8.97991L-1.58157 10.7365ZM-0.686559 12.5675C-0.86079 12.211 -0.860882 11.7894 -0.686477 11.4327L2.90712 13.1894C3.27465 12.4376 3.27456 11.5628 2.9072 10.8111L-0.686559 12.5675ZM-0.686482 11.4327L-1.5816 13.2638L2.01201 15.0205L2.90713 13.1894L-0.686482 11.4327ZM-1.58163 13.2638C-2.55374 15.2526 -1.77862 17.6381 0.176777 18.6756L2.05155 15.1421C2.03322 15.1324 2.02387 15.1232 2.01841 15.1167C2.01219 15.1092 2.00723 15.1003 2.00398 15.0903C2.00073 15.0803 1.99953 15.0702 2.00017 15.0605C2.00072 15.052 2.00291 15.0391 2.01203 15.0204L-1.58163 13.2638ZM0.176763 18.6755L1.97722 19.6309L3.85203 16.0974L2.05157 15.1421L0.176763 18.6755ZM1.97748 19.631C1.62635 19.4447 1.37877 19.1035 1.31019 18.7129L5.24993 18.0212C5.10531 17.1976 4.5914 16.4896 3.85177 16.0973L1.97748 19.631ZM1.31013 18.7126L1.66225 20.7202L5.60211 20.0291L5.24999 18.0215L1.31013 18.7126ZM1.66226 20.7202C2.01013 22.7033 3.721 24.1059 5.68618 24.1057L5.68581 20.1057C5.66383 20.1057 5.64651 20.0989 5.63223 20.0869C5.62503 20.0809 5.61918 20.074 5.61468 20.0662C5.61061 20.0593 5.60542 20.048 5.6021 20.0291L1.66226 20.7202ZM5.686 24.1057C5.87833 24.1057 6.07216 24.0922 6.26585 24.0648L5.70558 20.1043C5.6978 20.1054 5.69119 20.1057 5.686 20.1057V24.1057ZM6.26583 24.0648L8.28393 23.7794L7.72369 19.8188L5.7056 20.1043L6.26583 24.0648ZM8.28486 23.7792C7.88998 23.8353 7.48912 23.704 7.20469 23.4289L9.9854 20.5535C9.38485 19.9728 8.55293 19.7011 7.72276 19.8189L8.28486 23.7792ZM7.20446 23.4287L8.66934 24.8458L11.4505 21.9709L9.98563 20.5538L7.20446 23.4287ZM8.66936 24.8458C9.46006 25.6107 10.486 26.0002 11.5146 26.0001L11.5143 22.0001C11.5038 22.0001 11.4939 21.9982 11.485 21.9946C11.4772 21.9915 11.4655 21.9854 11.4505 21.9709L8.66936 24.8458ZM11.5146 26.0001C12.5425 26 13.5689 25.6109 14.3597 24.8457L11.5782 21.971C11.5636 21.9852 11.552 21.9913 11.544 21.9945C11.5349 21.9981 11.5248 22.0001 11.5143 22.0001L11.5146 26.0001ZM14.3595 24.8458L15.8245 23.4287L13.0433 20.5537L11.5784 21.9709L14.3595 24.8458ZM15.8243 23.4289C15.5382 23.7055 15.1377 23.8345 14.7471 23.7797L15.3031 19.8185C14.4771 19.7025 13.6457 19.9712 13.0435 20.5535L15.8243 23.4289ZM14.745 23.7794L16.7631 24.0648L17.3233 20.1043L15.3052 19.8188L14.745 23.7794ZM16.7631 24.0648C18.9555 24.375 20.9842 22.9002 21.3666 20.7202L17.4268 20.0291C17.4232 20.0496 17.4173 20.0614 17.4128 20.0686C17.4076 20.0768 17.4007 20.0843 17.3922 20.0904C17.3838 20.0966 17.3746 20.1008 17.3652 20.1032C17.357 20.1053 17.344 20.1072 17.3234 20.1043L16.7631 24.0648ZM21.3666 20.7202L21.7188 18.7127L17.779 18.0215L17.4268 20.029L21.3666 20.7202ZM21.7188 18.7129C21.6502 19.1036 21.4026 19.4446 21.0519 19.6307L19.1766 16.0976C18.4376 16.4898 17.9236 17.1975 17.779 18.0213L21.7188 18.7129ZM21.0517 19.6309L22.8521 18.6755L20.9773 15.1421L19.1769 16.0974L21.0517 19.6309ZM22.8521 18.6756C24.8076 17.6381 25.5826 15.2525 24.6105 13.2638L21.0169 15.0204C21.026 15.039 21.0282 15.052 21.0287 15.0605C21.0294 15.0702 21.0282 15.0803 21.0249 15.0903C21.0217 15.1003 21.0167 15.1092 21.0105 15.1167C21.005 15.1232 20.9957 15.1324 20.9774 15.1421L22.8521 18.6756ZM24.6105 13.2638L23.7154 11.4326L20.1218 13.1893L21.0169 15.0204L24.6105 13.2638ZM20.3285 13.9193L18.5281 14.8746L20.4029 18.408L22.2033 17.4527L20.3285 13.9193ZM18.5279 14.8747C17.4092 15.4684 16.6344 16.5344 16.4156 17.7824L20.3554 18.4733C20.3591 18.4524 20.3655 18.441 20.3703 18.4344C20.3752 18.4277 20.3841 18.418 20.403 18.408L18.5279 14.8747ZM16.4156 17.7823L16.0634 19.7899L20.0033 20.4809L20.3554 18.4734L16.4156 17.7823ZM16.0634 19.7899C16.1835 19.1051 16.8295 18.6366 17.5166 18.7336L16.9576 22.6943C18.4053 22.8986 19.7505 21.9221 20.0033 20.4809L16.0634 19.7899ZM17.5172 18.7337L15.4991 18.4482L14.9389 22.4088L16.957 22.6942L17.5172 18.7337ZM15.4995 18.4482C14.2444 18.2704 12.9911 18.6784 12.081 19.5587L14.862 22.4338C14.8775 22.4188 14.8895 22.4133 14.8972 22.4108C14.9049 22.4083 14.9176 22.4057 14.9385 22.4087L15.4995 18.4482ZM12.0809 19.5588L10.616 20.9758L13.3971 23.8508L14.862 22.4338L12.0809 19.5588ZM10.616 20.9759C11.1155 20.4926 11.9135 20.4929 12.4126 20.9756L9.63198 23.851C10.6831 24.8675 12.3457 24.8679 13.3971 23.8508L10.616 20.9759ZM12.4129 20.9759L10.948 19.5588L8.16684 22.4337L9.63173 23.8508L12.4129 20.9759ZM10.948 19.5587C10.1808 18.8166 9.16626 18.4074 8.10778 18.4074V22.4074C8.12012 22.4074 8.129 22.4096 8.13611 22.4124C8.14307 22.4153 8.15362 22.4209 8.16688 22.4337L10.948 19.5587ZM8.10778 18.4074C7.91531 18.4074 7.72211 18.4209 7.52953 18.4482L8.09026 22.4087C8.09698 22.4077 8.10281 22.4074 8.10778 22.4074V18.4074ZM7.52977 18.4481L5.51168 18.7336L6.07191 22.6942L8.09001 22.4087L7.52977 18.4481ZM5.51183 18.7336C6.19961 18.6363 6.84529 19.1051 6.96542 19.7896L3.02564 20.4811C3.27853 21.922 4.62405 22.8989 6.07176 22.6942L5.51183 18.7336ZM6.96545 19.7898L6.61328 17.7822L2.67344 18.4733L3.02561 20.4809L6.96545 19.7898ZM6.61327 17.7821C6.39437 16.5345 5.61974 15.4682 4.5006 14.8745L2.62605 18.4081C2.64481 18.418 2.65368 18.4277 2.65848 18.4343C2.66329 18.4409 2.66976 18.4524 2.67345 18.4734L6.61327 17.7821ZM4.50073 14.8746L2.70027 13.9193L0.825462 17.4527L2.62592 18.408L4.50073 14.8746ZM2.7002 13.9192C3.31398 14.2449 3.56065 15.004 3.25553 15.6282L-0.338145 13.8716C-0.980477 15.1858 -0.466626 16.7672 0.82553 17.4527L2.7002 13.9192ZM3.25551 15.6283L4.15063 13.7971L0.557002 12.0404L-0.338118 13.8716L3.25551 15.6283ZM4.15067 13.797C4.7069 12.659 4.7069 11.3412 4.15067 10.2031L0.556955 11.9596C0.566338 11.9788 0.567845 11.9919 0.567845 12.0001C0.567845 12.0082 0.566338 12.0213 0.556955 12.0405L4.15067 13.797ZM4.15063 10.203L3.25551 8.37188L-0.338118 10.1285L0.557002 11.9597L4.15063 10.203ZM3.25553 8.37193C3.56065 8.99616 3.31399 9.75527 2.7002 10.0809L0.82553 6.54741C-0.466627 7.23296 -0.980476 8.81435 -0.338145 10.1285L3.25553 8.37193ZM2.70027 10.0809L4.50073 9.12557L2.62592 5.59214L0.825463 6.54745L2.70027 10.0809ZM4.50088 9.12549C5.61957 8.5318 6.39439 7.46573 6.61325 6.21781L2.67338 5.52683C2.66972 5.54774 2.66328 5.55917 2.65846 5.56581C2.65364 5.57245 2.64468 5.58219 2.62577 5.59223L4.50088 9.12549ZM6.61324 6.21784L6.96537 4.21029L3.02551 3.51924L2.67339 5.5268L6.61324 6.21784ZM6.96533 4.2105C6.84526 4.89465 6.19962 5.36372 5.51197 5.26658L6.07143 1.3059C4.62319 1.10133 3.27837 2.07852 3.02555 3.51904L6.96533 4.2105ZM5.51158 5.26653L7.52968 5.55199L8.08992 1.59142L6.07182 1.30595L5.51158 5.26653ZM7.52946 5.55196C8.78396 5.72956 10.0375 5.32199 10.9478 4.44145L8.16683 1.56638C8.15149 1.58122 8.13946 1.58674 8.1316 1.58929C8.12376 1.59184 8.11095 1.5944 8.09014 1.59145L7.52946 5.55196ZM10.9479 4.44139L12.4128 3.02427L9.6317 0.14932L8.16677 1.56644L10.9479 4.44139ZM12.4128 3.02426C11.9133 3.50753 11.1153 3.5072 10.6162 3.0245L13.3968 0.149097C12.3457 -0.867413 10.6831 -0.867747 9.63169 0.149333L12.4128 3.02426ZM10.6159 3.02425L12.0808 4.44137L14.862 1.56646L13.3971 0.149343L10.6159 3.02425ZM12.0808 4.44137C12.9912 5.32209 14.2447 5.72954 15.4992 5.55197L14.9386 1.59145C14.9176 1.59441 14.9048 1.59183 14.8971 1.58931C14.8893 1.58678 14.8773 1.5813 14.862 1.56645L12.0808 4.44137ZM15.499 5.55199L17.5171 5.26653L16.9569 1.30595L14.9388 1.59142L15.499 5.55199ZM17.5172 5.26652C16.8292 5.36385 16.1834 4.89491 16.0633 4.21026L20.0032 3.51927C19.7505 2.07826 18.4048 1.1011 16.9568 1.30596L17.5172 5.26652ZM16.0633 4.21028L16.4155 6.21788L20.3553 5.52685L20.0032 3.51925L16.0633 4.21028ZM16.4155 6.21799C16.6344 7.46563 17.409 8.53194 18.5282 9.12564L20.4027 5.59208C20.3839 5.58213 20.3751 5.57248 20.3703 5.56586C20.3655 5.55925 20.359 5.54777 20.3553 5.52674L16.4155 6.21799ZM18.528 9.12557L20.3285 10.0809L22.2033 6.54745L20.4028 5.59214L18.528 9.12557ZM20.3286 10.0809C19.7148 9.75528 19.4681 8.99616 19.7732 8.37193L23.3669 10.1285C24.0092 8.81435 23.4954 7.23296 22.2032 6.54741L20.3286 10.0809ZM19.7733 8.37186L18.8781 10.203L22.4717 11.9597L23.3669 10.1286L19.7733 8.37186ZM18.8781 10.203C18.3218 11.3411 18.3218 12.659 18.8781 13.797L22.4718 12.0404C22.4624 12.0213 22.4609 12.0082 22.4609 12C22.4609 11.9918 22.4624 11.9787 22.4718 11.9596L18.8781 10.203ZM18.8781 13.7971L19.7733 15.6282L23.3669 13.8715L22.4717 12.0404L18.8781 13.7971ZM19.7732 15.6281C19.4683 15.0042 19.7146 14.245 20.3286 13.9193L22.2033 17.4528C23.4957 16.7671 24.0092 15.1855 23.3669 13.8715L19.7732 15.6281Z" fill="#3856A7" mask="url(#path-1-inside-1)"/>
<path d="M16.5718 6.94294C16.3015 6.67266 15.8633 6.67266 15.593 6.94294L6.45759 16.0784C6.18731 16.3486 6.18731 16.7869 6.45759 17.0572C6.59273 17.1923 6.76987 17.2599 6.94697 17.2599C7.12406 17.2599 7.30125 17.1923 7.43634 17.0572L16.5717 7.92178C16.8421 7.65146 16.8421 7.21327 16.5718 6.94294Z" fill="#3856A7"/>
<path d="M8.74576 5.771C7.34645 5.771 6.20801 6.90944 6.20801 8.30875C6.20801 9.70805 7.34645 10.8465 8.74576 10.8465C10.1451 10.8465 11.2835 9.70805 11.2835 8.30875C11.2835 6.90944 10.1451 5.771 8.74576 5.771ZM8.74576 9.46224C8.10971 9.46224 7.59226 8.94479 7.59226 8.3087C7.59226 7.67266 8.10971 7.15521 8.74576 7.15521C9.3818 7.15521 9.8993 7.67266 9.8993 8.3087C9.89925 8.94479 9.3818 9.46224 8.74576 9.46224Z" fill="#3856A7"/>
<path d="M14.2829 13.1536C12.8836 13.1536 11.7451 14.292 11.7451 15.6913C11.7451 17.0906 12.8836 18.2291 14.2829 18.2291C15.6822 18.2291 16.8206 17.0906 16.8206 15.6913C16.8206 14.292 15.6822 13.1536 14.2829 13.1536ZM14.2829 16.8448C13.6468 16.8448 13.1293 16.3274 13.1293 15.6913C13.1293 15.0553 13.6468 14.5378 14.2829 14.5378C14.9189 14.5378 15.4364 15.0553 15.4364 15.6913C15.4364 16.3274 14.9189 16.8448 14.2829 16.8448Z" fill="#3856A7"/>
</svg>
