<svg width="15" height="16" viewBox="0 0 15 16" fill="none" xmlns="http://www.w3.org/2000/svg">
<g clip-path="url(#clip0_282_365)">
<path d="M7.50106 0.5C3.36579 0.5 0 3.86579 0 8C0 12.1363 3.36579 15.5 7.50106 15.5C9.48948 15.498 11.3959 14.7072 12.8018 13.3011C14.2077 11.8949 14.9983 9.98842 15 8C15 3.86579 11.6363 0.5 7.50106 0.5ZM7.50106 14.5315C5.76911 14.5296 4.10865 13.8407 2.88398 12.616C1.6593 11.3913 0.97042 9.73089 0.968459 7.99894C0.970699 6.26708 1.65967 4.60679 2.88429 3.38217C4.1089 2.15756 5.76919 1.46858 7.50106 1.46634C11.1039 1.46634 14.0315 4.39818 14.0315 7.99894C14.0304 9.73078 13.3421 11.3914 12.1177 12.6162C10.8933 13.841 9.2329 14.5299 7.50106 14.5315Z" fill="#3761BF"/>
<path d="M6.35156 3.67529H8.46841V5.79214H6.35156V3.67529ZM6.35156 6.85057H8.46841V11.7511H6.35156V6.85057Z" fill="#3761BF"/>
</g>
<defs>
<clipPath id="clip0_282_365">
<rect width="15" height="15" fill="white" transform="translate(0 0.5)"/>
</clipPath>
</defs>
</svg>
