<svg width="36" height="36" viewBox="0 0 36 36" fill="none" xmlns="http://www.w3.org/2000/svg">
<path d="M7.1098 29.8565H16.6981C17.3194 29.8565 17.8231 29.3528 17.8231 28.7315C17.8231 28.1102 17.3194 27.6065 16.6981 27.6065H7.1098C5.67059 27.6065 4.5 26.4409 4.5 25.0077V13.0436H26.499V14.9288C26.499 15.5501 27.0027 16.0538 27.624 16.0538C28.2453 16.0538 28.749 15.5501 28.749 14.9288V10.0454C28.749 7.36584 26.5688 5.18561 23.8892 5.18561H22.6846V4.48633C22.6846 3.86505 22.1808 3.36133 21.5596 3.36133C20.9383 3.36133 20.4346 3.86505 20.4346 4.48633V5.18561H10.5617V4.48633C10.5617 3.86505 10.058 3.36133 9.43671 3.36133C8.81543 3.36133 8.31171 3.86505 8.31171 4.48633V5.18561H7.1098C5.43466 5.18561 3.95473 6.03773 3.08064 7.33117C2.55645 8.10632 2.25 9.04016 2.25 10.0443V25.0077C2.25 27.6812 4.43024 29.8565 7.1098 29.8565ZM26.4963 10.7936H4.5V10.0454C4.5 9.68581 4.57306 9.34304 4.70517 9.0311C5.1013 8.09644 6.02813 7.4389 7.10541 7.4389H8.31171V8.14148C8.31171 8.76276 8.81543 9.26648 9.43671 9.26648C10.058 9.26648 10.5617 8.76276 10.5617 8.14148V7.4389H20.4346V8.14148C20.4346 8.76276 20.9383 9.26648 21.5596 9.26648C22.1808 9.26648 22.6846 8.76276 22.6846 8.14148V7.4389H23.8914C25.3279 7.4389 26.4963 8.60785 26.4963 10.0443V10.7936Z" fill="#fff"/>
<path d="M25.939 17.0098C21.6302 17.0098 18.125 20.515 18.125 24.8238C18.125 29.1326 21.6302 32.6384 25.939 32.6384C30.2479 32.6384 33.7536 29.1326 33.7536 24.8238C33.7536 20.515 30.2479 17.0098 25.939 17.0098ZM20.375 24.8238C20.375 21.7559 22.8711 19.2598 25.939 19.2598C29.0075 19.2598 31.5036 21.7559 31.5036 24.8238C31.5036 27.8923 29.0075 30.3884 25.939 30.3884C22.8711 30.3884 20.375 27.8923 20.375 24.8238Z" fill="#fff"/>
<path d="M28.4944 22.2651C28.055 21.8257 27.3431 21.8257 26.9036 22.2651L25.9355 23.2333L24.9673 22.2651C24.5278 21.8257 23.8159 21.8257 23.3765 22.2651C22.937 22.7046 22.937 23.4165 23.3765 23.856L24.3446 24.8241L23.3765 25.7923C22.937 26.2318 22.937 26.9437 23.3765 27.3831C23.5962 27.6028 23.884 27.7127 24.1719 27.7127C24.4597 27.7127 24.7476 27.6028 24.9673 27.3831L25.9355 26.4149L26.9036 27.3831C27.1234 27.6028 27.4112 27.7127 27.699 27.7127C27.9869 27.7127 28.2747 27.6028 28.4944 27.3831C28.9339 26.9437 28.9339 26.2318 28.4944 25.7923L27.5263 24.8241L28.4944 23.856C28.9339 23.4165 28.9339 22.7046 28.4944 22.2651Z" fill="#fff"/>
</svg>
