<svg width="28" height="28" viewBox="0 0 28 28" fill="none" xmlns="http://www.w3.org/2000/svg">
<path d="M19.706 23.7671C19.4534 23.7279 19.2627 23.7008 19.1075 23.679C18.6307 23.6112 18.5026 23.5931 17.9452 23.4196C17.7255 23.3511 16.8661 22.4844 16.8661 20.7879C16.8661 18.6025 17.385 16.6726 17.608 15.9443C17.6139 15.9253 17.6284 15.8703 17.6485 15.7959C17.6854 15.6591 17.9559 14.8333 17.9559 14.8333C18.1026 14.4133 18.2544 13.9787 18.353 13.5324L18.3583 13.5096C18.5072 12.8633 18.9958 10.501 19.0304 7.23341C19.0304 6.90369 18.7563 6.6168 18.5927 6.44547C18.5627 6.41399 18.5361 6.38645 18.5163 6.36329C18.3587 6.18 18.1512 5.95373 17.9108 5.6919C17.7525 5.51921 17.5782 5.32896 17.3903 5.12085C17.0897 4.78841 16.7545 4.48427 16.4302 4.19027C16.0315 3.82892 15.6194 3.45523 15.2808 3.03395C14.7747 2.40456 14.3068 1.30295 14.3915 0.415123C14.4043 0.281177 14.3731 0.165469 14.3035 0.089037C14.2263 0.00405341 14.1053 -0.022433 13.9986 0.0197182C13.8919 -0.022433 13.7707 0.00405341 13.6937 0.089037C13.6242 0.165469 13.5928 0.281177 13.6058 0.415123C13.6903 1.30295 13.2224 2.40456 12.7165 3.03395C12.3777 3.45523 11.9656 3.82892 11.5669 4.19027C11.2428 4.48427 10.9074 4.78841 10.6069 5.12085C10.4191 5.32896 10.2445 5.51921 10.0863 5.6919C9.84587 5.95373 9.63851 6.18 9.48073 6.36329C9.4609 6.38645 9.43457 6.41399 9.40453 6.44547C9.24084 6.6168 8.96667 6.90369 8.96667 7.23507C9.0014 10.501 9.49004 12.8633 9.63889 13.5096L9.64411 13.5324C9.74272 13.9787 9.8946 14.4133 10.0411 14.8333C10.0411 14.8333 10.3116 15.6591 10.3484 15.7959C10.3686 15.8703 10.3832 15.9253 10.3891 15.9443C10.612 16.6726 11.1308 18.6025 11.1308 20.7879C11.1308 22.4844 10.2715 23.3511 10.0519 23.4196C9.4945 23.5931 9.36638 23.6112 8.88948 23.679C8.73427 23.7008 8.54372 23.7279 8.29111 23.7671C5.5534 24.0584 5.25781 25.4175 5.25781 25.9884C5.25781 26.1414 5.33704 26.6386 5.69839 27.0969C6.02312 27.5088 6.66984 28 7.90774 28C8.09345 28 8.2899 27.9889 8.4918 27.9671C9.31568 27.8786 10.146 27.7455 10.9488 27.617C11.2405 27.5703 11.5316 27.5237 11.8233 27.4789C12.2118 27.4194 12.912 27.3799 13.9042 27.3617C13.9507 27.3608 13.983 27.3601 13.9986 27.3597C14.0143 27.3601 14.0466 27.3609 14.0929 27.3617C15.0853 27.3799 15.7854 27.4194 16.174 27.4789C16.4655 27.5237 16.7567 27.5703 17.0483 27.617C17.8512 27.7455 18.6816 27.8786 19.5053 27.9671C19.7072 27.9888 19.9037 28 20.0894 28C21.3275 28 21.9744 27.509 22.2989 27.0969C22.6602 26.6386 22.7393 26.1413 22.7393 25.9884C22.7392 25.4175 22.4437 24.0584 19.706 23.7671ZM15.4462 12.6406C15.4054 12.6406 15.3668 12.6317 15.3276 12.6132C15.2003 12.5624 15.037 12.3191 15.0218 12.2247C15.6561 11.7833 16.0846 10.945 16.0846 9.98277C16.0846 8.56181 15.9346 7.40981 13.9985 7.40981C12.0623 7.40981 11.9123 8.56181 11.9123 9.98277C11.9123 10.945 12.3409 11.7833 12.9751 12.2247C12.9602 12.3189 12.7932 12.5506 12.6693 12.6132C12.6303 12.6317 12.5917 12.6406 12.5507 12.6406C12.1431 12.6407 11.6321 11.7478 11.4979 11.3925C11.2693 10.7889 10.9839 9.75128 10.9227 8.23709L10.9202 8.17882C10.9046 7.85985 11.385 7.04414 11.4487 6.9046C11.5362 6.71246 12.6711 4.98244 13.0082 4.57258C13.1275 4.42766 13.7321 3.6249 13.9986 3.27059C14.2649 3.6249 14.8694 4.42766 14.9887 4.57258C15.326 4.98244 16.4607 6.71246 16.5483 6.9046C16.612 7.04414 17.0925 7.85985 17.0769 8.17882L17.0744 8.23709C17.0131 9.75136 16.7279 10.7889 16.499 11.3925C16.3649 11.7478 15.854 12.6406 15.4462 12.6406Z" fill="#007DB8"/>
</svg>
