<svg width="28" height="28" viewBox="0 0 28 28" fill="none" xmlns="http://www.w3.org/2000/svg">
<path fill-rule="evenodd" clip-rule="evenodd" d="M3.487 17.4558L2.14294 9.05673C2.05458 8.50563 2.29755 7.95342 2.76361 7.6464C3.22967 7.33937 3.83158 7.33385 4.30316 7.63094L8.51427 10.2904L12.9275 5.23216C13.197 4.92293 13.5879 4.74512 13.9977 4.74512C14.4074 4.74512 14.7984 4.92293 15.0678 5.23216L19.481 10.2904L23.6922 7.63094C24.1637 7.33385 24.7656 7.33937 25.2317 7.6464C25.6978 7.95342 25.9407 8.50563 25.8524 9.05673L24.5083 17.4558H3.487ZM24.2433 19.1124L23.8512 21.5608C23.6955 22.5371 22.8528 23.255 21.8655 23.255H6.12985C5.14251 23.255 4.29985 22.5371 4.14412 21.5608L3.75206 19.1124H24.2433Z" fill="#007DB8"/>
</svg>
