<svg width="28" height="28" viewBox="0 0 28 28" fill="none" xmlns="http://www.w3.org/2000/svg">
<g clip-path="url(#clip0_176_4376)">
<path d="M26.9355 25.0866H17.978C17.9683 25.0866 17.9589 25.0855 17.9493 25.0852C17.2603 25.0701 16.6146 24.7951 16.1257 24.3055L11.2069 19.3803C10.8869 19.0599 10.887 18.5405 11.2073 18.2202C11.5275 17.9 12.0466 17.9001 12.3666 18.2205L17.2855 23.1458C17.5401 23.4009 17.9051 23.5049 18.2723 23.4132C18.3549 23.3925 18.4346 23.3601 18.5082 23.3174C19.1208 22.9618 19.1953 22.1596 18.7318 21.6953L11.8365 14.7889C11.2811 14.2328 10.5367 13.9507 9.62396 13.9507H0.711539C0.318555 13.9507 0 14.2695 0 14.6627V19.8523C0 20.2455 0.318555 20.5644 0.711539 20.5644H4.87517C5.59874 20.5644 6.30432 20.7693 6.91545 21.1571L15.552 26.6359C16.0691 26.964 16.6659 27.1374 17.278 27.1374H26.9491C27.2338 27.1374 27.5124 27.031 27.7106 26.8266C27.9042 26.627 28.0068 26.3635 27.9996 26.0844C27.9855 25.5342 27.5081 25.0866 26.9355 25.0866Z" fill="#007DB8"/>
<path d="M20.6777 6.30359C20.6171 4.71103 20.138 3.19969 19.2504 1.80636C19.0752 1.5315 18.8993 1.2865 18.7332 1.07295C18.5144 0.791745 18.088 0.795026 17.8728 1.07896C17.0589 2.15264 15.9893 3.98785 15.8906 6.30485C16.9144 7.31771 17.7344 8.53599 18.2835 9.89218C18.8329 8.53539 19.6534 7.31667 20.6777 6.30359Z" fill="#007DB8"/>
<path d="M19.0628 13.9359C23.7995 13.8478 27.6946 10.0864 27.9769 5.38382C27.9968 5.05149 27.7186 4.77799 27.3871 4.80649C25.2735 4.98832 23.3358 5.90543 21.8711 7.31003C20.1472 8.95721 19.0426 11.3497 19.0628 13.9359Z" fill="#007DB8"/>
<path d="M15.3649 2.11195C14.6684 1.54255 14.0287 1.15602 13.6095 0.929775C13.3313 0.779603 12.985 0.895923 12.8547 1.18413C12.6175 1.70885 12.2732 2.6182 12.0938 3.78616C12.9349 4.09809 13.7266 4.51295 14.4529 5.01602C14.6251 3.92206 14.9654 2.94752 15.3649 2.11195Z" fill="#007DB8"/>
<path d="M24.6108 3.74187C24.4326 2.58447 24.0916 1.6947 23.8555 1.18108C23.7246 0.896265 23.3815 0.780492 23.1054 0.928695C22.6724 1.16117 22.0005 1.56619 21.2734 2.16955C21.6503 2.98412 21.967 3.93541 22.1278 5.01456C22.8898 4.4877 23.7235 4.05764 24.6108 3.74187Z" fill="#007DB8"/>
<path d="M17.5084 13.9351C17.5277 11.3716 16.4379 8.965 14.7001 7.30922C13.2573 5.92607 11.3109 4.98495 9.18415 4.80448C8.85269 4.77637 8.5746 5.04992 8.59478 5.3822C8.87971 10.0738 12.7557 13.8485 17.5084 13.9351Z" fill="#007DB8"/>
</g>
<defs>
<clipPath id="clip0_176_4376">
<rect width="28" height="28" fill="white"/>
</clipPath>
</defs>
</svg>
