<svg width="28" height="28" viewBox="0 0 28 28" fill="none" xmlns="http://www.w3.org/2000/svg">
<path d="M22.4508 23.8046C22.4508 24.0612 22.2408 24.2712 21.9841 24.2712H2.79479C2.53813 24.2712 2.32812 24.0612 2.32812 23.8046C2.32812 23.5479 2.53813 23.3379 2.79479 23.3379H21.9841C22.2408 23.3379 22.4508 23.5479 22.4508 23.8046Z" fill="#007DB8"/>
<path d="M21.4953 18.6619V20.1599C21.4953 21.2333 20.6226 22.1059 19.5492 22.1059H5.22725C4.15392 22.1059 3.28125 21.2333 3.28125 20.1599V10.4626C3.28125 9.38927 4.15392 8.5166 5.22725 8.5166H15.4613V16.1839C15.4613 17.5513 16.5719 18.6619 17.9346 18.6619H21.4953Z" fill="#007DB8"/>
<path d="M24.114 3.72852H17.9306C17.0813 3.72852 16.3906 4.41918 16.3906 5.27318V16.1885C16.3906 17.0378 17.0813 17.7332 17.9306 17.7332H24.114C24.9633 17.7332 25.654 17.0378 25.654 16.1885V5.27318C25.654 4.41452 24.9633 3.72852 24.114 3.72852ZM22.4993 16.1932H19.55C19.2933 16.1932 19.0833 15.9832 19.0833 15.7265C19.0833 15.4699 19.2933 15.2599 19.55 15.2599H22.4993C22.756 15.2599 22.966 15.4699 22.966 15.7265C22.966 15.9832 22.756 16.1932 22.4993 16.1932Z" fill="#007DB8"/>
</svg>
