<svg width="36" height="36" viewBox="0 0 36 36" fill="none" xmlns="http://www.w3.org/2000/svg">
<path d="M30.375 6.74971C24.12 6.74971 18.7538 2.54221 18.6975 2.49721C18.4989 2.34026 18.2531 2.25488 18 2.25488C17.7469 2.25488 17.5011 2.34026 17.3025 2.49721C17.2463 2.54221 11.9025 6.74971 5.625 6.74971C5.32663 6.74971 5.04048 6.86823 4.82951 7.07921C4.61853 7.29019 4.5 7.57634 4.5 7.87471V17.9997C4.5 25.5485 7.54875 29.2497 17.5388 33.6485C17.6838 33.7136 17.841 33.7474 18 33.7474C18.159 33.7474 18.3162 33.7136 18.4612 33.6485C28.4512 29.2497 31.5 25.5485 31.5 17.9997V7.87471C31.5 7.57634 31.3815 7.29019 31.1705 7.07921C30.9595 6.86823 30.6734 6.74971 30.375 6.74971ZM29.25 17.9997C29.25 23.8272 27.675 26.9997 18 31.3872C8.325 26.9997 6.75 23.8272 6.75 17.9997V8.99971C10.8027 8.58613 14.6788 7.1287 18 4.76971C21.3212 7.1287 25.1973 8.58613 29.25 8.99971V17.9997Z" fill="#fff"/>
<path d="M15.4205 17.201C15.3156 17.0961 15.1911 17.0129 15.0541 16.9561C14.917 16.8993 14.7701 16.8701 14.6218 16.8701C14.4734 16.8701 14.3266 16.8993 14.1895 16.9561C14.0525 17.0129 13.9279 17.0961 13.823 17.201C13.7181 17.3059 13.6349 17.4304 13.5782 17.5674C13.5214 17.7045 13.4922 17.8514 13.4922 17.9997C13.4922 18.1481 13.5214 18.2949 13.5782 18.432C13.6349 18.569 13.7181 18.6936 13.823 18.7985L16.073 21.0485C16.1776 21.1539 16.302 21.2376 16.4391 21.2947C16.5762 21.3518 16.7233 21.3812 16.8718 21.3812C17.0203 21.3812 17.1673 21.3518 17.3044 21.2947C17.4415 21.2376 17.566 21.1539 17.6705 21.0485L22.1705 16.5485C22.2754 16.4436 22.3586 16.3191 22.4154 16.182C22.4722 16.045 22.5014 15.8981 22.5014 15.7497C22.5014 15.6014 22.4722 15.4545 22.4154 15.3174C22.3586 15.1804 22.2754 15.0559 22.1705 14.951C22.0656 14.8461 21.9411 14.7629 21.8041 14.7061C21.667 14.6493 21.5201 14.6201 21.3718 14.6201C21.2234 14.6201 21.0766 14.6493 20.9395 14.7061C20.8025 14.7629 20.6779 14.8461 20.573 14.951L16.8718 18.6635L15.4205 17.201Z" fill="#fff"/>
<path d="M9 18C9 19.78 9.52784 21.5201 10.5168 23.0001C11.5057 24.4802 12.9113 25.6337 14.5558 26.3149C16.2004 26.9961 18.01 27.1743 19.7558 26.8271C21.5016 26.4798 23.1053 25.6226 24.364 24.364C25.6226 23.1053 26.4798 21.5016 26.8271 19.7558C27.1743 18.01 26.9961 16.2004 26.3149 14.5558C25.6337 12.9113 24.4802 11.5057 23.0001 10.5168C21.5201 9.52784 19.78 9 18 9C15.6131 9 13.3239 9.94821 11.636 11.636C9.94821 13.3239 9 15.6131 9 18ZM24.75 18C24.75 19.335 24.3541 20.6401 23.6124 21.7501C22.8707 22.8601 21.8165 23.7253 20.5831 24.2362C19.3497 24.7471 17.9925 24.8808 16.6831 24.6203C15.3738 24.3599 14.171 23.717 13.227 22.773C12.283 21.829 11.6402 20.6262 11.3797 19.3169C11.1192 18.0075 11.2529 16.6503 11.7638 15.4169C12.2747 14.1835 13.1399 13.1293 14.2499 12.3876C15.3599 11.6459 16.665 11.25 18 11.25C19.7902 11.25 21.5071 11.9612 22.773 13.227C24.0388 14.4929 24.75 16.2098 24.75 18Z" fill="#fff"/>
</svg>
