<svg width="24" height="24" viewBox="0 0 24 24" fill="none" xmlns="http://www.w3.org/2000/svg">
<g clip-path="url(#clip0_1594_22689)">
<mask id="mask0_1594_22689" style="mask-type:luminance" maskUnits="userSpaceOnUse" x="0" y="0" width="24" height="24">
<path d="M0 1.90735e-06H24V24H0V1.90735e-06Z" fill="white"/>
</mask>
<g mask="url(#mask0_1594_22689)">
<path fill-rule="evenodd" clip-rule="evenodd" d="M21.8906 20.3555C21.3664 20.3555 20.9414 19.9305 20.9414 19.4063C20.9414 19.2329 20.9875 19.0716 21.0678 18.9326C21.0678 18.9326 21.0678 18.9325 21.0678 18.9326L21.8906 17.5077L22.7135 18.9326C22.7938 19.0716 22.8398 19.2328 22.8398 19.4063C22.8398 19.9305 22.4148 20.3555 21.8906 20.3555ZM20.0273 19.4063C20.0273 20.4353 20.8616 21.2695 21.8906 21.2695C22.9197 21.2695 23.7539 20.4353 23.7539 19.4063C23.7539 19.0681 23.6634 18.7497 23.505 18.4755C23.505 18.4755 23.505 18.4754 23.505 18.4754L21.8906 15.6798L20.2762 18.4755L20.2762 18.4755C20.1179 18.7497 20.0273 19.068 20.0273 19.4063Z" fill="#383A3D"/>
<path fill-rule="evenodd" clip-rule="evenodd" d="M8.74678 22.7887C9.47445 23.5164 10.6542 23.5164 11.3819 22.7887L19.3074 14.8632L22.8897 13.6691L11.1056 1.88496L0.791811 12.1987C0.0641885 12.9263 0.0641878 14.1061 0.79181 14.8338L8.74678 22.7887ZM10.7355 22.1424C10.3648 22.5131 9.76382 22.5131 9.39312 22.1424L1.43815 14.1874C1.06749 13.8168 1.06749 13.2157 1.43815 12.845L11.1056 3.17764L21.1975 13.2696L18.8136 14.0642L10.7355 22.1424Z" fill="#383A3D"/>
<path fill-rule="evenodd" clip-rule="evenodd" d="M9.64453 13.0781V3.23438C9.64453 1.81698 8.49552 0.667969 7.07812 0.667969C5.66073 0.667969 4.51172 1.81698 4.51172 3.23438V8.66808H5.42578V3.23438C5.42578 2.3218 6.16555 1.58203 7.07812 1.58203C7.9907 1.58203 8.73047 2.3218 8.73047 3.23438V13.0781H9.64453Z" fill="#383A3D"/>
</g>
</g>
<defs>
<clipPath id="clip0_1594_22689">
<rect width="24" height="24" fill="white"/>
</clipPath>
</defs>
</svg>
