<svg width="24" height="24" viewBox="0 0 24 24" fill="none" xmlns="http://www.w3.org/2000/svg">
<path d="M1.77774 17.3335C1.70308 17.3335 1.62752 17.3148 1.55819 17.2748C1.34485 17.1531 1.27019 16.8819 1.39196 16.6686C3.22574 13.4544 4.07996 10.3753 4.07996 6.97794V4.52461C4.07996 2.76461 5.51196 1.3335 7.27108 1.3335H10.0177C11.0293 1.3335 11.9626 1.79927 12.5769 2.61172L12.9857 3.15394C13.4169 3.73439 14.1049 4.07927 14.8266 4.07927H15.5111C16.5155 4.07927 17.3333 4.89705 17.3333 5.9015V6.42594C17.3333 7.10861 16.9404 7.74594 16.3324 8.04994L12.7235 9.85439C12.4666 9.98327 12.2871 10.2162 12.232 10.4944C12.184 10.7353 11.9484 10.8917 11.7093 10.8437C11.4684 10.7957 11.312 10.5619 11.36 10.3211C11.4702 9.77083 11.8222 9.31127 12.3253 9.05972L15.9342 7.25527C16.2444 7.10061 16.4444 6.77616 16.4444 6.42683V5.90238C16.4444 5.37883 16.0346 4.96905 15.5111 4.96905H14.8266C13.8257 4.96905 12.8711 4.48994 12.2737 3.68816L11.8666 3.14861C11.4231 2.56016 10.7484 2.22238 10.0177 2.22238H7.27108C6.00174 2.22238 4.96885 3.25527 4.96885 4.52461V6.97794C4.96885 10.5362 4.0773 13.7557 2.16352 17.1086C2.08174 17.2535 1.93152 17.3335 1.77774 17.3335Z" fill="#383A3D"/>
<path d="M7.27325 10.2229C6.84125 10.2229 6.44036 9.97133 6.2537 9.5811L4.12481 5.16333C4.01903 4.94199 4.11147 4.67622 4.33281 4.56955C4.55414 4.46377 4.81903 4.55622 4.9257 4.77755L7.05459 9.19621C7.12214 9.33755 7.4937 9.34999 7.51414 9.11444L8.20392 1.79799C8.22703 1.55355 8.4377 1.3651 8.68747 1.3971C8.93192 1.42022 9.11147 1.6371 9.08836 1.88066L8.39947 9.19621C8.34614 9.78022 7.86259 10.2229 7.27325 10.2229Z" fill="#383A3D"/>
<path d="M16.8886 22.6667C16.7953 22.6667 16.702 22.6373 16.6228 22.5787C16.398 22.4107 11.1108 18.4276 11.1108 15.2267C11.1108 13.4471 12.558 12 14.3375 12C15.3517 12 16.2868 12.472 16.8886 13.248C17.4895 12.472 18.4255 12 19.4397 12C21.2193 12 22.6664 13.4471 22.6664 15.2267C22.6664 18.4276 17.3793 22.4107 17.1544 22.5787C17.0753 22.6373 16.982 22.6667 16.8886 22.6667ZM14.3375 12.8889C13.0486 12.8889 11.9997 13.9378 11.9997 15.2267C11.9997 17.3867 15.3091 20.4258 16.8886 21.6622C18.4673 20.4249 21.7775 17.384 21.7775 15.2267C21.7775 13.9378 20.7286 12.8889 19.4397 12.8889C18.5073 12.8889 17.6664 13.4391 17.2966 14.2916C17.1562 14.616 16.622 14.616 16.4815 14.2916C16.1108 13.4391 15.27 12.8889 14.3375 12.8889Z" fill="#383A3D"/>
</svg>
