<svg width="24" height="24" viewBox="0 0 24 24" fill="none" xmlns="http://www.w3.org/2000/svg">
<path d="M2.78657 17.1452C2.85015 17.5361 3.05911 17.8885 3.37157 18.1318V19.4868C3.37157 19.5752 3.40669 19.66 3.4692 19.7225C3.53172 19.785 3.6165 19.8202 3.70491 19.8202H5.54824C5.58118 20.0379 5.65873 20.2465 5.77603 20.433C5.89332 20.6194 6.04784 20.7796 6.22991 20.9035V22.3335C6.22991 22.4219 6.26503 22.5067 6.32754 22.5692C6.39005 22.6317 6.47483 22.6668 6.56324 22.6668H17.4432C17.5316 22.6668 17.6164 22.6317 17.6789 22.5692C17.7415 22.5067 17.7766 22.4219 17.7766 22.3335V20.9035C17.9586 20.7796 18.1132 20.6194 18.2305 20.433C18.3477 20.2465 18.4253 20.0379 18.4582 19.8202H20.3016C20.39 19.8202 20.4748 19.785 20.5373 19.7225C20.5998 19.66 20.6349 19.5752 20.6349 19.4868V18.1318C20.9474 17.8885 21.1563 17.5361 21.2199 17.1452L22.2199 11.0035C22.2301 10.9416 22.2226 10.878 22.1982 10.8202C21.7516 9.7535 19.5532 4.64183 18.0882 3.68016C18.1241 3.10195 17.9461 2.53073 17.5882 2.07516C17.2192 1.6641 16.7071 1.40953 16.1566 1.3635C16.1382 1.36016 15.8366 1.3335 15.6982 1.3335C15.6397 1.3336 15.5822 1.34912 15.5316 1.3785C14.4436 1.95612 13.2348 2.26903 12.0032 2.29183C10.7726 2.26623 9.56494 1.95348 8.47657 1.3785C8.42593 1.34912 8.36845 1.3336 8.30991 1.3335C8.16991 1.3335 7.86824 1.36016 7.84991 1.3635C7.29409 1.40579 6.77596 1.66068 6.40324 2.07516C6.04833 2.5319 5.87338 3.10301 5.91157 3.68016C4.44657 4.64183 2.24491 9.7535 1.80157 10.8202C1.77786 10.877 1.77036 10.9393 1.77991 11.0002L2.78657 17.1452ZM4.03824 18.4352C4.13491 18.4535 5.52824 18.4652 5.52824 18.4652V19.1535H4.03824V18.4352ZM17.1099 21.1768V22.0002H6.89657V21.1768H17.1099ZM19.9682 19.1535H18.4782V18.4652C18.4782 18.4652 19.8716 18.4535 19.9682 18.4352V19.1535ZM17.0916 2.50016C17.3367 2.8281 17.455 3.23354 17.4249 3.64183L13.2282 5.5085L16.2282 2.04516C16.5601 2.09212 16.8653 2.25297 17.0916 2.50016ZM15.1082 2.31516L12.0032 5.90683L8.89824 2.31516C9.88259 2.72616 10.9366 2.94455 12.0032 2.9585C13.0699 2.94455 14.1239 2.72616 15.1082 2.31516ZM6.91491 2.50016C7.14241 2.25037 7.45024 2.0882 7.78491 2.04183L10.7849 5.50516L6.57657 3.64516C6.54675 3.23509 6.66699 2.82816 6.91491 2.50016ZM6.26324 4.23516L11.8666 6.72016C11.907 6.74219 11.9522 6.75373 11.9982 6.75373C12.0442 6.75373 12.0895 6.74219 12.1299 6.72016L17.7432 4.23516C18.6732 4.7785 20.5332 8.5685 21.5532 10.9902L20.5532 17.0368C20.5198 17.2477 20.4127 17.4399 20.251 17.5793C20.0893 17.7188 19.8834 17.7964 19.6699 17.7985H18.4816V7.2785C18.4816 7.19009 18.4465 7.10531 18.3839 7.04279C18.3214 6.98028 18.2366 6.94516 18.1482 6.94516C18.0598 6.94516 17.975 6.98028 17.9125 7.04279C17.85 7.10531 17.8149 7.19009 17.8149 7.2785V19.5818C17.8145 19.8279 17.7165 20.0638 17.5425 20.2378C17.3685 20.4118 17.1326 20.5097 16.8866 20.5102H7.12324C6.87717 20.5097 6.6413 20.4118 6.4673 20.2378C6.2933 20.0638 6.19535 19.8279 6.19491 19.5818V7.2785C6.19491 7.19009 6.15979 7.10531 6.09728 7.04279C6.03476 6.98028 5.94998 6.94516 5.86157 6.94516C5.77317 6.94516 5.68838 6.98028 5.62587 7.04279C5.56336 7.10531 5.52824 7.19009 5.52824 7.2785V17.7985H4.33657C4.12106 17.7992 3.91241 17.7228 3.74828 17.5831C3.58415 17.4434 3.47537 17.2497 3.44157 17.0368L2.45324 10.9902C3.47324 8.57183 5.33657 4.7785 6.26324 4.23516Z" fill="#383A3D"/>
<path d="M7.28255 19.8199H16.7259C16.8143 19.8199 16.8991 19.7848 16.9616 19.7223C17.0241 19.6598 17.0592 19.575 17.0592 19.4866V16.7216C17.0592 16.6332 17.0241 16.5484 16.9616 16.4859C16.8991 16.4234 16.8143 16.3882 16.7259 16.3882C15.9542 16.3882 15.0792 14.9049 14.8342 14.3882C14.8071 14.3313 14.7643 14.2832 14.7109 14.2495C14.6575 14.2159 14.5957 14.1981 14.5326 14.1982H9.47589C9.41167 14.1979 9.34872 14.2161 9.29461 14.2507C9.2405 14.2853 9.19754 14.3348 9.17089 14.3932C8.94255 14.9099 8.10255 16.3932 7.28255 16.3932C7.19415 16.3932 7.10936 16.4284 7.04685 16.4909C6.98434 16.5534 6.94922 16.6382 6.94922 16.7266V19.4916C6.95053 19.5791 6.98623 19.6626 7.0486 19.7241C7.11097 19.7855 7.19501 19.8199 7.28255 19.8199ZM7.61589 17.0149C8.65422 16.7632 9.42089 15.4016 9.68755 14.8616H14.3259C14.6026 15.3932 15.3942 16.7499 16.3926 17.0116V19.1532H7.61589V17.0149Z" fill="#383A3D"/>
</svg>
