<svg width="129" height="121" viewBox="0 0 129 121" fill="none" xmlns="http://www.w3.org/2000/svg">
<path fill-rule="evenodd" clip-rule="evenodd" d="M30.5669 20.2232L16.6833 11.7036L30.6768 3.18408L30.6314 10.228H98.2807L98.3261 3.18408L112.21 11.7036L98.2162 20.2232L98.2616 13.1793H30.6123L30.5669 20.2232Z" fill="#3CBE1A"/>
<g clip-path="url(#clip0_1580_60433)">
<path d="M77.5171 65.6163C80.0393 68.796 83.8459 73.6419 81.1707 78.6866C79.6726 81.4688 76.8599 82.1413 73.6802 82.1413C72.1669 82.1413 70.5618 81.9885 68.972 81.8357C67.3974 81.6827 65.8993 81.53 64.5084 81.53C63.0867 81.53 61.6039 81.6828 60.0142 81.8357C55.1071 82.2942 50.0167 82.7835 47.8459 78.6866C45.1555 73.6419 48.9771 68.796 51.4995 65.6163C52.0498 64.8979 52.5237 64.2864 52.8448 63.7971C57.2473 57.0558 59.6473 54.6405 64.5085 54.6405C69.339 54.6405 71.7697 57.0558 76.1417 63.7971C76.4623 64.2864 76.9668 64.8979 77.5171 65.6163ZM60.0903 44.9182C59.4483 46.4011 58.3781 47.3945 57.0942 47.7004C54.2968 48.3729 51.2851 45.7436 50.3527 41.8303C49.4049 37.9018 50.9183 34.1564 53.6852 33.5143C53.9757 33.4378 54.2814 33.392 54.5718 33.392C57.0942 33.392 59.6164 35.899 60.4419 39.3997C60.9158 41.3717 60.7782 43.3132 60.0903 44.9182ZM60.0903 44.9182C59.4483 46.4011 58.3781 47.3945 57.0942 47.7004C54.2968 48.3729 51.2851 45.7436 50.3527 41.8303C49.4049 37.9018 50.9183 34.1564 53.6852 33.5143C53.9757 33.4378 54.2814 33.392 54.5718 33.392C57.0942 33.392 59.6164 35.899 60.4419 39.3997C60.9158 41.3717 60.7782 43.3132 60.0903 44.9182ZM47.112 55.8023C47.112 56.0928 47.0966 56.3833 47.0662 56.6737C46.8675 58.2789 46.1184 59.5323 44.9717 60.1897C42.4954 61.6114 38.8419 59.9604 36.8241 56.4597C34.8063 52.9743 35.1884 48.9692 37.6801 47.5323C38.2457 47.2112 38.9184 47.0432 39.6214 47.0432C40.3093 47.0432 41.0431 47.196 41.7616 47.5017C43.3668 48.1896 44.8189 49.5195 45.8127 51.2623C46.6533 52.7297 47.112 54.3196 47.112 55.8023ZM60.0903 44.9182C59.4483 46.4011 58.3781 47.3945 57.0942 47.7004C54.2968 48.3729 51.2851 45.7436 50.3527 41.8303C49.4049 37.9018 50.9183 34.1564 53.6852 33.5143C53.9757 33.4378 54.2814 33.392 54.5718 33.392C57.0942 33.392 59.6164 35.899 60.4419 39.3997C60.9158 41.3717 60.7782 43.3132 60.0903 44.9182ZM78.6636 41.8303C77.7312 45.7437 74.6889 48.3731 71.9221 47.7004C69.1247 47.0584 67.6266 43.3132 68.5591 39.3997C69.4916 35.4863 72.503 32.8417 75.3005 33.5143C78.0828 34.1564 79.5962 37.9018 78.6636 41.8303ZM47.112 55.8023C47.112 56.0928 47.0966 56.3833 47.0662 56.6737C46.8675 58.2789 46.1184 59.5323 44.9717 60.1897C42.4954 61.6114 38.8419 59.9604 36.8241 56.4597C34.8063 52.9743 35.1884 48.9692 37.6801 47.5323C38.2457 47.2112 38.9184 47.0432 39.6214 47.0432C40.3093 47.0432 41.0431 47.196 41.7616 47.5017C43.3668 48.1896 44.8189 49.5195 45.8127 51.2623C46.6533 52.7297 47.112 54.3196 47.112 55.8023ZM60.0903 44.9182C59.4483 46.4011 58.3781 47.3945 57.0942 47.7004C54.2968 48.3729 51.2851 45.7436 50.3527 41.8303C49.4049 37.9018 50.9183 34.1564 53.6852 33.5143C53.9757 33.4378 54.2814 33.392 54.5718 33.392C57.0942 33.392 59.6164 35.899 60.4419 39.3997C60.9158 41.3717 60.7782 43.3132 60.0903 44.9182ZM78.6636 41.8303C77.7312 45.7437 74.6889 48.3731 71.9221 47.7004C69.1247 47.0584 67.6266 43.3132 68.5591 39.3997C69.4916 35.4863 72.503 32.8417 75.3005 33.5143C78.0828 34.1564 79.5962 37.9018 78.6636 41.8303ZM99.0561 60.4189C99.0256 60.4648 98.995 60.5106 98.9796 60.5564C94.6077 67.9705 92.0243 76.2865 92.0243 84.8928V121H36.9616V84.8622C36.9616 76.2559 34.3782 67.9399 30.0214 60.5106C30.0061 60.48 29.9908 60.4495 29.9755 60.4189C25.7105 53.0201 27.3463 44.3526 33.7207 40.6686C35.494 39.6596 37.5423 39.1093 39.6366 39.1093C40.4774 39.1093 41.3335 39.2009 42.1589 39.3691C42.1743 37.1832 42.6023 35.0582 43.443 33.1474C45.0788 29.3563 48.1513 26.6811 51.8661 25.7945C52.7527 25.5805 53.6546 25.4736 54.5718 25.4736C58.3783 25.4736 61.9247 27.2774 64.5235 30.2889C67.107 27.2774 70.6382 25.4736 74.4445 25.4736C75.3617 25.4736 76.2636 25.5805 77.1502 25.7945C83.0509 27.201 86.842 32.7805 86.8726 39.3538C87.698 39.1857 88.5388 39.1093 89.3949 39.1093C91.4738 39.1093 93.5222 39.6596 95.2956 40.6686C98.6128 42.5946 100.783 46.0342 101.288 50.1157C101.701 53.5552 100.906 57.2087 99.0561 60.4189ZM65.991 41.6774C65.991 45.6979 68.1005 49.1527 71.3872 49.9475C71.8457 50.0545 72.3044 50.1157 72.7324 50.1157C76.3095 50.1157 79.7948 46.9054 80.8802 42.3348C82.1185 37.1984 79.8408 32.2303 75.8356 31.2825C71.8 30.3195 67.5501 33.7283 66.3273 38.88C66.098 39.8126 65.991 40.7602 65.991 41.6774ZM48.1056 42.3348C49.2063 46.9054 52.6762 50.1157 56.2533 50.1157C56.7119 50.1157 57.1705 50.0545 57.6291 49.9475C59.6318 49.4583 61.2521 48.0062 62.1998 45.8354C63.0864 43.7717 63.2698 41.3106 62.6737 38.88C61.4508 33.7284 57.1858 30.3043 53.1501 31.2825C49.1451 32.2303 46.8826 37.1984 48.1056 42.3348ZM43.0457 62.9717C44.131 62.9717 45.1858 62.7273 46.1182 62.1768C47.9068 61.1373 49.0533 59.2877 49.3285 56.9334C49.6036 54.7169 49.0686 52.2864 47.7998 50.1157C46.5615 47.9602 44.7271 46.2787 42.6634 45.3921C40.4926 44.4596 38.3067 44.5207 36.5335 45.5451C32.9563 47.6087 32.192 53.0201 34.8519 57.6061C36.7781 60.9845 40.0495 62.9717 43.0457 62.9717ZM79.3057 64.1946C78.8012 63.5527 78.3579 62.987 78.0674 62.5284C73.94 56.215 70.9897 52.3474 64.5082 52.3474C58.0268 52.3474 55.0457 56.215 50.9184 62.5284C50.628 62.987 50.2 63.5527 49.6955 64.1946C47.158 67.4049 42.4191 73.3819 45.8127 79.7565C47.8457 83.5629 51.5452 84.4037 55.3516 84.4037C57.0178 84.4037 58.6993 84.2507 60.2433 84.098C61.772 83.9451 63.2089 83.8229 64.5082 83.8229C65.8075 83.8229 67.2445 83.9453 68.7427 84.098C73.8791 84.6025 80.2689 85.2138 83.1885 79.7565C86.5667 73.382 81.8585 67.4049 79.3057 64.1946ZM95.6929 50.8035C95.4025 48.4494 94.256 46.5845 92.4827 45.5449C90.6789 44.5207 88.5082 44.4595 86.3223 45.3919C84.2584 46.2785 82.4394 47.9601 81.1859 50.1155C80.1465 51.9347 79.5962 53.922 79.5962 55.8328C79.5962 56.1843 79.6115 56.5666 79.6572 56.9334C79.9477 59.2877 81.0941 61.1373 82.8675 62.1768C83.8153 62.7271 84.8701 62.987 85.986 62.987C86.949 62.987 87.9886 62.7883 89.0128 62.345C91.0765 61.4584 92.8957 59.7768 94.1644 57.6061C95.4025 55.4507 95.9528 53.0201 95.6929 50.8035ZM93.4152 51.0635C93.5988 52.8062 93.186 54.7171 92.177 56.4597C91.1528 58.2024 89.7312 59.5323 88.1261 60.2203C86.6127 60.8776 85.1604 60.847 84.014 60.1897C82.8675 59.5323 82.1337 58.2789 81.9501 56.6737C81.7362 54.931 82.1794 53.0201 83.1732 51.2623C84.182 49.5195 85.6189 48.1896 87.2241 47.5017C87.9731 47.196 88.6916 47.0432 89.3643 47.0432C90.0675 47.0432 90.74 47.2112 91.3362 47.5323C92.4828 48.2049 93.2012 49.4431 93.4152 51.0635ZM68.5591 39.3997C69.4916 35.4863 72.503 32.8417 75.3005 33.5143C78.0828 34.1564 79.5962 37.9018 78.6636 41.8303C77.7312 45.7437 74.6889 48.3731 71.9221 47.7004C69.1247 47.0584 67.6266 43.3132 68.5591 39.3997ZM50.3527 41.8303C49.4049 37.9018 50.9183 34.1564 53.6852 33.5143C53.9757 33.4378 54.2814 33.392 54.5718 33.392C57.0942 33.392 59.6164 35.899 60.4419 39.3997C60.9158 41.3717 60.7782 43.3132 60.0903 44.9182C59.4483 46.4011 58.3781 47.3945 57.0942 47.7004C54.2968 48.3729 51.2851 45.7436 50.3527 41.8303ZM47.0662 56.6737C46.8675 58.2789 46.1184 59.5323 44.9717 60.1897C42.4954 61.6114 38.8419 59.9604 36.8241 56.4597C34.8063 52.9743 35.1884 48.9692 37.6801 47.5323C38.2457 47.2112 38.9184 47.0432 39.6214 47.0432C40.3093 47.0432 41.0431 47.196 41.7616 47.5017C43.3668 48.1896 44.8189 49.5195 45.8127 51.2623C46.6533 52.7297 47.112 54.3196 47.112 55.8023C47.112 56.0928 47.0966 56.3833 47.0662 56.6737ZM60.0903 44.9182C59.4483 46.4011 58.3781 47.3945 57.0942 47.7004C54.2968 48.3729 51.2851 45.7436 50.3527 41.8303C49.4049 37.9018 50.9183 34.1564 53.6852 33.5143C53.9757 33.4378 54.2814 33.392 54.5718 33.392C57.0942 33.392 59.6164 35.899 60.4419 39.3997C60.9158 41.3717 60.7782 43.3132 60.0903 44.9182ZM47.112 55.8023C47.112 56.0928 47.0966 56.3833 47.0662 56.6737C46.8675 58.2789 46.1184 59.5323 44.9717 60.1897C42.4954 61.6114 38.8419 59.9604 36.8241 56.4597C34.8063 52.9743 35.1884 48.9692 37.6801 47.5323C38.2457 47.2112 38.9184 47.0432 39.6214 47.0432C40.3093 47.0432 41.0431 47.196 41.7616 47.5017C43.3668 48.1896 44.8189 49.5195 45.8127 51.2623C46.6533 52.7297 47.112 54.3196 47.112 55.8023ZM60.0903 44.9182C59.4483 46.4011 58.3781 47.3945 57.0942 47.7004C54.2968 48.3729 51.2851 45.7436 50.3527 41.8303C49.4049 37.9018 50.9183 34.1564 53.6852 33.5143C53.9757 33.4378 54.2814 33.392 54.5718 33.392C57.0942 33.392 59.6164 35.899 60.4419 39.3997C60.9158 41.3717 60.7782 43.3132 60.0903 44.9182ZM47.112 55.8023C47.112 56.0928 47.0966 56.3833 47.0662 56.6737C46.8675 58.2789 46.1184 59.5323 44.9717 60.1897C42.4954 61.6114 38.8419 59.9604 36.8241 56.4597C34.8063 52.9743 35.1884 48.9692 37.6801 47.5323C38.2457 47.2112 38.9184 47.0432 39.6214 47.0432C40.3093 47.0432 41.0431 47.196 41.7616 47.5017C43.3668 48.1896 44.8189 49.5195 45.8127 51.2623C46.6533 52.7297 47.112 54.3196 47.112 55.8023Z" fill="#323232"/>
</g>
<defs>
<clipPath id="clip0_1580_60433">
<rect width="95.5263" height="95.5263" fill="white" transform="translate(16.7383 25.4736)"/>
</clipPath>
</defs>
</svg>
