<svg width="159" height="121" viewBox="0 0 159 121" fill="none" xmlns="http://www.w3.org/2000/svg">
<path fill-rule="evenodd" clip-rule="evenodd" d="M29.0274 0.785121C26.0963 1.24106 22.9034 2.37575 20.8485 3.6902C19.2019 4.74391 18.3586 5.76627 17.1661 8.15596C16.3158 9.86034 15.2894 11.553 14.8854 11.9177C14.4814 12.2823 11.4312 13.6665 8.10723 14.9936C4.78325 16.3202 1.6601 17.8037 1.16731 18.2891C0.289597 19.1542 0.288203 19.2646 1.1013 23.523C2.90648 32.9765 4.56708 34.1393 16.3075 34.1725C22.5524 34.1903 23.7081 34.3087 24.4993 35.0123C25.0056 35.4631 27.7485 39.6695 30.5941 44.36L35.7683 52.8889V57.4703C35.7683 59.9901 35.9715 62.7646 36.2193 63.6357C36.7716 65.5737 35.5303 96.6566 34.7879 99.4826C34.5159 100.519 33.343 103.19 32.1822 105.419C30.4579 108.728 29.7629 109.612 28.3872 110.244C25.1311 111.742 23.6811 113.535 23.6811 116.065C23.6811 118.049 24.7258 118.453 29.8637 118.453C33.6219 118.453 34.4267 118.311 35.4964 117.464C36.2411 116.874 38.2569 113.435 40.4921 108.94C44.2243 101.435 44.2475 101.366 46.28 91.6277C47.4023 86.2501 48.327 81.7127 48.3344 81.5442C48.3697 80.783 49.4962 83.4217 52.2851 90.7977C55.6513 99.7007 55.9033 101.577 54.5458 107.63L53.7978 110.965L50.9759 112.485C46.7738 114.749 45.1248 117.575 46.9402 119.403C47.8621 120.332 48.3246 120.391 53.5268 120.246L59.1213 120.091L60.6173 118.347C62.4444 116.217 63.3528 113.154 64.6117 104.878L65.5726 98.558L63.9199 89.3634C63.0111 84.3065 62.2672 79.8721 62.2672 79.5098C62.2672 78.9944 63.9088 78.7257 69.8166 78.273C76.5148 77.7604 93.1059 75.8267 96.9287 75.1133C98.3136 74.8549 98.3457 74.8895 98.1648 76.4474C97.9993 77.8761 98.1369 78.112 99.4582 78.6634C100.272 79.0023 101.831 79.2462 102.923 79.2046C104.731 79.1357 105.018 79.2874 106.123 80.8935C108.055 83.7003 110.86 86.1564 117.697 91.0285C121.209 93.5306 124.223 95.8074 124.395 96.0883C124.567 96.3692 125.374 100.2 126.188 104.6L127.667 112.601L125.883 114.58C123.863 116.82 123.684 117.829 125.046 119.3C125.884 120.207 126.474 120.325 130.138 120.325C134.956 120.325 136.252 119.86 137.398 117.717C138.164 116.284 138.185 115.762 137.645 111.411C137.322 108.802 136.542 103.602 135.911 99.8561C135.281 96.1094 134.864 92.9445 134.985 92.8232C135.105 92.702 136.997 93.7094 139.188 95.0622L143.172 97.5221L145.49 104.853C146.764 108.885 147.807 112.368 147.807 112.593C147.807 112.819 147.075 113.678 146.18 114.504C144.304 116.234 144.058 117.954 145.483 119.389C146.287 120.199 147.025 120.324 150.945 120.315C154.537 120.306 155.684 120.136 156.47 119.496C157.846 118.373 158.5 116.927 158.5 115.005C158.5 113.748 154.386 97.3601 152.616 91.5664C152.463 91.0683 150.914 89.1453 149.173 87.293C143.112 80.8443 140.016 74.3695 138.51 64.9909C136.768 54.1495 136.141 50.8081 135.389 48.3791L134.637 45.9473L136.305 43.897C141.689 37.2807 146.547 27.7346 148.526 19.8797C149.869 14.5461 150.574 5.50038 149.688 4.94941C148.718 4.34602 147.973 5.67966 146.686 10.3196C145.245 15.5174 141.466 23.5694 138.065 28.6891C136.747 30.6734 134.095 33.8823 132.17 35.8198C128.361 39.6555 128.187 39.7177 123.602 38.8817C120.428 38.3031 104.842 36.7625 95.0422 36.0594C87.9865 35.553 86.8982 35.3325 73.8895 31.7706L60.1752 28.0155L55.6839 23.5478L51.1921 19.0797L48.9876 13.0454C45.4739 3.42806 42.6841 1.01684 34.7321 0.725671C32.3616 0.639071 29.7945 0.665753 29.0274 0.785121Z" fill="#323232"/>
<path d="M51.9528 18.3478C51.4326 18.5334 51.1614 19.1055 51.347 19.6257C51.5325 20.1458 52.1046 20.4171 52.6248 20.2315L51.9528 18.3478ZM19.811 49.1013L30.8102 52.6159L28.3544 41.3331L19.811 49.1013ZM52.6248 20.2315C55.3462 19.2607 57.3268 18.8732 58.6785 18.8876C60.0394 18.9021 60.5151 19.3065 60.689 19.6374C60.9043 20.0473 60.9409 20.837 60.4332 22.1345C59.9427 23.388 59.0204 24.9122 57.6931 26.6055C52.3713 33.395 41.0862 42.2215 28.3072 46.2327L28.9061 48.1409C42.0852 44.0042 53.7054 34.935 59.2672 27.8393C60.6608 26.0614 61.7081 24.3649 62.2957 22.8634C62.866 21.4059 63.0893 19.9062 62.4595 18.7074C61.7883 17.4295 60.3874 16.9057 58.6999 16.8877C57.0031 16.8696 54.7635 17.3451 51.9528 18.3478L52.6248 20.2315Z" fill="#3CBE1A"/>
<path d="M71.672 29.9189C71.3449 30.364 71.4406 30.9899 71.8856 31.3169C72.3307 31.644 72.9566 31.5483 73.2836 31.1032L71.672 29.9189ZM72.4778 87.5039L84.0005 88.2523L78.8873 77.8991L72.4778 87.5039ZM73.2836 31.1032C74.797 29.0437 76.3801 28.1094 77.8926 27.9031C79.4162 27.6953 81.0647 28.1991 82.7521 29.413C86.1562 31.8617 89.4068 36.9926 91.396 43.4057C95.3741 56.2314 94.0837 73.3425 79.9898 82.6875L81.095 84.3544C96.2382 74.3137 97.4183 56.0706 93.3062 42.8132C91.2502 36.1846 87.8156 30.5918 83.92 27.7894C81.9575 26.3777 79.8026 25.6241 77.6224 25.9215C75.4311 26.2204 73.4099 27.5538 71.672 29.9189L73.2836 31.1032Z" fill="#3CBE1A"/>
<path d="M64 7L72.6095 14.6947L74.9686 3.3913L64 7ZM131.289 21.0435L122.679 13.3487L120.32 24.6522L131.289 21.0435ZM72.6059 9.81763L122.274 20.1837L122.683 18.2259L73.0145 7.85981L72.6059 9.81763Z" fill="#3CBE1A"/>
</svg>
