<svg width="41" height="30" viewBox="0 0 41 30" fill="none" xmlns="http://www.w3.org/2000/svg">
<path fill-rule="evenodd" clip-rule="evenodd" d="M33.2779 0.194832C34.0199 0.307874 34.8283 0.589203 35.3485 0.915099C35.7653 1.17635 35.9788 1.42983 36.2807 2.02231C36.496 2.44489 36.7559 2.86456 36.8581 2.95497C36.9604 3.04538 37.7326 3.38857 38.5741 3.7176C39.4156 4.04651 40.2063 4.41431 40.3311 4.53466C40.5533 4.74914 40.5536 4.77653 40.3478 5.83233C39.8908 8.17616 39.4704 8.46445 36.4981 8.47269C34.9171 8.4771 34.6245 8.50647 34.4242 8.68091C34.296 8.79267 33.6016 9.83559 32.8812 10.9985L31.5713 13.1131V14.249C31.5713 14.8738 31.5199 15.5616 31.4571 15.7776C31.3173 16.2581 31.6316 23.9646 31.8195 24.6653C31.8884 24.9222 32.1853 25.5845 32.4792 26.137C32.9157 26.9576 33.0917 27.1767 33.4399 27.3335C34.2643 27.7048 34.6314 28.1494 34.6314 28.7766C34.6314 29.2686 34.3669 29.3686 33.0661 29.3686C32.1147 29.3686 31.911 29.3336 31.6402 29.1235C31.4516 28.9772 30.9413 28.1246 30.3754 27.0101C29.4306 25.1494 29.4247 25.1322 28.9101 22.7178C28.626 21.3845 28.3919 20.2595 28.39 20.2177C28.3811 20.029 28.0959 20.6833 27.3899 22.512C26.5376 24.7194 26.4738 25.1846 26.8175 26.6852L27.0069 27.5121L27.7213 27.8891C28.7851 28.4503 29.2026 29.1511 28.743 29.6043C28.5096 29.8345 28.3925 29.8491 27.0755 29.8133L25.6592 29.7748L25.2804 29.3425C24.8179 28.8144 24.5879 28.0549 24.2692 26.0029L24.0259 24.4361L24.4443 22.1564C24.6744 20.9026 24.8627 19.8032 24.8627 19.7133C24.8627 19.5856 24.4471 19.5189 22.9515 19.4067C21.2557 19.2796 17.0555 18.8002 16.0877 18.6233C15.7371 18.5592 15.7289 18.5678 15.7747 18.9541C15.8166 19.3083 15.7818 19.3668 15.4473 19.5035C15.2413 19.5875 14.8466 19.648 14.5701 19.6377C14.1125 19.6206 14.0397 19.6582 13.7599 20.0564C13.2709 20.7523 12.5607 21.3613 10.8298 22.5692C9.94085 23.1896 9.17784 23.7541 9.13429 23.8237C9.09063 23.8934 8.88631 24.8431 8.68035 25.9342L8.30584 27.9179L8.75756 28.4086C9.26894 28.9639 9.31413 29.2139 8.9694 29.5788C8.7572 29.8035 8.60796 29.8328 7.6803 29.8328C6.4604 29.8328 6.1325 29.7175 5.84226 29.1862C5.6483 28.8309 5.64313 28.7014 5.77965 27.6227C5.86145 26.9759 6.05906 25.6867 6.21865 24.7579C6.37824 23.8289 6.48382 23.0443 6.45322 23.0142C6.42273 22.9841 5.94383 23.2339 5.38914 23.5693L4.38062 24.1792L3.79379 25.9968C3.47108 26.9965 3.20697 27.8601 3.20697 27.9159C3.20697 27.9717 3.39234 28.1849 3.6189 28.3895C4.09391 28.8186 4.15617 29.245 3.79544 29.6007C3.59183 29.8015 3.40517 29.8325 2.41253 29.8303C1.50335 29.8282 1.21288 29.7861 1.01397 29.6272C0.665478 29.3488 0.5 28.9904 0.5 28.5137C0.5 28.2021 1.5416 24.1391 1.98966 22.7026C2.02826 22.5791 2.42042 22.1023 2.86119 21.6431C4.39568 20.0442 5.17953 18.4389 5.56086 16.1136C6.00174 13.4257 6.16063 12.5972 6.35082 11.995L6.54137 11.3921L6.11897 10.8837C4.75583 9.24333 3.52616 6.87652 3.02513 4.92904C2.68499 3.60665 2.50669 1.3639 2.7309 1.2273C2.97641 1.0777 3.16507 1.40835 3.49085 2.55874C3.8557 3.84747 4.81244 5.84382 5.67337 7.11317C6.00703 7.60515 6.6786 8.40074 7.16574 8.88111C8.13012 9.83211 8.17426 9.84754 9.33484 9.64026C10.1386 9.49681 14.0844 9.11485 16.5653 8.94053C18.3515 8.81496 18.627 8.76029 21.9204 7.87719L25.3924 6.94616L26.5294 5.83848L27.6666 4.73069L28.2247 3.23456C29.1142 0.850106 29.8205 0.252281 31.8336 0.180092C32.4338 0.158621 33.0837 0.165236 33.2779 0.194832Z" fill="#323232"/>
<path fill-rule="evenodd" clip-rule="evenodd" d="M25.0946 3.55764C24.4457 3.53648 23.8232 3.71337 23.5504 4.28214C23.3024 4.79927 23.4502 5.45176 23.7564 6.09485C24.0751 6.76403 24.6155 7.52903 25.3232 8.33589C26.0335 9.1458 26.9075 9.99203 27.8822 10.8161C28.8573 11.6405 29.9132 12.4258 30.9762 13.117C31.4458 13.4224 31.9126 13.7067 32.3703 13.9662L31.6176 16.2372L36.6368 15.1905L33.2005 11.4616L32.651 13.1194C32.2632 12.8954 31.8676 12.6525 31.4683 12.3928C30.4367 11.722 29.4106 10.9589 28.4634 10.1582C27.516 9.35716 26.6745 8.54124 25.9978 7.76964C25.3183 6.995 24.8337 6.29781 24.5622 5.72764C24.2782 5.13138 24.285 4.79765 24.3551 4.65152C24.4004 4.55703 24.5474 4.40984 25.065 4.42672C25.5704 4.4432 26.2804 4.62068 27.1566 4.97816C27.3831 5.07059 27.6434 4.96586 27.7378 4.74424C27.8323 4.52261 27.7253 4.26802 27.4987 4.1756C26.5804 3.80093 25.7555 3.57919 25.0946 3.55764Z" fill="#3CBE1A"/>
</svg>
