<svg width="41" height="30" viewBox="0 0 41 30" fill="none" xmlns="http://www.w3.org/2000/svg">
<path fill-rule="evenodd" clip-rule="evenodd" d="M33.4449 0.194832C34.1869 0.307874 34.9953 0.589203 35.5155 0.915099C35.9323 1.17635 36.1458 1.42983 36.4477 2.02231C36.663 2.44489 36.9229 2.86456 37.0251 2.95497C37.1274 3.04538 37.8996 3.38857 38.7411 3.7176C39.5826 4.04651 40.3733 4.41431 40.4981 4.53466C40.7203 4.74914 40.7206 4.77653 40.5148 5.83233C40.0578 8.17616 39.6374 8.46445 36.6651 8.47269C35.0841 8.4771 34.7915 8.50647 34.5912 8.68091C34.463 8.79267 33.7686 9.83559 33.0482 10.9985L31.7383 13.1131V14.249C31.7383 14.8738 31.6869 15.5616 31.6241 15.7776C31.4843 16.2581 31.7986 23.9646 31.9865 24.6653C32.0554 24.9222 32.3523 25.5845 32.6462 26.137C33.0827 26.9576 33.2587 27.1767 33.6069 27.3335C34.4313 27.7048 34.7983 28.1494 34.7983 28.7766C34.7983 29.2686 34.5339 29.3686 33.2331 29.3686C32.2817 29.3686 32.078 29.3336 31.8071 29.1235C31.6186 28.9772 31.1083 28.1246 30.5424 27.0101C29.5976 25.1494 29.5917 25.1322 29.0771 22.7178C28.793 21.3845 28.5589 20.2595 28.557 20.2177C28.5481 20.029 28.2629 20.6833 27.5569 22.512C26.7046 24.7194 26.6408 25.1846 26.9845 26.6852L27.1739 27.5121L27.8883 27.8891C28.9521 28.4503 29.3696 29.1511 28.91 29.6043C28.6766 29.8345 28.5595 29.8491 27.2425 29.8133L25.8262 29.7748L25.4474 29.3425C24.9849 28.8144 24.7549 28.0549 24.4362 26.0029L24.1929 24.4361L24.6113 22.1564C24.8414 20.9026 25.0297 19.8032 25.0297 19.7133C25.0297 19.5856 24.6141 19.5189 23.1185 19.4067C21.4227 19.2796 17.2225 18.8002 16.2547 18.6233C15.9041 18.5592 15.8959 18.5678 15.9417 18.9541C15.9836 19.3083 15.9488 19.3668 15.6143 19.5035C15.4083 19.5875 15.0136 19.648 14.7371 19.6377C14.2795 19.6206 14.2067 19.6582 13.9269 20.0564C13.4379 20.7523 12.7277 21.3613 10.9968 22.5692C10.1078 23.1896 9.34483 23.7541 9.30128 23.8237C9.25762 23.8934 9.0533 24.8431 8.84734 25.9342L8.47284 27.9179L8.92455 28.4086C9.43593 28.9639 9.48112 29.2139 9.13639 29.5788C8.92419 29.8035 8.77496 29.8328 7.84729 29.8328C6.62739 29.8328 6.29949 29.7175 6.00925 29.1862C5.8153 28.8309 5.81012 28.7014 5.94664 27.6227C6.02844 26.9759 6.22605 25.6867 6.38564 24.7579C6.54523 23.8289 6.65081 23.0443 6.62021 23.0142C6.58973 22.9841 6.11082 23.2339 5.55613 23.5693L4.54761 24.1792L3.96078 25.9968C3.63807 26.9965 3.37396 27.8601 3.37396 27.9159C3.37396 27.9717 3.55933 28.1849 3.78589 28.3895C4.26091 28.8186 4.32317 29.245 3.96243 29.6007C3.75882 29.8015 3.57216 29.8325 2.57952 29.8303C1.67034 29.8282 1.37987 29.7861 1.18097 29.6272C0.83247 29.3488 0.666992 28.9904 0.666992 28.5137C0.666992 28.2021 1.70859 24.1391 2.15665 22.7026C2.19526 22.5791 2.58741 22.1023 3.02818 21.6431C4.56268 20.0442 5.34652 18.4389 5.72785 16.1136C6.16873 13.4257 6.32762 12.5972 6.51781 11.995L6.70836 11.3921L6.28596 10.8837C4.92282 9.24333 3.69315 6.87652 3.19212 4.92904C2.85199 3.60665 2.67368 1.3639 2.89789 1.2273C3.1434 1.0777 3.33206 1.40835 3.65784 2.55874C4.02269 3.84747 4.97943 5.84382 5.84037 7.11317C6.17403 7.60515 6.84559 8.40074 7.33273 8.88111C8.29712 9.83211 8.34126 9.84754 9.50184 9.64026C10.3056 9.49681 14.2514 9.11485 16.7323 8.94053C18.5185 8.81496 18.794 8.76029 22.0874 7.87719L25.5593 6.94616L26.6964 5.83848L27.8336 4.73069L28.3917 3.23456C29.2812 0.850106 29.9875 0.252281 32.0006 0.180092C32.6008 0.158621 33.2507 0.165236 33.4449 0.194832Z" fill="#323232"/>
</svg>
