<svg width="41" height="30" viewBox="0 0 41 30" fill="none" xmlns="http://www.w3.org/2000/svg">
<path fill-rule="evenodd" clip-rule="evenodd" d="M11.2466 0.135238C10.7189 0.213876 10.1441 0.409583 9.77415 0.636294C9.47771 0.818033 9.32589 0.994365 9.11121 1.40653C8.95814 1.70049 8.77334 1.99244 8.70061 2.05533C8.62788 2.11823 8.07877 2.35697 7.48036 2.58586C6.88195 2.81467 6.31969 3.07053 6.23098 3.15425C6.07296 3.30345 6.07271 3.32251 6.21909 4.05698C6.54407 5.68747 6.84303 5.88802 8.95663 5.89375C10.0809 5.89682 10.289 5.91725 10.4314 6.03859C10.5225 6.11634 11.0163 6.84185 11.5286 7.65084L12.4601 9.12187V9.91205C12.4601 10.3467 12.4967 10.8252 12.5413 10.9754C12.6407 11.3097 12.4173 16.6707 12.2836 17.1582C12.2347 17.3369 12.0235 17.7976 11.8145 18.182C11.5041 18.7528 11.379 18.9052 11.1313 19.0143C10.5451 19.2726 10.2841 19.5819 10.2841 20.0182C10.2841 20.3604 10.4722 20.43 11.3971 20.43C12.0737 20.43 12.2186 20.4057 12.4112 20.2595C12.5453 20.1578 12.9081 19.5646 13.3105 18.7894C13.9824 17.4949 13.9866 17.483 14.3525 15.8034C14.5546 14.8759 14.721 14.0933 14.7224 14.0642C14.7287 13.9329 14.9315 14.3881 15.4336 15.6602C16.0396 17.1958 16.085 17.5195 15.8406 18.5633L15.7059 19.1386L15.1979 19.4008C14.4414 19.7912 14.1446 20.2787 14.4714 20.594C14.6373 20.7541 14.7206 20.7643 15.6572 20.7394L16.6643 20.7126L16.9336 20.4119C17.2626 20.0445 17.4261 19.5162 17.6527 18.0886L17.8257 16.9987L17.5282 15.4129C17.3646 14.5406 17.2307 13.7758 17.2307 13.7133C17.2307 13.6244 17.5262 13.5781 18.5898 13.5C19.7956 13.4116 22.7825 13.0781 23.4707 12.955C23.72 12.9105 23.7258 12.9165 23.6933 13.1851C23.6635 13.4316 23.6882 13.4722 23.9261 13.5674C24.0726 13.6258 24.3533 13.6679 24.5499 13.6607C24.8753 13.6488 24.9271 13.675 25.126 13.952C25.4738 14.4361 25.9788 14.8597 27.2097 15.7C27.8418 16.1316 28.3844 16.5243 28.4153 16.5727C28.4464 16.6212 28.5917 17.2818 28.7381 18.0409L29.0045 19.4208L28.6832 19.7622C28.3196 20.1485 28.2875 20.3224 28.5326 20.5763C28.6835 20.7326 28.7896 20.753 29.4493 20.753C30.3168 20.753 30.55 20.6727 30.7563 20.3031C30.8943 20.056 30.8979 19.9659 30.8009 19.2155C30.7427 18.7656 30.6022 17.8687 30.4887 17.2226C30.3752 16.5764 30.3001 16.0305 30.3219 16.0096C30.3436 15.9887 30.6841 16.1624 31.0786 16.3958L31.7957 16.82L32.213 18.0845C32.4425 18.7798 32.6303 19.3806 32.6303 19.4194C32.6303 19.4583 32.4985 19.6066 32.3374 19.7489C31.9996 20.0474 31.9553 20.344 32.2119 20.5915C32.3566 20.7312 32.4894 20.7527 33.1953 20.7512C33.8418 20.7498 34.0483 20.7204 34.1898 20.6099C34.4376 20.4162 34.5553 20.1669 34.5553 19.8353C34.5553 19.6185 33.8146 16.7921 33.496 15.7928C33.4685 15.7069 33.1897 15.3752 32.8762 15.0557C31.785 13.9435 31.2276 12.8268 30.9565 11.2092C30.6429 9.3393 30.5299 8.763 30.3947 8.34405L30.2592 7.92462L30.5596 7.57099C31.5289 6.42985 32.4034 4.78337 32.7596 3.4286C33.0015 2.50868 33.1283 0.948505 32.9689 0.853477C32.7943 0.749407 32.6601 0.979428 32.4285 1.7797C32.169 2.6762 31.4887 4.06497 30.8764 4.94799C30.6392 5.29024 30.1616 5.8437 29.8152 6.17787C29.1294 6.83943 29.098 6.85017 28.2727 6.70597C27.7012 6.60618 24.8953 6.34047 23.1311 6.2192C21.8609 6.13185 21.6649 6.09382 19.323 5.47949L16.8541 4.83181L16.0455 4.06126L15.2368 3.29062L14.84 2.24983C14.2074 0.591081 13.7052 0.175203 12.2736 0.124984C11.8468 0.110048 11.3847 0.11465 11.2466 0.135238Z" fill="#323232"/>
<path fill-rule="evenodd" clip-rule="evenodd" d="M31.6904 24.7113C32.3085 24.7113 32.7691 25.1647 32.8137 25.7117L33.0782 28.9575C33.1248 29.5342 32.571 30.0002 31.9549 30.0002H13.1586C13.1329 30.0002 13.0982 29.9984 13.0546 29.9948C12.5068 29.9489 12.0313 29.5441 12.0313 29.034C12.0313 29.0151 12.0333 28.9872 12.0363 28.9521L12.3671 25.7063C12.4226 25.1629 12.8713 24.7122 13.4885 24.7122H15.9451V24.1454H10.5642C9.82519 24.1454 9.22192 23.5976 9.22192 22.9265V22.9085C9.22192 22.7429 9.36952 22.6089 9.55179 22.6089H35.5587C35.741 22.6089 35.8886 22.7429 35.8886 22.9085V22.9265C35.8886 23.5976 35.2853 24.1454 34.5464 24.1454H29.1862V24.7122H31.6884L31.6904 24.7113ZM16.6058 24.7113H28.5275V24.1445H16.6058V24.7113ZM23.1407 26.4215H14.9436C14.8683 26.4215 14.8069 26.4773 14.8069 26.5456V28.1767C14.8069 28.2441 14.8693 28.3008 14.9436 28.3008H23.1407C23.216 28.3008 23.2774 28.245 23.2774 28.1767V26.5456C23.2774 26.4782 23.215 26.4215 23.1407 26.4215ZM28.0758 28.1155C28.258 28.1155 28.4056 28.2495 28.4056 28.4151C28.4056 28.5806 28.258 28.7146 28.0758 28.7146C27.8935 28.7146 27.7459 28.5806 27.7459 28.4151C27.7459 28.2495 27.8935 28.1155 28.0758 28.1155ZM30.2659 25.996C30.4482 25.996 30.5958 26.13 30.5958 26.2955C30.5958 26.4611 30.4482 26.5951 30.2659 26.5951C30.0837 26.5951 29.9361 26.4611 29.9361 26.2955C29.9361 26.13 30.0837 25.996 30.2659 25.996ZM30.2659 27.0557C30.4482 27.0557 30.5958 27.1898 30.5958 27.3553C30.5958 27.5208 30.4482 27.6549 30.2659 27.6549C30.0837 27.6549 29.9361 27.5208 29.9361 27.3553C29.9361 27.1898 30.0837 27.0557 30.2659 27.0557ZM30.2659 28.1155C30.4482 28.1155 30.5958 28.2495 30.5958 28.4151C30.5958 28.5806 30.4482 28.7146 30.2659 28.7146C30.0837 28.7146 29.9361 28.5806 29.9361 28.4151C29.9361 28.2495 30.0837 28.1155 30.2659 28.1155ZM29.1713 25.996C29.3536 25.996 29.5012 26.13 29.5012 26.2955C29.5012 26.4611 29.3536 26.5951 29.1713 26.5951C28.9891 26.5951 28.8415 26.4611 28.8415 26.2955C28.8415 26.13 28.9891 25.996 29.1713 25.996ZM29.1713 27.0557C29.3536 27.0557 29.5012 27.1898 29.5012 27.3553C29.5012 27.5208 29.3536 27.6549 29.1713 27.6549C28.9891 27.6549 28.8415 27.5208 28.8415 27.3553C28.8415 27.1898 28.9891 27.0557 29.1713 27.0557ZM29.1713 28.1155C29.3536 28.1155 29.5012 28.2495 29.5012 28.4151C29.5012 28.5806 29.3536 28.7146 29.1713 28.7146C28.9891 28.7146 28.8415 28.5806 28.8415 28.4151C28.8415 28.2495 28.9891 28.1155 29.1713 28.1155ZM28.0768 25.996C28.259 25.996 28.4066 26.13 28.4066 26.2955C28.4066 26.4611 28.259 26.5951 28.0768 26.5951C27.8945 26.5951 27.7469 26.4611 27.7469 26.2955C27.7469 26.13 27.8945 25.996 28.0768 25.996ZM28.0768 27.0557C28.259 27.0557 28.4066 27.1898 28.4066 27.3553C28.4066 27.5208 28.259 27.6549 28.0768 27.6549C27.8945 27.6549 27.7469 27.5208 27.7469 27.3553C27.7469 27.1898 27.8945 27.0557 28.0768 27.0557Z" fill="#3CBE1A"/>
</svg>
