<svg width="41" height="30" viewBox="0 0 41 30" fill="none" xmlns="http://www.w3.org/2000/svg">
<path fill-rule="evenodd" clip-rule="evenodd" d="M7.97213 0.194832C7.23006 0.307874 6.42174 0.589203 5.90153 0.915099C5.48466 1.17635 5.27116 1.42983 4.96927 2.02231C4.75401 2.44489 4.49414 2.86456 4.39187 2.95497C4.28959 3.04538 3.5174 3.38857 2.67588 3.7176C1.83437 4.04651 1.0437 4.41431 0.91894 4.53466C0.696733 4.74914 0.696381 4.77653 0.902228 5.83233C1.35924 8.17616 1.77964 8.46445 4.75189 8.47269C6.33288 8.4771 6.62547 8.50647 6.82578 8.68091C6.95395 8.79267 7.64835 9.83559 8.36876 10.9985L9.67869 13.1131V14.249C9.67869 14.8738 9.73013 15.5616 9.79286 15.7776C9.93268 16.2581 9.61844 23.9646 9.43048 24.6653C9.36163 24.9222 9.06468 25.5845 8.7708 26.137C8.33427 26.9576 8.15832 27.1767 7.81006 27.3335C6.98573 27.7048 6.61864 28.1494 6.61864 28.7766C6.61864 29.2686 6.8831 29.3686 8.18386 29.3686C9.1353 29.3686 9.33903 29.3336 9.60984 29.1235C9.79839 28.9772 10.3087 28.1246 10.8746 27.0101C11.8194 25.1494 11.8253 25.1322 12.3399 22.7178C12.624 21.3845 12.8581 20.2595 12.86 20.2177C12.8689 20.029 13.1541 20.6833 13.8601 22.512C14.7124 24.7194 14.7762 25.1846 14.4325 26.6852L14.2431 27.5121L13.5287 27.8891C12.4649 28.4503 12.0474 29.1511 12.507 29.6043C12.7404 29.8345 12.8575 29.8491 14.1745 29.8133L15.5908 29.7748L15.9696 29.3425C16.4321 28.8144 16.6621 28.0549 16.9808 26.0029L17.2241 24.4361L16.8057 22.1564C16.5756 20.9026 16.3873 19.8032 16.3873 19.7133C16.3873 19.5856 16.8029 19.5189 18.2985 19.4067C19.9943 19.2796 24.1945 18.8002 25.1623 18.6233C25.5129 18.5592 25.5211 18.5678 25.4753 18.9541C25.4334 19.3083 25.4682 19.3668 25.8027 19.5035C26.0087 19.5875 26.4034 19.648 26.6799 19.6377C27.1375 19.6206 27.2103 19.6582 27.4901 20.0564C27.9791 20.7523 28.6893 21.3613 30.4202 22.5692C31.3091 23.1896 32.0722 23.7541 32.1157 23.8237C32.1594 23.8934 32.3637 24.8431 32.5697 25.9342L32.9442 27.9179L32.4924 28.4086C31.9811 28.9639 31.9359 29.2139 32.2806 29.5788C32.4928 29.8035 32.642 29.8328 33.5697 29.8328C34.7896 29.8328 35.1175 29.7175 35.4077 29.1862C35.6017 28.8309 35.6069 28.7014 35.4703 27.6227C35.3885 26.9759 35.1909 25.6867 35.0313 24.7579C34.8718 23.8289 34.7662 23.0443 34.7968 23.0142C34.8273 22.9841 35.3062 23.2339 35.8609 23.5693L36.8694 24.1792L37.4562 25.9968C37.7789 26.9965 38.043 27.8601 38.043 27.9159C38.043 27.9717 37.8577 28.1849 37.6311 28.3895C37.1561 28.8186 37.0938 29.245 37.4546 29.6007C37.6582 29.8015 37.8448 29.8325 38.8375 29.8303C39.7467 29.8282 40.0371 29.7861 40.236 29.6272C40.5845 29.3488 40.75 28.9904 40.75 28.5137C40.75 28.2021 39.7084 24.1391 39.2603 22.7026C39.2217 22.5791 38.8296 22.1023 38.3888 21.6431C36.8543 20.0442 36.0705 18.4389 35.6891 16.1136C35.2483 13.4257 35.0894 12.5972 34.8992 11.995L34.7086 11.3921L35.131 10.8837C36.4942 9.24333 37.7238 6.87652 38.2249 4.92904C38.565 3.60665 38.7433 1.3639 38.5191 1.2273C38.2736 1.0777 38.0849 1.40835 37.7592 2.55874C37.3943 3.84747 36.4376 5.84382 35.5766 7.11317C35.243 7.60515 34.5714 8.40074 34.0843 8.88111C33.1199 9.83211 33.0757 9.84754 31.9152 9.64026C31.1114 9.49681 27.1656 9.11485 24.6847 8.94053C22.8985 8.81496 22.623 8.76029 19.3296 7.87719L15.8576 6.94616L14.7206 5.83848L13.5834 4.73069L13.0253 3.23456C12.1358 0.850106 11.4295 0.252281 9.41636 0.180092C8.81623 0.158621 8.16632 0.165236 7.97213 0.194832Z" fill="#323232"/>
<path fill-rule="evenodd" clip-rule="evenodd" d="M19.8757 7.55126L15.8611 4.42385L20.637 2.58636L20.3223 4.63884L29.3095 5.95762L29.6242 3.90514L33.6388 7.03255L28.8629 8.87004L29.1776 6.81756L20.1904 5.49878L19.8757 7.55126Z" fill="#3CBE1A"/>
</svg>
