<svg width="158" height="121" viewBox="0 0 158 121" fill="none" xmlns="http://www.w3.org/2000/svg">
<path fill-rule="evenodd" clip-rule="evenodd" d="M28.5274 0.785121C25.5963 1.24106 22.4034 2.37575 20.3485 3.6902C18.7019 4.74391 17.8586 5.76627 16.6661 8.15596C15.8158 9.86034 14.7894 11.553 14.3854 11.9177C13.9814 12.2823 10.9312 13.6665 7.60723 14.9936C4.28325 16.3202 1.1601 17.8037 0.667314 18.2891C-0.210403 19.1542 -0.211797 19.2646 0.6013 23.523C2.40648 32.9765 4.06708 34.1393 15.8075 34.1725C22.0524 34.1903 23.2081 34.3087 23.9993 35.0123C24.5056 35.4631 27.2485 39.6695 30.0941 44.3599L35.2683 52.8889V57.4703C35.2683 59.9901 35.4715 62.7646 35.7193 63.6357C36.2716 65.5737 35.0303 96.6566 34.2879 99.4826C34.0159 100.519 32.843 103.19 31.6822 105.419C29.9579 108.728 29.2629 109.612 27.8872 110.244C24.6311 111.742 23.1811 113.535 23.1811 116.065C23.1811 118.049 24.2258 118.453 29.3637 118.453C33.1219 118.453 33.9267 118.311 34.9964 117.464C35.7411 116.874 37.7569 113.435 39.9921 108.94C43.7243 101.435 43.7475 101.366 45.78 91.6277C46.9023 86.2501 47.827 81.7127 47.8344 81.5442C47.8697 80.783 48.9962 83.4217 51.7851 90.7977C55.1513 99.7007 55.4033 101.577 54.0458 107.63L53.2978 110.965L50.4759 112.485C46.2738 114.749 44.6248 117.575 46.4402 119.403C47.3621 120.332 47.8246 120.391 53.0268 120.246L58.6213 120.091L60.1173 118.347C61.9444 116.217 62.8528 113.154 64.1117 104.878L65.0726 98.558L63.4199 89.3635C62.5111 84.3065 61.7672 79.8721 61.7672 79.5098C61.7672 78.9944 63.4088 78.7257 69.3166 78.273C76.0148 77.7604 92.6059 75.8267 96.4287 75.1133C97.8136 74.8549 97.8457 74.8895 97.6648 76.4474C97.4993 77.8761 97.6369 78.112 98.9582 78.6634C99.7717 79.0023 101.331 79.2462 102.423 79.2046C104.231 79.1357 104.518 79.2874 105.623 80.8935C107.555 83.7003 110.36 86.1564 117.197 91.0285C120.709 93.5306 123.723 95.8074 123.895 96.0883C124.067 96.3692 124.874 100.2 125.688 104.6L127.167 112.601L125.383 114.58C123.363 116.82 123.184 117.829 124.546 119.3C125.384 120.207 125.974 120.325 129.638 120.325C134.456 120.325 135.752 119.86 136.898 117.717C137.664 116.284 137.685 115.762 137.145 111.411C136.822 108.802 136.042 103.602 135.411 99.8561C134.781 96.1094 134.364 92.9445 134.485 92.8232C134.605 92.702 136.497 93.7094 138.688 95.0622L142.672 97.5221L144.99 104.853C146.264 108.885 147.307 112.368 147.307 112.593C147.307 112.819 146.575 113.678 145.68 114.504C143.804 116.234 143.558 117.954 144.983 119.389C145.787 120.199 146.525 120.324 150.445 120.315C154.037 120.306 155.184 120.136 155.97 119.496C157.346 118.373 158 116.927 158 115.005C158 113.748 153.886 97.3601 152.116 91.5664C151.963 91.0683 150.414 89.1453 148.673 87.293C142.612 80.8443 139.516 74.3695 138.01 64.9909C136.268 54.1495 135.641 50.8081 134.889 48.3791L134.137 45.9473L135.805 43.897C141.189 37.2807 146.047 27.7346 148.026 19.8797C149.369 14.5461 150.074 5.50038 149.188 4.94941C148.218 4.34602 147.473 5.67966 146.186 10.3196C144.745 15.5174 140.966 23.5694 137.565 28.6891C136.247 30.6734 133.595 33.8823 131.67 35.8198C127.861 39.6555 127.687 39.7177 123.102 38.8817C119.928 38.3031 104.342 36.7625 94.5422 36.0594C87.4865 35.553 86.3982 35.3325 73.3895 31.7706L59.6752 28.0155L55.1839 23.5478L50.6921 19.0797L48.4876 13.0454C44.9739 3.42806 42.1841 1.01684 34.2321 0.725671C31.8616 0.639071 29.2945 0.665753 28.5274 0.785121Z" fill="#323232"/>
<path d="M71.172 29.9189C70.8449 30.364 70.9406 30.9899 71.3856 31.3169C71.8307 31.644 72.4566 31.5483 72.7836 31.1032L71.172 29.9189ZM71.9778 87.5039L83.5005 88.2523L78.3873 77.8991L71.9778 87.5039ZM72.7836 31.1032C74.297 29.0437 75.8801 28.1094 77.3926 27.9031C78.9162 27.6953 80.5647 28.1991 82.2521 29.413C85.6562 31.8617 88.9068 36.9926 90.896 43.4057C94.8741 56.2314 93.5837 73.3425 79.4898 82.6875L80.595 84.3544C95.7382 74.3137 96.9183 56.0706 92.8062 42.8132C90.7502 36.1846 87.3156 30.5918 83.42 27.7894C81.4575 26.3777 79.3026 25.6241 77.1224 25.9215C74.9311 26.2204 72.9099 27.5538 71.172 29.9189L72.7836 31.1032Z" fill="#3CBE1A"/>
<path d="M63.5 7L72.1095 14.6947L74.4686 3.3913L63.5 7ZM130.789 21.0435L122.179 13.3487L119.82 24.6522L130.789 21.0435ZM72.1059 9.81763L121.774 20.1837L122.183 18.2259L72.5145 7.85981L72.1059 9.81763Z" fill="#3CBE1A"/>
</svg>
