<svg width="41" height="30" viewBox="0 0 41 30" fill="none" xmlns="http://www.w3.org/2000/svg">
<path fill-rule="evenodd" clip-rule="evenodd" d="M7.47213 0.194832C6.73006 0.307874 5.92174 0.589203 5.40153 0.915099C4.98466 1.17635 4.77116 1.42983 4.46927 2.02231C4.25401 2.44489 3.99414 2.86456 3.89187 2.95497C3.78959 3.04538 3.0174 3.38857 2.17588 3.7176C1.33437 4.04651 0.543696 4.41431 0.41894 4.53466C0.196733 4.74914 0.196381 4.77653 0.402228 5.83233C0.859235 8.17616 1.27964 8.46445 4.25189 8.47269C5.83288 8.4771 6.12547 8.50647 6.32578 8.68091C6.45395 8.79267 7.14835 9.83559 7.86876 10.9985L9.17869 13.1131V14.249C9.17869 14.8738 9.23013 15.5616 9.29286 15.7776C9.43268 16.2581 9.11844 23.9646 8.93048 24.6653C8.86163 24.9222 8.56468 25.5845 8.2708 26.137C7.83427 26.9576 7.65832 27.1767 7.31006 27.3335C6.48573 27.7048 6.11864 28.1494 6.11864 28.7766C6.11864 29.2686 6.3831 29.3686 7.68386 29.3686C8.6353 29.3686 8.83903 29.3336 9.10984 29.1235C9.29839 28.9772 9.80871 28.1246 10.3746 27.0101C11.3194 25.1494 11.3253 25.1322 11.8399 22.7178C12.124 21.3845 12.3581 20.2595 12.36 20.2177C12.3689 20.029 12.6541 20.6833 13.3601 22.512C14.2124 24.7194 14.2762 25.1846 13.9325 26.6852L13.7431 27.5121L13.0287 27.8891C11.9649 28.4503 11.5474 29.1511 12.007 29.6043C12.2404 29.8345 12.3575 29.8491 13.6745 29.8133L15.0908 29.7748L15.4696 29.3425C15.9321 28.8144 16.1621 28.0549 16.4808 26.0029L16.7241 24.4361L16.3057 22.1564C16.0756 20.9026 15.8873 19.8032 15.8873 19.7133C15.8873 19.5856 16.3029 19.5189 17.7985 19.4067C19.4943 19.2796 23.6945 18.8002 24.6623 18.6233C25.0129 18.5592 25.0211 18.5678 24.9753 18.9541C24.9334 19.3083 24.9682 19.3668 25.3027 19.5035C25.5087 19.5875 25.9034 19.648 26.1799 19.6377C26.6375 19.6206 26.7103 19.6582 26.9901 20.0564C27.4791 20.7523 28.1893 21.3613 29.9202 22.5692C30.8091 23.1896 31.5722 23.7541 31.6157 23.8237C31.6594 23.8934 31.8637 24.8431 32.0697 25.9342L32.4442 27.9179L31.9924 28.4086C31.4811 28.9639 31.4359 29.2139 31.7806 29.5788C31.9928 29.8035 32.142 29.8328 33.0697 29.8328C34.2896 29.8328 34.6175 29.7175 34.9077 29.1862C35.1017 28.8309 35.1069 28.7014 34.9703 27.6227C34.8885 26.9759 34.6909 25.6867 34.5313 24.7579C34.3718 23.8289 34.2662 23.0443 34.2968 23.0142C34.3273 22.9841 34.8062 23.2339 35.3609 23.5693L36.3694 24.1792L36.9562 25.9968C37.2789 26.9965 37.543 27.8601 37.543 27.9159C37.543 27.9717 37.3577 28.1849 37.1311 28.3895C36.6561 28.8186 36.5938 29.245 36.9546 29.6007C37.1582 29.8015 37.3448 29.8325 38.3375 29.8303C39.2467 29.8282 39.5371 29.7861 39.736 29.6272C40.0845 29.3488 40.25 28.9904 40.25 28.5137C40.25 28.2021 39.2084 24.1391 38.7603 22.7026C38.7217 22.5791 38.3296 22.1023 37.8888 21.6431C36.3543 20.0442 35.5705 18.4389 35.1891 16.1136C34.7483 13.4257 34.5894 12.5972 34.3992 11.995L34.2086 11.3921L34.631 10.8837C35.9942 9.24333 37.2238 6.87652 37.7249 4.92904C38.065 3.60665 38.2433 1.3639 38.0191 1.2273C37.7736 1.0777 37.5849 1.40835 37.2592 2.55874C36.8943 3.84747 35.9376 5.84382 35.0766 7.11317C34.743 7.60515 34.0714 8.40074 33.5843 8.88111C32.6199 9.83211 32.5757 9.84754 31.4152 9.64026C30.6114 9.49681 26.6656 9.11485 24.1847 8.94053C22.3985 8.81496 22.123 8.76029 18.8296 7.87719L15.3576 6.94616L14.2206 5.83848L13.0834 4.73069L12.5253 3.23456C11.6358 0.850106 10.9295 0.252281 8.91636 0.180092C8.31623 0.158621 7.66632 0.165236 7.47213 0.194832Z" fill="#323232"/>
<path fill-rule="evenodd" clip-rule="evenodd" d="M15.3592 6.60866C15.9106 5.42116 17.4662 4.80419 18.9006 5.49801C20.2715 6.16115 21.361 7.71595 22.0042 9.7154C22.652 11.7291 22.8213 14.1053 22.4817 16.3301C22.4096 16.8021 22.3158 17.2602 22.2016 17.7003L24.1583 18.7069L19.8186 21.3868L19.616 16.3703L21.3908 17.2833C21.4749 16.9346 21.5458 16.5733 21.6025 16.2016C21.9237 14.0977 21.7607 11.8553 21.1563 9.97643C20.5473 8.08335 19.5672 6.79056 18.5066 6.27749C17.5093 5.79511 16.5061 6.24123 16.1685 6.96825C16.067 7.18688 15.8036 7.28362 15.5801 7.18432C15.3566 7.08502 15.2577 6.82729 15.3592 6.60866Z" fill="#3CBE1A"/>
</svg>
