<svg width="14" height="15" viewBox="0 0 14 15" fill="none" xmlns="http://www.w3.org/2000/svg">
<path d="M7.00016 0.833008C3.32016 0.833008 0.333496 3.81967 0.333496 7.49967C0.333496 11.1797 3.32016 14.1663 7.00016 14.1663C10.6802 14.1663 13.6668 11.1797 13.6668 7.49967C13.6668 3.81967 10.6802 0.833008 7.00016 0.833008ZM7.00016 8.16634C6.6335 8.16634 6.3335 7.86634 6.3335 7.49967V4.83301C6.3335 4.46634 6.6335 4.16634 7.00016 4.16634C7.36683 4.16634 7.66683 4.46634 7.66683 4.83301V7.49967C7.66683 7.86634 7.36683 8.16634 7.00016 8.16634ZM7.66683 10.833H6.3335V9.49967H7.66683V10.833Z" fill="#3CBE1A"/>
</svg>
