<svg width="41" height="40" viewBox="0 0 41 40" fill="none" xmlns="http://www.w3.org/2000/svg">
<path fill-rule="evenodd" clip-rule="evenodd" d="M17.5341 20.1278C17.7855 20.3429 18.1642 20.3143 18.3801 20.0621C19.7394 18.4738 20.5097 16.4482 20.5491 14.3582C20.5554 14.0269 20.2918 13.7533 19.9605 13.747C19.6269 13.7395 19.3556 14.0044 19.3494 14.3357C19.3152 16.1479 18.6471 17.9046 17.4684 19.2818C17.2529 19.5336 17.2823 19.9123 17.5341 20.1278ZM21.5247 11.7697C21.5382 12.091 21.8026 12.3446 22.1242 12.3446C22.4458 12.3446 22.7102 12.091 22.7235 11.7697C22.8168 9.54502 24.3107 7.76587 26.822 6.88845C27.1348 6.7791 27.2999 6.43695 27.1905 6.12412C27.0813 5.8113 26.7391 5.64652 26.4262 5.75557C24.4009 6.46327 22.9029 7.73287 22.1241 9.33112C21.3453 7.73287 19.8474 6.46327 17.8221 5.75557C17.5093 5.64652 17.167 5.8113 17.0577 6.12412C16.9485 6.43687 17.1135 6.7791 17.4263 6.88845C19.9376 7.76587 21.4314 9.54502 21.5247 11.7697ZM25.8684 20.0621C26.0843 20.3143 26.4631 20.3428 26.7144 20.1278C26.9661 19.9123 26.9955 19.5336 26.7801 19.2818C25.6013 17.9046 24.9333 16.1479 24.8991 14.3357C24.8929 14.0044 24.6189 13.7379 24.288 13.747C23.9566 13.7533 23.6931 14.0269 23.6994 14.3582C23.7387 16.4482 24.5091 18.4738 25.8684 20.0621Z" fill="#323232"/>
<path fill-rule="evenodd" clip-rule="evenodd" d="M33.3177 6.53062C33.039 6.44355 32.7515 6.63637 32.7316 6.92775C32.5959 8.9208 31.252 11.2783 27.8002 13.0734C27.4915 13.234 27.1089 13.0981 26.9714 12.7749C26.8475 12.4838 26.9844 12.1456 27.2649 11.9992C33.6237 8.68207 32.1419 3.15225 27.6915 3.02197H16.557C12.1434 3.1512 10.6545 8.5821 16.8046 11.9044C17.0982 12.063 17.309 12.4621 17.2671 12.7966C17.122 13.1041 16.7497 13.2304 16.448 13.0734C12.9961 11.2783 11.6523 8.92072 11.5166 6.92752C11.4967 6.63607 11.2092 6.44332 10.9305 6.5304C10.9305 7.54009 10.9758 9.56333 11.0187 11.475C11.0571 13.187 11.0934 14.8096 11.0934 15.5347C11.0934 16.1118 11.3242 17.6241 11.3242 17.2813V35.4597C11.3242 36.6954 12.3258 37.697 13.5615 37.697H30.687C31.9226 37.697 32.9242 36.6954 32.9242 35.4597V17.4835C32.9242 17.0445 32.8797 16.6022 32.7396 16.1863C32.64 15.8905 32.7836 15.5725 33.0579 15.4481C33.3892 15.2979 33.7735 15.473 33.8824 15.8201C34.0431 16.3322 34.1242 16.8613 34.1242 17.4004V30.2812C34.1242 30.5511 34.3602 30.7621 34.628 30.7285C35.3995 30.6314 36.1666 30.4736 36.924 30.2552C37.881 29.98 38.5492 29.095 38.5492 28.1035V13.7507C38.5492 10.4207 36.4759 7.5171 33.3177 6.53062ZM17.5341 20.1278C17.7855 20.3429 18.1642 20.3143 18.3801 20.0621C19.7394 18.4738 20.5097 16.4482 20.5491 14.3582C20.5554 14.0269 20.2918 13.7533 19.9605 13.747C19.6269 13.7395 19.3556 14.0044 19.3494 14.3357C19.3152 16.1479 18.6471 17.9046 17.4684 19.2818C17.2529 19.5336 17.2823 19.9123 17.5341 20.1278ZM21.5247 11.7697C21.5382 12.091 21.8026 12.3446 22.1242 12.3446C22.4458 12.3446 22.7102 12.091 22.7235 11.7697C22.8168 9.54502 24.3107 7.76587 26.822 6.88845C27.1348 6.7791 27.2999 6.43695 27.1905 6.12412C27.0813 5.8113 26.7391 5.64652 26.4262 5.75557C24.4009 6.46327 22.9029 7.73287 22.1241 9.33112C21.3453 7.73287 19.8474 6.46327 17.8221 5.75557C17.5093 5.64652 17.167 5.8113 17.0577 6.12412C16.9485 6.43687 17.1135 6.7791 17.4263 6.88845C19.9376 7.76587 21.4314 9.54502 21.5247 11.7697ZM25.8684 20.0621C26.0843 20.3143 26.4631 20.3428 26.7144 20.1278C26.9661 19.9123 26.9955 19.5336 26.7801 19.2818C25.6013 17.9046 24.9333 16.1479 24.8991 14.3357C24.8929 14.0044 24.6189 13.7379 24.288 13.747C23.9566 13.7533 23.6931 14.0269 23.6994 14.3582C23.7387 16.4482 24.5091 18.4738 25.8684 20.0621Z" fill="#323232"/>
<path fill-rule="evenodd" clip-rule="evenodd" d="M9.70231 35.3334L7.13631 39.7778L4.57031 35.3334H6.69187L6.69187 6.66662H4.57031L7.13631 2.22218L9.70231 6.66662H7.58076L7.58076 35.3334H9.70231Z" fill="#3CBE1A"/>
</svg>
