<svg width="41" height="40" viewBox="0 0 41 40" fill="none" xmlns="http://www.w3.org/2000/svg">
<path d="M33.8177 6.53062C33.539 6.44355 33.2515 6.63637 33.2316 6.92775C33.0959 8.9208 31.752 11.2783 28.3002 13.0734C27.9915 13.234 27.6089 13.0981 27.4714 12.7749C27.3475 12.4838 27.4844 12.1456 27.7649 11.9992C34.1237 8.68207 32.6419 3.15225 28.1915 3.02197H17.057C12.6434 3.1512 11.1545 8.5821 17.3046 11.9044C17.5982 12.063 17.809 12.4621 17.7671 12.7966C17.622 13.1041 17.2497 13.2304 16.948 13.0734C13.4961 11.2783 12.1523 8.92072 12.0166 6.92752C11.9967 6.63607 11.7092 6.44332 11.4305 6.5304C8.26862 7.51815 6.19922 10.4295 6.19922 13.7507V28.1035C6.19922 29.095 6.86747 29.98 7.82447 30.2552C8.58182 30.4737 9.34892 30.6315 10.1204 30.7285C10.3882 30.7622 10.6242 30.5511 10.6242 30.2812V17.4004C10.6242 16.9126 10.691 16.432 10.8231 15.9646C10.9169 15.633 11.2661 15.4271 11.5934 15.5347C11.905 15.637 12.0695 15.9634 11.9834 16.272C11.8912 16.6021 11.8242 16.9386 11.8242 17.2813V35.4597C11.8242 36.6954 12.8258 37.697 14.0615 37.697H31.187C32.4226 37.697 33.4242 36.6954 33.4242 35.4597V17.4835C33.4242 17.0445 33.3797 16.6022 33.2396 16.1863C33.14 15.8905 33.2836 15.5725 33.5579 15.4481C33.8892 15.2979 34.2735 15.473 34.3824 15.8201C34.5431 16.3322 34.6242 16.8613 34.6242 17.4004V30.2812C34.6242 30.5511 34.8602 30.7622 35.128 30.7285C35.8995 30.6314 36.6666 30.4736 37.424 30.2552C38.381 29.98 39.0492 29.095 39.0492 28.1035V13.7507C39.0492 10.4207 36.9759 7.5171 33.8177 6.53062ZM18.8801 20.0621C18.6642 20.3143 18.2855 20.3429 18.0341 20.1278C17.7823 19.9123 17.7529 19.5336 17.9684 19.2818C19.1471 17.9046 19.8152 16.1479 19.8494 14.3357C19.8556 14.0044 20.1269 13.7395 20.4605 13.747C20.7918 13.7533 21.0554 14.0269 21.0491 14.3582C21.0097 16.4482 20.2394 18.4738 18.8801 20.0621ZM22.6242 12.3446C22.3026 12.3446 22.0382 12.091 22.0247 11.7697C21.9314 9.54502 20.4376 7.76587 17.9263 6.88845C17.6135 6.7791 17.4485 6.43687 17.5577 6.12412C17.667 5.8113 18.0093 5.64652 18.3221 5.75557C20.3474 6.46327 21.8453 7.73287 22.6241 9.33112C23.4029 7.73287 24.9009 6.46327 26.9262 5.75557C27.2391 5.64652 27.5813 5.8113 27.6905 6.12412C27.7999 6.43695 27.6348 6.7791 27.322 6.88845C24.8107 7.76587 23.3168 9.54502 23.2235 11.7697C23.2102 12.091 22.9458 12.3446 22.6242 12.3446ZM27.2144 20.1278C26.9631 20.3428 26.5843 20.3143 26.3684 20.0621C25.0091 18.4738 24.2387 16.4482 24.1994 14.3582C24.1931 14.0269 24.4566 13.7533 24.788 13.747C25.1189 13.7379 25.3929 14.0044 25.3991 14.3357C25.4333 16.1479 26.1013 17.9046 27.2801 19.2818C27.4955 19.5336 27.4661 19.9123 27.2144 20.1278Z" fill="#323232"/>
<path d="M22.6242 12.3446C22.3026 12.3446 22.0382 12.091 22.0247 11.7697C21.9314 9.54502 20.4376 7.76587 17.9263 6.88845C17.6135 6.7791 17.4485 6.43687 17.5577 6.12412C17.667 5.8113 18.0093 5.64652 18.3221 5.75557C20.3474 6.46327 21.8453 7.73287 22.6241 9.33112C23.4029 7.73287 24.9009 6.46327 26.9262 5.75557C27.2391 5.64652 27.5813 5.8113 27.6905 6.12412C27.7999 6.43695 27.6348 6.7791 27.322 6.88845C24.8107 7.76587 23.3168 9.54502 23.2235 11.7697C23.2102 12.091 22.9458 12.3446 22.6242 12.3446Z" fill="#323232"/>
<path fill-rule="evenodd" clip-rule="evenodd" d="M8.23973 0.538574L12.6257 3.20325L8.12505 5.6693L8.16832 3.73345C6.85531 4.2566 5.8525 5.28894 5.09225 6.71217C4.22062 8.34392 3.68365 10.4638 3.38268 12.8323C2.80108 17.4093 3.11404 22.794 3.47687 27.089L5.58782 26.8986L3.43144 31.5556L0.476562 27.3596L2.59156 27.1689C2.22804 22.868 1.90637 17.3989 2.50088 12.7203C2.80833 10.3008 3.36433 8.06036 4.30821 6.29336C5.20206 4.62001 6.45745 3.34902 8.18962 2.78049L8.23973 0.538574Z" fill="#3CBE1A"/>
</svg>
