<svg width="41" height="40" viewBox="0 0 41 40" fill="none" xmlns="http://www.w3.org/2000/svg">
<path fill-rule="evenodd" clip-rule="evenodd" d="M31.3451 6.53062C31.0663 6.44355 30.7788 6.63637 30.759 6.92775C30.6232 8.9208 29.2794 11.2783 25.8276 13.0734C25.5189 13.234 25.1363 13.0981 24.9987 12.7749C24.8748 12.4838 25.0118 12.1456 25.2923 11.9992C31.6511 8.68207 30.1692 3.15225 25.7188 3.02197H14.5843C10.1707 3.1512 8.68181 8.5821 14.832 11.9044C15.1255 12.063 15.3363 12.4621 15.2945 12.7966C15.1494 13.1041 14.7771 13.2304 14.4753 13.0734C11.0235 11.2783 9.67961 8.92072 9.54394 6.92752C9.52406 6.63607 9.23659 6.44332 8.95781 6.5304C5.79596 7.51815 3.72656 10.4295 3.72656 13.7507V17.4835L8.15156 17.4004C8.15156 16.9126 8.21831 16.432 8.35046 15.9646C8.44421 15.633 8.79349 15.4271 9.12079 15.5347C9.43234 15.637 9.59689 15.9634 9.51071 16.272C9.41854 16.6021 9.35156 16.9386 9.35156 17.2813V35.4597C9.35156 36.6954 10.3532 37.697 11.5888 37.697H28.7143C29.9499 37.697 30.9516 36.6954 30.9516 35.4597V17.4835C30.9516 17.0445 30.9071 16.6022 30.767 16.1863C30.6674 15.8905 30.8109 15.5725 31.0852 15.4481C31.4166 15.2979 31.8009 15.473 31.9098 15.8201C32.0704 16.3322 32.1516 16.8613 32.1516 17.4004L36.5766 17.4835V13.7507C36.5766 10.4207 34.5033 7.5171 31.3451 6.53062ZM16.4074 20.0621C16.1916 20.3143 15.8128 20.3429 15.5614 20.1278C15.3096 19.9123 15.2802 19.5336 15.4957 19.2818C16.6745 17.9046 17.3425 16.1479 17.3767 14.3357C17.3829 14.0044 17.6543 13.7395 17.9879 13.747C18.3192 13.7533 18.5827 14.0269 18.5765 14.3582C18.537 16.4482 17.7667 18.4738 16.4074 20.0621ZM20.1516 12.3446C19.83 12.3446 19.5656 12.091 19.5521 11.7697C19.4588 9.54502 17.9649 7.76587 15.4536 6.88845C15.1408 6.7791 14.9758 6.43687 15.0851 6.12412C15.1944 5.8113 15.5367 5.64652 15.8494 5.75557C17.8747 6.46327 19.3727 7.73287 20.1515 9.33112C20.9303 7.73287 22.4283 6.46327 24.4536 5.75557C24.7665 5.64652 25.1086 5.8113 25.2179 6.12412C25.3272 6.43695 25.1622 6.7791 24.8493 6.88845C22.338 7.76587 20.8442 9.54502 20.7509 11.7697C20.7375 12.091 20.4732 12.3446 20.1516 12.3446ZM24.7417 20.1278C24.4905 20.3428 24.1116 20.3143 23.8957 20.0621C22.5364 18.4738 21.7661 16.4482 21.7267 14.3582C21.7205 14.0269 21.984 13.7533 22.3153 13.747C22.6462 13.7379 22.9203 14.0044 22.9265 14.3357C22.9607 16.1479 23.6286 17.9046 24.8075 19.2818C25.0229 19.5336 24.9935 19.9123 24.7417 20.1278Z" fill="#323232"/>
<path d="M20.1516 12.3446C19.83 12.3446 19.5656 12.091 19.5521 11.7697C19.4588 9.54502 17.9649 7.76587 15.4536 6.88845C15.1408 6.7791 14.9758 6.43687 15.0851 6.12412C15.1944 5.8113 15.5367 5.64652 15.8494 5.75557C17.8747 6.46327 19.3727 7.73287 20.1515 9.33112C20.9303 7.73287 22.4283 6.46327 24.4536 5.75557C24.7665 5.64652 25.1086 5.8113 25.2179 6.12412C25.3272 6.43695 25.1622 6.7791 24.8493 6.88845C22.338 7.76587 20.8442 9.54502 20.7509 11.7697C20.7375 12.091 20.4732 12.3446 20.1516 12.3446Z" fill="#323232"/>
<path fill-rule="evenodd" clip-rule="evenodd" d="M8.9093 23.0104L4.46485 20.4444L8.9093 17.8784V20H31.5581V17.8784L36.0026 20.4444L31.5581 23.0104V20.8889H8.9093V23.0104Z" fill="#3CBE1A"/>
</svg>
