<svg width="24" height="24" viewBox="0 0 24 24" fill="none" xmlns="http://www.w3.org/2000/svg">
<g clip-path="url(#clip0_1594_15155)">
<path d="M20.6054 18.6442C20.1987 18.6445 19.801 18.5242 19.4627 18.2985C19.1244 18.0727 18.8606 17.7517 18.7048 17.3761C18.5489 17.0004 18.508 16.587 18.5872 16.188C18.6663 15.7891 18.862 15.4226 19.1495 15.1349C19.437 14.8473 19.8033 14.6513 20.2022 14.5718C20.6011 14.4924 21.0145 14.533 21.3903 14.6886C21.7661 14.8442 22.0873 15.1077 22.3132 15.4458C22.5392 15.784 22.6599 16.1815 22.6599 16.5882C22.6596 17.1332 22.4431 17.6557 22.0579 18.0412C21.6727 18.4267 21.1503 18.6436 20.6054 18.6442ZM20.6054 15.2822C20.347 15.2819 20.0943 15.3583 19.8794 15.5016C19.6644 15.6449 19.4968 15.8488 19.3977 16.0874C19.2986 16.326 19.2725 16.5887 19.3228 16.8421C19.373 17.0955 19.4973 17.3284 19.6798 17.5112C19.8624 17.694 20.0951 17.8185 20.3485 17.869C20.6019 17.9195 20.8646 17.8938 21.1033 17.795C21.342 17.6962 21.5461 17.5288 21.6896 17.314C21.8332 17.0992 21.9099 16.8466 21.9099 16.5882C21.9097 16.2422 21.7723 15.9103 21.5277 15.6654C21.2831 15.4206 20.9514 15.2828 20.6054 15.2822Z" fill="#383A3D"/>
<path d="M9.77089 18.6442C9.36417 18.6446 8.96647 18.5244 8.62809 18.2987C8.28972 18.073 8.02589 17.7521 7.86997 17.3764C7.71405 17.0008 7.67305 16.5873 7.75215 16.1883C7.83126 15.7894 8.02692 15.4229 8.31437 15.1351C8.60183 14.8474 8.96817 14.6514 9.36705 14.5719C9.76593 14.4924 10.1794 14.533 10.5552 14.6885C10.931 14.8441 11.2522 15.1076 11.4783 15.4458C11.7043 15.7839 11.8249 16.1815 11.8249 16.5882C11.8245 17.133 11.608 17.6555 11.223 18.0409C10.8379 18.4263 10.3157 18.6433 9.77089 18.6442ZM9.77089 15.2822C9.5125 15.2818 9.25981 15.3581 9.04477 15.5014C8.82974 15.6446 8.66203 15.8484 8.56288 16.0871C8.46372 16.3257 8.43758 16.5883 8.48774 16.8418C8.53791 17.0953 8.66214 17.3282 8.8447 17.511C9.02727 17.6938 9.25997 17.8184 9.51337 17.869C9.76676 17.9195 10.0295 17.8938 10.2682 17.795C10.507 17.6962 10.7111 17.5288 10.8547 17.314C10.9982 17.0992 11.0749 16.8466 11.0749 16.5882C11.0746 16.2423 10.9372 15.9106 10.6928 15.6657C10.4484 15.4209 10.1168 15.283 9.77089 15.2822Z" fill="#383A3D"/>
<path d="M23.3107 16.9629H22.2852C22.1857 16.9629 22.0904 16.9233 22.02 16.853C21.9497 16.7827 21.9102 16.6873 21.9102 16.5879C21.9102 16.4884 21.9497 16.393 22.02 16.3227C22.0904 16.2524 22.1857 16.2129 22.2852 16.2129H23.2047V14.2244C23.2045 13.9555 23.1356 13.6912 23.0047 13.4564L20.9747 9.81686C20.9573 9.7858 20.932 9.75992 20.9014 9.7419C20.8707 9.72389 20.8358 9.71438 20.8002 9.71436H18.0337V16.2144H18.9267C19.0261 16.2144 19.1215 16.2539 19.1919 16.3242C19.2622 16.3945 19.3017 16.4899 19.3017 16.5894C19.3017 16.6888 19.2622 16.7842 19.1919 16.8545C19.1215 16.9248 19.0261 16.9644 18.9267 16.9644H17.6587C17.5592 16.9644 17.4639 16.9248 17.3935 16.8545C17.3232 16.7842 17.2837 16.6888 17.2837 16.5894V9.33936C17.2837 9.2399 17.3232 9.14452 17.3935 9.07419C17.4639 9.00386 17.5592 8.96436 17.6587 8.96436H20.8002C20.9694 8.96427 21.1355 9.00937 21.2814 9.09499C21.4273 9.1806 21.5477 9.30363 21.6302 9.45136L23.6597 13.0914C23.8526 13.4378 23.954 13.8278 23.9542 14.2244V16.3194C23.9539 16.4899 23.886 16.6535 23.7654 16.7741C23.6448 16.8947 23.4813 16.9626 23.3107 16.9629Z" fill="#383A3D"/>
<path d="M8.09159 16.9631H4.49609C4.39664 16.9631 4.30126 16.9236 4.23093 16.8533C4.1606 16.7829 4.12109 16.6876 4.12109 16.5881V13.7041C4.12109 13.6046 4.1606 13.5093 4.23093 13.4389C4.30126 13.3686 4.39664 13.3291 4.49609 13.3291C4.59555 13.3291 4.69093 13.3686 4.76126 13.4389C4.83159 13.5093 4.87109 13.6046 4.87109 13.7041V16.2131H8.09159C8.19105 16.2131 8.28643 16.2526 8.35676 16.3229C8.42708 16.3933 8.46659 16.4886 8.46659 16.5881C8.46659 16.6876 8.42708 16.7829 8.35676 16.8533C8.28643 16.9236 8.19105 16.9631 8.09159 16.9631Z" fill="#383A3D"/>
<path d="M4.49609 12.3735C4.39664 12.3735 4.30126 12.334 4.23093 12.2636C4.1606 12.1933 4.12109 12.0979 4.12109 11.9985V9.48047C4.12109 9.38101 4.1606 9.28563 4.23093 9.2153C4.30126 9.14498 4.39664 9.10547 4.49609 9.10547C4.59555 9.10547 4.69093 9.14498 4.76126 9.2153C4.83159 9.28563 4.87109 9.38101 4.87109 9.48047V12C4.8707 12.0992 4.83101 12.1942 4.76073 12.2642C4.69045 12.3342 4.59529 12.3735 4.49609 12.3735Z" fill="#383A3D"/>
<path d="M17.6586 16.9628H11.4501C11.3506 16.9628 11.2553 16.9233 11.1849 16.853C11.1146 16.7827 11.0751 16.6873 11.0751 16.5878C11.0751 16.4884 11.1146 16.393 11.1849 16.3227C11.2553 16.2523 11.3506 16.2128 11.4501 16.2128H17.2836V6.40234H4.87109V7.94684C4.87109 8.0463 4.83159 8.14168 4.76126 8.21201C4.69093 8.28233 4.59555 8.32184 4.49609 8.32184C4.39664 8.32184 4.30126 8.28233 4.23093 8.21201C4.1606 8.14168 4.12109 8.0463 4.12109 7.94684V6.33334C4.12136 6.15273 4.19326 5.97959 4.32102 5.85192C4.44879 5.72425 4.62198 5.65248 4.80259 5.65234H17.3526C17.5331 5.65261 17.7062 5.72444 17.8338 5.8521C17.9615 5.97975 18.0333 6.15281 18.0336 6.33334V16.5878C18.0336 16.6873 17.9941 16.7827 17.9238 16.853C17.8534 16.9233 17.758 16.9628 17.6586 16.9628Z" fill="#383A3D"/>
<path d="M5.97874 14.0791H1.21924C1.11978 14.0791 1.0244 14.0396 0.954073 13.9693C0.883747 13.8989 0.844238 13.8036 0.844238 13.7041C0.844238 13.6046 0.883747 13.5093 0.954073 13.4389C1.0244 13.3686 1.11978 13.3291 1.21924 13.3291H5.97874C6.07819 13.3291 6.17358 13.3686 6.2439 13.4389C6.31423 13.5093 6.35374 13.6046 6.35374 13.7041C6.35374 13.8036 6.31423 13.8989 6.2439 13.9693C6.17358 14.0396 6.07819 14.0791 5.97874 14.0791Z" fill="#383A3D"/>
<path d="M9.77089 12.3735H3.12939C3.02994 12.3735 2.93456 12.334 2.86423 12.2637C2.7939 12.1934 2.75439 12.098 2.75439 11.9985C2.75439 11.8991 2.7939 11.8037 2.86423 11.7334C2.93456 11.663 3.02994 11.6235 3.12939 11.6235H9.77089C9.87035 11.6235 9.96573 11.663 10.0361 11.7334C10.1064 11.8037 10.1459 11.8991 10.1459 11.9985C10.1459 12.098 10.1064 12.1934 10.0361 12.2637C9.96573 12.334 9.87035 12.3735 9.77089 12.3735Z" fill="#383A3D"/>
<path d="M2.92309 10.3936H0.32959C0.230134 10.3936 0.134751 10.354 0.0644248 10.2837C-0.00590134 10.2134 -0.0454102 10.118 -0.0454102 10.0186C-0.0454102 9.9191 -0.00590134 9.82372 0.0644248 9.75339C0.134751 9.68306 0.230134 9.64355 0.32959 9.64355H2.92309C3.02255 9.64355 3.11793 9.68306 3.18825 9.75339C3.25858 9.82372 3.29809 9.9191 3.29809 10.0186C3.29809 10.118 3.25858 10.2134 3.18825 10.2837C3.11793 10.354 3.02255 10.3936 2.92309 10.3936Z" fill="#383A3D"/>
<path d="M7.08142 8.32178H2.50342C2.40396 8.32178 2.30858 8.28227 2.23825 8.21194C2.16793 8.14162 2.12842 8.04623 2.12842 7.94678C2.12842 7.84732 2.16793 7.75194 2.23825 7.68161C2.30858 7.61129 2.40396 7.57178 2.50342 7.57178H7.08142C7.18087 7.57178 7.27626 7.61129 7.34658 7.68161C7.41691 7.75194 7.45642 7.84732 7.45642 7.94678C7.45642 8.04623 7.41691 8.14162 7.34658 8.21194C7.27626 8.28227 7.18087 8.32178 7.08142 8.32178Z" fill="#383A3D"/>
</g>
<defs>
<clipPath id="clip0_1594_15155">
<rect width="24" height="24" fill="white"/>
</clipPath>
</defs>
</svg>
