<svg width="24" height="24" viewBox="0 0 24 24" fill="none" xmlns="http://www.w3.org/2000/svg">
<path d="M12.0022 18.3824C11.953 18.3822 11.9044 18.3714 11.8598 18.3507L5.82817 15.4496C5.77308 15.4223 5.72665 15.3802 5.69406 15.328C5.66147 15.2759 5.64398 15.2157 5.64356 15.1542V8.66103C5.64339 8.60557 5.65733 8.55097 5.68407 8.50237C5.71081 8.45378 5.74948 8.41278 5.79642 8.38324C5.84337 8.3537 5.89706 8.33659 5.95244 8.33351C6.00782 8.33043 6.06308 8.34149 6.11301 8.36565L12.1447 11.2667C12.1997 11.2941 12.2462 11.3362 12.2788 11.3883C12.3114 11.4405 12.3288 11.5006 12.3293 11.5621V18.0553C12.3293 18.1106 12.3153 18.1651 12.2885 18.2135C12.2617 18.2619 12.2231 18.3028 12.1763 18.3322C12.1243 18.3654 12.0639 18.3828 12.0022 18.3824ZM6.29762 14.9538L11.6752 17.5437V11.7705L6.29762 9.18059V14.9538Z" fill="#383A3D"/>
<path d="M12.003 11.8863C11.9574 11.8896 11.9116 11.8833 11.8685 11.8679L5.83685 8.96676C5.78085 8.94067 5.73346 8.89915 5.70026 8.84705C5.66705 8.79496 5.64941 8.73447 5.64941 8.67269C5.64941 8.61091 5.66705 8.55042 5.70026 8.49833C5.73346 8.44624 5.78085 8.40471 5.83685 8.37862L11.8685 5.46434C11.9126 5.44345 11.9608 5.43262 12.0096 5.43262C12.0584 5.43262 12.1066 5.44345 12.1507 5.46434L18.1823 8.36544C18.2378 8.39228 18.2846 8.43424 18.3173 8.4865C18.3499 8.53877 18.3671 8.59919 18.367 8.66082C18.367 8.72207 18.3496 8.78207 18.317 8.83387C18.2843 8.88568 18.2376 8.92718 18.1823 8.95357L12.1322 11.8679C12.0908 11.8826 12.0469 11.8889 12.003 11.8863ZM6.72828 8.65819L12.003 11.198L17.2777 8.66346L12.003 6.12104L6.72828 8.65819Z" fill="#383A3D"/>
<path d="M12.0023 18.3822C11.9407 18.3826 11.8802 18.3652 11.8283 18.332C11.7814 18.3026 11.7428 18.2617 11.7161 18.2133C11.6893 18.1649 11.6753 18.1104 11.6753 18.0551V11.5646C11.6751 11.5029 11.6923 11.4425 11.725 11.3903C11.7577 11.338 11.8044 11.296 11.8599 11.2692L17.8916 8.36809C17.9415 8.34393 17.9967 8.33288 18.0521 8.33595C18.1075 8.33903 18.1612 8.35614 18.2081 8.38568C18.2551 8.41522 18.2938 8.45622 18.3205 8.50481C18.3472 8.55341 18.3612 8.60801 18.361 8.66347V15.1514C18.3612 15.213 18.344 15.2734 18.3113 15.3257C18.2786 15.378 18.2319 15.4199 18.1764 15.4468L12.1316 18.3505C12.0911 18.3698 12.0471 18.3806 12.0023 18.3822ZM12.3294 11.7703V17.5356L17.7069 14.9457V9.1804L12.3294 11.7703Z" fill="#383A3D"/>
<path d="M8.98484 10.4365C8.91141 10.4357 8.84037 10.4103 8.78316 10.3643C8.72594 10.3182 8.68589 10.2543 8.66944 10.1827C8.65299 10.1111 8.66111 10.0361 8.69249 9.96972C8.72387 9.90332 8.77669 9.84943 8.84243 9.8167L14.8767 6.9156C14.9547 6.87842 15.0443 6.87363 15.1259 6.9023C15.2074 6.93096 15.2743 6.99074 15.3119 7.06857C15.3306 7.10714 15.3416 7.14906 15.344 7.19188C15.3465 7.23471 15.3404 7.2776 15.3262 7.31808C15.312 7.35855 15.2899 7.39579 15.2612 7.42766C15.2324 7.45953 15.1977 7.48539 15.1589 7.50373L9.12726 10.4048C9.08256 10.4253 9.03402 10.4361 8.98484 10.4365Z" fill="#383A3D"/>
<path d="M9.79482 13.2851C9.74558 13.2853 9.69692 13.2745 9.65241 13.2535L7.87219 12.3963C7.83341 12.378 7.79866 12.3521 7.76994 12.3202C7.74122 12.2884 7.71911 12.2511 7.70488 12.2107C7.69065 12.1702 7.6846 12.1273 7.68706 12.0845C7.68952 12.0416 7.70045 11.9997 7.71922 11.9611C7.75682 11.8833 7.8237 11.8235 7.90524 11.7949C7.98678 11.7662 8.07636 11.771 8.15439 11.8082L9.9346 12.66C10.0002 12.6927 10.0529 12.7463 10.0843 12.8125C10.1157 12.8786 10.1241 12.9534 10.108 13.0248C10.0918 13.0962 10.0522 13.1602 9.99546 13.2064C9.93869 13.2527 9.86804 13.2785 9.79482 13.2798V13.2851Z" fill="#383A3D"/>
<path d="M2.09368 16.2801C2.02985 16.2811 1.96712 16.2634 1.91323 16.2292C1.85933 16.195 1.81663 16.1457 1.79038 16.0876C0.80047 13.6395 0.723755 10.9171 1.57423 8.41715C2.42471 5.91722 4.14569 3.8064 6.42312 2.46987C8.70055 1.13335 11.3826 0.66022 13.9799 1.13682C16.5772 1.61342 18.9165 3.00798 20.571 5.06602C20.6017 5.09878 20.6253 5.1375 20.6404 5.17978C20.6555 5.22206 20.6617 5.26699 20.6586 5.31177C20.6556 5.35655 20.6434 5.40022 20.6227 5.44007C20.602 5.47992 20.5734 5.51509 20.5386 5.54339C20.5037 5.5717 20.4635 5.59253 20.4202 5.60459C20.377 5.61665 20.3317 5.61968 20.2873 5.61349C20.2428 5.6073 20.2001 5.59203 20.1618 5.56863C20.1235 5.54522 20.0905 5.51419 20.0647 5.47745C18.5083 3.54749 16.3108 2.24025 13.8721 1.79349C11.4333 1.34673 8.91521 1.79012 6.77573 3.04303C4.63625 4.29593 3.01751 6.27511 2.21393 8.62062C1.41035 10.9661 1.4753 13.5222 2.39697 15.8238C2.41678 15.8734 2.42415 15.9271 2.41843 15.9802C2.41271 16.0333 2.39407 16.0842 2.36415 16.1284C2.33423 16.1726 2.29394 16.2088 2.24679 16.2339C2.19964 16.259 2.14707 16.2721 2.09368 16.2722V16.2801Z" fill="#383A3D"/>
<path d="M12.0154 22.9684C10.3687 22.9724 8.74215 22.6063 7.25585 21.8974C5.76954 21.1885 4.46145 20.1548 3.42816 18.8726C3.37361 18.8027 3.34907 18.7139 3.35995 18.6259C3.37083 18.5378 3.41624 18.4577 3.48619 18.4032C3.55613 18.3486 3.64489 18.3241 3.73293 18.335C3.82097 18.3458 3.90108 18.3912 3.95564 18.4612C5.52156 20.3889 7.72834 21.6893 10.1733 22.1253C12.6183 22.5612 15.1386 22.1036 17.2742 20.8359C19.4099 19.5682 21.0186 17.5749 21.8068 15.2197C22.595 12.8646 22.5103 10.3045 21.5679 8.00669C21.5502 7.96682 21.5407 7.9238 21.5398 7.88018C21.539 7.83656 21.5469 7.79321 21.5631 7.75269C21.5792 7.71216 21.6034 7.67529 21.634 7.64423C21.6646 7.61317 21.7012 7.58855 21.7415 7.57184C21.7818 7.55512 21.825 7.54663 21.8687 7.54688C21.9123 7.54713 21.9554 7.5561 21.9955 7.57328C22.0357 7.59045 22.0719 7.61548 22.1022 7.64689C22.1325 7.67829 22.1562 7.71544 22.1719 7.75614C23.0704 9.95534 23.2381 12.3852 22.6502 14.6869C22.0623 16.9887 20.75 19.0405 18.9068 20.5394C16.9556 22.1143 14.5229 22.9717 12.0154 22.9684Z" fill="#383A3D"/>
<path d="M20.3446 5.62332H20.3077L17.2615 5.29365C17.1797 5.27925 17.1065 5.23426 17.0566 5.16782C17.0068 5.10137 16.9841 5.01845 16.9932 4.93589C17.0022 4.85332 17.0424 4.7773 17.1054 4.72325C17.1685 4.6692 17.2498 4.64117 17.3328 4.64486L20.044 4.9376L20.3473 2.21584C20.3492 2.17115 20.3604 2.12735 20.38 2.08713C20.3996 2.04691 20.4272 2.01114 20.4612 1.98203C20.4951 1.95292 20.5347 1.93109 20.5774 1.91789C20.6202 1.90469 20.6652 1.90039 20.7096 1.90527C20.7541 1.91015 20.7971 1.9241 20.836 1.94626C20.8748 1.96842 20.9087 1.99832 20.9356 2.0341C20.9624 2.06989 20.9816 2.1108 20.992 2.15431C21.0024 2.19782 21.0038 2.243 20.9961 2.28705L20.669 5.33321C20.6592 5.41937 20.6156 5.49811 20.5477 5.55211C20.4903 5.59864 20.4185 5.62381 20.3446 5.62332Z" fill="#383A3D"/>
<path d="M3.3356 22.014H3.29867C3.21273 22.0047 3.13396 21.9618 3.0796 21.8945C3.02523 21.8273 2.99969 21.7413 3.00856 21.6553L3.33823 18.6092C3.34233 18.5666 3.35495 18.5253 3.37534 18.4877C3.39573 18.4501 3.42347 18.4169 3.45691 18.3903C3.52444 18.3359 3.61066 18.3103 3.69691 18.3191L6.74307 18.6461C6.82448 18.6606 6.89737 18.7055 6.94706 18.7716C6.99674 18.8377 7.01953 18.9202 7.01084 19.0024C7.00215 19.0847 6.96262 19.1606 6.90021 19.2148C6.8378 19.2691 6.75715 19.2977 6.6745 19.2949L3.95538 19.0021L3.65735 21.7239C3.6489 21.8034 3.61139 21.877 3.552 21.9305C3.49262 21.9841 3.41555 22.0138 3.3356 22.014Z" fill="#383A3D"/>
</svg>
