<svg width="16" height="17" viewBox="0 0 16 17" fill="none" xmlns="http://www.w3.org/2000/svg">
<g clip-path="url(#clip0_1615_1103)">
<path fill-rule="evenodd" clip-rule="evenodd" d="M11.1637 1.18177C11.8228 0.522743 12.8913 0.522743 13.5503 1.18177L15.3182 2.94962C15.9772 3.60865 15.9772 4.67716 15.3182 5.33619L4.83616 15.8182C4.17713 16.4772 3.10862 16.4772 2.44959 15.8182L0.681772 14.0504C0.0227427 13.3913 0.0227427 12.3228 0.681771 11.6638L11.1637 1.18177ZM12.9316 1.80049C12.6143 1.48317 12.0998 1.48317 11.7825 1.80049L1.30049 12.2825C0.983171 12.5998 0.98317 13.1143 1.30049 13.4317L3.06831 15.1995C3.38563 15.5168 3.90012 15.5168 4.21744 15.1995L14.6994 4.71747C15.0168 4.40015 15.0168 3.88566 14.6994 3.56834L12.9316 1.80049Z" fill="#344D79"/>
<path fill-rule="evenodd" clip-rule="evenodd" d="M12.1726 3.70871C12.3434 3.53785 12.6204 3.53785 12.7913 3.7087L14.5591 5.47652C14.73 5.64738 14.73 5.92439 14.5591 6.09524C14.3883 6.2661 14.1113 6.2661 13.9404 6.09525L12.1726 4.32743C12.0017 4.15658 12.0017 3.87957 12.1726 3.70871Z" fill="#344D79"/>
<path fill-rule="evenodd" clip-rule="evenodd" d="M11.2888 6.36007C11.4596 6.18922 11.7367 6.18922 11.9075 6.36008L12.7914 7.24402C12.9623 7.41488 12.9623 7.69189 12.7914 7.86274C12.6206 8.03359 12.3435 8.03359 12.1727 7.86273L11.2888 6.97879C11.1179 6.80793 11.1179 6.53092 11.2888 6.36007Z" fill="#344D79"/>
<path fill-rule="evenodd" clip-rule="evenodd" d="M8.63693 7.24435C8.80778 7.0735 9.08479 7.0735 9.25565 7.24435L11.0235 9.01217C11.1944 9.18302 11.1944 9.46003 11.0235 9.63089C10.8526 9.80174 10.5756 9.80174 10.4048 9.63089L8.63693 7.86307C8.46608 7.69222 8.46607 7.41521 8.63693 7.24435Z" fill="#344D79"/>
<path fill-rule="evenodd" clip-rule="evenodd" d="M7.75315 9.89571C7.924 9.72486 8.20101 9.72487 8.37186 9.89572L9.25577 10.7797C9.42663 10.9505 9.42662 11.2275 9.25576 11.3984C9.08491 11.5692 8.8079 11.5692 8.63704 11.3984L7.75314 10.5144C7.58228 10.3436 7.58229 10.0666 7.75315 9.89571Z" fill="#344D79"/>
<path fill-rule="evenodd" clip-rule="evenodd" d="M5.10128 10.78C5.27214 10.6091 5.54915 10.6091 5.72 10.78L7.48785 12.5478C7.65871 12.7187 7.65871 12.9957 7.48786 13.1665C7.317 13.3374 7.03999 13.3374 6.86914 13.1665L5.10129 11.3987C4.93043 11.2279 4.93043 10.9509 5.10128 10.78Z" fill="#344D79"/>
</g>
<defs>
<clipPath id="clip0_1615_1103">
<rect width="16" height="16" fill="white" transform="translate(0 0.5)"/>
</clipPath>
</defs>
</svg>
