<svg width="41" height="40" viewBox="0 0 41 40" fill="none" xmlns="http://www.w3.org/2000/svg">
<path d="M30.1725 38.3465C30.1724 38.4343 30.1421 38.5194 30.0867 38.5876C30.0313 38.6557 29.9542 38.7028 29.8683 38.7209C28.8031 38.9782 27.7113 39.1091 26.6155 39.1109C25.512 39.1087 24.4125 38.9778 23.3393 38.7209C23.2533 38.7028 23.1762 38.6557 23.1208 38.5876C23.0654 38.5194 23.0352 38.4343 23.0351 38.3465C23.0351 30.1326 21.0927 20.5302 20.2503 16.7704C19.4079 20.5302 17.4655 30.1326 17.4655 38.3465C17.4654 38.4343 17.4352 38.5194 17.3798 38.5876C17.3244 38.6557 17.2473 38.7028 17.1613 38.7209C15.0154 39.2357 12.7782 39.2357 10.6323 38.7209C10.5464 38.7028 10.4693 38.6557 10.4139 38.5876C10.3585 38.5194 10.3282 38.4343 10.3281 38.3465C10.3281 37.2622 10.3437 11.7703 11.3968 6.4972L11.896 4.00886H28.6046L29.1038 6.4972C30.1569 11.7703 30.1725 37.2622 30.1725 38.3465ZM28.043 1.19289C28.0234 1.10624 27.9749 1.02885 27.9054 0.973531C27.8359 0.918212 27.7496 0.888276 27.6607 0.888676H12.8399C12.751 0.888276 12.6647 0.918212 12.5952 0.973531C12.5257 1.02885 12.4772 1.10624 12.4576 1.19289C12.4576 1.19289 12.4576 1.20069 12.052 3.22881H28.4486C28.043 1.20069 28.043 1.19289 28.043 1.19289Z" fill="#323232"/>
<path fill-rule="evenodd" clip-rule="evenodd" d="M8.49138 33.9999L5.92538 38.4443L3.35938 33.9999H5.48093L5.48093 4.44423H3.35938L5.92538 -0.000209808L8.49138 4.44423H6.36982L6.36982 33.9999H8.49138Z" fill="#3CBE1A"/>
</svg>
