<svg width="41" height="40" viewBox="0 0 41 40" fill="none" xmlns="http://www.w3.org/2000/svg">
<path d="M30.1725 38.3465C30.1724 38.4343 30.1421 38.5194 30.0867 38.5876C30.0313 38.6557 29.9542 38.7028 29.8683 38.7209C28.8031 38.9782 27.7113 39.1091 26.6155 39.1109C25.512 39.1087 24.4125 38.9778 23.3393 38.7209C23.2533 38.7028 23.1762 38.6557 23.1208 38.5876C23.0654 38.5194 23.0352 38.4343 23.0351 38.3465C23.0351 30.1326 21.0927 20.5302 20.2503 16.7704C19.4079 20.5302 17.4655 30.1326 17.4655 38.3465C17.4654 38.4343 17.4352 38.5194 17.3798 38.5876C17.3244 38.6557 17.2473 38.7028 17.1613 38.7209C15.0154 39.2357 12.7782 39.2357 10.6323 38.7209C10.5464 38.7028 10.4693 38.6557 10.4139 38.5876C10.3585 38.5194 10.3282 38.4343 10.3281 38.3465C10.3281 37.2622 10.3437 11.7703 11.3968 6.4972L11.896 4.00886H28.6046L29.1038 6.4972C30.1569 11.7703 30.1725 37.2622 30.1725 38.3465ZM28.043 1.19289C28.0234 1.10624 27.9749 1.02885 27.9054 0.973531C27.8359 0.918212 27.7496 0.888276 27.6607 0.888676H12.8399C12.751 0.888276 12.6647 0.918212 12.5952 0.973531C12.5257 1.02885 12.4772 1.10624 12.4576 1.19289C12.4576 1.19289 12.4576 1.20069 12.052 3.22881H28.4486C28.043 1.20069 28.043 1.19289 28.043 1.19289Z" fill="#323232"/>
<path fill-rule="evenodd" clip-rule="evenodd" d="M29.5886 9.8531C29.5562 9.84515 29.5238 9.83724 29.4912 9.82938L29.5572 10.7616C30.5665 11.0197 31.3797 11.3122 31.9807 11.6212C32.633 11.9566 32.9684 12.2775 33.0875 12.5331C33.1413 12.6487 33.1501 12.748 33.1303 12.8426C33.1093 12.9431 33.0493 13.0686 32.9173 13.2165C32.646 13.5207 32.1287 13.8542 31.3225 14.1777C30.4868 14.5131 28.9828 14.8153 27.2864 15.0622L27.0581 12.9674L22.9178 15.9998L27.6141 18.0692L27.3827 15.9464C29.0963 15.6982 30.7074 15.3824 31.6535 15.0027C32.5077 14.6599 33.1745 14.2636 33.5807 13.8082C33.7875 13.5764 33.9396 13.3147 34.0003 13.0248C34.0622 12.7291 34.0223 12.4348 33.8933 12.1578C33.6467 11.6284 33.091 11.1926 32.3872 10.8307C31.6676 10.4607 30.721 10.1316 29.5886 9.8531ZM10.9478 10.7609L11.0098 9.82968C10.3523 9.98825 9.75588 10.1637 9.22901 10.3539C8.32695 10.6795 7.59537 11.0598 7.11513 11.498C6.62751 11.9429 6.35558 12.4973 6.52139 13.1056C6.67393 13.6653 7.16545 14.1267 7.8165 14.5071C8.05492 14.6464 8.3914 14.7724 8.77175 14.8883C9.15956 15.0066 9.62165 15.1229 10.1285 15.2357C11.0208 15.4343 12.068 15.6255 13.1231 15.7991L12.82 17.9069L17.5844 15.9998L13.5506 12.8272L13.2497 14.9191C12.2096 14.7477 11.187 14.5606 10.3215 14.368C9.82697 14.258 9.38898 14.1473 9.03102 14.0381C8.66561 13.9267 8.41064 13.8248 8.26497 13.7397C7.67693 13.396 7.43828 13.0894 7.379 12.8719C7.33298 12.7031 7.36757 12.471 7.71424 12.1547C8.06829 11.8316 8.67296 11.4996 9.5308 11.19C9.95154 11.0381 10.4253 10.8944 10.9478 10.7609Z" fill="#3CBE1A"/>
</svg>
