<svg width="39" height="39" viewBox="0 0 39 39" fill="none" xmlns="http://www.w3.org/2000/svg">
<g clip-path="url(#clip0_1580_60525)">
<path d="M29.1725 44.8855C29.1724 44.9731 29.1429 45.058 29.0889 45.126C29.0349 45.194 28.9597 45.2409 28.8759 45.2589C27.8373 45.5155 26.7728 45.6461 25.7044 45.6478C24.6285 45.6456 23.5565 45.5151 22.5101 45.2589C22.4263 45.2409 22.3511 45.194 22.2971 45.126C22.2431 45.058 22.2136 44.9731 22.2135 44.8855C22.2135 36.695 20.3197 27.1199 19.4983 23.3708C18.677 27.1199 16.7832 36.695 16.7832 44.8855C16.7831 44.9731 16.7536 45.058 16.6996 45.126C16.6456 45.194 16.5704 45.2409 16.4866 45.2589C14.3944 45.7723 12.2131 45.7723 10.1208 45.2589C10.037 45.2409 9.96182 45.194 9.90782 45.126C9.85382 45.058 9.82431 44.9731 9.82422 44.8855C9.82422 43.8044 9.83943 18.3849 10.8662 13.1268L11.3529 10.6455H27.6438L28.1305 13.1268C29.1572 18.3849 29.1725 43.8044 29.1725 44.8855ZM27.0962 7.83754C27.0771 7.75113 27.0298 7.67396 26.962 7.6188C26.8943 7.56364 26.8101 7.53379 26.7235 7.53418H12.2732C12.1866 7.53379 12.1024 7.56364 12.0346 7.6188C11.9669 7.67396 11.9196 7.75113 11.9005 7.83754C11.9005 7.83754 11.9005 7.84532 11.505 9.86767H27.4917C27.0962 7.84532 27.0962 7.83754 27.0962 7.83754Z" fill="#323232"/>
<path fill-rule="evenodd" clip-rule="evenodd" d="M13.4796 0.414205C15.4799 0.109002 17.8934 -0.0341432 20.3114 0.00688605C22.7284 0.0478967 25.0165 0.270649 26.7863 0.641602C27.6702 0.826873 28.4115 1.04624 28.9771 1.29413C29.5195 1.5318 29.9863 1.83157 30.2037 2.22948C30.3231 2.44793 30.3658 2.69409 30.3042 2.94474C30.2455 3.18355 30.1032 3.38269 29.933 3.54528C29.5996 3.86384 29.0659 4.13084 28.4011 4.35824C27.8193 4.55721 26.9248 4.72809 25.9322 4.8713L26.1337 6.99339L21.5789 4.875L25.6501 1.89992L25.8484 3.98821C26.8125 3.84797 27.6272 3.6883 28.1262 3.51764C28.7564 3.30208 29.1464 3.08391 29.3414 2.89757C29.4354 2.80772 29.4586 2.74948 29.4636 2.72878L29.4638 2.72815C29.466 2.71918 29.4699 2.70345 29.4472 2.66195C29.3795 2.53796 29.1512 2.33471 28.6358 2.10885C28.1437 1.89321 27.4645 1.68855 26.6123 1.50992C24.9098 1.15306 22.6778 0.933524 20.297 0.893128C17.9174 0.85275 15.5523 0.994116 13.6075 1.29087C12.635 1.43925 11.8049 1.62081 11.1441 1.82408C10.4745 2.03008 10.0123 2.24846 9.74872 2.4534C9.61866 2.55453 9.5639 2.63183 9.54349 2.67563C9.52858 2.70764 9.53107 2.72015 9.53601 2.7356C9.55965 2.80952 9.69626 2.99598 10.1645 3.22917C10.3643 3.32871 10.8071 3.45151 11.4445 3.58141C11.9486 3.68416 12.543 3.7855 13.1725 3.88195L13.4249 1.79233L17.4189 4.875L12.8115 6.87116L13.0663 4.76191C12.4202 4.6632 11.8031 4.5583 11.2751 4.45068C10.6511 4.32351 10.1004 4.18311 9.78505 4.02607C9.28679 3.77792 8.85387 3.45389 8.71228 3.01113C8.54415 2.48539 8.83999 2.04656 9.22418 1.74781C9.61137 1.44673 10.1914 1.19157 10.8945 0.97528C11.6065 0.756265 12.4795 0.566797 13.4796 0.414205Z" fill="#3CBE1A"/>
</g>
<defs>
<clipPath id="clip0_1580_60525">
<rect width="39" height="39" fill="white"/>
</clipPath>
</defs>
</svg>
