<svg width="41" height="40" viewBox="0 0 41 40" fill="none" xmlns="http://www.w3.org/2000/svg">
<g clip-path="url(#clip0_1992_12069)">
<path fill-rule="evenodd" clip-rule="evenodd" d="M29.293 3.3335C30.8979 3.3335 33.271 4.39453 34.5665 5.69004L40.543 11.6665L33.8765 18.3335L32.2095 16.6665V36.6665H8.87646V16.6665V4.10087C9.88151 3.62999 10.9446 3.3335 11.793 3.3335H14.7095C14.7095 6.55596 17.3205 9.1665 20.543 9.1665C23.7654 9.1665 26.3765 6.55596 26.3765 3.3335H29.293Z" fill="#323232"/>
</g>
<path fill-rule="evenodd" clip-rule="evenodd" d="M7.45232 35.3334L4.88631 39.7778L2.32031 35.3334H4.44187L4.44187 5.77773H2.32031L4.88631 1.33329L7.45232 5.77773H5.33076L5.33076 35.3334H7.45232Z" fill="#3CBE1A"/>
<defs>
<clipPath id="clip0_1992_12069">
<rect width="40" height="40" fill="white" transform="translate(0.542969)"/>
</clipPath>
</defs>
</svg>
