<svg width="41" height="40" viewBox="0 0 41 40" fill="none" xmlns="http://www.w3.org/2000/svg">
<g clip-path="url(#clip0_1992_12061)">
<path d="M34.2306 5.69004C32.9351 4.39453 30.562 3.3335 28.957 3.3335C27.3521 3.3335 26.0405 3.3335 26.0405 3.3335C26.0405 6.55596 23.4295 9.1665 20.207 9.1665C16.9846 9.1665 14.3735 6.55596 14.3735 3.3335C14.3735 3.3335 13.062 3.3335 11.457 3.3335C9.85205 3.3335 7.479 4.39453 6.1835 5.69004L0.207031 11.6665L6.87354 18.3335L8.54053 16.6665V36.6665H31.8735V16.6665L33.5405 18.3335L40.207 11.6665L34.2306 5.69004Z" fill="#323232"/>
</g>
<path fill-rule="evenodd" clip-rule="evenodd" d="M7.77257 23.4548L3.32812 20.8888L7.77257 18.3228V20.4443H32.6436V18.3228L37.0881 20.8888L32.6436 23.4548V21.3332H7.77257V23.4548Z" fill="#3CBE1A"/>
<defs>
<clipPath id="clip0_1992_12061">
<rect width="40" height="40" fill="white" transform="translate(0.207031)"/>
</clipPath>
</defs>
</svg>
