<svg width="20" height="20" viewBox="0 0 20 20" fill="none" xmlns="http://www.w3.org/2000/svg">
<path d="M10 0C8.02219 0 6.08879 0.58649 4.4443 1.6853C2.79981 2.78412 1.51809 4.3459 0.761209 6.17316C0.00433288 8.00043 -0.1937 10.0111 0.192152 11.9509C0.578004 13.8907 1.53041 15.6725 2.92894 17.0711C4.32746 18.4696 6.10929 19.422 8.0491 19.8078C9.98891 20.1937 11.9996 19.9957 13.8268 19.2388C15.6541 18.4819 17.2159 17.2002 18.3147 15.5557C19.4135 13.9112 20 11.9778 20 10C19.9969 7.34879 18.9423 4.80707 17.0676 2.93239C15.1929 1.0577 12.6512 0.0031277 10 0ZM14.2791 8.37L9.73364 12.9155C9.56316 13.0859 9.33197 13.1816 9.09091 13.1816C8.84985 13.1816 8.61866 13.0859 8.44818 12.9155L5.72091 10.1882C5.63408 10.1043 5.56483 10.004 5.51718 9.89309C5.46954 9.78218 5.44446 9.66289 5.44341 9.54218C5.44236 9.42147 5.46536 9.30176 5.51107 9.19004C5.55678 9.07832 5.62429 8.97682 5.70964 8.89146C5.795 8.8061 5.8965 8.7386 6.00823 8.69289C6.11995 8.64718 6.23966 8.62418 6.36037 8.62523C6.48108 8.62627 6.60037 8.65135 6.71128 8.699C6.82219 8.74664 6.92251 8.8159 7.00637 8.90273L9.09091 10.9873L12.9936 7.08454C13.1651 6.91895 13.3947 6.82731 13.6331 6.82939C13.8715 6.83146 14.0995 6.92707 14.268 7.09562C14.4366 7.26417 14.5322 7.49218 14.5343 7.73054C14.5363 7.9689 14.4447 8.19854 14.2791 8.37Z" fill="url(#paint0_linear_552_3248)"/>
<defs>
<linearGradient id="paint0_linear_552_3248" x1="12.7777" y1="0" x2="12.7777" y2="20" gradientUnits="userSpaceOnUse">
<stop stop-color="#74E6FF"/>
<stop offset="1" stop-color="#5D9EFF"/>
</linearGradient>
</defs>
</svg>
