<svg width="30" height="30" viewBox="0 0 30 30" fill="none" xmlns="http://www.w3.org/2000/svg">
<path d="M15 30C23.2843 30 30 23.2843 30 15C30 6.71573 23.2843 0 15 0C6.71573 0 0 6.71573 0 15C0 23.2843 6.71573 30 15 30Z" fill="url(#paint0_linear_34_8322)"/>
<path d="M15.0179 10.875C12.7321 10.875 10.9107 12.7321 10.9107 14.9821C10.9107 17.2679 12.7321 19.0893 15.0179 19.0893C17.2679 19.0893 19.125 17.2679 19.125 14.9821C19.125 12.7321 17.2679 10.875 15.0179 10.875ZM15.0179 17.6607C13.5536 17.6607 12.3393 16.4821 12.3393 14.9821C12.3393 13.5179 13.5179 12.3393 15.0179 12.3393C16.4821 12.3393 17.6607 13.5179 17.6607 14.9821C17.6607 16.4821 16.4821 17.6607 15.0179 17.6607ZM20.2321 10.7321C20.2321 10.1964 19.8036 9.76786 19.2679 9.76786C18.7321 9.76786 18.3036 10.1964 18.3036 10.7321C18.3036 11.2679 18.7321 11.6964 19.2679 11.6964C19.8036 11.6964 20.2321 11.2679 20.2321 10.7321ZM22.9464 11.6964C22.875 10.4107 22.5893 9.26786 21.6607 8.33929C20.7321 7.41071 19.5893 7.125 18.3036 7.05357C16.9821 6.98214 13.0179 6.98214 11.6964 7.05357C10.4107 7.125 9.30357 7.41071 8.33929 8.33929C7.41071 9.26786 7.125 10.4107 7.05357 11.6964C6.98214 13.0179 6.98214 16.9821 7.05357 18.3036C7.125 19.5893 7.41071 20.6964 8.33929 21.6607C9.30357 22.5893 10.4107 22.875 11.6964 22.9464C13.0179 23.0179 16.9821 23.0179 18.3036 22.9464C19.5893 22.875 20.7321 22.5893 21.6607 21.6607C22.5893 20.6964 22.875 19.5893 22.9464 18.3036C23.0179 16.9821 23.0179 13.0179 22.9464 11.6964ZM21.2321 19.6964C20.9821 20.4107 20.4107 20.9464 19.7321 21.2321C18.6607 21.6607 16.1607 21.5536 15.0179 21.5536C13.8393 21.5536 11.3393 21.6607 10.3036 21.2321C9.58929 20.9464 9.05357 20.4107 8.76786 19.6964C8.33929 18.6607 8.44643 16.1607 8.44643 14.9821C8.44643 13.8393 8.33929 11.3393 8.76786 10.2679C9.05357 9.58929 9.58929 9.05357 10.3036 8.76786C11.3393 8.33929 13.8393 8.44643 15.0179 8.44643C16.1607 8.44643 18.6607 8.33929 19.7321 8.76786C20.4107 9.01786 20.9464 9.58929 21.2321 10.2679C21.6607 11.3393 21.5536 13.8393 21.5536 14.9821C21.5536 16.1607 21.6607 18.6607 21.2321 19.6964Z" fill="white"/>
<defs>
<linearGradient id="paint0_linear_34_8322" x1="0" y1="0" x2="30" y2="30" gradientUnits="userSpaceOnUse">
<stop stop-color="#74E6FF"/>
<stop offset="1" stop-color="#5D9EFF"/>
</linearGradient>
</defs>
</svg>
