<svg width="21" height="24" viewBox="0 0 21 24" fill="none" xmlns="http://www.w3.org/2000/svg">
<path d="M19.719 3.42545C14.9521 3.42545 10.8626 0.218965 10.8197 0.184671C10.6684 0.0650635 10.4811 0 10.2882 0C10.0953 0 9.90798 0.0650635 9.75662 0.184671C9.71375 0.218965 5.64135 3.42545 0.857348 3.42545C0.629965 3.42545 0.411895 3.51577 0.251111 3.67656C0.0903276 3.83734 0 4.05541 0 4.28279V11.9989C0 17.7517 2.32341 20.5724 9.93666 23.9246C10.0472 23.9743 10.167 24 10.2882 24C10.4094 24 10.5292 23.9743 10.6397 23.9246C18.2529 20.5724 20.5763 17.7517 20.5763 11.9989V4.28279C20.5763 4.05541 20.486 3.83734 20.3252 3.67656C20.1644 3.51577 19.9464 3.42545 19.719 3.42545ZM10.2882 18.8577C8.93163 18.8577 7.60556 18.4554 6.47764 17.7018C5.34972 16.9481 4.47061 15.8769 3.95148 14.6237C3.43236 13.3704 3.29653 11.9913 3.56118 10.6608C3.82583 9.33037 4.47906 8.10825 5.43828 7.14903C6.3975 6.18981 7.61962 5.53658 8.95009 5.27193C10.2806 5.00728 11.6596 5.14311 12.9129 5.66223C14.1662 6.18136 15.2374 7.06047 15.991 8.18839C16.7447 9.31631 17.147 10.6424 17.147 11.9989C17.147 13.818 16.4243 15.5625 15.1381 16.8488C13.8518 18.1351 12.1072 18.8577 10.2882 18.8577Z" fill="#517193"/>
<path d="M12.2478 9.67548L9.42711 12.5047L8.32113 11.3902C8.2412 11.3102 8.1463 11.2468 8.04185 11.2036C7.93741 11.1603 7.82547 11.138 7.71242 11.138C7.59937 11.138 7.48743 11.1603 7.38298 11.2036C7.27854 11.2468 7.18364 11.3102 7.1037 11.3902C7.02376 11.4701 6.96035 11.565 6.91709 11.6695C6.87383 11.7739 6.85156 11.8858 6.85156 11.9989C6.85156 12.1119 6.87383 12.2239 6.91709 12.3283C6.96035 12.4328 7.02376 12.5277 7.1037 12.6076L8.8184 14.3223C8.8981 14.4027 8.99292 14.4664 9.0974 14.51C9.20187 14.5535 9.31393 14.5759 9.42711 14.5759C9.54029 14.5759 9.65235 14.5535 9.75683 14.51C9.8613 14.4664 9.95613 14.4027 10.0358 14.3223L13.4652 10.8929C13.5452 10.813 13.6086 10.7181 13.6518 10.6136C13.6951 10.5092 13.7174 10.3972 13.7174 10.2842C13.7174 10.1711 13.6951 10.0592 13.6518 9.95476C13.6086 9.85032 13.5452 9.75542 13.4652 9.67548C13.3853 9.59554 13.2904 9.53213 13.1859 9.48887C13.0815 9.44561 12.9696 9.42334 12.8565 9.42334C12.7435 9.42334 12.6315 9.44561 12.5271 9.48887C12.4226 9.53213 12.3277 9.59554 12.2478 9.67548Z" fill="#517193"/>
</svg>
