<svg width="23" height="24" viewBox="0 0 23 24" fill="none" xmlns="http://www.w3.org/2000/svg">
<path fill-rule="evenodd" clip-rule="evenodd" d="M16.1372 1.8537L5.57407 6.38239L0.681641 4.37254L11.1868 0.0569014C11.3716 -0.0189671 11.5787 -0.0189671 11.7634 0.0569014L16.1372 1.8537ZM7.53613 7.18849L18.1025 2.66113L22.268 4.37235L11.4745 8.80643L7.53613 7.18849ZM10.7159 10.1356L6.44128 8.37955V11.7044C6.44128 12.1234 6.10158 12.4631 5.6826 12.4631C5.26361 12.4631 4.92391 12.1234 4.92391 11.7044V7.75619L0 5.7334V19.0895C0 19.3971 0.185783 19.6743 0.470385 19.7913L10.7159 24.0002V10.1356ZM12.2334 24.0002V10.1356L22.9493 5.7334V19.0895C22.9493 19.3971 22.7635 19.6744 22.4789 19.7913L12.2334 24.0002Z" fill="#517193"/>
</svg>
