<svg width="124" height="114" viewBox="0 0 124 114" fill="none" xmlns="http://www.w3.org/2000/svg">
<path fill-rule="evenodd" clip-rule="evenodd" d="M73.4345 42.5671C73.4345 47.6944 73.5421 52.058 70.9599 56.6398C68.9156 60.3489 65.5802 62.6398 61.9221 62.6398C56.8652 62.6398 53.9602 58.7126 53.9602 53.0399C53.9602 41.6944 63.9663 39.6217 73.4345 39.6217V42.5671ZM86.6685 74.9671C85.8078 75.7307 84.5166 75.8398 83.5483 75.2944C79.2446 71.5853 78.3838 69.9489 76.0168 66.458C68.808 73.8762 63.7512 76.1671 54.3905 76.1671C43.3085 76.1671 34.8086 69.2944 34.8086 55.4398C34.8086 44.6399 40.6186 37.3308 48.7957 33.7308C55.8969 30.5672 65.7954 30.0217 73.4345 29.149V27.4035C73.4345 24.2399 73.6497 20.5308 71.8206 17.8036C70.2067 15.4036 67.1941 14.3127 64.5043 14.3127C59.555 14.3127 55.0361 16.9308 53.9602 22.2763C53.745 23.4763 52.8842 24.6763 51.7007 24.6763L39.0047 23.2581C37.9288 23.0399 36.7453 22.1672 37.0681 20.5308C39.9731 4.82176 53.8526 0.130859 66.3334 0.130859C72.6814 0.130859 81.0737 1.87631 86.1305 6.78539C92.4785 12.7854 91.9406 20.8581 91.9406 29.6944V50.4217C91.9406 56.6398 94.5228 59.3671 96.8899 62.7489C97.7506 63.9489 97.9658 65.3671 96.8899 66.2398C94.0924 68.4216 89.3583 72.6762 86.6685 74.9671Z" fill="#FCFCFC"/>
<path fill-rule="evenodd" clip-rule="evenodd" d="M111.631 98.3031C98.1816 108.339 78.5996 113.794 61.7075 113.794C38.1446 113.794 16.8411 104.958 0.809765 90.2304C-0.481353 89.0304 0.702172 87.5031 2.20848 88.3758C19.531 98.6303 41.0496 104.739 63.2138 104.739C78.1692 104.739 94.631 101.576 109.694 95.1394C111.953 94.0485 113.89 96.5576 111.631 98.3031Z" fill="#FF9900"/>
<path fill-rule="evenodd" clip-rule="evenodd" d="M117.207 91.7592C115.486 89.4683 105.802 90.6683 101.499 91.2138C100.208 91.3229 99.9924 90.232 101.176 89.3593C108.923 83.9047 121.511 85.432 123.017 87.2865C124.524 89.1411 122.587 102.014 115.378 108.123C114.302 109.105 113.226 108.559 113.657 107.359C115.271 103.214 118.929 94.0502 117.207 91.7592Z" fill="#FF9900"/>
</svg>
