<svg width="212" height="88" viewBox="0 0 212 88" fill="none" xmlns="http://www.w3.org/2000/svg">
<path d="M85.4826 59.8289V41.6916H79.3945V37.5088H96.6382V41.6916H90.5501V59.8289H85.4826Z" fill="#FCFCFC"/>
<path d="M98.543 37.7226C100.197 37.5117 102.625 37.2656 105.3 37.2656C108.608 37.2656 110.93 37.828 112.584 39.0231C113.922 40.1128 114.59 41.6594 114.59 43.6629C114.59 46.5452 112.584 48.5136 110.719 49.1814V49.2869C112.268 49.9547 113.147 51.3959 113.71 53.4697C114.379 56.0005 115.048 58.8828 115.47 59.7615H110.262C109.945 59.1991 109.382 57.3362 108.713 54.5593C108.15 51.7825 107.165 51.0092 105.053 51.0092H103.611V59.8318H98.5078V37.7226H98.543ZM103.611 47.4591H105.616C108.15 47.4591 109.593 46.1234 109.593 44.155C109.593 42.1515 108.15 41.0618 105.828 41.0618C104.596 41.0618 103.962 41.1673 103.611 41.2727V47.4591Z" fill="#FCFCFC"/>
<path d="M122.607 37.5098V50.3043C122.607 54.1708 124.049 56.1392 126.689 56.1392C129.328 56.1392 130.771 54.2762 130.771 50.3043V37.5098H135.874V49.988C135.874 56.9476 132.319 60.2517 126.478 60.2517C120.847 60.2517 117.539 57.0531 117.539 49.988V37.5098H122.607Z" fill="#FCFCFC"/>
<path d="M139.431 54.6296C140.874 55.2975 142.985 56.0707 145.061 56.0707C147.384 56.0707 148.616 55.0865 148.616 53.6454C148.616 52.2043 147.63 51.431 144.85 50.4468C141.19 49.1111 138.762 47.1427 138.762 43.8386C138.762 40.0776 141.964 37.0898 147.173 37.0898C149.706 37.0898 151.607 37.6522 152.909 38.3201L151.818 42.3975C150.938 41.9405 149.284 41.3078 147.067 41.3078C144.956 41.3078 143.865 42.292 143.865 43.4168C143.865 44.858 145.096 45.5258 148.053 46.6154C151.924 48.0566 153.789 50.1656 153.789 53.2236C153.789 56.9846 150.903 60.1833 144.709 60.1833C142.176 60.1833 139.642 59.5154 138.41 58.8476L139.431 54.6296Z" fill="#FCFCFC"/>
<path d="M80.5284 81.9752C81.9712 82.643 84.0827 83.4163 86.1589 83.4163C88.4815 83.4163 89.7132 82.4321 89.7132 80.991C89.7132 79.5498 88.7279 78.7765 85.9478 77.7924C82.2879 76.4567 79.8597 74.4883 79.8597 71.1842C79.8597 67.4232 83.0621 64.4354 88.2704 64.4354C90.8041 64.4354 92.7045 64.9978 94.0065 65.6657L92.9156 69.743C92.0358 69.2861 90.3819 68.6534 88.1648 68.6534C86.0534 68.6534 84.9624 69.6376 84.9624 70.7624C84.9624 72.2035 86.1941 72.8714 89.1502 73.961C93.0212 75.4022 94.8863 77.5112 94.8863 80.5692C94.8863 84.3302 92.0006 87.5289 85.807 87.5289C83.2733 87.5289 80.7395 86.861 79.5078 86.1932L80.5284 81.9752Z" fill="#FCFCFC"/>
<path d="M160.196 81.9753C161.639 82.6432 163.751 83.4164 165.827 83.4164C168.15 83.4164 169.381 82.4323 169.381 80.9911C169.381 79.55 168.396 78.7767 165.616 77.7925C161.956 76.4568 159.528 74.4884 159.528 71.1843C159.528 67.4233 162.73 64.4355 167.938 64.4355C170.472 64.4355 172.372 64.9979 173.675 65.6658L172.584 69.7432C171.704 69.2862 170.05 68.6535 167.833 68.6535C165.721 68.6535 164.63 69.6377 164.63 70.7625C164.63 72.2037 165.862 72.8715 168.818 73.9611C172.689 75.4023 174.554 77.5113 174.554 80.5693C174.554 84.3303 171.669 87.529 165.475 87.529C162.941 87.529 160.407 86.8611 159.176 86.1933L160.196 81.9753Z" fill="#FCFCFC"/>
<path d="M160.865 41.6926H154.812V37.5098H172.056V41.6926H165.968V59.8299H160.865V41.6926Z" fill="#FCFCFC"/>
<path d="M187.291 50.4449H179.021V55.7174H188.276V59.8299H173.918V37.5098H187.854V41.5871H179.021V46.2269H187.291V50.4449Z" fill="#FCFCFC"/>
<path d="M191.371 37.7226C193.236 37.5117 195.7 37.2656 198.233 37.2656C202.562 37.2656 205.307 38.0389 207.418 39.691C209.741 41.343 211.184 44.1198 211.184 48.0918C211.184 52.4152 209.635 55.3678 207.524 57.1604C205.096 59.164 201.541 60.0427 197.142 60.0427C194.503 60.0427 192.708 59.9373 191.406 59.7264V37.7226H191.371ZM196.474 56.0708C196.931 56.1762 197.565 56.1762 198.233 56.1762C202.879 56.1762 205.87 53.6454 205.87 48.3378C205.87 43.698 203.09 41.1673 198.796 41.1673C197.705 41.1673 196.931 41.2727 196.474 41.3782V56.0708Z" fill="#FCFCFC"/>
<path fill-rule="evenodd" clip-rule="evenodd" d="M0 37.051C0 16.9804 16.2583 0.741211 36.3876 0.741211C56.5169 0.741211 72.7752 16.9804 72.7752 37.051C72.7752 57.1215 56.5169 73.3607 36.3876 73.3607C16.2583 73.3607 0 57.1567 0 37.051ZM36.3932 61.6029C49.9688 61.6029 60.974 50.6106 60.974 37.0509C60.974 23.4913 49.9688 12.499 36.3932 12.499C22.8177 12.499 11.8125 23.4913 11.8125 37.0509C11.8125 50.6106 22.8177 61.6029 36.3932 61.6029Z" fill="#FCFCFC"/>
<path d="M46.1377 44.1511C42.7241 49.1072 38.0789 53.5361 31.8853 53.5361C25.2694 53.5361 21.5039 49.4587 21.5039 42.8154C21.5039 31.9893 29.4571 21.4092 40.6127 21.4092C44.3781 21.4092 49.4456 22.9558 49.4456 27.4901C49.4456 35.6448 36.6361 38.4217 30.3369 40.0737C30.1257 41.4094 29.8794 42.8506 29.8794 44.1511C29.8794 47.0334 31.4278 49.5642 34.5246 49.5642C38.6068 49.5642 41.9147 45.6977 44.2374 42.8154L46.1377 44.1511ZM42.5834 26.5762C42.5834 24.9242 41.7036 23.5885 39.944 23.5885C34.7358 23.5885 31.9909 33.7468 31.0055 37.7187C35.8267 36.2775 42.5834 32.2002 42.5834 26.5762Z" fill="#FCFCFC"/>
<path d="M101.05 66.4092V65.6378H100.278H98.8555H98.084V66.4092V85.6521V86.4235H98.8555H100.278H101.05V85.6521V76.8512H110.717V85.6521V86.4235H111.488H112.911H113.683V85.6521V66.4092V65.6378H112.911H111.488H110.717V66.4092V74.0955H101.05V66.4092Z" fill="#FCFCFC" stroke="#FCFCFC" stroke-width="1.54286"/>
<path d="M127.756 86.8239C130.246 86.8239 132.672 85.8897 134.473 84.0251C136.279 82.1566 137.408 79.4072 137.408 75.8648C137.408 72.7 136.449 70.0408 134.76 68.1629C133.066 66.2794 130.684 65.2364 127.96 65.2364C125.238 65.2364 122.783 66.2771 121.012 68.1972C119.244 70.115 118.205 72.859 118.205 76.1956C118.205 79.3715 119.222 82.031 120.949 83.9044C122.678 85.78 125.081 86.8239 127.756 86.8239ZM127.79 84.1234C125.693 84.1234 124.091 83.1671 122.992 81.7028C121.879 80.22 121.279 78.2067 121.279 76.1625C121.279 74.0511 121.836 71.9614 122.938 70.422C124.022 68.9083 125.642 67.9039 127.892 67.9039C130.134 67.9039 131.731 68.927 132.792 70.42C133.873 71.9388 134.402 73.9568 134.402 75.8648C134.402 78.1696 133.788 80.252 132.665 81.7382C131.559 83.203 129.937 84.1234 127.79 84.1234Z" fill="#FCFCFC" stroke="#FCFCFC" stroke-width="1.54286"/>
<path d="M142.695 66.5938L142.648 65.8239L141.924 65.8687V66.5938V85.6521V86.4235H142.695H144.324H145.095V85.6521V78.365C145.78 78.4329 146.484 78.4329 147.138 78.4328L147.184 78.4328C150.138 78.4328 152.871 77.6973 154.584 76.0723C155.725 75.021 156.457 73.5805 156.457 71.7254C156.457 69.9409 155.582 68.3839 154.292 67.4303C152.862 66.2665 150.515 65.6378 147.701 65.6378C146.669 65.6378 145.404 65.6846 144.403 65.7309C143.901 65.7541 143.462 65.7773 143.15 65.7947C142.993 65.8034 142.868 65.8107 142.782 65.8158L142.683 65.8217L142.657 65.8233L142.65 65.8237L142.648 65.8238L142.648 65.8238L142.648 65.8239L142.695 66.5938ZM147.303 75.781C146.475 75.781 145.726 75.7244 145.056 75.6147V68.4293C145.673 68.3697 146.536 68.3221 147.661 68.3221C149.392 68.3221 150.786 68.6453 151.721 69.241C152.612 69.8087 153.126 70.643 153.126 71.8559C153.126 73.1511 152.622 74.0828 151.708 74.7215C150.755 75.3872 149.285 75.781 147.303 75.781Z" fill="#FCFCFC" stroke="#FCFCFC" stroke-width="1.54286"/>
</svg>
