<svg width="88" height="16" viewBox="0 0 88 16" fill="none" xmlns="http://www.w3.org/2000/svg">
<mask id="mask0_34_8232" style="mask-type:alpha" maskUnits="userSpaceOnUse" x="0" y="0" width="16" height="16">
<rect width="16" height="16" fill="url(#paint0_linear_34_8232)"/>
</mask>
<g mask="url(#mask0_34_8232)">
<path opacity="0.3" d="M7.26797 2.0813C7.48083 1.4262 8.40763 1.4262 8.62048 2.0813L9.69885 5.40017C9.79404 5.69314 10.0671 5.8915 10.3751 5.8915H13.8648C14.5536 5.8915 14.84 6.77294 14.2827 7.17782L11.4595 9.22899C11.2103 9.41006 11.106 9.731 11.2012 10.024L12.2796 13.3428C12.4924 13.998 11.7426 14.5427 11.1854 14.1378L8.36218 12.0867C8.11296 11.9056 7.77549 11.9056 7.52628 12.0867L4.70308 14.1378C4.14581 14.5427 3.39602 13.998 3.60887 13.3428L4.68724 10.024C4.78243 9.731 4.67815 9.41006 4.42893 9.22899L1.60574 7.17782C1.04847 6.77294 1.33487 5.8915 2.02368 5.8915H5.51335C5.8214 5.8915 6.09441 5.69314 6.18961 5.40017L7.26797 2.0813Z" fill="#517193"/>
<mask id="mask1_34_8232" style="mask-type:alpha" maskUnits="userSpaceOnUse" x="1" y="1" width="14" height="14">
<path d="M7.26797 2.0813C7.48083 1.4262 8.40763 1.4262 8.62048 2.0813L9.69885 5.40017C9.79404 5.69314 10.0671 5.8915 10.3751 5.8915H13.8648C14.5536 5.8915 14.84 6.77294 14.2827 7.17782L11.4595 9.22899C11.2103 9.41006 11.106 9.731 11.2012 10.024L12.2796 13.3428C12.4924 13.998 11.7426 14.5427 11.1854 14.1378L8.36218 12.0867C8.11296 11.9056 7.77549 11.9056 7.52628 12.0867L4.70308 14.1378C4.14581 14.5427 3.39602 13.998 3.60887 13.3428L4.68724 10.024C4.78243 9.731 4.67815 9.41006 4.42893 9.22899L1.60574 7.17782C1.04847 6.77294 1.33487 5.8915 2.02368 5.8915H5.51335C5.8214 5.8915 6.09441 5.69314 6.18961 5.40017L7.26797 2.0813Z" fill="white"/>
</mask>
<g mask="url(#mask1_34_8232)">
<rect x="-0.0078125" width="16" height="16" fill="url(#paint1_linear_34_8232)"/>
</g>
</g>
<mask id="mask2_34_8232" style="mask-type:alpha" maskUnits="userSpaceOnUse" x="18" y="0" width="16" height="16">
<rect x="18" width="16" height="16" fill="url(#paint2_linear_34_8232)"/>
</mask>
<g mask="url(#mask2_34_8232)">
<path opacity="0.3" d="M25.268 2.0813C25.4808 1.4262 26.4076 1.4262 26.6205 2.0813L27.6988 5.40017C27.794 5.69314 28.0671 5.8915 28.3751 5.8915H31.8648C32.5536 5.8915 32.84 6.77294 32.2827 7.17782L29.4595 9.22899C29.2103 9.41006 29.106 9.731 29.2012 10.024L30.2796 13.3428C30.4924 13.998 29.7426 14.5427 29.1854 14.1378L26.3622 12.0867C26.113 11.9056 25.7755 11.9056 25.5263 12.0867L22.7031 14.1378C22.1458 14.5427 21.396 13.998 21.6089 13.3428L22.6872 10.024C22.7824 9.731 22.6781 9.41006 22.4289 9.22899L19.6057 7.17782C19.0485 6.77294 19.3349 5.8915 20.0237 5.8915H23.5133C23.8214 5.8915 24.0944 5.69314 24.1896 5.40017L25.268 2.0813Z" fill="#517193"/>
<mask id="mask3_34_8232" style="mask-type:alpha" maskUnits="userSpaceOnUse" x="19" y="1" width="14" height="14">
<path d="M25.268 2.0813C25.4808 1.4262 26.4076 1.4262 26.6205 2.0813L27.6988 5.40017C27.794 5.69314 28.0671 5.8915 28.3751 5.8915H31.8648C32.5536 5.8915 32.84 6.77294 32.2827 7.17782L29.4595 9.22899C29.2103 9.41006 29.106 9.731 29.2012 10.024L30.2796 13.3428C30.4924 13.998 29.7426 14.5427 29.1854 14.1378L26.3622 12.0867C26.113 11.9056 25.7755 11.9056 25.5263 12.0867L22.7031 14.1378C22.1458 14.5427 21.396 13.998 21.6089 13.3428L22.6872 10.024C22.7824 9.731 22.6781 9.41006 22.4289 9.22899L19.6057 7.17782C19.0485 6.77294 19.3349 5.8915 20.0237 5.8915H23.5133C23.8214 5.8915 24.0944 5.69314 24.1896 5.40017L25.268 2.0813Z" fill="white"/>
</mask>
<g mask="url(#mask3_34_8232)">
<rect x="17.9922" width="16" height="16" fill="url(#paint3_linear_34_8232)"/>
</g>
</g>
<mask id="mask4_34_8232" style="mask-type:alpha" maskUnits="userSpaceOnUse" x="36" y="0" width="16" height="16">
<rect x="36" width="16" height="16" fill="url(#paint4_linear_34_8232)"/>
</mask>
<g mask="url(#mask4_34_8232)">
<path opacity="0.3" d="M43.268 2.0813C43.4808 1.4262 44.4076 1.4262 44.6205 2.0813L45.6988 5.40017C45.794 5.69314 46.0671 5.8915 46.3751 5.8915H49.8648C50.5536 5.8915 50.84 6.77294 50.2827 7.17782L47.4595 9.22899C47.2103 9.41006 47.106 9.731 47.2012 10.024L48.2796 13.3428C48.4924 13.998 47.7426 14.5427 47.1854 14.1378L44.3622 12.0867C44.113 11.9056 43.7755 11.9056 43.5263 12.0867L40.7031 14.1378C40.1458 14.5427 39.396 13.998 39.6089 13.3428L40.6872 10.024C40.7824 9.731 40.6781 9.41006 40.4289 9.22899L37.6057 7.17782C37.0485 6.77294 37.3349 5.8915 38.0237 5.8915H41.5133C41.8214 5.8915 42.0944 5.69314 42.1896 5.40017L43.268 2.0813Z" fill="#517193"/>
<mask id="mask5_34_8232" style="mask-type:alpha" maskUnits="userSpaceOnUse" x="37" y="1" width="14" height="14">
<path d="M43.268 2.0813C43.4808 1.4262 44.4076 1.4262 44.6205 2.0813L45.6988 5.40017C45.794 5.69314 46.0671 5.8915 46.3751 5.8915H49.8648C50.5536 5.8915 50.84 6.77294 50.2827 7.17782L47.4595 9.22899C47.2103 9.41006 47.106 9.731 47.2012 10.024L48.2796 13.3428C48.4924 13.998 47.7426 14.5427 47.1854 14.1378L44.3622 12.0867C44.113 11.9056 43.7755 11.9056 43.5263 12.0867L40.7031 14.1378C40.1458 14.5427 39.396 13.998 39.6089 13.3428L40.6872 10.024C40.7824 9.731 40.6781 9.41006 40.4289 9.22899L37.6057 7.17782C37.0485 6.77294 37.3349 5.8915 38.0237 5.8915H41.5133C41.8214 5.8915 42.0944 5.69314 42.1896 5.40017L43.268 2.0813Z" fill="white"/>
</mask>
<g mask="url(#mask5_34_8232)">
<rect x="35.9922" width="16" height="16" fill="url(#paint5_linear_34_8232)"/>
</g>
</g>
<mask id="mask6_34_8232" style="mask-type:alpha" maskUnits="userSpaceOnUse" x="54" y="0" width="16" height="16">
<rect x="54" width="16" height="16" fill="url(#paint6_linear_34_8232)"/>
</mask>
<g mask="url(#mask6_34_8232)">
<path opacity="0.3" d="M61.268 2.0813C61.4808 1.4262 62.4076 1.4262 62.6205 2.0813L63.6988 5.40017C63.794 5.69314 64.0671 5.8915 64.3751 5.8915H67.8648C68.5536 5.8915 68.84 6.77294 68.2827 7.17782L65.4595 9.22899C65.2103 9.41006 65.106 9.731 65.2012 10.024L66.2796 13.3428C66.4924 13.998 65.7426 14.5427 65.1854 14.1378L62.3622 12.0867C62.113 11.9056 61.7755 11.9056 61.5263 12.0867L58.7031 14.1378C58.1458 14.5427 57.396 13.998 57.6089 13.3428L58.6872 10.024C58.7824 9.731 58.6781 9.41006 58.4289 9.22899L55.6057 7.17782C55.0485 6.77294 55.3349 5.8915 56.0237 5.8915H59.5133C59.8214 5.8915 60.0944 5.69314 60.1896 5.40017L61.268 2.0813Z" fill="#517193"/>
<mask id="mask7_34_8232" style="mask-type:alpha" maskUnits="userSpaceOnUse" x="55" y="1" width="14" height="14">
<path d="M61.268 2.0813C61.4808 1.4262 62.4076 1.4262 62.6205 2.0813L63.6988 5.40017C63.794 5.69314 64.0671 5.8915 64.3751 5.8915H67.8648C68.5536 5.8915 68.84 6.77294 68.2827 7.17782L65.4595 9.22899C65.2103 9.41006 65.106 9.731 65.2012 10.024L66.2796 13.3428C66.4924 13.998 65.7426 14.5427 65.1854 14.1378L62.3622 12.0867C62.113 11.9056 61.7755 11.9056 61.5263 12.0867L58.7031 14.1378C58.1458 14.5427 57.396 13.998 57.6089 13.3428L58.6872 10.024C58.7824 9.731 58.6781 9.41006 58.4289 9.22899L55.6057 7.17782C55.0485 6.77294 55.3349 5.8915 56.0237 5.8915H59.5133C59.8214 5.8915 60.0944 5.69314 60.1896 5.40017L61.268 2.0813Z" fill="white"/>
</mask>
<g mask="url(#mask7_34_8232)">
<rect x="53.9922" width="16" height="16" fill="url(#paint7_linear_34_8232)"/>
</g>
</g>
<mask id="mask8_34_8232" style="mask-type:alpha" maskUnits="userSpaceOnUse" x="72" y="0" width="16" height="16">
<rect x="72" width="16" height="16" fill="url(#paint8_linear_34_8232)"/>
</mask>
<g mask="url(#mask8_34_8232)">
<path opacity="0.3" d="M79.268 2.0813C79.4808 1.4262 80.4076 1.4262 80.6205 2.0813L81.6988 5.40017C81.794 5.69314 82.0671 5.8915 82.3751 5.8915H85.8648C86.5536 5.8915 86.84 6.77294 86.2827 7.17782L83.4595 9.22899C83.2103 9.41006 83.106 9.731 83.2012 10.024L84.2796 13.3428C84.4924 13.998 83.7426 14.5427 83.1854 14.1378L80.3622 12.0867C80.113 11.9056 79.7755 11.9056 79.5263 12.0867L76.7031 14.1378C76.1458 14.5427 75.396 13.998 75.6089 13.3428L76.6872 10.024C76.7824 9.731 76.6781 9.41006 76.4289 9.22899L73.6057 7.17782C73.0485 6.77294 73.3349 5.8915 74.0237 5.8915H77.5133C77.8214 5.8915 78.0944 5.69314 78.1896 5.40017L79.268 2.0813Z" fill="#517193"/>
<mask id="mask9_34_8232" style="mask-type:alpha" maskUnits="userSpaceOnUse" x="73" y="1" width="14" height="14">
<path d="M79.268 2.0813C79.4808 1.4262 80.4076 1.4262 80.6205 2.0813L81.6988 5.40017C81.794 5.69314 82.0671 5.8915 82.3751 5.8915H85.8648C86.5536 5.8915 86.84 6.77294 86.2827 7.17782L83.4595 9.22899C83.2103 9.41006 83.106 9.731 83.2012 10.024L84.2796 13.3428C84.4924 13.998 83.7426 14.5427 83.1854 14.1378L80.3622 12.0867C80.113 11.9056 79.7755 11.9056 79.5263 12.0867L76.7031 14.1378C76.1458 14.5427 75.396 13.998 75.6089 13.3428L76.6872 10.024C76.7824 9.731 76.6781 9.41006 76.4289 9.22899L73.6057 7.17782C73.0485 6.77294 73.3349 5.8915 74.0237 5.8915H77.5133C77.8214 5.8915 78.0944 5.69314 78.1896 5.40017L79.268 2.0813Z" fill="white"/>
</mask>
<g mask="url(#mask9_34_8232)">
<rect x="71.9922" width="16" height="16" fill="url(#paint9_linear_34_8232)"/>
</g>
</g>
<defs>
<linearGradient id="paint0_linear_34_8232" x1="8" y1="0" x2="8" y2="16" gradientUnits="userSpaceOnUse">
<stop stop-color="#FFD80A"/>
<stop offset="0.260417" stop-color="#FFB304"/>
<stop offset="1" stop-color="#FF9900"/>
</linearGradient>
<linearGradient id="paint1_linear_34_8232" x1="7.99219" y1="0" x2="7.99219" y2="16" gradientUnits="userSpaceOnUse">
<stop stop-color="#FFBF06"/>
<stop offset="1" stop-color="#FF9900"/>
</linearGradient>
<linearGradient id="paint2_linear_34_8232" x1="26" y1="0" x2="26" y2="16" gradientUnits="userSpaceOnUse">
<stop stop-color="#FFD80A"/>
<stop offset="0.260417" stop-color="#FFB304"/>
<stop offset="1" stop-color="#FF9900"/>
</linearGradient>
<linearGradient id="paint3_linear_34_8232" x1="25.9922" y1="0" x2="25.9922" y2="16" gradientUnits="userSpaceOnUse">
<stop stop-color="#FFBF06"/>
<stop offset="1" stop-color="#FF9900"/>
</linearGradient>
<linearGradient id="paint4_linear_34_8232" x1="44" y1="0" x2="44" y2="16" gradientUnits="userSpaceOnUse">
<stop stop-color="#FFD80A"/>
<stop offset="0.260417" stop-color="#FFB304"/>
<stop offset="1" stop-color="#FF9900"/>
</linearGradient>
<linearGradient id="paint5_linear_34_8232" x1="43.9922" y1="0" x2="43.9922" y2="16" gradientUnits="userSpaceOnUse">
<stop stop-color="#FFBF06"/>
<stop offset="1" stop-color="#FF9900"/>
</linearGradient>
<linearGradient id="paint6_linear_34_8232" x1="62" y1="0" x2="62" y2="16" gradientUnits="userSpaceOnUse">
<stop stop-color="#FFD80A"/>
<stop offset="0.260417" stop-color="#FFB304"/>
<stop offset="1" stop-color="#FF9900"/>
</linearGradient>
<linearGradient id="paint7_linear_34_8232" x1="61.9922" y1="0" x2="61.9922" y2="16" gradientUnits="userSpaceOnUse">
<stop stop-color="#FFBF06"/>
<stop offset="1" stop-color="#FF9900"/>
</linearGradient>
<linearGradient id="paint8_linear_34_8232" x1="80" y1="0" x2="80" y2="16" gradientUnits="userSpaceOnUse">
<stop stop-color="#FFD80A"/>
<stop offset="0.260417" stop-color="#FFB304"/>
<stop offset="1" stop-color="#FF9900"/>
</linearGradient>
<linearGradient id="paint9_linear_34_8232" x1="79.9922" y1="0" x2="79.9922" y2="16" gradientUnits="userSpaceOnUse">
<stop stop-color="#FFBF06"/>
<stop offset="1" stop-color="#FF9900"/>
</linearGradient>
</defs>
</svg>
