<svg width="100" height="100" viewBox="0 0 100 100" fill="none" xmlns="http://www.w3.org/2000/svg">
<g clip-path="url(#clip0_39_9106)">
<path d="M97.0703 50C97.0703 54.0461 92.8367 57.4818 91.8393 61.2133C90.8072 65.074 92.7254 70.1604 90.7695 73.5406C88.7855 76.9693 83.4031 77.8389 80.6203 80.6215C77.8377 83.4039 76.9682 88.7863 73.5396 90.7699C70.1596 92.7256 65.0734 90.8072 61.2127 91.8393C57.4813 92.8369 54.0459 97.0703 50 97.0703C45.9539 97.0703 42.5182 92.8367 38.7867 91.8393C34.926 90.8072 29.8396 92.7254 26.4594 90.7695C23.0307 88.7855 22.1611 83.4031 19.3785 80.6203C16.5961 77.8377 11.2137 76.9682 9.23008 73.5396C7.27441 70.1596 9.19277 65.0734 8.16074 61.2127C7.16309 57.4813 2.92969 54.0459 2.92969 50C2.92969 45.9539 7.16328 42.5182 8.16074 38.7867C9.19277 34.926 7.27461 29.8396 9.23047 26.4594C11.2145 23.0307 16.5969 22.1611 19.3797 19.3785C22.1623 16.5961 23.0318 11.2137 26.4604 9.23008C29.8404 7.27441 34.9266 9.19277 38.7873 8.16074C42.5187 7.16309 45.9541 2.92969 50 2.92969C54.0461 2.92969 57.4818 7.16328 61.2133 8.16074C65.074 9.19277 70.1604 7.27461 73.5406 9.23047C76.9693 11.2145 77.8389 16.5969 80.6215 19.3797C83.4039 22.1623 88.7863 23.0318 90.7699 26.4604C92.7256 29.8404 90.8072 34.9266 91.8393 38.7873C92.8369 42.5187 97.0703 45.9541 97.0703 50Z" fill="url(#paint0_linear_39_9106)"/>
<path d="M50 100C46.7971 100 44.167 98.2684 41.8463 96.7406C40.4643 95.8309 39.159 94.9713 38.0299 94.6695C36.8117 94.3439 35.1969 94.4336 33.4871 94.5289C30.7586 94.6805 27.6664 94.8529 24.9918 93.3053C22.2799 91.7361 20.8797 88.9496 19.6445 86.491C18.8857 84.9811 18.1691 83.5545 17.3064 82.692C16.4439 81.8293 15.0176 81.1127 13.5076 80.3539C11.0492 79.1187 8.2627 77.7186 6.69394 75.0068C5.14648 72.3324 5.31855 69.24 5.47051 66.5119C5.56582 64.8023 5.65566 63.1875 5.33008 61.9693C5.02832 60.8404 4.16895 59.5354 3.25918 58.1533C1.73164 55.8328 0 53.2027 0 50C0 46.7971 1.73164 44.167 3.25937 41.8463C4.16914 40.4643 5.02871 39.159 5.33047 38.0299C5.65605 36.8115 5.56641 35.1967 5.47109 33.4871C5.31934 30.7588 5.14707 27.6664 6.69473 24.9918C8.26387 22.2799 11.0504 20.8797 13.509 19.6445C15.0189 18.8857 16.4455 18.1691 17.308 17.3064C18.1707 16.4439 18.8873 15.0176 19.6461 13.5076C20.8813 11.0492 22.2814 8.2627 24.9932 6.69394C27.6676 5.14629 30.7596 5.31836 33.4881 5.47051C35.1977 5.56582 36.8125 5.65566 38.0307 5.33008C39.1596 5.02832 40.4646 4.16895 41.8467 3.25918C44.1672 1.73164 46.7973 0 50 0C53.2029 0 55.833 1.73164 58.1537 3.25937C59.5357 4.16914 60.841 5.02871 61.9701 5.33047C63.1885 5.65605 64.8031 5.56641 66.5129 5.47109C69.2412 5.31894 72.3334 5.14707 75.0082 6.69473C77.7201 8.26387 79.1203 11.0504 80.3555 13.509C81.1143 15.0189 81.8309 16.4455 82.6936 17.308C83.5561 18.1707 84.9824 18.8873 86.4924 19.6461C88.9508 20.8813 91.7373 22.2814 93.3061 24.9932C94.8535 27.6676 94.6814 30.76 94.5295 33.4881C94.4342 35.1977 94.3443 36.8125 94.6699 38.0307C94.9717 39.1596 95.8311 40.4646 96.7408 41.8467C98.2684 44.1672 100 46.7973 100 50C100 53.2029 98.2684 55.833 96.7406 58.1537C95.8309 59.5357 94.9713 60.841 94.6695 61.9701C94.3439 63.1885 94.4336 64.8033 94.5289 66.5129C94.6807 69.2412 94.8529 72.3336 93.3053 75.0082C91.7361 77.7201 88.9496 79.1203 86.491 80.3555C84.9811 81.1143 83.5545 81.8309 82.692 82.6936C81.8293 83.5561 81.1127 84.9824 80.3539 86.4924C79.1187 88.9508 77.7186 91.7373 75.0068 93.3061C72.3322 94.8533 69.2402 94.6814 66.5119 94.5295C64.8025 94.4344 63.1875 94.3445 61.9693 94.6699C60.8404 94.9717 59.5354 95.8311 58.1533 96.7408C55.8328 98.2684 53.2027 100 50 100ZM35.8047 88.5811C37.0504 88.5811 38.3039 88.6777 39.5432 89.009C41.5887 89.5557 43.3576 90.7203 45.0684 91.8467C46.8602 93.0264 48.5527 94.1406 50 94.1406C51.4473 94.1406 53.1395 93.0264 54.9312 91.8467C56.642 90.7203 58.4107 89.5559 60.4563 89.0092C62.5789 88.4418 64.7436 88.5623 66.8377 88.6791C68.9328 88.7957 70.9117 88.9061 72.0725 88.2344C73.2689 87.5422 74.1674 85.7543 75.1184 83.8615C76.0523 82.0027 77.0182 80.0807 78.5488 78.55C80.0795 77.0193 82.0016 76.0535 83.8604 75.1197C85.7533 74.1686 87.5412 73.2703 88.2336 72.0736C88.9053 70.9127 88.7951 68.9336 88.6785 66.8383C88.5619 64.7445 88.4416 62.5793 89.0088 60.4568C89.5555 58.4113 90.7201 56.6424 91.8465 54.9316C93.0264 53.1398 94.1406 51.4473 94.1406 50C94.1406 48.5527 93.0264 46.8605 91.8467 45.0687C90.7203 43.358 89.5559 41.5893 89.0092 39.5438C88.4418 37.4211 88.5623 35.2561 88.6791 33.1623C88.7957 31.067 88.9061 29.0883 88.2344 27.9275C87.5422 26.7311 85.7543 25.8326 83.8615 24.8816C82.0027 23.9477 80.0807 22.9818 78.55 21.4512C77.0193 19.9205 76.0535 17.9984 75.1197 16.1396C74.1686 14.2467 73.2703 12.4588 72.0736 11.7664C70.9127 11.0947 68.9338 11.2049 66.8383 11.3215C64.7445 11.4383 62.5791 11.5586 60.4568 10.9912C58.4113 10.4445 56.6424 9.27988 54.9316 8.15351C53.1398 6.97363 51.4473 5.85938 50 5.85938C48.5527 5.85938 46.8605 6.97363 45.0687 8.15332C43.358 9.27969 41.5893 10.4441 39.5438 10.9908C37.4211 11.5582 35.2559 11.4375 33.1623 11.3209C31.067 11.2043 29.0883 11.0939 27.9275 11.7656C26.7311 12.4578 25.8326 14.2457 24.8816 16.1385C23.9477 17.9973 22.9818 19.9193 21.4512 21.45C19.9205 22.9807 17.9984 23.9465 16.1396 24.8803C14.2467 25.8314 12.4588 26.7297 11.7664 27.9264C11.0947 29.0873 11.2049 31.0664 11.3215 33.1617C11.4381 35.2555 11.5584 37.4207 10.9912 39.5432C10.4445 41.5887 9.27988 43.3576 8.15351 45.0684C6.97363 46.8602 5.85938 48.5527 5.85938 50C5.85938 51.4473 6.97363 53.1395 8.15332 54.9312C9.27969 56.642 10.4441 58.4107 10.9908 60.4563C11.5582 62.5789 11.4377 64.7439 11.3209 66.8377C11.2043 68.933 11.0939 70.9117 11.7656 72.0725C12.4578 73.2689 14.2457 74.1674 16.1385 75.1184C17.9973 76.0523 19.9193 77.0182 21.45 78.5488C22.9807 80.0795 23.9465 82.0016 24.8803 83.8604C25.8314 85.7533 26.7297 87.5412 27.9264 88.2336C29.0873 88.9053 31.0662 88.7953 33.1617 88.6785C34.033 88.6301 34.9168 88.5811 35.8047 88.5811Z" fill="url(#paint1_linear_39_9106)"/>
<path d="M29.2206 37.624L27.1246 40.344C27.9032 40.568 28.5219 40.9627 28.9806 41.528C29.4499 42.0933 29.6846 42.7653 29.6846 43.544C29.6846 44.696 29.2952 45.5973 28.5166 46.248C27.7592 46.8987 26.8152 47.224 25.6846 47.224C24.7992 47.224 24.0152 47.0213 23.3326 46.616C22.6499 46.2 22.1539 45.6133 21.8446 44.856L23.7326 43.768C23.9992 44.632 24.6499 45.064 25.6846 45.064C26.2499 45.064 26.6872 44.9307 26.9966 44.664C27.3166 44.3867 27.4766 44.0133 27.4766 43.544C27.4766 43.0853 27.3166 42.7173 26.9966 42.44C26.6872 42.1627 26.2499 42.024 25.6846 42.024H25.2046L24.3566 40.744L26.5646 37.864H22.1806V35.8H29.2206V37.624ZM35.2353 47.224C33.838 47.224 32.7393 46.696 31.9393 45.64C31.15 44.5627 30.7553 43.1493 30.7553 41.4C30.7553 39.6507 31.15 38.2427 31.9393 37.176C32.7393 36.1093 33.838 35.576 35.2353 35.576C36.654 35.576 37.7526 36.1093 38.5313 37.176C39.3206 38.2427 39.7153 39.6507 39.7153 41.4C39.7153 43.1493 39.3206 44.5627 38.5313 45.64C37.7526 46.696 36.654 47.224 35.2353 47.224ZM37.5233 41.4C37.5233 40.2053 37.326 39.2933 36.9313 38.664C36.5473 38.0347 35.982 37.72 35.2353 37.72C34.4886 37.72 33.9233 38.0347 33.5393 38.664C33.1553 39.2933 32.9633 40.2053 32.9633 41.4C32.9633 42.5947 33.1553 43.5067 33.5393 44.136C33.9233 44.7547 34.4886 45.064 35.2353 45.064C35.982 45.064 36.5473 44.7493 36.9313 44.12C37.326 43.4907 37.5233 42.584 37.5233 41.4ZM47.3134 43.16H41.3134V41.176H47.3134V43.16ZM49.3916 35.8H53.8396C55.3756 35.8 56.6556 36.3387 57.6796 37.416C58.7142 38.4827 59.2316 39.8107 59.2316 41.4C59.2316 42.9893 58.7142 44.3173 57.6796 45.384C56.6556 46.4613 55.3756 47 53.8396 47H49.3916V35.8ZM51.5996 44.888H53.8396C54.8102 44.888 55.5996 44.568 56.2076 43.928C56.8156 43.2667 57.1196 42.424 57.1196 41.4C57.1196 40.3653 56.8156 39.528 56.2076 38.888C55.5996 38.2373 54.8102 37.912 53.8396 37.912H51.5996V44.888ZM69.9916 47H67.5916L66.9196 44.984H62.4556L61.7836 47H59.3996L63.3196 35.8H66.0556L69.9916 47ZM64.6956 38.344L63.1596 42.92H66.2316L64.6956 38.344ZM75.9939 35.8H78.4899L74.6499 42.632V47H72.4579V42.632L68.6339 35.8H71.1299L73.5619 40.472L75.9939 35.8ZM29.6221 59.8H37.8621V61.912H34.8381V71H32.6301V61.912H29.6221V59.8ZM47.6227 71H45.2387L42.9827 67.112H41.3027V71H39.0947V59.8H43.5747C44.6094 59.8 45.4894 60.1627 46.2147 60.888C46.94 61.6133 47.3027 62.488 47.3027 63.512C47.3027 64.2053 47.1054 64.8507 46.7107 65.448C46.316 66.0347 45.7934 66.4773 45.1427 66.776L47.6227 71ZM43.5747 61.864H41.3027V65.176H43.5747C43.9907 65.176 44.348 65.016 44.6467 64.696C44.9454 64.3653 45.0947 63.9707 45.0947 63.512C45.0947 63.0533 44.9454 62.664 44.6467 62.344C44.348 62.024 43.9907 61.864 43.5747 61.864ZM48.9228 71V59.8H51.1308V71H48.9228ZM62.8041 71H60.4041L59.7321 68.984H55.2681L54.5961 71H52.2121L56.1321 59.8H58.8681L62.8041 71ZM57.5081 62.344L55.9721 66.92H59.0441L57.5081 62.344ZM66.0996 59.8V68.888H70.3716V71H63.8916V59.8H66.0996Z" fill="white"/>
</g>
<defs>
<linearGradient id="paint0_linear_39_9106" x1="-594.946" y1="97.0711" x2="97.0705" y2="2.93091" gradientUnits="userSpaceOnUse">
<stop stop-color="#74E6FF"/>
<stop offset="1" stop-color="#5D9EFF"/>
</linearGradient>
<linearGradient id="paint1_linear_39_9106" x1="0" y1="0" x2="100" y2="100" gradientUnits="userSpaceOnUse">
<stop stop-color="#74E6FF"/>
<stop offset="1" stop-color="#5D9EFF"/>
</linearGradient>
<clipPath id="clip0_39_9106">
<rect width="100" height="100" fill="white"/>
</clipPath>
</defs>
</svg>
