<svg width="14" height="14" viewBox="0 0 14 14" fill="none" xmlns="http://www.w3.org/2000/svg">
<path fill-rule="evenodd" clip-rule="evenodd" d="M13.692 1.7951C14.1027 1.38445 14.1027 0.718651 13.692 0.308C13.2814 -0.102652 12.6156 -0.102653 12.2049 0.307999L7 5.51296L1.79507 0.308004C1.38443 -0.102648 0.718632 -0.102648 0.307983 0.308004C-0.102666 0.718656 -0.102666 1.38445 0.307983 1.7951L5.51291 7.00007L0.308198 12.2048C-0.102451 12.6155 -0.102451 13.2813 0.308197 13.6919C0.718846 14.1026 1.38464 14.1026 1.79529 13.6919L7 8.48717L12.2047 13.6919C12.6154 14.1026 13.2812 14.1026 13.6918 13.6919C14.1025 13.2813 14.1025 12.6155 13.6918 12.2048L8.48709 7.00007L13.692 1.7951Z" fill="#D9D9D9"/>
</svg>
