<svg width="28" height="28" viewBox="0 0 28 28" fill="none" xmlns="http://www.w3.org/2000/svg">
<path d="M26.4546 28.0001C27.308 28.0001 28 27.3082 28 26.4548V1.54536C28 0.691797 27.308 0 26.4546 0H1.54536C0.691687 0 0 0.691797 0 1.54536V26.4548C0 27.3082 0.691687 28.0001 1.54536 28.0001H26.4546Z" fill="#395185"/>
<path d="M19.3193 28.0001V17.157H22.959L23.5039 12.9313H19.3193V10.2332C19.3193 9.00975 19.6592 8.17599 21.4137 8.17599L23.6514 8.175V4.39555C23.2642 4.34404 21.9359 4.22897 20.3907 4.22897C17.1643 4.22897 14.9556 6.19827 14.9556 9.81486V12.9313H11.3066V17.157H14.9556V28.0001H19.3193Z" fill="white"/>
</svg>
