<svg width="33" height="33" viewBox="0 0 33 33" fill="none" xmlns="http://www.w3.org/2000/svg">
<g clip-path="url(#clip0_838_488)">
<path d="M0 0H32.0401V32.0401H0V0Z" fill="url(#paint0_linear_838_488)"/>
<path d="M10.4193 23.326L10.4222 23.3269L9.34129 25.1992C8.94674 25.8826 8.0728 26.1167 7.38938 25.7221C6.706 25.3276 6.47183 24.4537 6.86638 23.7703L7.66269 22.391L7.7391 22.2587C7.87558 22.0625 8.21238 21.724 8.88607 21.7876C8.88607 21.7876 10.4714 21.9597 10.5861 22.7836C10.5861 22.7836 10.6018 23.0548 10.4193 23.326ZM25.7509 18.5439H22.3801C22.1505 18.5286 22.0503 18.4466 22.0109 18.399L22.0084 18.3946L18.4001 12.1448L18.3954 12.1479L18.179 11.8376C17.8243 11.2953 17.2612 12.6824 17.2612 12.6824C16.5888 14.2281 17.3566 15.9854 17.6243 16.5166L22.6361 25.1972C23.0306 25.8806 23.9046 26.1148 24.588 25.7202C25.2714 25.3257 25.5055 24.4517 25.111 23.7683L23.8577 21.5977C23.8335 21.5451 23.7912 21.4023 24.0482 21.4017H25.7509C26.54 21.4017 27.1798 20.762 27.1798 19.9728C27.1798 19.1837 26.54 18.5439 25.7509 18.5439ZM19.2037 20.4865C19.2037 20.4865 19.3836 21.4017 18.6874 21.4017H17.9912V21.4017H6.22649C5.43735 21.4017 4.79761 20.762 4.79761 19.9728C4.79761 19.1837 5.43735 18.5439 6.22649 18.5439H9.43006C9.94727 18.514 10.0699 18.2154 10.0699 18.2154L10.0727 18.2168L14.2544 10.9738L14.2532 10.9736C14.3294 10.8337 14.266 10.7015 14.2549 10.6805L12.8739 8.28858C12.4793 7.60516 12.7135 6.73125 13.3969 6.3367C14.0803 5.94211 14.9542 6.17628 15.3488 6.8597L15.9893 7.96909L16.6286 6.86167C17.0232 6.17825 17.8971 5.94408 18.5805 6.33867C19.2639 6.73326 19.4981 7.60716 19.1035 8.29055L13.2845 18.3693C13.2591 18.4307 13.2513 18.527 13.4406 18.5439H16.9188L16.9196 18.5778C16.9196 18.5778 18.9299 18.6091 19.2037 20.4865Z" fill="white"/>
</g>
<defs>
<linearGradient id="paint0_linear_838_488" x1="16.0201" y1="32.0401" x2="16.0201" y2="0" gradientUnits="userSpaceOnUse">
<stop stop-color="#1D76F2"/>
<stop offset="1" stop-color="#1AC2FB"/>
</linearGradient>
<clipPath id="clip0_838_488">
<rect width="32.0401" height="32.0401" rx="4" fill="white"/>
</clipPath>
</defs>
</svg>
