<svg width="36" height="34" viewBox="0 0 36 34" fill="none" xmlns="http://www.w3.org/2000/svg">
<path d="M10.6668 12H25.3335M8.8335 19.3333H10.6668M25.3335 19.3333H27.1668" stroke="black" stroke-width="2" stroke-linecap="round" stroke-linejoin="round"/>
<path d="M1.5 26.6667V14.585C1.50038 14.0889 1.60141 13.5981 1.797 13.1422L6.0485 3.22383C6.3309 2.56406 6.80071 2.00167 7.3997 1.60637C7.99868 1.21107 8.7005 1.00023 9.41817 1H26.5818C27.2993 1.00008 28.001 1.21064 28.5999 1.60561C29.1989 2.00057 29.6688 2.56257 29.9515 3.222L34.2048 13.1403C34.4003 13.5975 34.5007 14.0896 34.5 14.5868V26.6667M1.5 26.6667V31.0667C1.5 31.3584 1.61589 31.6382 1.82218 31.8445C2.02847 32.0508 2.30826 32.1667 2.6 32.1667H7.73333C8.02507 32.1667 8.30486 32.0508 8.51115 31.8445C8.71744 31.6382 8.83333 31.3584 8.83333 31.0667V26.6667M1.5 26.6667H8.83333M34.5 26.6667V31.0667C34.5 31.3584 34.3841 31.6382 34.1778 31.8445C33.9715 32.0508 33.6917 32.1667 33.4 32.1667H28.2667C28.1222 32.1667 27.9792 32.1382 27.8457 32.0829C27.7123 32.0277 27.591 31.9466 27.4888 31.8445C27.3867 31.7423 27.3057 31.6211 27.2504 31.4876C27.1951 31.3542 27.1667 31.2111 27.1667 31.0667V26.6667M34.5 26.6667H27.1667M8.83333 26.6667H27.1667" stroke="black" stroke-width="2" stroke-linecap="round"/>
</svg>
