<svg width="141" height="27" viewBox="0 0 141 27" fill="none" xmlns="http://www.w3.org/2000/svg">
<path d="M12.808 2.86595C13.006 2.2499 13.8777 2.2499 14.0756 2.86595L16.1238 9.23892C16.2123 9.51425 16.4684 9.70096 16.7576 9.70096L23.4008 9.70096C24.044 9.70096 24.3133 10.5225 23.795 10.9032L18.4079 14.8603C18.1772 15.0298 18.0806 15.3279 18.1682 15.6005L20.2229 21.9939C20.4205 22.6085 19.7153 23.1163 19.195 22.7341L13.836 18.7976C13.6014 18.6254 13.2822 18.6254 13.0477 18.7976L7.68867 22.7341C7.16837 23.1163 6.46322 22.6085 6.66075 21.9939L8.71544 15.6005C8.80305 15.3279 8.70653 15.0298 8.47575 14.8603L3.08873 10.9032C2.5704 10.5225 2.8397 9.70096 3.48284 9.70096L10.1261 9.70096C10.4153 9.70096 10.6714 9.51425 10.7599 9.23892L12.808 2.86595Z" fill="#36F8A3"/>
<path d="M41.4477 2.86571C41.6457 2.24965 42.5173 2.24965 42.7153 2.86571L44.7634 9.23867C44.8519 9.514 45.108 9.70071 45.3972 9.70071L52.0405 9.70071C52.6836 9.70071 52.9529 10.5222 52.4346 10.903L47.0476 14.86C46.8168 15.0295 46.7203 15.3276 46.8079 15.6003L48.8626 21.9936C49.0601 22.6083 48.355 23.1161 47.8347 22.7339L42.4756 18.7974C42.2411 18.6251 41.9219 18.6251 41.6874 18.7974L36.3283 22.7339C35.808 23.1161 35.1029 22.6083 35.3004 21.9936L37.3551 15.6003C37.4427 15.3276 37.3462 15.0295 37.1154 14.86L31.7284 10.903C31.21 10.5222 31.4793 9.70071 32.1225 9.70071L38.7658 9.70071C39.055 9.70071 39.3111 9.514 39.3996 9.23867L41.4477 2.86571Z" fill="#36F8A3"/>
<path d="M70.0868 2.86571C70.2848 2.24965 71.1565 2.24965 71.3545 2.86571L73.4026 9.23867C73.4911 9.514 73.7472 9.70071 74.0364 9.70071L80.6797 9.70071C81.3228 9.70071 81.5921 10.5222 81.0738 10.903L75.6867 14.86C75.456 15.0295 75.3594 15.3276 75.4471 15.6003L77.5017 21.9936C77.6993 22.6083 76.9941 23.1161 76.4738 22.7339L71.1148 18.7974C70.8803 18.6251 70.561 18.6251 70.3265 18.7974L64.9675 22.7339C64.4472 23.1161 63.742 22.6083 63.9396 21.9936L65.9943 15.6003C66.0819 15.3276 65.9853 15.0295 65.7546 14.86L60.3675 10.903C59.8492 10.5222 60.1185 9.70071 60.7616 9.70071L67.4049 9.70071C67.6941 9.70071 67.9502 9.514 68.0387 9.23867L70.0868 2.86571Z" fill="#36F8A3"/>
<path d="M98.727 2.86571C98.925 2.24965 99.7966 2.24965 99.9946 2.86571L102.043 9.23867C102.131 9.514 102.387 9.70071 102.677 9.70071L109.32 9.70071C109.963 9.70071 110.232 10.5222 109.714 10.903L104.327 14.86C104.096 15.0295 104 15.3276 104.087 15.6003L106.142 21.9936C106.339 22.6083 105.634 23.1161 105.114 22.7339L99.7549 18.7974C99.5204 18.6251 99.2012 18.6251 98.9667 18.7974L93.6076 22.7339C93.0873 23.1161 92.3822 22.6083 92.5797 21.9936L94.6344 15.6003C94.722 15.3276 94.6255 15.0295 94.3947 14.86L89.0077 10.903C88.4893 10.5222 88.7586 9.70071 89.4018 9.70071L96.0451 9.70071C96.3343 9.70071 96.5904 9.514 96.6789 9.23867L98.727 2.86571Z" fill="#36F8A3"/>
<path d="M127.366 2.86571C127.564 2.24965 128.436 2.24965 128.634 2.86571L130.682 9.23867C130.77 9.514 131.026 9.70071 131.316 9.70071L137.959 9.70071C138.602 9.70071 138.871 10.5222 138.353 10.903L132.966 14.86C132.735 15.0295 132.639 15.3276 132.726 15.6003L134.781 21.9936C134.979 22.6083 134.273 23.1161 133.753 22.7339L128.394 18.7974C128.16 18.6251 127.84 18.6251 127.606 18.7974L122.247 22.7339C121.726 23.1161 121.021 22.6083 121.219 21.9936L123.274 15.6003C123.361 15.3276 123.265 15.0295 123.034 14.86L117.647 10.903C117.129 10.5222 117.398 9.70071 118.041 9.70071L124.684 9.70071C124.973 9.70071 125.23 9.514 125.318 9.23867L127.366 2.86571Z" fill="#36F8A3"/>
</svg>
