<svg width="14" height="14" viewBox="0 0 14 14" fill="none" xmlns="http://www.w3.org/2000/svg">
<path d="M12.3475 4.66675C11.8932 3.62635 11.1452 2.74107 10.1953 2.1194C9.24539 1.49772 8.13475 1.16665 6.99948 1.16675C3.9749 1.16675 1.48698 3.46916 1.19531 6.41675" stroke="#989898" stroke-width="2" stroke-linecap="round" stroke-linejoin="round"/>
<path d="M9.91675 4.66667H12.4834C12.5294 4.66667 12.5749 4.65761 12.6174 4.64002C12.6598 4.62244 12.6984 4.59666 12.7309 4.56415C12.7634 4.53165 12.7892 4.49307 12.8068 4.45061C12.8244 4.40814 12.8334 4.36263 12.8334 4.31667V1.75M1.68066 9.33333C2.58133 11.3937 4.637 12.8333 7.02866 12.8333C10.0538 12.8333 12.5412 10.5309 12.8334 7.58333" stroke="#989898" stroke-width="2" stroke-linecap="round" stroke-linejoin="round"/>
<path d="M4.11198 9.33325H1.54531C1.45249 9.33325 1.36346 9.37013 1.29783 9.43576C1.23219 9.5014 1.19531 9.59043 1.19531 9.68325V12.2499" stroke="#989898" stroke-width="2" stroke-linecap="round" stroke-linejoin="round"/>
</svg>
