<svg width="34" height="34" viewBox="0 0 34 34" fill="none" xmlns="http://www.w3.org/2000/svg">
<path d="M19.868 5.66035C20.0603 4.55565 21.6461 4.55565 21.8384 5.66035L23.1388 13.1316C23.2045 13.5093 23.4804 13.8161 23.8489 13.9216L30.6099 15.8557C31.5765 16.1322 31.5765 17.5021 30.6099 17.7786L23.8489 19.7128C23.4804 19.8182 23.2045 20.1251 23.1388 20.5027L21.8384 27.974C21.6461 29.0787 20.0603 29.0787 19.868 27.974L18.5677 20.5027C18.5019 20.1251 18.2261 19.8182 17.8575 19.7128L11.0966 17.7786C10.1299 17.5021 10.1299 16.1323 11.0966 15.8557L17.8575 13.9216C18.2261 13.8161 18.5019 13.5093 18.5677 13.1316L19.868 5.66035Z" fill="#36F8A3"/>
<path d="M10.3606 21.6707C10.5065 20.8446 11.6918 20.8446 11.8377 21.6707L12.1831 23.6257C12.2332 23.9092 12.4411 24.139 12.7182 24.2171L14.9286 24.8402C15.6573 25.0456 15.6573 26.0785 14.9286 26.2839L12.7182 26.907C12.4411 26.9851 12.2332 27.2149 12.1831 27.4984L11.8377 29.4534C11.6918 30.2795 10.5065 30.2795 10.3606 29.4534L10.0152 27.4984C9.96512 27.2149 9.75719 26.9851 9.48011 26.907L7.26969 26.2839C6.54098 26.0785 6.54098 25.0456 7.26969 24.8402L9.48011 24.2171C9.75719 24.139 9.96512 23.9092 10.0152 23.6257L10.3606 21.6707Z" fill="#36F8A3"/>
<path d="M5.65195 4.85358C5.79788 4.02754 6.98316 4.02754 7.12908 4.85358L7.47446 6.80865C7.52454 7.09214 7.73247 7.32195 8.00955 7.40005L10.22 8.02309C10.9487 8.22849 10.9487 9.26144 10.22 9.46684L8.00955 10.0899C7.73246 10.168 7.52454 10.3978 7.47446 10.6813L7.12908 12.6363C6.98316 13.4624 5.79788 13.4624 5.65195 12.6364L5.30658 10.6813C5.2565 10.3978 5.04857 10.168 4.77149 10.0899L2.56107 9.46684C1.83236 9.26144 1.83236 8.22849 2.56107 8.02309L4.77149 7.40005C5.04857 7.32195 5.2565 7.09214 5.30658 6.80865L5.65195 4.85358Z" fill="#36F8A3"/>
</svg>
