<svg width="157" height="29" viewBox="0 0 157 29" fill="none" xmlns="http://www.w3.org/2000/svg">
<path d="M13.6176 1.954C13.8168 1.34066 14.6846 1.34066 14.8839 1.954L17.2748 9.31265C17.364 9.58695 17.6196 9.77266 17.908 9.77266H25.6453C26.2902 9.77266 26.5584 10.5979 26.0366 10.977L19.777 15.5249C19.5437 15.6944 19.446 15.9949 19.5351 16.2692L21.9261 23.6278C22.1254 24.2412 21.4234 24.7512 20.9017 24.3721L14.642 19.8243C14.4087 19.6547 14.0927 19.6547 13.8594 19.8243L7.59976 24.3721C7.07802 24.7512 6.37602 24.2412 6.57531 23.6278L8.96628 16.2692C9.0554 15.9949 8.95776 15.6944 8.72443 15.5249L2.46479 10.977C1.94305 10.5979 2.21119 9.77266 2.8561 9.77266H10.5934C10.8819 9.77266 11.1375 9.58695 11.2266 9.31265L13.6176 1.954Z" fill="#36F8A3"/>
<path d="M45.7297 1.95351C45.929 1.34017 46.7968 1.34017 46.996 1.95351L49.387 9.31216C49.4761 9.58646 49.7317 9.77217 50.0202 9.77217H57.7575C58.4024 9.77217 58.6706 10.5974 58.1488 10.9765L51.8892 15.5244C51.6558 15.6939 51.5582 15.9944 51.6473 16.2687L54.0383 23.6273C54.2376 24.2407 53.5356 24.7507 53.0138 24.3717L46.7542 19.8238C46.5209 19.6542 46.2049 19.6542 45.9716 19.8238L39.7119 24.3717C39.1902 24.7507 38.4882 24.2407 38.6875 23.6273L41.0785 16.2687C41.1676 15.9944 41.0699 15.6939 40.8366 15.5244L34.577 10.9765C34.0552 10.5974 34.3234 9.77217 34.9683 9.77217H42.7056C42.994 9.77217 43.2496 9.58646 43.3388 9.31216L45.7297 1.95351Z" fill="#36F8A3"/>
<path d="M77.842 1.95351C78.0413 1.34017 78.9091 1.34017 79.1083 1.95351L81.4993 9.31216C81.5884 9.58646 81.8441 9.77217 82.1325 9.77217H89.8698C90.5147 9.77217 90.7829 10.5974 90.2611 10.9765L84.0015 15.5244C83.7681 15.6939 83.6705 15.9944 83.7596 16.2687L86.1506 23.6273C86.3499 24.2407 85.6479 24.7507 85.1261 24.3717L78.8665 19.8238C78.6332 19.6542 78.3172 19.6542 78.0839 19.8238L71.8242 24.3717C71.3025 24.7507 70.6005 24.2407 70.7998 23.6273L73.1908 16.2687C73.2799 15.9944 73.1823 15.6939 72.9489 15.5244L66.6893 10.9765C66.1675 10.5974 66.4357 9.77217 67.0806 9.77217H74.8179C75.1063 9.77217 75.362 9.58646 75.4511 9.31216L77.842 1.95351Z" fill="#36F8A3"/>
<path d="M109.954 1.954C110.153 1.34066 111.021 1.34066 111.22 1.954L113.611 9.31265C113.7 9.58695 113.956 9.77266 114.244 9.77266H121.982C122.627 9.77266 122.895 10.5979 122.373 10.977L116.113 15.5249C115.88 15.6944 115.782 15.9949 115.871 16.2692L118.262 23.6278C118.462 24.2412 117.76 24.7512 117.238 24.3721L110.978 19.8243C110.745 19.6547 110.429 19.6547 110.196 19.8243L103.936 24.3721C103.414 24.7512 102.712 24.2412 102.912 23.6278L105.303 16.2692C105.392 15.9949 105.294 15.6944 105.061 15.5249L98.8011 10.977C98.2794 10.5979 98.5475 9.77266 99.1924 9.77266H106.93C107.218 9.77266 107.474 9.58695 107.563 9.31265L109.954 1.954Z" fill="#36F8A3"/>
<path d="M142.421 1.95351C142.62 1.34017 143.488 1.34017 143.687 1.95351L146.078 9.31216C146.167 9.58646 146.423 9.77217 146.712 9.77217H154.449C155.094 9.77217 155.362 10.5974 154.84 10.9765L148.581 15.5244C148.347 15.6939 148.25 15.9944 148.339 16.2687L150.73 23.6273C150.929 24.2407 150.227 24.7507 149.705 24.3717L143.446 19.8238C143.212 19.6542 142.896 19.6542 142.663 19.8238L136.403 24.3717C135.882 24.7507 135.18 24.2407 135.379 23.6273L137.77 16.2687C137.859 15.9944 137.761 15.6939 137.528 15.5244L131.268 10.9765C130.747 10.5974 131.015 9.77217 131.66 9.77217H139.397C139.685 9.77217 139.941 9.58646 140.03 9.31216L142.421 1.95351Z" fill="#E3E3E3"/>
<path fill-rule="evenodd" clip-rule="evenodd" d="M144.296 3.82679L143.687 1.95415C143.488 1.3408 142.62 1.3408 142.421 1.95415L140.03 9.3128C139.941 9.5871 139.685 9.77281 139.397 9.77281H131.66C131.015 9.77281 130.747 10.5981 131.268 10.9771L137.528 15.525C137.761 15.6945 137.859 15.995 137.77 16.2693L135.379 23.628C135.179 24.2413 135.881 24.7514 136.403 24.3723L142.663 19.8244C142.896 19.6549 143.212 19.6549 143.445 19.8244L144.296 20.4422V3.82679Z" fill="#36F8A3"/>
</svg>
