<svg width="27" height="20" viewBox="0 0 27 20" fill="none" xmlns="http://www.w3.org/2000/svg">
<path d="M1 6.68506L1 2.41887C1 2.2192 1.07932 2.02771 1.22051 1.88652C1.36169 1.74533 1.55319 1.66602 1.75286 1.66602L25.3424 1.66602C25.542 1.66602 25.7335 1.74533 25.8747 1.88652C26.0159 2.02771 26.0952 2.2192 26.0952 2.41887L26.0952 18.4798C26.0952 18.6795 26.0159 18.871 25.8747 19.0122C25.7335 19.1533 25.542 19.2327 25.3424 19.2327L1.75286 19.2327C1.55319 19.2327 1.36169 19.1533 1.22051 19.0122C1.07932 18.871 1 18.6795 1 18.4798L1 6.68506ZM1 6.68506L7.03465 6.68506" stroke="black" stroke-width="1.5" stroke-linecap="round" stroke-linejoin="round"/>
<path d="M14.7324 19.4294L14.7324 16.2529C14.7324 13.1939 11.1796 12.7496 11.1796 10.1772L11.1796 1.66551" stroke="black" stroke-width="1.5" stroke-miterlimit="10"/>
<path d="M21.1273 8.771H17.8114C17.419 8.771 17.1008 9.00959 17.1008 9.30391V11.7909C17.1008 12.0852 17.419 12.3238 17.8114 12.3238H21.1273C21.5198 12.3238 21.8379 12.0852 21.8379 11.7909V9.30391C21.8379 9.00959 21.5198 8.771 21.1273 8.771Z" fill="black"/>
</svg>
