<svg width="28" height="25" viewBox="0 0 28 25" fill="none" xmlns="http://www.w3.org/2000/svg">
<circle cx="9.72329" cy="9.53396" r="1.78396" stroke="black" stroke-width="1.5"/>
<circle cx="16.2638" cy="15.4805" r="1.78396" stroke="black" stroke-width="1.5"/>
<path d="M7.93933 17.5618L17.7511 7.75" stroke="black" stroke-width="1.5" stroke-linecap="round"/>
<path d="M23.5509 8.72063C22.7642 6.69882 21.4136 4.94541 19.6595 3.66884C17.9054 2.39226 15.8217 1.64621 13.656 1.51938C11.4902 1.39254 9.33362 1.89025 7.44251 2.95335C5.5514 4.01644 4.00533 5.6002 2.98807 7.51636C1.97082 9.43252 1.52518 11.6005 1.70413 13.7625C1.88308 15.9246 2.67908 17.9898 3.99752 19.7126C5.31597 21.4354 7.10139 22.7435 9.14154 23.4812C11.1817 24.2189 13.3908 24.3553 15.5062 23.8741L15.4992 23.8433C13.3897 24.3232 11.1868 24.1872 9.15228 23.4515C7.1178 22.7158 5.33736 21.4115 4.02259 19.6934C2.70782 17.9754 1.91403 15.9159 1.73559 13.7599C1.55714 11.6039 2.00154 9.44198 3.01595 7.53116C4.03037 5.62034 5.57214 4.04099 7.45798 2.98086C9.34382 1.92073 11.4944 1.4244 13.6541 1.55089C15.8138 1.67737 17.8918 2.42134 19.641 3.69436C21.3902 4.96738 22.737 6.7159 23.5215 8.73207L23.5509 8.72063Z" stroke="black" stroke-width="1.5" stroke-linejoin="round"/>
<circle cx="21.5874" cy="17.5156" r="5.07812" fill="white" stroke="black" stroke-width="1.5" stroke-linejoin="round"/>
<path d="M19.6343 15.5625L23.5405 19.4687" stroke="black" stroke-width="1.5" stroke-linecap="round" stroke-linejoin="round"/>
<path d="M23.5405 15.5625L19.6343 19.4687" stroke="black" stroke-width="1.5" stroke-linecap="round" stroke-linejoin="round"/>
</svg>
