<svg width="21" height="19" viewBox="0 0 21 19" fill="none" xmlns="http://www.w3.org/2000/svg">
<g opacity="0.8">
<path d="M13.6316 1H1V13.1236H13.6316V1Z" stroke="black" stroke-width="2" stroke-linecap="round" stroke-linejoin="round"/>
<path d="M13.6309 5.66284H16.9993L19.5256 8.46061V13.1236H13.6309V5.66284Z" stroke="black" stroke-width="2" stroke-linecap="round" stroke-linejoin="round"/>
<path d="M4.78886 17.7867C5.95156 17.7867 6.89412 16.7429 6.89412 15.4553C6.89412 14.1676 5.95156 13.1238 4.78886 13.1238C3.62615 13.1238 2.68359 14.1676 2.68359 15.4553C2.68359 16.7429 3.62615 17.7867 4.78886 17.7867Z" stroke="black" stroke-width="2" stroke-linecap="round" stroke-linejoin="round"/>
<path d="M15.7361 17.7867C16.8988 17.7867 17.8414 16.7429 17.8414 15.4553C17.8414 14.1676 16.8988 13.1238 15.7361 13.1238C14.5734 13.1238 13.6309 14.1676 13.6309 15.4553C13.6309 16.7429 14.5734 17.7867 15.7361 17.7867Z" stroke="black" stroke-width="2" stroke-linecap="round" stroke-linejoin="round"/>
</g>
</svg>
