<svg width="22" height="18" viewBox="0 0 22 18" fill="none" xmlns="http://www.w3.org/2000/svg">
<path d="M20.6829 1.85767V7.016H15.3145" stroke="black" stroke-width="2" stroke-linecap="round" stroke-linejoin="round"/>
<path d="M1 15.6129V10.4546H6.36842" stroke="black" stroke-width="2" stroke-linecap="round" stroke-linejoin="round"/>
<path d="M1 10.4549L5.15158 14.2032C6.11319 15.1277 7.30286 15.803 8.60956 16.1662C9.91627 16.5293 11.2974 16.5685 12.6242 16.2801C13.9509 15.9917 15.18 15.385 16.1967 14.5167C17.2134 13.6484 17.9846 12.5467 18.4384 11.3146M3.24579 6.15627C3.69957 4.92411 4.4708 3.82249 5.48752 2.95418C6.50424 2.08588 7.73331 1.47921 9.06004 1.19076C10.3868 0.902323 11.7679 0.941518 13.0746 1.30469C14.3813 1.66786 15.571 2.34318 16.5326 3.26762L20.6842 7.01599L3.24579 6.15627Z" stroke="black" stroke-width="2" stroke-linecap="round" stroke-linejoin="round"/>
</svg>
