<svg width="100" height="60" viewBox="0 0 100 60" fill="none" xmlns="http://www.w3.org/2000/svg">
<path d="M2.93479 57.2944C2.80784 57.2952 2.68202 57.2744 2.56509 57.2333C2.34006 57.1502 2.16296 56.9974 2.0715 56.8074C1.98004 56.6174 1.98144 56.4052 2.07541 56.2161C2.07541 56.2161 2.35452 55.6729 2.92745 54.7614C2.98403 54.67 3.06185 54.5889 3.15641 54.5227C3.25096 54.4565 3.36038 54.4065 3.47832 54.3757C3.59626 54.3448 3.7204 54.3337 3.84354 54.343C3.96668 54.3523 4.08638 54.3818 4.19572 54.4297C4.41682 54.5255 4.58308 54.6904 4.65792 54.888C4.73276 55.0856 4.71006 55.2999 4.59481 55.4836C4.0733 56.3158 3.81377 56.8142 3.80643 56.8305C3.7317 56.9702 3.60928 57.0886 3.45435 57.1711C3.29941 57.2536 3.11877 57.2964 2.93479 57.2944Z" fill="url(#paint0_linear_570_4221)"/>
<path d="M3.32069 55.8072C3.21086 55.7603 3.11328 55.6958 3.03357 55.6175C2.95386 55.5391 2.89361 55.4484 2.85628 55.3505C2.81895 55.2527 2.80529 55.1497 2.81608 55.0474C2.82687 54.9452 2.8619 54.8457 2.91916 54.7548C2.97578 54.6637 3.05347 54.5827 3.14778 54.5166C3.24208 54.4505 3.35116 54.4005 3.46875 54.3695C3.58633 54.3385 3.71013 54.3271 3.83303 54.3359C3.95593 54.3447 4.07554 54.3736 4.18498 54.421C4.29504 54.4676 4.39286 54.532 4.47275 54.6104C4.55265 54.6887 4.61302 54.7795 4.65038 54.8774C4.68774 54.9753 4.70133 55.0784 4.69036 55.1807C4.6794 55.283 4.6441 55.3825 4.58652 55.4734C4.50573 55.5993 4.3844 55.7041 4.23609 55.776C4.08778 55.8479 3.91834 55.8841 3.74672 55.8805C3.59954 55.8864 3.45297 55.8612 3.32069 55.8072Z" fill="url(#paint1_linear_570_4221)"/>
<path d="M5.66397 53.1285C5.49151 53.127 5.32259 53.0877 5.17429 53.0145C4.96208 52.9039 4.81126 52.7278 4.75482 52.525C4.69839 52.3222 4.74093 52.109 4.87313 51.9322C5.56358 51.0247 6.303 50.1194 7.07669 49.2445C7.23042 49.0837 7.45161 48.9772 7.69591 48.9463C7.9402 48.9153 8.18954 48.9623 8.39393 49.0777C8.51091 49.151 8.60661 49.2451 8.67398 49.3532C8.74136 49.4613 8.77869 49.5806 8.78323 49.7023C8.78413 49.8713 8.71786 50.0358 8.5947 50.1702C7.86018 51.0146 7.14035 51.8894 6.48908 52.7541C6.48696 52.7554 6.48438 52.7561 6.48173 52.7561C6.47908 52.7561 6.47651 52.7554 6.47439 52.7541C6.39123 52.8661 6.2748 52.9584 6.13631 53.0222C5.99781 53.0859 5.84189 53.1191 5.68355 53.1183L5.66397 53.1285ZM10.2033 47.9933C9.97893 47.9902 9.7624 47.9242 9.58875 47.8061C9.48249 47.7314 9.39797 47.6377 9.34157 47.532C9.28517 47.4263 9.25835 47.3113 9.26311 47.1957C9.26226 47.0147 9.34257 46.8399 9.48837 46.7054C10.3282 45.8916 11.2022 45.1022 12.1082 44.3514L12.1449 44.3209H12.1596C12.3397 44.1854 12.574 44.1103 12.817 44.1103C13.06 44.1103 13.2943 44.1854 13.4744 44.3209C13.5635 44.3918 13.6349 44.4767 13.6845 44.5706C13.734 44.6645 13.7608 44.7657 13.7633 44.8682C13.7645 44.9712 13.7406 45.0733 13.6931 45.1684C13.6455 45.2635 13.5753 45.3496 13.4866 45.4216C12.5978 46.1601 11.7433 46.9312 10.9305 47.7125C10.8402 47.7962 10.7301 47.8634 10.6071 47.91C10.484 47.9565 10.3507 47.9814 10.2155 47.9831L10.2033 47.9933ZM15.6436 43.5051C15.504 43.5041 15.3663 43.4784 15.2396 43.4297C15.1129 43.3809 15.0002 43.3102 14.9091 43.2222C14.7694 43.0822 14.694 42.9056 14.6961 42.7238C14.6957 42.6102 14.7253 42.498 14.7828 42.3949C14.8404 42.2919 14.9244 42.2007 15.0291 42.1277H15.0413L15.0928 42.0951C16.0942 41.4074 17.1347 40.7523 18.163 40.1582C18.3726 40.0467 18.6254 40.0057 18.8701 40.0435C19.1147 40.0813 19.3329 40.195 19.4803 40.3617C19.5785 40.4881 19.6335 40.6344 19.6394 40.7849C19.6407 40.9142 19.6037 41.0418 19.5315 41.1565C19.4593 41.2711 19.3543 41.3692 19.2257 41.442C18.212 42.0239 17.2082 42.6505 16.2435 43.3158C16.0783 43.4313 15.8693 43.4947 15.6534 43.4949L15.6436 43.5051ZM69.5476 42.0361C68.4328 42.0329 67.3192 41.9738 66.2129 41.8591H66.2007C65.9767 41.8342 65.7706 41.744 65.619 41.6047C65.4675 41.4654 65.3804 41.2859 65.3731 41.0982C65.3731 41.0555 65.3853 41.0148 65.3853 40.972C65.4003 40.8704 65.4397 40.7722 65.5011 40.6833C65.5625 40.5945 65.6447 40.5168 65.7428 40.4548C65.8409 40.3928 65.953 40.3477 66.0724 40.3223C66.1919 40.2969 66.3162 40.2916 66.4381 40.3067C67.6599 40.4368 68.8915 40.4925 70.123 40.4736H70.1499C70.3973 40.4709 70.6359 40.55 70.8131 40.6934C70.9904 40.8369 71.0918 41.033 71.095 41.2386C71.0983 41.4441 71.0031 41.6424 70.8304 41.7897C70.6578 41.9369 70.4218 42.0212 70.1744 42.0239C69.9614 42.0361 69.7606 42.0361 69.5476 42.0361ZM73.9352 41.6699C73.7193 41.6692 73.5104 41.6067 73.3436 41.493C73.1768 41.3792 73.0623 41.2211 73.0194 41.0453C73.0052 40.9938 72.997 40.9414 72.995 40.8886C72.9958 40.7095 73.0711 40.5362 73.2081 40.3979C73.3451 40.2596 73.5353 40.1649 73.7466 40.1297C74.9261 39.9226 76.0801 39.6257 77.194 39.2427C77.194 39.2325 77.2062 39.2325 77.2209 39.2325C77.4517 39.1568 77.709 39.159 77.9377 39.2389C78.1665 39.3187 78.3486 39.4698 78.4451 39.6598C78.4951 39.7554 78.5209 39.8586 78.521 39.9629C78.5195 40.1151 78.4654 40.2637 78.3652 40.391C78.2649 40.5184 78.1227 40.6191 77.9554 40.6811C77.9432 40.6811 77.9309 40.6811 77.9187 40.6811C76.698 41.1077 75.4292 41.4321 74.131 41.6495C74.0691 41.6613 74.006 41.6681 73.9425 41.6699H73.9352ZM62.5525 41.2426C62.4769 41.2409 62.4016 41.2341 62.3273 41.2223H62.3126H62.2881C61.0291 40.9412 59.7878 40.6078 58.569 40.2233C58.3903 40.1651 58.2373 40.063 58.1301 39.9307C58.023 39.7985 57.9668 39.6422 57.9691 39.4827C57.9717 39.3904 57.9923 39.299 58.0303 39.2121C58.1217 39.0221 58.2986 38.869 58.5235 38.7855C58.7484 38.7019 59.0035 38.6944 59.235 38.7645C60.4371 39.1287 61.6148 39.4522 62.7704 39.7025H62.8072C63.0057 39.7459 63.1812 39.8431 63.3058 39.9787C63.4304 40.1143 63.497 40.2806 63.4952 40.4512C63.494 40.5195 63.4858 40.5875 63.4707 40.6546C63.4183 40.8223 63.3 40.9707 63.1345 41.0761C62.969 41.1815 62.7659 41.238 62.5574 41.2365L62.5525 41.2426ZM21.9605 39.91C21.7921 39.907 21.6275 39.868 21.4825 39.7968C21.3375 39.7255 21.2171 39.6243 21.133 39.5031C21.0149 39.3205 20.9883 39.1065 21.0589 38.9077C21.1295 38.7089 21.2916 38.5412 21.51 38.4411C22.6625 37.9162 23.8466 37.4409 25.0577 37.0169C25.2888 36.9438 25.5448 36.9474 25.7727 37.0269C26.0007 37.1065 26.183 37.2559 26.2819 37.4441C26.3317 37.5392 26.3575 37.6416 26.3578 37.7452C26.3571 37.8986 26.3025 38.0485 26.2008 38.1764C26.099 38.3044 25.9545 38.4048 25.7849 38.4655C24.6312 38.8592 23.5055 39.3075 22.4135 39.8083C22.2755 39.8739 22.1195 39.9089 21.9605 39.91ZM80.967 39.2325C80.812 39.2336 80.6592 39.2016 80.5233 39.1397C80.3874 39.0777 80.2729 38.9878 80.1908 38.8785C80.0806 38.7513 80.023 38.5978 80.0268 38.4411C80.0295 38.3143 80.0698 38.1901 80.1441 38.0793C80.2184 37.9686 80.3245 37.8748 80.4528 37.8063C81.4776 37.2432 82.4462 36.6124 83.3493 35.9202C83.5366 35.7869 83.7776 35.7173 84.0241 35.7252C84.2705 35.7331 84.5043 35.8181 84.6787 35.963C84.8392 36.1074 84.9269 36.2975 84.9236 36.494C84.9214 36.5996 84.8936 36.7038 84.8419 36.8003C84.7901 36.8968 84.7155 36.9836 84.6224 37.0555L84.5857 37.0881C83.6165 37.827 82.5766 38.4993 81.4762 39.0982C81.3227 39.1813 81.1428 39.2245 80.9596 39.2223L80.967 39.2325ZM55.3567 39.088C55.2453 39.0862 55.1351 39.0683 55.0311 39.0351H55.0164C55.0041 39.0351 54.9919 39.0351 54.9796 39.0351C53.8142 38.6608 52.6243 38.3169 51.4564 38.0179C51.2639 37.9686 51.0955 37.8693 50.976 37.7345C50.8565 37.5997 50.7924 37.4366 50.7929 37.2692C50.793 37.1915 50.8054 37.1142 50.8296 37.0392C50.9047 36.8416 51.0701 36.6763 51.2904 36.5789C51.5106 36.4815 51.768 36.4598 52.0073 36.5184C53.2315 36.8317 54.4557 37.1857 55.6799 37.5804C55.7961 37.6173 55.9023 37.673 55.9925 37.7443C56.0826 37.8156 56.1548 37.901 56.2049 37.9956C56.255 38.0902 56.282 38.1922 56.2843 38.2955C56.2867 38.3989 56.2643 38.5016 56.2185 38.5977C56.1513 38.7451 56.0317 38.8719 55.8755 38.9614C55.7194 39.0508 55.5341 39.0985 55.3445 39.0982L55.3567 39.088ZM29.0437 37.4726C28.8399 37.4742 28.6411 37.4201 28.4779 37.3186C28.3147 37.2172 28.1961 37.074 28.1403 36.9111C28.1093 36.8373 28.0968 36.7591 28.1036 36.6812C28.1059 36.5139 28.1728 36.3516 28.2945 36.2183C28.4161 36.085 28.5861 35.9876 28.7793 35.9406C30.0414 35.6398 31.3222 35.396 32.616 35.2102C32.8615 35.1774 33.1129 35.2253 33.3167 35.3438C33.5205 35.4623 33.6608 35.642 33.7079 35.845C33.7079 35.8979 33.7202 35.9284 33.7202 35.9711C33.7241 36.1587 33.6461 36.3412 33.5008 36.4848C33.3554 36.6284 33.1525 36.7234 32.9293 36.7524C31.706 36.9245 30.496 37.1569 29.3057 37.4482H29.2812C29.2014 37.4657 29.1188 37.4725 29.0364 37.4685L29.0437 37.4726ZM48.009 37.2224C47.942 37.2256 47.8748 37.2187 47.8107 37.202C46.5694 36.9721 45.328 36.7951 44.1112 36.6507C43.8887 36.6254 43.6844 36.5348 43.5353 36.3952C43.3862 36.2556 43.3021 36.0763 43.2983 35.8897C43.2963 35.8474 43.3004 35.8051 43.3106 35.7636C43.3476 35.5627 43.4765 35.3815 43.6703 35.2575C43.8641 35.1336 44.108 35.0766 44.3511 35.0983C44.3781 35.0983 44.4026 35.0983 44.427 35.0983C45.6512 35.2427 46.922 35.432 48.2147 35.67C48.427 35.7095 48.6163 35.809 48.7502 35.9514C48.8842 36.0939 48.9545 36.2705 48.9492 36.4513C48.9472 36.504 48.939 36.5565 48.9247 36.6079C48.8792 36.7818 48.7631 36.9373 48.596 37.0485C48.4288 37.1596 48.2207 37.2196 48.0066 37.2183L48.009 37.2224ZM36.5775 36.4085C36.34 36.4078 36.1117 36.3319 35.9393 36.1961C35.7669 36.0604 35.6632 35.8752 35.6495 35.6781V35.6374C35.6428 35.4348 35.7313 35.238 35.8963 35.0887C36.0613 34.9394 36.2899 34.8494 36.5334 34.8379C37.8359 34.7748 39.1654 34.7646 40.3945 34.8053H40.4802C40.7182 34.8197 40.9409 34.9081 41.1038 35.0529C41.2668 35.1977 41.358 35.3883 41.3592 35.5866V35.6171C41.3542 35.7197 41.3248 35.8205 41.2728 35.9137C41.2209 36.0069 41.1473 36.0907 41.0563 36.1602C40.9654 36.2298 40.8588 36.2837 40.7427 36.319C40.6266 36.3543 40.5033 36.3702 40.3798 36.3658C39.1354 36.3244 37.8892 36.3353 36.646 36.3984L36.5775 36.4085ZM86.5958 34.9701C86.3804 34.9698 86.1718 34.9072 86.0058 34.7931C85.9077 34.7288 85.8264 34.6487 85.7668 34.5575C85.7072 34.4663 85.6705 34.3659 85.6591 34.2626C85.6476 34.1592 85.6616 34.055 85.7002 33.9563C85.7387 33.8576 85.801 33.7664 85.8833 33.6884C86.6724 32.8897 87.408 32.0556 88.0869 31.1899C88.2292 31.0222 88.4424 30.9053 88.6839 30.8627C88.9255 30.8201 89.1775 30.8548 89.3895 30.96C89.5157 31.032 89.6193 31.1282 89.6913 31.2404C89.7633 31.3527 89.8017 31.4778 89.8032 31.605C89.8163 31.7561 89.7681 31.9066 89.6661 32.0322C89.6567 32.048 89.6443 32.0624 89.6294 32.075C88.9295 32.9754 88.1676 33.8416 87.3475 34.669H87.3352C87.2454 34.758 87.133 34.8294 87.0059 34.878C86.8789 34.9265 86.7405 34.951 86.6007 34.9498L86.5958 34.9701ZM90.8218 29.6477C90.6695 29.6455 90.5195 29.6171 90.3811 29.5643C90.2323 29.4971 90.1083 29.3977 90.0221 29.2766C89.9359 29.1555 89.8907 29.0173 89.8914 28.8766C89.8894 28.7459 89.9282 28.6169 90.004 28.5023C90.5794 27.6051 91.1303 26.657 91.6469 25.6783C91.7561 25.4954 91.9441 25.3532 92.1736 25.2801C92.4031 25.207 92.6573 25.2082 92.8858 25.2836C93.0544 25.346 93.1969 25.4484 93.2954 25.5781C93.3939 25.7077 93.4439 25.8587 93.4391 26.012C93.4387 26.1156 93.4129 26.2181 93.3632 26.3131C92.8246 27.3446 92.2467 28.3253 91.6493 29.2408H91.6371C91.5595 29.364 91.4426 29.4671 91.2992 29.5389C91.1559 29.6107 90.9916 29.6483 90.8242 29.6477H90.8218ZM93.9288 23.8167C93.8174 23.8149 93.7072 23.797 93.6031 23.7638C93.4866 23.7299 93.3796 23.6768 93.2884 23.6077C93.1971 23.5386 93.1236 23.4549 93.0722 23.3617C93.0207 23.2684 92.9925 23.1675 92.9891 23.0649C92.9856 22.9624 93.0071 22.8603 93.0523 22.7649C93.4783 21.774 93.8921 20.7751 94.2544 19.7741C94.3317 19.5776 94.4974 19.4136 94.717 19.3165C94.9366 19.2194 95.1929 19.1967 95.4321 19.2532C95.6253 19.3025 95.7943 19.4021 95.9142 19.5373C96.0341 19.6724 96.0986 19.836 96.0981 20.004C96.0981 20.0811 96.0849 20.1578 96.0589 20.2318C95.6598 21.3264 95.246 22.3152 94.82 23.2837V23.2938C94.7522 23.4453 94.6308 23.5762 94.4717 23.6692C94.3126 23.7622 94.1233 23.8129 93.9288 23.8147V23.8167ZM96.2107 17.7131C96.1283 17.7165 96.0458 17.7096 95.9659 17.6927C95.7646 17.6473 95.5869 17.5482 95.46 17.4108C95.3331 17.2733 95.2639 17.1051 95.2632 16.9318C95.2659 16.8635 95.2749 16.7955 95.2901 16.7283C95.6035 15.7396 95.9046 14.708 96.1666 13.6562C96.2261 13.4552 96.3768 13.2812 96.5872 13.1705C96.7975 13.0598 97.0513 13.0209 97.2953 13.0621C97.5053 13.1016 97.6927 13.1996 97.8264 13.3399C97.96 13.4802 98.0318 13.6543 98.0299 13.8332C98.0279 13.8861 98.0189 13.9386 98.0029 13.9898C97.7409 15.0315 97.4398 16.0834 97.1142 17.1251C97.0594 17.2921 96.9401 17.4395 96.7747 17.5446C96.6092 17.6498 96.4067 17.7068 96.1985 17.707L96.2107 17.7131ZM97.8389 11.4751C97.7846 11.4771 97.7302 11.473 97.6773 11.4629C97.4635 11.432 97.2691 11.3405 97.1272 11.2041C96.9853 11.0676 96.9045 10.8945 96.8987 10.7142C96.8963 10.6617 96.9012 10.6091 96.9134 10.5576C97.1386 9.52604 97.3394 8.47418 97.5132 7.43249C97.5289 7.33097 97.5686 7.23303 97.6302 7.14437C97.6918 7.05571 97.7739 6.97808 97.8718 6.916C97.9698 6.85392 98.0816 6.80862 98.2007 6.78273C98.3199 6.75683 98.4441 6.75086 98.5661 6.76516C98.7888 6.79036 98.9934 6.88089 99.1429 7.02043C99.2924 7.15996 99.377 7.33929 99.3814 7.52608C99.3834 7.56098 99.3793 7.59594 99.3691 7.62985V7.68275L99.3569 7.70309C99.1928 8.6817 98.9921 9.73764 98.7668 10.8282C98.7269 11.0089 98.6124 11.1724 98.443 11.2905C98.2737 11.4086 98.06 11.4739 97.8389 11.4751ZM98.8941 5.15177C98.8672 5.15177 98.8305 5.14159 98.806 5.14159C98.5759 5.12007 98.363 5.03017 98.2064 4.88847C98.0498 4.74677 97.9602 4.56281 97.954 4.3705C97.954 4.33795 97.9662 4.3176 97.9662 4.28708V4.24435C97.9945 4.04046 98.1183 3.85403 98.3107 3.72535C98.5031 3.59667 98.7488 3.53608 98.9945 3.55668C99.1169 3.56517 99.2358 3.59469 99.3437 3.64338C99.4516 3.69206 99.5461 3.75884 99.6213 3.83948C99.7015 3.91786 99.7617 4.00894 99.7983 4.1072C99.8349 4.20547 99.8472 4.30888 99.8343 4.41119V4.43153C99.8125 4.62675 99.7043 4.80829 99.5306 4.94098C99.3569 5.07366 99.1301 5.14805 98.8941 5.14973V5.15177Z" fill="url(#paint2_linear_570_4221)"/>
<path d="M98.905 5.11217H98.8119C98.5639 5.09209 98.3357 4.99103 98.1773 4.83119C98.0189 4.67135 97.9433 4.46579 97.9672 4.25969C98.0823 3.29735 98.119 2.74396 98.119 2.73582C98.1263 2.63335 98.1577 2.53308 98.2116 2.44071C98.2654 2.34835 98.3407 2.26571 98.433 2.19751C98.5253 2.12931 98.6329 2.07688 98.7496 2.04322C98.8662 2.00956 98.9898 1.99533 99.1131 2.00134C99.2364 2.00735 99.3571 2.03349 99.4682 2.07826C99.5794 2.12302 99.6788 2.18554 99.7609 2.26224C99.843 2.33895 99.906 2.42833 99.9466 2.5253C99.9871 2.62226 100.004 2.7249 99.9969 2.82737C99.9969 2.82737 99.9578 3.40111 99.8378 4.41228C99.8153 4.60494 99.7073 4.78374 99.5349 4.91387C99.3624 5.044 99.1379 5.11613 98.905 5.11624V5.11217Z" fill="url(#paint3_linear_570_4221)"/>
<path d="M2.43268 58.5551C2.30479 58.555 2.17824 58.5336 2.06052 58.4921C1.9145 58.4391 1.78698 58.3563 1.68981 58.2513C1.59264 58.1464 1.52898 58.0227 1.50473 57.8919L0.0112088 49.8391C-0.026954 49.6356 0.0331894 49.4277 0.17855 49.2608C0.323911 49.0939 0.54272 48.9815 0.787351 48.948C1.03358 48.9176 1.28433 48.9691 1.48512 49.0914C1.68592 49.2136 1.82054 49.3968 1.85975 49.6011L3.12557 56.4209L9.94192 52.5044C10.0436 52.4458 10.1583 52.4046 10.2793 52.3832C10.4002 52.3617 10.5252 52.3604 10.6468 52.3793C10.7684 52.3982 10.8842 52.437 10.9877 52.4934C11.0911 52.5498 11.1801 52.6227 11.2494 52.7079C11.3192 52.7925 11.3682 52.8878 11.3937 52.9883C11.4192 53.0887 11.4206 53.1923 11.3979 53.2932C11.3751 53.3941 11.3287 53.4903 11.2612 53.5763C11.1937 53.6623 11.1065 53.7364 11.0045 53.7943L2.96398 58.4168C2.80521 58.5068 2.61752 58.555 2.42533 58.5551H2.43268Z" fill="url(#paint4_linear_570_4221)"/>
<defs>
<linearGradient id="paint0_linear_570_4221" x1="2.50966" y1="54.973" x2="5.09835" y2="57.2169" gradientUnits="userSpaceOnUse">
<stop stop-color="#87F5FC"/>
<stop offset="0.729167" stop-color="#35C6BB"/>
<stop offset="1" stop-color="#72F7FF"/>
</linearGradient>
<linearGradient id="paint1_linear_570_4221" x1="3.16529" y1="54.6648" x2="4.52181" y2="56.23" gradientUnits="userSpaceOnUse">
<stop stop-color="#87F5FC"/>
<stop offset="0.729167" stop-color="#35C6BB"/>
<stop offset="1" stop-color="#72F7FF"/>
</linearGradient>
<linearGradient id="paint2_linear_570_4221" x1="22.5634" y1="14.1761" x2="59.5847" y2="81.6127" gradientUnits="userSpaceOnUse">
<stop stop-color="#87F5FC"/>
<stop offset="0.729167" stop-color="#35C6BB"/>
<stop offset="1" stop-color="#72F7FF"/>
</linearGradient>
<linearGradient id="paint3_linear_570_4221" x1="98.3446" y1="2.66776" x2="100.816" y2="4.2004" gradientUnits="userSpaceOnUse">
<stop stop-color="#87F5FC"/>
<stop offset="0.729167" stop-color="#35C6BB"/>
<stop offset="1" stop-color="#72F7FF"/>
</linearGradient>
<linearGradient id="paint4_linear_570_4221" x1="2.14012" y1="51" x2="10.5906" y2="60.5242" gradientUnits="userSpaceOnUse">
<stop stop-color="#87F5FC"/>
<stop offset="0.729167" stop-color="#35C6BB"/>
<stop offset="1" stop-color="#72F7FF"/>
</linearGradient>
</defs>
</svg>
