<svg width="100" height="60" viewBox="0 0 100 60" fill="none" xmlns="http://www.w3.org/2000/svg">
<path d="M2.93479 57.2944C2.80784 57.2952 2.68202 57.2744 2.56509 57.2333C2.34006 57.1502 2.16296 56.9974 2.0715 56.8074C1.98004 56.6174 1.98144 56.4052 2.07541 56.2161C2.07541 56.2161 2.35452 55.6729 2.92745 54.7614C2.98403 54.67 3.06185 54.5889 3.15641 54.5227C3.25096 54.4565 3.36038 54.4065 3.47832 54.3757C3.59626 54.3448 3.7204 54.3337 3.84354 54.343C3.96668 54.3523 4.08638 54.3818 4.19572 54.4297C4.41682 54.5255 4.58308 54.6904 4.65792 54.888C4.73276 55.0856 4.71006 55.2999 4.59481 55.4836C4.0733 56.3158 3.81377 56.8142 3.80643 56.8305C3.7317 56.9702 3.60928 57.0886 3.45435 57.1711C3.29941 57.2536 3.11877 57.2964 2.93479 57.2944Z" fill="#FB7B76"/>
<path d="M3.32069 55.8077C3.21086 55.7608 3.11328 55.6963 3.03357 55.6179C2.95386 55.5396 2.89361 55.4488 2.85628 55.351C2.81895 55.2532 2.80529 55.1502 2.81608 55.0479C2.82687 54.9457 2.8619 54.8462 2.91916 54.7553C2.97578 54.6642 3.05347 54.5832 3.14778 54.5171C3.24208 54.451 3.35116 54.401 3.46875 54.37C3.58633 54.339 3.71013 54.3276 3.83303 54.3364C3.95593 54.3452 4.07554 54.3741 4.18498 54.4214C4.29504 54.4681 4.39286 54.5325 4.47275 54.6108C4.55265 54.6892 4.61302 54.78 4.65038 54.8779C4.68774 54.9758 4.70133 55.0789 4.69036 55.1812C4.6794 55.2835 4.6441 55.383 4.58652 55.4738C4.50573 55.5998 4.3844 55.7046 4.23609 55.7765C4.08778 55.8483 3.91834 55.8845 3.74672 55.881C3.59954 55.8869 3.45297 55.8616 3.32069 55.8077Z" fill="#FB7B76"/>
<path d="M5.66397 53.1287C5.49151 53.1272 5.32259 53.0879 5.17429 53.0148C4.96208 52.9041 4.81126 52.7281 4.75482 52.5252C4.69839 52.3224 4.74093 52.1092 4.87313 51.9324C5.56358 51.025 6.303 50.1196 7.07669 49.2448C7.23042 49.084 7.45161 48.9774 7.69591 48.9465C7.9402 48.9156 8.18954 48.9625 8.39393 49.0779C8.51091 49.1512 8.60661 49.2454 8.67398 49.3535C8.74136 49.4616 8.77869 49.5808 8.78323 49.7025C8.78413 49.8715 8.71786 50.036 8.5947 50.1705C7.86018 51.0148 7.14035 51.8897 6.48908 52.7543C6.48696 52.7557 6.48438 52.7564 6.48173 52.7564C6.47908 52.7564 6.47651 52.7557 6.47439 52.7543C6.39123 52.8663 6.2748 52.9586 6.13631 53.0224C5.99781 53.0862 5.84189 53.1193 5.68355 53.1185L5.66397 53.1287ZM10.2033 47.9935C9.97893 47.9904 9.7624 47.9244 9.58875 47.8063C9.48249 47.7317 9.39797 47.6379 9.34157 47.5322C9.28517 47.4265 9.25835 47.3115 9.26311 47.196C9.26226 47.0149 9.34257 46.8401 9.48837 46.7056C10.3282 45.8918 11.2022 45.1024 12.1082 44.3517L12.1449 44.3212H12.1596C12.3397 44.1856 12.574 44.1106 12.817 44.1106C13.06 44.1106 13.2943 44.1856 13.4744 44.3212C13.5635 44.3921 13.6349 44.4769 13.6845 44.5709C13.734 44.6648 13.7608 44.7659 13.7633 44.8684C13.7645 44.9714 13.7406 45.0735 13.6931 45.1687C13.6455 45.2638 13.5753 45.3499 13.4866 45.4218C12.5978 46.1604 11.7433 46.9315 10.9305 47.7127C10.8402 47.7964 10.7301 47.8636 10.6071 47.9102C10.484 47.9568 10.3507 47.9817 10.2155 47.9833L10.2033 47.9935ZM15.6436 43.5053C15.504 43.5044 15.3663 43.4787 15.2396 43.4299C15.1129 43.3811 15.0002 43.3104 14.9091 43.2225C14.7694 43.0825 14.694 42.9059 14.6961 42.724C14.6957 42.6105 14.7253 42.4982 14.7828 42.3952C14.8404 42.2922 14.9244 42.2009 15.0291 42.1279H15.0413L15.0928 42.0954C16.0942 41.4077 17.1347 40.7526 18.163 40.1585C18.3726 40.047 18.6254 40.0059 18.8701 40.0437C19.1147 40.0815 19.3329 40.1953 19.4803 40.3619C19.5785 40.4884 19.6335 40.6347 19.6394 40.7851C19.6407 40.9145 19.6037 41.0421 19.5315 41.1567C19.4593 41.2713 19.3543 41.3694 19.2257 41.4423C18.212 42.0241 17.2082 42.6508 16.2435 43.3161C16.0783 43.4316 15.8693 43.4949 15.6534 43.4951L15.6436 43.5053ZM69.5476 42.0363C68.4328 42.0332 67.3192 41.9741 66.2129 41.8593H66.2007C65.9767 41.8344 65.7706 41.7443 65.619 41.6049C65.4675 41.4656 65.3804 41.2861 65.3731 41.0984C65.3731 41.0557 65.3853 41.015 65.3853 40.9723C65.4003 40.8706 65.4397 40.7724 65.5011 40.6836C65.5625 40.5947 65.6447 40.517 65.7428 40.455C65.8409 40.393 65.953 40.348 66.0724 40.3225C66.1919 40.2971 66.3162 40.2918 66.4381 40.307C67.6599 40.437 68.8915 40.4928 70.123 40.4738H70.1499C70.3973 40.4711 70.6359 40.5502 70.8131 40.6937C70.9904 40.8371 71.0918 41.0332 71.095 41.2388C71.0983 41.4444 71.0031 41.6426 70.8304 41.7899C70.6578 41.9372 70.4218 42.0214 70.1744 42.0241C69.9614 42.0363 69.7606 42.0363 69.5476 42.0363ZM73.9352 41.6701C73.7193 41.6695 73.5104 41.607 73.3436 41.4932C73.1768 41.3794 73.0623 41.2213 73.0194 41.0455C73.0052 40.9941 72.997 40.9416 72.995 40.8889C72.9958 40.7098 73.0711 40.5364 73.2081 40.3982C73.3451 40.2599 73.5353 40.1651 73.7466 40.13C74.9261 39.9229 76.0801 39.6259 77.194 39.2429C77.194 39.2327 77.2062 39.2327 77.2209 39.2327C77.4517 39.157 77.709 39.1593 77.9377 39.2391C78.1665 39.319 78.3486 39.47 78.4451 39.66C78.4951 39.7557 78.5209 39.8588 78.521 39.9631C78.5195 40.1153 78.4654 40.2639 78.3652 40.3913C78.2649 40.5186 78.1227 40.6193 77.9554 40.6813C77.9432 40.6813 77.9309 40.6813 77.9187 40.6813C76.698 41.1079 75.4292 41.4324 74.131 41.6498C74.0691 41.6616 74.006 41.6684 73.9425 41.6701H73.9352ZM62.5525 41.2429C62.4769 41.2411 62.4016 41.2343 62.3273 41.2225H62.3126H62.2881C61.0291 40.9414 59.7878 40.608 58.569 40.2236C58.3903 40.1653 58.2373 40.0633 58.1301 39.931C58.023 39.7987 57.9668 39.6424 57.9691 39.483C57.9717 39.3906 57.9923 39.2992 58.0303 39.2124C58.1217 39.0223 58.2986 38.8693 58.5235 38.7857C58.7484 38.7022 59.0035 38.6946 59.235 38.7648C60.4371 39.129 61.6148 39.4525 62.7704 39.7027H62.8072C63.0057 39.7462 63.1812 39.8434 63.3058 39.979C63.4304 40.1146 63.497 40.2808 63.4952 40.4514C63.494 40.5197 63.4858 40.5878 63.4707 40.6549C63.4183 40.8226 63.3 40.9709 63.1345 41.0764C62.969 41.1818 62.7659 41.2382 62.5574 41.2368L62.5525 41.2429ZM21.9605 39.9102C21.7921 39.9073 21.6275 39.8683 21.4825 39.797C21.3375 39.7257 21.2171 39.6246 21.133 39.5033C21.0149 39.3207 20.9883 39.1068 21.0589 38.9079C21.1295 38.7091 21.2916 38.5414 21.51 38.4413C22.6625 37.9165 23.8466 37.4411 25.0577 37.0171C25.2888 36.944 25.5448 36.9476 25.7727 37.0272C26.0007 37.1067 26.183 37.2561 26.2819 37.4444C26.3317 37.5394 26.3575 37.6419 26.3578 37.7455C26.3571 37.8989 26.3025 38.0487 26.2008 38.1767C26.099 38.3046 25.9545 38.4051 25.7849 38.4657C24.6312 38.8595 23.5055 39.3078 22.4135 39.8085C22.2755 39.8741 22.1195 39.9091 21.9605 39.9102ZM80.967 39.2327C80.812 39.2338 80.6592 39.2019 80.5233 39.1399C80.3874 39.0779 80.2729 38.988 80.1908 38.8787C80.0806 38.7515 80.023 38.598 80.0268 38.4413C80.0295 38.3145 80.0698 38.1903 80.1441 38.0796C80.2184 37.9689 80.3245 37.8751 80.4528 37.8065C81.4776 37.2434 82.4462 36.6127 83.3493 35.9205C83.5366 35.7872 83.7776 35.7175 84.0241 35.7255C84.2705 35.7334 84.5043 35.8183 84.6787 35.9632C84.8392 36.1076 84.9269 36.2977 84.9236 36.4942C84.9214 36.5999 84.8936 36.704 84.8419 36.8005C84.7901 36.897 84.7155 36.9838 84.6224 37.0558L84.5857 37.0883C83.6165 37.8273 82.5766 38.4995 81.4762 39.0985C81.3227 39.1815 81.1428 39.2247 80.9596 39.2226L80.967 39.2327ZM55.3567 39.0883C55.2453 39.0865 55.1351 39.0686 55.0311 39.0354H55.0164C55.0041 39.0354 54.9919 39.0354 54.9796 39.0354C53.8142 38.661 52.6243 38.3172 51.4564 38.0181C51.2639 37.9689 51.0955 37.8695 50.976 37.7347C50.8565 37.5999 50.7924 37.4368 50.7929 37.2694C50.793 37.1918 50.8054 37.1145 50.8296 37.0395C50.9047 36.8418 51.0701 36.6765 51.2904 36.5791C51.5106 36.4817 51.768 36.46 52.0073 36.5187C53.2315 36.832 54.4557 37.186 55.6799 37.5807C55.7961 37.6176 55.9023 37.6733 55.9925 37.7445C56.0826 37.8158 56.1548 37.9012 56.2049 37.9958C56.255 38.0905 56.282 38.1924 56.2843 38.2958C56.2867 38.3991 56.2643 38.5018 56.2185 38.598C56.1513 38.7453 56.0317 38.8722 55.8755 38.9616C55.7194 39.051 55.5341 39.0988 55.3445 39.0985L55.3567 39.0883ZM29.0437 37.4729C28.8399 37.4744 28.6411 37.4203 28.4779 37.3189C28.3147 37.2174 28.1961 37.0742 28.1403 36.9113C28.1093 36.8376 28.0968 36.7593 28.1036 36.6814C28.1059 36.5141 28.1728 36.3519 28.2945 36.2185C28.4161 36.0852 28.5861 35.9879 28.7793 35.9408C30.0414 35.6401 31.3222 35.3963 32.616 35.2104C32.8615 35.1776 33.1129 35.2255 33.3167 35.344C33.5205 35.4625 33.6608 35.6423 33.7079 35.8452C33.7079 35.8981 33.7202 35.9286 33.7202 35.9714C33.7241 36.159 33.6461 36.3414 33.5008 36.485C33.3554 36.6286 33.1525 36.7237 32.9293 36.7526C31.706 36.9248 30.496 37.1571 29.3057 37.4484H29.2812C29.2014 37.4659 29.1188 37.4728 29.0364 37.4688L29.0437 37.4729ZM48.009 37.2226C47.942 37.2259 47.8748 37.219 47.8107 37.2023C46.5694 36.9724 45.328 36.7954 44.1112 36.6509C43.8887 36.6257 43.6844 36.535 43.5353 36.3955C43.3862 36.2559 43.3021 36.0766 43.2983 35.89C43.2963 35.8477 43.3004 35.8053 43.3106 35.7638C43.3476 35.563 43.4765 35.3817 43.6703 35.2578C43.8641 35.1339 44.108 35.0768 44.3511 35.0985C44.3781 35.0985 44.4026 35.0985 44.427 35.0985C45.6512 35.243 46.922 35.4322 48.2147 35.6702C48.427 35.7097 48.6163 35.8092 48.7502 35.9517C48.8842 36.0941 48.9545 36.2708 48.9492 36.4515C48.9472 36.5043 48.939 36.5567 48.9247 36.6082C48.8792 36.782 48.7631 36.9376 48.596 37.0487C48.4288 37.1598 48.2207 37.2198 48.0066 37.2185L48.009 37.2226ZM36.5775 36.4088C36.34 36.4081 36.1117 36.3321 35.9393 36.1964C35.7669 36.0607 35.6632 35.8754 35.6495 35.6784V35.6377C35.6428 35.4351 35.7313 35.2382 35.8963 35.0889C36.0613 34.9397 36.2899 34.8497 36.5334 34.8381C37.8359 34.775 39.1654 34.7649 40.3945 34.8056H40.4802C40.7182 34.8199 40.9409 34.9083 41.1038 35.0532C41.2668 35.198 41.358 35.3886 41.3592 35.5868V35.6173C41.3542 35.72 41.3248 35.8208 41.2728 35.914C41.2209 36.0072 41.1473 36.0909 41.0563 36.1605C40.9654 36.23 40.8588 36.284 40.7427 36.3192C40.6266 36.3545 40.5033 36.3704 40.3798 36.3661C39.1354 36.3247 37.8892 36.3356 36.646 36.3986L36.5775 36.4088ZM86.5958 34.9704C86.3804 34.9701 86.1718 34.9075 86.0058 34.7934C85.9077 34.7291 85.8264 34.6489 85.7668 34.5577C85.7072 34.4665 85.6705 34.3662 85.6591 34.2628C85.6476 34.1595 85.6616 34.0553 85.7002 33.9566C85.7387 33.8578 85.801 33.7667 85.8833 33.6886C86.6724 32.8899 87.408 32.0559 88.0869 31.1902C88.2292 31.0225 88.4424 30.9056 88.6839 30.863C88.9255 30.8203 89.1775 30.8551 89.3895 30.9603C89.5157 31.0322 89.6193 31.1284 89.6913 31.2407C89.7633 31.3529 89.8017 31.478 89.8032 31.6052C89.8163 31.7564 89.7681 31.9068 89.6661 32.0325C89.6567 32.0483 89.6443 32.0627 89.6294 32.0752C88.9295 32.9757 88.1676 33.8418 87.3475 34.6693H87.3352C87.2454 34.7583 87.133 34.8296 87.0059 34.8782C86.8789 34.9267 86.7405 34.9513 86.6007 34.95L86.5958 34.9704ZM90.8218 29.648C90.6695 29.6457 90.5195 29.6173 90.3811 29.5646C90.2323 29.4973 90.1083 29.3979 90.0221 29.2769C89.9359 29.1558 89.8907 29.0176 89.8914 28.8769C89.8894 28.7461 89.9282 28.6171 90.004 28.5025C90.5794 27.6053 91.1303 26.6572 91.6469 25.6786C91.7561 25.4956 91.9441 25.3534 92.1736 25.2803C92.4031 25.2072 92.6573 25.2085 92.8858 25.2839C93.0544 25.3462 93.1969 25.4487 93.2954 25.5783C93.3939 25.708 93.4439 25.859 93.4391 26.0122C93.4387 26.1159 93.4129 26.2183 93.3632 26.3134C92.8246 27.3449 92.2467 28.3255 91.6493 29.2411H91.6371C91.5595 29.3643 91.4426 29.4674 91.2992 29.5391C91.1559 29.6109 90.9916 29.6486 90.8242 29.648H90.8218ZM93.9288 23.817C93.8174 23.8151 93.7072 23.7972 93.6031 23.7641C93.4866 23.7301 93.3796 23.677 93.2884 23.6079C93.1971 23.5388 93.1236 23.4552 93.0722 23.3619C93.0207 23.2686 92.9925 23.1677 92.9891 23.0652C92.9856 22.9626 93.0071 22.8606 93.0523 22.7651C93.4783 21.7743 93.8921 20.7753 94.2544 19.7743C94.3317 19.5778 94.4974 19.4139 94.717 19.3168C94.9366 19.2197 95.1929 19.197 95.4321 19.2535C95.6253 19.3028 95.7943 19.4023 95.9142 19.5375C96.0341 19.6727 96.0986 19.8363 96.0981 20.0042C96.0981 20.0813 96.0849 20.1581 96.0589 20.2321C95.6598 21.3267 95.246 22.3155 94.82 23.2839V23.2941C94.7522 23.4456 94.6308 23.5764 94.4717 23.6694C94.3126 23.7624 94.1233 23.8131 93.9288 23.8149V23.817ZM96.2107 17.7133C96.1283 17.7167 96.0458 17.7099 95.9659 17.693C95.7646 17.6475 95.5869 17.5485 95.46 17.411C95.3331 17.2736 95.2639 17.1053 95.2632 16.932C95.2659 16.8638 95.2749 16.7957 95.2901 16.7286C95.6035 15.7398 95.9046 14.7083 96.1666 13.6564C96.2261 13.4555 96.3768 13.2814 96.5872 13.1707C96.7975 13.06 97.0513 13.0212 97.2953 13.0623C97.5053 13.1018 97.6927 13.1999 97.8264 13.3402C97.96 13.4805 98.0318 13.6545 98.0299 13.8334C98.0279 13.8863 98.0189 13.9389 98.0029 13.9901C97.7409 15.0318 97.4398 16.0836 97.1142 17.1253C97.0594 17.2923 96.9401 17.4397 96.7747 17.5449C96.6092 17.65 96.4067 17.707 96.1985 17.7072L96.2107 17.7133ZM97.8389 11.4754C97.7846 11.4774 97.7302 11.4733 97.6773 11.4632C97.4635 11.4322 97.2691 11.3408 97.1272 11.2043C96.9853 11.0678 96.9045 10.8948 96.8987 10.7145C96.8963 10.662 96.9012 10.6094 96.9134 10.5578C97.1386 9.52629 97.3394 8.47443 97.5132 7.43274C97.5289 7.33121 97.5686 7.23327 97.6302 7.14461C97.6918 7.05595 97.7739 6.97833 97.8718 6.91625C97.9698 6.85417 98.0816 6.80887 98.2007 6.78297C98.3199 6.75708 98.4441 6.75111 98.5661 6.76541C98.7888 6.7906 98.9934 6.88114 99.1429 7.02067C99.2924 7.1602 99.377 7.33954 99.3814 7.52633C99.3834 7.56122 99.3793 7.59618 99.3691 7.63009V7.68299L99.3569 7.70333C99.1928 8.68195 98.9921 9.73788 98.7668 10.8284C98.7269 11.0091 98.6124 11.1726 98.443 11.2907C98.2737 11.4088 98.06 11.4741 97.8389 11.4754ZM98.8941 5.15201C98.8672 5.15201 98.8305 5.14183 98.806 5.14183C98.5759 5.12031 98.363 5.03042 98.2064 4.88871C98.0498 4.74701 97.9602 4.56305 97.954 4.37074C97.954 4.33819 97.9662 4.31785 97.9662 4.28733V4.2446C97.9945 4.04071 98.1183 3.85428 98.3107 3.7256C98.5031 3.59692 98.7488 3.53633 98.9945 3.55692C99.1169 3.56542 99.2358 3.59494 99.3437 3.64362C99.4516 3.6923 99.5461 3.75908 99.6213 3.83972C99.7015 3.91811 99.7617 4.00918 99.7983 4.10745C99.8349 4.20571 99.8472 4.30912 99.8343 4.41143V4.43178C99.8125 4.627 99.7043 4.80854 99.5306 4.94122C99.3569 5.07391 99.1301 5.14829 98.8941 5.14997V5.15201Z" fill="#FB7B76"/>
<path d="M98.905 5.11217H98.8119C98.5639 5.09209 98.3357 4.99103 98.1773 4.83119C98.0189 4.67135 97.9433 4.46579 97.9672 4.25969C98.0823 3.29735 98.119 2.74396 98.119 2.73582C98.1263 2.63335 98.1577 2.53308 98.2116 2.44071C98.2654 2.34835 98.3407 2.26571 98.433 2.19751C98.5253 2.12931 98.6329 2.07688 98.7496 2.04322C98.8662 2.00956 98.9898 1.99533 99.1131 2.00134C99.2364 2.00735 99.3571 2.03349 99.4682 2.07826C99.5794 2.12302 99.6788 2.18554 99.7609 2.26224C99.843 2.33895 99.906 2.42833 99.9466 2.5253C99.9871 2.62226 100.004 2.7249 99.9969 2.82737C99.9969 2.82737 99.9578 3.40111 99.8378 4.41228C99.8153 4.60494 99.7073 4.78374 99.5349 4.91387C99.3624 5.044 99.1379 5.11613 98.905 5.11624V5.11217Z" fill="#FB7B76"/>
<path d="M2.43268 58.5556C2.30479 58.5555 2.17824 58.5341 2.06052 58.4926C1.9145 58.4396 1.78698 58.3568 1.68981 58.2518C1.59264 58.1469 1.52898 58.0232 1.50473 57.8924L0.0112088 49.8396C-0.026954 49.6361 0.0331894 49.4282 0.17855 49.2613C0.323911 49.0944 0.54272 48.982 0.787351 48.9485C1.03358 48.918 1.28433 48.9696 1.48512 49.0918C1.68592 49.2141 1.82054 49.3973 1.85975 49.6016L3.12557 56.4214L9.94192 52.5049C10.0436 52.4463 10.1583 52.4051 10.2793 52.3837C10.4002 52.3622 10.5252 52.3609 10.6468 52.3798C10.7684 52.3987 10.8842 52.4375 10.9877 52.4939C11.0911 52.5503 11.1801 52.6232 11.2494 52.7083C11.3192 52.793 11.3682 52.8883 11.3937 52.9888C11.4192 53.0892 11.4206 53.1928 11.3979 53.2937C11.3751 53.3946 11.3287 53.4908 11.2612 53.5768C11.1937 53.6628 11.1065 53.7368 11.0045 53.7948L2.96398 58.4173C2.80521 58.5073 2.61752 58.5555 2.42533 58.5556H2.43268Z" fill="#FB7B76"/>
</svg>
