<svg width="100" height="60" viewBox="0 0 100 60" fill="none" xmlns="http://www.w3.org/2000/svg">
<path d="M2.93479 57.2944C2.80784 57.2952 2.68202 57.2744 2.56509 57.2333C2.34006 57.1502 2.16296 56.9974 2.0715 56.8074C1.98004 56.6174 1.98144 56.4052 2.07541 56.2161C2.07541 56.2161 2.35452 55.6729 2.92745 54.7614C2.98403 54.67 3.06185 54.5889 3.15641 54.5227C3.25096 54.4565 3.36038 54.4065 3.47832 54.3757C3.59626 54.3448 3.7204 54.3337 3.84354 54.343C3.96668 54.3523 4.08638 54.3818 4.19572 54.4297C4.41682 54.5255 4.58308 54.6904 4.65792 54.888C4.73276 55.0856 4.71006 55.2999 4.59481 55.4836C4.0733 56.3158 3.81377 56.8142 3.80643 56.8305C3.7317 56.9702 3.60928 57.0886 3.45435 57.1711C3.29941 57.2536 3.11877 57.2964 2.93479 57.2944Z" fill="url(#paint0_linear_570_3145)"/>
<path d="M3.32069 55.8077C3.21086 55.7608 3.11328 55.6963 3.03357 55.6179C2.95386 55.5396 2.89361 55.4488 2.85628 55.351C2.81895 55.2532 2.80529 55.1502 2.81608 55.0479C2.82687 54.9457 2.8619 54.8462 2.91916 54.7553C2.97578 54.6642 3.05347 54.5832 3.14778 54.5171C3.24208 54.451 3.35116 54.401 3.46875 54.37C3.58633 54.339 3.71013 54.3276 3.83303 54.3364C3.95593 54.3452 4.07554 54.3741 4.18498 54.4214C4.29504 54.4681 4.39286 54.5325 4.47275 54.6108C4.55265 54.6892 4.61302 54.78 4.65038 54.8779C4.68774 54.9758 4.70133 55.0789 4.69036 55.1812C4.6794 55.2835 4.6441 55.383 4.58652 55.4738C4.50573 55.5998 4.3844 55.7046 4.23609 55.7765C4.08778 55.8483 3.91834 55.8845 3.74672 55.881C3.59954 55.8869 3.45297 55.8616 3.32069 55.8077Z" fill="url(#paint1_linear_570_3145)"/>
<path d="M5.66397 53.129C5.49151 53.1275 5.32259 53.0882 5.17429 53.015C4.96208 52.9043 4.81126 52.7283 4.75482 52.5255C4.69839 52.3226 4.74093 52.1095 4.87313 51.9326C5.56358 51.0252 6.303 50.1199 7.07669 49.245C7.23042 49.0842 7.45161 48.9777 7.69591 48.9467C7.9402 48.9158 8.18954 48.9627 8.39393 49.0782C8.51091 49.1515 8.60661 49.2456 8.67398 49.3537C8.74136 49.4618 8.77869 49.5811 8.78323 49.7028C8.78413 49.8717 8.71786 50.0363 8.5947 50.1707C7.86018 51.0151 7.14035 51.8899 6.48908 52.7546C6.48696 52.7559 6.48438 52.7566 6.48173 52.7566C6.47908 52.7566 6.47651 52.7559 6.47439 52.7546C6.39123 52.8666 6.2748 52.9589 6.13631 53.0227C5.99781 53.0864 5.84189 53.1195 5.68355 53.1188L5.66397 53.129ZM10.2033 47.9938C9.97893 47.9906 9.7624 47.9247 9.58875 47.8066C9.48249 47.7319 9.39797 47.6382 9.34157 47.5325C9.28517 47.4268 9.25835 47.3118 9.26311 47.1962C9.26226 47.0152 9.34257 46.8404 9.48837 46.7059C10.3282 45.8921 11.2022 45.1027 12.1082 44.3519L12.1449 44.3214H12.1596C12.3397 44.1859 12.574 44.1108 12.817 44.1108C13.06 44.1108 13.2943 44.1859 13.4744 44.3214C13.5635 44.3923 13.6349 44.4772 13.6845 44.5711C13.734 44.665 13.7608 44.7661 13.7633 44.8687C13.7645 44.9717 13.7406 45.0738 13.6931 45.1689C13.6455 45.264 13.5753 45.3501 13.4866 45.4221C12.5978 46.1606 11.7433 46.9317 10.9305 47.713C10.8402 47.7967 10.7301 47.8639 10.6071 47.9105C10.484 47.957 10.3507 47.9819 10.2155 47.9836L10.2033 47.9938ZM15.6436 43.5055C15.504 43.5046 15.3663 43.4789 15.2396 43.4302C15.1129 43.3814 15.0002 43.3107 14.9091 43.2227C14.7694 43.0827 14.694 42.9061 14.6961 42.7243C14.6957 42.6107 14.7253 42.4984 14.7828 42.3954C14.8404 42.2924 14.9244 42.2012 15.0291 42.1281H15.0413L15.0928 42.0956C16.0942 41.4079 17.1347 40.7528 18.163 40.1587C18.3726 40.0472 18.6254 40.0062 18.8701 40.044C19.1147 40.0818 19.3329 40.1955 19.4803 40.3622C19.5785 40.4886 19.6335 40.6349 19.6394 40.7854C19.6407 40.9147 19.6037 41.0423 19.5315 41.1569C19.4593 41.2716 19.3543 41.3696 19.2257 41.4425C18.212 42.0244 17.2082 42.651 16.2435 43.3163C16.0783 43.4318 15.8693 43.4952 15.6534 43.4954L15.6436 43.5055ZM69.5476 42.0366C68.4328 42.0334 67.3192 41.9743 66.2129 41.8596H66.2007C65.9767 41.8346 65.7706 41.7445 65.619 41.6052C65.4675 41.4658 65.3804 41.2864 65.3731 41.0987C65.3731 41.0559 65.3853 41.0153 65.3853 40.9725C65.4003 40.8708 65.4397 40.7727 65.5011 40.6838C65.5625 40.595 65.6447 40.5173 65.7428 40.4553C65.8409 40.3933 65.953 40.3482 66.0724 40.3228C66.1919 40.2973 66.3162 40.2921 66.4381 40.3072C67.6599 40.4372 68.8915 40.493 70.123 40.4741H70.1499C70.3973 40.4714 70.6359 40.5504 70.8131 40.6939C70.9904 40.8374 71.0918 41.0335 71.095 41.2391C71.0983 41.4446 71.0031 41.6429 70.8304 41.7902C70.6578 41.9374 70.4218 42.0217 70.1744 42.0244C69.9614 42.0366 69.7606 42.0366 69.5476 42.0366ZM73.9352 41.6704C73.7193 41.6697 73.5104 41.6072 73.3436 41.4934C73.1768 41.3797 73.0623 41.2215 73.0194 41.0458C73.0052 40.9943 72.997 40.9419 72.995 40.8891C72.9958 40.71 73.0711 40.5367 73.2081 40.3984C73.3451 40.2601 73.5353 40.1654 73.7466 40.1302C74.9261 39.9231 76.0801 39.6262 77.194 39.2432C77.194 39.233 77.2062 39.233 77.2209 39.233C77.4517 39.1572 77.709 39.1595 77.9377 39.2394C78.1665 39.3192 78.3486 39.4703 78.4451 39.6602C78.4951 39.7559 78.5209 39.8591 78.521 39.9634C78.5195 40.1156 78.4654 40.2642 78.3652 40.3915C78.2649 40.5189 78.1227 40.6195 77.9554 40.6816C77.9432 40.6816 77.9309 40.6816 77.9187 40.6816C76.698 41.1082 75.4292 41.4326 74.131 41.65C74.0691 41.6618 74.006 41.6686 73.9425 41.6704H73.9352ZM62.5525 41.2431C62.4769 41.2414 62.4016 41.2346 62.3273 41.2228H62.3126H62.2881C61.0291 40.9417 59.7878 40.6083 58.569 40.2238C58.3903 40.1656 58.2373 40.0635 58.1301 39.9312C58.023 39.7989 57.9668 39.6427 57.9691 39.4832C57.9717 39.3909 57.9923 39.2995 58.0303 39.2126C58.1217 39.0225 58.2986 38.8695 58.5235 38.786C58.7484 38.7024 59.0035 38.6949 59.235 38.765C60.4371 39.1292 61.6148 39.4527 62.7704 39.703H62.8072C63.0057 39.7464 63.1812 39.8436 63.3058 39.9792C63.4304 40.1148 63.497 40.2811 63.4952 40.4517C63.494 40.52 63.4858 40.588 63.4707 40.6551C63.4183 40.8228 63.3 40.9712 63.1345 41.0766C62.969 41.182 62.7659 41.2385 62.5574 41.237L62.5525 41.2431ZM21.9605 39.9105C21.7921 39.9075 21.6275 39.8685 21.4825 39.7972C21.3375 39.726 21.2171 39.6248 21.133 39.5036C21.0149 39.321 20.9883 39.107 21.0589 38.9082C21.1295 38.7094 21.2916 38.5417 21.51 38.4415C22.6625 37.9167 23.8466 37.4414 25.0577 37.0174C25.2888 36.9443 25.5448 36.9479 25.7727 37.0274C26.0007 37.107 26.183 37.2563 26.2819 37.4446C26.3317 37.5396 26.3575 37.6421 26.3578 37.7457C26.3571 37.8991 26.3025 38.049 26.2008 38.1769C26.099 38.3049 25.9545 38.4053 25.7849 38.466C24.6312 38.8597 23.5055 39.308 22.4135 39.8088C22.2755 39.8744 22.1195 39.9094 21.9605 39.9105ZM80.967 39.233C80.812 39.2341 80.6592 39.2021 80.5233 39.1401C80.3874 39.0782 80.2729 38.9882 80.1908 38.879C80.0806 38.7518 80.023 38.5983 80.0268 38.4415C80.0295 38.3148 80.0698 38.1905 80.1441 38.0798C80.2184 37.9691 80.3245 37.8753 80.4528 37.8068C81.4776 37.2436 82.4462 36.6129 83.3493 35.9207C83.5366 35.7874 83.7776 35.7178 84.0241 35.7257C84.2705 35.7336 84.5043 35.8185 84.6787 35.9635C84.8392 36.1079 84.9269 36.2979 84.9236 36.4945C84.9214 36.6001 84.8936 36.7043 84.8419 36.8008C84.7901 36.8972 84.7155 36.9841 84.6224 37.056L84.5857 37.0886C83.6165 37.8275 82.5766 38.4998 81.4762 39.0987C81.3227 39.1818 81.1428 39.225 80.9596 39.2228L80.967 39.233ZM55.3567 39.0885C55.2453 39.0867 55.1351 39.0688 55.0311 39.0356H55.0164C55.0041 39.0356 54.9919 39.0356 54.9796 39.0356C53.8142 38.6613 52.6243 38.3174 51.4564 38.0184C51.2639 37.9691 51.0955 37.8698 50.976 37.735C50.8565 37.6002 50.7924 37.437 50.7929 37.2696C50.793 37.192 50.8054 37.1147 50.8296 37.0397C50.9047 36.8421 51.0701 36.6768 51.2904 36.5794C51.5106 36.482 51.768 36.4603 52.0073 36.5189C53.2315 36.8322 54.4557 37.1862 55.6799 37.5809C55.7961 37.6178 55.9023 37.6735 55.9925 37.7448C56.0826 37.8161 56.1548 37.9015 56.2049 37.9961C56.255 38.0907 56.282 38.1927 56.2843 38.296C56.2867 38.3994 56.2643 38.5021 56.2185 38.5982C56.1513 38.7456 56.0317 38.8724 55.8755 38.9618C55.7194 39.0513 55.5341 39.099 55.3445 39.0987L55.3567 39.0885ZM29.0437 37.4731C28.8399 37.4747 28.6411 37.4206 28.4779 37.3191C28.3147 37.2177 28.1961 37.0745 28.1403 36.9116C28.1093 36.8378 28.0968 36.7596 28.1036 36.6817C28.1059 36.5144 28.1728 36.3521 28.2945 36.2188C28.4161 36.0855 28.5861 35.9881 28.7793 35.9411C30.0414 35.6403 31.3222 35.3965 32.616 35.2107C32.8615 35.1779 33.1129 35.2258 33.3167 35.3443C33.5205 35.4627 33.6608 35.6425 33.7079 35.8455C33.7079 35.8984 33.7202 35.9289 33.7202 35.9716C33.7241 36.1592 33.6461 36.3417 33.5008 36.4853C33.3554 36.6289 33.1525 36.7239 32.9293 36.7529C31.706 36.925 30.496 37.1573 29.3057 37.4487H29.2812C29.2014 37.4661 29.1188 37.473 29.0364 37.469L29.0437 37.4731ZM48.009 37.2229C47.942 37.2261 47.8748 37.2192 47.8107 37.2025C46.5694 36.9726 45.328 36.7956 44.1112 36.6511C43.8887 36.6259 43.6844 36.5353 43.5353 36.3957C43.3862 36.2561 43.3021 36.0768 43.2983 35.8902C43.2963 35.8479 43.3004 35.8056 43.3106 35.7641C43.3476 35.5632 43.4765 35.3819 43.6703 35.258C43.8641 35.1341 44.108 35.0771 44.3511 35.0988C44.3781 35.0988 44.4026 35.0988 44.427 35.0988C45.6512 35.2432 46.922 35.4324 48.2147 35.6705C48.427 35.71 48.6163 35.8094 48.7502 35.9519C48.8842 36.0944 48.9545 36.271 48.9492 36.4518C48.9472 36.5045 48.939 36.557 48.9247 36.6084C48.8792 36.7823 48.7631 36.9378 48.596 37.0489C48.4288 37.1601 48.2207 37.22 48.0066 37.2188L48.009 37.2229ZM36.5775 36.409C36.34 36.4083 36.1117 36.3324 35.9393 36.1966C35.7669 36.0609 35.6632 35.8757 35.6495 35.6786V35.6379C35.6428 35.4353 35.7313 35.2385 35.8963 35.0892C36.0613 34.9399 36.2899 34.8499 36.5334 34.8384C37.8359 34.7753 39.1654 34.7651 40.3945 34.8058H40.4802C40.7182 34.8201 40.9409 34.9086 41.1038 35.0534C41.2668 35.1982 41.358 35.3888 41.3592 35.5871V35.6176C41.3542 35.7202 41.3248 35.821 41.2728 35.9142C41.2209 36.0074 41.1473 36.0912 41.0563 36.1607C40.9654 36.2302 40.8588 36.2842 40.7427 36.3195C40.6266 36.3548 40.5033 36.3707 40.3798 36.3663C39.1354 36.3249 37.8892 36.3358 36.646 36.3989L36.5775 36.409ZM86.5958 34.9706C86.3804 34.9703 86.1718 34.9077 86.0058 34.7936C85.9077 34.7293 85.8264 34.6492 85.7668 34.5579C85.7072 34.4667 85.6705 34.3664 85.6591 34.2631C85.6476 34.1597 85.6616 34.0555 85.7002 33.9568C85.7387 33.8581 85.801 33.7669 85.8833 33.6888C86.6724 32.8902 87.408 32.0561 88.0869 31.1904C88.2292 31.0227 88.4424 30.9058 88.6839 30.8632C88.9255 30.8206 89.1775 30.8553 89.3895 30.9605C89.5157 31.0325 89.6193 31.1286 89.6913 31.2409C89.7633 31.3532 89.8017 31.4782 89.8032 31.6055C89.8163 31.7566 89.7681 31.907 89.6661 32.0327C89.6567 32.0485 89.6443 32.0629 89.6294 32.0754C88.9295 32.9759 88.1676 33.842 87.3475 34.6695H87.3352C87.2454 34.7585 87.133 34.8299 87.0059 34.8784C86.8789 34.927 86.7405 34.9515 86.6007 34.9503L86.5958 34.9706ZM90.8218 29.6482C90.6695 29.646 90.5195 29.6176 90.3811 29.5648C90.2323 29.4976 90.1083 29.3982 90.0221 29.2771C89.9359 29.156 89.8907 29.0178 89.8914 28.8771C89.8894 28.7464 89.9282 28.6174 90.004 28.5028C90.5794 27.6055 91.1303 26.6574 91.6469 25.6788C91.7561 25.4958 91.9441 25.3537 92.1736 25.2806C92.4031 25.2075 92.6573 25.2087 92.8858 25.2841C93.0544 25.3464 93.1969 25.4489 93.2954 25.5785C93.3939 25.7082 93.4439 25.8592 93.4391 26.0125C93.4387 26.1161 93.4129 26.2186 93.3632 26.3136C92.8246 27.3451 92.2467 28.3258 91.6493 29.2413H91.6371C91.5595 29.3645 91.4426 29.4676 91.2992 29.5394C91.1559 29.6111 90.9916 29.6488 90.8242 29.6482H90.8218ZM93.9288 23.8172C93.8174 23.8154 93.7072 23.7975 93.6031 23.7643C93.4866 23.7304 93.3796 23.6773 93.2884 23.6082C93.1971 23.5391 93.1236 23.4554 93.0722 23.3621C93.0207 23.2689 92.9925 23.168 92.9891 23.0654C92.9856 22.9629 93.0071 22.8608 93.0523 22.7653C93.4783 21.7745 93.8921 20.7756 94.2544 19.7746C94.3317 19.5781 94.4974 19.4141 94.717 19.317C94.9366 19.2199 95.1929 19.1972 95.4321 19.2537C95.6253 19.303 95.7943 19.4026 95.9142 19.5377C96.0341 19.6729 96.0986 19.8365 96.0981 20.0045C96.0981 20.0816 96.0849 20.1583 96.0589 20.2323C95.6598 21.3269 95.246 22.3157 94.82 23.2842V23.2943C94.7522 23.4458 94.6308 23.5767 94.4717 23.6697C94.3126 23.7626 94.1233 23.8134 93.9288 23.8152V23.8172ZM96.2107 17.7136C96.1283 17.717 96.0458 17.7101 95.9659 17.6932C95.7646 17.6478 95.5869 17.5487 95.46 17.4113C95.3331 17.2738 95.2639 17.1055 95.2632 16.9323C95.2659 16.864 95.2749 16.796 95.2901 16.7288C95.6035 15.74 95.9046 14.7085 96.1666 13.6567C96.2261 13.4557 96.3768 13.2817 96.5872 13.171C96.7975 13.0602 97.0513 13.0214 97.2953 13.0626C97.5053 13.1021 97.6927 13.2001 97.8264 13.3404C97.96 13.4807 98.0318 13.6548 98.0299 13.8337C98.0279 13.8866 98.0189 13.9391 98.0029 13.9903C97.7409 15.032 97.4398 16.0839 97.1142 17.1256C97.0594 17.2926 96.9401 17.44 96.7747 17.5451C96.6092 17.6503 96.4067 17.7073 96.1985 17.7074L96.2107 17.7136ZM97.8389 11.4756C97.7846 11.4776 97.7302 11.4735 97.6773 11.4634C97.4635 11.4325 97.2691 11.341 97.1272 11.2046C96.9853 11.0681 96.9045 10.895 96.8987 10.7147C96.8963 10.6622 96.9012 10.6096 96.9134 10.558C97.1386 9.52653 97.3394 8.47467 97.5132 7.43298C97.5289 7.33145 97.5686 7.23352 97.6302 7.14486C97.6918 7.05619 97.7739 6.97857 97.8718 6.91649C97.9698 6.85441 98.0816 6.80911 98.2007 6.78322C98.3199 6.75732 98.4441 6.75135 98.5661 6.76565C98.7888 6.79085 98.9934 6.88138 99.1429 7.02091C99.2924 7.16044 99.377 7.33978 99.3814 7.52657C99.3834 7.56147 99.3793 7.59642 99.3691 7.63033V7.68323L99.3569 7.70358C99.1928 8.68219 98.9921 9.73813 98.7668 10.8286C98.7269 11.0094 98.6124 11.1729 98.443 11.291C98.2737 11.4091 98.06 11.4744 97.8389 11.4756ZM98.8941 5.15225C98.8672 5.15225 98.8305 5.14208 98.806 5.14208C98.5759 5.12055 98.363 5.03066 98.2064 4.88896C98.0498 4.74725 97.9602 4.5633 97.954 4.37099C97.954 4.33844 97.9662 4.31809 97.9662 4.28757V4.24484C97.9945 4.04095 98.1183 3.85452 98.3107 3.72584C98.5031 3.59716 98.7488 3.53657 98.9945 3.55717C99.1169 3.56566 99.2358 3.59518 99.3437 3.64386C99.4516 3.69255 99.5461 3.75933 99.6213 3.83997C99.7015 3.91835 99.7617 4.00943 99.7983 4.10769C99.8349 4.20596 99.8472 4.30937 99.8343 4.41168V4.43202C99.8125 4.62724 99.7043 4.80878 99.5306 4.94147C99.3569 5.07415 99.1301 5.14854 98.8941 5.15022V5.15225Z" fill="url(#paint2_linear_570_3145)"/>
<path d="M98.905 5.11217H98.8119C98.5639 5.09209 98.3357 4.99103 98.1773 4.83119C98.0189 4.67135 97.9433 4.46579 97.9672 4.25969C98.0823 3.29735 98.119 2.74396 98.119 2.73582C98.1263 2.63335 98.1577 2.53308 98.2116 2.44071C98.2654 2.34835 98.3407 2.26571 98.433 2.19751C98.5253 2.12931 98.6329 2.07688 98.7496 2.04322C98.8662 2.00956 98.9898 1.99533 99.1131 2.00134C99.2364 2.00735 99.3571 2.03349 99.4682 2.07826C99.5794 2.12302 99.6788 2.18554 99.7609 2.26224C99.843 2.33895 99.906 2.42833 99.9466 2.5253C99.9871 2.62226 100.004 2.7249 99.9969 2.82737C99.9969 2.82737 99.9578 3.40111 99.8378 4.41228C99.8153 4.60494 99.7073 4.78374 99.5349 4.91387C99.3624 5.044 99.1379 5.11613 98.905 5.11624V5.11217Z" fill="url(#paint3_linear_570_3145)"/>
<path d="M2.43268 58.5556C2.30479 58.5555 2.17824 58.5341 2.06052 58.4926C1.9145 58.4396 1.78698 58.3568 1.68981 58.2518C1.59264 58.1469 1.52898 58.0232 1.50473 57.8924L0.0112088 49.8396C-0.026954 49.6361 0.0331894 49.4282 0.17855 49.2613C0.323911 49.0944 0.54272 48.982 0.787351 48.9485C1.03358 48.918 1.28433 48.9696 1.48512 49.0918C1.68592 49.2141 1.82054 49.3973 1.85975 49.6016L3.12557 56.4214L9.94192 52.5049C10.0436 52.4463 10.1583 52.4051 10.2793 52.3837C10.4002 52.3622 10.5252 52.3609 10.6468 52.3798C10.7684 52.3987 10.8842 52.4375 10.9877 52.4939C11.0911 52.5503 11.1801 52.6232 11.2494 52.7083C11.3192 52.793 11.3682 52.8883 11.3937 52.9888C11.4192 53.0892 11.4206 53.1928 11.3979 53.2937C11.3751 53.3946 11.3287 53.4908 11.2612 53.5768C11.1937 53.6628 11.1065 53.7368 11.0045 53.7948L2.96398 58.4173C2.80521 58.5073 2.61752 58.5555 2.42533 58.5556H2.43268Z" fill="url(#paint4_linear_570_3145)"/>
<defs>
<linearGradient id="paint0_linear_570_3145" x1="2.57058" y1="55.1524" x2="4.01627" y2="56.4607" gradientUnits="userSpaceOnUse">
<stop stop-color="#FFDA81"/>
<stop offset="1" stop-color="#FFB574"/>
</linearGradient>
<linearGradient id="paint1_linear_570_3145" x1="3.20778" y1="54.7593" x2="3.95613" y2="55.6608" gradientUnits="userSpaceOnUse">
<stop stop-color="#FFDA81"/>
<stop offset="1" stop-color="#FFB574"/>
</linearGradient>
<linearGradient id="paint2_linear_570_3145" x1="24.7113" y1="17.1865" x2="44.7955" y2="55.3824" gradientUnits="userSpaceOnUse">
<stop stop-color="#FFDA81"/>
<stop offset="1" stop-color="#FFB574"/>
</linearGradient>
<linearGradient id="paint3_linear_570_3145" x1="98.3906" y1="2.85696" x2="99.7888" y2="3.76245" gradientUnits="userSpaceOnUse">
<stop stop-color="#FFDA81"/>
<stop offset="1" stop-color="#FFB574"/>
</linearGradient>
<linearGradient id="paint4_linear_570_3145" x1="2.39789" y1="51.5843" x2="7.06438" y2="57.0753" gradientUnits="userSpaceOnUse">
<stop stop-color="#FFDA81"/>
<stop offset="1" stop-color="#FFB574"/>
</linearGradient>
</defs>
</svg>
