<svg width="163" height="50" viewBox="0 0 163 50" fill="none" xmlns="http://www.w3.org/2000/svg">
<path d="M16.5319 0C11.186 0 8.34498 0.358943 7.10014 0.358943C5.02285 0.358943 3.18231 0.297846 1.34178 0.297846C0.333681 0.297846 0.150391 0.358943 0.150391 0.771346C0.150391 1.48159 0.38714 1.53505 3.06012 1.53505C4.72501 1.53505 5.672 2.06965 5.672 6.75882V34.069C5.672 34.9549 5.55745 35.0771 2.88447 35.0771C1.57853 35.0771 1.21958 35.1917 1.21958 35.7874C1.21958 36.3831 1.63962 36.4442 2.22768 36.4442C4.12931 36.4442 5.43525 36.2074 7.92494 36.2074C10.5368 36.2074 13.0342 36.7955 15.562 36.7955C23.8101 36.7955 29.3088 33.649 29.3088 27.0047C29.3088 21.8421 25.811 19.8259 23.0158 18.3977C21.8321 17.802 20.7247 17.5042 20.7247 17.3896C20.7247 17.2751 22.0306 16.5572 23.1609 15.7859C25.0244 14.4799 27.5904 12.4026 27.5904 8.18695C27.5904 3.97128 24.253 0 16.5319 0ZM118.227 0.0687337C116.179 0.692908 114.064 1.07231 111.927 1.19902C111.056 1.25248 110.636 1.19902 110.636 1.81763C110.636 2.43623 111.155 2.48969 112.087 2.48969C114.378 2.48969 114.714 2.48969 114.714 5.74309V34.2218C114.714 35.1459 113.844 35.1 111.721 35.1C110.483 35.1 110.43 35.4055 110.43 35.7721C110.43 36.1387 110.537 36.2838 111.721 36.2838C112.484 36.2838 115.18 36.1845 116.937 36.1845C117.868 36.1845 119.006 36.2838 119.778 36.2838C121.634 36.2838 122 36.2838 122 35.7721C122 35.2604 122.099 35.0084 119.518 35.0084C118.586 35.0084 118.227 34.4433 118.227 30.1589C118.227 28.6314 118.487 24.5838 118.487 4.91065C118.487 3.38323 118.747 1.50451 118.747 0.885902C118.747 0.267298 118.487 0.0610966 118.227 0.0610966V0.0687337ZM75.368 0.114556C74.9404 0.114556 71.8855 1.25248 68.1434 1.25248C67.5706 1.25248 67.4713 1.45868 67.4713 1.97801C67.4713 2.33695 67.6775 2.48969 69.7624 2.48969C71.1524 2.48969 71.5724 2.95555 71.5724 6.62135C71.5724 17.5195 71.412 32.7936 71.412 34.2905C71.412 35.0542 70.9462 35.0542 69.1973 35.0542C67.9524 35.0542 67.6699 35.3139 67.6699 35.7263C67.6699 36.1387 67.9754 36.238 69.1973 36.238C69.9152 36.238 71.8244 36.1387 73.581 36.1387C75.3375 36.1387 77.6057 36.238 78.3847 36.238C79.5226 36.238 79.7747 36.238 79.7747 35.7263C79.7747 35.2146 79.5685 35.0542 78.3847 35.0542C75.1848 35.0542 75.284 35.0542 75.284 32.6256V29.3875C75.284 28.9216 76.0477 28.5627 76.8115 28.0434C77.3728 27.6181 77.9799 27.2569 78.6214 26.9665C78.9269 26.9665 81.0959 30.2123 83.2648 32.6944C85.4337 35.1764 85.8996 36.4594 86.8313 36.4594C87.5492 36.4594 89.1224 36.4136 89.7181 36.4136C90.184 36.4136 90.8561 36.4594 91.4747 36.4594C92.6126 36.4594 93.0021 36.3602 93.0021 35.9936C93.0021 35.627 92.5897 35.3292 91.3525 35.3292C89.5959 35.3292 87.9463 32.7936 86.1898 30.6782C82.5775 26.3403 81.6076 25.3322 81.6076 24.8969C81.6076 24.4616 84.8686 22.2621 87.4499 19.7113C89.0537 18.1839 90.8026 15.9462 90.8026 15.4804C90.8026 15.3276 90.5964 15.2742 90.184 15.2742C89.5654 15.2742 86.5717 15.4269 85.8996 15.4269C85.2275 15.4269 84.3034 15.2742 83.7841 15.2742C83.1121 15.2742 82.8524 15.3735 82.8524 15.7935C82.8524 16.2135 83.1121 16.3586 83.891 16.3586C86.1822 16.3586 86.312 16.4579 86.312 17.2827C86.312 18.3672 85.8461 19.2455 83.8376 21.1547C82.1803 22.6821 76.8115 27.4553 75.5208 27.4553C75.368 27.4553 75.3146 27.3026 75.3146 27.0964C75.3146 18.6956 75.6277 12.899 75.6277 5.04811C75.6277 3.3985 75.727 1.22957 75.727 0.557507C75.727 0.252024 75.6277 0.0916449 75.368 0.0916449V0.114556ZM14.7525 1.4205C20.1519 1.4205 22.6492 7.11776 22.6492 10.0886C22.6492 14.7778 20.6865 15.908 18.9682 17.214C16.9414 16.9632 14.9007 16.8433 12.8585 16.855C11.438 16.855 10.6667 16.9696 10.6667 16.0226V3.14648C10.6667 1.95509 10.8423 1.4205 14.7601 1.4205H14.7525ZM40.7797 14.7778C36.0829 14.7778 31.1799 19.1156 31.1799 26.3938C31.1799 35.016 37.4805 37.0857 41.7114 37.0857C45.9424 37.0857 50.2802 33.8323 50.2802 33.5803C50.2802 33.4733 50.1275 33.1679 49.8678 33.1679C48.1156 33.9632 46.2169 34.3845 44.2927 34.4051C40.3673 34.4051 34.8457 32.4958 34.8457 25.3704C34.8457 24.1866 34.9984 23.927 35.8232 23.843C39.993 23.5751 44.1351 22.9776 48.2106 22.0559C49.6082 21.7504 50.3337 21.5442 50.3337 21.338C50.3337 20.9256 49.5012 19.6808 48.623 18.6498C46.7672 16.4808 43.4679 14.7778 40.7797 14.7778ZM100.975 14.7778C96.2784 14.7778 91.3754 19.1156 91.3754 26.3938C91.3754 35.016 97.6683 37.0857 101.907 37.0857C106.146 37.0857 110.476 33.8323 110.476 33.5803C110.476 33.4733 110.315 33.1679 110.063 33.1679C108.311 33.9632 106.412 34.3845 104.488 34.4051C100.563 34.4051 95.0412 32.4958 95.0412 25.3704C95.0412 24.1866 95.1939 23.927 96.0187 23.843C100.189 23.5676 104.331 22.9624 108.406 22.033C109.804 21.7275 110.529 21.5213 110.529 21.3151C110.529 20.9027 109.697 19.6579 108.826 18.6269C106.963 16.4579 103.663 14.7548 100.975 14.7548V14.7778ZM130.76 14.7778C126.063 14.7778 121.16 19.1156 121.16 26.3938C121.16 35.016 127.453 37.0857 131.692 37.0857C135.93 37.0857 140.26 33.8323 140.26 33.5803C140.26 33.4733 140.1 33.1679 139.848 33.1679C138.096 33.9632 136.197 34.3845 134.273 34.4051C130.347 34.4051 124.826 32.4958 124.826 25.3704C124.826 24.1866 124.979 23.927 125.803 23.843C129.974 23.5676 134.116 22.9624 138.191 22.033C139.588 21.7275 140.314 21.5213 140.314 21.3151C140.314 20.9027 139.481 19.6579 138.603 18.6269C136.747 16.4579 133.44 14.7548 130.76 14.7548V14.7778ZM58.7421 15.1291C57.9173 15.1291 56.9398 15.3887 56.115 15.3887C55.0763 15.3887 54.0988 15.2894 52.3422 15.2894C51.464 15.2894 51.5174 15.4422 51.5174 16.0532C51.5174 16.6641 51.5174 16.5725 52.4492 16.5725C55.336 16.5725 55.2367 16.6718 55.2367 20.1848V34.344C55.2367 35.1077 55.0763 35.1077 52.9456 35.1077C51.7084 35.1077 51.6549 35.207 51.6549 35.7263C51.6549 36.2456 51.7618 36.238 52.9456 36.238C53.7093 36.238 55.4276 35.9783 57.1841 35.9783C58.9407 35.9783 62.2934 36.238 63.0112 36.238C64.3554 36.238 64.4088 36.2914 64.4088 35.7263C64.4088 35.1611 64.3554 35.1077 63.0112 35.1077C59.1927 35.1077 59.04 35.1077 59.04 32.5722V21.9566C59.04 19.7877 60.1779 18.5505 63.1716 18.5505C65.753 18.5505 66.3716 20.666 67.0971 20.666C67.4026 20.666 68.2274 18.3748 68.2274 17.8784C68.2274 16.5343 65.8522 15.3964 64.9205 15.3964C62.4996 15.3964 60.071 18.0846 59.2996 18.0846C59.0934 18.0846 59.04 17.718 59.04 17.2598C59.04 17.0994 59.1469 15.9691 59.1469 15.7324C59.1469 15.32 58.933 15.1596 58.7268 15.1596L58.7421 15.1291ZM161.843 15.1825C161.079 15.1825 159.72 15.3887 158.948 15.3887C157.558 15.3887 156.657 15.2894 155.229 15.2894C154.305 15.2894 154.145 15.2894 154.145 15.9615C154.145 16.4732 154.351 16.4732 155.955 16.4732C157.711 16.4732 157.711 16.7863 157.711 18.3366C157.711 19.0545 155.848 24.4463 154.61 28.1427C153.786 30.5713 153.48 31.2891 153.083 31.2891C152.877 31.2891 152.258 30.4109 151.846 29.3264C148.745 21.3762 147.409 19.5739 147.409 18.077C147.409 16.8856 147.714 16.5496 148.936 16.5496C150.021 16.5496 150.227 16.4961 150.227 16.0302C150.227 15.5644 150.021 15.2665 148.936 15.2665C147.286 15.2665 145.476 15.4193 144.033 15.4193C142.796 15.4193 142.437 15.3124 140.978 15.3124C140.054 15.3124 139.901 15.572 139.901 16.0379C139.901 16.5037 139.947 16.5572 140.978 16.5572C142.009 16.5572 142.269 16.8169 143.56 19.9099C146.401 26.6229 150.532 36.1692 150.532 36.7115C150.532 38.2389 146.095 44.3486 144.232 46.6397C142.483 48.8621 140.054 49.1752 140.054 49.4807C140.054 49.7862 140.566 50 141.444 50C142.582 50 142.972 49.5876 144.499 49.3814C145.637 49.221 146.255 49.1752 146.79 48.0373C148.447 44.6311 150.769 40.446 154.022 32.5493C158.101 22.621 160.369 16.4426 161.507 16.4426C162.125 16.4426 162.851 16.183 162.851 15.7171C162.851 15.2513 162.591 15.0985 161.766 15.0985L161.843 15.1825ZM40.2604 15.8928C42.6355 15.8928 45.6827 19.7113 45.6827 21.002C45.6827 21.3151 45.6369 21.4144 45.0641 21.5213C41.1921 22.1094 38.4046 22.7662 35.7239 22.7662C35.0977 22.7662 35.1053 22.7127 35.1053 22.453C35.1053 21.7351 36.3425 15.847 40.2604 15.847V15.8928ZM100.456 15.8928C102.831 15.8928 105.878 19.7113 105.878 21.002C105.878 21.3151 105.825 21.4144 105.26 21.5213C101.388 22.1094 98.6153 22.7662 95.9194 22.7662C95.2932 22.7662 95.2932 22.7127 95.2932 22.453C95.2932 21.7351 96.538 15.847 100.456 15.847V15.8928ZM130.241 15.8928C132.616 15.8928 135.663 19.7113 135.663 21.002C135.663 21.3151 135.609 21.4144 135.044 21.5213C131.165 22.1094 128.4 22.7662 125.689 22.7662C125.07 22.7662 125.07 22.7127 125.07 22.453C125.07 21.7351 126.307 15.847 130.233 15.847L130.241 15.8928ZM12.7974 17.9853C19.266 17.9853 23.6573 22.1399 23.6573 27.4782C23.6573 32.6409 20.3352 35.7263 15.8217 35.7263C13.9277 35.7263 12.0031 35.3139 11.3769 34.6036C10.8423 34.0079 10.659 30.6858 10.659 30.1512V19.528C10.659 18.2221 11.1402 18.0006 12.7974 18.0006V17.9853ZM42.2307 42.2102C41.9547 42.1818 41.6758 42.2102 41.4112 42.2938C41.1466 42.3774 40.9019 42.5142 40.6922 42.696C40.4826 42.8778 40.3124 43.1005 40.1921 43.3506C40.0719 43.6007 40.0041 43.8727 39.9931 44.15C39.9931 46.4411 43.0479 46.0516 43.0479 47.3423C43.0479 47.854 42.6508 48.2969 41.8565 48.2969C41.2177 48.2583 40.6031 48.0384 40.0847 47.663L39.5807 48.5566C40.247 49.0419 41.0475 49.3087 41.8718 49.3203C42.1633 49.3476 42.4573 49.317 42.7369 49.2304C43.0166 49.1437 43.2763 49.0027 43.5013 48.8153C43.7262 48.628 43.912 48.398 44.0478 48.1387C44.1836 47.8793 44.2669 47.5957 44.2927 47.3041C44.2927 44.9519 41.2379 45.6621 41.2379 44.0965C41.2379 43.5848 41.5816 43.2106 42.246 43.2106C42.8008 43.2339 43.3413 43.3939 43.8192 43.6765L44.2469 42.8135C43.6506 42.4248 42.9576 42.2106 42.246 42.1949L42.2307 42.2102ZM66.5625 42.2102C64.4928 42.2102 63.5611 43.6918 63.5611 45.7691C63.5611 47.8463 64.4776 49.3356 66.5625 49.3356C68.6474 49.3356 69.5944 47.7394 69.5944 45.7691C69.5944 43.7987 68.6398 42.2102 66.5396 42.2102H66.5625ZM82.7455 42.2102C80.6682 42.2102 79.6906 43.6994 79.6906 45.7767C79.6906 47.854 80.6147 49.3356 82.7455 49.3356C83.6807 49.3205 84.5756 48.9522 85.2504 48.3046L84.6318 47.5409C84.1397 48.0137 83.4888 48.2861 82.8066 48.3046C81.5312 48.3046 80.9278 47.3958 80.9278 45.7614C80.9278 44.1271 81.5694 43.2183 82.7913 43.2183C83.4144 43.2269 84.0114 43.4695 84.4638 43.898L85.0901 43.0884C84.4601 42.5234 83.6452 42.2083 82.7989 42.2025L82.7455 42.2102ZM108.971 42.2102C106.894 42.2102 105.97 43.6918 105.97 45.7691C105.97 47.8463 106.886 49.3356 108.971 49.3356C111.056 49.3356 111.973 47.7394 111.973 45.7691C111.973 43.7987 111.049 42.2102 108.971 42.2102ZM12.5683 42.3095L11.4075 42.4316V49.221H12.6065V44.5853L15.5162 49.221H16.5854V42.3476H15.4093V46.8764L12.5988 42.3324L12.5683 42.3095ZM27.9494 42.3095V49.1828H32.1727L32.2643 48.1671H29.1179V46.2502H31.7068V45.2345H29.1179V43.3328H32.0276V42.3095H27.9494ZM71.1142 42.3095V49.1828H72.3056V46.2502H74.8487V45.2345H72.3056V43.3328H75.1389V42.3095H71.1142ZM89.6418 42.3095L88.2442 42.424L85.8156 49.221H86.9382L87.511 47.5638H90.2909L90.8637 49.221H92.0933L89.6418 42.3476V42.3095ZM101.166 42.3095V49.1828H102.365V46.2502H104.908V45.2345H102.365V43.3328H105.199V42.3095H101.166ZM120.045 42.3095L118.884 42.4316V49.221H120.083V44.5853L123.054 49.221H124.123V42.3476H122.924V46.8764L120.114 42.3324L120.045 42.3095ZM131.6 42.3095L130.195 42.424L127.766 49.221H128.889L129.462 47.5638H132.219L132.791 49.221H134.021L131.577 42.3476L131.6 42.3095ZM4.63336 42.3095V46.823C4.59768 47.165 4.63947 47.5107 4.75562 47.8344C4.87177 48.1581 5.05931 48.4516 5.30432 48.6929C5.54933 48.9342 5.84553 49.1173 6.17095 49.2286C6.49637 49.3398 6.84267 49.3764 7.18415 49.3356C7.52515 49.3741 7.87045 49.3356 8.19456 49.2228C8.51867 49.11 8.8133 48.9258 9.05669 48.6839C9.30008 48.442 9.48602 48.1485 9.60077 47.825C9.71552 47.5016 9.75615 47.1566 9.71966 46.8153V42.3247H8.49773V46.907C8.49773 47.7623 8.13878 48.3198 7.16124 48.3198C6.18369 48.3198 5.80947 47.7623 5.80947 46.8917V42.3095H4.63336ZM18.3114 42.3095V49.1828H19.5104V42.3095H18.3114ZM20.6942 42.3095L23.0693 49.1828H24.3905L26.7733 42.3095H25.5972L24.2759 46.128C24.2759 46.128 24.1461 46.5175 23.8024 47.7012H23.7719C23.4435 46.5175 23.3137 46.1204 23.3137 46.1204L21.9925 42.3018L20.6942 42.3095ZM33.8147 42.3095V49.1828H35.0137V46.4411H35.5865C36.0218 46.4411 36.2738 46.8459 36.4724 47.2583L37.4346 49.1981H38.7559L37.4346 46.7084C37.3388 46.514 37.1907 46.35 37.007 46.2349C37.3927 46.102 37.7253 45.8481 37.9551 45.511C38.1849 45.1738 38.2997 44.7715 38.2824 44.3638C38.2824 43.1648 37.5187 42.3247 35.9912 42.3247L33.8147 42.3095ZM45.7056 42.3095V49.1828H46.9046V42.3095H45.7056ZM48.2793 42.3095V43.3863H50.1046V49.2592H51.3036V43.3786H53.0448L53.1365 42.3629L48.2793 42.3095ZM53.9231 42.3095L56.0997 46.2578V49.2057H57.2987V46.2731L59.4753 42.3247H58.1388L57.1612 44.2875C57.1612 44.2875 57.039 44.5395 56.6954 45.3032C56.3364 44.5395 56.2066 44.2875 56.2066 44.2875L55.2901 42.3247L53.9231 42.3095ZM93.0632 42.3095V49.1828H97.149L97.2407 48.1671H94.2622V42.2865L93.0632 42.3095ZM98.4091 42.3095V49.1828H99.6082V42.3095H98.4091ZM113.019 42.3095V49.1828H114.218V46.4411H114.791C115.226 46.4411 115.478 46.8459 115.677 47.2583L116.631 49.1981H117.952L116.631 46.7084C116.541 46.5126 116.395 46.3478 116.211 46.2349C116.603 46.1068 116.942 45.8537 117.177 45.5143C117.411 45.175 117.528 44.7682 117.509 44.3562C117.509 43.1572 116.746 42.3171 115.218 42.3171L113.019 42.3095ZM125.597 42.3095V49.1828H126.796V42.3095H125.597ZM66.5396 43.2259C67.731 43.2259 68.3037 44.2645 68.3037 45.7691C68.3037 47.2736 67.7233 48.3122 66.5396 48.3122C65.3558 48.3122 64.7678 47.2659 64.7678 45.7538C64.7678 44.2416 65.3558 43.2259 66.5396 43.2259ZM108.948 43.2259C110.14 43.2259 110.712 44.2645 110.712 45.7691C110.712 47.2736 110.124 48.3122 108.948 48.3122C107.772 48.3122 107.177 47.2659 107.177 45.7538C107.177 44.2416 107.757 43.2259 108.948 43.2259ZM35.0137 43.3863H35.9912C36.8084 43.3863 37.0757 43.7681 37.0757 44.4173C37.0884 44.5609 37.0686 44.7055 37.0179 44.8404C36.9672 44.9754 36.8869 45.0972 36.7827 45.1969C36.6786 45.2966 36.5535 45.3716 36.4165 45.4165C36.2795 45.4613 36.1341 45.4748 35.9912 45.4559H35.0137V43.3863ZM114.21 43.3863H115.195C116.013 43.3863 116.272 43.7681 116.272 44.4173C116.292 44.5613 116.278 44.7079 116.232 44.8458C116.187 44.9838 116.11 45.1095 116.009 45.2133C115.907 45.3172 115.783 45.3965 115.646 45.4451C115.509 45.4938 115.363 45.5106 115.218 45.4941H114.21V43.3863ZM88.8781 43.5696C89.3516 44.9977 89.4356 45.2192 89.4356 45.2192L89.9702 46.7466H87.7783L88.3129 45.2192C88.3129 45.2192 88.4122 44.9595 88.8781 43.5314V43.5696ZM130.829 43.5696L131.378 45.2192L131.913 46.7466H129.729L130.263 45.2192C130.263 45.2192 130.363 44.9595 130.829 43.5314V43.5696Z" fill="#00326F"/>
</svg>
