<svg width="394" height="400" viewBox="0 0 394 400" fill="none" xmlns="http://www.w3.org/2000/svg">
<g clip-path="url(#clip0_570_3484)">
<path opacity="0.3" d="M347.537 344.341C339.466 352.855 331.828 358.346 325.794 362.684C254.86 413.677 170.924 398.813 153.09 395.183C126.753 389.822 75.8308 379.461 39.0126 336.088C-16.6747 270.468 -8.00227 167.087 35.1967 98.847C43.0991 86.3707 84.8396 17.0811 169.676 5.96999C221.021 -0.758631 280.867 12.8033 324.208 49.184C415.183 125.549 408.708 279.826 347.537 344.341Z" fill="url(#paint0_linear_570_3484)"/>
<path d="M268.736 386.63C268.399 386.585 268.075 386.474 267.782 386.301C267.489 386.129 267.233 385.899 267.03 385.626C261.043 377.541 217.506 314.278 275.446 256.449C330.448 201.552 355.379 190.28 358.694 158.025C359.082 154.259 364.164 153.354 365.836 156.75C378.334 182.133 397.805 241.348 333.369 280.223C262.289 323.101 268.113 370.103 271.551 383.46C271.657 383.866 271.661 384.292 271.563 384.701C271.465 385.109 271.269 385.488 270.99 385.802C270.712 386.116 270.361 386.357 269.968 386.503C269.574 386.649 269.151 386.696 268.736 386.639V386.63Z" fill="url(#paint1_linear_570_3484)"/>
<path d="M277.557 387.832C276.77 387.727 276.038 387.37 275.47 386.813C274.903 386.257 274.53 385.532 274.408 384.746C272.712 373.745 268.54 332.636 298.772 321.736C332.046 309.736 358.911 340.785 383.364 316.483C384.652 315.204 386.815 316.318 386.513 318.108C384.334 330.802 374.633 360.206 331.495 366.123C285.316 372.456 280.12 377.763 281.052 384.347C281.116 384.822 281.069 385.304 280.915 385.758C280.762 386.211 280.505 386.622 280.167 386.96C279.828 387.297 279.416 387.552 278.963 387.703C278.509 387.854 278.027 387.898 277.554 387.832H277.557Z" fill="url(#paint2_linear_570_3484)"/>
<path opacity="0.47" d="M357.085 190.914C356.523 193.256 355.785 195.551 354.875 197.78C353.989 200.004 352.99 202.181 351.88 204.302C349.696 208.566 347.074 212.598 344.204 216.44C338.424 224.105 331.432 230.838 323.726 236.547C319.866 239.366 315.854 241.971 311.71 244.351C307.752 246.661 303.943 249.218 300.305 252.006C293.014 257.601 286.386 264.014 280.553 271.121C268.916 285.301 260.657 302.415 257.938 320.635C256.568 329.767 256.516 339.049 257.783 348.196C259.018 357.374 261.629 366.36 265.071 375.023C265.15 375.239 265.144 375.477 265.053 375.688C264.963 375.9 264.795 376.069 264.584 376.16C264.374 376.252 264.136 376.259 263.92 376.181C263.704 376.103 263.526 375.945 263.423 375.74C259.398 367.177 256.389 358.075 254.724 348.676C252.997 339.24 252.724 329.594 253.914 320.074C255.071 310.54 257.756 301.2 261.62 292.409C265.485 283.619 270.619 275.399 276.602 267.904C282.585 260.41 289.521 253.687 297.109 247.82C300.911 244.884 304.894 242.191 309.033 239.755C313.094 237.42 316.95 235.047 320.684 232.347C328.139 227.013 335.028 220.854 340.953 213.826C343.947 210.327 346.687 206.619 349.152 202.729C351.585 198.834 353.858 194.725 355.494 190.478L355.516 190.422C355.589 190.224 355.735 190.063 355.923 189.97C356.112 189.877 356.328 189.859 356.529 189.922C356.73 189.984 356.899 190.121 357.002 190.304C357.105 190.488 357.134 190.704 357.083 190.908L357.085 190.914Z" fill="white"/>
<path opacity="0.47" d="M275.632 380.372C275.775 379.973 275.73 379.603 275.717 379.225L275.682 378.09L275.655 375.825C275.655 374.313 275.689 372.803 275.757 371.294C275.89 368.276 276.148 365.261 276.55 362.26C277.371 356.27 278.727 350.297 281.14 344.673C283.526 339.08 287.14 333.748 292.385 330.26C295.007 328.542 297.93 327.337 301 326.709C304.051 326.064 307.187 325.969 310.255 326.239C322.278 327.636 334.058 329.945 345.87 331.819C351.755 332.698 357.722 333.484 363.499 332.692C364.931 332.488 366.344 332.164 367.723 331.724C369.092 331.266 370.413 330.675 371.667 329.959C374.179 328.525 376.391 326.557 378.362 324.378L378.369 324.371C378.5 324.232 378.679 324.149 378.87 324.141C379.06 324.133 379.246 324.199 379.389 324.326C379.531 324.453 379.618 324.63 379.633 324.82C379.647 325.011 379.586 325.199 379.464 325.346C377.46 327.653 375.178 329.791 372.508 331.392C371.17 332.194 369.758 332.862 368.291 333.388C366.82 333.892 365.31 334.273 363.776 334.525C357.622 335.429 351.524 334.669 345.573 333.842C339.603 332.992 333.71 331.884 327.794 330.924C321.879 329.965 315.934 329.034 310.061 328.343C307.163 328.056 304.233 328.129 301.406 328.7C298.576 329.251 295.876 330.336 293.449 331.896C288.569 335.01 285.027 339.965 282.623 345.328C280.19 350.719 278.745 356.555 277.829 362.442C277.377 365.392 277.069 368.368 276.882 371.35C276.786 372.842 276.726 374.336 276.7 375.832L276.684 378.073L276.699 379.192C276.709 379.562 276.691 379.943 276.873 380.295C276.925 380.395 276.951 380.506 276.95 380.619C276.948 380.732 276.918 380.843 276.863 380.941C276.808 381.04 276.729 381.123 276.634 381.183C276.539 381.244 276.43 381.28 276.318 381.288C276.206 381.296 276.093 381.276 275.99 381.229C275.888 381.183 275.798 381.112 275.73 381.022C275.661 380.932 275.616 380.827 275.598 380.716C275.581 380.604 275.591 380.49 275.628 380.384L275.632 380.372Z" fill="white"/>
<path d="M212.828 4.54306C194.717 4.39965 176.449 7.27638 160.287 13.9964C122.664 29.6363 90.7341 71.0204 103.23 113.291C107.289 127.023 105.156 142.173 118.81 148.139C126.197 151.368 146.316 153.29 153.965 150.746C174.289 143.983 187.66 125.472 176.602 104.946C173.061 98.3737 168.478 92.3679 165.421 85.5561C162.364 78.7443 160.969 70.6576 164.087 63.8716C170.209 50.5535 190.534 46.3201 203.716 46.7188C219.276 47.1906 233.375 54.9016 241.747 68.1279C252.182 84.6196 254.826 104.665 253.299 123.801C251.664 144.277 243.048 159.914 230.134 175.621C219.016 189.144 206.772 202.127 199.382 218.006C192.598 232.585 190.382 248.737 190.078 264.686C190.02 267.777 174.676 296.908 174.742 305.808C174.752 307.066 192.144 311.23 193.399 311.244L225.318 311.603C225.992 311.611 226.642 311.351 227.125 310.879C227.608 310.408 227.885 309.763 227.894 309.088C228.379 265.788 241.674 224.507 275.323 195.427C287.568 184.846 300.753 176.229 310.274 162.874C323.845 143.838 330.539 125.105 328.607 101.61C326.842 80.154 319.79 58.6861 305.832 42.038C290.827 24.1452 268.867 12.9725 246.045 8.14972C235.119 5.84698 223.992 4.63881 212.828 4.54306Z" fill="url(#paint3_linear_570_3484)"/>
<path d="M246.224 360.142C246.224 380.052 235.202 397.668 215.336 397.668C211.042 397.668 196.442 397.707 192.623 396.326C178.771 391.307 178.721 380.647 178.721 365.038C178.721 345.127 185.431 325.545 205.303 325.545C225.176 325.545 246.224 340.231 246.224 360.142Z" fill="url(#paint4_linear_570_3484)"/>
<path d="M195.619 0.0057041C177.508 -0.137702 159.24 2.74046 143.078 9.45904C105.455 25.0989 73.5251 66.4831 86.0206 108.753C90.0799 122.486 99.4651 139.771 113.119 145.739C120.506 148.967 129.107 148.751 136.756 146.21C157.08 139.447 170.451 120.937 159.393 100.41C155.852 93.8378 151.269 87.8319 148.212 81.0201C145.155 74.2084 143.761 66.1217 146.878 59.3357C152.997 46.0161 173.325 41.7828 186.507 42.1815C202.067 42.6533 216.166 50.3642 224.539 63.592C234.973 80.0765 237.617 100.128 236.09 119.264C234.457 139.739 225.839 155.376 212.925 171.084C201.807 184.608 189.563 197.589 182.173 213.469C175.39 228.047 173.173 244.199 172.869 260.149C172.809 263.239 173.849 295.521 173.914 304.421C173.918 305.025 174.159 305.603 174.585 306.03C175.01 306.458 175.586 306.701 176.189 306.707L208.107 307.066C208.782 307.074 209.432 306.814 209.915 306.342C210.398 305.871 210.675 305.226 210.684 304.55C211.17 261.25 224.463 219.971 258.112 190.889C270.357 180.309 283.543 171.692 293.064 158.336C306.634 139.3 313.329 120.567 311.396 97.0745C309.635 75.6152 302.584 54.1487 288.624 37.5007C273.621 19.6079 251.661 8.43512 228.837 3.61237C217.911 1.30945 206.784 0.101275 195.619 0.0057041Z" fill="url(#paint5_linear_570_3484)"/>
<path d="M197.495 396.553C217.369 396.553 233.479 380.411 233.479 360.5C233.479 340.589 217.369 324.448 197.495 324.448C177.622 324.448 161.512 340.589 161.512 360.5C161.512 380.411 177.622 396.553 197.495 396.553Z" fill="url(#paint6_linear_570_3484)"/>
<path d="M97.9252 104.613C97.8201 104.614 97.7183 104.578 97.6365 104.512C97.5547 104.446 97.498 104.353 97.4757 104.251C94.9537 92.8427 94.583 74.9785 107.14 54.6579C119.395 34.8219 136.587 21.5497 158.239 15.2097C181.382 8.43235 208.853 9.88361 239.913 19.5219C240.028 19.56 240.124 19.6417 240.179 19.7496C240.235 19.8575 240.246 19.9828 240.21 20.0988C240.174 20.2147 240.094 20.3119 239.988 20.3695C239.881 20.4271 239.756 20.4405 239.64 20.4068C208.767 10.8215 181.47 9.37309 158.505 16.1046C137.081 22.38 120.066 35.516 107.934 55.1512C95.542 75.2094 95.9027 92.8183 98.3875 104.053C98.4135 104.173 98.391 104.298 98.325 104.401C98.259 104.504 98.1548 104.577 98.0354 104.603C97.9992 104.611 97.9622 104.614 97.9252 104.613Z" fill="white"/>
<path d="M105.5 122.968C105.427 122.968 105.355 122.951 105.29 122.918C105.225 122.885 105.169 122.836 105.126 122.777C105.017 122.634 102.424 119.039 100.012 112.716C99.9823 112.605 99.9945 112.487 100.046 112.385C100.098 112.283 100.186 112.204 100.293 112.163C100.4 112.122 100.518 112.122 100.625 112.163C100.731 112.204 100.819 112.284 100.871 112.386C103.238 118.594 105.842 122.196 105.868 122.232C105.918 122.301 105.949 122.383 105.956 122.468C105.963 122.553 105.946 122.639 105.908 122.715C105.869 122.791 105.81 122.855 105.737 122.9C105.665 122.945 105.581 122.968 105.495 122.968H105.5Z" fill="white"/>
<path d="M209.536 337.135C209.463 337.135 209.392 337.117 209.328 337.083C205.663 335.215 201.607 334.247 197.495 334.26C197.377 334.253 197.266 334.202 197.185 334.116C197.104 334.029 197.059 333.916 197.059 333.797C197.059 333.679 197.104 333.565 197.185 333.479C197.266 333.393 197.377 333.341 197.495 333.335C201.753 333.322 205.952 334.324 209.746 336.259C209.839 336.306 209.913 336.383 209.956 336.478C210 336.572 210.01 336.679 209.986 336.78C209.962 336.881 209.904 336.972 209.822 337.036C209.741 337.1 209.64 337.135 209.536 337.135Z" fill="white"/>
<path d="M182.593 383.107C182.501 383.107 182.411 383.079 182.335 383.026C178.464 380.409 175.332 376.834 173.245 372.648C171.157 368.462 170.184 363.807 170.419 359.133C170.655 354.459 172.091 349.926 174.588 345.972C177.086 342.018 180.56 338.777 184.675 336.563C184.782 336.512 184.905 336.504 185.018 336.541C185.13 336.578 185.225 336.657 185.281 336.761C185.337 336.866 185.351 336.988 185.32 337.103C185.289 337.218 185.215 337.316 185.113 337.377C181.137 339.515 177.778 342.645 175.364 346.465C172.95 350.285 171.562 354.665 171.335 359.181C171.107 363.696 172.048 368.194 174.066 372.239C176.084 376.283 179.11 379.736 182.852 382.264C182.934 382.319 182.995 382.4 183.028 382.493C183.061 382.586 183.063 382.688 183.034 382.782C183.005 382.877 182.946 382.96 182.867 383.019C182.788 383.077 182.692 383.109 182.593 383.11V383.107Z" fill="white"/>
<g opacity="0.3">
<path d="M77.7981 67.4482C77.7081 67.5597 77.5971 67.6522 77.4714 67.7206C77.3457 67.789 77.2078 67.8319 77.0656 67.8468C76.9233 67.8617 76.7795 67.8484 76.6424 67.8075C76.5053 67.7667 76.3776 67.6992 76.2665 67.6089C75.3577 66.8732 74.4058 66.1648 73.4311 65.5051C73.1955 65.3445 73.0321 65.0979 72.9756 64.8182C72.9192 64.5384 72.9743 64.2476 73.1291 64.0079L73.1405 63.9893C73.3033 63.7503 73.554 63.5859 73.8377 63.5321C74.1214 63.4783 74.4148 63.5396 74.6534 63.7025C75.6768 64.3966 76.6802 65.1365 77.6363 65.9181C77.8435 66.0873 77.9813 66.327 78.0235 66.5914C78.0657 66.8558 78.0094 67.1266 77.8653 67.3522C77.8439 67.3866 77.8224 67.4181 77.7981 67.4482ZM68.4787 62.6183C67.4252 62.0978 66.3403 61.6145 65.2525 61.1843C64.9879 61.0756 64.7766 60.8671 64.6641 60.6037C64.5517 60.3403 64.5471 60.0432 64.6513 59.7765C64.7556 59.5097 64.9604 59.2948 65.2215 59.178C65.4826 59.0612 65.779 59.0519 66.0469 59.1522C67.1919 59.6025 68.337 60.1073 69.442 60.6551C69.7008 60.7833 69.8982 61.0093 69.9908 61.2833C70.0834 61.5573 70.0636 61.857 69.9358 62.1164C69.9174 62.1555 69.8963 62.1934 69.8728 62.2297C69.7282 62.4542 69.5064 62.6178 69.2495 62.6895C68.9925 62.7611 68.7183 62.7358 68.4787 62.6183ZM59.7876 59.472C58.6426 59.1995 57.4846 58.9744 56.3253 58.8008C56.0593 58.738 55.8266 58.5772 55.6734 58.3505C55.5202 58.1237 55.4577 57.8476 55.4982 57.5768C55.5388 57.306 55.6794 57.0604 55.8923 56.8887C56.1051 56.717 56.3746 56.6317 56.6473 56.6498C57.8668 56.8333 59.0934 57.0699 60.2929 57.3567C60.5738 57.4241 60.8165 57.6005 60.9676 57.8471C61.1187 58.0937 61.1659 58.3903 61.0987 58.6718C61.0718 58.7932 61.0233 58.9088 60.9556 59.0131C60.832 59.201 60.6534 59.3461 60.4443 59.4282C60.2352 59.5104 60.0058 59.5257 59.7876 59.472ZM50.6128 58.3534C49.4406 58.3434 48.254 58.3835 47.0875 58.4739C46.8038 58.4885 46.5256 58.3915 46.3122 58.2036C46.0989 58.0157 45.9672 57.7517 45.9454 57.4679C45.9235 57.1841 46.0132 56.9031 46.1953 56.6846C46.3773 56.4661 46.6374 56.3275 46.92 56.2984C48.1495 56.2038 49.3976 56.155 50.6314 56.1708C50.9203 56.1732 51.1964 56.2906 51.3989 56.497C51.6014 56.7034 51.7138 56.982 51.7114 57.2714C51.7089 57.5609 51.5918 57.8375 51.3857 58.0404C51.1797 58.2433 50.9017 58.3559 50.6128 58.3534ZM41.418 59.3099C40.2729 59.5595 39.1278 59.8621 38.0057 60.2105C37.7289 60.2959 37.4297 60.2677 37.1737 60.132C36.9178 59.9963 36.7261 59.7643 36.6409 59.487C36.5557 59.2098 36.5839 58.91 36.7193 58.6535C36.8547 58.3971 37.0863 58.2051 37.363 58.1197C38.5424 57.754 39.7505 57.4356 40.9528 57.1718C41.0925 57.1412 41.2369 57.1384 41.3777 57.1637C41.5185 57.189 41.653 57.2419 41.7734 57.3193C41.8938 57.3966 41.9978 57.497 42.0795 57.6147C42.1612 57.7323 42.219 57.8649 42.2496 58.0049C42.2801 58.145 42.2828 58.2896 42.2576 58.4307C42.2323 58.5718 42.1796 58.7065 42.1023 58.8271C42.0251 58.9478 41.9249 59.052 41.8075 59.1339C41.6901 59.2157 41.5577 59.2736 41.418 59.3042V59.3099ZM32.6639 62.2784C31.6033 62.7761 30.5513 63.3267 29.5365 63.9133C29.2865 64.0545 28.991 64.0912 28.7142 64.0154C28.4374 63.9396 28.2016 63.7574 28.0581 63.5084C27.9146 63.2594 27.875 62.9637 27.9479 62.6856C28.0207 62.4075 28.2002 62.1695 28.4472 62.0232C29.5164 61.4051 30.6243 60.8272 31.7393 60.3023C31.8691 60.2396 32.0099 60.2033 32.1538 60.1955C32.2976 60.1877 32.4416 60.2086 32.5773 60.2569C32.7131 60.3053 32.8379 60.3801 32.9445 60.4771C33.0512 60.5741 33.1376 60.6913 33.1988 60.822C33.2599 60.9527 33.2946 61.0942 33.3008 61.2384C33.307 61.3826 33.2845 61.5266 33.2348 61.6621C33.185 61.7975 33.109 61.9218 33.011 62.0276C32.913 62.1334 32.795 62.2186 32.6639 62.2784ZM8.12092 94.4789C7.97952 94.4575 7.84371 94.4084 7.72127 94.3344C7.59882 94.2604 7.49214 94.163 7.40732 94.0476C7.32251 93.9323 7.26122 93.8013 7.22697 93.6622C7.19273 93.5231 7.18619 93.3786 7.20773 93.237C7.39094 92.0166 7.63713 90.7876 7.92339 89.5844C7.95713 89.4451 8.01794 89.3137 8.10234 89.1979C8.18674 89.0821 8.29308 88.9841 8.41529 88.9094C8.5375 88.8348 8.67319 88.785 8.81461 88.7629C8.95603 88.7408 9.10041 88.7468 9.2395 88.7806C9.3786 88.8144 9.50968 88.8753 9.62527 88.9599C9.74087 89.0445 9.83871 89.151 9.91321 89.2735C9.9877 89.3959 10.0374 89.5319 10.0595 89.6735C10.0815 89.8152 10.0755 89.9599 10.0418 90.0992C9.76695 91.2465 9.53937 92.4081 9.36474 93.5668C9.34256 93.7205 9.28684 93.8674 9.20157 93.997C9.08716 94.1734 8.92421 94.3127 8.73243 94.3982C8.54065 94.4837 8.32825 94.5118 8.12092 94.4789ZM24.7845 67.1184C23.8613 67.8354 22.9595 68.6098 22.1021 69.4129C21.9974 69.5105 21.8744 69.5864 21.7403 69.6363C21.6063 69.6863 21.4637 69.7093 21.3207 69.704C21.1778 69.6987 21.0373 69.6653 20.9072 69.6057C20.7772 69.546 20.6601 69.4612 20.5628 69.3563C20.4654 69.2513 20.3896 69.1281 20.3398 68.9938C20.2899 68.8594 20.2669 68.7166 20.2722 68.5734C20.2774 68.4301 20.3108 68.2894 20.3704 68.1591C20.4299 68.0288 20.5145 67.9115 20.6193 67.8139C21.5225 66.9736 22.48 66.1619 23.4447 65.4018C23.6482 65.2442 23.9007 65.1637 24.1576 65.1745C24.4146 65.1853 24.6594 65.2868 24.849 65.4609C25.0385 65.635 25.1606 65.8706 25.1936 66.1262C25.2265 66.3817 25.1683 66.6407 25.0292 66.8574C24.9628 66.9575 24.8801 67.0458 24.7845 67.1184ZM10.3495 85.2363C10.0807 85.1302 9.86505 84.9215 9.74989 84.656C9.63474 84.3906 9.62955 84.0902 9.73545 83.8209C10.1878 82.6737 10.6959 81.5264 11.2441 80.4208C11.3771 80.1697 11.6026 79.9805 11.8727 79.8934C12.1427 79.8063 12.4361 79.8283 12.6902 79.9546C12.9444 80.0809 13.1394 80.3016 13.2336 80.5697C13.3279 80.8378 13.314 81.1322 13.195 81.3902C12.674 82.4428 12.1931 83.5298 11.7637 84.6211C11.7114 84.7546 11.6333 84.8764 11.534 84.9796C11.4346 85.0827 11.3159 85.1653 11.1847 85.2224C11.0535 85.2796 10.9123 85.3102 10.7692 85.3126C10.6261 85.315 10.484 85.2891 10.3509 85.2363H10.3495ZM18.2003 73.5975C17.4618 74.5067 16.7533 75.4618 16.0934 76.4312C15.9295 76.6624 15.6823 76.8206 15.404 76.8723C15.1257 76.924 14.8382 76.8651 14.6025 76.7082C14.3668 76.5512 14.2013 76.3085 14.1411 76.0314C14.0809 75.7543 14.1307 75.4647 14.2799 75.2237L14.2928 75.2051C14.987 74.1826 15.7327 73.1788 16.5099 72.2208C16.6868 72.0072 16.9382 71.8692 17.213 71.8347C17.4878 71.8003 17.7654 71.872 17.9893 72.0353C18.2132 72.1987 18.3666 72.4413 18.4183 72.7139C18.47 72.9865 18.4161 73.2686 18.2676 73.5029C18.2404 73.5344 18.2175 73.5659 18.2003 73.5975Z" fill="url(#paint7_linear_570_3484)"/>
<path d="M8.7533 101.642C8.87379 101.455 8.93469 101.236 8.92792 101.014C8.90931 100.452 8.9036 99.8796 8.90789 99.3145C8.91436 99.1681 8.89134 99.022 8.8402 98.8847C8.78906 98.7474 8.71086 98.6218 8.61024 98.5155C8.50962 98.4091 8.38866 98.3242 8.25457 98.2657C8.12047 98.2072 7.97599 98.1763 7.82974 98.175C7.68349 98.1736 7.53846 98.2018 7.40332 98.2578C7.26817 98.3138 7.14567 98.3965 7.04312 98.501C6.94056 98.6055 6.86006 98.7296 6.80641 98.8659C6.75276 99.0022 6.72705 99.148 6.73083 99.2945C6.73083 99.8896 6.73084 100.49 6.75087 101.083C6.75782 101.315 6.83886 101.54 6.98215 101.723C7.12545 101.906 7.32348 102.039 7.54732 102.101C7.77116 102.164 8.00908 102.153 8.22631 102.07C8.44354 101.988 8.62871 101.838 8.75474 101.642H8.7533Z" fill="url(#paint8_linear_570_3484)"/>
</g>
<g opacity="0.3">
<path d="M22.6644 131.841C22.805 131.623 22.8638 131.362 22.8302 131.105C22.7967 130.849 22.6729 130.612 22.4811 130.438C22.0646 130.061 21.6481 129.668 21.2459 129.272C21.1458 129.164 21.0248 129.077 20.8902 129.017C20.7557 128.957 20.6103 128.925 20.463 128.922C20.3157 128.92 20.1695 128.948 20.0332 129.004C19.8969 129.06 19.7733 129.143 19.67 129.248C19.5667 129.354 19.4858 129.479 19.4322 129.616C19.3785 129.754 19.3533 129.901 19.358 130.048C19.3627 130.196 19.3972 130.341 19.4594 130.475C19.5217 130.608 19.6103 130.728 19.7201 130.827C20.1495 131.244 20.5789 131.658 21.0198 132.056C21.2344 132.249 21.5167 132.35 21.805 132.335C22.0934 132.321 22.3643 132.192 22.5584 131.978C22.5969 131.935 22.6323 131.889 22.6644 131.841Z" fill="url(#paint9_linear_570_3484)"/>
<path d="M85.4574 125.305C85.3737 125.422 85.2681 125.52 85.1465 125.595C85.0248 125.67 84.8896 125.721 84.7485 125.744C84.6075 125.767 84.4633 125.761 84.3242 125.728C84.1851 125.695 84.0539 125.635 83.938 125.551C83.8221 125.468 83.7239 125.362 83.6488 125.24C83.5738 125.118 83.5234 124.983 83.5006 124.841C83.4778 124.7 83.483 124.555 83.516 124.416C83.5489 124.277 83.6089 124.145 83.6926 124.029C84.3624 123.098 85.0037 122.125 85.6048 121.125C85.7626 120.897 86.0014 120.737 86.2726 120.679C86.5438 120.621 86.8269 120.668 87.0642 120.812C87.3015 120.956 87.4752 121.185 87.5498 121.453C87.6244 121.72 87.5942 122.006 87.4655 122.252C87.205 122.685 86.9383 123.113 86.6654 123.534C86.2804 124.134 85.8725 124.73 85.4574 125.305ZM88.7494 117.534C88.6178 117.478 88.4985 117.396 88.3985 117.293C88.2984 117.191 88.2196 117.069 88.1664 116.936C88.1132 116.803 88.0868 116.661 88.0886 116.517C88.0904 116.374 88.1204 116.232 88.1769 116.1C88.6335 115.038 89.0515 113.949 89.4164 112.852C89.5139 112.585 89.7114 112.367 89.9668 112.244C90.2222 112.121 90.5154 112.102 90.7843 112.192C91.0532 112.282 91.2765 112.474 91.4067 112.726C91.5369 112.978 91.5639 113.271 91.4818 113.543C91.0968 114.691 90.6588 115.846 90.1765 116.964C90.1528 117.021 90.1236 117.076 90.0892 117.128C89.9493 117.343 89.7388 117.501 89.4943 117.575C89.2499 117.649 88.9872 117.635 88.7523 117.534H88.7494ZM81.6601 129.877C80.8242 130.755 79.9425 131.608 79.0278 132.414C78.9212 132.512 78.7961 132.588 78.6599 132.637C78.5237 132.686 78.3791 132.708 78.2345 132.7C78.09 132.693 77.9483 132.656 77.8179 132.593C77.6875 132.53 77.571 132.442 77.4751 132.333C77.3792 132.225 77.3059 132.098 77.2594 131.96C77.213 131.823 77.1943 131.678 77.2046 131.533C77.2148 131.388 77.2537 131.247 77.3191 131.118C77.3844 130.988 77.4748 130.873 77.5851 130.779C78.4439 130.014 79.2912 129.202 80.0856 128.37C80.2722 128.172 80.5264 128.05 80.7978 128.03C81.0693 128.011 81.3384 128.093 81.5519 128.262C81.7655 128.431 81.908 128.675 81.9513 128.944C81.9946 129.213 81.9357 129.489 81.786 129.717C81.7504 129.774 81.7092 129.828 81.6629 129.877H81.6601ZM91.7066 108.653C91.4229 108.6 91.172 108.435 91.0091 108.197C90.8462 107.958 90.7846 107.664 90.8377 107.38C91.051 106.244 91.217 105.085 91.333 103.938C91.3664 103.653 91.5101 103.394 91.7331 103.214C91.9561 103.035 92.2405 102.951 92.525 102.98C92.8094 103.009 93.0711 103.149 93.2535 103.369C93.436 103.59 93.5245 103.873 93.5 104.159C93.3783 105.368 93.2023 106.587 92.979 107.783C92.9525 107.924 92.8986 108.058 92.8203 108.178C92.7421 108.298 92.641 108.401 92.5228 108.482C92.4046 108.563 92.2717 108.62 92.1317 108.649C91.9916 108.678 91.8472 108.68 91.7066 108.653ZM74.3288 136.034C73.3269 136.705 72.2691 137.343 71.2042 137.93C70.951 138.069 70.6529 138.102 70.3755 138.021C70.098 137.94 69.864 137.752 69.7249 137.499C69.5858 137.245 69.5529 136.946 69.6336 136.668C69.7143 136.39 69.9018 136.156 70.155 136.016C71.167 135.46 72.1589 134.855 73.1222 134.217C73.3308 134.078 73.5807 134.016 73.8297 134.041C74.0788 134.065 74.3118 134.175 74.4897 134.351C74.6676 134.527 74.7794 134.76 74.8064 135.009C74.8334 135.258 74.7739 135.509 74.6379 135.72C74.5581 135.845 74.4527 135.952 74.3288 136.034ZM65.8238 140.435C64.6902 140.865 63.5251 141.262 62.3614 141.602C62.0839 141.683 61.7858 141.65 61.5325 141.511C61.2792 141.371 61.0916 141.137 61.011 140.859C60.9303 140.581 60.9632 140.282 61.1024 140.028C61.2415 139.774 61.4756 139.586 61.7531 139.506C62.8595 139.184 63.966 138.811 65.0452 138.397C65.3142 138.297 65.6119 138.307 65.8735 138.425C66.1351 138.543 66.3396 138.76 66.4423 139.029C66.5451 139.297 66.538 139.596 66.4224 139.859C66.3069 140.122 66.0923 140.329 65.8252 140.435H65.8238ZM56.5602 142.873C55.3594 143.051 54.137 143.18 52.9275 143.256C52.6446 143.266 52.3689 143.165 52.1588 142.975C51.9488 142.784 51.8209 142.52 51.8023 142.237C51.7837 141.954 51.8758 141.674 52.0591 141.458C52.2424 141.242 52.5026 141.106 52.7844 141.079C53.9295 141.006 55.0946 140.882 56.2368 140.713C56.5226 140.67 56.8138 140.743 57.0463 140.915C57.2787 141.087 57.4334 141.344 57.4763 141.631C57.5192 141.917 57.4468 142.209 57.275 142.442C57.1032 142.675 56.8461 142.83 56.5602 142.873ZM46.9918 143.226C45.7809 143.135 44.5585 142.993 43.3619 142.795C43.2137 142.781 43.07 142.737 42.9395 142.665C42.8091 142.593 42.6948 142.495 42.6036 142.377C42.5124 142.259 42.4463 142.124 42.4094 141.979C42.3725 141.835 42.3655 141.684 42.3889 141.537C42.4124 141.39 42.4657 141.249 42.5456 141.123C42.6255 140.997 42.7303 140.889 42.8535 140.805C42.9768 140.722 43.1158 140.664 43.2621 140.637C43.4084 140.609 43.5588 140.611 43.704 140.644C44.8419 140.826 45.9942 140.961 47.1521 141.046C47.4402 141.067 47.7081 141.202 47.8968 141.421C48.0855 141.641 48.1796 141.926 48.1583 142.215C48.1371 142.503 48.0022 142.772 47.7835 142.961C47.5647 143.15 47.2799 143.244 46.9918 143.223V143.226ZM37.5736 141.462C36.4157 141.109 35.2563 140.7 34.1284 140.248C33.8651 140.138 33.6557 139.928 33.5455 139.664C33.4352 139.4 33.4328 139.103 33.5389 138.837C33.6449 138.571 33.8509 138.358 34.1124 138.243C34.374 138.128 34.6701 138.12 34.9371 138.222C36.0078 138.652 37.1085 139.039 38.2092 139.369C38.346 139.411 38.4733 139.48 38.5838 139.571C38.6942 139.662 38.7857 139.774 38.8529 139.9C38.9202 140.027 38.9619 140.165 38.9757 140.308C38.9895 140.451 38.9752 140.595 38.9334 140.732C38.9034 140.829 38.8601 140.923 38.8046 141.008C38.6757 141.206 38.4863 141.356 38.2648 141.437C38.0433 141.517 37.8018 141.523 37.5765 141.454L37.5736 141.462ZM28.7924 137.667C28.0152 137.227 27.2423 136.756 26.4952 136.269C26.2246 136.094 25.957 135.915 25.6907 135.734C25.5714 135.654 25.4692 135.552 25.3901 135.432C25.3109 135.312 25.2564 135.178 25.2297 135.036C25.2031 134.895 25.2048 134.75 25.2348 134.61C25.2648 134.469 25.3225 134.336 25.4045 134.218C25.5672 133.979 25.818 133.815 26.1017 133.761C26.3854 133.707 26.6788 133.769 26.9174 133.931C27.1693 134.103 27.4241 134.274 27.6817 134.442C28.3974 134.904 29.1259 135.351 29.8659 135.77C30.1172 135.913 30.3016 136.149 30.3786 136.428C30.4557 136.707 30.419 137.005 30.2767 137.257C30.2653 137.277 30.2538 137.296 30.2409 137.314C30.0897 137.547 29.8556 137.713 29.5865 137.778C29.3173 137.844 29.0333 137.804 28.7924 137.667Z" fill="url(#paint10_linear_570_3484)"/>
<path d="M93.5199 98.8255C93.6423 98.638 93.7034 98.4169 93.6945 98.1931C93.6731 97.6022 93.6387 97.0014 93.5929 96.4062C93.585 96.261 93.5483 96.1188 93.4848 95.988C93.4212 95.8572 93.3323 95.7404 93.2231 95.6445C93.1139 95.5487 92.9866 95.4756 92.8489 95.4297C92.7111 95.3839 92.5655 95.366 92.4208 95.3773C92.276 95.3886 92.135 95.4288 92.006 95.4954C91.8769 95.5621 91.7625 95.654 91.6694 95.7656C91.5763 95.8772 91.5064 96.0064 91.4639 96.1454C91.4213 96.2845 91.4069 96.4307 91.4216 96.5754C91.4659 97.1405 91.4989 97.7112 91.5189 98.2719C91.527 98.5042 91.6089 98.7277 91.7526 98.9101C91.8963 99.0925 92.0944 99.2242 92.318 99.2859C92.5415 99.3477 92.779 99.3363 92.9957 99.2535C93.2124 99.1707 93.397 99.0207 93.5228 98.8255H93.5199Z" fill="url(#paint11_linear_570_3484)"/>
</g>
<path d="M79.8608 86.0753C79.828 85.9744 79.7648 85.8862 79.68 85.8228C79.5952 85.7594 79.4928 85.7238 79.387 85.721L73.1936 85.5776C71.6863 83.0563 69.7785 80.7981 67.5456 78.892L68.4302 72.7543C68.4449 72.6491 68.4266 72.542 68.3779 72.4477C68.3292 72.3534 68.2524 72.2766 68.1582 72.228L61.5526 68.8221C61.4584 68.7732 61.3513 68.7551 61.2464 68.7702C61.1414 68.7854 61.0438 68.8331 60.9672 68.9067L56.4957 73.1945C53.6498 72.4823 50.707 72.2401 47.7832 72.4775L44.0732 67.507C44.0094 67.4222 43.9208 67.3594 43.8198 67.3273C43.7187 67.2952 43.6102 67.2954 43.5093 67.3278L36.4342 69.5993C36.3332 69.6316 36.2448 69.6947 36.1815 69.7799C36.1181 69.865 36.0828 69.9678 36.0807 70.074L35.949 76.2821C33.4331 77.7932 31.1793 79.7045 29.2761 81.9409L23.15 81.056C23.0452 81.0407 22.9382 81.0586 22.844 81.1072C22.7498 81.1558 22.6732 81.2327 22.6247 81.3271L19.2196 87.9482C19.1713 88.0425 19.1537 88.1496 19.169 88.2545C19.1844 88.3594 19.2321 88.4568 19.3055 88.5332L23.5852 93.0147C22.8742 95.866 22.6324 98.8145 22.8695 101.744L17.9085 105.461C17.8238 105.524 17.7611 105.613 17.729 105.714C17.6969 105.815 17.6971 105.924 17.7296 106.025L19.9968 113.113C20.0288 113.214 20.0915 113.303 20.1762 113.366C20.2609 113.43 20.3634 113.465 20.4691 113.467L26.6625 113.611C28.1696 116.132 30.0773 118.39 32.3105 120.296L31.4274 126.436C31.4121 126.541 31.43 126.648 31.4785 126.742C31.527 126.836 31.6037 126.913 31.6979 126.962L38.305 130.368C38.3989 130.416 38.5058 130.435 38.6105 130.419C38.7152 130.404 38.8126 130.357 38.8889 130.283L43.3618 125.995C46.2078 126.707 49.1506 126.949 52.0743 126.712L55.7844 131.681C55.8475 131.767 55.9357 131.83 56.0366 131.862C56.1375 131.895 56.246 131.895 56.3469 131.862L63.4219 129.59C63.523 129.558 63.6115 129.495 63.675 129.41C63.7384 129.325 63.7735 129.222 63.7755 129.116L63.9186 122.911C66.4346 121.399 68.6871 119.486 70.5872 117.246L76.7147 118.132C76.8195 118.147 76.9262 118.129 77.0203 118.08C77.1143 118.032 77.1911 117.955 77.24 117.861L80.6394 111.242C80.6878 111.147 80.7056 111.04 80.6905 110.935C80.6754 110.83 80.628 110.732 80.555 110.655L76.2753 106.175C76.9855 103.324 77.2272 100.375 76.991 97.4459L81.952 93.7289C82.0369 93.6655 82.0999 93.5771 82.1323 93.476C82.1646 93.375 82.1646 93.2663 82.1323 93.1653L79.8608 86.0753Z" fill="url(#paint12_linear_570_3484)"/>
<path opacity="0.56" d="M55.5289 104.543C54.2506 105.998 52.459 106.899 50.5311 107.057C48.6031 107.216 46.689 106.619 45.1912 105.392C43.6934 104.166 42.7286 102.405 42.4998 100.481C42.2709 98.5563 42.7959 96.6179 43.9642 95.0732C45.1325 93.5285 46.8531 92.4979 48.7643 92.1981C50.6754 91.8983 52.6282 92.3526 54.2118 93.4656C55.7954 94.5787 56.8866 96.2636 57.2558 98.1661C57.6251 100.069 57.2436 102.04 56.1916 103.667C55.9924 103.975 55.7709 104.268 55.5289 104.543ZM44.2114 99.9541C44.2955 101.278 44.8353 102.532 45.7387 103.503C46.6421 104.473 47.8532 105.099 49.1659 105.275C50.4785 105.451 51.8115 105.166 52.9377 104.468C54.0639 103.769 54.9137 102.702 55.3423 101.446C55.7709 100.191 55.7519 98.8252 55.2885 97.5822C54.825 96.3392 53.9458 95.2957 52.8006 94.6293C51.6554 93.9629 50.315 93.7148 49.0078 93.9275C47.7005 94.1401 46.5073 94.8001 45.6313 95.7953C45.4437 96.0085 45.272 96.2352 45.1174 96.4736C44.4475 97.5049 44.1295 98.7262 44.2114 99.9541Z" fill="white"/>
<path opacity="0.56" d="M65.1481 109.684C65.4912 109.156 65.8075 108.61 66.0957 108.049C66.1873 107.872 66.276 107.692 66.3605 107.512C66.782 106.623 67.1319 105.702 67.4068 104.758C67.4068 104.745 67.4068 104.732 67.4182 104.719L67.4497 104.61C67.4697 104.539 67.4884 104.467 67.5084 104.397C67.5332 104.308 67.5288 104.213 67.4958 104.127C67.4628 104.041 67.403 103.967 67.3252 103.918C67.2871 103.892 67.245 103.873 67.2007 103.862C67.1454 103.846 67.0875 103.842 67.0305 103.849C66.9735 103.856 66.9184 103.874 66.8686 103.903C66.8188 103.932 66.7753 103.97 66.7407 104.016C66.706 104.062 66.6809 104.114 66.6668 104.17C65.7356 107.631 63.7686 110.724 61.0305 113.031C58.2924 115.339 54.9146 116.751 51.3515 117.077C48.0427 117.387 44.7147 116.74 41.7616 115.213C41.2278 114.937 40.708 114.635 40.2043 114.308C36.455 111.85 33.79 108.044 32.7586 103.676C31.7272 99.307 32.4082 94.7085 34.6612 90.8281C36.9141 86.9478 40.5672 84.0814 44.8673 82.8201C49.1673 81.5588 53.7865 81.9986 57.7725 84.0489C60.5859 85.4977 62.9541 87.6845 64.6243 90.376C64.6581 90.4303 64.7036 90.4763 64.7574 90.5108C64.8394 90.5728 64.941 90.6033 65.0435 90.5967C65.1461 90.5901 65.2429 90.5469 65.3164 90.4748C65.3899 90.4028 65.4351 90.3068 65.4439 90.2041C65.4527 90.1015 65.4244 89.9992 65.3643 89.9156C63.9441 87.6265 62.0383 85.6788 59.7821 84.2109C59.2611 83.8725 58.7229 83.5599 58.1675 83.2731C49.1645 78.6296 38.0688 82.1947 33.4356 91.212C31.3575 95.2611 30.8512 99.9381 32.0144 104.339C33.1775 108.741 35.9277 112.554 39.7334 115.042C40.2582 115.383 40.8031 115.7 41.368 115.993C45.4092 118.075 50.0775 118.583 54.4706 117.418C58.8637 116.252 62.6695 113.496 65.1524 109.683L65.1481 109.684Z" fill="white"/>
<g opacity="0.3">
<path d="M122.176 51.8097C122.255 51.6879 122.293 51.5435 122.283 51.3983C122.273 51.2532 122.217 51.1152 122.122 51.0052C121.751 50.575 121.36 50.1448 120.964 49.7303C120.839 49.605 120.67 49.5338 120.494 49.5321C120.317 49.5305 120.147 49.5984 120.02 49.7213C119.893 49.8443 119.819 50.0123 119.815 50.1892C119.81 50.3661 119.875 50.5376 119.996 50.6668C120.375 51.0597 120.748 51.4684 121.101 51.8829C121.218 52.0182 121.383 52.1017 121.561 52.1151C121.739 52.1286 121.915 52.0708 122.05 51.9546C122.099 51.9126 122.141 51.8638 122.176 51.8097Z" fill="url(#paint13_linear_570_3484)"/>
<path d="M118.422 48.2518C118.366 48.3208 118.298 48.3781 118.22 48.4205C118.143 48.463 118.058 48.4897 117.97 48.4991C117.882 48.5086 117.793 48.5006 117.708 48.4756C117.623 48.4507 117.544 48.4092 117.476 48.3537C116.741 47.7621 115.976 47.2084 115.186 46.6944C115.021 46.5869 114.852 46.4808 114.683 46.3746C114.532 46.2803 114.424 46.1295 114.383 45.9555C114.343 45.7816 114.373 45.5986 114.467 45.4468C114.565 45.2997 114.715 45.1954 114.887 45.1552C115.059 45.115 115.24 45.1418 115.393 45.2303C115.571 45.3407 115.745 45.4511 115.918 45.5644C116.746 46.1031 117.546 46.6837 118.314 47.3039C118.444 47.4085 118.531 47.5575 118.557 47.7223C118.584 47.8871 118.548 48.0558 118.458 48.1959L118.422 48.2518ZM111.682 44.7513C110.647 44.2726 109.585 43.8574 108.5 43.508C108.415 43.4809 108.337 43.4375 108.269 43.3801C108.201 43.3227 108.145 43.2525 108.105 43.1734C108.064 43.0944 108.039 43.0081 108.032 42.9195C108.024 42.8308 108.034 42.7416 108.061 42.6568C108.088 42.5721 108.131 42.4935 108.189 42.4255C108.246 42.3576 108.316 42.3016 108.395 42.2608C108.474 42.22 108.56 42.1951 108.648 42.1877C108.737 42.1802 108.826 42.1903 108.911 42.2173C110.048 42.5828 111.162 43.0181 112.246 43.5209C112.326 43.5581 112.398 43.6107 112.458 43.6758C112.518 43.7409 112.564 43.8172 112.594 43.9003C112.625 43.9834 112.639 44.0717 112.635 44.1601C112.631 44.2485 112.61 44.3354 112.573 44.4157C112.561 44.4456 112.545 44.4739 112.526 44.5003C112.439 44.6371 112.306 44.7379 112.151 44.784C111.996 44.8301 111.829 44.8185 111.682 44.7513ZM105.189 42.6676C104.069 42.4576 102.936 42.3167 101.798 42.246C101.623 42.2314 101.46 42.1486 101.345 42.0152C101.23 41.8819 101.172 41.7086 101.183 41.5327C101.193 41.3567 101.273 41.192 101.403 41.0739C101.534 40.9558 101.706 40.8937 101.881 40.9008C103.074 40.9747 104.262 41.1222 105.437 41.3425C105.612 41.3754 105.767 41.4768 105.868 41.6243C105.969 41.7718 106.007 41.9534 105.974 42.1291C105.941 42.3048 105.84 42.4603 105.693 42.5613C105.546 42.6622 105.365 42.7005 105.189 42.6676ZM98.3832 42.246C97.2463 42.3167 96.1148 42.4575 94.9952 42.6676C94.8198 42.7007 94.6385 42.6626 94.4911 42.5618C94.3438 42.4609 94.2424 42.3055 94.2094 42.1298C94.1764 41.9541 94.2144 41.7724 94.315 41.6248C94.4157 41.4771 94.5708 41.3756 94.7462 41.3425C95.9207 41.1229 97.1076 40.9754 98.3001 40.9008C98.476 40.8937 98.6476 40.9558 98.7782 41.0739C98.9088 41.192 98.9881 41.3567 98.9989 41.5327C99.0098 41.7086 98.9514 41.8819 98.8363 42.0152C98.7212 42.1486 98.5585 42.2314 98.3832 42.246ZM91.6817 43.5022C90.5961 43.8481 89.5325 44.26 88.497 44.7355C88.3357 44.8045 88.154 44.8078 87.9904 44.7445C87.8268 44.6813 87.6944 44.5565 87.6212 44.3969C87.5481 44.2372 87.54 44.0553 87.5988 43.8898C87.6576 43.7243 87.7785 43.5883 87.9359 43.5108C89.0212 43.0128 90.1359 42.5818 91.2737 42.2202C91.3583 42.1933 91.4474 42.1835 91.5358 42.1911C91.6242 42.1987 91.7102 42.2237 91.7889 42.2647C91.8677 42.3056 91.9376 42.3617 91.9947 42.4297C92.0518 42.4978 92.095 42.5764 92.1218 42.6611C92.1486 42.7459 92.1585 42.8351 92.1508 42.9236C92.1432 43.0122 92.1182 43.0984 92.0774 43.1773C92.0365 43.2562 91.9805 43.3263 91.9126 43.3835C91.8447 43.4407 91.7663 43.484 91.6817 43.5108V43.5022ZM85.4869 46.3503C84.5187 46.9494 83.5885 47.6079 82.7015 48.3221C82.562 48.4276 82.3869 48.4745 82.2135 48.453C82.04 48.4314 81.8817 48.3431 81.7722 48.2066C81.6626 48.0702 81.6103 47.8964 81.6264 47.722C81.6425 47.5476 81.7257 47.3863 81.8584 47.2724C82.7889 46.5225 83.7651 45.8314 84.7812 45.203C84.9113 45.1233 85.0644 45.0903 85.2157 45.1092C85.3669 45.1282 85.5073 45.198 85.6137 45.3073C85.7202 45.4167 85.7864 45.5589 85.8016 45.7109C85.8168 45.8629 85.78 46.0155 85.6973 46.1438C85.6436 46.2276 85.5717 46.2982 85.4869 46.3503ZM80.1781 50.6266C79.3862 51.447 78.6453 52.3153 77.9595 53.2266C77.8521 53.3694 77.6924 53.4636 77.5157 53.4885C77.3389 53.5134 77.1595 53.4669 77.017 53.3592C76.8744 53.2516 76.7804 53.0916 76.7556 52.9146C76.7307 52.7375 76.7771 52.5577 76.8846 52.4149C77.6039 51.4598 78.3812 50.5498 79.2119 49.6902C79.3281 49.5694 79.4851 49.4965 79.6521 49.4855C79.8192 49.4745 79.9843 49.5263 80.1153 49.6308C80.2462 49.7353 80.3336 49.885 80.3603 50.0506C80.387 50.2161 80.3511 50.3858 80.2596 50.5262C80.2361 50.5625 80.2088 50.5962 80.1781 50.6266ZM73.6727 59.5035C73.5913 59.469 73.5174 59.4188 73.4554 59.3558C73.3934 59.2928 73.3443 59.2181 73.3111 59.1361C73.2779 59.054 73.2611 58.9662 73.2617 58.8777C73.2624 58.7892 73.2804 58.7016 73.3148 58.6201C73.7204 57.6649 74.1762 56.7319 74.6803 55.8251C74.7562 55.6817 74.8335 55.5498 74.9122 55.4135C74.955 55.3342 75.0132 55.2642 75.0835 55.2078C75.1538 55.1514 75.2346 55.1097 75.3213 55.0852C75.4079 55.0607 75.4986 55.0538 75.5879 55.0651C75.6773 55.0763 75.7634 55.1054 75.8413 55.1506C75.9193 55.1958 75.9873 55.2563 76.0415 55.3283C76.0957 55.4004 76.1348 55.4826 76.1567 55.5701C76.1786 55.6576 76.1827 55.7486 76.1688 55.8377C76.1549 55.9269 76.1233 56.0123 76.0759 56.089C76.0029 56.2166 75.9327 56.3457 75.8569 56.4776C75.3755 57.3448 74.9407 58.2371 74.5544 59.1507C74.5203 59.2325 74.4704 59.3067 74.4075 59.3691C74.3447 59.4315 74.2701 59.4807 74.1881 59.5141C74.1061 59.5474 74.0184 59.5641 73.9299 59.5633C73.8414 59.5625 73.754 59.5441 73.6727 59.5092V59.5035Z" fill="url(#paint14_linear_570_3484)"/>
</g>
<g opacity="0.3">
<path d="M124.206 86.1499C123.552 87.128 122.841 88.0661 122.076 88.9592C121.96 89.0948 121.794 89.1785 121.616 89.192C121.438 89.2054 121.262 89.1475 121.127 89.0309C120.992 88.9143 120.908 88.7487 120.895 88.5704C120.881 88.392 120.939 88.2157 121.056 88.0801C121.786 87.2291 122.464 86.3345 123.087 85.4013C123.186 85.2539 123.339 85.1517 123.512 85.1167C123.686 85.0818 123.867 85.117 124.015 85.2146C124.163 85.3123 124.266 85.4646 124.303 85.6384C124.34 85.8122 124.306 85.9934 124.21 86.1427L124.206 86.1499ZM125.079 83.3993C125 83.3594 124.93 83.3042 124.873 83.2371C124.815 83.17 124.772 83.0922 124.744 83.0082C124.717 82.9241 124.706 82.8355 124.713 82.7473C124.72 82.6592 124.744 82.5732 124.784 82.4944C125.291 81.4923 125.737 80.4608 126.121 79.4055C126.149 79.3197 126.194 79.2404 126.253 79.1724C126.313 79.1044 126.385 79.049 126.466 79.0096C126.547 78.9701 126.635 78.9473 126.725 78.9427C126.815 78.938 126.905 78.9515 126.99 78.9823C127.075 79.0132 127.152 79.0608 127.218 79.1222C127.284 79.1837 127.337 79.2579 127.374 79.3403C127.411 79.4227 127.431 79.5117 127.433 79.602C127.435 79.6922 127.418 79.782 127.385 79.8658C126.983 80.9722 126.515 82.0535 125.984 83.1039C125.973 83.1257 125.96 83.1468 125.946 83.167C125.856 83.306 125.717 83.4065 125.557 83.4494C125.397 83.4922 125.227 83.4744 125.079 83.3993ZM119.619 91.4903C118.749 92.282 117.832 93.02 116.873 93.7002C116.801 93.7538 116.719 93.7924 116.632 93.8138C116.545 93.8352 116.455 93.8389 116.366 93.8248C116.278 93.8107 116.193 93.779 116.117 93.7315C116.041 93.6841 115.975 93.6219 115.923 93.5486C115.871 93.4753 115.835 93.3924 115.815 93.3047C115.796 93.217 115.794 93.1263 115.81 93.038C115.826 92.9496 115.86 92.8654 115.909 92.7902C115.958 92.7151 116.022 92.6505 116.096 92.6003C117.01 91.9505 117.885 91.2466 118.715 90.4922C118.836 90.3858 118.992 90.3264 119.153 90.3249C119.314 90.3234 119.47 90.3799 119.593 90.4841C119.716 90.5883 119.798 90.7332 119.823 90.8926C119.849 91.052 119.816 91.2153 119.732 91.3526C119.7 91.4032 119.662 91.4494 119.619 91.4903ZM127.578 76.9862C127.404 76.9456 127.254 76.8377 127.159 76.6861C127.065 76.5345 127.034 76.3516 127.074 76.1774C127.326 75.0831 127.51 73.9744 127.627 72.8576C127.646 72.6798 127.734 72.5168 127.873 72.4045C128.012 72.2922 128.19 72.2398 128.368 72.2588C128.545 72.2778 128.708 72.3667 128.82 72.5059C128.932 72.6451 128.984 72.8232 128.965 73.001C128.845 74.1722 128.654 75.335 128.393 76.4829C128.375 76.5597 128.344 76.633 128.301 76.6994C128.225 76.816 128.114 76.9061 127.985 76.9574C127.855 77.0088 127.713 77.0188 127.578 76.9862ZM113.883 95.5587C112.849 96.1168 111.782 96.6124 110.688 97.043C110.606 97.0753 110.518 97.091 110.43 97.0893C110.341 97.0876 110.254 97.0684 110.173 97.0329C110.092 96.9975 110.019 96.9463 109.958 96.8825C109.896 96.8186 109.848 96.7433 109.816 96.6608C109.784 96.5783 109.768 96.4903 109.77 96.4017C109.772 96.3132 109.791 96.2258 109.826 96.1446C109.862 96.0635 109.913 95.9901 109.976 95.9287C110.04 95.8673 110.115 95.8191 110.198 95.7868C111.24 95.3776 112.258 94.9054 113.243 94.3728C113.375 94.3017 113.526 94.2766 113.674 94.3014C113.821 94.3261 113.956 94.3993 114.057 94.5095C114.159 94.6197 114.22 94.7605 114.233 94.9097C114.245 95.0589 114.208 95.2081 114.126 95.3336C114.065 95.4275 113.982 95.5048 113.883 95.5587ZM107.338 98.13C106.2 98.4236 105.046 98.6491 103.881 98.8055C103.704 98.8289 103.525 98.7809 103.384 98.6721C103.242 98.5633 103.149 98.4026 103.126 98.2254C103.103 98.0482 103.151 97.8689 103.259 97.727C103.368 97.5851 103.528 97.4923 103.705 97.4689C104.814 97.3199 105.914 97.1044 106.997 96.8236C107.083 96.8016 107.172 96.7966 107.259 96.8091C107.347 96.8216 107.431 96.8512 107.507 96.8963C107.583 96.9414 107.65 97.001 107.703 97.0718C107.756 97.1426 107.794 97.2232 107.816 97.309C107.838 97.3948 107.843 97.4841 107.831 97.5718C107.819 97.6595 107.789 97.7438 107.744 97.8201C107.699 97.8963 107.639 97.9629 107.569 98.0161C107.498 98.0693 107.418 98.108 107.332 98.13H107.338ZM100.367 99.0579C99.1919 99.0709 98.017 99.012 96.8489 98.8815C96.7587 98.8752 96.6706 98.8508 96.59 98.8096C96.5094 98.7685 96.4379 98.7115 96.3798 98.642C96.3217 98.5725 96.2781 98.492 96.2518 98.4053C96.2255 98.3186 96.2168 98.2275 96.2265 98.1373C96.2361 98.0472 96.2638 97.9599 96.3078 97.8808C96.3519 97.8016 96.4115 97.7322 96.4829 97.6766C96.5544 97.621 96.6363 97.5805 96.7238 97.5574C96.8113 97.5342 96.9025 97.529 96.992 97.5421C98.1059 97.6668 99.2264 97.7229 100.347 97.7098C100.435 97.7087 100.523 97.725 100.605 97.7578C100.687 97.7907 100.762 97.8394 100.825 97.9012C100.889 97.9629 100.939 98.0366 100.974 98.118C101.009 98.1993 101.027 98.2867 101.028 98.3752C101.03 98.5081 100.992 98.6384 100.92 98.7495C100.86 98.8426 100.778 98.9196 100.682 98.9736C100.586 99.0276 100.478 99.0571 100.367 99.0593V99.0579Z" fill="url(#paint15_linear_570_3484)"/>
<path d="M129.01 69.8188C129.083 69.7056 129.121 69.5734 129.119 69.4388C129.107 68.8651 129.08 68.2915 129.036 67.7179C129.019 67.5421 128.934 67.38 128.799 67.2665C128.664 67.1529 128.49 67.097 128.314 67.1107C128.138 67.1244 127.975 67.2067 127.859 67.3398C127.743 67.4729 127.684 67.6463 127.695 67.8226C127.736 68.3618 127.763 68.9139 127.773 69.4646C127.776 69.6088 127.825 69.7483 127.913 69.8625C128.001 69.9768 128.123 70.0599 128.261 70.0996C128.399 70.1392 128.547 70.1333 128.682 70.0828C128.816 70.0322 128.932 69.9397 129.01 69.8188Z" fill="url(#paint16_linear_570_3484)"/>
</g>
<path d="M119.902 60.8013C119.881 60.7336 119.839 60.6743 119.782 60.6319C119.725 60.5894 119.657 60.5659 119.586 60.5647L115.442 60.4729C114.435 58.7862 113.159 57.2755 111.666 56.0001L112.257 51.8915C112.268 51.8214 112.256 51.7497 112.224 51.6867C112.191 51.6237 112.14 51.5724 112.077 51.5401L107.659 49.26C107.595 49.2277 107.524 49.2159 107.454 49.2261C107.384 49.2364 107.319 49.2683 107.268 49.3173L104.275 52.1855C102.371 51.7084 100.402 51.5456 98.445 51.7036L95.9631 48.378C95.9206 48.3209 95.8612 48.2786 95.7935 48.257C95.7257 48.2354 95.6529 48.2356 95.5852 48.2576L90.8518 49.7777C90.7841 49.799 90.7248 49.841 90.6821 49.8978C90.6395 49.9547 90.6158 50.0235 90.6142 50.0946L90.5241 54.2534C88.8401 55.2645 87.3318 56.5437 86.0583 58.0407L81.959 57.4485C81.8888 57.4381 81.8172 57.45 81.754 57.4824C81.6909 57.5148 81.6395 57.5661 81.6069 57.6292L79.3325 62.059C79.2998 62.1219 79.2877 62.1935 79.2977 62.2637C79.3077 62.3339 79.3394 62.3992 79.3883 62.4505L82.251 65.4491C81.7745 67.3569 81.6126 69.3299 81.7715 71.29L78.4508 73.7767C78.3941 73.8196 78.3522 73.8791 78.3306 73.9469C78.3091 74.0147 78.3091 74.0875 78.3305 74.1553L79.8477 78.8992C79.8699 78.9666 79.9123 79.0256 79.9692 79.068C80.0261 79.1103 80.0947 79.134 80.1655 79.1358L84.3092 79.2261C85.3179 80.9133 86.5942 82.4245 88.0879 83.7004L87.4911 87.8047C87.4813 87.8751 87.4935 87.9468 87.526 88.01C87.5586 88.0732 87.6099 88.1247 87.6728 88.1575L92.0928 90.4362C92.1558 90.469 92.2275 90.4813 92.2978 90.4712C92.3681 90.4612 92.4336 90.4294 92.485 90.3803L95.4779 87.5121C97.3821 87.9892 99.3512 88.152 101.308 87.994L103.79 91.3196C103.832 91.3762 103.891 91.4182 103.959 91.4398C104.026 91.4613 104.099 91.4614 104.166 91.44L108.901 89.9199C108.969 89.898 109.028 89.8556 109.07 89.7986C109.113 89.7416 109.137 89.6727 109.138 89.6016L109.229 85.4428C110.913 84.4322 112.421 83.1534 113.694 81.6569L117.794 82.2491C117.864 82.2588 117.935 82.2465 117.998 82.2139C118.061 82.1813 118.112 82.13 118.144 82.067L120.42 77.6386C120.452 77.5752 120.464 77.5034 120.454 77.4331C120.444 77.3627 120.412 77.2972 120.363 77.2457L117.5 74.2471C117.976 72.3392 118.139 70.3664 117.981 68.4061L121.301 65.9195C121.357 65.8771 121.4 65.8179 121.421 65.7502C121.443 65.6826 121.443 65.6099 121.421 65.5423L119.902 60.8013Z" fill="url(#paint17_linear_570_3484)"/>
<path opacity="0.56" d="M103.689 73.2174C102.818 74.208 101.598 74.8217 100.284 74.9295C98.9711 75.0373 97.6673 74.6308 96.6471 73.7955C95.6268 72.9602 94.9694 71.7611 94.8133 70.4502C94.6571 69.1394 95.0142 67.819 95.8096 66.7665C96.6049 65.714 97.7766 65.0114 99.0782 64.8065C100.38 64.6015 101.71 64.9102 102.789 65.6675C103.869 66.4249 104.613 67.5719 104.865 68.8676C105.118 70.1632 104.859 71.5065 104.144 72.6151C104.007 72.8266 103.855 73.0279 103.689 73.2174ZM97.3911 72.6596C98.1358 73.317 99.1107 73.6513 100.101 73.5889C101.092 73.5265 102.017 73.0726 102.674 72.3269C103.288 71.576 103.587 70.616 103.509 69.6486C103.431 68.6812 102.982 67.7818 102.256 67.1395C101.529 66.4972 100.583 66.1619 99.6152 66.2043C98.6474 66.2466 97.7337 66.6632 97.0661 67.3665C96.9451 67.5046 96.8342 67.6512 96.7341 67.8053C96.247 68.5601 96.0459 69.4649 96.1675 70.3555C96.2891 71.2461 96.7252 72.0635 97.3968 72.6596H97.3911Z" fill="white"/>
<path opacity="0.56" d="M110.388 76.7954C111.094 75.7088 111.63 74.5206 111.978 73.2719L112.008 73.16C112.035 73.0734 112.044 72.9822 112.035 72.8918C112.026 72.8015 111.999 72.7139 111.955 72.6344C111.912 72.5548 111.853 72.4849 111.781 72.4289C111.71 72.3728 111.628 72.3318 111.541 72.3082C111.453 72.2846 111.362 72.279 111.272 72.2916C111.182 72.3043 111.096 72.335 111.019 72.3819C110.941 72.4287 110.874 72.4908 110.821 72.5644C110.768 72.638 110.73 72.7216 110.71 72.8101C110.5 73.5894 110.207 74.3442 109.838 75.0616C109.818 75.1003 109.797 75.1391 109.777 75.1792C108.904 76.8444 107.627 78.2635 106.065 79.3064C105.215 79.873 104.292 80.3225 103.323 80.643H103.298L103.225 80.6674C101.81 81.1257 100.317 81.2983 98.8347 81.1752C97.3521 81.0521 95.9084 80.6358 94.5873 79.9503C94.2437 79.7723 93.9093 79.5771 93.5854 79.3652C91.1534 77.7763 89.4235 75.3122 88.7528 72.482C88.0822 69.6517 88.5222 66.6715 89.9818 64.1569C91.4415 61.6424 93.8093 59.7855 96.5962 58.9699C99.3832 58.1544 102.376 58.4424 104.957 59.7745C105.301 59.9478 105.636 60.1393 105.959 60.3481C107.348 61.2536 108.521 62.4541 109.394 63.8645C109.446 63.9486 109.516 64.0201 109.599 64.0738C109.727 64.1581 109.88 64.196 110.033 64.1812C110.185 64.1664 110.328 64.0998 110.437 63.9925C110.547 63.8851 110.616 63.7435 110.634 63.5911C110.653 63.4387 110.618 63.2846 110.537 63.1546C109.557 61.5755 108.243 60.2316 106.688 59.2181C106.328 58.9839 105.956 58.7681 105.574 58.5713C102.687 57.0809 99.3378 56.7585 96.2196 57.671C93.1015 58.5834 90.4523 60.6608 88.8192 63.4742C87.1861 66.2876 86.6939 69.6219 87.4442 72.7884C88.1946 75.955 90.1301 78.7118 92.8511 80.4895C93.2137 80.7247 93.5897 80.9432 93.979 81.1449C96.7674 82.5781 99.9865 82.9267 103.016 82.1236C106.046 81.3206 108.672 79.4226 110.388 76.7954Z" fill="white"/>
<path d="M258.388 122.539L238.83 142.585L262.291 136.306L258.388 122.539Z" fill="url(#paint18_linear_570_3484)"/>
<path d="M374.766 130.837L263.633 136.24C262.957 136.272 262.281 136.166 261.647 135.929C261.013 135.692 260.433 135.329 259.943 134.861C259.453 134.393 259.063 133.831 258.795 133.208C258.528 132.584 258.39 131.913 258.389 131.235V85.4271C258.389 83.0323 259.32 80.7316 260.984 79.0124C262.647 77.2931 264.914 76.2902 267.303 76.2161L367.463 73.1113C371.045 73.1113 374.48 74.5369 377.012 77.0743C379.545 79.6117 380.968 83.0532 380.968 86.6417V124.315C380.968 125.992 380.324 127.605 379.169 128.819C378.015 130.033 376.438 130.756 374.766 130.837Z" fill="url(#paint19_linear_570_3484)"/>
<path opacity="0.85" d="M266.956 134.4C265.136 134.398 263.391 133.671 262.104 132.381C260.818 131.09 260.096 129.341 260.096 127.517V86.2273C260.096 81.3615 263.989 77.4322 268.96 77.2816L365.937 74.3475C373.287 74.3475 379.261 80.1913 379.261 87.3746V122.969C379.261 126.394 376.523 129.208 373.026 129.372L267.291 134.392C267.179 134.397 267.068 134.4 266.956 134.4ZM365.944 74.8337L268.97 77.7663C264.261 77.9097 260.572 81.6254 260.572 86.2273V127.514C260.573 128.38 260.748 129.237 261.089 130.034C261.429 130.83 261.927 131.549 262.553 132.146C263.178 132.744 263.919 133.209 264.729 133.511C265.539 133.814 266.402 133.949 267.265 133.908L372.999 128.889C376.238 128.736 378.774 126.134 378.774 122.968V87.3746C378.779 80.4609 373.028 74.8337 365.944 74.8337Z" fill="white"/>
<path opacity="0.94" d="M365.621 83.1856L276.757 86.514C275.884 86.547 275.197 87.1264 275.225 87.8047L275.26 88.5862C275.288 89.2588 276.007 89.7751 276.872 89.7435L365.739 86.4925C366.612 86.4595 367.3 85.8802 367.271 85.2019L367.234 84.3414C367.206 83.6688 366.484 83.1526 365.621 83.1856Z" fill="white"/>
<path opacity="0.94" d="M357.669 105.73L268.803 109.045C267.931 109.078 267.244 109.677 267.274 110.38L267.31 111.19C267.339 111.887 268.059 112.422 268.923 112.39L357.792 109.159C358.665 109.128 359.352 108.528 359.322 107.824L359.283 106.929C359.253 106.23 358.532 105.693 357.669 105.73Z" fill="white"/>
<path opacity="0.94" d="M368.049 115.155L268.983 118.902C268.011 118.938 267.244 119.548 267.274 120.258L267.309 121.076C267.339 121.779 268.139 122.317 269.102 122.281L368.17 118.618C369.144 118.583 369.912 117.973 369.888 117.263L369.849 116.36C369.813 115.656 369.019 115.118 368.049 115.155Z" fill="white"/>
<path opacity="0.94" d="M316.897 96.4751L268.462 97.8891C267.987 97.9034 267.632 98.5574 267.671 99.3461L267.715 100.257C267.754 101.037 268.165 101.656 268.636 101.643L317.075 100.323C317.55 100.31 317.906 99.6559 317.868 98.8657L317.818 97.8618C317.777 97.0803 317.368 96.4608 316.897 96.4751Z" fill="white"/>
<path opacity="0.94" d="M370.267 94.7972L324.487 96.1122C324.038 96.1251 323.703 96.7776 323.741 97.5678L323.787 98.477C323.826 99.2586 324.217 99.8781 324.66 99.8666L370.451 98.6462C370.901 98.6333 371.236 97.9808 371.197 97.1906L371.147 96.1868C371.103 95.4052 370.712 94.7843 370.267 94.7972Z" fill="white"/>
<path d="M89.6437 383.493C89.6437 383.493 88.7276 388.688 88.2782 393.832C88.238 394.309 88.2946 394.789 88.4447 395.244C88.5948 395.698 88.8352 396.117 89.1514 396.476C89.4676 396.835 89.853 397.126 90.2845 397.331C90.716 397.536 91.1845 397.652 91.6618 397.671C98.4979 397.958 113.122 398.511 118.369 398.276C118.552 398.268 118.731 398.217 118.89 398.125C119.049 398.034 119.184 397.905 119.283 397.75C119.382 397.596 119.443 397.42 119.46 397.237C119.477 397.054 119.45 396.869 119.381 396.699C119.137 396.083 118.665 395.585 118.064 395.308L93.909 384.185L89.6437 383.493Z" fill="url(#paint20_linear_570_3484)"/>
<path d="M88.8945 380.439L89.6302 386.655C89.6302 386.655 93.8612 388.628 96.7511 386.407L94.9992 379.48L88.8945 380.439Z" fill="url(#paint21_linear_570_3484)"/>
<path d="M89.4467 263.599C89.129 265.223 87.7406 344.589 96.2083 380.155C96.2773 380.436 96.244 380.731 96.1143 380.989C95.9846 381.247 95.7672 381.45 95.5013 381.561C93.2976 382.414 90.9662 382.888 88.6051 382.965C88.1454 382.98 87.6938 382.841 87.3213 382.571C86.9487 382.301 86.6763 381.914 86.5469 381.472C84.1265 373.22 72.5284 331.882 71.0169 292.379C69.3265 248.246 71.0169 290.876 71.0169 290.876L72.0074 263.596L89.4467 263.599Z" fill="url(#paint22_linear_570_3484)"/>
<path d="M61.8572 386.203C61.8572 386.203 60.3986 388.826 58.9945 395.797C58.9344 396.093 58.9369 396.398 59.0018 396.693C59.0667 396.988 59.1927 397.266 59.3715 397.51C59.5504 397.753 59.7781 397.956 60.0401 398.105C60.3021 398.255 60.5924 398.348 60.8924 398.378C63.1497 398.6 66.6178 398.887 69.4089 398.867C69.7119 398.867 70.0114 398.802 70.2877 398.678C70.564 398.553 70.8109 398.371 71.012 398.144C71.2132 397.917 71.3642 397.65 71.4549 397.36C71.5457 397.071 71.5742 396.765 71.5387 396.464C71.231 393.92 70.2705 389.745 67.3019 386.491L61.8572 386.203Z" fill="url(#paint23_linear_570_3484)"/>
<path d="M60.5781 378.209L62.2957 387.608C62.2957 387.608 63.9961 388.876 67.3598 387.957L66.5396 377.845L60.5781 378.209Z" fill="url(#paint24_linear_570_3484)"/>
<path d="M55.9312 266.036C49.0065 307.91 57.4341 369.532 60.2768 381.592C60.3596 381.955 60.5478 382.284 60.8176 382.54C61.0874 382.795 61.4267 382.964 61.7925 383.026C63.0607 383.237 65.149 383.409 67.2087 382.81C67.5554 382.707 67.861 382.498 68.082 382.211C68.3031 381.925 68.4282 381.576 68.4396 381.214C68.8204 371.462 68.1348 311.602 74.5944 287.945C74.9219 286.747 75.6532 285.699 76.6641 284.98L89.1882 276.06L90.1486 261.64L55.9312 266.036Z" fill="url(#paint25_linear_570_3484)"/>
<path d="M100.06 186.69C79.3061 186.348 56.4048 192.151 56.4048 192.151C50.2186 228.317 55.3227 270.031 55.3227 270.031C71.3908 274.253 89.5143 267.45 89.5143 267.45C92.1852 252.333 104.645 209.792 104.645 209.792C114.784 208.53 123.139 205.599 130.018 201.724C124.771 195.63 122.289 187.875 121.223 183.292C113.887 185.576 106.463 186.797 100.06 186.69Z" fill="url(#paint26_linear_570_3484)"/>
<path d="M161.363 156.066C159.325 153.6 156.744 154.767 156.744 154.767C153.69 167.692 137.676 178.172 121.225 183.295C122.298 187.884 124.773 195.628 130.02 201.727C157.326 186.343 161.363 156.066 161.363 156.066Z" fill="url(#paint27_linear_570_3484)"/>
<path d="M160.87 156.691C161.083 157.371 158.612 158.412 157.158 155.626C157.108 154.294 156.299 148.589 157.094 147.503C161.323 141.724 169.526 134.481 169.526 134.481C170.912 135.852 169.771 137.197 169.771 137.197L165.792 141.355C166.624 142.863 167.638 144.135 168.115 145.957C168.464 147.349 168.264 148.821 167.558 150.069C166.86 151.329 165.908 152.969 165.006 154.251C163.301 156.673 160.87 156.691 160.87 156.691Z" fill="url(#paint28_linear_570_3484)"/>
<path d="M164.053 144.044L160.426 147.125L159.281 150.191L162.515 153.784C162.515 153.784 163.601 147.7 164.41 146.383C165.218 145.067 164.802 144.43 164.053 144.044Z" fill="url(#paint29_linear_570_3484)"/>
<path d="M64.3686 212.281L56.4075 192.147C56.4075 192.147 37.023 205.34 33.834 222.075C37.4968 222.346 44.1625 223.299 50.6865 226.6C52.1235 218.704 64.3686 212.281 64.3686 212.281Z" fill="url(#paint30_linear_570_3484)"/>
<path d="M81.3084 231.231C81.3084 231.231 59.5435 243.554 52.1994 233.031C50.675 230.847 50.31 228.676 50.6865 226.605C44.1625 223.306 37.4967 222.35 33.834 222.079C32.8736 227.124 33.3817 232.489 36.3402 237.909C49.2036 261.487 84.1882 236.607 84.1882 236.607L81.3084 231.231Z" fill="url(#paint31_linear_570_3484)"/>
<path d="M78.6932 246.822L90.5733 205.26C90.6384 205.029 90.7704 204.823 90.9526 204.668C91.1349 204.513 91.359 204.415 91.5967 204.388C93.7437 204.136 99.9842 203.43 107.185 202.819C115.858 202.085 125.936 201.488 131.947 201.996C132.145 202.012 132.336 202.076 132.503 202.182C132.67 202.289 132.809 202.435 132.907 202.607C133.005 202.78 133.059 202.974 133.065 203.172C133.071 203.371 133.028 203.568 132.941 203.746C129.517 210.684 115.44 238.903 108.389 248.147C108.275 248.299 108.127 248.421 107.957 248.505C107.787 248.588 107.599 248.631 107.41 248.629L79.8497 248.372C79.6627 248.371 79.4787 248.326 79.3119 248.241C79.145 248.156 79 248.034 78.888 247.884C78.7761 247.734 78.7003 247.56 78.6665 247.376C78.6327 247.192 78.6418 247.002 78.6932 246.822Z" fill="url(#paint32_linear_570_3484)"/>
<path d="M108.414 199.217L117.026 197.783C117.131 197.766 117.239 197.776 117.339 197.812C117.439 197.848 117.528 197.91 117.597 197.991C117.666 198.072 117.713 198.169 117.734 198.274C117.755 198.378 117.748 198.486 117.715 198.587L116.856 201.169C116.82 201.279 116.753 201.377 116.664 201.451C116.574 201.526 116.466 201.573 116.351 201.589L108.064 202.698C107.964 202.711 107.863 202.7 107.769 202.665C107.676 202.631 107.591 202.574 107.524 202.5C107.457 202.426 107.408 202.336 107.383 202.239C107.358 202.142 107.357 202.041 107.379 201.943L107.907 199.683C107.936 199.564 108 199.456 108.09 199.373C108.18 199.29 108.293 199.236 108.414 199.217Z" fill="url(#paint33_linear_570_3484)"/>
<path d="M101.966 206.521L102.682 202.819C102.717 202.639 102.809 202.474 102.945 202.349C103.08 202.225 103.252 202.147 103.435 202.128L120.827 200.36C120.962 200.347 121.099 200.367 121.225 200.417C121.352 200.468 121.465 200.547 121.554 200.65C121.644 200.753 121.708 200.875 121.741 201.008C121.774 201.14 121.775 201.278 121.744 201.411L120.638 206.024C120.594 206.204 120.494 206.364 120.352 206.482C120.211 206.6 120.035 206.67 119.851 206.68L102.852 207.54C102.722 207.547 102.593 207.523 102.473 207.472C102.354 207.421 102.248 207.344 102.162 207.246C102.077 207.148 102.015 207.031 101.981 206.906C101.947 206.78 101.942 206.648 101.966 206.521Z" fill="url(#paint34_linear_570_3484)"/>
<path d="M81.5621 236.781C81.5621 236.781 79.9075 229.963 80.5745 227.545C81.2415 225.128 82.5354 222.017 86.8465 222.708C91.1577 223.4 96.2418 225.218 96.2418 225.218C96.2418 225.218 95.9842 228.373 92.7079 227.352L94.7403 228.929C94.7403 228.929 94.4541 231.452 91.683 230.105L93.5724 232.193C93.5724 232.193 92.3829 234.265 90.3476 232.936C88.3122 231.607 87.3332 237.601 81.5621 236.781Z" fill="url(#paint35_linear_570_3484)"/>
<path d="M79.0322 169.81L72.4295 188.943C72.3758 189.097 72.3778 189.264 72.4351 189.416C72.4925 189.568 72.6015 189.694 72.7429 189.774C74.5435 190.778 81.0289 193.646 88.844 188.688C89.2474 188.436 89.5903 188.097 89.8481 187.696C90.1059 187.296 90.2723 186.843 90.3354 186.371L92.4867 169.81H79.0322Z" fill="url(#paint36_linear_570_3484)"/>
<path d="M93.4079 152.092C93.4079 152.092 100.659 165.768 99.7301 171.293C98.8012 176.818 89.8138 176.42 81.9658 171.934L76.4824 157.163L93.4079 152.092Z" fill="url(#paint37_linear_570_3484)"/>
<path d="M82.3118 164.682C82.3868 164.649 82.4538 164.6 82.508 164.539C82.5623 164.477 82.6025 164.405 82.6259 164.326C82.6493 164.248 82.6554 164.165 82.6437 164.084C82.6319 164.002 82.6027 163.925 82.558 163.856C81.9769 162.967 80.8877 161.153 80.5399 159.565C80.5399 159.565 79.2359 158.728 83.8577 157.621C88.4794 156.514 95.3713 154.791 96.8198 150.85C98.2325 147.007 94.5211 137.344 88.6011 145.044C88.5486 145.112 88.481 145.168 88.4037 145.206C88.3264 145.244 88.2414 145.264 88.1552 145.264C88.0691 145.264 87.9841 145.244 87.9067 145.206C87.8294 145.168 87.7619 145.112 87.7094 145.044C86.7389 143.779 84.1869 141.152 80.6443 142.749C77.3294 144.239 76.9558 146.673 77.0016 147.899C77.005 147.983 76.9894 148.067 76.9559 148.145C76.9224 148.222 76.872 148.291 76.8083 148.346C76.7446 148.401 76.6693 148.441 76.588 148.463C76.5068 148.485 76.4216 148.488 76.3389 148.473C74.6628 148.152 70.6408 147.876 68.7643 152.011C67.217 155.415 68.2218 157.344 69.1379 158.286C69.2059 158.355 69.2548 158.441 69.28 158.535C69.3052 158.628 69.3057 158.727 69.2815 158.821C69.2572 158.915 69.2091 159.001 69.1418 159.071C69.0745 159.141 68.9903 159.192 68.8974 159.22C67.7967 159.557 66.374 160.493 66.5157 163.079C66.7132 166.654 70.7023 166.338 71.8374 166.175C71.9288 166.161 72.0222 166.17 72.1093 166.201C72.1964 166.232 72.2745 166.284 72.3369 166.353C73.3116 167.433 77.6987 172.017 82.4478 172.569C82.5423 172.578 82.6374 172.562 82.7245 172.525C82.8117 172.487 82.8881 172.429 82.947 172.354C83.0059 172.28 83.0454 172.192 83.062 172.098C83.0785 172.004 83.0716 171.908 83.0418 171.818L80.9879 165.832C80.9417 165.698 80.9474 165.552 81.0038 165.422C81.0603 165.292 81.1634 165.188 81.2927 165.131L82.3118 164.682Z" fill="url(#paint38_linear_570_3484)"/>
<path d="M83.1374 165.531C83.1374 165.531 77.9746 161.982 77.5981 164.97C77.2217 167.959 82.2471 169.3 84.7362 168.185L83.1374 165.531Z" fill="url(#paint39_linear_570_3484)"/>
</g>
<defs>
<linearGradient id="paint0_linear_570_3484" x1="444.217" y1="516.789" x2="91.9802" y2="80.1648" gradientUnits="userSpaceOnUse">
<stop stop-color="#F0E4FF"/>
<stop offset="1" stop-color="#FFE8FB"/>
</linearGradient>
<linearGradient id="paint1_linear_570_3484" x1="393.395" y1="205.254" x2="172.262" y2="390.157" gradientUnits="userSpaceOnUse">
<stop stop-color="#B37CFF"/>
<stop offset="1" stop-color="#F895E7"/>
</linearGradient>
<linearGradient id="paint2_linear_570_3484" x1="432.367" y1="251.861" x2="211.232" y2="436.767" gradientUnits="userSpaceOnUse">
<stop stop-color="#B37CFF"/>
<stop offset="1" stop-color="#F895E7"/>
</linearGradient>
<linearGradient id="paint3_linear_570_3484" x1="697.655" y1="-271.181" x2="-37.9224" y2="354.604" gradientUnits="userSpaceOnUse">
<stop stop-color="#CB236D"/>
<stop offset="1" stop-color="#4C246D"/>
</linearGradient>
<linearGradient id="paint4_linear_570_3484" x1="804.769" y1="-145.273" x2="69.1883" y2="480.512" gradientUnits="userSpaceOnUse">
<stop stop-color="#CB236D"/>
<stop offset="1" stop-color="#4C246D"/>
</linearGradient>
<linearGradient id="paint5_linear_570_3484" x1="12.0609" y1="325.809" x2="650.886" y2="-349.392" gradientUnits="userSpaceOnUse">
<stop stop-color="#CB236D"/>
<stop offset="1" stop-color="#4C246D"/>
</linearGradient>
<linearGradient id="paint6_linear_570_3484" x1="127.367" y1="434.905" x2="766.196" y2="-240.299" gradientUnits="userSpaceOnUse">
<stop stop-color="#CB236D"/>
<stop offset="1" stop-color="#4C246D"/>
</linearGradient>
<linearGradient id="paint7_linear_570_3484" x1="57.6194" y1="51.25" x2="23.9888" y2="103.465" gradientUnits="userSpaceOnUse">
<stop stop-color="#B37CFF"/>
<stop offset="1" stop-color="#F895E7"/>
</linearGradient>
<linearGradient id="paint8_linear_570_3484" x1="8.70572" y1="97.2134" x2="6.74186" y2="100.262" gradientUnits="userSpaceOnUse">
<stop stop-color="#B37CFF"/>
<stop offset="1" stop-color="#F895E7"/>
</linearGradient>
<linearGradient id="paint9_linear_570_3484" x1="21.8242" y1="128.056" x2="20.4765" y2="130.148" gradientUnits="userSpaceOnUse">
<stop stop-color="#B37CFF"/>
<stop offset="1" stop-color="#F895E7"/>
</linearGradient>
<linearGradient id="paint10_linear_570_3484" x1="78.5231" y1="92.0752" x2="43.8827" y2="145.858" gradientUnits="userSpaceOnUse">
<stop stop-color="#B37CFF"/>
<stop offset="1" stop-color="#F895E7"/>
</linearGradient>
<linearGradient id="paint11_linear_570_3484" x1="93.2955" y1="94.0029" x2="91.3565" y2="97.0135" gradientUnits="userSpaceOnUse">
<stop stop-color="#B37CFF"/>
<stop offset="1" stop-color="#F895E7"/>
</linearGradient>
<linearGradient id="paint12_linear_570_3484" x1="0.563637" y1="208.999" x2="96.28" y2="-2.33389" gradientUnits="userSpaceOnUse">
<stop stop-color="#B37CFF"/>
<stop offset="1" stop-color="#F895E7"/>
</linearGradient>
<linearGradient id="paint13_linear_570_3484" x1="121.026" y1="48.1434" x2="120.067" y2="49.6318" gradientUnits="userSpaceOnUse">
<stop stop-color="#B37CFF"/>
<stop offset="1" stop-color="#F895E7"/>
</linearGradient>
<linearGradient id="paint14_linear_570_3484" x1="104.706" y1="36.7789" x2="85.9181" y2="65.9485" gradientUnits="userSpaceOnUse">
<stop stop-color="#B37CFF"/>
<stop offset="1" stop-color="#F895E7"/>
</linearGradient>
<linearGradient id="paint15_linear_570_3484" x1="124.284" y1="67.8086" x2="102.841" y2="101.101" gradientUnits="userSpaceOnUse">
<stop stop-color="#B37CFF"/>
<stop offset="1" stop-color="#F895E7"/>
</linearGradient>
<linearGradient id="paint16_linear_570_3484" x1="128.716" y1="65.4839" x2="127.249" y2="67.7617" gradientUnits="userSpaceOnUse">
<stop stop-color="#B37CFF"/>
<stop offset="1" stop-color="#F895E7"/>
</linearGradient>
<linearGradient id="paint17_linear_570_3484" x1="30.8905" y1="222.734" x2="126.607" y2="11.4" gradientUnits="userSpaceOnUse">
<stop stop-color="#B37CFF"/>
<stop offset="1" stop-color="#F895E7"/>
</linearGradient>
<linearGradient id="paint18_linear_570_3484" x1="181.498" y1="255.243" x2="562.576" y2="-381.287" gradientUnits="userSpaceOnUse">
<stop stop-color="#FDF53F"/>
<stop offset="1" stop-color="#D93C65"/>
</linearGradient>
<linearGradient id="paint19_linear_570_3484" x1="219.471" y1="272.519" x2="593.517" y2="-352.262" gradientUnits="userSpaceOnUse">
<stop stop-color="#FDF53F"/>
<stop offset="1" stop-color="#D93C65"/>
</linearGradient>
<linearGradient id="paint20_linear_570_3484" x1="117.605" y1="376.312" x2="28.9685" y2="472.54" gradientUnits="userSpaceOnUse">
<stop stop-color="#2B3582"/>
<stop offset="1" stop-color="#150E42"/>
</linearGradient>
<linearGradient id="paint21_linear_570_3484" x1="88.8945" y1="383.471" x2="96.7511" y2="383.471" gradientUnits="userSpaceOnUse">
<stop stop-color="#F9B776"/>
<stop offset="1" stop-color="#F47960"/>
</linearGradient>
<linearGradient id="paint22_linear_570_3484" x1="124.57" y1="267.299" x2="49.1191" y2="369.369" gradientUnits="userSpaceOnUse">
<stop stop-color="#2B3582"/>
<stop offset="1" stop-color="#150E42"/>
</linearGradient>
<linearGradient id="paint23_linear_570_3484" x1="97.7621" y1="358.035" x2="9.12729" y2="454.261" gradientUnits="userSpaceOnUse">
<stop stop-color="#2B3582"/>
<stop offset="1" stop-color="#150E42"/>
</linearGradient>
<linearGradient id="paint24_linear_570_3484" x1="60.5781" y1="383.068" x2="67.3612" y2="383.068" gradientUnits="userSpaceOnUse">
<stop stop-color="#F9B776"/>
<stop offset="1" stop-color="#F47960"/>
</linearGradient>
<linearGradient id="paint25_linear_570_3484" x1="111.155" y1="257.383" x2="35.7038" y2="359.452" gradientUnits="userSpaceOnUse">
<stop stop-color="#2B3582"/>
<stop offset="1" stop-color="#150E42"/>
</linearGradient>
<linearGradient id="paint26_linear_570_3484" x1="84.5419" y1="211.906" x2="204.876" y2="4.98038" gradientUnits="userSpaceOnUse">
<stop stop-color="#FDF53F"/>
<stop offset="1" stop-color="#D93C65"/>
</linearGradient>
<linearGradient id="paint27_linear_570_3484" x1="155.174" y1="131.25" x2="141.265" y2="170.916" gradientUnits="userSpaceOnUse">
<stop stop-color="#F9B776"/>
<stop offset="1" stop-color="#F47960"/>
</linearGradient>
<linearGradient id="paint28_linear_570_3484" x1="167.023" y1="135.406" x2="153.115" y2="175.071" gradientUnits="userSpaceOnUse">
<stop stop-color="#F9B776"/>
<stop offset="1" stop-color="#F47960"/>
</linearGradient>
<linearGradient id="paint29_linear_570_3484" x1="156.373" y1="160.758" x2="166.846" y2="139.669" gradientUnits="userSpaceOnUse">
<stop stop-color="#F9B776"/>
<stop offset="1" stop-color="#F47960"/>
</linearGradient>
<linearGradient id="paint30_linear_570_3484" x1="59.5836" y1="197.391" x2="179.917" y2="-9.53378" gradientUnits="userSpaceOnUse">
<stop stop-color="#FDF53F"/>
<stop offset="1" stop-color="#D93C65"/>
</linearGradient>
<linearGradient id="paint31_linear_570_3484" x1="33.3931" y1="235.07" x2="84.1896" y2="235.07" gradientUnits="userSpaceOnUse">
<stop stop-color="#F9B776"/>
<stop offset="1" stop-color="#F47960"/>
</linearGradient>
<linearGradient id="paint32_linear_570_3484" x1="122.873" y1="174.129" x2="96.6184" y2="245.598" gradientUnits="userSpaceOnUse">
<stop stop-color="#2B3582"/>
<stop offset="1" stop-color="#150E42"/>
</linearGradient>
<linearGradient id="paint33_linear_570_3484" x1="-283.292" y1="1241.07" x2="-308.751" y2="1307.77" gradientUnits="userSpaceOnUse">
<stop stop-color="#53D8FF"/>
<stop offset="1" stop-color="#3840F7"/>
</linearGradient>
<linearGradient id="paint34_linear_570_3484" x1="-282.608" y1="1241.32" x2="-308.067" y2="1308.03" gradientUnits="userSpaceOnUse">
<stop stop-color="#53D8FF"/>
<stop offset="1" stop-color="#3840F7"/>
</linearGradient>
<linearGradient id="paint35_linear_570_3484" x1="80.417" y1="229.734" x2="96.2418" y2="229.734" gradientUnits="userSpaceOnUse">
<stop stop-color="#F9B776"/>
<stop offset="1" stop-color="#F47960"/>
</linearGradient>
<linearGradient id="paint36_linear_570_3484" x1="72.3965" y1="180.662" x2="92.4795" y2="180.662" gradientUnits="userSpaceOnUse">
<stop stop-color="#F9B776"/>
<stop offset="1" stop-color="#F47960"/>
</linearGradient>
<linearGradient id="paint37_linear_570_3484" x1="99.4525" y1="169.718" x2="77.2154" y2="156.194" gradientUnits="userSpaceOnUse">
<stop stop-color="#F9B776"/>
<stop offset="1" stop-color="#F47960"/>
</linearGradient>
<linearGradient id="paint38_linear_570_3484" x1="65.4771" y1="141.856" x2="94.2175" y2="164.494" gradientUnits="userSpaceOnUse">
<stop stop-color="#2B3582"/>
<stop offset="1" stop-color="#150E42"/>
</linearGradient>
<linearGradient id="paint39_linear_570_3484" x1="93.6202" y1="174.781" x2="73.6139" y2="162.614" gradientUnits="userSpaceOnUse">
<stop stop-color="#F9B776"/>
<stop offset="1" stop-color="#F47960"/>
</linearGradient>
<clipPath id="clip0_570_3484">
<rect width="393.103" height="400" fill="white"/>
</clipPath>
</defs>
</svg>
