<svg width="133" height="24" viewBox="0 0 133 24" fill="none" xmlns="http://www.w3.org/2000/svg">
<path d="M12.2207 24C18.8481 24 24.2207 18.6274 24.2207 12C24.2207 5.37258 18.8481 0 12.2207 0C5.59329 0 0.220703 5.37258 0.220703 12C0.220703 18.6274 5.59329 24 12.2207 24Z" fill="white"/>
<path d="M29.5293 13.8402V5.31055H33.3343V12.7111C33.3343 14.1743 33.5016 15.5959 35.4251 15.5959C37.3486 15.5959 37.5154 14.1743 37.5154 12.7111V5.31055H41.3204V13.7981C41.3204 17.1012 39.23 18.8995 35.4251 18.8995C31.5355 18.9411 29.5293 17.1012 29.5293 13.8402Z" fill="white"/>
<path d="M42.3262 16.9755L44.166 14.4249C44.8352 15.2614 46.0059 15.9722 47.3018 15.9722C48.3056 15.9722 48.8907 15.5562 48.8907 14.7595C48.8907 13.8398 48.0547 13.5472 46.5915 13.129C44.6679 12.5434 42.9538 11.5401 42.9538 9.24034C42.9538 6.73173 45.0441 5.01758 47.971 5.01758C50.0198 5.01758 51.525 5.64427 52.5284 6.56443L50.8142 9.11509C50.4843 8.743 50.0784 8.44594 49.624 8.24392C49.1696 8.04191 48.6772 7.93963 48.1799 7.94398C47.1765 7.94398 46.7583 8.35992 46.7583 8.86414C46.7583 9.70019 47.7621 9.90955 48.8491 10.2857C51.0213 10.9545 52.6957 11.9583 52.6957 14.4249C52.6957 16.9755 50.8558 18.899 47.5112 18.899C45.0441 18.9406 43.1627 17.8952 42.3262 16.9755Z" fill="white"/>
<path d="M57.7959 5.31055H61.9771L66.9527 18.6485H62.9781L62.351 16.725H57.3361L56.7089 18.6485H52.8203C52.8619 18.6485 57.7959 5.31055 57.7959 5.31055ZM61.3915 13.7145L60.3461 10.4951C60.1381 9.83975 59.9843 9.16843 59.8863 8.4879H59.761C59.6623 9.16849 59.5077 9.83981 59.2989 10.4951L58.2535 13.7145H61.3915Z" fill="white"/>
<path d="M72.471 8.40409H69.168V5.30762H79.5791V8.40409H76.276V18.6479H72.471V8.40409Z" fill="white"/>
<path d="M79.832 12.0003C79.832 8.69724 82.1733 5.05957 87.149 5.05957C92.1246 5.05957 94.4663 8.73883 94.4663 12.0003C94.4663 15.2618 92.1246 18.8994 87.149 18.8994C82.1715 18.941 79.832 15.3034 79.832 12.0003ZM90.5777 12.0003C90.5777 9.61694 89.0304 8.36264 87.149 8.36264C85.3096 8.36264 83.7622 9.61694 83.7622 12.0003C83.7622 14.3837 85.3096 15.5959 87.149 15.5959C88.9884 15.5959 90.5759 14.3837 90.5759 12.0003H90.5777Z" fill="white"/>
<path d="M95.8438 5.31055H100.778C105.502 5.31055 108.178 7.81915 108.178 12.0003C108.178 16.0978 105.419 18.6901 100.778 18.6901H95.8438V5.31055ZM99.6908 15.5964H100.527C102.994 15.5964 104.29 14.4253 104.29 12.0003C104.29 9.57537 102.996 8.40471 100.527 8.40471H99.6908V15.5964Z" fill="white"/>
<path d="M112.612 5.31055H116.794L121.769 18.6485H117.797L117.17 16.725H112.152L111.525 18.6485H107.637C107.679 18.6485 112.612 5.31055 112.612 5.31055ZM116.208 13.7145L115.163 10.4951C114.954 9.83981 114.8 9.16849 114.701 8.4879H114.575C114.477 9.16847 114.324 9.83981 114.115 10.4951L113.07 13.7145H116.208Z" fill="white"/>
<path d="M123.608 13.9233L118.633 5.35156H122.814L124.612 8.65462C124.988 9.36543 125.532 10.4108 125.657 11.1216H125.741C125.867 10.4108 126.368 9.36543 126.786 8.65462L128.584 5.35156H132.64L127.667 13.9233V18.6895H123.65V13.9233H123.608Z" fill="white"/>
</svg>
