<svg width="90" height="22" viewBox="0 0 90 22" fill="none" xmlns="http://www.w3.org/2000/svg">
<path d="M89.1402 10.7385L88.323 10.9591C87.5548 8.31129 86.2472 7.17533 84.4084 7.17533C84.114 7.15744 83.8191 7.20225 83.5433 7.30681C83.2675 7.41137 83.017 7.5733 82.8084 7.78187C82.5998 7.99045 82.4379 8.24093 82.3334 8.51675C82.2288 8.79257 82.184 9.08744 82.2019 9.38187C82.2019 10.6731 83.2643 11.3678 86.1491 12.5364C88.8133 13.5089 89.9166 14.7103 89.9166 16.8024C89.9166 19.9814 87.4158 21.9837 83.3052 21.9837C81.4397 21.9778 79.5885 21.6573 77.8297 21.0357L77.6744 16.6144L78.4916 16.451C79.6603 19.4829 81.1476 20.627 83.0927 20.627C83.419 20.6529 83.7472 20.6111 84.0567 20.5043C84.3662 20.3975 84.6503 20.2279 84.8912 20.0062C85.1321 19.7844 85.3246 19.5154 85.4567 19.2158C85.5888 18.9162 85.6576 18.5926 85.6588 18.2652C85.6588 17.0639 84.9723 16.3692 82.3898 15.4294C79.8891 14.6122 78.1729 13.5334 78.1729 10.8774C78.1729 8.2214 80.4775 6.03938 84.3839 6.03938C85.9678 5.99618 87.5441 6.27418 89.0176 6.85661L89.1402 10.7385ZM72.2234 12.1278C72.3215 10.0438 71.8965 7.0364 70.1885 7.0364C68.4805 7.0364 67.4671 9.8477 67.4344 12.2504L72.2234 12.1278ZM70.589 6.0312C74.8958 6.0312 76.9797 9.18574 77.0124 13.321H67.3364C67.3364 16.9903 69.2487 19.7608 72.8772 19.7608C74.1323 19.8006 75.3615 19.3985 76.3505 18.6248L76.8163 19.156C76.0697 20.0755 75.1206 20.8099 74.0432 21.3019C72.9657 21.7938 71.7891 22.03 70.6053 21.9918C65.8735 21.9918 62.5964 18.7229 62.5964 14.1627C62.5964 10.0275 65.2769 6.05572 70.6298 6.05572M56.6551 13.7214C56.557 10.4525 55.3638 7.85364 53.0592 7.85364C52.5001 7.85734 51.9463 7.96256 51.4248 8.16419L51.6127 20.766C51.993 20.8728 52.3864 20.9251 52.7814 20.9212C55.0206 20.9212 56.6387 17.7585 56.6387 13.7214M61.4359 13.4762C61.4359 18.6575 58.167 22 52.6179 22C50.6656 21.9716 48.7225 21.7277 46.8237 21.2727C46.979 19.1969 46.979 6.31724 46.8237 3.89004C46.6684 2.62333 46.3089 2.02675 45.3282 1.90416L44.6826 1.83878V1.25854L51.5228 0C51.5228 1.06241 51.4248 3.89005 51.4248 7.19985C52.5887 6.56934 53.8931 6.24324 55.2167 6.25186C58.7799 6.25186 61.4277 9.27563 61.4277 13.4762M44.0206 10.6649C41.9121 9.27563 39.6402 9.8477 39.1907 10.6649C38.9891 13.3553 38.9891 16.057 39.1907 18.7474C39.2806 20.0059 39.6402 20.5453 40.6127 20.6352L41.904 20.766V21.5832H32.2769V20.766L33.0206 20.6352C33.9604 20.5208 34.32 19.9733 34.32 18.7229C34.5858 15.8251 34.5858 12.909 34.32 10.0111C34.2628 8.65453 33.9359 8.14785 32.9961 8.02526L32.2524 7.92719V7.3633L39.2234 6.08024L39.1254 9.6107C40.7598 5.95765 43.9552 5.52452 45.7041 6.48886L44.0206 10.6649ZM21.3668 14.0238C21.3668 17.8811 22.4129 21.0357 24.5132 21.0357C26.7769 21.0357 27.4307 17.9465 27.4307 14.0238C27.4307 10.101 26.4255 7.05275 24.2925 7.05275C22.0043 7.05275 21.3668 10.0438 21.3668 14.0238ZM32.3178 13.9584C32.3178 18.3878 29.3921 21.9673 24.1863 21.9673C18.9805 21.9673 16.4716 18.5594 16.4716 14.081C16.4716 9.60253 19.3973 6.0312 24.6439 6.0312C29.8906 6.0312 32.3586 9.47177 32.3586 13.9502M18.9396 6.34993L17.8772 6.66048C16.9701 3.56315 15.3765 1.79792 12.6224 1.79792H8.98569C8.75553 4.68486 8.69005 7.58257 8.78955 10.477L11.1841 10.3544C12.8185 10.3544 13.4805 9.18574 13.8809 7.49406H14.7881V14.653H13.8891C13.4968 12.9205 12.8267 11.7437 11.1922 11.6538H8.79772C8.75766 13.6661 8.82039 15.6791 8.98569 17.685C9.14913 19.5728 9.67217 20.4309 11.0615 20.6107L12.3609 20.7415V21.5587H0.617188V20.7415L1.63056 20.6107C2.979 20.4227 3.54289 19.5728 3.69817 17.685C3.99267 13.2387 3.99267 8.7777 3.69817 4.33135C3.5102 2.36999 2.95448 1.58544 1.63056 1.43016L0.649877 1.26672V0.449481H18.8742L18.9396 6.34993Z" fill="white"/>
</svg>
