<svg width="121" height="22" viewBox="0 0 121 22" fill="none" xmlns="http://www.w3.org/2000/svg">
<path d="M0.640625 0H9.39394C11.0612 0 12.3117 0.416825 13.238 1.11153C14.2569 1.94518 14.8127 3.14934 14.8127 4.63138C14.8127 6.345 14.118 7.41022 12.7285 8.05861V8.15124C14.5811 8.75332 15.6463 10.4206 15.6463 12.4121C15.6463 14.311 14.9053 15.793 13.7011 16.7193C12.6822 17.4603 11.3854 17.7845 9.62551 17.7845H0.640625V0ZM8.51398 6.94708C9.44026 6.94708 10.135 6.43762 10.135 5.37241C10.135 4.3535 9.44025 3.84405 8.46766 3.84405H5.45727V6.90076H8.51398V6.94708ZM8.9308 13.8478C9.99602 13.8478 10.7834 13.1994 10.7834 12.0416C10.7834 10.7911 9.94971 10.2354 8.9308 10.2354H5.50358V13.8942H8.9308V13.8478Z" fill="white"/>
<path d="M16.4355 0H21.0206V17.8308H16.4355V0Z" fill="white"/>
<path d="M21.9453 11.486C21.9453 7.45671 24.5389 4.77051 28.5682 4.77051C32.5975 4.77051 35.1448 7.50302 35.1448 11.486C35.1448 15.5153 32.5975 18.2015 28.5682 18.2015C24.5389 18.2015 21.9453 15.5153 21.9453 11.486ZM30.5597 11.486C30.5597 9.26295 29.865 7.87354 28.4756 7.87354C27.0862 7.87354 26.4378 9.26295 26.4378 11.486C26.4378 13.7091 27.0862 15.1448 28.4756 15.1448C29.865 15.0985 30.5597 13.7091 30.5597 11.486Z" fill="white"/>
<path d="M35.6543 11.486C35.6543 7.45671 38.2479 4.77051 42.2772 4.77051C46.3065 4.77051 48.8074 7.45671 48.8074 11.486C48.8074 15.5153 46.2602 18.2015 42.2309 18.2015C38.2479 18.2015 35.6543 15.5153 35.6543 11.486ZM44.2687 11.486C44.2687 9.26295 43.574 7.87354 42.1845 7.87354C40.7951 7.87354 40.1467 9.26295 40.1467 11.486C40.1467 13.7091 40.7951 15.1448 42.1845 15.1448C43.574 15.0985 44.2687 13.7091 44.2687 11.486Z" fill="white"/>
<path d="M49.7324 5.09414H53.9933V6.99301H54.0859C54.9196 5.51097 56.0774 4.72363 57.93 4.72363C59.551 4.72363 60.7551 5.51097 61.3572 6.90038H61.4498C62.4687 5.23309 63.8118 4.72363 65.3865 4.72363C68.3506 4.72363 69.6011 6.90038 69.6011 9.81816V17.7841H65.1549V10.6055C65.1549 9.3087 64.7381 8.47505 63.6266 8.47505C62.515 8.47505 61.9593 9.49396 61.9593 10.8834V17.7841H57.5131V10.6055C57.5131 9.3087 57.0963 8.47505 55.9848 8.47505C54.8733 8.47505 54.3175 9.49396 54.3175 10.8834V17.7841H49.7324V5.09414Z" fill="white"/>
<path d="M75.2056 16.1172H75.1593V17.7845H70.8984V0H75.3446V6.39131H75.4372C76.2708 5.27978 77.4287 4.6777 79.0497 4.6777C82.2453 4.6777 84.0979 7.54916 84.0979 11.3932C84.0979 15.7004 82.1064 18.2013 78.7718 18.2013C77.3824 18.2013 75.9466 17.5529 75.2056 16.1172ZM79.5128 11.3469C79.5128 9.30908 78.7718 7.96598 77.4287 7.96598C76.0393 7.96598 75.2056 9.30908 75.2056 11.3469C75.2056 13.3847 76.0856 14.7278 77.4287 14.7278C78.7718 14.7278 79.5128 13.431 79.5128 11.3469Z" fill="white"/>
<path d="M84.6074 11.4391C84.6074 7.45615 87.2473 4.72363 91.0451 4.72363C92.9439 4.72363 94.3796 5.32571 95.4912 6.39093C96.9732 7.82666 97.6216 10.0497 97.5753 12.6433H89.0536C89.2388 14.218 89.9798 15.0516 91.3229 15.0516C92.1103 15.0516 92.805 14.6811 93.0829 13.8475H97.39C96.649 16.7652 94.3796 18.201 91.184 18.201C87.2473 18.1546 84.6074 15.4684 84.6074 11.4391ZM89.0536 10.096H93.1292C93.0366 8.56768 92.2029 7.78035 91.1377 7.78035C89.8872 7.73403 89.1925 8.614 89.0536 10.096Z" fill="white"/>
<path d="M102.624 7.27202H102.717C103.643 5.51209 104.847 4.81738 106.376 4.81738C106.746 4.81738 106.978 4.8637 107.117 4.95632V8.84669H107.024C104.384 8.38355 102.856 9.63402 102.856 12.5055V17.8316H98.3633V5.09527H102.624V7.27202Z" fill="white"/>
<path d="M107.581 17.8309H111.888C112.074 18.3866 112.629 18.8961 113.695 18.8961C115.13 18.8961 115.64 18.0161 115.64 16.673V15.7467H115.547C114.852 16.5804 113.88 17.1825 112.49 17.1825C109.758 17.1825 107.35 15.1447 107.35 11.1617C107.35 7.50288 109.295 4.67773 112.259 4.67773C113.972 4.67773 114.991 5.37244 115.686 6.43766H115.779V5.04825H120.04V16.0709C120.04 18.1087 119.345 19.6834 118.28 20.6097C117.168 21.5823 115.593 21.9991 113.787 21.9991C110.36 22.0454 107.998 20.656 107.581 17.8309ZM115.825 10.9764C115.825 9.40175 115.084 8.10496 113.787 8.10496C112.537 8.10496 111.749 9.21649 111.749 10.9764C111.749 12.69 112.537 13.8942 113.787 13.8942C115.038 13.8942 115.825 12.6437 115.825 10.9764Z" fill="white"/>
</svg>
