<svg width="54" height="32" viewBox="0 0 54 32" fill="none" xmlns="http://www.w3.org/2000/svg">
<path d="M6.94531 14.1395V11.0562H8.85912V3.29556H6.94531V0H16.6198V3.29556H14.7059V11.0562H16.6198V14.1395H6.94531Z" fill="white"/>
<path d="M25.868 14.1392V11.0559H27.1437V7.86644C27.1437 6.9099 26.5062 6.48469 25.549 6.48469C24.4863 6.48469 23.6359 7.22899 23.529 8.29165V11.0559H24.9196V14.1392H17.4707V11.0559H18.7463V6.48542H17.4707V3.40137H23.4244V5.52815L23.7435 5.20906C24.7 4.03808 26.2947 3.40137 27.7833 3.50822C30.1253 3.50822 32.0354 4.46476 32.0354 7.01602V11.0559H33.3118V14.1392H25.868Z" fill="white"/>
<path d="M45.6427 7.86611L41.4967 8.29132C41.4967 7.12035 41.1776 5.94937 39.7959 5.94937C37.9882 5.94937 37.8821 7.43724 37.8821 8.81972C37.8821 10.3076 37.9882 11.7962 39.7959 11.7962C40.6463 11.9023 41.4967 11.2649 41.6028 10.3076V10.099H45.7488V10.4181C45.1114 13.8198 42.028 14.3511 39.902 14.3511C36.4996 14.3511 33.0957 12.6503 33.0957 8.82338C33.0957 4.99576 36.4974 3.29492 39.902 3.29492C39.7959 3.40104 45.2175 3.08268 45.6427 7.86611Z" fill="white"/>
<path d="M48.8392 12.4419C48.839 12.7783 48.7392 13.107 48.5522 13.3866C48.3652 13.6662 48.0995 13.8841 47.7887 14.0127C47.4779 14.1414 47.136 14.1749 46.8061 14.1092C46.4762 14.0435 46.1732 13.8815 45.9354 13.6436C45.6976 13.4057 45.5357 13.1026 45.4701 12.7727C45.4046 12.4428 45.4383 12.1009 45.567 11.7901C45.6958 11.4794 45.9138 11.2138 46.1935 11.0269C46.4732 10.8401 46.802 10.7403 47.1383 10.7403C47.5843 10.7356 48.0138 10.9081 48.3327 11.2199C48.6516 11.5316 48.8338 11.9572 48.8392 12.4031V12.4419Z" fill="white"/>
<path d="M19.7037 15.5205C15.5578 15.5205 13.2188 18.2847 13.2188 23.7071C13.2188 29.1294 15.5607 31.8929 19.7037 31.8929C23.8468 31.8929 26.1887 29.1272 26.1887 23.7071C26.1887 18.2869 23.7458 15.5205 19.7037 15.5205ZM19.7037 28.5974C18.2151 28.5974 17.8961 27.1088 17.8961 23.7071C17.8961 20.3054 18.2151 18.8161 19.7037 18.8161C21.1923 18.8161 21.5107 20.3047 21.5107 23.7071C21.5107 27.1095 21.1923 28.5974 19.7037 28.5974Z" fill="white"/>
<path d="M33.4186 15.5205C29.2726 15.5205 26.9336 18.2847 26.9336 23.7071C26.9336 29.1294 29.2755 31.8929 33.4186 31.8929C37.5616 31.8929 39.9036 29.1272 39.9036 23.7071C39.9036 18.2869 37.4585 15.5205 33.4186 15.5205ZM33.4186 28.5974C31.93 28.5974 31.6109 27.1088 31.6109 23.7071C31.6109 20.3054 31.93 18.8161 33.4186 18.8161C34.9072 18.8161 35.2248 20.3047 35.2248 23.7071C35.2248 27.1095 34.9065 28.5974 33.4186 28.5974Z" fill="white"/>
<path d="M47.1334 15.5205C42.9867 15.5205 40.6484 18.2847 40.6484 23.7071C40.6484 29.1294 42.9867 31.8929 47.1334 31.8929C51.2802 31.8929 53.6184 29.1272 53.6184 23.7071C53.6184 18.2869 51.1733 15.5205 47.1334 15.5205ZM47.1334 28.5974C45.6448 28.5974 45.3257 27.1088 45.3257 23.7071C45.3257 20.3054 45.6448 18.8161 47.1334 18.8161C48.622 18.8161 48.9404 20.3047 48.9404 23.7071C48.9404 27.1095 48.6184 28.5974 47.1334 28.5974Z" fill="white"/>
<path d="M11.3042 22.1139C10.2408 21.2635 8.96221 20.7314 7.58339 20.8375C6.52 20.8375 5.35048 21.1566 4.60618 21.9009L4.92527 19.3497H11.6232V15.6289H1.84342L0.780028 23.0704L3.65038 24.559C4.39468 23.9209 5.2451 23.4957 6.20164 23.4957C6.7337 23.4957 7.15891 23.7086 7.58412 24.027C8.11545 24.559 8.32842 25.3033 8.32842 26.0469C8.32842 26.366 8.32842 26.6851 8.22157 26.8973C8.11545 27.8546 7.26503 28.4921 6.30849 28.3859C4.5008 28.3859 4.60692 26.1538 5.03286 25.3033L0.460938 27.7485C0.780028 30.6188 3.7543 32.0006 6.20164 32.0006C7.90321 32.0006 9.495 31.4693 10.666 30.4059C11.0919 29.9807 11.5171 29.5554 11.8369 28.9173C12.369 28.0668 12.5812 27.0042 12.5812 26.0469C12.7935 24.559 12.2614 23.1766 11.3042 22.1139Z" fill="white"/>
</svg>
