<svg width="88" height="22" viewBox="0 0 88 22" fill="none" xmlns="http://www.w3.org/2000/svg">
<path d="M83.3012 13.384L80.9068 12.8391C79.3093 12.4759 78.6384 11.8421 78.6384 10.9191C78.6384 9.74046 79.7318 8.94356 81.3701 8.94356C83.064 8.94356 84.1167 9.84054 84.2835 11.2676H87.1264C87.03 8.55066 84.8024 6.64551 81.3701 6.64551C77.9787 6.64551 75.6843 8.45059 75.6806 11.0896C75.6806 13.232 77.0668 14.5775 79.869 15.2224L82.2634 15.7821C83.8757 16.1454 84.4206 16.705 84.4206 17.6576C84.4206 18.8622 83.2975 19.6184 81.4776 19.6184C79.6281 19.6184 78.5791 18.8622 78.2974 17.3203H75.2988C75.5805 20.1188 77.7933 21.9275 81.4776 21.9275C84.9543 21.9275 87.46 20.0817 87.46 17.3907C87.46 15.2595 86.3146 14.0841 83.3012 13.384Z" fill="white"/>
<path d="M69.0133 18.5069H68.9429L65.8628 6.90918H62.9495L59.8804 18.5069H59.8248L57.1339 6.90918H54.1094L58.1569 21.6464H61.2815L64.3505 10.6083H64.4209L67.5196 21.6464H70.6702L74.7029 6.90918H71.7043L69.0133 18.5069Z" fill="white"/>
<path d="M46.8823 6.64258C42.7199 6.64258 40.0586 9.72642 40.0586 14.3485C40.0586 19.0002 42.6791 21.9283 47.0083 21.9283C50.385 21.9283 52.9351 20.012 53.3539 17.3211V17.3174H50.4814C50.0774 18.6073 48.8023 19.4746 47.0788 19.4746C44.6547 19.4746 43.1128 17.7807 43.1128 15.2158V15.0342H53.5207V13.9963C53.5207 9.52997 50.9743 6.64258 46.8823 6.64258ZM43.1313 12.9214C43.2833 10.6938 44.7696 9.08148 46.886 9.08148C49.0025 9.08148 50.4295 10.6679 50.4999 12.9214H43.1313Z" fill="white"/>
<path d="M34.9051 16.3376H34.7939L24.3156 1.43359H21.4727V21.6453H24.5268V6.75618H24.6529L35.1312 21.649H37.9593V1.43359H34.9051V16.3376Z" fill="white"/>
<path d="M15.4822 11.6315C15.4637 9.83009 16.2828 8.42655 17.9396 7.42084C17.0167 6.10502 15.623 5.37484 13.7735 5.22658C13.0915 5.16727 12.2563 5.31553 11.2679 5.67136C10.2226 6.05313 9.60857 6.24464 9.42572 6.24587C9.18479 6.24587 8.62881 6.07908 7.76519 5.75661C6.90157 5.43414 6.20103 5.26735 5.671 5.26735C4.71598 5.27622 3.78064 5.53981 2.96152 6.03089C2.12919 6.52215 1.43834 7.22067 0.956286 8.05837C0.318762 9.12214 0 10.3922 0 11.8687C0 13.1548 0.237218 14.4855 0.711655 15.8606C1.15273 17.132 1.71489 18.2476 2.39813 19.2076C3.03565 20.1046 3.56569 20.7421 3.99194 21.1128C4.65541 21.7305 5.32258 22.0258 5.99347 21.9986C6.43454 21.9838 7.00906 21.8318 7.72442 21.5427C8.43978 21.2536 9.10325 21.1128 9.72595 21.1128C10.319 21.1128 10.9676 21.2536 11.6719 21.5427C12.3761 21.8318 12.9803 21.9764 13.4807 21.9764C14.1775 21.9579 14.8298 21.6725 15.4377 21.1128C15.8306 20.7718 16.3384 20.1577 16.9611 19.2706C17.4254 18.6028 17.8215 17.89 18.1435 17.1431C18.2806 16.8169 18.4104 16.4759 18.529 16.1312C17.9644 15.8932 17.4481 15.5541 17.0056 15.1304C16.0048 14.2038 15.497 13.0375 15.4822 11.6315Z" fill="white"/>
<path d="M12.6959 3.5175C13.499 2.56492 13.9005 1.53821 13.9005 0.437371C13.9012 0.291176 13.8926 0.145086 13.8746 0C13.3149 0.0296523 12.7219 0.197681 12.0955 0.504088C11.4654 0.815437 10.9464 1.20462 10.5387 1.67165C9.72328 2.59457 9.26367 3.72507 9.26367 4.78143C9.26458 4.92018 9.27324 5.05877 9.28962 5.19656C10.561 5.29997 11.7285 4.64799 12.6959 3.5175Z" fill="white"/>
</svg>
