<svg width="121" height="34" viewBox="0 0 121 34" fill="none" xmlns="http://www.w3.org/2000/svg">
<path fill-rule="evenodd" clip-rule="evenodd" d="M89.446 25.8785C85.36 25.8785 82.8125 23.5076 82.8125 19.6738C82.8125 15.6886 85.1582 13.2168 88.9416 13.2168H89.2695C89.7487 13.2168 90.4045 13.242 91.2873 13.3429V8.52539H93.9609V25.4497C93.9609 25.4245 91.4134 25.8785 89.446 25.8785ZM89.4208 15.3103C86.8229 15.3103 85.5618 16.7227 85.5618 19.5981C85.5618 22.196 87.0751 23.785 89.5217 23.785C90.0009 23.785 90.5306 23.7598 91.2621 23.6841V15.4868C90.5306 15.3607 89.9505 15.3103 89.4208 15.3103Z" fill="white"/>
<path fill-rule="evenodd" clip-rule="evenodd" d="M52.8238 25.4745L45.6101 12.838V25.4745H43.0879V9.4834H46.619L53.8327 22.019V9.4834H56.3802V25.4745H52.8238Z" fill="white"/>
<path fill-rule="evenodd" clip-rule="evenodd" d="M75.8276 25.7267C74.6169 25.7267 73.3305 25.6006 71.8424 25.2979L71.6911 25.2727V23.0279L71.9181 23.0783C73.2549 23.3558 74.3899 23.608 75.5501 23.608C76.4834 23.608 78.6525 23.4566 78.6525 22.0946C78.6525 20.9344 77.1644 20.6569 75.9537 20.4299L75.878 20.4047C75.651 20.3543 75.4492 20.3291 75.2727 20.2786C73.5071 19.8246 71.6406 19.1436 71.6406 16.7727C71.6406 14.4774 73.4567 13.1406 76.6347 13.1406C78.148 13.1406 79.2578 13.3172 80.1659 13.4433L80.5946 13.519V15.6881L80.3676 15.6377C79.3587 15.4611 78.1733 15.2593 77.0382 15.2593C75.7771 15.2593 74.289 15.4863 74.289 16.6213C74.289 17.5546 75.5249 17.832 76.9374 18.1347C78.9299 18.5635 81.3765 19.1184 81.3765 21.8172C81.3513 24.289 79.3335 25.7267 75.8276 25.7267Z" fill="white"/>
<path fill-rule="evenodd" clip-rule="evenodd" d="M101.453 25.7267C98.6783 25.7267 96.1309 25.2475 96.1309 21.6911C96.1309 17.832 100.091 17.832 102.462 17.832C102.689 17.832 103.824 17.8825 104.152 17.9077C104.152 15.7386 104.126 15.2341 100.999 15.2341C99.7629 15.2341 98.3757 15.4863 97.165 15.6881L96.938 15.7385V13.5946L97.0893 13.5694C98.5018 13.292 99.8638 13.1406 101.251 13.1406C104.278 13.1406 106.85 13.4433 106.85 17.2267V25.4492L106.674 25.4745C104.555 25.7015 102.891 25.7267 101.453 25.7267ZM102.386 19.7489C100.091 19.7489 98.6783 20.0768 98.6783 21.7667C98.6783 23.7089 100.494 23.8602 102.184 23.8602C102.815 23.8602 103.95 23.7845 104.303 23.7593V19.8246C103.824 19.7994 102.537 19.7489 102.386 19.7489Z" fill="white"/>
<path fill-rule="evenodd" clip-rule="evenodd" d="M63.947 25.7267C61.1725 25.7267 58.625 25.2475 58.625 21.6911C58.625 17.832 62.5849 17.832 64.9559 17.832C65.1829 17.832 66.3179 17.8825 66.6458 17.9077C66.6458 15.7386 66.6206 15.2341 63.493 15.2341C62.2571 15.2341 60.8698 15.4863 59.6591 15.6881L59.4321 15.7385V13.5946L59.5835 13.5694C60.9959 13.292 62.3579 13.1406 63.7452 13.1406C66.7719 13.1406 69.3446 13.4433 69.3446 17.2267V25.4492L69.168 25.4745C67.0241 25.7015 65.3594 25.7267 63.947 25.7267ZM64.8802 19.7489C62.5849 19.7489 61.1725 20.0768 61.1725 21.7667C61.1725 23.7089 62.9885 23.8602 64.6784 23.8602C65.309 23.8602 66.444 23.7845 66.7971 23.7593V19.8246C66.2927 19.7994 65.0315 19.7489 64.8802 19.7489Z" fill="white"/>
<path fill-rule="evenodd" clip-rule="evenodd" d="M117.494 30.9229V25.6766C116.46 25.8279 115.905 25.8279 115.451 25.8279C114.392 25.8279 113.207 25.6009 112.299 25.1973C110.256 24.3398 109.045 22.1959 109.045 19.4214C109.045 18.0341 109.373 15.5119 111.618 14.1499C112.753 13.4689 114.089 13.1914 116.082 13.1914C116.788 13.1914 117.772 13.2419 118.705 13.2923L120.219 13.368V29.687L117.494 30.9229ZM115.88 15.2849C113.156 15.2849 111.794 16.6721 111.794 19.4214C111.794 22.9525 113.862 23.684 115.578 23.684C116.006 23.684 116.46 23.684 117.52 23.5579V15.3858C116.687 15.3101 116.309 15.2849 115.88 15.2849Z" fill="white"/>
<path fill-rule="evenodd" clip-rule="evenodd" d="M31.1326 0L22.2795 24.365C22.0525 24.9703 21.5228 25.3991 20.8671 25.4748V25.5H30.2246C30.9561 25.5 31.5866 25.0208 31.8136 24.3902L40.6668 0.0252202H31.1326V0ZM20.1104 25.1217C20.6401 25.1217 21.1193 24.8442 21.422 24.4407C21.4472 24.3902 21.5481 24.2389 21.6237 24.0371L24.8774 15.1083L22.9858 9.88724C22.7335 9.30712 22.1786 8.90356 21.4976 8.90356C20.9679 8.90356 20.4887 9.18101 20.186 9.58457C20.1608 9.63502 20.0347 9.81157 19.9843 9.98813L16.7306 18.9169L18.6475 24.1632C18.8997 24.7181 19.4546 25.1217 20.1104 25.1217ZM11.3582 8.52522H20.8166C20.1104 8.55044 19.5303 9.00445 19.3033 9.63502L10.4501 34H0.916016L9.76913 9.63502C9.99613 8.97923 10.6267 8.52522 11.3582 8.52522Z" fill="white"/>
</svg>
