<svg width="80" height="80" viewBox="0 0 80 80" fill="none" xmlns="http://www.w3.org/2000/svg">
<rect width="80" height="80" fill="white"/>
<path d="M35.4492 61.4173L34.9916 66.9494H13.0562C12.7557 66.9505 12.4588 66.885 12.1867 66.7576C11.9146 66.6302 11.6741 66.4441 11.4825 66.2126C11.2909 65.9811 11.153 65.7101 11.0788 65.419C11.0045 65.1278 10.9956 64.8239 11.0529 64.5289L15.5064 41.6687C15.5517 41.4372 15.6759 41.2286 15.8578 41.0784C16.0397 40.9282 16.2681 40.8458 16.5039 40.8452H19.3308L15.9438 61.2039C15.9169 61.3754 15.934 61.551 15.9935 61.7141C16.053 61.8771 16.153 62.0224 16.284 62.1363C16.4151 62.2502 16.5729 62.3289 16.7427 62.3651C16.9125 62.4013 17.0887 62.3938 17.2547 62.3432C23.1294 60.4246 29.409 60.105 35.448 61.4173H35.4492Z" fill="#F4EECE"/>
<path d="M67.0981 66.9491H45.1627L44.7051 61.417C50.7442 60.1047 57.0238 60.4243 62.8984 62.343C63.0645 62.3935 63.2407 62.4011 63.4105 62.3649C63.5802 62.3287 63.7381 62.2499 63.8691 62.1361C64.0001 62.0222 64.1001 61.8769 64.1596 61.7138C64.2191 61.5507 64.2362 61.3752 64.2093 61.2037L60.8235 40.8438H63.6504C63.8863 40.8443 64.1146 40.9267 64.2966 41.0769C64.4785 41.2271 64.6026 41.4357 64.6479 41.6673L69.1015 64.5287C69.1587 64.8236 69.1499 65.1276 69.0756 65.4187C69.0013 65.7098 68.8634 65.9809 68.6718 66.2123C68.4802 66.4438 68.2397 66.6299 67.9676 66.7573C67.6955 66.8847 67.3986 66.9502 67.0981 66.9491Z" fill="#F4EECE"/>
<path d="M69.1021 64.5289L64.6486 41.6687C64.6033 41.4372 64.4791 41.2286 64.2972 41.0784C64.1153 40.9282 63.8869 40.8458 63.6511 40.8452H60.8242L60.8314 40.8857C61.0203 40.9298 61.1928 41.0269 61.3285 41.1656C61.4643 41.3043 61.5576 41.4788 61.5977 41.6687L66.0512 64.5301C66.1085 64.8251 66.0996 65.129 66.0254 65.4202C65.9511 65.7113 65.8132 65.9823 65.6216 66.2138C65.43 66.4452 65.1895 66.6314 64.9174 66.7588C64.6453 66.8862 64.3484 66.9517 64.0479 66.9506H67.0988C67.3993 66.9517 67.6962 66.8862 67.9683 66.7588C68.2404 66.6314 68.4809 66.4452 68.6725 66.2138C68.8641 65.9823 69.002 65.7113 69.0762 65.4202C69.1505 65.129 69.1594 64.8251 69.1021 64.5301V64.5289Z" fill="#F6E9B7"/>
<path d="M62.8987 62.3434C57.024 60.4247 50.7444 60.1051 44.7054 61.4174C43.1166 61.7451 41.5658 62.236 40.0778 62.8821C38.5897 62.236 37.039 61.7451 35.4502 61.4174C29.4111 60.1051 23.1315 60.4247 17.2569 62.3434C17.0908 62.3939 16.9146 62.4015 16.7448 62.3653C16.575 62.3291 16.4172 62.2503 16.2862 62.1365C16.1552 62.0226 16.0552 61.8773 15.9957 61.7142C15.9362 61.5511 15.9191 61.3756 15.946 61.2041L19.3317 40.8442L19.6166 39.1257C19.6522 38.913 19.7539 38.717 19.9073 38.5655C20.0607 38.414 20.258 38.3148 20.4711 38.2819C21.1623 38.1806 21.8738 38.0781 22.5864 37.9971C23.1962 39.1816 24.1204 40.1752 25.2578 40.869C26.3951 41.5627 27.7016 41.9298 29.0338 41.9299C29.8909 41.9285 30.7411 41.7773 31.546 41.4829C31.8522 42.375 32.3885 43.1704 33.1008 43.7887C33.813 44.407 34.6759 44.8262 35.6022 45.004C36.5284 45.1817 37.4852 45.1118 38.3757 44.8011C39.2663 44.4905 40.059 43.9502 40.6737 43.2348C41.6918 43.6294 42.7744 43.8314 43.8664 43.8307H43.9283C44.1417 45.6612 45.0974 46.7398 48.2902 47.8076C49.2692 48.1198 50.1425 48.6974 50.8131 49.476C51.104 49.8366 51.5035 50.0938 51.9522 50.2093C52.401 50.3248 52.875 50.2925 53.3039 50.1172C53.6834 49.9533 54.0069 49.6822 54.2347 49.3371C54.4624 48.9921 54.5846 48.5881 54.5862 48.1746C54.5869 47.9537 54.5523 47.734 54.4837 47.5239C54.1929 46.5527 53.7391 45.6379 53.1418 44.8187C54.1392 44.2819 55.0034 43.528 55.6704 42.6126C56.3375 41.6971 56.7905 40.6436 56.9959 39.5297C57.392 39.0914 57.7119 38.5899 57.9422 38.0459C58.5309 38.1162 59.1113 38.1878 59.6905 38.2843C59.9035 38.3172 60.1008 38.4164 60.2542 38.5679C60.4076 38.7194 60.5094 38.9154 60.5449 39.128L60.8298 40.8466L64.2108 61.2041C64.2377 61.3756 64.2206 61.5511 64.1611 61.7142C64.1016 61.8773 64.0016 62.0226 63.8706 62.1365C63.7395 62.2503 63.5817 62.3291 63.4119 62.3653C63.2421 62.4015 63.0659 62.3939 62.8999 62.3434H62.8987Z" fill="#F4EECE"/>
<path d="M64.2112 61.2035L60.8242 40.8436L60.5394 39.1251C60.5038 38.9124 60.4021 38.7164 60.2487 38.5649C60.0953 38.4135 59.898 38.3142 59.6849 38.2813C59.1057 38.1896 58.5253 38.118 57.9366 38.043C57.7969 38.3607 57.6265 38.6641 57.4277 38.9487C57.452 39.0042 57.4715 39.0616 57.4861 39.1203L57.7698 40.8388L61.1567 61.1987C61.1881 61.408 61.1517 61.6218 61.053 61.8089C61.6632 61.9686 62.2734 62.1402 62.8907 62.3392C63.0573 62.391 63.2344 62.3995 63.4052 62.3638C63.576 62.3281 63.7348 62.2495 63.8668 62.1353C63.9987 62.0212 64.0994 61.8753 64.1592 61.7114C64.2191 61.5475 64.2361 61.371 64.2088 61.1987L64.2112 61.2035Z" fill="#F6E9B7"/>
<path d="M45.1626 66.9491C45.1626 68.0682 42.884 68.9834 40.0774 68.9834C37.2708 68.9834 34.9922 68.0682 34.9922 66.9491L35.4498 61.417C37.0386 61.7447 38.5894 62.2356 40.0774 62.8817C41.5654 62.2356 43.1162 61.7447 44.705 61.417L45.1626 66.9491Z" fill="#F6E9B7"/>
<path d="M58.3822 35.922C58.3858 36.6544 58.2334 37.3792 57.9353 38.0481C57.705 38.5921 57.3852 39.0936 56.9891 39.5319C56.7836 40.6458 56.3307 41.6993 55.6636 42.6147C54.9965 43.5302 54.1324 44.2841 53.1349 44.8209C53.7323 45.6401 54.186 46.5549 54.4768 47.5261C54.5454 47.7362 54.58 47.9559 54.5793 48.1768C54.5778 48.5903 54.4556 48.9943 54.2278 49.3393C54 49.6843 53.6766 49.9555 53.297 50.1194C52.8681 50.2947 52.3941 50.327 51.9454 50.2115C51.4967 50.096 51.0972 49.8388 50.8062 49.4782C50.1357 48.6995 49.2623 48.122 48.2833 47.8098C45.0906 46.7372 44.1348 45.6646 43.9215 43.8329H43.8595C42.7676 43.8336 41.685 43.6316 40.6668 43.237C40.0521 43.9509 39.2599 44.49 38.3702 44.7998C37.4806 45.1097 36.5249 45.1795 35.5997 45.002C34.6745 44.8246 33.8124 44.4062 33.1005 43.7892C32.3887 43.1721 31.8522 42.3782 31.5451 41.4875C30.7402 41.7819 29.89 41.9331 29.0329 41.9344C27.6858 41.9322 26.3658 41.5556 25.2202 40.8468C24.0746 40.1381 23.1484 39.1249 22.5451 37.9204C21.9418 36.7159 21.6851 35.3674 21.8036 34.0255C21.922 32.6836 22.411 31.401 23.216 30.3208C23.0933 29.9889 23.0311 29.6378 23.0324 29.284C23.032 28.552 23.285 27.8425 23.7484 27.2759C24.2118 26.7094 24.857 26.3207 25.5745 26.1759C25.5649 26.0567 25.5542 25.9375 25.5542 25.7993C25.5548 24.7097 25.988 23.6648 26.7584 22.8944C27.5289 22.1239 28.5737 21.6907 29.6634 21.6901C30.2799 21.6878 30.8886 21.8272 31.4426 22.0977C31.974 21.2006 32.7298 20.4573 33.6357 19.9409C34.5415 19.4246 35.5662 19.153 36.6089 19.1529C38.0631 19.1474 39.4681 19.6796 40.5536 20.6473C40.8593 20.1541 41.2952 19.7548 41.8133 19.4935C42.3314 19.2322 42.9116 19.1189 43.49 19.1663C44.0683 19.2136 44.6224 19.4196 45.0911 19.7617C45.5598 20.1038 45.925 20.5686 46.1465 21.105C46.437 21.073 46.729 21.0559 47.0212 21.0537C48.9219 21.0567 50.7522 21.7733 52.1497 23.0616C53.5472 24.3498 54.41 26.1158 54.5674 28.01H54.5984C55.0132 28.0101 55.4239 28.0921 55.807 28.2513C56.1901 28.4104 56.538 28.6436 56.8308 28.9374C57.1236 29.2312 57.3556 29.5799 57.5134 29.9635C57.6712 30.3471 57.7518 30.7581 57.7506 31.1729C57.7485 31.7207 57.6087 32.2592 57.3442 32.7389C58.0188 33.663 58.3819 34.7778 58.381 35.922H58.3822Z" fill="#FB7B76"/>
<path d="M57.3468 32.7386C57.6114 32.2589 57.7511 31.7204 57.7532 31.1726C57.7545 30.7578 57.6739 30.3468 57.516 29.9632C57.3582 29.5796 57.1262 29.2309 56.8334 28.9371C56.5406 28.6433 56.1927 28.4101 55.8096 28.251C55.4266 28.0918 55.0158 28.0099 54.601 28.0097H54.5701C54.4132 26.1151 53.5506 24.3485 52.1531 23.0598C50.7555 21.771 48.9249 21.0541 47.0239 21.0511C46.7316 21.0532 46.4396 21.0703 46.1491 21.1023C45.9807 20.6904 45.7266 20.319 45.4037 20.0128C45.0808 19.7065 44.6965 19.4724 44.2763 19.3259C43.8561 19.1794 43.4096 19.1239 42.9663 19.1631C42.523 19.2022 42.0931 19.3351 41.7051 19.553C42.333 19.8949 42.8247 20.4418 43.0982 21.1023C43.3888 21.0703 43.6807 21.0532 43.973 21.0511C45.874 21.0541 47.7046 21.771 49.1022 23.0598C50.4997 24.3485 51.3623 26.1151 51.5192 28.0097H51.5502C51.965 28.0099 52.3757 28.0918 52.7587 28.251C53.1418 28.4101 53.4897 28.6433 53.7825 28.9371C54.0753 29.2309 54.3073 29.5796 54.4652 29.9632C54.623 30.3468 54.7036 30.7578 54.7023 31.1726C54.7002 31.7204 54.5605 32.2589 54.2959 32.7386C54.9706 33.6627 55.3337 34.7776 55.3328 35.9217C55.3363 36.6541 55.184 37.3789 54.8859 38.0478C54.6556 38.5918 54.3357 39.0933 53.9396 39.5316C53.7346 40.6452 53.2822 41.6985 52.6157 42.6139C51.9493 43.5293 51.0858 44.2834 50.0891 44.8206C50.6864 45.6398 51.1402 46.5546 51.431 47.5258C51.4996 47.7359 51.5341 47.9556 51.5335 48.1765C51.5235 48.7116 51.3105 49.2229 50.9376 49.6066C51.2245 49.9176 51.5985 50.1346 52.0108 50.2293C52.4231 50.324 52.8544 50.292 53.2482 50.1374C53.642 49.9828 53.9799 49.7129 54.2177 49.363C54.4555 49.0131 54.582 48.5996 54.5808 48.1765C54.5815 47.9556 54.5469 47.7359 54.4783 47.5258C54.1875 46.5546 53.7337 45.6398 53.1364 44.8206C54.1338 44.2838 54.998 43.5299 55.665 42.6145C56.3321 41.699 56.7851 40.6455 56.9905 39.5316C57.3866 39.0933 57.7065 38.5918 57.9368 38.0478C58.2349 37.3789 58.3872 36.6541 58.3837 35.9217C58.3846 34.7776 58.0215 33.6627 57.3468 32.7386Z" fill="#FF5364"/>
<path d="M30.0455 41.6743C28.9205 41.3383 27.8929 40.7361 27.0499 39.9188C26.2069 39.1015 25.5733 38.093 25.2026 36.9789C24.832 35.8647 24.7353 34.6777 24.9207 33.5183C25.1061 32.3588 25.5681 31.2611 26.2677 30.3181C26.1188 29.8917 26.063 29.4384 26.104 28.9886C26.1449 28.5389 26.2817 28.1031 26.5052 27.7107C26.7286 27.3182 27.0335 26.9781 27.3994 26.7133C27.7652 26.4486 28.1835 26.2652 28.6262 26.1756C28.5406 25.2944 28.7449 24.4094 29.208 23.6549C29.671 22.9004 30.3676 22.3176 31.192 21.9949C30.5399 21.7327 29.8314 21.6424 29.1344 21.7327C28.4374 21.823 27.7753 22.0908 27.2115 22.5104C26.6477 22.9301 26.2011 23.4875 25.9146 24.1293C25.6281 24.771 25.5113 25.4757 25.5753 26.1756C25.1319 26.265 24.7129 26.4485 24.3465 26.7137C23.9802 26.9789 23.6749 27.3196 23.4514 27.7128C23.2278 28.1059 23.0912 28.5425 23.0508 28.9929C23.0103 29.4434 23.0669 29.8973 23.2168 30.324C19.8966 34.7252 22.2634 42.213 30.6641 42.269" fill="white"/>
<path d="M19.3308 40.8438H16.5039C16.2679 40.8444 16.0394 40.927 15.8574 41.0774C15.6755 41.2278 15.5514 41.4367 15.5064 41.6684L11.0529 64.5287C10.9956 64.8236 11.0045 65.1276 11.0788 65.4187C11.153 65.7098 11.2909 65.9809 11.4825 66.2123C11.6741 66.4438 11.9146 66.6299 12.1867 66.7573C12.4588 66.8847 12.7557 66.9502 13.0562 66.9491H16.1071C15.8066 66.9502 15.5097 66.8847 15.2376 66.7573C14.9655 66.6299 14.725 66.4438 14.5334 66.2123C14.3418 65.9809 14.2039 65.7098 14.1296 65.4187C14.0554 65.1276 14.0465 64.8236 14.1037 64.5287L18.5573 41.6684C18.6026 41.4369 18.7267 41.2283 18.9087 41.0781C19.0906 40.9279 19.3189 40.8455 19.5548 40.8449" fill="white"/>
<path d="M12.9688 49.4496L14.518 41.4648L16.5154 41.8534L14.9661 49.8381L12.9688 49.4496Z" fill="white"/>
<path d="M14.7542 46.6738C14.613 46.6882 14.4703 46.673 14.3354 46.629C14.2004 46.5851 14.0761 46.5134 13.9705 46.4185C13.8649 46.3237 13.7803 46.2078 13.7222 46.0783C13.664 45.9488 13.6336 45.8086 13.6328 45.6667C13.6321 45.5248 13.661 45.3842 13.7178 45.2542C13.7746 45.1241 13.858 45.0073 13.9625 44.9113C14.0671 44.8154 14.1906 44.7424 14.3251 44.697C14.4596 44.6516 14.6021 44.6348 14.7434 44.6478H14.7542C15.0179 44.6568 15.2678 44.768 15.4512 44.9577C15.6346 45.1475 15.7371 45.4011 15.7371 45.665C15.7371 45.9289 15.6346 46.1824 15.4512 46.3722C15.2678 46.562 15.0179 46.6731 14.7542 46.6821V46.6738Z" fill="#21293E"/>
<path d="M65.6465 41.4781C65.5575 41.0138 65.3095 40.5951 64.9452 40.2938C64.5809 39.9926 64.123 39.8277 63.6503 39.8275H61.6863L61.5421 38.9623C61.472 38.5384 61.2701 38.1473 60.965 37.8448C60.6599 37.5423 60.2671 37.3436 59.8426 37.2772C59.6496 37.2462 59.4541 37.2259 59.2622 37.1997C59.5954 35.6451 59.3189 34.0219 58.49 32.6651C58.7064 32.1035 58.7984 31.5016 58.7597 30.901C58.721 30.3004 58.5524 29.7153 58.2657 29.1861C57.9789 28.6569 57.5808 28.1962 57.0988 27.8358C56.6168 27.4754 56.0623 27.2238 55.4737 27.0984C55.1048 25.1223 54.0593 23.3363 52.5167 22.0473C50.9741 20.7583 49.0308 20.0468 47.0205 20.0349C46.9181 20.0349 46.8275 20.048 46.7309 20.0504C46.4037 19.5365 45.967 19.1013 45.452 18.7758C44.9371 18.4503 44.3566 18.2425 43.752 18.1674C43.1474 18.0922 42.5337 18.1515 41.9548 18.3411C41.3758 18.5306 40.8458 18.8457 40.4027 19.2638C39.2728 18.5285 37.9539 18.1365 36.6058 18.1353C35.5337 18.1399 34.4768 18.3884 33.515 18.8621C32.5532 19.3358 31.7118 20.0221 31.0546 20.8691C30.3251 20.6572 29.5573 20.612 28.808 20.7369C28.0587 20.8618 27.3471 21.1537 26.7258 21.5908C26.1045 22.028 25.5895 22.5992 25.2189 23.2623C24.8482 23.9254 24.6315 24.6634 24.5846 25.4216C23.8248 25.7397 23.1759 26.275 22.7192 26.9604C22.2626 27.6459 22.0185 28.4509 22.0176 29.2746C22.0203 29.5666 22.0542 29.8574 22.1189 30.1422C21.441 31.164 21.0015 32.3252 20.8328 33.5397C20.6641 34.7543 20.7704 35.9913 21.144 37.1592C20.8711 37.1973 20.5922 37.2307 20.33 37.27C19.9034 37.3341 19.508 37.5314 19.2003 37.8339C18.8927 38.1364 18.6887 38.5285 18.6175 38.954L18.4733 39.8216H16.5045C16.0319 39.8222 15.5742 39.9872 15.21 40.2884C14.8458 40.5896 14.5977 41.0081 14.5083 41.4722C14.4829 41.6034 14.4836 41.7384 14.5104 41.8693C14.5372 42.0003 14.5896 42.1247 14.6645 42.2354C14.7395 42.3461 14.8355 42.4409 14.9472 42.5144C15.0588 42.588 15.1839 42.6388 15.3152 42.6639C15.3788 42.6758 15.4434 42.6818 15.5082 42.6818C15.7443 42.681 15.9728 42.5983 16.1545 42.4476C16.3363 42.2969 16.46 42.0878 16.5045 41.8559H18.1313L14.9397 61.0431C14.885 61.3861 14.9186 61.7374 15.0374 62.0637C15.1563 62.39 15.3564 62.6807 15.6189 62.9081C15.8814 63.1355 16.1976 63.2922 16.5375 63.3633C16.8775 63.4345 17.2299 63.4177 17.5616 63.3146C22.9823 61.5576 28.7575 61.1904 34.357 62.2468L34.059 65.9329H13.0568C12.9053 65.9328 12.7556 65.8992 12.6186 65.8345C12.4816 65.7698 12.3606 65.6756 12.2643 65.5587C12.1694 65.444 12.1011 65.3097 12.0642 65.1655C12.0273 65.0212 12.0228 64.8706 12.0509 64.7245L14.9493 49.8502C14.9802 49.7171 14.984 49.5792 14.9604 49.4447C14.9369 49.3102 14.8865 49.1818 14.8123 49.0671C14.7381 48.9524 14.6416 48.8539 14.5285 48.7773C14.4154 48.7007 14.2881 48.6477 14.154 48.6214C14.02 48.5951 13.8821 48.596 13.7484 48.6241C13.6148 48.6522 13.4881 48.7069 13.3761 48.785C13.264 48.8631 13.1688 48.9629 13.0962 49.0785C13.0235 49.1942 12.9748 49.3233 12.9531 49.4581L10.0559 64.3348C9.97008 64.7769 9.98319 65.2326 10.0943 65.6692C10.2055 66.1057 10.4119 66.5122 10.6988 66.8594C10.9857 67.2067 11.3459 67.4861 11.7536 67.6777C12.1613 67.8692 12.6063 67.9681 13.0568 67.9672H34.27C35.1126 69.3556 37.6712 70.0003 40.0834 70.0003C42.4669 70.0003 45.0041 69.3711 45.8705 67.9672H67.098C67.5484 67.9679 67.9933 67.8688 68.4009 67.6772C68.8085 67.4856 69.1686 67.2062 69.4555 66.859C69.7423 66.5118 69.9487 66.1054 70.06 65.669C70.1712 65.2325 70.1845 64.7769 70.0988 64.3348L65.6465 41.4781ZM26.1887 27.1294C26.5212 27.1285 26.8492 27.2062 27.146 27.3562C27.4428 27.5061 27.6999 27.7241 27.8965 27.9922C28.0588 28.2048 28.2982 28.3449 28.563 28.3823C28.8278 28.4198 29.0966 28.3515 29.3115 28.1922C29.5263 28.033 29.6698 27.7956 29.711 27.5314C29.7522 27.2671 29.6877 26.9973 29.5316 26.7802C29.19 26.3238 28.7572 25.9433 28.2607 25.663C27.7642 25.3828 27.2149 25.2089 26.6475 25.1523C26.7946 24.4611 27.1741 23.8412 27.7227 23.3958C28.2713 22.9504 28.956 22.7064 29.6627 22.7044C29.7868 22.7114 29.9106 22.7249 30.0333 22.745C29.9511 22.9537 29.8795 23.1665 29.8188 23.3825C29.7515 23.6436 29.7906 23.9207 29.9276 24.153C30.0646 24.3852 30.2883 24.5534 30.5493 24.6208C30.8104 24.6881 31.0875 24.649 31.3197 24.5119C31.552 24.3749 31.7202 24.1513 31.7876 23.8902C32.0645 22.8236 32.6881 21.8793 33.5603 21.2058C34.4325 20.5323 35.5038 20.1678 36.6058 20.1696C37.5635 20.1742 38.4992 20.457 39.2992 20.9835C39.147 21.4115 39.0665 21.8617 39.0608 22.3159C39.0608 22.4494 39.0871 22.5816 39.1382 22.7049C39.1893 22.8283 39.2642 22.9403 39.3586 23.0347C39.453 23.1291 39.565 23.204 39.6884 23.2551C39.8117 23.3062 39.9439 23.3325 40.0774 23.3325C40.2109 23.3325 40.3431 23.3062 40.4664 23.2551C40.5898 23.204 40.7018 23.1291 40.7962 23.0347C40.8906 22.9403 40.9655 22.8283 41.0166 22.7049C41.0677 22.5816 41.094 22.4494 41.094 22.3159C41.072 22.0216 41.111 21.7259 41.2085 21.4473C41.3061 21.1687 41.46 20.9132 41.6608 20.6969C41.8616 20.4805 42.1049 20.3079 42.3754 20.1899C42.646 20.0719 42.938 20.011 43.2332 20.011C43.5283 20.011 43.8203 20.0719 44.0909 20.1899C44.3614 20.3079 44.6047 20.4805 44.8055 20.6969C45.0063 20.9132 45.1603 21.1687 45.2578 21.4473C45.3553 21.7259 45.3943 22.0216 45.3724 22.3159C45.3677 22.4524 45.3905 22.5885 45.4395 22.716C45.4886 22.8435 45.5627 22.9598 45.6576 23.058C45.7526 23.1562 45.8663 23.2343 45.992 23.2877C46.1177 23.341 46.2529 23.3685 46.3895 23.3685C46.5261 23.3685 46.6613 23.341 46.787 23.2877C46.9128 23.2343 47.0265 23.1562 47.1214 23.058C47.2163 22.9598 47.2905 22.8435 47.3395 22.716C47.3885 22.5885 47.4113 22.4524 47.4067 22.3159C47.4067 22.2385 47.3876 22.1634 47.3828 22.0859C48.8009 22.173 50.153 22.7154 51.2382 23.6324C52.3233 24.5495 53.0836 25.7922 53.406 27.1759C52.9333 27.3149 52.4894 27.5372 52.095 27.8325C51.9773 27.9077 51.8764 28.0063 51.7984 28.1221C51.7205 28.238 51.6673 28.3687 51.6421 28.506C51.6169 28.6434 51.6203 28.7844 51.652 28.9204C51.6837 29.0564 51.7431 29.1844 51.8265 29.2964C51.9099 29.4084 52.0154 29.5021 52.1366 29.5715C52.2578 29.6409 52.3919 29.6846 52.5307 29.6999C52.6695 29.7152 52.81 29.7017 52.9433 29.6603C53.0767 29.6189 53.2001 29.5505 53.3059 29.4593C53.7005 29.1693 54.1824 29.0231 54.6716 29.045C55.1608 29.0668 55.6278 29.2553 55.9951 29.5793C56.3623 29.9032 56.6077 30.343 56.6904 30.8257C56.7731 31.3084 56.6881 31.8048 56.4497 32.2325C56.2283 32.6218 55.892 32.9332 55.4868 33.1239C55.2796 33.224 55.1126 33.3914 55.0129 33.5988C54.9133 33.8061 54.8869 34.0411 54.9381 34.2654C54.9892 34.4897 55.115 34.69 55.2948 34.8335C55.4745 34.9771 55.6977 35.0554 55.9277 35.0558C56.0765 35.0562 56.2235 35.0232 56.3579 34.9592C56.6275 34.8276 56.8824 34.6678 57.1183 34.4825C57.3762 35.2162 57.4324 36.0057 57.2811 36.7686C57.1297 37.5314 56.7763 38.2397 56.2578 38.8193L56.2328 38.8443C55.5882 39.5435 54.734 40.0145 53.7986 40.1865C52.8633 40.3584 51.8974 40.222 51.0463 39.7977C50.8752 39.7069 50.7108 39.6042 50.5541 39.4903C50.9217 38.976 51.1412 38.3707 51.1886 37.7403C51.2361 37.1099 51.1098 36.4786 50.8234 35.915C50.7654 35.7923 50.6834 35.6823 50.5822 35.5918C50.4811 35.5012 50.3628 35.4318 50.2344 35.3876C50.106 35.3434 49.97 35.3254 49.8346 35.3345C49.6991 35.3437 49.5668 35.3799 49.4455 35.441C49.3242 35.5021 49.2164 35.5868 49.1284 35.6902C49.0404 35.7936 48.9739 35.9135 48.9329 36.043C48.892 36.1725 48.8774 36.3088 48.8899 36.444C48.9024 36.5792 48.9419 36.7106 49.006 36.8303C49.1674 37.1555 49.2067 37.5279 49.1165 37.8797C49.0264 38.2314 48.8129 38.5391 48.515 38.7466C48.3362 38.8657 48.1343 38.9459 47.9225 38.9821C47.7106 39.0182 47.4936 39.0094 47.2854 38.9562C47.0772 38.9031 46.8825 38.8068 46.7139 38.6735C46.5453 38.5403 46.4066 38.3732 46.3067 38.1829C46.1799 37.9529 45.969 37.7807 45.7182 37.7026C45.4673 37.6244 45.196 37.6463 44.961 37.7636C44.7259 37.8809 44.5453 38.0846 44.4569 38.332C44.3686 38.5794 44.3793 38.8514 44.4869 39.091C44.7794 39.681 45.2313 40.1773 45.7913 40.5238C46.3514 40.8703 46.9972 41.0531 47.6558 41.0515C48.0931 41.0487 48.5261 40.9638 48.9321 40.8012C49.2955 41.1187 49.6956 41.3915 50.1239 41.614C51.5734 42.3654 53.2589 42.5214 54.8218 42.049C53.8168 43.4211 52.3127 44.3431 50.6339 44.616C50.3763 44.651 50.1419 44.7833 49.9787 44.9857C49.8156 45.1881 49.7361 45.4453 49.7565 45.7045C49.7769 45.9636 49.8958 46.2052 50.0886 46.3795C50.2815 46.5538 50.5337 46.6477 50.7936 46.642C50.8479 46.6416 50.902 46.6376 50.9557 46.6301C51.5745 46.5224 52.1794 46.3457 52.7588 46.1033C53.0728 46.6569 53.3273 47.2421 53.518 47.8492C53.5526 47.955 53.5703 48.0656 53.5704 48.177C53.5705 48.392 53.5073 48.6023 53.3889 48.7817C53.2705 48.9612 53.1019 49.1019 52.9042 49.1864C52.6761 49.2736 52.4261 49.2859 52.1904 49.2217C51.9547 49.1574 51.7456 49.0198 51.5933 48.8289C50.8049 47.9035 49.7726 47.2181 48.6139 46.8505C46.4163 46.114 45.5678 45.4562 45.2079 44.7399C45.7353 44.6729 46.2563 44.5625 46.7655 44.4098C46.8943 44.3717 47.0143 44.3084 47.1185 44.2237C47.2227 44.1389 47.3091 44.0343 47.3726 43.916C47.4362 43.7976 47.4756 43.6679 47.4887 43.5342C47.5018 43.4005 47.4883 43.2655 47.4489 43.1371C47.4096 43.0087 47.3451 42.8893 47.2594 42.7859C47.1736 42.6826 47.0682 42.5972 46.9492 42.5348C46.8303 42.4724 46.7001 42.4342 46.5663 42.4224C46.4325 42.4106 46.2977 42.4255 46.1696 42.4661C45.5989 42.6409 45.0098 42.7489 44.4142 42.7879C43.2667 42.8782 42.1138 42.7046 41.0439 42.2802C40.8478 42.2037 40.6328 42.1899 40.4286 42.2407C40.2243 42.2915 40.0408 42.4044 39.9034 42.5638C39.189 43.3845 38.1934 43.908 37.1124 44.0313C36.0314 44.1546 34.9434 43.8688 34.0626 43.2301C33.1817 42.5914 32.5719 41.6461 32.3531 40.5803C32.1343 39.5146 32.3224 38.4055 32.8804 37.4714C32.9529 37.3565 33.0017 37.2282 33.024 37.0941C33.0462 36.96 33.0415 36.8228 33.0099 36.6906C32.9784 36.5584 32.9208 36.4338 32.8405 36.3242C32.7601 36.2145 32.6587 36.1221 32.5421 36.0522C32.4255 35.9823 32.2962 35.9364 32.1616 35.9172C32.027 35.898 31.89 35.9059 31.7585 35.9405C31.6271 35.975 31.5038 36.0354 31.396 36.1182C31.2883 36.201 31.1981 36.3046 31.1309 36.4227C30.8855 36.8366 30.6884 37.2772 30.5434 37.736C30.1575 37.7158 29.7936 37.55 29.5253 37.2719C29.257 36.9939 29.1042 36.6243 29.0978 36.238V36.2118C29.0976 36.0789 29.0711 35.9474 29.0198 35.8249C28.9685 35.7024 28.8934 35.5912 28.7989 35.4979C28.7044 35.4046 28.5922 35.3309 28.4691 35.2812C28.3459 35.2315 28.214 35.2067 28.0812 35.2083C27.81 35.2108 27.5508 35.3205 27.3601 35.5134C27.1695 35.7063 27.0628 35.9668 27.0635 36.238C27.066 37.109 27.3895 37.9486 27.9721 38.5961C28.5548 39.2436 29.3556 39.6536 30.2216 39.7477C30.2251 40.0885 30.2562 40.4285 30.3146 40.7643C29.2006 41.0052 28.0419 40.9353 26.9651 40.562C25.8883 40.1888 24.9348 39.5267 24.209 38.648C23.4831 37.7694 23.0129 36.7081 22.8496 35.5802C22.6863 34.4523 22.8363 33.3012 23.2832 32.2528C23.5108 32.4829 23.7648 32.6853 24.04 32.8558C24.2706 32.9876 24.5436 33.0239 24.8006 32.957C25.0576 32.8901 25.2782 32.7253 25.4153 32.4978C25.5523 32.2702 25.5949 31.9981 25.5338 31.7396C25.4728 31.4812 25.313 31.2568 25.0887 31.1146C24.6862 30.8735 24.3739 30.507 24.1997 30.0713C24.0254 29.6357 23.9988 29.1549 24.1239 28.7027C24.249 28.2504 24.5189 27.8517 24.8922 27.5675C25.2656 27.2834 25.7219 27.1295 26.1911 27.1294H26.1887ZM16.9479 61.3709L20.6173 39.2853C21.0868 39.2162 21.5707 39.1542 22.0474 39.0922C22.964 40.5571 24.3194 41.6954 25.9206 42.345C27.5218 42.9947 29.2871 43.1225 30.9653 42.7104C31.4208 43.5778 32.0702 44.3284 32.8631 44.904C33.6559 45.4795 34.5708 45.8645 35.5367 46.0289C36.5025 46.1933 37.4932 46.1327 38.4319 45.8519C39.3705 45.5711 40.2317 45.0776 40.9486 44.4098C41.6397 44.616 42.3515 44.7447 43.0711 44.7936C43.5621 46.6575 44.9779 47.7861 47.9644 48.7859C48.7687 49.0378 49.4863 49.5101 50.0357 50.1493C50.3373 50.5079 50.7131 50.7968 51.1371 50.9962C51.5611 51.1955 52.0233 51.3006 52.4919 51.3041C52.9012 51.303 53.3064 51.2213 53.6841 51.0636C54.0619 50.9059 54.4049 50.6753 54.6935 50.385C54.9821 50.0947 55.2108 49.7504 55.3663 49.3718C55.5218 48.9931 55.6012 48.5875 55.6 48.1782C55.6009 47.8514 55.549 47.5266 55.4462 47.2164C55.2173 46.4976 54.9159 45.804 54.5465 45.1463C56.2753 43.9029 57.4799 42.0611 57.9263 39.9789C58.1429 39.7217 58.3386 39.4475 58.5114 39.159C58.8523 39.2031 59.1931 39.2412 59.5363 39.2984L63.2069 61.3804C56.0308 58.9838 48.2701 58.9838 41.094 61.3804V48.6441C41.094 48.3745 40.9869 48.116 40.7962 47.9253C40.6056 47.7347 40.347 47.6276 40.0774 47.6276C39.8078 47.6276 39.5492 47.7347 39.3586 47.9253C39.1679 48.116 39.0608 48.3745 39.0608 48.6441V61.3792C31.8854 58.9809 24.1251 58.978 16.9479 61.3709ZM40.0774 67.9672C37.6272 67.9672 36.2221 67.2426 36.0159 66.9209L36.3651 62.6997C37.4833 62.9783 38.5776 63.3453 39.6376 63.7973C39.7748 63.8634 39.9251 63.8981 40.0774 63.8986C40.2298 63.8986 40.3802 63.864 40.5172 63.7973C41.5771 63.343 42.6713 62.9736 43.7897 62.6925L44.1389 66.9197C43.9327 67.2426 42.5276 67.9672 40.0774 67.9672ZM67.8905 65.5587C67.7943 65.6758 67.6733 65.7701 67.5363 65.8348C67.3992 65.8995 67.2496 65.933 67.098 65.9329H46.0993L45.7942 62.2385C51.3969 61.1823 57.1751 61.5511 62.5979 63.311C62.9298 63.4132 63.2822 63.429 63.6219 63.357C63.9615 63.2851 64.2772 63.1276 64.5391 62.8996C64.801 62.6716 65.0004 62.3806 65.1185 62.0541C65.2365 61.7276 65.2694 61.3763 65.2138 61.0336L62.0259 41.8583H63.6527L68.1074 64.7233C68.135 64.8699 68.1299 65.0208 68.0924 65.1652C68.0549 65.3096 67.986 65.444 67.8905 65.5587Z" fill="#21293E"/>
<path d="M36.7072 33.0702C36.5089 33.2508 36.3899 33.5024 36.3763 33.7703C36.3627 34.0382 36.4555 34.3006 36.6345 34.5003C37.497 35.4531 38.6373 36.1105 39.8939 36.3797C39.6138 36.7752 39.2427 37.0976 38.8119 37.3197C38.3812 37.5418 37.9033 37.6572 37.4187 37.6561C37.1549 37.6651 36.905 37.7762 36.7216 37.966C36.5382 38.1557 36.4357 38.4093 36.4357 38.6732C36.4357 38.9371 36.5382 39.1907 36.7216 39.3805C36.905 39.5702 37.1549 39.6814 37.4187 39.6904C38.4468 39.6946 39.4517 39.3845 40.2987 38.8015C41.1456 38.2185 41.794 37.3905 42.1571 36.4286C43.3926 36.2238 44.5359 35.6459 45.4334 34.7724C46.3309 33.899 46.9396 32.7719 47.1779 31.5424C47.203 31.4112 47.2019 31.2764 47.1749 31.1457C47.1478 31.0149 47.0953 30.8908 47.0203 30.7803C46.9452 30.6699 46.8492 30.5753 46.7376 30.502C46.626 30.4287 46.5011 30.378 46.3699 30.353C46.2388 30.328 46.104 30.329 45.9732 30.3561C45.8425 30.3831 45.7183 30.4356 45.6079 30.5107C45.4975 30.5857 45.4029 30.6818 45.3295 30.7933C45.2562 30.9049 45.2056 31.0299 45.1806 31.161C44.9812 32.2097 44.376 33.1373 43.4966 33.7423C42.6775 34.2938 41.6886 34.5353 40.7075 34.4235C39.7264 34.3117 38.8173 33.8538 38.1433 33.1322C37.9622 32.9325 37.7092 32.8128 37.44 32.7994C37.1708 32.786 36.9072 32.88 36.7072 33.0607V33.0702Z" fill="#21293E"/>
<path d="M33.165 31.966C33.4349 31.966 33.6938 31.8588 33.8847 31.6679C34.0755 31.477 34.1828 31.2182 34.1828 30.9482C34.1828 30.2472 34.4613 29.5749 34.957 29.0791C35.4527 28.5834 36.125 28.3049 36.8261 28.3049C36.9626 28.3096 37.0986 28.2868 37.2261 28.2377C37.3536 28.1887 37.4699 28.1146 37.5681 28.0196C37.6664 27.9247 37.7445 27.811 37.7978 27.6853C37.8512 27.5595 37.8786 27.4244 37.8786 27.2878C37.8786 27.1512 37.8512 27.016 37.7978 26.8903C37.7445 26.7645 37.6664 26.6508 37.5681 26.5559C37.4699 26.461 37.3536 26.3868 37.2261 26.3378C37.0986 26.2888 36.9626 26.2659 36.8261 26.2706C35.5858 26.2716 34.3966 26.7647 33.5195 27.6417C32.6425 28.5187 32.1494 29.708 32.1484 30.9482C32.1484 31.218 32.2555 31.4767 32.4461 31.6675C32.6367 31.8583 32.8953 31.9657 33.165 31.966Z" fill="#21293E"/>
<path d="M41.0937 12.0331V11.0166C41.0937 10.747 40.9866 10.4884 40.7959 10.2977C40.6053 10.1071 40.3467 10 40.0771 10C39.8075 10 39.5489 10.1071 39.3583 10.2977C39.1676 10.4884 39.0605 10.747 39.0605 11.0166V12.0331C39.0605 12.3027 39.1676 12.5613 39.3583 12.752C39.5489 12.9426 39.8075 13.0497 40.0771 13.0497C40.3467 13.0497 40.6053 12.9426 40.7959 12.752C40.9866 12.5613 41.0937 12.3027 41.0937 12.0331Z" fill="#F0C419"/>
<path d="M56.7616 17.2972L55.7486 18.3102C55.5573 18.5008 55.4497 18.7596 55.4492 19.0295C55.4488 19.2995 55.5556 19.5586 55.7462 19.7499C55.9368 19.9411 56.1955 20.0488 56.4655 20.0492C56.7355 20.0496 56.9946 19.9428 57.1858 19.7522L58.2036 18.7357C58.298 18.641 58.3729 18.5286 58.4239 18.405C58.475 18.2814 58.5011 18.1489 58.501 18.0152C58.5008 17.8814 58.4743 17.749 58.423 17.6256C58.3716 17.5021 58.2965 17.3899 58.2018 17.2954C58.1071 17.201 57.9947 17.1261 57.8711 17.0751C57.7475 17.0241 57.615 16.9979 57.4813 16.998C57.3476 16.9982 57.2152 17.0247 57.0917 17.0761C56.9682 17.1274 56.856 17.2025 56.7616 17.2972Z" fill="#F0C419"/>
<path d="M23.6881 20.0502C23.8888 20.0494 24.0847 19.9892 24.2513 19.8772C24.4179 19.7653 24.5475 19.6065 24.624 19.4209C24.7005 19.2354 24.7203 19.0313 24.681 18.8345C24.6417 18.6377 24.545 18.4569 24.4031 18.315L23.3937 17.2972C23.2993 17.2025 23.1871 17.1274 23.0636 17.0761C22.9401 17.0247 22.8077 16.9982 22.674 16.998C22.5402 16.9979 22.4078 17.0241 22.2841 17.0751C22.1605 17.1261 22.0482 17.201 21.9535 17.2954C21.8588 17.3899 21.7836 17.5021 21.7323 17.6256C21.681 17.749 21.6545 17.8814 21.6543 18.0152C21.6541 18.1489 21.6803 18.2814 21.7313 18.405C21.7824 18.5286 21.8572 18.641 21.9517 18.7357L22.9694 19.7522C23.16 19.9429 23.4185 20.0501 23.6881 20.0502Z" fill="#F0C419"/>
<path d="M31.5151 15.7706C31.6821 15.7702 31.8464 15.7285 31.9934 15.6494C32.1404 15.5703 32.2657 15.4562 32.3581 15.3171C32.4505 15.1781 32.5071 15.0184 32.5231 14.8522C32.539 14.686 32.5137 14.5184 32.4495 14.3643L31.2815 11.5458C31.2313 11.4213 31.1569 11.308 31.0626 11.2124C30.9683 11.1168 30.8559 11.0408 30.7321 10.9888C30.6083 10.9369 30.4754 10.91 30.3411 10.9097C30.2068 10.9094 30.0738 10.9357 29.9497 10.9871C29.8256 11.0385 29.713 11.114 29.6183 11.2092C29.5235 11.3044 29.4486 11.4174 29.3978 11.5417C29.347 11.666 29.3213 11.7991 29.3223 11.9334C29.3232 12.0677 29.3508 12.2005 29.4033 12.3241L30.5701 15.1437C30.6472 15.3296 30.7777 15.4883 30.9451 15.5999C31.1125 15.7115 31.3092 15.7709 31.5104 15.7706H31.5151Z" fill="#F0C419"/>
<path d="M50.1965 10.9951C49.9473 10.8921 49.6673 10.8923 49.4182 10.9955C49.169 11.0987 48.971 11.2966 48.8677 11.5457L47.7046 14.3642C47.6077 14.6122 47.6118 14.8882 47.716 15.1331C47.8203 15.3781 48.0163 15.5724 48.2621 15.6745C48.508 15.7766 48.784 15.7783 49.0311 15.6793C49.2782 15.5803 49.4767 15.3884 49.5839 15.1448L50.7507 12.3251C50.8021 12.2017 50.8286 12.0694 50.8288 11.9358C50.829 11.8021 50.8028 11.6697 50.7518 11.5462C50.7008 11.4227 50.6259 11.3104 50.5314 11.2158C50.4369 11.1213 50.3248 11.0463 50.2013 10.9951H50.1965Z" fill="#F0C419"/>
<path d="M60.7475 27.8801C60.8813 27.8797 61.0137 27.853 61.1372 27.8015L63.9545 26.6348C64.0779 26.5837 64.1901 26.5089 64.2845 26.4146C64.379 26.3202 64.454 26.2081 64.5052 26.0848C64.5564 25.9615 64.5828 25.8293 64.5828 25.6957C64.5829 25.5622 64.5567 25.43 64.5057 25.3066C64.4547 25.1832 64.3799 25.071 64.2855 24.9765C64.1911 24.882 64.0791 24.8071 63.9558 24.7559C63.8324 24.7047 63.7002 24.6783 63.5667 24.6782C63.4331 24.6781 63.3009 24.7043 63.1775 24.7554L60.3578 25.9221C60.139 26.0112 59.958 26.1737 59.8461 26.3818C59.7341 26.5898 59.698 26.8303 59.7442 27.062C59.7903 27.2937 59.9157 27.5022 60.0988 27.6515C60.2819 27.8008 60.5113 27.8816 60.7475 27.8801Z" fill="#F0C419"/>
<path d="M19.0179 27.8015C19.2653 27.8955 19.5396 27.8895 19.7826 27.7846C20.0256 27.6798 20.2182 27.4844 20.3196 27.24C20.4209 26.9955 20.4231 26.7212 20.3256 26.4752C20.2281 26.2291 20.0386 26.0308 19.7973 25.9221L16.9776 24.7554C16.7284 24.6523 16.4484 24.6525 16.1994 24.7559C15.9503 24.8592 15.7525 25.0573 15.6494 25.3066C15.5464 25.5558 15.5466 25.8357 15.6499 26.0848C15.7533 26.3339 15.9514 26.5317 16.2006 26.6348L19.0179 27.8015Z" fill="#F0C419"/>
</svg>
