<svg width="80" height="80" viewBox="0 0 80 80" fill="none" xmlns="http://www.w3.org/2000/svg">
<rect width="80" height="80" fill="white"/>
<path d="M26 66.0008L34.0672 68.6879C34.6854 68.894 35.3327 68.9997 35.9844 69.0008H53C54.0032 68.9715 54.9562 68.5558 55.6602 67.8406L68.1407 55.1398C68.6853 54.5872 68.9963 53.8462 69.0091 53.0704C69.0218 52.2946 68.7354 51.5437 68.2092 50.9735C67.683 50.4033 66.9575 50.0576 66.1832 50.0081C65.4089 49.9586 64.6453 50.2092 64.0508 50.7078L54.9207 58.3519C54.7405 57.6732 54.3396 57.0737 53.7812 56.6479C53.2228 56.2221 52.5386 55.9941 51.8364 56H41.6469C41.2077 56.0077 40.7794 55.8628 40.4352 55.5898C39.1881 54.5584 37.6192 53.9962 36.0008 54.0008C32.4306 53.8941 28.9219 54.9466 26 57.0008V66.0008Z" fill="#FDD7AD"/>
<path d="M12.0004 56H10V64.0004H12.0004V56Z" fill="white"/>
<path d="M68.2996 51.0837C67.8449 50.5395 67.2126 50.1735 66.5142 50.0502C65.8158 49.9269 65.0964 50.0543 64.4828 50.4099C64.7941 50.584 65.0719 50.8121 65.3031 51.0837C65.7811 51.6597 66.0293 52.392 65.9999 53.1399C65.9705 53.8877 65.6655 54.5983 65.1438 55.1349L52.6563 67.8357C51.9532 68.5529 50.9999 68.9703 49.9961 69.0005H52.9961C53.9992 68.9713 54.9523 68.5556 55.6563 67.8404L68.1367 55.1396C68.6608 54.6034 68.9675 53.8921 68.9976 53.143C69.0276 52.3939 68.779 51.6602 68.2996 51.0837Z" fill="#F9C795"/>
<path d="M25.0004 55H11.9996C11.4475 55 11 55.4475 11 55.9996V67C11 67.5521 11.4475 67.9996 11.9996 67.9996H25.0004C25.5525 67.9996 26 67.5521 26 67V55.9996C26 55.4475 25.5525 55 25.0004 55Z" fill="#955BA5"/>
<path d="M25 55H22C22.2651 55 22.5194 55.1053 22.7068 55.2928C22.8943 55.4802 22.9996 55.7345 22.9996 55.9996V67C22.9996 67.2651 22.8943 67.5194 22.7068 67.7068C22.5194 67.8943 22.2651 67.9996 22 67.9996H25C25.1313 67.9996 25.2613 67.9738 25.3825 67.9235C25.5038 67.8733 25.614 67.7997 25.7068 67.7068C25.7997 67.614 25.8733 67.5038 25.9235 67.3825C25.9738 67.2613 25.9996 67.1313 25.9996 67V55.9996C25.9996 55.8683 25.9738 55.7384 25.9235 55.6171C25.8733 55.4958 25.7997 55.3856 25.7068 55.2928C25.614 55.2 25.5038 55.1263 25.3825 55.0761C25.2613 55.0259 25.1313 55 25 55Z" fill="#4E3355"/>
<path d="M41.0009 25.5004C41.0064 26.1194 40.7745 26.7171 40.3528 27.1703C39.9798 27.5889 39.475 27.8676 38.9219 27.9602C38.6931 29.633 37.8661 31.1663 36.5938 32.2763C35.3216 33.3863 33.6904 33.9979 32.002 33.9979C30.3136 33.9979 28.6824 33.3863 27.4102 32.2763C26.138 31.1663 25.3109 29.633 25.0821 27.9602C24.5295 27.8673 24.0251 27.5887 23.6524 27.1703C23.2304 26.7171 22.9977 26.1196 23.002 25.5004C23.0104 25.1105 23.1042 24.7271 23.277 24.3774C23.4497 24.0277 23.6971 23.7202 24.0016 23.4766C24.2938 23.2422 24.6357 23.0779 25.0012 22.9961C26.2597 22.9746 27.5141 22.8476 28.7512 22.6164C30.7516 22.2461 33.0016 21.4961 34.0012 19.9961C35.0009 22.9961 38.9911 22.9961 39.0016 22.9961C39.3706 23.073 39.7144 23.2415 40.0012 23.4859C40.3089 23.7247 40.5586 24.0299 40.7317 24.3787C40.9048 24.7276 40.9968 25.111 41.0009 25.5004Z" fill="#FDD7AD"/>
<path d="M40.0004 23.4894C39.7135 23.2449 39.3698 23.0764 39.0008 22.9995C38.9902 22.9995 35 22.9995 34.0004 19.9995C33.4958 20.6888 32.8211 21.2355 32.0422 21.5862C33.1732 22.4749 34.5628 22.971 36.0008 22.9995L35.9199 27.9601C35.7306 29.3776 35.1085 30.7022 34.1385 31.7532C33.1685 32.8041 31.8979 33.5302 30.5 33.8323C31.4421 34.0428 32.4176 34.0551 33.3647 33.8684C34.3118 33.6817 35.2097 33.3002 36.0015 32.748C36.7932 32.1958 37.4615 31.485 37.9639 30.6608C38.4664 29.8365 38.7919 28.9168 38.9199 27.9601C39.4734 27.8677 39.9786 27.5891 40.352 27.1702C40.7741 26.7171 41.0064 26.1195 41.0012 25.5003C40.9965 25.1114 40.904 24.7286 40.7307 24.3804C40.5574 24.0322 40.3078 23.7276 40.0004 23.4894Z" fill="#F9C795"/>
<path d="M40.0001 21.0005V23.4896C39.7132 23.2451 39.3695 23.0766 39.0005 22.9997C38.9899 22.9997 34.9997 22.9997 34.0001 19.9997C33.0005 21.4997 30.7505 22.2497 28.7501 22.62C27.5129 22.8513 26.2585 22.9783 25.0001 22.9997C24.6346 23.0815 24.2926 23.2458 24.0005 23.4802V21.0005C23.933 18.9989 24.6504 17.0501 25.9997 15.57V15.8806C25.9963 16.0443 26.0298 16.2066 26.0978 16.3556C26.1658 16.5045 26.2664 16.6363 26.3923 16.741C26.5182 16.8457 26.6661 16.9207 26.8249 16.9604C26.9837 17.0001 27.1495 17.0035 27.3098 16.9704C27.8737 16.8534 28.4059 16.6171 28.8708 16.2773C29.3357 15.9375 29.7225 15.5022 30.0051 15.0005C30.0051 15.2656 30.1105 15.5199 30.2979 15.7073C30.4854 15.8948 30.7396 16.0001 31.0048 16.0001H33.0051C33.2703 16.0001 33.5245 15.8948 33.712 15.7073C33.8994 15.5199 34.0048 15.2656 34.0048 15.0005C34.2867 15.5016 34.6725 15.9366 35.1364 16.2764C35.6002 16.6162 36.1314 16.8528 36.6942 16.9704C36.8342 16.9998 36.9786 17.0013 37.1191 16.9748C37.2597 16.9483 37.3936 16.8944 37.5133 16.8162C37.633 16.7379 37.7361 16.6369 37.8168 16.5188C37.8974 16.4007 37.954 16.2678 37.9833 16.1278C38 16.0465 38.0074 15.9636 38.0055 15.8806V15.57C39.353 17.0509 40.0687 18.9995 40.0001 21.0005Z" fill="#464F5D"/>
<path d="M38.0008 15.5703V15.8809C38.0041 16.0237 37.9791 16.1657 37.9275 16.2989C37.8758 16.4321 37.7985 16.5539 37.6997 16.6571C37.601 16.7604 37.483 16.8432 37.3522 16.9008C37.2215 16.9585 37.0807 16.9898 36.9379 16.993C36.8549 16.9949 36.7719 16.9874 36.6906 16.9707C36.3997 16.8991 36.1167 16.7986 35.8457 16.6707C36.6356 17.9766 37.0364 19.4808 37.0012 21.0066V22.6707C37.6501 22.871 38.3228 22.9837 39.0016 23.0059C39.3706 23.0828 39.7143 23.2512 40.0012 23.4957V21.0008C40.0682 18.999 39.3503 17.0503 38.0008 15.5703Z" fill="#393F4A"/>
<path d="M26.5717 31.4103C25.0213 33.0204 22.3529 33.0696 20.9115 32.9606C20.6571 32.947 20.4186 32.833 20.2483 32.6436C20.078 32.4541 19.9899 32.2049 20.0033 31.9505C20.0033 31.9235 20.0033 31.8966 20.0115 31.8696C20.2627 30.8783 20.7156 29.9493 21.3418 29.1408C21.9681 28.3323 22.7543 27.6615 23.6513 27.1704C24.0241 27.5888 24.5284 27.8674 25.081 27.9603C25.2427 29.2278 25.7595 30.4238 26.5717 31.4103Z" fill="#393F4A"/>
<path d="M43.9918 31.8696C44.0091 31.9946 44.0017 32.1218 43.9698 32.2439C43.938 32.366 43.8824 32.4806 43.8062 32.5811C43.73 32.6817 43.6347 32.7663 43.5258 32.83C43.4169 32.8937 43.2965 32.9353 43.1715 32.9524L43.0918 32.9606C41.6516 33.0696 38.9902 33.0204 37.4316 31.4196C38.2419 30.4285 38.7579 29.23 38.9211 27.9603C39.4745 27.8679 39.9798 27.5892 40.3531 27.1704C41.2498 27.6618 42.0357 28.3327 42.6617 29.1412C43.2877 29.9497 43.7405 30.8785 43.9918 31.8696Z" fill="#464F5D"/>
<path d="M40.352 27.1704C39.9789 27.589 39.4741 27.8677 38.9211 27.9603C38.907 28.0774 38.8754 28.1759 38.8555 28.2849C39.9439 29.2111 40.6951 30.4716 40.9918 31.8696C41.0209 32.0677 40.9859 32.2698 40.8919 32.4465C40.7978 32.6233 40.6497 32.7652 40.4691 32.8517C41.3372 32.9914 42.2188 33.0272 43.0953 32.9583C43.2212 32.9516 43.3445 32.9201 43.4583 32.8657C43.572 32.8112 43.6739 32.7349 43.7581 32.6411C43.8423 32.5473 43.9073 32.4378 43.9492 32.3189C43.9911 32.2 44.0091 32.074 44.0023 31.9481C44.0023 31.9216 44 31.8946 43.9953 31.8673C43.7432 30.8761 43.2896 29.9476 42.6627 29.1395C42.0359 28.3314 41.2493 27.6611 40.352 27.1704Z" fill="#393F4A"/>
<path d="M33.002 11.999H31.0016C30.4495 11.999 30.002 12.4466 30.002 12.9986V14.999C30.002 15.5511 30.4495 15.9986 31.0016 15.9986H33.002C33.554 15.9986 34.0016 15.5511 34.0016 14.999V12.9986C34.0016 12.4466 33.554 11.999 33.002 11.999Z" fill="#FB7B76"/>
<path d="M37.9996 12.1201V15.8806C38.0029 16.0234 37.978 16.1655 37.9263 16.2987C37.8747 16.4319 37.7973 16.5536 37.6986 16.6569C37.5999 16.7602 37.4818 16.843 37.3511 16.9006C37.2203 16.9582 37.0795 16.9895 36.9367 16.9927C36.8537 16.9946 36.7708 16.9872 36.6895 16.9705C36.1266 16.8528 35.5955 16.6162 35.1316 16.2764C34.6678 15.9367 34.2819 15.5016 34 15.0005V13.0001C34.2817 12.4989 34.6675 12.0637 35.1314 11.724C35.5953 11.3842 36.1266 11.1476 36.6895 11.0302C36.8499 10.9964 37.0159 10.9993 37.175 11.0388C37.3341 11.0782 37.4823 11.1532 37.6083 11.258C37.7344 11.3629 37.8351 11.4949 37.9028 11.6442C37.9706 11.7935 38.0037 11.9562 37.9996 12.1201Z" fill="#FB7B76"/>
<path d="M30.0003 13V15.0004C29.7176 15.5021 29.3308 15.9374 28.8659 16.2772C28.401 16.617 27.8688 16.8533 27.305 16.9703C27.165 16.9998 27.0206 17.0014 26.88 16.9751C26.7394 16.9487 26.6054 16.8948 26.4856 16.8165C26.3659 16.7382 26.2627 16.6371 26.1821 16.5189C26.1015 16.4007 26.045 16.2678 26.0159 16.1277C25.9988 16.0465 25.991 15.9635 25.9925 15.8805V12.1199C25.9892 11.9765 26.0143 11.8339 26.0664 11.7003C26.1185 11.5666 26.1965 11.4446 26.296 11.3412C26.3954 11.2378 26.5143 11.1552 26.6459 11.098C26.7774 11.0407 26.919 11.0101 27.0624 11.0078C27.1454 11.0052 27.2284 11.0127 27.3097 11.0301C27.8727 11.1475 28.4041 11.384 28.8682 11.7238C29.3323 12.0636 29.7183 12.4987 30.0003 13Z" fill="#E8EDFC"/>
<path d="M34.0002 33.7104V36.9999C34.0067 37.2666 33.9597 37.5319 33.8621 37.7802C33.7645 38.0284 33.6182 38.2547 33.4319 38.4456C33.2456 38.6365 33.0229 38.7882 32.7771 38.8918C32.5312 38.9954 32.2672 39.0487 32.0004 39.0487C31.7336 39.0487 31.4695 38.9954 31.2237 38.8918C30.9779 38.7882 30.7552 38.6365 30.5689 38.4456C30.3825 38.2547 30.2363 38.0284 30.1387 37.7802C30.0411 37.5319 29.9941 37.2666 30.0006 36.9999V33.7104C30.6492 33.9043 31.3228 34.0018 31.9998 33.9999C32.677 34 33.3508 33.9025 34.0002 33.7104Z" fill="#FDD7AD"/>
<path d="M43.0006 43.0002V45.0006C42.9991 45.5306 42.7878 46.0383 42.413 46.413C42.0381 46.7876 41.5302 46.9986 41.0002 46.9998H23.0002C22.4704 46.9986 21.9626 46.7875 21.5879 46.4129C21.2133 46.0382 21.0022 45.5304 21.001 45.0006V43.0002C20.9765 41.4349 21.4027 39.8955 22.2288 38.5657C23.055 37.2358 24.2462 36.1717 25.6604 35.5002C27.019 34.7863 28.4826 34.2934 29.9963 34.04V37.0002C29.9899 37.2669 30.0368 37.5322 30.1344 37.7805C30.232 38.0287 30.3783 38.255 30.5646 38.4459C30.751 38.6368 30.9736 38.7885 31.2194 38.8921C31.4653 38.9956 31.7294 39.049 31.9961 39.049C32.2629 39.049 32.527 38.9956 32.7728 38.8921C33.0187 38.7885 33.2413 38.6368 33.4276 38.4459C33.614 38.255 33.7602 38.0287 33.8578 37.7805C33.9554 37.5322 34.0024 37.2669 33.9959 37.0002V34.04C35.5097 34.2931 36.9734 34.786 38.3319 35.5002C39.7477 36.1705 40.9408 37.2341 41.7687 38.5639C42.5965 39.8938 43.0242 41.4339 43.0006 43.0002Z" fill="#FB7B76"/>
<path d="M38.3398 35.5002C36.9814 34.786 35.5177 34.2931 34.0039 34.04V34.8768C34.4625 35.0575 34.9098 35.2657 35.3434 35.5002C36.7577 36.1717 37.9491 37.2357 38.7754 38.5655C39.6018 39.8953 40.0282 41.4348 40.0039 43.0002V45.0006C40.0024 45.5306 39.7911 46.0383 39.4162 46.413C39.0414 46.7876 38.5335 46.9986 38.0035 46.9998H41.0035C41.5335 46.9986 42.0414 46.7876 42.4162 46.413C42.7911 46.0383 43.0024 45.5306 43.0039 45.0006V43.0002C43.0279 41.4344 42.6009 39.8947 41.7739 38.5649C40.9469 37.235 39.7548 36.1712 38.3398 35.5002Z" fill="#FF5364"/>
<path d="M63.002 25.5003C63.0007 26.0898 62.7914 26.66 62.4108 27.1102C62.0303 27.5604 61.503 27.8618 60.9219 27.9612C60.7448 29.2508 60.2113 30.4653 59.3813 31.4679C58.5512 32.4706 57.4578 33.2216 56.224 33.6363C54.9902 34.0511 53.6651 34.1131 52.398 33.8154C51.1309 33.5178 49.972 32.8722 49.052 31.9515C47.9702 30.8772 47.2771 29.4733 47.082 27.9612C46.5009 27.8621 45.9734 27.5607 45.5928 27.1104C45.2122 26.6602 45.0029 26.0899 45.002 25.5003C45.0127 24.9213 45.2146 24.3621 45.5762 23.9098C45.9378 23.4575 46.4388 23.1375 47.0012 22.9995H61.0016C61.5656 23.1347 62.0684 23.4539 62.4307 23.9068C62.793 24.3597 62.994 24.9204 63.002 25.5003Z" fill="#FDD7AD"/>
<path d="M61.0008 22.9995H58.0008L57.9211 27.9601C57.7426 29.2911 57.183 30.5421 56.3097 31.5624C55.4364 32.5827 54.2868 33.3287 52.9992 33.7105C52.8352 33.7585 52.6652 33.7843 52.5 33.8206C53.3893 34.0223 54.3096 34.0469 55.2083 33.8929C56.1071 33.739 56.9668 33.4095 57.7382 32.9233C58.5096 32.4371 59.1777 31.8037 59.7043 31.0592C60.231 30.3148 60.6058 29.474 60.8074 28.5847C60.8543 28.3784 60.8934 28.1702 60.9246 27.9601C61.5057 27.8607 62.033 27.5593 62.4136 27.109C62.7941 26.6588 63.0035 26.0886 63.0047 25.4991C62.9962 24.919 62.7946 24.3582 62.4317 23.9055C62.0687 23.4527 61.5652 23.134 61.0008 22.9995Z" fill="#F9C795"/>
<path d="M61.9996 19V22C61.9996 22.2651 61.8943 22.5194 61.7068 22.7068C61.5194 22.8943 61.2651 22.9996 61 22.9996H46.9996C46.7345 22.9996 46.4802 22.8943 46.2928 22.7068C46.1053 22.5194 46 22.2651 46 22V19C46 17.4087 46.6321 15.8826 47.7574 14.7574C48.8826 13.6321 50.4087 13 52 13H55.9996C57.5909 13 59.117 13.6321 60.2423 14.7574C61.3675 15.8826 61.9996 17.4087 61.9996 19Z" fill="#F3D55B"/>
<path d="M56 13H53C53.7879 13 54.5682 13.1552 55.2961 13.4567C56.0241 13.7583 56.6855 14.2002 57.2426 14.7574C57.7998 15.3145 58.2418 15.9759 58.5433 16.7039C58.8448 17.4319 59 18.2121 59 19V22C59 22.2651 58.8947 22.5194 58.7072 22.7068C58.5198 22.8943 58.2655 22.9996 58.0004 22.9996H61.0004C61.2655 22.9996 61.5198 22.8943 61.7072 22.7068C61.8947 22.5194 62 22.2651 62 22V19C62 17.4087 61.3679 15.8826 60.2426 14.7574C59.1174 13.6321 57.5913 13 56 13Z" fill="#E4C05C"/>
<path d="M65.0012 42.0005V45.0005C64.9999 45.5303 64.7889 46.0381 64.4142 46.4128C64.0396 46.7874 63.5318 46.9985 63.002 46.9997H60.002V42.0005H65.0012Z" fill="#FDD7AD"/>
<path d="M48.0004 42.0005V46.9997H45.0004C44.4704 46.9985 43.9625 46.7875 43.5877 46.4129C43.2128 46.0382 43.0015 45.5304 43 45.0005V42.0005H48.0004Z" fill="#FDD7AD"/>
<path d="M56.0002 33.7104V36.9999C56.0067 37.2666 55.9597 37.5319 55.8621 37.7802C55.7645 38.0284 55.6182 38.2547 55.4319 38.4456C55.2456 38.6365 55.0229 38.7882 54.7771 38.8918C54.5312 38.9954 54.2672 39.0487 54.0004 39.0487C53.7336 39.0487 53.4695 38.9954 53.2237 38.8918C52.9779 38.7882 52.7552 38.6365 52.5689 38.4456C52.3826 38.2547 52.2363 38.0284 52.1387 37.7802C52.0411 37.5319 51.9941 37.2666 52.0006 36.9999V33.7104C52.6496 33.9043 53.3236 34.0018 54.001 33.9999C54.6778 34 55.3512 33.9025 56.0002 33.7104Z" fill="#FDD7AD"/>
<path d="M64.9996 42.0006H60.0004V46.9998H48.0004V42.0006H43C43 34.0002 51.2899 34.1607 52 34.04V37.0002C51.9936 37.2669 52.0405 37.5322 52.1381 37.7805C52.2357 38.0287 52.382 38.255 52.5683 38.4459C52.7546 38.6368 52.9773 38.7885 53.2231 38.8921C53.469 38.9956 53.733 39.049 53.9998 39.049C54.2666 39.049 54.5307 38.9956 54.7765 38.8921C55.0223 38.7885 55.245 38.6368 55.4313 38.4459C55.6177 38.255 55.7639 38.0287 55.8615 37.7805C55.9591 37.5322 56.0061 37.2669 55.9996 37.0002V34.04C56.7098 34.1607 64.9996 34.0002 64.9996 42.0006Z" fill="#76DBFB"/>
<path d="M56 34.04V34.4654C58.6285 35.1182 62 36.8947 62 42.0006H65C65 34.0002 56.7102 34.1607 56 34.04Z" fill="#44C3EB"/>
<path d="M12.0008 67.9996H15.0008C14.8694 67.9998 14.7393 67.974 14.6179 67.9239C14.4965 67.8737 14.3861 67.8001 14.2932 67.7073C14.2002 67.6144 14.1265 67.5042 14.0762 67.3828C14.0259 67.2615 14 67.1314 14 67V55.9996C14 55.8682 14.0259 55.7382 14.0762 55.6168C14.1265 55.4955 14.2002 55.3852 14.2932 55.2924C14.3861 55.1995 14.4965 55.1259 14.6179 55.0758C14.7393 55.0256 14.8694 54.9998 15.0008 55H12.0008C11.8694 54.9998 11.7393 55.0256 11.6179 55.0758C11.4965 55.1259 11.3861 55.1995 11.2932 55.2924C11.2002 55.3852 11.1265 55.4955 11.0762 55.6168C11.0259 55.7382 11 55.8682 11 55.9996V67C11 67.1314 11.0259 67.2615 11.0762 67.3828C11.1265 67.5042 11.2002 67.6144 11.2932 67.7073C11.3861 67.8001 11.4965 67.8737 11.6179 67.9239C11.7393 67.974 11.8694 67.9998 12.0008 67.9996Z" fill="white"/>
<path d="M19.97 31.9164C19.9527 32.0414 19.9602 32.1686 19.992 32.2907C20.0239 32.4128 20.0795 32.5274 20.1557 32.6279C20.2319 32.7285 20.3271 32.8131 20.4361 32.8768C20.545 32.9405 20.6654 32.9821 20.7904 32.9993L20.8712 33.0075C21.747 33.0763 22.6278 33.0405 23.4951 32.9008C23.3139 32.8144 23.1652 32.6722 23.0709 32.495C22.9766 32.3178 22.9417 32.115 22.9712 31.9164C23.2224 30.9251 23.6753 29.9961 24.3016 29.1876C24.9278 28.3791 25.714 27.7083 26.6111 27.2172C26.1647 26.7195 25.9341 26.0649 25.9702 25.3973C26.0062 24.7298 26.3059 24.1038 26.8033 23.6571C26.8548 23.6114 26.9064 23.568 26.9615 23.527C26.9615 20.7051 26.6954 18.0344 28.9607 15.6168V12.1668C28.9606 12.0784 28.9712 11.9902 28.9923 11.9043C28.4879 11.5028 27.8995 11.22 27.2708 11.077C27.1105 11.0441 26.9448 11.0476 26.7861 11.0875C26.6274 11.1273 26.4796 11.2023 26.3538 11.3069C26.228 11.4116 26.1273 11.5432 26.0592 11.6921C25.9912 11.8409 25.9575 12.0032 25.9607 12.1668V15.6168C23.6943 18.0344 23.9603 20.711 23.9603 23.5235C23.4282 23.9284 23.0786 24.528 22.9885 25.1906C22.8984 25.8531 23.0751 26.5244 23.4798 27.0567C23.5208 27.1106 23.5642 27.1633 23.6099 27.2137C22.7125 27.7052 21.9261 28.3765 21.2998 29.1857C20.6735 29.9948 20.2208 30.9244 19.97 31.9164Z" fill="white"/>
<path d="M33.002 34V34.0398C28.0918 34.8695 24.002 37.8203 24.002 43V45.0004C24.0032 45.5302 24.2142 46.038 24.5889 46.4127C24.9635 46.7874 25.4713 46.9984 26.0012 46.9996H23.0012C22.4713 46.9984 21.9635 46.7874 21.5889 46.4127C21.2142 46.038 21.0032 45.5302 21.002 45.0004V43C21.002 37.8203 25.0918 34.8695 30.002 34.0398V34H33.002Z" fill="#FDD7AD"/>
<path d="M66.3444 49.0163C65.8194 48.9687 65.2903 49.0257 64.7874 49.1838C64.2846 49.3418 63.818 49.598 63.4147 49.9373L55.2784 56.7459C54.8833 56.2038 54.3654 55.763 53.7672 55.4595C53.169 55.156 52.5074 54.9985 51.8366 54.9999H41.6471C41.4406 55.0067 41.2379 54.9426 41.0729 54.8182C39.644 53.6427 37.8513 52.9998 36.001 52.9995C32.8064 52.9226 29.6497 53.7045 26.8604 55.2635C26.7128 54.8908 26.4565 54.571 26.1249 54.3457C25.7932 54.1204 25.4015 54.0001 25.0006 54.0002H12.001C11.7383 54.0001 11.4782 54.0517 11.2356 54.1521C10.9929 54.2525 10.7723 54.3997 10.5866 54.5854C10.4008 54.771 10.2534 54.9915 10.1529 55.2341C10.0523 55.4768 10.0006 55.7368 10.0006 55.9995C9.99599 56.1337 10.0185 56.2675 10.0667 56.3928C10.1149 56.5182 10.1878 56.6326 10.2811 56.7292C10.3744 56.8257 10.4863 56.9025 10.6099 56.955C10.7335 57.0075 10.8665 57.0345 11.0008 57.0345C11.1351 57.0345 11.268 57.0075 11.3917 56.955C11.5153 56.9025 11.6271 56.8257 11.7204 56.7292C11.8138 56.6326 11.8867 56.5182 11.9349 56.3928C11.9831 56.2675 12.0056 56.1337 12.001 55.9995H25.0006V66.9999H12.001V63.9999C11.9921 63.7405 11.8828 63.4948 11.6962 63.3144C11.5096 63.1341 11.2603 63.0333 11.0008 63.0333C10.7413 63.0333 10.4919 63.1341 10.3053 63.3144C10.1187 63.4948 10.0095 63.7405 10.0006 63.9999V66.9999C10.0006 67.5304 10.2113 68.0392 10.5865 68.4144C10.9616 68.7895 11.4704 69.0003 12.001 69.0003H25.0006C25.4656 68.9997 25.9158 68.8372 26.2739 68.5405C26.6319 68.2438 26.8754 67.8316 26.9623 67.3749L33.7498 69.6366C34.4701 69.8781 35.2249 70.0008 35.9846 69.9999H53.0307C54.2919 69.9643 55.4903 69.4413 56.3741 68.5409L68.8545 55.8413C69.387 55.2977 69.7542 54.6143 69.9137 53.8704C70.0732 53.1264 70.0183 52.3525 69.7554 51.6385C69.4926 50.9245 69.0325 50.2998 68.4287 49.8368C67.8249 49.3739 67.1021 49.0918 66.3444 49.0233V49.0163ZM67.4284 54.4338L54.9491 67.1335C54.4351 67.6621 53.7371 67.9723 53.0002 67.9995H35.9846C35.4408 68.0006 34.9004 67.9127 34.385 67.7393L27.0022 65.2784V57.537C29.6706 55.7885 32.8122 54.9028 36.001 54.9999C37.3878 54.9925 38.7329 55.4738 39.8002 56.3592C40.3237 56.7799 40.9768 57.006 41.6483 56.9991H51.8366C52.3027 56.994 52.7583 57.1386 53.1362 57.4115C53.5142 57.6844 53.7947 58.0714 53.9366 58.5155C53.94 58.5303 53.9447 58.5448 53.9506 58.5588V58.5729C53.9779 58.6812 53.9948 58.7919 54.001 58.9034C54.0141 59.1658 53.9754 59.4282 53.8871 59.6756C53.7988 59.923 53.6626 60.1506 53.4863 60.3454C53.31 60.5402 53.0971 60.6984 52.8596 60.8109C52.6222 60.9233 52.365 60.988 52.1026 61.001H52.0006H41.0002C40.7409 61.0099 40.4951 61.1192 40.3148 61.3058C40.1345 61.4924 40.0337 61.7417 40.0337 62.0012C40.0337 62.2607 40.1345 62.5101 40.3148 62.6967C40.4951 62.8833 40.7409 62.9925 41.0002 63.0014H52.0006C53.0615 63.0027 54.0794 62.5825 54.8306 61.8333C55.5817 61.0842 56.0045 60.0674 56.0061 59.0065C56.0061 58.9374 56.0061 58.8694 56.0002 58.8014C56.0002 58.7874 56.0002 58.7745 56.0002 58.7616L64.7002 51.4772C65.1104 51.1347 65.6398 50.9688 66.1721 51.016C66.7044 51.0633 67.1962 51.3197 67.5397 51.7291C67.855 52.1157 68.0177 52.6043 67.9972 53.1026C67.9767 53.601 67.7743 54.0745 67.4284 54.4338Z" fill="#21293E"/>
<path d="M25.1887 34.6188C23.6121 35.3723 22.2851 36.5627 21.3654 38.0484C20.4458 39.5342 19.9721 41.2529 20.0008 43V45.0004C20.0008 45.3944 20.0784 45.7845 20.2292 46.1485C20.38 46.5124 20.6009 46.8432 20.8795 47.1217C21.1581 47.4003 21.4888 47.6213 21.8528 47.7721C22.2168 47.9228 22.6069 48.0004 23.0008 48.0004H41.0009C41.7414 47.9973 42.4543 47.7192 43.0013 47.2199C43.5482 47.7192 44.2611 47.9973 45.0016 48.0004H63.0017C63.7973 48.0004 64.5604 47.6843 65.123 47.1217C65.6856 46.5591 66.0017 45.7961 66.0017 45.0004V42.0004C66.0017 39.2395 64.9833 34.7418 58.7688 33.4106C60.307 32.2726 61.3827 30.6177 61.7981 28.75C62.4483 28.492 63.0058 28.0443 63.3981 27.4652C63.7904 26.886 63.9993 26.2022 63.9978 25.5027C63.9929 25.0013 63.8837 24.5063 63.6771 24.0493C63.4705 23.5923 63.171 23.1834 62.7978 22.8484C62.9264 22.5847 62.9948 22.2957 62.9981 22.0023V19C62.9957 17.1441 62.2572 15.365 60.9449 14.0529C59.6325 12.7407 57.8532 12.0026 55.9974 12.0004H52.0013C50.1455 12.0026 48.3664 12.7407 47.0542 14.0529C45.742 15.3651 45.0038 17.1443 45.0016 19V22C45.0027 22.2969 45.0708 22.5897 45.2009 22.8566C44.8303 23.1915 44.5326 23.599 44.3261 24.0538C44.1197 24.5086 44.009 25.001 44.0009 25.5004C43.9989 26.2004 44.2078 26.8848 44.6003 27.4644C44.9929 28.0441 45.5509 28.492 46.2016 28.75C46.5221 30.2334 47.2663 31.5919 48.3438 32.6606C48.6195 32.9335 48.9152 33.1854 49.2286 33.4141C45.4657 34.2227 43.6036 36.1832 42.7282 38.227C41.7755 36.6922 40.4212 35.4473 38.8118 34.627C38.062 34.2259 37.2776 33.8933 36.468 33.6332C36.8428 33.3805 37.1956 33.0967 37.5227 32.7848C38.9216 33.6347 40.538 34.0582 42.1739 34.0035C42.5384 34.0035 42.877 33.986 43.1653 33.9649C43.442 33.9451 43.7116 33.868 43.9569 33.7385C44.2022 33.609 44.4179 33.4299 44.5903 33.2125C44.7575 33.0012 44.8783 32.7571 44.9452 32.4961C45.012 32.2351 45.0232 31.9629 44.9782 31.6973C44.5372 29.7402 43.3705 28.0232 41.7134 26.8926C41.9044 26.4561 42.0037 25.985 42.0052 25.5086C41.9955 24.5949 41.6376 23.7193 41.0044 23.0606V21.0004C41.0533 18.8917 40.3439 16.8354 39.0052 15.2055V12.1223C39.0067 11.799 38.9345 11.4797 38.7942 11.1886C38.6539 10.8974 38.4491 10.642 38.1954 10.4418C37.955 10.2496 37.6739 10.115 37.3735 10.0481C37.0731 9.98132 36.7614 9.98409 36.4622 10.0562C35.5707 10.2611 34.749 10.6972 34.0798 11.3207C33.7587 11.1123 33.3844 11.0008 33.0016 10.9996H31.0012C30.6185 11.0008 30.2442 11.1123 29.9231 11.3207C29.2538 10.6973 28.4321 10.2612 27.5407 10.0562C27.2418 9.985 26.9307 9.98268 26.6308 10.0495C26.3309 10.1163 26.0502 10.2504 25.8098 10.4418C25.5563 10.6421 25.3516 10.8975 25.2115 11.1887C25.0714 11.4799 24.9995 11.7991 25.0012 12.1223V15.2055C23.6621 16.8353 22.9523 18.8915 23.0008 21.0004V23.0688C22.3736 23.7247 22.0167 24.593 22.0012 25.5004C22.0039 25.9736 22.1028 26.4412 22.2919 26.875C20.63 28.0129 19.4622 29.7395 19.0247 31.7055C18.9821 31.9685 18.9948 32.2376 19.0619 32.4954C19.1291 32.7533 19.2493 32.9943 19.4149 33.2031C19.5864 33.4203 19.8013 33.5994 20.0458 33.7289C20.2904 33.8584 20.5592 33.9356 20.8352 33.9555C21.127 33.9777 21.4645 33.9942 21.8348 33.9942C23.4687 34.0492 25.083 33.6251 26.479 32.7742C26.8062 33.0882 27.1589 33.3743 27.5337 33.6297C26.7233 33.8868 25.9384 34.2179 25.1887 34.6188ZM25.2485 26.9734C24.8997 26.9156 24.5829 26.7358 24.3545 26.4659C24.1261 26.1961 24.001 25.8539 24.0016 25.5004C24.0119 25.1658 24.1247 24.8424 24.3249 24.5741C24.5251 24.3058 24.8029 24.1055 25.1208 24.0004C26.1473 23.9898 31.0821 23.8258 33.7739 21.6871C34.4189 22.4071 35.2069 22.9847 36.0877 23.383C36.9684 23.7813 37.9225 23.9916 38.8891 24.0004C39.205 24.1077 39.4807 24.3087 39.6794 24.5767C39.8781 24.8447 39.9904 25.167 40.0012 25.5004C40.0018 25.8539 39.8768 26.1961 39.6484 26.4659C39.42 26.7358 39.1031 26.9156 38.7544 26.9734C38.5443 27.0101 38.3515 27.1128 38.204 27.2667C38.0564 27.4206 37.9618 27.6175 37.9341 27.8289C37.7817 28.9337 37.324 29.9739 36.6124 30.8326C35.9008 31.6913 34.9636 32.3342 33.9063 32.689C32.8491 33.0438 31.7138 33.0964 30.6283 32.8409C29.5427 32.5853 28.5501 32.0318 27.7622 31.2426C26.8354 30.326 26.2421 29.1254 26.077 27.8324C26.0499 27.6204 25.9557 27.4227 25.8081 27.2681C25.6605 27.1135 25.4672 27.0103 25.2567 26.9734H25.2485ZM31.0012 34.9305C31.6647 35.0242 32.3381 35.0242 33.0016 34.9305V37C32.9928 37.2594 32.8835 37.5051 32.6969 37.6854C32.5103 37.8658 32.2609 37.9666 32.0014 37.9666C31.7419 37.9666 31.4926 37.8658 31.306 37.6854C31.1194 37.5051 31.0101 37.2594 31.0012 37V34.9305ZM44.0009 45.0004V43H47.0009V46H45.0016C44.8703 46.0002 44.7402 45.9744 44.6187 45.9243C44.4973 45.8741 44.387 45.8005 44.2941 45.7077C44.2011 45.6148 44.1274 45.5046 44.0771 45.3832C44.0268 45.2619 44.0009 45.1318 44.0009 45.0004ZM63.0017 46H61.0013V43H64.0013V45.0004C64.0013 45.2655 63.896 45.5198 63.7085 45.7072C63.521 45.8947 63.2668 46 63.0017 46ZM53.0009 34.9305C53.6644 35.0242 54.3378 35.0242 55.0013 34.9305V37C54.9924 37.2594 54.8831 37.5051 54.6965 37.6854C54.5099 37.8658 54.2606 37.9666 54.0011 37.9666C53.7416 37.9666 53.4922 37.8658 53.3056 37.6854C53.119 37.5051 53.0097 37.2594 53.0009 37V34.9305ZM47.0009 19C47.0027 17.6744 47.5301 16.4036 48.4675 15.4662C49.4049 14.5289 50.6756 14.0015 52.0013 13.9996H56.0009C57.3266 14.0012 58.5976 14.5285 59.535 15.4659C60.4724 16.4033 60.9997 17.6743 61.0013 19V22H52.0013C51.7419 21.9911 51.4962 21.8819 51.3158 21.6953C51.1355 21.5087 51.0347 21.2593 51.0347 20.9998C51.0347 20.7403 51.1355 20.491 51.3158 20.3044C51.4962 20.1178 51.7419 20.0085 52.0013 19.9996H57.0017C57.2668 19.9996 57.521 19.8943 57.7085 19.7068C57.896 19.5194 58.0013 19.2651 58.0013 19C58.0013 18.7349 57.896 18.4806 57.7085 18.2932C57.521 18.1057 57.2668 18.0004 57.0017 18.0004H52.0013C51.5204 17.9962 51.0456 18.1089 50.6179 18.3287C50.1901 18.5485 49.8221 18.8688 49.5455 19.2622C49.2689 19.6556 49.0919 20.1103 49.0297 20.5871C48.9676 21.064 49.0222 21.5489 49.1888 22H47.0009V19ZM48.0731 27.8324C48.046 27.6204 47.9518 27.4227 47.8042 27.2681C47.6566 27.1135 47.4634 27.0103 47.2528 26.9734C46.9041 26.9156 46.5872 26.7358 46.3588 26.4659C46.1304 26.1961 46.0054 25.8539 46.0059 25.5004C46.0162 25.1661 46.1287 24.843 46.3285 24.5748C46.5282 24.3065 46.8054 24.106 47.1227 24.0004H60.8841C61.2016 24.1057 61.479 24.3062 61.6788 24.5745C61.8785 24.8428 61.991 25.166 62.0009 25.5004C62.0015 25.8539 61.8764 26.1961 61.648 26.4659C61.4196 26.7358 61.1028 26.9156 60.754 26.9734C60.544 27.0101 60.3511 27.1128 60.2036 27.2667C60.056 27.4206 59.9615 27.6175 59.9337 27.8289C59.7814 28.9337 59.3236 29.9739 58.612 30.8326C57.9004 31.6913 56.9632 32.3342 55.906 32.689C54.8487 33.0438 53.7134 33.0964 52.6279 32.8409C51.5424 32.5853 50.5497 32.0318 49.7618 31.2426C48.8342 30.3261 48.2397 29.1257 48.0731 27.8324ZM51.0028 35.1391V37C51.0028 37.394 51.0804 37.7841 51.2312 38.1481C51.3819 38.512 51.6029 38.8428 51.8815 39.1213C52.1601 39.3999 52.4908 39.6209 52.8548 39.7717C53.2188 39.9224 53.6089 40 54.0028 40C54.3968 40 54.7869 39.9224 55.1509 39.7717C55.5149 39.6209 55.8456 39.3999 56.1241 39.1213C56.4027 38.8428 56.6237 38.512 56.7745 38.1481C56.9252 37.7841 57.0028 37.394 57.0028 37V35.1391C61.245 35.6231 63.5724 37.5906 63.9438 40.9985H61.0013V40C60.9924 39.7407 60.8831 39.4949 60.6965 39.3146C60.5099 39.1343 60.2606 39.0335 60.0011 39.0335C59.7416 39.0335 59.4922 39.1343 59.3056 39.3146C59.119 39.4949 59.0098 39.7407 59.0009 40V46H49.0013V40C48.9924 39.7407 48.8831 39.4949 48.6965 39.3146C48.5099 39.1343 48.2606 39.0335 48.0011 39.0335C47.7416 39.0335 47.4922 39.1343 47.3056 39.3146C47.119 39.4949 47.0097 39.7407 47.0009 40V40.9996H44.0606C44.4309 37.5906 46.7595 35.6231 51.0016 35.1391H51.0028ZM42.0028 43V45.0004C42.0028 45.1318 41.9769 45.2619 41.9266 45.3832C41.8763 45.5046 41.8026 45.6148 41.7096 45.7077C41.6167 45.8005 41.5063 45.8741 41.3849 45.9243C41.2635 45.9744 41.1334 46.0002 41.002 46H39.0016V40C38.9928 39.7407 38.8835 39.4949 38.6969 39.3146C38.5103 39.1343 38.2609 39.0335 38.0014 39.0335C37.7419 39.0335 37.4926 39.1343 37.306 39.3146C37.1194 39.4949 37.0101 39.7407 37.0012 40V46H27.0016V40C26.9927 39.7407 26.8835 39.4949 26.6969 39.3146C26.5103 39.1343 26.2609 39.0335 26.0014 39.0335C25.7419 39.0335 25.4926 39.1343 25.306 39.3146C25.1194 39.4949 25.0101 39.7407 25.0012 40V46H23.0008C22.7357 46 22.4815 45.8947 22.294 45.7072C22.1065 45.5198 22.0012 45.2655 22.0012 45.0004V43C21.9735 41.6139 22.35 40.2498 23.0845 39.074C23.8191 37.8983 24.8801 36.9618 26.138 36.3789C27.0446 35.8983 28.0058 35.5285 29.0008 35.2774V37C29.0008 37.7957 29.3169 38.5587 29.8795 39.1213C30.4421 39.6839 31.2052 40 32.0009 40C32.7965 40 33.5596 39.6839 34.1222 39.1213C34.6848 38.5587 35.0009 37.7957 35.0009 37V35.2774C35.9971 35.5282 36.9598 35.8972 37.8684 36.3766C39.1259 36.9603 40.1863 37.8974 40.9203 39.0735C41.6542 40.2496 42.03 41.614 42.0016 43H42.0028ZM38.7919 31.2192C39.2666 30.4597 39.6078 29.6246 39.8009 28.75C40.0211 28.6608 40.2313 28.5484 40.4278 28.4149C41.706 29.2319 42.6307 30.4991 43.0188 31.9656C41.5671 32.1244 40.1003 31.8654 38.7907 31.2192H38.7919ZM36.9544 12.0133C36.9707 12.0262 36.9837 12.0428 36.9922 12.0618C37.0008 12.0807 37.0047 12.1015 37.0036 12.1223V15.8781C37.0038 15.903 36.9967 15.9273 36.9831 15.9482C36.9696 15.969 36.9502 15.9854 36.9274 15.9953C36.1494 15.8275 35.4627 15.3737 35.0032 14.7238V13.2695C35.4704 12.6182 36.168 12.169 36.9544 12.0133ZM33.0016 13V15.0004H31.0012V13H33.0016ZM27.0016 12.1223C27.0014 12.0974 27.0085 12.073 27.0221 12.0522C27.0356 12.0314 27.055 12.015 27.0778 12.0051C27.8544 12.1713 28.5405 12.6224 29.0008 13.2695V14.7297C28.5339 15.3816 27.8362 15.8312 27.0497 15.9871C27.0336 15.9741 27.0208 15.9574 27.0124 15.9384C27.0041 15.9195 27.0004 15.8988 27.0016 15.8781V12.1223ZM25.8215 17.5645C26.0606 17.7543 26.3398 17.8872 26.6379 17.953C26.9359 18.0188 27.2451 18.0157 27.5419 17.9441C28.433 17.7394 29.2544 17.3033 29.9231 16.6797C30.2441 16.8893 30.6191 17.0008 31.0024 17.0008H33.0028C33.3858 17.0009 33.7604 16.8893 34.0809 16.6797C34.7498 17.3039 35.5717 17.7405 36.4634 17.9453C36.7601 18.0168 37.0693 18.0198 37.3673 17.954C37.6654 17.8882 37.9446 17.7554 38.1837 17.5656C38.7393 18.6246 39.0213 19.8058 39.004 21.0016V22.0012C38.9032 22.0012 35.704 21.9379 34.9563 19.6855C34.8967 19.5083 34.7885 19.3513 34.6441 19.2324C34.4997 19.1136 34.3248 19.0376 34.1394 19.0132C33.9539 18.9888 33.7654 19.0169 33.5951 19.0943C33.4249 19.1717 33.2797 19.2954 33.1762 19.4512C31.7782 21.5406 26.8036 22.0059 25.0036 22.0059V21.0004C24.9855 19.8048 25.2667 18.6237 25.8215 17.5645ZM20.9946 32.05C21.3603 30.5532 22.2854 29.2532 23.5797 28.4172C23.7751 28.5493 23.9837 28.6609 24.202 28.75C24.3972 29.6225 24.7409 30.4549 25.218 31.2109C23.9055 31.8482 22.4511 32.1371 20.9946 32.05Z" fill="#21293E"/>
<path d="M10.9996 60.9987C11.5517 60.9987 11.9992 60.5512 11.9992 59.9991C11.9992 59.4471 11.5517 58.9995 10.9996 58.9995C10.4475 58.9995 10 59.4471 10 59.9991C10 60.5512 10.4475 60.9987 10.9996 60.9987Z" fill="#21293E"/>
</svg>
