<svg width="80" height="80" viewBox="0 0 80 80" fill="none" xmlns="http://www.w3.org/2000/svg">
<rect width="80" height="80" fill="white"/>
<path d="M40.0355 15.1712V62.7582C40.0355 61.6608 39.5996 60.6082 38.8237 59.8321C38.0478 59.056 36.9954 58.6198 35.898 58.6195H16.242C15.6939 58.6182 15.1686 58.3999 14.781 58.0123C14.3934 57.6247 14.1751 57.0994 14.1738 56.5513V13.1031C14.1751 12.5548 14.3934 12.0294 14.7809 11.6416C15.1685 11.2539 15.6938 11.0353 16.242 11.0337H35.898C36.9953 11.0337 38.0477 11.4696 38.8236 12.2455C39.5996 13.0215 40.0355 14.0739 40.0355 15.1712Z" fill="#F4EECE"/>
<path d="M35.8984 11.0337H32.7949C33.8923 11.0337 34.9447 11.4696 35.7206 12.2455C36.4965 13.0215 36.9324 14.0739 36.9324 15.1712V58.7565C37.8205 58.984 38.6076 59.5007 39.1696 60.225C39.7315 60.9494 40.0363 61.8402 40.0359 62.757V15.1712C40.0359 14.0739 39.6 13.0215 38.824 12.2455C38.0481 11.4696 36.9957 11.0337 35.8984 11.0337Z" fill="#F6E9B7"/>
<path d="M65.8968 13.1031V56.5513C65.8955 57.0994 65.6772 57.6247 65.2896 58.0123C64.9021 58.3999 64.3768 58.6182 63.8287 58.6195H58.0764L54.2492 50.4681C54.0914 50.1232 53.8379 49.8308 53.5187 49.6259C53.1996 49.4209 52.8282 49.3119 52.4489 49.3119C52.0696 49.3119 51.6983 49.4209 51.3792 49.6259C51.06 49.8308 50.8065 50.1232 50.6487 50.4681L46.8239 58.6195H44.1727C43.0752 58.6198 42.0228 59.056 41.2469 59.8321C40.471 60.6082 40.0352 61.6608 40.0352 62.7582V15.1712C40.0352 14.0739 40.4711 13.0215 41.247 12.2455C42.0229 11.4696 43.0753 11.0337 44.1727 11.0337H63.8287C64.3769 11.0353 64.9022 11.2539 65.2897 11.6416C65.6773 12.0294 65.8955 12.5548 65.8968 13.1031Z" fill="#F4EECE"/>
<path d="M63.83 11.0337H60.7266C61.2748 11.0353 61.8001 11.2539 62.1876 11.6416C62.5752 12.0294 62.7934 12.5548 62.7947 13.1031V56.5513C62.7934 57.0994 62.5751 57.6247 62.1876 58.0123C61.8 58.3999 61.2747 58.6182 60.7266 58.6195H63.83C64.3781 58.6182 64.9034 58.3999 65.291 58.0123C65.6786 57.6247 65.8969 57.0994 65.8982 56.5513V13.1031C65.8969 12.5548 65.6786 12.0294 65.2911 11.6416C64.9035 11.2539 64.3782 11.0353 63.83 11.0337Z" fill="#F6E9B7"/>
<path d="M46.8243 58.6201L43.3354 66.0478C43.2071 66.3124 43.14 66.6024 43.139 66.8964H36.9321C35.8348 66.8964 34.7824 66.4605 34.0064 65.6845C33.2305 64.9086 32.7946 63.8562 32.7946 62.7589H13.1386C12.3164 62.756 11.5287 62.4281 10.9473 61.8467C10.3659 61.2653 10.038 60.4776 10.0352 59.6554V18.2753C10.038 17.4531 10.3659 16.6654 10.9473 16.084C11.5287 15.5026 12.3164 15.1748 13.1386 15.1719H14.1739V56.552C14.1752 57.1001 14.3935 57.6254 14.7811 58.013C15.1686 58.4005 15.6939 58.6189 16.2421 58.6201H35.898C36.9955 58.6205 38.0479 59.0566 38.8238 59.8328C39.5997 60.6089 40.0355 61.6614 40.0355 62.7589C40.0355 61.6614 40.4714 60.6089 41.2473 59.8328C42.0232 59.0566 43.0756 58.6205 44.1731 58.6201H46.8243Z" fill="#F4EECE"/>
<path d="M70.0352 18.2753V59.6554C70.0323 60.4776 69.7044 61.2653 69.123 61.8467C68.5416 62.4281 67.7539 62.756 66.9317 62.7589H60.0217L58.082 58.6201H63.8343C64.3824 58.6188 64.9077 58.4005 65.2953 58.013C65.6829 57.6254 65.9012 57.1001 65.9025 56.552V15.1719H66.9378C67.7589 15.1763 68.5451 15.5049 69.1251 16.0862C69.7052 16.6674 70.0323 17.4542 70.0352 18.2753Z" fill="#F4EECE"/>
<path d="M66.9316 15.1719H65.8963V15.9817C66.2203 16.2698 66.48 16.6229 66.6584 17.0182C66.8368 17.4134 66.9299 17.8417 66.9316 18.2753V59.6554C66.9287 60.4776 66.6008 61.2653 66.0194 61.8467C65.438 62.4281 64.6503 62.756 63.8281 62.7589H66.9316C67.7538 62.756 68.5415 62.4281 69.1229 61.8467C69.7043 61.2653 70.0321 60.4776 70.035 59.6554V18.2753C70.0321 17.4531 69.7043 16.6654 69.1229 16.084C68.5415 15.5026 67.7538 15.1748 66.9316 15.1719Z" fill="#F6E9B7"/>
<path d="M59.2249 68.8905L52.9768 67.1521C52.6328 67.049 52.2661 67.049 51.9221 67.1521L45.674 68.8905C45.3715 68.9699 45.0547 68.978 44.7486 68.9142C44.4424 68.8505 44.1552 68.7166 43.9096 68.5231C43.6639 68.3296 43.4665 68.0818 43.3328 67.7991C43.1991 67.5164 43.1328 67.2065 43.1391 66.8939C43.1401 66.5998 43.2072 66.3098 43.3355 66.0453L46.8244 58.6176L50.6516 50.4662C50.8094 50.1213 51.0629 49.8289 51.3821 49.624C51.7012 49.419 52.0726 49.3101 52.4518 49.3101C52.8311 49.3101 53.2025 49.419 53.5216 49.624C53.8408 49.8289 54.0943 50.1213 54.2521 50.4662L58.0793 58.6176L60.0189 62.7563L61.5609 66.0453C61.7285 66.3941 61.7929 66.7835 61.7466 67.1677C61.7002 67.5519 61.5451 67.9149 61.2993 68.2139C61.0536 68.5128 60.7276 68.7353 60.3596 68.8552C59.9917 68.9751 59.5971 68.9873 59.2225 68.8905H59.2249Z" fill="#F3D55B"/>
<path d="M61.5632 66.0444L60.0211 62.7555L58.0815 58.6167L54.2543 50.4653C54.1136 50.156 53.895 49.8885 53.62 49.6888C53.345 49.4892 53.0229 49.3643 52.6852 49.3263C52.3475 49.2883 52.0057 49.3385 51.6933 49.4721C51.3808 49.6057 51.1083 49.818 50.9023 50.0883C50.997 50.2045 51.0783 50.331 51.1448 50.4653L54.972 58.6167L56.9116 62.7555L58.4621 66.0444C58.6585 66.4614 58.7078 66.9326 58.6022 67.3812C58.4965 67.8298 58.242 68.2295 57.8802 68.515L59.2259 68.8896C59.6007 68.9873 59.9957 68.9757 60.3641 68.8561C60.7326 68.7365 61.0591 68.514 61.3051 68.2148C61.5511 67.9156 61.7064 67.5523 61.7526 67.1677C61.7987 66.7831 61.7338 66.3933 61.5656 66.0444H61.5632Z" fill="#E4C05C"/>
<path d="M16.242 62.7598H13.1386C12.3164 62.757 11.5287 62.4291 10.9473 61.8477C10.3659 61.2663 10.038 60.4786 10.0352 59.6564V18.2763C10.038 17.4541 10.3659 16.6664 10.9473 16.085C11.5287 15.5036 12.3164 15.1757 13.1386 15.1729H14.1739V15.9693C13.8502 16.2598 13.5908 16.6148 13.4125 17.0114C13.2342 17.4081 13.1409 17.8377 13.1386 18.2727V59.6564C13.1415 60.4786 13.4694 61.2663 14.0508 61.8477C14.6321 62.4291 15.4198 62.757 16.242 62.7598Z" fill="white"/>
<path d="M9 18.272H11.0694V26.5482H9V18.272Z" fill="white"/>
<path d="M34.8628 21.38H19.3456C19.0773 21.3892 18.8231 21.5022 18.6365 21.6953C18.45 21.8883 18.3457 22.1462 18.3457 22.4147C18.3457 22.6831 18.45 22.9411 18.6365 23.1341C18.8231 23.3272 19.0773 23.4402 19.3456 23.4494H34.8628C35.0017 23.4541 35.1401 23.4309 35.2697 23.381C35.3994 23.3312 35.5177 23.2557 35.6177 23.1592C35.7176 23.0626 35.797 22.9469 35.8513 22.819C35.9056 22.6911 35.9335 22.5536 35.9335 22.4147C35.9335 22.2757 35.9056 22.1382 35.8513 22.0103C35.797 21.8824 35.7176 21.7668 35.6177 21.6702C35.5177 21.5737 35.3994 21.4982 35.2697 21.4483C35.1401 21.3985 35.0017 21.3752 34.8628 21.38Z" fill="#21293E"/>
<path d="M19.3456 31.7246H23.4843C23.7526 31.7155 24.0068 31.6024 24.1934 31.4094C24.3799 31.2163 24.4842 30.9584 24.4842 30.69C24.4842 30.4215 24.3799 30.1636 24.1934 29.9705C24.0068 29.7775 23.7526 29.6645 23.4843 29.6553H19.3456C19.0773 29.6645 18.8231 29.7775 18.6365 29.9705C18.45 30.1636 18.3457 30.4215 18.3457 30.69C18.3457 30.9584 18.45 31.2163 18.6365 31.4094C18.8231 31.6024 19.0773 31.7155 19.3456 31.7246Z" fill="#21293E"/>
<path d="M34.8619 29.652H27.621C27.3527 29.6612 27.0984 29.7742 26.9119 29.9672C26.7254 30.1603 26.6211 30.4182 26.6211 30.6867C26.6211 30.9551 26.7254 31.213 26.9119 31.4061C27.0984 31.5991 27.3527 31.7122 27.621 31.7213H34.8619C35.0008 31.7261 35.1392 31.7029 35.2689 31.653C35.3986 31.6031 35.5169 31.5277 35.6168 31.4311C35.7167 31.3346 35.7961 31.2189 35.8504 31.091C35.9047 30.9631 35.9326 30.8256 35.9326 30.6867C35.9326 30.5477 35.9047 30.4102 35.8504 30.2823C35.7961 30.1544 35.7167 30.0387 35.6168 29.9422C35.5169 29.8456 35.3986 29.7702 35.2689 29.7203C35.1392 29.6705 35.0008 29.6472 34.8619 29.652Z" fill="#21293E"/>
<path d="M34.8619 37.9312H19.3446C19.0704 37.9312 18.8073 38.0401 18.6134 38.234C18.4195 38.428 18.3105 38.691 18.3105 38.9652C18.3105 39.2395 18.4195 39.5025 18.6134 39.6964C18.8073 39.8904 19.0704 39.9993 19.3446 39.9993H34.8619C35.1361 39.9993 35.3991 39.8904 35.5931 39.6964C35.787 39.5025 35.8959 39.2395 35.8959 38.9652C35.8959 38.691 35.787 38.428 35.5931 38.234C35.3991 38.0401 35.1361 37.9312 34.8619 37.9312Z" fill="#21293E"/>
<path d="M23.4843 46.207H19.3456C19.0773 46.2162 18.8231 46.3292 18.6365 46.5223C18.45 46.7153 18.3457 46.9733 18.3457 47.2417C18.3457 47.5102 18.45 47.7681 18.6365 47.9611C18.8231 48.1542 19.0773 48.2672 19.3456 48.2764H23.4843C23.7526 48.2672 24.0068 48.1542 24.1934 47.9611C24.3799 47.7681 24.4842 47.5102 24.4842 47.2417C24.4842 46.9733 24.3799 46.7153 24.1934 46.5223C24.0068 46.3292 23.7526 46.2162 23.4843 46.207Z" fill="#21293E"/>
<path d="M34.8619 46.2076H27.621C27.3527 46.2168 27.0984 46.3299 26.9119 46.5229C26.7254 46.7159 26.6211 46.9739 26.6211 47.2423C26.6211 47.5108 26.7254 47.7687 26.9119 47.9617C27.0984 48.1548 27.3527 48.2678 27.621 48.277H34.8619C35.0008 48.2818 35.1392 48.2585 35.2689 48.2087C35.3986 48.1588 35.5169 48.0833 35.6168 47.9868C35.7167 47.8903 35.7961 47.7746 35.8504 47.6467C35.9047 47.5188 35.9326 47.3813 35.9326 47.2423C35.9326 47.1034 35.9047 46.9659 35.8504 46.838C35.7961 46.7101 35.7167 46.5944 35.6168 46.4978C35.5169 46.4013 35.3986 46.3258 35.2689 46.276C35.1392 46.2261 35.0008 46.2029 34.8619 46.2076Z" fill="#21293E"/>
<path d="M45.2074 23.4494H60.7247C60.993 23.4402 61.2472 23.3272 61.4337 23.1341C61.6203 22.9411 61.7245 22.6831 61.7245 22.4147C61.7245 22.1462 61.6203 21.8883 61.4337 21.6953C61.2472 21.5022 60.993 21.3892 60.7247 21.38H45.2074C45.0686 21.3752 44.9302 21.3985 44.8005 21.4483C44.6708 21.4982 44.5525 21.5737 44.4526 21.6702C44.3527 21.7668 44.2732 21.8824 44.2189 22.0103C44.1647 22.1382 44.1367 22.2757 44.1367 22.4147C44.1367 22.5536 44.1647 22.6911 44.2189 22.819C44.2732 22.9469 44.3527 23.0626 44.4526 23.1592C44.5525 23.2557 44.6708 23.3312 44.8005 23.381C44.9302 23.4309 45.0686 23.4541 45.2074 23.4494Z" fill="#21293E"/>
<path d="M45.2074 31.7213H49.345C49.6132 31.7122 49.8675 31.5991 50.054 31.4061C50.2406 31.213 50.3448 30.9551 50.3448 30.6867C50.3448 30.4182 50.2406 30.1603 50.054 29.9672C49.8675 29.7742 49.6132 29.6612 49.345 29.652H45.2074C45.0686 29.6472 44.9302 29.6705 44.8005 29.7203C44.6708 29.7702 44.5525 29.8456 44.4526 29.9422C44.3527 30.0387 44.2732 30.1544 44.2189 30.2823C44.1647 30.4102 44.1367 30.5477 44.1367 30.6867C44.1367 30.8256 44.1647 30.9631 44.2189 31.091C44.2732 31.2189 44.3527 31.3346 44.4526 31.4311C44.5525 31.5277 44.6708 31.6031 44.8005 31.653C44.9302 31.7029 45.0686 31.7261 45.2074 31.7213Z" fill="#21293E"/>
<path d="M60.7245 29.6553H53.4823C53.214 29.6645 52.9598 29.7775 52.7732 29.9705C52.5867 30.1636 52.4824 30.4215 52.4824 30.69C52.4824 30.9584 52.5867 31.2163 52.7732 31.4094C52.9598 31.6024 53.214 31.7155 53.4823 31.7246H60.7245C60.9928 31.7155 61.247 31.6024 61.4335 31.4094C61.6201 31.2163 61.7243 30.9584 61.7243 30.69C61.7243 30.4215 61.6201 30.1636 61.4335 29.9705C61.247 29.7775 60.9928 29.6645 60.7245 29.6553Z" fill="#21293E"/>
<path d="M10.0341 23.4476C10.6052 23.4476 11.0682 22.9846 11.0682 22.4135C11.0682 21.8424 10.6052 21.3794 10.0341 21.3794C9.46297 21.3794 9 21.8424 9 22.4135C9 22.9846 9.46297 23.4476 10.0341 23.4476Z" fill="#21293E"/>
<path d="M66.932 14.1375V13.1034C66.932 12.2804 66.605 11.491 66.023 10.909C65.441 10.327 64.6517 10 63.8286 10H44.1726C43.3667 10.0022 42.5725 10.1934 41.8539 10.5583C41.1353 10.9231 40.5124 11.4515 40.0351 12.1009C39.5578 11.4515 38.9348 10.9231 38.2162 10.5583C37.4976 10.1934 36.7035 10.0022 35.8975 10H16.2416C15.4185 10 14.6291 10.327 14.0471 10.909C13.4651 11.491 13.1381 12.2804 13.1381 13.1034V14.1375C12.0408 14.1375 10.9884 14.5734 10.2125 15.3494C9.43652 16.1253 9.00061 17.1777 9.00061 18.2751C8.99585 18.4139 9.0191 18.5523 9.06895 18.682C9.11881 18.8117 9.19426 18.93 9.29081 19.0299C9.38736 19.1298 9.50303 19.2093 9.63093 19.2635C9.75884 19.3178 9.89635 19.3458 10.0353 19.3458C10.1742 19.3458 10.3117 19.3178 10.4396 19.2635C10.5675 19.2093 10.6832 19.1298 10.7798 19.0299C10.8763 18.93 10.9518 18.8117 11.0016 18.682C11.0515 18.5523 11.0747 18.4139 11.07 18.2751C11.07 18.0035 11.1235 17.7345 11.2274 17.4836C11.3313 17.2327 11.4837 17.0047 11.6757 16.8126C11.8678 16.6206 12.0958 16.4683 12.3467 16.3643C12.5976 16.2604 12.8665 16.2069 13.1381 16.2069V56.5517C13.1381 57.3748 13.4651 58.1642 14.0471 58.7462C14.6291 59.3282 15.4185 59.6551 16.2416 59.6551H35.8975C36.7206 59.6551 37.51 59.9821 38.092 60.5641C38.674 61.1461 39.001 61.9355 39.001 62.7586C39.001 62.8944 39.0277 63.0289 39.0797 63.1543C39.1317 63.2798 39.2078 63.3938 39.3039 63.4898C39.3999 63.5858 39.5139 63.662 39.6394 63.714C39.7648 63.7659 39.8993 63.7927 40.0351 63.7927C40.1709 63.7927 40.3053 63.7659 40.4308 63.714C40.5563 63.662 40.6703 63.5858 40.7663 63.4898C40.8623 63.3938 40.9385 63.2798 40.9904 63.1543C41.0424 63.0289 41.0692 62.8944 41.0692 62.7586C41.0692 61.9355 41.3961 61.1461 41.9781 60.5641C42.5601 59.9821 43.3495 59.6551 44.1726 59.6551H45.1946L42.4063 65.605C42.3663 65.6887 42.3384 65.776 42.302 65.862H36.9316C36.1085 65.862 35.3192 65.5351 34.7372 64.9531C34.1551 64.3711 33.8282 63.5817 33.8282 62.7586C33.8283 62.6227 33.8017 62.4881 33.7498 62.3625C33.6979 62.2369 33.6218 62.1228 33.5257 62.0266C33.4297 61.9305 33.3156 61.8542 33.1901 61.8021C33.0646 61.7501 32.93 61.7233 32.7941 61.7233H13.1381C12.5896 61.7233 12.0636 61.5054 11.6757 61.1176C11.2879 60.7297 11.07 60.2037 11.07 59.6551V26.5513C11.0608 26.283 10.9478 26.0288 10.7547 25.8423C10.5617 25.6557 10.3037 25.5514 10.0353 25.5514C9.76685 25.5514 9.5089 25.6557 9.31586 25.8423C9.12282 26.0288 9.00979 26.283 9.00061 26.5513V59.6551C9.00061 60.7525 9.43652 61.8049 10.2125 62.5808C10.9884 63.3568 12.0408 63.7927 13.1381 63.7927H31.8631C32.103 64.9602 32.7381 66.0092 33.6614 66.763C34.5847 67.5167 35.7397 67.9289 36.9316 67.9302H42.279C42.4024 68.2931 42.5923 68.6298 42.8391 68.9231C43.1186 69.2587 43.4683 69.5289 43.8635 69.7149C44.2587 69.9009 44.6899 69.9981 45.1267 69.9996C45.4025 69.9991 45.6769 69.9612 45.9425 69.8868L52.1955 68.1484C52.3594 68.1035 52.5323 68.1035 52.6962 68.1484L58.9503 69.888C59.5054 70.0446 60.094 70.0368 60.6448 69.8658C61.1956 69.6947 61.685 69.3677 62.0538 68.9243C62.4396 68.4726 62.6861 67.9187 62.7633 67.3298C62.8406 66.7408 62.7453 66.1421 62.489 65.6063L61.6404 63.7878H66.9284C68.0255 63.7888 69.0781 63.354 69.8547 62.579C70.6313 61.804 71.0683 60.7523 71.0695 59.6551V18.2751C71.0695 17.1777 70.6336 16.1253 69.8577 15.3494C69.0818 14.5734 68.0294 14.1375 66.932 14.1375ZM35.8975 57.5858H16.2416C15.9673 57.5858 15.7043 57.4768 15.5104 57.2829C15.3164 57.089 15.2075 56.826 15.2075 56.5517V13.1034C15.2073 12.9675 15.234 12.8329 15.2859 12.7073C15.3378 12.5817 15.4139 12.4676 15.5099 12.3715C15.606 12.2753 15.72 12.199 15.8456 12.147C15.9711 12.0949 16.1057 12.0682 16.2416 12.0682H35.8975C36.7206 12.0682 37.51 12.3951 38.092 12.9771C38.674 13.5591 39.001 14.3485 39.001 15.1716V58.6332C38.1079 57.9559 37.0184 57.5882 35.8975 57.5858ZM44.1726 57.5858C43.0516 57.5871 41.9617 57.9549 41.0692 58.6332V15.1716C41.0692 14.3485 41.3961 13.5591 41.9781 12.9771C42.5601 12.3951 43.3495 12.0682 44.1726 12.0682H63.8286C63.9645 12.0682 64.099 12.0949 64.2246 12.147C64.3501 12.199 64.4642 12.2753 64.5602 12.3715C64.6562 12.4676 64.7324 12.5817 64.7843 12.7073C64.8362 12.8329 64.8628 12.9675 64.8626 13.1034V56.5517C64.8626 56.826 64.7537 57.089 64.5598 57.2829C64.3658 57.4768 64.1028 57.5858 63.8286 57.5858H58.737L55.1886 50.0345C54.9476 49.51 54.5611 49.0658 54.0752 48.7543C53.5893 48.4429 53.0242 48.2774 52.447 48.2774C51.8699 48.2774 51.3048 48.4429 50.8189 48.7543C50.3329 49.0658 49.9465 49.51 49.7055 50.0345L46.1644 57.5858H44.1726ZM60.479 67.5871C60.366 67.7287 60.2136 67.8337 60.041 67.8889C59.8685 67.9441 59.6834 67.9471 59.5092 67.8975L53.249 66.159C52.7242 66.0136 52.1698 66.0136 51.6451 66.159L45.3897 67.8975C45.2155 67.9473 45.0304 67.9444 44.8578 67.8891C44.6852 67.8339 44.5329 67.7288 44.4199 67.5871C44.2914 67.437 44.2096 67.2527 44.1844 67.0567C44.1592 66.8607 44.1917 66.6617 44.2781 66.4839L51.5833 50.9061C51.658 50.7387 51.7797 50.5965 51.9335 50.4967C52.0873 50.3969 52.2667 50.3438 52.4501 50.3438C52.6334 50.3438 52.8129 50.3969 52.9667 50.4967C53.1205 50.5965 53.2421 50.7387 53.3169 50.9061L60.6209 66.4839C60.7072 66.6617 60.7398 66.8607 60.7146 67.0567C60.6894 67.2527 60.6075 67.437 60.479 67.5871ZM69.0002 59.6551C69.0002 60.2037 68.7823 60.7297 68.3944 61.1176C68.0066 61.5054 67.4805 61.7233 66.932 61.7233H60.6742L59.7044 59.6551H63.8261C64.2337 59.6551 64.6373 59.5749 65.0138 59.4189C65.3903 59.2629 65.7324 59.0344 66.0206 58.7462C66.3088 58.458 66.5374 58.1159 66.6934 57.7393C66.8493 57.3628 66.9296 56.9593 66.9296 56.5517V16.2069C67.2012 16.2069 67.4701 16.2604 67.721 16.3643C67.972 16.4683 68.2 16.6206 68.392 16.8126C68.584 17.0047 68.7364 17.2327 68.8403 17.4836C68.9443 17.7345 68.9977 18.0035 68.9977 18.2751L69.0002 59.6551Z" fill="#21293E"/>
<path d="M52.4481 40.0005C52.3122 40.0005 52.1777 40.0273 52.0521 40.0793C51.9266 40.1314 51.8125 40.2076 51.7165 40.3038C51.6205 40.3999 51.5443 40.5141 51.4924 40.6397C51.4405 40.7653 51.4139 40.8999 51.4141 41.0358V44.1392C51.4141 44.4135 51.523 44.6765 51.7169 44.8704C51.9109 45.0644 52.1739 45.1733 52.4481 45.1733C52.7224 45.1733 52.9854 45.0644 53.1793 44.8704C53.3733 44.6765 53.4822 44.4135 53.4822 44.1392V41.0358C53.4824 40.8999 53.4558 40.7653 53.4039 40.6397C53.352 40.5141 53.2758 40.3999 53.1798 40.3038C53.0837 40.2076 52.9697 40.1314 52.8441 40.0793C52.7186 40.0273 52.584 40.0005 52.4481 40.0005Z" fill="#21293E"/>
<path d="M49.5238 44.922L47.3283 42.7241C47.2323 42.628 47.1184 42.5518 46.9929 42.4998C46.8675 42.4478 46.733 42.421 46.5972 42.4209C46.4613 42.4208 46.3268 42.4475 46.2013 42.4995C46.0758 42.5514 45.9618 42.6275 45.8657 42.7235C45.7696 42.8195 45.6934 42.9335 45.6414 43.0589C45.5894 43.1844 45.5626 43.3189 45.5625 43.4547C45.5624 43.5905 45.5891 43.725 45.6411 43.8505C45.693 43.976 45.7691 44.0901 45.8651 44.1861L48.0606 46.3804C48.1549 46.4781 48.2675 46.5563 48.3921 46.6105C48.5166 46.6648 48.6507 46.6939 48.7865 46.6963C48.9223 46.6987 49.0573 46.6744 49.1837 46.6246C49.3101 46.5749 49.4254 46.5008 49.5232 46.4064C49.6209 46.3121 49.6991 46.1995 49.7534 46.0749C49.8076 45.9503 49.8367 45.8163 49.8391 45.6805C49.8416 45.5447 49.8172 45.4097 49.7675 45.2833C49.7177 45.1569 49.6436 45.0416 49.5492 44.9438L49.5238 44.922Z" fill="#21293E"/>
<path d="M47.2752 48.2726H44.1717C43.9035 48.2818 43.6492 48.3948 43.4627 48.5878C43.2761 48.7809 43.1719 49.0388 43.1719 49.3073C43.1719 49.5757 43.2761 49.8337 43.4627 50.0267C43.6492 50.2197 43.9035 50.3328 44.1717 50.3419H47.2752C47.414 50.3467 47.5524 50.3235 47.6821 50.2736C47.8118 50.2237 47.9301 50.1483 48.03 50.0517C48.1299 49.9552 48.2094 49.8395 48.2637 49.7116C48.3179 49.5837 48.3459 49.4462 48.3459 49.3073C48.3459 49.1683 48.3179 49.0308 48.2637 48.9029C48.2094 48.775 48.1299 48.6593 48.03 48.5628C47.9301 48.4662 47.8118 48.3908 47.6821 48.3409C47.5524 48.2911 47.414 48.2678 47.2752 48.2726Z" fill="#21293E"/>
<path d="M60.7249 48.2726H57.6215C57.4826 48.2678 57.3442 48.2911 57.2146 48.3409C57.0849 48.3908 56.9666 48.4662 56.8666 48.5628C56.7667 48.6593 56.6873 48.775 56.633 48.9029C56.5787 49.0308 56.5508 49.1683 56.5508 49.3073C56.5508 49.4462 56.5787 49.5837 56.633 49.7116C56.6873 49.8395 56.7667 49.9552 56.8666 50.0517C56.9666 50.1483 57.0849 50.2237 57.2146 50.2736C57.3442 50.3235 57.4826 50.3467 57.6215 50.3419H60.7249C60.9932 50.3328 61.2475 50.2197 61.434 50.0267C61.6205 49.8337 61.7248 49.5757 61.7248 49.3073C61.7248 49.0388 61.6205 48.7809 61.434 48.5878C61.2475 48.3948 60.9932 48.2818 60.7249 48.2726Z" fill="#21293E"/>
<path d="M59.0328 44.1892C59.2271 43.9952 59.3364 43.7319 59.3367 43.4573C59.3369 43.1826 59.228 42.9192 59.034 42.7248C58.8399 42.5304 58.5766 42.4211 58.302 42.4209C58.0274 42.4207 57.7639 42.5296 57.5695 42.7236L55.3741 44.9178C55.2764 45.0122 55.1983 45.1249 55.1442 45.2495C55.0901 45.3741 55.0611 45.5082 55.0587 45.644C55.0541 45.9183 55.1586 46.1832 55.3492 46.3804C55.5399 46.5777 55.8011 46.6911 56.0754 46.6958C56.3497 46.7004 56.6146 46.596 56.8119 46.4053L56.8373 46.3798L59.0328 44.1892Z" fill="#21293E"/>
</svg>
