<svg width="80" height="80" viewBox="0 0 80 80" fill="none" xmlns="http://www.w3.org/2000/svg">
<rect width="80" height="80" fill="white"/>
<path d="M61 15.0008V60.0008H27.0004V65C27.0004 66.0582 26.5811 67.0734 25.8344 67.8232C25.0876 68.573 24.0742 68.9964 23.016 69.0008H23.0055C22.8754 69.0008 22.7453 68.9902 22.6164 68.9809C21.6263 68.8862 20.7072 68.4252 20.0393 67.6881C19.3714 66.9511 19.0028 65.9911 19.0059 64.9965V15.0008C19.0059 13.9425 18.5866 12.9274 17.8399 12.1776C17.0931 11.4278 16.0797 11.0043 15.0215 11H57.0004C58.0613 11.0003 59.0786 11.422 59.8286 12.1722C60.5787 12.9225 61 13.9399 61 15.0008Z" fill="#F4EECE"/>
<path d="M22 65V15.0008C22 13.9415 21.5799 12.9255 20.8319 12.1755C20.0839 11.4255 19.069 11.0028 18.0098 11H15.0098C16.069 11.0028 17.0839 11.4255 17.8319 12.1755C18.5799 12.9255 19 13.9415 19 15.0008V65C18.9969 65.9947 19.3655 66.9546 20.0334 67.6916C20.7013 68.4287 21.6204 68.8897 22.6105 68.9844C22.7395 68.9937 22.8695 69.0043 22.9996 69.0043H23.0078C23.5224 69.0013 24.0317 68.8995 24.5078 68.7043C23.7671 68.4087 23.1321 67.8977 22.685 67.2373C22.2379 66.5769 21.9993 65.7975 22 65Z" fill="white"/>
<path d="M24.0016 64.9997C24.0032 65.7943 23.7672 66.5713 23.3238 67.2307C22.8805 67.8902 22.2501 68.402 21.5137 68.7005C21.8649 68.847 22.2356 68.9418 22.6141 68.9817C22.7441 68.9923 22.8742 69.0017 23.0043 69.0017H23.009C24.0675 68.9976 25.0813 68.5741 25.8281 67.824C26.575 67.0739 26.994 66.0582 26.9934 64.9997V60.0005H23.9934L24.0016 64.9997Z" fill="#F6E9B7"/>
<path d="M57 11H54C55.0609 11.0003 56.0782 11.422 56.8282 12.1722C57.5783 12.9225 57.9996 13.9399 57.9996 15.0008V60.0008H60.9996V15.0008C60.9996 13.9399 60.5783 12.9225 59.8282 12.1722C59.0782 11.422 58.0609 11.0003 57 11Z" fill="#F6E9B7"/>
<path d="M19.0009 15.0008V20H12.0013C11.8699 20.0002 11.7398 19.9744 11.6184 19.9242C11.497 19.8741 11.3866 19.8005 11.2937 19.7076C11.2007 19.6148 11.127 19.5045 11.0767 19.3832C11.0264 19.2618 11.0005 19.1318 11.0005 19.0004V15.1707C10.9847 14.1554 11.3445 13.1701 12.011 12.4039C12.6774 11.6378 13.6034 11.1449 14.611 11.0199C14.7411 11.0105 14.8712 11 15.0013 11H15.0107C16.0699 11.0028 17.0848 11.4255 17.8328 12.1755C18.5808 12.9255 19.0009 13.9415 19.0009 15.0008Z" fill="#F6E9B7"/>
<path d="M54 15.0005C53.4937 15.0005 52.9922 15.0274 52.5 15.0767C56.198 15.4508 59.6254 17.1845 62.1178 19.9418C64.6103 22.6991 65.9902 26.2836 65.9902 30.0005C65.9902 33.7174 64.6103 37.3018 62.1178 40.0592C59.6254 42.8165 56.198 44.5502 52.5 44.9243C52.9922 44.9735 53.4937 45.0005 54 45.0005C57.9782 45.0005 61.7936 43.4201 64.6066 40.6071C67.4196 37.794 69 33.9787 69 30.0005C69 26.0222 67.4196 22.2069 64.6066 19.3939C61.7936 16.5808 57.9782 15.0005 54 15.0005Z" fill="#7FACFA"/>
<path d="M69.0004 60.0005V64.9997C69.0001 66.0607 68.5785 67.0781 67.8283 67.8283C67.078 68.5786 66.0606 69.0002 64.9996 69.0005H23.0078C24.0671 68.9977 25.082 68.575 25.83 67.825C26.578 67.075 26.9981 66.059 26.998 64.9997V60.0005H69.0004Z" fill="#F4EECE"/>
<path d="M66.0008 60.0005V64.9997C66.0005 66.0607 65.5789 67.0781 64.8286 67.8283C64.0784 68.5786 63.061 69.0002 62 69.0005H65C66.061 69.0002 67.0784 68.5786 67.8286 67.8283C68.5789 67.0781 69.0005 66.0607 69.0008 64.9997V60.0005H66.0008Z" fill="#F4EECE"/>
<path d="M12.0013 20H15.0013C14.8699 20.0002 14.7398 19.9744 14.6184 19.9242C14.497 19.8741 14.3866 19.8005 14.2937 19.7076C14.2007 19.6148 14.127 19.5045 14.0767 19.3832C14.0264 19.2618 14.0005 19.1318 14.0005 19.0004V15.1707C13.9847 14.1554 14.3445 13.1701 15.011 12.4039C15.6774 11.6378 16.6034 11.1449 17.611 11.0199C17.7411 11.0105 17.8712 11 18.0013 11H15.0013C14.8712 11 14.7411 11.0105 14.611 11.0199C13.6034 11.1449 12.6774 11.6378 12.011 12.4039C11.3445 13.1701 10.9847 14.1554 11.0005 15.1707V19.0004C11.0005 19.1318 11.0264 19.2618 11.0767 19.3832C11.127 19.5045 11.2007 19.6148 11.2937 19.7076C11.3866 19.8005 11.497 19.8741 11.6184 19.9242C11.7398 19.9744 11.8699 20.0002 12.0013 20Z" fill="white"/>
<path d="M18 57.0005H19.9992V64.9997H18V57.0005Z" fill="white"/>
<path d="M18.9996 61.9997C19.5517 61.9997 19.9992 61.5522 19.9992 61.0001C19.9992 60.448 19.5517 60.0005 18.9996 60.0005C18.4475 60.0005 18 60.448 18 61.0001C18 61.5522 18.4475 61.9997 18.9996 61.9997Z" fill="#21293E"/>
<path d="M70.0004 30.0004C69.9967 27.1954 69.2556 24.4406 67.8514 22.0123C66.4472 19.5841 64.4293 17.5676 62 16.1652V15.0004C61.9988 13.6748 61.4717 12.4038 60.5345 11.4664C59.5973 10.5289 58.3264 10.0016 57.0008 10L15.0008 10C13.6537 10.028 12.3722 10.5873 11.4356 11.556C10.499 12.5246 9.98312 13.8242 10.0004 15.1715V19C10.0004 19.5305 10.2112 20.0393 10.5863 20.4145C10.9615 20.7896 11.4703 21.0004 12.0008 21.0004H18.0008V57.0004C18.0008 57.2655 18.1061 57.5198 18.2936 57.7072C18.4811 57.8947 18.7353 58 19.0004 58C19.2655 58 19.5198 57.8947 19.7073 57.7072C19.8947 57.5198 20 57.2655 20 57.0004V15.0004C19.9967 13.9171 19.6414 12.8642 18.9875 12.0004H57.0008C57.7965 12.0004 58.5595 12.3165 59.1221 12.8791C59.6847 13.4417 60.0008 14.2047 60.0008 15.0004V15.1785C57.5717 14.1922 54.9375 13.818 52.3298 14.0886C49.7222 14.3593 47.221 15.2666 45.0462 16.7307C42.8715 18.1949 41.0899 20.171 39.8581 22.4853C38.6263 24.7996 37.9821 27.3811 37.9821 30.0027C37.9821 32.6244 38.6263 35.2059 39.8581 37.5202C41.0899 39.8345 42.8715 41.8106 45.0462 43.2747C47.221 44.7389 49.7222 45.6462 52.3298 45.9168C54.9375 46.1875 57.5717 45.8132 60.0008 44.827V59.0066H27.0008C26.7354 59.0066 26.4808 59.1121 26.2932 59.2998C26.1055 59.4874 26 59.742 26 60.0074V65.0066C26 65.8023 25.684 66.5654 25.1214 67.128C24.5587 67.6906 23.7957 68.0066 23 68.0066C22.2044 68.0066 21.4413 67.6906 20.8787 67.128C20.3161 66.5654 20 65.8023 20 65.0066C20 64.7415 19.8947 64.4873 19.7073 64.2998C19.5198 64.1123 19.2655 64.007 19.0004 64.007C18.7353 64.007 18.4811 64.1123 18.2936 64.2998C18.1061 64.4873 18.0008 64.7415 18.0008 65.0066C17.9958 66.3252 18.5145 67.5918 19.4429 68.5281C20.3713 69.4644 21.6334 69.9938 22.952 70H65C66.3257 69.9984 67.5967 69.4711 68.5341 68.5337C69.4715 67.5963 69.9989 66.3253 70.0004 64.9996V60.0004C70.0006 59.869 69.9748 59.7389 69.9247 59.6175C69.8745 59.4961 69.8009 59.3857 69.7081 59.2928C69.6152 59.1999 69.505 59.1261 69.3836 59.0758C69.2623 59.0255 69.1322 58.9996 69.0008 58.9996H62V43.8355C64.4292 42.433 66.4469 40.4165 67.8511 37.9883C69.2552 35.56 69.9965 32.8054 70.0004 30.0004ZM17.0188 12.7797C17.3284 13.0621 17.5756 13.406 17.7447 13.7894C17.9138 14.1728 18.001 14.5872 18.0008 15.0063V19H12.0008V15.1715C11.9794 14.3535 12.2831 13.5604 12.8455 12.9659C13.4078 12.3715 14.1829 12.0243 15.0008 12.0004C15.7475 11.9972 16.468 12.2754 17.0188 12.7797ZM67.9953 64.9996C67.9953 65.3936 67.9177 65.7837 67.767 66.1477C67.6162 66.5116 67.3952 66.8424 67.1167 67.1209C66.8381 67.3995 66.5074 67.6205 66.1434 67.7712C65.7794 67.922 65.3893 67.9996 64.9953 67.9996H27.0008C27.6517 67.1351 28.0027 66.0818 28.0004 64.9996V61H68L67.9953 64.9996Z" fill="#21293E"/>
<path d="M24.0018 24.0005H26.001C26.1353 24.0051 26.269 23.9826 26.3944 23.9344C26.5198 23.8862 26.6341 23.8133 26.7307 23.72C26.8273 23.6266 26.9041 23.5148 26.9566 23.3912C27.009 23.2675 27.0361 23.1346 27.0361 23.0003C27.0361 22.866 27.009 22.7331 26.9566 22.6094C26.9041 22.4858 26.8273 22.374 26.7307 22.2806C26.6341 22.1873 26.5198 22.1144 26.3944 22.0662C26.269 22.018 26.1353 21.9955 26.001 22.0001H24.0018C23.8676 21.9955 23.7338 22.018 23.6085 22.0662C23.4831 22.1144 23.3687 22.1873 23.2721 22.2806C23.1756 22.374 23.0987 22.4858 23.0463 22.6094C22.9938 22.7331 22.9668 22.866 22.9668 23.0003C22.9668 23.1346 22.9938 23.2675 23.0463 23.3912C23.0987 23.5148 23.1756 23.6266 23.2721 23.72C23.3687 23.8133 23.4831 23.8862 23.6085 23.9344C23.7338 23.9826 23.8676 24.0051 24.0018 24.0005Z" fill="#21293E"/>
<path d="M36.0018 22.0001H30.0018C29.8676 21.9955 29.7338 22.018 29.6084 22.0662C29.4831 22.1144 29.3687 22.1873 29.2721 22.2806C29.1756 22.374 29.0987 22.4858 29.0463 22.6094C28.9938 22.7331 28.9668 22.866 28.9668 23.0003C28.9668 23.1346 28.9938 23.2675 29.0463 23.3912C29.0987 23.5148 29.1756 23.6266 29.2721 23.72C29.3687 23.8133 29.4831 23.8862 29.6084 23.9344C29.7338 23.9826 29.8676 24.0051 30.0018 24.0005H36.0018C36.2612 23.9916 36.5069 23.8823 36.6872 23.6957C36.8676 23.5091 36.9684 23.2598 36.9684 23.0003C36.9684 22.7408 36.8676 22.4914 36.6872 22.3048C36.5069 22.1182 36.2612 22.009 36.0018 22.0001Z" fill="#21293E"/>
<path d="M24.0016 28.9997H35.0008C35.2659 28.9997 35.5201 28.8944 35.7076 28.7069C35.8951 28.5195 36.0004 28.2652 36.0004 28.0001C36.0004 27.735 35.8951 27.4807 35.7076 27.2933C35.5201 27.1058 35.2659 27.0005 35.0008 27.0005H24.0016C23.7364 27.0005 23.4822 27.1058 23.2947 27.2933C23.1073 27.4807 23.002 27.735 23.002 28.0001C23.002 28.2652 23.1073 28.5195 23.2947 28.7069C23.4822 28.8944 23.7364 28.9997 24.0016 28.9997Z" fill="#21293E"/>
<path d="M24.0018 34H32.001C32.1353 34.0046 32.269 33.9821 32.3944 33.9339C32.5198 33.8857 32.6341 33.8128 32.7307 33.7195C32.8273 33.6261 32.9041 33.5143 32.9566 33.3907C33.009 33.267 33.0361 33.1341 33.0361 32.9998C33.0361 32.8655 33.009 32.7326 32.9566 32.6089C32.9041 32.4853 32.8273 32.3735 32.7307 32.2801C32.6341 32.1868 32.5198 32.1139 32.3944 32.0657C32.269 32.0175 32.1353 31.995 32.001 31.9996H24.0018C23.8676 31.995 23.7338 32.0175 23.6085 32.0657C23.4831 32.1139 23.3687 32.1868 23.2721 32.2801C23.1756 32.3735 23.0987 32.4853 23.0463 32.6089C22.9938 32.7326 22.9668 32.8655 22.9668 32.9998C22.9668 33.1341 22.9938 33.267 23.0463 33.3907C23.0987 33.5143 23.1756 33.6261 23.2721 33.7195C23.3687 33.8128 23.4831 33.8857 23.6085 33.9339C23.7338 33.9821 23.8676 34.0046 24.0018 34Z" fill="#21293E"/>
<path d="M30.0018 52.9996C29.8676 52.995 29.7338 53.0175 29.6084 53.0657C29.4831 53.1139 29.3687 53.1868 29.2721 53.2801C29.1756 53.3735 29.0987 53.4853 29.0463 53.6089C28.9938 53.7326 28.9668 53.8655 28.9668 53.9998C28.9668 54.1341 28.9938 54.267 29.0463 54.3907C29.0987 54.5143 29.1756 54.6261 29.2721 54.7195C29.3687 54.8128 29.4831 54.8857 29.6084 54.9339C29.7338 54.9821 29.8676 55.0046 30.0018 55H32.001C32.1353 55.0046 32.269 54.9821 32.3944 54.9339C32.5198 54.8857 32.6341 54.8128 32.7307 54.7195C32.8273 54.6261 32.9041 54.5143 32.9566 54.3907C33.009 54.267 33.0361 54.1341 33.0361 53.9998C33.0361 53.8655 33.009 53.7326 32.9566 53.6089C32.9041 53.4853 32.8273 53.3735 32.7307 53.2801C32.6341 53.1868 32.5198 53.1139 32.3944 53.0657C32.269 53.0175 32.1353 52.995 32.001 52.9996H30.0018Z" fill="#21293E"/>
<path d="M24.0018 55H26.001C26.1353 55.0046 26.269 54.9821 26.3944 54.9339C26.5198 54.8857 26.6341 54.8128 26.7307 54.7195C26.8273 54.6261 26.9041 54.5143 26.9566 54.3907C27.009 54.267 27.0361 54.1341 27.0361 53.9998C27.0361 53.8655 27.009 53.7326 26.9566 53.6089C26.9041 53.4853 26.8273 53.3735 26.7307 53.2801C26.6341 53.1868 26.5198 53.1139 26.3944 53.0657C26.269 53.0175 26.1353 52.995 26.001 52.9996H24.0018C23.8676 52.995 23.7338 53.0175 23.6085 53.0657C23.4831 53.1139 23.3687 53.1868 23.2721 53.2801C23.1756 53.3735 23.0987 53.4853 23.0463 53.6089C22.9938 53.7326 22.9668 53.8655 22.9668 53.9998C22.9668 54.1341 22.9938 54.267 23.0463 54.3907C23.0987 54.5143 23.1756 54.6261 23.2721 54.7195C23.3687 54.8128 23.4831 54.8857 23.6085 54.9339C23.7338 54.9821 23.8676 55.0046 24.0018 55Z" fill="#21293E"/>
<path d="M35.9999 52.9996C35.8656 52.995 35.7319 53.0175 35.6065 53.0657C35.4811 53.1139 35.3668 53.1868 35.2702 53.2801C35.1736 53.3735 35.0968 53.4853 35.0443 53.6089C34.9919 53.7326 34.9648 53.8655 34.9648 53.9998C34.9648 54.1341 34.9919 54.267 35.0443 54.3907C35.0968 54.5143 35.1736 54.6261 35.2702 54.7195C35.3668 54.8128 35.4811 54.8857 35.6065 54.9339C35.7319 54.9821 35.8656 55.0046 35.9999 55H37.9991C38.1333 55.0046 38.2671 54.9821 38.3925 54.9339C38.5178 54.8857 38.6322 54.8128 38.7288 54.7195C38.8254 54.6261 38.9022 54.5143 38.9546 54.3907C39.0071 54.267 39.0341 54.1341 39.0341 53.9998C39.0341 53.8655 39.0071 53.7326 38.9546 53.6089C38.9022 53.4853 38.8254 53.3735 38.7288 53.2801C38.6322 53.1868 38.5178 53.1139 38.3925 53.0657C38.2671 53.0175 38.1333 52.995 37.9991 52.9996H35.9999Z" fill="#21293E"/>
<path d="M49.9991 55C50.1333 55.0046 50.2671 54.9821 50.3925 54.9339C50.5178 54.8857 50.6322 54.8128 50.7288 54.7195C50.8254 54.6261 50.9022 54.5143 50.9546 54.3907C51.0071 54.267 51.0341 54.1341 51.0341 53.9998C51.0341 53.8655 51.0071 53.7326 50.9546 53.6089C50.9022 53.4853 50.8254 53.3735 50.7288 53.2801C50.6322 53.1868 50.5178 53.1139 50.3925 53.0657C50.2671 53.0175 50.1333 52.995 49.9991 52.9996H47.9999C47.8656 52.995 47.7319 53.0175 47.6065 53.0657C47.4811 53.1139 47.3668 53.1868 47.2702 53.2801C47.1736 53.3735 47.0968 53.4853 47.0443 53.6089C46.9919 53.7326 46.9648 53.8655 46.9648 53.9998C46.9648 54.1341 46.9919 54.267 47.0443 54.3907C47.0968 54.5143 47.1736 54.6261 47.2702 54.7195C47.3668 54.8128 47.4811 54.8857 47.6065 54.9339C47.7319 54.9821 47.8656 55.0046 47.9999 55H49.9991Z" fill="#21293E"/>
<path d="M56.001 55C56.1353 55.0046 56.269 54.9821 56.3944 54.9339C56.5198 54.8857 56.6341 54.8128 56.7307 54.7195C56.8273 54.6261 56.9041 54.5143 56.9566 54.3907C57.009 54.267 57.0361 54.1341 57.0361 53.9998C57.0361 53.8655 57.009 53.7326 56.9566 53.6089C56.9041 53.4853 56.8273 53.3735 56.7307 53.2801C56.6341 53.1868 56.5198 53.1139 56.3944 53.0657C56.269 53.0175 56.1353 52.995 56.001 52.9996H54.0018C53.8676 52.995 53.7338 53.0175 53.6084 53.0657C53.4831 53.1139 53.3687 53.1868 53.2721 53.2801C53.1755 53.3735 53.0987 53.4853 53.0463 53.6089C52.9938 53.7326 52.9668 53.8655 52.9668 53.9998C52.9668 54.1341 52.9938 54.267 53.0463 54.3907C53.0987 54.5143 53.1755 54.6261 53.2721 54.7195C53.3687 54.8128 53.4831 54.8857 53.6084 54.9339C53.7338 54.9821 53.8676 55.0046 54.0018 55H56.001Z" fill="#21293E"/>
<path d="M44.001 55C44.1353 55.0046 44.269 54.9821 44.3944 54.9339C44.5198 54.8857 44.6341 54.8128 44.7307 54.7195C44.8273 54.6261 44.9041 54.5143 44.9566 54.3907C45.009 54.267 45.0361 54.1341 45.0361 53.9998C45.0361 53.8655 45.009 53.7326 44.9566 53.6089C44.9041 53.4853 44.8273 53.3735 44.7307 53.2801C44.6341 53.1868 44.5198 53.1139 44.3944 53.0657C44.269 53.0175 44.1353 52.995 44.001 52.9996H42.0018C41.8676 52.995 41.7338 53.0175 41.6084 53.0657C41.4831 53.1139 41.3687 53.1868 41.2721 53.2801C41.1755 53.3735 41.0987 53.4853 41.0463 53.6089C40.9938 53.7326 40.9668 53.8655 40.9668 53.9998C40.9668 54.1341 40.9938 54.267 41.0463 54.3907C41.0987 54.5143 41.1755 54.6261 41.2721 54.7195C41.3687 54.8128 41.4831 54.8857 41.6084 54.9339C41.7338 54.9821 41.8676 55.0046 42.0018 55H44.001Z" fill="#21293E"/>
<path d="M39.9996 48.0002C40.0012 47.7319 39.8973 47.4736 39.7104 47.2812C39.5234 47.0887 39.2683 46.9774 39 46.9713C38.8718 46.9682 38.7442 46.9904 38.6246 47.0366C38.505 47.0828 38.3956 47.1521 38.3028 47.2405C38.21 47.329 38.1355 47.4349 38.0836 47.5522C38.0317 47.6695 38.0034 47.7958 38.0004 47.924C37.9998 47.9306 37.9998 47.9373 38.0004 47.9439C37.9535 48.3096 37.2633 48.9986 35.0004 48.9986C32.2008 48.9986 32.0109 47.3205 32.0004 46.9982V46.9853C31.9995 46.7202 31.8932 46.4664 31.7051 46.2795C31.517 46.0927 31.2624 45.9883 30.9973 45.9893C30.7322 45.9902 30.4783 46.0964 30.2915 46.2845C30.1047 46.4726 30.0002 46.7273 30.0012 46.9924C30.0176 47.2396 29.9851 47.4875 29.9056 47.7221C29.8261 47.9568 29.7012 48.1734 29.538 48.3597C29.3747 48.546 29.1764 48.6984 28.9542 48.808C28.7321 48.9176 28.4905 48.9824 28.2434 48.9986C28.1622 49.0033 28.0808 49.0033 27.9996 48.9986C26.0461 48.9986 25.9992 46.1357 25.9992 45.9986C25.9992 45.7335 25.8939 45.4793 25.7064 45.2918C25.519 45.1043 25.2647 44.999 24.9996 44.999C24.7345 44.999 24.4802 45.1043 24.2928 45.2918C24.1053 45.4793 24 45.7335 24 45.9986C24 47.7271 24.8355 50.999 27.9996 50.999C28.5898 51.0245 29.1778 50.9111 29.7161 50.6679C30.2545 50.4246 30.7282 50.0584 31.0992 49.5986C31.6183 50.0873 32.2325 50.4639 32.9034 50.7048C33.5744 50.9458 34.2878 51.0459 34.9992 50.999C39.9422 51.0002 39.9996 48.1232 39.9996 48.0002Z" fill="#21293E"/>
<path d="M68.9458 29.9968C68.9465 31.9938 68.5538 33.9714 67.7899 35.8166C67.0261 37.6618 65.9061 39.3384 64.4941 40.7505C63.082 42.1627 61.4055 43.2828 59.5604 44.0468C57.7153 44.8107 55.7377 45.2036 53.7407 45.203C53.3501 45.203 52.97 45.1878 52.6004 45.1573C48.7829 44.8607 45.2179 43.1348 42.6173 40.3243C40.0168 37.5139 38.5723 33.8258 38.5723 29.9968C38.5723 26.1678 40.0168 22.4797 42.6173 19.6692C45.2179 16.8588 48.7829 15.1329 52.6004 14.8362C52.9731 14.8058 53.3532 14.7905 53.7407 14.7905C55.7377 14.7899 57.7153 15.1828 59.5604 15.9468C61.4055 16.7108 63.082 17.8309 64.4941 19.243C65.9061 20.6552 67.0261 22.3318 67.7899 24.177C68.5538 26.0221 68.9465 27.9997 68.9458 29.9968Z" fill="#FF5364"/>
<path d="M52.6012 45.1575C60.3696 45.1575 66.6672 38.3699 66.6672 29.997C66.6672 21.624 60.3696 14.8364 52.6012 14.8364C44.8327 14.8364 38.5352 21.624 38.5352 29.997C38.5352 38.3699 44.8327 45.1575 52.6012 45.1575Z" fill="#FB7B76"/>
<path d="M53.7402 14.0303C50.5823 14.0303 47.4953 14.9667 44.8696 16.7212C42.2438 18.4756 40.1973 20.9693 38.9888 23.8868C37.7804 26.8044 37.4642 30.0148 38.0802 33.112C38.6963 36.2093 40.217 39.0543 42.45 41.2873C44.683 43.5203 47.528 45.041 50.6253 45.6571C53.7225 46.2732 56.9329 45.957 59.8505 44.7485C62.768 43.54 65.2617 41.4935 67.0161 38.8677C68.7706 36.242 69.707 33.155 69.707 29.9971C69.707 25.7624 68.0248 21.7012 65.0305 18.7068C62.0361 15.7125 57.9749 14.0303 53.7402 14.0303ZM53.7402 44.4428C50.8832 44.4428 48.0902 43.5955 45.7146 42.0082C43.3391 40.4209 41.4875 38.1648 40.3942 35.5252C39.3008 32.8856 39.0147 29.981 39.5721 27.1789C40.1295 24.3767 41.5053 21.8027 43.5256 19.7824C45.5459 17.7621 48.1198 16.3863 50.922 15.8289C53.7242 15.2715 56.6288 15.5576 59.2684 16.651C61.908 17.7443 64.1641 19.5959 65.7514 21.9715C67.3387 24.3471 68.1859 27.14 68.1859 29.9971C68.1859 33.8283 66.664 37.5026 63.9549 40.2117C61.2458 42.9208 57.5715 44.4428 53.7402 44.4428Z" fill="#21293E"/>
<path d="M61.1203 22.6163C60.9777 22.474 60.7844 22.394 60.5829 22.394C60.3815 22.394 60.1882 22.474 60.0456 22.6163L53.7398 28.9222L47.4339 22.6163C47.2895 22.4836 47.0994 22.4119 46.9033 22.416C46.7072 22.4202 46.5203 22.4999 46.3816 22.6386C46.2429 22.7773 46.1632 22.9642 46.159 23.1603C46.1549 23.3564 46.2266 23.5465 46.3593 23.6909L52.6652 29.9968L46.3593 36.3026C46.2838 36.372 46.223 36.456 46.1808 36.5495C46.1385 36.643 46.1156 36.7441 46.1135 36.8466C46.1113 36.9492 46.1299 37.0511 46.1681 37.1463C46.2064 37.2415 46.2635 37.328 46.336 37.4005C46.4086 37.4731 46.4951 37.5302 46.5902 37.5684C46.6854 37.6067 46.7874 37.6253 46.8899 37.6231C46.9925 37.6209 47.0936 37.598 47.1871 37.5558C47.2806 37.5135 47.3645 37.4528 47.4339 37.3773L53.7398 31.0714L60.0456 37.3773C60.1901 37.5099 60.3802 37.5817 60.5763 37.5775C60.7724 37.5734 60.9593 37.4936 61.0979 37.3549C61.2366 37.2163 61.3164 37.0294 61.3205 36.8333C61.3247 36.6372 61.2529 36.4471 61.1203 36.3026L54.8144 29.9968L61.1203 23.6909C61.2626 23.5483 61.3425 23.3551 61.3425 23.1536C61.3425 22.9522 61.2626 22.7589 61.1203 22.6163Z" fill="#21293E"/>
</svg>
