<svg width="80" height="80" viewBox="0 0 80 80" fill="none" xmlns="http://www.w3.org/2000/svg">
<rect width="80" height="80" fill="white"/>
<path d="M55.0004 26.1301V17C55.0004 15.4087 54.3682 13.8826 53.243 12.7574C52.1178 11.6321 50.5917 11 49.0004 11H24.0008L11 24.0008V63.0008C11.0003 64.592 11.6326 66.1179 12.7577 67.2431C13.8829 68.3682 15.4088 69.0005 17 69.0008H49.0004C50.2997 69.0021 51.5644 68.5816 52.6041 67.8024C53.6439 67.0232 54.4025 65.9275 54.766 64.6801L55.0004 26.1301Z" fill="#F4EECE"/>
<path d="M49 11H46C46.7879 11 47.5681 11.1552 48.2961 11.4567C49.0241 11.7583 49.6855 12.2002 50.2426 12.7574C50.7998 13.3145 51.2417 13.9759 51.5433 14.7039C51.8448 15.4319 52 16.2121 52 17V26.1301L51.7656 64.6848C51.4024 65.9313 50.6446 67.0263 49.6061 67.8054C48.5675 68.5844 47.3042 69.0056 46.0059 69.0055H49.0059C50.3048 69.0053 51.5685 68.5835 52.6072 67.8035C53.6459 67.0235 54.4033 65.9274 54.7656 64.6801L55.0059 26.1254V17C55.0059 15.4087 54.3737 13.8826 53.2485 12.7574C52.1233 11.6321 50.5972 11 49.0059 11H49Z" fill="#F6EABA"/>
<path d="M11 24.0008H18.0008C19.592 24.0005 21.1179 23.3682 22.2431 22.2431C23.3682 21.1179 24.0005 19.592 24.0008 18.0008V11L11 24.0008Z" fill="#F6EABA"/>
<path d="M69.0004 46.9997V60.0005C68.9985 60.5304 68.7871 61.038 68.4124 61.4125C68.0376 61.7871 67.5299 61.9982 67 61.9997H60.7422C60.2964 61.9952 59.8625 62.1437 59.5129 62.4204C57.3674 64.0942 54.7235 65.0017 52.0023 64.9986H44.5023C45.1653 64.9986 45.8011 64.7352 46.2698 64.2664C46.7386 63.7977 47.002 63.1619 47.002 62.499C47.002 61.836 46.7386 61.2002 46.2698 60.7315C45.8011 60.2627 45.1653 59.9993 44.5023 59.9993C45.1561 59.9852 45.7782 59.7156 46.2356 59.2482C46.6929 58.7809 46.949 58.153 46.949 57.4992C46.949 56.8453 46.6929 56.2174 46.2356 55.7501C45.7782 55.2827 45.1561 55.0131 44.5023 54.999C45.1561 54.9848 45.7782 54.7152 46.2356 54.2478C46.6929 53.7805 46.949 53.1526 46.949 52.4988C46.949 51.8449 46.6929 51.217 46.2356 50.7497C45.7782 50.2824 45.1561 50.0127 44.5023 49.9986H38.5C37.3065 49.9986 36.1619 49.5245 35.318 48.6805C34.4741 47.8366 34 46.692 34 45.4986C34 44.3051 34.4741 43.1605 35.318 42.3166C36.1619 41.4727 37.3065 40.9986 38.5 40.9986H51.0004L51.0695 41.0185C51.5336 39.5982 51.5512 38.0698 51.1199 36.6392C49.9996 33.0884 49.5297 25.9986 54.0004 25.9986C54.3379 25.9972 54.6741 26.0409 55 26.1286C55.5819 26.3255 56.0876 26.6995 56.4464 27.1981C56.8051 27.6968 56.9988 28.2952 57.0004 28.9095V35.9993C57.0004 38.3595 60.0602 38.9993 61.1805 41.3595C62.0526 42.9338 63.3852 44.2039 64.9996 44.9993H67C67.5301 45.0009 68.038 45.2121 68.4128 45.587C68.7876 45.9618 68.9988 46.4697 69.0004 46.9997Z" fill="#FDD7AD"/>
<path d="M66.9996 45.0007H64.9992C63.3848 44.2052 62.0522 42.9352 61.1801 41.3609C60.0598 39.0007 57 38.3609 57 36.0007V28.9109C56.9984 28.2966 56.8047 27.6982 56.446 27.1995C56.0872 26.7008 55.5815 26.3269 54.9996 26.13C54.6737 26.0423 54.3375 25.9985 54 25.9999C53.4797 25.9916 52.9652 26.109 52.5 26.3421C52.9463 26.6091 53.3179 26.9846 53.5801 27.4337C53.8424 27.8828 53.9868 28.391 54 28.9109V36.0007C54 38.3609 57.0598 39.0007 58.1801 41.3609C59.0522 42.9352 60.3848 44.2052 61.9992 45.0007H63.9996C64.5295 45.0023 65.0372 45.2133 65.412 45.5879C65.7868 45.9625 65.9981 46.4701 66 46.9999V60.0007C65.9981 60.5306 65.7868 61.0382 65.412 61.4127C65.0372 61.7873 64.5295 61.9984 63.9996 61.9999H66.9996C67.5295 61.9984 68.0372 61.7873 68.412 61.4127C68.7868 61.0382 68.9981 60.5306 69 60.0007V46.9999C68.9981 46.4701 68.7868 45.9625 68.412 45.5879C68.0372 45.2133 67.5295 45.0023 66.9996 45.0007Z" fill="#F9C795"/>
<path d="M46.999 52.5003C46.999 52.8286 46.9343 53.1536 46.8087 53.4569C46.6831 53.7601 46.499 54.0357 46.2669 54.2678C46.0348 54.4999 45.7592 54.684 45.4559 54.8096C45.1527 54.9353 44.8276 54.9999 44.4994 54.9999H38.4994C37.8457 54.9858 37.2235 54.7161 36.7662 54.2488C36.3088 53.7815 36.0527 53.1536 36.0527 52.4997C36.0527 51.8458 36.3088 51.218 36.7662 50.7506C37.2235 50.2833 37.8457 50.0137 38.4994 49.9995H44.4994C45.1603 49.9977 45.7948 50.2583 46.2635 50.7242C46.7323 51.1901 46.9968 51.823 46.999 52.4839V52.5003Z" fill="#FDD7AD"/>
<path d="M46.9994 57.4996C46.9995 57.828 46.935 58.1531 46.8094 58.4565C46.6839 58.7599 46.4998 59.0356 46.2677 59.2679C46.0356 59.5001 45.7599 59.6843 45.4566 59.81C45.1533 59.9357 44.8281 60.0004 44.4998 60.0004H39.4994C38.8457 59.9863 38.2235 59.7166 37.7662 59.2493C37.3088 58.7819 37.0527 58.1541 37.0527 57.5002C37.0527 56.8463 37.3088 56.2185 37.7662 55.7511C38.2235 55.2838 38.8457 55.0142 39.4994 55H44.4998C44.827 54.9989 45.1513 55.0623 45.4541 55.1866C45.7568 55.3109 46.0322 55.4936 46.2643 55.7243C46.4964 55.955 46.6808 56.2292 46.8069 56.5312C46.9331 56.8332 46.9985 57.1571 46.9994 57.4844V57.4996Z" fill="#FDD7AD"/>
<path d="M46.9988 62.4996C46.9988 63.1626 46.7355 63.7983 46.2667 64.2671C45.7979 64.7359 45.1622 64.9992 44.4992 64.9992H40.4996C39.8367 64.9992 39.2009 64.7359 38.7321 64.2671C38.2634 63.7983 38 63.1626 38 62.4996C38 61.8367 38.2634 61.2009 38.7321 60.7321C39.2009 60.2634 39.8367 60 40.4996 60H44.4992C44.8264 59.9989 45.1506 60.0623 45.4533 60.1865C45.7559 60.3107 46.0312 60.4933 46.2633 60.7239C46.4954 60.9545 46.6798 61.2286 46.806 61.5304C46.9322 61.8323 46.9978 62.156 46.9988 62.4832V62.4996Z" fill="#FDD7AD"/>
<path d="M33.555 20.362L35.5402 24.5808C35.5837 24.6732 35.6492 24.7535 35.7309 24.8148C35.8126 24.8761 35.908 24.9165 36.0089 24.9324L40.4621 25.612C40.5784 25.6325 40.687 25.6844 40.7761 25.762C40.8652 25.8397 40.9314 25.9402 40.9676 26.0527C41.0037 26.1652 41.0085 26.2854 40.9814 26.4005C40.9543 26.5155 40.8963 26.6209 40.8136 26.7054L37.5793 30.0148C37.5075 30.0884 37.4541 30.1779 37.4236 30.2761C37.393 30.3743 37.3861 30.4783 37.4035 30.5796L38.1652 35.2413C38.188 35.3571 38.1776 35.477 38.1351 35.5871C38.0927 35.6973 38.02 35.7931 37.9254 35.8637C37.8308 35.9343 37.7182 35.9767 37.6005 35.986C37.4829 35.9953 37.365 35.9712 37.2605 35.9163L33.2914 33.7273C33.2017 33.6775 33.1009 33.6514 32.9984 33.6514C32.8959 33.6514 32.795 33.6775 32.7054 33.7273L28.7375 35.9163C28.5903 35.9935 28.4185 36.0091 28.2598 35.9596C28.1012 35.9102 27.9687 35.7998 27.8914 35.6527C27.8258 35.5262 27.8047 35.3813 27.8316 35.2413L28.5945 30.5796C28.6114 30.4782 28.6042 30.3742 28.5734 30.2761C28.5427 30.1779 28.4893 30.0884 28.4175 30.0148L25.1832 26.7054C25.1005 26.6209 25.0425 26.5155 25.0154 26.4005C24.9883 26.2854 24.993 26.1652 25.0292 26.0527C25.0654 25.9402 25.1316 25.8397 25.2207 25.762C25.3097 25.6844 25.4183 25.6325 25.5347 25.612L29.9878 24.9324C30.0888 24.9167 30.1844 24.8765 30.2662 24.8152C30.3479 24.7539 30.4133 24.6734 30.4566 24.5808L32.4429 20.362C32.4914 20.2543 32.5699 20.1629 32.669 20.0988C32.7682 20.0346 32.8838 20.0005 33.0019 20.0005C33.12 20.0005 33.2356 20.0346 33.3348 20.0988C33.4339 20.1629 33.5125 20.2543 33.5609 20.362H33.555Z" fill="#F3D55B"/>
<path d="M14 24.0008V63.0008C14.0003 64.592 14.6326 66.1179 15.7577 67.2431C16.8829 68.3682 18.4088 69.0005 20 69.0008H17C15.4088 69.0005 13.8829 68.3682 12.7577 67.2431C11.6326 66.1179 11.0003 64.592 11 63.0008V24.0008L24.0008 11V14L14 24.0008Z" fill="white"/>
<path d="M10 24H12.0004V31.9992H10V24Z" fill="white"/>
<path d="M10.9996 28.9997C11.5517 28.9997 11.9992 28.5522 11.9992 28.0001C11.9992 27.448 11.5517 27.0005 10.9996 27.0005C10.4475 27.0005 10 27.448 10 28.0001C10 28.5522 10.4475 28.9997 10.9996 28.9997Z" fill="#21293E"/>
<path d="M67 43.9996H65.2422C63.9093 43.3091 62.8089 42.2418 62.0781 40.9305C61.4846 39.8373 60.6473 38.8954 59.6312 38.1777C58.5859 37.3281 57.9906 36.8078 57.9906 36.0004V28.9105C57.9874 28.2104 57.801 27.5234 57.4501 26.9175C57.0992 26.3117 56.5959 25.8082 55.9902 25.457V16.9996C55.9881 15.1455 55.2512 13.3678 53.941 12.0558C52.6308 10.7439 50.8541 10.0046 49 10H24.0004V10.0094C23.8703 10.0079 23.7411 10.0322 23.6205 10.0809C23.4998 10.1295 23.3899 10.2016 23.2973 10.293L10.293 23.2926C10.1536 23.4323 10.0587 23.6101 10.0201 23.8037C9.98158 23.9972 10.0011 24.1978 10.0762 24.3803C10.1514 24.5628 10.2788 24.719 10.4425 24.8292C10.6061 24.9395 10.7988 24.9989 10.9961 25H18.0004C19.8561 24.9978 21.6353 24.2597 22.9475 22.9475C24.2597 21.6353 24.9978 19.8561 25 18.0004V12.0004H49C50.3256 12.0016 51.5966 12.5287 52.534 13.4659C53.4715 14.4032 53.9988 15.674 54.0004 16.9996V25C53.3445 24.9816 52.6941 25.124 52.106 25.4149C51.5179 25.7058 51.01 26.1363 50.6266 26.6688C48.7258 29.2586 49.3117 34.2297 50.1672 36.9438C50.4757 37.9342 50.5161 38.9888 50.2844 40H38.5C37.2846 40.0008 36.1038 40.4042 35.1419 41.1471C34.1801 41.89 33.4914 42.9306 33.1835 44.1063C32.8756 45.282 32.9658 46.5265 33.44 47.6455C33.9142 48.7646 34.7458 49.695 35.8047 50.2914C35.513 50.6391 35.2928 51.0408 35.1564 51.4737C35.0201 51.9065 34.9703 52.3619 35.0101 52.814C35.0498 53.2661 35.1782 53.7059 35.3879 54.1083C35.5976 54.5107 35.8846 54.8679 36.2324 55.1594C36.3663 55.2728 36.5089 55.3754 36.659 55.4664C36.3913 55.8346 36.1987 56.2519 36.0923 56.6945C35.9859 57.1371 35.9677 57.5963 36.0387 58.046C36.1098 58.4956 36.2687 58.9269 36.5064 59.3151C36.7442 59.7033 37.056 60.0409 37.4242 60.3086C37.5004 60.3648 37.5789 60.4164 37.6586 60.4656C37.2805 60.987 37.0542 61.603 37.0047 62.2451C36.9553 62.8873 37.0846 63.5306 37.3784 64.1038C37.6722 64.6769 38.119 65.1575 38.6692 65.4923C39.2195 65.8271 39.8516 66.0029 40.4957 66.0004H52C52.3574 66.0004 52.6937 65.9676 53.0336 65.9406C52.5698 66.576 51.963 67.0935 51.2623 67.4512C50.5617 67.8088 49.7867 67.9967 49 67.9996H16.9996C15.6741 67.9984 14.4033 67.4713 13.466 66.534C12.5287 65.5967 12.0016 64.3259 12.0004 63.0004V31.9996C11.9915 31.7403 11.8822 31.4945 11.6956 31.3142C11.509 31.1339 11.2597 31.0331 11.0002 31.0331C10.7407 31.0331 10.4914 31.1339 10.3047 31.3142C10.1181 31.4945 10.0089 31.7403 10 31.9996V63.0004C10.0022 64.8561 10.7403 66.6353 12.0525 67.9475C13.3647 69.2597 15.1439 69.9978 16.9996 70H49C50.411 69.993 51.7871 69.5606 52.9484 68.7592C54.1098 67.9579 55.0024 66.8248 55.5098 65.5082C57.1871 65.0478 58.7586 64.2649 60.1363 63.2031C60.3081 63.0708 60.5195 63.0002 60.7363 63.0027H67C67.7957 63.0027 68.5587 62.6867 69.1213 62.1241C69.6839 61.5614 70 60.7984 70 60.0027V46.9949C69.9988 46.2001 69.6821 45.4382 69.1197 44.8766C68.5572 44.315 67.7948 43.9996 67 43.9996ZM22.9996 18.0004C22.9984 19.3259 22.4713 20.5967 21.534 21.534C20.5967 22.4713 19.3259 22.9984 18.0004 22.9996H13.4137L22.9996 13.4137V18.0004ZM44.5 51.0004C44.8978 51.0004 45.2794 51.1584 45.5607 51.4397C45.842 51.721 46 52.1026 46 52.5004C46 52.8982 45.842 53.2797 45.5607 53.5611C45.2794 53.8424 44.8978 54.0004 44.5 54.0004H38.5C38.1022 54.0004 37.7206 53.8424 37.4393 53.5611C37.158 53.2797 37 52.8982 37 52.5004C37 52.1026 37.158 51.721 37.4393 51.4397C37.7206 51.1584 38.1022 51.0004 38.5 51.0004H44.5ZM46 57.4996C46 57.6966 45.9612 57.8916 45.8858 58.0736C45.8104 58.2556 45.6999 58.421 45.5607 58.5603C45.4214 58.6996 45.256 58.81 45.074 58.8854C44.892 58.9608 44.697 58.9996 44.5 58.9996H39.4996C39.1018 58.9996 38.7203 58.8416 38.4389 58.5603C38.1576 58.279 37.9996 57.8974 37.9996 57.4996C37.9996 57.1018 38.1576 56.7203 38.4389 56.4389C38.7203 56.1576 39.1018 55.9996 39.4996 55.9996H44.5C44.8978 55.9996 45.2794 56.1576 45.5607 56.4389C45.842 56.7203 46 57.1018 46 57.4996ZM43.9996 64H40.5004C40.1026 64 39.721 63.842 39.4397 63.5607C39.1584 63.2794 39.0004 62.8978 39.0004 62.5C39.0004 62.1022 39.1584 61.7206 39.4397 61.4393C39.721 61.158 40.1026 61 40.5004 61H44.5C44.8978 61 45.2794 61.158 45.5607 61.4393C45.842 61.7206 46 62.1022 46 62.5C46 62.8978 45.842 63.2794 45.5607 63.5607C45.2794 63.842 44.8978 64 44.5 64H43.9996ZM67.9996 60.0004C67.9996 60.2655 67.8943 60.5198 67.7068 60.7072C67.5194 60.8947 67.2651 61 67 61H60.7422C60.0711 60.9989 59.4193 61.2239 58.8918 61.6387C56.9208 63.1697 54.4958 64.0006 52 64H47.6488C47.9702 63.3448 48.0753 62.6044 47.9489 61.8856C47.8225 61.1669 47.4713 60.5067 46.9457 60.0004C47.6075 59.3572 47.9871 58.4777 48.0012 57.555C48.0153 56.6322 47.6626 55.7416 47.0207 55.0785L46.9457 55.0035C47.2744 54.6857 47.5372 54.3063 47.7191 53.8869C47.9011 53.4676 47.9986 53.0164 48.0061 52.5593C48.0136 52.1022 47.931 51.6482 47.7629 51.223C47.5948 50.7979 47.3446 50.41 47.0266 50.0816C46.8237 49.8714 46.5949 49.6879 46.3457 49.5355C46.7236 49.0137 46.9496 48.3974 46.9986 47.755C47.0477 47.1126 46.9179 46.4691 46.6236 45.8959C46.3293 45.3228 45.882 44.8423 45.3314 44.5078C44.7807 44.1733 44.1482 43.9978 43.5039 44.0008H39.0039C38.8697 43.9962 38.7359 44.0187 38.6105 44.0669C38.4852 44.115 38.3708 44.188 38.2742 44.2813C38.1776 44.3746 38.1008 44.4865 38.0484 44.6101C37.9959 44.7337 37.9689 44.8667 37.9689 45.001C37.9689 45.1353 37.9959 45.2682 38.0484 45.3919C38.1008 45.5155 38.1776 45.6273 38.2742 45.7206C38.3708 45.814 38.4852 45.8869 38.6105 45.9351C38.7359 45.9833 38.8697 46.0058 39.0039 46.0012H43.5039C43.9017 46.0012 44.2833 46.1592 44.5646 46.4405C44.8459 46.7218 45.0039 47.1033 45.0039 47.5012C45.0039 47.899 44.8459 48.2805 44.5646 48.5618C44.2833 48.8431 43.9017 49.0012 43.5039 49.0012H38.5C38.035 49.0097 37.573 48.9254 37.1409 48.7534C36.7089 48.5813 36.3154 48.3249 35.9836 47.9991C35.6517 47.6732 35.3881 47.2845 35.2082 46.8557C35.0282 46.4268 34.9356 45.9664 34.9356 45.5014C34.9356 45.0363 35.0282 44.5759 35.2082 44.147C35.3881 43.7182 35.6517 43.3295 35.9836 43.0037C36.3154 42.6778 36.7089 42.4214 37.1409 42.2494C37.573 42.0773 38.035 41.9931 38.5 42.0016H49.75C49.2937 43.3196 49.0408 44.6995 49 46.0938C49 50.1953 53.8047 52.7734 54.0004 52.8906C54.1164 52.9522 54.2435 52.9903 54.3742 53.0027C54.505 53.0152 54.6369 53.0018 54.7625 52.9633C54.8881 52.9248 55.0048 52.8619 55.1061 52.7782C55.2074 52.6946 55.2912 52.5918 55.3527 52.4758C55.4143 52.3597 55.4524 52.2327 55.4649 52.102C55.4773 51.9712 55.4639 51.8393 55.4254 51.7137C55.3869 51.5881 55.324 51.4714 55.2403 51.3701C55.1567 51.2688 55.0539 51.185 54.9379 51.1234C54.9027 51.107 51.0027 48.9941 51.0027 46.0973C51.0517 44.8546 51.2888 43.6266 51.7059 42.4551C51.823 42.0625 51.9402 41.6734 52.041 41.2902C52.5546 39.6842 52.5681 37.96 52.0797 36.3461C51.3227 33.9461 50.8738 29.7285 52.2449 27.8594C52.4415 27.5798 52.706 27.3548 53.0135 27.2058C53.3211 27.0567 53.6615 26.9885 54.0027 27.0074C54.2492 27.0048 54.4948 27.0359 54.7328 27.1C55.1079 27.2321 55.4321 27.4786 55.6598 27.8046C55.8875 28.1307 56.0071 28.5199 56.002 28.9176V36.0074C56.002 37.8074 57.2629 38.8316 58.3762 39.7363C59.1524 40.2698 59.8004 40.9691 60.2734 41.7836C61.2445 43.5705 62.7476 45.011 64.5742 45.9051C64.7072 45.968 64.8525 46.0004 64.9996 46H67C67.2651 46 67.5194 46.1053 67.7068 46.2928C67.8943 46.4802 67.9996 46.7345 67.9996 46.9996V60.0004Z" fill="#21293E"/>
<path d="M41.912 25.7265C41.8197 25.442 41.6504 25.1886 41.4229 24.9946C41.1953 24.8005 40.9184 24.6734 40.6229 24.6273L36.3666 23.9792L34.467 19.9327C34.3385 19.6522 34.1321 19.4145 33.8725 19.2479C33.6128 19.0813 33.3107 18.9927 33.0022 18.9927C32.6937 18.9927 32.3916 19.0813 32.1319 19.2479C31.8723 19.4145 31.6659 19.6522 31.5373 19.9327L29.6401 23.9792L25.3885 24.6273C25.093 24.6734 24.8161 24.8005 24.5885 24.9946C24.361 25.1886 24.1917 25.442 24.0995 25.7265C24.0013 26.0153 23.9851 26.3258 24.0528 26.6232C24.1204 26.9207 24.2692 27.1936 24.4827 27.4116L27.5928 30.5944L26.8592 35.0862C26.807 35.3921 26.8426 35.7065 26.9619 35.993C27.0811 36.2794 27.2792 36.5262 27.5331 36.7046C27.7787 36.8792 28.0688 36.9806 28.3697 36.9972C28.6706 37.0138 28.9701 36.9449 29.2334 36.7984L33.0045 34.7136L36.7815 36.7995C37.0447 36.9458 37.3438 37.0148 37.6445 36.9984C37.9451 36.982 38.235 36.881 38.4807 36.7069C38.7348 36.5287 38.9331 36.282 39.0526 35.9955C39.172 35.709 39.2078 35.3946 39.1557 35.0886L38.4209 30.5956L41.5229 27.4128C41.7367 27.1948 41.8859 26.9218 41.9537 26.624C42.0216 26.3263 42.0055 26.0156 41.9073 25.7265H41.912ZM36.8659 29.3206C36.6852 29.506 36.5505 29.7312 36.4726 29.978C36.3946 30.2249 36.3756 30.4866 36.417 30.7421L37.0569 34.6644L33.7756 32.8527C33.5386 32.7212 33.272 32.6523 33.001 32.6523C32.73 32.6523 32.4634 32.7212 32.2264 32.8527L28.9452 34.6632L29.5862 30.7433C29.6282 30.4869 29.6096 30.2243 29.5319 29.9764C29.4542 29.7286 29.3194 29.5023 29.1385 29.3159L26.3764 26.4999L30.1381 25.9269C30.4013 25.8858 30.6503 25.7806 30.8633 25.6206C31.0762 25.4606 31.2465 25.2506 31.3592 25.0093L32.9999 21.523L34.6405 25.0105C34.7533 25.252 34.9238 25.462 35.1369 25.622C35.3501 25.782 35.5994 25.8871 35.8627 25.928L39.6233 26.5011L36.8659 29.3206Z" fill="#21293E"/>
<path d="M15.9996 43.9997H18C18.2651 43.9997 18.5194 43.8944 18.7068 43.7069C18.8943 43.5195 18.9996 43.2652 18.9996 43.0001C18.9996 42.735 18.8943 42.4807 18.7068 42.2933C18.5194 42.1058 18.2651 42.0005 18 42.0005H15.9996C15.7345 42.0005 15.4802 42.1058 15.2928 42.2933C15.1053 42.4807 15 42.735 15 43.0001C15 43.2652 15.1053 43.5195 15.2928 43.7069C15.4802 43.8944 15.7345 43.9997 15.9996 43.9997Z" fill="#21293E"/>
<path d="M21 43.0001C21 43.2652 21.1053 43.5195 21.2928 43.7069C21.4802 43.8944 21.7345 43.9997 21.9996 43.9997H30C30.2651 43.9997 30.5194 43.8944 30.7068 43.7069C30.8943 43.5195 30.9996 43.2652 30.9996 43.0001C30.9996 42.735 30.8943 42.4807 30.7068 42.2933C30.5194 42.1058 30.2651 42.0005 30 42.0005H21.9996C21.7345 42.0005 21.4802 42.1058 21.2928 42.2933C21.1053 42.4807 21 42.735 21 43.0001Z" fill="#21293E"/>
<path d="M15.9997 49H28.9994C29.1336 49.0046 29.2674 48.9821 29.3927 48.9339C29.5181 48.8857 29.6325 48.8128 29.729 48.7195C29.8256 48.6261 29.9024 48.5143 29.9549 48.3907C30.0073 48.267 30.0344 48.1341 30.0344 47.9998C30.0344 47.8655 30.0073 47.7326 29.9549 47.6089C29.9024 47.4853 29.8256 47.3735 29.729 47.2801C29.6325 47.1868 29.5181 47.1139 29.3927 47.0657C29.2674 47.0175 29.1336 46.995 28.9994 46.9996H15.9997C15.7404 47.0085 15.4946 47.1178 15.3143 47.3044C15.134 47.491 15.0332 47.7403 15.0332 47.9998C15.0332 48.2593 15.134 48.5086 15.3143 48.6953C15.4946 48.8819 15.7404 48.9911 15.9997 49Z" fill="#21293E"/>
<path d="M15.9997 54.0004H24.0001C24.2595 53.9915 24.5052 53.8822 24.6856 53.6956C24.8659 53.509 24.9667 53.2597 24.9667 53.0002C24.9667 52.7407 24.8659 52.4914 24.6856 52.3047C24.5052 52.1181 24.2595 52.0089 24.0001 52H15.9997C15.7404 52.0089 15.4946 52.1181 15.3143 52.3047C15.134 52.4914 15.0332 52.7407 15.0332 53.0002C15.0332 53.2597 15.134 53.509 15.3143 53.6956C15.4946 53.8822 15.7404 53.9915 15.9997 54.0004Z" fill="#21293E"/>
<path d="M24 63.0005H21.9996C21.7345 63.0005 21.4802 63.1058 21.2928 63.2933C21.1053 63.4807 21 63.735 21 64.0001C21 64.2652 21.1053 64.5195 21.2928 64.7069C21.4802 64.8944 21.7345 64.9997 21.9996 64.9997H24C24.2651 64.9997 24.5194 64.8944 24.7068 64.7069C24.8943 64.5195 24.9996 64.2652 24.9996 64.0001C24.9996 63.735 24.8943 63.4807 24.7068 63.2933C24.5194 63.1058 24.2651 63.0005 24 63.0005Z" fill="#21293E"/>
<path d="M15.9996 64.9997H18C18.2651 64.9997 18.5194 64.8944 18.7068 64.7069C18.8943 64.5195 18.9996 64.2652 18.9996 64.0001C18.9996 63.735 18.8943 63.4807 18.7068 63.2933C18.5194 63.1058 18.2651 63.0005 18 63.0005H15.9996C15.7345 63.0005 15.4802 63.1058 15.2928 63.2933C15.1053 63.4807 15 63.735 15 64.0001C15 64.2652 15.1053 64.5195 15.2928 64.7069C15.4802 64.8944 15.7345 64.9997 15.9996 64.9997Z" fill="#21293E"/>
<path d="M30 63.0005H27.9996C27.7345 63.0005 27.4802 63.1058 27.2928 63.2933C27.1053 63.4807 27 63.735 27 64.0001C27 64.2652 27.1053 64.5195 27.2928 64.7069C27.4802 64.8944 27.7345 64.9997 27.9996 64.9997H30C30.2651 64.9997 30.5194 64.8944 30.7068 64.7069C30.8943 64.5195 30.9996 64.2652 30.9996 64.0001C30.9996 63.735 30.8943 63.4807 30.7068 63.2933C30.5194 63.1058 30.2651 63.0005 30 63.0005Z" fill="#21293E"/>
<path d="M34.9992 64.9997C35.2643 64.9997 35.5186 64.8944 35.706 64.7069C35.8935 64.5195 35.9988 64.2652 35.9988 64.0001C35.9988 63.735 35.8935 63.4807 35.706 63.2933C35.5186 63.1058 35.2643 63.0005 34.9992 63.0005H33.9996C33.7345 63.0005 33.4802 63.1058 33.2928 63.2933C33.1053 63.4807 33 63.735 33 64.0001C33 64.2652 33.1053 64.5195 33.2928 64.7069C33.4802 64.8944 33.7345 64.9997 33.9996 64.9997H34.9992Z" fill="#21293E"/>
</svg>
