<svg width="80" height="80" viewBox="0 0 80 80" fill="none" xmlns="http://www.w3.org/2000/svg">
<rect width="80" height="80" fill="white"/>
<path d="M34.958 66.8897L33.1768 68.4893C32.8092 68.82 32.3317 69.0021 31.8373 69.0003H18.3268C17.9215 69.0011 17.5255 68.8788 17.1913 68.6496C16.8571 68.4204 16.6003 68.0951 16.4551 67.7167C16.3099 67.3383 16.283 66.9248 16.3781 66.5308C16.4731 66.1368 16.6856 65.781 16.9873 65.5104L25.2467 58.0702C25.4304 57.9082 25.6669 57.8188 25.9117 57.8188C26.1566 57.8188 26.3931 57.9082 26.5768 58.0702L27.2975 58.6995L34.2268 64.7698L34.9475 65.4003C35.0541 65.4925 35.1398 65.6065 35.1989 65.7346C35.2579 65.8627 35.2889 66.0019 35.2898 66.1429C35.2907 66.2839 35.2614 66.4235 35.204 66.5523C35.1466 66.6811 35.0623 66.7961 34.9569 66.8897H34.958Z" fill="#955BA5"/>
<path d="M34.9469 65.4003L34.2262 64.7698L27.2969 58.6995L26.5762 58.0702C26.3925 57.9082 26.156 57.8188 25.9111 57.8188C25.6662 57.8188 25.4298 57.9082 25.2461 58.0702L24.4258 58.8108L31.2227 64.7698L31.9422 65.4003C32.0487 65.4926 32.1344 65.6065 32.1934 65.7345C32.2524 65.8625 32.2835 66.0017 32.2845 66.1426C32.2855 66.2836 32.2564 66.4231 32.1992 66.552C32.142 66.6808 32.058 66.7959 31.9527 66.8897L30.1727 68.4893C29.8043 68.8195 29.3267 69.0015 28.832 69.0003H31.832C32.3267 69.0015 32.8043 68.8195 33.1727 68.4893L34.9574 66.8897C35.063 66.7963 35.1475 66.6814 35.2051 66.5527C35.2627 66.424 35.2922 66.2844 35.2915 66.1434C35.2908 66.0024 35.2601 65.8632 35.2012 65.735C35.1424 65.6068 35.0569 65.4927 34.9504 65.4003H34.9469Z" fill="#4E3355"/>
<path d="M51.9963 44.5004V51.3898C51.9963 53.1347 50.9756 53.2144 47.5268 58.1808C46.7002 59.3627 45.6001 60.3272 44.3203 60.9921C43.0406 61.6571 41.619 62.0029 40.1768 62H38.2959C37.5079 62.0023 36.7515 62.3107 36.1865 62.8601L34.226 64.7703L27.2967 58.7L28.826 57.1707C29.0138 56.9859 29.1629 56.7657 29.2647 56.5227C29.3664 56.2798 29.4189 56.019 29.4189 55.7556C29.4189 55.4922 29.3664 55.2315 29.2647 54.9885C29.1629 54.7456 29.0138 54.5253 28.826 54.3406L25.8459 51.1109C25.145 50.2393 24.8032 49.133 24.8903 48.0179C24.9774 46.9029 25.4869 45.8631 26.3147 45.1109C26.5078 44.9743 26.7438 44.9121 26.9792 44.9358C27.2146 44.9595 27.4335 45.0675 27.5955 45.2398L34.6151 52.6226C35.3479 53.3626 36.3118 53.8294 37.3467 53.9457C37.7463 54.016 37.4299 53.9961 41.9463 53.9961C43.1744 53.9685 44.3436 53.4641 45.2065 52.5898L46.9959 50.7148V44.5004C47.0101 43.8466 47.2797 43.2245 47.747 42.7671C48.2144 42.3098 48.8422 42.0537 49.4961 42.0537C50.15 42.0537 50.7779 42.3098 51.2452 42.7671C51.7125 43.2245 51.9822 43.8466 51.9963 44.5004Z" fill="#FDD7AD"/>
<path d="M49.4969 42.0005C48.9548 42.0008 48.4278 42.1791 47.9969 42.5079C48.3072 42.7391 48.5592 43.0397 48.7328 43.3856C48.9063 43.7314 48.9966 44.1131 48.9965 44.5001V51.3896C48.9965 53.1333 47.9758 53.2142 44.527 58.1806C43.7003 59.3624 42.6003 60.3269 41.3205 60.9919C40.0407 61.6569 38.6192 62.0026 37.177 61.9997H35.2961C34.508 62.0021 33.7517 62.3105 33.1867 62.8599L32.6465 63.386L34.2262 64.77L36.1867 62.8599C36.7517 62.3105 37.508 62.0021 38.2961 61.9997H40.177C41.6192 62.0026 43.0407 61.6569 44.3205 60.9919C45.6003 60.3269 46.7003 59.3624 47.527 58.1806C50.9758 53.2142 51.9965 53.1333 51.9965 51.3896V44.5001C51.9974 44.1716 51.9334 43.8461 51.8081 43.5424C51.6828 43.2388 51.4987 42.9628 51.2664 42.7305C51.0341 42.4983 50.7582 42.3142 50.4545 42.1889C50.1508 42.0636 49.8254 41.9996 49.4969 42.0005Z" fill="#F9C795"/>
<path d="M58.0363 46.0004L51.5664 52.9145C51.8479 52.4562 51.9968 51.9289 51.9965 51.391V45.4508L55.1664 42.1203C55.5142 41.7345 56.0002 41.5014 56.5188 41.4715C57.0374 41.4417 57.5469 41.6176 57.9367 41.961L57.9566 41.9809C58.4937 42.5069 58.803 43.2227 58.8179 43.9744C58.8328 44.726 58.5522 45.4535 58.0363 46.0004Z" fill="#FDD7AD"/>
<path d="M57.9566 41.9809L57.9367 41.961C57.5469 41.6176 57.0374 41.4417 56.5188 41.4715C56.0002 41.5014 55.5142 41.7345 55.1664 42.1203L55.1172 42.1719C55.5788 42.7074 55.826 43.3948 55.8111 44.1017C55.7961 44.8085 55.5202 45.4849 55.0363 46.0004L51.9965 49.2477V51.3899C51.9968 51.9277 51.8479 52.455 51.5664 52.9133L58.0363 45.9992C58.5522 45.4523 58.8328 44.7248 58.8179 43.9732C58.803 43.2215 58.4937 42.5057 57.9566 41.9797V41.9809Z" fill="#F9C795"/>
<path d="M56.998 22.5698V29.9327C56.998 33.1858 50.282 37.0003 41.998 37.0003C33.7141 37.0003 26.998 33.1858 26.998 29.9327V22.5698H56.998Z" fill="#464F5D"/>
<path d="M53.998 22.5698V29.9327C53.998 32.9866 48.0777 36.5327 40.498 36.9569C40.9902 36.9851 41.4918 37.0003 41.998 37.0003C50.282 37.0003 56.998 33.1858 56.998 29.9327V22.5698H53.998Z" fill="#393F4A"/>
<path d="M20.998 30.23C21.7937 30.23 22.5568 30.5461 23.1194 31.1087C23.682 31.6713 23.998 32.4343 23.998 33.23V36.9999C23.998 37.1313 23.9722 37.2613 23.9218 37.3827C23.8715 37.5041 23.7978 37.6143 23.7049 37.7071C23.6119 37.8 23.5016 37.8736 23.3802 37.9238C23.2587 37.9739 23.1286 37.9997 22.9973 37.9995H18.9977C18.7325 37.9995 18.4783 37.8942 18.2908 37.7067C18.1034 37.5193 17.998 37.265 17.998 36.9999V33.23C17.998 32.4343 18.3141 31.6713 18.8767 31.1087C19.4393 30.5461 20.2024 30.23 20.998 30.23Z" fill="#E8EDFC"/>
<path d="M20.998 30.23C20.4699 30.2325 19.952 30.3761 19.498 30.646C19.9521 30.9065 20.3298 31.2818 20.593 31.7343C20.8563 32.1868 20.996 32.7006 20.998 33.2241V36.9999C20.998 37.1313 20.9722 37.2613 20.9218 37.3827C20.8715 37.5041 20.7978 37.6143 20.7049 37.7071C20.6119 37.8 20.5016 37.8736 20.3802 37.9238C20.2587 37.9739 20.1286 37.9997 19.9973 37.9995H22.9973C23.1286 37.9997 23.2587 37.9739 23.3802 37.9238C23.5016 37.8736 23.6119 37.8 23.7049 37.7071C23.7978 37.6143 23.8715 37.5041 23.9218 37.3827C23.9722 37.2613 23.998 37.1313 23.998 36.9999V33.23C23.9977 32.4344 23.6816 31.6715 23.119 31.109C22.5565 30.5465 21.7936 30.2303 20.998 30.23Z" fill="#E4C05C"/>
<path d="M41.998 28.9995L20.998 19.9995L41.998 10.9995L62.998 19.9995L41.998 28.9995Z" fill="#464F5D"/>
<path d="M41.998 10.9995L40.498 11.6405L59.998 19.9972L40.498 28.355L41.998 28.9972L62.998 19.9972L41.998 10.9995Z" fill="#393F4A"/>
<path d="M18.9965 37.9994H21.9965C21.7314 37.9994 21.4771 37.8941 21.2897 37.7066C21.1022 37.5192 20.9969 37.2649 20.9969 36.9998V33.2299C20.9989 32.7064 21.1386 32.1926 21.4019 31.7401C21.6652 31.2876 22.0428 30.9123 22.4969 30.6518C21.8914 30.2923 21.1767 30.1629 20.4836 30.2873C20.135 30.3539 19.7992 30.4754 19.4887 30.6471C19.0351 30.9079 18.658 31.2833 18.3954 31.7358C18.1327 32.1884 17.9937 32.702 17.9922 33.2252V36.9998C17.9922 37.1315 18.0182 37.2618 18.0687 37.3834C18.1193 37.505 18.1933 37.6154 18.2866 37.7083C18.3799 37.8012 18.4907 37.8747 18.6125 37.9247C18.7343 37.9746 18.8648 38 18.9965 37.9994Z" fill="#F3D55B"/>
<path d="M27.2975 58.6995L26.5768 58.0702C26.3931 57.9082 26.1566 57.8188 25.9117 57.8188C25.6669 57.8188 25.4304 57.9082 25.2467 58.0702L24.4264 58.8108L16.9873 65.5104C16.6856 65.781 16.4731 66.1368 16.3781 66.5308C16.283 66.9248 16.3099 67.3383 16.4551 67.7167C16.6003 68.0951 16.8571 68.4204 17.1913 68.6496C17.5255 68.8788 17.9215 69.0011 18.3268 69.0003H21.3268C20.9215 69.0011 20.5255 68.8788 20.1913 68.6496C19.8571 68.4204 19.6003 68.0951 19.4551 67.7167C19.3099 67.3383 19.283 66.9248 19.3781 66.5308C19.4731 66.1368 19.6856 65.781 19.9873 65.5104L27.4241 58.8097L28.2444 58.069" fill="white"/>
<path d="M16.3027 64.7689L22.2465 59.417L23.5906 60.9029L17.641 66.2502L16.3027 64.7689Z" fill="white"/>
<path d="M19.9789 63.8322C19.7138 63.8335 19.4591 63.7293 19.2707 63.5428C19.0824 63.3562 18.9759 63.1024 18.9746 62.8373C18.9734 62.5722 19.0775 62.3174 19.2641 62.1291C19.4507 61.9408 19.7044 61.8343 19.9695 61.833H19.9789C20.244 61.833 20.4983 61.9383 20.6857 62.1258C20.8732 62.3133 20.9785 62.5675 20.9785 62.8326C20.9785 63.0977 20.8732 63.352 20.6857 63.5394C20.4983 63.7269 20.244 63.8322 19.9789 63.8322Z" fill="#21293E"/>
<path d="M29.9981 67.0001C30.1955 66.999 30.3881 66.9396 30.5517 66.8293C30.7154 66.719 30.8428 66.5629 30.918 66.3804C30.9931 66.1979 31.0126 65.9973 30.9741 65.8037C30.9355 65.6102 30.8406 65.4324 30.7012 65.2926L28.9352 63.5266C28.7455 63.3498 28.4946 63.2534 28.2352 63.258C27.9759 63.2625 27.7285 63.3675 27.5451 63.5509C27.3617 63.7343 27.2566 63.9818 27.2521 64.2411C27.2476 64.5004 27.3439 64.7514 27.5208 64.9411L29.2868 66.7071C29.4734 66.8936 29.7261 66.9989 29.9899 67.0001H29.9981Z" fill="#3D324C"/>
<path d="M38.2965 63.0002H40.1773C41.7811 63.0026 43.3616 62.6173 44.7844 61.8773C46.2072 61.1372 47.43 60.0642 48.3488 58.7498C49.4885 57.1033 50.714 55.5179 52.0203 54.0002C52.1436 53.8523 52.256 53.6956 52.3566 53.5314L58.7679 46.6841C59.4589 45.9383 59.8312 44.9519 59.8053 43.9355C59.7795 42.9191 59.3576 41.953 58.6297 41.2431C58.3615 40.9864 58.0448 40.7857 57.6981 40.6529C57.3513 40.5201 56.9816 40.4578 56.6105 40.4697C55.7882 40.4921 55.0083 40.8393 54.4414 41.4353L52.7492 43.2095C52.5745 42.7652 52.3109 42.3612 51.9746 42.0224C51.302 41.3954 50.4168 41.0467 49.4972 41.0467C48.5777 41.0467 47.6924 41.3954 47.0199 42.0224C46.694 42.3472 46.4358 42.7334 46.2602 43.1586C46.0846 43.5838 45.9951 44.0397 45.9969 44.4998V50.3193L44.4898 51.9002C43.8992 52.4981 43.1201 52.8736 42.2844 52.963C42.1731 52.9851 42.0602 52.9973 41.9469 52.9994H37.857C37.7252 52.9965 37.5939 52.9824 37.4644 52.9572C36.6606 52.8671 35.9118 52.5048 35.3422 51.9306L28.3226 44.5478C27.99 44.2118 27.5508 44.002 27.0803 43.9545C26.6099 43.9071 26.1376 44.0248 25.7445 44.2877C25.714 44.3086 25.6846 44.3313 25.6566 44.3556C25.1247 44.8406 24.694 45.4261 24.3895 46.0784C24.085 46.7307 23.9126 47.4368 23.8824 48.156C23.8344 48.813 23.9185 49.473 24.1299 50.097C24.3412 50.721 24.6755 51.2962 25.1129 51.7888L28.1258 55.0513C28.2204 55.1424 28.2958 55.2515 28.3474 55.3723C28.3989 55.4932 28.4256 55.6231 28.4258 55.7545C28.426 55.8876 28.3996 56.0194 28.3481 56.1422C28.2965 56.265 28.221 56.3762 28.1258 56.4693L27.2586 57.3365L27.2504 57.3306C26.885 57.0072 26.4144 56.8278 25.9264 56.8259C25.4384 56.8239 24.9664 56.9996 24.5984 57.3201C24.5942 57.3253 24.5903 57.3308 24.5867 57.3365L22.2699 59.4224C22.0738 59.5986 21.9557 59.8456 21.9416 60.1088C21.9276 60.3721 22.0187 60.6302 22.1949 60.8263C22.3711 61.0224 22.618 61.1405 22.8813 61.1546C23.1446 61.1687 23.4027 61.0776 23.5988 60.9013L25.884 58.8423C25.8945 58.8341 25.9062 58.833 25.9168 58.8236L26.6375 59.4529L33.568 65.522C33.575 65.5279 33.582 65.5291 33.589 65.5349L34.2922 66.1455L32.5156 67.7462C32.332 67.9113 32.0934 68.002 31.8465 68.0005H18.3265C18.1225 68.0025 17.9227 67.942 17.7541 67.8271C17.5854 67.7122 17.456 67.5485 17.3831 67.3579C17.3103 67.1672 17.2975 66.9589 17.3465 66.7608C17.3956 66.5627 17.5041 66.3844 17.6574 66.2498C17.7548 66.1617 17.8339 66.0552 17.8902 65.9366C17.9465 65.8179 17.9789 65.6893 17.9854 65.5581C17.992 65.4269 17.9727 65.2957 17.9286 65.172C17.8845 65.0483 17.8164 64.9345 17.7283 64.8371C17.6402 64.7397 17.5338 64.6606 17.4151 64.6043C17.2964 64.548 17.1678 64.5156 17.0366 64.509C16.9055 64.5025 16.7743 64.5218 16.6506 64.5659C16.5268 64.61 16.413 64.6781 16.3156 64.7662C15.863 65.172 15.5443 65.7058 15.4019 66.2969C15.2594 66.8879 15.2999 67.5083 15.518 68.0758C15.736 68.6433 16.1214 69.1312 16.6229 69.4747C17.1245 69.8183 17.7186 70.0014 18.3265 69.9998H31.8371C32.5783 70.0009 33.2936 69.7279 33.8457 69.2334L35.6211 67.6338C35.8255 67.4537 35.9906 67.2332 36.1057 66.9863C36.2209 66.7394 36.2838 66.4713 36.2904 66.1989C36.297 65.9265 36.2472 65.6557 36.1441 65.4035C36.041 65.1513 35.8869 64.9231 35.6914 64.7334L36.8808 63.5732C37.2603 63.2055 37.7681 63 38.2965 63.0002ZM55.8969 42.8123C56.0949 42.5984 56.3697 42.472 56.6609 42.4607C56.8834 42.4601 57.0978 42.5438 57.2609 42.6951C57.6089 43.039 57.8086 43.5052 57.8176 43.9943C57.8266 44.4834 57.6441 44.9567 57.309 45.3131L52.9965 49.9185V45.8498L55.8969 42.8123ZM26.5836 50.4353C26.328 50.1382 26.1342 49.7932 26.0135 49.4203C25.8927 49.0475 25.8475 48.6543 25.8805 48.2638C25.9193 47.3926 26.2791 46.5665 26.8906 45.9447L33.9031 53.317C34.7788 54.2123 35.9331 54.7831 37.1762 54.9353C37.4028 54.9767 37.6325 54.9982 37.8629 54.9998H41.9527C42.163 54.9994 42.3728 54.9802 42.5797 54.9423C43.8552 54.792 45.0407 54.2087 45.9383 53.29L47.7277 51.4091C47.9045 51.2233 48.0031 50.9766 48.0031 50.7201V44.4998C48.0029 44.1017 48.16 43.7197 48.4402 43.4369C48.7294 43.1691 49.109 43.0204 49.5031 43.0204C49.8972 43.0204 50.2768 43.1691 50.566 43.4369C50.8462 43.7197 51.0033 44.1017 51.0031 44.4998V51.3892C51.003 51.7426 50.9049 52.0891 50.7195 52.39C50.7019 52.4158 50.6855 52.4427 50.6703 52.4697C50.6232 52.5507 50.5683 52.6269 50.5062 52.697C49.1563 54.267 47.8897 55.9067 46.7117 57.6095C45.9773 58.6589 45.0001 59.5153 43.8634 60.1056C42.7266 60.6959 41.464 61.0027 40.1832 60.9998H38.2965C37.2458 61.0002 36.2367 61.4105 35.484 62.1435L34.1844 63.4091L28.7539 58.6513L29.5273 57.8767C29.8092 57.5974 30.0327 57.2647 30.1848 56.8982C30.3369 56.5316 30.4146 56.1384 30.4133 55.7416C30.4144 55.3554 30.3392 54.9729 30.192 54.6159C30.0448 54.2589 29.8285 53.9346 29.5554 53.6615L26.5836 50.4353Z" fill="#21293E"/>
<path d="M16.9961 33.2301V37C16.9961 37.5305 17.2068 38.0393 17.582 38.4145C17.9571 38.7896 18.4659 39.0004 18.9965 39.0004H22.9961C23.5266 39.0004 24.0354 38.7896 24.4106 38.4145C24.7857 38.0393 24.9965 37.5305 24.9965 37V33.2301C24.993 32.3459 24.6967 31.4878 24.154 30.7899C23.6112 30.0919 22.8525 29.5934 21.9965 29.3723V21.5207L25.9961 23.2352V29.9348C25.9961 34.1594 33.6227 38.0043 41.9969 38.0043C50.3711 38.0043 57.9965 34.1547 57.9965 29.9301V23.2305L63.3871 20.9195C63.5668 20.8422 63.7199 20.714 63.8275 20.5506C63.9351 20.3872 63.9924 20.1958 63.9924 20.0002C63.9924 19.8046 63.9351 19.6132 63.8275 19.4498C63.7199 19.2864 63.5668 19.1582 63.3871 19.0809L42.3906 10.0809C42.266 10.0275 42.1318 10 41.9963 10C41.8607 10 41.7266 10.0275 41.6019 10.0809L20.6102 19.0809C20.4339 19.1631 20.2839 19.2924 20.1765 19.4545C20.0692 19.6166 20.0088 19.8053 20.002 19.9996V29.3746C19.1459 29.5958 18.3872 30.0943 17.8445 30.7922C17.3017 31.4902 17.0054 32.3483 17.002 33.2324L16.9961 33.2301ZM55.9961 29.9301C55.9961 32.3195 49.9844 36.0004 41.9969 36.0004C34.0094 36.0004 27.9965 32.3195 27.9965 29.9301V24.0883L41.6019 29.9219C41.7266 29.9752 41.8607 30.0027 41.9963 30.0027C42.1318 30.0027 42.266 29.9752 42.3906 29.9219L55.9961 24.0906V29.9301ZM41.9969 12.0883L60.4574 19.9996L56.6148 21.6473H56.5996L41.9969 27.9121L27.3965 21.6531H27.3812L25.8684 21.0062H41.9969C42.2562 20.9974 42.502 20.8881 42.6823 20.7015C42.8626 20.5149 42.9634 20.2655 42.9634 20.0061C42.9634 19.7466 42.8626 19.4972 42.6823 19.3106C42.502 19.124 42.2562 19.0147 41.9969 19.0059H25.8684L41.9969 12.0883ZM18.9965 33.2301C18.99 32.9634 19.037 32.6981 19.1346 32.4498C19.2322 32.2015 19.3784 31.9753 19.5648 31.7844C19.7511 31.5935 19.9738 31.4418 20.2196 31.3382C20.4654 31.2346 20.7295 31.1813 20.9963 31.1813C21.2631 31.1813 21.5271 31.2346 21.773 31.3382C22.0188 31.4418 22.2415 31.5935 22.4278 31.7844C22.6141 31.9753 22.7604 32.2015 22.858 32.4498C22.9556 32.6981 23.0025 32.9634 22.9961 33.2301V37H18.9965V33.2301Z" fill="#21293E"/>
<path d="M10.8022 23.3232L12.7639 23.7111C12.83 23.7238 12.8971 23.7301 12.9643 23.7299C13.2111 23.7281 13.4484 23.6351 13.6307 23.4688C13.813 23.3026 13.9273 23.0748 13.9518 22.8293C13.9762 22.5838 13.909 22.3379 13.763 22.139C13.6171 21.94 13.4027 21.8021 13.1612 21.7517L11.1972 21.3674C11.0683 21.3417 10.9357 21.3417 10.8069 21.3674C10.6781 21.393 10.5556 21.4437 10.4464 21.5167C10.2259 21.664 10.0729 21.893 10.0212 22.1531C9.96943 22.4132 10.0231 22.6833 10.1705 22.9038C10.3178 23.1244 10.5468 23.2773 10.8069 23.3291L10.8022 23.3232Z" fill="#F0C419"/>
<path d="M66.8405 34.2485L68.8022 34.6388C68.8683 34.6514 68.9354 34.6577 69.0026 34.6575C69.251 34.6577 69.4906 34.5653 69.6746 34.3985C69.8587 34.2317 69.974 34.0023 69.9982 33.755C70.0223 33.5078 69.9535 33.2604 69.8052 33.0611C69.6569 32.8619 69.4397 32.7249 69.196 32.677L67.2343 32.2868C66.9741 32.2351 66.7041 32.2888 66.4835 32.4361C66.263 32.5835 66.11 32.8124 66.0583 33.0725C66.0065 33.3327 66.0602 33.6027 66.2076 33.8233C66.355 34.0438 66.5839 34.1968 66.844 34.2485H66.8405Z" fill="#F0C419"/>
<path d="M10.9968 34.6575C11.064 34.6578 11.1311 34.6515 11.1972 34.6388L13.1612 34.2485C13.4214 34.1968 13.6503 34.0438 13.7977 33.8233C13.945 33.6027 13.9987 33.3327 13.947 33.0725C13.8952 32.8124 13.7423 32.5835 13.5217 32.4361C13.3012 32.2888 13.0311 32.2351 12.771 32.2868L10.8069 32.677C10.5635 32.7249 10.3465 32.8615 10.1982 33.0604C10.0499 33.2593 9.98089 33.5063 10.0046 33.7533C10.0282 34.0003 10.1429 34.2296 10.3263 34.3967C10.5097 34.5639 10.7487 34.6568 10.9968 34.6575Z" fill="#F0C419"/>
<path d="M67.035 23.7319C67.1019 23.7321 67.1686 23.7258 67.2343 23.7132L69.196 23.3229C69.3321 23.3058 69.4633 23.2607 69.5813 23.1907C69.6994 23.1206 69.8017 23.027 69.8819 22.9157C69.9622 22.8043 70.0186 22.6776 70.0478 22.5435C70.077 22.4094 70.0782 22.2707 70.0514 22.1361C70.0246 22.0015 69.9704 21.8739 69.8922 21.7611C69.8139 21.6484 69.7133 21.553 69.5965 21.4808C69.4798 21.4087 69.3494 21.3613 69.2135 21.3418C69.0777 21.3222 68.9393 21.3308 68.8069 21.3671L66.844 21.7573C66.6002 21.8052 66.3829 21.9422 66.2346 22.1416C66.0863 22.341 66.0176 22.5885 66.0419 22.8359C66.0662 23.0832 66.1817 23.3126 66.366 23.4793C66.5503 23.6461 66.79 23.7382 67.0386 23.7378L67.035 23.7319Z" fill="#F0C419"/>
<path d="M15.3286 45.1109C15.5263 45.1113 15.7196 45.053 15.8841 44.9433L17.547 43.8324C17.7675 43.685 17.9204 43.4561 17.9722 43.196C18.0239 42.936 17.9703 42.6659 17.8229 42.4454C17.6756 42.2249 17.4467 42.072 17.1866 42.0202C16.9265 41.9685 16.6565 42.0221 16.436 42.1695L14.772 43.2816C14.5937 43.4008 14.4585 43.5742 14.3864 43.7762C14.3142 43.9782 14.309 44.1981 14.3714 44.4033C14.4338 44.6085 14.5605 44.7881 14.7329 44.9158C14.9053 45.0434 15.1141 45.1122 15.3286 45.112V45.1109Z" fill="#F0C419"/>
<path d="M63.0042 13.9998C63.202 13.9999 63.3954 13.9412 63.5597 13.831L65.2225 12.7201C65.3319 12.647 65.4258 12.5532 65.4988 12.4439C65.5719 12.3346 65.6227 12.212 65.6484 12.083C65.6741 11.9541 65.6741 11.8213 65.6485 11.6924C65.6229 11.5634 65.5721 11.4407 65.4991 11.3314C65.4261 11.2221 65.3322 11.1282 65.2229 11.0551C65.1136 10.982 64.991 10.9312 64.862 10.9055C64.7331 10.8798 64.6004 10.8798 64.4714 10.9054C64.3424 10.931 64.2198 10.9818 64.1104 11.0548L62.4475 12.1681C62.2687 12.2872 62.1331 12.4607 62.0606 12.6629C61.9881 12.8651 61.9827 13.0853 62.0451 13.2908C62.1076 13.4963 62.2346 13.6763 62.4074 13.804C62.5801 13.9317 62.7894 14.0003 63.0042 13.9998Z" fill="#F0C419"/>
<path d="M16.4352 13.8312C16.5444 13.9041 16.6669 13.9548 16.7956 13.9805C16.9244 14.0061 17.057 14.0061 17.1858 13.9804C17.3146 13.9548 17.4371 13.9041 17.5462 13.8311C17.6554 13.7581 17.7492 13.6644 17.8221 13.5552C17.895 13.446 17.9458 13.3235 17.9714 13.1947C17.997 13.0659 17.997 12.9334 17.9713 12.8046C17.9457 12.6758 17.895 12.5533 17.822 12.4441C17.7491 12.335 17.6553 12.2412 17.5461 12.1683L15.8832 11.055C15.6627 10.9177 15.3974 10.8715 15.1435 10.9263C14.8895 10.981 14.6668 11.1323 14.5224 11.3482C14.378 11.5642 14.3232 11.8278 14.3696 12.0834C14.416 12.339 14.56 12.5665 14.7711 12.7179L16.4352 13.8312Z" fill="#F0C419"/>
<path d="M63.561 42.1688C63.3404 42.0315 63.0752 41.9853 62.8212 42.04C62.5673 42.0948 62.3446 42.2461 62.2001 42.462C62.0557 42.6779 62.0009 42.9416 62.0474 43.1972C62.0938 43.4528 62.2377 43.6803 62.4489 43.8317L64.1117 44.9426C64.3321 45.0761 64.5954 45.1194 64.8469 45.0637C65.0984 45.0079 65.3187 44.8573 65.462 44.6432C65.6053 44.4292 65.6605 44.1681 65.6161 43.9143C65.5718 43.6606 65.4313 43.4337 65.2239 43.2809L63.561 42.1688Z" fill="#F0C419"/>
</svg>
