<svg width="80" height="80" viewBox="0 0 80 80" fill="none" xmlns="http://www.w3.org/2000/svg">
<rect width="80" height="80" fill="white"/>
<path d="M52.9916 21.0054V64.9958C52.9916 66.0564 52.5703 67.0737 51.8204 67.8238C51.0706 68.5739 50.0534 68.9954 48.9928 68.9957H15C13.9392 68.9954 12.922 68.5739 12.1719 67.8238C11.4218 67.0738 11.0003 66.0565 11 64.9958V21.0054C11.0003 19.9446 11.4218 18.9274 12.1719 18.1773C12.922 17.4272 13.9392 17.0057 15 17.0054H20.9988V25.0042C21.0003 25.5339 21.2114 26.0415 21.5859 26.4162C21.9603 26.791 22.4678 27.0023 22.9976 27.0042H40.994C41.524 27.0026 42.0318 26.7914 42.4065 26.4167C42.7812 26.0419 42.9924 25.5341 42.994 25.0042V17.0054H48.9928C50.0534 17.0057 51.0706 17.4272 51.8204 18.1774C52.5703 18.9275 52.9916 19.9447 52.9916 21.0054Z" fill="#F3D55B"/>
<path d="M48.9916 17.0054H45.9922C47.0528 17.0057 48.07 17.4272 48.8198 18.1774C49.5697 18.9275 49.991 19.9447 49.991 21.0054V64.9958C49.991 66.0564 49.5697 67.0737 48.8198 67.8238C48.07 68.5739 47.0528 68.9954 45.9922 68.9957H48.9916C50.0522 68.9954 51.0694 68.5739 51.8192 67.8238C52.5691 67.0737 52.9904 66.0564 52.9904 64.9958V21.0054C52.9904 19.9447 52.5691 18.9275 51.8192 18.1774C51.0694 17.4272 50.0522 17.0057 48.9916 17.0054Z" fill="#E4C05C"/>
<path d="M67.9825 60.7393C68.0451 61.7066 67.8207 62.6708 67.3373 63.5111C66.8539 64.3513 66.1332 65.03 65.2655 65.4621H62.7136C61.8459 65.03 61.1252 64.3513 60.6418 63.5111C60.1584 62.6708 59.934 61.7066 59.9966 60.7393H67.9825Z" fill="#515E7A"/>
<path d="M59.9902 20.0049H67.9878V38.2719H59.9902V20.0049Z" fill="#76DBFB"/>
<path d="M64.9883 20.0049H67.9877V38.2719H64.9883V20.0049Z" fill="#43C3EB"/>
<path d="M66.9879 38.0015H60.9902C59.8857 38.0015 58.9902 38.8969 58.9902 40.0015V58.9973C58.9902 60.1018 59.8857 60.9973 60.9902 60.9973H66.9879C68.0924 60.9973 68.9878 60.1018 68.9878 58.9973V40.0015C68.9878 38.8969 68.0924 38.0015 66.9879 38.0015Z" fill="#76DBFB"/>
<path d="M66.9896 38.0015H63.9902C64.5207 38.0015 65.0294 38.2122 65.4044 38.5872C65.7795 38.9623 65.9902 39.471 65.9902 40.0015V58.9973C65.9902 59.5277 65.7795 60.0364 65.4044 60.4115C65.0294 60.7865 64.5207 60.9973 63.9902 60.9973H66.9896C67.5201 60.9973 68.0288 60.7865 68.4038 60.4115C68.7789 60.0364 68.9896 59.5277 68.9896 58.9973V40.0015C68.9896 39.471 68.7789 38.9623 68.4038 38.5872C68.0288 38.2122 67.5201 38.0015 66.9896 38.0015Z" fill="#43C3EB"/>
<path d="M64.989 20.0046H59.9908C59.8595 20.0047 59.7294 19.979 59.608 19.9288C59.4866 19.8787 59.3763 19.8051 59.2834 19.7123C59.1904 19.6194 59.1167 19.5092 59.0664 19.3879C59.0161 19.2666 58.9902 19.1365 58.9902 19.0052V16.0058C58.9902 15.8744 59.0161 15.7444 59.0664 15.623C59.1167 15.5017 59.1904 15.3915 59.2834 15.2987C59.3763 15.2058 59.4866 15.1322 59.608 15.0821C59.7294 15.0319 59.8595 15.0062 59.9908 15.0063H67.9884C68.1198 15.0062 68.2499 15.0319 68.3712 15.0821C68.4926 15.1322 68.603 15.2058 68.6959 15.2987C68.7888 15.3915 68.8625 15.5017 68.9128 15.623C68.9631 15.7444 68.989 15.8744 68.989 16.0058V19.0052L64.989 20.0046Z" fill="#43C3EB"/>
<path d="M62.9896 11.0068H64.9884C65.7839 11.0068 66.5469 11.3228 67.1093 11.8853C67.6718 12.4478 67.9878 13.2107 67.9878 14.0062V15.0068H59.9902V14.0062C59.9902 13.2107 60.3062 12.4478 60.8687 11.8853C61.4312 11.3228 62.1941 11.0068 62.9896 11.0068Z" fill="#43C3EB"/>
<path d="M63.9883 68.9956C65.0928 68.9956 65.9883 68.1002 65.9883 66.9956C65.9883 65.891 65.0928 64.9956 63.9883 64.9956C62.8837 64.9956 61.9883 65.891 61.9883 66.9956C61.9883 68.1002 62.8837 68.9956 63.9883 68.9956Z" fill="#515E7A"/>
<path d="M64.9883 15.0063H67.9877C68.119 15.0062 68.2491 15.0319 68.3705 15.0821C68.4919 15.1322 68.6022 15.2058 68.6951 15.2987C68.7881 15.3915 68.8618 15.5017 68.9121 15.623C68.9624 15.7444 68.9883 15.8744 68.9883 16.0058V28.0034C68.9883 28.1347 68.9624 28.2648 68.9121 28.3861C68.8618 28.5074 68.7881 28.6176 68.6951 28.7105C68.6022 28.8033 68.4919 28.8769 68.3705 28.927C68.2491 28.9772 68.119 29.0029 67.9877 29.0028H65.9889C65.8575 29.0029 65.7274 28.9772 65.606 28.927C65.4847 28.8769 65.3743 28.8033 65.2814 28.7105C65.1885 28.6176 65.1148 28.5074 65.0645 28.3861C65.0142 28.2648 64.9883 28.1347 64.9883 28.0034V15.0063Z" fill="#43C3EB"/>
<path d="M42.994 21.0059H47.9934C48.2585 21.0059 48.5127 21.1112 48.7001 21.2986C48.8875 21.486 48.9928 21.7402 48.9928 22.0053V63.9969C48.9928 64.2619 48.8875 64.5161 48.7001 64.7036C48.5127 64.891 48.2585 64.9963 47.9934 64.9963H15.9994C15.7343 64.9963 15.4801 64.891 15.2927 64.7036C15.1053 64.5161 15 64.2619 15 63.9969V22.0053C15 21.7402 15.1053 21.486 15.2927 21.2986C15.4801 21.1112 15.7343 21.0059 15.9994 21.0059H42.994Z" fill="#F4EECE"/>
<path d="M47.9935 21.0059H44.9941C45.2592 21.0059 45.5134 21.1112 45.7008 21.2986C45.8883 21.486 45.9935 21.7402 45.9935 22.0053V63.9969C45.9935 64.2619 45.8883 64.5161 45.7008 64.7036C45.5134 64.891 45.2592 64.9963 44.9941 64.9963H47.9935C48.2586 64.9963 48.5128 64.891 48.7002 64.7036C48.8877 64.5161 48.9929 64.2619 48.9929 63.9969V22.0053C48.9929 21.7402 48.8877 21.486 48.7002 21.2986C48.5128 21.1112 48.2586 21.0059 47.9935 21.0059Z" fill="#F6E9B7"/>
<path d="M42.9933 17.0053V25.0041C42.9917 25.5341 42.7805 26.0419 42.4058 26.4166C42.031 26.7914 41.5232 27.0026 40.9933 27.0041H22.9969C22.4671 27.0023 21.9596 26.7909 21.5851 26.4162C21.2106 26.0415 20.9996 25.5339 20.998 25.0041V17.0053H24.2576C24.6999 17.005 25.1295 16.8574 25.4787 16.5859C25.8279 16.3143 26.0768 15.9343 26.1861 15.5056C26.5181 14.2174 27.2689 13.076 28.3205 12.2611C29.3721 11.4461 30.6647 11.0039 31.9951 11.0039C33.3254 11.0039 34.6181 11.4461 35.6696 12.2611C36.7212 13.076 37.472 14.2174 37.8041 15.5056C37.9145 15.9339 38.1638 16.3134 38.513 16.5848C38.8622 16.8561 39.2915 17.0041 39.7338 17.0053H42.9933Z" fill="#F3D55B"/>
<path d="M39.9941 17.0054V25.0042C39.9926 25.5341 39.7814 26.0419 39.4066 26.4167C39.0319 26.7914 38.5241 27.0026 37.9941 27.0042H40.9935C41.5235 27.0026 42.0313 26.7914 42.406 26.4167C42.7808 26.0419 42.992 25.5341 42.9935 25.0042V17.0054H39.9941Z" fill="#E4C05C"/>
<path d="M31.9961 19.0054C33.1006 19.0054 33.9961 18.1099 33.9961 17.0054C33.9961 15.9008 33.1006 15.0054 31.9961 15.0054C30.8915 15.0054 29.9961 15.9008 29.9961 17.0054C29.9961 18.1099 30.8915 19.0054 31.9961 19.0054Z" fill="#E8EDFC"/>
<path d="M27.9962 32.0024H19.9975C19.4455 32.0024 18.998 32.4499 18.998 33.0019V41.0006C18.998 41.5526 19.4455 42 19.9975 42H27.9962C28.5482 42 28.9957 41.5526 28.9957 41.0006V33.0019C28.9957 32.4499 28.5482 32.0024 27.9962 32.0024Z" fill="#F4EECE"/>
<path d="M27.9962 47.9985H19.9975C19.4455 47.9985 18.998 48.446 18.998 48.9979V56.9967C18.998 57.5487 19.4455 57.9961 19.9975 57.9961H27.9962C28.5482 57.9961 28.9957 57.5487 28.9957 56.9967V48.9979C28.9957 48.446 28.5482 47.9985 27.9962 47.9985Z" fill="#F4EECE"/>
<path d="M17.9994 68.9957C16.9386 68.9954 15.9214 68.5739 15.1713 67.8238C14.4212 67.0738 13.9997 66.0565 13.9994 64.9958V21.0054C13.9997 19.9446 14.4212 18.9274 15.1713 18.1773C15.9214 17.4272 16.9386 17.0057 17.9994 17.0054H15C13.9392 17.0057 12.922 17.4272 12.1719 18.1773C11.4218 18.9274 11.0003 19.9446 11 21.0054V64.9958C11.0003 66.0565 11.4218 67.0738 12.1719 67.8238C12.922 68.5739 13.9392 68.9954 15 68.9957H17.9994Z" fill="white"/>
<path d="M10 21.0059H12V29.0035H10V21.0059Z" fill="white"/>
<path d="M68.9884 14.285V14.0061C68.9881 12.9455 68.5666 11.9284 67.8164 11.1785C67.0663 10.4286 66.0491 10.0073 64.9884 10.0073H62.9896C61.929 10.0073 60.9117 10.4286 60.1616 11.1785C59.4115 11.9284 58.99 12.9455 58.9896 14.0061V14.285C58.6868 14.459 58.435 14.7097 58.2596 15.0118C58.0841 15.3139 57.9913 15.6568 57.9902 16.0061V19.0055C57.9913 19.3549 58.0841 19.6978 58.2596 19.9999C58.435 20.302 58.6868 20.5526 58.9896 20.7267V37.7822C58.6765 38.0611 58.4256 38.4029 58.2534 38.7853C58.0812 39.1676 57.9916 39.582 57.9902 40.0013V58.9971C57.9916 59.4201 58.0828 59.838 58.2579 60.223C58.4331 60.608 58.6881 60.9513 59.006 61.2303C59.0204 62.1018 59.2336 62.9586 59.6294 63.7352C60.0251 64.5118 60.5929 65.1879 61.2896 65.7118C61.0936 66.1133 60.9911 66.5539 60.9896 67.0006C60.9896 67.7961 61.3056 68.559 61.8681 69.1215C62.4306 69.684 63.1935 70 63.989 70C64.7845 70 65.5474 69.684 66.1099 69.1215C66.6724 68.559 66.9884 67.7961 66.9884 67.0006C66.9868 66.5539 66.8843 66.1133 66.6885 65.7118C67.3851 65.1881 67.9529 64.5123 68.3487 63.7358C68.7444 62.9594 68.9576 62.1028 68.972 61.2314C69.2901 60.9524 69.5452 60.6088 69.7204 60.2236C69.8955 59.8384 69.9867 59.4203 69.9878 58.9971V40.0013C69.9865 39.582 69.8968 39.1676 69.7246 38.7853C69.5524 38.4029 69.3016 38.0611 68.9884 37.7822V29.7249C69.2913 29.5508 69.5431 29.3002 69.7185 28.9981C69.8939 28.696 69.9868 28.3531 69.9878 28.0037V16.0061C69.9868 15.6568 69.8939 15.3139 69.7185 15.0118C69.5431 14.7097 69.2913 14.459 68.9884 14.285ZM65.989 28.0037V16.0061H67.9878V28.0037H65.989ZM59.9902 16.0061H63.989V19.0055H59.9902V16.0061ZM62.9896 12.0073H64.9884C65.251 12.0072 65.5111 12.0587 65.7537 12.1591C65.9964 12.2595 66.2168 12.4067 66.4026 12.5923C66.5883 12.778 66.7356 12.9984 66.8362 13.2409C66.9367 13.4835 66.9884 13.7435 66.9884 14.0061H60.9896C60.9896 13.7435 61.0414 13.4835 61.1419 13.2409C61.2424 12.9984 61.3898 12.778 61.5755 12.5923C61.7612 12.4067 61.9817 12.2595 62.2243 12.1591C62.467 12.0587 62.727 12.0072 62.9896 12.0073ZM65.2532 64.2859C64.8589 64.0957 64.4268 63.9969 63.989 63.9969C63.5513 63.9969 63.1191 64.0957 62.7248 64.2859C61.9122 63.7572 61.3319 62.9384 61.1021 61.9965H66.876C66.6462 62.9384 66.0659 63.7572 65.2532 64.2859ZM67.9878 40.0013V58.9971C67.988 59.1285 67.9623 59.2586 67.9121 59.3799C67.8619 59.5013 67.7884 59.6116 67.6955 59.7046C67.6027 59.7975 67.4925 59.8712 67.3712 59.9215C67.2498 59.9718 67.1198 59.9977 66.9884 59.9977H60.9896C60.8583 59.9977 60.7282 59.9718 60.6069 59.9215C60.4856 59.8712 60.3754 59.7975 60.2825 59.7046C60.1897 59.6116 60.1161 59.5013 60.066 59.3799C60.0158 59.2586 59.9901 59.1285 59.9902 58.9971V40.0013C59.9902 39.7363 60.0955 39.4821 60.2829 39.2946C60.4704 39.1072 60.7246 39.0019 60.9896 39.0019H66.9884C67.2535 39.0019 67.5077 39.1072 67.6951 39.2946C67.8825 39.4821 67.9878 39.7363 67.9878 40.0013ZM63.989 67.9953C63.7914 67.9953 63.5981 67.9367 63.4338 67.8269C63.2694 67.7171 63.1413 67.561 63.0657 67.3784C62.9901 67.1958 62.9703 66.9948 63.0088 66.8009C63.0474 66.6071 63.1426 66.429 63.2823 66.2892C63.4221 66.1495 63.6002 66.0543 63.7941 66.0157C63.9879 65.9771 64.1889 65.9969 64.3715 66.0726C64.5541 66.1482 64.7102 66.2763 64.82 66.4407C64.9298 66.605 64.9884 66.7983 64.9884 66.9959C64.9884 67.261 64.8831 67.5152 64.6957 67.7026C64.5083 67.89 64.2541 67.9953 63.989 67.9953ZM60.9896 37.0019V21.0055H63.989V28.0037C63.989 28.5342 64.1997 29.0429 64.5748 29.4179C64.9499 29.793 65.4586 30.0037 65.989 30.0037H66.9884V37.0019H60.9896Z" fill="#21293E"/>
<path d="M10.9994 26.0037C11.5514 26.0037 11.9988 25.5563 11.9988 25.0043C11.9988 24.4523 11.5514 24.0049 10.9994 24.0049C10.4475 24.0049 10 24.4523 10 25.0043C10 25.5563 10.4475 26.0037 10.9994 26.0037Z" fill="#21293E"/>
<path d="M48.9922 69.9954C50.3176 69.9939 51.5884 69.4667 52.5256 68.5294C53.4628 67.5922 53.99 66.3215 53.9916 64.996V21.0056C53.99 19.6802 53.4628 18.4095 52.5256 17.4722C51.5884 16.535 50.3176 16.0078 48.9922 16.0062H39.7362C39.5152 16.0044 39.301 15.9294 39.1272 15.7928C38.9533 15.6563 38.8296 15.466 38.7755 15.2517C38.3882 13.7488 37.5122 12.4173 36.2855 11.4666C35.0587 10.5159 33.5507 10 31.9987 10C30.4467 10 28.9387 10.5159 27.712 11.4666C26.4852 12.4173 25.6093 13.7488 25.222 15.2517C25.1678 15.466 25.0441 15.6563 24.8703 15.7928C24.6964 15.9294 24.4822 16.0044 24.2612 16.0062H15.0052C13.6788 16.0062 12.4066 16.5328 11.4681 17.4702C10.5296 18.4076 10.0016 19.6792 10 21.0056C10.0089 21.2649 10.1181 21.5106 10.3047 21.6909C10.4913 21.8712 10.7406 21.972 11 21.972C11.2594 21.972 11.5087 21.8712 11.6953 21.6909C11.8819 21.5106 11.9911 21.2649 12 21.0056C12 20.2101 12.316 19.4472 12.8785 18.8847C13.441 18.3222 14.2039 18.0062 14.9994 18.0062H19.9976V20.005H15.9988C15.4684 20.005 14.9597 20.2157 14.5846 20.5908C14.2095 20.9659 13.9988 21.4746 13.9988 22.005V63.9966C13.9988 64.527 14.2095 65.0358 14.5846 65.4108C14.9597 65.7859 15.4684 65.9966 15.9988 65.9966H47.9928C48.2554 65.9966 48.5154 65.9449 48.758 65.8443C49.0006 65.7438 49.221 65.5965 49.4066 65.4108C49.5922 65.225 49.7394 65.0045 49.8398 64.7619C49.9402 64.5193 49.9918 64.2592 49.9916 63.9966V22.005C49.9918 21.7424 49.9402 21.4824 49.8398 21.2397C49.7394 20.9971 49.5922 20.7766 49.4066 20.5909C49.221 20.4052 49.0006 20.2578 48.758 20.1573C48.5154 20.0568 48.2554 20.005 47.9928 20.005H43.9928V18.0062H48.9922C49.7877 18.0062 50.5506 18.3222 51.1131 18.8847C51.6756 19.4472 51.9916 20.2101 51.9916 21.0056V64.996C51.9916 65.7915 51.6756 66.5544 51.1131 67.1169C50.5506 67.6794 49.7877 67.9954 48.9922 67.9954H14.9994C14.2039 67.9954 13.441 67.6794 12.8785 67.1169C12.316 66.5544 12 65.7915 12 64.996V29.0032C11.9911 28.7439 11.8819 28.4982 11.6953 28.3179C11.5087 28.1377 11.2594 28.0369 11 28.0369C10.7406 28.0369 10.4913 28.1377 10.3047 28.3179C10.1181 28.4982 10.0089 28.7439 10 29.0032V64.996C10.0016 66.3215 10.5288 67.5922 11.466 68.5294C12.4032 69.4667 13.6739 69.9939 14.9994 69.9954H48.9922ZM47.9928 22.005V63.9966H15.9988V22.005H19.9976V25.0044C19.9976 25.3983 20.0752 25.7883 20.2259 26.1522C20.3767 26.5161 20.5976 26.8468 20.8761 27.1253C21.1546 27.4038 21.4853 27.6248 21.8492 27.7755C22.2131 27.9262 22.6031 28.0038 22.997 28.0038H40.9934C41.3873 28.0038 41.7773 27.9262 42.1412 27.7755C42.5051 27.6248 42.8358 27.4038 43.1143 27.1253C43.3928 26.8468 43.6138 26.5161 43.7645 26.1522C43.9152 25.7883 43.9928 25.3983 43.9928 25.0044V22.005H47.9928ZM41.994 25.0044C41.994 25.1358 41.9681 25.2658 41.9178 25.3872C41.8675 25.5085 41.7938 25.6187 41.7009 25.7115C41.6079 25.8043 41.4976 25.8779 41.3762 25.9281C41.2548 25.9783 41.1247 26.004 40.9934 26.0038H22.997C22.8658 26.0038 22.7358 25.978 22.6146 25.9278C22.4933 25.8775 22.3831 25.8039 22.2903 25.7111C22.1975 25.6183 22.1239 25.5081 22.0737 25.3869C22.0234 25.2656 21.9976 25.1357 21.9976 25.0044V18.0062H24.2577C24.923 18.0048 25.5689 17.7822 26.0939 17.3735C26.6188 16.9648 26.993 16.3931 27.1575 15.7485C27.435 14.6758 28.0609 13.7258 28.937 13.0475C29.8131 12.3692 30.8896 12.0012 31.9975 12.0012C33.1055 12.0012 34.182 12.3692 35.0581 13.0475C35.9342 13.7258 36.5601 14.6758 36.8376 15.7485C37.0028 16.3915 37.3766 16.9615 37.9005 17.3692C38.4245 17.7769 39.0688 17.9993 39.7327 18.0015H41.994V25.0044Z" fill="#21293E"/>
<path d="M31.9955 20.0047C32.5887 20.0047 33.1686 19.8287 33.6619 19.4992C34.1551 19.1696 34.5396 18.7011 34.7666 18.1531C34.9936 17.605 35.053 17.0019 34.9373 16.4201C34.8215 15.8383 34.5359 15.3038 34.1164 14.8844C33.6969 14.4649 33.1625 14.1792 32.5806 14.0635C31.9988 13.9478 31.3957 14.0072 30.8477 14.2342C30.2996 14.4612 29.8312 14.8456 29.5016 15.3389C29.172 15.8321 28.9961 16.412 28.9961 17.0053C28.9961 17.8008 29.3121 18.5637 29.8746 19.1262C30.4371 19.6887 31.2 20.0047 31.9955 20.0047ZM31.9955 16.0059C32.1935 16.0056 32.3871 16.0641 32.5518 16.174C32.7166 16.2838 32.845 16.4401 32.9209 16.623C32.9967 16.8059 33.0166 17.0071 32.9781 17.2013C32.9395 17.3956 32.8442 17.5739 32.7042 17.7139C32.5642 17.854 32.3858 17.9493 32.1916 17.9878C31.9974 18.0264 31.7961 18.0065 31.6132 17.9306C31.4303 17.8547 31.2741 17.7263 31.1642 17.5616C31.0544 17.3969 30.9959 17.2033 30.9961 17.0053C30.9961 16.7402 31.1014 16.486 31.2888 16.2986C31.4762 16.1111 31.7304 16.0059 31.9955 16.0059Z" fill="#21293E"/>
<path d="M37.9932 22.005H25.9956C25.7364 22.0139 25.4906 22.1231 25.3104 22.3097C25.1301 22.4962 25.0293 22.7455 25.0293 23.005C25.0293 23.2644 25.1301 23.5137 25.3104 23.7003C25.4906 23.8869 25.7364 23.9961 25.9956 24.005H37.9932C38.1274 24.0096 38.2612 23.9871 38.3865 23.9389C38.5119 23.8907 38.6262 23.8178 38.7228 23.7245C38.8193 23.6312 38.8961 23.5194 38.9486 23.3958C39.001 23.2722 39.0281 23.1393 39.0281 23.005C39.0281 22.8707 39.001 22.7378 38.9486 22.6142C38.8961 22.4906 38.8193 22.3788 38.7228 22.2855C38.6262 22.1921 38.5119 22.1192 38.3865 22.071C38.2612 22.0229 38.1274 22.0004 37.9932 22.005Z" fill="#21293E"/>
<path d="M27.9957 46.9995H19.9969C19.7343 46.9995 19.4743 47.0513 19.2317 47.1518C18.9891 47.2523 18.7687 47.3996 18.5831 47.5854C18.3975 47.7711 18.2502 47.9916 18.1499 48.2342C18.0495 48.4769 17.9979 48.7369 17.998 48.9995V56.9983C17.998 57.2608 18.0497 57.5207 18.1502 57.7632C18.2506 58.0057 18.3979 58.2261 18.5835 58.4117C18.7691 58.5973 18.9894 58.7445 19.232 58.845C19.4745 58.9454 19.7344 58.9971 19.9969 58.9971H27.9957C28.2582 58.9973 28.5183 58.9457 28.7609 58.8453C29.0036 58.7449 29.2241 58.5977 29.4098 58.4121C29.5955 58.2265 29.7429 58.0061 29.8434 57.7635C29.9439 57.5209 29.9956 57.2609 29.9956 56.9983V48.9995C29.9956 48.4691 29.7849 47.9604 29.4099 47.5853C29.0348 47.2102 28.5261 46.9995 27.9957 46.9995ZM19.9969 56.9983V48.9995H27.9957V56.9983H19.9969Z" fill="#21293E"/>
<path d="M29.0794 30.4101L28.5733 31.0967C28.3865 31.0364 28.1919 31.0045 27.9957 31.0018H19.9969C19.7343 31.0018 19.4743 31.0535 19.2317 31.154C18.9891 31.2546 18.7687 31.4019 18.5831 31.5876C18.3975 31.7734 18.2502 31.9939 18.1499 32.2365C18.0495 32.4791 17.9979 32.7392 17.998 33.0018V40.9994C17.9977 41.2621 18.0492 41.5222 18.1495 41.765C18.2498 42.0078 18.397 42.2284 18.5827 42.4143C18.7683 42.6001 18.9888 42.7476 19.2314 42.8482C19.4741 42.9488 19.7342 43.0006 19.9969 43.0006H27.9957C28.5261 43.0006 29.0348 42.7898 29.4099 42.4148C29.7849 42.0397 29.9956 41.531 29.9956 41.0006V33.0029C29.9951 32.8664 29.981 32.7302 29.9535 32.5964L30.6904 31.597C30.7729 31.4915 30.8334 31.3706 30.8683 31.2414C30.9032 31.1122 30.9118 30.9772 30.8936 30.8446C30.8754 30.712 30.8308 30.5844 30.7624 30.4693C30.694 30.3542 30.6032 30.2541 30.4954 30.1747C30.3876 30.0954 30.2649 30.0385 30.1347 30.0074C30.0045 29.9763 29.8694 29.9716 29.7374 29.9937C29.6054 30.0157 29.4791 30.064 29.3661 30.1358C29.2531 30.2075 29.1556 30.3012 29.0794 30.4113V30.4101ZM27.9957 41.0006H19.9969V33.0029H27.172L23.8809 37.4728L22.7092 36.3011C22.5204 36.1209 22.2685 36.0216 22.0075 36.0247C21.7465 36.0277 21.497 36.1327 21.3124 36.3173C21.1278 36.5019 21.0228 36.7514 21.0198 37.0124C21.0167 37.2734 21.116 37.5253 21.2962 37.7141L23.295 39.7141C23.4816 39.9006 23.7342 40.0059 23.998 40.007H24.073C24.2162 39.9966 24.3555 39.9556 24.4814 39.8866C24.6074 39.8177 24.717 39.7225 24.8029 39.6075L28.0015 35.2724L27.9957 41.0006Z" fill="#21293E"/>
<path d="M32.9958 40.0016H34.9946C35.1288 40.0061 35.2625 39.9837 35.3879 39.9355C35.5132 39.8873 35.6276 39.8144 35.7241 39.7211C35.8207 39.6278 35.8975 39.516 35.9499 39.3924C36.0024 39.2687 36.0294 39.1358 36.0294 39.0016C36.0294 38.8673 36.0024 38.7344 35.9499 38.6108C35.8975 38.4871 35.8207 38.3754 35.7241 38.282C35.6276 38.1887 35.5132 38.1158 35.3879 38.0676C35.2625 38.0194 35.1288 37.997 34.9946 38.0016H32.9958C32.8616 37.997 32.7278 38.0194 32.6025 38.0676C32.4771 38.1158 32.3628 38.1887 32.2662 38.282C32.1696 38.3754 32.0929 38.4871 32.0404 38.6108C31.988 38.7344 31.9609 38.8673 31.9609 39.0016C31.9609 39.1358 31.988 39.2687 32.0404 39.3924C32.0929 39.516 32.1696 39.6278 32.2662 39.7211C32.3628 39.8144 32.4771 39.8873 32.6025 39.9355C32.7278 39.9837 32.8616 40.0061 32.9958 40.0016Z" fill="#21293E"/>
<path d="M44.9926 38.0016H38.9938C38.8596 37.997 38.7258 38.0194 38.6005 38.0676C38.4752 38.1158 38.3608 38.1887 38.2643 38.282C38.1677 38.3754 38.0909 38.4871 38.0385 38.6108C37.986 38.7344 37.959 38.8673 37.959 39.0016C37.959 39.1358 37.986 39.2687 38.0385 39.3924C38.0909 39.516 38.1677 39.6278 38.2643 39.7211C38.3608 39.8144 38.4752 39.8873 38.6005 39.9355C38.7258 39.9837 38.8596 40.0061 38.9938 40.0016H44.9926C45.2519 39.9927 45.4976 39.8834 45.6779 39.6969C45.8582 39.5103 45.9589 39.261 45.9589 39.0016C45.9589 38.7421 45.8582 38.4928 45.6779 38.3063C45.4976 38.1197 45.2519 38.0104 44.9926 38.0016Z" fill="#21293E"/>
<path d="M31.9961 34.0023C31.9961 34.1337 32.022 34.2637 32.0723 34.3851C32.1226 34.5064 32.1963 34.6166 32.2892 34.7094C32.3822 34.8023 32.4925 34.8759 32.6139 34.926C32.7352 34.9762 32.8653 35.0019 32.9967 35.0017H44.9943C45.2593 35.0017 45.5135 34.8965 45.701 34.709C45.8884 34.5216 45.9937 34.2674 45.9937 34.0023C45.9937 33.7373 45.8884 33.4831 45.701 33.2956C45.5135 33.1082 45.2593 33.0029 44.9943 33.0029H32.9967C32.8653 33.0028 32.7352 33.0285 32.6139 33.0787C32.4925 33.1288 32.3822 33.2024 32.2892 33.2952C32.1963 33.3881 32.1226 33.4983 32.0723 33.6196C32.022 33.7409 31.9961 33.871 31.9961 34.0023Z" fill="#21293E"/>
<path d="M34.9943 53.9985H32.9955C32.7304 53.9985 32.4762 54.1038 32.2888 54.2913C32.1014 54.4787 31.9961 54.7329 31.9961 54.9979C31.9961 55.263 32.1014 55.5172 32.2888 55.7046C32.4762 55.8921 32.7304 55.9974 32.9955 55.9974H34.9943C35.2594 55.9974 35.5136 55.8921 35.701 55.7046C35.8884 55.5172 35.9937 55.263 35.9937 54.9979C35.9937 54.7329 35.8884 54.4787 35.701 54.2913C35.5136 54.1038 35.2594 53.9985 34.9943 53.9985Z" fill="#21293E"/>
<path d="M44.9924 53.9985H38.9935C38.7285 53.9985 38.4743 54.1038 38.2869 54.2913C38.0994 54.4787 37.9941 54.7329 37.9941 54.9979C37.9941 55.263 38.0994 55.5172 38.2869 55.7046C38.4743 55.8921 38.7285 55.9974 38.9935 55.9974H44.9924C45.2574 55.9974 45.5116 55.8921 45.699 55.7046C45.8865 55.5172 45.9918 55.263 45.9918 54.9979C45.9918 54.7329 45.8865 54.4787 45.699 54.2913C45.5116 54.1038 45.2574 53.9985 44.9924 53.9985Z" fill="#21293E"/>
<path d="M44.9934 48.9991H32.9958C32.8616 48.9945 32.7278 49.017 32.6025 49.0652C32.4771 49.1134 32.3628 49.1863 32.2662 49.2796C32.1696 49.3729 32.0929 49.4847 32.0404 49.6083C31.988 49.7319 31.9609 49.8648 31.9609 49.9991C31.9609 50.1334 31.988 50.2663 32.0404 50.3899C32.0929 50.5135 32.1696 50.6253 32.2662 50.7186C32.3628 50.8119 32.4771 50.8849 32.6025 50.9331C32.7278 50.9812 32.8616 51.0037 32.9958 50.9991H44.9934C45.2526 50.9902 45.4984 50.881 45.6786 50.6944C45.8589 50.5079 45.9597 50.2586 45.9597 49.9991C45.9597 49.7397 45.8589 49.4904 45.6786 49.3038C45.4984 49.1172 45.2526 49.008 44.9934 48.9991Z" fill="#21293E"/>
</svg>
