<svg width="80" height="80" viewBox="0 0 80 80" fill="none" xmlns="http://www.w3.org/2000/svg">
<rect width="80" height="80" fill="white"/>
<path d="M34.9577 66.8901L33.1765 68.4896C32.8089 68.8202 32.3315 69.0024 31.837 69.0006H18.3268C17.9215 69.0014 17.5255 68.8791 17.1913 68.6499C16.857 68.4207 16.6003 68.0954 16.4551 67.717C16.3099 67.3386 16.283 66.9251 16.378 66.5311C16.4731 66.1371 16.6856 65.7813 16.9873 65.5108L25.2465 58.0707C25.4302 57.9087 25.6667 57.8193 25.9116 57.8193C26.1565 57.8193 26.3929 57.9087 26.5766 58.0707L27.2973 58.7L34.2265 64.7702L34.9471 65.4006C35.0538 65.4929 35.1395 65.6069 35.1985 65.7349C35.2575 65.863 35.2885 66.0022 35.2894 66.1432C35.2903 66.2842 35.2611 66.4238 35.2037 66.5526C35.1462 66.6814 35.062 66.7964 34.9565 66.8901H34.9577Z" fill="#955BA5"/>
<path d="M34.9467 65.4006L34.226 64.7702L27.2968 58.7L26.5761 58.0707C26.3925 57.9087 26.156 57.8193 25.9111 57.8193C25.6662 57.8193 25.4297 57.9087 25.2461 58.0707L24.4258 58.8113L31.2225 64.7702L31.942 65.4006C32.0486 65.4929 32.1342 65.6069 32.1932 65.7349C32.2523 65.8629 32.2833 66.002 32.2843 66.143C32.2853 66.2839 32.2562 66.4235 32.199 66.5523C32.1418 66.6811 32.0578 66.7963 31.9526 66.8901L30.1725 68.4896C29.8042 68.8197 29.3266 69.0018 28.8319 69.0006H31.8319C32.3265 69.0018 32.8041 68.8197 33.1725 68.4896L34.9572 66.8901C35.0628 66.7966 35.1473 66.6817 35.2049 66.553C35.2625 66.4243 35.292 66.2848 35.2913 66.1437C35.2906 66.0027 35.2599 65.8635 35.201 65.7353C35.1422 65.6072 35.0567 65.4931 34.9502 65.4006H34.9467Z" fill="#3D324C"/>
<path d="M51.9958 44.5003V51.3896C51.9958 53.1322 51.0583 53.0959 47.5264 58.1805C46.6998 59.3623 45.5997 60.3268 44.32 60.9918C43.0402 61.6568 41.6187 62.0025 40.1765 61.9996H38.2957C37.5076 62.0019 36.7513 62.3104 36.1863 62.8597L34.2258 64.7699L27.2967 58.6997L28.8259 57.1704C29.0137 56.9857 29.1628 56.7654 29.2646 56.5225C29.3664 56.2795 29.4188 56.0188 29.4188 55.7554C29.4188 55.492 29.3664 55.2312 29.2646 54.9883C29.1628 54.7454 29.0137 54.5251 28.8259 54.3404L25.8459 51.1107C25.145 50.2392 24.8032 49.1329 24.8903 48.0178C24.9774 46.9028 25.4869 45.863 26.3146 45.1109C26.5078 44.9743 26.7438 44.9121 26.9792 44.9358C27.2145 44.9595 27.4334 45.0674 27.5955 45.2398L34.6149 52.6224C35.3477 53.3624 36.3116 53.8292 37.3465 53.9455C37.7461 54.0158 37.4297 53.9958 41.946 53.9958C43.1741 53.9682 44.3432 53.4639 45.2061 52.5896L46.9955 50.7147V44.5003C47.0097 43.8466 47.2793 43.2244 47.7466 42.7671C48.2139 42.3098 48.8418 42.0537 49.4957 42.0537C50.1495 42.0537 50.7774 42.3098 51.2447 42.7671C51.712 43.2244 51.9817 43.8466 51.9958 44.5003Z" fill="#FDD7AD"/>
<path d="M49.4966 42.001C48.9545 42.0013 48.4275 42.1796 47.9966 42.5084C48.3069 42.7396 48.5589 43.0401 48.7325 43.386C48.906 43.7319 48.9963 44.1136 48.9962 44.5005V51.3899C48.9962 53.1324 48.0587 53.0961 44.5267 58.1808C43.7001 59.3626 42.6001 60.3271 41.3204 60.992C40.0406 61.657 38.6191 62.0028 37.1769 61.9998H35.296C34.508 62.0022 33.7517 62.3106 33.1867 62.86L32.6465 63.3861L34.2261 64.7701L36.1867 62.86C36.7516 62.3106 37.5079 62.0022 38.296 61.9998H40.1768C41.619 62.0028 43.0405 61.657 44.3203 60.992C45.6 60.3271 46.7001 59.3626 47.5267 58.1808C51.0586 53.1008 51.9961 53.1324 51.9961 51.3899V44.5005C51.9971 44.172 51.933 43.8466 51.8077 43.5429C51.6825 43.2392 51.4984 42.9633 51.2661 42.731C51.0338 42.4987 50.7579 42.3146 50.4542 42.1894C50.1505 42.0641 49.8251 42.0001 49.4966 42.001Z" fill="#F9C795"/>
<path d="M58.0362 46.0003L51.5664 52.9143C51.8479 52.456 51.9968 51.9287 51.9965 51.3909V45.4507L55.1663 42.1203C55.5142 41.7345 56.0001 41.5014 56.5187 41.4715C57.0373 41.4417 57.5468 41.6175 57.9366 41.961L57.9565 41.9809C58.4936 42.5069 58.8029 43.2227 58.8178 43.9743C58.8327 44.726 58.552 45.4534 58.0362 46.0003Z" fill="#FDD7AD"/>
<path d="M57.9565 41.9809L57.9366 41.961C57.5468 41.6175 57.0373 41.4417 56.5187 41.4715C56.0001 41.5014 55.5142 41.7345 55.1663 42.1203L55.1171 42.1719C55.5788 42.7074 55.8259 43.3948 55.811 44.1016C55.7961 44.8085 55.5201 45.4848 55.0363 46.0003L51.9965 49.2475V51.3897C51.9968 51.9275 51.8479 52.4548 51.5664 52.9131L58.0362 45.9992C58.552 45.4523 58.8327 44.7248 58.8178 43.9731C58.8029 43.2215 58.4936 42.5057 57.9565 41.9797V41.9809Z" fill="#F9C795"/>
<path d="M28.3798 23.5536L30.7693 28.3582L36.1106 29.1281C36.2945 29.1534 36.4676 29.2299 36.6102 29.3488C36.7528 29.4678 36.859 29.6245 36.9168 29.8009C36.9746 29.9774 36.9816 30.1665 36.9371 30.3468C36.8925 30.527 36.7982 30.6911 36.6649 30.8203L32.7977 34.5632L33.7094 39.8436C33.7375 40.0258 33.7146 40.2123 33.6433 40.3823C33.572 40.5524 33.455 40.6994 33.3054 40.8071C33.1557 40.9148 32.9791 40.979 32.7952 40.9926C32.6113 41.0062 32.4273 40.9687 32.2634 40.8842L27.4857 38.3916L22.7081 40.8842C22.5434 40.973 22.3571 41.0137 22.1704 41.0019C21.9837 40.99 21.804 40.926 21.6519 40.8171C21.4998 40.7082 21.3813 40.5587 21.3098 40.3858C21.2384 40.2129 21.217 40.0234 21.2479 39.8389L22.162 34.5585L18.2949 30.8203C18.1611 30.6914 18.0663 30.5274 18.0215 30.3471C17.9766 30.1668 17.9834 29.9775 18.0411 29.8009C18.0989 29.6243 18.2052 29.4675 18.3479 29.3485C18.4906 29.2296 18.6639 29.1532 18.848 29.1281L24.1905 28.3582L26.5799 23.5536C26.6624 23.3858 26.7902 23.2443 26.949 23.1455C27.1078 23.0466 27.2911 22.9941 27.4781 22.9941C27.6652 22.9941 27.8485 23.0466 28.0072 23.1455C28.166 23.2443 28.2939 23.3858 28.3763 23.5536H28.3798Z" fill="#F3D55B"/>
<path d="M49.4162 11.575L52.7231 18.3108L60.1222 19.3913C60.312 19.4198 60.4901 19.5007 60.6365 19.6249C60.7828 19.7491 60.8916 19.9117 60.9505 20.0944C61.0094 20.2771 61.0162 20.4726 60.9701 20.6589C60.924 20.8452 60.8268 21.015 60.6894 21.149L55.334 26.3919L56.5973 33.7898C56.6307 33.9784 56.6107 34.1725 56.5394 34.3502C56.4681 34.5279 56.3484 34.682 56.1939 34.7952C56.0394 34.9083 55.8563 34.9758 55.6654 34.9901C55.4745 35.0045 55.2833 34.965 55.1137 34.8761L48.4963 31.3758L41.8823 34.8761C41.7126 34.9651 41.5213 35.0048 41.3302 34.9906C41.1391 34.9764 40.9557 34.9089 40.801 34.7958C40.6463 34.6827 40.5264 34.5285 40.4549 34.3507C40.3834 34.1728 40.3631 33.9786 40.3964 33.7898L41.6597 26.3907L36.309 21.1526C36.1716 21.0185 36.0744 20.8487 36.0283 20.6624C35.9821 20.4761 35.9889 20.2806 36.0479 20.0979C36.1068 19.9152 36.2156 19.7526 36.3619 19.6284C36.5082 19.5042 36.6863 19.4233 36.8762 19.3948L44.2752 18.3214L47.5822 11.5856C47.6671 11.415 47.7979 11.2714 47.9599 11.1711C48.1219 11.0707 48.3086 11.0176 48.4992 11.0176C48.6897 11.0176 48.8765 11.0707 49.0385 11.1711C49.2005 11.2714 49.3313 11.415 49.4162 11.5856V11.575Z" fill="#F3D55B"/>
<path d="M60.1193 19.3909L52.719 18.3105L49.4168 11.5747C49.3324 11.4028 49.2015 11.2581 49.039 11.1568C48.8765 11.0556 48.6889 11.002 48.4974 11.002C48.306 11.002 48.1184 11.0556 47.9559 11.1568C47.7934 11.2581 47.6625 11.4028 47.5781 11.5747L46.9922 12.7582L49.7238 18.3105L57.1229 19.3909C57.3125 19.4197 57.4904 19.5007 57.6367 19.6249C57.7829 19.7491 57.8916 19.9115 57.9506 20.0941C58.0096 20.2766 58.0166 20.472 57.9708 20.6583C57.925 20.8445 57.8282 21.0144 57.6912 21.1487L52.3347 26.3916L53.5979 33.7895C53.6141 33.8851 53.6169 33.9825 53.6061 34.0789L55.1143 34.8805C55.2843 34.9689 55.4757 35.0079 55.6668 34.9931C55.8578 34.9783 56.0409 34.9102 56.1953 34.7966C56.3496 34.6831 56.469 34.5285 56.54 34.3505C56.6109 34.1724 56.6306 33.9781 56.5967 33.7895L55.3346 26.3951L60.6865 21.1522C60.8234 21.018 60.9202 20.8482 60.9661 20.662C61.012 20.4758 61.0051 20.2805 60.9462 20.098C60.8873 19.9155 60.7788 19.753 60.6327 19.6288C60.4866 19.5045 60.3089 19.4234 60.1193 19.3944V19.3909Z" fill="#E4C05C"/>
<path d="M18.8536 29.128C18.6695 29.1529 18.496 29.2291 18.3532 29.3479C18.2103 29.4667 18.1037 29.6234 18.0457 29.7999C17.9876 29.9764 17.9804 30.1657 18.0248 30.3461C18.0693 30.5265 18.1636 30.6908 18.297 30.8202L22.1641 34.5584L21.2465 39.8387C21.2168 40.022 21.2387 40.2099 21.3098 40.3814C21.3809 40.5529 21.4983 40.7012 21.6489 40.8097C21.7995 40.9182 21.9774 40.9826 22.1625 40.9958C22.3477 41.0089 22.5329 40.9702 22.6973 40.884L24.2394 40.0848C24.2318 40.0044 24.2342 39.9233 24.2465 39.8434L25.1593 34.5631L21.2922 30.8202C21.1585 30.6912 21.0637 30.5272 21.0188 30.3469C20.9739 30.1666 20.9808 29.9773 21.0385 29.8007C21.0962 29.6241 21.2025 29.4674 21.3452 29.3484C21.4879 29.2294 21.6612 29.153 21.8453 29.128L27.1878 28.3581L28.9808 24.7664L28.3808 23.5535C28.2979 23.3865 28.1701 23.246 28.0117 23.1478C27.8533 23.0496 27.6707 22.9976 27.4843 22.9976C27.2979 22.9976 27.1153 23.0496 26.9569 23.1478C26.7985 23.246 26.6707 23.3865 26.5878 23.5535L24.1973 28.3581L18.8536 29.128Z" fill="white"/>
<path d="M28.8266 57.1709L27.2973 58.7002L26.5766 58.0709C26.3929 57.9089 26.1565 57.8195 25.9116 57.8195C25.6667 57.8195 25.4302 57.9089 25.2465 58.0709L16.9873 65.511C16.6856 65.7815 16.4731 66.1373 16.378 66.5313C16.283 66.9253 16.3099 67.3388 16.4551 67.7172C16.6003 68.0956 16.857 68.4209 17.1913 68.6501C17.5255 68.8793 17.9215 69.0016 18.3268 69.0008H21.3267C20.9214 69.0016 20.5255 68.8793 20.1912 68.6501C19.857 68.4209 19.6003 68.0956 19.455 67.7172C19.3098 67.3388 19.283 66.9253 19.378 66.5313C19.473 66.1373 19.6855 65.7815 19.9873 65.511L28.2465 58.0709" fill="white"/>
<path d="M16.3047 64.7679L22.2483 59.416L23.5913 60.9019L17.6429 66.2503L16.3047 64.7679Z" fill="white"/>
<path d="M19.9795 63.8327C19.8482 63.8334 19.7181 63.8082 19.5966 63.7586C19.475 63.709 19.3644 63.636 19.2711 63.5436C19.0827 63.3572 18.976 63.1035 18.9746 62.8384C18.9732 62.5733 19.0772 62.3184 19.2637 62.13C19.4501 61.9416 19.7038 61.8349 19.9689 61.8335H19.9795C20.2446 61.8335 20.4988 61.9388 20.6863 62.1263C20.8738 62.3137 20.9791 62.568 20.9791 62.8331C20.9791 63.0982 20.8738 63.3524 20.6863 63.5399C20.4988 63.7274 20.2446 63.8327 19.9795 63.8327Z" fill="#21293E"/>
<path d="M17.7321 64.844C17.5541 64.6471 17.3053 64.529 17.0403 64.5156C16.7752 64.5022 16.5157 64.5946 16.3188 64.7725C15.8685 65.1787 15.5518 65.7118 15.4106 66.3016C15.2694 66.8913 15.3102 67.5101 15.5277 68.0762C15.7452 68.6423 16.1292 69.1291 16.629 69.4726C17.1288 69.8161 17.7209 70 18.3274 70.0002H31.8377C32.5784 70.0006 33.2932 69.7277 33.8451 69.2338L35.6216 67.6342C35.8258 67.4539 35.9905 67.2334 36.1055 66.9865C36.2204 66.7396 36.2832 66.4716 36.2898 66.1994C36.2964 65.9271 36.2467 65.6564 36.1438 65.4042C36.0409 65.152 35.8871 64.9238 35.6919 64.7338L36.8813 63.5749C37.2607 63.2069 37.7684 63.0009 38.2969 63.0007H40.1778C41.7815 63.0031 43.362 62.6178 44.7848 61.8778C46.2075 61.1378 47.4303 60.0648 48.3491 58.7504C49.4888 57.1039 50.7143 55.5186 52.0205 54.0008C52.1445 53.8532 52.2573 53.6965 52.358 53.5321L58.7657 46.6873C59.4577 45.9416 59.8308 44.955 59.8054 43.938C59.78 42.921 59.3581 41.9543 58.6298 41.244C58.0852 40.7298 57.3594 40.4518 56.6107 40.4706C55.7887 40.493 55.0092 40.8402 54.4427 41.4362L52.7494 43.2104C52.5747 42.7661 52.3112 42.3621 51.9748 42.0233C51.3022 41.396 50.4167 41.0471 49.4969 41.0471C48.5772 41.0471 47.6916 41.396 47.019 42.0233C46.6935 42.3483 46.4356 42.7345 46.2602 43.1597C46.0848 43.5849 45.9954 44.0407 45.9972 44.5006V50.32L44.4914 51.9009C43.9003 52.4989 43.1208 52.8743 42.2848 52.9637C42.1735 52.9858 42.0606 52.998 41.9473 53.0001H37.8575C37.7257 52.9966 37.5944 52.9825 37.4649 52.9579C36.6611 52.8678 35.9123 52.5055 35.3427 51.9313L28.3233 44.5487C27.9905 44.2128 27.5512 44.0033 27.0808 43.956C26.6104 43.9088 26.1381 44.0267 25.7452 44.2897C25.7147 44.3107 25.6853 44.3334 25.6573 44.3577C25.1257 44.843 24.6952 45.4286 24.3906 46.0807C24.0859 46.7329 23.9131 47.4388 23.882 48.158C23.8344 48.8151 23.919 49.4752 24.1307 50.0991C24.3425 50.7231 24.6771 51.2982 25.1148 51.7907L28.1264 55.0532C28.2214 55.1439 28.297 55.2531 28.3486 55.3739C28.4001 55.4948 28.4266 55.6249 28.4264 55.7563C28.4267 55.8894 28.4002 56.0213 28.3487 56.144C28.2972 56.2668 28.2216 56.378 28.1264 56.4711L27.2581 57.3394L27.251 57.3324C26.8856 57.009 26.415 56.8296 25.9271 56.8277C25.4391 56.8257 24.9671 57.0014 24.5991 57.3219C24.595 57.3271 24.5911 57.3326 24.5874 57.3383L22.2707 59.4242C22.1573 59.5064 22.0624 59.6115 21.9922 59.7328C21.922 59.854 21.8781 59.9887 21.8633 60.128C21.8486 60.2673 21.8632 60.4081 21.9064 60.5414C21.9495 60.6747 22.0202 60.7974 22.1138 60.9016C22.2075 61.0058 22.322 61.0892 22.4499 61.1463C22.5778 61.2034 22.7163 61.2329 22.8564 61.2331C22.9965 61.2332 23.135 61.2039 23.263 61.1471C23.3911 61.0902 23.5057 61.0071 23.5996 60.9031L25.8847 58.8453C25.8952 58.8371 25.9081 58.8347 25.9175 58.8254L26.6382 59.4535L33.5685 65.5225C33.5685 65.5284 33.5837 65.5307 33.5896 65.5366L34.2927 66.1459L32.5138 67.7467C32.3297 67.9117 32.0908 68.0023 31.8435 68.001H18.3274C18.1233 68.0029 17.9236 67.9424 17.7549 67.8275C17.5863 67.7127 17.4568 67.5489 17.384 67.3583C17.3111 67.1677 17.2984 66.9593 17.3474 66.7613C17.3964 66.5632 17.5049 66.3848 17.6583 66.2502C17.8536 66.073 17.971 65.8257 17.9848 65.5623C17.9986 65.2989 17.9078 65.0407 17.7321 64.844ZM55.8993 42.8132C56.0968 42.5999 56.3707 42.4735 56.661 42.4616C56.8839 42.4586 57.0992 42.5427 57.261 42.696C57.6092 43.04 57.8089 43.5066 57.8177 43.996C57.8265 44.4854 57.6435 44.9588 57.3079 45.3151L52.9967 49.9193V45.8506L55.8993 42.8132ZM28.7592 58.6519L29.535 57.8773C29.8169 57.5981 30.0404 57.2654 30.1923 56.8988C30.3442 56.5322 30.4215 56.139 30.4197 55.7422C30.4217 55.3565 30.3474 54.9742 30.2012 54.6172C30.055 54.2603 29.8397 53.9357 29.5678 53.6622L26.5913 50.4361C26.3344 50.1394 26.1394 49.7944 26.0176 49.4213C25.8959 49.0482 25.8499 48.6545 25.8823 48.2634C25.9219 47.3925 26.2821 46.5669 26.8936 45.9455L33.9037 53.3177C34.7793 54.213 35.9336 54.7837 37.1766 54.936C37.4032 54.9773 37.633 54.9989 37.8633 55.0004H41.9531C42.1634 55 42.3732 54.9808 42.5801 54.943C43.8553 54.7926 45.0403 54.2094 45.9374 53.2907L47.7268 51.4099C47.9035 51.2238 48.0024 50.9774 48.0034 50.7208V44.5006C48.0035 44.1026 48.1606 43.7207 48.4405 43.4378C48.7295 43.1701 49.1089 43.0214 49.5028 43.0214C49.8967 43.0214 50.2761 43.1701 50.5651 43.4378C50.8451 43.7207 51.0026 44.1025 51.0033 44.5006V51.39C51.0046 51.7367 50.9097 52.0771 50.7291 52.3731C50.7075 52.4054 50.6879 52.4391 50.6705 52.4739C50.6238 52.5547 50.5688 52.6305 50.5065 52.7001C49.1572 54.2709 47.8906 55.911 46.712 57.6137C45.977 58.6622 44.9996 59.5177 43.863 60.1073C42.7263 60.697 41.4641 61.0033 40.1836 61.0003H38.2969C37.2462 61.0002 36.237 61.4106 35.4845 62.144L34.1849 63.4096L29.0522 58.9097L28.7592 58.6519Z" fill="#21293E"/>
<path d="M29.9981 67C30.1954 66.9989 30.388 66.9395 30.5517 66.8292C30.7153 66.719 30.8428 66.5628 30.9179 66.3803C30.993 66.1978 31.0126 65.9972 30.974 65.8037C30.9354 65.6102 30.8405 65.4323 30.7012 65.2926L28.9352 63.5266C28.7455 63.3497 28.4945 63.2534 28.2352 63.258C27.9759 63.2625 27.7285 63.3675 27.5451 63.5509C27.3617 63.7343 27.2566 63.9818 27.2521 64.2411C27.2476 64.5004 27.3439 64.7514 27.5208 64.941L29.2867 66.707C29.4733 66.8935 29.726 66.9988 29.9899 67H29.9981Z" fill="#3D324C"/>
<path d="M29.2736 23.1081C29.1073 22.7751 28.8516 22.4951 28.5352 22.2994C28.2187 22.1037 27.8539 22 27.4818 22C27.1097 22 26.7449 22.1037 26.4284 22.2994C26.112 22.4951 25.8563 22.7751 25.69 23.1081L23.535 27.4439L18.7128 28.147C18.3446 28.1999 17.9986 28.3548 17.7139 28.5943C17.4292 28.8337 17.2172 29.148 17.1019 29.5017C16.9867 29.8554 16.9728 30.2343 17.0617 30.5955C17.1507 30.9567 17.3391 31.2857 17.6054 31.5454L21.0905 34.9157L20.2702 39.6734C20.2061 40.0408 20.2465 40.4189 20.3867 40.7646C20.5269 41.1102 20.7614 41.4095 21.0634 41.6285C21.3654 41.8474 21.7228 41.9772 22.0949 42.003C22.467 42.0288 22.8389 41.9497 23.1682 41.7745L27.4841 39.5234L31.793 41.771C32.1226 41.9435 32.4937 42.0207 32.8647 41.9938C33.2356 41.9669 33.5918 41.8371 33.893 41.6189C34.1942 41.4007 34.4286 41.1028 34.5698 40.7587C34.711 40.4146 34.7534 40.0379 34.6922 39.671L33.8719 34.9133L37.3582 31.5431C37.6245 31.2834 37.8129 30.9543 37.9019 30.5931C37.9908 30.2319 37.9769 29.8531 37.8617 29.4994C37.7464 29.1457 37.5344 28.8313 37.2497 28.5919C36.965 28.3525 36.619 28.1976 36.2508 28.1447L31.4274 27.4416L29.2736 23.1081ZM32.1024 33.8399C31.9852 33.9532 31.8974 34.0935 31.8468 34.2485C31.7961 34.4036 31.7841 34.5686 31.8118 34.7293L32.7223 40.0027L27.9447 37.5031C27.8017 37.4286 27.643 37.3898 27.4818 37.3898C27.3206 37.3898 27.1618 37.4286 27.0189 37.5031L22.2389 40.0003L23.1506 34.727C23.1783 34.5663 23.1663 34.4012 23.1157 34.2462C23.065 34.0912 22.9773 33.9509 22.86 33.8375L18.9929 30.1239L24.3354 29.3529C24.4964 29.3302 24.6495 29.2686 24.7814 29.1735C24.9134 29.0783 25.0201 28.9525 25.0924 28.8068L27.4806 24.0022L29.87 28.8068C29.9437 28.9487 30.0504 29.0709 30.1811 29.1631C30.3118 29.2552 30.4627 29.3147 30.6212 29.3365L35.9648 30.0923L32.1024 33.8399Z" fill="#21293E"/>
<path d="M60.2621 18.401L53.388 17.4014L50.3083 11.1343C50.1422 10.7941 49.8838 10.5074 49.5627 10.3069C49.2416 10.1063 48.8706 10 48.492 10C48.1134 10 47.7424 10.1063 47.4212 10.3069C47.1001 10.5074 46.8417 10.7941 46.6756 11.1343L43.6042 17.4014L36.7289 18.401C36.3552 18.457 36.0045 18.6161 35.7162 18.8604C35.428 19.1047 35.2135 19.4246 35.097 19.7841C34.9805 20.1435 34.9666 20.5284 35.0567 20.8954C35.1469 21.2623 35.3376 21.5969 35.6074 21.8614L40.582 26.7375L39.4101 33.6257C39.3458 33.9985 39.3871 34.3818 39.5294 34.7323C39.6718 35.0828 39.9094 35.3865 40.2153 35.6089C40.5213 35.8314 40.8835 35.9637 41.2608 35.991C41.6381 36.0182 42.0155 35.9393 42.3503 35.7631L48.4966 32.5159L54.6442 35.7643C54.9791 35.9406 55.3566 36.0195 55.734 35.9923C56.1115 35.965 56.4737 35.8325 56.7798 35.6099C57.0858 35.3873 57.3234 35.0835 57.4656 34.7328C57.6078 34.3821 57.6489 33.9986 57.5844 33.6257L56.4125 26.7387L61.3894 21.8614C61.6597 21.597 61.8507 21.2623 61.9411 20.8952C62.0315 20.528 62.0175 20.1429 61.9008 19.7832C61.7841 19.4235 61.5694 19.1035 61.2807 18.8593C60.9919 18.6151 60.6408 18.4564 60.2667 18.401H60.2621ZM54.6372 25.677C54.5217 25.79 54.4354 25.9293 54.3856 26.083C54.3358 26.2367 54.324 26.4002 54.3512 26.5594L55.5817 34.0007L48.9666 30.5003C48.8221 30.4241 48.6612 30.3842 48.4978 30.3842C48.3345 30.3842 48.1736 30.4241 48.0291 30.5003L41.38 33.9632L42.6444 26.5629C42.6716 26.4035 42.6598 26.2399 42.61 26.086C42.5602 25.9321 42.4739 25.7926 42.3585 25.6793L37.0195 20.3802L44.4186 19.2986C44.5792 19.2754 44.7317 19.2134 44.863 19.1181C44.9943 19.0227 45.1004 18.8969 45.1721 18.7513L48.5084 12.0015L48.5166 12.0144L51.8247 18.7502C51.8965 18.8957 52.0026 19.0216 52.1338 19.1169C52.2651 19.2123 52.4176 19.2742 52.5782 19.2974L59.9855 20.4306L54.6372 25.677Z" fill="#21293E"/>
<path d="M10.8022 23.3237L12.7627 23.7116C12.8288 23.7242 12.8959 23.7305 12.9631 23.7303C13.2099 23.7288 13.4474 23.636 13.6299 23.4699C13.8124 23.3037 13.927 23.0759 13.9516 22.8303C13.9762 22.5847 13.909 22.3387 13.7631 22.1397C13.6172 21.9406 13.4028 21.8026 13.1612 21.7522L11.1971 21.3679C11.0683 21.3422 10.9357 21.3422 10.8069 21.3678C10.6781 21.3935 10.5556 21.4442 10.4464 21.5172C10.2259 21.6645 10.0729 21.8934 10.0212 22.1536C9.96943 22.4137 10.0231 22.6838 10.1705 22.9043C10.3178 23.1248 10.5468 23.2778 10.8069 23.3295L10.8022 23.3237Z" fill="#F0C419"/>
<path d="M66.84 34.2491L68.8017 34.6393C68.8677 34.6519 68.9349 34.6582 69.0021 34.6581C69.2505 34.6582 69.4901 34.5659 69.6741 34.3991C69.8581 34.2322 69.9735 34.0028 69.9976 33.7556C70.0217 33.5084 69.953 33.261 69.8047 33.0617C69.6564 32.8624 69.4392 32.7255 69.1954 32.6776L67.2349 32.2874C66.9748 32.2355 66.7047 32.2891 66.4841 32.4363C66.2634 32.5835 66.1103 32.8124 66.0584 33.0725C66.0065 33.3327 66.0601 33.6028 66.2073 33.8234C66.3545 34.0441 66.5834 34.1972 66.8435 34.2491H66.84Z" fill="#F0C419"/>
<path d="M10.9968 34.6584C11.064 34.6587 11.1311 34.6524 11.1971 34.6397L13.1612 34.2495C13.4213 34.1977 13.6502 34.0447 13.7976 33.8242C13.9449 33.6037 13.9986 33.3336 13.9469 33.0735C13.8951 32.8134 13.7422 32.5844 13.5216 32.4371C13.3011 32.2897 13.0311 32.236 12.7709 32.2878L10.8069 32.678C10.5635 32.7258 10.3465 32.8625 10.1982 33.0614C10.0499 33.2603 9.98089 33.5073 10.0046 33.7542C10.0282 34.0012 10.1429 34.2305 10.3263 34.3977C10.5097 34.5648 10.7487 34.6577 10.9968 34.6584Z" fill="#F0C419"/>
<path d="M67.0331 23.7328C67.1003 23.7331 67.1674 23.7268 67.2335 23.7141L69.194 23.3239C69.3301 23.3067 69.4613 23.2617 69.5793 23.1916C69.6973 23.1216 69.7997 23.0279 69.8799 22.9166C69.9602 22.8053 70.0166 22.6786 70.0458 22.5445C70.0749 22.4104 70.0762 22.2717 70.0494 22.1371C70.0226 22.0025 69.9684 21.8748 69.8902 21.7621C69.8119 21.6494 69.7112 21.5539 69.5945 21.4818C69.4777 21.4096 69.3474 21.3623 69.2115 21.3427C69.0757 21.3232 68.9373 21.3318 68.8049 21.368L66.8421 21.7583C66.5981 21.8062 66.3808 21.9433 66.2325 22.1428C66.0842 22.3424 66.0156 22.59 66.04 22.8374C66.0645 23.0848 66.1802 23.3142 66.3647 23.4809C66.5492 23.6475 66.7892 23.7394 67.0378 23.7387L67.0331 23.7328Z" fill="#F0C419"/>
<path d="M15.3286 45.1111C15.5262 45.1115 15.7196 45.0532 15.884 44.9435L17.5469 43.8326C17.758 43.6812 17.902 43.4537 17.9484 43.1981C17.9948 42.9425 17.94 42.6789 17.7956 42.463C17.6512 42.2471 17.4285 42.0957 17.1745 42.041C16.9206 41.9863 16.6553 42.0325 16.4348 42.1697L14.7719 43.2818C14.5937 43.4011 14.4585 43.5745 14.3864 43.7765C14.3142 43.9785 14.309 44.1983 14.3714 44.4035C14.4338 44.6087 14.5605 44.7884 14.7329 44.916C14.9053 45.0437 15.1141 45.1125 15.3286 45.1123V45.1111Z" fill="#F0C419"/>
<path d="M64.1093 11.0558L62.4464 12.1691C62.3372 12.242 62.2435 12.3358 62.1705 12.4449C62.0975 12.5541 62.0468 12.6766 62.0212 12.8054C61.9956 12.9341 61.9955 13.0667 62.0212 13.1955C62.0468 13.3243 62.0975 13.4468 62.1704 13.556C62.2434 13.6651 62.3371 13.7589 62.4463 13.8319C62.5555 13.9048 62.6779 13.9556 62.8067 13.9812C62.9355 14.0068 63.0681 14.0068 63.1969 13.9812C63.3256 13.9556 63.4481 13.9049 63.5573 13.8319L65.2214 12.721C65.4422 12.5735 65.5954 12.3444 65.6472 12.084C65.6991 11.8235 65.6454 11.5532 65.4979 11.3324C65.3504 11.1116 65.1213 10.9584 64.8609 10.9065C64.6004 10.8546 64.3301 10.9083 64.1093 11.0558Z" fill="#F0C419"/>
<path d="M16.434 13.8316C16.6545 13.9689 16.9198 14.0151 17.1737 13.9603C17.4276 13.9056 17.6504 13.7543 17.7948 13.5384C17.9392 13.3225 17.994 13.0588 17.9476 12.8032C17.9011 12.5477 17.7572 12.3201 17.5461 12.1688L15.8832 11.0555C15.6627 10.9182 15.3974 10.872 15.1435 10.9268C14.8895 10.9815 14.6668 11.1328 14.5224 11.3487C14.378 11.5647 14.3232 11.8283 14.3696 12.0839C14.416 12.3394 14.56 12.567 14.7711 12.7184L16.434 13.8316Z" fill="#F0C419"/>
<path d="M65.4967 44.6676C65.644 44.4473 65.6977 44.1774 65.6461 43.9175C65.5944 43.6575 65.4417 43.4287 65.2214 43.2813L63.5573 42.1704C63.3368 42.0231 63.0668 41.9694 62.8067 42.0212C62.5466 42.0729 62.3177 42.2259 62.1704 42.4464C62.0231 42.6669 61.9694 42.9369 62.0212 43.197C62.0729 43.4571 62.2259 43.686 62.4464 43.8333L64.1093 44.9442C64.3298 45.0915 64.5998 45.1453 64.86 45.0937C65.1201 45.042 65.3492 44.8892 65.4967 44.6688V44.6676Z" fill="#F0C419"/>
</svg>
