<svg width="211" height="56" viewBox="0 0 211 56" fill="none" xmlns="http://www.w3.org/2000/svg">
<path fill-rule="evenodd" clip-rule="evenodd" d="M33.8965 19.9134L46.8865 0L84.7006 56H57.7548L33.8965 19.9134Z" fill="#EBEAEA"/>
<path fill-rule="evenodd" clip-rule="evenodd" d="M46.0125 55.9982L51.4315 55.9136L25.2282 16.6504L0 55.9982H3.91374" fill="#EBEAEA"/>
<path fill-rule="evenodd" clip-rule="evenodd" d="M77.3263 35.0058H85.4328C90.2361 35.0058 91.1933 33.1667 91.7375 27.8194H92.6191C92.5444 28.6261 92.4882 29.7333 92.4882 30.9718C92.4882 31.9288 92.5822 33.9363 92.7693 35.8878C89.9172 35.7753 85.9955 35.7753 83.1996 35.7753C80.1596 35.7753 76.6319 35.7753 73.7051 35.8878V35.1183L89.7296 9.56122H81.6609C76.8576 9.56122 75.9001 11.4002 75.3563 16.7482H74.4738C74.5493 15.9415 74.5867 14.8343 74.5867 13.5957C74.5867 12.6388 74.5116 10.6313 74.3236 8.67969C77.1572 8.79223 81.0793 8.79223 83.8941 8.79223C86.8028 8.79223 90.4241 8.79223 93.2196 8.67969V9.44868L77.3263 35.0058Z" fill="white"/>
<path fill-rule="evenodd" clip-rule="evenodd" d="M116.487 35.8878C113.879 35.7753 110.258 35.7753 107.687 35.7753C105.379 35.7753 100.312 35.7753 96.541 35.8878V35.1183C99.1489 35.0057 99.6554 34.6121 99.6554 31.8162V12.7513C99.6554 9.9554 99.1489 9.56118 96.541 9.44864V8.67969C100.312 8.79223 105.379 8.79223 107.687 8.79223C110.033 8.79223 113.336 8.79223 115.718 8.67969C115.53 10.481 115.455 12.3383 115.455 13.2204C115.455 14.1396 115.493 15.0217 115.568 15.6038H114.686C114.179 11.0626 113.597 9.56118 109.526 9.56118H106.336C103.728 9.56118 103.221 9.9554 103.221 12.7513V21.8144H105.773C109.113 21.8144 109.038 18.5871 109.338 16.7482H110.22C110.107 18.3809 110.089 19.4881 110.089 20.3696C110.089 21.0826 110.107 21.6459 110.107 22.2086C110.107 23.4661 110.144 24.7418 110.332 27.6691H109.45C109.151 25.2108 109.113 22.584 105.773 22.584H103.221V31.8162C103.221 34.6121 103.728 35.0057 106.336 35.0057H109.151C113.954 35.0057 114.911 33.2799 115.455 28.1941H116.337C116.262 28.8888 116.225 29.9017 116.225 30.9718C116.225 31.9288 116.3 33.9363 116.487 35.8878Z" fill="white"/>
<path fill-rule="evenodd" clip-rule="evenodd" d="M144.07 9.44864C141.461 9.56118 140.955 10.3307 140.955 13.1455V36.0752H140.073L123.935 11.1374V31.422C123.935 34.2362 124.442 35.0057 127.426 35.1183V35.8878C126.506 35.813 124.817 35.7753 123.504 35.7753C122.21 35.7753 120.784 35.813 119.939 35.8878V35.1183C122.547 35.0057 123.054 34.2362 123.054 31.422V12.7513C123.054 9.9554 122.547 9.56118 119.939 9.44864V8.67969C120.784 8.75451 122.21 8.79223 123.504 8.79223C124.63 8.79223 125.662 8.75451 126.506 8.67969L140.073 29.583V13.1455C140.073 10.3307 139.585 9.56118 136.583 9.44864V8.67969C137.503 8.75451 139.191 8.79223 140.504 8.79223C141.8 8.79223 143.226 8.75451 144.07 8.67969V9.44864Z" fill="white"/>
<path fill-rule="evenodd" clip-rule="evenodd" d="M156.866 9.44864C154.257 9.56118 153.751 9.9554 153.751 12.7513V31.8162C153.751 34.6121 154.257 35.0057 156.866 35.1183V35.8878C155.683 35.813 153.751 35.7753 151.987 35.7753C149.998 35.7753 148.14 35.813 147.07 35.8878V35.1183C149.679 35.0057 150.186 34.6121 150.186 31.8162V12.7513C150.186 9.9554 149.679 9.56118 147.07 9.44864V8.67969C148.14 8.75451 149.998 8.79223 151.987 8.79223C153.751 8.79223 155.683 8.75451 156.866 8.67969V9.44864Z" fill="white"/>
<path fill-rule="evenodd" clip-rule="evenodd" d="M180.961 13.5957C180.961 14.8343 180.998 15.9415 181.073 16.7482H180.191C179.647 11.4002 179.084 9.56118 174.281 9.56118H172.198V31.422C172.198 34.5367 172.854 35.0057 176.082 35.1183V35.8878C174.73 35.813 172.517 35.7753 170.433 35.7753C168.125 35.7753 165.968 35.813 164.748 35.8878V35.1183C167.976 35.0057 168.633 34.5367 168.633 31.422V9.56118H166.55C161.746 9.56118 161.164 11.4002 160.638 16.7482H159.756C159.832 15.9415 159.869 14.8343 159.869 13.5957C159.869 12.6388 159.795 10.6313 159.588 8.67969C162.778 8.79223 167.281 8.79223 170.433 8.79223C173.586 8.79223 178.033 8.79223 181.224 8.67969C181.036 10.6313 180.961 12.6388 180.961 13.5957Z" fill="white"/>
<path fill-rule="evenodd" clip-rule="evenodd" d="M209.818 9.44864C207.21 9.56118 206.704 9.9554 206.704 12.7513V31.8162C206.704 34.6121 207.21 35.0057 209.818 35.1183V35.8878C208.749 35.813 206.91 35.7753 204.902 35.7753C203.138 35.7753 201.224 35.813 200.024 35.8878V35.1183C202.632 35.0057 203.138 34.6121 203.138 31.8162V22.584H190.641V31.8162C190.641 34.6121 191.148 35.0057 193.756 35.1183V35.8878C192.574 35.813 190.641 35.7753 188.878 35.7753C186.888 35.7753 185.031 35.813 183.961 35.8878V35.1183C186.569 35.0057 187.077 34.6121 187.077 31.8162V12.7513C187.077 9.9554 186.569 9.56118 183.961 9.44864V8.67969C185.031 8.75451 186.888 8.79223 188.878 8.79223C190.641 8.79223 192.574 8.75451 193.756 8.67969V9.44864C191.148 9.56118 190.641 9.9554 190.641 12.7513V21.8144H203.138V12.7513C203.138 9.9554 202.632 9.56118 200.024 9.44864V8.67969C201.224 8.75451 203.138 8.79223 204.902 8.79223C206.91 8.79223 208.749 8.75451 209.818 8.67969V9.44864Z" fill="white"/>
<path fill-rule="evenodd" clip-rule="evenodd" d="M73.4668 39.4854H210.713V55.9125H73.4668V39.4854Z" fill="white"/>
<path fill-rule="evenodd" clip-rule="evenodd" d="M82.0751 50.8763C82.0751 51.8392 82.3021 51.9754 83.4132 52.0136V52.2796C82.9543 52.2537 82.1851 52.2406 81.4677 52.2406C80.7823 52.2406 80.1424 52.2537 79.7734 52.2796V52.0136C80.6723 51.9754 80.8471 51.8392 80.8471 50.8763V44.3081C80.8471 43.3448 80.6723 43.2094 79.7734 43.1708V42.9053C80.1424 42.9311 80.8081 42.9447 81.3905 42.9447C82.2241 42.9447 83.0709 42.9188 83.3873 42.9188C85.5211 42.9188 86.5809 43.9917 86.5809 45.5296C86.5809 46.8101 85.838 48.4913 83.0967 48.4913H82.0751V50.8763ZM82.0756 44.3081V48.2261H82.9674C84.8427 48.2261 85.256 47.0236 85.256 45.6724C85.256 44.0048 84.6617 43.1712 83.0581 43.1712C82.2504 43.1712 82.0756 43.397 82.0756 44.3081Z" fill="#121A36"/>
<path fill-rule="evenodd" clip-rule="evenodd" d="M98.3583 51.6196C97.9827 52.163 97.6536 52.4667 96.9423 52.4667C96.2766 52.4667 95.7721 52.163 95.5197 51.0315L95.2296 49.7127C94.9771 48.5877 94.7834 47.8317 93.7356 47.8317H92.4751V50.8763C92.4751 51.8392 92.6496 51.9754 93.5484 52.0136V52.2796C93.1413 52.2537 92.4751 52.2406 91.8673 52.2406C91.1819 52.2406 90.542 52.2537 90.1738 52.2796V52.0136C91.0723 51.9754 91.2467 51.8392 91.2467 50.8763V44.3081C91.2467 43.3448 91.0723 43.2094 90.1738 43.1708V42.9053C90.542 42.9311 91.2077 42.9447 91.7901 42.9447C92.6237 42.9447 93.4704 42.9188 93.7877 42.9188C95.9207 42.9188 96.9813 43.9268 96.9813 45.2197C96.9813 46.1378 96.4054 47.4566 94.4079 47.7664L94.5696 47.7923C95.7463 47.9864 96.1727 48.4396 96.4247 49.5383L96.7547 50.8894C96.9164 51.6586 97.065 51.9754 97.4336 51.9754C97.7566 51.9754 97.9117 51.7817 98.1572 51.471L98.3583 51.6196ZM92.4755 44.3081V47.5662H93.3678C95.2423 47.5662 95.6564 46.584 95.6564 45.3683C95.6564 43.979 95.0613 43.1708 93.4577 43.1708C92.65 43.1708 92.4755 43.3966 92.4755 44.3081Z" fill="#121A36"/>
<path fill-rule="evenodd" clip-rule="evenodd" d="M108.278 52.2796C107.379 52.2406 106.132 52.2406 105.246 52.2406C104.451 52.2406 102.705 52.2406 101.406 52.2796V52.0136C102.305 51.9754 102.479 51.8396 102.479 50.8767V44.3081C102.479 43.3448 102.305 43.2094 101.406 43.1712V42.9053C102.705 42.9447 104.451 42.9447 105.246 42.9447C106.054 42.9447 107.192 42.9447 108.013 42.9053C107.949 43.5263 107.923 44.1661 107.923 44.4703C107.923 44.7867 107.935 45.0904 107.961 45.2911H107.658C107.483 43.7265 107.283 43.2094 105.88 43.2094H104.781C103.882 43.2094 103.708 43.3448 103.708 44.3081V47.4307H104.587C105.737 47.4307 105.712 46.3188 105.815 45.6855H106.119C106.08 46.2474 106.074 46.6295 106.074 46.9329C106.074 47.1787 106.08 47.3724 106.08 47.5662C106.08 48 106.093 48.4396 106.158 49.4476H105.854C105.75 48.6009 105.737 47.6959 104.587 47.6959H103.708V50.8767C103.708 51.8396 103.882 51.9754 104.781 51.9754H105.75C107.405 51.9754 107.735 51.3803 107.923 49.6286H108.226C108.201 49.8683 108.188 50.2172 108.188 50.5853C108.188 50.9153 108.214 51.6073 108.278 52.2796Z" fill="#121A36"/>
<path fill-rule="evenodd" clip-rule="evenodd" d="M114.422 50.8763C114.422 51.8392 114.649 51.9754 115.761 52.0136V52.2796C115.302 52.2537 114.533 52.2406 113.815 52.2406C113.13 52.2406 112.49 52.2537 112.121 52.2796V52.0136C113.02 51.9754 113.194 51.8392 113.194 50.8763V44.3081C113.194 43.3448 113.02 43.2094 112.121 43.1708V42.9053C112.49 42.9311 113.156 42.9447 113.737 42.9447C114.572 42.9447 115.419 42.9188 115.735 42.9188C117.868 42.9188 118.929 43.9917 118.929 45.5296C118.929 46.8101 118.185 48.4913 115.444 48.4913H114.422V50.8763ZM114.423 44.3081V48.2261H115.315C117.19 48.2261 117.604 47.0236 117.604 45.6724C117.604 44.0048 117.009 43.1708 115.406 43.1708C114.598 43.1708 114.423 43.3966 114.423 44.3081Z" fill="#121A36"/>
<path fill-rule="evenodd" clip-rule="evenodd" d="M134.637 51.1692C134.902 51.8407 135.278 52.0028 135.555 52.0151V52.2811C135.193 52.2553 134.637 52.2421 134.133 52.2421C133.448 52.2421 132.815 52.2553 132.439 52.2811V52.0151C133.079 51.9893 133.376 51.8928 133.376 51.5247C133.376 51.3695 133.325 51.1692 133.222 50.9041L132.407 48.7317H129.213L128.67 50.1345C128.489 50.5934 128.405 50.9493 128.405 51.221C128.405 51.7956 128.8 51.9963 129.556 52.0151V52.2811C129.052 52.2553 128.496 52.2421 128.031 52.2421C127.584 52.2421 127.306 52.2553 127.041 52.2811V52.0151C127.384 51.938 127.778 51.6601 128.082 50.8651L131.198 42.8428H131.411L134.637 51.1692ZM130.829 44.5173L129.31 48.4669H132.31L130.829 44.5173Z" fill="#121A36"/>
<path fill-rule="evenodd" clip-rule="evenodd" d="M145.347 43.5771C145.444 43.6542 145.528 43.6928 145.606 43.6928C145.786 43.6928 145.896 43.4474 145.942 42.904H146.246C146.207 43.5508 146.194 44.4107 146.194 45.9494H145.89C145.702 44.8244 145.599 44.4689 145.224 43.9904C144.668 43.2729 143.795 42.9557 142.884 42.9557C141.158 42.9557 140.02 44.7464 140.02 47.6166C140.02 50.5713 141.307 52.2003 143.013 52.2003C143.808 52.2003 144.778 51.9101 145.276 51.1923C145.663 50.6747 145.754 50.1707 145.89 49.0974H146.194C146.194 50.701 146.207 51.606 146.246 52.2783H145.942C145.896 51.7348 145.805 51.4956 145.619 51.4956C145.547 51.4956 145.456 51.5346 145.347 51.606C144.694 52.0644 144.035 52.4654 142.896 52.4654C140.382 52.4654 138.701 50.701 138.701 47.6687C138.701 44.7082 140.447 42.7168 142.909 42.7168C144.074 42.7168 144.765 43.1301 145.347 43.5771Z" fill="#121A36"/>
<path fill-rule="evenodd" clip-rule="evenodd" d="M157.266 51.1692C157.53 51.8407 157.906 52.0028 158.184 52.0151V52.2811C157.822 52.2553 157.266 52.2421 156.761 52.2421C156.076 52.2421 155.443 52.2553 155.068 52.2811V52.0151C155.708 51.9893 156.005 51.8928 156.005 51.5247C156.005 51.3695 155.954 51.1692 155.85 50.9041L155.036 48.7317H151.842L151.299 50.1345C151.118 50.5934 151.034 50.9493 151.034 51.221C151.034 51.7956 151.428 51.9963 152.185 52.0151V52.2811C151.68 52.2553 151.124 52.2421 150.659 52.2421C150.213 52.2421 149.935 52.2553 149.67 52.2811V52.0151C150.012 51.938 150.407 51.6601 150.71 50.8651L153.826 42.8428H154.04L157.266 51.1692ZM153.458 44.5173L151.939 48.4669H154.939L153.458 44.5173Z" fill="#121A36"/>
<path fill-rule="evenodd" clip-rule="evenodd" d="M169.332 47.489C169.332 50.3723 167.587 52.2796 164.542 52.2796C164.141 52.2796 163.256 52.2406 162.687 52.2406C162.066 52.2406 161.413 52.2537 161.045 52.2796V52.0136C161.943 51.9754 162.118 51.8392 162.118 50.8763V44.3081C162.118 43.3448 161.943 43.2094 161.045 43.1708V42.9053C161.348 42.9254 161.846 42.9508 162.338 42.9508C162.448 42.9508 162.551 42.9447 162.66 42.9447C163.269 42.9311 164.154 42.9053 164.659 42.9053C167.813 42.9053 169.332 44.5347 169.332 47.489ZM163.347 44.2823V50.9026C163.347 51.8269 163.521 52.0399 164.342 52.0399C167.225 52.0399 168.008 50.424 168.008 47.5407C168.008 44.5733 167.07 43.145 164.329 43.145C163.521 43.145 163.347 43.3707 163.347 44.2823Z" fill="#121A36"/>
<path fill-rule="evenodd" clip-rule="evenodd" d="M180.031 52.2796C179.131 52.2406 177.884 52.2406 176.998 52.2406C176.203 52.2406 174.457 52.2406 173.158 52.2796V52.0136C174.057 51.9754 174.231 51.8396 174.231 50.8767V44.3081C174.231 43.3448 174.057 43.2094 173.158 43.1712V42.9053C174.457 42.9447 176.203 42.9447 176.998 42.9447C177.806 42.9447 178.944 42.9447 179.765 42.9053C179.701 43.5263 179.674 44.1661 179.674 44.4703C179.674 44.7867 179.687 45.0904 179.713 45.2911H179.409C179.235 43.7265 179.034 43.2094 177.632 43.2094H176.533C175.634 43.2094 175.46 43.3448 175.46 44.3081V47.4307H176.339C177.489 47.4307 177.464 46.3188 177.567 45.6855H177.871C177.832 46.2474 177.825 46.6295 177.825 46.9329C177.825 47.1787 177.832 47.3724 177.832 47.5662C177.832 48 177.845 48.4396 177.91 49.4476H177.606C177.502 48.6009 177.489 47.6959 176.339 47.6959H175.46V50.8767C175.46 51.8396 175.634 51.9754 176.533 51.9754H177.502C179.157 51.9754 179.487 51.3803 179.674 49.6286H179.978C179.953 49.8683 179.94 50.2172 179.94 50.5853C179.94 50.9153 179.966 51.6073 180.031 52.2796Z" fill="#121A36"/>
<path fill-rule="evenodd" clip-rule="evenodd" d="M194.296 43.1712C193.398 43.2094 193.223 43.3448 193.223 44.3081V50.8767C193.223 51.8396 193.398 51.9754 194.296 52.0136V52.2796C193.883 52.2537 193.223 52.2406 192.615 52.2406C191.924 52.2406 191.29 52.2537 190.922 52.2796V52.0136C191.82 51.9754 191.988 51.8396 191.988 50.8767V43.791L188.801 52.3436H188.588L185.252 43.7528V50.7405C185.252 51.7103 185.427 51.9754 186.455 52.0136V52.2796C186.138 52.2537 185.556 52.2406 185.103 52.2406C184.658 52.2406 184.166 52.2537 183.875 52.2796V52.0136C184.773 51.9754 184.949 51.7103 184.949 50.7405V44.3081C184.949 43.3448 184.773 43.2094 183.875 43.1712V42.9053C184.166 42.9311 184.658 42.9447 185.103 42.9447C185.492 42.9447 185.944 42.9311 186.235 42.9053L189.144 50.5853L191.988 42.9447H192.615C193.223 42.9447 193.883 42.9311 194.296 42.9053V43.1712Z" fill="#121A36"/>
<path fill-rule="evenodd" clip-rule="evenodd" d="M205.293 42.9053V43.1712C204.95 43.2484 204.634 43.5648 204.233 44.3471L202.157 48.4654V50.8767C202.157 51.8396 202.325 51.9754 203.231 52.014V52.2796C202.817 52.2537 202.157 52.2406 201.55 52.2406C200.858 52.2406 200.225 52.2537 199.85 52.2796V52.014C200.755 51.9754 200.923 51.8396 200.923 50.8767V48.8791L198.24 43.9273C197.879 43.2743 197.659 43.1835 197.471 43.1835V42.9053C197.814 42.9311 198.182 42.9447 198.634 42.9447C199.217 42.9447 199.921 42.9447 200.49 42.9053V43.1835C199.985 43.1835 199.559 43.2997 199.559 43.6945C199.559 43.8168 199.598 43.9658 199.694 44.1534L201.899 48.3747L203.587 45.0133C203.832 44.5158 203.948 44.1468 203.948 43.8751C203.948 43.3514 203.515 43.1901 202.778 43.1712V42.9053C203.282 42.9311 203.839 42.9447 204.304 42.9447C204.75 42.9447 205.028 42.9311 205.293 42.9053Z" fill="#121A36"/>
</svg>
