<svg width="212" height="56" viewBox="0 0 212 56" fill="none" xmlns="http://www.w3.org/2000/svg">
<g clip-path="url(#clip0_570_3298)">
<path fill-rule="evenodd" clip-rule="evenodd" d="M34.709 19.8322L47.646 0L85.3058 55.7715H58.47L34.709 19.8322Z" fill="#EBEAEA"/>
<path fill-rule="evenodd" clip-rule="evenodd" d="M46.774 55.7712L52.1708 55.687L26.0745 16.584L0.949219 55.7712H4.84699" fill="#EBEAEA"/>
<path fill-rule="evenodd" clip-rule="evenodd" d="M77.96 34.8637H86.0334C90.8171 34.8637 91.7703 33.0322 92.3124 27.7066H93.1904C93.116 28.51 93.06 29.6127 93.06 30.8462C93.06 31.7992 93.1536 33.7986 93.34 35.7422C90.4995 35.6301 86.5938 35.6301 83.8093 35.6301C80.7817 35.6301 77.2684 35.6301 74.3535 35.7422V34.9758L90.3127 9.52295H82.2769C77.4932 9.52295 76.5396 11.3544 75.998 16.6806H75.1191C75.1943 15.8772 75.2315 14.7745 75.2315 13.541C75.2315 12.588 75.1567 10.5886 74.9695 8.64502C77.7916 8.7571 81.6977 8.7571 84.501 8.7571C87.3978 8.7571 91.0043 8.7571 93.7884 8.64502V9.41087L77.96 34.8637Z" fill="#121A36"/>
<path fill-rule="evenodd" clip-rule="evenodd" d="M116.961 35.7422C114.363 35.6301 110.756 35.6301 108.196 35.6301C105.898 35.6301 100.852 35.6301 97.0957 35.7422V34.9757C99.693 34.8636 100.197 34.4716 100.197 31.6871V12.7C100.197 9.91552 99.693 9.52291 97.0957 9.41083V8.64502C100.852 8.7571 105.898 8.7571 108.196 8.7571C110.532 8.7571 113.822 8.7571 116.194 8.64502C116.007 10.439 115.933 12.2887 115.933 13.1672C115.933 14.0826 115.971 14.9611 116.045 15.5409H115.167C114.662 11.0182 114.083 9.52291 110.028 9.52291H106.85C104.253 9.52291 103.749 9.91552 103.749 12.7V21.7262H106.29C109.616 21.7262 109.542 18.5121 109.84 16.6806H110.719C110.607 18.3067 110.588 19.4093 110.588 20.2873C110.588 20.9973 110.607 21.5583 110.607 22.1187C110.607 23.3711 110.644 24.6416 110.831 27.557H109.952C109.654 25.1087 109.616 22.4926 106.29 22.4926H103.749V31.6871C103.749 34.4716 104.253 34.8636 106.85 34.8636H109.654C114.438 34.8636 115.391 33.1448 115.933 28.0798H116.811C116.736 28.7717 116.699 29.7805 116.699 30.8462C116.699 31.7992 116.774 33.7985 116.961 35.7422Z" fill="#121A36"/>
<path fill-rule="evenodd" clip-rule="evenodd" d="M144.43 9.41083C141.833 9.52291 141.329 10.2893 141.329 13.0926V35.9288H140.45L124.378 11.0927V31.2945C124.378 34.0973 124.883 34.8636 127.855 34.9757V35.7421C126.939 35.6676 125.257 35.6301 123.949 35.6301C122.659 35.6301 121.239 35.6676 120.398 35.7421V34.9757C122.996 34.8636 123.5 34.0973 123.5 31.2945V12.7C123.5 9.91552 122.996 9.52291 120.398 9.41083V8.64502C121.239 8.71954 122.659 8.7571 123.949 8.7571C125.07 8.7571 126.098 8.71954 126.939 8.64502L140.45 29.463V13.0926C140.45 10.2893 139.964 9.52291 136.974 9.41083V8.64502C137.89 8.71954 139.571 8.7571 140.879 8.7571C142.169 8.7571 143.59 8.71954 144.43 8.64502V9.41083Z" fill="#121A36"/>
<path fill-rule="evenodd" clip-rule="evenodd" d="M157.176 9.41083C154.578 9.52291 154.073 9.91552 154.073 12.7V31.6871C154.073 34.4716 154.578 34.8636 157.176 34.9757V35.7422C155.998 35.6676 154.073 35.6301 152.316 35.6301C150.336 35.6301 148.485 35.6676 147.42 35.7422V34.9757C150.018 34.8636 150.523 34.4716 150.523 31.6871V12.7C150.523 9.91552 150.018 9.52291 147.42 9.41083V8.64502C148.485 8.71954 150.336 8.7571 152.316 8.7571C154.073 8.7571 155.998 8.71954 157.176 8.64502V9.41083Z" fill="#121A36"/>
<path fill-rule="evenodd" clip-rule="evenodd" d="M181.17 13.541C181.17 14.7745 181.207 15.8772 181.282 16.6806H180.404C179.862 11.3544 179.301 9.52291 174.518 9.52291H172.443V31.2945C172.443 34.3966 173.097 34.8636 176.311 34.9757V35.7422C174.966 35.6676 172.761 35.6301 170.686 35.6301C168.387 35.6301 166.239 35.6676 165.024 35.7422V34.9757C168.238 34.8636 168.893 34.3966 168.893 31.2945V9.52291H166.818C162.034 9.52291 161.454 11.3544 160.931 16.6806H160.052C160.128 15.8772 160.165 14.7745 160.165 13.541C160.165 12.588 160.091 10.5886 159.885 8.64502C163.062 8.7571 167.547 8.7571 170.686 8.7571C173.826 8.7571 178.255 8.7571 181.432 8.64502C181.245 10.5886 181.17 12.588 181.17 13.541Z" fill="#121A36"/>
<path fill-rule="evenodd" clip-rule="evenodd" d="M209.912 9.41083C207.314 9.52291 206.81 9.91552 206.81 12.7V31.6871C206.81 34.4716 207.314 34.8636 209.912 34.9757V35.7422C208.847 35.6676 207.016 35.6301 205.015 35.6301C203.259 35.6301 201.353 35.6676 200.157 35.7422V34.9757C202.755 34.8636 203.259 34.4716 203.259 31.6871V22.4926H190.813V31.6871C190.813 34.4716 191.318 34.8636 193.916 34.9757V35.7422C192.738 35.6676 190.813 35.6301 189.057 35.6301C187.075 35.6301 185.226 35.6676 184.16 35.7422V34.9757C186.758 34.8636 187.263 34.4716 187.263 31.6871V12.7C187.263 9.91552 186.758 9.52291 184.16 9.41083V8.64502C185.226 8.71954 187.075 8.7571 189.057 8.7571C190.813 8.7571 192.738 8.71954 193.916 8.64502V9.41083C191.318 9.52291 190.813 9.91552 190.813 12.7V21.7262H203.259V12.7C203.259 9.91552 202.755 9.52291 200.157 9.41083V8.64502C201.353 8.71954 203.259 8.7571 205.015 8.7571C207.016 8.7571 208.847 8.71954 209.912 8.64502V9.41083Z" fill="#121A36"/>
<path fill-rule="evenodd" clip-rule="evenodd" d="M74.1172 39.3257H210.804V55.6858H74.1172V39.3257Z" fill="#121A36"/>
<path fill-rule="evenodd" clip-rule="evenodd" d="M82.6888 50.6685C82.6888 51.6274 82.9148 51.7631 84.0214 51.8012V52.066C83.5644 52.0403 82.7983 52.0272 82.0838 52.0272C81.4012 52.0272 80.764 52.0403 80.3965 52.066V51.8012C81.2917 51.7631 81.4658 51.6274 81.4658 50.6685V44.1271C81.4658 43.1678 81.2917 43.0329 80.3965 42.9944V42.73C80.764 42.7557 81.427 42.7692 82.007 42.7692C82.8372 42.7692 83.6805 42.7435 83.9956 42.7435C86.1207 42.7435 87.1762 43.812 87.1762 45.3436C87.1762 46.6189 86.4363 48.2932 83.7062 48.2932H82.6888V50.6685ZM82.6892 44.1271V48.0291H83.5774C85.4451 48.0291 85.8567 46.8315 85.8567 45.4858C85.8567 43.825 85.2648 42.9949 83.6678 42.9949C82.8633 42.9949 82.6892 43.2197 82.6892 44.1271Z" fill="#EBEAEA"/>
<path fill-rule="evenodd" clip-rule="evenodd" d="M98.905 51.4088C98.531 51.9499 98.2031 52.2524 97.4948 52.2524C96.8317 52.2524 96.3294 51.9499 96.078 50.823L95.789 49.5097C95.5376 48.3892 95.3447 47.6363 94.3011 47.6363H93.0458V50.6685C93.0458 51.6274 93.2195 51.7631 94.1147 51.8012V52.066C93.7092 52.0403 93.0458 52.0272 92.4404 52.0272C91.7578 52.0272 91.1206 52.0403 90.7539 52.066V51.8012C91.6487 51.7631 91.8224 51.6274 91.8224 50.6685V44.1271C91.8224 43.1678 91.6487 43.0329 90.7539 42.9944V42.73C91.1206 42.7557 91.7836 42.7692 92.3636 42.7692C93.1938 42.7692 94.0371 42.7435 94.353 42.7435C96.4774 42.7435 97.5336 43.7474 97.5336 45.035C97.5336 45.9494 96.9601 47.2627 94.9707 47.5713L95.1317 47.5971C96.3036 47.7904 96.7283 48.2417 96.9793 49.3359L97.3079 50.6816C97.469 51.4476 97.617 51.7631 97.984 51.7631C98.3057 51.7631 98.4602 51.5702 98.7047 51.2608L98.905 51.4088ZM93.0462 44.1271V47.3718H93.9349C95.8017 47.3718 96.2141 46.3937 96.2141 45.1829C96.2141 43.7993 95.6214 42.9944 94.0244 42.9944C93.22 42.9944 93.0462 43.2193 93.0462 44.1271Z" fill="#EBEAEA"/>
<path fill-rule="evenodd" clip-rule="evenodd" d="M108.785 52.066C107.89 52.0272 106.648 52.0272 105.766 52.0272C104.974 52.0272 103.235 52.0272 101.941 52.066V51.8012C102.836 51.7631 103.01 51.6278 103.01 50.6689V44.1271C103.01 43.1678 102.836 43.0329 101.941 42.9949V42.73C103.235 42.7692 104.974 42.7692 105.766 42.7692C106.57 42.7692 107.703 42.7692 108.521 42.73C108.457 43.3484 108.431 43.9857 108.431 44.2886C108.431 44.6037 108.444 44.9062 108.47 45.1061H108.167C107.993 43.5479 107.794 43.0329 106.396 43.0329H105.302C104.407 43.0329 104.233 43.1678 104.233 44.1271V47.237H105.109C106.255 47.237 106.229 46.1296 106.332 45.4989H106.635C106.596 46.0585 106.59 46.4391 106.59 46.7411C106.59 46.986 106.596 47.1789 106.596 47.3718C106.596 47.8039 106.609 48.2417 106.674 49.2456H106.371C106.267 48.4023 106.255 47.501 105.109 47.501H104.233V50.6689C104.233 51.6278 104.407 51.7631 105.302 51.7631H106.267C107.916 51.7631 108.244 51.1704 108.431 49.4259H108.734C108.708 49.6646 108.695 50.012 108.695 50.3787C108.695 50.7073 108.721 51.3965 108.785 52.066Z" fill="#EBEAEA"/>
<path fill-rule="evenodd" clip-rule="evenodd" d="M114.905 50.6685C114.905 51.6274 115.131 51.7631 116.238 51.8012V52.066C115.781 52.0403 115.015 52.0272 114.3 52.0272C113.618 52.0272 112.98 52.0403 112.613 52.066V51.8012C113.508 51.7631 113.682 51.6274 113.682 50.6685V44.1271C113.682 43.1678 113.508 43.0329 112.613 42.9944V42.73C112.98 42.7557 113.644 42.7692 114.223 42.7692C115.054 42.7692 115.897 42.7435 116.212 42.7435C118.337 42.7435 119.393 43.812 119.393 45.3436C119.393 46.6189 118.652 48.2932 115.923 48.2932H114.905V50.6685ZM114.906 44.1271V48.0291H115.794C117.661 48.0291 118.073 46.8315 118.073 45.4858C118.073 43.825 117.481 42.9944 115.885 42.9944C115.08 42.9944 114.906 43.2193 114.906 44.1271Z" fill="#EBEAEA"/>
<path fill-rule="evenodd" clip-rule="evenodd" d="M135.036 50.959C135.3 51.6277 135.674 51.7892 135.95 51.8015V52.0663C135.589 52.0406 135.036 52.0275 134.534 52.0275C133.851 52.0275 133.221 52.0406 132.847 52.0663V51.8015C133.484 51.7757 133.78 51.6796 133.78 51.313C133.78 51.1585 133.729 50.959 133.626 50.6949L132.815 48.5314H129.634L129.093 49.9285C128.913 50.3855 128.829 50.7399 128.829 51.0105C128.829 51.5828 129.222 51.7826 129.975 51.8015V52.0663C129.473 52.0406 128.92 52.0275 128.456 52.0275C128.012 52.0275 127.735 52.0406 127.471 52.0663V51.8015C127.812 51.7246 128.205 51.4479 128.508 50.6561L131.611 42.6665H131.823L135.036 50.959ZM131.244 44.3342L129.731 48.2677H132.718L131.244 44.3342Z" fill="#EBEAEA"/>
<path fill-rule="evenodd" clip-rule="evenodd" d="M145.703 43.4002C145.799 43.4771 145.883 43.5155 145.961 43.5155C146.14 43.5155 146.25 43.271 146.295 42.7299H146.598C146.559 43.3741 146.546 44.2304 146.546 45.7628H146.243C146.057 44.6424 145.953 44.2884 145.58 43.8118C145.027 43.0973 144.157 42.7814 143.25 42.7814C141.53 42.7814 140.398 44.5648 140.398 47.4232C140.398 50.3659 141.679 51.9882 143.378 51.9882C144.17 51.9882 145.136 51.6993 145.632 50.9843C146.018 50.4689 146.108 49.9669 146.243 48.898H146.546C146.546 50.495 146.559 51.3964 146.598 52.0659H146.295C146.25 51.5247 146.159 51.2864 145.973 51.2864C145.902 51.2864 145.812 51.3252 145.703 51.3964C145.053 51.8529 144.396 52.2523 143.262 52.2523C140.758 52.2523 139.084 50.495 139.084 47.4751C139.084 44.5268 140.822 42.5435 143.275 42.5435C144.435 42.5435 145.123 42.9551 145.703 43.4002Z" fill="#EBEAEA"/>
<path fill-rule="evenodd" clip-rule="evenodd" d="M157.573 50.959C157.836 51.6277 158.21 51.7892 158.487 51.8015V52.0663C158.127 52.0406 157.573 52.0275 157.07 52.0275C156.388 52.0275 155.757 52.0406 155.384 52.0663V51.8015C156.021 51.7757 156.317 51.6796 156.317 51.313C156.317 51.1585 156.266 50.959 156.163 50.6949L155.352 48.5314H152.171L151.63 49.9285C151.45 50.3855 151.366 50.7399 151.366 51.0105C151.366 51.5828 151.759 51.7826 152.512 51.8015V52.0663C152.01 52.0406 151.456 52.0275 150.993 52.0275C150.548 52.0275 150.272 52.0406 150.008 52.0663V51.8015C150.349 51.7246 150.742 51.4479 151.044 50.6561L154.147 42.6665H154.36L157.573 50.959ZM153.781 44.3342L152.268 48.2677H155.255L153.781 44.3342Z" fill="#EBEAEA"/>
<path fill-rule="evenodd" clip-rule="evenodd" d="M169.592 47.295C169.592 50.1665 167.854 52.066 164.821 52.066C164.422 52.066 163.539 52.0272 162.973 52.0272C162.355 52.0272 161.705 52.0403 161.338 52.066V51.8012C162.233 51.7631 162.406 51.6274 162.406 50.6685V44.1271C162.406 43.1678 162.233 43.0329 161.338 42.9944V42.73C161.64 42.75 162.136 42.7754 162.625 42.7754C162.735 42.7754 162.838 42.7692 162.947 42.7692C163.553 42.7557 164.435 42.73 164.937 42.73C168.079 42.73 169.592 44.3528 169.592 47.295ZM163.63 44.1014V50.6947C163.63 51.6152 163.804 51.8273 164.621 51.8273C167.493 51.8273 168.272 50.218 168.272 47.3465C168.272 44.3912 167.338 42.9687 164.609 42.9687C163.804 42.9687 163.63 43.1935 163.63 44.1014Z" fill="#EBEAEA"/>
<path fill-rule="evenodd" clip-rule="evenodd" d="M180.245 52.066C179.349 52.0272 178.107 52.0272 177.225 52.0272C176.433 52.0272 174.694 52.0272 173.4 52.066V51.8012C174.295 51.7631 174.469 51.6278 174.469 50.6689V44.1271C174.469 43.1678 174.295 43.0329 173.4 42.9949V42.73C174.694 42.7692 176.433 42.7692 177.225 42.7692C178.029 42.7692 179.162 42.7692 179.98 42.73C179.916 43.3484 179.89 43.9857 179.89 44.2886C179.89 44.6037 179.903 44.9062 179.929 45.1061H179.626C179.452 43.5479 179.253 43.0329 177.855 43.0329H176.761C175.866 43.0329 175.692 43.1678 175.692 44.1271V47.237H176.568C177.714 47.237 177.688 46.1296 177.791 45.4989H178.094C178.055 46.0585 178.048 46.4391 178.048 46.7411C178.048 46.986 178.055 47.1789 178.055 47.3718C178.055 47.8039 178.068 48.2417 178.133 49.2456H177.83C177.726 48.4023 177.714 47.501 176.568 47.501H175.692V50.6689C175.692 51.6278 175.866 51.7631 176.761 51.7631H177.726C179.375 51.7631 179.703 51.1704 179.89 49.4259H180.193C180.167 49.6646 180.154 50.012 180.154 50.3787C180.154 50.7073 180.18 51.3965 180.245 52.066Z" fill="#EBEAEA"/>
<path fill-rule="evenodd" clip-rule="evenodd" d="M194.453 42.9949C193.558 43.0329 193.385 43.1678 193.385 44.1271V50.6689C193.385 51.6278 193.558 51.7631 194.453 51.8012V52.066C194.041 52.0403 193.385 52.0272 192.779 52.0272C192.09 52.0272 191.459 52.0403 191.092 52.066V51.8012C191.987 51.7631 192.154 51.6278 192.154 50.6689V43.6121L188.981 52.1298H188.768L185.446 43.5741V50.5332C185.446 51.4991 185.62 51.7631 186.643 51.8012V52.066C186.328 52.0403 185.749 52.0272 185.298 52.0272C184.854 52.0272 184.364 52.0403 184.074 52.066V51.8012C184.969 51.7631 185.144 51.4991 185.144 50.5332V44.1271C185.144 43.1678 184.969 43.0329 184.074 42.9949V42.73C184.364 42.7557 184.854 42.7692 185.298 42.7692C185.684 42.7692 186.135 42.7557 186.425 42.73L189.322 50.3787L192.154 42.7692H192.779C193.385 42.7692 194.041 42.7557 194.453 42.73V42.9949Z" fill="#EBEAEA"/>
<path fill-rule="evenodd" clip-rule="evenodd" d="M205.403 42.73V42.9949C205.063 43.0717 204.747 43.3869 204.348 44.166L202.281 48.2674V50.6689C202.281 51.6278 202.448 51.7631 203.35 51.8016V52.066C202.938 52.0403 202.281 52.0272 201.676 52.0272C200.987 52.0272 200.356 52.0403 199.983 52.066V51.8016C200.884 51.7631 201.052 51.6278 201.052 50.6689V48.6795L198.38 43.7478C198.02 43.0975 197.8 43.0071 197.613 43.0071V42.73C197.955 42.7557 198.322 42.7692 198.772 42.7692C199.352 42.7692 200.053 42.7692 200.62 42.73V43.0071C200.118 43.0071 199.693 43.1228 199.693 43.516C199.693 43.6378 199.732 43.7862 199.828 43.973L202.023 48.1771L203.704 44.8294C203.949 44.3339 204.064 43.9665 204.064 43.6959C204.064 43.1743 203.633 43.0137 202.899 42.9949V42.73C203.401 42.7557 203.955 42.7692 204.419 42.7692C204.863 42.7692 205.139 42.7557 205.403 42.73Z" fill="#EBEAEA"/>
</g>
<defs>
<clipPath id="clip0_570_3298">
<rect width="210.102" height="56" fill="white" transform="translate(0.949219)"/>
</clipPath>
</defs>
</svg>
