<svg width="32" height="32" viewBox="0 0 32 32" fill="none" xmlns="http://www.w3.org/2000/svg">
<g clip-path="url(#clip0_570_3810)">
<mask id="path-1-inside-1_570_3810" fill="white">
<path d="M1.73242 16.73C4.14456 15.6764 7.1375 13.8782 8.99285 11.974L7.53152 16.73L8.99255 21.4849C7.1375 19.5803 4.14456 17.7829 1.73242 16.73Z"/>
</mask>
<path d="M1.73242 16.73C4.14456 15.6764 7.1375 13.8782 8.99285 11.974L7.53152 16.73L8.99255 21.4849C7.1375 19.5803 4.14456 17.7829 1.73242 16.73Z" fill="#515E7A"/>
<path d="M1.73242 16.73L-0.815342 8.64563L-19.3302 16.7327L-0.813839 24.815L1.73242 16.73ZM8.99285 11.974L15.8805 14.9071L25.5034 -16.4113L4.17971 5.47433L8.99285 11.974ZM7.53152 16.73L0.643898 13.7968L-0.257348 16.73L0.643912 19.6632L7.53152 16.73ZM8.99255 21.4849L4.17846 27.9836L25.5067 49.8816L15.8802 18.5518L8.99255 21.4849ZM4.28019 24.8143C7.12419 23.5721 11.0241 21.3288 13.806 18.4736L4.17971 5.47433C3.25089 6.42763 1.16492 7.78067 -0.815342 8.64563L4.28019 24.8143ZM2.10523 9.04082L0.643898 13.7968L14.4191 19.6631L15.8805 14.9071L2.10523 9.04082ZM0.643912 19.6632L2.10495 24.4181L15.8802 18.5518L14.4191 13.7968L0.643912 19.6632ZM13.8066 14.9863C11.024 12.1293 7.12278 9.88641 4.27868 8.64497L-0.813839 24.815C1.16633 25.6793 3.25103 27.0314 4.17846 27.9836L13.8066 14.9863Z" fill="#515E7A" mask="url(#path-1-inside-1_570_3810)"/>
<path d="M7.26953 16.73L31.2695 16.73" stroke="#515E7A"/>
</g>
<defs>
<clipPath id="clip0_570_3810">
<rect width="32" height="32" fill="white"/>
</clipPath>
</defs>
</svg>
