<svg width="32" height="32" viewBox="0 0 32 32" fill="none" xmlns="http://www.w3.org/2000/svg">
<g clip-path="url(#clip0_570_3412)">
<mask id="path-1-inside-1_570_3412" fill="white">
<path d="M30.2676 16.7301C27.8554 15.6765 24.8625 13.8783 23.0071 11.9741L24.4685 16.7301L23.0074 21.4851C24.8625 19.5805 27.8554 17.783 30.2676 16.7301Z"/>
</mask>
<path d="M30.2676 16.7301L32.8153 8.64575L51.3302 16.7328L32.8138 24.8151L30.2676 16.7301ZM23.0071 11.9741L16.1195 14.9072L6.49663 -16.4112L27.8203 5.47445L23.0071 11.9741ZM24.4685 16.7301L31.3561 13.797L32.2573 16.7301L31.3561 19.6633L24.4685 16.7301ZM23.0074 21.4851L27.8215 27.9837L6.49326 49.8817L16.1198 18.5519L23.0074 21.4851ZM27.7198 24.8145C24.8758 23.5722 20.9759 21.3289 18.194 18.4737L27.8203 5.47445C28.7491 6.42775 30.8351 7.78079 32.8153 8.64575L27.7198 24.8145ZM29.8948 9.04094L31.3561 13.797L17.5809 19.6632L16.1195 14.9072L29.8948 9.04094ZM31.3561 19.6633L29.8951 24.4182L16.1198 18.5519L17.5809 13.7969L31.3561 19.6633ZM18.1934 14.9864C20.976 12.1294 24.8772 9.88653 27.7213 8.64509L32.8138 24.8151C30.8337 25.6794 28.749 27.0315 27.8215 27.9837L18.1934 14.9864Z" fill="url(#paint0_linear_570_3412)" mask="url(#path-1-inside-1_570_3412)"/>
<path d="M24.7305 16.7301L0.730469 16.7301" stroke="url(#paint1_linear_570_3412)"/>
</g>
<defs>
<linearGradient id="paint0_linear_570_3412" x1="27.527" y1="17.1617" x2="21.9948" y2="17.1415" gradientUnits="userSpaceOnUse">
<stop stop-color="#FFDA81"/>
<stop offset="1" stop-color="#FFB574"/>
</linearGradient>
<linearGradient id="paint1_linear_570_3412" x1="7.33047" y1="16.9402" x2="7.37067" y2="17.9135" gradientUnits="userSpaceOnUse">
<stop stop-color="#FFDA81"/>
<stop offset="1" stop-color="#FFB574"/>
</linearGradient>
<clipPath id="clip0_570_3412">
<rect width="32" height="32" fill="white"/>
</clipPath>
</defs>
</svg>
