<svg width="16" height="16" viewBox="0 0 16 16" fill="none" xmlns="http://www.w3.org/2000/svg">
<g clip-path="url(#clip0_795_2434)">
<path d="M15.4098 4.78184L11.2189 0.597386C11.1564 0.52958 11.0663 0.494032 10.9743 0.500822H5.02595C4.9341 0.494968 4.84441 0.530365 4.78132 0.597386L0.596887 4.78184C0.531345 4.84591 0.496219 4.9349 0.500323 5.02648V10.9942C0.50153 11.0791 0.536233 11.16 0.596887 11.2195L4.78135 15.4104C4.84559 15.475 4.93512 15.508 5.02599 15.5005H10.9743C11.0653 15.5089 11.1552 15.4758 11.219 15.4104L15.4099 11.1809C15.467 11.1197 15.4992 11.0393 15.5 10.9555V5.00717C15.4992 4.92343 15.467 4.84304 15.4098 4.78184Z" fill="#3C414B"/>
<path fill-rule="evenodd" clip-rule="evenodd" d="M7.5 10L7.5 4L8.5 4L8.5 10L7.5 10Z" fill="#F9FAFB"/>
<path fill-rule="evenodd" clip-rule="evenodd" d="M7.5 12L7.5 11L8.5 11L8.5 12L7.5 12Z" fill="#F9FAFB"/>
</g>
<defs>
<clipPath id="clip0_795_2434">
<rect width="16" height="16" fill="white"/>
</clipPath>
</defs>
</svg>
