<svg width="400" height="359" viewBox="0 0 400 359" fill="none" xmlns="http://www.w3.org/2000/svg">
<path d="M50.1418 357.402C50.1418 357.402 -6.34304 242.869 23.8795 153.425C115.285 -116.981 396.992 22.9329 370.661 170.644C356.181 251.878 409.973 276.218 381.979 357.575L50.1418 357.402Z" fill="#F4FAFF"/>
<path d="M190.429 191.982L194.535 193.316C194.535 193.316 201.059 191.157 206.764 198.806C206.764 198.806 208.55 201.653 206.347 203.823C204.323 205.82 203.927 201.113 200.03 202.053C196.132 202.993 193.493 201.526 191.753 199.146L188.883 197.43L190.429 191.982Z" fill="#FFB27D"/>
<path d="M274.716 62.5038C274.741 61.7847 275.3 54.0269 287.113 53.6226C287.113 53.6226 281.305 54.3146 280.3 56.8699C280.3 56.8699 284.26 53.7122 287.478 54.7272C290.696 55.7423 292.593 61.397 292.612 63.2437C292.631 65.0904 290.84 71.0849 288.796 71.5956C287.978 71.7602 287.137 71.7602 286.319 71.5956C286.903 72.508 287.433 73.4538 287.906 74.4281C292.62 84.1077 287.758 93.5663 283.766 92.52C281.207 91.8509 280.483 96.2175 280.483 96.2175L255.613 76.0831C255.613 76.0831 264.745 57.1846 274.716 62.5038Z" fill="#2C3A64"/>
<path d="M213.691 173.401C213.691 173.401 208.762 172.44 207.647 173.401C206.531 174.362 201.185 179.791 202.319 181.575C203.453 183.36 208.949 180.1 210.091 179.791C211.234 179.483 214.421 178.238 214.421 178.238L213.691 173.401Z" fill="#FFB27D"/>
<path d="M266.057 347.627L271.34 349.595C271.34 349.595 294.284 317.771 297.111 289.775C297.615 284.772 297.446 279.933 296.354 275.46C296.354 275.46 296.579 274.18 296.979 271.916C297.161 270.86 297.396 269.588 297.64 268.129C298.386 263.856 299.412 258.008 300.585 251.348C303.284 236.025 306.784 216.436 309.5 202.036L308.076 201.579L292.675 196.606L289.493 186.497L278.029 183.477C278.029 183.477 275.467 188.479 273.177 212.163C272.76 215.267 272.37 218.691 272.082 222.406C271.025 236.233 271.39 250.131 273.172 263.883C273.7 267.998 274.363 272.248 275.188 276.61C275.79 279.812 275.882 284.172 275.628 289.179C274.458 312.056 266.057 347.627 266.057 347.627Z" fill="#2B478B"/>
<path d="M272.068 222.402L296.97 271.908C297.151 270.851 297.386 269.58 297.63 268.121C298.377 263.848 299.402 257.999 300.575 251.34C303.275 236.016 306.774 216.428 309.49 202.027L308.066 201.571L292.674 196.606L289.491 186.497L278.027 183.477C278.027 183.477 275.466 188.479 273.175 212.163C272.742 215.267 272.356 218.691 272.068 222.402Z" fill="#233862"/>
<path d="M283.023 189.832L283.599 184.888C293.257 187.454 319.063 177.72 319.063 177.72C319.063 177.72 328.42 185.943 327.192 205.65C326.594 215.273 325.498 256.161 324.353 268.261C323.936 272.638 323.578 275.764 323.43 277.015C323.403 277.393 323.502 277.77 323.709 278.088C325.371 280.92 326.784 283.891 327.932 286.967C339.16 316.885 326.204 353.73 326.204 353.73L322.84 352.375C322.84 352.375 315.468 311.37 309.478 293.256C308.46 290.183 307.485 287.77 306.591 286.327C303.987 282.123 301.57 275.253 299.375 267.083C295.227 251.636 291.89 231.541 289.668 216.032C289.358 216.065 283.023 189.832 283.023 189.832Z" fill="#2B478B"/>
<path d="M213.691 173.403L214.41 178.241C214.41 178.241 214.729 178.241 215.29 178.201C217.049 178.081 221.335 177.841 226.164 177.322C233.44 176.601 242.076 175.323 245.513 173.203C250.75 170.006 259.346 160.212 264.942 150.416C265.091 150.184 265.225 149.944 265.343 149.696C268.261 144.5 270.299 139.342 270.46 135.225C270.584 133.017 270.355 130.803 269.78 128.668C269.2 126.519 268.196 124.508 266.829 122.753C266.678 122.499 266.489 122.27 266.27 122.073C264.351 119.795 262.473 118.834 262.473 118.834C261.512 118.434 260.474 118.915 259.394 120.074V120.114C258.514 121.033 257.554 122.432 256.634 124.191C256.595 124.232 256.555 124.272 256.555 124.312C256.347 124.67 256.155 125.07 255.915 125.51C255.848 125.595 255.794 125.69 255.755 125.791C255.316 126.711 254.876 127.67 254.436 128.668C249.519 139.383 245.308 155.139 240.95 159.964C239.074 162.048 229.451 166.606 222.608 169.645C217.689 171.805 213.691 173.403 213.691 173.403Z" fill="#FFB27D"/>
<path d="M222.406 162.951C228.14 160.346 234.724 162.534 237.33 173.477C239.068 180.786 255.984 188.901 248.376 200.06C241.081 208.814 223.573 203.089 225.032 191.981C226.491 180.874 230.243 171.588 226.172 169.817C221.095 167.605 222.406 162.951 222.406 162.951Z" fill="#ED7D2B"/>
<path d="M212.503 195.059C224.529 193.34 236.056 193.755 236.704 206.99C237.352 220.225 240.474 245.133 236.723 250.025C232.971 254.917 213.303 254.229 213.303 254.229C200.145 231.793 212.503 195.059 212.503 195.059Z" fill="#FFB93E"/>
<path d="M264.574 129.867C267.605 131.274 271.267 132.231 275.696 132.472C292.3 133.383 296.07 118.826 296.748 109.166C294.353 108.298 292.258 108.382 291.049 108.446C289.874 108.511 288.644 108.632 287.631 108.757C285.599 107.696 281.949 102.542 279.842 93.9209L279.125 94.2523L267.144 99.8799C267.144 99.8799 268.416 103.78 269.356 107.511C270.089 110.429 270.606 113.251 270.177 114.039C269.231 114.424 268.666 114.664 268.666 114.664C268.667 114.669 268.667 114.674 268.666 114.679C266.819 119.599 265.449 124.685 264.574 129.867Z" fill="#FFB27D"/>
<path d="M267.152 99.8882C267.152 99.8882 268.426 103.784 269.364 107.519C276.367 105.564 278.493 98.204 279.135 94.2563L267.152 99.8882Z" fill="#ED985F"/>
<path d="M265.675 104.015C265.675 104.015 282.431 100.138 279.848 89.7412C277.266 79.3447 277.701 71.8412 266.894 73.8775C256.087 75.9139 255.001 80.3931 255.014 84.0719C255.026 87.7507 261.25 104.757 265.675 104.015Z" fill="#FFB27D"/>
<path d="M254.082 78.1669C255.883 74.4006 258.002 74.6007 259.33 75.2677C267.203 67.9851 274.925 73.9358 274.925 73.9358C277.897 81.1162 284.338 84.0489 284.338 84.0489C284.338 84.0489 281.764 86.6855 274.304 86.6272C272.026 86.6084 269.733 85.5621 267.649 84.126C271.669 88.1758 276.386 90.6415 276.386 90.6415C267.046 88.8532 260.785 78.0419 260.143 76.8851C259.351 78.0544 257.838 80.541 257.711 82.6419C257.538 85.4954 258.519 91.0376 256.877 91.246C256.885 91.2502 251.381 83.8196 254.082 78.1669Z" fill="#2C3A64"/>
<path d="M254.387 128.648C254.989 126.837 259.024 119.8 259.024 119.8C259.041 119.785 261.588 117.451 268.67 114.668C268.671 114.673 268.671 114.678 268.67 114.683C268.558 115.1 265.544 126.047 266.64 128.385C267.762 130.761 288.984 123.089 290.145 121.336C291.073 119.931 291.098 112.501 291.073 109.606C291.073 108.887 291.058 108.447 291.058 108.447C291.058 108.447 298.978 107.371 303.437 109.174C303.437 109.174 301.678 112.997 301.029 117.209C300.969 117.611 300.919 118.012 300.879 118.414C300.791 119.253 300.77 120.098 300.815 120.94C300.879 122.036 301.44 123.006 302.345 123.956C303.166 124.825 304.277 125.684 305.538 126.603C306.371 127.197 307.245 127.825 308.16 128.5C308.237 133.461 307.887 141.631 308.806 150.327C309.041 152.524 309.766 154.64 310.928 156.519C311.389 157.268 311.914 157.975 312.497 158.633C317.179 163.881 325.476 174.344 323.65 180.856C323.517 186.998 271.716 195.066 272.825 188.322C272.825 188.322 265.04 150.804 260.836 141.748C260.683 141.416 260.546 141.091 260.419 140.76C259.07 137.185 259.297 133.511 259.754 130.219C257.38 128.535 254.387 128.648 254.387 128.648Z" fill="#F99746"/>
<path d="M286.771 175.714C296.984 175.606 305.638 164.997 310.926 156.518C309.764 154.639 309.039 152.522 308.804 150.325C307.885 141.619 308.235 133.459 308.158 128.498C307.243 127.823 306.359 127.196 305.536 126.602C304.285 125.682 303.164 124.824 302.343 123.955C293.976 138.099 272.916 175.866 286.771 175.714Z" fill="#ED7D2B"/>
<path d="M248.152 181.279L249.551 186.396C249.551 186.396 251.31 186.075 254.109 185.562C254.943 185.401 255.429 185.282 255.429 185.282C257.667 184.843 260.346 184.24 263.264 183.603H263.303C268.306 182.402 273.898 180.964 278.615 179.365C281.933 178.206 284.811 176.966 286.77 175.728C286.966 175.607 287.153 175.474 287.331 175.328C292.008 171.93 297.565 161.936 301.882 151.221C302.482 149.741 303.043 148.263 303.601 146.823C305.6 141.466 307.199 136.193 308.158 131.632C308.758 128.923 309.158 126.434 309.237 124.396C309.291 123.718 309.305 123.037 309.279 122.357C309.198 110.764 303.443 109.166 303.443 109.166C303.324 109.124 303.203 109.084 303.045 109.045C302.044 108.884 301.004 109.564 299.918 110.883C298.559 112.523 297.121 115.202 295.641 118.439C293.363 123.597 290.964 130.273 288.726 136.91C287.475 140.547 286.287 144.184 285.088 147.54C284.407 149.58 283.727 151.5 283.09 153.257C281.839 156.615 280.73 159.335 279.73 161.052C279.092 162.172 277.251 163.733 274.813 165.49C270.575 168.568 264.379 172.287 258.972 175.326C256.733 176.603 254.614 177.764 252.855 178.723C250.032 180.278 248.152 181.279 248.152 181.279Z" fill="#FFB27D"/>
<path d="M295.66 118.448C303.355 116.326 309.294 122.335 309.294 122.335C309.196 110.761 303.435 109.177 303.435 109.177C301.117 108.216 298.43 112.23 295.66 118.448Z" fill="#F99746"/>
<path d="M306.652 356.495H333.259C333.259 356.495 333.896 352.441 332.506 349.364C331.174 346.411 329.09 345.071 329.588 341.498C327.898 343.238 325.142 345.187 321.297 344.67C320.826 345.435 318.254 349.525 316.68 350.654C314.942 351.905 307.188 351.459 306.652 356.495Z" fill="#233862"/>
<path d="M249.529 356.495H276.136C276.136 356.495 277.13 352.252 275.383 349.365C273.837 346.809 274.428 345.355 275.575 343.241C274.161 343.848 272.631 344.133 271.094 344.075C269.768 344 268.365 343.397 267.133 342.685C265.989 343.989 261.089 349.546 259.553 350.647C257.812 351.906 250.061 351.46 249.529 356.495Z" fill="#233862"/>
<path d="M189.893 263.044C189.893 263.044 200.614 339.09 199.378 348.478L206.144 347.656C206.144 347.656 214.61 314.462 213.593 305.172C212.576 295.882 221.983 257.6 213.304 254.233C204.624 250.867 189.893 263.044 189.893 263.044Z" fill="#F0995E"/>
<path d="M199.643 263.131C199.643 263.131 214.937 339.246 214.281 348.695L220.973 347.148C220.973 347.148 227.481 312.93 225.892 303.721C224.304 294.513 231.337 255.722 222.466 252.898C213.595 250.073 199.643 263.131 199.643 263.131Z" fill="#FFB27D"/>
<path d="M199.459 347.139C199.459 347.139 197.85 350.092 194.788 350.778C192.858 351.21 191.21 352.225 190.188 353.64C189.993 353.908 189.875 354.226 189.849 354.557C189.823 354.889 189.889 355.221 190.04 355.517C190.192 355.813 190.422 356.061 190.705 356.234C190.989 356.407 191.315 356.498 191.647 356.497L207.213 356.41C207.526 356.408 207.835 356.341 208.12 356.212C208.406 356.084 208.661 355.897 208.87 355.663C209.078 355.43 209.236 355.155 209.331 354.858C209.427 354.56 209.46 354.245 209.427 353.934C209.306 352.781 209.176 351.433 209.118 350.409C208.989 348.162 206.554 346.143 206.554 346.143C206.554 346.143 204.418 347.37 203.593 347.514C201.798 347.829 199.459 347.139 199.459 347.139Z" fill="#2C3A64"/>
<path d="M214.096 347.139C214.096 347.139 212.489 350.092 209.425 350.778C207.497 351.21 205.848 352.225 204.827 353.64C204.631 353.908 204.514 354.226 204.488 354.557C204.462 354.889 204.528 355.221 204.679 355.517C204.83 355.813 205.06 356.061 205.344 356.234C205.628 356.407 205.954 356.498 206.286 356.497L221.852 356.41C222.165 356.408 222.474 356.341 222.759 356.212C223.044 356.084 223.3 355.897 223.508 355.663C223.717 355.43 223.874 355.155 223.97 354.858C224.066 354.56 224.098 354.245 224.065 353.934C223.942 352.781 223.813 351.433 223.755 350.409C223.628 348.162 221.193 346.143 221.193 346.143C221.193 346.143 219.057 347.37 218.231 347.514C216.443 347.829 214.096 347.139 214.096 347.139Z" fill="#35488B"/>
<path d="M196.492 197.162C196.492 197.162 186.32 214.312 184.27 228.295C184.27 228.295 189.216 234.965 191.229 230.284C193.242 225.603 207.683 200.503 196.492 197.162Z" fill="#FFB27D"/>
<path d="M198.43 166.72C198.538 166.539 203.09 159.34 211.598 157.904C218.491 156.741 224.938 161.612 226.003 168.521C227.068 175.464 225.982 184.46 214.654 187.697L198.43 166.72Z" fill="#ED7D2B"/>
<path d="M200.514 197.657L213.334 205.271L216.717 196.258C216.717 196.258 215.087 192.961 214.656 187.7C214.451 185.172 214.521 182.63 214.864 180.117L203.717 184.957C203.859 185.784 203.95 186.62 203.99 187.458C204.072 189.061 204.017 191.21 203.436 193.223C202.931 194.947 202.044 196.567 200.514 197.657Z" fill="#FFB27D"/>
<path d="M229.976 278.025C228.779 264.325 226.993 246.312 225.87 238.917C225.498 236.479 225.479 234.001 225.813 231.557L228.45 212.102L229.284 206C229.496 204.427 229.183 202.829 228.394 201.452C227.606 200.076 226.385 198.998 224.921 198.386C222.18 197.243 220.173 196.979 216.719 196.257C214.575 198.194 210.406 200.974 205.996 200.113C202.682 199.463 202.023 197.821 202.202 195.922C201.368 196.003 200.589 195.951 199.87 196.049C198.529 196.232 197.241 196.694 196.088 197.404C194.936 198.114 193.944 199.057 193.177 200.172L193.123 200.264C192.882 200.617 192.665 200.987 192.475 201.37L187.602 209.708C187.602 209.708 188.073 212.609 190.468 213.945C188.075 240.311 185.303 299.846 187.537 300.608C202.021 305.55 227.718 298.676 231.197 295.352C231.368 295.168 230.818 287.663 229.976 278.025Z" fill="#2C3A64"/>
<path d="M198.322 197.653C190.818 203.664 188.296 218.811 189.282 229.126C191.158 224.445 191.041 217.502 192.865 210.132C194.637 202.966 199.583 197.38 199.583 197.38C199.395 197.374 198.322 197.653 198.322 197.653Z" fill="#FFB93E"/>
<path d="M203.434 193.221C209.582 193.446 214.656 187.699 214.656 187.699L203.988 187.456C204.069 189.052 204.015 191.209 203.434 193.221Z" fill="#ED985F"/>
<path d="M200.673 189.611C200.673 189.611 212.712 193.624 217.555 184.155C222.783 173.941 218.268 165.963 214.143 165.187C205.917 163.63 200.898 166.486 199.228 169.735C197.559 172.985 194.026 187.458 200.673 189.611Z" fill="#FFB27D"/>
<path d="M205.875 184.437C205.875 184.437 205.283 185.669 202.098 184.754C202.098 184.754 199.424 183.987 199.822 182.578C199.822 182.578 202.675 182.145 205.875 184.437Z" fill="white"/>
<path d="M229.976 278.024C229.595 277.582 205.225 249.15 204.339 234.027C203.458 218.78 216.566 207.641 216.566 207.641C221.777 207.297 225.645 209.006 228.447 212.102L225.81 231.557C225.475 234 225.494 236.479 225.866 238.916C226.994 246.311 228.78 264.324 229.976 278.024Z" fill="#232E4F"/>
<path d="M220.402 196.677C208.774 199.357 205.647 218.572 210.989 233.284C214.949 244.199 227.178 249.399 227.178 249.399C228.506 247.907 227.48 244.551 227.48 244.551C209.555 233.125 212.567 216.974 216.715 208.824C220.863 200.675 221.696 197.652 227.818 199.841C227.053 196.418 220.402 196.677 220.402 196.677Z" fill="#FFB93E"/>
<path d="M209.109 166.304C209.109 166.304 207.967 177.599 218.682 181.601C222.942 183.193 225.16 165.941 216.258 162.498C207.356 159.055 198.577 163.144 197.526 169.168C196.476 175.191 197.276 176.444 197.276 176.444C197.276 176.444 201.445 164.987 209.109 166.304Z" fill="#ED7D2B"/>
<path d="M215.612 203.25C215.612 203.25 210.7 222.686 210.508 230.417C210.508 230.417 199.724 249.25 199.09 250.589C198.456 251.927 202.984 253.759 202.984 253.759C202.984 253.759 216.513 239.331 219.12 233.268C221.728 227.205 230.978 207.489 227.276 201.603C223.574 195.717 215.612 203.25 215.612 203.25Z" fill="#FFB27D"/>
<path d="M184.27 228.295C184.27 228.295 183.303 241.533 192.726 251.963C192.726 251.963 195.298 248.868 194.973 247.907C194.648 246.946 190.961 232.191 188.268 230.092C185.575 227.993 184.27 228.295 184.27 228.295Z" fill="#FFB27D"/>
<path d="M199.089 250.59C199.089 250.59 193.059 250.546 192.723 251.964C192.388 253.381 194.272 257.818 198.683 256.274C203.093 254.729 202.982 253.76 202.982 253.76L199.089 250.59Z" fill="#FFB27D"/>
<path d="M194.972 247.907C194.972 247.907 199.816 250.146 198.169 252.532C196.522 254.919 193.233 253.491 192.725 251.963C192.216 250.435 194.972 247.907 194.972 247.907Z" fill="#FFB27D"/>
<path d="M212.067 213.504C212.067 213.504 218.391 219.386 228.142 218.475C228.142 218.475 232.935 201.446 225.24 199.355C217.545 197.265 211.179 207.357 212.067 213.504Z" fill="#2C3A64"/>
<path d="M136.836 101.695C136.836 101.695 151.426 124.503 146.811 166.181C145.371 179.192 190.984 199.841 190.984 199.841C190.984 199.841 194.411 197.16 192.943 192.356C192.943 192.356 167.623 167.086 165.049 163.982C162.756 161.229 156.587 131.905 153.923 122.144C149.34 105.357 136.836 101.695 136.836 101.695Z" fill="#233862"/>
<path d="M69.9061 333.228C69.9061 333.228 64.9038 337.784 65.8855 341.023C66.8672 344.262 71.3672 346.421 71.9758 350.377C72.5845 354.333 75.021 356.495 77.2137 356.495H87.6665C87.6665 356.495 89.2819 353.71 85.3738 352.87C81.4657 352.03 80.0067 347.38 80.2505 343.061C80.4944 338.743 79.8858 332.986 79.8858 332.986L71.6027 331.068L69.9061 333.228Z" fill="#233862"/>
<path d="M131.175 345.014C131.175 345.014 130.279 355.388 132.472 356.478L160.531 356.419C160.531 356.419 160.531 353.18 156.025 352.459C151.518 351.738 143.6 349.101 142.268 343.224C140.936 337.346 131.175 345.014 131.175 345.014Z" fill="#233862"/>
<path d="M154.866 198.492C154.866 198.492 153.387 216.676 151.646 238.532C149.283 268.221 146.435 304.69 146.158 311.597C145.673 323.594 143.719 342.785 143.719 342.785C143.719 342.785 139.094 347.343 129.834 345.421C129.834 345.421 121.582 318.027 119.225 289.043C119.189 288.568 119.152 288.09 119.116 287.611C116.924 258.105 113.514 195.974 113.514 195.974L154.866 198.492Z" fill="#FFB93E"/>
<path d="M154.866 198.492C154.866 198.492 153.387 216.676 151.646 238.532L119.225 289.043C119.189 288.568 119.152 288.09 119.116 287.611C116.924 258.105 113.514 195.974 113.514 195.974L154.866 198.492Z" fill="#E3A330"/>
<path d="M148.108 200.653C148.108 200.653 121.428 266.501 103.891 297.444C86.3535 328.388 80.8676 337.025 80.8676 337.025C80.8676 337.025 70.8192 333.065 69.9062 330.37C69.9062 330.37 76.6115 270.628 88.3587 256.065C94.9972 247.836 102.795 223.133 103.157 214.506C103.52 205.879 105.533 188.777 105.533 188.777L148.108 200.653Z" fill="#FFB93E"/>
<path d="M113.008 99.1745C113.008 99.1745 131.058 107.885 141.463 104.652C139.483 102.358 137.095 100.45 134.42 99.0244C134.778 96.9401 135.06 95.1226 135.22 93.5865C135.47 91.7431 135.616 89.8873 135.66 88.0276L128.699 82.5438L122.093 77.3018C122.614 92.042 113.008 99.1745 113.008 99.1745Z" fill="#FFB27D"/>
<path d="M156.007 199.996C155.711 200.269 155.325 200.422 154.923 200.427C151.002 200.348 139.595 202.511 129.953 201.53C121.789 200.742 114.583 198.378 106.859 194.991C105.816 194.518 103.455 193.257 103.497 192.154C103.54 190.891 103.657 189.12 103.816 186.831C104.139 182.329 104.595 175.936 104.739 168.358C104.847 162.73 104.787 156.477 104.378 149.826C104.355 149.382 104.332 148.932 104.314 148.482C104.195 146.047 104.139 143.594 104.139 141.187C104.097 133.462 104.656 126.094 105.777 119.51C107.742 108.082 111.384 99.0712 116.824 95.0901C117.545 94.5378 122.068 96.7576 126.228 98.7815C130.032 100.632 133.83 100.83 137.431 100.122L141.033 103.273C145.4 107.25 150.204 112.728 152.322 121.006C154.081 128.022 155.121 140.709 155.686 153.874C155.963 159.862 156.163 165.852 156.242 171.563V171.772C156.286 172.362 156.286 172.958 156.286 173.55C156.484 188.171 156.288 199.8 156.007 199.996Z" fill="#2B478B"/>
<path d="M121.971 82.94C121.971 82.94 126.533 91.2543 135.219 93.5804C135.468 91.737 135.615 89.8812 135.658 88.0215L128.699 82.5439L121.971 82.94Z" fill="#ED985F"/>
<path d="M138.837 87.7826C138.837 87.7826 121.618 90.6006 120.001 80.0143C118.383 69.4281 115.076 62.6625 125.999 60.4218C136.923 58.1812 139.683 61.8975 141.096 65.3012C142.509 68.7049 143.274 86.7779 138.837 87.7826Z" fill="#FFB27D"/>
<path d="M113.743 59.1484C113.587 58.9691 113.226 58.8232 112.424 58.7815C112.882 58.5232 113.397 58.3802 113.922 58.3647C114.091 57.2496 114.683 55.2736 116.605 54.7943C116.292 54.9773 116.025 55.2285 115.823 55.5291C115.621 55.8297 115.489 56.172 115.438 56.5305C117.662 54.2377 122.426 52.5828 135.624 53.625C153.016 54.9985 147.284 66.1308 145.031 67.4606C142.778 68.7904 137.11 65.1491 132.919 65.4826C128.727 65.8161 127.917 71.8773 126.501 72.7068C125.086 73.5364 125.638 72.069 123.712 71.1978C121.787 70.3265 121.605 73.5197 122.162 75.5936C122.718 77.6675 120.077 80.4042 120.077 80.4042L117.397 77.5195C114.725 74.639 112.205 62.4437 113.42 59.8445C113.526 59.6153 113.633 59.3818 113.743 59.1484Z" fill="#ED7D2B"/>
<path d="M196.379 194.131C196.379 194.131 198.582 193.143 199.897 194.563C201.212 195.982 204.289 196.958 204.024 197.689C203.48 199.226 200.641 197.496 197.644 198.427C196.6 198.761 193.346 196.764 196.379 194.131Z" fill="#FFB27D"/>
<path d="M104.738 168.356C104.846 162.729 104.786 156.476 104.377 149.825C104.354 149.381 104.331 148.931 104.312 148.48C105.949 140.37 108.425 133.175 112.068 132.942C112.068 132.942 122.925 150.004 104.738 168.356Z" fill="#233862"/>
<path d="M90.377 197.779C90.377 197.779 91.2815 206.577 92.2758 208.243C93.27 209.908 97.497 215.225 99.2978 216.267C101.099 217.309 98.1973 209.26 98.5641 207.694C98.931 206.129 100.046 210.552 100.84 210.656C101.634 210.76 101.43 206.777 101.465 205.329C101.501 203.88 97.6053 200.299 96.2339 197.215C94.8624 194.13 90.377 197.779 90.377 197.779Z" fill="#FFB27D"/>
<path d="M116.872 95.0796C116.872 95.0796 105.977 100.238 100.754 108.179C92.6522 120.477 83.2582 165.308 83.0852 169.458C82.9122 173.608 89.9405 202.922 89.9405 202.922C89.9405 202.922 97.0688 202.453 98.903 198.853C98.903 198.853 97.4794 168.737 98.3819 166.801C99.2844 164.864 128.1 126.403 124.853 118.195C121.605 109.987 116.872 95.0796 116.872 95.0796Z" fill="#2B478B"/>
<path d="M231.605 186.236C234.162 187.316 237.76 191.074 243.517 188.795C247.635 187.195 251.992 186.086 254.111 185.556C254.945 185.396 255.431 185.277 255.431 185.277L253.15 178.632C253.06 178.669 252.966 178.696 252.869 178.712C251.391 179.03 243.875 180.631 240.363 179.831C236.403 178.912 229.769 183.668 229.769 183.668C229.769 183.668 229.043 185.196 231.605 186.236Z" fill="#FFB27D"/>
<path d="M399.364 356.273H0.635712C0.284617 356.273 0 356.558 0 356.909V357.72C0 358.071 0.284617 358.356 0.635712 358.356H399.364C399.715 358.356 400 358.071 400 357.72V356.909C400 356.558 399.715 356.273 399.364 356.273Z" fill="#21293E"/>
<path d="M215.392 40.5601H180.278C178.055 40.5667 175.925 41.4527 174.354 43.0247C172.782 44.5966 171.897 46.7266 171.891 48.9494V62.2327C171.89 64.2643 172.631 66.2262 173.975 67.7499L171.891 77.2877L183.921 70.6179H215.394C217.617 70.6113 219.747 69.7253 221.319 68.1534C222.891 66.5815 223.777 64.4515 223.784 62.2285V48.9494C223.777 46.7261 222.891 44.5957 221.319 43.0238C219.746 41.4519 217.616 40.5661 215.392 40.5601Z" fill="#D2E3FC"/>
<path d="M216.053 50.6827H179.65C179.289 50.6821 178.943 50.5386 178.688 50.2836C178.432 50.0285 178.288 49.6826 178.287 49.3216C178.288 48.9604 178.432 48.6144 178.688 48.359C178.943 48.1036 179.289 47.9596 179.65 47.9585H216.053C216.414 47.9596 216.76 48.1036 217.015 48.359C217.271 48.6144 217.415 48.9604 217.416 49.3216C217.415 49.6826 217.271 50.0285 217.015 50.2836C216.76 50.5386 216.414 50.6821 216.053 50.6827Z" fill="#B7D3F3"/>
<path d="M216.053 56.6456H179.65C179.289 56.6445 178.943 56.5005 178.688 56.2451C178.432 55.9897 178.288 55.6436 178.287 55.2824C178.288 54.9214 178.432 54.5756 178.688 54.3205C178.943 54.0654 179.289 53.9219 179.65 53.9214H216.053C216.414 53.9219 216.76 54.0654 217.015 54.3205C217.271 54.5756 217.415 54.9214 217.416 55.2824C217.415 55.6436 217.271 55.9897 217.015 56.2451C216.76 56.5005 216.414 56.6445 216.053 56.6456Z" fill="#B7D3F3"/>
<path d="M216.053 62.3814H179.65C179.289 62.3809 178.943 62.2374 178.688 61.9823C178.432 61.7272 178.288 61.3814 178.287 61.0204C178.288 60.6592 178.432 60.3131 178.688 60.0577C178.943 59.8023 179.289 59.6583 179.65 59.6572H216.053C216.414 59.6583 216.76 59.8023 217.015 60.0577C217.271 60.3131 217.415 60.6592 217.416 61.0204C217.415 61.3814 217.271 61.7272 217.015 61.9823C216.76 62.2374 216.414 62.3809 216.053 62.3814Z" fill="#B7D3F3"/>
</svg>
