<svg width="455" height="461" viewBox="0 0 455 461" fill="none" xmlns="http://www.w3.org/2000/svg">
<g clip-path="url(#clip0_570_3614)">
<path d="M332.181 195.741L314.502 269.265L406.471 291.379L424.149 217.854L332.181 195.741Z" fill="#FAFAFA"/>
<path d="M424.169 217.88L423.719 217.79L422.429 217.49L417.429 216.32L398.549 211.85L332.139 196.02L332.439 195.84C327.179 217.72 321.159 242.84 314.779 269.36L314.549 269.02L406.549 291.19L406.269 291.35C411.649 269.23 416.099 250.88 419.209 238.05C420.779 231.64 422.009 226.61 422.859 223.16C423.279 221.45 423.599 220.16 423.859 219.24C424.119 218.32 424.209 217.88 424.209 217.88C424.209 217.88 424.119 218.32 423.919 219.2C423.719 220.08 423.399 221.4 423.009 223.1C422.189 226.54 421.009 231.56 419.489 237.97C416.419 250.84 412.039 269.25 406.749 291.46L406.689 291.68L406.469 291.63L314.469 269.55L314.199 269.49L314.269 269.22C320.669 242.67 326.709 217.58 331.979 195.7L332.039 195.46L332.279 195.52L398.809 211.65L417.549 216.23L422.489 217.45L423.749 217.76L424.169 217.88Z" fill="#E0E0E0"/>
<path d="M334.242 201.131L318.789 265.399L404.302 285.961L419.755 221.693L334.242 201.131Z" fill="#F5F5F5"/>
<path d="M318.801 265.42L358.281 232.65L370.771 262.1L386.531 251.75L404.311 285.99L318.801 265.42Z" fill="#EBEBEB"/>
<path d="M385.8 234.1C385.479 235.431 384.771 236.636 383.765 237.564C382.76 238.492 381.501 239.101 380.15 239.314C378.798 239.527 377.413 239.335 376.171 238.761C374.929 238.187 373.884 237.258 373.17 236.091C372.456 234.924 372.103 233.571 372.158 232.203C372.212 230.836 372.671 229.515 373.476 228.409C374.281 227.302 375.395 226.459 376.68 225.985C377.964 225.512 379.359 225.43 380.69 225.75C381.574 225.962 382.408 226.345 383.144 226.88C383.88 227.414 384.504 228.089 384.978 228.864C385.453 229.64 385.77 230.502 385.911 231.4C386.052 232.299 386.014 233.216 385.8 234.1Z" fill="#EBEBEB"/>
<path d="M72.4805 165.15L143.91 148.15C147.059 147.365 150.39 147.842 153.193 149.478C155.995 151.115 158.047 153.782 158.91 156.91L185.3 260.13L202.99 266.95C204.798 267.633 206.416 268.738 207.71 270.173C209.005 271.608 209.937 273.332 210.43 275.2L226.7 338.85C227.07 340.398 227.128 342.005 226.87 343.575C226.613 345.146 226.046 346.65 225.202 347.999C224.358 349.349 223.254 350.517 221.954 351.436C220.654 352.354 219.184 353.005 217.63 353.35L96.2505 382.27L72.4805 165.15Z" fill="#E0E0E0"/>
<path d="M179.64 318.43L52.79 348.67L7.5 171.54L134.36 141.29L179.64 318.43Z" fill="#F5F5F5"/>
<path d="M200.511 343.7L67.6409 375.38L20.2109 189.84L153.081 158.16L200.511 343.7Z" fill="white"/>
<path d="M0 182.43L53.68 392.43L196.22 358.43C197.954 358.049 199.595 357.325 201.046 356.301C202.497 355.277 203.729 353.974 204.669 352.468C205.61 350.962 206.241 349.283 206.524 347.531C206.808 345.778 206.738 343.986 206.32 342.26L182.75 250.02C182.047 247.364 180.681 244.93 178.779 242.946C176.878 240.963 174.504 239.495 171.88 238.68L154.39 233.1L137.27 166.1C135.08 157.54 126.12 152.31 117.27 154.43L0 182.43Z" fill="#F4FAFF"/>
<path d="M221.19 340.85L211.72 343.11L196.07 281.91L205.55 279.65L221.19 340.85Z" fill="#EBEBEB"/>
<path d="M62.1191 303.69L60.389 304.22C53.589 283.45 61.229 260.81 79.389 247.89C88.2863 241.631 98.8586 238.19 109.735 238.011C120.612 237.833 131.291 240.926 140.389 246.89L139.389 248.34C130.599 242.582 120.282 239.599 109.775 239.777C99.2688 239.955 89.0585 243.287 80.4691 249.34C62.9291 261.78 55.5491 283.64 62.1191 303.69Z" fill="#E0E0E0"/>
<path d="M142.109 329.68C133.189 335.965 122.582 339.415 111.671 339.579C100.761 339.744 90.054 336.614 80.9492 330.6L81.9492 329.16C90.7345 334.957 101.062 337.972 111.586 337.814C122.111 337.655 132.343 334.329 140.949 328.27C149.261 322.427 155.551 314.145 158.949 304.57C162.234 295.349 162.583 285.338 159.949 275.91L161.699 275.45C164.433 285.213 164.084 295.583 160.699 305.14C157.187 315.045 150.693 323.618 142.109 329.68Z" fill="#E0E0E0"/>
<path d="M125.381 258.37C119.677 256.008 113.469 255.127 107.334 255.809C101.199 256.491 95.336 258.713 90.2906 262.27C85.3437 265.724 81.4109 270.438 78.9 275.924C76.3891 281.41 75.3915 287.468 76.0106 293.47L125.381 258.37Z" fill="#E0E0E0"/>
<path d="M94.8906 320.34C100.815 323.319 107.437 324.633 114.05 324.144C120.663 323.654 127.019 321.379 132.441 317.56C137.756 313.853 141.893 308.696 144.358 302.703C146.823 296.709 147.511 290.133 146.341 283.76L94.8906 320.34Z" fill="#E0E0E0"/>
<path d="M71.1101 307.12L69.3501 304.82L61.0801 310.7L62.8401 313L71.1101 307.12Z" fill="#E0E0E0"/>
<path d="M66.3691 311.98L77.2491 326.26L79.9291 324.35L69.0391 310.07L66.3691 311.98Z" fill="#E0E0E0"/>
<path d="M148.62 252.02L146.86 249.72L138.59 255.6L140.34 257.9L148.62 252.02Z" fill="#E0E0E0"/>
<path d="M143.881 256.87L154.761 271.15L157.441 269.25L146.551 254.97L143.881 256.87Z" fill="#E0E0E0"/>
<path d="M85.5502 316.69C84.8502 316.94 84.1302 316.69 83.3602 315.69L76.1402 306.22C75.3802 305.22 75.3402 304.47 75.7902 303.9L73.8602 301.37C71.6802 303.2 71.5902 305.66 73.6002 308.3L80.6002 317.42C82.6002 320.05 85.0702 320.7 87.5302 319.24L85.5502 316.69Z" fill="#E0E0E0"/>
<path d="M74.8008 300.69L76.7308 303.23C77.4308 302.98 78.1608 303.23 78.9208 304.23L86.1408 313.7C86.9108 314.7 86.9408 315.45 86.4908 316.02L88.4308 318.55C90.6008 316.72 90.6908 314.25 88.6908 311.62L81.6908 302.5C79.7308 299.88 77.2708 299.23 74.8008 300.69Z" fill="#E0E0E0"/>
<path d="M82.5904 295.41L80.1504 297.14L93.5204 314.69L95.9704 312.95L82.5904 295.41Z" fill="#E0E0E0"/>
<path d="M84.0795 294.34L83.5195 294.75L85.4295 297.25L85.9995 296.85C86.8495 296.25 87.6095 296.32 88.5695 297.57L90.5695 300.2C91.5695 301.46 91.3595 302.2 90.5095 302.79L89.9495 303.19L91.8595 305.7L92.4195 305.3C95.0995 303.39 95.2495 300.93 93.1095 298.12L91.3695 295.84C89.2395 293.02 86.7595 292.44 84.0795 294.34Z" fill="#E0E0E0"/>
<path d="M114.29 284.27L111.35 286.37L113.26 288.87L116.2 286.78L114.29 284.27Z" fill="#E0E0E0"/>
<path d="M104.781 279.63L102.311 281.39L115.681 298.94L118.151 297.18L104.781 279.63Z" fill="#E0E0E0"/>
<path d="M105.711 278.97L107.621 281.48L111.511 278.71L109.601 276.2L105.711 278.97Z" fill="#E0E0E0"/>
<path d="M119.09 296.51L122.98 293.75L121.07 291.24L117.17 294.01L119.09 296.51Z" fill="#E0E0E0"/>
<path d="M126.2 287.77C125.5 288.04 124.78 287.77 124 286.77L116.78 277.3C116.01 276.3 115.98 275.53 116.45 274.96L114.55 272.44C112.29 274.28 112.24 276.73 114.27 279.44L121.22 288.56C123.22 291.23 125.69 291.91 128.22 290.37L126.2 287.77Z" fill="#E0E0E0"/>
<path d="M115.461 271.8L117.391 274.33C118.081 274.1 118.801 274.33 119.561 275.33L120.991 277.21L123.521 275.41L122.221 273.7C120.241 271.13 117.881 270.42 115.461 271.8Z" fill="#E0E0E0"/>
<path d="M126.779 284.82C127.529 285.82 127.559 286.54 127.129 287.1L129.079 289.65C131.149 287.83 131.149 285.44 129.169 282.85L127.399 280.52L124.869 282.32L126.779 284.82Z" fill="#E0E0E0"/>
<path d="M122.911 266.74L120.641 268.36L134.011 285.9L136.291 284.29L122.911 266.74Z" fill="#E0E0E0"/>
<path d="M140.41 278.02L138.35 275.32C136.96 273.49 135.51 272.47 133.73 272.85C134.48 271.42 134.14 269.85 132.73 268.04L131.68 266.66C129.61 263.96 127.41 263.48 124.68 265.45L123.84 266.04L125.75 268.55L126.55 268.02C127.5 267.35 128.34 267.61 129.29 268.86L130.61 270.59C131.68 271.99 131.41 272.88 130.42 273.59L129.9 273.95L131.81 276.46L132.21 276.18C133.42 275.31 134.42 275.54 135.66 277.18L137.76 279.94C138.253 280.724 138.895 281.404 139.65 281.94L142.37 280.01C141.588 279.487 140.921 278.81 140.41 278.02Z" fill="#E0E0E0"/>
<path d="M132.9 259.64L130.42 261.4L143.79 278.95L146.27 277.19L132.9 259.64Z" fill="#E0E0E0"/>
<path d="M142.401 264.29L139.471 266.37L141.381 268.88L144.311 266.79L142.401 264.29Z" fill="#E0E0E0"/>
<path d="M147.209 276.52L151.089 273.76L149.179 271.25L145.289 274.02L147.209 276.52Z" fill="#E0E0E0"/>
<path d="M133.83 258.98L135.74 261.49L139.63 258.72L137.72 256.22L133.83 258.98Z" fill="#E0E0E0"/>
<path d="M107.94 300.8C107.2 301.14 106.44 300.94 105.62 299.87L104.62 298.61L102.09 300.41L102.91 301.49C104.91 304.14 107.35 304.82 109.82 303.33L107.94 300.8Z" fill="#E0E0E0"/>
<path d="M99.0999 287.31C99.7999 287.04 100.51 287.31 101.29 288.31L101.84 289.04L104.37 287.24L103.95 286.69C101.95 284.07 99.5999 283.36 97.1699 284.77L99.0999 287.31Z" fill="#E0E0E0"/>
<path d="M98.6092 290.24C97.8692 289.24 97.7892 288.55 98.1792 288L96.2392 285.45C94.0692 287.27 94.0592 289.68 96.0692 292.31C99.8892 297.31 105.639 294.31 108.389 297.89C109.099 298.82 109.179 299.52 108.819 300.07L110.819 302.66C112.939 300.83 112.949 298.43 110.959 295.82C107.109 290.8 101.369 293.84 98.6092 290.24Z" fill="#E0E0E0"/>
<path d="M69.3495 290.8L70.6395 290.71C72.1895 290.61 73.1295 291.3 73.2395 292.71C73.3495 294.12 72.5495 295.02 70.9595 295.1L65.9595 295.44C64.4095 295.55 63.4695 294.86 63.3695 293.44C63.2695 292.02 64.0895 291.19 65.6395 291.08L66.5495 291.02L66.6595 292.41L65.6595 292.48C64.9695 292.48 64.7195 292.84 64.7595 293.3C64.7995 293.76 65.0795 294.05 65.7595 294L70.9895 293.64C71.6795 293.59 71.9095 293.28 71.8795 292.81C71.8495 292.34 71.5695 292.07 70.8795 292.12L69.4895 292.21L69.3495 290.8Z" fill="#E0E0E0"/>
<path d="M65.7404 286.63C64.1904 286.43 63.4204 285.54 63.6104 284.11C63.8004 282.68 64.7904 282 66.3304 282.19L71.3304 282.82C72.8704 283.01 73.6404 283.9 73.4504 285.34C73.4283 285.658 73.3356 285.966 73.179 286.244C73.0225 286.521 72.806 286.76 72.5454 286.943C72.2848 287.126 71.9866 287.248 71.6726 287.302C71.3586 287.355 71.0367 287.337 70.7304 287.25L65.7404 286.63ZM71.0304 285.8C71.7204 285.89 72.0304 285.63 72.0304 285.17C72.0304 284.71 71.8804 284.38 71.1904 284.29L65.9904 283.64C65.3004 283.55 64.9904 283.81 64.9904 284.28C64.9904 284.75 65.1504 285.07 65.8304 285.15L71.0304 285.8Z" fill="#E0E0E0"/>
<path d="M68.2007 276.54L74.8407 278.78L74.3907 280.02L65.2207 276.93L65.8607 275.18L71.8607 275.6L66.3707 273.75L66.8207 272.51L75.9907 275.61L75.4707 277.02L68.2007 276.54Z" fill="#E0E0E0"/>
<path d="M73.6209 268.72L74.6209 267.09L75.8109 267.77L74.8109 269.41L78.2609 271.41L77.4809 272.68L69.1309 267.89L71.1909 264.54L72.3909 265.22L71.1009 267.31L73.6209 268.72Z" fill="#E0E0E0"/>
<path d="M73.9902 260.88L74.9902 259.75L82.4502 265.75L81.4502 266.88L73.9902 260.88Z" fill="#E0E0E0"/>
<path d="M78.4805 256.16L80.3105 254.64C80.533 254.415 80.803 254.242 81.1007 254.134C81.3985 254.027 81.7165 253.987 82.0316 254.017C82.3467 254.048 82.6511 254.149 82.9225 254.312C83.1938 254.475 83.4255 254.696 83.6005 254.96L86.8005 258.56C87.8005 259.7 87.8005 260.79 86.6405 261.75L84.8105 263.27L78.4805 256.16ZM80.5405 256.21L85.0705 261.29L85.7205 260.75C86.0905 260.44 86.1405 260.08 85.7205 259.57L82.4305 255.87C81.9805 255.36 81.5905 255.37 81.2305 255.67L80.5405 256.21Z" fill="#E0E0E0"/>
<path d="M89.6794 253.09L91.5094 252.09L92.1894 253.26L90.3594 254.26L91.7394 256.66L94.0394 255.43L94.7194 256.6L91.0794 258.55L86.3594 250.36L89.9994 248.36L90.6694 249.53L88.3694 250.77L89.6794 253.09Z" fill="#E0E0E0"/>
<path d="M96.8893 248.46L98.9893 254.94L97.6793 255.34L94.7793 246.39L96.6093 245.84L99.8393 250.74L98.0993 245.38L99.3993 244.99L102.299 253.94L100.809 254.39L96.8893 248.46Z" fill="#E0E0E0"/>
<path d="M104.221 244.02L108.911 243.56L109.051 244.89L107.471 245.05L108.321 253.05L106.801 253.2L105.951 245.2L104.361 245.36L104.221 244.02Z" fill="#E0E0E0"/>
<path d="M113.55 243.6L115.08 243.69L114.51 253.05L112.99 252.97L113.55 243.6Z" fill="#E0E0E0"/>
<path d="M122.78 254.48L121.28 254.14L121.42 252.43L119.6 252.02L118.95 253.62L117.58 253.32L121.28 244.52L123.45 245L122.78 254.48ZM120.08 250.83L121.52 251.14L121.9 246.36L120.08 250.83Z" fill="#E0E0E0"/>
<path d="M129.611 246.93L131.001 247.53L127.601 254.87L129.891 255.87L129.321 257.09L125.641 255.5L129.611 246.93Z" fill="#E0E0E0"/>
<path d="M152.72 288.16L151.43 288.25C149.88 288.36 148.94 287.67 148.83 286.25C148.72 284.83 149.56 283.99 151.11 283.89L156.11 283.54C157.66 283.44 158.6 284.12 158.7 285.54C158.8 286.96 157.98 287.79 156.43 287.9L155.55 288.02L155.45 286.63L156.45 286.56C157.14 286.51 157.39 286.2 157.35 285.73C157.31 285.26 157.03 284.99 156.35 285.04L151.12 285.39C150.43 285.44 150.2 285.75 150.24 286.22C150.28 286.69 150.54 286.97 151.24 286.92L152.63 286.82L152.72 288.16Z" fill="#E0E0E0"/>
<path d="M156.341 292.34C157.881 292.53 158.651 293.42 158.461 294.86C158.438 295.178 158.345 295.487 158.189 295.764C158.032 296.042 157.816 296.281 157.556 296.465C157.296 296.648 156.998 296.772 156.684 296.827C156.37 296.881 156.048 296.865 155.741 296.78L150.741 296.15C150.424 296.159 150.109 296.097 149.82 295.968C149.531 295.838 149.275 295.645 149.071 295.403C148.867 295.16 148.721 294.875 148.643 294.568C148.565 294.261 148.557 293.94 148.621 293.63C148.811 292.19 149.801 291.52 151.341 291.71L156.341 292.34ZM151.041 293.16C150.351 293.08 150.041 293.34 149.991 293.8C149.941 294.26 150.151 294.59 150.831 294.68L156.031 295.33C156.721 295.41 157.031 295.15 157.081 294.69C157.131 294.23 156.921 293.9 156.241 293.81L151.041 293.16Z" fill="#E0E0E0"/>
<path d="M153.87 302.43L147.23 300.19L147.68 298.94L156.85 302.02L156.21 303.76L150.21 303.34L155.7 305.19L155.25 306.43L146.08 303.34L146.6 301.91L153.87 302.43Z" fill="#E0E0E0"/>
<path d="M148.451 310.24L147.451 311.88L146.261 311.2L147.261 309.56L143.811 307.56L144.591 306.3L152.941 311.08L150.881 314.43L149.691 313.75L150.971 311.67L148.451 310.24Z" fill="#E0E0E0"/>
<path d="M148.079 318.09L147.079 319.22L139.619 313.22L140.619 312.09L148.079 318.09Z" fill="#E0E0E0"/>
<path d="M143.549 322.81L141.719 324.33C141.496 324.555 141.225 324.727 140.927 324.834C140.629 324.941 140.311 324.98 139.996 324.948C139.68 324.917 139.376 324.815 139.105 324.651C138.834 324.487 138.603 324.265 138.429 324L135.229 320.41C134.229 319.27 134.229 318.18 135.389 317.22L137.219 315.7L143.549 322.81ZM141.489 322.75L136.959 317.67L136.309 318.22C135.939 318.52 135.889 318.89 136.309 319.4L139.599 323.09C140.049 323.6 140.439 323.6 140.799 323.29L141.489 322.75Z" fill="#E0E0E0"/>
<path d="M132.39 325.87L130.56 326.87L129.88 325.7L131.71 324.7L130.33 322.3L128.03 323.54L127.35 322.37L130.99 320.37L135.71 328.57L132.07 330.57L131.4 329.4L133.7 328.16L132.39 325.87Z" fill="#E0E0E0"/>
<path d="M125.18 330.5L123.08 324.02L124.39 323.63L127.29 332.58L125.46 333.13L122.23 328.22L123.97 333.58L122.67 333.97L119.77 325.03L121.26 324.57L125.18 330.5Z" fill="#E0E0E0"/>
<path d="M117.85 334.92L113.16 335.39L113.02 334.05L114.6 333.9L113.75 325.9L115.27 325.75L116.12 333.75L117.71 333.59L117.85 334.92Z" fill="#E0E0E0"/>
<path d="M108.55 335.36L107.02 335.28L107.59 325.91L109.11 326L108.55 335.36Z" fill="#E0E0E0"/>
<path d="M99.2891 324.49L100.789 324.82L100.649 326.54L102.469 326.94L103.119 325.34L104.489 325.64L100.789 334.45L98.6191 333.96L99.2891 324.49ZM101.989 328.14L100.549 327.82L100.169 332.6L101.989 328.14Z" fill="#E0E0E0"/>
<path d="M92.4603 332.02L91.0703 331.41L94.4703 324.08L92.1803 323.08L92.7503 321.85L96.4303 323.45L92.4603 332.02Z" fill="#E0E0E0"/>
<path d="M21.1298 193.82L24.4298 206.74L21.8198 207.36L17.2598 189.52L20.8998 188.66L26.6098 198.66L23.8798 187.99L26.4698 187.37L31.0298 205.2L28.0298 205.91L21.1298 193.82Z" fill="#E0E0E0"/>
<path d="M29.08 189.57C28.9387 189.205 28.8825 188.812 28.9154 188.422C28.9483 188.032 29.0696 187.655 29.27 187.318C29.4704 186.982 29.7448 186.696 30.0722 186.481C30.3996 186.267 30.7716 186.129 31.16 186.08C31.5332 185.951 31.9306 185.906 32.3233 185.948C32.7161 185.991 33.0944 186.12 33.4312 186.327C33.7679 186.534 34.0546 186.812 34.2705 187.143C34.4865 187.474 34.6263 187.849 34.68 188.24L35.68 192.19C35.8212 192.555 35.8775 192.948 35.8446 193.338C35.8116 193.728 35.6904 194.105 35.4899 194.442C35.2895 194.778 35.0152 195.064 34.6877 195.279C34.3603 195.493 33.9883 195.63 33.6 195.68C33.2267 195.808 32.8298 195.851 32.4377 195.808C32.0456 195.764 31.668 195.634 31.3318 195.428C30.9955 195.222 30.709 194.944 30.4926 194.614C30.2762 194.284 30.1353 193.911 30.08 193.52L29.08 189.57ZM31.97 193.18C32.18 194 32.59 194.18 33.2 194.05C33.81 193.92 34.08 193.54 33.87 192.73L32.8 188.57C32.6 187.76 32.16 187.57 31.57 187.71C30.98 187.85 30.7 188.21 30.9 189.03L31.97 193.18ZM36.68 196.02L37.13 197.78L31.55 199.15L31.1 197.39L36.68 196.02Z" fill="#E0E0E0"/>
<path d="M116.5 154.62L138.13 195.02L85.7999 221.15L64.1699 180.75L116.5 154.62Z" fill="#FAFAFA"/>
<path d="M116.491 154.63L116.241 154.76L115.511 155.13L112.681 156.57L101.991 161.95L64.2409 180.88L64.3109 180.68L85.9509 221.07L85.7209 221L138.051 194.9L137.991 195.09L122.371 165.75L118.021 157.55C117.531 156.6 117.141 155.88 116.881 155.38C116.621 154.88 116.491 154.63 116.491 154.63C116.491 154.63 116.631 154.86 116.901 155.34L118.051 157.47L122.461 165.62L138.251 194.96L138.311 195.08L138.191 195.14L85.8709 221.29L85.7209 221.37L85.6409 221.22C77.8409 206.63 70.4709 192.84 64.0309 180.82L63.9609 180.68L64.1009 180.62L102.001 161.78L112.701 156.48L115.531 155.09L116.251 154.74L116.491 154.63Z" fill="#E0E0E0"/>
<path d="M86.2398 217.7L134.89 193.41L115.99 158.1L67.3398 182.39L86.2398 217.7Z" fill="#F5F5F5"/>
<path d="M86.2402 217.7L91.4802 187.27L109.36 195.75L112.57 184.84L134.89 193.41L86.2402 217.7Z" fill="#EBEBEB"/>
<path d="M105.031 177.1C105.29 177.588 105.447 178.122 105.494 178.672C105.541 179.222 105.476 179.776 105.303 180.3C105.13 180.824 104.853 181.308 104.489 181.722C104.124 182.136 103.679 182.472 103.181 182.71C102.168 183.217 100.999 183.313 99.917 182.98C98.8349 182.647 97.9229 181.909 97.3709 180.92C97.1134 180.432 96.9569 179.898 96.9108 179.348C96.8647 178.799 96.93 178.245 97.1027 177.722C97.2755 177.198 97.5521 176.714 97.916 176.3C98.28 175.886 98.7238 175.549 99.2209 175.31C100.233 174.799 101.403 174.699 102.487 175.033C103.571 175.367 104.482 176.108 105.031 177.1Z" fill="#EBEBEB"/>
<path d="M102.55 178.76C101.17 178.772 99.8242 178.324 98.7255 177.488C97.6268 176.652 96.837 175.474 96.4803 174.14L93.2303 161.46C93.1374 161.099 93.1917 160.717 93.3811 160.396C93.5705 160.075 93.8796 159.843 94.2403 159.75C94.601 159.657 94.9838 159.712 95.3044 159.901C95.6251 160.09 95.8574 160.399 95.9503 160.76L99.1903 173.45C99.436 174.319 100.012 175.058 100.795 175.508C101.578 175.958 102.505 176.085 103.38 175.86C103.826 175.759 104.246 175.57 104.617 175.304C104.988 175.037 105.302 174.7 105.54 174.31C105.761 173.952 105.906 173.553 105.968 173.137C106.03 172.721 106.007 172.297 105.9 171.89L101.9 156.27C101.486 154.798 100.513 153.545 99.1884 152.779C97.8642 152.014 96.2933 151.795 94.8103 152.17C94.0567 152.342 93.3454 152.663 92.7184 153.115C92.0914 153.567 91.5615 154.14 91.1603 154.8C90.7853 155.412 90.5371 156.093 90.4306 156.802C90.3241 157.512 90.3614 158.235 90.5403 158.93L90.6403 159.31C90.7217 159.666 90.6613 160.039 90.4719 160.35C90.2824 160.662 89.9788 160.887 89.6258 160.978C89.2727 161.07 88.898 161.02 88.5814 160.839C88.2647 160.658 88.0311 160.361 87.9303 160.01L87.8303 159.62C87.5569 158.566 87.4984 157.468 87.6582 156.391C87.818 155.314 88.1927 154.28 88.7603 153.35C89.3544 152.371 90.1381 151.521 91.0655 150.85C91.9928 150.178 93.045 149.699 94.1603 149.44C96.3503 148.916 98.6583 149.263 100.597 150.409C102.536 151.555 103.953 153.409 104.55 155.58L108.55 171.2C108.743 171.968 108.782 172.765 108.666 173.548C108.549 174.331 108.279 175.082 107.87 175.76C107.442 176.469 106.875 177.085 106.203 177.569C105.531 178.054 104.768 178.398 103.96 178.58C103.499 178.694 103.026 178.754 102.55 178.76Z" fill="#E0E0E0"/>
<path d="M219.757 73.013L206.359 75.0415L207.713 83.9796L221.11 81.9511L219.757 73.013Z" fill="#E0E0E0"/>
<path d="M174.27 80.4298C171.98 80.3498 170.36 78.8398 169.78 75.0098L169.11 70.5498L160.4 71.8698L160.98 75.6998C162.41 85.1498 167.48 90.0698 175.64 89.4498L174.27 80.4298Z" fill="#E0E0E0"/>
<path d="M321.821 387.27V428.27H314.971V432.73H321.821V460.18H449.821V435.18H440.341V429.74H449.821V421.57H454.041V417.86H449.041V387.27H321.821Z" fill="#F5F5F5"/>
<path d="M415.859 387.39V459.74H449.859V434.76H440.369V429.78L449.859 429.94V421.78L454.149 421.79L454.069 417.57L449.069 417.45V387.27L415.859 387.39Z" fill="#E0E0E0"/>
<path d="M418.279 432.16C418.279 432.41 395.109 432.61 366.539 432.61C337.969 432.61 314.789 432.41 314.789 432.16C314.789 431.91 337.959 431.7 366.539 431.7C395.119 431.7 418.279 431.91 418.279 432.16Z" fill="#E0E0E0"/>
<path d="M418.279 428.02C418.279 428.27 395.109 428.47 366.539 428.47C337.969 428.47 314.789 428.27 314.789 428.02C314.789 427.77 337.959 427.56 366.539 427.56C395.119 427.56 418.279 427.74 418.279 428.02Z" fill="#E0E0E0"/>
<path d="M424.919 416.77C424.919 417.03 401.759 417.23 373.179 417.23C344.599 417.23 321.439 417.03 321.439 416.77C321.439 416.51 344.599 416.32 373.179 416.32C401.759 416.32 424.919 416.52 424.919 416.77Z" fill="#E0E0E0"/>
<path d="M425.55 447.34C425.55 447.59 402.38 447.79 373.81 447.79C345.24 447.79 322.07 447.59 322.07 447.34C322.07 447.09 345.23 446.88 373.81 446.88C402.39 446.88 425.55 447.08 425.55 447.34Z" fill="#E0E0E0"/>
<path d="M41.7603 419.74V441.45H33.0703V443.81H41.7603V458.34H204.21V445.12H192.21V442.24H204.21V437.92H209.55V435.92H203.2V419.74H41.7603Z" fill="#F5F5F5"/>
<path d="M161.07 419.81V458.1H204.21V444.88H192.18V442.24L204.21 442.33V438.01H209.66L209.56 435.78L203.21 435.71V419.74L161.07 419.81Z" fill="#E0E0E0"/>
<path d="M164.14 443.5C164.14 443.63 134.75 443.74 98.4898 443.74C62.2298 443.74 32.8398 443.63 32.8398 443.5C32.8398 443.37 62.2298 443.26 98.4898 443.26C134.75 443.26 164.14 443.37 164.14 443.5Z" fill="#E0E0E0"/>
<path d="M164.14 441.29C164.14 441.43 134.75 441.53 98.4898 441.53C62.2298 441.53 32.8398 441.43 32.8398 441.29C32.8398 441.15 62.2298 441.05 98.4898 441.05C134.75 441.05 164.14 441.16 164.14 441.29Z" fill="#E0E0E0"/>
<path d="M172.55 435.36C172.55 435.49 143.16 435.6 106.91 435.6C70.66 435.6 41.25 435.49 41.25 435.36C41.25 435.23 70.64 435.12 106.91 435.12C143.18 435.12 172.55 435.23 172.55 435.36Z" fill="#E0E0E0"/>
<path d="M173.38 451.53C173.38 451.67 143.99 451.77 107.74 451.77C71.4901 451.77 42.0801 451.67 42.0801 451.53C42.0801 451.39 71.4701 451.29 107.74 451.29C144.01 451.29 173.38 451.4 173.38 451.53Z" fill="#E0E0E0"/>
<path d="M449.45 459.11C449.45 459.25 352.86 459.37 233.74 459.37C114.62 459.37 18.0098 459.25 18.0098 459.11C18.0098 458.97 114.58 458.85 233.74 458.85C352.9 458.85 449.45 459.02 449.45 459.11Z" fill="#263238"/>
<path d="M375.939 85.5301L350.209 60.9401L344.119 96.9701L313.139 97.7801L332.799 129.12L305.699 153.53L342.979 149.38L345.189 184.18L377.169 158.17L415.959 182.88L411.009 146.54L440.159 144.51L419.379 119.83L433.419 94.6801L406.039 96.9401L401.639 57.8301L375.939 85.5301Z" fill="url(#paint0_linear_570_3614)"/>
<path d="M375.94 85.5298C375.94 85.5298 376.52 84.8798 377.64 83.6598C378.76 82.4398 380.43 80.6598 382.64 78.2598L401.55 57.7398L401.74 57.5298V57.8198C402.97 68.5798 404.47 81.8198 406.19 96.9198L406 96.7698L433.38 94.4798H433.76L433.57 94.8098L419.57 119.96V119.71L440.37 144.39L440.67 144.74H440.21L411.05 146.74L411.28 146.46L416.28 182.8L416.36 183.34L415.89 183.05L377.1 158.34H377.4L372.53 162.34L345.42 184.34L345.03 184.65V184.15C344.283 172.296 343.547 160.7 342.82 149.36L343.1 149.6L305.82 153.73L305.08 153.81L305.63 153.31L332.74 128.91V129.2C325.78 118.073 319.233 107.623 313.1 97.8498L312.92 97.5498H313.27L344.27 96.7698L344.1 96.9098C346.51 82.7598 348.56 70.7798 350.25 60.9098V60.6798L350.42 60.8398L369.47 79.1498L374.39 83.8898L376.06 85.5198L374.39 83.9498C373.27 82.9498 371.62 81.3298 369.45 79.2698L350.12 61.0198L350.33 60.9498C348.67 70.8498 346.66 82.8298 344.33 96.9498V97.0898H344.19L313.19 97.9298L313.35 97.6298L332.98 129.02L333.08 129.18L332.94 129.3L305.86 153.73L305.67 153.31L342.94 149.15H343.21V149.42C343.94 160.74 344.68 172.36 345.44 184.21L345.02 184.03L372.12 161.98L376.99 157.98L377.14 157.86L377.3 157.96L416.09 182.67L415.69 182.93C413.99 170.4 412.32 158.16 410.75 146.59V146.33H411.02L440.17 144.33L440.01 144.71L419.21 120.02L419.11 119.9L419.18 119.77L433.24 94.6298L433.43 94.9298L406.05 97.1198H405.88V96.9398C404.2 81.8298 402.73 68.5998 401.53 57.8198L401.75 57.8998L382.65 78.3798L377.65 83.7098C376.55 84.9298 375.94 85.5298 375.94 85.5298Z" fill="url(#paint1_linear_570_3614)"/>
<path d="M348.359 127.28L349.669 124.38C351.287 125.498 353.203 126.104 355.169 126.12C357.459 126.12 358.379 125.36 358.379 124.33C358.379 121.21 348.689 123.33 348.689 117.16C348.689 114.33 350.979 111.97 355.689 111.97C357.718 111.929 359.719 112.44 361.479 113.45L360.279 116.38C358.881 115.543 357.288 115.088 355.659 115.06C353.379 115.06 352.499 115.92 352.499 116.97C352.499 120.04 362.189 117.97 362.189 124.04C362.189 126.83 359.879 129.21 355.119 129.21C352.722 129.268 350.365 128.595 348.359 127.28Z" fill="#111932"/>
<path d="M377.7 121.59V128.93H373.99V122.16C373.99 120.09 373.04 119.16 371.39 119.16C369.74 119.16 368.32 120.25 368.32 122.61V128.95H364.6V111.25H368.32V117.45C368.863 116.938 369.503 116.54 370.201 116.277C370.9 116.014 371.644 115.893 372.39 115.92C375.42 115.92 377.7 117.68 377.7 121.59Z" fill="#111932"/>
<path d="M394.17 121.59V128.93H390.45V122.16C390.45 120.09 389.5 119.16 387.85 119.16C386.2 119.16 384.78 120.25 384.78 122.61V128.95H381.07V111.25H384.78V117.45C385.325 116.937 385.966 116.538 386.667 116.275C387.367 116.012 388.113 115.892 388.86 115.92C391.88 115.92 394.17 117.68 394.17 121.59Z" fill="#111932"/>
<path d="M396.98 126.95C397.019 126.37 397.276 125.826 397.701 125.429C398.125 125.032 398.684 124.811 399.265 124.811C399.847 124.811 400.406 125.032 400.83 125.429C401.255 125.826 401.512 126.37 401.55 126.95C401.512 127.53 401.255 128.074 400.83 128.471C400.406 128.868 399.847 129.089 399.265 129.089C398.684 129.089 398.125 128.868 397.701 128.471C397.276 128.074 397.019 127.53 396.98 126.95ZM397.05 112.25H401.48L400.74 123.14H397.79L397.05 112.25Z" fill="#111932"/>
<path d="M164.109 40.5602C149.909 40.0402 135.709 47.3602 129.259 58.5602C126.127 64.1448 124.828 70.5721 125.546 76.9347C126.264 83.2973 128.962 89.2737 133.259 94.0202C126.259 97.0202 123.609 105.86 128.049 111.46C132.489 117.06 142.859 117.92 148.399 113.14C145.069 119.38 148.729 127.43 155.399 130.98C162.069 134.53 170.909 133.98 177.869 130.85C184.829 127.72 190.119 122.23 194.129 116.3L197.129 61.0602C191.759 49.4202 178.309 41.0802 164.109 40.5602Z" fill="#2C3A64"/>
<path d="M159.329 124.5C156.86 121.38 155.58 117.484 155.717 113.507C155.854 109.531 157.4 105.732 160.079 102.79C156.809 99.0101 157.719 92.9701 160.759 89.0201C163.799 85.0701 168.459 82.6901 172.949 80.4401C175.049 68.9801 187.679 60.5301 199.229 62.8701C204.889 54.0001 217.549 52.1901 227.829 54.7701C230.339 55.4001 232.829 56.2401 235.449 56.1401C237.339 55.9311 239.213 55.5971 241.059 55.1401C251.369 53.4101 261.909 60.2601 266.289 69.6401C266.88 71.1976 267.673 72.6703 268.649 74.0201C270.049 75.6801 272.119 76.6201 273.909 77.8801C275.826 79.2532 277.423 81.0252 278.59 83.0743C279.757 85.1233 280.466 87.4008 280.669 89.7501C280.979 93.7501 279.849 97.9801 281.669 101.53C282.579 103.31 284.169 104.72 284.889 106.53C286.999 111.93 281.079 117.72 282.409 123.36C282.689 124.5 283.249 125.56 283.619 126.69C284.362 129.013 284.231 131.527 283.249 133.76C282.489 135.47 281.249 137.05 281.179 138.91C281.179 140.32 281.829 141.64 282.179 143.02C282.999 146.38 276.069 159.69 273.179 161.63L184.759 165.49C181.406 164.877 178.326 163.237 175.945 160.797C173.564 158.357 172 155.238 171.469 151.87C171.472 150.739 171.149 149.632 170.539 148.68C169.821 148.031 168.982 147.532 168.069 147.21C162.259 144.39 161.299 136.69 161.679 130.31C161.785 129.418 161.735 128.514 161.529 127.64C161.014 126.456 160.266 125.388 159.329 124.5Z" fill="#2C3A64"/>
<path d="M187.8 123.96C186.99 108.5 193.04 90.1698 208.32 82.0598C217.95 76.9498 225.6 76.6598 230.73 75.8798C237.932 74.9466 245.249 76.2009 251.73 79.4798C256.64 80.4798 275.08 95.9898 276.64 113.48C278.36 132.93 279.64 156.74 277.71 171.34C273.75 200.7 248.55 205.02 248.55 205.02L248.4 224.02C234.33 245.39 209.29 246.41 192.72 226.96L187.8 123.96Z" fill="#FFBF9D"/>
<path d="M235.63 168.44C235.729 167.045 236.338 165.735 237.34 164.76C238.261 163.842 239.456 163.248 240.743 163.068C242.031 162.887 243.342 163.13 244.48 163.76C246.77 165.07 247.25 167.57 247.07 170.43C245.98 172.18 245.21 173.89 243.16 174.23C242.84 174.23 242.52 174.32 242.16 174.34C240.545 174.456 238.945 173.968 237.67 172.97C237.006 172.421 236.477 171.727 236.123 170.942C235.77 170.157 235.601 169.301 235.63 168.44Z" fill="#FF9A6C"/>
<path d="M265.05 137.64C265.08 138.622 264.724 139.578 264.059 140.301C263.393 141.024 262.471 141.458 261.49 141.51C261.01 141.562 260.525 141.518 260.062 141.381C259.6 141.243 259.17 141.014 258.797 140.707C258.424 140.401 258.117 140.023 257.892 139.596C257.668 139.169 257.531 138.701 257.49 138.22C257.462 137.238 257.819 136.285 258.484 135.562C259.149 134.839 260.069 134.404 261.05 134.35C261.529 134.298 262.015 134.342 262.477 134.48C262.94 134.617 263.37 134.846 263.742 135.153C264.115 135.459 264.423 135.837 264.647 136.264C264.872 136.692 265.009 137.159 265.05 137.64Z" fill="#263238"/>
<path d="M270.129 124.88C269.679 125.38 266.75 123.35 262.67 123.46C258.59 123.57 255.67 125.66 255.19 125.17C254.97 124.96 255.43 124.06 256.71 123.09C258.456 121.823 260.551 121.124 262.71 121.09C264.827 121.025 266.911 121.635 268.659 122.83C269.909 123.78 270.359 124.65 270.129 124.88Z" fill="#263238"/>
<path d="M247.04 157.31C247.04 157.08 249.54 156.59 253.64 155.97C254.64 155.84 255.64 155.61 255.82 154.9C256 154.19 255.58 153.05 255.05 151.9C254.01 149.426 252.916 146.836 251.77 144.13C247.22 133.06 243.89 123.95 244.34 123.78C244.79 123.61 248.86 132.42 253.41 143.49L256.56 151.31C256.98 152.47 257.69 153.78 257.2 155.31C257.055 155.678 256.829 156.008 256.538 156.274C256.247 156.541 255.898 156.738 255.52 156.85C254.948 157.023 254.356 157.12 253.76 157.14C249.63 157.46 247.06 157.54 247.04 157.31Z" fill="#263238"/>
<path d="M248.68 205.02C234.73 205.58 220.894 202.301 208.68 195.54C208.68 195.54 218.78 216.28 248.31 212.83L248.68 205.02Z" fill="#FF9A6C"/>
<path d="M267.051 108.81C266.391 109.81 263.251 109.23 259.601 109.62C255.951 110.01 252.961 111.03 252.131 110.16C251.771 109.74 252.131 108.77 253.381 107.75C255.095 106.5 257.117 105.739 259.23 105.547C261.343 105.355 263.469 105.74 265.381 106.66C266.801 107.44 267.341 108.33 267.051 108.81Z" fill="#263238"/>
<path d="M219.25 137.96C219.307 138.942 219.746 139.863 220.472 140.527C221.199 141.19 222.157 141.543 223.14 141.51C223.621 141.521 224.099 141.435 224.546 141.258C224.993 141.082 225.401 140.818 225.745 140.481C226.088 140.145 226.361 139.743 226.548 139.3C226.734 138.857 226.83 138.381 226.83 137.9C226.771 136.919 226.331 135.999 225.605 135.336C224.879 134.673 223.923 134.32 222.94 134.35C222.459 134.338 221.98 134.422 221.532 134.599C221.084 134.775 220.676 135.039 220.332 135.375C219.988 135.712 219.715 136.114 219.529 136.558C219.344 137.002 219.249 137.479 219.25 137.96Z" fill="#263238"/>
<path d="M214.33 127.81C214.83 128.27 217.57 126 221.64 125.81C225.71 125.62 228.83 127.4 229.24 126.88C229.44 126.65 228.91 125.8 227.55 124.94C225.707 123.839 223.571 123.33 221.43 123.48C219.315 123.595 217.291 124.38 215.65 125.72C214.45 126.7 214.08 127.61 214.33 127.81Z" fill="#263238"/>
<path d="M213.761 112.02C214.621 112.89 217.711 111.75 221.481 111.47C225.251 111.19 228.481 111.66 229.181 110.66C229.481 110.17 228.911 109.29 227.461 108.51C225.481 107.547 223.27 107.158 221.081 107.39C218.912 107.55 216.832 108.32 215.081 109.61C213.761 110.61 213.381 111.58 213.761 112.02Z" fill="#263238"/>
<path d="M190.119 151.33C190.059 149.15 187.389 144.08 185.199 143.8C179.369 143.04 168.909 143.8 169.199 158.34C169.559 178.27 190.199 173.68 190.199 173.1C190.199 172.52 190.319 158.84 190.119 151.33Z" fill="#FFBF9D"/>
<path d="M184.04 166.02C183.95 165.95 183.69 166.26 183.11 166.54C182.28 166.916 181.336 166.952 180.48 166.64C178.33 165.91 176.48 162.64 176.32 159.01C176.234 157.298 176.538 155.588 177.21 154.01C177.389 153.38 177.719 152.804 178.172 152.331C178.626 151.859 179.188 151.505 179.81 151.3C180.21 151.183 180.638 151.21 181.02 151.377C181.402 151.543 181.713 151.838 181.9 152.21C182.18 152.76 182.06 153.21 182.16 153.21C182.26 153.21 182.59 152.86 182.41 152.04C182.29 151.549 182.004 151.114 181.6 150.81C181.315 150.603 180.991 150.455 180.647 150.374C180.304 150.294 179.948 150.282 179.6 150.34C178.05 150.47 176.68 151.91 175.99 153.49C175.165 155.23 174.781 157.146 174.87 159.07C175.07 163.07 177.22 166.8 180.15 167.59C180.695 167.736 181.266 167.758 181.822 167.656C182.377 167.554 182.902 167.33 183.36 167C184.01 166.53 184.11 166.08 184.04 166.02Z" fill="#FF9A6C"/>
<path d="M281.13 113.66C276.99 111.25 274.3 107.89 274.44 103.14C271.75 104 268.92 100.63 267.29 98.3598C265.66 96.0898 263.7 94.9698 263.75 92.1898C263.81 91.6372 263.724 91.0785 263.5 90.5698C263.07 89.8198 262.11 89.5698 261.27 89.3598C259.111 88.7365 257.143 87.5801 255.547 85.9968C253.952 84.4136 252.78 82.4545 252.14 80.2998C247.833 82.2838 243.104 83.1767 238.37 82.8998C237.346 84.43 235.954 85.6785 234.321 86.5309C232.689 87.3833 230.869 87.8122 229.027 87.7784C227.186 87.7446 225.383 87.249 223.783 86.3372C222.183 85.4255 220.838 84.1266 219.87 82.5598C219.216 83.7967 218.303 84.8782 217.194 85.7307C216.084 86.5831 214.804 87.1865 213.44 87.4998C210.703 88.12 207.891 88.3423 205.09 88.1598C205.67 90.8587 205.253 93.6764 203.914 96.0908C202.575 98.5051 200.407 100.352 197.81 101.29C197.09 101.53 196.27 101.76 195.96 102.44C195.65 103.12 196.03 103.93 196.33 104.65C198.2 109.16 195.33 114.99 190.52 116.25C193.88 118.7 193.69 124.55 190.17 126.78C189.45 127.24 188.51 127.78 188.64 128.62C188.718 128.937 188.881 129.227 189.11 129.46C190.66 131.39 192.21 133.51 192.46 135.97C192.71 138.43 191.09 141.23 188.6 141.4C189.94 142.52 191.2 143.97 191.27 145.7C191.34 147.43 189.62 149.24 187.96 148.65C187.26 148.41 177.17 146.7 176.71 146.12C170.81 138.61 177.78 129.97 178.1 120.47C178.42 110.97 181.54 101.69 186.1 93.3298C187.962 89.7765 190.289 86.4874 193.02 83.5498C196.316 80.3628 199.967 77.5645 203.9 75.2098C208.9 71.9498 214.07 68.6898 219.9 67.2098C230.72 64.4098 242.12 68.0298 252.39 72.4098C256.364 73.9309 260.117 75.9756 263.55 78.4898C267.55 81.6498 270.48 85.8498 273.09 90.1698C276.85 96.4198 280.01 103.17 280.9 110.39" fill="#2C3A64"/>
<path d="M234.88 164.71C235.36 164.39 237.36 167.71 241.63 168.34C245.9 168.97 249.23 166.54 249.54 166.99C249.71 167.17 249.13 168.1 247.65 168.99C245.706 170.173 243.411 170.64 241.16 170.31C239.005 169.997 237.055 168.861 235.72 167.14C234.76 165.87 234.64 164.83 234.88 164.71Z" fill="#263238"/>
<path d="M184.06 185.54C182.575 185.521 181.127 185.079 179.885 184.266C178.642 183.453 177.657 182.302 177.046 180.949C176.434 179.596 176.22 178.097 176.43 176.627C176.64 175.157 177.264 173.778 178.23 172.65L178.99 173.3C178 174.461 177.437 175.926 177.394 177.451C177.351 178.977 177.831 180.471 178.753 181.686C179.676 182.901 180.987 183.764 182.467 184.133C183.948 184.501 185.51 184.352 186.895 183.71C188.279 183.068 189.402 181.973 190.079 180.605C190.755 179.237 190.943 177.679 190.612 176.189C190.281 174.7 189.451 173.368 188.259 172.415C187.068 171.462 185.586 170.945 184.06 170.95V169.95C186.079 170.023 187.991 170.875 189.394 172.329C190.797 173.783 191.581 175.725 191.581 177.745C191.581 179.766 190.797 181.707 189.394 183.161C187.991 184.615 186.079 185.468 184.06 185.54Z" fill="#455A64"/>
<path d="M287.13 352.76C288.93 352.76 353.13 339.87 353.13 339.87C353.13 339.87 335.63 240.69 302.13 235.28L282.65 315.93L284.89 352.76H287.13Z" fill="#F99746"/>
<path d="M314.079 353.94C321.699 314.74 310.189 290.82 310.189 290.82L302.089 235.28L257.929 226.28C257.929 226.28 250.689 239.61 223.769 239.28C209.769 239.08 191.709 215.83 191.709 215.83L151.979 226.32L161.099 379.38C161.099 379.38 149.829 422.24 136.859 459.18L319.429 459.67C316.259 440.89 303.179 382.84 303.179 382.84C306.759 373.96 313.159 361.93 314.079 353.94Z" fill="#F99746"/>
<g opacity="0.3">
<path d="M252.189 397.64L254.089 406.87H308.529L305.889 394.89L252.189 397.64Z" fill="black"/>
</g>
<path d="M295.279 259.63C295.338 259.722 295.389 259.819 295.429 259.92L295.829 260.78L297.309 264.11C298.609 267 300.539 271.11 302.939 276.27C305.339 281.43 308.179 287.52 310.939 294.5C312.289 297.99 313.599 301.71 314.689 305.65C315.791 309.721 316.511 313.885 316.839 318.09C317.481 326.203 317.314 334.36 316.339 342.44C315.603 349.035 314.437 355.576 312.849 362.02C311.828 366.378 310.491 370.656 308.849 374.82C308.299 376.31 307.729 377.41 307.379 378.16C307.209 378.51 307.069 378.8 306.959 379.01C306.849 379.22 306.809 379.3 306.809 379.3C306.827 379.191 306.864 379.086 306.919 378.99L307.279 378.12C307.609 377.35 308.139 376.24 308.659 374.75C310.225 370.571 311.508 366.291 312.499 361.94C314.021 355.496 315.137 348.963 315.839 342.38C316.77 334.33 316.921 326.209 316.289 318.13C315.961 313.954 315.251 309.817 314.169 305.77C313.089 301.86 311.799 298.15 310.469 294.66C307.769 287.66 304.949 281.57 302.609 276.42C300.269 271.27 298.369 267.09 297.139 264.18C296.509 262.73 296.049 261.59 295.739 260.81L295.389 259.93C295.344 259.833 295.307 259.733 295.279 259.63Z" fill="#263238"/>
<path d="M117.12 346.63C117.12 346.63 113.12 357.96 142.02 355.58C170.92 353.2 178.95 335.1 178.95 335.1L173.22 313.1L136.31 304.5L120.88 317.18L117.12 346.63Z" fill="#455A64"/>
<g opacity="0.3">
<path d="M117.12 346.63C117.12 346.63 113.12 357.96 142.02 355.58C170.92 353.2 178.95 335.1 178.95 335.1L173.22 313.1L136.31 304.5L120.88 317.18L117.12 346.63Z" fill="#F99746"/>
</g>
<g opacity="0.3">
<path d="M252.549 239.02C249.819 235.81 242.979 237.17 243.399 241.38L154.949 399.87C168.549 407.94 184.759 415.87 199.439 410.06C213.689 404.38 220.309 388.06 225.069 373.35C237.949 333.47 248.299 292.68 254.299 251.17C254.899 247.02 255.309 242.21 252.549 239.02Z" fill="black"/>
</g>
<path d="M117.33 293.39C117.33 295.39 142.46 368.57 148.08 384.39C155.51 405.39 188.24 417.68 205.28 393.69C223.77 367.69 251.99 256.39 251.99 256.39L226.31 245.84L180.77 337.91L156.23 243.82L117.33 293.39Z" fill="#FFBF9D"/>
<path d="M251.04 261.37C251.04 261.37 257.54 248.37 257.92 247.73C258.01 247.58 257.62 247.31 257.8 247.45C258.406 247.853 259.122 248.055 259.849 248.028C260.576 248.001 261.276 247.746 261.85 247.3C264.85 245.11 270.02 241.81 270.98 239.38C272.112 238.576 273.052 237.531 273.733 236.321C274.415 235.111 274.82 233.765 274.92 232.38C275.34 227.52 275.92 216.38 275.92 216.38C275.92 216.38 280.85 214.58 280.5 210.38C280.15 206.18 273.6 207.2 273.6 207.2C273.6 207.2 272.43 202.2 268.8 201.11C265.17 200.02 252.22 200.31 252.22 200.31C252.22 200.31 251.81 183.19 251.55 176.09C251.545 172.19 250.631 168.345 248.88 164.86C248.546 164.225 248.016 163.713 247.369 163.403C246.721 163.092 245.991 162.998 245.286 163.135C244.581 163.272 243.939 163.632 243.456 164.163C242.972 164.693 242.672 165.366 242.6 166.08C242.341 168.926 242.378 171.792 242.71 174.63C243.71 184.63 237.76 203.26 237.19 203.89C236.62 204.52 230.19 210.2 230.47 216.89C230.75 223.58 227.57 243.5 222.92 253.17" fill="#FFBF9D"/>
<path d="M222.939 253.11C222.939 253.11 223.009 252.91 223.159 252.55C223.309 252.19 223.559 251.64 223.839 250.92C224.389 249.47 225.169 247.31 225.959 244.47C226.749 241.63 227.589 238.12 228.359 234.01C229.263 229.358 229.89 224.656 230.239 219.93C230.239 219.27 230.309 218.61 230.309 217.93C230.309 217.25 230.309 216.58 230.309 215.87C230.412 214.438 230.75 213.033 231.309 211.71C232.524 208.938 234.266 206.428 236.439 204.32L236.849 203.91L237.049 203.71L237.159 203.49C237.299 203.17 237.439 202.79 237.569 202.42C237.829 201.69 238.069 200.93 238.309 200.17C238.783 198.644 239.229 197.08 239.649 195.48C240.479 192.29 241.239 188.98 241.809 185.55C242.445 182.055 242.683 178.499 242.519 174.95C242.359 173.14 242.199 171.28 242.209 169.41C242.209 168.47 242.209 167.53 242.319 166.58C242.322 165.567 242.7 164.591 243.379 163.84C243.746 163.481 244.184 163.203 244.664 163.022C245.144 162.841 245.657 162.762 246.169 162.79C246.688 162.821 247.193 162.963 247.651 163.209C248.108 163.454 248.507 163.796 248.819 164.21C249.84 165.911 250.579 167.764 251.009 169.7C251.47 171.639 251.741 173.619 251.819 175.61C251.879 177.61 251.939 179.61 251.999 181.61C252.169 187.96 252.339 194.2 252.499 200.26L252.239 200.01C256.549 199.95 260.779 199.96 264.909 200.26C265.942 200.329 266.97 200.452 267.989 200.63C269.037 200.786 270.023 201.225 270.839 201.9C272.324 203.305 273.367 205.112 273.839 207.1L273.559 206.92C275.024 206.699 276.518 206.78 277.949 207.16C278.672 207.363 279.33 207.749 279.859 208.28C280.346 208.843 280.649 209.541 280.729 210.28C280.782 211.002 280.687 211.727 280.449 212.41C280.194 213.073 279.829 213.689 279.369 214.23C278.433 215.24 277.281 216.026 275.999 216.53L276.149 216.34C275.849 220.847 275.566 225.13 275.299 229.19C275.239 230.19 275.169 231.19 275.109 232.19C275.025 233.174 274.809 234.143 274.469 235.07C273.801 236.852 272.608 238.389 271.049 239.48L271.129 239.4C270.545 240.506 269.742 241.483 268.769 242.27C267.869 243.07 266.939 243.77 266.039 244.45C265.139 245.13 264.229 245.74 263.359 246.35L262.079 247.25C261.67 247.568 261.206 247.809 260.709 247.96C260.234 248.115 259.729 248.162 259.233 248.098C258.737 248.034 258.261 247.86 257.839 247.59L257.689 247.49C257.599 247.69 257.919 247.25 257.859 247.29L257.929 247.36C257.98 247.418 258.017 247.487 258.039 247.56C258.052 247.589 258.058 247.619 258.058 247.65C258.058 247.681 258.052 247.712 258.039 247.74V247.82L257.739 248.42L257.149 249.57L255.049 253.69C253.789 256.14 252.809 258.05 252.129 259.36L251.369 260.83C251.189 261.16 251.089 261.32 251.089 261.32C251.089 261.32 251.159 261.14 251.319 260.81L252.039 259.32L254.879 253.59L256.939 249.45L257.519 248.29L257.819 247.69C257.819 247.69 257.819 247.62 257.879 247.63L257.819 247.54L257.769 247.49C257.709 247.49 258.019 247.07 257.929 247.28L258.069 247.38C258.458 247.622 258.895 247.775 259.35 247.828C259.804 247.882 260.265 247.835 260.699 247.69C261.168 247.546 261.606 247.316 261.989 247.01L263.269 246.1C264.129 245.49 265.019 244.86 265.919 244.19C266.819 243.52 267.739 242.8 268.619 242.01C269.551 241.259 270.317 240.322 270.869 239.26V239.21C272.346 238.149 273.474 236.673 274.109 234.97C274.809 233.22 274.739 231.21 274.899 229.19C275.153 225.137 275.419 220.854 275.699 216.34V216.2H275.839C277.048 215.715 278.132 214.963 279.009 214C279.442 213.509 279.781 212.943 280.009 212.33C280.22 211.71 280.301 211.053 280.249 210.4C280.192 209.751 279.933 209.135 279.509 208.64C279.038 208.161 278.448 207.816 277.799 207.64C276.44 207.276 275.02 207.201 273.629 207.42H273.419L273.359 207.2C272.895 205.313 271.895 203.601 270.479 202.27C269.009 200.96 266.839 200.97 264.829 200.75C260.739 200.46 256.509 200.45 252.209 200.51H251.959V200.25C251.789 194.19 251.619 187.96 251.449 181.6C251.289 177.6 251.449 173.6 250.449 169.81C250.032 167.941 249.323 166.149 248.349 164.5C248.084 164.143 247.743 163.849 247.351 163.64C246.958 163.43 246.524 163.311 246.079 163.29C245.64 163.264 245.199 163.329 244.786 163.482C244.372 163.635 243.996 163.873 243.679 164.18C243.079 164.845 242.753 165.714 242.769 166.61C242.689 167.53 242.649 168.46 242.659 169.39C242.659 171.24 242.799 173.07 242.949 174.89C243.118 178.48 242.873 182.077 242.219 185.61C241.639 189.06 240.879 192.38 240.029 195.61C239.609 197.21 239.149 198.78 238.679 200.31C238.429 201.08 238.189 201.84 237.919 202.58C237.789 202.96 237.649 203.32 237.479 203.71C237.429 203.813 237.372 203.914 237.309 204.01L237.099 204.23L236.689 204.64C234.548 206.7 232.827 209.155 231.619 211.87C231.07 213.14 230.732 214.491 230.619 215.87C230.619 216.54 230.619 217.23 230.619 217.87C230.619 218.51 230.619 219.22 230.549 219.87C230.16 224.609 229.493 229.32 228.549 233.98C227.739 238.1 226.869 241.61 226.049 244.45C225.422 246.63 224.684 248.776 223.839 250.88C223.539 251.59 223.279 252.12 223.109 252.49C222.939 252.86 222.939 253.11 222.939 253.11Z" fill="#FF9A6C"/>
<path d="M269.301 240.55C269.362 240.364 269.446 240.186 269.551 240.02C269.741 239.64 269.991 239.16 270.281 238.57C271.219 236.824 271.94 234.971 272.431 233.05C272.74 231.74 272.818 230.387 272.661 229.05C272.51 227.511 271.916 226.049 270.951 224.84C269.783 223.586 268.352 222.606 266.761 221.97C265.131 221.2 263.391 220.5 261.591 219.84C259.791 219.18 258.001 218.6 256.281 218.02C254.644 217.446 252.974 216.969 251.281 216.59C248.061 215.89 244.951 216.1 242.781 217.34C241.009 218.222 239.619 219.718 238.871 221.55C238.647 222.235 238.5 222.943 238.431 223.66C238.411 223.471 238.411 223.28 238.431 223.09C238.451 222.543 238.545 222.002 238.711 221.48C239.387 219.565 240.758 217.974 242.551 217.02C243.78 216.329 245.145 215.912 246.551 215.8C248.151 215.672 249.762 215.78 251.331 216.12C253.045 216.491 254.734 216.965 256.391 217.54C258.121 218.11 259.901 218.69 261.721 219.35C263.541 220.01 265.281 220.72 266.931 221.51C268.585 222.171 270.068 223.197 271.271 224.51C272.282 225.793 272.897 227.343 273.041 228.97C273.186 230.364 273.084 231.772 272.741 233.13C272.211 235.068 271.427 236.927 270.411 238.66C270.071 239.28 269.791 239.75 269.591 240.07C269.519 240.244 269.422 240.406 269.301 240.55Z" fill="#FF9A6C"/>
<path d="M251.99 259.48C252.039 259.294 252.113 259.116 252.21 258.95C252.39 258.56 252.63 258.07 252.92 257.47C253.21 256.87 253.62 256.05 254.04 255.13C254.523 254.097 254.901 253.018 255.17 251.91C255.416 250.548 255.513 249.163 255.46 247.78C255.437 246.187 255.226 244.603 254.83 243.06C254.1 239.76 252.71 236.25 252.13 232.28V232.06L252.36 232C252.733 231.895 253.095 231.754 253.44 231.58C254.095 231.236 254.676 230.767 255.149 230.199C255.623 229.632 255.98 228.976 256.2 228.27L256.38 227.67L256.67 228.22C257.125 229.052 257.794 229.747 258.608 230.232C259.423 230.718 260.352 230.976 261.3 230.98H261.69L261.53 231.33C260.521 233.549 260.364 236.062 261.09 238.39L261.15 238.6L260.94 238.66C259.599 239.006 258.428 239.825 257.643 240.966C256.859 242.107 256.513 243.494 256.67 244.87C256.779 245.627 257.075 246.345 257.53 246.96C257.84 247.39 258.04 247.6 258.02 247.61C258 247.62 257.96 247.61 257.85 247.48C257.74 247.35 257.61 247.24 257.43 247.04C256.917 246.425 256.573 245.688 256.43 244.9C256.249 243.652 256.466 242.378 257.05 241.26C257.442 240.528 257.98 239.885 258.63 239.369C259.28 238.853 260.029 238.475 260.83 238.26L260.68 238.53C259.89 236.103 260.032 233.468 261.08 231.14L261.3 231.48C260.261 231.482 259.24 231.204 258.345 230.677C257.449 230.149 256.712 229.39 256.21 228.48L256.68 228.43C256.451 229.206 256.067 229.928 255.551 230.552C255.036 231.175 254.399 231.688 253.68 232.06C253.302 232.256 252.903 232.411 252.49 232.52L252.68 232.24C253.24 236.1 254.61 239.64 255.33 242.98C255.712 244.558 255.907 246.176 255.91 247.8C255.951 249.216 255.83 250.631 255.55 252.02C255.261 253.148 254.848 254.242 254.32 255.28C253.88 256.2 253.47 256.97 253.13 257.59C252.79 258.21 252.52 258.7 252.33 259.03C252.231 259.19 252.117 259.341 251.99 259.48Z" fill="#FF9A6C"/>
<path d="M274.619 218.59C274.51 217.994 274.359 217.406 274.169 216.83C273.563 215.317 272.553 213.999 271.249 213.02C269.276 211.582 266.95 210.705 264.519 210.48C261.789 210.09 258.719 210.23 255.519 210C253.941 209.903 252.378 209.631 250.859 209.19C249.389 208.75 248.039 208.19 246.709 207.85C245.48 207.465 244.176 207.386 242.909 207.62C241.823 207.871 240.839 208.446 240.089 209.27C239.034 210.535 238.221 211.982 237.689 213.54C237.512 214.121 237.294 214.689 237.039 215.24C237.055 215.085 237.086 214.931 237.129 214.78C237.199 214.48 237.329 214.03 237.499 213.47C237.966 211.846 238.755 210.333 239.819 209.02C240.608 208.119 241.655 207.483 242.819 207.2C244.147 206.927 245.523 206.993 246.819 207.39C248.189 207.74 249.559 208.27 250.999 208.7C252.482 209.128 254.008 209.39 255.549 209.48C258.729 209.71 261.819 209.58 264.609 210C267.113 210.26 269.497 211.204 271.499 212.73C272.837 213.784 273.838 215.205 274.379 216.82C274.512 217.257 274.602 217.706 274.649 218.16C274.659 218.304 274.649 218.449 274.619 218.59Z" fill="#FF9A6C"/>
<path d="M243.471 200.53C245.083 200.671 246.702 200.725 248.321 200.69C251.001 200.51 253.051 199.69 253.111 199.84C251.642 200.624 250.025 201.091 248.364 201.21C246.703 201.328 245.036 201.097 243.471 200.53Z" fill="#FF9A6C"/>
<path d="M275.941 216.38C275.771 216.38 275.631 214.18 274.941 211.59C274.251 209 273.191 207.06 273.341 206.98C274.362 208.302 275.082 209.831 275.451 211.46C275.935 213.052 276.102 214.724 275.941 216.38Z" fill="#FF9A6C"/>
<path d="M117.119 346.63C117.119 345.39 107.449 279.82 116.289 256.5C125.289 232.76 151.979 226.25 151.979 226.25L175.929 318.56C164.199 316.292 152.057 317.638 141.109 322.42C125.749 329.2 117.119 346.63 117.119 346.63Z" fill="#F99746"/>
<path d="M161.1 258.59C161.24 258.59 164.67 271.95 168.77 288.51C172.87 305.07 176.07 318.51 175.93 318.56C175.79 318.61 172.35 305.2 168.26 288.64C164.17 272.08 160.96 258.62 161.1 258.59Z" fill="#263238"/>
<path d="M173.749 370.38C173.557 369.959 173.406 369.52 173.299 369.07C173.128 368.552 172.988 368.025 172.879 367.49C172.71 366.791 172.577 366.083 172.479 365.37C172.359 364.58 172.239 363.71 172.189 362.77C172.139 361.83 172.119 360.82 172.109 359.77C172.205 355.151 173.225 350.598 175.109 346.38C175.569 345.38 175.989 344.51 176.469 343.69C176.949 342.87 177.399 342.13 177.839 341.46C178.279 340.79 178.729 340.22 179.109 339.71C179.489 339.2 179.849 338.78 180.109 338.45C180.405 338.082 180.741 337.746 181.109 337.45C181.189 337.52 179.849 338.97 178.109 341.65C177.689 342.32 177.229 343.06 176.809 343.89C176.389 344.72 175.949 345.61 175.509 346.56C173.68 350.733 172.662 355.216 172.509 359.77C172.509 360.77 172.509 361.77 172.509 362.77C172.509 363.77 172.639 364.56 172.729 365.35C173.249 368.47 173.859 370.36 173.749 370.38Z" fill="#FF9A6C"/>
<path d="M398.081 299.63L308.771 300.21L294.641 286.12C293.418 284.894 291.965 283.922 290.366 283.258C288.767 282.594 287.052 282.251 285.321 282.25H250.991C250.453 282.253 249.922 282.366 249.43 282.582C248.938 282.798 248.495 283.112 248.128 283.505C247.762 283.899 247.48 284.363 247.3 284.869C247.12 285.376 247.045 285.914 247.081 286.45L249.351 391.56C249.377 393.221 250.052 394.805 251.231 395.975C252.41 397.145 254 397.807 255.661 397.82L384.861 397.93C388.831 397.912 392.637 396.343 395.466 393.557C398.295 390.771 399.923 386.99 400.001 383.02L402.001 303.7C402.02 303.173 401.932 302.648 401.744 302.155C401.555 301.663 401.27 301.213 400.904 300.834C400.538 300.454 400.1 300.152 399.615 299.945C399.13 299.738 398.608 299.631 398.081 299.63Z" fill="#FF725E"/>
<g opacity="0.3">
<path d="M258.55 293.76L258.02 292.25C258.02 292.25 255.85 292.03 254.67 299.57C253.49 307.11 250.59 388.57 250.59 388.57L260.02 296.22L258.55 293.76Z" fill="black"/>
</g>
<path d="M253.949 392.02L396.769 382.89C397.549 382.843 398.285 382.511 398.838 381.959C399.391 381.406 399.722 380.67 399.769 379.89L404.309 291.82C404.335 291.387 404.272 290.953 404.125 290.545C403.977 290.138 403.748 289.764 403.452 289.448C403.155 289.131 402.797 288.879 402.399 288.706C402.002 288.532 401.573 288.442 401.139 288.44H261.479C260.67 288.446 259.894 288.759 259.307 289.316C258.721 289.873 258.367 290.632 258.319 291.44L250.549 388.56C250.509 389.019 250.569 389.482 250.725 389.916C250.881 390.35 251.129 390.745 251.452 391.074C251.775 391.402 252.166 391.657 252.597 391.821C253.028 391.984 253.489 392.052 253.949 392.02Z" fill="#FAFAFA"/>
<path d="M409.299 294.81H269.999C268.445 294.817 266.945 295.384 265.775 296.407C264.605 297.43 263.843 298.841 263.629 300.38L250.279 392.32L255.079 397.95H394.279C395.809 397.941 397.286 397.389 398.447 396.393C399.608 395.397 400.378 394.021 400.619 392.51L415.619 302.41C415.78 301.484 415.738 300.534 415.495 299.626C415.253 298.717 414.816 297.873 414.215 297.15C413.614 296.427 412.863 295.844 412.014 295.44C411.166 295.036 410.239 294.821 409.299 294.81Z" fill="#FF725E"/>
<path d="M293.909 345.17L293.679 342.31L283.859 343.13L284.089 345.99L293.909 345.17Z" fill="#263238"/>
<path d="M287.51 346.91L288.95 364.68L292.13 364.42L290.69 346.65L287.51 346.91Z" fill="#263238"/>
<path d="M385.89 337.51L385.66 334.65L375.84 335.46L376.08 338.33L385.89 337.51Z" fill="#263238"/>
<path d="M379.49 339.25L380.94 357.02L384.11 356.76L382.67 338.99L379.49 339.25Z" fill="#263238"/>
<path d="M300.719 360.73C300.019 360.59 299.559 360 299.459 358.73L298.459 346.94C298.359 345.69 298.719 345.04 299.389 344.78L299.129 341.63C296.389 342.09 295.039 344.15 295.299 347.43L296.229 358.78C296.489 362.05 298.159 363.86 300.939 363.87L300.719 360.73Z" fill="#263238"/>
<path d="M300.279 341.55L300.529 344.71C301.229 344.85 301.689 345.44 301.789 346.71L302.789 358.5C302.889 359.75 302.529 360.4 301.869 360.66L302.119 363.82C304.859 363.35 306.209 361.29 305.949 358.02L305.029 346.66C304.719 343.37 303.049 341.56 300.279 341.55Z" fill="#263238"/>
<path d="M309.39 341L306.49 341.24L308.26 363.07L311.16 362.83L309.39 341Z" fill="#263238"/>
<path d="M311.16 340.85L310.49 340.91L310.74 344.03L311.41 343.97C312.41 343.89 313.01 344.34 313.14 345.9L313.41 349.18C313.53 350.73 313.02 351.28 312.01 351.36L311.34 351.42L311.6 354.54L312.27 354.48C315.44 354.22 316.85 352.19 316.56 348.69L316.33 345.85C316.05 342.36 314.34 340.59 311.16 340.85Z" fill="#263238"/>
<path d="M341.06 347.63L337.57 347.92L337.83 351.03L341.32 350.74L341.06 347.63Z" fill="#263238"/>
<path d="M335.719 338.81L332.779 339.05L334.559 360.88L337.489 360.64L335.719 338.81Z" fill="#263238"/>
<path d="M336.83 338.71L337.08 341.83L341.7 341.45L341.44 338.33L336.83 338.71Z" fill="#263238"/>
<path d="M338.6 360.55L343.22 360.16L342.96 357.04L338.35 357.43L338.6 360.55Z" fill="#263238"/>
<path d="M348.971 356.69C348.251 356.57 347.781 356 347.681 354.74L346.681 342.95C346.581 341.68 346.951 341.03 347.631 340.78L347.381 337.62C344.571 338.04 343.261 340.11 343.521 343.43L344.451 354.78C344.721 358.1 346.351 359.92 349.181 359.88L348.971 356.69Z" fill="#263238"/>
<path d="M348.551 337.55L348.801 340.7C349.481 340.85 349.931 341.44 350.031 342.7L350.221 345.04L353.221 344.79L353.041 342.67C352.771 339.41 351.221 337.6 348.551 337.55Z" fill="#263238"/>
<path d="M350.97 354.46C351.07 355.69 350.72 356.33 350.07 356.59L350.33 359.77C352.98 359.27 354.22 357.22 353.96 353.99L353.72 351.09L350.72 351.34L350.97 354.46Z" fill="#263238"/>
<path d="M357.239 337.01L354.539 337.24L356.319 359.07L359.009 358.85L357.239 337.01Z" fill="#263238"/>
<path d="M365.62 355.63L365.35 352.26C365.16 349.98 364.51 348.37 362.86 347.79C364.22 346.95 364.77 345.43 364.58 343.19L364.44 341.47C364.17 338.1 362.62 336.57 359.33 336.84L358.33 336.92L358.59 340.04L359.49 339.97C360.61 339.87 361.16 340.52 361.29 342.08L361.46 344.23C361.6 345.98 360.93 346.6 359.74 346.7L359.13 346.75L359.38 349.87H359.85C361.3 349.75 361.99 350.44 362.16 352.47L362.44 355.9C362.437 356.81 362.606 357.713 362.94 358.56L366.18 358.29C365.817 357.45 365.627 356.545 365.62 355.63Z" fill="#263238"/>
<path d="M369.09 336.03L366.15 336.27L367.92 358.11L370.86 357.86L369.09 336.03Z" fill="#263238"/>
<path d="M374.429 344.85L370.939 345.14L371.199 348.25L374.679 347.96L374.429 344.85Z" fill="#263238"/>
<path d="M371.971 357.77L376.581 357.38L376.331 354.26L371.721 354.65L371.971 357.77Z" fill="#263238"/>
<path d="M370.199 335.94L370.449 339.06L375.059 338.67L374.809 335.55L370.199 335.94Z" fill="#263238"/>
<path d="M327.27 358.53C326.49 358.45 325.97 357.89 325.86 356.53L325.73 354.97L322.73 355.22L322.84 356.57C323.11 359.86 324.72 361.68 327.52 361.66L327.27 358.53Z" fill="#263238"/>
<path d="M327.08 342.48C327.79 342.61 328.23 343.2 328.34 344.48L328.41 345.38L331.41 345.13L331.36 344.45C331.09 341.19 329.54 339.37 326.82 339.35L327.08 342.48Z" fill="#263238"/>
<path d="M325.159 344.74C325.059 343.53 325.359 342.88 325.969 342.61L325.719 339.43C322.999 339.89 321.719 341.94 322.009 345.22C322.509 351.46 328.789 351.79 329.149 356.28C329.249 357.44 328.939 358.07 328.369 358.36L328.629 361.58C331.309 361.1 332.569 359.05 332.309 355.8C331.799 349.56 325.549 349.23 325.159 344.74Z" fill="#263238"/>
<path d="M280.71 374.27C279.797 374.272 278.913 373.945 278.22 373.35C277.822 373.017 277.495 372.607 277.258 372.145C277.02 371.683 276.879 371.178 276.84 370.66L274.27 338.96C274.181 337.928 274.505 336.902 275.17 336.107C275.836 335.313 276.788 334.814 277.82 334.72L388.82 325.47C389.327 325.427 389.838 325.486 390.322 325.642C390.806 325.798 391.254 326.049 391.64 326.38C392.435 327.062 392.93 328.027 393.02 329.07L395.59 360.77C395.682 361.804 395.36 362.832 394.694 363.629C394.029 364.426 393.074 364.926 392.04 365.02L281.09 374.26L280.71 374.27ZM389.1 326.46H388.86L277.91 335.7C277.139 335.771 276.428 336.144 275.931 336.738C275.435 337.332 275.194 338.099 275.26 338.87L277.84 370.57C277.866 370.953 277.968 371.327 278.14 371.67C278.311 372.014 278.55 372.319 278.84 372.57C279.127 372.814 279.459 372.999 279.818 373.114C280.177 373.229 280.555 373.272 280.93 373.24L391.93 364C392.7 363.931 393.412 363.56 393.909 362.968C394.405 362.375 394.647 361.61 394.58 360.84L392 329.13C391.974 328.747 391.872 328.373 391.7 328.03C391.528 327.687 391.291 327.381 391 327.13C390.47 326.683 389.794 326.445 389.1 326.46Z" fill="#263238"/>
<path d="M397.659 296.21L400.369 328.69L360.249 332.12L357.539 299.64L397.659 296.21Z" fill="#FAFAFA"/>
<path d="M397.66 296.21H397.46L396.9 296.27L394.72 296.47L386.51 297.2L357.51 299.72L357.6 299.61C358.41 309.28 359.34 320.36 360.32 332.09L360.19 331.98L400.31 328.57L400.23 328.68C399.43 318.9 398.77 310.79 398.31 305.12C398.09 302.28 397.91 300.05 397.79 298.53C397.73 297.77 397.69 297.19 397.66 296.79C397.63 296.39 397.66 296.19 397.66 296.19C397.66 296.19 397.66 296.38 397.71 296.77C397.76 297.16 397.8 297.77 397.87 298.49C398 300.01 398.19 302.22 398.44 305.05C398.93 310.73 399.62 318.86 400.44 328.66V328.76H400.34L360.22 332.21H360.11V332.09C359.11 320.36 358.21 309.28 357.41 299.61V299.5H357.55L386.55 297.07L394.74 296.4L396.9 296.23H397.45L397.66 296.21Z" fill="#263238"/>
<path d="M361.46 329.96L398.76 326.77L396.39 298.38L359.1 301.56L361.46 329.96Z" fill="#455A64"/>
<g opacity="0.3">
<path d="M361.461 329.96L373.021 311.19L382.011 321.55L386.991 315.18L398.761 326.77L361.461 329.96Z" fill="black"/>
</g>
<g opacity="0.3">
<path d="M384.33 308.02C384.394 308.804 384.148 309.581 383.645 310.185C383.142 310.789 382.422 311.172 381.64 311.25C381.047 311.31 380.45 311.191 379.925 310.91C379.4 310.629 378.97 310.199 378.69 309.672C378.411 309.146 378.294 308.549 378.356 307.956C378.417 307.364 378.653 306.803 379.035 306.345C379.416 305.888 379.925 305.554 380.496 305.386C381.068 305.219 381.677 305.225 382.245 305.405C382.812 305.584 383.314 305.929 383.686 306.395C384.057 306.861 384.281 307.426 384.33 308.02Z" fill="black"/>
</g>
<path d="M381.15 306.02C380.737 306.017 380.328 305.933 379.947 305.773C379.565 305.612 379.22 305.378 378.929 305.083C378.638 304.789 378.408 304.44 378.253 304.057C378.097 303.674 378.018 303.264 378.02 302.85V296.13H379.22V302.85C379.201 303.114 379.237 303.38 379.325 303.63C379.413 303.88 379.552 304.109 379.733 304.304C379.913 304.498 380.132 304.652 380.375 304.758C380.618 304.864 380.88 304.919 381.145 304.919C381.411 304.919 381.673 304.864 381.916 304.758C382.159 304.652 382.378 304.498 382.558 304.304C382.739 304.109 382.878 303.88 382.966 303.63C383.054 303.38 383.09 303.114 383.07 302.85V293.73C383.097 293.213 383.018 292.695 382.838 292.209C382.658 291.723 382.382 291.279 382.025 290.903C381.668 290.528 381.238 290.229 380.762 290.024C380.286 289.82 379.774 289.715 379.255 289.715C378.737 289.715 378.225 289.82 377.749 290.024C377.273 290.229 376.843 290.528 376.486 290.903C376.129 291.279 375.853 291.723 375.673 292.209C375.493 292.695 375.414 293.213 375.44 293.73V294.94H374.23V293.73C374.23 292.404 374.757 291.132 375.695 290.194C376.633 289.257 377.904 288.73 379.23 288.73C380.557 288.73 381.828 289.257 382.766 290.194C383.704 291.132 384.23 292.404 384.23 293.73V302.85C384.236 303.677 383.916 304.473 383.34 305.066C382.764 305.659 381.977 306.002 381.15 306.02Z" fill="#E0E0E0"/>
<path d="M381.15 306.02C381.15 306.02 381.36 306.02 381.74 305.94C382.309 305.823 382.833 305.545 383.25 305.14C383.588 304.823 383.853 304.436 384.025 304.006C384.198 303.576 384.275 303.113 384.25 302.65C384.25 301.55 384.25 300.3 384.25 298.92C384.25 297.54 384.25 296 384.25 294.35C384.301 293.507 384.175 292.662 383.88 291.87C383.545 291.031 382.988 290.298 382.27 289.75C381.494 289.157 380.558 288.81 379.583 288.755C378.607 288.7 377.638 288.938 376.8 289.44C375.906 289.979 375.206 290.788 374.8 291.75C374.59 292.24 374.458 292.759 374.41 293.29C374.41 293.82 374.41 294.39 374.41 294.94L374.31 294.84H375.52L375.41 294.94C375.389 294.296 375.412 293.651 375.48 293.01C375.601 292.35 375.887 291.731 376.31 291.21C376.738 290.682 377.296 290.275 377.929 290.029C378.562 289.783 379.249 289.706 379.921 289.807C380.593 289.908 381.227 290.183 381.76 290.605C382.293 291.026 382.707 291.58 382.96 292.21C383.189 292.823 383.288 293.477 383.25 294.13V296.02C383.25 298.53 383.25 300.92 383.2 303.27C383.134 303.563 383.005 303.839 382.822 304.077C382.639 304.315 382.406 304.511 382.14 304.65C381.88 304.783 381.594 304.857 381.302 304.867C381.01 304.878 380.719 304.824 380.45 304.71C380.19 304.597 379.956 304.431 379.763 304.223C379.57 304.014 379.423 303.768 379.33 303.5C379.21 302.976 379.173 302.436 379.22 301.9C379.22 299.84 379.22 297.9 379.22 296.11L379.29 296.19H378.09L378.16 296.12C378.16 297.92 378.16 299.55 378.16 300.99C378.16 301.7 378.16 302.36 378.16 302.99C378.188 303.651 378.424 304.287 378.833 304.807C379.242 305.328 379.804 305.706 380.44 305.89C380.704 305.951 380.971 305.994 381.24 306.02C380.967 306.03 380.694 306 380.43 305.93C379.667 305.732 379.007 305.253 378.58 304.59C378.266 304.114 378.09 303.56 378.07 302.99C378.07 302.38 378.07 301.71 378.07 300.99C378.07 299.55 378.07 297.92 378.07 296.12V296.02H379.43V296.1C379.43 297.89 379.43 299.83 379.43 301.89C379.395 302.406 379.432 302.924 379.54 303.43C379.621 303.673 379.752 303.896 379.924 304.086C380.096 304.275 380.306 304.426 380.54 304.53C380.784 304.632 381.047 304.679 381.312 304.669C381.576 304.658 381.835 304.591 382.07 304.47C382.318 304.348 382.537 304.173 382.71 303.957C382.883 303.741 383.006 303.489 383.07 303.22C383.15 300.95 383.07 298.5 383.07 296.01C383.07 295.39 383.07 294.76 383.07 294.12C383.113 293.494 383.018 292.865 382.79 292.28C382.558 291.678 382.172 291.147 381.671 290.741C381.17 290.335 380.57 290.068 379.933 289.967C379.296 289.866 378.644 289.934 378.041 290.164C377.438 290.395 376.907 290.78 376.5 291.28C376.098 291.775 375.827 292.363 375.71 292.99C375.645 293.618 375.625 294.249 375.65 294.88V295.02H374.25V294.91C374.25 294.35 374.25 293.81 374.25 293.25C374.305 292.696 374.443 292.153 374.66 291.64C375.087 290.643 375.819 289.806 376.75 289.25C377.621 288.731 378.628 288.484 379.641 288.543C380.653 288.602 381.625 288.963 382.43 289.58C383.167 290.148 383.737 290.905 384.08 291.77C384.381 292.585 384.507 293.454 384.45 294.32C384.45 295.97 384.45 297.5 384.45 298.89C384.45 300.28 384.45 301.52 384.45 302.62C384.478 303.091 384.403 303.562 384.231 304.001C384.058 304.439 383.791 304.835 383.45 305.16C383.018 305.564 382.481 305.837 381.9 305.95C381.654 306.008 381.402 306.032 381.15 306.02Z" fill="#263238"/>
<g opacity="0.3">
<path d="M394.55 322.89C394.466 324.13 394.686 325.371 395.191 326.506C395.697 327.64 396.472 328.634 397.45 329.4C399.93 331.28 403.45 331.5 405.61 333.77C406.4 334.705 406.948 335.819 407.206 337.016C407.464 338.212 407.425 339.453 407.09 340.63C406.391 342.977 405.075 345.094 403.28 346.76C401.56 348.47 399.6 349.91 397.77 351.51C395.096 353.763 392.842 356.472 391.11 359.51C390.263 361.13 389.514 362.799 388.87 364.51C388.13 366.343 387.397 368.173 386.67 370C386.04 371.56 385.48 373.52 386.6 374.75C387.461 375.486 388.57 375.865 389.7 375.81C394.5 376.15 399.38 376.49 404.08 375.47C404.08 374.65 404.13 373.82 404.15 373C404.15 373 412.15 344.77 412.15 345C412.15 345.23 413.05 327.15 413.05 327.15L394.55 322.89Z" fill="black"/>
</g>
<path d="M417.659 328.15C417.659 328.15 420.049 321.24 412.029 318.94C406.809 317.44 390.659 314.27 393.159 321.94C393.653 323.273 394.518 324.438 395.652 325.295C396.786 326.153 398.142 326.668 399.559 326.78C403.329 327.22 406.509 330.26 406.509 330.26C406.509 330.26 409.049 332.26 408.709 334.64C408.369 337.02 408.659 342.47 401.619 344.95C394.579 347.43 391.239 350.17 389.009 354.73C387.009 358.73 389.509 360.48 389.509 360.48C389.509 360.48 385.189 363.81 385.919 366.98C386.086 368.209 385.817 369.458 385.159 370.51C384.927 370.992 384.81 371.522 384.817 372.057C384.823 372.593 384.954 373.119 385.198 373.595C385.442 374.072 385.793 374.485 386.223 374.804C386.654 375.122 387.152 375.336 387.679 375.43L388.029 375.5C388.029 375.5 409.399 374.72 414.189 369.2C418.979 363.68 419.709 358.65 419.709 358.65C419.709 358.65 423.639 351.96 419.199 348.05C420.829 340.38 419.199 336.49 416.199 334.22L417.659 328.15Z" fill="#FFBF9D"/>
<path d="M389.549 360.52C389.549 360.67 391.279 360.52 393.969 359.93C396.659 359.34 400.339 358.32 404.309 357.14C406.265 356.667 408.151 355.941 409.919 354.98C411.324 354.129 412.629 353.123 413.809 351.98C415.869 350.03 416.499 348.26 416.319 348.22C415.394 349.355 414.374 350.409 413.269 351.37C410.631 353.696 407.438 355.305 403.999 356.04L393.779 359.16C391.119 359.9 389.479 360.35 389.549 360.52Z" fill="#FF9A6C"/>
<path d="M386.471 369.44C386.471 369.56 388.521 370.23 392.011 370.21C396.525 370.012 400.987 369.167 405.261 367.7L408.911 366.55C410.097 366.219 411.236 365.738 412.301 365.12C413.994 363.89 415.433 362.345 416.541 360.57C418.541 357.68 419.111 355.49 418.941 355.46C418.771 355.43 418.011 357.39 415.891 360.08C414.759 361.679 413.362 363.072 411.761 364.2C409.931 365.25 407.381 365.75 404.931 366.59C400.734 368.01 396.389 368.949 391.981 369.39C388.601 369.62 386.551 369.25 386.471 369.44Z" fill="#FF9A6C"/>
<path d="M399.62 326.76C399.51 327.06 402.49 328.43 406.28 329.83C407.89 330.498 409.566 330.994 411.28 331.31C412.65 331.48 413.5 331.24 413.48 331.1C413.46 330.96 412.67 330.86 411.48 330.5C410.29 330.14 408.6 329.44 406.69 328.74C402.89 327.34 399.73 326.46 399.62 326.76Z" fill="#FF9A6C"/>
<path d="M363.95 386.8V393.02H362.74V384.42H364.42L365.8 389.59V384.42H366.99V393.02H365.62L363.95 386.8Z" fill="white"/>
<path d="M367.88 385.73C367.864 385.55 367.886 385.369 367.944 385.198C368.002 385.028 368.095 384.871 368.216 384.738C368.338 384.605 368.486 384.499 368.651 384.426C368.816 384.353 368.995 384.316 369.175 384.316C369.355 384.316 369.534 384.353 369.699 384.426C369.864 384.499 370.012 384.605 370.134 384.738C370.255 384.871 370.348 385.028 370.406 385.198C370.464 385.369 370.486 385.55 370.47 385.73V387.64C370.486 387.819 370.464 388 370.406 388.171C370.348 388.342 370.255 388.499 370.134 388.632C370.012 388.765 369.864 388.871 369.699 388.944C369.534 389.016 369.355 389.054 369.175 389.054C368.995 389.054 368.816 389.016 368.651 388.944C368.486 388.871 368.338 388.765 368.216 388.632C368.095 388.499 368.002 388.342 367.944 388.171C367.886 388 367.864 387.819 367.88 387.64V385.73ZM370.47 389.52V390.37H367.88V389.52H370.47ZM368.74 387.69C368.74 388.09 368.9 388.22 369.18 388.22C369.46 388.22 369.62 388.09 369.62 387.69V385.69C369.62 385.3 369.45 385.16 369.18 385.16C368.91 385.16 368.74 385.3 368.74 385.69V387.69Z" fill="white"/>
<path d="M394.161 393.02C394.161 393.17 389.161 393.28 382.931 393.28C376.701 393.28 371.711 393.17 371.711 393.02C371.711 392.87 376.711 392.76 382.931 392.76C389.151 392.76 394.161 392.92 394.161 393.02Z" fill="white"/>
</g>
<defs>
<linearGradient id="paint0_linear_570_3614" x1="330.91" y1="84.9051" x2="442.739" y2="197.901" gradientUnits="userSpaceOnUse">
<stop stop-color="#87F5FC"/>
<stop offset="0.729167" stop-color="#35C6BB"/>
<stop offset="1" stop-color="#72F7FF"/>
</linearGradient>
<linearGradient id="paint1_linear_570_3614" x1="330.503" y1="84.7698" x2="443.01" y2="198.712" gradientUnits="userSpaceOnUse">
<stop stop-color="#87F5FC"/>
<stop offset="0.729167" stop-color="#35C6BB"/>
<stop offset="1" stop-color="#72F7FF"/>
</linearGradient>
<clipPath id="clip0_570_3614">
<rect width="454.16" height="460.2" fill="white"/>
</clipPath>
</defs>
</svg>
