<svg width="156" height="60" viewBox="0 0 156 60" fill="none" xmlns="http://www.w3.org/2000/svg">
<mask id="mask0_570_3586" style="mask-type:luminance" maskUnits="userSpaceOnUse" x="0" y="0" width="41" height="60">
<path d="M40.2831 0H0.835938V60H40.2831V0Z" fill="white"/>
</mask>
<g mask="url(#mask0_570_3586)">
<path d="M1.92578 9.07939V30.1576L8.78461 37.0164H27.1594V46.6023H16.0271V41.6441H1.93759V52.2038L8.82593 59.1689H32.5308L39.3896 52.2924V30.9603L32.3537 24.255H15.4782V14.0907H26.4983V19.7041H39.3896V9.07939L31.6454 1.14038H9.92382L1.94939 9.07939" fill="white"/>
<path d="M10.308 2.20337L2.92383 9.56982V29.804L9.2042 36.0902H28.1575V47.6593H15.0419V42.7012H2.94154V51.8443L9.23372 58.2368H32.1358L38.4044 51.9505V31.4331L31.9588 25.2885H14.4929V13.1704H27.4964V18.7897H38.4044V9.56982L31.2445 2.20337H10.308Z" fill="#A90A2E"/>
<path d="M21.2029 1.16233C21.0662 1.1549 20.9297 1.1799 20.8046 1.23529C20.6794 1.29069 20.5691 1.37491 20.4827 1.48107C20.3883 1.60912 20.3385 1.76466 20.3411 1.92376C20.3439 2.03346 20.3598 2.14244 20.3883 2.24841C20.2348 2.54944 20.0164 3.02164 19.9987 3.02755H19.8276C19.6403 3.00426 19.4506 3.04533 19.2898 3.144C19.1289 3.24267 19.0063 3.3931 18.9422 3.57059C18.8698 3.71082 18.8353 3.86745 18.8418 4.02509C18.8678 4.38911 18.9661 4.74429 19.131 5.06985L19.2904 5.29415C18.9595 5.4654 18.6885 5.7333 18.5135 6.06225C18.3385 6.3912 18.2677 6.76563 18.3106 7.13577C18.3113 7.25995 18.3438 7.38189 18.405 7.48992C18.4681 7.60223 18.5598 7.69588 18.6706 7.76144L18.5644 7.87359C17.7675 8.46385 16.8704 9.05411 16.8526 9.78013C16.876 9.98909 16.9445 10.1905 17.0533 10.3704C16.5103 10.6419 15.9259 11.1377 15.9318 11.7516C15.9292 11.7732 15.9292 11.795 15.9318 11.8165C15.9909 12.578 16.9235 12.879 17.2068 12.9498L17.4429 13.0148L17.6554 12.8908C18.1277 12.5647 18.6692 12.3526 19.2373 12.271C19.2367 12.2809 19.2367 12.2907 19.2373 12.3005C19.2373 13.6995 17.2776 14.3015 17.195 14.331H17.2953C16.4858 14.4318 15.7146 14.7343 15.0525 15.2108C14.3904 15.6873 13.8585 16.3225 13.5059 17.058C13.1869 17.3551 12.9927 17.7624 12.9628 18.1973C12.9639 18.4504 13.0585 18.6943 13.2284 18.882L13.2993 18.9469L13.3819 18.9941C14.2791 19.4427 16.0735 18.4038 17.0651 17.7723L17.1124 17.7428L17.1596 17.6955C17.2831 17.5438 17.461 17.4463 17.6554 17.424C17.793 17.4512 17.9165 17.5265 18.0036 17.6365L18.104 17.7664L18.2693 17.8372C18.4166 17.8889 18.5589 17.9541 18.6943 18.032C17.4701 18.4843 16.2737 19.0085 15.1114 19.6021L14.9284 19.6906L14.8399 19.8736C14.5801 20.393 13.5413 20.9833 12.951 21.2312C12.0066 21.6385 11.4518 22.1815 11.2983 22.8367C11.2706 22.9587 11.2568 23.0835 11.257 23.2086C11.2688 23.5863 11.4012 23.9503 11.6347 24.2474L11.7764 24.4127L11.9889 24.4481C12.5792 24.5426 15.4065 23.911 17.0474 23.5273H17.0887H17.1242C17.8207 23.2617 18.0391 23.3561 18.0627 23.3679C18.0863 23.3797 18.0627 23.545 18.0627 23.545L18.163 23.6277C17.8937 24.2246 17.5061 24.7607 17.0238 25.2036L16.9235 25.3099L16.8763 25.4516C16.7816 25.6599 16.6445 25.8463 16.4737 25.9988C16.303 26.1512 16.1024 26.2664 15.8846 26.3369H15.9318C12.7326 27.1338 12.6972 28.3792 12.7621 28.7452L12.8625 29.2705L15.8256 28.9754L15.9732 28.8515C16.1502 28.698 16.1975 28.7511 16.2447 28.7924L16.3568 28.9105L16.5398 28.9754L16.9412 29.0758C16.9412 29.0758 16.9412 29.0758 16.9412 29.123C16.9263 29.473 16.8688 29.8198 16.77 30.1559H15.2353C15.2353 30.1559 15.1763 30.5042 15.1645 30.5927C15.0288 30.6729 14.8735 30.7138 14.7159 30.7108C14.0253 30.4275 13.3229 31.1712 13.2402 31.2538L13.1812 31.3128L13.0986 31.4309C12.8929 31.6136 12.6546 31.7558 12.3962 31.85L12.4965 31.8146C11.9063 31.968 11.7233 32.2868 11.682 32.5288C11.679 32.576 11.679 32.6233 11.682 32.6705C11.6918 32.803 11.7294 32.9319 11.7925 33.0489C11.8556 33.1659 11.9426 33.2682 12.0479 33.3492C11.5757 33.4673 10.8674 33.6503 10.8674 34.2878V34.335C10.8747 34.4477 10.9091 34.557 10.9677 34.6536C11.0263 34.7502 11.1073 34.8312 11.2038 34.8898C11.4222 35.0256 12.0125 35.3975 16.6874 33.4791H16.7346C16.6083 33.6122 16.4678 33.7309 16.3155 33.8333L16.2506 33.8746L16.1975 33.9395C15.87 34.2662 15.4631 34.5022 15.0169 34.6242H15.0701C13.1812 34.9252 12.5437 35.7693 12.3312 36.2415C12.2336 36.4229 12.1825 36.6258 12.1825 36.8318C12.1825 37.0378 12.2336 37.2406 12.3312 37.422C12.5319 37.7349 12.5733 37.7585 14.7218 37.3748C14.6195 37.7251 14.4892 38.0666 14.3322 38.396L12.6146 39.9366C10.6018 41.0817 9.39175 44.7944 9.26189 45.2194V45.2843V45.3492C9.25906 45.4004 9.25906 45.4516 9.26189 45.5027C9.25316 45.6743 9.28942 45.8451 9.36707 45.9984C9.44472 46.1516 9.56107 46.2819 9.70459 46.3763C10.3244 46.76 11.2275 46.2996 11.5875 46.0871L11.7233 46.0044L12.0007 45.5145C12.3017 44.9951 13.1812 44.8298 13.5177 44.8003C14.468 44.9184 15.4242 44.0153 15.6131 43.8264L15.6603 43.7733L15.6957 43.7142C15.7191 43.6687 15.7535 43.6297 15.7957 43.6008C15.838 43.572 15.8868 43.5541 15.9377 43.549C17.2894 43.726 18.2988 42.2563 18.6234 41.6424C18.9422 41.5598 19.2137 41.6424 19.4498 42.1441C19.6446 42.8095 19.744 43.4991 19.7449 44.1923V44.5111L19.6859 46.4766L19.6328 48.3655L19.6859 48.2947V48.3537V49.3748C19.6859 50.2189 19.6151 50.9095 19.5737 51.1987C19.4262 52.3261 19.2196 52.456 19.1429 52.5032C18.9881 52.5804 18.826 52.6417 18.6588 52.6862C18.4117 52.7591 18.1709 52.8518 17.9387 52.9636C17.5375 53.1413 17.181 53.4062 16.8951 53.7391C16.6092 54.072 16.4011 54.4644 16.286 54.8879C16.1896 55.1756 16.0209 55.4337 15.7961 55.6375C15.2412 55.9917 15.2412 55.9916 15.0287 56.0271L14.5742 56.1097C14.2306 56.2114 13.9119 56.3836 13.6386 56.6153C13.3652 56.847 13.1431 57.1332 12.9864 57.4555L12.5733 58.3055H29.9859L29.8974 57.544C29.8089 56.7295 29.4488 56.2041 27.7016 55.6257C27.2462 55.5301 26.84 55.2747 26.5565 54.9056C25.9932 54.3206 25.3136 53.8602 24.5614 53.5539C24.0774 53.306 23.6406 52.2494 23.3809 50.9036C23.2843 50.5479 23.2642 50.1757 23.3219 49.8116V49.7821L23.2275 47.1554V45.0423C23.2275 45.0423 23.2275 42.9587 23.2629 42.091C23.6959 42.3487 24.1829 42.5023 24.6854 42.5396L26.9166 42.6281H26.9579C27.4124 42.5927 28.7582 43.3837 29.7262 44.1451H29.7616H29.7971C30.4877 44.5406 31.3553 44.9361 31.922 44.4816C32.0729 44.3436 32.1797 44.1641 32.2291 43.9656C32.2784 43.7672 32.2681 43.5586 32.1994 43.366V43.4604C31.6092 39.4289 29.313 38.7678 28.9353 38.6911C28.8427 38.6636 28.752 38.6301 28.6638 38.5908L28.7346 38.5081L28.6992 38.5376C29.3957 38.0005 29.6849 37.4516 29.5551 36.9203C29.3603 36.1294 28.345 35.911 28.1443 35.8697H28.0499H27.9554C27.1775 35.8944 26.4096 35.6891 25.7479 35.2794C24.6913 34.4648 24.408 33.8392 24.4021 33.5086C24.3978 33.4265 24.4162 33.3449 24.4552 33.2725L24.526 33.1722C24.526 33.1722 24.526 33.1309 24.526 33.0954C25.2475 33.2565 25.9297 33.5594 26.5329 33.9867L26.4621 33.9336C26.7617 34.1993 27.1424 34.3556 27.5423 34.3771C27.9422 34.3985 28.3375 34.2838 28.6638 34.0517L28.8113 33.9395L28.8704 33.7506C29.0818 33.4742 29.33 33.2279 29.6082 33.0187C29.7794 32.912 29.9224 32.7656 30.0251 32.592C30.1279 32.4184 30.1873 32.2226 30.1984 32.0212C30.1948 31.9352 30.1809 31.85 30.1571 31.7674C29.9092 30.9292 28.4631 30.6281 27.2058 30.5278L26.344 30.0084C25.2757 29.3827 24.6618 28.9931 24.2899 28.2376C25.0396 28.3025 25.7361 28.3733 26.1374 28.4147C26.6497 28.5493 27.1906 28.5267 27.6898 28.3497C27.825 28.2919 27.9401 28.1955 28.0209 28.0727C28.1017 27.95 28.1446 27.8061 28.1443 27.6591V27.6178C28.0971 27.0276 27.3829 26.1422 26.1433 25.5873C25.2971 25.1995 24.5889 24.5634 24.1129 23.7634C24.0508 23.5325 24.021 23.2942 24.0243 23.0551C24.0212 22.8379 24.035 22.6208 24.0656 22.4058C24.5674 22.4058 25.1104 23.0433 25.1163 23.0492L25.3111 23.2853H25.618C25.8788 23.302 26.1318 23.3809 26.3558 23.5155L26.586 23.6395L26.834 23.5568C27.4153 23.5231 27.9986 23.5648 28.5693 23.6808C29.4665 23.8106 29.7971 23.9759 30.0804 23.4683L30.1512 23.3561L30.1866 23.1968C30.2665 22.5195 30.1444 21.8337 29.8356 21.2256C29.5269 20.6175 29.0452 20.1143 28.4513 19.7791L28.2565 19.6906H28.2211C28.0973 19.547 27.9922 19.3883 27.9082 19.2184C27.7103 18.8971 27.4225 18.6409 27.0805 18.4815C26.7385 18.322 26.3573 18.2663 25.984 18.3212C25.7576 18.1489 25.4879 18.0427 25.2048 18.0143L25.0337 17.8254C25.0238 17.7407 25.004 17.6575 24.9746 17.5775L25.2816 17.6247C28.0676 18.0143 28.4218 18.0202 28.7287 17.7132C28.8144 17.6297 28.8822 17.5296 28.9279 17.4189C28.9735 17.3083 28.9961 17.1895 28.9943 17.0699C28.9998 17.009 28.9998 16.9477 28.9943 16.8869C28.7759 15.9011 26.5388 14.8623 24.7031 14.1717C23.3632 13.6581 23.015 13.1269 22.9323 12.9911C22.9323 12.9439 22.8792 12.8672 22.8792 12.8259C22.8744 12.7873 22.8795 12.7481 22.8939 12.7119C22.9084 12.6758 22.9317 12.6439 22.9618 12.6193C23.0972 12.5669 23.2418 12.5425 23.3869 12.5476C23.532 12.5527 23.6745 12.5871 23.8059 12.6488H23.8767H23.9417C25.0927 12.7314 25.6298 12.1353 25.7597 11.7634L25.8305 11.5686L25.7656 11.3738C25.5247 10.7202 25.0404 10.1851 24.4139 9.88047C24.5385 9.79793 24.6381 9.68267 24.7016 9.54733C24.7651 9.41198 24.7901 9.26177 24.7739 9.11314C24.685 8.79885 24.5349 8.50518 24.3323 8.24893C24.1298 7.99269 23.8787 7.7789 23.5934 7.61978C24.2545 7.40139 23.5934 6.24447 22.8202 5.6247L22.5782 5.44172C22.7878 5.35382 22.9709 5.21291 23.1095 5.03284C23.2482 4.85278 23.3377 4.63975 23.3691 4.41466C23.3691 4.35564 23.3691 4.30251 23.3691 4.25529C23.3748 4.09447 23.326 3.93644 23.2307 3.8068C23.1353 3.67717 22.999 3.58354 22.8438 3.54108C22.5507 3.49762 22.2718 3.38647 22.0292 3.21643C22.1709 3.21643 22.0292 2.40778 21.9348 2.26021C21.9348 2.18348 22.0056 2.0005 22.0056 1.92376C22.0134 1.81599 21.9985 1.70778 21.9619 1.60611C21.9253 1.50445 21.8678 1.41158 21.7931 1.3335C21.6269 1.20002 21.4152 1.13651 21.2029 1.15642" fill="white"/>
<path d="M22.6366 41.6683L22.6011 44.9679V47.0987L22.6897 49.6959C22.6296 50.1116 22.6537 50.5351 22.7605 50.9413C22.9907 52.0687 23.4334 53.5739 24.2716 54.0047C26.5972 55.1853 25.6882 55.5099 27.4944 56.1061C29.3006 56.7022 29.2652 57.1626 29.3006 57.6526H13.4993C13.6186 57.4113 13.7842 57.1958 13.9868 57.0186C14.1893 56.8414 14.4248 56.7058 14.6798 56.6196C15.1955 56.5951 15.689 56.4023 16.0847 56.0707C16.793 55.6221 16.6749 54.0638 18.1447 53.4381C18.5824 53.2944 19.012 53.1269 19.4314 52.9364C19.6321 52.8124 19.9509 52.6117 20.1338 51.2128C20.1929 50.7465 20.246 49.0938 20.2696 48.3146L20.3581 46.3077L20.2755 46.4258L20.3345 44.4425V44.1061C20.3192 43.3322 20.2001 42.5639 19.9804 41.8218C19.9265 41.6467 19.8349 41.4856 19.712 41.3498C19.589 41.214 19.4378 41.1068 19.2689 41.0359C19.1 40.965 18.9176 40.932 18.7345 40.9393C18.5515 40.9465 18.3723 40.9939 18.2096 41.078C18.2096 41.078 17.1766 43.1617 15.9017 42.8901C15.7525 42.8999 15.6081 42.9465 15.4814 43.0258C15.3546 43.1052 15.2496 43.2147 15.1757 43.3446C15.1757 43.3446 14.2076 44.3304 13.4757 44.1474C13.4757 44.1474 12.0119 44.2359 11.4747 45.1508L11.2681 45.5109C11.2681 45.5109 9.74526 46.4258 9.83379 45.3338C9.83379 45.3338 11.0792 41.3437 12.9917 40.3402L14.8097 38.6993C14.8097 38.6993 15.8308 36.6393 15.1934 36.5507L12.8323 37.0348C12.8323 37.0348 12.9209 35.6358 15.1934 35.264C15.7461 35.0458 16.2468 34.714 16.6631 34.2901C16.6631 34.2901 18.0266 33.3811 17.5721 32.655C17.5721 32.655 17.1176 32.3776 16.4801 32.9265C16.4801 32.9265 11.516 34.9629 11.4747 34.2901C11.4452 33.9064 12.9327 33.9241 13.1097 33.4696C13.1097 33.4696 13.1097 32.472 12.4723 32.9265C12.4723 32.9265 11.9292 32.5606 12.6552 32.3776C12.6552 32.3776 13.4757 32.0116 13.6587 31.6516C13.6587 31.6516 14.2017 31.1026 14.6621 31.2856C14.6621 31.2856 15.6597 31.2856 15.7541 30.7426H17.2121C17.2121 30.7426 17.7492 29.1253 17.3832 28.5763L16.6572 28.3934C16.5886 28.3164 16.5044 28.2549 16.4103 28.2128C16.3162 28.1707 16.2143 28.1489 16.1112 28.1489C16.0081 28.1489 15.9062 28.1707 15.8121 28.2128C15.718 28.2549 15.6339 28.3164 15.5652 28.3934L13.3813 28.5763C13.3813 28.5763 13.1983 27.5729 16.1083 26.8469C16.4138 26.7434 16.6938 26.5762 16.9299 26.3564C17.166 26.1367 17.3527 25.8692 17.4777 25.5719C17.4777 25.5719 19.2957 23.7539 18.6582 23.2109C18.6582 23.2109 18.5697 22.3019 16.9287 22.9393C16.9287 22.9393 12.6493 23.9428 12.1063 23.8483C12.1063 23.8483 11.1029 22.6678 13.1983 21.7529C13.1983 21.7529 14.9277 21.0269 15.3822 20.1179C15.3822 20.1179 18.67 18.536 19.036 18.536C19.036 18.536 20.2165 17.8985 18.487 17.261C18.3879 17.1245 18.2579 17.0133 18.1076 16.9367C17.9573 16.86 17.791 16.8201 17.6223 16.8201C17.4536 16.8201 17.2873 16.86 17.137 16.9367C16.9866 17.0133 16.8566 17.1245 16.7576 17.261C16.7576 17.261 14.3965 18.8134 13.6646 18.4415C13.6646 18.4415 13.2986 18.0756 14.0246 17.3496C14.3324 16.6877 14.803 16.1147 15.3925 15.6843C15.9819 15.2538 16.6709 14.9799 17.395 14.8882C17.395 14.8882 20.3463 14.0028 19.7561 11.748C19.7561 11.748 19.0832 11.3466 17.3537 12.3796C17.3537 12.3796 15.4177 11.7421 17.6134 10.7682L18.2686 9.87687C18.2686 9.87687 17.6016 10.3491 17.5013 9.87687C17.4482 9.62896 17.4305 9.2866 18.0915 8.93245C18.9828 8.49565 18.7762 8.09428 19.8269 8.04706C19.8692 7.98343 19.896 7.91081 19.9053 7.83497C19.9145 7.75912 19.9058 7.68217 19.88 7.61027C18.8648 7.49222 18.3808 6.21135 20.1575 5.4381L20.3345 4.68848L19.5731 4.75931C19.5731 4.75931 18.9297 3.57879 20.1634 3.62601C20.5305 3.23233 20.7941 2.75368 20.9307 2.23299C20.9307 2.23299 20.6179 1.74308 21.1668 1.74308C21.1668 1.74308 21.5328 1.58371 21.3498 2.39826C21.4828 2.69008 21.559 3.00461 21.5741 3.32497C21.5741 3.32497 21.3439 3.8444 22.6779 4.15134C22.8195 4.18676 22.8254 5.13707 21.9164 5.04263C21.9164 5.04263 21.6213 5.63289 22.4772 6.3176C22.4772 6.3176 23.8997 7.63978 22.6129 7.71061C22.6129 7.71061 24.5962 8.97967 24.0237 9.54632C23.7758 9.79423 23.0084 9.44597 22.9376 9.58764C22.8668 9.7293 22.8727 9.90047 23.1442 10.0126C23.4157 10.1248 24.7969 10.473 25.1924 11.6063C25.1924 11.6063 24.9858 12.1966 23.9705 12.0962C23.9705 12.0962 22.0581 11.3938 22.3296 13.1292C22.3296 13.1292 22.5539 14.0028 24.4664 14.7288C24.4664 14.7288 29.1176 16.4996 28.2972 17.3082C28.0788 17.5325 24.1653 16.8242 23.4629 16.8242L23.3685 17.3732C23.3685 17.3732 24.4664 17.0958 24.4664 18.0992L24.9091 18.5832C24.9091 18.5832 25.6351 18.5832 25.7295 18.9492C25.7295 18.9492 26.91 18.6777 27.3704 19.4981C27.3704 19.4981 27.8249 20.4071 28.185 20.3127C28.6692 20.6022 29.0583 21.0267 29.3047 21.5342C29.5511 22.0417 29.644 22.61 29.5721 23.1695C29.4777 23.323 27.3468 22.7741 26.6208 23.0043C26.291 22.8166 25.92 22.7132 25.5406 22.7032C25.5406 22.7032 24.5195 21.4637 23.5219 21.9536C23.3722 22.6142 23.3722 23.2999 23.5219 23.9605C24.0434 24.9342 24.8741 25.7067 25.883 26.1563C27.0281 26.6639 27.518 27.4312 27.5357 27.6909C27.5357 28.0451 26.5559 27.9329 26.3965 27.8975C26.2371 27.8621 23.4452 27.6024 23.4452 27.6024C23.4673 27.8253 23.5209 28.0439 23.6046 28.2517C24.1358 29.6388 25.2278 30.0225 27.0045 31.1263C27.0045 31.1263 30.7349 31.4037 29.1884 32.5842C29.1884 32.5842 28.3385 33.2453 28.2499 33.6113C28.0316 33.7614 27.7691 33.8338 27.5046 33.8167C27.2401 33.7995 26.9891 33.6939 26.792 33.5168C26.792 33.5168 24.0886 31.746 23.9056 32.9265C23.9056 32.9265 23.0792 34.0362 25.3518 35.7657C26.1362 36.2583 27.0533 36.4973 27.9784 36.4504C27.9784 36.4504 29.9145 36.7987 28.2735 38.0736C28.2735 38.0736 27.3645 38.8941 28.7339 39.2541C28.7339 39.2541 31.0064 39.6201 31.5554 43.5335C31.5554 43.5335 31.9214 44.7141 30.003 43.628C30.003 43.628 27.819 41.8926 26.8215 41.9871L24.6316 41.8926C24.126 41.864 23.6425 41.6759 23.2504 41.3555C23.2504 41.3555 22.6602 40.8833 22.5952 41.6742" fill="#00684E"/>
</g>
<path d="M82.4012 28.6281C78.8728 28.6281 78.595 25.9416 78.595 25.1561C78.595 24.2143 78.8077 22.4696 81.0992 21.6277C83.3907 20.7857 83.8811 20.6903 85.513 20.1781V19.7832C85.5605 19.2928 85.4998 18.798 85.335 18.3336C85.0529 17.4266 84.1632 16.819 82.9263 16.819C82.3781 16.8125 81.8393 16.962 81.3728 17.2502C80.9064 17.5384 80.5315 17.9533 80.292 18.4465L79.6497 18.0472C80.0446 16.5977 81.5462 15.1481 84.1155 15.1481C85.8949 15.1481 87.1535 15.6602 87.8566 16.7799C88.3991 17.687 88.4641 18.9065 88.4641 20.1434C88.4641 21.2631 88.3991 22.4957 88.3991 23.5026C88.3991 24.1622 88.334 24.8046 88.334 25.1691C88.334 26.0718 88.5162 26.7966 89.241 26.7966C89.5708 26.7966 89.6359 26.6838 89.9007 26.5188L90.2956 27.031C89.6359 27.9337 88.8461 28.6585 87.5441 28.6585C87.1073 28.6868 86.6733 28.5721 86.3076 28.3316C85.9419 28.0912 85.6645 27.7382 85.5173 27.3261C85.0876 27.9033 84.0157 28.6281 82.4012 28.6281ZM85.513 21.7883C84.5362 22.0379 83.5891 22.3915 82.6876 22.8429C81.8934 23.2378 81.5636 23.9626 81.5636 24.9044C81.5636 25.6292 81.8457 26.7966 83.5253 26.7966C84.2576 26.804 84.9755 26.5924 85.5867 26.189V21.7709H85.5347L85.513 21.7883ZM56.396 27.9337C56.396 26.6317 56.396 25.5293 56.2832 24.197H57.0818C57.0552 24.5297 57.0957 24.8644 57.2008 25.1812C57.3059 25.498 57.4735 25.7906 57.6937 26.0414C58.2362 26.649 59.5382 27.044 60.7056 27.044C63.1621 27.044 64.3339 26.1066 64.3339 24.0798C64.3339 22.3438 63.2793 21.6234 61.8297 20.6078L61.6127 20.4255L60.046 19.3709C57.876 17.9213 56.7519 16.8016 56.7519 14.5101C56.7519 13.3904 57.1859 9.69709 62.6196 9.69709C64.0412 9.72043 65.4602 9.83058 66.8684 10.0269C66.8684 10.2092 66.8033 11.0338 66.8033 11.7629C66.8033 12.6049 66.8033 12.8175 66.8684 13.8244H66.1957C66.2173 13.4879 66.1703 13.1506 66.0577 12.8328C65.945 12.515 65.769 12.2234 65.5404 11.9756C65.0283 11.4678 63.8738 11.1857 62.6369 11.1857C59.7378 11.1857 59.408 12.6353 59.408 13.755C59.408 15.274 60.1979 15.8165 61.9122 16.9362L63.8738 18.2382C65.5404 19.3579 67.1028 20.4082 67.1028 23.2161C67.1028 27.912 62.689 28.4241 60.8445 28.4241C59.3438 28.617 57.8187 28.4489 56.396 27.9337ZM91.4978 16.0074C92.3801 16.0601 93.2655 15.9988 94.1322 15.8251C94.7304 15.7141 95.3132 15.532 95.8682 15.2826L96.1459 15.4606V16.4414C97.2439 15.6213 98.5818 15.1865 99.9521 15.2045C102.309 15.2045 103.828 16.3242 104.253 18.2859C104.379 19.065 104.44 19.8533 104.435 20.6425V24.4487C104.435 26.5753 104.552 27.2002 104.947 27.5821C105.325 27.8567 105.783 27.9959 106.249 27.9771V28.5934C105.407 28.5283 103.893 28.4805 103.02 28.4805C101.849 28.4805 100.512 28.5456 99.7872 28.5934V27.9858C100.251 27.9553 100.7 27.8058 101.089 27.5518C101.484 27.1568 101.523 26.4321 101.601 24.8002C101.601 24.2924 101.666 23.2856 101.666 22.5608C101.684 21.5699 101.646 20.5789 101.554 19.5922C101.371 17.93 100.499 17.1402 98.802 17.1402C97.9516 17.1227 97.1095 17.3087 96.3456 17.6826V24.5051C96.3456 26.6317 96.4584 27.2566 96.8577 27.6342C97.2176 27.8905 97.6484 28.0285 98.0902 28.0292V28.6411C97.0356 28.576 95.7336 28.5239 94.9134 28.5239C93.1774 28.5239 92.6219 28.589 91.615 28.6411V27.9858C91.8728 27.9919 92.1294 27.9472 92.3699 27.8541C92.6104 27.761 92.8303 27.6214 93.0168 27.4433C93.4117 27.0093 93.4508 25.8765 93.4508 23.7022V19.8266C93.4508 18.1991 93.3857 17.5394 93.173 17.1922C92.9907 16.9101 92.5611 16.6801 91.6584 16.6801V15.9553H91.5412V16.0074H91.4978ZM107.66 27.9207C107.919 27.9351 108.178 27.8942 108.419 27.8006C108.661 27.7071 108.88 27.5631 109.062 27.3782C109.457 26.9442 109.496 25.8114 109.496 23.6371V17.1271H107.86V16.4024C108.46 16.1915 109.023 15.8852 109.526 15.4953C109.513 14.3344 109.584 13.174 109.739 12.0233C110.251 9.33832 111.987 7.99726 114.947 8.00016C116.129 7.9913 117.283 8.36083 118.241 9.05477L118.306 9.33687L117.004 11.1163H116.678C116.244 10.0616 115.554 9.45405 114.387 9.45405C113.915 9.44105 113.454 9.59473 113.085 9.88804C112.542 10.4305 112.425 11.2899 112.425 12.9694V15.4736H115.324V17.1054H112.425V24.3228C112.425 26.0588 112.49 26.8921 112.703 27.2219C113.033 27.7688 114.222 27.8339 114.764 27.8339V28.4935C113.827 28.4284 112.308 28.3764 111.24 28.3764C109.609 28.3764 108.554 28.4415 107.712 28.4935V27.9163L107.66 27.9207ZM122.641 28.7453C118.683 28.7453 116.327 26.2888 116.327 22.1528C116.327 18.9239 118.063 15.1655 122.919 15.1655C126.873 15.1655 129.23 17.6219 129.23 21.7579C129.23 24.9695 127.485 28.7279 122.641 28.7279V28.7453ZM122.806 16.6671C122.136 16.6314 121.476 16.8482 120.958 17.2747C119.903 18.1817 119.395 19.7311 119.395 22.0226C119.395 22.9253 119.573 27.2783 122.754 27.2783C123.424 27.3125 124.082 27.0942 124.599 26.6664C125.653 25.7594 126.166 24.2143 126.166 21.9228C126.148 21.0158 126.001 16.6497 122.806 16.6497V16.6671ZM130.566 15.9423C131.522 15.9722 132.478 15.8995 133.418 15.7253C133.961 15.6801 134.491 15.5329 134.98 15.2913L135.197 15.4042V16.5239C135.594 16.1299 136.065 15.8182 136.582 15.6066C137.1 15.3951 137.654 15.288 138.213 15.2913C139.048 15.2571 139.865 15.5392 140.501 16.0812V16.4414L139.381 18.4682H138.838C138.464 17.8951 137.878 17.4927 137.209 17.3481C136.539 17.2035 135.84 17.3284 135.262 17.6957V24.3532C135.262 26.0892 135.327 26.8574 135.54 27.2002C135.87 27.7471 136.994 27.8122 137.601 27.7471V28.4718C136.694 28.4067 135.145 28.3547 134.077 28.3547C132.9 28.3314 131.722 28.3706 130.549 28.4718V27.8122C131.274 27.7471 131.669 27.5952 131.951 27.2697C132.346 26.8357 132.385 25.7507 132.385 23.5286V19.9134C132.385 18.2816 132.385 17.6262 132.107 17.279C131.89 16.9969 131.447 16.845 130.588 16.845V16.0074L130.558 15.9423H130.566ZM148.855 8.79003C149.89 8.73236 150.92 8.60038 151.936 8.3951C152.409 8.30908 152.877 8.19898 153.338 8.06525L153.551 8.1781C153.438 9.23271 153.438 11.6501 153.438 13.3861V23.9973C153.438 25.5641 153.438 26.5709 153.651 26.9008C153.863 27.2306 154.31 27.4085 155.165 27.4085V28.0682C154.232 28.0886 153.302 28.1829 152.383 28.3503C151.891 28.4151 151.406 28.5255 150.934 28.6802L150.604 28.563V27.4433C149.566 28.248 148.289 28.6833 146.976 28.6802C143.404 28.6802 141.112 26.2237 141.112 22.3698C141.093 21.1613 141.318 19.9613 141.772 18.8414C142.892 16.4848 145.131 15.1524 147.965 15.1524C148.805 15.1504 149.642 15.2216 150.469 15.3651V12.5788C150.469 10.947 150.469 10.1224 150.192 9.72747C150.009 9.44537 149.758 9.33253 148.79 9.29347V8.76833H148.855V8.79003ZM148.395 26.814C149.139 26.87 149.883 26.6925 150.522 26.3062V17.6045C150.174 17.2904 149.768 17.0485 149.326 16.8928C148.884 16.7371 148.416 16.6707 147.948 16.6975C145.444 16.6975 144.211 18.4335 144.211 22.0183C144.159 23.5199 144.606 26.814 148.395 26.814ZM77.3104 27.2089C76.9111 27.721 75.9086 28.7279 73.782 28.7279C71.7552 28.7279 70.6529 28.0031 70.1581 26.3713C69.9411 25.7594 69.9411 24.4747 69.9411 23.7326C69.9411 21.6754 69.9411 19.9915 70.0106 18.0342V17.1271H68.2746V16.615C68.8572 16.3882 69.4062 16.083 69.9064 15.708C70.9299 14.856 71.7511 13.7872 72.3107 12.5788H72.8576V15.4779H77.2583V17.1098H72.8446V23.9322C72.8446 25.9894 73.2395 27.1134 75.1317 27.1134C75.7857 27.1345 76.4306 26.9559 76.9806 26.6013L77.3104 27.2089Z" fill="#8C1515"/>
<path d="M139.249 39.4034C139.011 39.3951 138.778 39.4703 138.589 39.616C138.525 39.6579 138.473 39.7173 138.441 39.7872C138.409 39.857 138.397 39.9346 138.407 40.011C138.433 40.3011 138.504 40.5853 138.62 40.8529L139.857 44.0819C140.039 44.594 140.186 44.9889 140.251 45.2537L141.77 40.8355C141.895 40.5728 141.967 40.2883 141.983 39.9979C141.977 39.9333 141.958 39.8707 141.927 39.8139C141.895 39.7571 141.852 39.7075 141.801 39.6681C141.607 39.5322 141.378 39.4567 141.141 39.4511V38.9433C141.385 38.9324 141.628 38.9543 141.866 39.0084C142.048 39.0084 142.378 39.0735 142.66 39.0735C143.203 39.0735 143.993 39.0084 144.322 39.0084V39.5205C144.11 39.5856 143.598 39.4511 143.155 40.7531L139.974 49.2421C139.54 50.4746 138.919 51.9936 136.745 51.9936C136.009 52.0427 135.284 51.8064 134.718 51.334V51.1213L135.508 50.1795H135.721C135.831 50.4241 136.017 50.6266 136.252 50.7572C136.486 50.8877 136.756 50.9393 137.023 50.9043C138.029 50.9043 138.472 49.9972 139.149 48.2179L139.331 47.7101L136.662 40.7444C136.639 40.6447 136.599 40.5495 136.545 40.4623C136.48 40.28 136.332 39.9502 136.332 39.9502C136.258 39.8076 136.142 39.6902 136.001 39.613C135.86 39.5358 135.699 39.5021 135.538 39.5162V39.0084C136.153 39.0615 136.77 39.0832 137.387 39.0735C137.777 39.08 138.167 39.0583 138.555 39.0084C138.772 39.0084 139.166 38.9433 139.349 38.9433V39.3773H139.279V39.412L139.249 39.4034ZM109.655 39.2862C110.253 39.3141 110.853 39.2542 111.434 39.1082C111.776 39.0462 112.112 38.9517 112.437 38.8261L112.619 38.8912V39.616C112.865 39.3626 113.16 39.1619 113.486 39.0261C113.812 38.8903 114.162 38.8223 114.515 38.8261C115.047 38.8013 115.567 38.985 115.965 39.3383V39.616L115.305 40.918H114.975C114.838 40.6732 114.633 40.474 114.383 40.3451C114.134 40.2163 113.853 40.1635 113.574 40.1932C113.252 40.2061 112.939 40.3034 112.667 40.4753V44.6764C112.667 45.7961 112.736 46.3083 112.849 46.5209C113.066 46.8508 113.756 46.9159 114.151 46.9159V47.3499C113.608 47.2848 112.588 47.2848 111.911 47.2848C111.162 47.2614 110.411 47.2991 109.668 47.3976V46.9636C110 46.9684 110.323 46.851 110.575 46.6338C110.857 46.3517 110.857 45.692 110.857 44.2251V41.8728C110.857 40.8659 110.857 40.4189 110.675 40.2063C110.562 40.024 110.241 39.9242 109.737 39.9242V39.3166H109.655V39.2818V39.2862ZM72.4436 47.3933C70.0914 47.3933 68.7069 46.6685 68.1948 45.1061C67.962 44.2692 67.8667 43.4 67.9127 42.5325V38.0666C67.9127 36.7343 67.8476 36.5043 67.5828 36.2873C67.3482 36.1276 67.0759 36.0318 66.793 36.0095V35.5755C67.4777 35.6493 68.1658 35.6884 68.8545 35.6927C69.5654 35.7219 70.2776 35.6827 70.981 35.5755V36.0876C70.6472 36.0746 70.3215 36.193 70.074 36.4175C69.7919 36.6996 69.7919 37.2073 69.7919 38.6569V42.6149C69.7919 44.9716 70.0089 46.4862 72.6433 46.4862C75.2776 46.4862 75.4946 44.9195 75.4946 42.5325V38.1925C75.4946 36.8601 75.4295 36.6301 75.1648 36.4131C74.9201 36.2742 74.6526 36.1801 74.3749 36.1354V35.7014C74.8827 35.7014 75.5424 35.7665 76.2194 35.7665C76.8753 35.7819 77.5313 35.7441 78.1811 35.6536V36.1614C77.8476 36.1511 77.5229 36.2691 77.274 36.4912C76.9919 36.7733 76.9919 37.2854 76.9919 38.735V42.0464C77.0519 43.1176 76.9406 44.1915 76.6621 45.2276C76.1369 46.6685 74.7872 47.3933 72.4436 47.3933ZM88.38 46.8855C88.7205 46.8828 89.0503 46.7667 89.3175 46.5557C89.5996 46.2736 89.5996 45.6139 89.5996 44.147V41.7947C89.5996 40.7878 89.5996 40.2757 89.4173 40.0587C89.3044 39.8764 89.0874 39.7766 88.4798 39.7289V39.2167C89.1156 39.2323 89.751 39.1711 90.3721 39.0345C90.6822 38.9697 90.9859 38.8767 91.2791 38.7567L91.4614 38.939C91.3963 39.4815 91.3963 40.675 91.3963 42.233V44.6504C91.3963 45.7744 91.4614 46.2822 91.5786 46.4992C91.7064 46.6347 91.8625 46.7403 92.0358 46.8086C92.2091 46.8768 92.3953 46.9061 92.5811 46.8942V47.2891C91.9073 47.23 91.2306 47.2082 90.5544 47.224C89.7167 47.224 88.8184 47.2891 88.3844 47.3368V46.9028L88.38 46.8855ZM90.4415 37.3375C90.3037 37.3515 90.1644 37.3355 90.0333 37.2905C89.9023 37.2456 89.7825 37.1727 89.6823 37.077C89.582 36.9813 89.5037 36.8651 89.4527 36.7362C89.4018 36.6074 89.3793 36.469 89.3869 36.3306C89.3829 36.1858 89.4093 36.0418 89.4643 35.9078C89.5194 35.7738 89.6019 35.6528 89.7066 35.5526C89.8113 35.4524 89.9358 35.3753 90.0721 35.3262C90.2083 35.277 90.3534 35.257 90.4979 35.2674C90.6358 35.2534 90.7751 35.2694 90.9061 35.3144C91.0372 35.3593 91.157 35.4322 91.2572 35.5279C91.3574 35.6235 91.4357 35.7398 91.4867 35.8687C91.5377 35.9975 91.5602 36.1359 91.5526 36.2742C91.556 36.4185 91.5292 36.5619 91.4738 36.6952C91.4184 36.8285 91.3357 36.9487 91.231 37.0481C91.1264 37.1474 91.002 37.2238 90.866 37.2721C90.73 37.3205 90.5854 37.3398 90.4415 37.3289V37.3375ZM123.707 46.8855C124.049 46.8818 124.38 46.7659 124.649 46.5557C124.927 46.2736 124.927 45.6139 124.927 44.147V41.7947C124.927 40.7878 124.927 40.2757 124.749 40.0587C124.571 39.8417 124.419 39.7766 123.807 39.7289V39.2167C124.444 39.2322 125.081 39.171 125.704 39.0345C126.016 38.9791 126.321 38.8858 126.611 38.7567L126.789 38.939C126.724 39.4815 126.724 40.675 126.724 42.233V44.6504C126.724 45.7744 126.789 46.2822 126.906 46.4992C127.036 46.6334 127.193 46.738 127.367 46.8062C127.54 46.8743 127.727 46.9043 127.913 46.8942V47.2891C127.227 47.2313 126.539 47.2096 125.851 47.224C125.009 47.224 124.115 47.2891 123.681 47.3368V46.9028L123.707 46.8855ZM125.769 37.3375C125.631 37.3515 125.492 37.3355 125.361 37.2905C125.23 37.2456 125.11 37.1727 125.01 37.077C124.909 36.9813 124.831 36.8651 124.78 36.7362C124.729 36.6074 124.707 36.469 124.714 36.3306C124.711 36.1858 124.739 36.0419 124.795 35.9083C124.851 35.7747 124.935 35.6543 125.04 35.5549C125.146 35.4556 125.271 35.3794 125.408 35.3314C125.544 35.2833 125.69 35.2645 125.834 35.276C125.972 35.262 126.111 35.2781 126.242 35.323C126.373 35.368 126.493 35.4408 126.593 35.5365C126.694 35.6322 126.772 35.7485 126.823 35.8773C126.874 36.0062 126.896 36.1446 126.889 36.2829C126.892 36.4277 126.865 36.5715 126.809 36.7051C126.753 36.8386 126.67 36.9588 126.564 37.0576C126.458 37.1564 126.333 37.2317 126.196 37.2785C126.058 37.3252 125.913 37.3424 125.769 37.3289V37.3375ZM116.937 47.007C116.935 46.2821 116.896 45.5579 116.82 44.837H117.367C117.339 45.2176 117.457 45.5946 117.697 45.8916C118.022 46.2866 118.421 46.4341 119.146 46.4341H119.259C120.166 46.4341 120.661 46.0392 120.661 45.2667C120.661 44.6547 120.266 44.3596 119.606 43.9647L118.434 43.2399C117.827 42.845 117.102 42.2981 117.102 41.1133C117.076 40.6935 117.172 40.2752 117.38 39.9092C117.587 39.5432 117.896 39.2453 118.269 39.0518C118.797 38.8364 119.367 38.7415 119.936 38.7741C120.664 38.7899 121.389 38.861 122.106 38.9867C122.052 39.3195 122.03 39.6567 122.041 39.9936C122.03 40.368 122.052 40.7427 122.106 41.1133H121.564C121.559 40.7731 121.444 40.4437 121.234 40.1759C121.053 40.0144 120.841 39.8923 120.611 39.8176C120.381 39.7428 120.138 39.717 119.897 39.7419C119.059 39.7419 118.595 40.0717 118.595 40.7965C118.595 41.339 119.029 41.6385 119.437 41.9162H119.502L120.622 42.5759C121.347 43.0099 122.288 43.5828 122.288 44.8674C122.288 47.0374 120.262 47.3716 119.107 47.3716C118.368 47.3671 117.635 47.241 116.937 46.9983V47.007ZM134.484 46.4645C134.202 46.775 133.855 47.0198 133.468 47.1818C133.081 47.3438 132.663 47.4189 132.244 47.4019C130.942 47.4019 130.217 46.9679 129.953 45.8873C129.858 45.3386 129.82 44.7815 129.84 44.2251V40.0544H128.72V39.7245C129.089 39.5792 129.442 39.3975 129.775 39.182C130.418 38.6107 130.948 37.9231 131.337 37.1553H131.728V39.0084H134.514V40.0153H131.728V44.3553C131.728 45.6573 131.945 46.4168 133.182 46.4168C133.594 46.4201 133.999 46.3056 134.349 46.0869L134.484 46.4645ZM96.6868 38.965C96.4202 38.9563 96.1535 38.9796 95.8925 39.0345C95.4585 39.0345 94.9898 39.0996 94.66 39.0996C94.048 39.0996 93.141 39.0345 92.8806 39.0345V39.5422C93.0572 39.5229 93.2352 39.5627 93.3868 39.6554C93.5384 39.748 93.6549 39.8884 93.7182 40.0544C93.8086 40.2168 93.8814 40.3885 93.9352 40.5665C93.9926 40.6497 94.0311 40.7445 94.048 40.8442L96.7345 47.5538L97.5764 47.3716L100.541 40.7791C100.541 40.714 100.606 40.6663 100.658 40.5665C100.71 40.4667 100.723 40.3842 100.936 40.0544C101.02 39.904 101.142 39.7779 101.29 39.6883C101.437 39.5986 101.605 39.5483 101.778 39.5422V39.0084C101.448 39.0084 100.723 39.0735 100.146 39.0735C99.8635 39.0836 99.5811 39.0618 99.3038 39.0084C99.0911 39.0084 98.7613 38.939 98.5139 38.939V39.373C98.7505 39.3735 98.9812 39.4478 99.1736 39.5856C99.267 39.674 99.3307 39.7893 99.3558 39.9155C99.3161 40.2035 99.2433 40.4861 99.1388 40.7574L97.507 44.7112C97.4419 44.4985 97.3291 44.1687 97.1815 43.7086L96.0574 40.7401C95.9258 40.4784 95.8532 40.1909 95.8448 39.8981C95.8448 39.7853 95.8448 39.6855 95.962 39.6204C96.0582 39.5278 96.1718 39.4553 96.2962 39.4068C96.4205 39.3584 96.5533 39.3351 96.6868 39.3383V38.9043V38.965ZM78.4285 39.2949C78.985 39.3431 79.5457 39.3051 80.0907 39.182C80.4721 39.1022 80.8466 38.992 81.2104 38.8522L81.3927 38.965V39.6247C82.0871 39.1074 82.9311 38.8301 83.797 38.8348C85.316 38.8348 86.2534 39.5596 86.5529 40.7965C86.6278 41.2979 86.6655 41.8042 86.6657 42.3111V44.7198C86.6657 46.0522 86.7308 46.4558 86.9956 46.7466C87.2298 46.8991 87.5063 46.9736 87.7854 46.9593V47.3542C87.243 47.3542 86.2708 47.2891 85.7283 47.2891C84.9341 47.2891 84.0965 47.3542 83.6668 47.4019V47.007C83.9613 46.9632 84.2461 46.8693 84.5088 46.7292C84.7214 46.5122 84.7865 46.0045 84.8386 44.9933V43.5437C84.8497 42.9108 84.8279 42.2778 84.7735 41.6471C84.6563 40.5925 84.1138 40.0847 83.0375 40.0847C82.4973 40.0777 81.9623 40.1903 81.4708 40.4146V44.798C81.4708 46.1303 81.5359 46.5339 81.8006 46.8247C82.0349 46.9772 82.3114 47.0517 82.5905 47.0374V47.4323C81.894 47.2898 81.1831 47.2301 80.4726 47.2544C79.7832 47.2177 79.0919 47.257 78.4111 47.3716V46.9766C78.7445 46.9869 79.0692 46.8689 79.3181 46.6468C79.5308 46.3647 79.5959 45.6399 79.5959 44.2381V41.8858C79.5959 40.879 79.5959 40.4319 79.418 40.2193C79.24 40.0066 79.0187 39.8894 78.4762 39.9372V39.3122H78.4285V39.2949ZM105.584 47.4019C103.08 47.4019 101.712 45.9524 101.712 43.318C101.712 42.884 101.825 38.7871 105.618 38.7871C106.742 38.7871 107.745 39.2211 108.192 40.0196C108.596 40.6952 108.786 41.4778 108.735 42.2634V42.7755H103.527C103.53 43.1301 103.569 43.4835 103.644 43.8301C103.921 45.4576 104.811 46.2345 106.395 46.2345C107.087 46.2731 107.773 46.094 108.357 45.7224L108.57 46.1173C108.053 46.8508 106.933 47.3933 105.584 47.3933V47.4019ZM103.574 41.8164H106.803C106.803 40.8139 106.621 39.6941 105.171 39.6941C103.904 39.7506 103.639 40.9527 103.574 41.8077V41.8164Z" fill="#8C1515"/>
</svg>
