<svg width="628" height="584" viewBox="0 0 628 584" fill="none" xmlns="http://www.w3.org/2000/svg">
<path d="M228.989 542.917L228.997 542.908C255.94 514.424 269.394 477.405 269.394 431.897C269.394 400.54 257.326 372.045 233.235 346.427C209.134 320.797 180.754 307.962 148.113 307.962C138.179 307.962 126.84 309.387 114.1 312.23L114.088 312.233C103.144 314.981 94.166 321.023 87.1631 330.341V325.487V325.48L87.1629 325.473C85.7524 277.306 94.9201 223.451 114.684 163.901C134.453 104.335 156.335 54.7137 180.326 15.028L180.649 14.4935L180.057 14.2952L141.914 1.52586L141.62 1.42738L141.401 1.64722C113.109 30.063 85.5368 67.7 58.6817 114.546C31.8252 161.395 9.91675 210.374 -7.04546 261.482C-24.0091 311.175 -32.5 355.923 -32.5 395.718C-32.5 448.286 -21.1825 493.073 1.47735 530.056L1.48209 530.063C24.2066 565.725 63.9542 583.5 120.566 583.5C165.876 583.5 202.037 569.986 228.989 542.917ZM587.095 542.917L587.103 542.908C614.046 514.424 627.5 477.405 627.5 431.897C627.5 400.54 615.432 372.045 591.341 346.427C567.24 320.797 538.86 307.962 506.219 307.962C496.284 307.962 484.945 309.387 472.206 312.23L472.194 312.233C461.25 314.981 452.272 321.023 445.269 330.341V325.487V325.48L445.269 325.473C443.858 277.306 453.026 223.451 472.79 163.901C492.559 104.335 514.441 54.7137 538.432 15.028L538.755 14.4935L538.162 14.2952L500.02 1.52586L499.726 1.42738L499.507 1.64722C471.215 30.063 443.643 67.7 416.788 114.546C389.931 161.396 368.022 210.375 351.06 261.484C334.097 311.177 325.606 355.923 325.606 395.718C325.606 448.286 336.923 493.073 359.583 530.056L359.588 530.063C382.312 565.725 422.06 583.5 478.671 583.5C523.982 583.5 560.143 569.986 587.095 542.917Z" stroke="white" stroke-opacity="0.08"/>
</svg>
