<svg width="197" height="50" viewBox="0 0 197 50" fill="none" xmlns="http://www.w3.org/2000/svg">
<path d="M172.104 29.597L175.229 21.32L175.779 21.7862C177.697 23.3579 180.303 24.6906 182.765 24.7443C184.964 24.7922 186.04 24.2065 185.753 22.3539C185.538 20.9615 183.96 20.7164 182.986 20.5252L180.835 20.0949C176.651 19.312 173.125 16.7304 173.125 11.8359C173.125 4.43747 179.502 0.290037 185.92 0.290037C189.241 0.258949 192.496 1.22035 195.267 3.05101L192.554 10.3897C191.06 9.31399 188.801 7.808 185.944 7.70043C185.006 7.66457 182.855 8.1606 183.554 10.3419C183.847 11.2682 185.179 11.6626 185.998 11.8598L188.43 12.4574C192.966 13.5152 196.253 16.0969 196.253 21.3798C196.253 28.8141 189.835 32.4954 183.458 32.4954C179.501 32.4498 175.611 31.4711 172.104 29.6388" fill="#004982"/>
<path d="M169.79 0.791016H159.057V31.9924H169.79V0.791016Z" fill="#004982"/>
<path d="M146.738 0.791016H157.932L146.505 31.9924H137.422L126.037 0.791016H137.189L141.963 19.6158L146.738 0.791016Z" fill="#004982"/>
<path d="M115.818 9.79704C116.015 11.1237 117.97 20.6676 117.97 20.6676H113.679L115.818 9.79704ZM99.5332 31.9864H110.888L111.748 28.072H119.846L120.922 31.9864H132.276L121.645 0.791016H109.746L99.5332 31.9864Z" fill="#004982"/>
<path d="M71.668 0.791016H82.6641C92.6502 0.791016 100.276 5.37471 100.276 16.8369C100.276 26.076 94.0605 31.9864 85.3354 31.9864H71.674L71.668 0.791016ZM82.4728 23.0282H83.2079C86.7936 23.0282 89.4768 20.8708 89.4768 16.8011C89.4768 12.4146 87.0864 9.97034 83.1541 9.97034H82.4728V23.0282Z" fill="#004982"/>
<path d="M65.136 1.77242L65.7336 6.888C65.8711 8.08322 66.5643 11.0175 65.7336 10.629C65.1958 10.39 64.7536 9.0633 64.3173 7.89198C64.0902 7.29437 63.0265 4.47962 62.7516 4.27045C61.4069 3.26646 58.0543 2.131 55.7834 2.12503C48.9049 2.09515 44.3511 7.16886 44.3511 16.1749C44.3511 22.6291 47.4467 30.3801 55.3113 30.3801C58.132 30.3801 63.5285 29.4897 64.9986 25.4797C65.6619 23.6869 66.2715 22.0554 66.7137 22.5395C67.0364 22.904 66.6121 24.3323 66.4149 25.1331C65.4886 28.8562 65.4408 29.9797 65.148 30.1232C61.5922 31.916 57.0324 32.5136 53.0463 32.5136C40.359 32.5136 35.9785 25.1152 35.9785 17.7167C35.9785 4.88002 43.867 -0.432762 56.0942 0.0273998C59.1977 0.118118 62.2657 0.713568 65.1779 1.79036" fill="#004982"/>
<path d="M27.6777 2.34098L25.6458 1.62982C24.9645 1.03221 25.7952 0.846953 25.7952 0.846953C25.7952 0.846953 28.7295 1.39078 36.0442 0.76926C36.0442 0.76926 36.6837 0.894769 36.2414 1.41469L33.851 2.43661C32.2853 3.12386 32.2852 2.72943 32.2852 4.44458V20.3411C32.2852 32.7774 19.6338 32.4965 17.1657 32.4965C15.9704 32.4965 4.48431 32.4965 4.48431 22.5164V5.68762C4.48431 2.74736 4.79507 2.83102 3.82096 2.48441L0.886678 1.3848C0.886678 1.3848 0.390656 0.679614 1.27512 0.727423C5.91468 1.14276 10.5814 1.15676 15.2234 0.76926C15.2234 0.76926 15.9286 0.942564 15.4625 1.45651L13.1198 2.14378C11.2553 2.97446 11.5063 2.34099 11.4525 4.24737L11.5122 20.8431C11.5122 24.9128 13.6039 29.9447 20.0999 29.9447C29.0641 29.9447 29.1538 22.1757 29.1538 20.4726V4.03224C29.2494 2.48442 29.0581 2.92665 27.6836 2.34098" fill="#004982"/>
<path d="M195.785 35.759H3.44336V36.8049H195.785V35.759Z" fill="#004982"/>
<path d="M192.049 45.7508H189.181L190.782 41.9082L192.049 45.7508ZM192.258 46.2708C192.856 48.0158 193.244 49.0257 193.244 49.1273C193.244 49.2289 193.143 49.2767 193.047 49.2767H192.27V49.701H195.474V49.2767H195.043C194.667 49.2767 194.499 49.0676 194.159 48.1592C193.454 46.2409 191.673 41.4241 191.673 40.8026C191.673 40.5277 191.924 40.5397 191.924 40.3544C191.926 40.3348 191.923 40.3152 191.917 40.2967C191.91 40.2781 191.9 40.2612 191.886 40.2471C191.872 40.2329 191.856 40.2219 191.838 40.2146C191.82 40.2073 191.8 40.2041 191.78 40.205C191.697 40.205 191.29 40.3125 190.932 40.3962L187.304 49.0676C187.221 49.2528 187.005 49.3007 186.784 49.3007H186.509V49.725H189.426V49.3007H188.523C188.302 49.3007 188.153 49.223 188.153 48.9242C188.345 48.023 188.623 47.1424 188.984 46.2946L192.258 46.2708ZM184.436 41.203C184.431 41.1731 184.433 41.1426 184.442 41.1137C184.451 41.0848 184.467 41.0584 184.487 41.0364C184.508 41.0145 184.534 40.9976 184.562 40.9871C184.59 40.9766 184.621 40.9728 184.651 40.9759H185.314V40.5396H181.968V40.9759H182.822C183.199 40.9759 183.223 41.5257 183.223 43.0078V49.0676C183.223 49.1931 183.169 49.3007 183.007 49.3007H182.326V49.725H185.673V49.3007H184.86C184.478 49.3007 184.454 48.7449 184.454 47.2628L184.436 41.203ZM173.284 40.5396H171.187V40.9759H171.629C172.316 40.9759 172.442 41.4659 172.442 42.6313V48.9839C172.442 49.199 172.28 49.2767 172.113 49.2767H171.569V49.701H174.205V49.2767H173.44C173.009 49.2767 172.979 48.4222 172.979 47.7588V41.944H173.009L179.254 49.4739L179.428 49.6712C179.529 49.7907 179.589 49.8325 179.631 49.8325C179.673 49.8325 179.75 49.7309 179.75 49.6054V41.2388C179.75 41.0237 179.906 40.952 180.079 40.952H180.617V40.5157H177.975V40.952H178.74C179.171 40.952 179.195 41.8066 179.195 42.464V47.6572L173.284 40.5396ZM163.722 49.0437C163.722 49.1692 163.669 49.2767 163.507 49.2767H162.832V49.701H166.173V49.2767H165.348C164.977 49.2767 164.954 48.721 164.954 47.2389V45.5536H166.017C168.659 49.6951 168.814 49.701 169.149 49.701H170.81V49.2767H170.452C170.027 49.2767 169.537 48.7986 167.153 45.3444C168.432 45.1174 169.412 44.3166 169.412 43.0197C169.412 41.191 167.774 40.5396 166.507 40.5396H162.467V40.9759H163.322C163.693 40.9759 163.722 41.5257 163.722 43.0078V49.0437ZM164.954 45.1174V41.2628C164.954 41.0775 165.151 41.0655 165.288 41.0655H166.017C166.305 41.0597 166.591 41.1125 166.858 41.2207C167.124 41.3289 167.366 41.4901 167.569 41.6948C167.771 41.8994 167.93 42.143 168.035 42.4109C168.14 42.6787 168.19 42.9652 168.181 43.2528C168.181 44.6691 166.908 45.1174 165.671 45.1174H164.954ZM156.629 40.7428C158.332 40.7428 160.268 42.1293 160.268 45.3923C160.268 48.0158 158.953 49.5038 157.005 49.5038C155.302 49.5038 153.372 48.1174 153.372 44.8544C153.372 42.2309 154.681 40.7428 156.629 40.7428ZM156.689 49.9759C159.557 49.9759 161.469 47.711 161.469 44.9859C161.469 42.2608 159.826 40.2647 156.922 40.2647C154.017 40.2647 152.141 42.5357 152.141 45.2608C152.141 47.9859 153.79 49.9759 156.689 49.9759ZM144.043 40.9759H144.898C145.274 40.9759 145.298 41.5257 145.298 43.0078V49.0676C145.298 49.1931 145.244 49.3007 145.089 49.3007H144.408V49.725H147.76V49.3007H146.935C146.553 49.3007 146.529 48.7449 146.529 47.2628V44.95H148.322C149.971 44.95 150.115 44.95 150.115 45.3564V45.8584H150.509V43.4261H150.115V43.9879C150.115 44.4181 149.673 44.4839 148.185 44.4839H146.511V41.2986C146.511 41.1552 146.583 41.0416 146.798 41.0416H148.214C150.485 41.0416 150.736 41.4301 150.784 41.5974C150.832 41.7647 150.838 41.8604 150.957 41.8604C151.077 41.8604 151.125 41.7946 151.256 40.5157H144.025L144.043 40.9759ZM141.402 41.203C141.398 41.1728 141.401 41.1421 141.411 41.1133C141.42 41.0845 141.436 41.0582 141.458 41.0364C141.479 41.0146 141.505 40.9979 141.533 40.9874C141.562 40.9769 141.592 40.973 141.623 40.9759H142.286V40.5396H138.933V40.9759H139.782C140.165 40.9759 140.188 41.5257 140.188 43.0078V49.0676C140.192 49.098 140.189 49.1289 140.179 49.1579C140.169 49.187 140.154 49.2136 140.132 49.2359C140.111 49.2581 140.086 49.2754 140.057 49.2866C140.029 49.2978 139.998 49.3026 139.967 49.3007H139.298V49.725H142.645V49.3007H141.82C141.443 49.3007 141.408 48.7449 141.408 47.2628L141.402 41.203ZM134.093 40.5396H130.746V40.9759H131.595C131.971 40.9759 132.001 41.5257 132.001 43.0078V49.0676C132.001 49.1931 131.947 49.3007 131.786 49.3007H131.111V49.725H137.971C138.115 49.3057 138.234 48.8787 138.33 48.4461C138.33 48.3743 138.276 48.2907 138.216 48.2907C138.157 48.2907 138.091 48.3743 138.049 48.4461C137.798 48.8465 137.236 49.211 134.786 49.211H133.824C133.382 49.211 133.226 49.211 133.226 47.4182V41.203C133.223 41.1728 133.226 41.1421 133.235 41.1133C133.245 41.0845 133.261 41.0582 133.282 41.0364C133.304 41.0146 133.329 40.9979 133.358 40.9874C133.387 40.9769 133.417 40.973 133.447 40.9759H134.093V40.5396ZM126.664 45.7508H123.76L125.374 41.8962L126.664 45.7508ZM126.868 46.2708C127.465 48.0158 127.86 49.0257 127.86 49.1273C127.86 49.2289 127.758 49.2767 127.651 49.2767H126.868V49.701H130.095V49.2767H129.664C129.294 49.2767 129.121 49.0676 128.792 48.1592C128.081 46.2409 126.294 41.4241 126.294 40.8026C126.294 40.5277 126.545 40.5397 126.545 40.3544C126.547 40.3348 126.544 40.3152 126.538 40.2967C126.531 40.2781 126.521 40.2612 126.507 40.2471C126.494 40.2329 126.477 40.2219 126.459 40.2146C126.441 40.2073 126.421 40.2041 126.402 40.205C126.318 40.205 125.911 40.3125 125.553 40.3962L121.902 49.0676C121.848 49.1523 121.771 49.2196 121.679 49.261C121.588 49.3024 121.487 49.3162 121.388 49.3007H121.095V49.725H124.017V49.3007H123.103C122.888 49.3007 122.738 49.223 122.738 48.9242C122.93 48.0222 123.21 47.1415 123.575 46.2946L126.868 46.2708ZM120.174 40.7608C119.388 40.4412 118.549 40.2729 117.7 40.2647C114.712 40.2647 112.113 42.3743 112.113 45.4759C112.113 48.464 114.121 49.9759 116.989 49.9759C118.133 49.9767 119.262 49.7279 120.3 49.2469C120.366 48.3325 120.396 48.1174 120.396 47.9859C120.396 47.8544 120.366 47.8006 120.252 47.8006C120.139 47.8006 120.073 47.9441 120.061 48.0576C119.959 48.8704 118.531 49.456 117.228 49.456C116.705 49.4408 116.189 49.321 115.713 49.1037C115.236 48.8864 114.808 48.5759 114.453 48.1905C114.099 47.8051 113.824 47.3527 113.647 46.8598C113.47 46.3669 113.393 45.8436 113.421 45.3206C113.421 42.8046 114.957 40.7906 117.605 40.7906C118.477 40.7906 119.672 41.1791 119.744 41.693C119.774 41.9082 119.786 41.9739 119.911 41.9739C120.037 41.9739 120.073 41.9261 120.174 40.7787M99.5568 40.9938H100.453C100.83 40.9938 100.866 41.5436 100.866 43.0257V49.0676C100.869 49.098 100.866 49.1289 100.856 49.1579C100.847 49.187 100.831 49.2136 100.81 49.2359C100.788 49.2581 100.763 49.2754 100.734 49.2866C100.706 49.2978 100.675 49.3026 100.644 49.3007H99.9691V49.725H103.316V49.3007H102.491C102.121 49.3007 102.091 48.7449 102.091 47.2628V44.95H103.913C105.557 44.95 105.706 44.95 105.706 45.3564V45.8584H106.089V43.4261H105.706V43.9879C105.706 44.4181 105.258 44.4839 103.776 44.4839H102.103V41.2986C102.103 41.1552 102.174 41.0416 102.383 41.0416H103.8C106.083 41.0416 106.328 41.4301 106.376 41.5974C106.423 41.7647 106.423 41.8604 106.549 41.8604C106.674 41.8604 106.722 41.7946 106.842 40.5157H99.5807L99.5568 40.9938ZM93.6643 40.7608C95.3735 40.7608 97.3038 42.1472 97.3038 45.4102C97.3038 48.0337 95.989 49.5218 94.0408 49.5218C92.3376 49.5218 90.4073 48.1353 90.4073 44.8723C90.4073 42.2488 91.7221 40.7608 93.6643 40.7608ZM93.73 49.9939C96.5926 49.9939 98.5109 47.7289 98.5109 45.0038C98.5109 42.2787 96.8615 40.2827 93.9631 40.2827C91.0647 40.2827 89.1822 42.5536 89.1822 45.2787C89.1822 48.0038 90.8316 49.9939 93.736 49.9939M81.3296 45.7269L83.6902 41.4062C83.7917 41.2209 83.8635 40.9759 84.0965 40.9759H84.6045V40.5396H81.975V40.9759H82.8176C82.985 40.9759 83.1045 40.9759 83.1045 41.1492C83.1045 41.4241 82.9013 41.8424 81.1264 45.1831C80.0387 43.2707 78.8017 41.1671 78.8017 41.0297C78.8017 40.8922 78.9332 40.9759 79.0347 40.9759H79.6981V40.5396H76.4531V40.9759H76.9371C77.1881 40.9759 77.2598 40.9759 77.4152 41.191C77.9531 41.8723 78.4431 42.8644 80.1045 45.7688V49.0676C80.1079 49.0975 80.1049 49.1278 80.0956 49.1564C80.0862 49.1851 80.0708 49.2114 80.0504 49.2335C80.03 49.2556 80.005 49.2731 79.9772 49.2847C79.9494 49.2963 79.9194 49.3017 79.8893 49.3007H79.2081V49.725H82.5248V49.3007H81.6941C81.3236 49.3007 81.2997 48.7449 81.2997 47.2628L81.3296 45.7269ZM72.5985 41.0655H72.957C74.6483 41.0655 75.467 41.3643 75.6104 41.8006C75.6104 41.8843 75.7001 42.0038 75.8136 42.0038C75.8344 42.0064 75.8555 42.0045 75.8755 41.9981C75.8955 41.9917 75.9138 41.981 75.9292 41.9667C75.9445 41.9525 75.9566 41.9351 75.9645 41.9156C75.9725 41.8962 75.976 41.8753 75.975 41.8544C75.8627 41.4093 75.7271 40.9704 75.5686 40.5396H68.3972C68.206 41.1373 67.9968 41.7349 67.9968 41.8544C67.9948 41.875 67.9975 41.8959 68.0047 41.9153C68.0119 41.9347 68.0234 41.9523 68.0384 41.9667C68.0533 41.981 68.0713 41.9919 68.091 41.9983C68.1108 42.0047 68.1317 42.0066 68.1522 42.0038C68.2717 42.0038 68.3255 41.8843 68.3554 41.8006C68.4988 41.3643 69.3235 41.0655 71.0028 41.0655H71.3733V49.0676C71.3733 49.1931 71.3196 49.3007 71.1582 49.3007H70.0706V49.725H74.1104V49.3007H73.0048C72.6283 49.3007 72.5985 48.7449 72.5985 47.2628V41.0655ZM65.8036 41.203C65.7989 41.1731 65.801 41.1426 65.81 41.1137C65.8189 41.0848 65.8344 41.0584 65.8552 41.0364C65.876 41.0145 65.9016 40.9976 65.9299 40.9871C65.9583 40.9766 65.9887 40.9728 66.0187 40.9759H66.6642V40.5396H63.3235V40.9759H64.1721C64.5426 40.9759 64.5785 41.5257 64.5785 43.0078V49.0676C64.583 49.0977 64.5808 49.1284 64.5718 49.1575C64.5629 49.1867 64.5475 49.2134 64.5269 49.2358C64.5062 49.2582 64.4808 49.2756 64.4525 49.2868C64.4242 49.2981 64.3937 49.3028 64.3633 49.3007H63.6821V49.725H67.0287V49.3007H66.198C65.8275 49.3007 65.8036 48.7449 65.8036 47.2628V41.203ZM59.5884 40.7906C60.0426 40.7906 61.208 40.946 61.3155 41.5675C61.3155 41.6691 61.3155 41.7827 61.4829 41.7827C61.6502 41.7827 61.6442 41.693 61.6442 41.5914C61.6442 41.2508 61.6442 40.8922 61.6024 40.5396C61.0846 40.3319 60.5282 40.2381 59.9709 40.2647C58.4291 40.2647 56.696 41.1791 56.696 42.9122C56.696 44.6453 58.4888 45.2309 59.0864 45.464C60.5147 45.9839 61.3514 46.4739 61.3514 47.5855C61.3514 48.8823 60.1562 49.456 59.0087 49.456C58.3036 49.456 56.9589 49.1572 56.7557 48.3504C56.7557 48.219 56.69 48.0696 56.5406 48.0696C56.5171 48.0687 56.4936 48.0727 56.4718 48.0815C56.45 48.0903 56.4302 48.1036 56.4139 48.1205C56.3975 48.1374 56.3849 48.1576 56.3769 48.1797C56.3689 48.2018 56.3656 48.2254 56.3673 48.2489C56.3673 48.3803 56.433 48.6791 56.5824 49.5696C57.3042 49.8345 58.0666 49.972 58.8354 49.9759C61.2259 49.9759 62.3135 48.4102 62.3135 47.1492C62.3135 45.6074 61.435 45.0098 59.5884 44.3345C58.6741 43.9938 57.5984 43.6174 57.5984 42.446C57.5984 41.3763 58.5964 40.7906 59.5645 40.7906M48.8493 49.0676C48.8539 49.0977 48.8516 49.1284 48.8427 49.1575C48.8337 49.1867 48.8184 49.2134 48.7977 49.2358C48.7771 49.2582 48.7516 49.2756 48.7233 49.2868C48.695 49.2981 48.6646 49.3028 48.6342 49.3007H47.9589V49.725H51.2995V49.3007H50.4808C50.1043 49.3007 50.0744 48.7449 50.0744 47.2628V45.5775H51.1442C53.7856 49.719 53.947 49.725 54.2756 49.725H55.937V49.3007H55.5725C55.1541 49.3007 54.6641 48.8226 52.2856 45.3684C53.5525 45.1413 54.5326 44.3405 54.5326 43.0436C54.5326 41.215 52.9011 40.5635 51.6342 40.5635H47.5943V40.9998H48.4609C48.8433 40.9998 48.8672 41.5496 48.8672 43.0317L48.8493 49.0676ZM50.0445 45.1413V41.2867C50.0445 41.1014 50.2477 41.0894 50.3732 41.0894H51.1143C51.4022 41.0828 51.6885 41.135 51.9556 41.2428C52.2227 41.3507 52.4649 41.512 52.6674 41.7167C52.87 41.9215 53.0286 42.1655 53.1335 42.4338C53.2384 42.702 53.2875 42.9888 53.2776 43.2767C53.2776 44.6931 52.0107 45.1413 50.7677 45.1413H50.0445ZM40.2317 49.0676C40.2317 49.1931 40.178 49.3007 40.0166 49.3007H39.3413V49.725H46.2079C46.3511 49.3057 46.4708 48.8787 46.5664 48.4461C46.5664 48.3743 46.5127 48.2907 46.4529 48.2907C46.3931 48.2907 46.3214 48.3743 46.2856 48.4461C46.0405 48.8465 45.4728 49.211 43.0226 49.211H42.0604C41.6182 49.211 41.4628 49.211 41.4628 47.4182V44.9441H43.2557C44.8991 44.9441 45.0485 44.944 45.0485 45.3504V45.8524H45.4728V43.4201H45.0784V43.9819C45.0784 44.4122 44.6362 44.4779 43.1481 44.4779H41.4748V41.2986C41.4748 41.1552 41.5465 41.0416 41.7616 41.0416H43.178C45.4609 41.0416 45.7059 41.4301 45.7477 41.5974C45.7896 41.7647 45.8015 41.8604 45.9151 41.8604C46.0286 41.8604 46.0943 41.7946 46.2198 40.5157H38.9827V40.952H39.8313C40.2078 40.952 40.2317 41.5018 40.2317 42.9839V49.0676ZM38.3732 40.5635H35.6301V40.9998H36.4548C36.7058 40.9998 36.8194 41.0416 36.8194 41.2448C36.8194 41.7887 36.1501 43.456 34.3094 47.9441C32.4628 43.456 31.4468 41.2149 31.4468 41.0894C31.4468 40.9639 31.5066 40.9998 31.5962 40.9998H32.3731V40.5635H29.2536V40.9998H29.6002C30.0783 40.9998 30.162 41.0536 30.658 42.2309L33.7178 49.6293C33.8134 49.8863 33.8552 49.9999 33.9628 49.9999C34.0704 49.9999 34.154 49.8146 34.2735 49.4979L37.5724 41.1612C37.6321 40.9998 37.6501 40.9998 37.7457 40.9998H38.3732V40.5635ZM27.3651 41.2269C27.3604 41.197 27.3626 41.1665 27.3715 41.1376C27.3805 41.1087 27.396 41.0823 27.4168 41.0603C27.4375 41.0384 27.4631 41.0215 27.4915 41.011C27.5198 41.0005 27.5502 40.9967 27.5803 40.9998H28.2317V40.5635H24.8851V40.9998H25.7516C26.1221 40.9998 26.152 41.5496 26.152 43.0317V49.0676C26.1556 49.098 26.1524 49.1289 26.1427 49.1579C26.133 49.187 26.1171 49.2136 26.096 49.2359C26.0749 49.2581 26.0492 49.2754 26.0206 49.2866C25.9921 49.2978 25.9615 49.3026 25.9309 49.3007H25.2556V49.725H28.6022V49.3007H27.7835C27.407 49.3007 27.3771 48.7449 27.3771 47.2628L27.3651 41.2269ZM16.1898 40.5396H14.0981V40.9759H14.5404C15.2276 40.9759 15.3531 41.4659 15.3531 42.6313V48.9839C15.3531 49.199 15.1918 49.2767 15.0244 49.2767H14.4866V49.701H17.1221V49.2767H16.3631C15.9268 49.2767 15.897 48.4222 15.897 47.7588V41.944L22.154 49.4739L22.3153 49.6712C22.4229 49.7907 22.4767 49.8325 22.5245 49.8325C22.5723 49.8325 22.638 49.7309 22.638 49.6054V41.2388C22.638 41.0237 22.7934 40.952 22.9727 40.952H23.5046V40.5157H20.8691V40.952H21.6281C22.0643 40.952 22.0882 41.8066 22.0882 42.464V47.6572L16.1898 40.5396ZM3.69371 40.9759H4.54232C4.91881 40.9759 4.95467 41.5257 4.95467 43.0078V46.211C4.95467 47.7289 5.11005 49.9759 8.54035 49.9759C10.7754 49.9759 12.1858 48.6253 12.1858 46.3903V41.2508C12.1858 41.0357 12.3471 40.9639 12.5145 40.9639H13.0523V40.5277H10.4169V40.9639H11.1758C11.6121 40.9639 11.642 41.8185 11.642 42.4759V45.948C11.642 47.0835 11.6001 49.3724 8.61804 49.3724C7.55429 49.3724 6.16185 48.7747 6.16185 46.6592V41.191C6.15711 41.1612 6.1593 41.1306 6.16824 41.1017C6.17719 41.0729 6.19266 41.0464 6.21346 41.0245C6.23425 41.0025 6.25981 40.9856 6.28817 40.9751C6.31652 40.9647 6.34692 40.9608 6.37699 40.9639H7.02839V40.5277H3.67578L3.69371 40.9759Z" fill="#004982"/>
</svg>
