<svg width="226" height="60" viewBox="0 0 226 60" fill="none" xmlns="http://www.w3.org/2000/svg">
<path d="M7.1166 0C6.92223 4.79828 7.05857 9.89827 7.05857 14.7952C7.05857 17.8935 6.89322 21.1948 7.1166 24.1945C7.42121 28.2704 7.49953 31.566 8.79918 34.467C11.5087 40.5098 18.2942 44.2927 24.8157 46.5961C25.8572 46.9617 26.8957 47.2692 28.0677 47.5825C28.3172 47.6492 28.6973 47.9074 28.938 47.9306C29.556 47.9886 32.1582 46.9414 32.8283 46.7122C39.4397 44.4436 46.8141 40.3067 49.425 34.1189C50.539 31.4673 50.716 28.6069 50.9916 24.9487C51.1889 22.2943 51.0496 19.3469 51.0496 16.5938V0H7.1166ZM55.8537 41.1422C55.3054 41.2264 53.823 42.4999 53.2428 42.8277C51.1395 43.9881 49.0421 45.2007 46.6865 46.0769C46.6865 47.185 46.5298 47.1676 47.3247 46.8311C49.9356 45.7055 52.1665 44.3072 54.5772 43.0598C54.4264 43.4456 53.6605 46.3118 53.765 46.7151C53.8694 47.1183 55.8566 49.1548 56.2598 49.442C55.0617 49.7524 54.2291 50.3442 53.0687 50.7185C53.0337 50.8512 53.0142 50.9875 53.0107 51.1246C53.0107 51.3277 53.0803 51.641 53.3588 51.6468C54.2291 51.6613 56.6544 50.0106 57.6523 49.6741C57.1882 49.355 54.789 46.892 54.6933 46.483C54.5975 46.074 55.3199 43.4311 55.4475 42.9409C55.5868 42.3955 55.8508 41.7804 55.9117 41.3163C55.9117 41.2496 55.9436 41.1277 55.8537 41.1422ZM2.29221 41.3743C2.14715 41.3395 2.71285 42.9322 2.81438 43.405C2.91592 43.8779 3.53384 46.4018 3.44971 46.7122C3.33947 47.1154 0.885205 49.6538 0.435547 49.9613C0.651247 50.0039 0.863578 50.0621 1.07087 50.1354C2.33571 50.6663 3.49033 51.4234 4.90312 51.876C5.07718 51.174 5.1497 51.0347 4.49697 50.7736C3.65858 50.4371 2.8579 49.8743 1.94408 49.6712C2.90432 48.8879 3.54543 47.7943 4.43895 46.9443C4.14885 45.9608 4.05022 44.7395 3.74271 43.7531C3.69457 43.6137 3.63639 43.478 3.56864 43.347C3.56864 43.347 3.67018 43.2687 4.14885 43.5791C5.70057 44.579 7.33044 45.4522 9.02257 46.19C9.75943 46.5149 10.5282 46.8253 11.2854 47.1763C11.3028 46.953 11.3434 46.5584 11.3434 46.248C9.31267 45.3081 7.37769 44.4523 5.48332 43.4021C4.58401 42.906 3.7108 42.32 2.81438 41.7804C2.66063 41.6876 2.46627 41.412 2.29221 41.3714V41.3743ZM51.7923 46.0159C50.1561 47.1763 48.0645 47.8929 46.0454 48.6269C42.8107 49.7873 39.2018 51.0057 35.2536 51.4118C24.0759 52.5722 13.2871 50.4719 6.35363 46.248C6.35363 48.6646 5.65738 53.2105 4.8451 54.9511C5.82564 55.1657 6.55669 55.6154 7.39799 55.9345C8.99065 56.5408 10.6152 57.1674 12.2717 57.6751C19.208 59.7987 29.2746 60.7212 37.7484 59.3577C41.1844 58.8385 44.565 58.0023 47.8469 56.8599C49.6455 56.2072 51.3107 55.1657 53.2428 54.7712C52.8627 54.0053 52.7844 53.0683 52.6045 52.1023C52.2506 50.2108 51.7923 48.2178 51.7923 46.0101V46.0159Z" fill="#222222"/>
<path d="M49.7701 1.04581C40.0459 0.926873 29.8024 1.16186 19.8896 1.16186H11.9408C10.7311 1.16186 9.3299 1.25179 8.22461 1.10383C8.53502 3.18967 8.34064 5.8383 8.34064 8.1243V19.9024C8.34064 26.6618 8.42187 32.4464 11.2417 36.2671C13.2724 39.023 15.9848 40.9986 19.0744 42.7102C21.5171 44.0621 24.1164 45.0455 27.0261 46.0174C27.5338 46.1885 28.5172 46.6933 28.9988 46.7136C29.3208 46.7281 29.8923 46.3423 30.2172 46.2495C32.1605 45.6913 34.0607 44.9932 35.9032 44.1607C40.5448 42.0807 45.0559 39.4031 47.5073 35.1676C47.7871 34.6586 48.0389 34.1346 48.2615 33.5981C48.4095 33.2587 48.601 32.9019 48.7257 32.5538C48.7953 32.3507 48.7779 32.2376 48.8417 32.0316C48.9056 31.8256 48.9984 31.5268 49.0738 31.2193C49.1348 30.9727 49.187 30.7174 49.2479 30.407C49.3088 30.0966 49.3581 29.792 49.4219 29.4207C49.4858 29.0493 49.5496 28.5504 49.596 28.0282C49.6279 27.6714 49.6772 27.2681 49.712 26.8098C49.8658 24.7442 49.7701 22.4147 49.7701 20.2535V7.60212C49.7701 5.5511 49.6743 3.18967 49.8861 1.33302C49.7759 1.2808 50.1501 1.04292 49.7701 1.04292" fill="#00356B"/>
<path d="M41.1246 8.17969C40.2021 8.60324 39.2332 9.04999 37.9915 9.16894C33.6777 9.55187 29.7062 7.59948 28.9984 12.186C28.6387 7.6343 24.0493 9.52576 20.0052 9.22695C18.9373 9.13143 17.9053 8.79306 16.9882 8.23771C16.582 8.95716 16.0018 9.58668 15.5377 10.2684C14.9952 10.2046 14.3773 10.2191 13.8551 10.1495C14.1452 12.2266 13.9131 14.7476 13.9131 16.9408V33.0153H22.152C23.5648 33.0153 25.4591 33.201 26.5035 32.7832C25.8334 34.5789 26.4658 35.3332 28.6503 35.3361C30.9943 35.3361 32.4448 34.9793 31.5513 32.7832C32.7668 33.0907 34.5712 33.0153 36.1349 33.0153H44.2026V10.0973C43.6594 10.0803 43.1157 10.0997 42.5752 10.1553C42.1023 9.49095 41.5917 8.86433 41.1246 8.18259V8.17969ZM45.7082 9.74624C45.6154 9.74624 45.6415 9.85067 45.6502 9.9203C45.8244 11.0924 45.8837 12.2788 45.8272 13.4624C45.7547 14.4053 45.7257 14.9536 44.6668 14.7969C44.6813 14.9319 44.6813 15.0681 44.6668 15.203C45.409 15.371 46.1687 15.4489 46.9296 15.4351C46.9263 15.5723 46.9068 15.7087 46.8716 15.8413C46.5815 16.494 45.4211 16.2735 44.6668 16.1894C44.6668 16.3461 44.719 16.5752 44.7248 16.6536C45.305 16.729 46.1521 16.9437 46.6395 16.7116C47.9362 16.0705 47.5359 11.687 47.9159 9.97832C47.0456 10.5208 46.8745 10.8022 46.0593 10.0973C45.9606 10.0102 45.8591 9.76364 45.7082 9.74624ZM12.3465 10.2133L12.2885 10.2713C11.3283 11.0227 11.4182 11.0169 10.2578 10.4454C10.4957 12.186 10.223 16.61 11.7083 16.9437C12.2885 17.0713 12.8977 16.8421 13.388 16.7696C13.388 16.7 13.4315 16.4505 13.446 16.3054C12.3292 16.4273 11.8099 16.5143 11.1832 15.8993C11.1934 15.8029 11.1934 15.7056 11.1832 15.6092C11.9442 15.5744 12.701 15.4774 13.446 15.3191C13.433 15.2034 13.433 15.0866 13.446 14.971C13.1941 14.9857 12.9414 14.9662 12.6947 14.9129C12.01 14.6722 12.3379 11.1648 12.3379 10.2133H12.3465ZM12.4075 22.3976C12.1522 22.6384 11.9201 22.9952 11.6503 23.2099C11.1774 23.5783 10.6698 23.0213 10.3158 22.7428C10.4058 23.8742 10.5305 27.8254 10.9541 28.4897C11.2761 28.9887 11.9781 29.0554 12.7556 28.9539C13.7797 28.8175 13.7535 28.3098 12.5815 28.4317C11.7431 28.5158 11.4211 28.3563 11.1861 27.6774L11.2471 27.5034C11.9853 27.5298 12.724 27.4714 13.4489 27.3293C13.2459 26.4184 12.8919 27.3293 12.5235 26.8042C12.0738 26.1718 12.274 23.2969 12.4075 22.3976ZM45.569 22.8878C45.7025 23.7872 45.9026 26.6592 45.453 27.2974C45.0816 27.8167 44.7248 26.9087 44.5246 27.8196C45.2505 27.9616 45.9902 28.02 46.7294 27.9936L46.7874 28.1677C46.5612 28.8465 46.2304 29.009 45.3949 28.922C44.2345 28.8001 44.1968 29.3078 45.2209 29.4441C45.9955 29.5457 46.6975 29.479 47.0195 28.98C47.446 28.3156 47.5707 24.3645 47.6577 23.236C47.3038 23.5261 46.7874 24.0686 46.3233 23.7001C46.0535 23.4855 45.8243 23.1199 45.569 22.8878Z" fill="#222222"/>
<path d="M40.5445 9.05127C39.4498 9.666 38.2 9.94922 36.9472 9.86645C34.9832 9.76492 32.146 9.32977 30.7391 10.2117C30.0487 10.7166 29.5726 11.4618 29.4046 12.3004C29.3561 12.6852 29.3367 13.0731 29.3466 13.4608C28.9259 19.0801 29.2885 25.0852 29.2885 30.8147C30.945 27.4988 35.6708 29.5034 39.268 28.3749C39.7061 28.2386 40.3617 28.0616 40.6054 27.7367C40.8955 27.319 40.7185 24.7835 40.7185 24.0234V9.05127C40.6616 9.05565 40.6044 9.05565 40.5474 9.05127H40.5445ZM17.3915 9.17021V24.0234C17.3915 24.769 17.171 27.319 17.4495 27.7947C18.0297 28.7608 21.5486 28.9087 23.2515 28.784C26.0249 28.5751 27.8932 28.9813 28.7635 30.6987V17.7572C28.7635 15.9847 29.0013 13.8176 28.6474 12.2453C28.4921 11.5528 28.1275 10.9248 27.6031 10.4467C25.8624 8.97294 22.329 10.1566 19.5353 9.86645C18.6998 9.77942 18.0442 9.43711 17.3886 9.17021H17.3915ZM46.1754 10.7919C46.2507 12.1454 46.2313 13.5025 46.1174 14.8533C46.4002 14.9331 46.6967 14.9528 46.9877 14.9113C47.2778 13.7741 47.182 12.1641 47.2778 10.905C46.6482 11.3547 46.7149 11.4533 46.1754 10.789V10.7919ZM11.8795 11.082C11.2674 11.639 11.4966 11.7057 10.7743 11.1429C10.9454 12.4106 10.8932 13.8728 11.0644 15.1463C11.3545 15.1463 11.7229 15.1028 11.9347 15.0883C11.9347 14.8388 11.8853 14.4878 11.8766 14.334C11.7954 13.2577 11.9114 11.9813 11.8766 11.082H11.8795ZM44.661 15.1956V16.182C45.4298 16.2661 46.5757 16.4721 46.8658 15.8338C46.9024 15.7015 46.9219 15.565 46.9238 15.4277C46.163 15.4415 45.4032 15.3636 44.661 15.1956ZM13.4577 15.3262C12.7116 15.4843 11.9539 15.5813 11.192 15.6163C11.2022 15.7127 11.2022 15.8099 11.192 15.9064C11.8186 16.5214 12.3524 16.4373 13.4577 16.3125V15.3262ZM11.8853 23.449C11.3225 24.1685 11.4995 24.125 10.7829 23.5651C10.9077 24.6732 10.9831 25.8859 11.1311 26.9912C11.4208 27.0115 11.7116 27.0115 12.0014 26.9912C11.9434 25.8366 11.9201 24.5311 11.8737 23.4432L11.8853 23.449ZM46.1174 23.9277C46.0738 25.0156 46.0477 26.321 46.0013 27.4698C46.291 27.4916 46.5819 27.4916 46.8716 27.4698C47.0225 26.3674 47.095 25.149 47.2197 24.0466C46.5032 24.6036 46.683 24.6471 46.1174 23.9277ZM13.449 27.348C12.7231 27.4899 11.9834 27.5483 11.2442 27.522L11.1862 27.6961C11.4125 28.3749 11.7432 28.5345 12.5787 28.4504C12.8278 28.4112 13.0823 28.422 13.3271 28.4823L13.449 27.348ZM44.5131 27.8208L44.5595 28.9813C44.8228 28.8839 45.1078 28.8608 45.3834 28.9145C46.2189 28.9987 46.5438 28.8391 46.7788 28.1574L46.7179 27.9862C45.979 28.0155 45.2393 27.96 44.5131 27.8208ZM26.9619 32.7903C27.0664 33.1442 27.0606 33.6606 27.252 33.9507C27.635 34.5657 29.8629 34.5947 30.5592 34.1828C30.9276 33.9594 30.9943 33.2341 31.1394 32.7903C31.1394 32.7903 30.8145 32.8106 30.9073 32.8483C29.8484 33.678 28.0063 33.4633 26.959 32.7903H26.9619ZM50.9301 47.4723C40.0107 54.2462 18.0587 54.2897 7.05805 47.5884C7.29013 49.152 6.53876 53.2396 6.01367 54.3768C7.01452 54.5972 7.7862 55.1513 8.68261 55.4791C10.2318 56.039 11.8389 56.6396 13.4432 57.1037C19.8863 58.9517 29.0478 59.6972 36.8283 58.5542C40.2261 58.0912 43.5698 57.2934 46.8107 56.1725C47.9247 55.7692 49.0474 55.3225 50.1759 54.896C50.8025 54.6582 51.2231 54.2897 52.0325 54.1998C51.4523 52.9146 50.9969 49.1578 50.9301 47.4694V47.4723Z" fill="white"/>
<path d="M41.2387 9.51853C41.4678 11.0648 41.3547 13.0607 41.3547 14.7984V24.5458C41.3547 25.7816 41.1197 27.2815 41.3547 28.4912C41.4678 29.0714 42.0451 29.6661 42.341 30.1187C42.5946 30.4806 42.8667 30.8291 43.1562 31.163C42.8661 29.0917 43.0402 26.5678 43.0402 24.3137V11.4332C42.2395 11.059 41.6883 10.2351 41.2387 9.51562V9.51853ZM16.902 9.56495C16.8846 9.56495 16.8527 9.56495 16.8092 9.56495C16.6612 9.65198 16.6148 10.0523 16.5191 10.2061C16.1684 10.7622 15.6648 11.2054 15.0686 11.4825V24.5371C15.0686 26.5388 15.2484 28.7958 15.0105 30.6902C14.9902 30.8265 14.8916 31.3458 15.0686 31.2704C15.3007 31.1688 16.7338 28.8625 16.8092 28.4825C17.0529 27.2176 16.8092 25.6569 16.8092 24.363V14.2675C16.8092 12.7996 16.6641 11.1025 16.8672 9.739C16.9252 9.78252 16.9629 9.61136 16.902 9.56495ZM40.5453 28.5492C39.7573 28.9988 38.8909 29.2942 37.9924 29.4195C35.4424 29.6806 32.1904 28.9205 30.5629 30.0577C29.7941 30.5915 29.3503 31.6011 29.2894 32.6686C29.7717 32.5787 30.2394 32.4225 30.6789 32.2045C30.8443 32.1087 31.0764 31.7751 31.2591 31.7403C31.8394 31.6243 32.8112 31.9753 33.638 31.9144C35.1929 31.7954 36.9771 31.9782 38.6277 31.8564C39.7678 31.7693 41.6477 31.6069 42.6892 31.9144C41.99 30.7975 41.1806 29.7357 40.5424 28.5463L40.5453 28.5492ZM17.4503 28.6652C16.8904 30.0403 16.0404 31.0296 15.3036 32.2074C16.0491 31.8622 17.2414 31.9173 18.3786 31.9173C20.8445 31.9173 23.7977 32.2422 26.2114 31.9173C26.3216 31.8999 26.7162 31.6736 26.7916 31.6852C26.867 31.6968 27.1977 32.0768 27.3167 32.1494C27.7701 32.3978 28.2595 32.574 28.7672 32.6715C28.6918 31.4125 28.2073 30.5016 27.2587 29.9446C25.5848 28.964 22.3269 29.7531 19.9452 29.4804C18.9791 29.3673 18.222 28.9757 17.4503 28.6652Z" fill="#FABD0A"/>
<path d="M18.8976 13.0562L18.8396 13.1142C18.6602 13.2353 18.5173 13.4031 18.4265 13.5996C18.3356 13.796 18.3002 14.0136 18.3241 14.2287C18.348 14.4438 18.4303 14.6483 18.5621 14.8201C18.6938 14.9918 18.8701 15.1242 19.0717 15.2029C18.8367 15.5336 18.4161 15.9398 18.3755 16.4213C18.3029 17.2104 18.6395 17.6978 18.3174 18.394C18.2913 18.3737 18.2797 18.513 18.4335 18.5681C18.6308 18.278 19.0137 17.8892 19.0717 17.5237C19.1819 16.9203 18.915 16.3923 19.0717 15.8992C19.2495 15.5001 19.484 15.1288 19.7679 14.7968C20.5744 15.1681 21.9959 15.5075 21.5666 16.7695C21.4999 16.9638 21.4418 17.2104 21.2765 17.2916C20.8761 17.4802 20.0581 17.37 19.5939 17.4077C19.4546 17.7761 19.3676 18.0633 19.2458 18.452C19.3386 18.452 19.6519 18.394 19.6519 18.394C21.291 18.394 21.3606 18.658 21.7987 17.3497C21.9843 16.7869 22.3789 15.9746 22.2628 15.2609C22.08 14.1905 20.4236 14.7242 20.5222 13.0562C20.0435 13.4855 19.7563 14.6807 19.0717 14.0396C18.8048 13.7901 18.8367 13.3695 18.8976 13.0562ZM22.843 13.1142C22.6545 13.9845 22.5152 14.9128 23.4232 15.2029C23.1331 15.8904 23.2985 16.4474 23.3652 17.2916C22.3296 17.5614 22.4775 17.4077 22.2048 18.452C24.5865 18.452 24.0934 17.9647 23.6553 16.3053C23.3652 15.2435 23.8758 14.8403 24.9898 15.2029C25.5236 15.3741 25.2799 17.6659 25.2799 18.394C25.7295 18.1939 25.8601 17.9096 26.0951 17.5237C25.5149 16.9435 25.9239 14.3616 25.3988 14.1005C24.2007 13.5058 23.2201 14.8374 22.843 13.1142ZM39.0336 13.1142C38.874 13.323 38.5143 13.587 38.4534 13.8684C38.2474 14.8113 39.4775 14.5618 38.8015 15.551C37.7601 15.1304 36.6287 14.6256 36.7128 13.2302C36.4965 13.3652 36.3328 13.5698 36.2486 13.8104C35.9382 14.878 36.6084 15.5133 37.177 15.8992C37.0123 16.0013 36.8569 16.1178 36.7128 16.2473C36.2805 16.6621 36.385 17.2365 36.4807 17.9299C36.3408 17.9505 36.2043 17.9895 36.0746 18.0459C36.0049 18.0894 36.0746 18.3012 36.0165 18.336C36.707 18.4288 37.7107 18.5478 37.5251 17.5817C37.4787 17.3526 37.1595 17.106 37.1189 16.8855C37.1023 16.7415 37.1143 16.5956 37.1541 16.4562C37.1939 16.3169 37.2608 16.1867 37.351 16.0732C38.2938 16.5171 39.6515 17.0073 39.0336 18.336C39.3556 18.2954 39.2367 18.4259 39.4397 18.1619C40.0199 17.3932 40.1099 16.5258 39.2657 15.9572C39.1642 15.8859 39.0673 15.8084 38.9756 15.7251C39.4804 15.4147 40.0722 14.6865 39.5558 14.0425C39.4688 13.9323 39.1845 13.7785 39.1496 13.6364C39.0684 13.2766 39.315 13.3317 39.0336 13.1142ZM26.3852 13.1722C26.0138 14.1643 25.9065 15.2812 27.2555 15.2029C27.122 16.1718 27.2178 17.4193 27.0814 18.336C27.6616 18.2693 27.7022 17.8892 28.0068 17.4077C27.9024 17.341 27.8357 17.3439 27.7777 17.2336C27.5762 16.5759 27.5364 15.8793 27.6616 15.2029C27.737 14.9679 28.1519 14.9128 28.0068 14.3906C27.8618 13.8684 26.7681 14.2572 26.5563 13.6944C26.5273 13.6248 26.3823 13.1838 26.3823 13.1722H26.3852ZM33.9278 13.2302C33.5913 14.1382 33.4404 15.4031 34.7981 15.2029C34.656 15.8817 34.3165 19.6241 35.2623 17.8718C35.3232 17.7587 35.3203 17.6949 35.3783 17.5817C35.3783 17.5817 35.3319 17.3729 35.3203 17.3497C35.0302 16.7695 35.2014 15.9224 35.1462 15.2029C35.5437 15.0521 35.9092 14.7765 35.5524 14.2746C35.1085 13.6509 34.2701 14.5038 33.9278 13.2302ZM30.3886 13.4043C30.1768 13.7408 30.2058 14.0135 30.3305 14.5647C30.6381 15.9398 32.2568 14.7503 32.6514 15.4959C32.9734 16.108 32.7674 17.5092 32.7674 18.3389C33.1939 18.2258 33.2316 18.0285 33.4637 17.5846C33.6174 17.5846 33.4637 17.3845 33.4637 17.4106C33.0691 16.8304 33.3186 14.5879 32.9415 14.2775C32.0131 13.5058 31.05 14.9157 30.3915 13.4043H30.3886ZM37.6991 20.2507C37.3423 20.8309 36.8288 21.4836 37.4671 22.1073C37.6401 22.2426 37.7959 22.3985 37.9312 22.5715C38.0937 22.9312 37.9312 23.7493 38.2793 22.9776C39.0858 21.2515 37.9225 21.7331 37.7572 20.8889C37.6991 20.5988 37.9428 20.3899 37.6991 20.2507ZM25.4539 20.4247C24.0498 22.1653 25.8485 21.8898 25.628 23.3838C25.8311 23.2358 25.9732 23.1923 26.0951 22.9776C26.8029 21.6896 25.3843 21.6083 25.4597 20.4247H25.4539ZM33.2316 20.5988C32.8776 21.3473 32.6194 22.2147 33.5797 22.5715C33.0488 23.5317 33.0952 24.4949 32.9415 25.8786C34.1214 25.8335 35.3029 25.8529 36.4807 25.9367C36.5213 24.9039 36.8549 24.0394 36.7128 22.9196C36.4401 20.7555 35.1723 22.0058 33.5797 21.4111C33.2461 21.2863 33.4114 20.7729 33.2316 20.5988ZM20.9864 20.7148C20.5802 21.4517 20.441 22.264 21.3345 22.6295C20.7166 23.4128 20.8007 24.579 20.6963 25.9367C21.8552 25.8525 23.0186 25.8525 24.1775 25.9367C24.221 24.872 24.5923 23.9495 24.4096 22.7455C24.0934 20.6423 21.1778 22.4003 20.9864 20.7148ZM8.56712 49.725C8.33197 51.0297 8.02594 52.3206 7.65039 53.5921C7.82243 53.6059 7.99313 53.6331 8.16097 53.6733C8.60483 53.8009 9.14441 54.1607 9.55346 54.2535C9.58537 54.2535 9.75653 54.2332 9.6811 54.2129C9.76523 54.0881 10.0843 53.6559 10.1685 53.5311C10.2903 53.3484 8.36695 53.6095 8.4975 53.154C8.7876 52.1967 9.03127 51.0044 9.26336 50.076C9.02257 49.9658 8.80501 49.841 8.56712 49.7279V49.725ZM49.4221 49.7859C48.6766 49.9774 47.7541 49.9716 47.4669 50.6562C46.8025 52.2489 48.6737 51.9791 49.5295 52.4926C49.6323 52.5427 49.7137 52.6282 49.7587 52.7334C50.2547 54.2129 48.2008 53.36 47.7976 53.0989C47.8266 53.2369 47.8653 53.3726 47.9136 53.505C47.998 53.7043 48.0949 53.8981 48.2037 54.0852C48.3865 54.3753 49.074 54.1288 49.5382 53.9692C50.1735 53.7458 50.7479 53.125 50.4085 52.2866C50.101 51.5265 49.1349 51.6455 48.4358 51.3003C48.3366 51.2513 48.2521 51.1769 48.191 51.0847C48.1298 50.9924 48.0942 50.8856 48.0877 50.7752C48.5141 49.58 50.1532 51.5062 49.8283 50.7172C49.7819 50.6011 49.4425 49.873 49.4163 49.7917L49.4221 49.7859ZM11.3521 50.9463C11.1722 51.8166 10.4557 53.4876 10.6558 54.4276C10.7163 54.5861 10.8096 54.7301 10.9295 54.8501C11.0495 54.9701 11.1935 55.0634 11.3521 55.1238C13.4553 56.055 13.8325 53.2643 14.198 51.8747C13.9601 51.8021 13.8092 51.7731 13.5598 51.7006C13.4205 52.7276 13.2465 55.3356 11.7002 54.6596C10.9256 54.3202 11.9149 51.8079 12.1063 51.1784C11.8162 51.1088 11.6422 51.0392 11.3521 50.9463ZM45.1838 51.2945C44.961 51.341 44.7461 51.4192 44.5455 51.5265C44.5455 53.1047 44.238 54.3666 43.9653 55.704C44.2003 55.6228 44.4498 55.5416 44.7196 55.4719C44.7266 55.0095 44.7731 54.5485 44.8588 54.0939C45.2244 53.9431 46.0889 53.7139 46.0889 53.7139C46.3466 53.9882 46.5609 54.3003 46.7242 54.6393C46.875 54.912 46.936 54.8221 47.3305 54.6596C47.4646 54.6133 47.6011 54.5746 47.7396 54.5436C47.2203 53.8851 46.6314 53.2788 46.1701 52.5709C45.9757 52.2808 45.1838 51.2945 45.1838 51.2945ZM43.153 52.04C42.2518 52.4234 41.2886 52.6406 40.3101 52.6812C40.3101 52.8813 40.2027 53.1453 40.1882 53.3484C40.1726 53.5027 40.2161 53.6572 40.3101 53.7806C40.4338 53.5751 40.5987 53.3974 40.7944 53.2586C40.9901 53.1198 41.2123 53.0229 41.4472 52.9741C41.7873 54.0498 42.051 55.1482 42.2363 56.261C43.2749 55.9158 43.1791 56.1392 43.0225 55.8084C42.8658 55.4777 42.1986 52.7392 42.2218 52.7363C42.6608 52.7185 43.0966 52.8187 43.4838 53.0264C43.5157 53.0003 43.6607 53.0728 43.6868 53.0815C43.5911 52.8726 43.4838 52.7711 43.5041 52.7334C43.3619 52.4433 43.2778 52.2895 43.153 52.0342V52.04ZM14.9058 52.0603C14.8884 51.9878 14.9639 52.2895 14.9668 52.3185C15.0403 52.5652 15.1375 52.8042 15.2569 53.0322C15.404 53.3901 15.5204 53.7598 15.605 54.1375C15.0156 54.6233 14.3944 55.0691 13.7454 55.4719C14.3082 55.6576 14.5229 56.0086 14.9058 55.4139C15.9125 53.8474 15.9386 55.0745 16.2403 56.2842C16.6348 56.3422 16.8524 56.3799 17.2296 56.4583C16.922 55.6315 16.5478 54.9497 16.4144 53.9634C16.9453 53.5863 17.4587 53.1975 18.0389 52.861C17.508 52.7508 17.3543 52.5042 16.9946 52.919C16.0488 54.0185 16.2026 53.7893 15.8922 52.3388C15.5441 52.2576 15.1988 52.1532 14.8971 52.0632L14.9058 52.0603ZM39.608 52.8639C39.4775 52.8639 39.3179 52.8639 39.199 52.8813C39.0473 52.9243 38.8982 52.9756 38.7522 53.0351C39.0423 54.2274 39.1177 55.5474 39.3324 56.9137C39.3324 56.9137 39.6051 56.8499 39.6225 56.8528C39.8024 56.8151 40.1099 56.6904 40.3013 56.641C39.999 55.3995 39.7771 54.1398 39.637 52.8697L39.608 52.8639ZM19.8811 53.0931C19.6896 54.3231 19.4053 55.7823 19.1558 56.9282C19.8688 56.932 20.5797 57.0029 21.2794 57.14C21.964 57.2938 21.8973 57.2299 22.1497 56.6903C22.1874 56.6062 22.2164 56.5395 22.2657 56.4002C21.581 56.6567 20.8427 56.7366 20.119 56.6323C20.4497 55.1093 20.0551 55.0484 21.3954 55.588C21.3954 55.5212 21.3374 55.3559 21.3374 55.3559C21.3374 55.2631 21.2794 55.0107 21.2794 55.0078C21.2794 55.0049 21.2794 54.8395 21.2794 54.8337C20.9723 54.8874 20.6582 54.8874 20.3511 54.8337C20.4091 54.2883 20.5106 53.5921 20.6179 53.6211C20.9667 53.7212 21.3049 53.8553 21.6275 54.0214C21.8464 54.1649 22.042 54.341 22.2077 54.5436C22.2077 54.4914 22.1497 54.2535 22.1497 54.2535C22.112 53.9634 22.0307 53.6733 21.9756 53.4412C21.2729 53.368 20.5753 53.2517 19.8869 53.0931H19.8811ZM36.7447 53.2614C36.6558 53.2557 36.5667 53.2557 36.4778 53.2614C35.9179 53.302 35.3783 53.5515 34.7952 53.6095C34.8445 53.9576 34.9345 54.3347 34.9693 54.6538C35.0621 55.559 35.0534 56.4757 35.0911 57.4069C35.3377 57.3779 35.6887 57.3025 35.9614 57.2648C35.8728 56.7075 35.8147 56.1458 35.7874 55.5822C36.0165 55.5474 36.1616 55.5503 36.4227 55.5241C36.9536 56.3945 37.8297 57.2648 38.9785 57.1487C38.9785 57.1487 39.022 57.0095 39.0365 56.9747C38.2229 56.4991 37.5284 55.8443 37.0058 55.06C37.4351 54.5117 37.9776 53.302 36.7505 53.2555L36.7447 53.2614ZM23.0142 53.4992C22.9388 53.682 22.7647 53.9054 22.6893 54.0939C22.6247 54.2354 22.6164 54.3962 22.6661 54.5436C22.8485 54.3875 23.0612 54.2709 23.2908 54.201C23.5205 54.1311 23.7621 54.1095 24.0005 54.1375C23.9843 55.2647 23.8873 56.3893 23.7104 57.5026C24.807 57.5026 24.6446 57.6854 24.5981 57.3228C24.5517 56.9602 24.7867 54.1491 24.8128 54.152C25.2344 54.2771 25.6149 54.5124 25.9152 54.8337C25.9529 54.8192 26.0689 54.9352 26.0893 54.9497C26.066 54.7235 25.9935 54.59 26.0254 54.561C25.979 54.2564 25.9529 54.0707 25.9152 53.7893C24.9386 53.8684 23.9558 53.7701 23.0142 53.4992ZM33.4578 53.6733C32.9125 53.6733 32.2974 53.8474 31.6012 53.8474C31.7116 55.14 31.7513 56.4377 31.7201 57.7347C32.566 57.6174 33.4191 57.5592 34.273 57.5607C34.6096 56.7281 34.8939 56.6613 34.0381 56.9224C32.5295 57.3837 32.4541 57.4127 32.4686 55.791C34.0467 55.9274 33.7102 56.1073 33.5594 55.0919C33.2163 55.2466 32.8474 55.3361 32.4715 55.3559C32.4715 55.234 32.4135 54.1955 32.4135 54.1955C33.2838 54.1955 33.6841 54.3492 34.1541 54.7177C34.0671 54.4276 34.0816 54.2796 33.9829 54.0214C33.8843 53.7632 33.8263 53.6675 33.4578 53.6733ZM27.5398 53.8474C27.5398 53.8474 27.6442 54.1375 27.708 54.2593C28.1519 55.1644 28.4623 56.2117 28.9207 57.2009C29.1933 57.7811 29.3036 58.3787 29.7445 57.5607C29.949 57.0999 30.1197 56.6248 30.2551 56.1392C30.5452 55.3704 30.8585 54.6306 31.1951 53.9054C30.905 53.9054 30.5365 53.946 30.3248 53.9634C30.1529 54.8359 29.9004 55.6905 29.5705 56.5163C29.0845 55.6732 28.6952 54.7778 28.4101 53.8474C28.1221 53.8967 27.8278 53.8967 27.5398 53.8474Z" fill="#222222"/>
<path d="M21.626 22.6304C21.3026 23.3799 21.1825 24.2014 21.2779 25.0121C22.1369 24.8137 23.0298 24.8137 23.8888 25.0121C23.796 22.6275 24.1035 22.9669 21.626 22.6304ZM33.8103 22.6304C33.6229 23.2305 33.5443 23.8593 33.5782 24.487C33.5782 24.6901 33.5782 24.8496 33.5782 24.9541C34.4334 24.7248 35.3339 24.7248 36.1891 24.9541C36.1891 22.6681 36.0818 22.6333 33.8103 22.6333V22.6304ZM45.0401 52.1424C45.046 52.6047 45.0051 53.0663 44.9183 53.5204L45.8437 53.2651L45.0401 52.1424ZM36.1949 53.7815C35.9998 53.7754 35.8048 53.7949 35.6147 53.8395C35.6413 54.3022 35.6926 54.7632 35.7685 55.2204C36.6011 55.0899 37.2857 53.8308 36.1949 53.7815Z" fill="white"/>
<path d="M86.3506 21.7167L82.1031 28.8313V33.6097C82.634 34.7778 83.8021 34.884 84.9702 34.9902V35.6273H76.7937V34.9902C77.9618 34.9902 79.3422 34.7778 79.767 34.0345V29.1498L75.5194 21.929C75.2592 21.3972 74.8491 20.953 74.3398 20.6511C73.8304 20.3493 73.2438 20.2029 72.6523 20.23V19.5929H79.767V20.23C78.3865 20.3362 77.9618 20.5486 77.6432 20.8671L81.5722 27.7694L85.5011 20.8671C84.828 20.3733 83.9957 20.1463 83.165 20.23V19.5929H89.3239V20.23C88.7352 20.1366 88.1319 20.2297 87.5987 20.4963C87.0656 20.7629 86.6291 21.1896 86.3506 21.7167ZM94.7395 35.8397C94.2536 35.8715 93.7724 35.7285 93.3829 35.4363C92.9933 35.1442 92.7212 34.7222 92.6157 34.2469C92.2372 34.7073 91.7691 35.0859 91.2397 35.3597C90.7103 35.6335 90.1307 35.7968 89.5363 35.8397C89.2125 35.8676 88.8864 35.828 88.5787 35.7233C88.271 35.6186 87.9884 35.4512 87.7488 35.2316C87.5092 35.0119 87.3178 34.7449 87.1868 34.4475C87.0558 34.15 86.988 33.8286 86.9878 33.5036C86.9863 32.7963 87.1693 32.1009 87.5187 31.486L92.6157 29.6808V27.7694C92.6157 26.6013 92.0848 25.5394 90.9167 25.5394C90.2796 25.5394 89.5363 26.3889 89.5363 27.6632L87.2001 28.088V27.8756C87.5517 26.9674 88.1612 26.1818 88.9537 25.6158C89.7462 25.0497 90.6869 24.7279 91.6601 24.6899C93.9962 24.6899 94.8457 25.9642 94.8457 27.7694L94.7395 33.0788C94.7395 34.1407 95.2705 34.3531 95.8014 34.3531C96.057 34.3368 96.3053 34.2612 96.5265 34.1322C96.7477 34.0031 96.9357 33.8242 97.0757 33.6097V34.3531C96.8232 34.7607 96.4821 35.1061 96.0776 35.3635C95.6731 35.6209 95.2157 35.7837 94.7395 35.8397ZM89.6425 31.6984C89.5117 32.1109 89.4401 32.5399 89.4301 32.9726C89.4111 33.1549 89.4295 33.3391 89.484 33.514C89.5386 33.6889 89.6283 33.8509 89.7475 33.99C89.8668 34.1291 90.0131 34.2425 90.1776 34.3231C90.3421 34.4038 90.5214 34.4501 90.7044 34.4593C91.4106 34.4517 92.09 34.1875 92.6157 33.7159V30.3179C91.9786 30.6365 90.3858 31.3798 89.6425 31.6984ZM97.3942 35.6273V34.9902C98.5623 34.884 98.8809 34.6716 99.0932 34.2469V21.0795C99.0932 20.23 98.987 19.8053 97.1818 19.6991V19.1681L101.854 18.0001L101.96 18.4248L101.217 19.3805V34.2469C101.429 34.7778 101.96 34.884 103.022 34.9902V35.6273H97.3942ZM109.181 35.8397C108.529 35.832 107.884 35.6925 107.287 35.4296C106.69 35.1666 106.152 34.7857 105.706 34.3096C105.259 33.8335 104.914 33.2722 104.69 32.6592C104.466 32.0462 104.368 31.3943 104.403 30.7427C104.403 27.1323 106.633 24.6899 109.712 24.6899C112.261 24.6899 113.641 26.0704 113.641 28.4065V28.8313H106.739C106.739 29.1498 106.633 29.5746 106.633 30.1055C106.633 32.6541 108.225 34.4593 110.455 34.4593C111.576 34.4433 112.644 33.9853 113.429 33.185L113.853 33.8221C113.248 34.4526 112.523 34.9558 111.721 35.3023C110.918 35.6487 110.055 35.8315 109.181 35.8397ZM109.394 25.4332C108.119 25.4332 107.27 26.4951 106.951 28.088H111.411C111.411 26.7075 110.562 25.4332 109.394 25.4332Z" fill="#00356B"/>
<path d="M135.727 21.1844V29.2547C135.727 33.927 132.86 36.0508 129.038 36.0508C125.215 36.0508 122.666 33.7146 122.666 29.7857V21.0782C122.454 20.5473 121.392 20.2287 120.33 20.1225V19.4854H127.445V20.1225C126.277 20.1225 125.215 20.5473 125.002 21.0782V29.2547C125.002 32.4404 126.595 34.3518 129.675 34.3518C132.754 34.3518 134.453 32.4404 134.453 28.7238V25.4319C134.453 23.9453 134.347 21.9277 134.347 21.0782C134.135 20.5473 132.754 20.0163 131.48 19.9102V19.273H138.064V19.9102C137.605 19.9416 137.159 20.0717 136.756 20.2917C136.353 20.5116 136.002 20.8162 135.727 21.1844Z" fill="#00356B"/>
<path d="M145.392 35.6279V34.9908C146.667 34.8846 146.773 34.6722 146.985 34.2475V28.7257C147.007 28.4118 146.966 28.0967 146.866 27.7985C146.765 27.5003 146.607 27.2249 146.4 26.9881C146.193 26.7513 145.941 26.5578 145.658 26.4186C145.376 26.2795 145.069 26.1974 144.755 26.1772C143.89 26.2834 143.057 26.573 142.313 27.0267V34.2475C142.632 34.7784 142.738 34.8846 144.012 34.9908V35.6279H138.49V34.9908C139.764 34.8846 139.871 34.6722 140.189 34.2475V27.6638C140.189 27.1329 139.764 26.6019 138.596 26.2834V25.7524L141.994 24.5843H142.313V26.3895C143.46 25.483 144.807 24.8641 146.242 24.5843C148.472 24.5843 149.215 25.9648 149.215 28.0886V34.3537C149.746 34.7784 150.277 34.7784 151.339 34.8846V35.6279H145.392Z" fill="#00356B"/>
<path d="M152.08 35.6279V34.9908C153.354 34.8846 153.567 34.6722 153.779 34.2475V27.6638C153.779 27.0267 153.461 26.6019 152.186 26.2834V25.8586L155.69 24.6905H156.009V34.3537C156.328 34.8846 156.434 34.9908 157.708 35.097V35.6279H152.08ZM154.735 21.6111C154.36 21.6071 153.999 21.4635 153.725 21.2082C153.45 20.953 153.28 20.6044 153.248 20.2306C153.28 19.8568 153.45 19.5083 153.725 19.253C153.999 18.9977 154.36 18.8541 154.735 18.8502C155.099 18.8557 155.447 19.0029 155.705 19.2606C155.963 19.5183 156.11 19.8662 156.115 20.2306C156.121 20.4135 156.089 20.5956 156.022 20.7658C155.955 20.936 155.853 21.0905 155.724 21.2199C155.595 21.3493 155.44 21.4507 155.27 21.518C155.1 21.5853 154.918 21.617 154.735 21.6111Z" fill="#00356B"/>
<path d="M167.054 26.4948C166.841 26.1946 166.551 25.9573 166.215 25.8078C165.879 25.6583 165.508 25.6022 165.143 25.6453V25.0081H169.709V25.6453C169.285 25.6443 168.873 25.7773 168.529 26.0252C168.186 26.2732 167.93 26.6234 167.798 27.0257L164.081 35.627L163.125 35.8394L159.515 26.8133C159.337 26.4599 159.063 26.1632 158.726 25.9568C158.388 25.7504 157.999 25.6425 157.604 25.6453V25.0081H163.338V25.6453C162.775 25.6105 162.216 25.7595 161.745 26.07L164.506 33.0785L167.054 26.4948Z" fill="#00356B"/>
<path d="M174.912 35.8394C174.26 35.8317 173.615 35.6922 173.018 35.4292C172.421 35.1663 171.883 34.7854 171.437 34.3093C170.99 33.8332 170.645 33.2718 170.421 32.6588C170.197 32.0459 170.099 31.394 170.134 30.7423C170.134 27.1319 172.364 24.6896 175.443 24.6896C177.992 24.6896 179.372 26.07 179.372 28.4062V28.8309H172.47C172.47 29.1495 172.364 29.5742 172.364 30.1052C172.364 32.6537 173.956 34.4589 176.186 34.4589C177.307 34.4429 178.375 33.9849 179.16 33.1846L179.584 33.8218C178.979 34.4522 178.254 34.9555 177.452 35.3019C176.65 35.6484 175.786 35.8311 174.912 35.8394ZM175.125 25.4329C173.85 25.4329 173.001 26.4948 172.682 28.0876H177.142C177.142 26.7072 176.293 25.4329 175.125 25.4329Z" fill="#00356B"/>
<path d="M188.397 27.4514H188.185C187.624 27.0401 186.965 26.7838 186.274 26.7081C185.636 26.7081 185.318 27.1329 184.787 27.6638V34.2475C185.105 34.7784 186.061 34.8846 187.123 34.9908V35.6279H181.07V34.9908C182.345 34.8846 182.451 34.6722 182.663 34.2475V27.5576C182.663 27.0267 182.345 26.6019 181.07 26.2834V25.7524L184.468 24.5843H184.681V27.0267C185.849 25.7524 186.804 24.6905 187.76 24.6905C188.399 24.7033 189.022 24.8866 189.565 25.2215L188.397 27.4514Z" fill="#00356B"/>
<path d="M194.131 35.8396C192.864 35.8507 191.605 35.6349 190.414 35.2025L190.096 32.4416H190.733C191.476 33.8221 192.75 35.0963 193.281 35.0963C195.405 35.0963 195.936 34.1406 195.936 33.1849C195.936 32.2292 194.98 31.6983 193.6 31.0612C191.476 30.2117 190.414 29.3621 190.414 27.6631C190.414 25.9641 192.219 24.5837 194.449 24.5837C195.539 24.6166 196.616 24.8319 197.635 25.2208L197.741 27.8755H197.21C196.467 26.4951 195.405 25.327 194.768 25.327C192.75 25.327 192.326 26.3889 192.326 27.026C192.326 28.0879 192.75 28.5126 194.768 29.3621C196.786 30.2117 197.954 30.955 197.954 32.5478C197.924 33.0169 197.801 33.4754 197.592 33.8963C197.383 34.3173 197.092 34.6921 196.736 34.9988C196.379 35.3055 195.965 35.5379 195.518 35.6823C195.071 35.8267 194.599 35.8802 194.131 35.8396Z" fill="#00356B"/>
<path d="M199.76 35.6279V34.9908C201.034 34.8846 201.246 34.6722 201.459 34.2475V27.6638C201.459 27.0267 201.14 26.6019 199.866 26.2834V25.8586L203.37 24.6905H203.689V34.3537C204.007 34.8846 204.113 34.9908 205.388 35.097V35.6279H199.76ZM202.414 21.6111C202.039 21.6071 201.679 21.4635 201.404 21.2082C201.129 20.953 200.96 20.6044 200.928 20.2306C200.96 19.8568 201.129 19.5083 201.404 19.253C201.679 18.9977 202.039 18.8541 202.414 18.8502C202.779 18.8557 203.127 19.0029 203.385 19.2606C203.642 19.5183 203.789 19.8662 203.795 20.2306C203.801 20.4135 203.769 20.5956 203.702 20.7658C203.635 20.936 203.533 21.0905 203.404 21.2199C203.274 21.3493 203.12 21.4507 202.95 21.518C202.78 21.5853 202.597 21.617 202.414 21.6111Z" fill="#00356B"/>
<path d="M210.697 35.8394C208.361 35.8394 207.618 34.5651 207.618 32.5475C207.618 30.1052 207.724 28.6186 207.724 26.1762H206.344V25.6453L209.423 22.672H209.954V25.0081H213.458V26.1762H209.954V32.229C209.943 32.548 209.999 32.8659 210.119 33.1616C210.239 33.4574 210.42 33.7244 210.651 33.9451C210.882 34.1658 211.157 34.3351 211.457 34.442C211.758 34.5488 212.078 34.5908 212.396 34.5651C212.992 34.5013 213.569 34.3209 214.095 34.0342V34.5651C213.07 35.2349 211.91 35.67 210.697 35.8394Z" fill="#00356B"/>
<path d="M222.802 26.4945C222.696 26.0697 222.059 25.645 220.997 25.645V25.0078H225.563V25.645C225.14 25.644 224.727 25.777 224.383 26.0249C224.04 26.2729 223.784 26.6231 223.652 27.0254L220.466 34.5648C219.935 35.839 218.873 38.7061 217.917 40.9361C217.827 41.2553 217.63 41.5341 217.36 41.727C217.09 41.92 216.762 42.0155 216.431 41.998C216.261 42.0055 216.092 41.9777 215.934 41.9163C215.776 41.855 215.633 41.7614 215.513 41.6415C215.393 41.5216 215.3 41.3781 215.238 41.2201C215.177 41.0621 215.149 40.893 215.157 40.7237C215.149 40.5544 215.177 40.3853 215.238 40.2273C215.3 40.0693 215.393 39.9258 215.513 39.8059C215.633 39.686 215.776 39.5924 215.934 39.5311C216.092 39.4697 216.261 39.4419 216.431 39.4494C216.757 39.4802 217.078 39.5516 217.387 39.6618L218.979 35.9452L215.369 26.6007C215.157 25.9635 214.732 25.5388 213.67 25.4326V25.0078H219.192V25.645C218.597 25.6305 218.01 25.7773 217.493 26.0697L220.254 33.1843L222.802 26.4945Z" fill="#00356B"/>
</svg>
