<svg width="88" height="88" viewBox="0 0 88 88" fill="none" xmlns="http://www.w3.org/2000/svg">
<rect width="88" height="88" rx="44" fill="#B9D1B1"/>
<rect width="88" height="88" rx="44" fill="white"/>
<g clip-path="url(#clip0_2197_6843)">
<path d="M5.11433 46.8609L6.1004 46.6965V37.1802L5 37.0308L5.05716 36H11.9454L11.7739 38.8833L10.402 38.8385L10.3162 37.0308H8.18688V41.3184H9.11579L9.33016 40.3324L10.2877 40.3623V43.3203H9.33016L9.1015 42.3044H8.17259V46.8459H10.3162L10.5163 44.8739L11.9597 44.9188L12.074 47.9216H5.07145L5.11433 46.8609Z" fill="#1A1A1A"/>
<path d="M12.7176 47.9367L12.7605 47.0553L13.5322 46.8909V40.8853L12.6318 40.7957V39.8994L14.8898 39.5557L15.0613 40.0637V40.4073C15.6044 39.8097 16.2617 39.4512 17.1049 39.4512C18.3339 39.4512 19.2485 40.228 19.2485 41.7668V46.876L20.0631 47.0403L20.0203 47.9218H17.3336V42.2149C17.3336 41.3933 17.0477 40.9302 16.3332 40.9302C16.0902 40.9302 15.9188 40.975 15.733 41.0497C15.6186 41.1543 15.5043 41.3036 15.4043 41.4381V46.9059L16.2189 47.0702L16.1617 47.9516H12.7176V47.9367Z" fill="#1A1A1A"/>
<path d="M55.8901 47.9362L55.9187 47.0548L56.6904 46.8905V40.8849L55.79 40.7952V39.8989L58.048 39.5553L58.2195 40.0632V40.4068C58.7626 39.8092 59.4199 39.4507 60.2631 39.4507C61.4921 39.4507 62.4068 40.2275 62.4068 41.7663V46.8755L63.2213 47.0399L63.1785 47.9213H60.5061V42.2145C60.5061 41.3928 60.2202 40.9297 59.5057 40.9297C59.2627 40.9297 59.0913 40.9745 58.9055 41.0492C58.7911 41.1538 58.6768 41.3032 58.5768 41.4376V46.9054L59.3914 47.0697L59.3342 47.9512H55.8901V47.9362Z" fill="#1A1A1A"/>
<path d="M24.3207 47.7726C24.0063 47.907 23.4489 48.0564 22.7201 48.0564C21.7626 48.0564 20.8765 47.6082 20.8765 46.1442V40.8855L19.9619 40.7361L20.0048 39.6904L21.0337 39.6456L21.4768 38.0471L22.7915 37.9873V39.7053H24.2063L24.1063 40.7511L22.8058 40.9005V46.1591C22.8058 46.5923 23.0345 46.8762 23.4632 46.8762H24.2349L24.3207 47.7726Z" fill="#1A1A1A"/>
<path d="M77.812 47.9364L77.8405 47.0699L78.5694 46.8907V40.8851L77.7119 40.7954V39.8991L80.0556 39.5555L80.2128 40.1381V40.3323C80.8273 39.8543 81.6562 39.5405 82.6566 39.5405L82.9996 39.8543L82.7566 42.125L81.4704 42.0802L81.3418 40.8701C81.0417 40.9149 80.7559 41.0046 80.5129 41.1839V46.9056L81.3275 47.0849L81.2704 47.9514H77.812V47.9364Z" fill="#1A1A1A"/>
<path d="M44.158 47.9364L44.2009 47.0699L44.9297 46.8907V40.8851L44.0723 40.7954V39.8991L46.416 39.5555L46.5732 40.1381V40.3323C47.1877 39.8543 48.0166 39.5405 49.0169 39.5405L49.3599 39.8543L49.0884 42.125L47.8022 42.0802L47.6736 40.8701C47.3735 40.9149 47.0877 41.0046 46.8447 41.1839V46.9056L47.6593 47.0849L47.6021 47.9514H44.158V47.9364Z" fill="#1A1A1A"/>
<path d="M24.8924 47.9364L24.9353 47.0699L25.6641 46.8907V40.8851L24.8066 40.7954V39.8991L27.1504 39.5555L27.3076 40.1381V40.3323C27.9221 39.8543 28.7509 39.5405 29.737 39.5405L30.08 39.8543L29.8371 42.125L28.5509 42.0802L28.4222 40.8701C28.1221 40.9149 27.8363 41.0046 27.5934 41.1839V46.9056L28.408 47.0849L28.3508 47.9514H24.8924V47.9364Z" fill="#1A1A1A"/>
<path d="M32.2953 44.2764C32.2953 45.7105 32.8955 46.8161 34.0817 46.8161C34.6962 46.8161 35.1821 46.6816 35.7537 46.3978L36.0824 47.1895C35.4965 47.6825 34.639 48.056 33.5672 48.056C31.4807 48.056 30.2803 46.1737 30.2803 43.7535C30.2803 41.6919 31.152 39.436 33.5386 39.436C35.6251 39.436 36.4111 41.4528 36.4111 43.6937L36.211 44.2316L32.2953 44.2764ZM32.2667 43.3203L34.6676 43.2007C34.6247 42.1998 34.4246 40.6162 33.4814 40.6162C33.2528 40.6162 33.0956 40.6611 32.8098 40.8105C32.4239 41.4977 32.2667 42.7376 32.2667 43.3203Z" fill="#1A1A1A"/>
<path d="M65.5072 44.2764C65.5072 45.7105 66.1074 46.8161 67.2936 46.8161C67.9081 46.8161 68.394 46.6816 68.9656 46.3978L69.2943 47.1895C68.7084 47.6825 67.8509 48.056 66.7791 48.056C64.6926 48.056 63.4922 46.1737 63.4922 43.7535C63.4922 41.6919 64.3639 39.436 66.7505 39.436C68.837 39.436 69.623 41.4528 69.623 43.6937L69.4229 44.2316L65.5072 44.2764ZM65.4786 43.3203L67.8795 43.2007C67.8366 42.1998 67.6366 40.6162 66.6934 40.6162C66.4647 40.6162 66.3075 40.6611 66.0217 40.8105C65.6358 41.4977 65.4786 42.7376 65.4786 43.3203Z" fill="#1A1A1A"/>
<path d="M51.5599 44.2764C51.5599 45.7105 52.1602 46.8161 53.3463 46.8161C53.9608 46.8161 54.4467 46.6816 55.0184 46.3978L55.347 47.1895C54.7611 47.6825 53.9037 48.056 52.8318 48.056C50.7454 48.056 49.5449 46.1737 49.5449 43.7535C49.5449 41.6919 50.4167 39.436 52.8033 39.436C54.8897 39.436 55.6757 41.4528 55.6757 43.6937L55.4757 44.2316L51.5599 44.2764ZM51.5314 43.3203L53.9322 43.2007C53.8894 42.1998 53.6893 40.6162 52.7461 40.6162C52.5174 40.6162 52.3602 40.6611 52.0744 40.8105C51.6886 41.4977 51.5171 42.7376 51.5314 43.3203Z" fill="#1A1A1A"/>
<path d="M75.0263 47.9366L74.8262 47.2195C74.2975 47.7424 73.783 48.0561 72.9827 48.0561C71.7537 48.0561 70.6533 47.4137 70.6533 45.636V40.6761L69.7529 40.5865V39.7947L72.3539 39.481L72.554 40.198V45.3969C72.554 46.3082 72.9112 46.7863 73.6115 46.7863C73.8116 46.7863 74.0688 46.7564 74.2975 46.6668C74.4261 46.5323 74.5547 46.368 74.6547 46.2036V40.6761L73.7258 40.5865V39.7947L76.3553 39.481L76.5554 40.198V46.8909L77.37 47.0552L77.27 47.9366H75.0263Z" fill="#1A1A1A"/>
<path d="M40.3121 46.8606C39.8977 46.8606 39.569 46.7859 39.3118 46.6365V41.3629C39.4261 41.1836 39.5547 41.0193 39.6833 40.8699C39.9263 40.7803 40.1406 40.7504 40.3979 40.7504C41.4697 40.7504 41.6555 41.8858 41.6555 43.9175C41.6555 45.8746 41.3697 46.4124 41.2982 46.6365C40.9981 46.7859 40.6837 46.8606 40.3121 46.8606ZM43.5133 43.559C43.5133 41.0343 42.7988 39.4507 41.0124 39.4507C39.8262 39.4507 39.2689 40.1678 39.0402 40.4666V40.1827L38.8402 39.4656L36.5107 39.8092V40.6757L37.4111 40.7952V50.9838L36.6394 51.1482L36.5965 51.9997H40.0406L40.0978 51.1482L39.2832 50.9838V47.7569C39.6119 47.9512 40.0692 48.0707 40.5694 48.0707C43.4847 48.0707 43.5133 44.9782 43.5133 43.559Z" fill="#1A1A1A"/>
</g>
<defs>
<clipPath id="clip0_2197_6843">
<rect width="78" height="16" fill="white" transform="translate(5 36)"/>
</clipPath>
</defs>
</svg>
