<svg width="88" height="88" viewBox="0 0 88 88" fill="none" xmlns="http://www.w3.org/2000/svg">
<rect width="88" height="88" rx="44" fill="#B9D1B1"/>
<rect width="88" height="88" rx="44" fill="white"/>
<g clip-path="url(#clip0_2197_6836)">
<path d="M42.6447 35.1855C42.6447 35.1855 41.9742 35.1991 41.5856 35.1928C41.5695 35.3507 41.3823 36.7816 41.2212 37.9327C41.036 38.9979 39.5682 46.8991 39.0709 49.2643C38.94 49.9785 38.5353 51.996 38.497 52.1976C38.0299 52.2517 37.4783 52.3016 37.1178 52.315C37.0695 52.3166 36.989 52.3318 36.9507 52.3318V52.7414C36.995 52.7397 37.2286 52.757 37.3937 52.7502C37.7903 52.7379 38.9158 52.6862 39.1293 52.6862C39.9387 52.6862 40.4783 52.7381 41.2272 52.7525C41.2373 52.7525 41.4427 52.7518 41.5333 52.7406V52.3267C41.4709 52.3267 41.3883 52.3248 41.34 52.3248C41.1286 52.3312 40.3494 52.2733 39.9548 52.2212C40.0011 51.9506 40.6897 47.8585 41.0199 46.2221C41.6481 43.1933 42.083 41.0466 42.083 41.0466L42.1997 41.3131L47.1628 52.7681L48.0689 52.7726C48.0689 52.7726 48.5863 51.5322 49.2004 50.1409C49.2165 50.1079 49.2608 50.0083 49.3232 49.866C49.9675 48.4212 53.1608 41.0889 53.1608 41.0889C53.1608 41.0889 53.191 41.2209 53.2413 41.457C53.5454 42.8942 54.5742 48.0734 54.7937 49.323C54.8964 49.9658 54.993 50.6178 55.0494 50.9997C55.1319 51.5406 55.1863 52.0699 55.1863 52.222C55.0856 52.2265 54.0749 52.315 53.6923 52.331C53.638 52.3293 53.5353 52.3341 53.5293 52.3351V52.7518C53.6662 52.7518 53.7991 52.7576 53.9319 52.7547C54.7132 52.7403 55.4642 52.681 56.2454 52.6814C57.1232 52.6822 58.5467 52.7564 59.4588 52.7621C59.5615 52.7621 59.7447 52.7533 59.7447 52.7533V52.3324C59.6923 52.332 59.4628 52.3211 59.3783 52.3146C58.9695 52.2836 58.2809 52.2218 58.1058 52.2105C58.1058 52.2105 57.993 51.6055 57.844 50.9067C57.2481 48.1114 55.5507 39.6147 55.291 37.5241C55.2024 36.8055 54.9507 35.192 54.9507 35.192L53.9299 35.1917C53.9299 35.1917 53.4085 36.6406 52.9333 37.9617C52.6091 38.8644 52.1682 39.9788 51.8319 40.8334C50.1729 45.0557 48.3125 48.9902 48.3125 48.9902C48.3125 48.9902 44.3581 39.8535 44.1487 39.3251C43.9373 38.7965 42.6447 35.1855 42.6447 35.1855ZM14.2192 35.1894L14.2279 36.1551L14.2109 38.5068L14.474 38.4996L14.5016 36.4079C14.5016 36.4079 15.9442 36.3959 16.1308 36.3961L18.8209 36.3972L20.5571 36.4056L20.5599 50.9519L20.5603 52.2083L20.5237 52.2132C20.2925 52.2305 19.4032 52.2831 19.042 52.2958C18.961 52.2984 18.9093 52.3003 18.9004 52.2993L18.9021 52.725C18.9673 52.7281 19.1431 52.7322 19.1662 52.7314C20.0207 52.7207 21.177 52.6487 21.9969 52.6495C22.8298 52.6499 24.0021 52.7283 24.7275 52.7365C24.7994 52.7368 24.8845 52.73 24.9536 52.73V52.3309L24.8636 52.3317C24.6325 52.3307 23.3541 52.251 23.2219 52.2342C23.2164 52.039 23.1927 51.0969 23.1927 51.0761L23.1989 36.404L24.5207 36.4007L27.9695 36.4029L29.1206 36.4182C29.1282 36.4978 29.1864 37.5573 29.1854 37.5862C29.1828 37.6632 29.2285 38.4524 29.2267 38.6466L29.4995 38.6497L29.48 36.2711L29.4925 35.2011C28.4789 35.2278 25.8959 35.2614 21.8872 35.2594C18.4492 35.2573 15.1361 35.2295 14.2192 35.1894ZM30.2754 35.1932L30.2797 35.6098C30.4158 35.6169 31.2159 35.6855 31.4104 35.6947C31.5656 35.7131 31.7823 35.7319 31.9373 35.7465C31.9373 35.8799 31.9397 36.8003 31.9419 37.1635C31.9679 40.6065 31.9458 48.2159 31.9353 50.9082C31.9321 51.6868 31.9299 52.1884 31.9299 52.1884C31.8318 52.2169 31.6111 52.2276 31.3725 52.2432C31.1686 52.2567 30.4377 52.3161 30.2746 52.3195V52.7361C30.3423 52.7361 30.4663 52.75 30.537 52.7494C31.3643 52.7496 32.5146 52.6501 33.362 52.6507C34.2185 52.6513 35.3621 52.7523 36.0366 52.7525L36.0346 52.7529C36.093 52.7537 36.2319 52.7388 36.2903 52.739V52.3226H36.2319C36.2058 52.3171 35.336 52.2816 35.1246 52.2604C35.0138 52.2536 34.5346 52.2134 34.5286 52.198C34.5266 52.1898 34.5246 52.0652 34.5246 51.8576C34.5266 51.6604 34.5266 51.3327 34.5266 50.9775C34.5286 48.2617 34.5366 40.1959 34.5387 37.1128C34.5387 36.517 34.5407 36.0328 34.5407 35.7731C34.7279 35.7617 35.493 35.6842 35.7668 35.6608C35.7789 35.6597 36.1413 35.6395 36.2903 35.6307V35.1966C35.3541 35.1963 34.1152 35.2671 33.2015 35.2667C32.246 35.2661 31.0687 35.1935 30.2754 35.1932ZM73.6043 35.205C73.6043 35.205 73.5056 35.2054 73.3224 35.2057C72.6962 35.2083 71.0936 35.2197 69.2191 35.2297C68.0674 35.2362 67.1674 35.2451 65.9815 35.2446C65.1499 35.254 63.9862 35.285 63.2674 35.2838C62.1197 35.282 61.1835 35.2135 60.6741 35.2114C60.4325 35.2104 60.2976 35.2192 60.2311 35.2152C60.2352 35.2212 60.2352 35.6265 60.2352 35.6265C60.2795 35.634 60.3681 35.6436 60.4506 35.6417C60.7385 35.6605 61.2781 35.7027 61.5519 35.7377C61.6063 35.7474 61.6989 35.7622 61.9566 35.7899C61.9546 35.8821 61.9687 36.9259 61.9667 37.5531C61.9667 38.1341 61.9607 51.0978 61.9607 51.0978C61.9607 51.1188 61.9305 52.1403 61.9305 52.2227C61.4754 52.2982 60.6016 52.3446 60.3036 52.3458H60.215V52.7581C60.2573 52.7579 60.4526 52.7654 60.5634 52.7654C61.0446 52.7652 62.2848 52.6911 63.5513 52.6903C64.4392 52.6895 65.4157 52.7217 66.4043 52.7353C67.6224 52.7517 68.8546 52.7525 69.962 52.7677C71.7882 52.7926 73.2681 52.7948 73.7493 52.7954C73.7493 52.7954 73.8076 49.5154 73.8076 49.251L73.5439 49.2539C73.5439 49.5329 73.4372 50.5719 73.4332 50.6173C73.3989 51.0085 73.3627 51.4183 73.3345 51.6203C73.3345 51.6203 73.2056 51.6302 73.1432 51.6291C72.8432 51.6236 71.8848 51.6573 71.8647 51.6573L67.5902 51.6591L64.5882 51.6103L64.5681 50.8039L64.566 44.543C65.1016 44.5254 65.9191 44.498 66.4164 44.4989C66.8392 44.4997 67.8358 44.4767 68.3936 44.4779C69.7486 44.4802 70.9526 44.4886 71.0493 44.4913C71.2728 44.4976 71.6875 44.5108 71.8446 44.5202C71.8506 44.5754 71.8687 44.6615 71.8707 44.6859C71.9513 45.1653 71.9956 45.4974 72.0499 45.968C72.058 46.0104 72.062 46.0513 72.0681 46.0899H72.3761C72.3761 46.0899 72.3842 45.9216 72.3801 45.8169C72.3741 45.4479 72.3499 44.7116 72.3499 43.8957C72.3479 43.3301 72.3821 42.4654 72.3862 42.0495C72.3882 41.937 72.3741 41.8571 72.3741 41.8249L72.0922 41.8302C72.0902 41.92 72.0681 42.0526 72.0681 42.0526C72.0439 42.3626 71.9533 42.7588 71.8808 43.1768C71.8607 43.2289 71.8466 43.3016 71.8466 43.3016C71.8144 43.3121 70.9305 43.3578 70.8519 43.3572C70.8217 43.357 69.5352 43.3919 69.513 43.3919L64.5681 43.3739L64.5761 36.47C64.5761 36.47 65.2043 36.4485 65.3795 36.4494C66.0922 36.4496 67.2519 36.4433 68.4338 36.4449C70.1633 36.4469 71.8425 36.4573 71.8466 36.4597C71.8566 36.4645 72.3681 36.4714 72.3781 36.4799C72.3902 36.4892 73.0305 36.5078 73.1875 36.5126C73.1875 36.5126 73.1996 36.564 73.2076 36.6288C73.2781 37.3567 73.3365 38.2212 73.3627 38.5275L73.3647 38.6502L73.6285 38.6494C73.6285 38.2011 73.6043 36.8284 73.6003 35.9551C73.5983 35.6746 73.6043 35.4461 73.6043 35.3162V35.205Z" fill="#EE1C2D"/>
</g>
<defs>
<clipPath id="clip0_2197_6836">
<rect width="60" height="18" fill="white" transform="translate(14 35)"/>
</clipPath>
</defs>
</svg>
