<svg width="88" height="88" viewBox="0 0 88 88" fill="none" xmlns="http://www.w3.org/2000/svg">
<circle cx="44" cy="44" r="42" fill="white"/>
<circle cx="44" cy="44" r="32" fill="#B6121B"/>
<path d="M27.4178 49.6302C27.609 48.2673 28.9657 47.2313 30.9267 46.96C31.5865 46.8675 33.1035 46.9353 33.6523 47.0772C34.4232 47.2807 34.9103 47.5458 35.4345 48.07C35.786 48.4215 35.9587 48.6435 36.1252 48.995C36.5198 49.8214 36.5692 50.1112 36.5692 51.4925C36.563 52.5655 36.5445 52.7937 36.4273 53.2438C36.1498 54.2922 35.6873 55.1 34.9288 55.8523C34.6575 56.1175 34.4108 56.3333 34.3738 56.3333C34.3368 56.3333 33.7757 56.025 33.1282 55.6427C29.1075 53.2993 27.979 52.3928 27.5412 51.1533C27.4178 50.8018 27.3562 50.0557 27.4178 49.6302Z" fill="white"/>
<path d="M27.5227 60.8042C26.721 61.464 26.2893 61.9697 25.9317 62.685C25.463 63.6162 25.2533 64.6275 25.2533 65.9533C25.2533 67.2175 25.4075 67.939 25.8515 68.7962C26.314 69.6965 26.9923 70.3378 27.9975 70.825C29.7057 71.6637 32.271 71.7007 33.8743 70.9113C34.417 70.6462 35.0583 70.0603 35.3605 69.5608C35.9895 68.5187 36.082 66.7858 35.5578 65.6697C35.0152 64.5165 33.9668 63.6285 31.6482 62.3582C30.828 61.908 28.0098 60.465 27.9482 60.465C27.9358 60.465 27.7447 60.6192 27.5227 60.8042Z" fill="white"/>
<path d="M49.1368 59.9717C48.9765 52.4545 50.8388 47.5397 54.0702 46.96C54.249 46.9292 54.5943 46.9168 54.841 46.9353C57.5297 47.1142 59.2872 50.1297 59.8915 55.5933C60.0333 56.876 60.0518 61.3345 59.9223 62.5308C59.4907 66.496 58.6027 69.012 57.1597 70.3995C55.3467 72.1323 52.8553 71.75 51.3383 69.5053C49.957 67.4518 49.2355 64.3192 49.1368 59.9717Z" fill="white"/>
<path fill-rule="evenodd" clip-rule="evenodd" d="M44 81C23.5655 81 7 64.4345 7 44C7 23.5655 23.5655 7 44 7C64.4345 7 81 23.5655 81 44C81 64.4345 64.4345 81 44 81ZM41.7245 20.9243C42.7667 19.8945 43.3217 18.3652 43.3217 16.5213V15.8368L42.7297 15.5902L42.4892 15.7937C41.669 16.4905 40.3123 16.8482 37.9567 16.99C35.3852 17.1442 33.2885 17.0208 30.5567 16.5522C29.5638 16.3795 27.831 16.0218 27.3747 15.8862C27.2328 15.8492 27.1218 15.8553 26.9553 15.9355L26.7272 16.0342L26.7025 18.5317C26.6778 21.6088 26.499 24.5442 26.1722 27.2267L26.0488 28.2442L25.7837 28.5217C25.2287 29.1013 24.9388 29.6748 24.8957 30.2853C24.8463 31.0253 25.1053 31.3583 25.7282 31.3583C26.4497 31.3583 26.8258 30.7725 26.9985 29.385L27.0787 28.7375L27.4055 28.5402C28.7437 27.7385 30.7848 27.35 32.2833 27.6213C35.157 28.1455 36.785 30.8712 36.785 35.1817C36.785 37.2968 36.4643 38.8447 35.7305 40.2383C34.9473 41.7183 33.7263 42.6618 32.2217 42.9455C30.5567 43.2538 28.6573 42.8777 27.4857 41.9958C26.9183 41.5642 26.4558 40.9043 26.499 40.559L26.5175 40.3925L27.4425 40.3555C28.5155 40.3062 28.9657 40.1952 29.5453 39.819C30.3717 39.2825 30.8342 38.376 30.902 37.155C30.9698 36.0018 30.6553 35.157 29.8475 34.343C29.0212 33.5105 28.164 33.1652 27.0355 33.2268C26.166 33.27 25.5185 33.5475 24.834 34.1642C23.9152 34.9905 23.4712 36.1992 23.5452 37.6483C23.6315 39.3195 24.2358 40.7008 25.3643 41.8417C26.6038 43.0873 28.201 43.8088 30.495 44.1603C31.346 44.2898 33.8003 44.3083 34.7808 44.1973C38.1047 43.8027 40.485 42.7852 42.0267 41.1202C43.5375 39.4737 44.1973 37.4448 44.1048 34.7192C44.0555 33.2268 43.8027 32.123 43.26 31.0438C42.0452 28.5957 39.6957 27.0725 36.2423 26.4928C33.0973 25.9563 29.5947 26.2955 27.5227 27.3253C27.3623 27.4055 27.2082 27.4733 27.1773 27.4733C27.1465 27.4733 27.1403 27.3377 27.1712 27.1588C27.239 26.721 27.5288 23.5205 27.5843 22.6017L27.6275 21.8308L27.8495 21.8432C27.9667 21.8493 28.3058 21.9233 28.6018 22.0097C29.459 22.2563 30.8588 22.5215 32.0983 22.6695C33.4673 22.8298 36.304 22.8668 37.2783 22.7373C39.2763 22.4722 40.781 21.8555 41.7245 20.9243ZM62.0375 18.3158C60.6007 16.9037 58.5287 16.0403 55.84 15.732C54.9397 15.6272 52.9355 15.6087 52.14 15.7012C48.4647 16.1205 45.8007 17.8595 44.7523 20.505C44.4008 21.3992 44.2898 22.0343 44.2837 23.1567C44.2775 24.279 44.3453 24.6367 44.6968 25.3458C44.9312 25.8268 45.6897 26.5792 46.1892 26.8382C47.0772 27.2945 48.2057 27.3808 49.1183 27.0663C49.7843 26.832 50.253 26.5237 50.7217 26.0057C51.3445 25.315 51.6467 24.5195 51.6467 23.5513C51.6467 22.2687 51.0177 21.0662 50.0372 20.4927C49.3527 20.0918 48.3105 19.9315 47.515 20.098C46.886 20.2337 46.7318 20.2275 46.6825 20.0672C46.6085 19.8328 47.0217 19.1052 47.5088 18.6242C48.8223 17.323 50.6538 16.731 52.4915 17.0147C53.8852 17.2243 54.9027 17.8533 55.618 18.9325C56.8267 20.7455 56.9685 24.0323 55.9448 26.425C55.1617 28.2503 53.9962 29.6193 51.6713 31.4508C49.5377 33.122 48.7113 33.8435 47.7123 34.8857C45.7082 36.97 44.5735 39.2825 43.8212 42.8098L43.6423 43.6238L43.926 43.7163C44.3268 43.8582 44.407 43.8397 44.555 43.5992C44.8572 43.112 45.4862 42.6742 46.1768 42.4768C46.6147 42.3473 48.699 42.298 49.365 42.3905C49.9878 42.483 51.2582 42.7975 52.51 43.1737C53.9345 43.5992 55.4083 43.9753 56.2408 44.1233C57.2028 44.296 58.9727 44.3577 59.7127 44.2467C62.9317 43.778 64.5227 41.7183 64.387 38.2033C64.35 37.2228 64.2637 36.6617 64.0293 35.8723L63.8998 35.416L63.6223 35.4592C63.6053 35.4618 63.5889 35.4643 63.5732 35.4667C63.4161 35.4906 63.3256 35.5044 63.2739 35.5566C63.2035 35.6277 63.205 35.7698 63.2084 36.1052C63.2086 36.1312 63.2089 36.1584 63.2092 36.1868C63.2092 36.9083 63.1352 37.2043 62.8515 37.6237C62.5925 38.0183 62.2287 38.2835 61.7168 38.4623C61.3468 38.5857 61.1865 38.6042 60.3725 38.598C59.1638 38.598 58.9542 38.5425 56.5553 37.6545C53.5892 36.5507 52.8985 36.3903 51.1533 36.3903C49.9323 36.3903 49.2663 36.4767 48.1995 36.7542C47.8788 36.8405 47.6075 36.896 47.5952 36.8837C47.5458 36.8343 48.7607 35.6688 49.365 35.1878C50.66 34.1518 52.5655 33.0542 54.0825 32.4622C57.8442 31.013 59.91 29.8598 61.5688 28.2997C63.4127 26.5668 64.2698 24.3962 63.9862 22.2008C63.7765 20.5975 63.2092 19.4628 62.0375 18.3158ZM40.5775 49.5192C39.6032 47.5458 37.0378 46.3002 33.4118 46.035C29.6008 45.7637 25.7898 46.7627 23.724 48.5757C22.096 50.0125 21.4608 51.7392 21.7383 53.9653C21.9233 55.4145 22.4475 56.4752 23.5082 57.5173C24.3037 58.3067 24.9697 58.7938 26.388 59.6263L26.9985 59.984L26.1722 60.2862C23.724 61.1803 22.1392 62.4137 21.4547 63.9492C21.1833 64.5658 21.06 65.2257 21.06 66.0643C21.06 67.7848 21.5348 68.9195 22.7435 70.0603C23.9152 71.1703 25.6665 71.8672 28.1825 72.2125C29.1753 72.3543 31.901 72.4037 32.9493 72.3112C37.9258 71.8425 41.0832 69.6657 41.7553 66.2308C41.9095 65.4477 41.8972 64.0848 41.7307 63.3017C41.2373 61.0015 40.004 59.7003 36.1252 57.3817C35.7058 57.135 35.3667 56.9192 35.3667 56.8945C35.3667 56.876 35.6935 56.7342 36.0943 56.5862C37.6237 56.0188 38.9557 55.2603 39.671 54.5512C40.5713 53.657 40.9783 52.6827 40.9783 51.4C40.9783 50.6292 40.8673 50.1112 40.5775 49.5192ZM66.2863 55.0013C64.8495 50.2407 60.3725 46.5345 55.4762 46.035C54.7732 45.9672 54.4463 45.9672 53.7002 46.0412C50.1235 46.3865 46.4728 48.6867 44.3577 51.9242C43.593 53.0897 42.9085 54.6992 42.5878 56.0867C42.2733 57.4187 42.1623 59.4722 42.3288 60.8042C42.6557 63.3942 43.6362 65.756 45.1655 67.6183C47.1943 70.0973 49.9385 71.7253 53.0033 72.2803C53.8913 72.4407 55.4762 72.4283 56.4197 72.2495C61.02 71.3985 64.9605 67.8095 66.3172 63.2585C66.7242 61.8833 66.8783 60.7548 66.8783 59.17C66.8783 57.5605 66.718 56.4073 66.2863 55.0013Z" fill="white"/>
</svg>
