<svg width="150" height="40" viewBox="0 0 150 40" fill="none" xmlns="http://www.w3.org/2000/svg">
<g clip-path="url(#clip0_2321_17486)">
<path d="M148.662 25.7242C148.2 25.7242 147.824 26.0914 147.824 26.5434C147.824 26.9954 148.2 27.3626 148.662 27.3626C149.124 27.3626 149.5 26.9954 149.5 26.5434C149.5 26.0914 149.124 25.7242 148.662 25.7242ZM148.662 27.2327C148.272 27.2327 147.957 26.9226 147.957 26.5434C147.957 26.1624 148.274 25.8541 148.662 25.8541C149.052 25.8541 149.369 26.1641 149.369 26.5434C149.369 26.9227 149.052 27.2327 148.662 27.2327ZM148.935 26.4031C148.935 26.2542 148.827 26.1658 148.667 26.1658H148.4V26.9123H148.531V26.6421H148.674L148.812 26.9123H148.954L148.802 26.6144C148.883 26.578 148.935 26.5052 148.935 26.4031ZM148.662 26.5261H148.533V26.2785H148.662C148.751 26.2785 148.804 26.3217 148.804 26.4014C148.804 26.4828 148.749 26.5261 148.662 26.5261ZM47.7439 17.4339V15.4526H44.6381V27.2396H47.7439V20.172C47.7439 18.8921 48.5832 18.2634 49.8918 18.2634H51.5917V15.4527H50.1396C49.0029 15.4526 48.0148 16.0328 47.7439 17.4339ZM54.5009 10.7905C53.4385 10.7905 52.624 11.6114 52.624 12.6505C52.624 13.6654 53.4385 14.4863 54.5009 14.4863C55.5633 14.4863 56.3779 13.6654 56.3779 12.6505C56.3778 11.6114 55.5633 10.7905 54.5009 10.7905ZM52.9515 27.2396H56.0503V15.4526H52.9515V27.2396ZM70.8109 21.3461C70.8109 24.7111 68.0221 27.4388 64.5815 27.4388C63.1933 27.4388 61.9343 26.9937 60.925 26.242V30.6999H57.8263V15.4526H60.925V16.4502C61.9343 15.6985 63.1933 15.2535 64.5815 15.2535C68.0221 15.2535 70.8109 17.9811 70.8109 21.3461ZM67.6927 21.3461C67.6927 19.519 66.177 18.0365 64.3089 18.0365C62.4408 18.0365 60.925 19.519 60.925 21.3461C60.925 23.1732 62.4408 24.6557 64.3089 24.6557C66.177 24.6557 67.6927 23.175 67.6927 21.3461ZM124.669 20.3122L122.861 19.8273C121.671 19.5242 121.209 19.1674 121.209 18.5526C121.209 17.9534 121.861 17.5343 122.792 17.5343C123.679 17.5343 124.375 18.1024 124.375 18.8297V18.8972H127.231V18.8297C127.231 16.6909 125.448 15.2534 122.792 15.2534C120.162 15.2534 118.252 16.6891 118.252 18.6686C118.252 20.2082 119.295 21.3686 121.115 21.85L122.847 22.3124C124.162 22.6692 124.651 23.0641 124.651 23.7724C124.651 24.5188 123.945 25.0211 122.893 25.0211C121.797 25.0211 121.058 24.3421 121.058 23.3342V23.2667H118.027V23.3342C118.027 25.7519 120.017 27.4422 122.868 27.4422C125.614 27.4422 127.608 25.7917 127.608 23.5195C127.608 22.4042 127.098 20.9461 124.669 20.3122ZM81.8035 15.4526H84.9022V27.2396H81.8035V26.242C80.7942 26.9936 79.5352 27.4387 78.147 27.4387C74.7065 27.4387 71.9177 24.7111 71.9177 21.3461C71.9177 17.981 74.7065 15.2534 78.147 15.2534C79.5352 15.2534 80.7942 15.6985 81.8035 16.4501V15.4526ZM81.8035 21.3461C81.8035 19.5173 80.2878 18.0365 78.4197 18.0365C76.5515 18.0365 75.0359 19.519 75.0359 21.3461C75.0359 23.1732 76.5515 24.6557 78.4197 24.6557C80.2895 24.6557 81.8035 23.175 81.8035 21.3461ZM96.0914 11.2581H99.1902V27.2413H96.0914V26.2437C95.0821 26.9954 93.8231 27.4405 92.4349 27.4405C88.9944 27.4405 86.2055 24.7128 86.2055 21.3478C86.2055 17.9828 88.9943 15.2552 92.4349 15.2552C93.8231 15.2552 95.0821 15.7002 96.0914 16.4519V11.2581ZM96.0914 21.3461C96.0914 19.519 94.5756 18.0365 92.7075 18.0365C90.8395 18.0365 89.3237 19.519 89.3237 21.3461C89.3237 23.1732 90.8376 24.6557 92.7075 24.6557C94.5756 24.6557 96.0914 23.175 96.0914 21.3461ZM113.577 27.2396H116.676V15.4526H113.577V27.2396ZM115.127 10.7905C114.064 10.7905 113.25 11.6114 113.25 12.6505C113.25 13.6654 114.064 14.4863 115.127 14.4863C116.189 14.4863 117.003 13.6654 117.003 12.6505C117.003 11.6114 116.189 10.7905 115.127 10.7905ZM141.002 21.3461C141.002 24.7111 138.213 27.4388 134.772 27.4388C131.332 27.4388 128.543 24.7111 128.543 21.3461C128.543 17.9811 131.332 15.2535 134.772 15.2535C138.213 15.2535 141.002 17.9811 141.002 21.3461ZM138.156 21.3461C138.156 19.519 136.641 18.0365 134.773 18.0365C132.904 18.0365 131.389 19.519 131.389 21.3461C131.389 23.1732 132.903 24.6557 134.773 24.6557C136.641 24.6557 138.156 23.175 138.156 21.3461ZM46.1573 11.2581H34.2705V13.9615H38.6708V27.2396H41.7589V13.9615H46.1591V11.2581H46.1573ZM106.271 24.0114L103.514 15.4527H100.26L104.394 27.2396H108.123L112.283 15.4527H109.028L106.271 24.0114ZM145.542 17.4339V15.4526H142.436V27.2396H145.542V20.172C145.542 18.8921 146.381 18.2634 147.69 18.2634H149.39V15.4527H147.938C146.801 15.4526 145.815 16.0328 145.542 17.4339Z" fill="#DDF2D0"/>
<path fill-rule="evenodd" clip-rule="evenodd" d="M32.1957 20.5098C32.1957 29.0702 25.1004 36.0098 16.3478 36.0098C7.59532 36.0098 0.5 29.0702 0.5 20.5098C0.5 11.9494 7.59532 5.00977 16.3478 5.00977C25.1004 5.00977 32.1957 11.9494 32.1957 20.5098ZM28.0486 15.451L26.1362 17.486C27.3084 18.5303 28.0432 20.037 28.0415 21.7117C28.0415 24.8688 25.4209 27.4285 22.1928 27.4285C20.6594 27.4285 19.2641 26.8518 18.2212 25.9062L16.3477 27.8995L14.4743 25.9044C13.4314 26.8501 12.0343 27.4285 10.5009 27.4285C7.27286 27.4285 4.65572 24.8688 4.65572 21.7117C4.65572 20.0387 5.39057 18.532 6.56276 17.486L4.65039 15.451H8.90186C11.0214 14.0344 13.5783 13.2065 16.3477 13.2065C19.1206 13.2065 21.6846 14.0326 23.8077 15.451H28.0486ZM6.54686 21.7117C6.54686 23.8488 8.31752 25.5806 10.5026 25.5806C12.6876 25.5806 14.4583 23.8488 14.4583 21.7117C14.4583 19.5745 12.6876 17.8427 10.5026 17.8427C8.31756 17.8427 6.54686 19.5745 6.54686 21.7117ZM11.9581 15.9342C14.4566 16.8677 16.3495 19.0533 16.3495 21.5991C16.3495 19.0533 18.2424 16.8694 20.7391 15.9342C19.388 15.3817 17.9042 15.0752 16.3477 15.0752C14.7912 15.0752 13.3092 15.3817 11.9581 15.9342ZM18.2388 21.7117C18.2388 23.8488 20.0095 25.5806 22.1946 25.5806C24.3797 25.5806 26.1504 23.8488 26.1504 21.7117C26.1504 19.5745 24.3797 17.8427 22.1946 17.8427C20.0095 17.8427 18.2388 19.5745 18.2388 21.7117ZM20.1211 21.7099C20.1211 20.5894 21.049 19.6819 22.1946 19.6819C23.3403 19.6819 24.2681 20.5911 24.2681 21.7099C24.2681 22.8304 23.3403 23.7379 22.1946 23.7379C21.049 23.7379 20.1211 22.8304 20.1211 21.7099ZM10.5026 23.7397C11.6482 23.7397 12.5761 22.8322 12.5761 21.7117C12.5761 20.5911 11.6482 19.6819 10.5026 19.6836C9.35697 19.6836 8.42911 20.5911 8.42911 21.7117C8.42911 22.8322 9.35697 23.7397 10.5026 23.7397Z" fill="#DDF2D0"/>
</g>
<defs>
<clipPath id="clip0_2321_17486">
<rect width="149" height="40" fill="white" transform="translate(0.5 0.00976562)"/>
</clipPath>
</defs>
</svg>
