<svg width="100" height="40" viewBox="0 0 100 40" fill="none" xmlns="http://www.w3.org/2000/svg">
<path d="M79.531 23.0101L81.0878 22.6595C81.1203 22.6522 81.1753 22.64 81.2403 22.6193C81.6703 22.5071 82.0388 22.2367 82.2681 21.8652C82.4974 21.4936 82.5696 21.0499 82.4695 20.6276L82.4633 20.6008C82.4118 20.3984 82.3219 20.2072 82.1982 20.0371C82.0239 19.8217 81.8081 19.6414 81.563 19.5063C81.2743 19.3462 80.9723 19.2101 80.6601 19.0996L78.9533 18.4921C77.9954 18.1451 77.0376 17.8079 76.0698 17.478C75.4433 17.2613 74.9119 17.0701 74.4505 16.9301C74.3626 16.9064 74.2755 16.8805 74.1891 16.8522C73.6314 16.6866 73.2388 16.6172 72.9074 16.6148C72.6859 16.6068 72.4653 16.6458 72.2609 16.7292C72.0474 16.8192 71.8557 16.952 71.6982 17.1188C71.6201 17.2051 71.5467 17.2954 71.4782 17.3891C71.3449 17.5884 71.235 17.8015 71.1505 18.0246C70.8334 18.9365 70.6754 19.8937 70.6829 20.8564C70.6891 21.7257 70.7129 22.8421 71.2043 23.5994C71.3231 23.7942 71.4819 23.9622 71.6707 24.0925C72.0208 24.3274 72.3735 24.3591 72.7423 24.3847C73.2925 24.4224 73.824 24.2921 74.3554 24.1716L79.5272 23.0089L79.531 23.0101ZM96.8996 14.9639C96.4746 14.0954 95.9032 13.3024 95.209 12.6178C95.1193 12.5308 95.0232 12.4502 94.9214 12.3768C94.8274 12.3081 94.7297 12.2443 94.6288 12.1856C94.5249 12.1302 94.4181 12.0802 94.3087 12.0359C94.0928 11.9532 93.8614 11.9159 93.6297 11.9263C93.4084 11.9385 93.1921 11.9994 92.9957 12.1004C92.6994 12.2441 92.378 12.4754 91.9504 12.8613C91.8916 12.9185 91.8178 12.9831 91.7503 13.0439C91.3989 13.3666 91.0063 13.7647 90.5399 14.2273C89.8184 14.9371 89.1094 15.6505 88.4029 16.3701L87.1399 17.646C86.9093 17.8787 86.6993 18.13 86.5122 18.3972C86.352 18.6232 86.2386 18.8776 86.1783 19.1459C86.1445 19.352 86.1496 19.5624 86.1933 19.7668L86.1996 19.7936C86.2994 20.2155 86.5634 20.5833 86.9362 20.8194C87.3089 21.0556 87.7611 21.1418 88.1978 21.0598C88.2504 21.0525 88.3025 21.0428 88.3541 21.0305L95.084 19.516C95.6154 19.3967 96.1531 19.2871 96.6295 19.0168C96.9496 18.8379 97.2535 18.6589 97.4623 18.2985C97.5735 18.1 97.6408 17.8811 97.6599 17.6557C97.7637 16.7621 97.2847 15.7479 96.8996 14.9639ZM84.8516 17.719C85.3393 17.1225 85.3393 16.2337 85.3818 15.5057C85.5294 13.0768 85.6832 10.648 85.807 8.2179C85.8532 7.29749 85.9545 6.38926 85.8982 5.46155C85.852 4.69698 85.847 3.81797 85.3505 3.18975C84.4752 2.08186 82.6071 2.17317 81.3329 2.34605C80.9398 2.39891 80.5496 2.47042 80.1637 2.56032C79.7761 2.65042 79.3909 2.74903 79.0158 2.86713C77.7929 3.25672 76.0735 3.97259 75.7834 5.34467C75.6184 6.1202 76.0085 6.91277 76.3086 7.62134C76.675 8.47844 77.1739 9.25153 77.6291 10.0587C78.8332 12.1905 80.0587 14.3101 81.2804 16.4309C81.6467 17.064 82.0431 17.8651 82.7496 18.1938C82.7971 18.2133 82.8447 18.2304 82.8934 18.2462C83.2098 18.3631 83.5562 18.385 83.885 18.3107L83.9438 18.2985C84.2489 18.217 84.524 18.055 84.7403 17.8322C84.7803 17.7957 84.8154 17.7592 84.8516 17.719ZM84.2677 24.2215C84.0773 23.9608 83.8072 23.7655 83.4959 23.6633C83.1846 23.5612 82.8481 23.5576 82.5345 23.653C82.4608 23.6766 82.3889 23.7055 82.3195 23.7394C82.212 23.7928 82.1095 23.8551 82.0131 23.9257C81.7378 24.1369 81.4919 24.382 81.2816 24.6549C81.2278 24.7219 81.1778 24.8108 81.1128 24.8692L80.0299 26.318C79.4172 27.1313 78.8107 27.9458 78.2118 28.7724C77.8191 29.3069 77.4815 29.7586 77.2127 30.1567C77.1627 30.2322 77.1101 30.315 77.0626 30.3831C76.7413 30.8652 76.5599 31.2183 76.4662 31.5324C76.3961 31.7411 76.3739 31.9622 76.4011 32.1801C76.4311 32.4066 76.5099 32.6245 76.6312 32.8205C76.6962 32.9179 76.7663 33.0129 76.8413 33.1042C77.0033 33.2858 77.1858 33.4491 77.3852 33.5912C78.133 34.0976 78.9508 34.4617 79.8111 34.7429C80.5276 34.9742 81.2716 35.113 82.0244 35.1544C82.1532 35.1605 82.282 35.158 82.4095 35.1471C82.5278 35.1363 82.6454 35.1201 82.7621 35.0984C82.8789 35.0719 82.9941 35.0394 83.1072 35.001C83.3273 34.9207 83.5275 34.7963 83.695 34.6357C83.8538 34.4811 83.9763 34.2949 84.0526 34.0891C84.1776 33.7847 84.2602 33.4 84.3152 32.8278C84.3189 32.7462 84.3314 32.6488 84.3402 32.56C84.3827 32.0852 84.4027 31.5251 84.4327 30.8701C84.4865 29.8608 84.5278 28.8564 84.5603 27.8496L84.6303 26.0575C84.6465 25.646 84.6328 25.1882 84.5152 24.7779C84.4636 24.5808 84.38 24.393 84.2677 24.2215ZM96.4882 27.0254C96.2631 26.7831 95.943 26.5432 95.4378 26.2462C95.3653 26.206 95.279 26.1536 95.2003 26.1074C94.7801 25.8602 94.2737 25.6021 93.6822 25.2892C92.7732 24.8023 91.8641 24.3299 90.945 23.8599L89.3232 23.0223C89.2394 22.998 89.1544 22.9395 89.0744 22.9018C88.7625 22.7467 88.4313 22.6317 88.089 22.5597C87.9711 22.5375 87.8514 22.5253 87.7314 22.5232C87.6536 22.5228 87.5759 22.5272 87.4988 22.5365C87.1741 22.5854 86.8736 22.7328 86.64 22.9577C86.4065 23.1827 86.2519 23.4737 86.1983 23.7893C86.1746 23.9902 86.1821 24.1935 86.2221 24.3907C86.3009 24.812 86.4934 25.2271 86.6935 25.5912L87.5588 27.1727C88.0415 28.0639 88.5292 28.9502 89.0293 29.8341C89.3519 30.4099 89.6208 30.903 89.8721 31.3121C89.9197 31.3888 89.9734 31.4715 90.0147 31.5434C90.321 32.034 90.5661 32.3433 90.815 32.566C90.9807 32.7213 91.1797 32.8389 91.3976 32.9104C91.6155 32.982 91.847 33.0058 92.0754 32.98C92.1944 32.9659 92.3125 32.9456 92.4293 32.9191C92.6685 32.8568 92.8996 32.7681 93.1183 32.6549C93.7765 32.2957 94.3831 31.8536 94.9227 31.3401C95.5704 30.7192 96.1431 30.0422 96.5883 29.2679C96.6508 29.1584 96.7033 29.0451 96.7483 28.927C96.7902 28.8189 96.8265 28.7088 96.8571 28.5971C96.8834 28.4827 96.9034 28.3682 96.9171 28.2526C96.9395 28.0252 96.9127 27.7959 96.8383 27.5793C96.7649 27.3715 96.6454 27.1819 96.4882 27.0241V27.0254Z" fill="#DDF2D0"/>
<path fill-rule="evenodd" clip-rule="evenodd" d="M40.6372 11.6475C40.6372 10.3448 41.7264 9.28076 43.0418 9.28076C44.3385 9.28076 45.3914 10.3448 45.4477 11.667V30.1409C45.4477 31.4436 44.3573 32.5076 43.0418 32.5076C42.7239 32.5075 42.4091 32.446 42.1157 32.3267C41.8223 32.2074 41.5562 32.0326 41.3326 31.8125C41.109 31.5925 40.9324 31.3314 40.813 31.0445C40.6937 30.7575 40.6339 30.4504 40.6372 30.1409V11.6475ZM38.4002 23.0589C38.3814 23.4253 38.2877 24.1047 37.8 24.6002C37.2736 25.1322 36.5596 25.26 36.1457 25.26C34.4263 25.2698 32.7069 25.2746 30.9876 25.2783C29.2682 25.2832 27.5489 25.288 25.8295 25.2966C25.9796 25.7555 26.2797 26.4532 26.9562 27.0948C27.3688 27.4807 27.764 27.6998 27.934 27.7924C28.1403 27.9202 28.8543 28.2879 29.7372 28.2879C30.6775 28.2879 31.504 27.9933 32.3131 27.5903L32.3793 27.5562C32.942 27.2725 33.521 26.9803 34.135 26.8744C34.7352 26.7831 35.3754 26.8927 35.8443 27.2969C36.4083 27.7741 36.6346 28.4705 36.427 29.1864C36.1832 29.9936 35.4879 30.6912 34.7552 31.1124C34.3358 31.3514 33.8956 31.5538 33.4397 31.7175C32.2767 32.1193 31.0469 32.3063 29.8134 32.269C29.5133 32.269 29.1932 32.269 28.8731 32.2325C28.5355 32.196 28.1979 32.1217 27.8777 32.0486C27.3588 31.9391 26.8542 31.7728 26.3735 31.5531C25.8926 31.3456 25.4333 31.0936 25.0017 30.8007C24.5713 30.4995 24.1692 30.1618 23.8001 29.7915C23.433 29.4165 23.0996 29.0116 22.8035 28.5813C21.7894 27.0765 21.3192 25.2235 21.413 23.4253C21.488 21.6649 22.0895 19.9032 23.1798 18.4727C23.2974 18.2925 23.4337 18.1403 23.5625 17.9966C23.6187 17.9333 23.6738 17.8724 23.725 17.8116C25.0705 16.2094 26.8686 15.7029 27.6102 15.4935L27.6514 15.4813C29.1564 15.0653 30.7506 15.0653 32.2555 15.4813C32.6132 15.5739 34.6239 16.1789 36.1832 17.8116C36.2582 17.8846 36.4658 18.1232 36.7284 18.4727C37.3953 19.3569 37.8853 20.3556 38.1726 21.4165L38.1751 21.4262C38.2877 21.8292 38.4002 22.3807 38.4002 23.0589ZM27.3701 20.0322C26.6281 20.6197 26.1117 21.434 25.9046 22.343H34.0974C33.8764 21.4347 33.3548 20.6224 32.6132 20.031C31.8661 19.4477 30.9398 19.125 29.9822 19.1143C29.0297 19.1235 28.1085 19.4466 27.3688 20.031L27.3701 20.0322ZM58.526 15.1697C56.384 15.1697 54.4296 16.1059 53.0391 17.6289V17.5729C53.0112 16.9613 52.7376 16.3848 52.2773 15.9678C51.8169 15.5507 51.2067 15.3265 50.5781 15.3434C49.9495 15.3603 49.3529 15.6171 48.917 16.0583C48.481 16.4995 48.2405 17.0898 48.2474 17.702V35.3322C48.2459 35.6405 48.3071 35.946 48.4274 36.2312C48.5477 36.5164 48.7248 36.7756 48.9484 36.9939C49.172 37.2122 49.4378 37.3852 49.7304 37.5031C50.023 37.621 50.3366 37.6813 50.6533 37.6807C50.9698 37.6811 51.2833 37.6207 51.5758 37.5027C51.8682 37.3848 52.1339 37.2117 52.3573 36.9934C52.5808 36.7752 52.7578 36.516 52.878 36.2309C52.9982 35.9458 53.0593 35.6404 53.0579 35.3322V29.828C54.4484 31.3328 56.384 32.2873 58.5448 32.2873C62.8488 32.2873 66.3438 28.4888 66.3438 23.7552C66.325 19.0229 62.8301 15.1697 58.526 15.1697ZM57.4744 28.4522C55.0311 28.4522 53.0391 26.3789 53.0391 23.793C53.0391 21.1876 55.0123 19.1143 57.4744 19.1143C59.9165 19.1143 61.9085 21.1876 61.9085 23.793C61.8897 26.3789 59.9165 28.4522 57.4744 28.4522ZM17.8054 24.9849L17.0164 26.6735C16.6588 27.4064 16.3012 28.1588 15.9635 28.9112L15.6372 29.6174C14.1342 32.8704 12.3523 36.7322 8.46591 37.5516C6.5865 37.9558 3.74925 37.4055 2.69638 35.6804C1.64476 33.9382 3.20405 31.9379 5.21476 32.3968C5.53237 32.465 5.84373 32.616 6.15885 32.7694C6.68278 33.0251 7.21422 33.2819 7.78942 33.1675C8.33461 33.0762 8.67223 32.6903 9.10488 32.1947C9.70509 31.5166 9.96894 30.8007 10.0815 30.3783L10.054 30.315C10.0453 30.2931 10.0357 30.2716 10.0252 30.2504C9.53628 29.3617 9.10863 28.5679 8.75226 27.9044C8.55191 27.5297 8.34975 27.1559 8.14579 26.7831L7.32676 25.2686C6.72655 24.1607 6.62651 23.978 6.36142 23.4996C5.777 22.4256 5.16281 21.3672 4.51952 20.3256C3.82427 19.1873 3.11027 17.9224 3.69298 16.5819C3.912 16.0629 4.32327 15.643 4.84529 15.4053C5.36731 15.1677 5.96199 15.1296 6.51147 15.2987C7.72065 15.6554 8.25708 16.7767 8.75726 17.8237C8.84854 18.0137 8.93732 18.2012 9.02986 18.3801C9.83764 19.9397 10.6267 21.4993 11.4157 23.0589C11.4857 23.2135 11.5908 23.4241 11.7208 23.6822C11.8358 23.9111 11.9696 24.1777 12.1109 24.4711L12.3198 24.8948C12.401 25.0604 12.4723 25.2016 12.5248 25.3148C12.8912 24.4261 13.2626 23.541 13.6327 22.6547C14.0041 21.7696 14.3755 20.8845 14.7419 19.9945C14.7519 19.9458 14.8394 19.7559 14.972 19.4698C15.0832 19.2275 15.2258 18.917 15.3808 18.564L15.5397 18.1902C16.0273 17.0336 16.615 15.642 17.918 15.2622C18.3805 15.1315 18.8732 15.1443 19.3279 15.2988C19.7826 15.4532 20.1766 15.7417 20.4551 16.1242C20.7365 16.5089 20.849 16.9496 20.8678 17.3903C20.8828 18.3643 20.4001 19.4089 19.985 20.3049C19.8849 20.5241 19.7874 20.7335 19.7036 20.9307L19.6536 21.0379C19.5386 21.2899 19.2259 21.9717 18.6883 23.0954C18.4944 23.4971 18.3081 23.9013 18.1193 24.3092L17.8054 24.9849Z" fill="#DDF2D0"/>
</svg>
