<svg width="105" height="40" viewBox="0 0 105 40" fill="none" xmlns="http://www.w3.org/2000/svg">
<g clip-path="url(#clip0_2321_17450)">
<path d="M45.2569 20.4716C45.2569 25.4686 41.4372 29.1507 36.7495 29.1507C32.0619 29.1507 28.2422 25.4686 28.2422 20.4716C28.2422 15.4394 32.0619 11.7925 36.7495 11.7925C41.4372 11.7925 45.2569 15.4394 45.2569 20.4716ZM41.5328 20.4716C41.5328 17.349 39.319 15.2125 36.7495 15.2125C34.1801 15.2125 31.9663 17.349 31.9663 20.4716C31.9663 23.5629 34.1801 25.7307 36.7495 25.7307C39.319 25.7307 41.5328 23.559 41.5328 20.4716Z" fill="#DDF2D0"/>
<path d="M63.6104 20.4716C63.6104 25.4686 59.7907 29.1507 55.1031 29.1507C50.4154 29.1507 46.5957 25.4686 46.5957 20.4716C46.5957 15.4434 50.4154 11.7925 55.1031 11.7925C59.7907 11.7925 63.6104 15.4394 63.6104 20.4716ZM59.8863 20.4716C59.8863 17.349 57.6725 15.2125 55.1031 15.2125C52.5336 15.2125 50.3198 17.349 50.3198 20.4716C50.3198 23.5629 52.5336 25.7307 55.1031 25.7307C57.6725 25.7307 59.8863 23.559 59.8863 20.4716Z" fill="#DDF2D0"/>
<path d="M81.1991 12.3168V27.8986C81.1991 34.3081 77.5055 36.926 73.1391 36.926C69.0288 36.926 66.5549 34.1125 65.622 31.8116L68.8644 30.4303C69.4417 31.8429 70.8564 33.5099 73.1352 33.5099C75.9302 33.5099 77.6623 31.7451 77.6623 28.4229V27.1747H77.5323C76.6988 28.2273 75.0929 29.1468 73.0664 29.1468C68.8261 29.1468 64.9414 25.3668 64.9414 20.5029C64.9414 15.6038 68.8261 11.7925 73.0664 11.7925C75.0891 11.7925 76.6949 12.712 77.5323 13.7333H77.6623V12.3207H81.1991V12.3168ZM77.9261 20.5029C77.9261 17.4468 75.9341 15.2125 73.3991 15.2125C70.8296 15.2125 68.677 17.4468 68.677 20.5029C68.677 23.5277 70.8296 25.7307 73.3991 25.7307C75.9341 25.7307 77.9261 23.5277 77.9261 20.5029Z" fill="#DDF2D0"/>
<path d="M87.0288 3.18359V28.6184H83.3965V3.18359H87.0288Z" fill="#DDF2D0"/>
<path d="M101.185 23.3281L104.075 25.3003C103.142 26.7129 100.894 29.1468 97.0093 29.1468C92.1917 29.1468 88.5938 25.3355 88.5938 20.4677C88.5938 15.3064 92.2223 11.7886 96.5926 11.7886C100.993 11.7886 103.146 15.3729 103.85 17.3099L104.236 18.296L92.899 23.1012C93.767 24.8425 95.1167 25.7307 97.0093 25.7307C98.9058 25.7307 100.221 24.776 101.185 23.3281ZM92.2873 20.2055L99.8655 16.9851C99.4488 15.9012 98.1946 15.146 96.7188 15.146C94.8261 15.146 92.1917 16.856 92.2873 20.2055Z" fill="#DDF2D0"/>
<path d="M14.4933 18.2138V14.5317H26.6177C26.7362 15.1734 26.7974 15.9325 26.7974 16.7543C26.7974 19.5169 26.0595 22.933 23.6812 25.3669C21.368 27.8321 18.4124 29.1469 14.4971 29.1469C7.24005 29.1469 1.1377 23.0973 1.1377 15.6704C1.1377 8.24341 7.24005 2.19385 14.4971 2.19385C18.5118 2.19385 21.3718 3.80602 23.5206 5.90733L20.9818 8.50559C19.4409 7.02646 17.3533 5.87602 14.4933 5.87602C9.19387 5.87602 5.04917 10.2469 5.04917 15.6704C5.04917 21.0938 9.19387 25.4647 14.4933 25.4647C17.9306 25.4647 19.8883 24.0521 21.1424 22.7686C22.1595 21.7278 22.8286 20.2408 23.0924 18.2099L14.4933 18.2138Z" fill="#DDF2D0"/>
</g>
<defs>
<clipPath id="clip0_2321_17450">
<rect width="104" height="40" fill="white" transform="translate(0.5 0.00976562)"/>
</clipPath>
</defs>
</svg>
