<svg width="20" height="26" viewBox="0 0 20 26" fill="none" xmlns="http://www.w3.org/2000/svg">
<g clip-path="url(#clip0_34_3637)">
<mask id="mask0_34_3637" style="mask-type:luminance" maskUnits="userSpaceOnUse" x="0" y="0" width="20" height="26">
<path d="M0.5 0H19.5V26H0.5V0Z" fill="white"/>
</mask>
<g mask="url(#mask0_34_3637)">
<path d="M6.75104 15.5727L7.83811 15.3182C7.87428 15.3108 7.91006 15.3017 7.94533 15.2908C8.24525 15.2095 8.50216 15.014 8.66191 14.7454C8.82166 14.4769 8.87177 14.1563 8.80168 13.8512L8.79761 13.8307C8.76178 13.6848 8.69918 13.5469 8.61304 13.4243C8.49118 13.2687 8.34044 13.1386 8.16926 13.0411C7.96752 12.9252 7.75641 12.8268 7.53818 12.7469L6.34661 12.309C5.67761 12.058 5.00625 11.8135 4.33261 11.5755C3.89425 11.4182 3.52376 11.2813 3.20211 11.1801C3.14104 11.1609 3.07318 11.1431 3.0189 11.1239C2.6294 11.0035 2.35526 10.9529 2.12318 10.9515C1.96842 10.9455 1.8142 10.9735 1.67125 11.0336C1.52279 11.0989 1.38961 11.1949 1.2804 11.3155C1.22611 11.3785 1.17454 11.4428 1.12568 11.5112C1.03292 11.6554 0.956449 11.8096 0.897684 11.971C0.676629 12.6293 0.566533 13.3204 0.571969 14.0154C0.577398 14.6449 0.593684 15.4523 0.938398 15.9983C1.02111 16.1385 1.13207 16.2597 1.26411 16.3541C1.5084 16.5237 1.75404 16.5456 2.01054 16.5648C2.39461 16.5922 2.76647 16.4964 3.13697 16.4115L6.74833 15.5713H6.75104V15.5727ZM18.8771 9.7569C18.5803 9.12873 18.1812 8.55517 17.6964 8.06005C17.5728 7.94145 17.4367 7.83683 17.2906 7.74805C17.2184 7.7085 17.1441 7.67287 17.068 7.64132C16.9215 7.57998 16.7633 7.55233 16.6048 7.56038C16.4463 7.56843 16.2917 7.61197 16.152 7.68784C15.9443 7.79184 15.719 7.95879 15.4218 8.23795C15.3811 8.279 15.3282 8.32553 15.282 8.36932C15.0364 8.60195 14.7623 8.88932 14.4365 9.22458C13.9344 9.73637 13.4377 10.2523 12.9464 10.7736L12.0643 11.6946C11.9032 11.8629 11.7565 12.0446 11.6259 12.2378C11.5146 12.4007 11.4359 12.5841 11.3938 12.7784C11.3697 12.9269 11.3734 13.0787 11.4047 13.2258C11.4047 13.2327 11.4074 13.2395 11.4088 13.245C11.4784 13.5504 11.6629 13.8166 11.9235 13.9874C12.184 14.1582 12.5002 14.2202 12.8053 14.1605C12.8418 14.155 12.878 14.1477 12.9138 14.1386L17.6123 13.0438C17.9828 12.959 18.3587 12.8796 18.6912 12.6853C18.9151 12.5553 19.1268 12.4253 19.272 12.1653C19.35 12.0217 19.3972 11.8632 19.4105 11.7001C19.4824 11.0555 19.1472 10.3234 18.8771 9.7569ZM10.4669 11.7493C10.8062 11.3183 10.8062 10.6751 10.836 10.151C10.9378 8.39669 11.045 6.641 11.1292 4.88668C11.1618 4.22163 11.2323 3.56479 11.193 2.89563C11.159 2.34279 11.155 1.70784 10.8089 1.25353C10.1968 0.455738 8.89261 0.520054 8.00368 0.645948C7.72903 0.68412 7.45637 0.735725 7.18668 0.80058C6.91526 0.866264 6.6479 0.937422 6.38597 1.02226C5.53233 1.30416 4.33261 1.82142 4.1304 2.81216C4.01504 3.37321 4.28783 3.94521 4.49818 4.457C4.75333 5.07553 5.10347 5.63384 5.42104 6.21816C6.26247 7.75763 7.11883 9.28753 7.97247 10.8202C8.22761 11.2772 8.50583 11.8561 8.99983 12.0928C9.03219 12.1072 9.06526 12.12 9.0989 12.1311C9.31917 12.2148 9.55907 12.2311 9.78846 12.1777C10.0178 12.1244 10.2265 12.0039 10.3882 11.8314C10.4158 11.8055 10.4421 11.7781 10.4669 11.7493ZM10.0584 16.4444C9.97211 16.322 9.86179 16.2187 9.73429 16.1411C9.60679 16.0634 9.46483 16.0131 9.31721 15.993C9.1696 15.973 9.01948 15.9838 8.87616 16.0247C8.73285 16.0656 8.59941 16.1358 8.48411 16.2309C8.29208 16.3835 8.12054 16.5606 7.97383 16.7577C7.93583 16.8056 7.90054 16.8699 7.85576 16.9124L7.09983 17.9592C6.67233 18.5463 6.2489 19.1347 5.8309 19.7313C5.55811 20.1172 5.32197 20.4429 5.13468 20.7316C5.0994 20.7864 5.06276 20.8466 5.02883 20.8958C4.8049 21.2434 4.67868 21.4979 4.61354 21.7251C4.56478 21.8759 4.5495 22.0357 4.56876 22.1931C4.58938 22.3571 4.64444 22.5148 4.73026 22.6556C4.77504 22.7268 4.82525 22.7952 4.87683 22.8609C4.99001 22.9921 5.11748 23.1101 5.25683 23.2126C5.77797 23.5779 6.34933 23.8421 6.95054 24.0446C7.44997 24.2115 7.96976 24.3114 8.49633 24.3415C8.6692 24.347 8.84215 24.3332 9.01204 24.3005C9.09347 24.2813 9.17218 24.2594 9.25225 24.2307C9.40558 24.1729 9.5452 24.0834 9.66211 23.9679C9.7731 23.8556 9.85834 23.7202 9.91183 23.5711C9.99868 23.3522 10.057 23.0744 10.0937 22.6611L10.1113 22.4668C10.1412 22.1247 10.1548 21.721 10.1765 21.2475C10.2131 20.5182 10.2416 19.7929 10.2633 19.0649L10.3122 17.7704C10.331 17.4601 10.3036 17.1487 10.2308 16.8467C10.1949 16.7042 10.1367 16.5684 10.0584 16.4444ZM18.5935 18.4669C18.436 18.2931 18.2135 18.1193 17.8606 17.9045C17.809 17.8771 17.7493 17.8374 17.6937 17.8046C17.4005 17.6267 17.0463 17.4392 16.6338 17.2134C15.9995 16.8636 15.362 16.5197 14.7215 16.1816L13.5897 15.5768C13.53 15.559 13.4703 15.5166 13.416 15.4892C13.1982 15.3774 12.9669 15.2946 12.7279 15.2429C12.5919 15.2171 12.453 15.2111 12.3153 15.2251C12.0889 15.2606 11.8793 15.3673 11.7165 15.53C11.5537 15.6927 11.446 15.903 11.4088 16.131C11.3906 16.2755 11.3957 16.4219 11.4237 16.5648C11.4793 16.8686 11.6137 17.1696 11.7535 17.4324L12.3588 18.5736C12.6967 19.2168 13.0373 19.8586 13.3861 20.4963C13.6128 20.9123 13.8 21.2694 13.9751 21.5636C14.009 21.6197 14.047 21.6799 14.0755 21.7306C14.2886 22.0864 14.461 22.3094 14.6347 22.4695C14.748 22.5787 14.8831 22.6622 15.031 22.7145C15.1869 22.7667 15.352 22.7854 15.5155 22.7692C15.5983 22.7583 15.681 22.7446 15.7625 22.7254C15.929 22.6791 16.09 22.6149 16.2429 22.5338C16.7016 22.2738 17.125 21.955 17.5023 21.5842C17.9543 21.1353 18.3533 20.6468 18.664 20.0885C18.7075 20.0091 18.7455 19.927 18.7767 19.8422C18.8052 19.7642 18.831 19.6834 18.8513 19.6027C18.8703 19.5206 18.8839 19.4385 18.8934 19.3536C18.9092 19.1897 18.8907 19.0242 18.8391 18.8678C18.7878 18.7178 18.7044 18.5809 18.5948 18.4669H18.5935Z" fill="#DDF2D0"/>
</g>
</g>
<defs>
<clipPath id="clip0_34_3637">
<rect width="19" height="26" fill="white" transform="translate(0.5)"/>
</clipPath>
</defs>
</svg>
