<svg width="27" height="26" viewBox="0 0 27 26" fill="none" xmlns="http://www.w3.org/2000/svg">
<path d="M25.38 13.2709C25.38 12.4259 25.3013 11.6134 25.155 10.8334H13.5V15.4484H20.16C19.8675 16.9325 18.99 18.1892 17.6737 19.0342V22.035H21.69C24.03 19.955 25.38 16.9 25.38 13.2709Z" fill="#DDF2D0"/>
<path d="M13.5001 24.9167C16.8414 24.9167 19.6426 23.855 21.6901 22.035L17.6739 19.0342C16.5714 19.7492 15.1651 20.1825 13.5001 20.1825C10.2826 20.1825 7.54889 18.0917 6.57014 15.275H2.45264V18.3517C4.48889 22.2409 8.66264 24.9167 13.5001 24.9167Z" fill="#DDF2D0"/>
<path d="M6.57 15.2642C6.3225 14.5492 6.17625 13.7908 6.17625 13C6.17625 12.2092 6.3225 11.4508 6.57 10.7358V7.65918H2.4525C1.60875 9.26251 1.125 11.0717 1.125 13C1.125 14.9283 1.60875 16.7375 2.4525 18.3408L5.65875 15.9358L6.57 15.2642Z" fill="#DDF2D0"/>
<path d="M13.5001 5.82837C15.3226 5.82837 16.9426 6.43504 18.2364 7.60504L21.7801 4.19254C19.6314 2.26421 16.8414 1.08337 13.5001 1.08337C8.66264 1.08337 4.48889 3.75921 2.45264 7.65921L6.57014 10.7359C7.54889 7.91921 10.2826 5.82837 13.5001 5.82837Z" fill="#DDF2D0"/>
</svg>
