<svg width="42" height="42" viewBox="0 0 42 42" fill="none" xmlns="http://www.w3.org/2000/svg">
  <path d="M32.4928 37.067C30.558 38.1295 28.3307 38.3652 25.9965 37.9572C23.6907 37.5868 21.278 36.5741 19.6194 36.0274C15.2853 34.4087 9.78015 32.8062 6.69719 34.0397C8.01459 32.2379 11.5268 31.9255 15.9772 33.287C20.517 34.6094 24.8186 36.9027 26.97 36.8246C30.2547 37.3067 32.9139 35.7136 35.2034 34.0667C37.4591 32.3672 39.3465 30.6111 40.2889 29.5675C40.5705 29.2753 40.4852 29.1473 40.1657 29.3709C38.4922 30.5734 35.2792 32.6015 33.4013 32.957C28.745 33.8754 26.2659 31.9336 19.5124 29.5513C15.8418 28.2558 12.3188 29.5311 10.2838 30.0348C11.2952 28.8174 12.5693 28.0175 14.1399 27.5448C17.2635 26.6372 20.6754 28.3178 23.8302 29.8449C27.0323 31.3787 29.9758 32.7591 33.2578 31.4393C37.1301 30.0092 40.0926 26.6021 41.1256 25.3444C41.3396 25.0764 41.1974 24.9552 40.9063 25.1451C39.6295 25.9948 37.0313 27.4829 35.0328 27.7885C31.7427 28.3528 29.2487 26.8984 26.4514 25.9127C23.076 24.702 18.9464 24.0421 15.7051 24.9983C19.9876 22.0235 23.5716 24.0933 27.6605 25.5544C31.7359 27.1543 35.7179 27.2499 39.7812 23.5291C40.7993 22.612 41.5481 21.5643 41.9434 20.9058C42.0978 20.6499 41.915 20.5233 41.6523 20.6984C40.7844 21.2586 39.0473 22.2996 36.7144 22.3777C34.1487 22.375 32.4576 21.633 29.204 21.2734C26.4812 20.9206 23.6948 20.8196 21.9671 21.1414C24.8632 18.9235 27.7106 20.1745 30.6839 20.8196C33.6396 21.5374 36.7185 21.6478 39.6755 18.836C40.3078 18.2232 40.8142 17.5459 41.1324 17.0489C41.2773 16.8227 41.104 16.6194 40.8657 16.719C40.3661 16.921 39.509 17.2348 37.9912 17.3694C36.6454 17.5418 33.9835 16.9668 31.9079 16.9695C29.8404 17.0436 27.8636 17.2267 26.8536 17.4287C28.963 15.6026 30.906 16.0565 33.0046 16.2234C35.068 16.4362 37.2872 16.3608 39.1353 14.5361C39.3465 14.3193 39.5063 13.9624 39.5997 13.6715C39.662 13.4776 39.4562 13.2743 39.2585 13.3241C38.9051 13.4143 38.3514 13.5113 37.6324 13.4561C36.4992 13.3887 34.938 12.6723 33.6396 12.6777C32.547 12.6952 31.3054 12.9282 30.5661 13.4237C32.857 10.8166 34.4587 12.4353 36.5899 11.8064C37.7949 11.4388 38.6127 10.6483 38.5951 10.2914C38.5788 9.98976 37.7109 10.1716 36.6522 10.045C35.2332 9.87394 35.1398 9.27872 33.1021 10.2281C34.4682 9.12924 35.7382 8.22698 36.0483 7.18736C36.5384 5.54578 36.0524 5.31281 34.582 6.27702C33.8251 6.77394 33.1955 8.09636 32.528 9.61673C32.811 7.53211 32.8367 6.90591 32.0284 5.87706C31.3176 4.97345 31.174 3.80321 30.7868 3.87593C30.539 3.92306 30.233 4.48462 30.3481 6.21642C30.5553 9.31778 32.528 9.61808 30.0056 12.539C30.4361 11.7081 30.6974 10.3547 30.5607 9.56152C30.3549 8.36164 29.9771 7.43111 29.1093 5.73701C28.6354 4.8132 28.5094 3.44903 28.351 2.90633C28.2603 2.60199 28.106 2.32861 27.9137 2.50772C27.7214 2.68682 27.1433 3.60794 26.9741 4.75799C26.5733 7.48093 27.4791 8.1179 27.9259 10.4988C28.3294 12.8608 27.8528 14.8822 26.0994 16.4578C26.5422 15.5366 27.0201 14.2654 27.1812 13.0197C27.3843 11.4536 27.563 9.99783 25.8124 5.6993C25.0799 3.90151 25.134 2.22627 25.0041 1.55833C24.9404 1.23782 24.7739 1.08969 24.5979 1.27014C24.2012 1.67953 23.7652 2.82553 23.5797 3.5608C22.6075 7.4109 22.8892 8.93398 23.6961 12.0569C24.3812 14.7098 24.4354 17.5499 21.0383 19.8433C22.047 18.5343 23.0192 16.1117 23.0828 13.3658C23.1573 10.0894 22.2352 8.03979 21.5623 5.32897C20.953 2.87805 20.9787 1.23513 21.0166 0.335559C21.0302 0.0662277 20.8176 -0.0994113 20.6755 0.0662277C20.3072 0.491772 19.7385 1.19473 19.3174 2.05524C17.6169 5.19296 18.1111 9.13463 18.6039 13.2756C19.0385 17.3425 18.7122 20.9987 14.7776 23.7674C16.7585 21.1024 18.1246 17.6024 17.9269 14.2061C17.7658 11.4132 16.7869 8.6229 16.7043 5.74779C16.6461 3.98501 16.9995 2.02293 17.1768 1.08296C17.2174 0.864799 17.0198 0.775918 16.8586 0.938864C16.0761 1.78053 14.2062 3.65104 13.2476 6.72277C12.4163 9.31104 12.8496 12.1929 13.1583 15.3346C13.4494 18.4441 13.6186 21.8107 11.8355 24.6401C10.9622 26.0837 9.99679 27.2782 8.77552 28.3164C9.29544 26.1039 11.2695 23.8657 11.7447 19.2682C12.4163 12.7666 11.2424 10.247 11.5769 6.59079C11.7244 5.10004 12.5707 2.95886 12.962 2.01081C13.0391 1.82228 12.836 1.82093 12.6546 2.00946C12.0358 2.60738 10.9202 3.87458 9.69892 5.61581C8.51149 7.37185 6.72427 9.57229 6.47379 12.4259C6.15561 16.0524 6.9233 18.1653 6.95174 22.5918C6.90705 26.9132 6.68365 31.1 5.23085 32.5167C5.84555 28.8309 6.39391 26.1577 5.52196 19.341C5.09952 16.0376 4.9736 11.3337 6.61189 8.34144C7.43645 6.61637 8.5968 4.99096 9.28054 4.03618C9.44437 3.80725 9.25076 3.8261 9.01652 4.0658C8.61846 4.4698 8.15947 4.9344 7.81556 5.29395C5.66683 7.59405 3.75504 9.87664 2.51075 12.0488C1.23126 14.2169 0.620629 16.2746 0.259122 18.0266C-0.470661 22.2174 0.305157 25.8372 3.04421 30.5263C5.36354 34.3562 3.61965 34.0707 4.13144 34.5353C4.12738 34.5353 4.12467 34.5353 4.12196 34.5367C4.15581 34.573 4.19372 34.6121 4.23028 34.6511C4.28173 34.7077 4.34537 34.775 4.42119 34.8531C4.49566 34.9312 4.562 34.9986 4.62157 35.0565C4.66219 35.0969 4.70146 35.1373 4.73937 35.175C4.74208 35.175 4.74478 35.1736 4.74885 35.1723C5.50842 36.0261 4.96142 33.9172 8.98267 36.6778C14.3051 40.4377 18.8273 42.3446 23.3888 41.9487C25.3656 41.7898 27.5427 41.2794 29.7091 40.1913C31.893 39.1005 34.085 37.3835 36.6643 34.8895C37.0841 34.4828 37.6514 33.9185 38.1808 33.3906C38.4949 33.0782 38.4245 32.9691 38.0873 33.2412C36.667 34.3858 34.5644 36.0584 32.4928 37.0697V37.067Z" fill="#DDF2D0"></path>
</svg>