<svg width="14" height="15" viewBox="0 0 14 15" fill="none" xmlns="http://www.w3.org/2000/svg">
<g clip-path="url(#clip0_34_3671)">
<path d="M12.063 9.95404C11.2173 9.23068 10.359 8.79252 9.52363 9.51478L9.02482 9.95131C8.65987 10.2682 7.98131 11.7488 5.35778 8.73078C2.73479 5.71662 4.29569 5.24731 4.66119 4.93316L5.16273 4.49609C5.99372 3.77219 5.68012 2.86089 5.08078 1.92282L4.7191 1.35463C4.11704 0.418743 3.46143 -0.195891 2.62826 0.526918L2.17807 0.920284C1.80984 1.18854 0.780529 2.0605 0.530851 3.71701C0.230363 5.7046 1.17827 7.98066 3.34997 10.478C5.51895 12.9764 7.64258 14.2313 9.65421 14.2095C11.326 14.1915 12.3357 13.2944 12.6514 12.9682L13.1033 12.5743C13.9342 11.852 13.418 11.1167 12.5717 10.3917L12.063 9.95404Z" fill="#D3EFC2"/>
</g>
<defs>
<clipPath id="clip0_34_3671">
<rect width="14" height="14" fill="white" transform="translate(0 0.209961)"/>
</clipPath>
</defs>
</svg>
