<svg width="13" height="17" viewBox="0 0 13 17" fill="none" xmlns="http://www.w3.org/2000/svg">
<path d="M6.03537 0.209961C2.70737 0.209961 0 2.91733 0 6.24491C0 11.0361 5.38779 15.8491 5.61726 16.0521C5.73726 16.1573 5.88632 16.21 6.03537 16.21C6.19032 16.21 6.34526 16.1531 6.4661 16.0399C6.69474 15.826 12.0707 10.7481 12.0707 6.24533C12.0707 2.91775 9.36253 0.209961 6.03537 0.209961ZM6.03537 9.1228C4.44589 9.1228 3.15789 7.83396 3.15789 6.24575C3.15789 4.65754 4.44589 3.3687 6.03537 3.3687C7.624 3.3687 8.912 4.65712 8.912 6.24575C8.912 7.83438 7.624 9.1228 6.03537 9.1228Z" fill="#D3EFC2"/>
</svg>
