<svg width="32" height="32" viewBox="0 0 32 32" fill="none" xmlns="http://www.w3.org/2000/svg">
<path d="M12.9116 24.67C12.7216 24.67 12.5316 24.6 12.3816 24.45C12.0916 24.16 12.0916 23.68 12.3816 23.39L18.9016 16.87C19.3816 16.39 19.3816 15.61 18.9016 15.13L12.3816 8.61002C12.0916 8.32002 12.0916 7.84002 12.3816 7.55002C12.6716 7.26002 13.1516 7.26002 13.4416 7.55002L19.9616 14.07C20.4716 14.58 20.7616 15.27 20.7616 16C20.7616 16.73 20.4816 17.42 19.9616 17.93L13.4416 24.45C13.2916 24.59 13.1016 24.67 12.9116 24.67Z" fill="#FBF6F1"/>
</svg>
