<svg width="32" height="32" viewBox="0 0 32 32" fill="none" xmlns="http://www.w3.org/2000/svg">
<path d="M19.0884 24.67C19.2784 24.67 19.4684 24.6 19.6184 24.45C19.9084 24.16 19.9084 23.68 19.6184 23.39L13.0984 16.87C12.6184 16.39 12.6184 15.61 13.0984 15.13L19.6184 8.61002C19.9084 8.32002 19.9084 7.84002 19.6184 7.55002C19.3284 7.26002 18.8484 7.26002 18.5584 7.55002L12.0384 14.07C11.5284 14.58 11.2384 15.27 11.2384 16C11.2384 16.73 11.5184 17.42 12.0384 17.93L18.5584 24.45C18.7084 24.59 18.8984 24.67 19.0884 24.67Z" fill="#FBF6F1"/>
</svg>
