<svg width="18" height="15" viewBox="0 0 18 15" fill="none" xmlns="http://www.w3.org/2000/svg">
<path d="M1.61798 13.1918C0.606742 12.0494 0 10.8032 0 8.72605C0 5.09114 2.52809 1.87164 6.06742 0.209961L6.97753 1.56007C3.64045 3.42946 2.93258 5.81812 2.73034 7.37594C3.23596 7.06438 3.94382 6.96052 4.65169 7.06438C6.47191 7.27209 7.88764 8.72606 7.88764 10.6993C7.88764 11.634 7.48315 12.5687 6.8764 13.2957C6.16854 14.0226 5.35955 14.3342 4.34832 14.3342C3.23596 14.3342 2.22472 13.8149 1.61798 13.1918ZM11.7303 13.1918C10.7191 12.0494 10.1124 10.8032 10.1124 8.72605C10.1124 5.09114 12.6405 1.87164 16.1798 0.209961L17.0899 1.56007C13.7528 3.42946 13.0449 5.81812 12.8427 7.37594C13.3483 7.06438 14.0562 6.96052 14.764 7.06438C16.5843 7.27209 18 8.72606 18 10.6993C18 11.634 17.5955 12.5687 16.9888 13.2957C16.382 14.0226 15.4719 14.3342 14.4607 14.3342C13.3483 14.3342 12.3371 13.8149 11.7303 13.1918Z" fill="#84ABA2"/>
</svg>
