<svg width="676" height="545" viewBox="0 0 676 545" fill="none" xmlns="http://www.w3.org/2000/svg">
<path d="M323.867 1.33331C320.133 1.86664 314.667 3.06665 311.867 4C302.933 6.93335 39.6 111.733 33.8667 114.667C21.3333 121.067 10.1333 135.733 3.73333 154L0 164.667V272.667V380.667L3.6 391.333C9.06667 407.6 18 420.267 29.4667 428C32.5333 430.267 70.6667 446.133 114.267 463.467C157.733 480.667 220.4 505.6 253.333 518.667C298.133 536.533 315.867 542.933 323.333 544.133C334.933 545.867 351.6 544.933 361.867 541.867C365.733 540.8 408.667 524 457.2 504.8C505.6 485.467 566.8 461.2 592.933 450.8C627.6 437.067 642.533 430.4 647.467 426.667C659.867 417.333 669.333 402.133 673.333 384.8C676.267 372.4 676.267 172.533 673.333 160.133C669.2 143.067 656.533 123.733 644.267 116.133C641.867 114.667 577.867 88.8 502 58.6667C402.4 19.0667 361.2 3.20001 354 1.86664C343.2 0 334.533 -0.266663 323.867 1.33331ZM350 17.3333C356.133 18.1334 378.267 26.4 425.333 45.0667C462 59.7333 524.933 84.6667 565.067 100.667C634.933 128.4 638.4 129.867 644.4 135.867C651.867 143.2 658.4 155.2 660.667 165.333C661.733 170.667 662 201.067 661.733 277.333L661.333 382L656.933 391.2C651.467 402.8 644.8 411.067 637.6 415.2C634.533 416.933 602.267 430.267 566 444.667C529.733 459.067 468.533 483.333 430 498.667C354.933 528.533 349.067 530.267 331.2 528.933C318.533 527.867 322.933 529.467 197.067 479.467C142.933 458 85.2 435.067 68.8 428.533C42.2667 418 38 416 31.7333 410.267C23.7333 402.8 16.1333 388.933 14 377.467C13.2 373.067 12.6667 332.133 12.6667 272.8C12.6667 167.2 12.8 164.8 20 150.667C24.4 142 33.0667 132.533 39.6 129.2C42.4 127.733 68 117.333 96.4 106.133C124.8 94.8 185.867 70.5333 232.267 52.1333C278.533 33.7333 319.6 18.1334 323.6 17.4667C333.333 15.8666 339.867 15.8666 350 17.3333Z" fill="white"/>
<path d="M322 24.9333C319.067 25.4667 260.933 48.4 80.6665 120C47.4665 133.2 40.3998 136.533 35.0665 141.2C27.8665 147.6 21.3332 159.733 19.3332 170.533C17.4665 180.4 17.5998 363.2 19.4665 374.533C21.1998 385.733 26.2665 395.733 33.7332 403.333C39.3332 408.8 43.0665 410.667 79.8665 425.2C102 434 158.667 456.533 206 475.333C253.333 494.133 298.267 512 306 515.067L320 520.667H338H356L492.533 466.267C567.6 436.267 631.333 410.667 634 409.333C640.667 405.867 646.933 398.533 651.867 388L656 379.333V272.667V166L652.4 158.267C647.867 148.667 642 141.067 636.266 137.467C630.533 134 364.667 28.4 355.333 25.8667C348.667 24.1333 329.6 23.6 322 24.9333ZM354.667 34.6667C358.4 35.6 387.467 47.0667 560.267 115.867C628.933 143.2 631.2 144.267 636.667 150.133C645.6 159.867 646.533 163.067 647.333 188.4C647.733 200.667 647.733 210.667 647.333 210.667C646 210.667 642 203.067 642.933 202.267C643.333 201.733 642.667 199.2 641.333 196.533C639.466 192.533 639.333 191.467 640.8 190.533C642.266 189.733 642.133 189.333 640.533 188.667C639.333 188.267 636.667 184.267 634.667 180C632.533 175.6 630.133 172 629.2 172C627.6 172 624.667 181.6 624.667 187.2C624.667 189.067 623.466 191.867 622 193.333C619.2 196.133 618.4 198 620.533 196.667C623.2 195.067 623.333 198.933 620.8 202.533C617.733 206.933 617.2 208.667 619.6 207.2C620.667 206.533 620.8 206.933 620.266 208.4C619.867 209.6 620 210.933 620.8 211.333C622.667 212.533 620.933 214.667 618.133 214.667C614.667 214.667 612.133 211.067 611.867 205.733C611.867 202.933 612.133 201.867 612.8 202.933C613.6 204.133 614 203.333 614.133 200.667C614.266 198.4 614.266 196.133 614.133 195.467C614 194.667 613.466 192.4 613.067 190.267C612.533 187.467 612.667 186.533 613.733 187.2C616 188.533 615.733 186.4 613.2 182.933C612 181.2 611.333 178.4 611.733 176.533C612.133 174.267 611.6 172.8 609.867 171.867C606.933 170.4 603.333 163.867 603.333 160.133C603.333 157.467 601.067 155.067 599.867 156.4C599.466 156.667 598.533 161.2 597.733 166.133C597.067 171.2 595.733 176.133 594.8 177.2C593.733 178.667 593.733 179.2 595.067 179.6C597.333 180.4 597.067 182.667 594.667 182.667C593.6 182.667 592.133 181.467 591.333 180.133C589.733 177.067 589.6 176 591.067 176.133C594.933 176.8 591.6 172.533 583.067 166.133C580.266 164 578.266 161.867 578.667 161.333C579.067 160.667 578.133 158.133 576.533 155.467C574.8 152.533 574.133 149.733 574.667 148C575.2 146.4 574.933 145.333 574 145.333C573.2 145.333 572.667 144.533 572.933 143.733C573.333 142.8 572.4 141.067 570.933 139.867C569.466 138.8 567.2 135.067 565.867 131.867C564.533 128.267 563.333 126.8 562.933 128C562.533 129.067 561.2 132.933 560 136.667C558.8 140.267 557.733 144.933 557.6 146.933C557.6 149.067 557.2 150.667 556.8 150.667C555.733 150.667 552.933 146.133 549.733 139.6C548.267 136.8 546.533 134.667 545.6 135.067C544.8 135.333 543.333 138.667 542.4 142.533C541.333 146.4 539.6 151.067 538.4 152.8C536.533 155.733 536.533 156 538.667 156C540.667 156 540.533 156.667 537.6 161.6C535.867 164.8 534.667 168 534.933 168.933C535.6 170.933 533.067 172.4 532 170.667C530.667 168.4 530.267 160 531.467 160.8C533.2 161.733 532.933 161.067 530.533 156C528.8 152.667 528.667 151.467 530 150.667C531.2 150 530.933 148.133 528.933 143.2C527.467 139.6 525.867 134.4 525.333 131.6C524.267 125.067 522.667 125.333 520.667 132.667C519.733 136 517.467 140.267 515.6 142.267C513.6 144.533 512.933 146.133 513.867 146.4C515.067 146.8 515.067 147.467 513.733 148.933C512.933 150 512.267 153.733 512.4 157.067C512.667 162.933 512.533 163.2 510.667 160.8C508.267 157.6 508 154.667 510.4 154.667C511.2 154.667 510.533 153.467 508.8 152.133C507.067 150.8 506 149.067 506.533 148.267C507.067 147.333 506.667 145.333 505.867 143.733C504.4 140.933 504.4 140.8 506.533 142.533C508.667 144.267 508.8 144.133 508.133 141.2C507.733 139.467 507.067 134.133 506.667 129.333C505.733 120.267 503.333 113.2 500 109.867C498.933 108.667 498 106.133 498 104C498 101.867 497.467 99.8667 496.8 99.3333C494.933 98.2667 492.667 103.2 492.667 108.4C492.667 111.067 491.467 114.533 489.867 116.533C488.4 118.4 487.733 120 488.533 120C490.533 120 490.4 122.667 488.133 126.933C486.933 129.2 486.667 130.667 487.6 130.667C488.4 130.667 488 132.267 486.667 134.133C484.8 136.933 484.8 137.867 486.133 138.667C487.467 139.6 487.467 140.267 486.267 141.733C485.333 142.8 484.933 144.667 485.467 145.867C485.867 147.067 485.6 148 484.8 148C484 148 483.333 148.933 483.333 150C483.333 154 477.6 150.8 475.467 145.6C474.4 143.067 471.333 140.4 467.333 138.133C463.733 136.133 460.667 134.133 460.4 133.6C460.133 133.067 457.733 130.8 454.933 128.667C452.133 126.667 448.267 122 446.533 118.4C444.667 114.8 441.867 111.333 440.267 110.8C438.667 110.133 432.267 104.533 426 98.2667C418.4 90.6667 413.2 86.6667 410.4 86.1333C407.333 85.4667 404.8 83.2 401.333 78.5333C394 68.2667 378.8 62.9333 375.333 69.4667C374.533 70.9333 371.333 73.2 368.267 74.5333C365.2 75.8667 361.867 78 360.8 79.2C359.867 80.4 356.667 82 353.867 82.6667C350.267 83.6 347.067 86.1333 343.2 90.6667C337.867 96.9333 337.467 97.2 335.2 95.2C333.867 94 332.4 92 332 90.6667C331.6 89.3333 328.533 87.3333 325.2 86C319.467 83.8667 318.667 83.8667 314.4 85.8667C310 88 309.733 88 305.867 85.0667C303.733 83.3333 298.933 79.2 295.333 75.6C291.6 72 287.6 69.3333 285.867 69.3333C284.133 69.3333 280 72.4 275.333 76.9333C264 88.4 254.533 96 251.867 96C250.533 96 248.267 97.0667 246.8 98.4C245.2 99.7333 241.867 101.733 239.333 102.667C236.8 103.6 233.2 105.733 231.333 107.333C225.867 112 220.933 114.667 217.733 114.667C216 114.667 211.6 116.8 208 119.467C204.267 122.133 197.6 125.867 193.067 128C188.667 130 183.867 133.2 182.667 135.2C180 139.2 170.667 144.667 163.067 146.8C159.867 147.6 157.467 149.2 157.067 150.533C156.667 151.867 154.933 153.733 153.066 154.533C150.267 155.867 149.467 155.6 147.2 153.067C145.867 151.333 144.933 148.933 145.2 147.733C146 144.133 140.267 128.667 138.133 128.667C137.067 128.667 135.6 130.4 134.933 132.667C134.267 134.8 132.133 138.667 130.4 141.067C128.533 143.467 126.933 146.8 126.667 148.4C126.533 150 125.2 153.467 123.867 156C120.667 162.133 120 174.667 122.933 174.667C124.533 174.667 124.8 175.467 124 178.267C122.8 183.067 120.933 185.333 118.667 184.533C116.933 183.867 116.667 176.933 118.4 175.2C118.933 174.667 118.133 173.333 116.533 172.267C114.933 171.2 114.133 169.6 114.667 168.4C115.066 167.2 114.533 165.067 113.6 163.467C112.533 161.867 110.667 157.867 109.333 154.267C106.533 146.933 104.133 146.267 102.133 152.267C101.333 154.533 99.1998 158.4 97.3332 160.8C95.4665 163.2 94.6665 165.333 95.4665 165.6C96.3998 165.867 96.2665 167.333 95.1998 170C93.4665 174.267 92.9332 177.6 92.5332 186C92.3998 188.933 91.7332 192.533 90.9332 194C89.5998 196.533 89.5998 196.4 88.3998 193.467C87.8665 191.867 87.5998 189.867 88.1332 189.2C88.5332 188.533 88.3998 187.2 87.7332 186.267C86.3998 184.267 86.2665 178.667 87.4665 178.667C87.9998 178.667 87.5998 177.067 86.5332 174.933C84.3998 170.667 84.1332 168 85.9998 168C86.9332 168 86.9332 167.2 86.1332 165.6C84.2665 162 80.6665 149.333 80.6665 146.133C80.6665 142.133 78.3998 145.733 76.5332 152.933C75.7332 156 74.2665 158.8 73.4665 159.067C72.5332 159.467 70.9332 162.533 69.9998 165.867C69.0665 169.333 67.7332 172.4 67.1998 172.8C66.5332 173.2 65.9998 174.133 65.9998 174.8C65.9998 175.6 66.6665 175.733 67.3332 175.333C69.0665 174.267 69.0665 175.2 66.7998 180.667C65.4665 183.6 65.3332 185.333 66.2665 185.333C67.0665 185.333 67.3332 186.8 67.0665 188.667C66.3998 191.733 67.7332 193.333 69.0665 190.933C69.3332 190.4 69.3332 190.933 68.9332 192C68.6665 193.067 68.2665 195.733 67.9998 198C67.0665 206 65.7332 210.667 64.5332 209.867C63.8665 209.467 63.3332 208 63.3332 206.667C63.3332 205.333 62.3998 203.6 61.3332 202.933C59.5998 202 59.4665 201.067 60.6665 198C61.5998 195.6 61.5998 193.867 60.7998 193.467C58.6665 192.133 57.4665 185.333 59.3332 185.333C60.5332 185.333 60.5332 184.8 59.1998 183.2C57.3332 180.933 56.6665 178.933 55.9998 173.2C55.8665 171.333 54.9332 168.4 54.1332 166.933C53.3332 165.467 52.6665 162.8 52.6665 161.2C52.6665 157.067 50.7998 159.467 48.6665 166.267C47.7332 169.333 45.9998 172.933 44.7998 174.267C42.6665 176.533 37.8665 187.733 37.1998 192C36.9332 193.067 36.2665 196.667 35.4665 200C34.5332 204.533 34.6665 207.067 36.3998 211.067C37.9998 215.2 38.1332 216.933 36.9332 218.8C35.9998 220.133 35.3332 222.533 35.3332 223.867C35.3332 225.333 34.6665 226.933 33.9998 227.333C33.1998 227.867 32.9332 229.467 33.3332 230.933C34.3998 234 31.3332 244.933 28.9332 246.933C27.4665 248.133 27.1998 241.333 27.5998 207.867L27.9998 167.333L31.7332 159.6C33.8665 155.467 37.8665 150 40.6665 147.733C47.0665 142.267 315.733 35.2 327.333 33.3333C334.933 32.1333 347.867 32.8 354.667 34.6667ZM390.267 74.2667C396 77.7333 399.067 83.6 401.333 95.4667C402.4 101.333 403.867 108.533 404.533 111.733C406 118.933 404.267 118.667 398 110.4C392.4 102.933 383.867 96 380.533 96C377.067 96 374.8 104.667 377.2 108.267C378.267 109.733 378.8 112 378.4 113.333C378 114.933 378.933 116.533 381.6 118.133C383.6 119.467 386.4 121.6 387.733 122.933C389.067 124.267 391.333 125.333 392.8 125.333C395.867 125.333 400.133 131.6 402.133 139.333C404.8 149.067 407.2 153.333 410 153.333C412.4 153.333 412.667 152.4 412.667 145.2C412.667 140.667 412 134.667 411.067 131.867C410.267 128.933 410 126.267 410.533 125.733C412.533 123.733 415.733 129.6 418.8 140.667C422.667 154.4 425.733 160 427.6 156.8C428.267 155.6 428.533 153.467 428 152.133C427.067 148.933 429.2 147.467 431.2 149.867C432.8 151.867 433.333 157.067 432.933 167.2L432.667 173.6L425.733 166.8C419.467 160.8 418.667 160.267 418.267 162.8C418 164.267 418.267 166.533 418.8 167.733C420.4 171.333 420.133 182.533 418.4 183.2C416.133 184.133 410.933 182.533 408.267 180.133C406.933 178.933 402.933 177.067 399.6 175.867L393.467 173.733L397.067 170.133C400.533 166.667 400.933 166.533 404 168.533C408.267 171.333 410.933 171.467 408.667 168.667C405.867 165.2 402.133 165.067 395.733 168.133C387.067 172.267 381.733 172.4 373.733 168.4C362.667 162.8 353.467 166.533 349.333 178.4C348.133 181.867 346.533 185.733 345.867 186.933C345.2 188.267 345.067 190.133 345.467 191.2C345.867 192.4 344.4 194.667 341.733 196.933C339.333 198.933 333.733 204.267 329.333 208.533C324.933 212.933 320.933 216.4 320.4 216.267C320 216.133 318.8 216.933 318 218C316.667 219.6 316.8 220.133 318.533 220.8C319.867 221.333 322.4 220.133 325.2 217.867C327.6 215.733 332.533 212.267 336.133 210.267C349.733 202.533 353.333 200 353.333 198.4C353.467 197.467 353.867 195.733 354.267 194.667C354.8 193.6 355.867 190.4 356.667 187.733C357.467 184.933 358.667 182.4 359.2 182C360.8 181.067 369.2 184.4 370.933 186.667C372.133 188.4 376 188.8 389.733 189.067C399.2 189.333 409.067 190 411.467 190.667C414 191.467 418.267 192 420.933 192C424.667 192 427.6 193.2 432.133 196.8C439.333 202.133 447.6 206.667 450.533 206.667C454.667 206.667 453.867 204 448.667 200.533C445.733 198.533 443.333 196.533 443.333 196C443.333 195.467 446.133 195.467 449.467 196.133C456.667 197.467 458.533 196.8 456.667 193.333C454.933 190.133 448.4 188 440.533 188C433.733 188 433.467 187.733 435.2 183.333C436.267 180.8 436.267 180.8 437.867 183.733C439.733 187.333 444.133 187.867 442.667 184.267C437.6 171.867 437.6 171.467 440 148.933C440.533 144 440.267 142.4 438.667 141.867C437.067 141.2 436.933 140.533 438.133 139.2C440.533 136.267 441.733 138.133 445.467 150.267C448 158.8 448.8 163.333 448.133 167.867L447.333 174L450 170.667C453.733 166 454.533 161.867 452.933 156.267C450.533 148 449.6 140.933 451.2 142C452 142.4 452.667 143.733 452.667 144.8C452.667 145.867 453.067 146.667 453.733 146.667C454.267 146.667 454.8 148 454.933 149.6C455.2 154.133 458.133 165.867 459.333 167.333C460.533 168.8 461.333 182.8 460.533 187.2C459.733 191.333 463.2 191.2 464.133 187.067C464.667 185.067 465.6 182.533 466.4 181.733C467.067 180.8 467.2 177.867 466.8 175.333C465.333 168.133 469.467 157.333 473.6 157.333C475.067 157.333 475.467 158.533 475.067 162C474.8 164.533 475.067 166.667 475.6 166.667C476.133 166.667 476.667 165.867 476.667 164.8C476.667 161.067 479.333 161.2 484.4 165.333C488.933 168.933 490 170.8 492.667 181.067C496.533 196.4 497.067 199.6 496.133 202.133C495.467 203.867 494.533 203.6 490.133 200.133C484.133 195.333 482.667 194.933 484.667 198.667C486 201.067 485.733 201.333 481.067 201.333C478.267 201.333 474.667 200.533 473.2 199.467C469.867 197.067 460.667 195.2 460.667 196.933C460.667 198.667 464.267 201.6 469.333 204C471.6 205.067 473.867 206.8 474.4 207.6C474.933 208.533 476.4 209.333 477.333 209.333C479.733 209.333 480 211.6 477.733 212.267C476.8 212.667 476 214.267 476 216.133C476 220.933 470.667 221.2 465.867 216.667C462.8 213.6 461.067 213.067 455.2 213.2C451.333 213.2 447.467 212.667 446.533 211.867C443.867 209.733 435.467 208 434.533 209.6C433.467 211.333 423.2 209.6 420.533 207.2C419.467 206.133 417.467 205.333 416.133 205.333C414.933 205.333 413.6 204.4 413.2 203.333C412.8 202.267 411.067 201.467 409.6 201.6C405.6 201.867 397.2 198.933 395.333 196.533C394.4 195.6 393.2 194.667 392.533 194.667C390.533 194.667 391.2 200 393.333 200.8C394.4 201.333 395.333 202.8 395.333 204.4C395.333 207.467 400.267 213.333 402.8 213.333C403.733 213.333 404.8 214.533 405.333 215.867C406.667 220.267 409.067 221.333 414.667 220C418.533 219.067 420.8 219.333 423.733 220.933C426.533 222.267 430 222.8 434.533 222.267C438.267 222 442.133 222.133 443.333 222.667C444.4 223.2 450.267 226.133 456.133 229.2C462.133 232.133 468.8 234.667 471.067 234.667C473.467 234.667 479.067 236.133 483.6 237.867C488.267 239.6 497.333 242.4 503.867 243.867C510.4 245.467 520.4 249.067 526.133 252C536.4 257.2 536.667 257.2 538.133 254.533C539.2 252.267 539.067 251.467 537.067 249.867C535.733 248.933 534 248 533.333 248C532.533 248 530.533 247.067 528.933 245.867C525.867 243.733 525.867 243.733 528.4 241.867C530.667 240.267 532.667 240.533 543.467 243.333C564.667 248.8 571.733 250.667 578.133 252.667C581.6 253.733 585.333 254.667 586.667 254.667C587.867 254.667 590.4 255.867 592.266 257.333C594.133 258.8 596.8 260 598.266 260C599.6 260 603.067 261.2 606 262.667C608.933 264.133 612.133 265.333 613.333 265.333C614.4 265.333 615.333 266.267 615.333 267.333C615.333 268.533 617.6 269.867 621.2 270.8C624.533 271.6 628.133 273.467 629.466 274.8C630.667 276.133 632.933 277.333 634.4 277.333C638.933 277.333 644.266 281.6 645.867 286.533C647.067 289.867 647.333 304.4 647.067 335.333C646.667 378.8 646.667 379.467 643.466 385.867C636.933 399.067 636 399.6 570.667 425.467L510.8 449.333H337.6H164.533L104 425.333C47.5998 402.8 43.1998 400.8 38.6665 395.733C35.8665 392.8 32.3998 387.6 30.7998 384.133C28.1332 378.267 27.9998 375.733 27.5998 329.467C27.1998 273.467 26.1332 277.6 41.1998 273.2C46.3998 271.6 51.3332 269.867 52.1332 269.2C53.0665 268.533 56.9332 267.067 61.0665 266C65.0665 264.933 72.3998 262.267 77.3332 260C83.3332 257.2 87.5998 256.133 89.5998 256.667C92.1332 257.2 92.6665 256.933 92.3998 255.067C92.1332 253.467 92.7998 252.667 94.2665 252.8C97.0665 253.067 97.3332 251.867 95.0665 249.6C93.8665 248.4 93.8665 248 95.0665 248C95.9998 248 96.6665 246.933 96.6665 245.6C96.6665 244.267 97.3332 242.533 98.2665 241.6C100.533 239.333 103.466 239.6 102.533 242C102 243.067 102.4 244 103.2 244C105.466 244 112.667 251.333 112.667 253.6C112.667 256 118.533 260.267 120 258.933C120.533 258.4 121.6 258 122.4 258C123.333 258 124.267 254.933 124.667 250.667L125.333 243.333L134.667 242.267C144.133 241.333 149.2 238.8 151.867 233.867C154.133 230 155.6 229.2 159.867 230C162.533 230.4 166.4 229.2 173.867 225.467C179.467 222.667 184.933 220 186 219.467C187.067 219.067 189.067 218 190.267 217.067C193.6 214.667 194.533 216.533 192 220.533C190.133 223.333 190.133 224 191.6 224C194.667 224 203.2 217.467 205.333 213.333C208.533 207.2 214.4 201.6 218.667 200.533C222.4 199.733 222.133 200.267 214.4 208.267C205.733 217.067 203.333 221.6 209.067 218.4C210.667 217.467 212.933 216.667 214.133 216.667C216.933 216.667 236.267 199.067 238.8 194.4C241.867 188.4 238.4 188.533 232.667 194.667C228 199.6 224.933 200.267 226.667 195.733C227.467 193.867 235.867 188 238 188C238.667 188 240.133 186.267 241.333 184C243.867 179.067 248.133 176.533 249.2 179.333C250.4 182.4 254.667 181.733 256.667 178C257.6 176.267 260.4 174.133 262.933 173.2C265.867 172.267 267.333 170.933 267.333 169.2C267.333 166.533 269.067 162.8 273.067 157.467C274.267 155.733 275.333 153.067 275.333 151.467C275.333 148.667 281.733 134.667 283.733 133.2C284.933 132.4 296.8 133.2 297.867 134.133C298.267 134.533 297.733 135.467 296.933 136.267C296 137.2 295.333 139.2 295.333 140.933C295.333 144.4 293.067 149.867 289.467 155.333C288 157.467 286.533 160.4 286.267 162C286.133 163.467 285.333 164.8 284.667 165.067C282.933 165.733 282.933 169.333 284.8 169.333C285.6 169.333 285.867 170.533 285.333 172C284.8 173.867 285.067 174.667 286.4 174.667C287.467 174.667 289.733 171.467 291.333 167.2C293.067 163.067 295.733 158.133 297.333 156.133C299.867 153.067 303.333 147.2 309.867 135.333C315.333 125.467 317.6 122.667 321.2 121.333C323.333 120.533 325.467 120.267 325.733 120.667C326.133 121.067 325.067 125.6 323.467 130.667C321.333 136.933 319.6 140.133 317.867 140.667C316.4 141.2 314.267 143.467 313.2 145.733C310.667 150.533 308.133 153.333 306.267 153.333C305.6 153.333 304.667 154.4 304.133 155.6C303.733 156.933 302.667 159.067 301.733 160.267C300.4 162.133 300.533 163.067 302.667 165.467L305.333 168.267L296 176.8C290.933 181.467 286.133 185.333 285.333 185.333C284.667 185.333 287.467 182.133 291.733 178.267C295.867 174.4 299.333 170.8 299.333 170.267C299.333 168.4 297.067 169.467 291.067 174.267C287.733 177.067 282 181.733 278.267 184.533C271.733 189.6 267.2 196 270.133 196C270.8 196 270.533 197.333 269.467 198.933C268.267 200.533 267.333 202.4 267.333 202.933C267.333 205.067 271.867 203.867 276.133 200.667C278.533 198.8 281.2 197.333 282 197.333C282.8 197.333 284.933 196.4 286.667 195.2C291.067 192.267 290.933 195.2 286.667 198.267C281.067 202.133 270.933 212.133 271.733 212.933C272.133 213.333 275.2 211.733 278.533 209.467C285.2 204.8 286.267 204.533 285.2 207.333C283.6 211.467 288.133 209.2 295.067 202.267C300.667 196.933 302.133 196 301.333 198.533C300.267 201.867 301.6 201.6 306.4 197.6C309.867 194.533 309.333 198.4 305.733 202.267C303.6 204.533 303.2 205.733 304.4 206.933C305.467 208 307.2 207.6 311.2 204.933C316.4 201.467 319.333 201.467 316.4 204.933C313.6 208.4 316.8 208.4 320.4 204.933C322.533 202.933 324.8 201.333 325.733 201.333C326.667 201.333 327.333 200.4 327.333 199.333C327.333 198.267 328.533 197.333 330 197.333C331.6 197.333 334.133 196 335.733 194.267C337.333 192.533 339.6 190.8 340.933 190.267C343.6 189.333 346.8 176.4 345.467 171.467C344.133 165.867 337.333 168 333.2 175.333C331.333 178.667 326.933 179.867 328.133 176.8C329.6 173.067 327.467 174.4 317.867 183.467C312.667 188.267 308.133 191.867 307.733 191.467C307.2 191.067 308.133 189.333 309.733 187.6C313.333 183.867 313.733 180.667 310.4 182.4C309.2 183.067 304.4 187.467 299.867 192.133C295.2 196.667 291.067 200.133 290.533 199.733C289.333 198.4 311.333 178.133 315.2 177.067C320.933 175.467 330.4 165.333 326.133 165.333C323.467 165.333 304.533 180.133 296.933 188.267C294.933 190.4 292.933 192 292.4 192C287.6 192 299.733 177.333 312.933 167.067C318.267 163.067 320.533 160.4 320.133 159.067C319.6 158 321.067 153.333 323.2 148.8C325.467 144.267 327.867 136.267 328.667 130.933C330.533 118.133 332.133 114.533 341.067 103.333C352.4 89.3333 354.933 86.6667 356.667 86.6667C357.6 86.6667 356.533 88.6667 354.267 91.2C352 93.7333 349.867 97.0667 349.333 98.6667C348.8 100.267 346.933 103.733 345.2 106.267C342.8 109.867 342 112.8 342 118.133C342 122.133 341.467 125.333 340.933 125.333C340.267 125.333 339.733 128.667 339.733 132.667C339.733 137.2 338.933 140.933 337.733 142.4C335.067 145.333 334.933 152.4 337.6 158.8C339.867 164.8 339.6 164.667 344.4 162.133C352.267 158.133 353.2 155.733 353.467 140.133C353.467 132.133 353.067 122.4 352.267 118.4C350.533 108.667 351.6 104.933 358.4 98.1333C367.067 89.2 370.533 84.8 370.267 82.9333C370 82.1333 370.533 81.3333 371.333 81.3333C372 81.3333 372.667 82.1333 372.667 82.9333C372.667 84.8 382.133 92 384.533 92C385.333 92 388 93.8667 390.667 96.1333C393.333 98.5333 395.867 99.8667 396.4 99.3333C396.933 98.9333 396.133 97.4667 394.533 96.1333C390.133 92.5333 387.067 87.0667 385.2 79.3333C383.333 71.2 384 70.6667 390.267 74.2667ZM286 86C286 87.0667 285.2 88.4 284.267 88.9333C283.467 89.4667 281.733 91.7333 280.8 93.7333C279.733 95.7333 276.8 99.7333 274.533 102.533C269.733 108.133 266.267 116.133 264.8 125.333C264.267 128.667 262 135.467 259.867 140.667C256.8 148 254.8 150.667 250.4 153.6C247.333 155.733 244.4 158.4 244 159.733C243.067 162.4 228.533 172 225.333 172C223.2 172 212.667 177.467 208.667 180.8C207.6 181.6 204.8 182.8 202.533 183.2C199.067 184 198.267 183.6 196.933 180.667C194.4 175.333 191.2 176.933 189.467 184.533C188.533 188 188.267 188.267 186.4 186.267C184.933 184.8 184.533 182.933 185.2 179.467C186.267 173.6 187.733 172.667 192.133 175.067C198.133 178.133 207.6 175.867 214.933 169.467C218.267 166.4 221.6 164 222.267 164C225.6 164 232.4 159.6 233.733 156.667C234.667 154.8 236.133 153.333 237.2 153.333C238.133 153.333 239.467 151.733 240 149.6C240.4 147.6 241.867 144.933 243.067 143.6C245.333 141.067 248.267 132.267 249.6 124.133C250.533 118.133 247.2 119.067 245.333 125.467C243.733 130.933 238.267 139.6 233.467 143.867L230 147.067V144C230 140.933 229.867 140.933 226 145.333C221.6 150.533 221.067 152.267 224 151.2C227.6 149.733 226.133 154.533 222.4 156.933C220.267 158.133 217.333 160.4 215.6 161.867C209.867 166.933 192.8 170.533 194.4 166.267C194.667 165.467 196.133 161.467 197.467 157.467C199.2 152.533 201.2 149.467 203.6 148.133C205.6 146.933 208.533 143.733 210 141.067C213.467 134.933 215.333 134.667 215.333 140.133C215.333 144 215.6 144.267 218.933 143.333C224.667 142 227.6 137.067 229.2 126.533C229.867 122.133 231.467 118.933 234.8 115.333C237.333 112.533 239.867 110.667 240.267 111.2C240.8 111.733 240.667 112.533 240 113.067C238.667 114 237.067 117.067 234.133 124.4C233.333 126.4 232.667 130.4 232.667 133.067L232.8 138L236.4 133.733C243.2 125.867 249.2 114.933 249.6 110C249.867 104.933 251.867 101.333 254.4 101.333C258 101.333 273.733 92.2667 278.267 87.6C282.933 82.6667 286 82 286 86ZM303.067 94.1333C303.733 94.6667 300.933 99.6 298.533 101.867C295.067 105.467 294 104.267 294 96.8C294 91.6 293.467 89.4667 292 88.8C290.933 88.4 290 86.8 290 85.2C290 82.6667 290.667 82.9333 296.4 88C299.867 91.2 302.8 94 303.067 94.1333ZM320 92.8C320 94.2667 320.8 96.5333 321.6 97.6C322.533 98.6667 323.733 102.4 324.133 105.867C324.933 111.467 324.8 112 322.133 112C319.867 112 319.333 111.2 319.333 107.467C319.333 102.667 317.333 100.133 315.2 102.267C314.533 102.933 314.933 105.733 316.267 109.2L318.533 114.8L314.533 118C312.4 119.867 310 121.2 309.2 121.333C308.533 121.333 305.333 122.533 302.267 124C293.067 128.533 290.4 127.467 293.333 120.4C294.4 117.733 295.333 114.8 295.333 113.6C295.333 111.733 300.8 104.933 310.933 94.2667C316.133 88.9333 320 88.2667 320 92.8ZM414.533 93.6C417.333 96.1333 418 98 418.133 104.4C418.4 109.2 417.867 112.667 416.8 113.733C414.133 116.267 409.067 108.933 408.267 101.467C408 98.1333 407.2 94.2667 406.667 92.9333C405.2 89.4667 410.4 90 414.533 93.6ZM287.2 113.467C286.4 116.667 285.467 121.2 285.067 123.6C284.667 126.133 283.067 128.8 281.2 130C277.467 132.4 277.467 132.667 280 121.333C280.933 116.667 281.467 112.267 281.067 111.6C280.667 110.933 282 108.933 284.133 107.067C288.8 103.067 289.467 104.667 287.2 113.467ZM428.4 109.6C429.067 110.533 429.2 112.533 428.667 114C427.733 116.4 427.467 116.4 426.133 112.933C425.333 110.8 424.667 108.933 424.667 108.533C424.667 107.333 427.067 108.133 428.4 109.6ZM438.133 114.667C441.467 116.533 441.467 120 438.133 120C435.467 120 431.333 116.667 431.333 114.533C431.333 112.933 434.933 112.933 438.133 114.667ZM434.8 123.333C437.6 126.933 438 128.533 436.8 129.733C435.733 130.8 434.8 130.533 433.2 128.267C431.467 125.867 430.667 125.467 429.2 126.8C427.733 128 427.333 127.733 427.333 125.6C427.333 122 428.667 118.667 430.133 118.667C430.667 118.667 432.8 120.8 434.8 123.333ZM206 129.2C206 130 205.467 130.933 204.667 131.333C203.067 132.4 200.267 138.667 197.467 148C196 153.2 193.2 157.6 188 163.333C183.6 168.267 180.8 170.533 180.667 169.2C180.667 168 182.533 165.067 184.667 162.667C187.333 159.733 188.667 157.067 188.667 154.133V150L185.6 155.2C181.333 162.8 178.667 163.2 179.733 156.133C180.133 153.2 179.867 150.667 179.333 150.667C177.867 150.667 172.933 156.933 172 160C170.8 164 167.467 164.4 166 160.667C165.2 158.533 163.733 157.333 161.867 157.333C160.267 157.333 159.333 156.667 159.733 155.6C160 154.8 162.4 154 164.933 154C169.067 154 170.8 152.8 178.133 145.067C188.133 134.667 206 124.533 206 129.2ZM220.667 129.867C220.667 130.133 220.267 131.333 219.867 132.533C218.667 135.6 216.667 135.2 216.667 132C216.667 130.533 217.6 129.333 218.667 129.333C219.733 129.333 220.667 129.6 220.667 129.867ZM558.933 156.267C558.533 157.333 558.133 156.933 558.133 155.467C558 154 558.4 153.2 558.8 153.733C559.2 154.133 559.333 155.333 558.933 156.267ZM157.733 162.4C157.2 166.533 155.467 167.333 152 164.933C148.667 162.4 150.267 158.933 154.667 158.933C157.6 158.933 158.133 159.467 157.733 162.4ZM166.4 170.533C165.867 172.667 159.333 177.067 159.333 175.2C159.333 174.667 166.133 168.133 166.933 168C166.933 168 166.8 169.067 166.4 170.533ZM167.333 185.2C167.333 185.867 166.4 187.067 165.333 188C163.6 189.333 163.333 189.2 163.333 186.8C163.333 185.2 164.133 184 165.333 184C166.4 184 167.333 184.533 167.333 185.2ZM593.733 190.133C594.266 189.867 594.8 191.067 594.8 192.8C594.933 194.533 594.533 196 594 196C592.533 196 591.333 192.4 591.466 188.933C591.6 186.667 591.733 186.533 592.266 188.4C592.533 189.6 593.333 190.4 593.733 190.133ZM202.667 209.467C200.133 214.267 198.8 213.867 200.133 208.8C200.533 206.933 201.867 205.333 202.8 205.333C204.4 205.333 204.4 206 202.667 209.467ZM38.2665 209.6C37.3332 210.533 36.6665 210.667 36.6665 209.867C36.6665 208 38.2665 206.4 39.1998 207.333C39.4665 207.733 39.0665 208.8 38.2665 209.6ZM618.8 218.133C618.4 219.333 618 220.533 618 220.933C618 221.333 617.067 220.933 616 220C614.266 218.533 614.266 218 615.6 217.2C618.4 215.467 619.733 215.867 618.8 218.133ZM28.9332 254.667C28.6665 256.8 28.1332 258.667 27.8665 258.667C27.5998 258.667 27.3332 256.8 27.3332 254.667C27.3332 252.4 27.8665 250.667 28.3998 250.667C29.0665 250.667 29.3332 252.4 28.9332 254.667ZM309.867 457.467C312.267 458.267 314.933 460.667 316.133 462.933C318 466.533 318 467.333 315.467 472.4C312.8 477.867 312.8 478 315.2 480.667C316.667 482.133 318.133 484.8 318.533 486.667C319.6 490.933 315.2 498.267 310.533 500C306.933 501.467 288.667 501.867 288.667 500.533C288.667 500.133 289.6 498.933 290.667 497.867C292.267 496.267 292.667 492 292.667 477.867C292.667 463.2 292.267 459.733 290.667 459.2C282.933 456.133 301.467 454.533 309.867 457.467ZM382.933 460.533C386.533 464.8 386.8 468 384 473.467C382 477.2 382.133 477.733 384.667 481.2C386.133 483.333 387.333 486.667 387.333 488.667C387.333 497.6 381.2 501.333 366.667 501.333C357.333 501.333 354 500 358.667 498.133C360.267 497.6 360.667 494.133 360.667 478.667C360.667 463.2 360.267 459.733 358.667 459.2C357.6 458.667 356.667 457.733 356.667 457.067C356.667 456.133 360.8 455.867 368.267 456.267C378.8 456.8 380 457.2 382.933 460.533ZM345.867 460.533C347.867 461.6 350.133 464 351.067 465.867C354 472.267 349.467 478.267 337.2 484.4C333.467 486.4 330 488.8 329.6 489.867C329.067 491.2 329.467 491.6 330.8 491.067C332 490.667 335.733 491.733 339.333 493.333C344.8 495.867 346.267 496.133 348 494.667C349.067 493.733 350 492.133 350 491.2C350 490.133 350.667 489.333 351.467 489.333C353.733 489.333 351.6 496.4 348.4 498.933C344.8 502.133 340.533 502 336.267 498.667C332.133 495.333 327.867 495.2 326.133 498.267C323.467 503.067 322.933 498.4 325.467 492.4C327.2 488 330.133 484.533 334.667 481.067C344.933 473.333 346.533 467.467 339.867 463.067C337.2 461.333 336 461.333 332.8 462.667C328.133 464.533 326.4 468 329.333 469.6C332.133 471.333 331.867 476 328.933 476C325.867 476 323.333 473.467 323.333 470.4C323.333 466.533 327.067 460.267 329.6 459.6C334.667 458.267 342.267 458.8 345.867 460.533Z" fill="white"/>
<path d="M371.333 125.2C371.333 126 372.8 127.6 374.666 128.8C377.733 130.8 378.133 130.8 381.6 128L385.333 124.933L380.666 125.733C378.133 126 374.933 125.733 373.733 125.067C372.133 124.4 371.333 124.4 371.333 125.2Z" fill="white"/>
<path d="M288.667 145.2C288.667 145.867 287.467 146.933 286 147.333C282.267 148.533 282.667 150.667 286.667 150.667C288.534 150.667 290 150.133 290 149.467C290 148.8 290.4 147.333 290.8 146.133C291.2 144.933 290.934 144 290.134 144C289.334 144 288.667 144.533 288.667 145.2Z" fill="white"/>
<path d="M383.466 152.533C382.533 153.6 381.466 156.533 381.066 159.2C380.533 163.067 380.8 164 382.533 164C383.866 164 384.666 162.8 384.666 160.8C384.666 158.933 385.333 157.067 386 156.667C387.6 155.6 387.733 150.667 386.133 150.667C385.466 150.667 384.266 151.467 383.466 152.533Z" fill="white"/>
<path d="M279.6 154.933C277.733 156.8 277.467 160 279.333 160C280.533 160 283.333 155.867 283.333 154.133C283.333 152.8 281.333 153.2 279.6 154.933Z" fill="white"/>
<path d="M412 160C412.4 160.667 413.067 161.333 413.467 161.333C413.734 161.333 414 160.667 414 160C414 159.2 413.334 158.667 412.534 158.667C411.867 158.667 411.6 159.2 412 160Z" fill="white"/>
<path d="M279.6 172.267C277.333 174.533 277.6 178.667 279.867 178.667C282.267 178.667 284.133 173.6 282.4 171.867C281.733 171.2 280.533 171.333 279.6 172.267Z" fill="white"/>
<path d="M471.467 172.8C471.467 174.267 471.867 174.667 472.267 173.6C472.667 172.667 472.533 171.467 472.133 171.067C471.733 170.533 471.333 171.333 471.467 172.8Z" fill="white"/>
<path d="M478.667 172C476.934 174.8 485.867 190 488 187.867C488.667 187.2 480.934 170.667 480.134 170.667C479.734 170.667 479.067 171.2 478.667 172Z" fill="white"/>
<path d="M264.134 182.267C254.934 189.067 248.667 194.933 248.667 196.8C248.667 199.467 250.534 199.067 253.2 196.133C254.534 194.667 256.4 193.867 257.334 194.133C259.467 194.933 266.134 191.733 268.534 188.8C270 187.067 270 186.667 268.534 186.667C267.467 186.667 268 185.467 269.734 183.6C275.467 177.6 271.734 176.8 264.134 182.267Z" fill="white"/>
<path d="M363.333 187.2C363.333 188.267 364.533 191.6 366 194.8C367.466 198 368.666 202 368.666 203.6C368.666 205.333 369.2 206.667 369.866 206.667C370.533 206.667 371.733 208.4 372.533 210.4C374.8 216 385.333 224.4 388.666 223.333C392.666 222.133 392.133 216.133 387.6 211.333C385.6 209.067 380.8 204.533 376.933 201.067C373.066 197.733 369.066 192.8 368 190.133C366 185.333 363.333 183.733 363.333 187.2Z" fill="white"/>
<path d="M486 190.533C486 191.2 486.667 192.267 487.333 192.667C488.133 193.067 488.667 192.933 488.667 192.133C488.667 191.467 488.133 190.4 487.333 190C486.667 189.6 486 189.733 486 190.533Z" fill="white"/>
<path d="M233.867 204C228.4 208.933 224.4 213.467 224.8 213.867C225.733 214.933 246 199.067 246 197.333C246 194 242.933 195.6 233.867 204Z" fill="white"/>
<path d="M254.667 203.333C247.2 209.867 247.2 212.133 254.933 208.133C262.4 204.133 266.533 200.533 265.467 198.8C263.867 196.267 261.6 197.2 254.667 203.333Z" fill="white"/>
<path d="M240.534 206C234 210.667 232.4 212.133 233.2 212.933C234.267 214.133 247.334 206.267 247.334 204.4C247.334 201.867 245.734 202.267 240.534 206Z" fill="white"/>
<path d="M350.267 206.8C349.334 208.133 348.667 210.133 348.667 211.067C348.667 212.133 347.334 213.467 345.867 214.267C344.134 214.933 342.8 216.933 342.534 219.067C342 224.933 351.334 228.267 358.134 224.533C359.6 223.733 356.534 210.267 354.134 207.2C351.867 204.4 351.734 204.4 350.267 206.8Z" fill="white"/>
<path d="M306.266 219.067C303.466 222 303.466 222.4 305.466 224.133C307.333 225.733 308 225.467 310.133 222.8C314.666 217.2 311.066 213.867 306.266 219.067Z" fill="white"/>
<path d="M328.934 258.8C311.734 267.333 310.667 294 327.334 302.267C334.267 305.867 346.267 306.4 353.334 303.333C359.6 300.8 360.534 297.867 356.534 293.867C353.334 290.8 353.2 290.8 347.334 292.933C336.134 296.933 328.667 292.133 328.667 281.067C328.667 275.867 329.334 273.867 332 271.333C335.6 267.6 343.334 266.8 349.334 269.6C352.4 270.933 353.2 270.8 356.4 267.467C360 263.867 360 263.867 357.334 261.733C349.2 255.467 338.134 254.267 328.934 258.8Z" fill="white"/>
<path d="M376.267 280.8C370.667 293.067 366.4 303.467 366.8 304.133C367.2 304.8 370.134 305.333 373.467 305.333C378.934 305.333 379.6 304.933 380.8 301.333C382.4 296.933 384 296.667 397.2 298.4C402.667 299.2 404.134 300 406 303.333C407.867 306.8 409.067 307.333 414.667 307.733C420.267 308.133 420.934 307.867 420.267 305.733C419.334 302.533 401.6 262.4 400.267 260.267C399.6 259.333 396.4 258.667 392.8 258.667H386.4L376.267 280.8ZM397.067 280.533C398.134 283.867 398.8 286.8 398.4 287.067C397.867 287.733 388.534 286.8 387.6 286C386.667 285.2 392.8 273.2 393.867 273.867C394.534 274.267 396 277.333 397.067 280.533Z" fill="white"/>
<path d="M267.466 263.2C265.733 264.933 263.066 271.2 261.333 276.933C257.866 288.667 258.133 288.8 252.8 270.933C250.133 262.133 249.6 261.333 246.266 261.333C244.266 261.333 242 261.867 241.066 262.4C240.133 262.933 237.733 269.333 235.733 276.4C232.266 288.933 230.133 292.533 229.866 286.267C229.733 281.6 222.666 264.667 220.933 264.8C220 264.933 216.8 265.067 213.866 265.067C207.2 265.333 207.066 264.667 216.666 288.667C225.6 311.067 224.8 310 230.4 310.4C235.866 310.933 236.4 310.267 240.8 296.8C242.4 292 244.133 288 244.666 288C245.333 288 247.333 292.533 249.333 298L253.066 308H258.533H264L269.066 293.6C271.866 285.733 275.6 275.467 277.466 270.8C279.866 264.133 280.266 261.867 278.933 261.067C275.733 259.067 270.4 260 267.466 263.2Z" fill="white"/>
<path d="M430 285.333C430 302.4 430.4 308.267 431.733 308.667C432.533 308.933 435.6 309.467 438.267 310L443.2 310.8L443.6 304.4L444 298L453.733 298.4C463.2 298.933 463.467 298.8 468 294.267C472.933 289.333 473.6 286.533 471.333 278.4C469.067 270.4 462.667 266 450.8 264.133C445.2 263.333 438.133 262.667 435.333 262.667H430V285.333ZM454.533 276C458.533 277.467 460.4 283.067 458 286C456.267 288.133 451.467 288.533 446.4 287.2C443.867 286.533 443.333 285.467 443.333 280.533C443.333 274.933 443.467 274.667 447.2 274.667C449.333 274.667 452.667 275.2 454.533 276Z" fill="white"/>
<path d="M481.333 269.333C480.267 270.933 480.8 314.533 481.733 315.2C482.267 315.467 485.2 316.133 488.4 316.667L494 317.6V311.467V305.467L504.4 306.267C514 306.933 515.067 306.8 518.533 303.867C526.133 297.333 523.067 281.467 513.067 275.6C508.4 272.933 482.267 267.733 481.333 269.333ZM508.4 286.267C512.8 292.267 508.8 296.667 500.4 295.067C495.2 294 494.667 293.6 494.267 289.467C493.6 282.267 494.4 281.467 500.933 282.8C504.133 283.6 507.467 285.067 508.4 286.267Z" fill="white"/>
<path d="M171.867 272.533C158.534 278.667 151.734 292.667 155.467 305.867C157.6 313.333 161.6 316.933 169.867 318.8C176.667 320.267 183.334 319.333 190.667 315.6C197.734 312.133 200.534 309.6 203.334 304C209.067 292.667 208.134 282.4 200.667 274.533C196 269.6 195.467 269.333 187.2 269.333C181.067 269.333 176.8 270.267 171.867 272.533ZM189.067 282.667C200.534 291.733 187.734 312.4 174 306.667C166.667 303.6 165.334 291.467 171.734 285.733C178.667 279.467 183.734 278.533 189.067 282.667Z" fill="white"/>
<path d="M138.533 278.533C131.733 280.267 131.466 280.667 131.866 292.667C132.133 298.933 132 304 131.466 304C131.066 304 126.4 299.733 121.2 294.533L111.733 285.067L106.266 286.533L100.8 288V311.333C100.8 336.8 100.4 335.733 109.066 333.2L114 331.867V320C114 313.333 114.533 308 115.2 308C115.733 308 120 312.267 124.666 317.467C132.666 326.533 133.333 326.933 137.733 326.133C140.4 325.733 142.933 324.933 143.466 324.4C144.933 322.933 145.333 278.133 143.866 277.867C143.2 277.733 140.8 278 138.533 278.533Z" fill="white"/>
<path d="M532.133 281.2C530.933 287.733 531.6 324 532.8 324.8C534.666 325.867 567.733 333.467 568.266 332.8C568.533 332.533 568.933 330.533 569.333 328.133C569.866 323.067 568.8 322.4 555.066 319.333C545.066 317.2 544.666 316.933 544.666 313.2C544.666 308.667 544.133 308.667 556 312C561.2 313.467 565.733 314.667 566.4 314.667C566.933 314.667 567.333 312.267 567.333 309.333C567.333 304.933 566.8 303.867 564.4 303.333C562.666 302.933 557.733 301.867 553.333 300.933C546.133 299.333 545.333 298.8 544.933 295.6C544.4 291.333 544.933 291.2 557.333 294.667C562.533 296.133 567.2 297.333 567.733 297.333C568.4 297.333 568.666 294.8 568.4 291.733L568 286.133L550.4 282L532.8 277.733L532.133 281.2Z" fill="white"/>
<path d="M579.333 312.667C579.333 339.733 577.2 336.267 597.466 341.333C609.333 344.267 609.733 344.267 614.666 341.867C626.666 336.267 626.266 316.133 614 303.867C607.733 297.6 606.133 296.933 581.733 289.867C579.466 289.2 579.333 290.933 579.333 312.667ZM599.866 305.867C606.533 308.667 610 313.867 610 321.467C610 329.733 606.666 332.533 598.933 330.667C596.133 330.133 593.466 329.2 593.066 328.8C592.133 328 591.6 306.533 592.266 304.933C593.066 303.6 594.8 303.733 599.866 305.867Z" fill="white"/>
<path d="M71.3337 295.333C59.2003 299.2 51.7337 309.2 53.6003 319.333C54.667 324.267 58.267 325.6 69.2003 325.067C77.867 324.667 78.667 324.933 78.667 327.333C78.667 331.467 70.667 334.933 63.3337 334.133C57.7337 333.333 57.2003 333.6 55.067 337.467C52.0003 342.8 52.0003 343.333 56.0003 345.067C60.9337 347.333 64.9337 347.067 73.3337 343.867C85.6003 339.333 92.667 331.333 92.667 322C92.667 315.6 88.5337 313.333 76.667 313.333C68.267 313.333 66.0003 312.933 66.0003 311.467C66.0003 308.267 71.6003 305.333 77.6003 305.333C82.267 305.333 83.6003 304.667 85.867 301.467C87.467 299.333 88.667 296.933 88.667 296.267C88.667 292.933 80.5337 292.533 71.3337 295.333Z" fill="white"/>
<path d="M293.333 313.2C284.533 313.733 276.533 314.533 275.733 315.067C274.4 315.867 274 328.533 274 370.667C274 424.667 274 425.2 276.8 426.667C280.533 428.8 319.6 427.6 326.667 425.2C332.933 423.067 344.533 412 348.4 404.533C357.2 387.333 357.733 354.933 349.6 335.867C346.667 329.067 339.067 320.933 331.867 317.067C324 312.933 315.467 312.133 293.333 313.2ZM321.6 342.133C323.2 343.2 326.133 346.667 328.133 350C331.467 355.733 331.6 356.8 331.2 370.4C330.533 385.867 328.667 391.2 321.867 396.267C317.733 399.333 302.267 401.733 299.6 399.6C298.4 398.667 298 391.467 298.267 369.467L298.667 340.667L304 339.867C310.933 338.933 317.867 339.867 321.6 342.133Z" fill="white"/>
<path d="M372 318.8C371.6 322 371.333 347.733 371.6 376L372 427.333H405.333H438.666L439.066 415.2L439.466 402.933L417.466 402C392.666 400.933 393.333 401.2 394.8 390.4L395.733 383.867L415.466 384.533L435.333 385.333L435.466 382.4C436 375.067 434.933 361.867 433.733 361.2C433.066 360.8 424.666 360 415.2 359.6C405.6 359.067 397.333 358.4 396.666 358C394.933 356.933 394.933 343.067 396.666 342C397.333 341.6 402.666 341.733 408.266 342.533C414 343.2 422.933 344.267 428.133 344.667L437.6 345.6L438.266 334.4C438.666 328.4 438.533 322.4 437.866 321.2C437.066 319.733 434 318.8 427.733 318.267C422.8 317.733 412.933 316.8 406 316C399.066 315.333 388.666 314.267 383.066 313.867L372.933 312.933L372 318.8Z" fill="white"/>
<path d="M240.267 319.2C235.334 320.133 230.934 321.2 230.534 321.733C229.467 322.667 229.867 416.4 230.934 422.933L231.734 428H242.8H254V376.8C254 325.2 253.6 317.2 250.8 317.467C250 317.6 245.334 318.4 240.267 319.2Z" fill="white"/>
<path d="M458.8 325.067C458.533 325.6 458 348.8 457.867 376.667L457.467 427.333L469.867 427.733L482.267 428.133L482 416.4C481.467 395.867 481.467 396 486 396C489.467 396 490.667 396.933 493.733 402C495.733 405.333 500.133 412.533 503.6 418L509.867 428H523.467C536.4 428 536.933 427.867 535.2 425.6C525.467 412.4 514.933 395.467 516.267 395.067C525.2 392 532.667 380.933 532.667 370.667C532.667 361.867 526.533 350 518.133 342.4C510.667 335.6 503.467 332.933 476.667 326.8C463.067 323.733 459.867 323.467 458.8 325.067ZM494.667 352.533C504.8 354.933 508.667 359.067 508.667 367.333C508.667 375.6 505.067 377.867 494.4 376.667C482.133 375.067 482 374.933 482 362C482 349.067 481.467 349.467 494.667 352.533Z" fill="white"/>
<path d="M181.6 328C156.534 334.267 136.667 360.267 136.667 386.533C136.667 414.267 156.934 432.267 186 430.267C197.734 429.467 203.6 427.2 211.6 420L217.334 415.067L213.6 409.867C206.134 399.067 203.6 396.533 201.6 398C188.534 407.2 188.267 407.333 180.534 407.333C171.734 407.333 167.067 404.667 162.667 397.2C158.667 390.267 158.934 374.667 163.334 366.667C169.867 354.933 185.2 348.667 195.067 353.867C197.334 355.067 200 356 200.934 356C202.8 355.867 214 340.133 214 337.6C214 336.933 210.934 334.267 207.067 332C199.467 327.333 190.267 325.867 181.6 328Z" fill="white"/>
<path d="M84.6668 351.2L81.4668 353.067L86.4001 355.2C89.2001 356.267 93.4668 357.6 96.0001 358.133C101.6 359.067 102.267 361.333 97.0668 361.333C92.0001 361.333 84.9335 365.867 83.2001 370.267C79.4668 380.133 91.0668 395.333 99.8668 392C101.467 391.467 104.667 391.333 107.067 391.6C110.667 392.267 112.133 391.467 116.667 386.933C121.467 382.133 122 380.933 122 374.933C122 369.067 121.467 367.733 117.867 364.8C115.6 362.933 112.667 361.333 111.333 361.333C107.2 361.333 102.133 358.4 101.2 355.733C100.4 353.2 93.3335 349.333 89.7335 349.333C88.8001 349.467 86.5335 350.267 84.6668 351.2Z" fill="white"/>
<path d="M563.067 350.8C561.733 351.467 560.667 352.667 560.667 353.2C560.667 354.267 572.933 358.667 576.133 358.667C577.2 358.667 578 359.2 578 360C578 360.667 576.4 361.333 574.4 361.333C568.667 361.333 562.533 365.867 560.667 371.2C559.333 375.2 559.6 376.8 561.867 381.867C564.8 388.667 572.667 393.733 577.333 392C578.8 391.467 581.6 391.2 583.6 391.6C591.2 393.067 599.733 384 599.733 374.4C599.733 367.6 595.6 363.333 586.533 360.667C581.6 359.333 579.2 357.733 578.667 355.867C578.133 354.4 575.733 352.267 573.2 351.2C568 349.067 566.133 348.933 563.067 350.8Z" fill="white"/>
<path d="M105.866 356.933C104.133 358.933 104.266 358.933 107.333 357.333C111.866 355.067 112.133 354.667 109.733 354.667C108.533 354.667 106.8 355.6 105.866 356.933Z" fill="white"/>
<path d="M583.2 356.933C581.467 358.933 581.6 358.933 584.667 357.333C589.2 355.067 589.467 354.667 587.067 354.667C585.867 354.667 584.134 355.6 583.2 356.933Z" fill="white"/>
<path d="M208.267 149.867C206.533 151.2 206.267 151.867 207.6 152.4C209.733 153.067 214 151.067 214 149.333C214 147.467 211.067 147.733 208.267 149.867Z" fill="white"/>
<path d="M196.133 136.267C191.733 141.6 191.6 144.133 195.866 140.133C198.533 137.6 201.466 132 200.133 132C199.866 132 198.133 133.867 196.133 136.267Z" fill="white"/>
<path d="M300.4 460.933C300.133 461.467 300 464.933 300 468.667C300.133 474.933 300.267 475.333 303.733 475.733C306.533 476.133 307.6 475.467 308.667 472.667C310.8 467.067 308.533 460.8 304.4 460.267C302.533 460 300.667 460.267 300.4 460.933Z" fill="white"/>
<path d="M299.6 488.933C300 499.067 301.867 500.667 307.334 496.267C309.734 494.267 310.534 492.4 310.4 488.8C310.267 482.667 308 480 303.067 480H299.2L299.6 488.933Z" fill="white"/>
<path d="M368.667 468C368.667 475.6 368.8 476 372 476C375.6 476 378 472.667 378 467.467C378 461.867 376.667 460 372.534 460C368.667 460 368.667 460 368.667 468Z" fill="white"/>
<path d="M368.667 489.333C368.667 497.733 368.934 498.667 371.334 498.667C375.734 498.667 379.334 494 379.334 488.267C379.334 482.267 377.467 480 372.4 480H368.667V489.333Z" fill="white"/>
</svg>
