<svg width="96" height="24" viewBox="0 0 96 24" fill="none" xmlns="http://www.w3.org/2000/svg">
<path d="M10.8308 8.72446L15.1602 9.38015C15.5235 9.44259 15.8263 9.69238 15.9474 10.0671C16.0685 10.4105 15.9776 10.8164 15.7052 11.0662L12.5565 14.2822L13.3134 18.8408C13.3739 19.2154 13.2226 19.5901 12.9198 19.8087C12.617 20.0585 12.2235 20.0585 11.8904 19.9023L8.01514 17.7479L4.10957 19.9023C3.80682 20.0585 3.38296 20.0585 3.11048 19.8087C2.80772 19.5901 2.65634 19.2154 2.71689 18.8408L3.44351 14.2822L0.294835 11.0662C0.0223542 10.8164 -0.0684729 10.4105 0.0526299 10.0671C0.173733 9.69238 0.47649 9.44259 0.839798 9.38015L5.1995 8.72446L7.13714 4.57178C7.28852 4.22833 7.62155 4.00977 8.01514 4.00977C8.37845 4.00977 8.71148 4.22833 8.86286 4.57178L10.8308 8.72446Z" fill="#FFD54B"/>
<path d="M30.8308 8.72446L35.1602 9.38015C35.5235 9.44259 35.8263 9.69238 35.9474 10.0671C36.0685 10.4105 35.9776 10.8164 35.7052 11.0662L32.5565 14.2822L33.3134 18.8408C33.3739 19.2154 33.2226 19.5901 32.9198 19.8087C32.617 20.0585 32.2235 20.0585 31.8904 19.9023L28.0151 17.7479L24.1096 19.9023C23.8068 20.0585 23.383 20.0585 23.1105 19.8087C22.8077 19.5901 22.6563 19.2154 22.7169 18.8408L23.4435 14.2822L20.2948 11.0662C20.0224 10.8164 19.9315 10.4105 20.0526 10.0671C20.1737 9.69238 20.4765 9.44259 20.8398 9.38015L25.1995 8.72446L27.1371 4.57178C27.2885 4.22833 27.6216 4.00977 28.0151 4.00977C28.3784 4.00977 28.7115 4.22833 28.8629 4.57178L30.8308 8.72446Z" fill="#FFD54B"/>
<path d="M50.8308 8.72446L55.1602 9.38015C55.5235 9.44259 55.8263 9.69238 55.9474 10.0671C56.0685 10.4105 55.9776 10.8164 55.7052 11.0662L52.5565 14.2822L53.3134 18.8408C53.3739 19.2154 53.2226 19.5901 52.9198 19.8087C52.617 20.0585 52.2235 20.0585 51.8904 19.9023L48.0151 17.7479L44.1096 19.9023C43.8068 20.0585 43.383 20.0585 43.1105 19.8087C42.8077 19.5901 42.6563 19.2154 42.7169 18.8408L43.4435 14.2822L40.2948 11.0662C40.0224 10.8164 39.9315 10.4105 40.0526 10.0671C40.1737 9.69238 40.4765 9.44259 40.8398 9.38015L45.1995 8.72446L47.1371 4.57178C47.2885 4.22833 47.6216 4.00977 48.0151 4.00977C48.3784 4.00977 48.7115 4.22833 48.8629 4.57178L50.8308 8.72446Z" fill="#FFD54B"/>
<path d="M70.8308 8.72446L75.1602 9.38015C75.5235 9.44259 75.8263 9.69238 75.9474 10.0671C76.0685 10.4105 75.9776 10.8164 75.7052 11.0662L72.5565 14.2822L73.3134 18.8408C73.3739 19.2154 73.2226 19.5901 72.9198 19.8087C72.617 20.0585 72.2235 20.0585 71.8904 19.9023L68.0151 17.7479L64.1096 19.9023C63.8068 20.0585 63.383 20.0585 63.1105 19.8087C62.8077 19.5901 62.6563 19.2154 62.7169 18.8408L63.4435 14.2822L60.2948 11.0662C60.0224 10.8164 59.9315 10.4105 60.0526 10.0671C60.1737 9.69238 60.4765 9.44259 60.8398 9.38015L65.1995 8.72446L67.1371 4.57178C67.2885 4.22833 67.6216 4.00977 68.0151 4.00977C68.3784 4.00977 68.7115 4.22833 68.8629 4.57178L70.8308 8.72446Z" fill="#FFD54B"/>
<path d="M90.8308 8.72446L95.1602 9.38015C95.5235 9.44259 95.8263 9.69238 95.9474 10.0671C96.0685 10.4105 95.9776 10.8164 95.7052 11.0662L92.5565 14.2822L93.3134 18.8408C93.3739 19.2154 93.2226 19.5901 92.9198 19.8087C92.617 20.0585 92.2235 20.0585 91.8904 19.9023L88.0151 17.7479L84.1096 19.9023C83.8068 20.0585 83.383 20.0585 83.1105 19.8087C82.8077 19.5901 82.6563 19.2154 82.7169 18.8408L83.4435 14.2822L80.2948 11.0662C80.0224 10.8164 79.9315 10.4105 80.0526 10.0671C80.1737 9.69238 80.4765 9.44259 80.8398 9.38015L85.1995 8.72446L87.1371 4.57178C87.2885 4.22833 87.6216 4.00977 88.0151 4.00977C88.3784 4.00977 88.7115 4.22833 88.8629 4.57178L90.8308 8.72446Z" fill="#FFD54B"/>
</svg>
