<svg width="1440" height="827" viewBox="0 0 1440 827" fill="none" xmlns="http://www.w3.org/2000/svg">
<g clip-path="url(#clip0_2216_6749)">
<path d="M345.781 471.817C528.004 497.863 639.151 378.552 790.804 305.782C877.328 263.267 973.426 240.667 1069.71 235.516C1235.17 221.441 1423.05 179.833 1521.62 34.2219C1609.3 -99.7446 1586.49 -279.455 1509.83 -413.784C1377.58 -644.897 1127.07 -805.345 885.016 -903.181C785.619 -942.613 681.253 -975.225 575.183 -987.558C522.311 -992.637 468.315 -992.71 414.754 -991.44C324.422 -987.849 184.809 -980.775 106.843 -937.317C85.7736 -924.076 70.2892 -904.523 54.152 -885.442C37.5071 -865.019 21.6963 -843.471 6.32067 -821.561C-69.5784 -711.173 -138.515 -594.728 -196.5 -473.857C-215.175 -432.648 -235.846 -391.438 -242.3 -346.819C-268.99 -108.814 -25.7723 193.944 143.759 344.779C195.144 389.035 279.492 459.556 345.854 471.817L345.781 471.817ZM344.584 481.321C279.093 470.656 186.658 397.742 134.729 355.299C-39.7337 208.128 -240.088 -13.6986 -281.32 -244.775C-290.748 -300.967 -289.733 -362.128 -268.41 -415.671C-229.173 -519.673 -174.778 -614.063 -118.389 -708.743C-75.3805 -778.864 -30.3052 -847.897 21.9865 -911.887C35.7302 -928.211 49.9093 -944.535 66.5903 -958.647C127.114 -1008.45 255.051 -1018.61 332.037 -1023.73C414.355 -1027.97 496.745 -1026.74 578.628 -1016.07C633.603 -1007.98 686.692 -994.233 738.875 -977.728C1021.15 -886.059 1372.68 -683.241 1530.1 -425.465C1617.57 -284.642 1645.17 -91.0384 1551.75 53.956C1444.52 217.487 1234.2 261.78 1051.39 269.108C937.707 272.445 826.814 305.637 727.126 360.305C598.536 430.245 500.19 502.143 344.584 481.357L344.584 481.321Z" fill="#0C5947"/>
<path d="M1413.13 -309.733C1378.03 -397.451 1346.49 -486.691 1308.96 -573.393C1272.15 -657.701 1226.97 -745.274 1146.33 -794.698C1066.81 -844.014 970.534 -854.675 878.939 -861.819C785.024 -868.31 690.419 -868.817 596.286 -869.905C410.667 -869.688 211.341 -863.632 50.7051 -759.742C-14.9271 -717.28 -68.6295 -657.955 -106.667 -589.856C-129.693 -548.408 -146.228 -503.988 -170.994 -463.23C-194.89 -421.746 -224.152 -383.2 -256.57 -348.026C-276.187 -325.834 -300.554 -304.04 -311.178 -277.025C-315.929 -264.334 -316.436 -250.482 -314.297 -236.159C-309.583 -206.714 -297.109 -177.85 -284.599 -150.399C-258.274 -94.0124 -226.981 -39.3296 -196.594 15.6795C-165.954 70.5798 -134.733 124.972 -101.409 178.205C4.54484 344.828 165.18 567.04 374.079 595.578C435.795 603.882 499.215 592.713 556.653 569.143C656.334 522.873 763.557 482.876 875.422 489.077C1028.99 495.785 1135.12 589.993 1241.44 689.641C1309.28 751.757 1389.82 821.561 1487.4 783.631C1877.27 619.982 1810.48 308.276 1621.85 5.4901C1572.36 -75.0836 1516.33 -151.306 1462.05 -228.689C1444.43 -254.869 1425.5 -280.434 1413.13 -309.733ZM1415.49 -310.64C1427.64 -281.776 1446.6 -256.03 1464.08 -230.103C1518.29 -152.647 1574.46 -76.4978 1624.35 3.93077C1755.94 212.726 1878.03 501.841 1652.82 693.63C1610.65 729.891 1562.46 758.357 1512.09 781.637C1439.13 818.08 1372.49 803.176 1309.14 756.254C1257.9 718.868 1214.42 672.779 1166.89 631.296C1097.23 568.925 1015.53 515.149 921.799 499.702C800.543 478.38 678.344 517.76 570.25 570.738C552.301 578.789 533.554 586.367 514.699 592.133C329.297 652.617 168.444 556.669 46.4624 421.557C-71.2764 292.248 -160.188 139.803 -243.334 -12.4597C-273.141 -68.6655 -303.709 -124.654 -325.61 -184.739C-345.01 -239.64 -347.475 -282.827 -304.797 -327.828C-283.366 -351.507 -260.993 -372.757 -240.76 -397.088C-220.744 -420.767 -202.432 -445.933 -185.788 -472.223C-159.971 -511.567 -141.695 -555.661 -117.944 -596.383C64.3754 -906.203 471.077 -885.788 785.495 -888C1270.38 -886.368 1266.39 -703.029 1415.49 -310.64Z" fill="#0C5947"/>
</g>
<defs>
<clipPath id="clip0_2216_6749">
<rect width="1440" height="827" fill="white" transform="translate(1440 827) rotate(-180)"/>
</clipPath>
</defs>
</svg>
