<svg width="22" height="23" viewBox="0 0 22 23" fill="none" xmlns="http://www.w3.org/2000/svg">
<g clip-path="url(#clip0_34_3783)">
<path d="M16.5 20.835V22.21H21.3125C21.6922 22.21 22 21.9022 22 21.5225V16.71H20.625V19.8656L14.2381 13.4787L13.2688 14.4481L19.6556 20.835H16.5Z" fill="white"/>
<path d="M0.687695 22.21H5.50019V20.835H2.34457L8.73145 14.4481L7.76207 13.4787L1.37519 19.8656V16.71H0.00019455V21.5225C0.00019455 21.9022 0.30798 22.21 0.687695 22.21Z" fill="white"/>
<path d="M1.37519 2.55429L7.76207 8.94116L8.73145 7.97179L2.34457 1.58491H5.50019V0.209911H0.687695C0.30798 0.209911 0.00019455 0.517696 0.00019455 0.897411V5.70991H1.37519V2.55429Z" fill="white"/>
<path d="M14.2381 8.948L20.625 2.55425V5.70987H22V0.897373C22 0.517658 21.6922 0.209873 21.3125 0.209873H16.5V1.58487H19.6556L13.2688 7.97175L14.2381 8.948Z" fill="white"/>
</g>
<defs>
<clipPath id="clip0_34_3783">
<rect width="22" height="22" fill="white" transform="matrix(-1 0 0 -1 22 22.21)"/>
</clipPath>
</defs>
</svg>
