<svg width="80" height="16" viewBox="0 0 80 16" fill="none" xmlns="http://www.w3.org/2000/svg">
<path d="M8.00016 11.5135L12.1202 14.0002L11.0268 9.3135L14.6668 6.16016L9.8735 5.7535L8.00016 1.3335L6.12683 5.7535L1.3335 6.16016L4.9735 9.3135L3.88016 14.0002L8.00016 11.5135Z" fill="#A60B00"/>
<path d="M24.0002 11.5135L28.1202 14.0002L27.0268 9.3135L30.6668 6.16016L25.8735 5.7535L24.0002 1.3335L22.1268 5.7535L17.3335 6.16016L20.9735 9.3135L19.8802 14.0002L24.0002 11.5135Z" fill="#A60B00"/>
<path d="M40.0002 11.5135L44.1202 14.0002L43.0268 9.3135L46.6668 6.16016L41.8735 5.7535L40.0002 1.3335L38.1268 5.7535L33.3335 6.16016L36.9735 9.3135L35.8802 14.0002L40.0002 11.5135Z" fill="#A60B00"/>
<path d="M56.0002 11.5135L60.1202 14.0002L59.0268 9.3135L62.6668 6.16016L57.8735 5.7535L56.0002 1.3335L54.1268 5.7535L49.3335 6.16016L52.9735 9.3135L51.8802 14.0002L56.0002 11.5135Z" fill="#A60B00"/>
<path d="M72.0002 11.5135L76.1202 14.0002L75.0268 9.3135L78.6668 6.16016L73.8735 5.7535L72.0002 1.3335L70.1268 5.7535L65.3335 6.16016L68.9735 9.3135L67.8802 14.0002L72.0002 11.5135Z" fill="#A60B00"/>
</svg>
