<svg width="91" height="16" viewBox="0 0 91 16" fill="none" xmlns="http://www.w3.org/2000/svg">
<path d="M8.99829 11.3226L5.88579 13.2099C5.74829 13.298 5.60454 13.3357 5.45454 13.3231C5.30454 13.3105 5.17329 13.2602 5.06079 13.1721C4.94829 13.0841 4.86079 12.9738 4.79829 12.8415C4.73579 12.7091 4.72329 12.5614 4.76079 12.3984L5.58579 8.83145L2.82954 6.43464C2.70454 6.3214 2.62654 6.19231 2.59554 6.04737C2.56454 5.90243 2.57379 5.76101 2.62329 5.62312C2.67329 5.48472 2.74829 5.37148 2.84829 5.28341C2.94829 5.19534 3.08579 5.13872 3.26079 5.11356L6.89829 4.79272L8.30454 1.43341C8.36704 1.28243 8.46404 1.16919 8.59554 1.0937C8.72704 1.01821 8.86129 0.980469 8.99829 0.980469C9.13579 0.980469 9.27004 1.01821 9.40104 1.0937C9.53204 1.16919 9.62904 1.28243 9.69204 1.43341L11.0983 4.79272L14.7358 5.11356C14.9108 5.13872 15.0483 5.19534 15.1483 5.28341C15.2483 5.37148 15.3233 5.48472 15.3733 5.62312C15.4233 5.76151 15.4328 5.90318 15.4018 6.04813C15.3708 6.19307 15.2925 6.3219 15.167 6.43464L12.4108 8.83145L13.2358 12.3984C13.2733 12.5619 13.2608 12.7099 13.1983 12.8422C13.1358 12.9746 13.0483 13.0846 12.9358 13.1721C12.8233 13.2602 12.692 13.3105 12.542 13.3231C12.392 13.3357 12.2483 13.298 12.1108 13.2099L8.99829 11.3226Z" fill="#FFC803"/>
<path d="M26.9983 11.3226L23.8858 13.2099C23.7483 13.298 23.6045 13.3357 23.4545 13.3231C23.3045 13.3105 23.1733 13.2602 23.0608 13.1721C22.9483 13.0841 22.8608 12.9738 22.7983 12.8415C22.7358 12.7091 22.7233 12.5614 22.7608 12.3984L23.5858 8.83145L20.8295 6.43464C20.7045 6.3214 20.6265 6.19231 20.5955 6.04737C20.5645 5.90243 20.5738 5.76101 20.6233 5.62312C20.6733 5.48472 20.7483 5.37148 20.8483 5.28341C20.9483 5.19534 21.0858 5.13872 21.2608 5.11356L24.8983 4.79272L26.3045 1.43341C26.367 1.28243 26.464 1.16919 26.5955 1.0937C26.727 1.01821 26.8613 0.980469 26.9983 0.980469C27.1358 0.980469 27.27 1.01821 27.401 1.0937C27.532 1.16919 27.629 1.28243 27.692 1.43341L29.0983 4.79272L32.7358 5.11356C32.9108 5.13872 33.0483 5.19534 33.1483 5.28341C33.2483 5.37148 33.3233 5.48472 33.3733 5.62312C33.4233 5.76151 33.4328 5.90318 33.4018 6.04813C33.3708 6.19307 33.2925 6.3219 33.167 6.43464L30.4108 8.83145L31.2358 12.3984C31.2733 12.5619 31.2608 12.7099 31.1983 12.8422C31.1358 12.9746 31.0483 13.0846 30.9358 13.1721C30.8233 13.2602 30.692 13.3105 30.542 13.3231C30.392 13.3357 30.2483 13.298 30.1108 13.2099L26.9983 11.3226Z" fill="#FFC803"/>
<path d="M44.9983 11.3226L41.8858 13.2099C41.7483 13.298 41.6045 13.3357 41.4545 13.3231C41.3045 13.3105 41.1733 13.2602 41.0608 13.1721C40.9483 13.0841 40.8608 12.9738 40.7983 12.8415C40.7358 12.7091 40.7233 12.5614 40.7608 12.3984L41.5858 8.83145L38.8295 6.43464C38.7045 6.3214 38.6265 6.19231 38.5955 6.04737C38.5645 5.90243 38.5738 5.76101 38.6233 5.62312C38.6733 5.48472 38.7483 5.37148 38.8483 5.28341C38.9483 5.19534 39.0858 5.13872 39.2608 5.11356L42.8983 4.79272L44.3045 1.43341C44.367 1.28243 44.464 1.16919 44.5955 1.0937C44.727 1.01821 44.8613 0.980469 44.9983 0.980469C45.1358 0.980469 45.27 1.01821 45.401 1.0937C45.532 1.16919 45.629 1.28243 45.692 1.43341L47.0983 4.79272L50.7358 5.11356C50.9108 5.13872 51.0483 5.19534 51.1483 5.28341C51.2483 5.37148 51.3233 5.48472 51.3733 5.62312C51.4233 5.76151 51.4328 5.90318 51.4018 6.04813C51.3708 6.19307 51.2925 6.3219 51.167 6.43464L48.4108 8.83145L49.2358 12.3984C49.2733 12.5619 49.2608 12.7099 49.1983 12.8422C49.1358 12.9746 49.0483 13.0846 48.9358 13.1721C48.8233 13.2602 48.692 13.3105 48.542 13.3231C48.392 13.3357 48.2483 13.298 48.1108 13.2099L44.9983 11.3226Z" fill="#FFC803"/>
<path d="M62.9983 11.3226L59.8858 13.2099C59.7483 13.298 59.6045 13.3357 59.4545 13.3231C59.3045 13.3105 59.1733 13.2602 59.0608 13.1721C58.9483 13.0841 58.8608 12.9738 58.7983 12.8415C58.7358 12.7091 58.7233 12.5614 58.7608 12.3984L59.5858 8.83145L56.8295 6.43464C56.7045 6.3214 56.6265 6.19231 56.5955 6.04737C56.5645 5.90243 56.5738 5.76101 56.6233 5.62312C56.6733 5.48472 56.7483 5.37148 56.8483 5.28341C56.9483 5.19534 57.0858 5.13872 57.2608 5.11356L60.8983 4.79272L62.3045 1.43341C62.367 1.28243 62.464 1.16919 62.5955 1.0937C62.727 1.01821 62.8613 0.980469 62.9983 0.980469C63.1358 0.980469 63.27 1.01821 63.401 1.0937C63.532 1.16919 63.629 1.28243 63.692 1.43341L65.0983 4.79272L68.7358 5.11356C68.9108 5.13872 69.0483 5.19534 69.1483 5.28341C69.2483 5.37148 69.3233 5.48472 69.3733 5.62312C69.4233 5.76151 69.4328 5.90318 69.4018 6.04813C69.3708 6.19307 69.2925 6.3219 69.167 6.43464L66.4108 8.83145L67.2358 12.3984C67.2733 12.5619 67.2608 12.7099 67.1983 12.8422C67.1358 12.9746 67.0483 13.0846 66.9358 13.1721C66.8233 13.2602 66.692 13.3105 66.542 13.3231C66.392 13.3357 66.2483 13.298 66.1108 13.2099L62.9983 11.3226Z" fill="#FFC803"/>
<path d="M81.0571 11.3226L77.9243 13.2099C77.7859 13.298 77.6412 13.3357 77.4902 13.3231C77.3392 13.3105 77.2071 13.2602 77.0939 13.1721C76.9806 13.0841 76.8926 12.9738 76.8297 12.8415C76.7667 12.7091 76.7542 12.5614 76.7919 12.3984L77.6223 8.83145L74.848 6.43464C74.7222 6.3214 74.6437 6.19231 74.6125 6.04737C74.5813 5.90243 74.5906 5.76101 74.6404 5.62312C74.6908 5.48472 74.7663 5.37148 74.8669 5.28341C74.9676 5.19534 75.106 5.13872 75.2821 5.11356L78.9434 4.79272L80.3588 1.43341C80.4217 1.28243 80.5194 1.16919 80.6517 1.0937C80.7841 1.01821 80.9192 0.980469 81.0571 0.980469C81.1955 0.980469 81.3306 1.01821 81.4625 1.0937C81.5943 1.16919 81.692 1.28243 81.7554 1.43341L83.1708 4.79272L86.8321 5.11356C87.0082 5.13872 87.1466 5.19534 87.2473 5.28341C87.348 5.37148 87.4234 5.48472 87.4738 5.62312C87.5241 5.76151 87.5337 5.90318 87.5025 6.04813C87.4713 6.19307 87.3925 6.3219 87.2662 6.43464L84.4919 8.83145L85.3223 12.3984C85.36 12.5619 85.3475 12.7099 85.2846 12.8422C85.2216 12.9746 85.1336 13.0846 85.0203 13.1721C84.9071 13.2602 84.775 13.3105 84.624 13.3231C84.473 13.3357 84.3283 13.298 84.1899 13.2099L81.0571 11.3226Z" fill="#FFC803"/>
</svg>
